<?xml version="1.0" encoding="UTF-8" standalone="no"?>
<svg
   xmlns:dc="http://purl.org/dc/elements/1.1/"
   xmlns:cc="http://creativecommons.org/ns#"
   xmlns:rdf="http://www.w3.org/1999/02/22-rdf-syntax-ns#"
   xmlns:svg="http://www.w3.org/2000/svg"
   xmlns="http://www.w3.org/2000/svg"
   xmlns:xlink="http://www.w3.org/1999/xlink"
   xmlns:sodipodi="http://sodipodi.sourceforge.net/DTD/sodipodi-0.dtd"
   xmlns:inkscape="http://www.inkscape.org/namespaces/inkscape"
   height="380"
   width="315"
   xml:space="preserve"
   enable-background="new 283.5 206 90 380"
   viewBox="283.5 206 315 380"
   y="0px"
   x="0px"
   sodipodi:docname="ProbablyNoteArabicMaster.svg"
   inkscape:version="1.0 (4035a4fb49, 2020-05-01)"
   id="svg4541"
   version="1.1"><metadata
   id="metadata1113"><rdf:RDF><cc:Work
       rdf:about=""><dc:format>image/svg+xml</dc:format><dc:type
         rdf:resource="http://purl.org/dc/dcmitype/StillImage" /><dc:title /></cc:Work></rdf:RDF></metadata><defs
   id="defs1111"><linearGradient
     gradientTransform="matrix(3.3018495,0,0,3.7850074,167.21011,14.999728)"
     gradientUnits="userSpaceOnUse"
     y2="50.462322"
     x2="35.219627"
     y1="158.3329"
     x1="35.418064"
     id="linearGradient4049"
     xlink:href="#linearGradient4047"
     inkscape:collect="always" /><linearGradient
     id="linearGradient4047"
     inkscape:collect="always"><stop
       id="stop3387"
       offset="0"
       style="stop-color:#202022;stop-opacity:1;" /><stop
       id="stop3388"
       offset=".3"
       style="stop-color:#202025;stop-opacity:1;" /><stop
       id="stop3389"
       offset="1"
       style="stop-color:#08003e;stop-opacity:1;" /></linearGradient><linearGradient
     y2="50.462322"
     x2="35.219627"
     y1="158.3329"
     x1="35.418064"
     gradientTransform="matrix(1.8867712,0,0,3.7850074,217.04865,14.999728)"
     gradientUnits="userSpaceOnUse"
     id="linearGradient2483"
     xlink:href="#linearGradient4047"
     inkscape:collect="always" /></defs><path
   inkscape:export-ydpi="150.22649"
   inkscape:export-xdpi="150.22649"
   inkscape:export-filename="/home/vortico/pics/tmp/LFOs.png"
   style="fill:url(#linearGradient2483);fill-opacity:1;fill-rule:nonzero;stroke:none;stroke-width:1.14487517"
   d="m 283.5,206 h 180 v 380 h -180 z m 0,0"
   id="path33493"
   inkscape:connector-curvature="0" /><sodipodi:namedview
   inkscape:document-rotation="0"
   inkscape:guide-bbox="true"
   inkscape:lockguides="true"
   showguides="false"
   inkscape:zoom="2.1958334"
   bordercolor="#666666"
   borderopacity="1"
   objecttolerance="10"
   pagecolor="#ffffff"
   id="namedview10"
   showgrid="false"
   inkscape:cx="119.28724"
   gridtolerance="10"
   guidetolerance="10"
   inkscape:cy="114.65579"
   units="px"
   inkscape:pageshadow="2"
   inkscape:window-width="1920"
   inkscape:window-height="1058"
   inkscape:window-x="-6"
   inkscape:window-y="-6"
   inkscape:window-maximized="1"
   inkscape:current-layer="svg4541"
   inkscape:bbox-nodes="true"
   inkscape:snap-bbox="true"
   inkscape:object-paths="false"
   inkscape:snap-smooth-nodes="true"
   inkscape:snap-global="true"
   inkscape:snap-nodes="true"
   inkscape:snap-midpoints="true"
   inkscape:snap-text-baseline="false"
   inkscape:snap-object-midpoints="true"
   inkscape:snap-others="true"
   inkscape:pageopacity="0"
   inkscape:snap-bbox-edge-midpoints="true"><sodipodi:guide
     inkscape:locked="true"
     id="guide32434"
     orientation="1,0"
     position="-189.67742,159.39279" /></sodipodi:namedview><g
   style="display:none"
   display="none"
   id="g3774"><path
     style="display:inline;fill:none;stroke:#000000;stroke-width:0.26460001"
     d="m 306.6,109.8 -78.2,52.1"
     display="inline"
     inkscape:connector-curvature="0"
     id="path3762" /><path
     style="display:inline;fill:none;stroke:#000000;stroke-width:0.26460001"
     d="m 306.6,109.8 -26.1,52.1"
     display="inline"
     inkscape:connector-curvature="0"
     id="path3764" /><path
     style="display:inline;fill:none;stroke:#000000;stroke-width:0.26460001"
     d="m 306.6,109.8 26.1,52.1"
     display="inline"
     inkscape:connector-curvature="0"
     id="path3766" /><path
     style="display:inline;fill:none;stroke:#000000;stroke-width:0.26460001"
     d="m 306.6,109.8 78.2,52.1"
     display="inline"
     inkscape:connector-curvature="0"
     id="path3768" /></g><g
   style="display:none"
   display="none"
   id="g3755"><path
     style="display:inline;fill:none;stroke:#000000;stroke-width:0.26460001"
     d="m 332.7,137.3 v -27.5 h 52.5 v 27.5"
     display="inline"
     inkscape:connector-curvature="0"
     sodipodi:nodetypes="cccc"
     id="path3749" /><path
     style="display:inline;fill:none;stroke:#000000;stroke-width:0.26460001"
     d="M 228.5,137.3 V 109.8 H 281 v 27.5"
     display="inline"
     inkscape:connector-curvature="0"
     sodipodi:nodetypes="cccc"
     id="path3740" /></g><g
   style="display:none"
   display="none"
   inkscape:label="Pins"
   id="layer1"><g
     style="display:inline"
     display="inline"
     transform="matrix(0.27191367,0,0,-0.27191367,-65.704999,518.54402)"
     id="g3088"><path
       style="fill:#e7e7e7;stroke:#909290;stroke-width:0.97299999"
       d="m 1369.3,1412.6 c -49.8,0 -90.5,40.6 -90.5,90.5 0,49.9 40.6,90.5 90.5,90.5 49.8,0 90.5,-40.6 90.5,-90.5 0,-49.9 -40.5,-90.5 -90.5,-90.5"
       inkscape:connector-curvature="0"
       id="path4639" /><path
       style="fill:#e7e7e7;stroke:#909290;stroke-width:0.97299999"
       d="m 1369.3,1438 c -35.8,0 -65.2,29.2 -65.2,65.2 0,35.8 29.2,65.2 65.2,65.2 35.8,0 65.2,-29.2 65.2,-65.2 0,-36 -29.2,-65.2 -65.2,-65.2"
       inkscape:connector-curvature="0"
       id="path4647" /><path
       style="stroke:#909290;stroke-width:0.97299999"
       d="m 1409.5,1503.1 c 0,-22.1 -17.9,-40.2 -40.2,-40.2 -22.1,0 -40.2,17.9 -40.2,40.2 0,22.3 17.9,40.2 40.2,40.2 22.3,0 40.2,-17.9 40.2,-40.2"
       inkscape:connector-curvature="0"
       id="path4655" /></g><g
     style="display:inline"
     display="inline"
     transform="matrix(0.27191367,0,0,-0.27191367,-75.626874,525.1586)"
     id="g3778"><path
       style="fill:#e7e7e7;stroke:#909290;stroke-width:0.97299999"
       d="m 1118.4,1245.3 c -49.8,0 -90.5,40.6 -90.5,90.5 0,49.8 40.6,90.5 90.5,90.5 49.8,0 90.5,-40.6 90.5,-90.5 -0.1,-49.8 -40.5,-90.5 -90.5,-90.5"
       inkscape:connector-curvature="0"
       id="path3772" /><path
       style="fill:#e7e7e7;stroke:#909290;stroke-width:0.97299999"
       d="m 1118.4,1270.6 c -35.8,0 -65.2,29.2 -65.2,65.2 0,35.8 29.2,65.2 65.2,65.2 35.8,0 65.2,-29.2 65.2,-65.2 0,-35.9 -29.2,-65.2 -65.2,-65.2"
       inkscape:connector-curvature="0"
       id="path3774" /><path
       style="stroke:#909290;stroke-width:0.97299999"
       d="m 1158.6,1335.8 c 0,-22.1 -17.9,-40.2 -40.2,-40.2 -22.1,0 -40.2,17.9 -40.2,40.2 0,22.3 17.9,40.2 40.2,40.2 22.3,0 40.2,-17.9 40.2,-40.2"
       inkscape:connector-curvature="0"
       id="path3776" /></g><g
     style="display:inline"
     display="inline"
     transform="matrix(0.27191367,0,0,-0.27191367,-69.01229,525.1586)"
     id="g3786"><path
       style="fill:#e7e7e7;stroke:#909290;stroke-width:0.97299999"
       d="m 1285.6,1245.3 c -49.8,0 -90.5,40.6 -90.5,90.5 0,49.8 40.6,90.5 90.5,90.5 49.8,0 90.5,-40.6 90.5,-90.5 0,-49.8 -40.5,-90.5 -90.5,-90.5"
       inkscape:connector-curvature="0"
       id="path3780" /><path
       style="fill:#e7e7e7;stroke:#909290;stroke-width:0.97299999"
       d="m 1285.6,1270.6 c -35.8,0 -65.2,29.2 -65.2,65.2 0,35.8 29.2,65.2 65.2,65.2 35.8,0 65.2,-29.2 65.2,-65.2 0.1,-35.9 -29.1,-65.2 -65.2,-65.2"
       inkscape:connector-curvature="0"
       id="path3782" /><path
       style="stroke:#909290;stroke-width:0.97299999"
       d="m 1325.8,1335.8 c 0,-22.1 -17.9,-40.2 -40.2,-40.2 -22.1,0 -40.2,17.9 -40.2,40.2 0,22.3 17.9,40.2 40.2,40.2 22.3,0 40.2,-17.9 40.2,-40.2"
       inkscape:connector-curvature="0"
       id="path3784" /></g><g
     style="display:inline"
     display="inline"
     transform="matrix(0.27191367,0,0,-0.27191367,-62.397707,525.1586)"
     id="g3794"><path
       style="fill:#e7e7e7;stroke:#909290;stroke-width:0.97299999"
       d="m 1453.1,1245.3 c -49.8,0 -90.5,40.6 -90.5,90.5 0,49.8 40.6,90.5 90.5,90.5 49.8,0 90.5,-40.6 90.5,-90.5 0,-49.8 -40.7,-90.5 -90.5,-90.5"
       inkscape:connector-curvature="0"
       id="path3788" /><path
       style="fill:#e7e7e7;stroke:#909290;stroke-width:0.97299999"
       d="m 1453.1,1270.6 c -35.8,0 -65.2,29.2 -65.2,65.2 0,35.8 29.2,65.2 65.2,65.2 35.8,0 65.2,-29.2 65.2,-65.2 -0.2,-35.9 -29.4,-65.2 -65.2,-65.2"
       inkscape:connector-curvature="0"
       id="path3790" /><path
       style="stroke:#909290;stroke-width:0.97299999"
       d="m 1493.1,1335.8 c 0,-22.1 -17.9,-40.2 -40.2,-40.2 -22.1,0 -40.2,17.9 -40.2,40.2 0,22.3 17.9,40.2 40.2,40.2 22.3,0 40.2,-17.9 40.2,-40.2"
       inkscape:connector-curvature="0"
       id="path3792" /></g><g
     style="display:inline"
     display="inline"
     transform="matrix(0.27191367,0,0,-0.27191367,-55.783123,525.1586)"
     id="g3802"><path
       style="fill:#e7e7e7;stroke:#909290;stroke-width:0.97299999"
       d="m 1620.4,1245.3 c -49.8,0 -90.5,40.6 -90.5,90.5 0,49.8 40.6,90.5 90.5,90.5 49.8,0 90.5,-40.6 90.5,-90.5 -0.1,-49.8 -40.7,-90.5 -90.5,-90.5"
       inkscape:connector-curvature="0"
       id="path3796" /><path
       style="fill:#e7e7e7;stroke:#909290;stroke-width:0.97299999"
       d="m 1620.4,1270.6 c -35.8,0 -65.2,29.2 -65.2,65.2 0,35.8 29.2,65.2 65.2,65.2 35.8,0 65.2,-29.2 65.2,-65.2 -0.2,-35.9 -29.4,-65.2 -65.2,-65.2"
       inkscape:connector-curvature="0"
       id="path3798" /><path
       style="stroke:#909290;stroke-width:0.97299999"
       d="m 1660.6,1335.8 c 0,-22.1 -17.9,-40.2 -40.2,-40.2 -22.1,0 -40.2,17.9 -40.2,40.2 0,22.3 17.9,40.2 40.2,40.2 22.1,0 40.2,-17.9 40.2,-40.2"
       inkscape:connector-curvature="0"
       id="path3800" /></g></g><g
   transform="translate(112)"
   id="text3885"
   style="font-style:normal;font-variant:normal;font-weight:bold;font-stretch:normal;font-size:13.33333302px;line-height:1.25;font-family:Homenaje;-inkscape-font-specification:'Homenaje Bold';text-align:start;letter-spacing:0px;word-spacing:0px;text-anchor:start;fill:#ffffff;fill-opacity:1;stroke:none;stroke-width:0.99999994"
   aria-label="PROBABLY NOTE"><path
     inkscape:connector-curvature="0"
     id="path13374"
     style="font-style:normal;font-variant:normal;font-weight:bold;font-stretch:normal;font-size:14.66666698px;font-family:Homenaje;-inkscape-font-specification:'Homenaje Bold';text-align:start;text-anchor:start;stroke-width:0.99999994"
     d="m 307.93989,209.34001 v 3.81333 h 0.93866 q 0.836,0 1.29067,-0.572 0.46933,-0.572 0.46933,-1.48133 0,-1.76 -1.76,-1.76 z m 3.98933,1.76 q 0,1.42266 -0.77733,2.22933 -0.76267,0.792 -2.18534,0.792 h -1.02666 v 4.51733 h -1.29067 V 208.372 h 2.596 q 2.684,0 2.684,2.72801 z" /><path
     inkscape:connector-curvature="0"
     id="path13376"
     style="font-style:normal;font-variant:normal;font-weight:bold;font-stretch:normal;font-size:14.66666698px;font-family:Homenaje;-inkscape-font-specification:'Homenaje Bold';text-align:start;text-anchor:start;stroke-width:0.99999994"
     d="m 314.58572,209.34001 v 3.828 h 1.04133 q 0.836,0 1.29067,-0.572 0.46933,-0.58667 0.46933,-1.496 0,-1.76 -1.76,-1.76 z m -0.0293,4.796 v 4.50266 h -1.26134 V 208.372 h 2.71334 q 2.64,0 2.64,2.72801 0,1.02666 -0.396,1.78933 -0.396,0.76267 -1.12934,1.056 l 2.03867,4.69333 h -1.26133 l -1.99467,-4.50266 z" /><path
     inkscape:connector-curvature="0"
     id="path13378"
     style="font-style:normal;font-variant:normal;font-weight:bold;font-stretch:normal;font-size:14.66666698px;font-family:Homenaje;-inkscape-font-specification:'Homenaje Bold';text-align:start;text-anchor:start;stroke-width:0.99999994"
     d="m 325.69114,216.10134 q 0,1.24667 -0.71867,1.95067 -0.71867,0.68933 -2.09733,0.68933 -1.364,0 -2.08267,-0.68933 -0.71867,-0.704 -0.71867,-1.95067 v -5.192 q 0,-1.24667 0.71867,-1.936 0.71867,-0.704 2.08267,-0.704 1.37866,0 2.09733,0.704 0.71867,0.68933 0.71867,1.936 z m -4.32667,0.24933 q 0,0.67467 0.42533,1.056 0.44,0.36667 1.08534,0.36667 0.64533,0 1.08533,-0.36667 0.44,-0.38133 0.44,-1.056 v -5.69066 q 0,-0.67467 -0.44,-1.04134 -0.44,-0.38133 -1.08533,-0.38133 -0.64534,0 -1.08534,0.38133 -0.42533,0.36667 -0.42533,1.04134 z" /><path
     inkscape:connector-curvature="0"
     id="path13380"
     style="font-style:normal;font-variant:normal;font-weight:bold;font-stretch:normal;font-size:14.66666698px;font-family:Homenaje;-inkscape-font-specification:'Homenaje Bold';text-align:start;text-anchor:start;stroke-width:0.99999994"
     d="m 328.67947,209.34001 v 3.32933 h 0.924 q 0.88,0 1.364,-0.44 0.484,-0.45467 0.484,-1.30533 0,-1.584 -1.848,-1.584 z m 2.96267,3.84266 q 0.572,0.308 0.93866,0.924 0.38134,0.616 0.38134,1.24667 0,0.63067 -0.0587,1.012 -0.0587,0.38133 -0.264,0.836 -0.19067,0.44 -0.54267,0.73333 -0.792,0.704 -2.43466,0.704 H 327.3888 V 208.372 h 2.49334 q 1.364,0 2.03866,0.63067 0.67467,0.616 0.67467,1.95067 0,0.73333 -0.27867,1.34933 -0.264,0.60134 -0.67466,0.88 z m -2.05334,4.488 q 2.14134,0 2.14134,-2.05333 0,-1.04133 -0.63067,-1.496 -0.63067,-0.45467 -1.496,-0.45467 h -0.924 v 4.004 z" /><path
     inkscape:connector-curvature="0"
     id="path13382"
     style="font-style:normal;font-variant:normal;font-weight:bold;font-stretch:normal;font-size:14.66666698px;font-family:Homenaje;-inkscape-font-specification:'Homenaje Bold';text-align:start;text-anchor:start;stroke-width:0.99999994"
     d="m 336.06162,208.372 h 1.95066 l 2.22934,10.26667 h -1.20267 l -0.71867,-3.02133 h -2.66933 l -0.66,3.02133 h -1.24667 z m 2.03866,6.24801 -1.056,-5.28 h -0.10266 l -1.07067,5.28 z" /><path
     inkscape:connector-curvature="0"
     id="path13384"
     style="font-style:normal;font-variant:normal;font-weight:bold;font-stretch:normal;font-size:14.66666698px;font-family:Homenaje;-inkscape-font-specification:'Homenaje Bold';text-align:start;text-anchor:start;stroke-width:0.99999994"
     d="m 342.8878,209.34001 v 3.32933 h 0.924 q 0.88,0 1.364,-0.44 0.484,-0.45467 0.484,-1.30533 0,-1.584 -1.848,-1.584 z m 2.96267,3.84266 q 0.572,0.308 0.93867,0.924 0.38133,0.616 0.38133,1.24667 0,0.63067 -0.0587,1.012 -0.0587,0.38133 -0.264,0.836 -0.19066,0.44 -0.54266,0.73333 -0.792,0.704 -2.43467,0.704 h -2.27333 V 208.372 h 2.49333 q 1.364,0 2.03867,0.63067 0.67466,0.616 0.67466,1.95067 0,0.73333 -0.27866,1.34933 -0.264,0.60134 -0.67467,0.88 z m -2.05333,4.488 q 2.14133,0 2.14133,-2.05333 0,-1.04133 -0.63067,-1.496 -0.63066,-0.45467 -1.496,-0.45467 h -0.924 v 4.004 z" /><path
     inkscape:connector-curvature="0"
     id="path13386"
     style="font-style:normal;font-variant:normal;font-weight:bold;font-stretch:normal;font-size:14.66666698px;font-family:Homenaje;-inkscape-font-specification:'Homenaje Bold';text-align:start;text-anchor:start;stroke-width:0.99999994"
     d="M 348.72995,218.63867 V 208.372 h 1.29067 v 9.29867 h 3.00666 v 0.968 z" /><path
     inkscape:connector-curvature="0"
     id="path13388"
     style="font-style:normal;font-variant:normal;font-weight:bold;font-stretch:normal;font-size:14.66666698px;font-family:Homenaje;-inkscape-font-specification:'Homenaje Bold';text-align:start;text-anchor:start;stroke-width:0.99999994"
     d="m 355.52726,218.63867 h -1.29066 v -4.07733 l -2.068,-6.18934 h 1.29066 l 1.46667,4.85467 1.496,-4.85467 h 1.29067 l -2.18534,6.18934 z" /><path
     inkscape:connector-curvature="0"
     id="path13390"
     style="font-style:normal;font-variant:normal;font-weight:bold;font-stretch:normal;font-size:14.66666698px;font-family:Homenaje;-inkscape-font-specification:'Homenaje Bold';text-align:start;text-anchor:start;stroke-width:0.99999994"
     d="m 366.49587,218.63867 h -1.848 l -2.71334,-9.328 v 9.328 h -1.29066 V 208.372 h 2.156 l 2.39066,8.87334 V 208.372 h 1.30534 z" /><path
     inkscape:connector-curvature="0"
     id="path13392"
     style="font-style:normal;font-variant:normal;font-weight:bold;font-stretch:normal;font-size:14.66666698px;font-family:Homenaje;-inkscape-font-specification:'Homenaje Bold';text-align:start;text-anchor:start;stroke-width:0.99999994"
     d="m 373.70155,216.10134 q 0,1.24667 -0.71866,1.95067 -0.71867,0.68933 -2.09734,0.68933 -1.364,0 -2.08266,-0.68933 -0.71867,-0.704 -0.71867,-1.95067 v -5.192 q 0,-1.24667 0.71867,-1.936 0.71866,-0.704 2.08266,-0.704 1.37867,0 2.09734,0.704 0.71866,0.68933 0.71866,1.936 z m -4.32666,0.24933 q 0,0.67467 0.42533,1.056 0.44,0.36667 1.08533,0.36667 0.64534,0 1.08534,-0.36667 0.44,-0.38133 0.44,-1.056 v -5.69066 q 0,-0.67467 -0.44,-1.04134 -0.44,-0.38133 -1.08534,-0.38133 -0.64533,0 -1.08533,0.38133 -0.42533,0.36667 -0.42533,1.04134 z" /><path
     inkscape:connector-curvature="0"
     id="path13394"
     style="font-style:normal;font-variant:normal;font-weight:bold;font-stretch:normal;font-size:14.66666698px;font-family:Homenaje;-inkscape-font-specification:'Homenaje Bold';text-align:start;text-anchor:start;stroke-width:0.99999994"
     d="m 376.67522,218.63867 v -9.29866 h -2.05333 V 208.372 h 5.39733 v 0.96801 h -2.05333 v 9.29866 z" /><path
     inkscape:connector-curvature="0"
     id="path13396"
     style="font-size:10.66666698px"
     d="M 381.0942,218.63867 V 211.172 h 3.25334 v 0.72534 h -2.31467 v 2.38933 h 1.87733 v 0.72534 h -1.87733 v 2.90133 h 2.42133 v 0.72533 z" /></g><g
   id="flowRoot2224"
   style="font-style:normal;font-variant:normal;font-weight:bold;font-stretch:normal;font-size:8px;line-height:1.25;font-family:Arial;-inkscape-font-specification:'Arial Bold';text-align:center;letter-spacing:0px;word-spacing:0px;text-anchor:middle;fill:#000000;fill-opacity:1;stroke:none" /><path
   inkscape:connector-curvature="0"
   id="path18723"
   d="m 283.5,206 h 315 v 380 h -315 z m 0,0"
   style="fill:url(#linearGradient4049);fill-opacity:1;fill-rule:nonzero;stroke:none;stroke-width:1.51452744"
   inkscape:export-filename="/home/vortico/pics/tmp/LFOs.png"
   inkscape:export-xdpi="150.22649"
   inkscape:export-ydpi="150.22649" /><g
   aria-label="Frozen Wasteland"
   style="font-style:normal;font-weight:normal;font-size:3.52777767px;line-height:1.25;font-family:sans-serif;letter-spacing:0px;word-spacing:0px;fill:#00a3f2;fill-opacity:1;stroke:none;stroke-width:0.26458332"
   id="g18799"
   transform="matrix(3.337627,0,0,3.337627,259.31385,93.043232)"><g
     aria-label="FROZEN WASTELAND"
     style="font-style:normal;font-variant:normal;font-weight:bold;font-stretch:normal;font-size:3.52777767px;line-height:1.25;font-family:Consolas;-inkscape-font-specification:'Consolas Bold';text-align:start;letter-spacing:0px;word-spacing:0px;text-anchor:start;fill:#00a3f2;fill-opacity:1;stroke:none;stroke-width:0.26458332"
     id="g18797"
     transform="translate(-1.5875001)"><path
       d="m 41.150231,146.65677 q 0.119944,-0.11994 0.1905,-0.21166 0.07408,-0.0917 0.112889,-0.16934 0.04233,-0.0776 0.05292,-0.14464 0.01411,-0.0706 0.01411,-0.14816 0,-0.0952 -0.04586,-0.22931 -0.04586,-0.13405 -0.102306,-0.28575 -0.05644,-0.15169 -0.102306,-0.31044 -0.04586,-0.15875 -0.04586,-0.30339 0,-0.0776 0.0247,-0.1517 0.02822,-0.0741 0.06703,-0.14111 0.04233,-0.0705 0.09172,-0.13053 0.04939,-0.0635 0.09878,-0.11288 -0.07056,-0.0141 -0.123473,-0.0212 -0.05292,-0.0106 -0.07761,-0.0106 -0.130528,0 -0.22225,0.0705 -0.08819,0.067 -0.1905,0.16933 0,-0.11994 0.03528,-0.24694 0.03881,-0.13053 0.116417,-0.23636 0.07761,-0.10583 0.194027,-0.17286 0.119945,-0.067 0.282223,-0.067 0.112889,0 0.208139,0.0176 0.09878,0.0141 0.179916,0.0353 0.08114,0.0212 0.148167,0.0388 0.06703,0.0141 0.119944,0.0141 0.08114,0 0.141111,-0.0212 0.0635,-0.0247 0.123473,-0.0847 0,0.0776 -0.03175,0.17639 -0.02822,0.0988 -0.08819,0.1905 -0.05644,0.0882 -0.148167,0.15169 -0.09172,0.06 -0.211666,0.06 -0.05997,0 -0.137584,-0.007 -0.07408,-0.0106 -0.155222,-0.0247 -0.0071,0.0247 -0.01058,0.0459 -0.0035,0.0212 -0.0071,0.0388 -0.0035,0.0212 -0.0035,0.0388 0,0.0776 0.01058,0.15169 0.01411,0.0706 0.03881,0.14464 h 0.712611 l -0.08114,0.23989 q -0.01058,0.0459 -0.01411,0.067 -0.0035,0.0212 -0.01058,0.067 l -0.130528,-0.0917 h -0.363361 q 0.07761,0.17639 0.144639,0.35984 0.06703,0.17991 0.06703,0.38452 0,0.18345 -0.07408,0.3422 -0.07408,0.15522 -0.197556,0.27164 -0.119944,0.11641 -0.278694,0.17991 -0.155222,0.067 -0.321028,0.067 z"
       style="font-style:normal;font-variant:normal;font-weight:normal;font-stretch:normal;font-family:'Bradley Gratis';-inkscape-font-specification:'Bradley Gratis';text-align:start;text-anchor:start;fill:#00a3f2;fill-opacity:1;stroke-width:0.26458332"
       id="path18767"
       inkscape:connector-curvature="0" /><path
       d="m 43.22032,144.92816 q 0.07055,-0.0423 0.137583,-0.0988 0.07056,-0.0564 0.123472,-0.127 0.05645,-0.0705 0.08819,-0.16227 0.03528,-0.0952 0.03528,-0.21167 0,-0.0988 -0.03881,-0.16581 -0.03528,-0.0705 -0.08467,-0.11289 -0.04939,-0.0423 -0.09878,-0.06 -0.04586,-0.0176 -0.07056,-0.0176 -0.02822,0 -0.05292,0.0106 -0.02117,0.0106 -0.0388,0.0247 z m -0.518583,-0.94192 q -0.112889,-0.0635 -0.112889,-0.23636 0.03175,0.0318 0.112889,0.0565 0.08114,0.0212 0.172861,0.0212 0.04586,0 0.130527,-0.0106 0.08467,-0.0141 0.172862,-0.0282 0.09172,-0.0141 0.172861,-0.0247 0.08467,-0.0141 0.130527,-0.0141 0.116417,0 0.232834,0.0353 0.116416,0.0353 0.215194,0.11995 0.09878,0.0847 0.165806,0.2293 0.07056,0.14111 0.09172,0.35983 l -0.627944,0.4445 q 0.07055,0.0282 0.15875,0.0952 0.08819,0.067 0.165805,0.18698 0.08114,0.11994 0.134056,0.30691 0.05292,0.18345 0.05292,0.45156 0,0.23283 0.02117,0.37747 0.02117,0.14464 0.05292,0.23283 0.03175,0.0882 0.06703,0.13053 0.03881,0.0459 0.07056,0.0776 -0.155222,0 -0.275167,-0.0917 -0.119944,-0.0882 -0.211666,-0.23283 -0.09172,-0.14464 -0.162278,-0.32809 -0.06703,-0.18344 -0.123472,-0.37041 -0.05644,-0.18697 -0.105834,-0.35984 -0.04586,-0.17286 -0.09525,-0.29986 -0.02469,0.0176 -0.04939,0.0353 -0.02117,0.0141 -0.0388,0.0318 v 1.31939 h -0.518583 z"
       style="font-style:normal;font-variant:normal;font-weight:normal;font-stretch:normal;font-family:'Bradley Gratis';-inkscape-font-specification:'Bradley Gratis';text-align:start;text-anchor:start;fill:#00a3f2;fill-opacity:1;stroke-width:0.26458332"
       id="path18769"
       inkscape:connector-curvature="0" /><path
       d="m 45.108067,146.03588 q 0,0.11995 0.01411,0.18698 0.01764,0.067 0.04233,0.1023 0.02822,0.0317 0.0635,0.0388 0.03528,0.007 0.07056,0.007 0.07055,0 0.116416,-0.0952 0.04586,-0.0988 0.04586,-0.29986 v -1.53105 q 0,-0.15875 -0.01764,-0.25753 -0.01411,-0.10231 -0.04233,-0.15522 -0.02469,-0.0564 -0.05997,-0.0776 -0.03175,-0.0212 -0.0635,-0.0212 -0.06703,0 -0.119944,0.0847 -0.04939,0.0811 -0.04939,0.26106 z m 1.005416,-0.88547 q 0,0.25753 -0.06703,0.508 -0.0635,0.25047 -0.176389,0.44803 -0.109361,0.19755 -0.261056,0.32103 -0.151694,0.11994 -0.321028,0.11994 -0.15875,0 -0.310444,-0.10936 -0.148167,-0.10936 -0.264583,-0.29986 -0.112889,-0.1905 -0.183445,-0.4445 -0.07055,-0.254 -0.07055,-0.54328 0,-0.23636 0.0635,-0.4833 0.06703,-0.25048 0.179916,-0.45156 0.112889,-0.20108 0.264584,-0.32808 0.151694,-0.13053 0.321027,-0.13053 0.148167,0 0.292806,0.10936 0.148167,0.10936 0.264583,0.29986 0.119945,0.18697 0.194028,0.44097 0.07408,0.254 0.07408,0.54328 z"
       style="font-style:normal;font-variant:normal;font-weight:normal;font-stretch:normal;font-family:'Bradley Gratis';-inkscape-font-specification:'Bradley Gratis';text-align:start;text-anchor:start;fill:#00a3f2;fill-opacity:1;stroke-width:0.26458332"
       id="path18771"
       inkscape:connector-curvature="0" /><path
       d="m 46.267548,146.50861 q 0.04586,-0.27164 0.130528,-0.51153 0.08819,-0.23989 0.194028,-0.45861 0.105833,-0.21873 0.218722,-0.41628 0.116417,-0.20108 0.218722,-0.38806 0.102306,-0.18697 0.179917,-0.36336 0.07761,-0.17991 0.112889,-0.35983 -0.02822,-0.0176 -0.06703,-0.0318 -0.03528,-0.0141 -0.137583,-0.0141 -0.05292,0 -0.09525,0.0282 -0.03881,0.0247 -0.06703,0.0635 -0.02822,0.0353 -0.04586,0.0776 -0.01411,0.0388 -0.01411,0.0635 0,0.0282 0.01058,0.067 0.01411,0.0353 0.02822,0.0705 0.01764,0.0353 0.03528,0.067 0.01764,0.0282 0.03175,0.0423 l -0.430389,0.26811 q -0.08467,-0.0811 -0.144639,-0.19756 -0.05644,-0.11994 -0.05644,-0.23989 0,-0.06 0.03175,-0.14816 0.03175,-0.0882 0.102305,-0.16934 0.07056,-0.0847 0.183445,-0.14111 0.116416,-0.06 0.282222,-0.06 0.130528,0 0.218722,0.0176 0.08819,0.0176 0.155222,0.0423 0.06703,0.0212 0.123472,0.0388 0.05997,0.0176 0.134056,0.0176 0.04586,0 0.09878,-0.007 0.05292,-0.007 0.09878,-0.0212 0.04586,-0.0141 0.08114,-0.0282 0.03881,-0.0176 0.05997,-0.0388 -0.04233,0.22225 -0.134056,0.46213 -0.09172,0.23989 -0.204611,0.47978 -0.109361,0.23989 -0.232833,0.4692 -0.119945,0.2293 -0.22225,0.43039 -0.09878,0.19755 -0.169334,0.35983 -0.06703,0.15875 -0.07408,0.26105 0.141111,0.06 0.239889,0.06 0.0635,0 0.130528,-0.0141 0.06703,-0.0176 0.119944,-0.0529 0.05644,-0.0353 0.09172,-0.0882 0.03528,-0.0564 0.03528,-0.13405 0,-0.0776 -0.01764,-0.127 -0.01411,-0.0529 -0.03881,-0.0847 -0.0247,-0.0353 -0.05644,-0.06 -0.03175,-0.0282 -0.05997,-0.0564 l 0.405694,-0.29987 q 0.141112,0.10584 0.201084,0.22578 0.05997,0.11995 0.05997,0.26106 0,0.067 -0.02117,0.13053 -0.01764,0.06 -0.04586,0.11288 -0.02469,0.0494 -0.05997,0.0917 -0.03175,0.0423 -0.05644,0.067 l 0.05997,0.06 q 0.01764,0.0176 0.0388,0.0529 0.02117,0.0317 0.02117,0.0564 0,0.0282 -0.02469,0.0811 -0.02117,0.0564 -0.08819,0.0988 -0.02469,-0.0317 -0.05644,-0.0564 -0.02822,-0.0212 -0.05997,-0.0388 -0.03175,-0.0176 -0.06703,-0.0176 z"
       style="font-style:normal;font-variant:normal;font-weight:normal;font-stretch:normal;font-family:'Bradley Gratis';-inkscape-font-specification:'Bradley Gratis';text-align:start;text-anchor:start;fill:#00a3f2;fill-opacity:1;stroke-width:0.26458332"
       id="path18773"
       inkscape:connector-curvature="0" /><path
       d="m 49.773884,143.78163 v 0.381 q -0.03881,-0.0353 -0.102306,-0.0776 -0.05997,-0.0423 -0.130528,-0.0741 -0.06703,-0.0353 -0.134055,-0.0565 -0.06703,-0.0247 -0.112889,-0.0247 -0.08467,0 -0.172861,0.067 -0.08819,0.067 -0.144639,0.17991 -0.05644,0.10937 -0.07408,0.28928 -0.01411,0.17639 -0.01411,0.45509 h 0.903111 l -0.179916,0.40216 q -0.03528,-0.0529 -0.08467,-0.0705 -0.04586,-0.0212 -0.08467,-0.0212 H 48.88841 q 0,0.20108 0.0071,0.39511 0.0071,0.1905 0.04586,0.3422 0.04233,0.15169 0.127,0.24694 0.08467,0.0917 0.243417,0.0917 0.08467,0 0.165805,-0.0318 0.08467,-0.0317 0.155222,-0.0776 0.07056,-0.0494 0.123473,-0.1023 0.05644,-0.0529 0.08819,-0.0952 v 0.508 h -0.47625 q -0.342194,0 -0.553861,-0.11995 -0.211667,-0.12347 -0.331611,-0.32808 -0.116417,-0.20814 -0.15875,-0.47978 -0.03881,-0.27164 -0.03881,-0.56797 0,-0.0741 0.01058,-0.19403 0.01058,-0.12347 0.04586,-0.25753 0.03528,-0.13758 0.102305,-0.27516 0.06703,-0.14112 0.179917,-0.25048 0.116417,-0.11289 0.28575,-0.18344 0.169333,-0.0706 0.409222,-0.0706 z"
       style="font-style:normal;font-variant:normal;font-weight:normal;font-stretch:normal;font-family:'Bradley Gratis';-inkscape-font-specification:'Bradley Gratis';text-align:start;text-anchor:start;fill:#00a3f2;fill-opacity:1;stroke-width:0.26458332"
       id="path18775"
       inkscape:connector-curvature="0" /><path
       d="m 50.160286,146.50861 v -2.4377 q 0,-0.0988 -0.04233,-0.1658 -0.04233,-0.0706 -0.08467,-0.12348 h 0.684388 v 0.35984 l 0.391584,-0.45509 q 0.179916,0.16228 0.296333,0.32456 0.116417,0.15875 0.183445,0.32103 0.06703,0.15875 0.09172,0.32455 0.02469,0.16228 0.02469,0.33514 0,0.16933 -0.02822,0.32456 -0.02469,0.15169 -0.07408,0.29986 -0.04939,0.14816 -0.119945,0.29986 -0.06703,0.15169 -0.148166,0.3175 h 0.127 q 0.04586,0 0.09525,-0.0317 0.04939,-0.0318 0.09878,-0.0318 v 0.33867 h -0.684389 q 0.09525,-0.19403 0.151695,-0.34925 0.05997,-0.15523 0.09172,-0.29634 0.03175,-0.14111 0.04233,-0.27516 0.01058,-0.13406 0.01058,-0.28575 0,-0.1517 -0.05292,-0.31398 -0.04939,-0.1658 -0.123472,-0.30339 -0.07408,-0.13758 -0.15875,-0.22577 -0.08114,-0.0882 -0.148167,-0.0882 -0.04233,0 -0.06703,0.0212 v 2.11667 z"
       style="font-style:normal;font-variant:normal;font-weight:normal;font-stretch:normal;font-family:'Bradley Gratis';-inkscape-font-specification:'Bradley Gratis';text-align:start;text-anchor:start;fill:#00a3f2;fill-opacity:1;stroke-width:0.26458332"
       id="path18777"
       inkscape:connector-curvature="0" /><path
       d="m 53.398455,146.62502 q -0.1905,-0.13758 -0.324556,-0.2928 -0.134055,-0.15875 -0.215194,-0.32809 -0.08114,-0.16933 -0.119945,-0.34219 -0.03528,-0.17639 -0.03528,-0.34572 0,-0.16581 0.03528,-0.32809 0.03528,-0.1658 0.09172,-0.32455 0.05997,-0.16228 0.137584,-0.31397 0.07761,-0.15523 0.15875,-0.30339 h -0.02117 q -0.01058,0 -0.02469,0 -0.01058,-0.004 -0.02822,-0.004 -0.05644,0 -0.137583,0.0141 -0.07761,0.0141 -0.151694,0.0706 v -0.34573 h 0.740833 q -0.09172,0.15875 -0.15875,0.32103 -0.0635,0.15875 -0.105833,0.31045 -0.03881,0.14816 -0.05997,0.28222 -0.01764,0.13053 -0.01764,0.23636 0,0.10583 0.02117,0.254 0.02117,0.14817 0.07761,0.30692 0.05997,0.15522 0.15875,0.29633 0.102306,0.14111 0.264584,0.2293 l 0.105833,-0.0776 q -0.0635,-0.11994 -0.09878,-0.2293 -0.03528,-0.11289 -0.05292,-0.21167 -0.01411,-0.0988 -0.01764,-0.17992 -0.0035,-0.0847 -0.0035,-0.15169 0,-0.10936 0.02822,-0.24694 0.02822,-0.13759 0.08114,-0.28575 0.05292,-0.14817 0.127,-0.29987 0.07761,-0.15169 0.172861,-0.29633 -0.134055,0 -0.22225,0.0212 -0.08467,0.0212 -0.144639,0.06 v -0.33867 h 0.762 q -0.0635,0.0882 -0.127,0.20109 -0.05997,0.10936 -0.105833,0.23989 -0.04586,0.127 -0.07408,0.27163 -0.02822,0.14464 -0.02822,0.29634 0,0.25753 0.04586,0.45861 0.04586,0.19755 0.127,0.34925 0.08114,0.15169 0.1905,0.26105 0.109362,0.10937 0.232834,0.18698 v -2.26484 h 0.529166 v 2.1202 q 0,0.0247 -0.03528,0.0705 -0.03528,0.0423 -0.09172,0.0988 -0.05292,0.0565 -0.127,0.12347 -0.07055,0.0635 -0.144638,0.127 -0.176389,0.14817 -0.398639,0.32456 -0.172861,-0.13406 -0.296334,-0.26458 -0.123472,-0.13053 -0.211666,-0.254 z"
       style="font-style:normal;font-variant:normal;font-weight:normal;font-stretch:normal;font-family:'Bradley Gratis';-inkscape-font-specification:'Bradley Gratis';text-align:start;text-anchor:start;fill:#00a3f2;fill-opacity:1;stroke-width:0.26458332"
       id="path18779"
       inkscape:connector-curvature="0" /><path
       d="m 56.650514,144.81174 v -0.87841 h -0.416278 q -0.0035,0.23636 -0.01411,0.46919 -0.0071,0.22931 -0.01764,0.40922 z m 0.719667,-1.03011 q -0.03881,0.0282 -0.07408,0.0706 -0.03175,0.0423 -0.05645,0.0917 -0.02117,0.0459 -0.03528,0.0917 -0.01411,0.0423 -0.01411,0.0741 v 2.39889 h -0.53975 v -1.32998 h -0.472722 q -0.0035,0.127 -0.03528,0.2787 -0.03175,0.14816 -0.08819,0.29986 -0.05292,0.14817 -0.127,0.28928 -0.07056,0.13758 -0.162278,0.24341 -0.08819,0.10584 -0.1905,0.16934 -0.09878,0.0635 -0.208139,0.0635 -0.07055,0 -0.123472,-0.0423 -0.04939,-0.0423 -0.04939,-0.11994 0,-0.0494 0.03175,-0.0706 0.03175,-0.0247 0.06703,-0.0247 0.03175,0 0.04939,0.0106 0.01764,0.007 0.03175,0.0212 0.01764,0.0106 0.03881,0.0212 0.02117,0.007 0.05997,0.007 0.0635,0 0.102305,-0.0635 0.03881,-0.067 0.0635,-0.17639 0.0247,-0.11289 0.03528,-0.25753 0.01411,-0.14816 0.02117,-0.31044 0.0071,-0.16228 0.01764,-0.32808 0.01058,-0.16934 0.02822,-0.32456 0.02117,-0.18344 0.0635,-0.33514 0.04586,-0.15169 0.09525,-0.26811 0.04939,-0.11642 0.09878,-0.19755 0.04939,-0.0811 0.08467,-0.13053 h -0.07761 q -0.06703,0 -0.123472,0.0212 -0.05644,0.0176 -0.102306,0.0423 -0.04233,0.0212 -0.07761,0.0423 -0.03175,0.0176 -0.05644,0.0176 -0.05997,0 -0.08819,-0.0423 -0.02822,-0.0423 -0.02822,-0.0952 0,-0.0494 0.05292,-0.0917 0.05644,-0.0459 0.155222,-0.0459 z"
       style="font-style:normal;font-variant:normal;font-weight:normal;font-stretch:normal;font-family:'Bradley Gratis';-inkscape-font-specification:'Bradley Gratis';text-align:start;text-anchor:start;fill:#00a3f2;fill-opacity:1;stroke-width:0.26458332"
       id="path18781"
       inkscape:connector-curvature="0" /><path
       d="m 58.150372,146.63208 q -0.08114,-0.0811 -0.186973,-0.15875 -0.102305,-0.0776 -0.201083,-0.13759 -0.09525,-0.06 -0.169333,-0.1023 -0.07056,-0.0423 -0.08114,-0.0529 0.03528,-0.0423 0.08819,-0.11641 0.05292,-0.0776 0.102306,-0.1517 0.05292,-0.0741 0.09172,-0.13053 0.04233,-0.06 0.05292,-0.0705 0.04939,0.0317 0.134055,0.0882 0.08819,0.0529 0.172861,0.11289 0.08819,0.06 0.15875,0.10936 0.07056,0.0494 0.09172,0.0706 0.04939,-0.0282 0.08114,-0.0741 0.03528,-0.0459 0.03528,-0.14816 0,-0.0882 -0.07408,-0.18697 -0.07056,-0.0988 -0.176389,-0.20814 -0.105833,-0.10936 -0.232833,-0.22931 -0.127,-0.11994 -0.232834,-0.24694 -0.105833,-0.127 -0.179916,-0.25753 -0.07056,-0.13053 -0.07056,-0.26811 0,-0.0988 0.04939,-0.18345 0.05292,-0.0882 0.130528,-0.16227 0.07761,-0.0776 0.169333,-0.13759 0.09525,-0.0635 0.179917,-0.11641 0.08819,-0.0564 0.155222,-0.0988 0.06703,-0.0459 0.09525,-0.0811 0.02117,0.0176 0.09172,0.0882 0.07408,0.067 0.15875,0.14464 0.08467,0.0776 0.15875,0.13759 0.07761,0.06 0.102306,0.06 -0.03528,0.0282 -0.08819,0.0847 -0.04939,0.0529 -0.102305,0.11289 -0.04939,0.06 -0.09172,0.11642 -0.03881,0.0529 -0.05644,0.0811 -0.08114,-0.0353 -0.162278,-0.10583 -0.08114,-0.0706 -0.148166,-0.13759 -0.06703,-0.067 -0.112889,-0.11641 -0.04586,-0.0529 -0.05997,-0.0529 -0.02822,0 -0.04939,0.0317 -0.01764,0.0282 -0.01764,0.067 0,0.0847 0.07408,0.17991 0.07761,0.0952 0.186972,0.20461 0.112889,0.10584 0.243417,0.22578 0.134056,0.11642 0.243417,0.24342 0.112889,0.127 0.186972,0.26458 0.07761,0.13406 0.07761,0.27517 0,0.127 -0.09525,0.26811 -0.09525,0.14111 -0.229306,0.28222 -0.130527,0.13759 -0.268111,0.26459 -0.137583,0.12347 -0.225777,0.21872 z"
       style="font-style:normal;font-variant:normal;font-weight:normal;font-stretch:normal;font-family:'Bradley Gratis';-inkscape-font-specification:'Bradley Gratis';text-align:start;text-anchor:start;fill:#00a3f2;fill-opacity:1;stroke-width:0.26458332"
       id="path18783"
       inkscape:connector-curvature="0" /><path
       d="m 60.635359,146.03236 q 0,0.13758 -0.05644,0.23988 -0.05644,0.0988 -0.148167,0.16228 -0.08819,0.0635 -0.197555,0.0953 -0.109361,0.0317 -0.215195,0.0317 -0.165805,0 -0.324555,-0.0811 -0.15875,-0.0811 -0.28575,-0.21872 -0.127,-0.14111 -0.204611,-0.32808 -0.07761,-0.1905 -0.07761,-0.40922 0,-0.39159 0.179916,-0.72673 0.179917,-0.33866 0.500945,-0.61383 -0.02822,-0.004 -0.05292,-0.004 -0.02117,-0.004 -0.04586,-0.004 -0.08467,0 -0.179917,0.0282 -0.09525,0.0282 -0.179916,0.0741 -0.08467,0.0423 -0.155223,0.0952 -0.06703,0.0529 -0.102305,0.0988 0.02822,-0.13759 0.105833,-0.27164 0.07761,-0.13406 0.194028,-0.23636 0.116417,-0.10231 0.268111,-0.16581 0.151694,-0.0635 0.331611,-0.0635 0.09172,0 0.194028,0.0282 0.102305,0.0282 0.194028,0.0741 0.09525,0.0423 0.169333,0.0953 0.07408,0.0529 0.112889,0.1023 l -0.289278,0.44098 q -0.176389,-0.17287 -0.381,-0.24695 -0.04586,0.0741 -0.09525,0.17639 -0.04939,0.0988 -0.09172,0.22578 -0.03881,0.127 -0.06703,0.28222 -0.02469,0.15169 -0.02469,0.33161 0,0.16933 0.02469,0.29986 0.02822,0.13053 0.07056,0.22578 0.04233,0.0952 0.09525,0.15875 0.05644,0.0635 0.112889,0.10583 0.134055,0.0953 0.306916,0.10584 0.07056,0 0.162278,-0.0282 0.09525,-0.0318 0.151694,-0.0811 z"
       style="font-style:normal;font-variant:normal;font-weight:normal;font-stretch:normal;font-family:'Bradley Gratis';-inkscape-font-specification:'Bradley Gratis';text-align:start;text-anchor:start;fill:#00a3f2;fill-opacity:1;stroke-width:0.26458332"
       id="path18785"
       inkscape:connector-curvature="0" /><path
       d="m 62.403604,143.78163 v 0.381 q -0.03881,-0.0353 -0.102306,-0.0776 -0.05997,-0.0423 -0.130528,-0.0741 -0.06703,-0.0353 -0.134055,-0.0565 -0.06703,-0.0247 -0.112889,-0.0247 -0.08467,0 -0.172861,0.067 -0.08819,0.067 -0.144639,0.17991 -0.05644,0.10937 -0.07408,0.28928 -0.01411,0.17639 -0.01411,0.45509 h 0.903111 l -0.179917,0.40216 q -0.03528,-0.0529 -0.08467,-0.0705 -0.04586,-0.0212 -0.08467,-0.0212 h -0.553861 q 0,0.20108 0.0071,0.39511 0.0071,0.1905 0.04586,0.3422 0.04233,0.15169 0.127,0.24694 0.08467,0.0917 0.243417,0.0917 0.08467,0 0.165805,-0.0318 0.08467,-0.0317 0.155223,-0.0776 0.07055,-0.0494 0.123472,-0.1023 0.05644,-0.0529 0.08819,-0.0952 v 0.508 h -0.47625 q -0.342194,0 -0.553861,-0.11995 -0.211666,-0.12347 -0.331611,-0.32808 -0.116417,-0.20814 -0.15875,-0.47978 -0.03881,-0.27164 -0.03881,-0.56797 0,-0.0741 0.01058,-0.19403 0.01058,-0.12347 0.04586,-0.25753 0.03528,-0.13758 0.102306,-0.27516 0.06703,-0.14112 0.179916,-0.25048 0.116417,-0.11289 0.28575,-0.18344 0.169334,-0.0706 0.409222,-0.0706 z"
       style="font-style:normal;font-variant:normal;font-weight:normal;font-stretch:normal;font-family:'Bradley Gratis';-inkscape-font-specification:'Bradley Gratis';text-align:start;text-anchor:start;fill:#00a3f2;fill-opacity:1;stroke-width:0.26458332"
       id="path18787"
       inkscape:connector-curvature="0" /><path
       d="m 63.682533,144.47661 q -0.08819,-0.21167 -0.151694,-0.35278 -0.0635,-0.14111 -0.09878,-0.14111 -0.03881,0 -0.05292,0.0353 -0.01058,0.0318 -0.01058,0.0565 v 1.91205 q 0,0.0776 -0.04233,0.16228 -0.04233,0.0847 -0.112888,0.14817 0.130527,0 0.232833,-0.0635 0.102305,-0.067 0.211667,-0.14464 0.112888,-0.0811 0.250472,-0.14464 0.137583,-0.067 0.342194,-0.067 v 0.63148 H 62.65595 q 0.04586,-0.067 0.07761,-0.127 0.03528,-0.06 0.05644,-0.11995 0.02117,-0.06 0.03175,-0.127 0.01058,-0.067 0.01058,-0.14817 v -1.66863 q 0,-0.11289 -0.04233,-0.18345 -0.04233,-0.0741 -0.05997,-0.1023 0.01411,-0.004 0.07056,-0.0247 0.05997,-0.0247 0.144639,-0.0564 0.08467,-0.0318 0.186972,-0.067 0.102305,-0.0353 0.201083,-0.0635 0.09878,-0.0317 0.186972,-0.0494 0.08819,-0.0212 0.144639,-0.0212 0.0882,0 0.165806,0.0494 0.07761,0.0494 0.141111,0.12347 0.0635,0.0741 0.109361,0.16581 0.04586,0.0882 0.07408,0.16581 z"
       style="font-style:normal;font-variant:normal;font-weight:normal;font-stretch:normal;font-family:'Bradley Gratis';-inkscape-font-specification:'Bradley Gratis';text-align:start;text-anchor:start;fill:#00a3f2;fill-opacity:1;stroke-width:0.26458332"
       id="path18789"
       inkscape:connector-curvature="0" /><path
       d="m 65.8627,144.81174 v -0.87841 h -0.416278 q -0.0035,0.23636 -0.01411,0.46919 -0.0071,0.22931 -0.01764,0.40922 z m 0.719667,-1.03011 q -0.03881,0.0282 -0.07408,0.0706 -0.03175,0.0423 -0.05644,0.0917 -0.02117,0.0459 -0.03528,0.0917 -0.01411,0.0423 -0.01411,0.0741 v 2.39889 H 65.8627 v -1.32998 h -0.472722 q -0.0035,0.127 -0.03528,0.2787 -0.03175,0.14816 -0.08819,0.29986 -0.05292,0.14817 -0.127,0.28928 -0.07056,0.13758 -0.162278,0.24341 -0.08819,0.10584 -0.1905,0.16934 -0.09878,0.0635 -0.208139,0.0635 -0.07056,0 -0.123472,-0.0423 -0.04939,-0.0423 -0.04939,-0.11994 0,-0.0494 0.03175,-0.0706 0.03175,-0.0247 0.06703,-0.0247 0.03175,0 0.04939,0.0106 0.01764,0.007 0.03175,0.0212 0.01764,0.0106 0.0388,0.0212 0.02117,0.007 0.05997,0.007 0.0635,0 0.102306,-0.0635 0.0388,-0.067 0.0635,-0.17639 0.02469,-0.11289 0.03528,-0.25753 0.01411,-0.14816 0.02117,-0.31044 0.0071,-0.16228 0.01764,-0.32808 0.01058,-0.16934 0.02822,-0.32456 0.02117,-0.18344 0.0635,-0.33514 0.04586,-0.15169 0.09525,-0.26811 0.04939,-0.11642 0.09878,-0.19755 0.04939,-0.0811 0.08467,-0.13053 h -0.07761 q -0.06703,0 -0.123472,0.0212 -0.05644,0.0176 -0.102306,0.0423 -0.04233,0.0212 -0.07761,0.0423 -0.03175,0.0176 -0.05645,0.0176 -0.05997,0 -0.08819,-0.0423 -0.02822,-0.0423 -0.02822,-0.0952 0,-0.0494 0.05292,-0.0917 0.05644,-0.0459 0.155223,-0.0459 z"
       style="font-style:normal;font-variant:normal;font-weight:normal;font-stretch:normal;font-family:'Bradley Gratis';-inkscape-font-specification:'Bradley Gratis';text-align:start;text-anchor:start;fill:#00a3f2;fill-opacity:1;stroke-width:0.26458332"
       id="path18791"
       inkscape:connector-curvature="0" /><path
       d="m 66.882779,146.50861 v -2.4377 q 0,-0.0988 -0.04233,-0.1658 -0.04233,-0.0706 -0.08467,-0.12348 h 0.684389 v 0.35984 l 0.391583,-0.45509 q 0.179917,0.16228 0.296333,0.32456 0.116417,0.15875 0.183445,0.32103 0.06703,0.15875 0.09172,0.32455 0.02469,0.16228 0.02469,0.33514 0,0.16933 -0.02822,0.32456 -0.02469,0.15169 -0.07408,0.29986 -0.04939,0.14816 -0.119945,0.29986 -0.06703,0.15169 -0.148166,0.3175 h 0.127 q 0.04586,0 0.09525,-0.0317 0.04939,-0.0318 0.09878,-0.0318 v 0.33867 H 67.69417 q 0.09525,-0.19403 0.151694,-0.34925 0.05997,-0.15523 0.09172,-0.29634 0.03175,-0.14111 0.04233,-0.27516 0.01058,-0.13406 0.01058,-0.28575 0,-0.1517 -0.05292,-0.31398 -0.04939,-0.1658 -0.123472,-0.30339 -0.07408,-0.13758 -0.15875,-0.22577 -0.08114,-0.0882 -0.148167,-0.0882 -0.04233,0 -0.06703,0.0212 v 2.11667 z"
       style="font-style:normal;font-variant:normal;font-weight:normal;font-stretch:normal;font-family:'Bradley Gratis';-inkscape-font-specification:'Bradley Gratis';text-align:start;text-anchor:start;fill:#00a3f2;fill-opacity:1;stroke-width:0.26458332"
       id="path18793"
       inkscape:connector-curvature="0" /><path
       d="m 68.771683,144.02858 q -0.09172,-0.0388 -0.127,-0.0952 -0.03528,-0.0565 -0.03528,-0.10584 0,-0.0423 0.02822,-0.0529 0.02822,0.0176 0.07761,0.0247 0.04939,0.007 0.112888,0.007 0.03175,0 0.08819,-0.0106 0.05997,-0.0106 0.130528,-0.0212 0.07055,-0.0106 0.144639,-0.0212 0.07761,-0.0106 0.144638,-0.0106 0.162278,0 0.331612,0.0847 0.169333,0.0811 0.303388,0.254 0.134056,0.16934 0.218723,0.43392 0.08819,0.26106 0.08819,0.62442 0,0.30691 -0.05292,0.52916 -0.05292,0.22225 -0.134055,0.37748 -0.08114,0.15522 -0.179917,0.25047 -0.09878,0.0917 -0.194028,0.14464 -0.09172,0.0494 -0.169333,0.067 -0.07408,0.0176 -0.109361,0.0176 -0.05292,0 -0.112889,-0.0141 -0.05997,-0.0141 -0.119944,-0.0318 -0.05645,-0.0176 -0.109361,-0.0317 -0.04939,-0.0141 -0.08467,-0.0141 -0.03881,0 -0.07056,0.0141 -0.03175,0.0106 -0.06703,0.0247 -0.03175,0.0106 -0.07056,0.0247 -0.03881,0.0106 -0.08819,0.0106 -0.01764,0 -0.03881,-0.004 -0.01764,-0.004 -0.03528,-0.0106 -0.01764,-0.007 -0.03528,-0.0176 0.02822,-0.0176 0.05644,-0.06 0.02822,-0.0459 0.05292,-0.0952 0.02822,-0.0529 0.05644,-0.11641 z m 0.518583,2.10255 q 0,0.0741 0.02469,0.11642 0.02822,0.0388 0.05997,0.0564 0.03881,0.0212 0.08467,0.0247 0.08114,0 0.141111,-0.10936 0.0635,-0.10936 0.0635,-0.2787 v -1.54869 q 0,-0.16581 -0.03175,-0.25753 -0.03175,-0.0917 -0.07408,-0.13405 -0.04233,-0.0423 -0.08467,-0.0494 -0.04233,-0.0106 -0.06703,-0.0106 -0.04233,0 -0.08114,0.0564 -0.03528,0.0564 -0.03528,0.14816 z"
       style="font-style:normal;font-variant:normal;font-weight:normal;font-stretch:normal;font-family:'Bradley Gratis';-inkscape-font-specification:'Bradley Gratis';text-align:start;text-anchor:start;fill:#00a3f2;fill-opacity:1;stroke-width:0.26458332"
       id="path18795"
       inkscape:connector-curvature="0" /></g></g><g
   style="font-style:normal;font-variant:normal;font-weight:bold;font-stretch:normal;font-size:8px;line-height:1.25;font-family:Arial;-inkscape-font-specification:'Arial Bold';text-align:center;letter-spacing:0px;word-spacing:0px;text-anchor:middle;fill:#000000;fill-opacity:1;stroke:none"
   id="g18815" /><text
   id="text19181"
   y="233.28653"
   x="108.16792"
   style="font-style:normal;font-variant:normal;font-weight:bold;font-stretch:normal;font-size:6.66667px;line-height:1.25;font-family:Arial;-inkscape-font-specification:'Arial Bold';text-align:center;letter-spacing:0px;word-spacing:0px;text-anchor:middle;fill:#000000;fill-opacity:1;stroke:none"
   xml:space="preserve" />
<text
   xml:space="preserve"
   style="font-style:normal;font-variant:normal;font-weight:bold;font-stretch:normal;font-size:6.66667px;line-height:1.25;font-family:Homenaje;-inkscape-font-specification:'Homenaje Bold';letter-spacing:0px;word-spacing:0px;fill:#ffffff;fill-opacity:1;stroke:none;stroke-width:1"
   x="466.9751"
   y="218.2247"
   id="text19161-1"><tspan
     y="218.2247"
     x="466.9751"
     style="font-size:13.3333px"
     id="tspan45969"
     sodipodi:role="line">سير اى شى</tspan></text>
<g
   aria-label="PROBABLY NOTE"
   style="font-style:normal;font-variant:normal;font-weight:bold;font-stretch:normal;font-size:13.33333302px;line-height:1.25;font-family:Homenaje;-inkscape-font-specification:'Homenaje Bold';text-align:start;letter-spacing:0px;word-spacing:0px;text-anchor:start;fill:#ffffff;fill-opacity:1;stroke:none;stroke-width:0.99999994"
   id="g18749"
   transform="translate(73.85078,0.179672)"><path
     d="m 307.93989,209.34001 v 3.81333 h 0.93866 q 0.836,0 1.29067,-0.572 0.46933,-0.572 0.46933,-1.48133 0,-1.76 -1.76,-1.76 z m 3.98933,1.76 q 0,1.42266 -0.77733,2.22933 -0.76267,0.792 -2.18534,0.792 h -1.02666 v 4.51733 h -1.29067 V 208.372 h 2.596 q 2.684,0 2.684,2.72801 z"
     style="font-style:normal;font-variant:normal;font-weight:bold;font-stretch:normal;font-size:14.66666698px;font-family:Homenaje;-inkscape-font-specification:'Homenaje Bold';text-align:start;text-anchor:start;stroke-width:0.99999994"
     id="path18725"
     inkscape:connector-curvature="0" /><path
     d="m 314.58572,209.34001 v 3.828 h 1.04133 q 0.836,0 1.29067,-0.572 0.46933,-0.58667 0.46933,-1.496 0,-1.76 -1.76,-1.76 z m -0.0293,4.796 v 4.50266 h -1.26134 V 208.372 h 2.71334 q 2.64,0 2.64,2.72801 0,1.02666 -0.396,1.78933 -0.396,0.76267 -1.12934,1.056 l 2.03867,4.69333 h -1.26133 l -1.99467,-4.50266 z"
     style="font-style:normal;font-variant:normal;font-weight:bold;font-stretch:normal;font-size:14.66666698px;font-family:Homenaje;-inkscape-font-specification:'Homenaje Bold';text-align:start;text-anchor:start;stroke-width:0.99999994"
     id="path18727"
     inkscape:connector-curvature="0" /><path
     d="m 325.69114,216.10134 q 0,1.24667 -0.71867,1.95067 -0.71867,0.68933 -2.09733,0.68933 -1.364,0 -2.08267,-0.68933 -0.71867,-0.704 -0.71867,-1.95067 v -5.192 q 0,-1.24667 0.71867,-1.936 0.71867,-0.704 2.08267,-0.704 1.37866,0 2.09733,0.704 0.71867,0.68933 0.71867,1.936 z m -4.32667,0.24933 q 0,0.67467 0.42533,1.056 0.44,0.36667 1.08534,0.36667 0.64533,0 1.08533,-0.36667 0.44,-0.38133 0.44,-1.056 v -5.69066 q 0,-0.67467 -0.44,-1.04134 -0.44,-0.38133 -1.08533,-0.38133 -0.64534,0 -1.08534,0.38133 -0.42533,0.36667 -0.42533,1.04134 z"
     style="font-style:normal;font-variant:normal;font-weight:bold;font-stretch:normal;font-size:14.66666698px;font-family:Homenaje;-inkscape-font-specification:'Homenaje Bold';text-align:start;text-anchor:start;stroke-width:0.99999994"
     id="path18729"
     inkscape:connector-curvature="0" /><path
     d="m 328.67947,209.34001 v 3.32933 h 0.924 q 0.88,0 1.364,-0.44 0.484,-0.45467 0.484,-1.30533 0,-1.584 -1.848,-1.584 z m 2.96267,3.84266 q 0.572,0.308 0.93866,0.924 0.38134,0.616 0.38134,1.24667 0,0.63067 -0.0587,1.012 -0.0587,0.38133 -0.264,0.836 -0.19067,0.44 -0.54267,0.73333 -0.792,0.704 -2.43466,0.704 H 327.3888 V 208.372 h 2.49334 q 1.364,0 2.03866,0.63067 0.67467,0.616 0.67467,1.95067 0,0.73333 -0.27867,1.34933 -0.264,0.60134 -0.67466,0.88 z m -2.05334,4.488 q 2.14134,0 2.14134,-2.05333 0,-1.04133 -0.63067,-1.496 -0.63067,-0.45467 -1.496,-0.45467 h -0.924 v 4.004 z"
     style="font-style:normal;font-variant:normal;font-weight:bold;font-stretch:normal;font-size:14.66666698px;font-family:Homenaje;-inkscape-font-specification:'Homenaje Bold';text-align:start;text-anchor:start;stroke-width:0.99999994"
     id="path18731"
     inkscape:connector-curvature="0" /><path
     d="m 336.06162,208.372 h 1.95066 l 2.22934,10.26667 h -1.20267 l -0.71867,-3.02133 h -2.66933 l -0.66,3.02133 h -1.24667 z m 2.03866,6.24801 -1.056,-5.28 h -0.10266 l -1.07067,5.28 z"
     style="font-style:normal;font-variant:normal;font-weight:bold;font-stretch:normal;font-size:14.66666698px;font-family:Homenaje;-inkscape-font-specification:'Homenaje Bold';text-align:start;text-anchor:start;stroke-width:0.99999994"
     id="path18733"
     inkscape:connector-curvature="0" /><path
     d="m 342.8878,209.34001 v 3.32933 h 0.924 q 0.88,0 1.364,-0.44 0.484,-0.45467 0.484,-1.30533 0,-1.584 -1.848,-1.584 z m 2.96267,3.84266 q 0.572,0.308 0.93867,0.924 0.38133,0.616 0.38133,1.24667 0,0.63067 -0.0587,1.012 -0.0587,0.38133 -0.264,0.836 -0.19066,0.44 -0.54266,0.73333 -0.792,0.704 -2.43467,0.704 h -2.27333 V 208.372 h 2.49333 q 1.364,0 2.03867,0.63067 0.67466,0.616 0.67466,1.95067 0,0.73333 -0.27866,1.34933 -0.264,0.60134 -0.67467,0.88 z m -2.05333,4.488 q 2.14133,0 2.14133,-2.05333 0,-1.04133 -0.63067,-1.496 -0.63066,-0.45467 -1.496,-0.45467 h -0.924 v 4.004 z"
     style="font-style:normal;font-variant:normal;font-weight:bold;font-stretch:normal;font-size:14.66666698px;font-family:Homenaje;-inkscape-font-specification:'Homenaje Bold';text-align:start;text-anchor:start;stroke-width:0.99999994"
     id="path18735"
     inkscape:connector-curvature="0" /><path
     d="M 348.72995,218.63867 V 208.372 h 1.29067 v 9.29867 h 3.00666 v 0.968 z"
     style="font-style:normal;font-variant:normal;font-weight:bold;font-stretch:normal;font-size:14.66666698px;font-family:Homenaje;-inkscape-font-specification:'Homenaje Bold';text-align:start;text-anchor:start;stroke-width:0.99999994"
     id="path18737"
     inkscape:connector-curvature="0" /><path
     d="m 355.52726,218.63867 h -1.29066 v -4.07733 l -2.068,-6.18934 h 1.29066 l 1.46667,4.85467 1.496,-4.85467 h 1.29067 l -2.18534,6.18934 z"
     style="font-style:normal;font-variant:normal;font-weight:bold;font-stretch:normal;font-size:14.66666698px;font-family:Homenaje;-inkscape-font-specification:'Homenaje Bold';text-align:start;text-anchor:start;stroke-width:0.99999994"
     id="path18739"
     inkscape:connector-curvature="0" /><path
     d="m 366.49587,218.63867 h -1.848 l -2.71334,-9.328 v 9.328 h -1.29066 V 208.372 h 2.156 l 2.39066,8.87334 V 208.372 h 1.30534 z"
     style="font-style:normal;font-variant:normal;font-weight:bold;font-stretch:normal;font-size:14.66666698px;font-family:Homenaje;-inkscape-font-specification:'Homenaje Bold';text-align:start;text-anchor:start;stroke-width:0.99999994"
     id="path18741"
     inkscape:connector-curvature="0" /><path
     d="m 373.70155,216.10134 q 0,1.24667 -0.71866,1.95067 -0.71867,0.68933 -2.09734,0.68933 -1.364,0 -2.08266,-0.68933 -0.71867,-0.704 -0.71867,-1.95067 v -5.192 q 0,-1.24667 0.71867,-1.936 0.71866,-0.704 2.08266,-0.704 1.37867,0 2.09734,0.704 0.71866,0.68933 0.71866,1.936 z m -4.32666,0.24933 q 0,0.67467 0.42533,1.056 0.44,0.36667 1.08533,0.36667 0.64534,0 1.08534,-0.36667 0.44,-0.38133 0.44,-1.056 v -5.69066 q 0,-0.67467 -0.44,-1.04134 -0.44,-0.38133 -1.08534,-0.38133 -0.64533,0 -1.08533,0.38133 -0.42533,0.36667 -0.42533,1.04134 z"
     style="font-style:normal;font-variant:normal;font-weight:bold;font-stretch:normal;font-size:14.66666698px;font-family:Homenaje;-inkscape-font-specification:'Homenaje Bold';text-align:start;text-anchor:start;stroke-width:0.99999994"
     id="path18743"
     inkscape:connector-curvature="0" /><path
     d="m 376.67522,218.63867 v -9.29866 h -2.05333 V 208.372 h 5.39733 v 0.96801 h -2.05333 v 9.29866 z"
     style="font-style:normal;font-variant:normal;font-weight:bold;font-stretch:normal;font-size:14.66666698px;font-family:Homenaje;-inkscape-font-specification:'Homenaje Bold';text-align:start;text-anchor:start;stroke-width:0.99999994"
     id="path18745"
     inkscape:connector-curvature="0" /><path
     d="M 381.0942,218.63867 V 211.172 h 3.25334 v 0.72534 h -2.31467 v 2.38933 h 1.87733 v 0.72534 h -1.87733 v 2.90133 h 2.42133 v 0.72533 z"
     style="font-size:10.66666698px"
     id="path18747"
     inkscape:connector-curvature="0" /></g><g
   aria-label="SPREAD"
   style="font-style:normal;font-variant:normal;font-weight:bold;font-stretch:normal;font-size:8px;line-height:1.25;font-family:Homenaje;-inkscape-font-specification:'Homenaje Bold';letter-spacing:0px;word-spacing:0px;fill:#ffffff;fill-opacity:1;stroke:none;stroke-width:1"
   id="g18813"
   transform="translate(-63.15434,-3.9440311)"><path
     d="m 359.45534,232.416 q 0.456,0 0.656,-0.272 0.208,-0.272 0.208,-0.632 0,-0.36 -0.136,-0.608 -0.128,-0.256 -0.328,-0.4 -0.2,-0.152 -0.432,-0.328 -0.232,-0.176 -0.432,-0.336 -0.2,-0.168 -0.336,-0.448 -0.128,-0.28 -0.128,-0.64 0,-0.64 0.384,-1.024 0.384,-0.384 1.064,-0.384 h 0.648 v 0.528 h -0.616 q -0.384,0 -0.584,0.248 -0.2,0.248 -0.2,0.536 0,0.288 0.128,0.496 0.136,0.208 0.336,0.344 0.2,0.136 0.432,0.32 0.24,0.184 0.44,0.376 0.2,0.184 0.328,0.504 0.136,0.32 0.136,0.728 0,0.752 -0.432,1.136 -0.424,0.384 -1.168,0.384 h -0.84 v -0.528 z"
     style="font-style:normal;font-variant:normal;font-weight:bold;font-stretch:normal;font-size:8px;font-family:Homenaje;-inkscape-font-specification:'Homenaje Bold';stroke-width:1"
     id="path18801"
     inkscape:connector-curvature="0" /><path
     d="m 362.50834,227.872 v 2.08 h 0.512 q 0.456,0 0.704,-0.312 0.256,-0.312 0.256,-0.808 0,-0.96 -0.96,-0.96 z m 2.176,0.96 q 0,0.776 -0.424,1.216 -0.416,0.432 -1.192,0.432 h -0.56 v 2.464 h -0.704 v -5.6 h 1.416 q 1.464,0 1.464,1.488 z"
     style="font-style:normal;font-variant:normal;font-weight:bold;font-stretch:normal;font-size:8px;font-family:Homenaje;-inkscape-font-specification:'Homenaje Bold';stroke-width:1"
     id="path18803"
     inkscape:connector-curvature="0" /><path
     d="m 366.13334,227.872 v 2.088 h 0.568 q 0.456,0 0.704,-0.312 0.256,-0.32 0.256,-0.816 0,-0.96 -0.96,-0.96 z m -0.016,2.616 v 2.456 h -0.688 v -5.6 h 1.48 q 1.44,0 1.44,1.488 0,0.56 -0.216,0.976 -0.216,0.416 -0.616,0.576 l 1.112,2.56 h -0.688 l -1.088,-2.456 z"
     style="font-style:normal;font-variant:normal;font-weight:bold;font-stretch:normal;font-size:8px;font-family:Homenaje;-inkscape-font-specification:'Homenaje Bold';stroke-width:1"
     id="path18805"
     inkscape:connector-curvature="0" /><path
     d="m 369.36684,232.944 v -5.6 h 2.44 v 0.544 h -1.736 v 1.792 h 1.408 v 0.544 h -1.408 v 2.176 h 1.816 v 0.544 z"
     style="font-style:normal;font-variant:normal;font-weight:bold;font-stretch:normal;font-size:8px;font-family:Homenaje;-inkscape-font-specification:'Homenaje Bold';stroke-width:1"
     id="path18807"
     inkscape:connector-curvature="0" /><path
     d="m 373.62871,227.344 h 1.064 l 1.216,5.6 h -0.656 l -0.392,-1.648 h -1.456 l -0.36,1.648 h -0.68 z m 1.112,3.408 -0.576,-2.88 h -0.056 l -0.584,2.88 z"
     style="font-style:normal;font-variant:normal;font-weight:bold;font-stretch:normal;font-size:8px;font-family:Homenaje;-inkscape-font-specification:'Homenaje Bold';stroke-width:1"
     id="path18809"
     inkscape:connector-curvature="0" /><path
     d="m 377.35209,232.4 h 0.68 q 0.368,0 0.592,-0.208 0.232,-0.216 0.232,-0.568 v -2.96 q 0,-0.352 -0.232,-0.56 -0.224,-0.216 -0.592,-0.216 h -0.68 z m -0.712,0.544 v -5.6 h 1.392 q 0.728,0 1.128,0.368 0.4,0.368 0.4,1.08 v 2.704 q 0,0.712 -0.4,1.08 -0.4,0.36 -1.128,0.368 z"
     style="font-style:normal;font-variant:normal;font-weight:bold;font-stretch:normal;font-size:8px;font-family:Homenaje;-inkscape-font-specification:'Homenaje Bold';stroke-width:1"
     id="path18811"
     inkscape:connector-curvature="0" /></g><g
   aria-label="FOCUS"
   style="font-style:normal;font-variant:normal;font-weight:bold;font-stretch:normal;font-size:8px;line-height:1.25;font-family:Homenaje;-inkscape-font-specification:'Homenaje Bold';letter-spacing:0px;word-spacing:0px;fill:#ffffff;fill-opacity:1;stroke:none;stroke-width:1"
   id="g18827"
   transform="translate(6.00001,-4.0000311)"><path
     d="m 417.49999,232.944 v -5.6 h 2.36 v 0.544 h -1.656 v 1.92 h 1.248 v 0.544 h -1.248 v 2.592 z"
     style="font-style:normal;font-variant:normal;font-weight:bold;font-stretch:normal;font-size:8px;font-family:Homenaje;-inkscape-font-specification:'Homenaje Bold';stroke-width:1"
     id="path18817"
     inkscape:connector-curvature="0" /><path
     d="m 423.43336,231.56 q 0,0.68 -0.392,1.064 -0.392,0.376 -1.144,0.376 -0.744,0 -1.136,-0.376 -0.392,-0.384 -0.392,-1.064 v -2.832 q 0,-0.68 0.392,-1.056 0.392,-0.384 1.136,-0.384 0.752,0 1.144,0.384 0.392,0.376 0.392,1.056 z m -2.36,0.136 q 0,0.368 0.232,0.576 0.24,0.2 0.592,0.2 0.352,0 0.592,-0.2 0.24,-0.208 0.24,-0.576 v -3.104 q 0,-0.368 -0.24,-0.568 -0.24,-0.208 -0.592,-0.208 -0.352,0 -0.592,0.208 -0.232,0.2 -0.232,0.568 z"
     style="font-style:normal;font-variant:normal;font-weight:bold;font-stretch:normal;font-size:8px;font-family:Homenaje;-inkscape-font-specification:'Homenaje Bold';stroke-width:1"
     id="path18819"
     inkscape:connector-curvature="0" /><path
     d="m 426.71936,232.416 v 0.528 h -1.072 q -0.728,0 -1.128,-0.368 -0.4,-0.368 -0.4,-1.08 v -2.704 q 0,-0.712 0.4,-1.08 0.4,-0.368 1.128,-0.368 h 1.072 v 0.528 h -1.072 q -0.368,0 -0.6,0.216 -0.224,0.208 -0.224,0.56 v 2.992 q 0,0.352 0.224,0.568 0.232,0.208 0.6,0.208 z"
     style="font-style:normal;font-variant:normal;font-weight:bold;font-stretch:normal;font-size:8px;font-family:Homenaje;-inkscape-font-specification:'Homenaje Bold';stroke-width:1"
     id="path18821"
     inkscape:connector-curvature="0" /><path
     d="m 427.22874,227.344 h 0.704 v 4.352 q 0,0.384 0.184,0.584 0.192,0.192 0.528,0.192 0.336,0 0.528,-0.192 0.192,-0.2 0.192,-0.584 v -4.352 h 0.704 v 4.216 q 0,1.44 -1.424,1.44 -1.416,0 -1.416,-1.44 z"
     style="font-style:normal;font-variant:normal;font-weight:bold;font-stretch:normal;font-size:8px;font-family:Homenaje;-inkscape-font-specification:'Homenaje Bold';stroke-width:1"
     id="path18823"
     inkscape:connector-curvature="0" /><path
     d="m 431.77599,232.416 q 0.456,0 0.656,-0.272 0.208,-0.272 0.208,-0.632 0,-0.36 -0.136,-0.608 -0.128,-0.256 -0.328,-0.4 -0.2,-0.152 -0.432,-0.328 -0.232,-0.176 -0.432,-0.336 -0.2,-0.168 -0.336,-0.448 -0.128,-0.28 -0.128,-0.64 0,-0.64 0.384,-1.024 0.384,-0.384 1.064,-0.384 h 0.648 v 0.528 h -0.616 q -0.384,0 -0.584,0.248 -0.2,0.248 -0.2,0.536 0,0.288 0.128,0.496 0.136,0.208 0.336,0.344 0.2,0.136 0.432,0.32 0.24,0.184 0.44,0.376 0.2,0.184 0.328,0.504 0.136,0.32 0.136,0.728 0,0.752 -0.432,1.136 -0.424,0.384 -1.168,0.384 h -0.84 v -0.528 z"
     style="font-style:normal;font-variant:normal;font-weight:bold;font-stretch:normal;font-size:8px;font-family:Homenaje;-inkscape-font-specification:'Homenaje Bold';stroke-width:1"
     id="path18825"
     inkscape:connector-curvature="0" /></g><g
   aria-label="OCTAVE"
   style="font-style:normal;font-variant:normal;font-weight:bold;font-stretch:normal;font-size:8px;line-height:1.25;font-family:Homenaje;-inkscape-font-specification:'Homenaje Bold';letter-spacing:0px;word-spacing:0px;fill:#ffffff;fill-opacity:1;stroke:none;stroke-width:0.99999994"
   id="g18875"
   transform="translate(122.29989,-55.000015)"><path
     d="m 409.26411,282.56 q 0,0.68 -0.392,1.064 -0.392,0.376 -1.144,0.376 -0.744,0 -1.136,-0.376 -0.392,-0.384 -0.392,-1.064 v -2.832 q 0,-0.68 0.392,-1.056 0.392,-0.384 1.136,-0.384 0.752,0 1.144,0.384 0.392,0.376 0.392,1.056 z m -2.36,0.136 q 0,0.368 0.232,0.576 0.24,0.2 0.592,0.2 0.352,0 0.592,-0.2 0.24,-0.208 0.24,-0.576 v -3.104 q 0,-0.368 -0.24,-0.568 -0.24,-0.208 -0.592,-0.208 -0.352,0 -0.592,0.208 -0.232,0.2 -0.232,0.568 z"
     style="font-style:normal;font-variant:normal;font-weight:bold;font-stretch:normal;font-size:8px;font-family:Homenaje;-inkscape-font-specification:'Homenaje Bold';stroke-width:0.99999994"
     id="path18863"
     inkscape:connector-curvature="0" /><path
     d="m 412.55011,283.416 v 0.528 h -1.072 q -0.728,0 -1.128,-0.368 -0.4,-0.368 -0.4,-1.08 v -2.704 q 0,-0.712 0.4,-1.08 0.4,-0.368 1.128,-0.368 h 1.072 v 0.528 h -1.072 q -0.368,0 -0.6,0.216 -0.224,0.208 -0.224,0.56 v 2.992 q 0,0.352 0.224,0.568 0.232,0.208 0.6,0.208 z"
     style="font-style:normal;font-variant:normal;font-weight:bold;font-stretch:normal;font-size:8px;font-family:Homenaje;-inkscape-font-specification:'Homenaje Bold';stroke-width:0.99999994"
     id="path18865"
     inkscape:connector-curvature="0" /><path
     d="m 413.99548,283.944 v -5.072 h -1.12 v -0.528 h 2.944 v 0.528 h -1.12 v 5.072 z"
     style="font-style:normal;font-variant:normal;font-weight:bold;font-stretch:normal;font-size:8px;font-family:Homenaje;-inkscape-font-specification:'Homenaje Bold';stroke-width:0.99999994"
     id="path18867"
     inkscape:connector-curvature="0" /><path
     d="m 417.04573,278.344 h 1.064 l 1.216,5.6 h -0.656 l -0.392,-1.648 h -1.456 l -0.36,1.648 h -0.68 z m 1.112,3.408 -0.576,-2.88 h -0.056 l -0.584,2.88 z"
     style="font-style:normal;font-variant:normal;font-weight:bold;font-stretch:normal;font-size:8px;font-family:Homenaje;-inkscape-font-specification:'Homenaje Bold';stroke-width:0.99999994"
     id="path18869"
     inkscape:connector-curvature="0" /><path
     d="m 421.09161,283.304 1.104,-4.96 h 0.696 l -1.32,5.6 h -0.944 l -1.344,-5.6 h 0.696 z"
     style="font-style:normal;font-variant:normal;font-weight:bold;font-stretch:normal;font-size:8px;font-family:Homenaje;-inkscape-font-specification:'Homenaje Bold';stroke-width:0.99999994"
     id="path18871"
     inkscape:connector-curvature="0" /><path
     d="m 423.72136,283.944 v -5.6 h 2.44 v 0.544 h -1.736 v 1.792 h 1.408 v 0.544 h -1.408 v 2.176 h 1.816 v 0.544 z"
     style="font-style:normal;font-variant:normal;font-weight:bold;font-stretch:normal;font-size:8px;font-family:Homenaje;-inkscape-font-specification:'Homenaje Bold';stroke-width:0.99999994"
     id="path18873"
     inkscape:connector-curvature="0" /></g><text
   xml:space="preserve"
   style="font-style:normal;font-variant:normal;font-weight:bold;font-stretch:normal;font-size:6.66667px;line-height:1.25;font-family:Homenaje;-inkscape-font-specification:'Homenaje Bold';letter-spacing:0px;word-spacing:0px;fill:#ffffff;fill-opacity:1;stroke:none;stroke-width:1"
   x="423.01334"
   y="302"
   id="text19161-2"><tspan
     sodipodi:role="line"
     id="tspan19159-3"
     x="423.01334"
     y="302"
     style="font-style:normal;font-variant:normal;font-weight:bold;font-stretch:normal;font-size:6.66667px;font-family:Homenaje;-inkscape-font-specification:'Homenaje Bold';stroke-width:1">RESET</tspan></text>
<text
   xml:space="preserve"
   style="font-style:normal;font-variant:normal;font-weight:bold;font-stretch:normal;font-size:6.66667px;line-height:1.25;font-family:Homenaje;-inkscape-font-specification:'Homenaje Bold';letter-spacing:0px;word-spacing:0px;fill:#ffffff;fill-opacity:1;stroke:none;stroke-width:1"
   x="357.06799"
   y="229"
   id="text19169-9"><tspan
     sodipodi:role="line"
     id="tspan19167-7"
     x="357.06799"
     y="229"
     style="font-style:normal;font-variant:normal;font-weight:bold;font-stretch:normal;font-size:8px;font-family:Homenaje;-inkscape-font-specification:'Homenaje Bold';stroke-width:1">SLANT</tspan></text>
<rect
   y="542"
   x="490.5"
   height="27.999998"
   width="105"
   id="rect22843"
   style="opacity:0.981;fill:#141061;fill-opacity:1;stroke:#000000;stroke-width:0;stroke-miterlimit:4;stroke-dasharray:none;stroke-opacity:1" /><text
   xml:space="preserve"
   style="font-style:normal;font-variant:normal;font-weight:bold;font-stretch:normal;font-size:6.66667px;line-height:1.25;font-family:Homenaje;-inkscape-font-specification:'Homenaje Bold';letter-spacing:0px;word-spacing:0px;fill:#ffffff;fill-opacity:1;stroke:none;stroke-width:1"
   x="545.22681"
   y="549"
   id="text19177"><tspan
     sodipodi:role="line"
     id="tspan19175"
     x="545.22681"
     y="549"
     style="font-style:normal;font-variant:normal;font-weight:bold;font-stretch:normal;font-size:6.66667px;font-family:Homenaje;-inkscape-font-specification:'Homenaje Bold';stroke-width:1">WEIGHT</tspan></text>
<text
   xml:space="preserve"
   style="font-style:normal;font-variant:normal;font-weight:bold;font-stretch:normal;font-size:6.66667px;line-height:1.25;font-family:Homenaje;-inkscape-font-specification:'Homenaje Bold';letter-spacing:0px;word-spacing:0px;fill:#ffffff;fill-opacity:1;stroke:none;stroke-width:1"
   x="570.21338"
   y="548.9267"
   id="text19177-3"><tspan
     sodipodi:role="line"
     id="tspan19175-9"
     x="570.21338"
     y="548.9267"
     style="font-style:normal;font-variant:normal;font-weight:bold;font-stretch:normal;font-size:6.66667px;font-family:Homenaje;-inkscape-font-specification:'Homenaje Bold';stroke-width:1">QUANT CV</tspan></text>
<text
   xml:space="preserve"
   style="font-style:normal;font-variant:normal;font-weight:bold;font-stretch:normal;font-size:6.66667px;line-height:1.25;font-family:Homenaje;-inkscape-font-specification:'Homenaje Bold';letter-spacing:0px;word-spacing:0px;fill:#ffffff;fill-opacity:1;stroke:none;stroke-width:1"
   x="519.21338"
   y="549"
   id="text19177-9"><tspan
     sodipodi:role="line"
     id="tspan19175-0"
     x="519.21338"
     y="549"
     style="font-style:normal;font-variant:normal;font-weight:bold;font-stretch:normal;font-size:6.66667px;font-family:Homenaje;-inkscape-font-specification:'Homenaje Bold';stroke-width:1">CHANGE</tspan></text>
<text
   xml:space="preserve"
   style="font-style:normal;font-variant:normal;font-weight:bold;font-stretch:normal;font-size:6.66667px;line-height:1.25;font-family:Homenaje;-inkscape-font-specification:'Homenaje Bold';letter-spacing:0px;word-spacing:0px;fill:#ffffff;fill-opacity:1;stroke:none;stroke-width:1"
   x="289.91599"
   y="278"
   id="text19169-6"><tspan
     sodipodi:role="line"
     id="tspan19167-78"
     x="289.91599"
     y="278"
     style="font-style:normal;font-variant:normal;font-weight:bold;font-stretch:normal;font-size:8px;font-family:Homenaje;-inkscape-font-specification:'Homenaje Bold';stroke-width:1">FAMILY</tspan></text>
<text
   xml:space="preserve"
   style="font-style:normal;font-variant:normal;font-weight:bold;font-stretch:normal;font-size:6.66667px;line-height:1.25;font-family:Homenaje;-inkscape-font-specification:'Homenaje Bold';letter-spacing:0px;word-spacing:0px;fill:#ffffff;fill-opacity:1;stroke:none;stroke-width:1"
   x="394.996"
   y="276.71201"
   id="text19169-0"><tspan
     sodipodi:role="line"
     id="tspan19167-783"
     x="394.996"
     y="276.71201"
     style="font-style:normal;font-variant:normal;font-weight:bold;font-stretch:normal;font-size:8px;font-family:Homenaje;-inkscape-font-specification:'Homenaje Bold';stroke-width:1">MAQAM</tspan></text>
<text
   xml:space="preserve"
   style="font-style:normal;font-variant:normal;font-weight:bold;font-stretch:normal;font-size:6.66667px;line-height:1.25;font-family:Homenaje;-inkscape-font-specification:'Homenaje Bold';letter-spacing:0px;word-spacing:0px;fill:#ffffff;fill-opacity:1;stroke:none;stroke-width:1"
   x="521.01331"
   y="516"
   id="text19165"><tspan
     sodipodi:role="line"
     id="tspan19163"
     x="521.01331"
     y="516"
     style="font-style:normal;font-variant:normal;font-weight:bold;font-stretch:normal;font-size:6.66667px;font-family:Homenaje;-inkscape-font-specification:'Homenaje Bold';stroke-width:1">EXT. RND</tspan></text>
<text
   xml:space="preserve"
   style="font-style:normal;font-variant:normal;font-weight:bold;font-stretch:normal;font-size:6.66667px;line-height:1.25;font-family:Homenaje;-inkscape-font-specification:'Homenaje Bold';letter-spacing:0px;word-spacing:0px;fill:#ffffff;fill-opacity:1;stroke:none;stroke-width:1"
   x="546.36664"
   y="516"
   id="text19165-2"><tspan
     sodipodi:role="line"
     id="tspan19163-6"
     x="546.36664"
     y="516"
     style="font-style:normal;font-variant:normal;font-weight:bold;font-stretch:normal;font-size:6.66667px;font-family:Homenaje;-inkscape-font-specification:'Homenaje Bold';stroke-width:1">TRIGGER</tspan></text>
<text
   xml:space="preserve"
   style="font-style:normal;font-variant:normal;font-weight:bold;font-stretch:normal;font-size:6.66667px;line-height:1.25;font-family:Homenaje;-inkscape-font-specification:'Homenaje Bold';letter-spacing:0px;word-spacing:0px;fill:#ffffff;fill-opacity:1;stroke:none;stroke-width:1"
   x="573.06665"
   y="515.95331"
   id="text19165-4"><tspan
     sodipodi:role="line"
     id="tspan19163-8"
     x="573.06665"
     y="515.95331"
     style="font-style:normal;font-variant:normal;font-weight:bold;font-stretch:normal;font-size:6.66667px;font-family:Homenaje;-inkscape-font-specification:'Homenaje Bold';stroke-width:1">NOTE IN</tspan></text>
<text
   transform="scale(0.9999975)"
   xml:space="preserve"
   style="font-style:normal;font-variant:normal;font-weight:bold;font-stretch:normal;font-size:6.66665px;line-height:1.25;font-family:Homenaje;-inkscape-font-specification:'Homenaje Bold';letter-spacing:0px;word-spacing:0px;fill:#ffffff;fill-opacity:1;stroke:none;stroke-width:0.999997"
   x="564.901"
   y="368.4657"
   id="text19177-3-5"><tspan
     sodipodi:role="line"
     id="tspan19175-9-8"
     x="564.901"
     y="368.4657"
     style="font-style:normal;font-variant:normal;font-weight:bold;font-stretch:normal;font-size:6.66665px;font-family:Homenaje;-inkscape-font-specification:'Homenaje Bold';stroke-width:0.999997">WEIGHTING</tspan></text>
<path
   inkscape:connector-curvature="0"
   id="path7523"
   d="m 564.58839,391.90779 2.8284,-2.82842"
   style="fill:none;stroke:#ffffff;stroke-width:0.24999937;stroke-linecap:butt;stroke-linejoin:miter;stroke-miterlimit:4;stroke-dasharray:none;stroke-opacity:1" /><path
   inkscape:connector-curvature="0"
   id="path9694"
   d="m 589.58925,391.99019 c 0,0 -0.37066,-3.47579 1.23313,-2.81768 1.60377,0.6581 1.60377,0.6581 1.60377,0.6581"
   style="fill:none;stroke:#ffffff;stroke-width:0.18505181;stroke-linecap:butt;stroke-linejoin:miter;stroke-miterlimit:4;stroke-dasharray:none;stroke-opacity:1" /><text
   xml:space="preserve"
   style="font-style:normal;font-variant:normal;font-weight:bold;font-stretch:normal;font-size:6.66667px;line-height:1.25;font-family:Homenaje;-inkscape-font-specification:'Homenaje Bold';letter-spacing:0px;word-spacing:0px;fill:#ffffff;fill-opacity:1;stroke:none;stroke-width:1"
   x="555.08002"
   y="477.95331"
   id="text19165-28"><tspan
     sodipodi:role="line"
     id="tspan19163-3"
     x="555.08002"
     y="477.95331"
     style="font-style:normal;font-variant:normal;font-weight:bold;font-stretch:normal;font-size:6.66667px;font-family:Homenaje;-inkscape-font-specification:'Homenaje Bold';stroke-width:1">MODULATE TRIG.</tspan></text>
<text
   xml:space="preserve"
   style="font-style:normal;font-variant:normal;font-weight:bold;font-stretch:normal;font-size:6.66667px;line-height:1.25;font-family:Homenaje;-inkscape-font-specification:'Homenaje Bold';letter-spacing:0px;word-spacing:0px;fill:#ffffff;fill-opacity:1;stroke:none;stroke-width:1"
   x="525.34003"
   y="277.944"
   id="text19169-9-1"><tspan
     sodipodi:role="line"
     id="tspan19167-7-2"
     x="525.34003"
     y="277.944"
     style="font-style:normal;font-variant:normal;font-weight:bold;font-stretch:normal;font-size:8px;font-family:Homenaje;-inkscape-font-specification:'Homenaje Bold';stroke-width:1">TONIC</tspan></text>
<text
   xml:space="preserve"
   style="font-style:normal;font-variant:normal;font-weight:bold;font-stretch:normal;font-size:6.66667px;line-height:1.25;font-family:Homenaje;-inkscape-font-specification:'Homenaje Bold';letter-spacing:0px;word-spacing:0px;fill:#ffffff;fill-opacity:1;stroke:none;stroke-width:1"
   x="533.013"
   y="407.944"
   id="text19177-3-5-2"><tspan
     sodipodi:role="line"
     id="tspan19175-9-8-1"
     x="533.013"
     y="407.944"
     style="font-style:normal;font-variant:normal;font-weight:bold;font-stretch:normal;font-size:8px;font-family:Homenaje;-inkscape-font-specification:'Homenaje Bold';stroke-width:1">RANDOMIZE PITCH</tspan></text>
<text
   xml:space="preserve"
   style="font-style:normal;font-variant:normal;font-weight:bold;font-stretch:normal;font-size:6.66667px;line-height:1.25;font-family:Homenaje;-inkscape-font-specification:'Homenaje Bold';letter-spacing:0px;word-spacing:0px;fill:#ffffff;fill-opacity:1;stroke:none;stroke-width:1"
   x="535.27039"
   y="440.96268"
   id="text19161-2-2"><tspan
     sodipodi:role="line"
     id="tspan19159-3-5"
     x="535.27039"
     y="440.96268"
     style="font-style:normal;font-variant:normal;font-weight:bold;font-stretch:normal;font-size:5.33333px;font-family:Homenaje;-inkscape-font-specification:'Homenaje Bold';stroke-width:1">GAUSSIAN</tspan></text>
<rect
   y="280.24268"
   x="289.53964"
   height="9.9206963"
   width="74.420692"
   id="rect6948-0"
   style="fill:#101015;fill-opacity:1;stroke:#999999;stroke-width:0.5793041;stroke-miterlimit:4;stroke-dasharray:none;stroke-opacity:1" /><rect
   y="280.75"
   x="525.79407"
   height="10"
   width="26"
   id="rect6948-0-6"
   style="fill:#101015;fill-opacity:1;stroke:#999999;stroke-width:0.5;stroke-miterlimit:4;stroke-dasharray:none;stroke-opacity:1" /><rect
   y="280.24265"
   x="370.53964"
   height="9.9206953"
   width="74.420692"
   id="rect6948-0-0"
   style="fill:#101015;fill-opacity:1;stroke:#999999;stroke-width:0.57930404;stroke-miterlimit:4;stroke-dasharray:none;stroke-opacity:1" /><text
   xml:space="preserve"
   style="font-style:normal;font-variant:normal;font-weight:bold;font-stretch:normal;font-size:6.66667px;line-height:1.25;font-family:Homenaje;-inkscape-font-specification:'Homenaje Bold';letter-spacing:0px;word-spacing:0px;fill:#ffffff;fill-opacity:1;stroke:none;stroke-width:1"
   x="492.42017"
   y="549"
   id="text19177-9-1"><tspan
     sodipodi:role="line"
     id="tspan19175-0-1"
     x="492.42017"
     y="549"
     style="font-style:normal;font-variant:normal;font-weight:bold;font-stretch:normal;font-size:6.66667px;font-family:Homenaje;-inkscape-font-specification:'Homenaje Bold';stroke-width:1">JINS OUT</tspan></text>
<flowRoot
   style="font-style:normal;font-variant:normal;font-weight:bold;font-stretch:normal;font-size:13.3333px;line-height:1.25;font-family:Arial;-inkscape-font-specification:'Arial Bold';text-align:center;letter-spacing:0px;word-spacing:0px;text-anchor:middle;fill:#000000;fill-opacity:1;stroke:none"
   id="flowRoot47167"
   xml:space="preserve"><flowRegion
     id="flowRegion47169"><rect
       y="218.33017"
       x="311.95447"
       height="53.965843"
       width="85.844398"
       id="rect47171" /></flowRegion><flowPara
     id="flowPara47173" /></flowRoot><text
   transform="scale(0.9999975)"
   xml:space="preserve"
   style="font-style:normal;font-variant:normal;font-weight:bold;font-stretch:normal;font-size:6.66665px;line-height:1.25;font-family:Homenaje;-inkscape-font-specification:'Homenaje Bold';letter-spacing:0px;word-spacing:0px;fill:#ffffff;fill-opacity:1;stroke:none;stroke-width:0.999997"
   x="524.90082"
   y="368.4657"
   id="text19177-3-5-7"><tspan
     sodipodi:role="line"
     id="tspan19175-9-8-3"
     x="524.90082"
     y="368.4657"
     style="font-style:normal;font-variant:normal;font-weight:bold;font-stretch:normal;font-size:6.66665px;font-family:Homenaje;-inkscape-font-specification:'Homenaje Bold';stroke-width:0.999997">WEIGHTING</tspan></text>
<path
   inkscape:connector-curvature="0"
   id="path7523-9"
   d="m 524.58839,391.90779 2.82841,-2.82842"
   style="fill:none;stroke:#ffffff;stroke-width:0.24999937;stroke-linecap:butt;stroke-linejoin:miter;stroke-miterlimit:4;stroke-dasharray:none;stroke-opacity:1" /><path
   inkscape:connector-curvature="0"
   id="path9694-4"
   d="m 549.58925,391.99019 c 0,0 -0.37065,-3.47579 1.23314,-2.81768 1.60376,0.6581 1.60376,0.6581 1.60376,0.6581"
   style="fill:none;stroke:#ffffff;stroke-width:0.18505181;stroke-linecap:butt;stroke-linejoin:miter;stroke-miterlimit:4;stroke-dasharray:none;stroke-opacity:1" /><text
   transform="scale(0.9999975)"
   xml:space="preserve"
   style="font-style:normal;font-variant:normal;font-weight:bold;font-stretch:normal;font-size:6.66665px;line-height:1.25;font-family:Homenaje;-inkscape-font-specification:'Homenaje Bold';letter-spacing:0px;word-spacing:0px;fill:#ffffff;fill-opacity:1;stroke:none;stroke-width:0.999997"
   x="572.74103"
   y="360.84833"
   id="text19177-3-5-0"><tspan
     sodipodi:role="line"
     id="tspan19175-9-8-12"
     x="572.74103"
     y="360.84833"
     style="font-style:normal;font-variant:normal;font-weight:bold;font-stretch:normal;font-size:6.66665px;font-family:Homenaje;-inkscape-font-specification:'Homenaje Bold';stroke-width:0.999997">NOTE</tspan></text>
<text
   transform="scale(0.9999975)"
   xml:space="preserve"
   style="font-style:normal;font-variant:normal;font-weight:bold;font-stretch:normal;font-size:6.66665px;line-height:1.25;font-family:Homenaje;-inkscape-font-specification:'Homenaje Bold';letter-spacing:0px;word-spacing:0px;fill:#ffffff;fill-opacity:1;stroke:none;stroke-width:0.999997"
   x="531.74677"
   y="361.31412"
   id="text19177-3-5-0-3"><tspan
     sodipodi:role="line"
     id="tspan19175-9-8-12-5"
     x="531.74677"
     y="361.31412"
     style="font-style:normal;font-variant:normal;font-weight:bold;font-stretch:normal;font-size:6.66665px;font-family:Homenaje;-inkscape-font-specification:'Homenaje Bold';stroke-width:0.999997">AJNAS</tspan></text>
<text
   xml:space="preserve"
   style="font-style:normal;font-variant:normal;font-weight:bold;font-stretch:normal;font-size:6.66667px;line-height:1.25;font-family:Homenaje;-inkscape-font-specification:'Homenaje Bold';letter-spacing:0px;word-spacing:0px;fill:#ffffff;fill-opacity:1;stroke:none;stroke-width:1"
   x="521.01331"
   y="478"
   id="text19165-0"><tspan
     sodipodi:role="line"
     id="tspan19163-1"
     x="521.01331"
     y="478"
     style="font-style:normal;font-variant:normal;font-weight:bold;font-stretch:normal;font-size:6.66667px;font-family:Homenaje;-inkscape-font-specification:'Homenaje Bold';stroke-width:1">EXT. RND</tspan></text>
<text
   xml:space="preserve"
   style="font-style:normal;font-variant:normal;font-weight:bold;font-stretch:normal;font-size:6.66667px;line-height:1.25;font-family:Homenaje;-inkscape-font-specification:'Homenaje Bold';letter-spacing:0px;word-spacing:0px;fill:#ffffff;fill-opacity:1;stroke:none;stroke-width:1"
   x="455.15601"
   y="288.944"
   id="text19169-9-1-3"><tspan
     sodipodi:role="line"
     id="tspan19167-7-2-5"
     x="455.15601"
     y="288.944"
     style="font-style:normal;font-variant:normal;font-weight:bold;font-stretch:normal;font-size:8px;font-family:Homenaje;-inkscape-font-specification:'Homenaje Bold';stroke-width:1">CURRENT JINS</tspan></text>
<text
   xml:space="preserve"
   style="font-style:normal;font-variant:normal;font-weight:bold;font-stretch:normal;font-size:6.66667px;line-height:1.25;font-family:Homenaje;-inkscape-font-specification:'Homenaje Bold';letter-spacing:0px;word-spacing:0px;fill:#ffffff;fill-opacity:1;stroke:none;stroke-width:1"
   x="351.34"
   y="330.944"
   id="text19169-0-1"><tspan
     sodipodi:role="line"
     id="tspan19167-783-8"
     x="351.34"
     y="330.944"
     style="font-style:normal;font-variant:normal;font-weight:bold;font-stretch:normal;font-size:8px;font-family:Homenaje;-inkscape-font-specification:'Homenaje Bold';stroke-width:1">AJNAS</tspan></text>
<text
   xml:space="preserve"
   style="font-style:normal;font-variant:normal;font-weight:bold;font-stretch:normal;font-size:6.66667px;line-height:1.25;font-family:Homenaje;-inkscape-font-specification:'Homenaje Bold';letter-spacing:0px;word-spacing:0px;fill:#ffffff;fill-opacity:1;stroke:none;stroke-width:1"
   x="464.98001"
   y="330.944"
   id="text19169-0-1-4"><tspan
     sodipodi:role="line"
     id="tspan19167-783-8-7"
     x="464.98001"
     y="330.944"
     style="font-style:normal;font-variant:normal;font-weight:bold;font-stretch:normal;font-size:8px;font-family:Homenaje;-inkscape-font-specification:'Homenaje Bold';stroke-width:1">NOTES</tspan></text>
<text
   xml:space="preserve"
   style="font-style:normal;font-variant:normal;font-weight:bold;font-stretch:normal;font-size:6.66667px;line-height:1.25;font-family:Homenaje;-inkscape-font-specification:'Homenaje Bold';letter-spacing:0px;word-spacing:0px;fill:#ffffff;fill-opacity:1;stroke:none;stroke-width:1"
   x="545.66595"
   y="471"
   id="text19165-28-5"><tspan
     sodipodi:role="line"
     id="tspan19163-3-9"
     x="545.66595"
     y="471"
     style="font-style:normal;font-variant:normal;font-weight:bold;font-stretch:normal;font-size:6.66667px;font-family:Homenaje;-inkscape-font-specification:'Homenaje Bold';stroke-width:1">AJNAS</tspan></text>
<text
   xml:space="preserve"
   style="font-style:normal;font-variant:normal;font-weight:bold;font-stretch:normal;font-size:6.66667px;line-height:1.25;font-family:Homenaje;-inkscape-font-specification:'Homenaje Bold';letter-spacing:0px;word-spacing:0px;fill:#ffffff;fill-opacity:1;stroke:none;stroke-width:1"
   x="544.6441"
   y="509.01645"
   id="text19165-28-5-8"><tspan
     sodipodi:role="line"
     id="tspan19163-3-9-3"
     x="544.6441"
     y="509.01645"
     style="font-style:normal;font-variant:normal;font-weight:bold;font-stretch:normal;font-size:6.66667px;font-family:Homenaje;-inkscape-font-specification:'Homenaje Bold';stroke-width:1">NOTES</tspan></text>
<text
   xml:space="preserve"
   style="font-style:normal;font-variant:normal;font-weight:bold;font-stretch:normal;font-size:6.66667px;line-height:1.25;font-family:Homenaje;-inkscape-font-specification:'Homenaje Bold';letter-spacing:0px;word-spacing:0px;fill:#ffffff;fill-opacity:1;stroke:none;stroke-width:1"
   x="530.74146"
   y="329.71201"
   id="text19169-9-1-3-9"><tspan
     sodipodi:role="line"
     id="tspan19167-7-2-5-1"
     x="530.74146"
     y="329.71201"
     style="font-style:normal;font-variant:normal;font-weight:bold;font-stretch:normal;font-size:8px;font-family:Homenaje;-inkscape-font-specification:'Homenaje Bold';stroke-width:1">MAQAM SCALE MODE</tspan></text>
<text
   xml:space="preserve"
   style="font-style:normal;font-variant:normal;font-weight:bold;font-stretch:normal;font-size:6.66667px;line-height:1.25;font-family:Homenaje;-inkscape-font-specification:'Homenaje Bold';letter-spacing:0px;word-spacing:0px;fill:#ffffff;fill-opacity:1;stroke:none;stroke-width:1"
   x="503.01334"
   y="302"
   id="text19161-2-5"><tspan
     sodipodi:role="line"
     id="tspan19159-3-6"
     x="503.01334"
     y="302"
     style="font-style:normal;font-variant:normal;font-weight:bold;font-stretch:normal;font-size:6.66667px;font-family:Homenaje;-inkscape-font-specification:'Homenaje Bold';stroke-width:1">RESET</tspan></text>
<text
   id="text19169-6-9"
   y="229.056"
   x="478.21701"
   style="font-style:normal;font-variant:normal;font-weight:bold;font-stretch:normal;font-size:6.66667px;line-height:1.25;font-family:Homenaje;-inkscape-font-specification:'Homenaje Bold';letter-spacing:0px;word-spacing:0px;fill:#ffffff;fill-opacity:1;stroke:none;stroke-width:1"
   xml:space="preserve"><tspan
     style="font-style:normal;font-variant:normal;font-weight:bold;font-stretch:normal;font-size:8px;font-family:Homenaje;-inkscape-font-specification:'Homenaje Bold';stroke-width:1"
     y="229.056"
     x="478.21701"
     id="tspan19167-6"
     sodipodi:role="line">NO REPEAT</tspan></text></svg>
