<?xml version="1.0" encoding="UTF-8" standalone="no"?>
<svg
   xmlns:dc="http://purl.org/dc/elements/1.1/"
   xmlns:cc="http://creativecommons.org/ns#"
   xmlns:rdf="http://www.w3.org/1999/02/22-rdf-syntax-ns#"
   xmlns:svg="http://www.w3.org/2000/svg"
   xmlns="http://www.w3.org/2000/svg"
   xmlns:xlink="http://www.w3.org/1999/xlink"
   xmlns:sodipodi="http://sodipodi.sourceforge.net/DTD/sodipodi-0.dtd"
   xmlns:inkscape="http://www.inkscape.org/namespaces/inkscape"
   sodipodi:docname="PWGridControlExpanderMaster.svg"
   inkscape:version="1.0 (4035a4fb49, 2020-05-01)"
   id="svg11003"
   version="1.1"
   viewBox="0 0 51.59375 100.54167"
   height="380"
   width="195">
  <defs
     id="defs10997">
    <linearGradient
       id="linearGradient4047"
       inkscape:collect="always">
      <stop
         id="stop3387"
         offset="0"
         style="stop-color:#0c1622;stop-opacity:1" />
      <stop
         id="stop3388"
         offset=".3"
         style="stop-color:#161625;stop-opacity:1" />
      <stop
         id="stop3389"
         offset="1"
         style="stop-color:#081f35;stop-opacity:1" />
    </linearGradient>
    <linearGradient
       gradientTransform="matrix(0.54080895,0,0,1.0014499,16.099223,-0.14648349)"
       gradientUnits="userSpaceOnUse"
       y2="50.462322"
       x2="35.219627"
       y1="158.3329"
       x1="35.418064"
       id="linearGradient4049"
       xlink:href="#linearGradient4047"
       inkscape:collect="always" />
  </defs>
  <sodipodi:namedview
     inkscape:document-rotation="0"
     showguides="false"
     units="px"
     inkscape:window-maximized="1"
     inkscape:window-y="-6"
     inkscape:window-x="-6"
     inkscape:window-height="1058"
     inkscape:window-width="1920"
     fit-margin-bottom="0"
     fit-margin-right="0"
     fit-margin-left="0"
     fit-margin-top="0"
     showgrid="false"
     inkscape:current-layer="layer1"
     inkscape:document-units="px"
     inkscape:cy="137.48806"
     inkscape:cx="23.973027"
     inkscape:zoom="2.8284271"
     inkscape:pageshadow="2"
     inkscape:pageopacity="0.0"
     borderopacity="1.0"
     bordercolor="#666666"
     pagecolor="#ffffff"
     id="base" />
  <metadata
     id="metadata11000">
    <rdf:RDF>
      <cc:Work
         rdf:about="">
        <dc:format>image/svg+xml</dc:format>
        <dc:type
           rdf:resource="http://purl.org/dc/dcmitype/StillImage" />
        <dc:title />
      </cc:Work>
    </rdf:RDF>
  </metadata>
  <g
     transform="translate(-35.146312,-50.389004)"
     id="layer1"
     inkscape:groupmode="layer"
     inkscape:label="Layer 1">
    <path
       inkscape:export-ydpi="150.22649"
       inkscape:export-xdpi="150.22649"
       inkscape:export-filename="/home/vortico/pics/tmp/LFOs.png"
       style="fill:url(#linearGradient4049);fill-opacity:1;fill-rule:nonzero;stroke:none;stroke-width:0.31528386"
       d="M 35.146312,50.389003 H 86.740063 V 150.93067 H 35.146312 Z m 0,0"
       id="path33493"
       inkscape:connector-curvature="0" />
    <g
       transform="matrix(1.0344827,0,0,1.0014499,-1.2877853,-0.14648349)"
       id="text5097"
       style="font-style:normal;font-weight:normal;font-size:3.52777767px;line-height:1.25;font-family:sans-serif;letter-spacing:0px;word-spacing:0px;fill:#ffffff;fill-opacity:1;stroke:none;stroke-width:0.26458332" />
    <g
       transform="matrix(1.0344827,0,0,1.0014499,-1.2877853,-0.14648349)"
       id="text373"
       style="font-style:normal;font-variant:normal;font-weight:bold;font-stretch:normal;font-size:3.52777767px;line-height:1.25;font-family:Consolas;-inkscape-font-specification:'Consolas Bold';text-align:center;letter-spacing:0px;word-spacing:0px;text-anchor:middle;fill:#ffffff;fill-opacity:1;stroke:none;stroke-width:0.26458332" />
    <g
       transform="matrix(1.0344827,0,0,1.0014499,-1.2877853,-0.14648349)"
       id="flowRoot250"
       style="font-style:normal;font-variant:normal;font-weight:bold;font-stretch:normal;font-size:13.33333302px;line-height:1.25;font-family:Consolas;-inkscape-font-specification:'Consolas Bold';text-align:center;letter-spacing:0px;word-spacing:0px;text-anchor:middle;fill:#ffffff;fill-opacity:1;stroke:none" />
    <g
       transform="matrix(1.0344827,0,0,1.0014499,-1.2877853,-0.14648349)"
       id="flowRoot53665"
       style="font-style:normal;font-variant:normal;font-weight:bold;font-stretch:normal;font-size:13.33333302px;line-height:1.25;font-family:Consolas;-inkscape-font-specification:'Consolas Bold';text-align:center;letter-spacing:0px;word-spacing:0px;text-anchor:middle;fill:#ffffff;fill-opacity:1;stroke:none" />
    <g
       transform="matrix(1.0344827,0,0,1.0014499,-1.2877853,-0.14648349)"
       id="text53994"
       style="font-style:normal;font-variant:normal;font-weight:bold;font-stretch:normal;font-size:3.52777767px;line-height:1.25;font-family:Consolas;-inkscape-font-specification:'Consolas Bold';text-align:center;letter-spacing:0px;word-spacing:0px;text-anchor:middle;fill:#ffffff;fill-opacity:1;stroke:none;stroke-width:0.26458332" />
    <g
       transform="matrix(1.0344827,0,0,1.0014499,-34.941126,-0.14648349)"
       id="text3885-7"
       style="font-style:normal;font-variant:normal;font-weight:bold;font-stretch:normal;font-size:3.52777767px;line-height:1.25;font-family:Consolas;-inkscape-font-specification:'Consolas Bold';text-align:start;letter-spacing:0px;word-spacing:0px;text-anchor:start;fill:#00a3f2;fill-opacity:1;stroke:none;stroke-width:0.26458332"
       aria-label="FROZEN WASTELAND">
      <path
         inkscape:connector-curvature="0"
         id="path7125"
         style="font-style:normal;font-variant:normal;font-weight:normal;font-stretch:normal;font-family:'Bradley Gratis';-inkscape-font-specification:'Bradley Gratis';text-align:start;text-anchor:start;stroke-width:0.26458332"
         d="m 77.98351,150.2604 q 0.119944,-0.11995 0.1905,-0.21167 0.07408,-0.0917 0.112889,-0.16933 0.04233,-0.0776 0.05292,-0.14464 0.01411,-0.0706 0.01411,-0.14817 0,-0.0952 -0.04586,-0.22931 -0.04586,-0.13405 -0.102305,-0.28575 -0.05644,-0.15169 -0.102306,-0.31044 -0.04586,-0.15875 -0.04586,-0.30339 0,-0.0776 0.02469,-0.15169 0.02822,-0.0741 0.06703,-0.14111 0.04233,-0.0706 0.09172,-0.13053 0.04939,-0.0635 0.09878,-0.11289 -0.07055,-0.0141 -0.123472,-0.0212 -0.05292,-0.0106 -0.07761,-0.0106 -0.130528,0 -0.22225,0.0706 -0.08819,0.067 -0.1905,0.16934 0,-0.11995 0.03528,-0.24695 0.03881,-0.13052 0.116416,-0.23636 0.07761,-0.10583 0.194028,-0.17286 0.119945,-0.067 0.282222,-0.067 0.112889,0 0.208139,0.0176 0.09878,0.0141 0.179917,0.0353 0.08114,0.0212 0.148166,0.0388 0.06703,0.0141 0.119945,0.0141 0.08114,0 0.141111,-0.0212 0.0635,-0.0247 0.123472,-0.0847 0,0.0776 -0.03175,0.17639 -0.02822,0.0988 -0.08819,0.1905 -0.05644,0.0882 -0.148167,0.1517 -0.09172,0.06 -0.211667,0.06 -0.05997,0 -0.137583,-0.007 -0.07408,-0.0106 -0.155222,-0.0247 -0.0071,0.0247 -0.01058,0.0459 -0.0035,0.0212 -0.0071,0.0388 -0.0035,0.0212 -0.0035,0.0388 0,0.0776 0.01058,0.1517 0.01411,0.0705 0.0388,0.14463 h 0.712611 l -0.08114,0.23989 q -0.01058,0.0459 -0.01411,0.067 -0.0035,0.0212 -0.01058,0.067 l -0.130528,-0.0917 h -0.363361 q 0.07761,0.17639 0.144639,0.35983 0.06703,0.17992 0.06703,0.38453 0,0.18344 -0.07408,0.34219 -0.07408,0.15522 -0.197555,0.27164 -0.119945,0.11642 -0.278695,0.17992 -0.155222,0.067 -0.321027,0.067 z" />
      <path
         inkscape:connector-curvature="0"
         id="path7127"
         style="font-style:normal;font-variant:normal;font-weight:normal;font-stretch:normal;font-family:'Bradley Gratis';-inkscape-font-specification:'Bradley Gratis';text-align:start;text-anchor:start;stroke-width:0.26458332"
         d="m 80.053599,148.53178 q 0.07055,-0.0423 0.137583,-0.0988 0.07055,-0.0564 0.123472,-0.127 0.05644,-0.0706 0.08819,-0.16228 0.03528,-0.0952 0.03528,-0.21167 0,-0.0988 -0.0388,-0.1658 -0.03528,-0.0706 -0.08467,-0.11289 -0.04939,-0.0423 -0.09878,-0.06 -0.04586,-0.0176 -0.07055,-0.0176 -0.02822,0 -0.05292,0.0106 -0.02117,0.0106 -0.0388,0.0247 z m -0.518584,-0.94191 q -0.112889,-0.0635 -0.112889,-0.23636 0.03175,0.0317 0.112889,0.0564 0.08114,0.0212 0.172861,0.0212 0.04586,0 0.130528,-0.0106 0.08467,-0.0141 0.172861,-0.0282 0.09172,-0.0141 0.172861,-0.0247 0.08467,-0.0141 0.130528,-0.0141 0.116417,0 0.232833,0.0353 0.116417,0.0353 0.215195,0.11995 0.09878,0.0847 0.165805,0.2293 0.07056,0.14112 0.09172,0.35984 l -0.627945,0.4445 q 0.07056,0.0282 0.15875,0.0952 0.08819,0.067 0.165806,0.18697 0.08114,0.11994 0.134055,0.30692 0.05292,0.18344 0.05292,0.45155 0,0.23284 0.02117,0.37747 0.02117,0.14464 0.05292,0.23284 0.03175,0.0882 0.06703,0.13053 0.03881,0.0459 0.07056,0.0776 -0.155223,0 -0.275167,-0.0917 -0.119945,-0.0882 -0.211667,-0.23283 -0.09172,-0.14464 -0.162277,-0.32808 -0.06703,-0.18345 -0.123473,-0.37042 -0.05644,-0.18697 -0.105833,-0.35983 -0.04586,-0.17286 -0.09525,-0.29986 -0.02469,0.0176 -0.04939,0.0353 -0.02117,0.0141 -0.0388,0.0317 v 1.31939 h -0.518584 z" />
      <path
         inkscape:connector-curvature="0"
         id="path7129"
         style="font-style:normal;font-variant:normal;font-weight:normal;font-stretch:normal;font-family:'Bradley Gratis';-inkscape-font-specification:'Bradley Gratis';text-align:start;text-anchor:start;stroke-width:0.26458332"
         d="m 81.941345,149.63951 q 0,0.11994 0.01411,0.18697 0.01764,0.067 0.04233,0.1023 0.02822,0.0318 0.0635,0.0388 0.03528,0.007 0.07055,0.007 0.07056,0 0.116417,-0.0952 0.04586,-0.0988 0.04586,-0.29987 v -1.53105 q 0,-0.15875 -0.01764,-0.25753 -0.01411,-0.1023 -0.04233,-0.15522 -0.02469,-0.0564 -0.05997,-0.0776 -0.03175,-0.0212 -0.0635,-0.0212 -0.06703,0 -0.119945,0.0847 -0.04939,0.0811 -0.04939,0.26105 z m 1.005417,-0.88548 q 0,0.25753 -0.06703,0.508 -0.0635,0.25048 -0.176389,0.44803 -0.109361,0.19756 -0.261055,0.32103 -0.151695,0.11994 -0.321028,0.11994 -0.15875,0 -0.310444,-0.10936 -0.148167,-0.10936 -0.264584,-0.29986 -0.112889,-0.1905 -0.183444,-0.4445 -0.07056,-0.254 -0.07056,-0.54328 0,-0.23636 0.0635,-0.4833 0.06703,-0.25047 0.179917,-0.45156 0.112889,-0.20108 0.264583,-0.32808 0.151695,-0.13053 0.321028,-0.13053 0.148167,0 0.292806,0.10936 0.148166,0.10936 0.264583,0.29986 0.119944,0.18698 0.194028,0.44098 0.07408,0.254 0.07408,0.54327 z" />
      <path
         inkscape:connector-curvature="0"
         id="path7131"
         style="font-style:normal;font-variant:normal;font-weight:normal;font-stretch:normal;font-family:'Bradley Gratis';-inkscape-font-specification:'Bradley Gratis';text-align:start;text-anchor:start;stroke-width:0.26458332"
         d="m 83.100827,150.11223 q 0.04586,-0.27164 0.130528,-0.51153 0.08819,-0.23989 0.194027,-0.45861 0.105834,-0.21872 0.218723,-0.41628 0.116416,-0.20108 0.218722,-0.38805 0.102305,-0.18698 0.179916,-0.36336 0.07761,-0.17992 0.112889,-0.35984 -0.02822,-0.0176 -0.06703,-0.0318 -0.03528,-0.0141 -0.137583,-0.0141 -0.05292,0 -0.09525,0.0282 -0.03881,0.0247 -0.06703,0.0635 -0.02822,0.0353 -0.04586,0.0776 -0.01411,0.0388 -0.01411,0.0635 0,0.0282 0.01058,0.067 0.01411,0.0353 0.02822,0.0706 0.01764,0.0353 0.03528,0.067 0.01764,0.0282 0.03175,0.0423 l -0.430388,0.26811 q -0.08467,-0.0811 -0.144639,-0.19756 -0.05644,-0.11994 -0.05644,-0.23988 0,-0.06 0.03175,-0.14817 0.03175,-0.0882 0.102306,-0.16933 0.07055,-0.0847 0.183444,-0.14112 0.116417,-0.06 0.282222,-0.06 0.130528,0 0.218723,0.0176 0.08819,0.0176 0.155222,0.0423 0.06703,0.0212 0.123472,0.0388 0.05997,0.0176 0.134056,0.0176 0.04586,0 0.09878,-0.007 0.05292,-0.007 0.09878,-0.0212 0.04586,-0.0141 0.08114,-0.0282 0.03881,-0.0176 0.05997,-0.0388 -0.04233,0.22225 -0.134055,0.46214 -0.09172,0.23989 -0.204611,0.47978 -0.109361,0.23988 -0.232834,0.46919 -0.119944,0.22931 -0.22225,0.43039 -0.09878,0.19755 -0.169333,0.35983 -0.06703,0.15875 -0.07408,0.26106 0.141111,0.06 0.239889,0.06 0.0635,0 0.130527,-0.0141 0.06703,-0.0176 0.119945,-0.0529 0.05644,-0.0353 0.09172,-0.0882 0.03528,-0.0565 0.03528,-0.13406 0,-0.0776 -0.01764,-0.127 -0.01411,-0.0529 -0.03881,-0.0847 -0.02469,-0.0353 -0.05644,-0.06 -0.03175,-0.0282 -0.05997,-0.0564 l 0.405694,-0.29986 q 0.141111,0.10583 0.201083,0.22578 0.05997,0.11994 0.05997,0.26105 0,0.067 -0.02117,0.13053 -0.01764,0.06 -0.04586,0.11289 -0.0247,0.0494 -0.05997,0.0917 -0.03175,0.0423 -0.05644,0.067 l 0.05997,0.06 q 0.01764,0.0176 0.03881,0.0529 0.02117,0.0317 0.02117,0.0564 0,0.0282 -0.02469,0.0811 -0.02117,0.0564 -0.08819,0.0988 -0.02469,-0.0318 -0.05644,-0.0565 -0.02822,-0.0212 -0.05997,-0.0388 -0.03175,-0.0176 -0.06703,-0.0176 z" />
      <path
         inkscape:connector-curvature="0"
         id="path7133"
         style="font-style:normal;font-variant:normal;font-weight:normal;font-stretch:normal;font-family:'Bradley Gratis';-inkscape-font-specification:'Bradley Gratis';text-align:start;text-anchor:start;stroke-width:0.26458332"
         d="m 86.607162,147.38526 v 0.381 q -0.0388,-0.0353 -0.102305,-0.0776 -0.05997,-0.0423 -0.130528,-0.0741 -0.06703,-0.0353 -0.134056,-0.0564 -0.06703,-0.0247 -0.112889,-0.0247 -0.08467,0 -0.172861,0.067 -0.08819,0.067 -0.144639,0.17992 -0.05644,0.10936 -0.07408,0.28928 -0.01411,0.17638 -0.01411,0.45508 h 0.903111 l -0.179917,0.40217 q -0.03528,-0.0529 -0.08467,-0.0706 -0.04586,-0.0212 -0.08467,-0.0212 H 85.72169 q 0,0.20109 0.0071,0.39511 0.0071,0.1905 0.04586,0.3422 0.04233,0.15169 0.127,0.24694 0.08467,0.0917 0.243416,0.0917 0.08467,0 0.165806,-0.0317 0.08467,-0.0318 0.155222,-0.0776 0.07056,-0.0494 0.123472,-0.1023 0.05644,-0.0529 0.08819,-0.0952 v 0.508 h -0.47625 q -0.342195,0 -0.553861,-0.11995 -0.211667,-0.12347 -0.331611,-0.32808 -0.116417,-0.20814 -0.15875,-0.47978 -0.03881,-0.27164 -0.03881,-0.56797 0,-0.0741 0.01058,-0.19403 0.01058,-0.12347 0.04586,-0.25752 0.03528,-0.13759 0.102306,-0.27517 0.06703,-0.14111 0.179917,-0.25047 0.116416,-0.11289 0.28575,-0.18345 0.169333,-0.0706 0.409222,-0.0706 z" />
      <path
         inkscape:connector-curvature="0"
         id="path7135"
         style="font-style:normal;font-variant:normal;font-weight:normal;font-stretch:normal;font-family:'Bradley Gratis';-inkscape-font-specification:'Bradley Gratis';text-align:start;text-anchor:start;stroke-width:0.26458332"
         d="m 86.993564,150.11223 v -2.4377 q 0,-0.0988 -0.04233,-0.1658 -0.04233,-0.0706 -0.08467,-0.12347 h 0.684389 v 0.35983 l 0.391583,-0.45508 q 0.179917,0.16227 0.296334,0.32455 0.116416,0.15875 0.183444,0.32103 0.06703,0.15875 0.09172,0.32456 0.02469,0.16227 0.02469,0.33513 0,0.16934 -0.02822,0.32456 -0.02469,0.15169 -0.07408,0.29986 -0.04939,0.14817 -0.119944,0.29986 -0.06703,0.1517 -0.148167,0.3175 h 0.127 q 0.04586,0 0.09525,-0.0318 0.04939,-0.0317 0.09878,-0.0317 v 0.33867 h -0.684389 q 0.09525,-0.19403 0.151695,-0.34925 0.05997,-0.15522 0.09172,-0.29633 0.03175,-0.14112 0.04233,-0.27517 0.01058,-0.13406 0.01058,-0.28575 0,-0.1517 -0.05292,-0.31397 -0.04939,-0.16581 -0.123472,-0.30339 -0.07408,-0.13759 -0.15875,-0.22578 -0.08114,-0.0882 -0.148167,-0.0882 -0.04233,0 -0.06703,0.0212 v 2.11667 z" />
      <path
         inkscape:connector-curvature="0"
         id="path7137"
         style="font-style:normal;font-variant:normal;font-weight:normal;font-stretch:normal;font-family:'Bradley Gratis';-inkscape-font-specification:'Bradley Gratis';text-align:start;text-anchor:start;stroke-width:0.26458332"
         d="m 90.231733,150.22865 q -0.1905,-0.13759 -0.324555,-0.29281 -0.134056,-0.15875 -0.215195,-0.32808 -0.08114,-0.16934 -0.119944,-0.3422 -0.03528,-0.17639 -0.03528,-0.34572 0,-0.16581 0.03528,-0.32808 0.03528,-0.16581 0.09172,-0.32456 0.05997,-0.16228 0.137583,-0.31397 0.07761,-0.15522 0.15875,-0.30339 h -0.02117 q -0.01058,0 -0.0247,0 -0.01058,-0.004 -0.02822,-0.004 -0.05644,0 -0.137583,0.0141 -0.07761,0.0141 -0.151695,0.0706 v -0.34572 h 0.740834 q -0.09172,0.15875 -0.15875,0.32102 -0.0635,0.15875 -0.105834,0.31045 -0.0388,0.14817 -0.05997,0.28222 -0.01764,0.13053 -0.01764,0.23636 0,0.10584 0.02117,0.254 0.02117,0.14817 0.07761,0.30692 0.05997,0.15522 0.15875,0.29633 0.102306,0.14111 0.264583,0.22931 l 0.105834,-0.0776 q -0.0635,-0.11995 -0.09878,-0.22931 -0.03528,-0.11289 -0.05292,-0.21167 -0.01411,-0.0988 -0.01764,-0.17991 -0.0035,-0.0847 -0.0035,-0.1517 0,-0.10936 0.02822,-0.24694 0.02822,-0.13758 0.08114,-0.28575 0.05292,-0.14817 0.127,-0.29986 0.07761,-0.1517 0.172861,-0.29634 -0.134056,0 -0.22225,0.0212 -0.08467,0.0212 -0.144639,0.06 v -0.33866 h 0.762 q -0.0635,0.0882 -0.127,0.20108 -0.05997,0.10936 -0.105833,0.23989 -0.04586,0.127 -0.07408,0.27164 -0.02822,0.14464 -0.02822,0.29633 0,0.25753 0.04586,0.45861 0.04586,0.19756 0.127,0.34925 0.08114,0.1517 0.1905,0.26106 0.109361,0.10936 0.232833,0.18697 v -2.26483 h 0.529167 v 2.12019 q 0,0.0247 -0.03528,0.0706 -0.03528,0.0423 -0.09172,0.0988 -0.05292,0.0565 -0.127,0.12348 -0.07055,0.0635 -0.144639,0.127 -0.176389,0.14816 -0.398639,0.32455 -0.172861,-0.13405 -0.296333,-0.26458 -0.123472,-0.13053 -0.211667,-0.254 z" />
      <path
         inkscape:connector-curvature="0"
         id="path7139"
         style="font-style:normal;font-variant:normal;font-weight:normal;font-stretch:normal;font-family:'Bradley Gratis';-inkscape-font-specification:'Bradley Gratis';text-align:start;text-anchor:start;stroke-width:0.26458332"
         d="m 93.483793,148.41537 v -0.87842 h -0.416278 q -0.0035,0.23636 -0.01411,0.4692 -0.0071,0.2293 -0.01764,0.40922 z m 0.719667,-1.03011 q -0.03881,0.0282 -0.07408,0.0706 -0.03175,0.0423 -0.05644,0.0917 -0.02117,0.0459 -0.03528,0.0917 -0.01411,0.0423 -0.01411,0.0741 v 2.39889 H 93.4838 v -1.32997 h -0.472722 q -0.0035,0.127 -0.03528,0.27869 -0.03175,0.14817 -0.08819,0.29986 -0.05292,0.14817 -0.127,0.28928 -0.07055,0.13758 -0.162277,0.24342 -0.08819,0.10583 -0.1905,0.16933 -0.09878,0.0635 -0.208139,0.0635 -0.07056,0 -0.123472,-0.0423 -0.04939,-0.0423 -0.04939,-0.11995 0,-0.0494 0.03175,-0.0705 0.03175,-0.0247 0.06703,-0.0247 0.03175,0 0.04939,0.0106 0.01764,0.007 0.03175,0.0212 0.01764,0.0106 0.03881,0.0212 0.02117,0.007 0.05997,0.007 0.0635,0 0.102306,-0.0635 0.0388,-0.067 0.0635,-0.17638 0.02469,-0.11289 0.03528,-0.25753 0.01411,-0.14817 0.02117,-0.31045 0.0071,-0.16227 0.01764,-0.32808 0.01058,-0.16933 0.02822,-0.32456 0.02117,-0.18344 0.0635,-0.33513 0.04586,-0.1517 0.09525,-0.26812 0.04939,-0.11641 0.09878,-0.19755 0.04939,-0.0811 0.08467,-0.13053 h -0.07761 q -0.06703,0 -0.123473,0.0212 -0.05644,0.0176 -0.102305,0.0423 -0.04233,0.0212 -0.07761,0.0423 -0.03175,0.0176 -0.05644,0.0176 -0.05997,0 -0.08819,-0.0423 -0.02822,-0.0423 -0.02822,-0.0952 0,-0.0494 0.05292,-0.0917 0.05644,-0.0459 0.155222,-0.0459 z" />
      <path
         inkscape:connector-curvature="0"
         id="path7141"
         style="font-style:normal;font-variant:normal;font-weight:normal;font-stretch:normal;font-family:'Bradley Gratis';-inkscape-font-specification:'Bradley Gratis';text-align:start;text-anchor:start;stroke-width:0.26458332"
         d="m 94.98365,150.2357 q -0.08114,-0.0811 -0.186972,-0.15875 -0.102306,-0.0776 -0.201083,-0.13758 -0.09525,-0.06 -0.169334,-0.10231 -0.07055,-0.0423 -0.08114,-0.0529 0.03528,-0.0423 0.08819,-0.11642 0.05292,-0.0776 0.102305,-0.1517 0.05292,-0.0741 0.09172,-0.13052 0.04233,-0.06 0.05292,-0.0706 0.04939,0.0317 0.134056,0.0882 0.08819,0.0529 0.172861,0.11288 0.08819,0.06 0.15875,0.10937 0.07056,0.0494 0.09172,0.0705 0.04939,-0.0282 0.08114,-0.0741 0.03528,-0.0459 0.03528,-0.14817 0,-0.0882 -0.07408,-0.18697 -0.07056,-0.0988 -0.176389,-0.20814 -0.105834,-0.10936 -0.232834,-0.22931 -0.127,-0.11994 -0.232833,-0.24694 -0.105833,-0.127 -0.179917,-0.25753 -0.07055,-0.13053 -0.07055,-0.26811 0,-0.0988 0.04939,-0.18344 0.05292,-0.0882 0.130527,-0.16228 0.07761,-0.0776 0.169334,-0.13758 0.09525,-0.0635 0.179916,-0.11642 0.08819,-0.0564 0.155223,-0.0988 0.06703,-0.0459 0.09525,-0.0811 0.02117,0.0176 0.09172,0.0882 0.07408,0.067 0.15875,0.14464 0.08467,0.0776 0.15875,0.13758 0.07761,0.06 0.102305,0.06 -0.03528,0.0282 -0.08819,0.0847 -0.04939,0.0529 -0.102306,0.11289 -0.04939,0.06 -0.09172,0.11641 -0.0388,0.0529 -0.05644,0.0811 -0.08114,-0.0353 -0.162278,-0.10583 -0.08114,-0.0706 -0.148167,-0.13758 -0.06703,-0.067 -0.112889,-0.11642 -0.04586,-0.0529 -0.05997,-0.0529 -0.02822,0 -0.04939,0.0317 -0.01764,0.0282 -0.01764,0.067 0,0.0847 0.07408,0.17992 0.07761,0.0953 0.186972,0.20461 0.112889,0.10583 0.243417,0.22578 0.134055,0.11641 0.243416,0.24341 0.112889,0.127 0.186973,0.26459 0.07761,0.13405 0.07761,0.27516 0,0.127 -0.09525,0.26811 -0.09525,0.14111 -0.229306,0.28223 -0.130528,0.13758 -0.268111,0.26458 -0.137583,0.12347 -0.225778,0.21872 z" />
      <path
         inkscape:connector-curvature="0"
         id="path7143"
         style="font-style:normal;font-variant:normal;font-weight:normal;font-stretch:normal;font-family:'Bradley Gratis';-inkscape-font-specification:'Bradley Gratis';text-align:start;text-anchor:start;stroke-width:0.26458332"
         d="m 97.468638,149.63598 q 0,0.13758 -0.05644,0.23989 -0.05644,0.0988 -0.148167,0.16228 -0.08819,0.0635 -0.197556,0.0952 -0.109361,0.0318 -0.215194,0.0318 -0.165806,0 -0.324556,-0.0811 -0.15875,-0.0811 -0.28575,-0.21873 -0.127,-0.14111 -0.204611,-0.32808 -0.07761,-0.1905 -0.07761,-0.40922 0,-0.39158 0.179917,-0.72672 0.179917,-0.33867 0.500944,-0.61384 -0.02822,-0.004 -0.05292,-0.004 -0.02117,-0.004 -0.04586,-0.004 -0.08467,0 -0.179917,0.0282 -0.09525,0.0282 -0.179917,0.0741 -0.08467,0.0423 -0.155222,0.0953 -0.06703,0.0529 -0.102306,0.0988 0.02822,-0.13758 0.105834,-0.27164 0.07761,-0.13405 0.194028,-0.23636 0.116416,-0.1023 0.268111,-0.1658 0.151694,-0.0635 0.331611,-0.0635 0.09172,0 0.194028,0.0282 0.102305,0.0282 0.194027,0.0741 0.09525,0.0423 0.169334,0.0952 0.07408,0.0529 0.112889,0.10231 l -0.289278,0.44097 q -0.176389,-0.17286 -0.381,-0.24695 -0.04586,0.0741 -0.09525,0.17639 -0.04939,0.0988 -0.09172,0.22578 -0.03881,0.127 -0.06703,0.28222 -0.0247,0.1517 -0.0247,0.33161 0,0.16934 0.0247,0.29987 0.02822,0.13052 0.07055,0.22577 0.04233,0.0952 0.09525,0.15875 0.05644,0.0635 0.112889,0.10584 0.134056,0.0952 0.306917,0.10583 0.07055,0 0.162278,-0.0282 0.09525,-0.0317 0.151694,-0.0811 z" />
      <path
         inkscape:connector-curvature="0"
         id="path7145"
         style="font-style:normal;font-variant:normal;font-weight:normal;font-stretch:normal;font-family:'Bradley Gratis';-inkscape-font-specification:'Bradley Gratis';text-align:start;text-anchor:start;stroke-width:0.26458332"
         d="m 99.236882,147.38526 v 0.381 q -0.0388,-0.0353 -0.102305,-0.0776 -0.05997,-0.0423 -0.130528,-0.0741 -0.06703,-0.0353 -0.134055,-0.0564 -0.06703,-0.0247 -0.112889,-0.0247 -0.08467,0 -0.172861,0.067 -0.08819,0.067 -0.144639,0.17992 -0.05644,0.10936 -0.07408,0.28928 -0.01411,0.17638 -0.01411,0.45508 h 0.903111 l -0.179916,0.40217 q -0.03528,-0.0529 -0.08467,-0.0706 -0.04586,-0.0212 -0.08467,-0.0212 h -0.55386 q 0,0.20109 0.0071,0.39511 0.0071,0.1905 0.04586,0.3422 0.04233,0.15169 0.127,0.24694 0.08467,0.0917 0.243417,0.0917 0.08467,0 0.165805,-0.0317 0.08467,-0.0318 0.155222,-0.0776 0.07056,-0.0494 0.123473,-0.1023 0.05644,-0.0529 0.08819,-0.0952 v 0.508 h -0.47625 q -0.342194,0 -0.553861,-0.11995 -0.211667,-0.12347 -0.331611,-0.32808 -0.116417,-0.20814 -0.15875,-0.47978 -0.03881,-0.27164 -0.03881,-0.56797 0,-0.0741 0.01058,-0.19403 0.01058,-0.12347 0.04586,-0.25752 0.03528,-0.13759 0.102305,-0.27517 0.06703,-0.14111 0.179917,-0.25047 0.116417,-0.11289 0.28575,-0.18345 0.169333,-0.0706 0.409222,-0.0706 z" />
      <path
         inkscape:connector-curvature="0"
         id="path7147"
         style="font-style:normal;font-variant:normal;font-weight:normal;font-stretch:normal;font-family:'Bradley Gratis';-inkscape-font-specification:'Bradley Gratis';text-align:start;text-anchor:start;stroke-width:0.26458332"
         d="m 100.51581,148.08023 q -0.0882,-0.21167 -0.15169,-0.35278 -0.0635,-0.14111 -0.0988,-0.14111 -0.0388,0 -0.0529,0.0353 -0.0106,0.0317 -0.0106,0.0564 v 1.91206 q 0,0.0776 -0.0423,0.16228 -0.0423,0.0847 -0.11289,0.14816 0.13053,0 0.23283,-0.0635 0.10231,-0.067 0.21167,-0.14464 0.11289,-0.0811 0.25047,-0.14464 0.13758,-0.067 0.34219,-0.067 v 0.63147 h -1.594552 q 0.04586,-0.067 0.07761,-0.127 0.03528,-0.06 0.05644,-0.11995 0.02117,-0.06 0.03175,-0.127 0.01058,-0.067 0.01058,-0.14816 v -1.66864 q 0,-0.11289 -0.04233,-0.18345 -0.04233,-0.0741 -0.05997,-0.1023 0.01411,-0.004 0.07055,-0.0247 0.05997,-0.0247 0.144639,-0.0564 0.08467,-0.0317 0.186972,-0.067 0.102301,-0.0353 0.201081,-0.0635 0.0988,-0.0317 0.18697,-0.0494 0.0882,-0.0212 0.14464,-0.0212 0.0882,0 0.16581,0.0494 0.0776,0.0494 0.14111,0.12347 0.0635,0.0741 0.10936,0.1658 0.0459,0.0882 0.0741,0.16581 z" />
      <path
         inkscape:connector-curvature="0"
         id="path7149"
         style="font-style:normal;font-variant:normal;font-weight:normal;font-stretch:normal;font-family:'Bradley Gratis';-inkscape-font-specification:'Bradley Gratis';text-align:start;text-anchor:start;stroke-width:0.26458332"
         d="m 102.69598,148.41537 v -0.87842 h -0.41628 q -0.004,0.23636 -0.0141,0.4692 -0.007,0.2293 -0.0176,0.40922 z m 0.71967,-1.03011 q -0.0388,0.0282 -0.0741,0.0706 -0.0318,0.0423 -0.0564,0.0917 -0.0212,0.0459 -0.0353,0.0917 -0.0141,0.0423 -0.0141,0.0741 v 2.39889 H 102.696 v -1.32997 h -0.47272 q -0.004,0.127 -0.0353,0.27869 -0.0318,0.14817 -0.0882,0.29986 -0.0529,0.14817 -0.127,0.28928 -0.0705,0.13758 -0.16227,0.24342 -0.0882,0.10583 -0.1905,0.16933 -0.0988,0.0635 -0.20814,0.0635 -0.0706,0 -0.12347,-0.0423 -0.0494,-0.0423 -0.0494,-0.11995 0,-0.0494 0.0318,-0.0705 0.0318,-0.0247 0.067,-0.0247 0.0318,0 0.0494,0.0106 0.0176,0.007 0.0318,0.0212 0.0176,0.0106 0.0388,0.0212 0.0212,0.007 0.06,0.007 0.0635,0 0.10231,-0.0635 0.0388,-0.067 0.0635,-0.17638 0.0247,-0.11289 0.0353,-0.25753 0.0141,-0.14817 0.0212,-0.31045 0.007,-0.16227 0.0176,-0.32808 0.0106,-0.16933 0.0282,-0.32456 0.0212,-0.18344 0.0635,-0.33513 0.0459,-0.1517 0.0952,-0.26812 0.0494,-0.11641 0.0988,-0.19755 0.0494,-0.0811 0.0847,-0.13053 h -0.0776 q -0.067,0 -0.12348,0.0212 -0.0564,0.0176 -0.1023,0.0423 -0.0423,0.0212 -0.0776,0.0423 -0.0318,0.0176 -0.0564,0.0176 -0.06,0 -0.0882,-0.0423 -0.0282,-0.0423 -0.0282,-0.0952 0,-0.0494 0.0529,-0.0917 0.0564,-0.0459 0.15522,-0.0459 z" />
      <path
         inkscape:connector-curvature="0"
         id="path7151"
         style="font-style:normal;font-variant:normal;font-weight:normal;font-stretch:normal;font-family:'Bradley Gratis';-inkscape-font-specification:'Bradley Gratis';text-align:start;text-anchor:start;stroke-width:0.26458332"
         d="m 103.71606,150.11223 v -2.4377 q 0,-0.0988 -0.0423,-0.1658 -0.0423,-0.0706 -0.0847,-0.12347 h 0.68439 v 0.35983 l 0.39158,-0.45508 q 0.17992,0.16227 0.29633,0.32455 0.11642,0.15875 0.18345,0.32103 0.067,0.15875 0.0917,0.32456 0.0247,0.16227 0.0247,0.33513 0,0.16934 -0.0282,0.32456 -0.0247,0.15169 -0.0741,0.29986 -0.0494,0.14817 -0.11995,0.29986 -0.067,0.1517 -0.14816,0.3175 h 0.127 q 0.0459,0 0.0953,-0.0318 0.0494,-0.0317 0.0988,-0.0317 v 0.33867 h -0.68439 q 0.0952,-0.19403 0.15169,-0.34925 0.06,-0.15522 0.0917,-0.29633 0.0318,-0.14112 0.0423,-0.27517 0.0106,-0.13406 0.0106,-0.28575 0,-0.1517 -0.0529,-0.31397 -0.0494,-0.16581 -0.12347,-0.30339 -0.0741,-0.13759 -0.15875,-0.22578 -0.0811,-0.0882 -0.14817,-0.0882 -0.0423,0 -0.067,0.0212 v 2.11667 z" />
      <path
         inkscape:connector-curvature="0"
         id="path7153"
         style="font-style:normal;font-variant:normal;font-weight:normal;font-stretch:normal;font-family:'Bradley Gratis';-inkscape-font-specification:'Bradley Gratis';text-align:start;text-anchor:start;stroke-width:0.26458332"
         d="m 105.60496,147.6322 q -0.0917,-0.0388 -0.127,-0.0953 -0.0353,-0.0564 -0.0353,-0.10583 0,-0.0423 0.0282,-0.0529 0.0282,0.0176 0.0776,0.0247 0.0494,0.007 0.11289,0.007 0.0318,0 0.0882,-0.0106 0.06,-0.0106 0.13053,-0.0212 0.0706,-0.0106 0.14464,-0.0212 0.0776,-0.0106 0.14464,-0.0106 0.16227,0 0.33161,0.0847 0.16933,0.0811 0.30339,0.254 0.13405,0.16933 0.21872,0.43391 0.0882,0.26106 0.0882,0.62442 0,0.30692 -0.0529,0.52917 -0.0529,0.22225 -0.13406,0.37747 -0.0811,0.15522 -0.17992,0.25047 -0.0988,0.0917 -0.19402,0.14464 -0.0917,0.0494 -0.16934,0.067 -0.0741,0.0176 -0.10936,0.0176 -0.0529,0 -0.11289,-0.0141 -0.06,-0.0141 -0.11994,-0.0317 -0.0565,-0.0176 -0.10936,-0.0318 -0.0494,-0.0141 -0.0847,-0.0141 -0.0388,0 -0.0705,0.0141 -0.0318,0.0106 -0.067,0.0247 -0.0317,0.0106 -0.0706,0.0247 -0.0388,0.0106 -0.0882,0.0106 -0.0176,0 -0.0388,-0.004 -0.0176,-0.004 -0.0353,-0.0106 -0.0176,-0.007 -0.0353,-0.0176 0.0282,-0.0176 0.0564,-0.06 0.0282,-0.0459 0.0529,-0.0952 0.0282,-0.0529 0.0564,-0.11642 z m 0.51858,2.10256 q 0,0.0741 0.0247,0.11641 0.0282,0.0388 0.06,0.0565 0.0388,0.0212 0.0847,0.0247 0.0811,0 0.14111,-0.10936 0.0635,-0.10936 0.0635,-0.27869 v -1.5487 q 0,-0.1658 -0.0318,-0.25753 -0.0318,-0.0917 -0.0741,-0.13405 -0.0423,-0.0423 -0.0847,-0.0494 -0.0423,-0.0106 -0.067,-0.0106 -0.0423,0 -0.0811,0.0564 -0.0353,0.0565 -0.0353,0.14817 z" />
    </g>
    <flowRoot
       transform="matrix(1.0344827,0,0,1.0014499,-1.2877853,-0.14648349)"
       style="font-style:normal;font-variant:normal;font-weight:bold;font-stretch:normal;font-size:13.3333px;line-height:1.25;font-family:Consolas;-inkscape-font-specification:'Consolas Bold';text-align:center;letter-spacing:0px;word-spacing:0px;text-anchor:middle;fill:#000000;fill-opacity:1;stroke:none"
       id="flowRoot2363"
       xml:space="preserve"><flowRegion
         id="flowRegion2365"><rect
           y="158.64064"
           x="-27.545824"
           height="29.026312"
           width="268.66925"
           id="rect2367" /></flowRegion><flowPara
         id="flowPara2369" /></flowRoot>
    <text
       transform="scale(1.0163587,0.9839046)"
       id="text3885"
       y="55.158703"
       x="44.208324"
       style="font-style:normal;font-variant:normal;font-weight:normal;font-stretch:normal;font-size:3.59069px;line-height:1.25;font-family:Quarca;-inkscape-font-specification:Quarca;text-align:start;letter-spacing:0px;word-spacing:0px;text-anchor:start;fill:#dddddd;fill-opacity:1;stroke:none;stroke-width:0.269301"
       xml:space="preserve"><tspan
         id="tspan1013"
         style="font-style:normal;font-variant:normal;font-weight:normal;font-stretch:normal;font-size:3.94975px;font-family:Quarca;-inkscape-font-specification:Quarca;text-align:start;text-anchor:start;fill:#dddddd;fill-opacity:1;stroke-width:0.269301"
         y="55.158703"
         x="44.208324"
         sodipodi:role="line">PW - GRID CONTROL</tspan></text>
    <text
       transform="scale(1.0163587,0.9839046)"
       id="text5443-7-5-4"
       y="59.798027"
       x="38.279922"
       style="font-style:normal;font-variant:normal;font-weight:normal;font-stretch:normal;font-size:3.59069px;line-height:1.25;font-family:Quarca;-inkscape-font-specification:Quarca;letter-spacing:0px;word-spacing:0px;fill:#dddddd;fill-opacity:1;stroke:none;stroke-width:0.269301;"
       xml:space="preserve"><tspan
         style="font-style:normal;font-variant:normal;font-weight:normal;font-stretch:normal;font-size:2.51348px;font-family:Quarca;-inkscape-font-specification:Quarca;stroke-width:0.269301;fill:#dddddd;fill-opacity:1;"
         y="59.798027"
         x="38.279922"
         id="tspan5441-1-6-3"
         sodipodi:role="line">X</tspan></text>
    <text
       transform="scale(1.0163587,0.98390462)"
       id="text993"
       y="137.09669"
       x="70.401093"
       style="font-style:normal;font-variant:normal;font-weight:bold;font-stretch:normal;font-size:3.59069px;line-height:1.25;font-family:'Labtop Secundo Superwide';-inkscape-font-specification:'Labtop Secundo Superwide Bold';text-align:center;letter-spacing:0px;word-spacing:0px;text-anchor:middle;fill:#000000;fill-opacity:1;stroke:none;stroke-width:0.269301"
       xml:space="preserve" />
    <text
       transform="scale(1.0163587,0.98390462)"
       id="text1267"
       y="115.0074"
       x="97.631851"
       style="font-style:normal;font-variant:normal;font-weight:bold;font-stretch:normal;font-size:3.59069px;line-height:1.25;font-family:'Labtop Secundo Superwide';-inkscape-font-specification:'Labtop Secundo Superwide Bold';text-align:center;letter-spacing:0px;word-spacing:0px;text-anchor:middle;fill:#ff04ff;fill-opacity:1;stroke:none;stroke-width:0.269301"
       xml:space="preserve" />
    <text
       transform="scale(1.0163587,0.98390462)"
       id="text1271"
       y="113.96005"
       x="103.53501"
       style="font-style:normal;font-variant:normal;font-weight:bold;font-stretch:normal;font-size:3.59069px;line-height:1.25;font-family:'Labtop Secundo Superwide';-inkscape-font-specification:'Labtop Secundo Superwide Bold';text-align:center;letter-spacing:0px;word-spacing:0px;text-anchor:middle;fill:#ffffff;fill-opacity:1;stroke:none;stroke-width:0.269301"
       xml:space="preserve" />
    <text
       transform="scale(1.0163587,0.98390462)"
       id="text1275"
       y="113.86485"
       x="103.63023"
       style="font-style:normal;font-variant:normal;font-weight:bold;font-stretch:normal;font-size:3.59069px;line-height:1.25;font-family:'Labtop Secundo Superwide';-inkscape-font-specification:'Labtop Secundo Superwide Bold';text-align:center;letter-spacing:0px;word-spacing:0px;text-anchor:middle;fill:#000000;fill-opacity:1;stroke:none;stroke-width:0.269301"
       xml:space="preserve" />
    <text
       transform="scale(1.0163587,0.9839046)"
       id="text5443-7-5-4-3"
       y="59.798035"
       x="44.881039"
       style="font-style:normal;font-variant:normal;font-weight:normal;font-stretch:normal;font-size:3.59069px;line-height:1.25;font-family:Quarca;-inkscape-font-specification:Quarca;letter-spacing:0px;word-spacing:0px;fill:#dddddd;fill-opacity:1;stroke:none;stroke-width:0.269301;"
       xml:space="preserve"><tspan
         style="font-style:normal;font-variant:normal;font-weight:normal;font-stretch:normal;font-size:2.51348px;font-family:Quarca;-inkscape-font-specification:Quarca;stroke-width:0.269301;fill:#dddddd;fill-opacity:1;"
         y="59.798035"
         x="44.881039"
         id="tspan5441-1-6-3-0"
         sodipodi:role="line">Y</tspan></text>
    <text
       transform="scale(1.0163587,0.9839046)"
       id="text5443-7-5-4-7"
       y="80.255753"
       x="39.082981"
       style="font-style:normal;font-variant:normal;font-weight:bold;font-stretch:normal;font-size:3.59069px;line-height:1.25;font-family:Quarca;-inkscape-font-specification:Quarca;letter-spacing:0px;word-spacing:0px;fill:#dddddd;fill-opacity:1;stroke:none;stroke-width:0.269301;"
       xml:space="preserve"><tspan
         style="font-style:normal;font-variant:normal;font-weight:normal;font-stretch:normal;font-size:2.51348px;font-family:Quarca;-inkscape-font-specification:Quarca;stroke-width:0.269301;fill:#dddddd;fill-opacity:1;"
         y="80.255753"
         x="39.082981"
         id="tspan5441-1-6-3-7"
         sodipodi:role="line">PIN Xs</tspan></text>
    <text
       transform="scale(1.0163587,0.9839046)"
       id="text5443-7-5-4-6"
       y="110.3738"
       x="43.786858"
       style="font-style:normal;font-variant:normal;font-weight:normal;font-stretch:normal;font-size:3.59069px;line-height:1.25;font-family:Quarca;-inkscape-font-specification:Quarca;letter-spacing:0px;word-spacing:0px;fill:#dddddd;fill-opacity:1;stroke:none;stroke-width:0.269301"
       xml:space="preserve"><tspan
         style="font-style:normal;font-variant:normal;font-weight:normal;font-stretch:normal;font-size:2.46944px;font-family:Quarca;-inkscape-font-specification:Quarca;fill:#dddddd;fill-opacity:1;stroke-width:0.269301"
         y="110.3738"
         x="43.786858"
         id="tspan5441-1-6-3-2"
         sodipodi:role="line">LEVEL</tspan></text>
    <text
       transform="scale(1.0163587,0.98390462)"
       id="text1475"
       y="113.96005"
       x="80.588814"
       style="font-style:normal;font-variant:normal;font-weight:bold;font-stretch:normal;font-size:3.59069px;line-height:1.25;font-family:'Labtop Secundo Superwide';-inkscape-font-specification:'Labtop Secundo Superwide Bold';text-align:center;letter-spacing:0px;word-spacing:0px;text-anchor:middle;fill:#000000;fill-opacity:1;stroke:none;stroke-width:0.269301"
       xml:space="preserve" />
    <text
       transform="scale(1.0163587,0.9839046)"
       id="text5443-7-5-4-7-4"
       y="104.97803"
       x="37.002895"
       style="font-style:normal;font-variant:normal;font-weight:normal;font-stretch:normal;font-size:3.59069px;line-height:1.25;font-family:Quarca;-inkscape-font-specification:Quarca;letter-spacing:0px;word-spacing:0px;fill:#dddddd;fill-opacity:1;stroke:none;stroke-width:0.269301;"
       xml:space="preserve"><tspan
         style="font-style:normal;font-variant:normal;font-weight:normal;font-stretch:normal;font-size:2.51348px;font-family:Quarca;-inkscape-font-specification:Quarca;stroke-width:0.269301;fill:#dddddd;fill-opacity:1;"
         y="104.97803"
         x="37.002895"
         id="tspan5441-1-6-3-7-6"
         sodipodi:role="line">DESTINATION</tspan></text>
    <path
       inkscape:connector-curvature="0"
       id="rect4936-0-8"
       d="M 49.830687,57.135567 H 83.96225 V 91.26713 H 49.830687 Z"
       style="opacity:0.981;fill:#060e08;fill-opacity:1;stroke:#ffffff;stroke-width:0.26458335;stroke-miterlimit:4;stroke-dasharray:none;stroke-opacity:1" />
    <text
       transform="scale(1.0163587,0.9839046)"
       id="text5443-7-5-4-6-8"
       y="116.2899"
       x="43.786858"
       style="font-style:normal;font-variant:normal;font-weight:normal;font-stretch:normal;font-size:3.59069px;line-height:1.25;font-family:Quarca;-inkscape-font-specification:Quarca;letter-spacing:0px;word-spacing:0px;fill:#dddddd;fill-opacity:1;stroke:none;stroke-width:0.269301"
       xml:space="preserve"><tspan
         style="font-style:normal;font-variant:normal;font-weight:normal;font-stretch:normal;font-size:2.46944px;font-family:Quarca;-inkscape-font-specification:Quarca;fill:#dddddd;fill-opacity:1;stroke-width:0.269301"
         y="116.2899"
         x="43.786858"
         id="tspan5441-1-6-3-2-3"
         sodipodi:role="line">PAN</tspan></text>
    <text
       transform="scale(1.0163587,0.9839046)"
       id="text5443-7-5-4-6-5"
       y="122.20596"
       x="43.786858"
       style="font-style:normal;font-variant:normal;font-weight:normal;font-stretch:normal;font-size:3.59069px;line-height:1.25;font-family:Quarca;-inkscape-font-specification:Quarca;letter-spacing:0px;word-spacing:0px;fill:#dddddd;fill-opacity:1;stroke:none;stroke-width:0.269301"
       xml:space="preserve"><tspan
         style="font-style:normal;font-variant:normal;font-weight:normal;font-stretch:normal;font-size:2.46944px;font-family:Quarca;-inkscape-font-specification:Quarca;fill:#dddddd;fill-opacity:1;stroke-width:0.269301"
         y="122.20596"
         x="43.786858"
         id="tspan5441-1-6-3-2-9"
         sodipodi:role="line">Fc</tspan></text>
    <text
       transform="scale(1.0163587,0.9839046)"
       id="text5443-7-5-4-6-4"
       y="127.99335"
       x="43.850357"
       style="font-style:normal;font-variant:normal;font-weight:normal;font-stretch:normal;font-size:3.59069px;line-height:1.25;font-family:Quarca;-inkscape-font-specification:Quarca;letter-spacing:0px;word-spacing:0px;fill:#dddddd;fill-opacity:1;stroke:none;stroke-width:0.269301"
       xml:space="preserve"><tspan
         style="font-style:normal;font-variant:normal;font-weight:normal;font-stretch:normal;font-size:2.46944px;font-family:Quarca;-inkscape-font-specification:Quarca;fill:#dddddd;fill-opacity:1;stroke-width:0.269301"
         y="127.99335"
         x="43.850357"
         id="tspan5441-1-6-3-2-5"
         sodipodi:role="line">Q</tspan></text>
    <text
       transform="scale(1.0163587,0.9839046)"
       id="text5443-7-5-4-6-2"
       y="134.03807"
       x="43.786858"
       style="font-style:normal;font-variant:normal;font-weight:normal;font-stretch:normal;font-size:3.59069px;line-height:1.25;font-family:Quarca;-inkscape-font-specification:Quarca;letter-spacing:0px;word-spacing:0px;fill:#dddddd;fill-opacity:1;stroke:none;stroke-width:0.269301"
       xml:space="preserve"><tspan
         style="font-style:normal;font-variant:normal;font-weight:normal;font-stretch:normal;font-size:2.46944px;font-family:Quarca;-inkscape-font-specification:Quarca;fill:#dddddd;fill-opacity:1;stroke-width:0.269301"
         y="134.03807"
         x="43.786858"
         id="tspan5441-1-6-3-2-2"
         sodipodi:role="line">PITCH</tspan></text>
    <text
       transform="scale(1.0163587,0.9839046)"
       id="text5443-7-5-4-6-6"
       y="139.93684"
       x="43.788975"
       style="font-style:normal;font-variant:normal;font-weight:normal;font-stretch:normal;font-size:3.59069px;line-height:1.25;font-family:Quarca;-inkscape-font-specification:Quarca;letter-spacing:0px;word-spacing:0px;fill:#dddddd;fill-opacity:1;stroke:none;stroke-width:0.269301"
       xml:space="preserve"><tspan
         style="font-style:normal;font-variant:normal;font-weight:normal;font-stretch:normal;font-size:2.46944px;font-family:Quarca;-inkscape-font-specification:Quarca;fill:#dddddd;fill-opacity:1;stroke-width:0.269301"
         y="139.93684"
         x="43.788975"
         id="tspan5441-1-6-3-2-4"
         sodipodi:role="line">DETUNE</tspan></text>
    <path
       style="fill:#dddddf;fill-opacity:1;stroke-width:0.05907042"
       id="path24013"
       d="m 42.649419,66.194873 c -0.682855,0 -1.41769,0.203322 -1.41769,0.649775 0,0.39512 0.575641,0.599683 1.181407,0.641506 v 0.36535 l 0.686932,-0.534295 -0.686932,-0.534289 v 0.348102 c -0.543505,-0.04176 -0.826984,-0.219564 -0.826984,-0.286374 0,-0.0759 0.365588,-0.295352 1.063267,-0.295352 0.69768,0 1.063268,0.219448 1.063268,0.295352 0,0.03267 -0.09327,0.130606 -0.370488,0.208991 l -0.04301,0.01209 v 0.364701 l 0.07325,-0.01812 c 0.447932,-0.110816 0.694669,-0.312423 0.694669,-0.567667 0,-0.446452 -0.734835,-0.649774 -1.417691,-0.649774 z"
       inkscape:connector-curvature="0" />
  </g>
</svg>
