<?xml version="1.0" encoding="UTF-8" standalone="no"?>
<svg
   xmlns:dc="http://purl.org/dc/elements/1.1/"
   xmlns:cc="http://creativecommons.org/ns#"
   xmlns:rdf="http://www.w3.org/1999/02/22-rdf-syntax-ns#"
   xmlns:svg="http://www.w3.org/2000/svg"
   xmlns="http://www.w3.org/2000/svg"
   xmlns:xlink="http://www.w3.org/1999/xlink"
   xmlns:sodipodi="http://sodipodi.sourceforge.net/DTD/sodipodi-0.dtd"
   xmlns:inkscape="http://www.inkscape.org/namespaces/inkscape"
   sodipodi:docname="QARProbabilityExpanderMaster.svg"
   inkscape:version="1.0 (4035a4fb49, 2020-05-01)"
   id="svg11003"
   version="1.1"
   viewBox="0 0 51.59375 100.54167"
   height="380"
   width="195">
  <defs
     id="defs10997">
    <linearGradient
       id="linearGradient4047"
       inkscape:collect="always">
      <stop
         id="stop3387"
         offset="0"
         style="stop-color:#0c1622;stop-opacity:1" />
      <stop
         id="stop3388"
         offset=".3"
         style="stop-color:#161625;stop-opacity:1" />
      <stop
         id="stop3389"
         offset="1"
         style="stop-color:#081f35;stop-opacity:1" />
    </linearGradient>
    <linearGradient
       gradientTransform="matrix(0.54080895,0,0,1.0014499,16.099226,-0.14648584)"
       gradientUnits="userSpaceOnUse"
       y2="50.462322"
       x2="35.219627"
       y1="158.3329"
       x1="35.418064"
       id="linearGradient4049"
       xlink:href="#linearGradient4047"
       inkscape:collect="always" />
  </defs>
  <sodipodi:namedview
     inkscape:document-rotation="0"
     showguides="false"
     units="px"
     inkscape:window-maximized="1"
     inkscape:window-y="-6"
     inkscape:window-x="-6"
     inkscape:window-height="1058"
     inkscape:window-width="1920"
     fit-margin-bottom="0"
     fit-margin-right="0"
     fit-margin-left="0"
     fit-margin-top="0"
     showgrid="false"
     inkscape:current-layer="layer1"
     inkscape:document-units="px"
     inkscape:cy="169.84754"
     inkscape:cx="-60.9111"
     inkscape:zoom="2"
     inkscape:pageshadow="2"
     inkscape:pageopacity="0.0"
     borderopacity="1.0"
     bordercolor="#666666"
     pagecolor="#ffffff"
     id="base" />
  <metadata
     id="metadata11000">
    <rdf:RDF>
      <cc:Work
         rdf:about="">
        <dc:format>image/svg+xml</dc:format>
        <dc:type
           rdf:resource="http://purl.org/dc/dcmitype/StillImage" />
        <dc:title />
      </cc:Work>
    </rdf:RDF>
  </metadata>
  <g
     transform="translate(-35.146312,-50.389004)"
     id="layer1"
     inkscape:groupmode="layer"
     inkscape:label="Layer 1">
    <path
       inkscape:export-ydpi="150.22649"
       inkscape:export-xdpi="150.22649"
       inkscape:export-filename="/home/vortico/pics/tmp/LFOs.png"
       style="fill:url(#linearGradient4049);fill-opacity:1;fill-rule:nonzero;stroke:none;stroke-width:0.31528381"
       d="M 35.146312,50.389002 H 86.740063 V 150.93067 H 35.146312 Z m 0,0"
       id="path33493"
       inkscape:connector-curvature="0" />
    <g
       id="text5097"
       style="font-style:normal;font-weight:normal;font-size:3.52777767px;line-height:1.25;font-family:sans-serif;letter-spacing:0px;word-spacing:0px;fill:#ffffff;fill-opacity:1;stroke:none;stroke-width:0.26458332" />
    <g
       id="text373"
       style="font-style:normal;font-variant:normal;font-weight:bold;font-stretch:normal;font-size:3.52777767px;line-height:1.25;font-family:Consolas;-inkscape-font-specification:'Consolas Bold';text-align:center;letter-spacing:0px;word-spacing:0px;text-anchor:middle;fill:#ffffff;fill-opacity:1;stroke:none;stroke-width:0.26458332" />
    <g
       id="flowRoot250"
       style="font-style:normal;font-variant:normal;font-weight:bold;font-stretch:normal;font-size:13.33333302px;line-height:1.25;font-family:Consolas;-inkscape-font-specification:'Consolas Bold';text-align:center;letter-spacing:0px;word-spacing:0px;text-anchor:middle;fill:#ffffff;fill-opacity:1;stroke:none" />
    <g
       id="text308"
       style="font-style:normal;font-variant:normal;font-weight:bold;font-stretch:normal;font-size:3.52777767px;line-height:1.25;font-family:Consolas;-inkscape-font-specification:'Consolas Bold';text-align:center;letter-spacing:0px;word-spacing:0px;text-anchor:middle;fill:#ffffff;fill-opacity:1;stroke:none;stroke-width:0.26458332"
       aria-label="=+">
      <path
         inkscape:connector-curvature="0"
         id="path4330"
         style="stroke-width:0.26458332"
         d="m 156.8605,47.159573 v -0.334174 h 1.48139 v 0.334174 z m 0,0.678684 v -0.334174 h 1.48139 v 0.334174 z" />
      <path
         inkscape:connector-curvature="0"
         id="path4332"
         style="stroke-width:0.26458332"
         d="m 159.73887,47.507528 v 0.670071 h -0.38757 v -0.670071 h -0.64251 v -0.346232 h 0.64251 V 46.49467 h 0.38757 v 0.666626 h 0.64251 v 0.346232 z" />
    </g>
    <g
       id="flowRoot53665"
       style="font-style:normal;font-variant:normal;font-weight:bold;font-stretch:normal;font-size:13.33333302px;line-height:1.25;font-family:Consolas;-inkscape-font-specification:'Consolas Bold';text-align:center;letter-spacing:0px;word-spacing:0px;text-anchor:middle;fill:#ffffff;fill-opacity:1;stroke:none" />
    <g
       id="text53994"
       style="font-style:normal;font-variant:normal;font-weight:bold;font-stretch:normal;font-size:3.52777767px;line-height:1.25;font-family:Consolas;-inkscape-font-specification:'Consolas Bold';text-align:center;letter-spacing:0px;word-spacing:0px;text-anchor:middle;fill:#ffffff;fill-opacity:1;stroke:none;stroke-width:0.26458332" />
    <g
       style="font-style:normal;font-variant:normal;font-weight:normal;font-stretch:normal;font-size:3.52778px;line-height:1.25;font-family:Quarca;-inkscape-font-specification:Quarca;text-align:start;letter-spacing:0px;word-spacing:0px;text-anchor:start;fill:#dddddd;fill-opacity:1;stroke:none;stroke-width:0.264583"
       id="text3885"
       aria-label="QAR - PROBABILITY">
      <path
         id="path18991"
         style="font-style:normal;font-variant:normal;font-weight:normal;font-stretch:normal;font-size:3.88056px;font-family:Quarca;-inkscape-font-specification:Quarca;text-align:start;text-anchor:start;stroke-width:0.264583;fill:#dddddd;fill-opacity:1"
         d="m 46.523394,53.535779 c 0,0.357012 0.13582,0.535518 0.531637,0.535518 h 0.256117 v 0.450145 h 0.20955 v -0.450145 h 0.27164 c 0.395817,0 0.531636,-0.178506 0.531636,-0.535518 v -1.684163 c 0,-0.357011 -0.135819,-0.535517 -0.531636,-0.535517 h -0.737307 c -0.395817,0 -0.531637,0.178506 -0.531637,0.535517 z m 0.554921,0.325967 c -0.244476,0 -0.333729,-0.116416 -0.333729,-0.360892 v -1.614313 c 0,-0.244475 0.08925,-0.360892 0.333729,-0.360892 h 0.690739 c 0.248356,0 0.333728,0.116417 0.333728,0.360892 v 1.614313 c 0,0.244476 -0.08537,0.360892 -0.333728,0.360892 H 47.520698 V 53.47369 h -0.20955 v 0.388056 z" />
      <path
         id="path18993"
         style="font-style:normal;font-variant:normal;font-weight:normal;font-stretch:normal;font-size:3.88056px;font-family:Quarca;-inkscape-font-specification:Quarca;text-align:start;text-anchor:start;stroke-width:0.264583;fill:#dddddd;fill-opacity:1"
         d="m 49.487536,51.316099 -0.849843,2.755198 h 0.236714 l 0.178506,-0.597607 h 1.10984 l 0.178506,0.597607 h 0.236714 l -0.845962,-2.755198 z m 0.124178,0.294923 0.48895,1.653118 h -0.985662 z" />
      <path
         id="path18995"
         style="font-style:normal;font-variant:normal;font-weight:normal;font-stretch:normal;font-size:3.88056px;font-family:Quarca;-inkscape-font-specification:Quarca;text-align:start;text-anchor:start;stroke-width:0.264583;fill:#dddddd;fill-opacity:1"
         d="m 50.912126,54.071297 h 0.221192 v -1.10596 h 0.508353 l 0.772231,1.10596 H 52.6739 l -0.776112,-1.10596 h 0.05433 c 0.368653,0 0.547159,-0.174625 0.547159,-0.523875 v -0.601487 c 0,-0.349251 -0.178506,-0.523876 -0.547159,-0.523876 h -1.03999 z m 0.221192,-2.545648 h 0.779992 c 0.248356,0 0.360892,0.116417 0.360892,0.380295 v 0.469548 c 0,0.267759 -0.112536,0.384175 -0.360892,0.384175 h -0.779992 z" />
      <path
         id="path18997"
         style="font-style:normal;font-variant:normal;font-weight:normal;font-stretch:normal;font-size:3.88056px;font-family:Quarca;-inkscape-font-specification:Quarca;text-align:start;text-anchor:start;stroke-width:0.264583;fill:#dddddd;fill-opacity:1"
         d="m 54.895036,52.829518 h -1.191332 l -0.03104,0.197908 h 1.191332 z" />
      <path
         id="path18999"
         style="font-style:normal;font-variant:normal;font-weight:normal;font-stretch:normal;font-size:3.88056px;font-family:Quarca;-inkscape-font-specification:Quarca;text-align:start;text-anchor:start;stroke-width:0.264583;fill:#dddddd;fill-opacity:1"
         d="m 56.332661,52.938173 h 0.869246 c 0.34537,0 0.523875,-0.174625 0.523875,-0.519995 v -0.582084 c 0,-0.34537 -0.178505,-0.519995 -0.523875,-0.519995 h -1.090438 v 2.755198 h 0.221192 z m 0,-1.412524 h 0.838201 c 0.225073,0 0.329848,0.104776 0.329848,0.353131 v 0.496712 c 0,0.248356 -0.104775,0.353131 -0.329848,0.353131 h -0.838201 z" />
      <path
         id="path19001"
         style="font-style:normal;font-variant:normal;font-weight:normal;font-stretch:normal;font-size:3.88056px;font-family:Quarca;-inkscape-font-specification:Quarca;text-align:start;text-anchor:start;stroke-width:0.264583;fill:#dddddd;fill-opacity:1"
         d="m 58.135121,54.071297 h 0.221192 v -1.10596 h 0.508354 l 0.772231,1.10596 h 0.259998 l -0.776112,-1.10596 h 0.05433 c 0.368653,0 0.547159,-0.174625 0.547159,-0.523875 v -0.601487 c 0,-0.349251 -0.178506,-0.523876 -0.547159,-0.523876 h -1.039991 z m 0.221192,-2.545648 h 0.779993 c 0.248356,0 0.360892,0.116417 0.360892,0.380295 v 0.469548 c 0,0.267759 -0.112536,0.384175 -0.360892,0.384175 h -0.779993 z" />
      <path
         id="path19003"
         style="font-style:normal;font-variant:normal;font-weight:normal;font-stretch:normal;font-size:3.88056px;font-family:Quarca;-inkscape-font-specification:Quarca;text-align:start;text-anchor:start;stroke-width:0.264583;fill:#dddddd;fill-opacity:1"
         d="m 60.181147,53.535779 c 0,0.357012 0.135819,0.535518 0.531636,0.535518 h 0.737307 c 0.395817,0 0.531636,-0.178506 0.531636,-0.535518 v -1.684163 c 0,-0.357011 -0.135819,-0.535517 -0.531636,-0.535517 h -0.737307 c -0.395817,0 -0.531636,0.178506 -0.531636,0.535517 z m 0.55492,-2.01013 h 0.690739 c 0.248356,0 0.333728,0.116417 0.333728,0.360892 v 1.614313 c 0,0.244476 -0.08537,0.360892 -0.333728,0.360892 h -0.690739 c -0.244476,0 -0.333729,-0.116416 -0.333729,-0.360892 v -1.614313 c 0,-0.244475 0.08925,-0.360892 0.333729,-0.360892 z" />
      <path
         id="path19005"
         style="font-style:normal;font-variant:normal;font-weight:normal;font-stretch:normal;font-size:3.88056px;font-family:Quarca;-inkscape-font-specification:Quarca;text-align:start;text-anchor:start;stroke-width:0.264583;fill:#dddddd;fill-opacity:1"
         d="m 62.485593,54.071297 h 1.078796 c 0.41522,0 0.601486,-0.178506 0.601486,-0.535518 v -0.376414 c 0,-0.376414 -0.201789,-0.512234 -0.450145,-0.531637 0.209551,-0.04269 0.306565,-0.182386 0.306565,-0.438503 v -0.337609 c 0,-0.357011 -0.20567,-0.535517 -0.640293,-0.535517 h -0.896409 z m 0.221192,-1.334913 h 0.737306 c 0.34537,0 0.500593,0.131939 0.500593,0.434623 v 0.322086 c 0,0.248356 -0.128059,0.368653 -0.41522,0.368653 h -0.822679 z m 0,-1.210735 h 0.62477 c 0.322087,0 0.469548,0.108656 0.469548,0.376415 v 0.271639 c 0,0.221192 -0.120298,0.357011 -0.391937,0.357011 h -0.702381 z" />
      <path
         id="path19007"
         style="font-style:normal;font-variant:normal;font-weight:normal;font-stretch:normal;font-size:3.88056px;font-family:Quarca;-inkscape-font-specification:Quarca;text-align:start;text-anchor:start;stroke-width:0.264583;fill:#dddddd;fill-opacity:1"
         d="m 65.214414,51.316099 -0.849842,2.755198 h 0.236714 l 0.178506,-0.597607 h 1.10984 l 0.178505,0.597607 h 0.236715 L 65.45889,51.316099 Z m 0.124178,0.294923 0.488951,1.653118 h -0.985662 z" />
      <path
         id="path19009"
         style="font-style:normal;font-variant:normal;font-weight:normal;font-stretch:normal;font-size:3.88056px;font-family:Quarca;-inkscape-font-specification:Quarca;text-align:start;text-anchor:start;stroke-width:0.264583;fill:#dddddd;fill-opacity:1"
         d="m 66.639005,54.071297 h 1.078796 c 0.415219,0 0.601486,-0.178506 0.601486,-0.535518 v -0.376414 c 0,-0.376414 -0.201789,-0.512234 -0.450145,-0.531637 0.209551,-0.04269 0.306565,-0.182386 0.306565,-0.438503 v -0.337609 c 0,-0.357011 -0.20567,-0.535517 -0.640293,-0.535517 h -0.896409 z m 0.221192,-1.334913 h 0.737306 c 0.34537,0 0.500592,0.131939 0.500592,0.434623 v 0.322086 c 0,0.248356 -0.128058,0.368653 -0.41522,0.368653 h -0.822678 z m 0,-1.210735 h 0.62477 c 0.322086,0 0.469548,0.108656 0.469548,0.376415 v 0.271639 c 0,0.221192 -0.120298,0.357011 -0.391937,0.357011 h -0.702381 z" />
      <path
         id="path19011"
         style="font-style:normal;font-variant:normal;font-weight:normal;font-stretch:normal;font-size:3.88056px;font-family:Quarca;-inkscape-font-specification:Quarca;text-align:start;text-anchor:start;stroke-width:0.264583;fill:#dddddd;fill-opacity:1"
         d="m 68.974798,54.071297 v -2.755198 h -0.221192 v 2.755198 z" />
      <path
         id="path19013"
         style="font-style:normal;font-variant:normal;font-weight:normal;font-stretch:normal;font-size:3.88056px;font-family:Quarca;-inkscape-font-specification:Quarca;text-align:start;text-anchor:start;stroke-width:0.264583;fill:#dddddd;fill-opacity:1"
         d="M 69.717561,51.316099 H 69.49637 v 2.755198 h 1.412523 l 0.03104,-0.209551 h -1.222377 z" />
      <path
         id="path19015"
         style="font-style:normal;font-variant:normal;font-weight:normal;font-stretch:normal;font-size:3.88056px;font-family:Quarca;-inkscape-font-specification:Quarca;text-align:start;text-anchor:start;stroke-width:0.264583;fill:#dddddd;fill-opacity:1"
         d="m 71.460783,54.071297 v -2.755198 h -0.221192 v 2.755198 z" />
      <path
         id="path19017"
         style="font-style:normal;font-variant:normal;font-weight:normal;font-stretch:normal;font-size:3.88056px;font-family:Quarca;-inkscape-font-specification:Quarca;text-align:start;text-anchor:start;stroke-width:0.264583;fill:#dddddd;fill-opacity:1"
         d="m 73.398759,51.525649 v -0.20955 h -1.633716 v 0.20955 h 0.706262 v 2.545648 h 0.225072 v -2.545648 z" />
      <path
         id="path19019"
         style="font-style:normal;font-variant:normal;font-weight:normal;font-stretch:normal;font-size:3.88056px;font-family:Quarca;-inkscape-font-specification:Quarca;text-align:start;text-anchor:start;stroke-width:0.264583;fill:#dddddd;fill-opacity:1"
         d="m 74.556559,54.071297 v -1.140885 l 0.814918,-1.614313 h -0.232834 l -0.613128,1.222377 c -0.06597,0.128058 -0.06985,0.155222 -0.08149,0.205669 -0.01164,-0.05045 -0.02328,-0.07761 -0.08537,-0.20955 l -0.617009,-1.218496 h -0.232834 l 0.822679,1.618194 v 1.137004 z" />
    </g>
    <g
       style="font-style:normal;font-variant:normal;font-weight:bold;font-stretch:normal;font-size:13.3333px;line-height:1.25;font-family:Consolas;-inkscape-font-specification:'Consolas Bold';text-align:center;letter-spacing:0px;word-spacing:0px;text-anchor:middle;fill:#000000;fill-opacity:1;stroke:none"
       id="flowRoot1015"
       transform="matrix(0.26458333,0,0,0.26458333,35.146312,50.389004)" />
    <g
       style="font-style:normal;font-variant:normal;font-weight:normal;font-stretch:normal;font-size:3.52778px;line-height:1.25;font-family:Quarca;-inkscape-font-specification:Quarca;letter-spacing:0px;word-spacing:0px;fill:#dddddd;fill-opacity:1;stroke:none;stroke-width:0.264583"
       id="text5443-7-5"
       aria-label="PROBABILITY">
      <path
         id="path18967"
         style="font-style:normal;font-variant:normal;font-weight:normal;font-stretch:normal;font-size:2.82222px;font-family:Quarca;-inkscape-font-specification:Quarca;stroke-width:0.264583;fill:#dddddd;fill-opacity:1"
         d="m 54.35718,57.203355 h 0.632178 c 0.251177,0 0.380999,-0.127 0.380999,-0.378178 v -0.423333 c 0,-0.251177 -0.129822,-0.378177 -0.380999,-0.378177 h -0.793044 v 2.003776 h 0.160866 z m 0,-1.027288 h 0.6096 c 0.163689,0 0.239889,0.0762 0.239889,0.256822 v 0.361244 c 0,0.180622 -0.0762,0.256822 -0.239889,0.256822 h -0.6096 z" />
      <path
         id="path18969"
         style="font-style:normal;font-variant:normal;font-weight:normal;font-stretch:normal;font-size:2.82222px;font-family:Quarca;-inkscape-font-specification:Quarca;stroke-width:0.264583;fill:#dddddd;fill-opacity:1"
         d="m 55.668057,58.027443 h 0.160867 V 57.22311 h 0.369711 l 0.561622,0.804333 h 0.189088 L 56.384901,57.22311 h 0.03951 c 0.268111,0 0.397934,-0.127 0.397934,-0.381 v -0.437444 c 0,-0.253999 -0.129823,-0.380999 -0.397934,-0.380999 h -0.756355 z m 0.160867,-1.851376 h 0.567266 c 0.180622,0 0.262467,0.08467 0.262467,0.276577 v 0.341489 c 0,0.194733 -0.08185,0.2794 -0.262467,0.2794 h -0.567266 z" />
      <path
         id="path18971"
         style="font-style:normal;font-variant:normal;font-weight:normal;font-stretch:normal;font-size:2.82222px;font-family:Quarca;-inkscape-font-specification:Quarca;stroke-width:0.264583;fill:#dddddd;fill-opacity:1"
         d="m 57.156073,57.637977 c 0,0.259644 0.09878,0.389466 0.386644,0.389466 h 0.536222 c 0.287866,0 0.386644,-0.129822 0.386644,-0.389466 v -1.224844 c 0,-0.259644 -0.09878,-0.389466 -0.386644,-0.389466 h -0.536222 c -0.287866,0 -0.386644,0.129822 -0.386644,0.389466 z m 0.403577,-1.46191 h 0.502356 c 0.180622,0 0.242711,0.08467 0.242711,0.262466 v 1.174044 c 0,0.177799 -0.06209,0.262466 -0.242711,0.262466 H 57.55965 c -0.177799,0 -0.24271,-0.08467 -0.24271,-0.262466 v -1.174044 c 0,-0.1778 0.06491,-0.262466 0.24271,-0.262466 z" />
      <path
         id="path18973"
         style="font-style:normal;font-variant:normal;font-weight:normal;font-stretch:normal;font-size:2.82222px;font-family:Quarca;-inkscape-font-specification:Quarca;stroke-width:0.264583;fill:#dddddd;fill-opacity:1"
         d="m 58.832031,58.027443 h 0.784577 c 0.301977,0 0.437444,-0.129822 0.437444,-0.389466 v -0.273756 c 0,-0.273755 -0.146755,-0.372533 -0.327378,-0.386644 0.1524,-0.03104 0.222956,-0.132644 0.222956,-0.318911 v -0.245533 c 0,-0.259644 -0.149578,-0.389466 -0.465666,-0.389466 h -0.651933 z m 0.160866,-0.970844 h 0.536222 c 0.251178,0 0.364066,0.09596 0.364066,0.316089 v 0.234244 c 0,0.180622 -0.09313,0.268111 -0.301977,0.268111 h -0.598311 z m 0,-0.880532 h 0.454378 c 0.234244,0 0.341488,0.07902 0.341488,0.273755 v 0.197555 c 0,0.160867 -0.08749,0.259645 -0.285044,0.259645 h -0.510822 z" />
      <path
         id="path18975"
         style="font-style:normal;font-variant:normal;font-weight:normal;font-stretch:normal;font-size:2.82222px;font-family:Quarca;-inkscape-font-specification:Quarca;stroke-width:0.264583;fill:#dddddd;fill-opacity:1"
         d="m 60.816625,56.023667 -0.618067,2.003776 h 0.172156 l 0.129822,-0.434622 h 0.807155 l 0.129822,0.434622 h 0.172155 l -0.615243,-2.003776 z m 0.09031,0.214488 0.355599,1.202266 h -0.716843 z" />
      <path
         id="path18977"
         style="font-style:normal;font-variant:normal;font-weight:normal;font-stretch:normal;font-size:2.82222px;font-family:Quarca;-inkscape-font-specification:Quarca;stroke-width:0.264583;fill:#dddddd;fill-opacity:1"
         d="m 61.852688,58.027443 h 0.784577 c 0.301978,0 0.437445,-0.129822 0.437445,-0.389466 v -0.273756 c 0,-0.273755 -0.146756,-0.372533 -0.327378,-0.386644 0.1524,-0.03104 0.222955,-0.132644 0.222955,-0.318911 v -0.245533 c 0,-0.259644 -0.149577,-0.389466 -0.465666,-0.389466 h -0.651933 z m 0.160867,-0.970844 h 0.536222 c 0.251177,0 0.364066,0.09596 0.364066,0.316089 v 0.234244 c 0,0.180622 -0.09313,0.268111 -0.301978,0.268111 h -0.59831 z m 0,-0.880532 h 0.454377 c 0.234244,0 0.341489,0.07902 0.341489,0.273755 v 0.197555 c 0,0.160867 -0.08749,0.259645 -0.285044,0.259645 h -0.510822 z" />
      <path
         id="path18979"
         style="font-style:normal;font-variant:normal;font-weight:normal;font-stretch:normal;font-size:2.82222px;font-family:Quarca;-inkscape-font-specification:Quarca;stroke-width:0.264583;fill:#dddddd;fill-opacity:1"
         d="m 63.551444,58.027443 v -2.003776 h -0.160867 v 2.003776 z" />
      <path
         id="path18981"
         style="font-style:normal;font-variant:normal;font-weight:normal;font-stretch:normal;font-size:2.82222px;font-family:Quarca;-inkscape-font-specification:Quarca;stroke-width:0.264583;fill:#dddddd;fill-opacity:1"
         d="m 64.091634,56.023667 h -0.160866 v 2.003776 h 1.027288 l 0.02258,-0.1524 h -0.889 z" />
      <path
         id="path18983"
         style="font-style:normal;font-variant:normal;font-weight:normal;font-stretch:normal;font-size:2.82222px;font-family:Quarca;-inkscape-font-specification:Quarca;stroke-width:0.264583;fill:#dddddd;fill-opacity:1"
         d="m 65.359429,58.027443 v -2.003776 h -0.160866 v 2.003776 z" />
      <path
         id="path18985"
         style="font-style:normal;font-variant:normal;font-weight:normal;font-stretch:normal;font-size:2.82222px;font-family:Quarca;-inkscape-font-specification:Quarca;stroke-width:0.264583;fill:#dddddd;fill-opacity:1"
         d="m 66.768864,56.176067 v -0.1524 h -1.188155 v 0.1524 h 0.513644 v 1.851376 h 0.163689 v -1.851376 z" />
      <path
         id="path18987"
         style="font-style:normal;font-variant:normal;font-weight:normal;font-stretch:normal;font-size:2.82222px;font-family:Quarca;-inkscape-font-specification:Quarca;stroke-width:0.264583;fill:#dddddd;fill-opacity:1"
         d="M 67.6109,58.027443 V 57.19771 l 0.592666,-1.174043 h -0.169333 l -0.445911,0.888999 c -0.04798,0.09313 -0.0508,0.112889 -0.05927,0.149578 -0.0085,-0.03669 -0.01693,-0.05644 -0.06209,-0.1524 L 67.018233,56.023667 H 66.8489 l 0.598311,1.176865 v 0.826911 z" />
    </g>
    <g
       style="font-style:normal;font-variant:normal;font-weight:normal;font-stretch:normal;font-size:3.52778px;line-height:1.25;font-family:Quarca;-inkscape-font-specification:Quarca;letter-spacing:0px;word-spacing:0px;fill:#dddddd;fill-opacity:1;stroke:none;stroke-width:0.264583"
       id="text5443-0-6"
       aria-label="BEAT">
      <path
         id="path18958"
         style="font-style:normal;font-variant:normal;font-weight:normal;font-stretch:normal;font-size:2.11667px;font-family:Quarca;-inkscape-font-specification:Quarca;stroke-width:0.264583;fill:#dddddd;fill-opacity:1"
         d="m 38.850477,135.05568 h 0.588434 c 0.226484,0 0.328084,-0.0974 0.328084,-0.2921 v -0.20532 c 0,-0.20532 -0.110067,-0.2794 -0.245534,-0.28998 0.114301,-0.0233 0.167217,-0.0995 0.167217,-0.23919 v -0.18415 c 0,-0.19473 -0.112183,-0.2921 -0.34925,-0.2921 h -0.488951 z m 0.12065,-0.72814 h 0.402167 c 0.188384,0 0.273051,0.072 0.273051,0.23707 v 0.17569 c 0,0.13546 -0.06985,0.20108 -0.226484,0.20108 h -0.448734 z m 0,-0.6604 h 0.340784 c 0.175684,0 0.256117,0.0593 0.256117,0.20532 v 0.14817 c 0,0.12065 -0.06562,0.19473 -0.213784,0.19473 h -0.383117 z" />
      <path
         id="path18960"
         style="font-style:normal;font-variant:normal;font-weight:normal;font-stretch:normal;font-size:2.11667px;font-family:Quarca;-inkscape-font-specification:Quarca;stroke-width:0.264583;fill:#dddddd;fill-opacity:1"
         d="m 40.124547,133.66714 h 0.679451 l 0.01693,-0.1143 h -0.817034 v 1.50284 h 0.804334 l 0.01693,-0.1143 h -0.700618 v -0.45932 h 0.569384 l 0.01693,-0.11218 h -0.586317 z" />
      <path
         id="path18962"
         style="font-style:normal;font-variant:normal;font-weight:normal;font-stretch:normal;font-size:2.11667px;font-family:Quarca;-inkscape-font-specification:Quarca;stroke-width:0.264583;fill:#dddddd;fill-opacity:1"
         d="m 41.380724,133.55284 -0.46355,1.50284 h 0.129117 l 0.09737,-0.32597 h 0.605368 l 0.09737,0.32597 h 0.129117 l -0.461434,-1.50284 z m 0.06773,0.16087 0.2667,0.9017 h -0.537634 z" />
      <path
         id="path18964"
         style="font-style:normal;font-variant:normal;font-weight:normal;font-stretch:normal;font-size:2.11667px;font-family:Quarca;-inkscape-font-specification:Quarca;stroke-width:0.264583;fill:#dddddd;fill-opacity:1"
         d="m 42.798066,133.66714 v -0.1143 h -0.891118 v 0.1143 h 0.385234 v 1.38854 h 0.122767 v -1.38854 z" />
    </g>
    <g
       transform="translate(7.6067733,3.074399)"
       id="text271"
       style="font-style:normal;font-weight:normal;font-size:3.52777767px;line-height:1.25;font-family:sans-serif;letter-spacing:0px;word-spacing:0px;fill:#00a3f2;fill-opacity:1;stroke:none;stroke-width:0.26458332"
       aria-label="Frozen Wasteland">
      <g
         transform="translate(-1.5875001)"
         id="text3885-7"
         style="font-style:normal;font-variant:normal;font-weight:bold;font-stretch:normal;font-size:3.52777767px;line-height:1.25;font-family:Consolas;-inkscape-font-specification:'Consolas Bold';text-align:start;letter-spacing:0px;word-spacing:0px;text-anchor:start;fill:#00a3f2;fill-opacity:1;stroke:none;stroke-width:0.26458332"
         aria-label="FROZEN WASTELAND">
        <path
           inkscape:connector-curvature="0"
           id="path20360"
           style="font-style:normal;font-variant:normal;font-weight:normal;font-stretch:normal;font-family:'Bradley Gratis';-inkscape-font-specification:'Bradley Gratis';text-align:start;text-anchor:start;fill:#00a3f2;fill-opacity:1;stroke-width:0.26458332"
           d="m 41.150231,146.65677 q 0.119944,-0.11994 0.1905,-0.21166 0.07408,-0.0917 0.112889,-0.16934 0.04233,-0.0776 0.05292,-0.14464 0.01411,-0.0706 0.01411,-0.14816 0,-0.0952 -0.04586,-0.22931 -0.04586,-0.13405 -0.102306,-0.28575 -0.05644,-0.15169 -0.102306,-0.31044 -0.04586,-0.15875 -0.04586,-0.30339 0,-0.0776 0.0247,-0.1517 0.02822,-0.0741 0.06703,-0.14111 0.04233,-0.0705 0.09172,-0.13053 0.04939,-0.0635 0.09878,-0.11288 -0.07056,-0.0141 -0.123473,-0.0212 -0.05292,-0.0106 -0.07761,-0.0106 -0.130528,0 -0.22225,0.0705 -0.08819,0.067 -0.1905,0.16933 0,-0.11994 0.03528,-0.24694 0.03881,-0.13053 0.116417,-0.23636 0.07761,-0.10583 0.194027,-0.17286 0.119945,-0.067 0.282223,-0.067 0.112889,0 0.208139,0.0176 0.09878,0.0141 0.179916,0.0353 0.08114,0.0212 0.148167,0.0388 0.06703,0.0141 0.119944,0.0141 0.08114,0 0.141111,-0.0212 0.0635,-0.0247 0.123473,-0.0847 0,0.0776 -0.03175,0.17639 -0.02822,0.0988 -0.08819,0.1905 -0.05644,0.0882 -0.148167,0.15169 -0.09172,0.06 -0.211666,0.06 -0.05997,0 -0.137584,-0.007 -0.07408,-0.0106 -0.155222,-0.0247 -0.0071,0.0247 -0.01058,0.0459 -0.0035,0.0212 -0.0071,0.0388 -0.0035,0.0212 -0.0035,0.0388 0,0.0776 0.01058,0.15169 0.01411,0.0706 0.03881,0.14464 h 0.712611 l -0.08114,0.23989 q -0.01058,0.0459 -0.01411,0.067 -0.0035,0.0212 -0.01058,0.067 l -0.130528,-0.0917 h -0.363361 q 0.07761,0.17639 0.144639,0.35984 0.06703,0.17991 0.06703,0.38452 0,0.18345 -0.07408,0.3422 -0.07408,0.15522 -0.197556,0.27164 -0.119944,0.11641 -0.278694,0.17991 -0.155222,0.067 -0.321028,0.067 z" />
        <path
           inkscape:connector-curvature="0"
           id="path20362"
           style="font-style:normal;font-variant:normal;font-weight:normal;font-stretch:normal;font-family:'Bradley Gratis';-inkscape-font-specification:'Bradley Gratis';text-align:start;text-anchor:start;fill:#00a3f2;fill-opacity:1;stroke-width:0.26458332"
           d="m 43.22032,144.92816 q 0.07055,-0.0423 0.137583,-0.0988 0.07056,-0.0564 0.123472,-0.127 0.05645,-0.0705 0.08819,-0.16227 0.03528,-0.0952 0.03528,-0.21167 0,-0.0988 -0.03881,-0.16581 -0.03528,-0.0705 -0.08467,-0.11289 -0.04939,-0.0423 -0.09878,-0.06 -0.04586,-0.0176 -0.07056,-0.0176 -0.02822,0 -0.05292,0.0106 -0.02117,0.0106 -0.0388,0.0247 z m -0.518583,-0.94192 q -0.112889,-0.0635 -0.112889,-0.23636 0.03175,0.0318 0.112889,0.0565 0.08114,0.0212 0.172861,0.0212 0.04586,0 0.130527,-0.0106 0.08467,-0.0141 0.172862,-0.0282 0.09172,-0.0141 0.172861,-0.0247 0.08467,-0.0141 0.130527,-0.0141 0.116417,0 0.232834,0.0353 0.116416,0.0353 0.215194,0.11995 0.09878,0.0847 0.165806,0.2293 0.07056,0.14111 0.09172,0.35983 l -0.627944,0.4445 q 0.07055,0.0282 0.15875,0.0952 0.08819,0.067 0.165805,0.18698 0.08114,0.11994 0.134056,0.30691 0.05292,0.18345 0.05292,0.45156 0,0.23283 0.02117,0.37747 0.02117,0.14464 0.05292,0.23283 0.03175,0.0882 0.06703,0.13053 0.03881,0.0459 0.07056,0.0776 -0.155222,0 -0.275167,-0.0917 -0.119944,-0.0882 -0.211666,-0.23283 -0.09172,-0.14464 -0.162278,-0.32809 -0.06703,-0.18344 -0.123472,-0.37041 -0.05644,-0.18697 -0.105834,-0.35984 -0.04586,-0.17286 -0.09525,-0.29986 -0.02469,0.0176 -0.04939,0.0353 -0.02117,0.0141 -0.0388,0.0318 v 1.31939 h -0.518583 z" />
        <path
           inkscape:connector-curvature="0"
           id="path20364"
           style="font-style:normal;font-variant:normal;font-weight:normal;font-stretch:normal;font-family:'Bradley Gratis';-inkscape-font-specification:'Bradley Gratis';text-align:start;text-anchor:start;fill:#00a3f2;fill-opacity:1;stroke-width:0.26458332"
           d="m 45.108067,146.03588 q 0,0.11995 0.01411,0.18698 0.01764,0.067 0.04233,0.1023 0.02822,0.0317 0.0635,0.0388 0.03528,0.007 0.07056,0.007 0.07055,0 0.116416,-0.0952 0.04586,-0.0988 0.04586,-0.29986 v -1.53105 q 0,-0.15875 -0.01764,-0.25753 -0.01411,-0.10231 -0.04233,-0.15522 -0.02469,-0.0564 -0.05997,-0.0776 -0.03175,-0.0212 -0.0635,-0.0212 -0.06703,0 -0.119944,0.0847 -0.04939,0.0811 -0.04939,0.26106 z m 1.005416,-0.88547 q 0,0.25753 -0.06703,0.508 -0.0635,0.25047 -0.176389,0.44803 -0.109361,0.19755 -0.261056,0.32103 -0.151694,0.11994 -0.321028,0.11994 -0.15875,0 -0.310444,-0.10936 -0.148167,-0.10936 -0.264583,-0.29986 -0.112889,-0.1905 -0.183445,-0.4445 -0.07055,-0.254 -0.07055,-0.54328 0,-0.23636 0.0635,-0.4833 0.06703,-0.25048 0.179916,-0.45156 0.112889,-0.20108 0.264584,-0.32808 0.151694,-0.13053 0.321027,-0.13053 0.148167,0 0.292806,0.10936 0.148167,0.10936 0.264583,0.29986 0.119945,0.18697 0.194028,0.44097 0.07408,0.254 0.07408,0.54328 z" />
        <path
           inkscape:connector-curvature="0"
           id="path20366"
           style="font-style:normal;font-variant:normal;font-weight:normal;font-stretch:normal;font-family:'Bradley Gratis';-inkscape-font-specification:'Bradley Gratis';text-align:start;text-anchor:start;fill:#00a3f2;fill-opacity:1;stroke-width:0.26458332"
           d="m 46.267548,146.50861 q 0.04586,-0.27164 0.130528,-0.51153 0.08819,-0.23989 0.194028,-0.45861 0.105833,-0.21873 0.218722,-0.41628 0.116417,-0.20108 0.218722,-0.38806 0.102306,-0.18697 0.179917,-0.36336 0.07761,-0.17991 0.112889,-0.35983 -0.02822,-0.0176 -0.06703,-0.0318 -0.03528,-0.0141 -0.137583,-0.0141 -0.05292,0 -0.09525,0.0282 -0.03881,0.0247 -0.06703,0.0635 -0.02822,0.0353 -0.04586,0.0776 -0.01411,0.0388 -0.01411,0.0635 0,0.0282 0.01058,0.067 0.01411,0.0353 0.02822,0.0705 0.01764,0.0353 0.03528,0.067 0.01764,0.0282 0.03175,0.0423 l -0.430389,0.26811 q -0.08467,-0.0811 -0.144639,-0.19756 -0.05644,-0.11994 -0.05644,-0.23989 0,-0.06 0.03175,-0.14816 0.03175,-0.0882 0.102305,-0.16934 0.07056,-0.0847 0.183445,-0.14111 0.116416,-0.06 0.282222,-0.06 0.130528,0 0.218722,0.0176 0.08819,0.0176 0.155222,0.0423 0.06703,0.0212 0.123472,0.0388 0.05997,0.0176 0.134056,0.0176 0.04586,0 0.09878,-0.007 0.05292,-0.007 0.09878,-0.0212 0.04586,-0.0141 0.08114,-0.0282 0.03881,-0.0176 0.05997,-0.0388 -0.04233,0.22225 -0.134056,0.46213 -0.09172,0.23989 -0.204611,0.47978 -0.109361,0.23989 -0.232833,0.4692 -0.119945,0.2293 -0.22225,0.43039 -0.09878,0.19755 -0.169334,0.35983 -0.06703,0.15875 -0.07408,0.26105 0.141111,0.06 0.239889,0.06 0.0635,0 0.130528,-0.0141 0.06703,-0.0176 0.119944,-0.0529 0.05644,-0.0353 0.09172,-0.0882 0.03528,-0.0564 0.03528,-0.13405 0,-0.0776 -0.01764,-0.127 -0.01411,-0.0529 -0.03881,-0.0847 -0.0247,-0.0353 -0.05644,-0.06 -0.03175,-0.0282 -0.05997,-0.0564 l 0.405694,-0.29987 q 0.141112,0.10584 0.201084,0.22578 0.05997,0.11995 0.05997,0.26106 0,0.067 -0.02117,0.13053 -0.01764,0.06 -0.04586,0.11288 -0.02469,0.0494 -0.05997,0.0917 -0.03175,0.0423 -0.05644,0.067 l 0.05997,0.06 q 0.01764,0.0176 0.0388,0.0529 0.02117,0.0317 0.02117,0.0564 0,0.0282 -0.02469,0.0811 -0.02117,0.0564 -0.08819,0.0988 -0.02469,-0.0317 -0.05644,-0.0564 -0.02822,-0.0212 -0.05997,-0.0388 -0.03175,-0.0176 -0.06703,-0.0176 z" />
        <path
           inkscape:connector-curvature="0"
           id="path20368"
           style="font-style:normal;font-variant:normal;font-weight:normal;font-stretch:normal;font-family:'Bradley Gratis';-inkscape-font-specification:'Bradley Gratis';text-align:start;text-anchor:start;fill:#00a3f2;fill-opacity:1;stroke-width:0.26458332"
           d="m 49.773884,143.78163 v 0.381 q -0.03881,-0.0353 -0.102306,-0.0776 -0.05997,-0.0423 -0.130528,-0.0741 -0.06703,-0.0353 -0.134055,-0.0565 -0.06703,-0.0247 -0.112889,-0.0247 -0.08467,0 -0.172861,0.067 -0.08819,0.067 -0.144639,0.17991 -0.05644,0.10937 -0.07408,0.28928 -0.01411,0.17639 -0.01411,0.45509 h 0.903111 l -0.179916,0.40216 q -0.03528,-0.0529 -0.08467,-0.0705 -0.04586,-0.0212 -0.08467,-0.0212 H 48.88841 q 0,0.20108 0.0071,0.39511 0.0071,0.1905 0.04586,0.3422 0.04233,0.15169 0.127,0.24694 0.08467,0.0917 0.243417,0.0917 0.08467,0 0.165805,-0.0318 0.08467,-0.0317 0.155222,-0.0776 0.07056,-0.0494 0.123473,-0.1023 0.05644,-0.0529 0.08819,-0.0952 v 0.508 h -0.47625 q -0.342194,0 -0.553861,-0.11995 -0.211667,-0.12347 -0.331611,-0.32808 -0.116417,-0.20814 -0.15875,-0.47978 -0.03881,-0.27164 -0.03881,-0.56797 0,-0.0741 0.01058,-0.19403 0.01058,-0.12347 0.04586,-0.25753 0.03528,-0.13758 0.102305,-0.27516 0.06703,-0.14112 0.179917,-0.25048 0.116417,-0.11289 0.28575,-0.18344 0.169333,-0.0706 0.409222,-0.0706 z" />
        <path
           inkscape:connector-curvature="0"
           id="path20370"
           style="font-style:normal;font-variant:normal;font-weight:normal;font-stretch:normal;font-family:'Bradley Gratis';-inkscape-font-specification:'Bradley Gratis';text-align:start;text-anchor:start;fill:#00a3f2;fill-opacity:1;stroke-width:0.26458332"
           d="m 50.160286,146.50861 v -2.4377 q 0,-0.0988 -0.04233,-0.1658 -0.04233,-0.0706 -0.08467,-0.12348 h 0.684388 v 0.35984 l 0.391584,-0.45509 q 0.179916,0.16228 0.296333,0.32456 0.116417,0.15875 0.183445,0.32103 0.06703,0.15875 0.09172,0.32455 0.02469,0.16228 0.02469,0.33514 0,0.16933 -0.02822,0.32456 -0.02469,0.15169 -0.07408,0.29986 -0.04939,0.14816 -0.119945,0.29986 -0.06703,0.15169 -0.148166,0.3175 h 0.127 q 0.04586,0 0.09525,-0.0317 0.04939,-0.0318 0.09878,-0.0318 v 0.33867 h -0.684389 q 0.09525,-0.19403 0.151695,-0.34925 0.05997,-0.15523 0.09172,-0.29634 0.03175,-0.14111 0.04233,-0.27516 0.01058,-0.13406 0.01058,-0.28575 0,-0.1517 -0.05292,-0.31398 -0.04939,-0.1658 -0.123472,-0.30339 -0.07408,-0.13758 -0.15875,-0.22577 -0.08114,-0.0882 -0.148167,-0.0882 -0.04233,0 -0.06703,0.0212 v 2.11667 z" />
        <path
           inkscape:connector-curvature="0"
           id="path20372"
           style="font-style:normal;font-variant:normal;font-weight:normal;font-stretch:normal;font-family:'Bradley Gratis';-inkscape-font-specification:'Bradley Gratis';text-align:start;text-anchor:start;fill:#00a3f2;fill-opacity:1;stroke-width:0.26458332"
           d="m 53.398455,146.62502 q -0.1905,-0.13758 -0.324556,-0.2928 -0.134055,-0.15875 -0.215194,-0.32809 -0.08114,-0.16933 -0.119945,-0.34219 -0.03528,-0.17639 -0.03528,-0.34572 0,-0.16581 0.03528,-0.32809 0.03528,-0.1658 0.09172,-0.32455 0.05997,-0.16228 0.137584,-0.31397 0.07761,-0.15523 0.15875,-0.30339 h -0.02117 q -0.01058,0 -0.02469,0 -0.01058,-0.004 -0.02822,-0.004 -0.05644,0 -0.137583,0.0141 -0.07761,0.0141 -0.151694,0.0706 v -0.34573 h 0.740833 q -0.09172,0.15875 -0.15875,0.32103 -0.0635,0.15875 -0.105833,0.31045 -0.03881,0.14816 -0.05997,0.28222 -0.01764,0.13053 -0.01764,0.23636 0,0.10583 0.02117,0.254 0.02117,0.14817 0.07761,0.30692 0.05997,0.15522 0.15875,0.29633 0.102306,0.14111 0.264584,0.2293 l 0.105833,-0.0776 q -0.0635,-0.11994 -0.09878,-0.2293 -0.03528,-0.11289 -0.05292,-0.21167 -0.01411,-0.0988 -0.01764,-0.17992 -0.0035,-0.0847 -0.0035,-0.15169 0,-0.10936 0.02822,-0.24694 0.02822,-0.13759 0.08114,-0.28575 0.05292,-0.14817 0.127,-0.29987 0.07761,-0.15169 0.172861,-0.29633 -0.134055,0 -0.22225,0.0212 -0.08467,0.0212 -0.144639,0.06 v -0.33867 h 0.762 q -0.0635,0.0882 -0.127,0.20109 -0.05997,0.10936 -0.105833,0.23989 -0.04586,0.127 -0.07408,0.27163 -0.02822,0.14464 -0.02822,0.29634 0,0.25753 0.04586,0.45861 0.04586,0.19755 0.127,0.34925 0.08114,0.15169 0.1905,0.26105 0.109362,0.10937 0.232834,0.18698 v -2.26484 h 0.529166 v 2.1202 q 0,0.0247 -0.03528,0.0705 -0.03528,0.0423 -0.09172,0.0988 -0.05292,0.0565 -0.127,0.12347 -0.07055,0.0635 -0.144638,0.127 -0.176389,0.14817 -0.398639,0.32456 -0.172861,-0.13406 -0.296334,-0.26458 -0.123472,-0.13053 -0.211666,-0.254 z" />
        <path
           inkscape:connector-curvature="0"
           id="path20374"
           style="font-style:normal;font-variant:normal;font-weight:normal;font-stretch:normal;font-family:'Bradley Gratis';-inkscape-font-specification:'Bradley Gratis';text-align:start;text-anchor:start;fill:#00a3f2;fill-opacity:1;stroke-width:0.26458332"
           d="m 56.650514,144.81174 v -0.87841 h -0.416278 q -0.0035,0.23636 -0.01411,0.46919 -0.0071,0.22931 -0.01764,0.40922 z m 0.719667,-1.03011 q -0.03881,0.0282 -0.07408,0.0706 -0.03175,0.0423 -0.05645,0.0917 -0.02117,0.0459 -0.03528,0.0917 -0.01411,0.0423 -0.01411,0.0741 v 2.39889 h -0.53975 v -1.32998 h -0.472722 q -0.0035,0.127 -0.03528,0.2787 -0.03175,0.14816 -0.08819,0.29986 -0.05292,0.14817 -0.127,0.28928 -0.07056,0.13758 -0.162278,0.24341 -0.08819,0.10584 -0.1905,0.16934 -0.09878,0.0635 -0.208139,0.0635 -0.07055,0 -0.123472,-0.0423 -0.04939,-0.0423 -0.04939,-0.11994 0,-0.0494 0.03175,-0.0706 0.03175,-0.0247 0.06703,-0.0247 0.03175,0 0.04939,0.0106 0.01764,0.007 0.03175,0.0212 0.01764,0.0106 0.03881,0.0212 0.02117,0.007 0.05997,0.007 0.0635,0 0.102305,-0.0635 0.03881,-0.067 0.0635,-0.17639 0.0247,-0.11289 0.03528,-0.25753 0.01411,-0.14816 0.02117,-0.31044 0.0071,-0.16228 0.01764,-0.32808 0.01058,-0.16934 0.02822,-0.32456 0.02117,-0.18344 0.0635,-0.33514 0.04586,-0.15169 0.09525,-0.26811 0.04939,-0.11642 0.09878,-0.19755 0.04939,-0.0811 0.08467,-0.13053 h -0.07761 q -0.06703,0 -0.123472,0.0212 -0.05644,0.0176 -0.102306,0.0423 -0.04233,0.0212 -0.07761,0.0423 -0.03175,0.0176 -0.05644,0.0176 -0.05997,0 -0.08819,-0.0423 -0.02822,-0.0423 -0.02822,-0.0952 0,-0.0494 0.05292,-0.0917 0.05644,-0.0459 0.155222,-0.0459 z" />
        <path
           inkscape:connector-curvature="0"
           id="path20376"
           style="font-style:normal;font-variant:normal;font-weight:normal;font-stretch:normal;font-family:'Bradley Gratis';-inkscape-font-specification:'Bradley Gratis';text-align:start;text-anchor:start;fill:#00a3f2;fill-opacity:1;stroke-width:0.26458332"
           d="m 58.150372,146.63208 q -0.08114,-0.0811 -0.186973,-0.15875 -0.102305,-0.0776 -0.201083,-0.13759 -0.09525,-0.06 -0.169333,-0.1023 -0.07056,-0.0423 -0.08114,-0.0529 0.03528,-0.0423 0.08819,-0.11641 0.05292,-0.0776 0.102306,-0.1517 0.05292,-0.0741 0.09172,-0.13053 0.04233,-0.06 0.05292,-0.0705 0.04939,0.0317 0.134055,0.0882 0.08819,0.0529 0.172861,0.11289 0.08819,0.06 0.15875,0.10936 0.07056,0.0494 0.09172,0.0706 0.04939,-0.0282 0.08114,-0.0741 0.03528,-0.0459 0.03528,-0.14816 0,-0.0882 -0.07408,-0.18697 -0.07056,-0.0988 -0.176389,-0.20814 -0.105833,-0.10936 -0.232833,-0.22931 -0.127,-0.11994 -0.232834,-0.24694 -0.105833,-0.127 -0.179916,-0.25753 -0.07056,-0.13053 -0.07056,-0.26811 0,-0.0988 0.04939,-0.18345 0.05292,-0.0882 0.130528,-0.16227 0.07761,-0.0776 0.169333,-0.13759 0.09525,-0.0635 0.179917,-0.11641 0.08819,-0.0564 0.155222,-0.0988 0.06703,-0.0459 0.09525,-0.0811 0.02117,0.0176 0.09172,0.0882 0.07408,0.067 0.15875,0.14464 0.08467,0.0776 0.15875,0.13759 0.07761,0.06 0.102306,0.06 -0.03528,0.0282 -0.08819,0.0847 -0.04939,0.0529 -0.102305,0.11289 -0.04939,0.06 -0.09172,0.11642 -0.03881,0.0529 -0.05644,0.0811 -0.08114,-0.0353 -0.162278,-0.10583 -0.08114,-0.0706 -0.148166,-0.13759 -0.06703,-0.067 -0.112889,-0.11641 -0.04586,-0.0529 -0.05997,-0.0529 -0.02822,0 -0.04939,0.0317 -0.01764,0.0282 -0.01764,0.067 0,0.0847 0.07408,0.17991 0.07761,0.0952 0.186972,0.20461 0.112889,0.10584 0.243417,0.22578 0.134056,0.11642 0.243417,0.24342 0.112889,0.127 0.186972,0.26458 0.07761,0.13406 0.07761,0.27517 0,0.127 -0.09525,0.26811 -0.09525,0.14111 -0.229306,0.28222 -0.130527,0.13759 -0.268111,0.26459 -0.137583,0.12347 -0.225777,0.21872 z" />
        <path
           inkscape:connector-curvature="0"
           id="path20378"
           style="font-style:normal;font-variant:normal;font-weight:normal;font-stretch:normal;font-family:'Bradley Gratis';-inkscape-font-specification:'Bradley Gratis';text-align:start;text-anchor:start;fill:#00a3f2;fill-opacity:1;stroke-width:0.26458332"
           d="m 60.635359,146.03236 q 0,0.13758 -0.05644,0.23988 -0.05644,0.0988 -0.148167,0.16228 -0.08819,0.0635 -0.197555,0.0953 -0.109361,0.0317 -0.215195,0.0317 -0.165805,0 -0.324555,-0.0811 -0.15875,-0.0811 -0.28575,-0.21872 -0.127,-0.14111 -0.204611,-0.32808 -0.07761,-0.1905 -0.07761,-0.40922 0,-0.39159 0.179916,-0.72673 0.179917,-0.33866 0.500945,-0.61383 -0.02822,-0.004 -0.05292,-0.004 -0.02117,-0.004 -0.04586,-0.004 -0.08467,0 -0.179917,0.0282 -0.09525,0.0282 -0.179916,0.0741 -0.08467,0.0423 -0.155223,0.0952 -0.06703,0.0529 -0.102305,0.0988 0.02822,-0.13759 0.105833,-0.27164 0.07761,-0.13406 0.194028,-0.23636 0.116417,-0.10231 0.268111,-0.16581 0.151694,-0.0635 0.331611,-0.0635 0.09172,0 0.194028,0.0282 0.102305,0.0282 0.194028,0.0741 0.09525,0.0423 0.169333,0.0953 0.07408,0.0529 0.112889,0.1023 l -0.289278,0.44098 q -0.176389,-0.17287 -0.381,-0.24695 -0.04586,0.0741 -0.09525,0.17639 -0.04939,0.0988 -0.09172,0.22578 -0.03881,0.127 -0.06703,0.28222 -0.02469,0.15169 -0.02469,0.33161 0,0.16933 0.02469,0.29986 0.02822,0.13053 0.07056,0.22578 0.04233,0.0952 0.09525,0.15875 0.05644,0.0635 0.112889,0.10583 0.134055,0.0953 0.306916,0.10584 0.07056,0 0.162278,-0.0282 0.09525,-0.0318 0.151694,-0.0811 z" />
        <path
           inkscape:connector-curvature="0"
           id="path20380"
           style="font-style:normal;font-variant:normal;font-weight:normal;font-stretch:normal;font-family:'Bradley Gratis';-inkscape-font-specification:'Bradley Gratis';text-align:start;text-anchor:start;fill:#00a3f2;fill-opacity:1;stroke-width:0.26458332"
           d="m 62.403604,143.78163 v 0.381 q -0.03881,-0.0353 -0.102306,-0.0776 -0.05997,-0.0423 -0.130528,-0.0741 -0.06703,-0.0353 -0.134055,-0.0565 -0.06703,-0.0247 -0.112889,-0.0247 -0.08467,0 -0.172861,0.067 -0.08819,0.067 -0.144639,0.17991 -0.05644,0.10937 -0.07408,0.28928 -0.01411,0.17639 -0.01411,0.45509 h 0.903111 l -0.179917,0.40216 q -0.03528,-0.0529 -0.08467,-0.0705 -0.04586,-0.0212 -0.08467,-0.0212 h -0.553861 q 0,0.20108 0.0071,0.39511 0.0071,0.1905 0.04586,0.3422 0.04233,0.15169 0.127,0.24694 0.08467,0.0917 0.243417,0.0917 0.08467,0 0.165805,-0.0318 0.08467,-0.0317 0.155223,-0.0776 0.07055,-0.0494 0.123472,-0.1023 0.05644,-0.0529 0.08819,-0.0952 v 0.508 h -0.47625 q -0.342194,0 -0.553861,-0.11995 -0.211666,-0.12347 -0.331611,-0.32808 -0.116417,-0.20814 -0.15875,-0.47978 -0.03881,-0.27164 -0.03881,-0.56797 0,-0.0741 0.01058,-0.19403 0.01058,-0.12347 0.04586,-0.25753 0.03528,-0.13758 0.102306,-0.27516 0.06703,-0.14112 0.179916,-0.25048 0.116417,-0.11289 0.28575,-0.18344 0.169334,-0.0706 0.409222,-0.0706 z" />
        <path
           inkscape:connector-curvature="0"
           id="path20382"
           style="font-style:normal;font-variant:normal;font-weight:normal;font-stretch:normal;font-family:'Bradley Gratis';-inkscape-font-specification:'Bradley Gratis';text-align:start;text-anchor:start;fill:#00a3f2;fill-opacity:1;stroke-width:0.26458332"
           d="m 63.682533,144.47661 q -0.08819,-0.21167 -0.151694,-0.35278 -0.0635,-0.14111 -0.09878,-0.14111 -0.03881,0 -0.05292,0.0353 -0.01058,0.0318 -0.01058,0.0565 v 1.91205 q 0,0.0776 -0.04233,0.16228 -0.04233,0.0847 -0.112888,0.14817 0.130527,0 0.232833,-0.0635 0.102305,-0.067 0.211667,-0.14464 0.112888,-0.0811 0.250472,-0.14464 0.137583,-0.067 0.342194,-0.067 v 0.63148 H 62.65595 q 0.04586,-0.067 0.07761,-0.127 0.03528,-0.06 0.05644,-0.11995 0.02117,-0.06 0.03175,-0.127 0.01058,-0.067 0.01058,-0.14817 v -1.66863 q 0,-0.11289 -0.04233,-0.18345 -0.04233,-0.0741 -0.05997,-0.1023 0.01411,-0.004 0.07056,-0.0247 0.05997,-0.0247 0.144639,-0.0564 0.08467,-0.0318 0.186972,-0.067 0.102305,-0.0353 0.201083,-0.0635 0.09878,-0.0317 0.186972,-0.0494 0.08819,-0.0212 0.144639,-0.0212 0.0882,0 0.165806,0.0494 0.07761,0.0494 0.141111,0.12347 0.0635,0.0741 0.109361,0.16581 0.04586,0.0882 0.07408,0.16581 z" />
        <path
           inkscape:connector-curvature="0"
           id="path20384"
           style="font-style:normal;font-variant:normal;font-weight:normal;font-stretch:normal;font-family:'Bradley Gratis';-inkscape-font-specification:'Bradley Gratis';text-align:start;text-anchor:start;fill:#00a3f2;fill-opacity:1;stroke-width:0.26458332"
           d="m 65.8627,144.81174 v -0.87841 h -0.416278 q -0.0035,0.23636 -0.01411,0.46919 -0.0071,0.22931 -0.01764,0.40922 z m 0.719667,-1.03011 q -0.03881,0.0282 -0.07408,0.0706 -0.03175,0.0423 -0.05644,0.0917 -0.02117,0.0459 -0.03528,0.0917 -0.01411,0.0423 -0.01411,0.0741 v 2.39889 H 65.8627 v -1.32998 h -0.472722 q -0.0035,0.127 -0.03528,0.2787 -0.03175,0.14816 -0.08819,0.29986 -0.05292,0.14817 -0.127,0.28928 -0.07056,0.13758 -0.162278,0.24341 -0.08819,0.10584 -0.1905,0.16934 -0.09878,0.0635 -0.208139,0.0635 -0.07056,0 -0.123472,-0.0423 -0.04939,-0.0423 -0.04939,-0.11994 0,-0.0494 0.03175,-0.0706 0.03175,-0.0247 0.06703,-0.0247 0.03175,0 0.04939,0.0106 0.01764,0.007 0.03175,0.0212 0.01764,0.0106 0.0388,0.0212 0.02117,0.007 0.05997,0.007 0.0635,0 0.102306,-0.0635 0.0388,-0.067 0.0635,-0.17639 0.02469,-0.11289 0.03528,-0.25753 0.01411,-0.14816 0.02117,-0.31044 0.0071,-0.16228 0.01764,-0.32808 0.01058,-0.16934 0.02822,-0.32456 0.02117,-0.18344 0.0635,-0.33514 0.04586,-0.15169 0.09525,-0.26811 0.04939,-0.11642 0.09878,-0.19755 0.04939,-0.0811 0.08467,-0.13053 h -0.07761 q -0.06703,0 -0.123472,0.0212 -0.05644,0.0176 -0.102306,0.0423 -0.04233,0.0212 -0.07761,0.0423 -0.03175,0.0176 -0.05645,0.0176 -0.05997,0 -0.08819,-0.0423 -0.02822,-0.0423 -0.02822,-0.0952 0,-0.0494 0.05292,-0.0917 0.05644,-0.0459 0.155223,-0.0459 z" />
        <path
           inkscape:connector-curvature="0"
           id="path20386"
           style="font-style:normal;font-variant:normal;font-weight:normal;font-stretch:normal;font-family:'Bradley Gratis';-inkscape-font-specification:'Bradley Gratis';text-align:start;text-anchor:start;fill:#00a3f2;fill-opacity:1;stroke-width:0.26458332"
           d="m 66.882779,146.50861 v -2.4377 q 0,-0.0988 -0.04233,-0.1658 -0.04233,-0.0706 -0.08467,-0.12348 h 0.684389 v 0.35984 l 0.391583,-0.45509 q 0.179917,0.16228 0.296333,0.32456 0.116417,0.15875 0.183445,0.32103 0.06703,0.15875 0.09172,0.32455 0.02469,0.16228 0.02469,0.33514 0,0.16933 -0.02822,0.32456 -0.02469,0.15169 -0.07408,0.29986 -0.04939,0.14816 -0.119945,0.29986 -0.06703,0.15169 -0.148166,0.3175 h 0.127 q 0.04586,0 0.09525,-0.0317 0.04939,-0.0318 0.09878,-0.0318 v 0.33867 H 67.69417 q 0.09525,-0.19403 0.151694,-0.34925 0.05997,-0.15523 0.09172,-0.29634 0.03175,-0.14111 0.04233,-0.27516 0.01058,-0.13406 0.01058,-0.28575 0,-0.1517 -0.05292,-0.31398 -0.04939,-0.1658 -0.123472,-0.30339 -0.07408,-0.13758 -0.15875,-0.22577 -0.08114,-0.0882 -0.148167,-0.0882 -0.04233,0 -0.06703,0.0212 v 2.11667 z" />
        <path
           inkscape:connector-curvature="0"
           id="path20388"
           style="font-style:normal;font-variant:normal;font-weight:normal;font-stretch:normal;font-family:'Bradley Gratis';-inkscape-font-specification:'Bradley Gratis';text-align:start;text-anchor:start;fill:#00a3f2;fill-opacity:1;stroke-width:0.26458332"
           d="m 68.771683,144.02858 q -0.09172,-0.0388 -0.127,-0.0952 -0.03528,-0.0565 -0.03528,-0.10584 0,-0.0423 0.02822,-0.0529 0.02822,0.0176 0.07761,0.0247 0.04939,0.007 0.112888,0.007 0.03175,0 0.08819,-0.0106 0.05997,-0.0106 0.130528,-0.0212 0.07055,-0.0106 0.144639,-0.0212 0.07761,-0.0106 0.144638,-0.0106 0.162278,0 0.331612,0.0847 0.169333,0.0811 0.303388,0.254 0.134056,0.16934 0.218723,0.43392 0.08819,0.26106 0.08819,0.62442 0,0.30691 -0.05292,0.52916 -0.05292,0.22225 -0.134055,0.37748 -0.08114,0.15522 -0.179917,0.25047 -0.09878,0.0917 -0.194028,0.14464 -0.09172,0.0494 -0.169333,0.067 -0.07408,0.0176 -0.109361,0.0176 -0.05292,0 -0.112889,-0.0141 -0.05997,-0.0141 -0.119944,-0.0318 -0.05645,-0.0176 -0.109361,-0.0317 -0.04939,-0.0141 -0.08467,-0.0141 -0.03881,0 -0.07056,0.0141 -0.03175,0.0106 -0.06703,0.0247 -0.03175,0.0106 -0.07056,0.0247 -0.03881,0.0106 -0.08819,0.0106 -0.01764,0 -0.03881,-0.004 -0.01764,-0.004 -0.03528,-0.0106 -0.01764,-0.007 -0.03528,-0.0176 0.02822,-0.0176 0.05644,-0.06 0.02822,-0.0459 0.05292,-0.0952 0.02822,-0.0529 0.05644,-0.11641 z m 0.518583,2.10255 q 0,0.0741 0.02469,0.11642 0.02822,0.0388 0.05997,0.0564 0.03881,0.0212 0.08467,0.0247 0.08114,0 0.141111,-0.10936 0.0635,-0.10936 0.0635,-0.2787 v -1.54869 q 0,-0.16581 -0.03175,-0.25753 -0.03175,-0.0917 -0.07408,-0.13405 -0.04233,-0.0423 -0.08467,-0.0494 -0.04233,-0.0106 -0.06703,-0.0106 -0.04233,0 -0.08114,0.0564 -0.03528,0.0564 -0.03528,0.14816 z" />
      </g>
    </g>
    <g
       style="font-style:normal;font-variant:normal;font-weight:normal;font-stretch:normal;font-size:3.52778px;line-height:1.25;font-family:Quarca;-inkscape-font-specification:Quarca;letter-spacing:0px;word-spacing:0px;fill:#dddddd;fill-opacity:1;stroke:none;stroke-width:0.264583"
       id="text5443-0-6-4"
       aria-label="TRACKS">
      <path
         id="path18945"
         style="font-style:normal;font-variant:normal;font-weight:normal;font-stretch:normal;font-size:2.11667px;font-family:Quarca;-inkscape-font-specification:Quarca;stroke-width:0.264583;fill:#dddddd;fill-opacity:1"
         d="m 49.492977,136.56483 v -0.1143 h -0.891118 v 0.1143 h 0.385233 v 1.38854 h 0.122767 v -1.38854 z" />
      <path
         id="path18947"
         style="font-style:normal;font-variant:normal;font-weight:normal;font-stretch:normal;font-size:2.11667px;font-family:Quarca;-inkscape-font-specification:Quarca;stroke-width:0.264583;fill:#dddddd;fill-opacity:1"
         d="m 49.658837,137.95337 h 0.120651 v -0.60325 h 0.277283 l 0.421218,0.60325 h 0.141817 l -0.423334,-0.60325 h 0.02963 c 0.201084,0 0.29845,-0.0952 0.29845,-0.28575 v -0.32809 c 0,-0.1905 -0.09737,-0.28575 -0.29845,-0.28575 h -0.567268 z m 0.120651,-1.38854 h 0.42545 c 0.135467,0 0.196851,0.0635 0.196851,0.20744 v 0.25611 c 0,0.14605 -0.06138,0.20955 -0.196851,0.20955 h -0.42545 z" />
      <path
         id="path18949"
         style="font-style:normal;font-variant:normal;font-weight:normal;font-stretch:normal;font-size:2.11667px;font-family:Quarca;-inkscape-font-specification:Quarca;stroke-width:0.264583;fill:#dddddd;fill-opacity:1"
         d="m 51.143152,136.45053 -0.463551,1.50284 h 0.129117 l 0.09737,-0.32597 h 0.605368 l 0.09737,0.32597 h 0.129116 l -0.461434,-1.50284 z m 0.06773,0.16087 0.2667,0.9017 h -0.537634 z" />
      <path
         id="path18951"
         style="font-style:normal;font-variant:normal;font-weight:normal;font-stretch:normal;font-size:2.11667px;font-family:Quarca;-inkscape-font-specification:Quarca;stroke-width:0.264583;fill:#dddddd;fill-opacity:1"
         d="m 52.214419,137.83907 c -0.133351,0 -0.182034,-0.0635 -0.182034,-0.19685 v -0.88054 c 0,-0.13335 0.04868,-0.19685 0.182034,-0.19685 h 0.3429 c 0.13335,0 0.182034,0.0635 0.182034,0.19685 v 0.13759 h 0.12065 v -0.15664 c 0,-0.19473 -0.07408,-0.2921 -0.289984,-0.2921 h -0.3683 c -0.215901,0 -0.289984,0.0974 -0.289984,0.2921 v 0.91864 c 0,0.19473 0.07408,0.2921 0.289984,0.2921 h 0.3683 c 0.215901,0 0.289984,-0.0974 0.289984,-0.2921 v -0.16087 h -0.12065 v 0.14182 c 0,0.13335 -0.04868,0.19685 -0.182034,0.19685 z" />
      <path
         id="path18953"
         style="font-style:normal;font-variant:normal;font-weight:normal;font-stretch:normal;font-size:2.11667px;font-family:Quarca;-inkscape-font-specification:Quarca;stroke-width:0.264583;fill:#dddddd;fill-opacity:1"
         d="m 53.214942,137.95337 v -0.71967 l 0.622301,0.71967 h 0.141817 l -0.649818,-0.75142 0.637118,-0.75142 h -0.13335 l -0.618068,0.71967 v -0.71967 h -0.12065 v 1.50284 z" />
      <path
         id="path18955"
         style="font-style:normal;font-variant:normal;font-weight:normal;font-stretch:normal;font-size:2.11667px;font-family:Quarca;-inkscape-font-specification:Quarca;stroke-width:0.264583;fill:#dddddd;fill-opacity:1"
         d="m 54.71877,137.32895 c 0.105834,0.0445 0.13335,0.0804 0.13335,0.18415 v 0.14605 c 0,0.127 -0.05292,0.17992 -0.173567,0.17992 h -0.319617 c -0.12065,0 -0.175683,-0.0529 -0.175683,-0.17992 v -0.15875 h -0.12065 v 0.18839 c 0,0.17568 0.08255,0.26458 0.277283,0.26458 h 0.372534 c 0.175684,0 0.262467,-0.0889 0.262467,-0.26458 v -0.20744 c 0,-0.15028 -0.05715,-0.2032 -0.211667,-0.27093 l -0.433917,-0.18415 c -0.09948,-0.0423 -0.124884,-0.0825 -0.124884,-0.17569 v -0.0931 c 0,-0.14393 0.04657,-0.19262 0.182034,-0.19262 h 0.264584 c 0.12065,0 0.179917,0.055 0.179917,0.18627 v 0.14182 h 0.122767 v -0.17145 c 0,-0.1905 -0.09102,-0.27094 -0.285751,-0.27094 h -0.313267 c -0.186267,0 -0.270934,0.0826 -0.270934,0.27094 v 0.14816 c 0,0.1524 0.0508,0.20744 0.209551,0.27729 z" />
    </g>
    <g
       style="font-style:normal;font-variant:normal;font-weight:normal;font-stretch:normal;font-size:3.52778px;line-height:1.25;font-family:Quarca;-inkscape-font-specification:Quarca;letter-spacing:0px;word-spacing:0px;fill:#dddddd;fill-opacity:1;stroke:none;stroke-width:0.264583"
       id="text5443-0-6-2-2"
       aria-label="1">
      <path
         id="path18942"
         style="font-style:normal;font-variant:normal;font-weight:normal;font-stretch:normal;font-size:2.11667px;font-family:Quarca;-inkscape-font-specification:Quarca;stroke-width:0.264583;fill:#dddddd;fill-opacity:1"
         d="m 36.568708,64.66169 h 0.12065 v -1.502836 h -0.10795 l -0.19685,0.1397 v 0.127001 l 0.18415,-0.133351 z" />
    </g>
    <g
       style="font-style:normal;font-variant:normal;font-weight:normal;font-stretch:normal;font-size:3.52778px;line-height:1.25;font-family:Quarca;-inkscape-font-specification:Quarca;letter-spacing:0px;word-spacing:0px;fill:#dddddd;fill-opacity:1;stroke:none;stroke-width:0.264583"
       id="text5443-0-6-2-2-9"
       aria-label="2">
      <path
         id="path18939"
         style="font-style:normal;font-variant:normal;font-weight:normal;font-stretch:normal;font-size:2.11667px;font-family:Quarca;-inkscape-font-specification:Quarca;stroke-width:0.264583;fill:#dddddd;fill-opacity:1"
         d="m 36.786729,76.733036 h -0.484718 v -0.215901 c 0,-0.105833 0.04657,-0.173567 0.135467,-0.213783 l 0.444501,-0.198967 c 0.1143,-0.0508 0.1905,-0.122767 0.1905,-0.273051 v -0.194733 c 0,-0.194734 -0.07408,-0.292101 -0.2921,-0.292101 h -0.302684 c -0.2159,0 -0.2921,0.09737 -0.2921,0.292101 v 0.150283 h 0.122766 v -0.131233 c 0,-0.133351 0.04657,-0.196851 0.182034,-0.196851 h 0.2794 c 0.133351,0 0.179917,0.0635 0.179917,0.196851 v 0.156633 c 0,0.0889 -0.02328,0.148167 -0.110066,0.186267 l -0.446618,0.198967 c -0.122767,0.05503 -0.213783,0.137584 -0.213783,0.304801 v 0.345017 h 0.618067 c 0.218017,0 0.292101,-0.09737 0.292101,-0.292101 v -0.160867 h -0.122767 v 0.141817 c 0,0.133351 -0.04657,0.196851 -0.179917,0.196851 z" />
    </g>
    <g
       style="font-style:normal;font-variant:normal;font-weight:normal;font-stretch:normal;font-size:3.52778px;line-height:1.25;font-family:Quarca;-inkscape-font-specification:Quarca;letter-spacing:0px;word-spacing:0px;fill:#dddddd;fill-opacity:1;stroke:none;stroke-width:0.264583"
       id="text5443-0-6-2-2-3"
       aria-label="7">
      <path
         id="path18936"
         style="font-style:normal;font-variant:normal;font-weight:normal;font-stretch:normal;font-size:2.11667px;font-family:Quarca;-inkscape-font-specification:Quarca;stroke-width:0.264583;fill:#dddddd;fill-opacity:1"
         d="m 52.522024,63.273154 h 0.738718 v 0.201084 c 0,0.07408 -0.0127,0.156634 -0.05503,0.224367 l -0.601134,0.963085 h 0.143933 l 0.567268,-0.912285 c 0.04445,-0.07197 0.06562,-0.154517 0.06562,-0.256117 v -0.334434 h -0.859368 z" />
    </g>
    <g
       style="font-style:normal;font-variant:normal;font-weight:normal;font-stretch:normal;font-size:3.52778px;line-height:1.25;font-family:Quarca;-inkscape-font-specification:Quarca;letter-spacing:0px;word-spacing:0px;fill:#dddddd;fill-opacity:1;stroke:none;stroke-width:0.264583"
       id="text5443-0-6-2-2-3-9"
       aria-label="13">
      <path
         id="path18931"
         style="font-style:normal;font-variant:normal;font-weight:normal;font-stretch:normal;font-size:2.11667px;font-family:Quarca;-inkscape-font-specification:Quarca;stroke-width:0.264583;fill:#dddddd;fill-opacity:1"
         d="m 68.318715,64.66169 h 0.120651 v -1.502836 h -0.107951 l -0.19685,0.1397 v 0.127001 l 0.18415,-0.133351 z" />
      <path
         id="path18933"
         style="font-style:normal;font-variant:normal;font-weight:normal;font-stretch:normal;font-size:2.11667px;font-family:Quarca;-inkscape-font-specification:Quarca;stroke-width:0.264583;fill:#dddddd;fill-opacity:1"
         d="m 69.330682,64.54739 h -0.3302 c -0.133351,0 -0.179917,-0.0635 -0.179917,-0.196851 v -0.135467 h -0.122767 v 0.154517 c 0,0.194734 0.0762,0.292101 0.2921,0.292101 h 0.353484 c 0.213784,0 0.289984,-0.09737 0.289984,-0.292101 v -0.27305 c 0,-0.150284 -0.09737,-0.19685 -0.1905,-0.205317 0.06773,-0.0127 0.127,-0.06562 0.127,-0.175684 v -0.270933 c 0,-0.190501 -0.07408,-0.285751 -0.285751,-0.285751 h -0.251883 c -0.215901,0 -0.292101,0.09737 -0.292101,0.292101 v 0.150283 h 0.122767 v -0.131233 c 0,-0.133351 0.04657,-0.196851 0.179917,-0.196851 h 0.224367 c 0.131234,0 0.179917,0.0635 0.179917,0.196851 v 0.2159 c 0,0.09313 -0.04657,0.1524 -0.1524,0.1524 h -0.311151 v 0.1143 h 0.345017 c 0.09313,0 0.182034,0.04657 0.182034,0.165101 v 0.232833 c 0,0.13335 -0.04657,0.196851 -0.179917,0.196851 z" />
    </g>
    <g
       style="font-style:normal;font-variant:normal;font-weight:normal;font-stretch:normal;font-size:3.52778px;line-height:1.25;font-family:Quarca;-inkscape-font-specification:Quarca;letter-spacing:0px;word-spacing:0px;fill:#dddddd;fill-opacity:1;stroke:none;stroke-width:0.264583"
       id="text5443-0-6-2-2-9-1"
       aria-label="3">
      <path
         id="path18928"
         style="font-style:normal;font-variant:normal;font-weight:normal;font-stretch:normal;font-size:2.11667px;font-family:Quarca;-inkscape-font-specification:Quarca;stroke-width:0.264583;fill:#dddddd;fill-opacity:1"
         d="m 36.795195,88.903873 h -0.3302 c -0.13335,0 -0.179917,-0.0635 -0.179917,-0.19685 v -0.135467 h -0.122767 v 0.154517 c 0,0.194733 0.0762,0.2921 0.292101,0.2921 h 0.353483 c 0.213784,0 0.289984,-0.09737 0.289984,-0.2921 v -0.273051 c 0,-0.150283 -0.09737,-0.19685 -0.1905,-0.205317 0.06773,-0.0127 0.127,-0.06562 0.127,-0.175683 v -0.270934 c 0,-0.1905 -0.07408,-0.28575 -0.28575,-0.28575 h -0.251884 c -0.2159,0 -0.2921,0.09737 -0.2921,0.2921 v 0.150284 h 0.122766 v -0.131234 c 0,-0.13335 0.04657,-0.19685 0.179917,-0.19685 h 0.224367 c 0.131234,0 0.179917,0.0635 0.179917,0.19685 v 0.2159 c 0,0.09313 -0.04657,0.152401 -0.1524,0.152401 h -0.31115 v 0.1143 h 0.345017 c 0.09313,0 0.182033,0.04657 0.182033,0.1651 v 0.232834 c 0,0.13335 -0.04657,0.19685 -0.179917,0.19685 z" />
    </g>
    <g
       style="font-style:normal;font-variant:normal;font-weight:normal;font-stretch:normal;font-size:3.52778px;line-height:1.25;font-family:Quarca;-inkscape-font-specification:Quarca;letter-spacing:0px;word-spacing:0px;fill:#dddddd;fill-opacity:1;stroke:none;stroke-width:0.264583"
       id="text5443-0-6-2-2-9-5"
       aria-label="4">
      <path
         id="path18925"
         style="font-style:normal;font-variant:normal;font-weight:normal;font-stretch:normal;font-size:2.11667px;font-family:Quarca;-inkscape-font-specification:Quarca;stroke-width:0.264583;fill:#dddddd;fill-opacity:1"
         d="m 36.145378,100.90537 h 0.687918 v 0.28363 h 0.12065 v -0.28363 h 0.2159 l 0.01693,-0.1143 h -0.232833 v -0.42757 h -0.02752 l -0.09313,0.0233 v 0.40428 h -0.567268 v -0.23495 c 0,-0.0635 0.01905,-0.127 0.07197,-0.18838 l 0.590551,-0.681573 h -0.148167 l -0.550334,0.630763 c -0.0508,0.0572 -0.08467,0.13547 -0.08467,0.22649 z" />
    </g>
    <g
       style="font-style:normal;font-variant:normal;font-weight:normal;font-stretch:normal;font-size:3.52778px;line-height:1.25;font-family:Quarca;-inkscape-font-specification:Quarca;letter-spacing:0px;word-spacing:0px;fill:#dddddd;fill-opacity:1;stroke:none;stroke-width:0.264583"
       id="text5443-0-6-2-2-9-3"
       aria-label="5">
      <path
         id="path18922"
         style="font-style:normal;font-variant:normal;font-weight:normal;font-stretch:normal;font-size:2.11667px;font-family:Quarca;-inkscape-font-specification:Quarca;stroke-width:0.264583;fill:#dddddd;fill-opacity:1"
         d="m 36.752862,113.23072 h -0.2794 c -0.133351,0 -0.182034,-0.0635 -0.182034,-0.19685 v -0.14182 h -0.12065 v 0.16087 c 0,0.19473 0.07408,0.2921 0.289984,0.2921 h 0.3048 c 0.2159,0 0.289984,-0.0974 0.289984,-0.2921 v -0.34079 c 0,-0.19261 -0.09102,-0.28575 -0.285751,-0.28575 h -0.433917 v -0.4699 h 0.683684 l 0.01693,-0.1143 h -0.823385 v 0.6985 h 0.533401 c 0.131234,0 0.188384,0.0656 0.188384,0.20955 v 0.28364 c 0,0.13335 -0.04868,0.19685 -0.182034,0.19685 z" />
    </g>
    <g
       style="font-style:normal;font-variant:normal;font-weight:normal;font-stretch:normal;font-size:3.52778px;line-height:1.25;font-family:Quarca;-inkscape-font-specification:Quarca;letter-spacing:0px;word-spacing:0px;fill:#dddddd;fill-opacity:1;stroke:none;stroke-width:0.264583"
       id="text5443-0-6-2-2-9-0"
       aria-label="6">
      <path
         id="path18919"
         style="font-style:normal;font-variant:normal;font-weight:normal;font-stretch:normal;font-size:2.11667px;font-family:Quarca;-inkscape-font-specification:Quarca;stroke-width:0.264583;fill:#dddddd;fill-opacity:1"
         d="m 37.129629,124.8999 c 0,-0.1778 -0.08043,-0.26459 -0.256117,-0.26459 h -0.518584 v -0.31538 c 0,-0.13547 0.05292,-0.19262 0.1778,-0.19262 h 0.292101 c 0.135467,0 0.18415,0.0593 0.18415,0.19473 v 0.13335 h 0.12065 v -0.15663 c 0,-0.2159 -0.09525,-0.28575 -0.28575,-0.28575 h -0.323851 c -0.2159,0 -0.287867,0.0953 -0.287867,0.28575 v 0.9398 c 0,0.1778 0.07197,0.27729 0.287867,0.27729 h 0.338668 c 0.1905,0 0.270933,-0.0931 0.270933,-0.27729 z m -0.12065,0.0339 v 0.27517 c 0,0.13547 -0.05292,0.19262 -0.1778,0.19262 h -0.302684 c -0.122767,0 -0.173567,-0.0656 -0.173567,-0.1905 v -0.46355 h 0.484718 c 0.116416,0 0.169333,0.0635 0.169333,0.18626 z" />
    </g>
    <g
       style="font-style:normal;font-variant:normal;font-weight:normal;font-stretch:normal;font-size:3.52778px;line-height:1.25;font-family:Quarca;-inkscape-font-specification:Quarca;letter-spacing:0px;word-spacing:0px;fill:#dddddd;fill-opacity:1;stroke:none;stroke-width:0.264583"
       id="text5443-0-6-2-2-3-0"
       aria-label="8">
      <path
         id="path18916"
         style="font-style:normal;font-variant:normal;font-weight:normal;font-stretch:normal;font-size:2.11667px;font-family:Quarca;-inkscape-font-specification:Quarca;stroke-width:0.264583;fill:#dddddd;fill-opacity:1"
         d="m 52.792958,76.043006 c -0.08255,0.01693 -0.175683,0.05927 -0.175683,0.224367 v 0.275167 c 0,0.194734 0.07408,0.292101 0.289983,0.292101 h 0.359834 c 0.215901,0 0.289984,-0.09737 0.289984,-0.292101 v -0.275167 c 0,-0.1651 -0.0889,-0.207434 -0.160867,-0.224367 0.07408,-0.02328 0.09737,-0.08043 0.09737,-0.188384 v -0.230717 c 0,-0.194733 -0.07408,-0.2921 -0.289984,-0.2921 h -0.232834 c -0.2159,0 -0.289983,0.09737 -0.289983,0.2921 v 0.230717 c 0,0.107951 0.02752,0.165101 0.112183,0.188384 z m 0.459318,0.06138 c 0.09737,0 0.18415,0.03387 0.18415,0.165101 v 0.254 c 0,0.13335 -0.04868,0.19685 -0.182034,0.19685 h -0.334434 c -0.13335,0 -0.182033,-0.0635 -0.182033,-0.19685 v -0.254 c 0,-0.135467 0.0889,-0.165101 0.18415,-0.165101 z m -0.268818,-0.658284 h 0.207434 c 0.13335,0 0.182034,0.0635 0.182034,0.19685 v 0.194734 c 0,0.127 -0.05927,0.1524 -0.192617,0.1524 h -0.184151 c -0.13335,0 -0.194733,-0.0254 -0.194733,-0.1524 v -0.194734 c 0,-0.13335 0.04868,-0.19685 0.182033,-0.19685 z" />
    </g>
    <g
       style="font-style:normal;font-variant:normal;font-weight:normal;font-stretch:normal;font-size:3.52778px;line-height:1.25;font-family:Quarca;-inkscape-font-specification:Quarca;letter-spacing:0px;word-spacing:0px;fill:#dddddd;fill-opacity:1;stroke:none;stroke-width:0.264583"
       id="text5443-0-6-2-2-3-5"
       aria-label="9">
      <path
         id="path18913"
         style="font-style:normal;font-variant:normal;font-weight:normal;font-stretch:normal;font-size:2.11667px;font-family:Quarca;-inkscape-font-specification:Quarca;stroke-width:0.264583;fill:#dddddd;fill-opacity:1"
         d="m 53.152792,88.903873 h -0.258234 c -0.131233,0 -0.1778,-0.0635 -0.1778,-0.19685 v -0.135467 h -0.122767 v 0.154517 c 0,0.194733 0.0762,0.2921 0.292101,0.2921 h 0.2794 c 0.2159,0 0.289984,-0.09737 0.289984,-0.2921 v -0.918635 c 0,-0.194734 -0.07408,-0.2921 -0.289984,-0.2921 h -0.2794 c -0.215901,0 -0.292101,0.09737 -0.292101,0.2921 v 0.256117 c 0,0.186267 0.06773,0.279401 0.266701,0.279401 h 0.474134 v 0.364067 c 0,0.13335 -0.04657,0.19685 -0.182034,0.19685 z m 0,-1.274235 c 0.135467,0 0.182034,0.0635 0.182034,0.19685 v 0.402167 h -0.440268 c -0.131233,0 -0.1778,-0.0635 -0.1778,-0.198967 v -0.2032 c 0,-0.13335 0.04657,-0.19685 0.179917,-0.19685 z" />
    </g>
    <g
       style="font-style:normal;font-variant:normal;font-weight:normal;font-stretch:normal;font-size:3.52778px;line-height:1.25;font-family:Quarca;-inkscape-font-specification:Quarca;letter-spacing:0px;word-spacing:0px;fill:#dddddd;fill-opacity:1;stroke:none;stroke-width:0.264583"
       id="text5443-0-6-2-2-3-6"
       aria-label="12">
      <path
         id="path18908"
         style="font-style:normal;font-variant:normal;font-weight:normal;font-stretch:normal;font-size:2.11667px;font-family:Quarca;-inkscape-font-specification:Quarca;stroke-width:0.264583;fill:#dddddd;fill-opacity:1"
         d="m 52.179128,125.53067 h 0.12065 v -1.50284 h -0.10795 l -0.19685,0.1397 v 0.127 l 0.18415,-0.13335 z" />
      <path
         id="path18910"
         style="font-style:normal;font-variant:normal;font-weight:normal;font-stretch:normal;font-size:2.11667px;font-family:Quarca;-inkscape-font-specification:Quarca;stroke-width:0.264583;fill:#dddddd;fill-opacity:1"
         d="m 53.182628,125.41637 h -0.484717 v -0.2159 c 0,-0.10583 0.04657,-0.17357 0.135466,-0.21378 l 0.444501,-0.19897 c 0.1143,-0.0508 0.1905,-0.12277 0.1905,-0.27305 v -0.19474 c 0,-0.19473 -0.07408,-0.2921 -0.2921,-0.2921 h -0.302684 c -0.2159,0 -0.2921,0.0974 -0.2921,0.2921 v 0.15029 h 0.122767 v -0.13123 c 0,-0.13336 0.04657,-0.19686 0.182033,-0.19686 h 0.279401 c 0.13335,0 0.179917,0.0635 0.179917,0.19686 v 0.15663 c 0,0.0889 -0.02328,0.14817 -0.110067,0.18627 l -0.446618,0.19896 c -0.122766,0.055 -0.213783,0.13759 -0.213783,0.3048 v 0.34502 h 0.618067 c 0.218017,0 0.292101,-0.0974 0.292101,-0.2921 v -0.16087 h -0.122767 v 0.14182 c 0,0.13335 -0.04657,0.19685 -0.179917,0.19685 z" />
    </g>
    <g
       style="font-style:normal;font-variant:normal;font-weight:normal;font-stretch:normal;font-size:3.52778px;line-height:1.25;font-family:Quarca;-inkscape-font-specification:Quarca;letter-spacing:0px;word-spacing:0px;fill:#dddddd;fill-opacity:1;stroke:none;stroke-width:0.264583"
       id="text5443-0-6-2-2-3-7"
       aria-label="11">
      <path
         id="path18903"
         style="font-style:normal;font-variant:normal;font-weight:normal;font-stretch:normal;font-size:2.11667px;font-family:Quarca;-inkscape-font-specification:Quarca;stroke-width:0.264583;fill:#dddddd;fill-opacity:1"
         d="m 52.179128,113.35984 h 0.12065 V 111.857 h -0.10795 l -0.19685,0.1397 v 0.12701 l 0.18415,-0.13336 z" />
      <path
         id="path18905"
         style="font-style:normal;font-variant:normal;font-weight:normal;font-stretch:normal;font-size:2.11667px;font-family:Quarca;-inkscape-font-specification:Quarca;stroke-width:0.264583;fill:#dddddd;fill-opacity:1"
         d="m 52.700027,113.35984 h 0.12065 V 111.857 h -0.10795 l -0.19685,0.1397 v 0.12701 l 0.18415,-0.13336 z" />
    </g>
    <g
       style="font-style:normal;font-variant:normal;font-weight:normal;font-stretch:normal;font-size:3.52778px;line-height:1.25;font-family:Quarca;-inkscape-font-specification:Quarca;letter-spacing:0px;word-spacing:0px;fill:#dddddd;fill-opacity:1;stroke:none;stroke-width:0.264583"
       id="text5443-0-6-2-2-3-73"
       aria-label="10">
      <path
         id="path18898"
         style="font-style:normal;font-variant:normal;font-weight:normal;font-stretch:normal;font-size:2.11667px;font-family:Quarca;-inkscape-font-specification:Quarca;stroke-width:0.264583;fill:#dddddd;fill-opacity:1"
         d="m 52.179128,101.17419 h 0.12065 v -1.502839 h -0.10795 l -0.19685,0.1397 v 0.127 l 0.18415,-0.13335 z" />
      <path
         id="path18900"
         style="font-style:normal;font-variant:normal;font-weight:normal;font-stretch:normal;font-size:2.11667px;font-family:Quarca;-inkscape-font-specification:Quarca;stroke-width:0.264583;fill:#dddddd;fill-opacity:1"
         d="m 52.62806,100.88209 c 0,0.19473 0.07408,0.2921 0.292101,0.2921 h 0.345017 c 0.2159,0 0.289984,-0.0974 0.289984,-0.2921 v -0.918638 c 0,-0.194734 -0.07408,-0.292101 -0.289984,-0.292101 h -0.345017 c -0.218017,0 -0.292101,0.09737 -0.292101,0.292101 z m 0.302684,-1.096439 h 0.321734 c 0.13335,0 0.182034,0.0635 0.182034,0.196851 v 0.880538 c 0,0.13335 -0.04868,0.19685 -0.182034,0.19685 h -0.321734 c -0.13335,0 -0.179917,-0.0635 -0.179917,-0.19685 v -0.880538 c 0,-0.133351 0.04657,-0.196851 0.179917,-0.196851 z" />
    </g>
    <g
       style="font-style:normal;font-variant:normal;font-weight:normal;font-stretch:normal;font-size:3.52778px;line-height:1.25;font-family:Quarca;-inkscape-font-specification:Quarca;letter-spacing:0px;word-spacing:0px;fill:#dddddd;fill-opacity:1;stroke:none;stroke-width:0.264583"
       id="text5443-0-6-2-2-3-9-2"
       aria-label="14">
      <path
         id="path18893"
         style="font-style:normal;font-variant:normal;font-weight:normal;font-stretch:normal;font-size:2.11667px;font-family:Quarca;-inkscape-font-specification:Quarca;stroke-width:0.264583;fill:#dddddd;fill-opacity:1"
         d="m 68.318715,76.847336 h 0.120651 V 75.3445 h -0.107951 l -0.19685,0.1397 v 0.127001 l 0.18415,-0.133351 z" />
      <path
         id="path18895"
         style="font-style:normal;font-variant:normal;font-weight:normal;font-stretch:normal;font-size:2.11667px;font-family:Quarca;-inkscape-font-specification:Quarca;stroke-width:0.264583;fill:#dddddd;fill-opacity:1"
         d="m 68.680864,76.563702 h 0.687918 v 0.283634 h 0.12065 v -0.283634 h 0.215901 l 0.01693,-0.1143 h -0.232834 v -0.427567 h -0.02752 l -0.09313,0.02328 v 0.404284 h -0.567267 v -0.23495 c 0,-0.0635 0.01905,-0.127001 0.07197,-0.188384 L 69.464032,75.3445 h -0.148167 l -0.550334,0.630768 c -0.0508,0.05715 -0.08467,0.135467 -0.08467,0.226483 z" />
    </g>
    <g
       style="font-style:normal;font-variant:normal;font-weight:normal;font-stretch:normal;font-size:3.52778px;line-height:1.25;font-family:Quarca;-inkscape-font-specification:Quarca;letter-spacing:0px;word-spacing:0px;fill:#dddddd;fill-opacity:1;stroke:none;stroke-width:0.264583"
       id="text5443-0-6-2-2-3-9-5"
       aria-label="15 ">
      <path
         id="path18888"
         style="font-style:normal;font-variant:normal;font-weight:normal;font-stretch:normal;font-size:2.11667px;font-family:Quarca;-inkscape-font-specification:Quarca;stroke-width:0.264583;fill:#dddddd;fill-opacity:1"
         d="m 68.318715,89.003357 h 0.120651 v -1.502836 h -0.107951 l -0.19685,0.139701 v 0.127 l 0.18415,-0.13335 z" />
      <path
         id="path18890"
         style="font-style:normal;font-variant:normal;font-weight:normal;font-stretch:normal;font-size:2.11667px;font-family:Quarca;-inkscape-font-specification:Quarca;stroke-width:0.264583;fill:#dddddd;fill-opacity:1"
         d="m 69.288349,88.889057 h -0.279401 c -0.13335,0 -0.182033,-0.0635 -0.182033,-0.196851 V 88.55039 h -0.120651 v 0.160866 c 0,0.194734 0.07408,0.292101 0.289984,0.292101 h 0.304801 c 0.2159,0 0.289983,-0.09737 0.289983,-0.292101 v -0.340783 c 0,-0.192617 -0.09102,-0.285751 -0.28575,-0.285751 h -0.433917 v -0.469901 h 0.683684 l 0.01693,-0.1143 h -0.823384 v 0.698501 h 0.533401 c 0.131233,0 0.188383,0.06562 0.188383,0.209551 v 0.283633 c 0,0.133351 -0.04868,0.196851 -0.182033,0.196851 z" />
    </g>
    <g
       style="font-style:normal;font-variant:normal;font-weight:normal;font-stretch:normal;font-size:3.52778px;line-height:1.25;font-family:Quarca;-inkscape-font-specification:Quarca;letter-spacing:0px;word-spacing:0px;fill:#dddddd;fill-opacity:1;stroke:none;stroke-width:0.264583"
       id="text5443-0-6-2-2-3-9-24"
       aria-label="16">
      <path
         id="path18883"
         style="font-style:normal;font-variant:normal;font-weight:normal;font-stretch:normal;font-size:2.11667px;font-family:Quarca;-inkscape-font-specification:Quarca;stroke-width:0.264583;fill:#dddddd;fill-opacity:1"
         d="m 68.451085,101.17419 h 0.120651 v -1.502839 h -0.107951 l -0.19685,0.1397 v 0.127 l 0.18415,-0.13335 z" />
      <path
         id="path18885"
         style="font-style:normal;font-variant:normal;font-weight:normal;font-stretch:normal;font-size:2.11667px;font-family:Quarca;-inkscape-font-specification:Quarca;stroke-width:0.264583;fill:#dddddd;fill-opacity:1"
         d="m 69.797486,100.55824 c 0,-0.1778 -0.08043,-0.26459 -0.256117,-0.26459 h -0.518584 v -0.315382 c 0,-0.135467 0.05292,-0.192617 0.1778,-0.192617 h 0.2921 c 0.135467,0 0.184151,0.05927 0.184151,0.194734 v 0.133355 h 0.12065 v -0.156638 c 0,-0.215901 -0.09525,-0.285751 -0.285751,-0.285751 h -0.32385 c -0.2159,0 -0.287867,0.09525 -0.287867,0.285751 v 0.939798 c 0,0.1778 0.07197,0.27729 0.287867,0.27729 h 0.338667 c 0.1905,0 0.270934,-0.0931 0.270934,-0.27729 z m -0.12065,0.0339 v 0.27517 c 0,0.13547 -0.05292,0.19262 -0.177801,0.19262 h -0.302683 c -0.122767,0 -0.173567,-0.0656 -0.173567,-0.1905 v -0.46355 h 0.484717 c 0.116417,0 0.169334,0.0635 0.169334,0.18626 z" />
    </g>
    <g
       style="font-style:normal;font-variant:normal;font-weight:normal;font-stretch:normal;font-size:3.52778px;line-height:1.25;font-family:Quarca;-inkscape-font-specification:Quarca;letter-spacing:0px;word-spacing:0px;fill:#dddddd;fill-opacity:1;stroke:none;stroke-width:0.264583"
       id="text5443-0-6-2-2-3-9-24-3"
       aria-label="17">
      <path
         id="path18878"
         style="font-style:normal;font-variant:normal;font-weight:normal;font-stretch:normal;font-size:2.11667px;font-family:Quarca;-inkscape-font-specification:Quarca;stroke-width:0.264583;fill:#dddddd;fill-opacity:1"
         d="m 68.318715,113.35984 h 0.120651 V 111.857 h -0.107951 l -0.19685,0.1397 v 0.12701 l 0.18415,-0.13336 z" />
      <path
         id="path18880"
         style="font-style:normal;font-variant:normal;font-weight:normal;font-stretch:normal;font-size:2.11667px;font-family:Quarca;-inkscape-font-specification:Quarca;stroke-width:0.264583;fill:#dddddd;fill-opacity:1"
         d="m 68.653348,111.9713 h 0.738718 v 0.20109 c 0,0.0741 -0.0127,0.15663 -0.05503,0.22437 l -0.601134,0.96308 h 0.143933 l 0.567268,-0.91228 c 0.04445,-0.072 0.06562,-0.15452 0.06562,-0.25612 V 111.857 h -0.859368 z" />
    </g>
    <g
       style="font-style:normal;font-variant:normal;font-weight:normal;font-stretch:normal;font-size:3.52778px;line-height:1.25;font-family:Quarca;-inkscape-font-specification:Quarca;letter-spacing:0px;word-spacing:0px;fill:#dddddd;fill-opacity:1;stroke:none;stroke-width:0.264583"
       id="text5443-0-6-2-2-3-9-24-8"
       aria-label="18">
      <path
         id="path18873"
         style="font-style:normal;font-variant:normal;font-weight:normal;font-stretch:normal;font-size:2.11667px;font-family:Quarca;-inkscape-font-specification:Quarca;stroke-width:0.264583;fill:#dddddd;fill-opacity:1"
         d="m 68.318715,125.51797 h 0.120651 v -1.50284 h -0.107951 l -0.19685,0.1397 v 0.127 l 0.18415,-0.13335 z" />
      <path
         id="path18875"
         style="font-style:normal;font-variant:normal;font-weight:normal;font-stretch:normal;font-size:2.11667px;font-family:Quarca;-inkscape-font-specification:Quarca;stroke-width:0.264583;fill:#dddddd;fill-opacity:1"
         d="m 68.924281,124.72633 c -0.08255,0.0169 -0.175683,0.0593 -0.175683,0.22437 v 0.27517 c 0,0.19473 0.07408,0.2921 0.289984,0.2921 h 0.359834 c 0.2159,0 0.289983,-0.0974 0.289983,-0.2921 v -0.27517 c 0,-0.1651 -0.0889,-0.20743 -0.160867,-0.22437 0.07408,-0.0233 0.09737,-0.0804 0.09737,-0.18838 v -0.23072 c 0,-0.19473 -0.07408,-0.2921 -0.289984,-0.2921 h -0.232833 c -0.215901,0 -0.289984,0.0974 -0.289984,0.2921 v 0.23072 c 0,0.10795 0.02752,0.1651 0.112183,0.18838 z m 0.459318,0.0614 c 0.09737,0 0.18415,0.0339 0.18415,0.1651 v 0.254 c 0,0.13335 -0.04868,0.19685 -0.182034,0.19685 h -0.334433 c -0.133351,0 -0.182034,-0.0635 -0.182034,-0.19685 v -0.254 c 0,-0.13547 0.0889,-0.1651 0.18415,-0.1651 z m -0.268817,-0.65829 h 0.207433 c 0.133351,0 0.182034,0.0635 0.182034,0.19685 v 0.19474 c 0,0.127 -0.05927,0.1524 -0.192617,0.1524 h -0.18415 c -0.13335,0 -0.194734,-0.0254 -0.194734,-0.1524 v -0.19474 c 0,-0.13335 0.04868,-0.19685 0.182034,-0.19685 z" />
    </g>
  </g>
</svg>
