<?xml version="1.0" encoding="UTF-8" standalone="no"?>
<!-- Generator: Adobe Illustrator 18.1.1, SVG Export Plug-In . SVG Version: 6.00 Build 0)  -->

<svg
   xmlns:dc="http://purl.org/dc/elements/1.1/"
   xmlns:cc="http://creativecommons.org/ns#"
   xmlns:rdf="http://www.w3.org/1999/02/22-rdf-syntax-ns#"
   xmlns:svg="http://www.w3.org/2000/svg"
   xmlns="http://www.w3.org/2000/svg"
   xmlns:xlink="http://www.w3.org/1999/xlink"
   xmlns:sodipodi="http://sodipodi.sourceforge.net/DTD/sodipodi-0.dtd"
   xmlns:inkscape="http://www.inkscape.org/namespaces/inkscape"
   version="1.1"
   id="svg4541"
   inkscape:version="0.92.2 (5c3e80d, 2017-08-06)"
   sodipodi:docname="SeedsOfChangeGateExpanderMaster.svg"
   x="0px"
   y="0px"
   viewBox="283.5 206 90 380"
   enable-background="new 283.5 206 90 380"
   xml:space="preserve"
   width="90"
   height="380"><metadata
     id="metadata1113"><rdf:RDF><cc:Work
         rdf:about=""><dc:format>image/svg+xml</dc:format><dc:type
           rdf:resource="http://purl.org/dc/dcmitype/StillImage" /><dc:title /></cc:Work></rdf:RDF></metadata><defs
     id="defs1111"><linearGradient
       inkscape:collect="always"
       xlink:href="#linearGradient4047"
       id="linearGradient4049"
       x1="35.418064"
       y1="158.3329"
       x2="35.219627"
       y2="50.462322"
       gradientUnits="userSpaceOnUse"
       gradientTransform="matrix(0.94338563,0,0,3.7850074,250.27432,14.999728)" /><linearGradient
       inkscape:collect="always"
       id="linearGradient4047"><stop
         style="stop-color:#202022;stop-opacity:1;"
         offset="0"
         id="stop3387" /><stop
         style="stop-color:#202025;stop-opacity:1;"
         offset=".3"
         id="stop3388" /><stop
         style="stop-color:#08006f;stop-opacity:1;"
         offset="1"
         id="stop3389" /></linearGradient></defs><path
     inkscape:connector-curvature="0"
     id="path33493"
     d="m 283.5,206 h 90 v 380 h -90 z m 0,0"
     style="fill:url(#linearGradient4049);fill-opacity:1;fill-rule:nonzero;stroke:none;stroke-width:0.80954897"
     inkscape:export-filename="/home/vortico/pics/tmp/LFOs.png"
     inkscape:export-xdpi="150.22649"
     inkscape:export-ydpi="150.22649" /><sodipodi:namedview
     inkscape:snap-bbox-edge-midpoints="true"
     inkscape:pageopacity="0"
     inkscape:snap-others="true"
     inkscape:snap-object-midpoints="true"
     inkscape:snap-text-baseline="false"
     inkscape:snap-midpoints="true"
     inkscape:snap-nodes="true"
     inkscape:snap-global="true"
     inkscape:snap-smooth-nodes="true"
     inkscape:object-paths="false"
     inkscape:snap-bbox="true"
     inkscape:bbox-nodes="true"
     inkscape:current-layer="svg4541"
     inkscape:window-maximized="1"
     inkscape:window-y="-13"
     inkscape:window-x="-13"
     inkscape:window-height="2115"
     inkscape:window-width="3840"
     inkscape:pageshadow="2"
     units="px"
     inkscape:cy="121.34713"
     guidetolerance="10"
     gridtolerance="10"
     inkscape:cx="-89.272405"
     showgrid="false"
     id="namedview10"
     pagecolor="#ffffff"
     objecttolerance="10"
     borderopacity="1"
     bordercolor="#666666"
     inkscape:zoom="5.656854" /><g
     id="g3774"
     display="none"
     style="display:none"><path
       id="path3762"
       inkscape:connector-curvature="0"
       display="inline"
       d="m 306.6,109.8 -78.2,52.1"
       style="display:inline;fill:none;stroke:#000000;stroke-width:0.26460001" /><path
       id="path3764"
       inkscape:connector-curvature="0"
       display="inline"
       d="m 306.6,109.8 -26.1,52.1"
       style="display:inline;fill:none;stroke:#000000;stroke-width:0.26460001" /><path
       id="path3766"
       inkscape:connector-curvature="0"
       display="inline"
       d="m 306.6,109.8 26.1,52.1"
       style="display:inline;fill:none;stroke:#000000;stroke-width:0.26460001" /><path
       id="path3768"
       inkscape:connector-curvature="0"
       display="inline"
       d="m 306.6,109.8 78.2,52.1"
       style="display:inline;fill:none;stroke:#000000;stroke-width:0.26460001" /></g><g
     id="g3755"
     display="none"
     style="display:none"><path
       id="path3749"
       sodipodi:nodetypes="cccc"
       inkscape:connector-curvature="0"
       display="inline"
       d="m 332.7,137.3 v -27.5 h 52.5 v 27.5"
       style="display:inline;fill:none;stroke:#000000;stroke-width:0.26460001" /><path
       id="path3740"
       sodipodi:nodetypes="cccc"
       inkscape:connector-curvature="0"
       display="inline"
       d="M 228.5,137.3 V 109.8 H 281 v 27.5"
       style="display:inline;fill:none;stroke:#000000;stroke-width:0.26460001" /></g><g
     id="layer1"
     inkscape:label="Pins"
     display="none"
     style="display:none"><g
       id="g3088"
       transform="matrix(0.27191367,0,0,-0.27191367,-65.704999,518.54402)"
       display="inline"
       style="display:inline"><path
         id="path4639"
         inkscape:connector-curvature="0"
         d="m 1369.3,1412.6 c -49.8,0 -90.5,40.6 -90.5,90.5 0,49.9 40.6,90.5 90.5,90.5 49.8,0 90.5,-40.6 90.5,-90.5 0,-49.9 -40.5,-90.5 -90.5,-90.5"
         style="fill:#e7e7e7;stroke:#909290;stroke-width:0.97299999" /><path
         id="path4647"
         inkscape:connector-curvature="0"
         d="m 1369.3,1438 c -35.8,0 -65.2,29.2 -65.2,65.2 0,35.8 29.2,65.2 65.2,65.2 35.8,0 65.2,-29.2 65.2,-65.2 0,-36 -29.2,-65.2 -65.2,-65.2"
         style="fill:#e7e7e7;stroke:#909290;stroke-width:0.97299999" /><path
         id="path4655"
         inkscape:connector-curvature="0"
         d="m 1409.5,1503.1 c 0,-22.1 -17.9,-40.2 -40.2,-40.2 -22.1,0 -40.2,17.9 -40.2,40.2 0,22.3 17.9,40.2 40.2,40.2 22.3,0 40.2,-17.9 40.2,-40.2"
         style="stroke:#909290;stroke-width:0.97299999" /></g><g
       id="g3778"
       transform="matrix(0.27191367,0,0,-0.27191367,-75.626874,525.1586)"
       display="inline"
       style="display:inline"><path
         id="path3772"
         inkscape:connector-curvature="0"
         d="m 1118.4,1245.3 c -49.8,0 -90.5,40.6 -90.5,90.5 0,49.8 40.6,90.5 90.5,90.5 49.8,0 90.5,-40.6 90.5,-90.5 -0.1,-49.8 -40.5,-90.5 -90.5,-90.5"
         style="fill:#e7e7e7;stroke:#909290;stroke-width:0.97299999" /><path
         id="path3774"
         inkscape:connector-curvature="0"
         d="m 1118.4,1270.6 c -35.8,0 -65.2,29.2 -65.2,65.2 0,35.8 29.2,65.2 65.2,65.2 35.8,0 65.2,-29.2 65.2,-65.2 0,-35.9 -29.2,-65.2 -65.2,-65.2"
         style="fill:#e7e7e7;stroke:#909290;stroke-width:0.97299999" /><path
         id="path3776"
         inkscape:connector-curvature="0"
         d="m 1158.6,1335.8 c 0,-22.1 -17.9,-40.2 -40.2,-40.2 -22.1,0 -40.2,17.9 -40.2,40.2 0,22.3 17.9,40.2 40.2,40.2 22.3,0 40.2,-17.9 40.2,-40.2"
         style="stroke:#909290;stroke-width:0.97299999" /></g><g
       id="g3786"
       transform="matrix(0.27191367,0,0,-0.27191367,-69.01229,525.1586)"
       display="inline"
       style="display:inline"><path
         id="path3780"
         inkscape:connector-curvature="0"
         d="m 1285.6,1245.3 c -49.8,0 -90.5,40.6 -90.5,90.5 0,49.8 40.6,90.5 90.5,90.5 49.8,0 90.5,-40.6 90.5,-90.5 0,-49.8 -40.5,-90.5 -90.5,-90.5"
         style="fill:#e7e7e7;stroke:#909290;stroke-width:0.97299999" /><path
         id="path3782"
         inkscape:connector-curvature="0"
         d="m 1285.6,1270.6 c -35.8,0 -65.2,29.2 -65.2,65.2 0,35.8 29.2,65.2 65.2,65.2 35.8,0 65.2,-29.2 65.2,-65.2 0.1,-35.9 -29.1,-65.2 -65.2,-65.2"
         style="fill:#e7e7e7;stroke:#909290;stroke-width:0.97299999" /><path
         id="path3784"
         inkscape:connector-curvature="0"
         d="m 1325.8,1335.8 c 0,-22.1 -17.9,-40.2 -40.2,-40.2 -22.1,0 -40.2,17.9 -40.2,40.2 0,22.3 17.9,40.2 40.2,40.2 22.3,0 40.2,-17.9 40.2,-40.2"
         style="stroke:#909290;stroke-width:0.97299999" /></g><g
       id="g3794"
       transform="matrix(0.27191367,0,0,-0.27191367,-62.397707,525.1586)"
       display="inline"
       style="display:inline"><path
         id="path3788"
         inkscape:connector-curvature="0"
         d="m 1453.1,1245.3 c -49.8,0 -90.5,40.6 -90.5,90.5 0,49.8 40.6,90.5 90.5,90.5 49.8,0 90.5,-40.6 90.5,-90.5 0,-49.8 -40.7,-90.5 -90.5,-90.5"
         style="fill:#e7e7e7;stroke:#909290;stroke-width:0.97299999" /><path
         id="path3790"
         inkscape:connector-curvature="0"
         d="m 1453.1,1270.6 c -35.8,0 -65.2,29.2 -65.2,65.2 0,35.8 29.2,65.2 65.2,65.2 35.8,0 65.2,-29.2 65.2,-65.2 -0.2,-35.9 -29.4,-65.2 -65.2,-65.2"
         style="fill:#e7e7e7;stroke:#909290;stroke-width:0.97299999" /><path
         id="path3792"
         inkscape:connector-curvature="0"
         d="m 1493.1,1335.8 c 0,-22.1 -17.9,-40.2 -40.2,-40.2 -22.1,0 -40.2,17.9 -40.2,40.2 0,22.3 17.9,40.2 40.2,40.2 22.3,0 40.2,-17.9 40.2,-40.2"
         style="stroke:#909290;stroke-width:0.97299999" /></g><g
       id="g3802"
       transform="matrix(0.27191367,0,0,-0.27191367,-55.783123,525.1586)"
       display="inline"
       style="display:inline"><path
         id="path3796"
         inkscape:connector-curvature="0"
         d="m 1620.4,1245.3 c -49.8,0 -90.5,40.6 -90.5,90.5 0,49.8 40.6,90.5 90.5,90.5 49.8,0 90.5,-40.6 90.5,-90.5 -0.1,-49.8 -40.7,-90.5 -90.5,-90.5"
         style="fill:#e7e7e7;stroke:#909290;stroke-width:0.97299999" /><path
         id="path3798"
         inkscape:connector-curvature="0"
         d="m 1620.4,1270.6 c -35.8,0 -65.2,29.2 -65.2,65.2 0,35.8 29.2,65.2 65.2,65.2 35.8,0 65.2,-29.2 65.2,-65.2 -0.2,-35.9 -29.4,-65.2 -65.2,-65.2"
         style="fill:#e7e7e7;stroke:#909290;stroke-width:0.97299999" /><path
         id="path3800"
         inkscape:connector-curvature="0"
         d="m 1660.6,1335.8 c 0,-22.1 -17.9,-40.2 -40.2,-40.2 -22.1,0 -40.2,17.9 -40.2,40.2 0,22.3 17.9,40.2 40.2,40.2 22.1,0 40.2,-17.9 40.2,-40.2"
         style="stroke:#909290;stroke-width:0.97299999" /></g></g><text
     xml:space="preserve"
     style="font-style:normal;font-variant:normal;font-weight:bold;font-stretch:normal;font-size:13.33333302px;line-height:1.25;font-family:Homenaje;-inkscape-font-specification:'Homenaje Bold';text-align:start;letter-spacing:0px;word-spacing:0px;text-anchor:start;fill:#ffffff;fill-opacity:1;stroke:none;stroke-width:0.99999994"
     x="284.70801"
     y="218.63867"
     id="text3885"><tspan
       sodipodi:role="line"
       x="284.70801"
       y="218.63867"
       style="font-style:normal;font-variant:normal;font-weight:bold;font-stretch:normal;font-size:14.66666698px;font-family:Homenaje;-inkscape-font-specification:'Homenaje Bold';text-align:start;text-anchor:start;stroke-width:0.99999994"
       id="tspan1013">SEEDS <tspan
   style="font-size:12px"
   id="tspan1309">OF</tspan> CHANGE</tspan></text>
<text
     xml:space="preserve"
     style="font-style:normal;font-variant:normal;font-weight:bold;font-stretch:normal;font-size:8px;line-height:1.25;font-family:Homenaje;-inkscape-font-specification:'Homenaje Bold';letter-spacing:0px;word-spacing:0px;fill:#ffffff;fill-opacity:1;stroke:none;stroke-width:0.99999994"
     x="349.15601"
     y="247"
     id="text5443-7-5-4-0"><tspan
       sodipodi:role="line"
       id="tspan5441-1-6-2-7"
       x="349.15601"
       y="247"
       style="font-style:normal;font-variant:normal;font-weight:bold;font-stretch:normal;font-size:8px;font-family:Homenaje;-inkscape-font-specification:'Homenaje Bold';stroke-width:0.99999994">GATE</tspan></text>
<text
     xml:space="preserve"
     style="font-style:normal;font-variant:normal;font-weight:bold;font-stretch:normal;font-size:8px;line-height:1.25;font-family:Homenaje;-inkscape-font-specification:'Homenaje Bold';letter-spacing:0px;word-spacing:0px;fill:#ffffff;fill-opacity:1;stroke:none;stroke-width:0.99999994"
     x="290.91599"
     y="246.944"
     id="text5443-7-5-4-4-7-9"><tspan
       sodipodi:role="line"
       id="tspan5441-1-6-2-3-5-2"
       x="290.91599"
       y="246.944"
       style="font-style:normal;font-variant:normal;font-weight:bold;font-stretch:normal;font-size:8px;font-family:Homenaje;-inkscape-font-specification:'Homenaje Bold';stroke-width:0.99999994">PROBABILITY</tspan></text>
<flowRoot
     xml:space="preserve"
     id="flowRoot2224"
     style="font-style:normal;font-variant:normal;font-weight:bold;font-stretch:normal;font-size:8px;line-height:1.25;font-family:Arial;-inkscape-font-specification:'Arial Bold';text-align:center;letter-spacing:0px;word-spacing:0px;text-anchor:middle;fill:#000000;fill-opacity:1;stroke:none"><flowRegion
       id="flowRegion2226"
       style="font-size:8px"><rect
         id="rect2228"
         width="183.49422"
         height="260.03854"
         x="-24.395185"
         y="40.058399"
         style="font-size:8px" /></flowRegion><flowPara
       id="flowPara2230" /></flowRoot><text
     xml:space="preserve"
     style="font-style:normal;font-variant:normal;font-weight:bold;font-stretch:normal;font-size:13.33333302px;line-height:1.25;font-family:Homenaje;-inkscape-font-specification:'Homenaje Bold';text-align:start;letter-spacing:0px;word-spacing:0px;text-anchor:start;fill:#ffffff;fill-opacity:1;stroke:none;stroke-width:0.99999994"
     x="293.99942"
     y="230.2966"
     id="text3885-4"><tspan
       sodipodi:role="line"
       x="293.99942"
       y="230.2966"
       style="font-style:normal;font-variant:normal;font-weight:bold;font-stretch:normal;font-size:12px;font-family:Homenaje;-inkscape-font-specification:'Homenaje Bold';text-align:start;text-anchor:start;stroke-width:0.99999994"
       id="tspan1013-3">GATE EXPANDER</tspan></text>
<text
     xml:space="preserve"
     style="font-style:normal;font-variant:normal;font-weight:bold;font-stretch:normal;font-size:13.37363625px;line-height:1.25;font-family:Consolas;-inkscape-font-specification:'Consolas Bold';text-align:start;letter-spacing:0px;word-spacing:0px;text-anchor:start;fill:#00a3f2;fill-opacity:1;stroke:none;stroke-width:1.00302255"
     x="321.37"
     y="584.20056"
     id="text3885-7"
     transform="scale(1.0030227,0.99698641)"><tspan
       sodipodi:role="line"
       id="tspan3883-0"
       x="321.37"
       y="584.20056"
       style="font-style:normal;font-variant:normal;font-weight:normal;font-stretch:normal;font-family:'Bradley Gratis';-inkscape-font-specification:'Bradley Gratis';text-align:start;text-anchor:start;fill:#00a3f2;fill-opacity:1;stroke-width:1.00302255">FW</tspan></text>
</svg>