<?xml version="1.0" encoding="UTF-8" standalone="no"?>
<svg
   xmlns:dc="http://purl.org/dc/elements/1.1/"
   xmlns:cc="http://creativecommons.org/ns#"
   xmlns:rdf="http://www.w3.org/1999/02/22-rdf-syntax-ns#"
   xmlns:svg="http://www.w3.org/2000/svg"
   xmlns="http://www.w3.org/2000/svg"
   xmlns:xlink="http://www.w3.org/1999/xlink"
   xmlns:sodipodi="http://sodipodi.sourceforge.net/DTD/sodipodi-0.dtd"
   xmlns:inkscape="http://www.inkscape.org/namespaces/inkscape"
   sodipodi:docname="StringTheoryMaster.svg"
   inkscape:version="1.0 (4035a4fb49, 2020-05-01)"
   id="svg11003"
   version="1.1"
   viewBox="0 0 27.781251 100.54167"
   height="380"
   width="105">
  <defs
     id="defs10997">
    <linearGradient
       id="linearGradient2777"
       inkscape:collect="always">
      <stop
         id="stop3387"
         offset="0"
         style="stop-color:#202022;stop-opacity:1;" />
      <stop
         id="stop3388"
         offset=".3"
         style="stop-color:#202025;stop-opacity:1;" />
      <stop
         id="stop3389"
         offset="1"
         style="stop-color:#08003e;stop-opacity:1;" />
    </linearGradient>
    <linearGradient
       gradientTransform="matrix(0.70151341,0,0,1.0014499,10.439269,-0.14648975)"
       gradientUnits="userSpaceOnUse"
       y2="50.462322"
       x2="35.219627"
       y1="150.85843"
       x1="35.219627"
       id="linearGradient2779"
       xlink:href="#linearGradient2777"
       inkscape:collect="always" />
  </defs>
  <sodipodi:namedview
     inkscape:document-rotation="0"
     showguides="false"
     units="px"
     inkscape:window-maximized="1"
     inkscape:window-y="-6"
     inkscape:window-x="-6"
     inkscape:window-height="1058"
     inkscape:window-width="1920"
     fit-margin-bottom="0"
     fit-margin-right="0"
     fit-margin-left="0"
     fit-margin-top="0"
     showgrid="false"
     inkscape:current-layer="layer1"
     inkscape:document-units="px"
     inkscape:cy="295.01782"
     inkscape:cx="33.661773"
     inkscape:zoom="2.828427"
     inkscape:pageshadow="2"
     inkscape:pageopacity="0.0"
     borderopacity="1.0"
     bordercolor="#666666"
     pagecolor="#ffffff"
     id="base" />
  <metadata
     id="metadata11000">
    <rdf:RDF>
      <cc:Work
         rdf:about="">
        <dc:format>image/svg+xml</dc:format>
        <dc:type
           rdf:resource="http://purl.org/dc/dcmitype/StillImage" />
        <dc:title />
      </cc:Work>
    </rdf:RDF>
  </metadata>
  <g
     transform="translate(-35.146312,-50.389004)"
     id="layer1"
     inkscape:groupmode="layer"
     inkscape:label="Layer 1">
    <path
       inkscape:export-ydpi="150.22649"
       inkscape:export-xdpi="150.22649"
       inkscape:export-filename="/home/vortico/pics/tmp/LFOs.png"
       style="fill:url(#linearGradient2779);fill-opacity:1;fill-rule:nonzero;stroke:none;stroke-width:0.23135512"
       d="M 35.146312,50.389 H 62.927563 V 150.93067 H 35.146312 Z m 0,0"
       id="path33493"
       inkscape:connector-curvature="0" />
    <g
       id="text5097"
       style="font-style:normal;font-weight:normal;font-size:3.52777767px;line-height:1.25;font-family:sans-serif;letter-spacing:0px;word-spacing:0px;fill:#000000;fill-opacity:1;stroke:none;stroke-width:0.26458332" />
    <path
       inkscape:connector-curvature="0"
       id="path22517"
       d="m 68.655363,121.04327 c 0,0 0,0 0,0 z"
       style="fill:none;stroke:#000000;stroke-width:0.26458332px;stroke-linecap:butt;stroke-linejoin:miter;stroke-opacity:1" />
    <text
       id="text7715"
       y="77.376503"
       x="41.396999"
       style="font-style:normal;font-variant:normal;font-weight:bold;font-stretch:normal;font-size:3.52778px;line-height:1.25;font-family:Consolas;-inkscape-font-specification:'Consolas Bold';text-align:center;letter-spacing:0px;word-spacing:0px;text-anchor:middle;fill:#ffffff;fill-opacity:1;stroke:none;stroke-width:0.264583"
       xml:space="preserve"><tspan
         style="font-style:normal;font-variant:normal;font-weight:bold;font-stretch:normal;font-size:2.82222px;font-family:Homenaje;-inkscape-font-specification:'Homenaje Bold';fill:#ffffff;fill-opacity:1;stroke-width:0.264583"
         y="77.376503"
         x="41.396999"
         id="tspan7713"
         sodipodi:role="line">FEEDBACK</tspan></text>
    <text
       id="text7715-3"
       y="139.26924"
       x="59.204727"
       style="font-style:normal;font-variant:normal;font-weight:bold;font-stretch:normal;font-size:3.52778px;line-height:1.25;font-family:Consolas;-inkscape-font-specification:'Consolas Bold';text-align:center;letter-spacing:0px;word-spacing:0px;text-anchor:middle;fill:#ffffff;fill-opacity:1;stroke:none;stroke-width:0.264583"
       xml:space="preserve"><tspan
         style="font-style:normal;font-variant:normal;font-weight:bold;font-stretch:normal;font-size:2.11667px;font-family:Homenaje;-inkscape-font-specification:'Homenaje Bold';fill:#ffffff;fill-opacity:1;stroke-width:0.264583"
         y="139.26924"
         x="59.204727"
         id="tspan7713-8"
         sodipodi:role="line">OUT</tspan></text>
    <text
       id="text7715-6"
       y="108.59734"
       x="39.487816"
       style="font-style:normal;font-variant:normal;font-weight:bold;font-stretch:normal;font-size:3.52778px;line-height:1.25;font-family:Consolas;-inkscape-font-specification:'Consolas Bold';text-align:center;letter-spacing:0px;word-spacing:0px;text-anchor:middle;fill:#ffffff;fill-opacity:1;stroke:none;stroke-width:0.264583"
       xml:space="preserve"><tspan
         style="font-style:normal;font-variant:normal;font-weight:bold;font-stretch:normal;font-size:2.82222px;font-family:Homenaje;-inkscape-font-specification:'Homenaje Bold';fill:#ffffff;fill-opacity:1;stroke-width:0.264583"
         y="108.59734"
         x="39.487816"
         id="tspan7713-9"
         sodipodi:role="line">FILTER</tspan></text>
    <text
       id="text7715-60"
       y="58.022831"
       x="48.891552"
       style="font-style:normal;font-variant:normal;font-weight:bold;font-stretch:normal;font-size:3.52778px;line-height:1.25;font-family:Consolas;-inkscape-font-specification:'Consolas Bold';text-align:center;letter-spacing:0px;word-spacing:0px;text-anchor:middle;fill:#ffffff;fill-opacity:1;stroke:none;stroke-width:0.264583"
       xml:space="preserve"><tspan
         style="font-style:normal;font-variant:normal;font-weight:bold;font-stretch:normal;font-size:2.82222px;font-family:Homenaje;-inkscape-font-specification:'Homenaje Bold';fill:#ffffff;fill-opacity:1;stroke-width:0.264583"
         y="58.022831"
         x="48.891552"
         id="tspan7713-2"
         sodipodi:role="line">DELAY TIME</tspan></text>
    <text
       id="text7715-60-0"
       y="54.060848"
       x="50.469635"
       style="font-style:normal;font-variant:normal;font-weight:bold;font-stretch:normal;font-size:3.52778px;line-height:1.25;font-family:Consolas;-inkscape-font-specification:'Consolas Bold';text-align:center;letter-spacing:0px;word-spacing:0px;text-anchor:middle;fill:#ffffff;fill-opacity:1;stroke:none;stroke-width:0.264583"
       xml:space="preserve"><tspan
         id="tspan7769"
         style="font-style:normal;font-variant:normal;font-weight:bold;font-stretch:normal;font-size:3.88056px;font-family:Homenaje;-inkscape-font-specification:'Homenaje Bold';fill:#ffffff;fill-opacity:1;stroke-width:0.264583"
         y="54.060848"
         x="50.469635"
         sodipodi:role="line">STRING THEORY</tspan></text>
    <text
       id="text7715-3-0"
       y="77.376503"
       x="58.662613"
       style="font-style:normal;font-variant:normal;font-weight:bold;font-stretch:normal;font-size:3.52778px;line-height:1.25;font-family:Consolas;-inkscape-font-specification:'Consolas Bold';text-align:center;letter-spacing:0px;word-spacing:0px;text-anchor:middle;fill:#ffffff;fill-opacity:1;stroke:none;stroke-width:0.264583"
       xml:space="preserve"><tspan
         style="font-style:normal;font-variant:normal;font-weight:bold;font-stretch:normal;font-size:2.11667px;font-family:Homenaje;-inkscape-font-specification:'Homenaje Bold';fill:#ffffff;fill-opacity:1;stroke-width:0.264583"
         y="77.376503"
         x="58.662613"
         id="tspan7713-8-0"
         sodipodi:role="line">SEND</tspan></text>
    <text
       id="text7715-3-0-5"
       y="85.034607"
       x="58.481873"
       style="font-style:normal;font-variant:normal;font-weight:bold;font-stretch:normal;font-size:3.52778px;line-height:1.25;font-family:Consolas;-inkscape-font-specification:'Consolas Bold';text-align:center;letter-spacing:0px;word-spacing:0px;text-anchor:middle;fill:#ffffff;fill-opacity:1;stroke:none;stroke-width:0.264583"
       xml:space="preserve"><tspan
         style="font-style:normal;font-variant:normal;font-weight:bold;font-stretch:normal;font-size:2.11667px;font-family:Homenaje;-inkscape-font-specification:'Homenaje Bold';fill:#ffffff;fill-opacity:1;stroke-width:0.264583"
         y="85.034607"
         x="58.481873"
         id="tspan7713-8-0-0"
         sodipodi:role="line">RETURN</tspan></text>
    <text
       id="text7715-3-8"
       y="139.289"
       x="45.467644"
       style="font-style:normal;font-variant:normal;font-weight:bold;font-stretch:normal;font-size:3.52778px;line-height:1.25;font-family:Consolas;-inkscape-font-specification:'Consolas Bold';text-align:center;letter-spacing:0px;word-spacing:0px;text-anchor:middle;fill:#ffffff;fill-opacity:1;stroke:none;stroke-width:0.264583"
       xml:space="preserve"><tspan
         style="font-style:normal;font-variant:normal;font-weight:bold;font-stretch:normal;font-size:2.11667px;font-family:Homenaje;-inkscape-font-specification:'Homenaje Bold';fill:#ffffff;fill-opacity:1;stroke-width:0.264583"
         y="139.289"
         x="45.467644"
         id="tspan7713-8-6"
         sodipodi:role="line">EXT. IN</tspan></text>
    <text
       id="text7715-3-0-8"
       y="60.29026"
       x="39.447777"
       style="font-style:normal;font-variant:normal;font-weight:bold;font-stretch:normal;font-size:3.52778px;line-height:1.25;font-family:Consolas;-inkscape-font-specification:'Consolas Bold';text-align:center;letter-spacing:0px;word-spacing:0px;text-anchor:middle;fill:#ffffff;fill-opacity:1;stroke:none;stroke-width:0.264583"
       xml:space="preserve"><tspan
         style="font-style:normal;font-variant:normal;font-weight:bold;font-stretch:normal;font-size:2.11667px;font-family:Homenaje;-inkscape-font-specification:'Homenaje Bold';fill:#ffffff;fill-opacity:1;stroke-width:0.264583"
         y="60.29026"
         x="39.447777"
         id="tspan7713-8-0-5"
         sodipodi:role="line">COARSE</tspan></text>
    <text
       id="text7715-3-0-8-0"
       y="60.443161"
       x="48.834873"
       style="font-style:normal;font-variant:normal;font-weight:bold;font-stretch:normal;font-size:3.52778px;line-height:1.25;font-family:Consolas;-inkscape-font-specification:'Consolas Bold';text-align:center;letter-spacing:0px;word-spacing:0px;text-anchor:middle;fill:#ffffff;fill-opacity:1;stroke:none;stroke-width:0.264583"
       xml:space="preserve"><tspan
         style="font-style:normal;font-variant:normal;font-weight:bold;font-stretch:normal;font-size:2.11667px;font-family:Homenaje;-inkscape-font-specification:'Homenaje Bold';fill:#ffffff;fill-opacity:1;stroke-width:0.264583"
         y="60.443161"
         x="48.994038"
         id="tspan7713-8-0-5-9"
         sodipodi:role="line">FINE </tspan></text>
    <text
       id="text7715-6-1"
       y="130.27342"
       x="41.673386"
       style="font-style:normal;font-variant:normal;font-weight:bold;font-stretch:normal;font-size:3.52778px;line-height:1.25;font-family:Consolas;-inkscape-font-specification:'Consolas Bold';text-align:center;letter-spacing:0px;word-spacing:0px;text-anchor:middle;fill:#ffffff;fill-opacity:1;stroke:none;stroke-width:0.264583"
       xml:space="preserve"><tspan
         style="font-style:normal;font-variant:normal;font-weight:bold;font-stretch:normal;font-size:2.82222px;font-family:Homenaje;-inkscape-font-specification:'Homenaje Bold';fill:#ffffff;fill-opacity:1;stroke-width:0.264583"
         y="130.27342"
         x="41.673386"
         id="tspan7713-9-2"
         sodipodi:role="line">PLUCK</tspan></text>
    <text
       id="text7715-3-0-8-3"
       y="139.27411"
       x="38.708431"
       style="font-style:normal;font-variant:normal;font-weight:bold;font-stretch:normal;font-size:3.52778px;line-height:1.25;font-family:Consolas;-inkscape-font-specification:'Consolas Bold';text-align:center;letter-spacing:0px;word-spacing:0px;text-anchor:middle;fill:#ffffff;fill-opacity:1;stroke:none;stroke-width:0.264583"
       xml:space="preserve"><tspan
         style="font-style:normal;font-variant:normal;font-weight:bold;font-stretch:normal;font-size:2.11667px;font-family:Homenaje;-inkscape-font-specification:'Homenaje Bold';fill:#ffffff;fill-opacity:1;stroke-width:0.264583"
         y="139.27411"
         x="38.708431"
         id="tspan7713-8-0-5-7"
         sodipodi:role="line">V/OCT</tspan></text>
    <text
       id="text7715-3-0-8-0-6"
       y="60.350227"
       x="57.777397"
       style="font-style:normal;font-variant:normal;font-weight:bold;font-stretch:normal;font-size:3.52778px;line-height:1.25;font-family:Consolas;-inkscape-font-specification:'Consolas Bold';text-align:center;letter-spacing:0px;word-spacing:0px;text-anchor:middle;fill:#ffffff;fill-opacity:1;stroke:none;stroke-width:0.264583"
       xml:space="preserve"><tspan
         style="font-style:normal;font-variant:normal;font-weight:bold;font-stretch:normal;font-size:2.11667px;font-family:Homenaje;-inkscape-font-specification:'Homenaje Bold';fill:#ffffff;fill-opacity:1;stroke-width:0.264583"
         y="60.350227"
         x="57.777397"
         id="tspan7713-8-0-5-9-9"
         sodipodi:role="line">SAMPLES</tspan></text>
    <g
       transform="matrix(0.74779482,0,0,0.74779482,10.783587,40.618569)"
       id="text271"
       style="font-style:normal;font-weight:normal;font-size:3.52777767px;line-height:1.25;font-family:sans-serif;letter-spacing:0px;word-spacing:0px;fill:#00a3f2;fill-opacity:1;stroke:none;stroke-width:0.26458332"
       aria-label="Frozen Wasteland">
      <g
         transform="translate(-1.5875001)"
         id="text3885-7"
         style="font-style:normal;font-variant:normal;font-weight:bold;font-stretch:normal;font-size:3.52777767px;line-height:1.25;font-family:Consolas;-inkscape-font-specification:'Consolas Bold';text-align:start;letter-spacing:0px;word-spacing:0px;text-anchor:start;fill:#00a3f2;fill-opacity:1;stroke:none;stroke-width:0.26458332"
         aria-label="FROZEN WASTELAND">
        <path
           inkscape:connector-curvature="0"
           id="path20360"
           style="font-style:normal;font-variant:normal;font-weight:normal;font-stretch:normal;font-family:'Bradley Gratis';-inkscape-font-specification:'Bradley Gratis';text-align:start;text-anchor:start;fill:#00a3f2;fill-opacity:1;stroke-width:0.26458332"
           d="m 41.150231,146.65677 q 0.119944,-0.11994 0.1905,-0.21166 0.07408,-0.0917 0.112889,-0.16934 0.04233,-0.0776 0.05292,-0.14464 0.01411,-0.0706 0.01411,-0.14816 0,-0.0952 -0.04586,-0.22931 -0.04586,-0.13405 -0.102306,-0.28575 -0.05644,-0.15169 -0.102306,-0.31044 -0.04586,-0.15875 -0.04586,-0.30339 0,-0.0776 0.0247,-0.1517 0.02822,-0.0741 0.06703,-0.14111 0.04233,-0.0705 0.09172,-0.13053 0.04939,-0.0635 0.09878,-0.11288 -0.07056,-0.0141 -0.123473,-0.0212 -0.05292,-0.0106 -0.07761,-0.0106 -0.130528,0 -0.22225,0.0705 -0.08819,0.067 -0.1905,0.16933 0,-0.11994 0.03528,-0.24694 0.03881,-0.13053 0.116417,-0.23636 0.07761,-0.10583 0.194027,-0.17286 0.119945,-0.067 0.282223,-0.067 0.112889,0 0.208139,0.0176 0.09878,0.0141 0.179916,0.0353 0.08114,0.0212 0.148167,0.0388 0.06703,0.0141 0.119944,0.0141 0.08114,0 0.141111,-0.0212 0.0635,-0.0247 0.123473,-0.0847 0,0.0776 -0.03175,0.17639 -0.02822,0.0988 -0.08819,0.1905 -0.05644,0.0882 -0.148167,0.15169 -0.09172,0.06 -0.211666,0.06 -0.05997,0 -0.137584,-0.007 -0.07408,-0.0106 -0.155222,-0.0247 -0.0071,0.0247 -0.01058,0.0459 -0.0035,0.0212 -0.0071,0.0388 -0.0035,0.0212 -0.0035,0.0388 0,0.0776 0.01058,0.15169 0.01411,0.0706 0.03881,0.14464 h 0.712611 l -0.08114,0.23989 q -0.01058,0.0459 -0.01411,0.067 -0.0035,0.0212 -0.01058,0.067 l -0.130528,-0.0917 h -0.363361 q 0.07761,0.17639 0.144639,0.35984 0.06703,0.17991 0.06703,0.38452 0,0.18345 -0.07408,0.3422 -0.07408,0.15522 -0.197556,0.27164 -0.119944,0.11641 -0.278694,0.17991 -0.155222,0.067 -0.321028,0.067 z" />
        <path
           inkscape:connector-curvature="0"
           id="path20362"
           style="font-style:normal;font-variant:normal;font-weight:normal;font-stretch:normal;font-family:'Bradley Gratis';-inkscape-font-specification:'Bradley Gratis';text-align:start;text-anchor:start;fill:#00a3f2;fill-opacity:1;stroke-width:0.26458332"
           d="m 43.22032,144.92816 q 0.07055,-0.0423 0.137583,-0.0988 0.07056,-0.0564 0.123472,-0.127 0.05645,-0.0705 0.08819,-0.16227 0.03528,-0.0952 0.03528,-0.21167 0,-0.0988 -0.03881,-0.16581 -0.03528,-0.0705 -0.08467,-0.11289 -0.04939,-0.0423 -0.09878,-0.06 -0.04586,-0.0176 -0.07056,-0.0176 -0.02822,0 -0.05292,0.0106 -0.02117,0.0106 -0.0388,0.0247 z m -0.518583,-0.94192 q -0.112889,-0.0635 -0.112889,-0.23636 0.03175,0.0318 0.112889,0.0565 0.08114,0.0212 0.172861,0.0212 0.04586,0 0.130527,-0.0106 0.08467,-0.0141 0.172862,-0.0282 0.09172,-0.0141 0.172861,-0.0247 0.08467,-0.0141 0.130527,-0.0141 0.116417,0 0.232834,0.0353 0.116416,0.0353 0.215194,0.11995 0.09878,0.0847 0.165806,0.2293 0.07056,0.14111 0.09172,0.35983 l -0.627944,0.4445 q 0.07055,0.0282 0.15875,0.0952 0.08819,0.067 0.165805,0.18698 0.08114,0.11994 0.134056,0.30691 0.05292,0.18345 0.05292,0.45156 0,0.23283 0.02117,0.37747 0.02117,0.14464 0.05292,0.23283 0.03175,0.0882 0.06703,0.13053 0.03881,0.0459 0.07056,0.0776 -0.155222,0 -0.275167,-0.0917 -0.119944,-0.0882 -0.211666,-0.23283 -0.09172,-0.14464 -0.162278,-0.32809 -0.06703,-0.18344 -0.123472,-0.37041 -0.05644,-0.18697 -0.105834,-0.35984 -0.04586,-0.17286 -0.09525,-0.29986 -0.02469,0.0176 -0.04939,0.0353 -0.02117,0.0141 -0.0388,0.0318 v 1.31939 h -0.518583 z" />
        <path
           inkscape:connector-curvature="0"
           id="path20364"
           style="font-style:normal;font-variant:normal;font-weight:normal;font-stretch:normal;font-family:'Bradley Gratis';-inkscape-font-specification:'Bradley Gratis';text-align:start;text-anchor:start;fill:#00a3f2;fill-opacity:1;stroke-width:0.26458332"
           d="m 45.108067,146.03588 q 0,0.11995 0.01411,0.18698 0.01764,0.067 0.04233,0.1023 0.02822,0.0317 0.0635,0.0388 0.03528,0.007 0.07056,0.007 0.07055,0 0.116416,-0.0952 0.04586,-0.0988 0.04586,-0.29986 v -1.53105 q 0,-0.15875 -0.01764,-0.25753 -0.01411,-0.10231 -0.04233,-0.15522 -0.02469,-0.0564 -0.05997,-0.0776 -0.03175,-0.0212 -0.0635,-0.0212 -0.06703,0 -0.119944,0.0847 -0.04939,0.0811 -0.04939,0.26106 z m 1.005416,-0.88547 q 0,0.25753 -0.06703,0.508 -0.0635,0.25047 -0.176389,0.44803 -0.109361,0.19755 -0.261056,0.32103 -0.151694,0.11994 -0.321028,0.11994 -0.15875,0 -0.310444,-0.10936 -0.148167,-0.10936 -0.264583,-0.29986 -0.112889,-0.1905 -0.183445,-0.4445 -0.07055,-0.254 -0.07055,-0.54328 0,-0.23636 0.0635,-0.4833 0.06703,-0.25048 0.179916,-0.45156 0.112889,-0.20108 0.264584,-0.32808 0.151694,-0.13053 0.321027,-0.13053 0.148167,0 0.292806,0.10936 0.148167,0.10936 0.264583,0.29986 0.119945,0.18697 0.194028,0.44097 0.07408,0.254 0.07408,0.54328 z" />
        <path
           inkscape:connector-curvature="0"
           id="path20366"
           style="font-style:normal;font-variant:normal;font-weight:normal;font-stretch:normal;font-family:'Bradley Gratis';-inkscape-font-specification:'Bradley Gratis';text-align:start;text-anchor:start;fill:#00a3f2;fill-opacity:1;stroke-width:0.26458332"
           d="m 46.267548,146.50861 q 0.04586,-0.27164 0.130528,-0.51153 0.08819,-0.23989 0.194028,-0.45861 0.105833,-0.21873 0.218722,-0.41628 0.116417,-0.20108 0.218722,-0.38806 0.102306,-0.18697 0.179917,-0.36336 0.07761,-0.17991 0.112889,-0.35983 -0.02822,-0.0176 -0.06703,-0.0318 -0.03528,-0.0141 -0.137583,-0.0141 -0.05292,0 -0.09525,0.0282 -0.03881,0.0247 -0.06703,0.0635 -0.02822,0.0353 -0.04586,0.0776 -0.01411,0.0388 -0.01411,0.0635 0,0.0282 0.01058,0.067 0.01411,0.0353 0.02822,0.0705 0.01764,0.0353 0.03528,0.067 0.01764,0.0282 0.03175,0.0423 l -0.430389,0.26811 q -0.08467,-0.0811 -0.144639,-0.19756 -0.05644,-0.11994 -0.05644,-0.23989 0,-0.06 0.03175,-0.14816 0.03175,-0.0882 0.102305,-0.16934 0.07056,-0.0847 0.183445,-0.14111 0.116416,-0.06 0.282222,-0.06 0.130528,0 0.218722,0.0176 0.08819,0.0176 0.155222,0.0423 0.06703,0.0212 0.123472,0.0388 0.05997,0.0176 0.134056,0.0176 0.04586,0 0.09878,-0.007 0.05292,-0.007 0.09878,-0.0212 0.04586,-0.0141 0.08114,-0.0282 0.03881,-0.0176 0.05997,-0.0388 -0.04233,0.22225 -0.134056,0.46213 -0.09172,0.23989 -0.204611,0.47978 -0.109361,0.23989 -0.232833,0.4692 -0.119945,0.2293 -0.22225,0.43039 -0.09878,0.19755 -0.169334,0.35983 -0.06703,0.15875 -0.07408,0.26105 0.141111,0.06 0.239889,0.06 0.0635,0 0.130528,-0.0141 0.06703,-0.0176 0.119944,-0.0529 0.05644,-0.0353 0.09172,-0.0882 0.03528,-0.0564 0.03528,-0.13405 0,-0.0776 -0.01764,-0.127 -0.01411,-0.0529 -0.03881,-0.0847 -0.0247,-0.0353 -0.05644,-0.06 -0.03175,-0.0282 -0.05997,-0.0564 l 0.405694,-0.29987 q 0.141112,0.10584 0.201084,0.22578 0.05997,0.11995 0.05997,0.26106 0,0.067 -0.02117,0.13053 -0.01764,0.06 -0.04586,0.11288 -0.02469,0.0494 -0.05997,0.0917 -0.03175,0.0423 -0.05644,0.067 l 0.05997,0.06 q 0.01764,0.0176 0.0388,0.0529 0.02117,0.0317 0.02117,0.0564 0,0.0282 -0.02469,0.0811 -0.02117,0.0564 -0.08819,0.0988 -0.02469,-0.0317 -0.05644,-0.0564 -0.02822,-0.0212 -0.05997,-0.0388 -0.03175,-0.0176 -0.06703,-0.0176 z" />
        <path
           inkscape:connector-curvature="0"
           id="path20368"
           style="font-style:normal;font-variant:normal;font-weight:normal;font-stretch:normal;font-family:'Bradley Gratis';-inkscape-font-specification:'Bradley Gratis';text-align:start;text-anchor:start;fill:#00a3f2;fill-opacity:1;stroke-width:0.26458332"
           d="m 49.773884,143.78163 v 0.381 q -0.03881,-0.0353 -0.102306,-0.0776 -0.05997,-0.0423 -0.130528,-0.0741 -0.06703,-0.0353 -0.134055,-0.0565 -0.06703,-0.0247 -0.112889,-0.0247 -0.08467,0 -0.172861,0.067 -0.08819,0.067 -0.144639,0.17991 -0.05644,0.10937 -0.07408,0.28928 -0.01411,0.17639 -0.01411,0.45509 h 0.903111 l -0.179916,0.40216 q -0.03528,-0.0529 -0.08467,-0.0705 -0.04586,-0.0212 -0.08467,-0.0212 H 48.88841 q 0,0.20108 0.0071,0.39511 0.0071,0.1905 0.04586,0.3422 0.04233,0.15169 0.127,0.24694 0.08467,0.0917 0.243417,0.0917 0.08467,0 0.165805,-0.0318 0.08467,-0.0317 0.155222,-0.0776 0.07056,-0.0494 0.123473,-0.1023 0.05644,-0.0529 0.08819,-0.0952 v 0.508 h -0.47625 q -0.342194,0 -0.553861,-0.11995 -0.211667,-0.12347 -0.331611,-0.32808 -0.116417,-0.20814 -0.15875,-0.47978 -0.03881,-0.27164 -0.03881,-0.56797 0,-0.0741 0.01058,-0.19403 0.01058,-0.12347 0.04586,-0.25753 0.03528,-0.13758 0.102305,-0.27516 0.06703,-0.14112 0.179917,-0.25048 0.116417,-0.11289 0.28575,-0.18344 0.169333,-0.0706 0.409222,-0.0706 z" />
        <path
           inkscape:connector-curvature="0"
           id="path20370"
           style="font-style:normal;font-variant:normal;font-weight:normal;font-stretch:normal;font-family:'Bradley Gratis';-inkscape-font-specification:'Bradley Gratis';text-align:start;text-anchor:start;fill:#00a3f2;fill-opacity:1;stroke-width:0.26458332"
           d="m 50.160286,146.50861 v -2.4377 q 0,-0.0988 -0.04233,-0.1658 -0.04233,-0.0706 -0.08467,-0.12348 h 0.684388 v 0.35984 l 0.391584,-0.45509 q 0.179916,0.16228 0.296333,0.32456 0.116417,0.15875 0.183445,0.32103 0.06703,0.15875 0.09172,0.32455 0.02469,0.16228 0.02469,0.33514 0,0.16933 -0.02822,0.32456 -0.02469,0.15169 -0.07408,0.29986 -0.04939,0.14816 -0.119945,0.29986 -0.06703,0.15169 -0.148166,0.3175 h 0.127 q 0.04586,0 0.09525,-0.0317 0.04939,-0.0318 0.09878,-0.0318 v 0.33867 h -0.684389 q 0.09525,-0.19403 0.151695,-0.34925 0.05997,-0.15523 0.09172,-0.29634 0.03175,-0.14111 0.04233,-0.27516 0.01058,-0.13406 0.01058,-0.28575 0,-0.1517 -0.05292,-0.31398 -0.04939,-0.1658 -0.123472,-0.30339 -0.07408,-0.13758 -0.15875,-0.22577 -0.08114,-0.0882 -0.148167,-0.0882 -0.04233,0 -0.06703,0.0212 v 2.11667 z" />
        <path
           inkscape:connector-curvature="0"
           id="path20372"
           style="font-style:normal;font-variant:normal;font-weight:normal;font-stretch:normal;font-family:'Bradley Gratis';-inkscape-font-specification:'Bradley Gratis';text-align:start;text-anchor:start;fill:#00a3f2;fill-opacity:1;stroke-width:0.26458332"
           d="m 53.398455,146.62502 q -0.1905,-0.13758 -0.324556,-0.2928 -0.134055,-0.15875 -0.215194,-0.32809 -0.08114,-0.16933 -0.119945,-0.34219 -0.03528,-0.17639 -0.03528,-0.34572 0,-0.16581 0.03528,-0.32809 0.03528,-0.1658 0.09172,-0.32455 0.05997,-0.16228 0.137584,-0.31397 0.07761,-0.15523 0.15875,-0.30339 h -0.02117 q -0.01058,0 -0.02469,0 -0.01058,-0.004 -0.02822,-0.004 -0.05644,0 -0.137583,0.0141 -0.07761,0.0141 -0.151694,0.0706 v -0.34573 h 0.740833 q -0.09172,0.15875 -0.15875,0.32103 -0.0635,0.15875 -0.105833,0.31045 -0.03881,0.14816 -0.05997,0.28222 -0.01764,0.13053 -0.01764,0.23636 0,0.10583 0.02117,0.254 0.02117,0.14817 0.07761,0.30692 0.05997,0.15522 0.15875,0.29633 0.102306,0.14111 0.264584,0.2293 l 0.105833,-0.0776 q -0.0635,-0.11994 -0.09878,-0.2293 -0.03528,-0.11289 -0.05292,-0.21167 -0.01411,-0.0988 -0.01764,-0.17992 -0.0035,-0.0847 -0.0035,-0.15169 0,-0.10936 0.02822,-0.24694 0.02822,-0.13759 0.08114,-0.28575 0.05292,-0.14817 0.127,-0.29987 0.07761,-0.15169 0.172861,-0.29633 -0.134055,0 -0.22225,0.0212 -0.08467,0.0212 -0.144639,0.06 v -0.33867 h 0.762 q -0.0635,0.0882 -0.127,0.20109 -0.05997,0.10936 -0.105833,0.23989 -0.04586,0.127 -0.07408,0.27163 -0.02822,0.14464 -0.02822,0.29634 0,0.25753 0.04586,0.45861 0.04586,0.19755 0.127,0.34925 0.08114,0.15169 0.1905,0.26105 0.109362,0.10937 0.232834,0.18698 v -2.26484 h 0.529166 v 2.1202 q 0,0.0247 -0.03528,0.0705 -0.03528,0.0423 -0.09172,0.0988 -0.05292,0.0565 -0.127,0.12347 -0.07055,0.0635 -0.144638,0.127 -0.176389,0.14817 -0.398639,0.32456 -0.172861,-0.13406 -0.296334,-0.26458 -0.123472,-0.13053 -0.211666,-0.254 z" />
        <path
           inkscape:connector-curvature="0"
           id="path20374"
           style="font-style:normal;font-variant:normal;font-weight:normal;font-stretch:normal;font-family:'Bradley Gratis';-inkscape-font-specification:'Bradley Gratis';text-align:start;text-anchor:start;fill:#00a3f2;fill-opacity:1;stroke-width:0.26458332"
           d="m 56.650514,144.81174 v -0.87841 h -0.416278 q -0.0035,0.23636 -0.01411,0.46919 -0.0071,0.22931 -0.01764,0.40922 z m 0.719667,-1.03011 q -0.03881,0.0282 -0.07408,0.0706 -0.03175,0.0423 -0.05645,0.0917 -0.02117,0.0459 -0.03528,0.0917 -0.01411,0.0423 -0.01411,0.0741 v 2.39889 h -0.53975 v -1.32998 h -0.472722 q -0.0035,0.127 -0.03528,0.2787 -0.03175,0.14816 -0.08819,0.29986 -0.05292,0.14817 -0.127,0.28928 -0.07056,0.13758 -0.162278,0.24341 -0.08819,0.10584 -0.1905,0.16934 -0.09878,0.0635 -0.208139,0.0635 -0.07055,0 -0.123472,-0.0423 -0.04939,-0.0423 -0.04939,-0.11994 0,-0.0494 0.03175,-0.0706 0.03175,-0.0247 0.06703,-0.0247 0.03175,0 0.04939,0.0106 0.01764,0.007 0.03175,0.0212 0.01764,0.0106 0.03881,0.0212 0.02117,0.007 0.05997,0.007 0.0635,0 0.102305,-0.0635 0.03881,-0.067 0.0635,-0.17639 0.0247,-0.11289 0.03528,-0.25753 0.01411,-0.14816 0.02117,-0.31044 0.0071,-0.16228 0.01764,-0.32808 0.01058,-0.16934 0.02822,-0.32456 0.02117,-0.18344 0.0635,-0.33514 0.04586,-0.15169 0.09525,-0.26811 0.04939,-0.11642 0.09878,-0.19755 0.04939,-0.0811 0.08467,-0.13053 h -0.07761 q -0.06703,0 -0.123472,0.0212 -0.05644,0.0176 -0.102306,0.0423 -0.04233,0.0212 -0.07761,0.0423 -0.03175,0.0176 -0.05644,0.0176 -0.05997,0 -0.08819,-0.0423 -0.02822,-0.0423 -0.02822,-0.0952 0,-0.0494 0.05292,-0.0917 0.05644,-0.0459 0.155222,-0.0459 z" />
        <path
           inkscape:connector-curvature="0"
           id="path20376"
           style="font-style:normal;font-variant:normal;font-weight:normal;font-stretch:normal;font-family:'Bradley Gratis';-inkscape-font-specification:'Bradley Gratis';text-align:start;text-anchor:start;fill:#00a3f2;fill-opacity:1;stroke-width:0.26458332"
           d="m 58.150372,146.63208 q -0.08114,-0.0811 -0.186973,-0.15875 -0.102305,-0.0776 -0.201083,-0.13759 -0.09525,-0.06 -0.169333,-0.1023 -0.07056,-0.0423 -0.08114,-0.0529 0.03528,-0.0423 0.08819,-0.11641 0.05292,-0.0776 0.102306,-0.1517 0.05292,-0.0741 0.09172,-0.13053 0.04233,-0.06 0.05292,-0.0705 0.04939,0.0317 0.134055,0.0882 0.08819,0.0529 0.172861,0.11289 0.08819,0.06 0.15875,0.10936 0.07056,0.0494 0.09172,0.0706 0.04939,-0.0282 0.08114,-0.0741 0.03528,-0.0459 0.03528,-0.14816 0,-0.0882 -0.07408,-0.18697 -0.07056,-0.0988 -0.176389,-0.20814 -0.105833,-0.10936 -0.232833,-0.22931 -0.127,-0.11994 -0.232834,-0.24694 -0.105833,-0.127 -0.179916,-0.25753 -0.07056,-0.13053 -0.07056,-0.26811 0,-0.0988 0.04939,-0.18345 0.05292,-0.0882 0.130528,-0.16227 0.07761,-0.0776 0.169333,-0.13759 0.09525,-0.0635 0.179917,-0.11641 0.08819,-0.0564 0.155222,-0.0988 0.06703,-0.0459 0.09525,-0.0811 0.02117,0.0176 0.09172,0.0882 0.07408,0.067 0.15875,0.14464 0.08467,0.0776 0.15875,0.13759 0.07761,0.06 0.102306,0.06 -0.03528,0.0282 -0.08819,0.0847 -0.04939,0.0529 -0.102305,0.11289 -0.04939,0.06 -0.09172,0.11642 -0.03881,0.0529 -0.05644,0.0811 -0.08114,-0.0353 -0.162278,-0.10583 -0.08114,-0.0706 -0.148166,-0.13759 -0.06703,-0.067 -0.112889,-0.11641 -0.04586,-0.0529 -0.05997,-0.0529 -0.02822,0 -0.04939,0.0317 -0.01764,0.0282 -0.01764,0.067 0,0.0847 0.07408,0.17991 0.07761,0.0952 0.186972,0.20461 0.112889,0.10584 0.243417,0.22578 0.134056,0.11642 0.243417,0.24342 0.112889,0.127 0.186972,0.26458 0.07761,0.13406 0.07761,0.27517 0,0.127 -0.09525,0.26811 -0.09525,0.14111 -0.229306,0.28222 -0.130527,0.13759 -0.268111,0.26459 -0.137583,0.12347 -0.225777,0.21872 z" />
        <path
           inkscape:connector-curvature="0"
           id="path20378"
           style="font-style:normal;font-variant:normal;font-weight:normal;font-stretch:normal;font-family:'Bradley Gratis';-inkscape-font-specification:'Bradley Gratis';text-align:start;text-anchor:start;fill:#00a3f2;fill-opacity:1;stroke-width:0.26458332"
           d="m 60.635359,146.03236 q 0,0.13758 -0.05644,0.23988 -0.05644,0.0988 -0.148167,0.16228 -0.08819,0.0635 -0.197555,0.0953 -0.109361,0.0317 -0.215195,0.0317 -0.165805,0 -0.324555,-0.0811 -0.15875,-0.0811 -0.28575,-0.21872 -0.127,-0.14111 -0.204611,-0.32808 -0.07761,-0.1905 -0.07761,-0.40922 0,-0.39159 0.179916,-0.72673 0.179917,-0.33866 0.500945,-0.61383 -0.02822,-0.004 -0.05292,-0.004 -0.02117,-0.004 -0.04586,-0.004 -0.08467,0 -0.179917,0.0282 -0.09525,0.0282 -0.179916,0.0741 -0.08467,0.0423 -0.155223,0.0952 -0.06703,0.0529 -0.102305,0.0988 0.02822,-0.13759 0.105833,-0.27164 0.07761,-0.13406 0.194028,-0.23636 0.116417,-0.10231 0.268111,-0.16581 0.151694,-0.0635 0.331611,-0.0635 0.09172,0 0.194028,0.0282 0.102305,0.0282 0.194028,0.0741 0.09525,0.0423 0.169333,0.0953 0.07408,0.0529 0.112889,0.1023 l -0.289278,0.44098 q -0.176389,-0.17287 -0.381,-0.24695 -0.04586,0.0741 -0.09525,0.17639 -0.04939,0.0988 -0.09172,0.22578 -0.03881,0.127 -0.06703,0.28222 -0.02469,0.15169 -0.02469,0.33161 0,0.16933 0.02469,0.29986 0.02822,0.13053 0.07056,0.22578 0.04233,0.0952 0.09525,0.15875 0.05644,0.0635 0.112889,0.10583 0.134055,0.0953 0.306916,0.10584 0.07056,0 0.162278,-0.0282 0.09525,-0.0318 0.151694,-0.0811 z" />
        <path
           inkscape:connector-curvature="0"
           id="path20380"
           style="font-style:normal;font-variant:normal;font-weight:normal;font-stretch:normal;font-family:'Bradley Gratis';-inkscape-font-specification:'Bradley Gratis';text-align:start;text-anchor:start;fill:#00a3f2;fill-opacity:1;stroke-width:0.26458332"
           d="m 62.403604,143.78163 v 0.381 q -0.03881,-0.0353 -0.102306,-0.0776 -0.05997,-0.0423 -0.130528,-0.0741 -0.06703,-0.0353 -0.134055,-0.0565 -0.06703,-0.0247 -0.112889,-0.0247 -0.08467,0 -0.172861,0.067 -0.08819,0.067 -0.144639,0.17991 -0.05644,0.10937 -0.07408,0.28928 -0.01411,0.17639 -0.01411,0.45509 h 0.903111 l -0.179917,0.40216 q -0.03528,-0.0529 -0.08467,-0.0705 -0.04586,-0.0212 -0.08467,-0.0212 h -0.553861 q 0,0.20108 0.0071,0.39511 0.0071,0.1905 0.04586,0.3422 0.04233,0.15169 0.127,0.24694 0.08467,0.0917 0.243417,0.0917 0.08467,0 0.165805,-0.0318 0.08467,-0.0317 0.155223,-0.0776 0.07055,-0.0494 0.123472,-0.1023 0.05644,-0.0529 0.08819,-0.0952 v 0.508 h -0.47625 q -0.342194,0 -0.553861,-0.11995 -0.211666,-0.12347 -0.331611,-0.32808 -0.116417,-0.20814 -0.15875,-0.47978 -0.03881,-0.27164 -0.03881,-0.56797 0,-0.0741 0.01058,-0.19403 0.01058,-0.12347 0.04586,-0.25753 0.03528,-0.13758 0.102306,-0.27516 0.06703,-0.14112 0.179916,-0.25048 0.116417,-0.11289 0.28575,-0.18344 0.169334,-0.0706 0.409222,-0.0706 z" />
        <path
           inkscape:connector-curvature="0"
           id="path20382"
           style="font-style:normal;font-variant:normal;font-weight:normal;font-stretch:normal;font-family:'Bradley Gratis';-inkscape-font-specification:'Bradley Gratis';text-align:start;text-anchor:start;fill:#00a3f2;fill-opacity:1;stroke-width:0.26458332"
           d="m 63.682533,144.47661 q -0.08819,-0.21167 -0.151694,-0.35278 -0.0635,-0.14111 -0.09878,-0.14111 -0.03881,0 -0.05292,0.0353 -0.01058,0.0318 -0.01058,0.0565 v 1.91205 q 0,0.0776 -0.04233,0.16228 -0.04233,0.0847 -0.112888,0.14817 0.130527,0 0.232833,-0.0635 0.102305,-0.067 0.211667,-0.14464 0.112888,-0.0811 0.250472,-0.14464 0.137583,-0.067 0.342194,-0.067 v 0.63148 H 62.65595 q 0.04586,-0.067 0.07761,-0.127 0.03528,-0.06 0.05644,-0.11995 0.02117,-0.06 0.03175,-0.127 0.01058,-0.067 0.01058,-0.14817 v -1.66863 q 0,-0.11289 -0.04233,-0.18345 -0.04233,-0.0741 -0.05997,-0.1023 0.01411,-0.004 0.07056,-0.0247 0.05997,-0.0247 0.144639,-0.0564 0.08467,-0.0318 0.186972,-0.067 0.102305,-0.0353 0.201083,-0.0635 0.09878,-0.0317 0.186972,-0.0494 0.08819,-0.0212 0.144639,-0.0212 0.0882,0 0.165806,0.0494 0.07761,0.0494 0.141111,0.12347 0.0635,0.0741 0.109361,0.16581 0.04586,0.0882 0.07408,0.16581 z" />
        <path
           inkscape:connector-curvature="0"
           id="path20384"
           style="font-style:normal;font-variant:normal;font-weight:normal;font-stretch:normal;font-family:'Bradley Gratis';-inkscape-font-specification:'Bradley Gratis';text-align:start;text-anchor:start;fill:#00a3f2;fill-opacity:1;stroke-width:0.26458332"
           d="m 65.8627,144.81174 v -0.87841 h -0.416278 q -0.0035,0.23636 -0.01411,0.46919 -0.0071,0.22931 -0.01764,0.40922 z m 0.719667,-1.03011 q -0.03881,0.0282 -0.07408,0.0706 -0.03175,0.0423 -0.05644,0.0917 -0.02117,0.0459 -0.03528,0.0917 -0.01411,0.0423 -0.01411,0.0741 v 2.39889 H 65.8627 v -1.32998 h -0.472722 q -0.0035,0.127 -0.03528,0.2787 -0.03175,0.14816 -0.08819,0.29986 -0.05292,0.14817 -0.127,0.28928 -0.07056,0.13758 -0.162278,0.24341 -0.08819,0.10584 -0.1905,0.16934 -0.09878,0.0635 -0.208139,0.0635 -0.07056,0 -0.123472,-0.0423 -0.04939,-0.0423 -0.04939,-0.11994 0,-0.0494 0.03175,-0.0706 0.03175,-0.0247 0.06703,-0.0247 0.03175,0 0.04939,0.0106 0.01764,0.007 0.03175,0.0212 0.01764,0.0106 0.0388,0.0212 0.02117,0.007 0.05997,0.007 0.0635,0 0.102306,-0.0635 0.0388,-0.067 0.0635,-0.17639 0.02469,-0.11289 0.03528,-0.25753 0.01411,-0.14816 0.02117,-0.31044 0.0071,-0.16228 0.01764,-0.32808 0.01058,-0.16934 0.02822,-0.32456 0.02117,-0.18344 0.0635,-0.33514 0.04586,-0.15169 0.09525,-0.26811 0.04939,-0.11642 0.09878,-0.19755 0.04939,-0.0811 0.08467,-0.13053 h -0.07761 q -0.06703,0 -0.123472,0.0212 -0.05644,0.0176 -0.102306,0.0423 -0.04233,0.0212 -0.07761,0.0423 -0.03175,0.0176 -0.05645,0.0176 -0.05997,0 -0.08819,-0.0423 -0.02822,-0.0423 -0.02822,-0.0952 0,-0.0494 0.05292,-0.0917 0.05644,-0.0459 0.155223,-0.0459 z" />
        <path
           inkscape:connector-curvature="0"
           id="path20386"
           style="font-style:normal;font-variant:normal;font-weight:normal;font-stretch:normal;font-family:'Bradley Gratis';-inkscape-font-specification:'Bradley Gratis';text-align:start;text-anchor:start;fill:#00a3f2;fill-opacity:1;stroke-width:0.26458332"
           d="m 66.882779,146.50861 v -2.4377 q 0,-0.0988 -0.04233,-0.1658 -0.04233,-0.0706 -0.08467,-0.12348 h 0.684389 v 0.35984 l 0.391583,-0.45509 q 0.179917,0.16228 0.296333,0.32456 0.116417,0.15875 0.183445,0.32103 0.06703,0.15875 0.09172,0.32455 0.02469,0.16228 0.02469,0.33514 0,0.16933 -0.02822,0.32456 -0.02469,0.15169 -0.07408,0.29986 -0.04939,0.14816 -0.119945,0.29986 -0.06703,0.15169 -0.148166,0.3175 h 0.127 q 0.04586,0 0.09525,-0.0317 0.04939,-0.0318 0.09878,-0.0318 v 0.33867 H 67.69417 q 0.09525,-0.19403 0.151694,-0.34925 0.05997,-0.15523 0.09172,-0.29634 0.03175,-0.14111 0.04233,-0.27516 0.01058,-0.13406 0.01058,-0.28575 0,-0.1517 -0.05292,-0.31398 -0.04939,-0.1658 -0.123472,-0.30339 -0.07408,-0.13758 -0.15875,-0.22577 -0.08114,-0.0882 -0.148167,-0.0882 -0.04233,0 -0.06703,0.0212 v 2.11667 z" />
        <path
           inkscape:connector-curvature="0"
           id="path20388"
           style="font-style:normal;font-variant:normal;font-weight:normal;font-stretch:normal;font-family:'Bradley Gratis';-inkscape-font-specification:'Bradley Gratis';text-align:start;text-anchor:start;fill:#00a3f2;fill-opacity:1;stroke-width:0.26458332"
           d="m 68.771683,144.02858 q -0.09172,-0.0388 -0.127,-0.0952 -0.03528,-0.0565 -0.03528,-0.10584 0,-0.0423 0.02822,-0.0529 0.02822,0.0176 0.07761,0.0247 0.04939,0.007 0.112888,0.007 0.03175,0 0.08819,-0.0106 0.05997,-0.0106 0.130528,-0.0212 0.07055,-0.0106 0.144639,-0.0212 0.07761,-0.0106 0.144638,-0.0106 0.162278,0 0.331612,0.0847 0.169333,0.0811 0.303388,0.254 0.134056,0.16934 0.218723,0.43392 0.08819,0.26106 0.08819,0.62442 0,0.30691 -0.05292,0.52916 -0.05292,0.22225 -0.134055,0.37748 -0.08114,0.15522 -0.179917,0.25047 -0.09878,0.0917 -0.194028,0.14464 -0.09172,0.0494 -0.169333,0.067 -0.07408,0.0176 -0.109361,0.0176 -0.05292,0 -0.112889,-0.0141 -0.05997,-0.0141 -0.119944,-0.0318 -0.05645,-0.0176 -0.109361,-0.0317 -0.04939,-0.0141 -0.08467,-0.0141 -0.03881,0 -0.07056,0.0141 -0.03175,0.0106 -0.06703,0.0247 -0.03175,0.0106 -0.07056,0.0247 -0.03881,0.0106 -0.08819,0.0106 -0.01764,0 -0.03881,-0.004 -0.01764,-0.004 -0.03528,-0.0106 -0.01764,-0.007 -0.03528,-0.0176 0.02822,-0.0176 0.05644,-0.06 0.02822,-0.0459 0.05292,-0.0952 0.02822,-0.0529 0.05644,-0.11641 z m 0.518583,2.10255 q 0,0.0741 0.02469,0.11642 0.02822,0.0388 0.05997,0.0564 0.03881,0.0212 0.08467,0.0247 0.08114,0 0.141111,-0.10936 0.0635,-0.10936 0.0635,-0.2787 v -1.54869 q 0,-0.16581 -0.03175,-0.25753 -0.03175,-0.0917 -0.07408,-0.13405 -0.04233,-0.0423 -0.08467,-0.0494 -0.04233,-0.0106 -0.06703,-0.0106 -0.04233,0 -0.08114,0.0564 -0.03528,0.0564 -0.03528,0.14816 z" />
      </g>
    </g>
    <text
       id="text7715-3-0-8-3-1"
       y="123.66377"
       x="56.0121"
       style="font-style:normal;font-variant:normal;font-weight:bold;font-stretch:normal;font-size:3.52778px;line-height:1.25;font-family:Consolas;-inkscape-font-specification:'Consolas Bold';text-align:center;letter-spacing:0px;word-spacing:0px;text-anchor:middle;fill:#ffffff;fill-opacity:1;stroke:none;stroke-width:0.264583"
       xml:space="preserve"><tspan
         style="font-style:normal;font-variant:normal;font-weight:bold;font-stretch:normal;font-size:2.11667px;font-family:Homenaje;-inkscape-font-specification:'Homenaje Bold';fill:#ffffff;fill-opacity:1;stroke-width:0.264583"
         y="123.66377"
         x="56.0121"
         id="tspan7713-8-0-5-7-6"
         sodipodi:role="line">NOISE TYPE</tspan></text>
    <text
       id="text7715-3-0-8-3-1-3"
       y="130.80753"
       x="55.971947"
       style="font-style:normal;font-variant:normal;font-weight:bold;font-stretch:normal;font-size:3.52778px;line-height:1.25;font-family:Consolas;-inkscape-font-specification:'Consolas Bold';text-align:center;letter-spacing:0px;word-spacing:0px;text-anchor:middle;fill:#ffffff;fill-opacity:1;stroke:none;stroke-width:0.264583"
       xml:space="preserve"><tspan
         style="font-style:normal;font-variant:normal;font-weight:bold;font-stretch:normal;font-size:2.11667px;font-family:Homenaje;-inkscape-font-specification:'Homenaje Bold';fill:#ffffff;fill-opacity:1;stroke-width:0.264583"
         y="130.80753"
         x="55.971947"
         id="tspan7713-8-0-5-7-6-0"
         sodipodi:role="line">WINDOW</tspan></text>
    <text
       id="text7715-3-0-8-3-1-2"
       y="93.78067"
       x="39.939857"
       style="font-style:normal;font-variant:normal;font-weight:bold;font-stretch:normal;font-size:3.52778px;line-height:1.25;font-family:Consolas;-inkscape-font-specification:'Consolas Bold';text-align:center;letter-spacing:0px;word-spacing:0px;text-anchor:middle;fill:#ffffff;fill-opacity:1;stroke:none;stroke-width:0.264583"
       xml:space="preserve"><tspan
         style="font-style:normal;font-variant:normal;font-weight:bold;font-stretch:normal;font-size:2.82222px;font-family:Homenaje;-inkscape-font-specification:'Homenaje Bold';fill:#ffffff;fill-opacity:1;stroke-width:0.264583"
         y="93.78067"
         x="39.939857"
         id="tspan7713-8-0-5-7-6-8"
         sodipodi:role="line">GRAINS</tspan></text>
    <text
       id="text7715-3-0-8-3-1-2-1"
       y="93.765854"
       x="48.784691"
       style="font-style:normal;font-variant:normal;font-weight:bold;font-stretch:normal;font-size:3.52778px;line-height:1.25;font-family:Consolas;-inkscape-font-specification:'Consolas Bold';text-align:center;letter-spacing:0px;word-spacing:0px;text-anchor:middle;fill:#ffffff;fill-opacity:1;stroke:none;stroke-width:0.264583"
       xml:space="preserve"><tspan
         style="font-style:normal;font-variant:normal;font-weight:bold;font-stretch:normal;font-size:2.11667px;font-family:Homenaje;-inkscape-font-specification:'Homenaje Bold';fill:#ffffff;fill-opacity:1;stroke-width:0.264583"
         y="93.765854"
         x="48.784691"
         id="tspan7713-8-0-5-7-6-8-0"
         sodipodi:role="line">OFFSET</tspan></text>
    <text
       id="text7715-3-0-8-3-1-2-1-6"
       y="93.78067"
       x="57.786877"
       style="font-style:normal;font-variant:normal;font-weight:bold;font-stretch:normal;font-size:3.52778px;line-height:1.25;font-family:Consolas;-inkscape-font-specification:'Consolas Bold';text-align:center;letter-spacing:0px;word-spacing:0px;text-anchor:middle;fill:#ffffff;fill-opacity:1;stroke:none;stroke-width:0.264583"
       xml:space="preserve"><tspan
         style="font-style:normal;font-variant:normal;font-weight:bold;font-stretch:normal;font-size:2.11667px;font-family:Homenaje;-inkscape-font-specification:'Homenaje Bold';fill:#ffffff;fill-opacity:1;stroke-width:0.264583"
         y="93.78067"
         x="57.786877"
         id="tspan7713-8-0-5-7-6-8-0-9"
         sodipodi:role="line">SPREAD</tspan></text>
    <text
       id="text7715-3-0-3"
       y="77.365204"
       x="50.212318"
       style="font-style:normal;font-variant:normal;font-weight:bold;font-stretch:normal;font-size:3.52778px;line-height:1.25;font-family:Consolas;-inkscape-font-specification:'Consolas Bold';text-align:center;letter-spacing:0px;word-spacing:0px;text-anchor:middle;fill:#ffffff;fill-opacity:1;stroke:none;stroke-width:0.264583"
       xml:space="preserve"><tspan
         style="font-style:normal;font-variant:normal;font-weight:bold;font-stretch:normal;font-size:2.11667px;font-family:Homenaje;-inkscape-font-specification:'Homenaje Bold';fill:#ffffff;fill-opacity:1;stroke-width:0.264583"
         y="77.365204"
         x="50.212318"
         id="tspan7713-8-0-9"
         sodipodi:role="line">SHIFT</tspan></text>
    <text
       id="text7715-3-0-8-3-1-2-8"
       y="108.59734"
       x="49.065884"
       style="font-style:normal;font-variant:normal;font-weight:bold;font-stretch:normal;font-size:3.52778px;line-height:1.25;font-family:Consolas;-inkscape-font-specification:'Consolas Bold';text-align:center;letter-spacing:0px;word-spacing:0px;text-anchor:middle;fill:#ffffff;fill-opacity:1;stroke:none;stroke-width:0.264583"
       xml:space="preserve"><tspan
         style="font-style:normal;font-variant:normal;font-weight:bold;font-stretch:normal;font-size:2.11667px;font-family:Homenaje;-inkscape-font-specification:'Homenaje Bold';fill:#ffffff;fill-opacity:1;stroke-width:0.264583"
         y="108.59734"
         x="49.065884"
         id="tspan7713-8-0-5-7-6-8-8"
         sodipodi:role="line">RM GRAINS</tspan></text>
    <text
       id="text7715-3-0-8-3-1-2-8-6"
       y="108.59705"
       x="57.69334"
       style="font-style:normal;font-variant:normal;font-weight:bold;font-stretch:normal;font-size:3.52778px;line-height:1.25;font-family:Consolas;-inkscape-font-specification:'Consolas Bold';text-align:center;letter-spacing:0px;word-spacing:0px;text-anchor:middle;fill:#ffffff;fill-opacity:1;stroke:none;stroke-width:0.264583"
       xml:space="preserve"><tspan
         style="font-style:normal;font-variant:normal;font-weight:bold;font-stretch:normal;font-size:2.11667px;font-family:Homenaje;-inkscape-font-specification:'Homenaje Bold';fill:#ffffff;fill-opacity:1;stroke-width:0.264583"
         y="108.59705"
         x="57.69334"
         id="tspan7713-8-0-5-7-6-8-8-2"
         sodipodi:role="line">RM MIX</tspan></text>
    <text
       id="text7715-3-8-0"
       y="139.29155"
       x="52.762287"
       style="font-style:normal;font-variant:normal;font-weight:bold;font-stretch:normal;font-size:3.52778px;line-height:1.25;font-family:Consolas;-inkscape-font-specification:'Consolas Bold';text-align:center;letter-spacing:0px;word-spacing:0px;text-anchor:middle;fill:#ffffff;fill-opacity:1;stroke:none;stroke-width:0.264583"
       xml:space="preserve"><tspan
         style="font-style:normal;font-variant:normal;font-weight:bold;font-stretch:normal;font-size:2.11667px;font-family:Homenaje;-inkscape-font-specification:'Homenaje Bold';fill:#ffffff;fill-opacity:1;stroke-width:0.264583"
         y="139.29155"
         x="52.762287"
         id="tspan7713-8-6-8"
         sodipodi:role="line">EXT. RM</tspan></text>
    <text
       xml:space="preserve"
       style="font-style:normal;font-variant:normal;font-weight:bold;font-stretch:normal;font-size:3.52777px;line-height:1.25;font-family:Consolas;-inkscape-font-specification:'Consolas Bold';text-align:center;letter-spacing:0px;word-spacing:0px;text-anchor:middle;fill:#ffffff;fill-opacity:1;stroke:none;stroke-width:0.264583"
       x="41.55471"
       y="123.32299"
       id="text7715-3-0-8-3-1-9"><tspan
         sodipodi:role="line"
         id="tspan7713-8-0-5-7-6-06"
         x="41.55471"
         y="123.32299"
         style="font-style:normal;font-variant:normal;font-weight:bold;font-stretch:normal;font-size:2.11667px;font-family:Homenaje;-inkscape-font-specification:'Homenaje Bold';fill:#ffffff;fill-opacity:1;stroke-width:0.264583">FB COMPRESS</tspan></text>
  </g>
</svg>
