<?xml version="1.0" encoding="UTF-8" standalone="no"?>
<!-- Created with Inkscape (http://www.inkscape.org/) -->

<svg
   xmlns:dc="http://purl.org/dc/elements/1.1/"
   xmlns:cc="http://creativecommons.org/ns#"
   xmlns:rdf="http://www.w3.org/1999/02/22-rdf-syntax-ns#"
   xmlns:svg="http://www.w3.org/2000/svg"
   xmlns="http://www.w3.org/2000/svg"
   xmlns:xlink="http://www.w3.org/1999/xlink"
   xmlns:sodipodi="http://sodipodi.sourceforge.net/DTD/sodipodi-0.dtd"
   xmlns:inkscape="http://www.inkscape.org/namespaces/inkscape"
   width="225"
   height="380"
   viewBox="0 0 59.531251 100.54167"
   version="1.1"
   id="svg11003"
   inkscape:version="0.92.2 (5c3e80d, 2017-08-06)"
   sodipodi:docname="BPMLFO2.svg">
  <defs
     id="defs10997">
    <linearGradient
       inkscape:collect="always"
       id="linearGradient3391">
      <stop
         style="stop-color:#202022;stop-opacity:1;"
         offset="0"
         id="stop3387" />
      <stop
         style="stop-color:#202025;stop-opacity:1;"
         offset=".3"
         id="stop3388" />
      <stop
         style="stop-color:#08006f;stop-opacity:1;"
         offset="1"
         id="stop3389" />
    </linearGradient>
    <linearGradient
       inkscape:collect="always"
       xlink:href="#linearGradient3391"
       id="linearGradient3393"
       x1="35.219627"
       y1="150.85843"
       x2="35.219627"
       y2="50.462322"
       gradientUnits="userSpaceOnUse"
       gradientTransform="matrix(1.503243,0,0,1.0014499,-17.724031,-0.08643399)" />
  </defs>
  <sodipodi:namedview
     id="base"
     pagecolor="#ffffff"
     bordercolor="#666666"
     borderopacity="1.0"
     inkscape:pageopacity="0.0"
     inkscape:pageshadow="2"
     inkscape:zoom="4"
     inkscape:cx="-90.23401"
     inkscape:cy="174.10808"
     inkscape:document-units="mm"
     inkscape:current-layer="layer1"
     showgrid="false"
     fit-margin-top="0"
     fit-margin-left="0"
     fit-margin-right="0"
     fit-margin-bottom="0"
     inkscape:window-width="3840"
     inkscape:window-height="2115"
     inkscape:window-x="-13"
     inkscape:window-y="-13"
     inkscape:window-maximized="1"
     units="px"
     inkscape:measure-start="115.25,330.25"
     inkscape:measure-end="0,0" />
  <metadata
     id="metadata11000">
    <rdf:RDF>
      <cc:Work
         rdf:about="">
        <dc:format>image/svg+xml</dc:format>
        <dc:type
           rdf:resource="http://purl.org/dc/dcmitype/StillImage" />
        <dc:title></dc:title>
      </cc:Work>
    </rdf:RDF>
  </metadata>
  <g
     inkscape:label="Layer 1"
     inkscape:groupmode="layer"
     id="layer1"
     transform="translate(-35.146312,-50.389004)">
    <path
       inkscape:connector-curvature="0"
       id="path33493"
       d="m 35.219628,50.449053 h 59.53125 V 150.99072 h -59.53125 z m 0,0"
       style="fill:url(#linearGradient3393);fill-opacity:1;fill-rule:nonzero;stroke:none;stroke-width:0.33866918"
       inkscape:export-filename="/home/vortico/pics/tmp/LFOs.png"
       inkscape:export-xdpi="150.22649"
       inkscape:export-ydpi="150.22649" />
    <g
       aria-label="RESET"
       style="font-style:normal;font-weight:normal;font-size:3.52777767px;line-height:1.25;font-family:sans-serif;letter-spacing:0px;word-spacing:0px;fill:#ffffff;fill-opacity:1;stroke:none;stroke-width:0.26458332"
       id="text4978">
      <path
         d="m 63.005877,126.83101 h -0.135466 v -0.99342 q 0,-0.13829 -0.07056,-0.18909 -0.08749,-0.0621 -0.276578,-0.0621 h -0.245533 v 1.2446 h -0.143933 v -2.26907 h 0.428978 q 0.2794,0 0.372533,0.0903 0.07055,0.0706 0.07055,0.26247 v 0.34431 q 0,0.2286 -0.239888,0.27376 0.239888,0.0593 0.239888,0.29351 z m -0.135466,-1.58045 v -0.36688 q 0,-0.16087 -0.09878,-0.20885 -0.06491,-0.0339 -0.248356,-0.0339 h -0.245533 v 0.85796 h 0.245533 q 0.183445,0 0.251178,-0.0367 0.09596,-0.0508 0.09596,-0.21167 z"
         style="font-style:normal;font-variant:normal;font-weight:bold;font-stretch:normal;font-size:2.82222223px;font-family:'Labtop Secundo Wide';-inkscape-font-specification:'Labtop Secundo Wide Bold';stroke-width:0.26458332"
         id="path11040" />
      <path
         d="m 64.234294,126.83101 h -0.8636 v -2.26907 h 0.8636 v 0.0762 h -0.719667 v 0.84949 h 0.719667 v 0.0706 h -0.719667 v 1.19944 h 0.719667 z"
         style="font-style:normal;font-variant:normal;font-weight:bold;font-stretch:normal;font-size:2.82222223px;font-family:'Labtop Secundo Wide';-inkscape-font-specification:'Labtop Secundo Wide Bold';stroke-width:0.26458332"
         id="path11042" />
      <path
         d="m 65.3003,126.50928 q 0,0.34431 -0.4318,0.34431 -0.443089,0 -0.443089,-0.34431 v -0.16087 h 0.146756 v 0.16651 q 0,0.26247 0.296333,0.26247 0.296333,0 0.296333,-0.26247 v -0.73096 q 0,-0.21166 -0.296333,-0.21166 -0.443089,0 -0.443089,-0.34714 v -0.34148 q 0,-0.34149 0.443089,-0.34149 0.4318,0 0.4318,0.34149 v 0.1778 h -0.135467 v -0.18345 q 0,-0.26529 -0.296333,-0.26529 -0.296333,0 -0.296333,0.26529 v 0.3556 q 0,0.26811 0.296333,0.26811 0.389467,0 0.428978,0.25118 h 0.0028 z"
         style="font-style:normal;font-variant:normal;font-weight:bold;font-stretch:normal;font-size:2.82222223px;font-family:'Labtop Secundo Wide';-inkscape-font-specification:'Labtop Secundo Wide Bold';stroke-width:0.26458332"
         id="path11044" />
      <path
         d="m 66.455691,126.83101 h -0.8636 v -2.26907 h 0.8636 v 0.0762 h -0.719666 v 0.84949 h 0.719666 v 0.0706 h -0.719666 v 1.19944 h 0.719666 z"
         style="font-style:normal;font-variant:normal;font-weight:bold;font-stretch:normal;font-size:2.82222223px;font-family:'Labtop Secundo Wide';-inkscape-font-specification:'Labtop Secundo Wide Bold';stroke-width:0.26458332"
         id="path11046" />
      <path
         d="m 67.645875,124.64096 h -0.462844 v 2.19005 h -0.143934 v -2.19005 h -0.476955 v -0.079 h 1.083733 z"
         style="font-style:normal;font-variant:normal;font-weight:bold;font-stretch:normal;font-size:2.82222223px;font-family:'Labtop Secundo Wide';-inkscape-font-specification:'Labtop Secundo Wide Bold';stroke-width:0.26458332"
         id="path11048" />
    </g>
    <g
       aria-label="CLOCK"
       style="font-style:normal;font-weight:normal;font-size:3.52777767px;line-height:1.25;font-family:sans-serif;letter-spacing:0px;word-spacing:0px;fill:#ffffff;fill-opacity:1;stroke:none;stroke-width:0.26458332"
       id="text4982">
      <path
         d="m 48.456618,126.50928 q 0,0.34431 -0.440266,0.34431 -0.434623,0 -0.434623,-0.34431 v -1.6256 q 0,-0.34149 0.434623,-0.34149 0.440266,0 0.440266,0.34149 v 0.16368 h -0.143933 v -0.16933 q 0,-0.26247 -0.296333,-0.26247 -0.296334,0 -0.296334,0.26247 v 1.63689 q 0,0.26811 0.296334,0.26811 0.296333,0 0.296333,-0.26811 v -0.18062 h 0.143933 z"
         style="font-style:normal;font-variant:normal;font-weight:bold;font-stretch:normal;font-size:2.82222223px;font-family:'Labtop Secundo Wide';-inkscape-font-specification:'Labtop Secundo Wide Bold';stroke-width:0.26458332"
         id="path11051" />
      <path
         d="m 49.581098,126.83101 h -0.866423 v -2.26907 h 0.143934 v 2.19569 h 0.722489 z"
         style="font-style:normal;font-variant:normal;font-weight:bold;font-stretch:normal;font-size:2.82222223px;font-family:'Labtop Secundo Wide';-inkscape-font-specification:'Labtop Secundo Wide Bold';stroke-width:0.26458332"
         id="path11053" />
      <path
         d="m 50.545724,126.50928 q 0,0.34431 -0.440266,0.34431 -0.434623,0 -0.434623,-0.34431 v -1.6256 q 0,-0.34149 0.434623,-0.34149 0.440266,0 0.440266,0.34149 z m -0.143933,0.006 v -1.63689 q 0,-0.26247 -0.296333,-0.26247 -0.296334,0 -0.296334,0.26247 v 1.63689 q 0,0.26811 0.296334,0.26811 0.296333,0 0.296333,-0.26811 z"
         style="font-style:normal;font-variant:normal;font-weight:bold;font-stretch:normal;font-size:2.82222223px;font-family:'Labtop Secundo Wide';-inkscape-font-specification:'Labtop Secundo Wide Bold';stroke-width:0.26458332"
         id="path11055" />
      <path
         d="m 51.752886,126.50928 q 0,0.34431 -0.440267,0.34431 -0.434622,0 -0.434622,-0.34431 v -1.6256 q 0,-0.34149 0.434622,-0.34149 0.440267,0 0.440267,0.34149 v 0.16368 h -0.143933 v -0.16933 q 0,-0.26247 -0.296334,-0.26247 -0.296333,0 -0.296333,0.26247 v 1.63689 q 0,0.26811 0.296333,0.26811 0.296334,0 0.296334,-0.26811 v -0.18062 h 0.143933 z"
         style="font-style:normal;font-variant:normal;font-weight:bold;font-stretch:normal;font-size:2.82222223px;font-family:'Labtop Secundo Wide';-inkscape-font-specification:'Labtop Secundo Wide Bold';stroke-width:0.26458332"
         id="path11057" />
      <path
         d="m 52.894298,126.83101 h -0.135466 v -1.02729 q 0,-0.15804 -0.09878,-0.21167 -0.06491,-0.0339 -0.248356,-0.0339 h -0.245533 v 1.27282 h -0.143933 v -2.26907 h 0.143933 v 0.92569 h 0.245533 q 0.208845,0 0.285045,-0.0564 0.06209,-0.048 0.06209,-0.19474 v -0.67451 h 0.135466 v 0.6858 q 0,0.22014 -0.239888,0.27376 0.239888,0.0508 0.239888,0.27658 z"
         style="font-style:normal;font-variant:normal;font-weight:bold;font-stretch:normal;font-size:2.82222223px;font-family:'Labtop Secundo Wide';-inkscape-font-specification:'Labtop Secundo Wide Bold';stroke-width:0.26458332"
         id="path11059" />
    </g>
    <g
       style="font-style:normal;font-weight:normal;font-size:3.52777767px;line-height:1.25;font-family:sans-serif;letter-spacing:0px;word-spacing:0px;fill:#ffffff;fill-opacity:1;stroke:none;stroke-width:0.26458332"
       id="text5097" />
    <g
       aria-label="DIVISION"
       style="font-style:normal;font-weight:normal;font-size:3.52777767px;line-height:1.25;font-family:sans-serif;letter-spacing:0px;word-spacing:0px;fill:#ffffff;fill-opacity:1;stroke:none;stroke-width:0.26458332"
       id="text5443">
      <path
         d="m 78.089953,57.814762 q 0,0.313267 -0.448733,0.313267 h -0.426155 v -2.269067 h 0.426155 q 0.270933,0 0.369711,0.09313 0.07902,0.06491 0.07902,0.259644 z m -0.143933,-0.0085 v -1.6256 q 0,-0.158045 -0.09313,-0.208845 -0.06773,-0.03387 -0.245534,-0.03387 h -0.254 v 2.116667 h 0.254 q 0.217312,0 0.285045,-0.05644 0.05362,-0.04516 0.05362,-0.191911 z"
         style="font-style:normal;font-variant:normal;font-weight:bold;font-stretch:normal;font-size:2.82222223px;font-family:'Labtop Secundo Wide';-inkscape-font-specification:'Labtop Secundo Wide Bold';stroke-width:0.26458332"
         id="path11063" />
      <path
         d="m 78.62622,58.125207 h -0.321733 v -0.08749 h 0.08749 v -2.085622 h -0.08749 v -0.08749 h 0.321733 v 0.08749 h -0.09313 v 2.085622 h 0.09313 z"
         style="font-style:normal;font-variant:normal;font-weight:bold;font-stretch:normal;font-size:2.82222223px;font-family:'Labtop Secundo Wide';-inkscape-font-specification:'Labtop Secundo Wide Bold';stroke-width:0.26458332"
         id="path11065" />
      <path
         d="m 79.839687,55.858962 -0.491066,2.269067 h -0.118534 l -0.491066,-2.269067 h 0.143933 l 0.4064,1.902178 0.4064,-1.902178 z"
         style="font-style:normal;font-variant:normal;font-weight:bold;font-stretch:normal;font-size:2.82222223px;font-family:'Labtop Secundo Wide';-inkscape-font-specification:'Labtop Secundo Wide Bold';stroke-width:0.26458332"
         id="path11067" />
      <path
         d="m 80.285378,58.125207 h -0.321734 v -0.08749 h 0.08749 v -2.085622 h -0.08749 v -0.08749 h 0.321734 v 0.08749 h -0.09313 v 2.085622 h 0.09313 z"
         style="font-style:normal;font-variant:normal;font-weight:bold;font-stretch:normal;font-size:2.82222223px;font-family:'Labtop Secundo Wide';-inkscape-font-specification:'Labtop Secundo Wide Bold';stroke-width:0.26458332"
         id="path11069" />
      <path
         d="m 81.354912,57.806296 q 0,0.344311 -0.4318,0.344311 -0.443089,0 -0.443089,-0.344311 v -0.160867 h 0.146756 v 0.166511 q 0,0.262467 0.296333,0.262467 0.296333,0 0.296333,-0.262467 v -0.730956 q 0,-0.211666 -0.296333,-0.211666 -0.443089,0 -0.443089,-0.347134 v -0.341488 q 0,-0.341489 0.443089,-0.341489 0.4318,0 0.4318,0.341489 v 0.1778 h -0.135467 v -0.183445 q 0,-0.265289 -0.296333,-0.265289 -0.296333,0 -0.296333,0.265289 v 0.3556 q 0,0.268111 0.296333,0.268111 0.389467,0 0.428978,0.251178 h 0.0028 z"
         style="font-style:normal;font-variant:normal;font-weight:bold;font-stretch:normal;font-size:2.82222223px;font-family:'Labtop Secundo Wide';-inkscape-font-specification:'Labtop Secundo Wide Bold';stroke-width:0.26458332"
         id="path11071" />
      <path
         d="m 81.889414,58.125207 h -0.321733 v -0.08749 h 0.08749 v -2.085622 h -0.08749 v -0.08749 h 0.321733 v 0.08749 h -0.09313 v 2.085622 h 0.09313 z"
         style="font-style:normal;font-variant:normal;font-weight:bold;font-stretch:normal;font-size:2.82222223px;font-family:'Labtop Secundo Wide';-inkscape-font-specification:'Labtop Secundo Wide Bold';stroke-width:0.26458332"
         id="path11073" />
      <path
         d="m 83.001282,57.806296 q 0,0.344311 -0.440267,0.344311 -0.434622,0 -0.434622,-0.344311 v -1.6256 q 0,-0.341489 0.434622,-0.341489 0.440267,0 0.440267,0.341489 z m -0.143934,0.0056 v -1.636889 q 0,-0.262467 -0.296333,-0.262467 -0.296333,0 -0.296333,0.262467 v 1.636889 q 0,0.268111 0.296333,0.268111 0.296333,0 0.296333,-0.268111 z"
         style="font-style:normal;font-variant:normal;font-weight:bold;font-stretch:normal;font-size:2.82222223px;font-family:'Labtop Secundo Wide';-inkscape-font-specification:'Labtop Secundo Wide Bold';stroke-width:0.26458332"
         id="path11075" />
      <path
         d="m 84.26771,58.128029 h -0.160867 v -0.04798 l -0.620889,-1.831622 v 1.8796 h -0.143933 v -2.269067 h 0.143933 v 0.0056 h 0.0085 l 0.612422,1.797755 v -1.8034 h 0.141111 z"
         style="font-style:normal;font-variant:normal;font-weight:bold;font-stretch:normal;font-size:2.82222223px;font-family:'Labtop Secundo Wide';-inkscape-font-specification:'Labtop Secundo Wide Bold';stroke-width:0.26458332"
         id="path11077" />
    </g>
    <g
       aria-label="BPM LFO 2"
       style="font-style:normal;font-variant:normal;font-weight:bold;font-stretch:normal;font-size:3.52777767px;line-height:1.25;font-family:Consolas;-inkscape-font-specification:'Consolas Bold';text-align:start;letter-spacing:0px;word-spacing:0px;text-anchor:start;fill:#ffffff;fill-opacity:1;stroke:none;stroke-width:0.26458332"
       id="text3885">
      <path
         d="m 59.628737,53.798599 q 0,0.27552 -0.09701,0.368653 -0.128059,0.116417 -0.512234,0.116417 h -0.589844 v -3.119967 h 0.589844 q 0.609247,0 0.609247,0.434622 v 0.508353 q 0,0.302683 -0.329847,0.376414 0.329847,0.06985 0.329847,0.380294 z m -0.186266,-1.707444 v -0.481189 q 0,-0.221192 -0.131939,-0.291042 -0.09313,-0.05045 -0.34537,-0.05045 h -0.337608 v 1.168047 h 0.337608 q 0.287162,0 0.391937,-0.07761 0.08537,-0.06597 0.08537,-0.267758 z m 0,1.75013 v -0.970139 q 0,-0.217311 -0.13582,-0.291041 -0.08925,-0.04657 -0.341489,-0.04657 h -0.337608 v 1.649236 h 0.337608 q 0.287162,0 0.391937,-0.07761 0.08537,-0.06597 0.08537,-0.263878 z"
         style="font-style:normal;font-variant:normal;font-weight:bold;font-stretch:normal;font-size:3.88055563px;font-family:'Labtop Secundo Wide';-inkscape-font-specification:'Labtop Secundo Wide Bold';text-align:start;text-anchor:start;stroke-width:0.26458332"
         id="path11080" />
      <path
         d="m 61.316476,52.102796 q 0,0.426861 -0.609247,0.426861 h -0.391936 v 1.754012 h -0.197909 v -3.119967 h 0.589845 q 0.384175,0 0.512233,0.124178 0.09701,0.09701 0.09701,0.360891 z m -0.186267,-0.01552 v -0.481189 q 0,-0.221192 -0.135819,-0.287161 -0.08925,-0.04657 -0.341489,-0.04657 h -0.337608 v 1.152525 h 0.337608 q 0.287161,0 0.391936,-0.06985 0.08537,-0.06985 0.08537,-0.267758 z"
         style="font-style:normal;font-variant:normal;font-weight:bold;font-stretch:normal;font-size:3.88055563px;font-family:'Labtop Secundo Wide';-inkscape-font-specification:'Labtop Secundo Wide Bold';text-align:start;text-anchor:start;stroke-width:0.26458332"
         id="path11082" />
      <path
         d="m 63.908384,54.283669 h -0.194028 v -2.615495 l -0.84208,2.425347 h -0.159103 l -0.807156,-2.394303 v 2.584451 h -0.197908 v -3.119967 h 0.201789 l 0.880886,2.634897 0.911931,-2.634897 h 0.205669 z"
         style="font-style:normal;font-variant:normal;font-weight:bold;font-stretch:normal;font-size:3.88055563px;font-family:'Labtop Secundo Wide';-inkscape-font-specification:'Labtop Secundo Wide Bold';text-align:start;text-anchor:start;stroke-width:0.26458332"
         id="path11084" />
      <path
         d="m 66.598094,54.283669 h -1.19133 v -3.119967 h 0.197908 v 3.019072 h 0.993422 z"
         style="font-style:normal;font-variant:normal;font-weight:bold;font-stretch:normal;font-size:3.88055563px;font-family:'Labtop Secundo Wide';-inkscape-font-specification:'Labtop Secundo Wide Bold';text-align:start;text-anchor:start;stroke-width:0.26458332"
         id="path11086" />
      <path
         d="m 68.038326,51.272357 h -0.989542 v 1.152525 h 0.853722 v 0.104775 h -0.853722 v 1.754012 h -0.197908 v -3.119967 h 1.18745 z"
         style="font-style:normal;font-variant:normal;font-weight:bold;font-stretch:normal;font-size:3.88055563px;font-family:'Labtop Secundo Wide';-inkscape-font-specification:'Labtop Secundo Wide Bold';text-align:start;text-anchor:start;stroke-width:0.26458332"
         id="path11088" />
      <path
         d="m 69.485773,53.841285 q 0,0.473428 -0.605366,0.473428 -0.597606,0 -0.597606,-0.473428 v -2.2352 q 0,-0.469547 0.597606,-0.469547 0.605366,0 0.605366,0.469547 z m -0.197908,0.0078 v -2.250722 q 0,-0.360892 -0.407458,-0.360892 -0.407459,0 -0.407459,0.360892 v 2.250722 q 0,0.368653 0.407459,0.368653 0.407458,0 0.407458,-0.368653 z"
         style="font-style:normal;font-variant:normal;font-weight:bold;font-stretch:normal;font-size:3.88055563px;font-family:'Labtop Secundo Wide';-inkscape-font-specification:'Labtop Secundo Wide Bold';text-align:start;text-anchor:start;stroke-width:0.26458332"
         id="path11090" />
      <path
         d="M 72.168814,54.283669 H 70.965842 V 52.89831 q 0,-0.236714 0.162983,-0.325967 0.104775,-0.05433 0.372533,-0.07373 0.306564,-0.0194 0.388056,-0.06985 0.08149,-0.05045 0.08149,-0.244475 v -0.585964 q 0,-0.360892 -0.407459,-0.360892 -0.407458,0 -0.407458,0.360892 v 0.232833 h -0.190147 v -0.225072 q 0,-0.469547 0.597605,-0.469547 0.605367,0 0.605367,0.469547 v 0.585964 q 0,0.244475 -0.120297,0.322086 -0.120298,0.07373 -0.48507,0.09701 -0.236714,0.01552 -0.322086,0.07373 -0.08537,0.05433 -0.08537,0.217311 v 1.276703 h 1.012825 z"
         style="font-style:normal;font-variant:normal;font-weight:bold;font-stretch:normal;font-size:3.88055563px;font-family:'Labtop Secundo Wide';-inkscape-font-specification:'Labtop Secundo Wide Bold';text-align:start;text-anchor:start;stroke-width:0.26458332"
         id="path11092" />
    </g>
    <path
       style="fill:#999999;fill-opacity:1;stroke-width:0.22657207"
       d="M 70.666641,58.789524 H 90.378099 V 70.563482 H 70.666641 Z"
       id="rect6948" />
    <path
       style="fill:#323232;fill-opacity:1;stroke-width:0.20366792"
       d="M 71.379715,59.715565 H 89.66502 v 9.988021 H 71.379715 Z"
       id="rect4735" />
    <g
       aria-label="HOLD"
       style="font-style:normal;font-weight:normal;font-size:3.52777767px;line-height:1.25;font-family:sans-serif;letter-spacing:0px;word-spacing:0px;fill:#ffffff;fill-opacity:1;stroke:none;stroke-width:0.26458332"
       id="text4978-4">
      <path
         d="M 76.499627,126.83101 H 76.36416 v -1.27282 h -0.592666 v 1.27282 H 75.62756 v -2.26907 h 0.143934 v 0.92569 h 0.592666 v -0.92569 h 0.135467 z"
         style="font-style:normal;font-variant:normal;font-weight:bold;font-stretch:normal;font-size:2.82222223px;font-family:'Labtop Secundo Wide';-inkscape-font-specification:'Labtop Secundo Wide Bold';stroke-width:0.26458332"
         id="path11097" />
      <path
         d="m 77.681785,126.50928 q 0,0.34431 -0.440266,0.34431 -0.434622,0 -0.434622,-0.34431 v -1.6256 q 0,-0.34149 0.434622,-0.34149 0.440266,0 0.440266,0.34149 z m -0.143933,0.006 v -1.63689 q 0,-0.26247 -0.296333,-0.26247 -0.296334,0 -0.296334,0.26247 v 1.63689 q 0,0.26811 0.296334,0.26811 0.296333,0 0.296333,-0.26811 z"
         style="font-style:normal;font-variant:normal;font-weight:bold;font-stretch:normal;font-size:2.82222223px;font-family:'Labtop Secundo Wide';-inkscape-font-specification:'Labtop Secundo Wide Bold';stroke-width:0.26458332"
         id="path11099" />
      <path
         d="m 78.888947,126.83101 h -0.866422 v -2.26907 h 0.143933 v 2.19569 h 0.722489 z"
         style="font-style:normal;font-variant:normal;font-weight:bold;font-stretch:normal;font-size:2.82222223px;font-family:'Labtop Secundo Wide';-inkscape-font-specification:'Labtop Secundo Wide Bold';stroke-width:0.26458332"
         id="path11101" />
      <path
         d="m 79.930744,126.51774 q 0,0.31327 -0.448734,0.31327 h -0.426155 v -2.26907 h 0.426155 q 0.270934,0 0.369712,0.0931 0.07902,0.0649 0.07902,0.25964 z m -0.143934,-0.008 v -1.6256 q 0,-0.15805 -0.09313,-0.20885 -0.06773,-0.0339 -0.245533,-0.0339 h -0.254 v 2.11667 h 0.254 q 0.217311,0 0.285044,-0.0564 0.05362,-0.0452 0.05362,-0.19191 z"
         style="font-style:normal;font-variant:normal;font-weight:bold;font-stretch:normal;font-size:2.82222223px;font-family:'Labtop Secundo Wide';-inkscape-font-specification:'Labtop Secundo Wide Bold';stroke-width:0.26458332"
         id="path11103" />
    </g>
    <g
       aria-label="MOM."
       style="font-style:normal;font-weight:normal;font-size:3.52777767px;line-height:1.25;font-family:sans-serif;letter-spacing:0px;word-spacing:0px;fill:#ffffff;fill-opacity:1;stroke:none;stroke-width:0.26458332"
       id="text5443-0">
      <path
         d="M 81.061043,121.98479 H 80.95521 v -1.42664 l -0.459317,1.32292 h -0.08678 l -0.440267,-1.30598 v 1.4097 h -0.10795 v -1.7018 h 0.110067 l 0.480483,1.43721 0.497417,-1.43721 h 0.112183 z"
         style="font-style:normal;font-variant:normal;font-weight:bold;font-stretch:normal;font-size:2.11666656px;font-family:'Labtop Secundo Wide';-inkscape-font-specification:'Labtop Secundo Wide Bold';stroke-width:0.26458332"
         id="path11106" />
      <path
         d="m 81.970052,121.74349 q 0,0.25823 -0.3302,0.25823 -0.325966,0 -0.325966,-0.25823 v -1.2192 q 0,-0.25612 0.325966,-0.25612 0.3302,0 0.3302,0.25612 z m -0.10795,0.004 v -1.22767 q 0,-0.19685 -0.22225,-0.19685 -0.22225,0 -0.22225,0.19685 v 1.22767 q 0,0.20108 0.22225,0.20108 0.22225,0 0.22225,-0.20108 z"
         style="font-style:normal;font-variant:normal;font-weight:bold;font-stretch:normal;font-size:2.11666656px;font-family:'Labtop Secundo Wide';-inkscape-font-specification:'Labtop Secundo Wide Bold';stroke-width:0.26458332"
         id="path11108" />
      <path
         d="m 83.425757,121.98479 h -0.105834 v -1.42664 l -0.459316,1.32292 h -0.08678 l -0.440266,-1.30598 v 1.4097 h -0.10795 v -1.7018 h 0.110066 l 0.480484,1.43721 0.497416,-1.43721 h 0.112184 z"
         style="font-style:normal;font-variant:normal;font-weight:bold;font-stretch:normal;font-size:2.11666656px;font-family:'Labtop Secundo Wide';-inkscape-font-specification:'Labtop Secundo Wide Bold';stroke-width:0.26458332"
         id="path11110" />
      <path
         d="m 83.830999,121.97632 h -0.1016 v -0.0783 h 0.1016 z"
         style="font-style:normal;font-variant:normal;font-weight:bold;font-stretch:normal;font-size:2.11666656px;font-family:'Labtop Secundo Wide';-inkscape-font-specification:'Labtop Secundo Wide Bold';stroke-width:0.26458332"
         id="path11112" />
    </g>
    <g
       aria-label="GATE"
       style="font-style:normal;font-weight:normal;font-size:3.52777767px;line-height:1.25;font-family:sans-serif;letter-spacing:0px;word-spacing:0px;fill:#ffffff;fill-opacity:1;stroke:none;stroke-width:0.26458332"
       id="text5443-0-4">
      <path
         d="m 80.818617,113.25664 q 0,0.25823 -0.3302,0.25823 -0.325967,0 -0.325967,-0.25823 v -1.2192 q 0,-0.25612 0.325967,-0.25612 0.3302,0 0.3302,0.25612 v 0.12277 h -0.10795 v -0.127 q 0,-0.19685 -0.22225,-0.19685 -0.22225,0 -0.22225,0.19685 v 1.22766 q 0,0.20109 0.22225,0.20109 0.22225,0 0.22225,-0.20109 v -0.70908 h -0.1778 v -0.0677 h 0.28575 z"
         style="font-style:normal;font-variant:normal;font-weight:bold;font-stretch:normal;font-size:2.11666656px;font-family:'Labtop Secundo Wide';-inkscape-font-specification:'Labtop Secundo Wide Bold';stroke-width:0.26458332"
         id="path11115" />
      <path
         d="m 81.800188,113.49794 h -0.103716 l -0.169334,-0.80222 h -0.281516 l -0.175684,0.80222 h -0.09525 l 0.3683,-1.7018 h 0.0889 z m -0.28575,-0.86783 -0.127,-0.60325 -0.129116,0.60325 z"
         style="font-style:normal;font-variant:normal;font-weight:bold;font-stretch:normal;font-size:2.11666656px;font-family:'Labtop Secundo Wide';-inkscape-font-specification:'Labtop Secundo Wide Bold';stroke-width:0.26458332"
         id="path11117" />
      <path
         d="m 82.548116,111.85541 h -0.347134 v 1.64253 h -0.10795 v -1.64253 h -0.357716 v -0.0593 h 0.8128 z"
         style="font-style:normal;font-variant:normal;font-weight:bold;font-stretch:normal;font-size:2.11666656px;font-family:'Labtop Secundo Wide';-inkscape-font-specification:'Labtop Secundo Wide Bold';stroke-width:0.26458332"
         id="path11119" />
      <path
         d="m 83.344263,113.49794 h -0.6477 v -1.7018 h 0.6477 v 0.0572 h -0.53975 v 0.63712 h 0.53975 v 0.0529 h -0.53975 v 0.89959 h 0.53975 z"
         style="font-style:normal;font-variant:normal;font-weight:bold;font-stretch:normal;font-size:2.11666656px;font-family:'Labtop Secundo Wide';-inkscape-font-specification:'Labtop Secundo Wide Bold';stroke-width:0.26458332"
         id="path11121" />
    </g>
    <g
       transform="matrix(0.26458333,0,0,0.26458333,34.617145,50.389004)"
       style="font-style:normal;font-variant:normal;font-weight:bold;font-stretch:normal;font-size:13.33333302px;line-height:1.25;font-family:Consolas;-inkscape-font-specification:'Consolas Bold';text-align:center;letter-spacing:0px;word-spacing:0px;text-anchor:middle;fill:#ffffff;fill-opacity:1;stroke:none"
       id="flowRoot1527" />
    <g
       aria-label="BI"
       style="font-style:normal;font-weight:normal;font-size:3.52777767px;line-height:1.25;font-family:sans-serif;letter-spacing:0px;word-spacing:0px;fill:#ffffff;fill-opacity:1;stroke:none;stroke-width:0.26458332"
       id="text5443-0-6">
      <path
         d="m 44.796192,121.71978 q 0,0.15029 -0.05292,0.20109 -0.06985,0.0635 -0.2794,0.0635 h -0.321733 v -1.7018 h 0.321733 q 0.332317,0 0.332317,0.23706 v 0.27729 q 0,0.1651 -0.179917,0.20531 0.179917,0.0381 0.179917,0.20744 z m -0.1016,-0.93133 v -0.26247 q 0,-0.12065 -0.07197,-0.15875 -0.0508,-0.0275 -0.188383,-0.0275 h -0.18415 v 0.63711 h 0.18415 q 0.156633,0 0.213783,-0.0423 0.04657,-0.036 0.04657,-0.14605 z m 0,0.95462 v -0.52917 q 0,-0.11853 -0.07408,-0.15875 -0.04868,-0.0254 -0.186267,-0.0254 h -0.18415 v 0.89958 h 0.18415 q 0.156633,0 0.213783,-0.0423 0.04657,-0.036 0.04657,-0.14393 z"
         style="font-style:normal;font-variant:normal;font-weight:bold;font-stretch:normal;font-size:2.11666656px;font-family:'Labtop Secundo Wide';-inkscape-font-specification:'Labtop Secundo Wide Bold';stroke-width:0.26458332"
         id="path11125" />
      <path
         d="m 45.21301,121.98225 h -0.2413 v -0.0656 h 0.06562 v -1.56421 h -0.06562 v -0.0656 h 0.2413 v 0.0656 h -0.06985 v 1.56421 h 0.06985 z"
         style="font-style:normal;font-variant:normal;font-weight:bold;font-stretch:normal;font-size:2.11666656px;font-family:'Labtop Secundo Wide';-inkscape-font-specification:'Labtop Secundo Wide Bold';stroke-width:0.26458332"
         id="path11127" />
    </g>
    <g
       aria-label="UNI"
       style="font-style:normal;font-weight:normal;font-size:3.52777767px;line-height:1.25;font-family:sans-serif;letter-spacing:0px;word-spacing:0px;fill:#ffffff;fill-opacity:1;stroke:none;stroke-width:0.26458332"
       id="text5443-0-4-9">
      <path
         d="m 44.533728,113.25658 q 0,0.25823 -0.3302,0.25823 -0.325967,0 -0.325967,-0.25823 v -1.4605 h 0.103717 v 1.46473 q 0,0.20109 0.22225,0.20109 0.22225,0 0.22225,-0.20109 v -1.46473 h 0.10795 z"
         style="font-style:normal;font-variant:normal;font-weight:bold;font-stretch:normal;font-size:2.11666656px;font-family:'Labtop Secundo Wide';-inkscape-font-specification:'Labtop Secundo Wide Bold';stroke-width:0.26458332"
         id="path11130" />
      <path
         d="m 45.483549,113.49788 h -0.12065 v -0.036 l -0.465667,-1.37372 v 1.4097 h -0.10795 v -1.7018 h 0.10795 v 0.004 h 0.0063 l 0.459317,1.34832 v -1.35255 h 0.105833 z"
         style="font-style:normal;font-variant:normal;font-weight:bold;font-stretch:normal;font-size:2.11666656px;font-family:'Labtop Secundo Wide';-inkscape-font-specification:'Labtop Secundo Wide Bold';stroke-width:0.26458332"
         id="path11132" />
      <path
         d="m 45.874371,113.49576 h -0.241299 v -0.0656 h 0.06562 v -1.56422 h -0.06562 v -0.0656 h 0.241299 v 0.0656 h -0.06985 v 1.56422 h 0.06985 z"
         style="font-style:normal;font-variant:normal;font-weight:bold;font-stretch:normal;font-size:2.11666656px;font-family:'Labtop Secundo Wide';-inkscape-font-specification:'Labtop Secundo Wide Bold';stroke-width:0.26458332"
         id="path11134" />
    </g>
    <g
       aria-label="PAUSE"
       style="font-style:normal;font-weight:normal;font-size:3.52777767px;line-height:1.25;font-family:sans-serif;letter-spacing:0px;word-spacing:0px;fill:#ffffff;fill-opacity:1;stroke:none;stroke-width:0.26458332"
       id="text5443-0-4-7">
      <path
         d="m 67.285782,112.40284 q 0,0.23283 -0.332317,0.23283 h -0.213783 v 0.95674 h -0.10795 v -1.7018 h 0.321733 q 0.20955,0 0.2794,0.0677 0.05292,0.0529 0.05292,0.19685 z m -0.1016,-0.008 v -0.26246 q 0,-0.12065 -0.07408,-0.15664 -0.04868,-0.0254 -0.186267,-0.0254 h -0.18415 v 0.62865 h 0.18415 q 0.156633,0 0.213783,-0.0381 0.04657,-0.0381 0.04657,-0.14605 z"
         style="font-style:normal;font-variant:normal;font-weight:bold;font-stretch:normal;font-size:2.11666656px;font-family:'Labtop Secundo Wide';-inkscape-font-specification:'Labtop Secundo Wide Bold';stroke-width:0.26458332"
         id="path11137" />
      <path
         d="m 68.115862,113.59241 h -0.103716 l -0.169334,-0.80222 h -0.281516 l -0.175683,0.80222 h -0.09525 l 0.368299,-1.7018 h 0.0889 z m -0.28575,-0.86784 -0.127,-0.60325 -0.129116,0.60325 z"
         style="font-style:normal;font-variant:normal;font-weight:bold;font-stretch:normal;font-size:2.11666656px;font-family:'Labtop Secundo Wide';-inkscape-font-specification:'Labtop Secundo Wide Bold';stroke-width:0.26458332"
         id="path11139" />
      <path
         d="m 68.930564,113.35111 q 0,0.25823 -0.3302,0.25823 -0.325966,0 -0.325966,-0.25823 v -1.4605 h 0.103716 v 1.46473 q 0,0.20108 0.22225,0.20108 0.22225,0 0.22225,-0.20108 v -1.46473 h 0.10795 z"
         style="font-style:normal;font-variant:normal;font-weight:bold;font-stretch:normal;font-size:2.11666656px;font-family:'Labtop Secundo Wide';-inkscape-font-specification:'Labtop Secundo Wide Bold';stroke-width:0.26458332"
         id="path11141" />
      <path
         d="m 69.804185,113.35111 q 0,0.25823 -0.32385,0.25823 -0.332316,0 -0.332316,-0.25823 v -0.12065 h 0.110066 v 0.12488 q 0,0.19685 0.22225,0.19685 0.22225,0 0.22225,-0.19685 v -0.54822 q 0,-0.15875 -0.22225,-0.15875 -0.332316,0 -0.332316,-0.26035 v -0.25611 q 0,-0.25612 0.332316,-0.25612 0.32385,0 0.32385,0.25612 v 0.13335 h -0.1016 v -0.13759 q 0,-0.19896 -0.22225,-0.19896 -0.22225,0 -0.22225,0.19896 v 0.2667 q 0,0.20109 0.22225,0.20109 0.2921,0 0.321734,0.18838 h 0.0021 z"
         style="font-style:normal;font-variant:normal;font-weight:bold;font-stretch:normal;font-size:2.11666656px;font-family:'Labtop Secundo Wide';-inkscape-font-specification:'Labtop Secundo Wide Bold';stroke-width:0.26458332"
         id="path11143" />
      <path
         d="m 70.670729,113.59241 h -0.6477 v -1.7018 h 0.6477 v 0.0572 h -0.53975 v 0.63711 h 0.53975 v 0.0529 h -0.53975 v 0.89958 h 0.53975 z"
         style="font-style:normal;font-variant:normal;font-weight:bold;font-stretch:normal;font-size:2.11666656px;font-family:'Labtop Secundo Wide';-inkscape-font-specification:'Labtop Secundo Wide Bold';stroke-width:0.26458332"
         id="path11145" />
    </g>
    <g
       aria-label="FREE"
       style="font-style:normal;font-weight:normal;font-size:3.52777767px;line-height:1.25;font-family:sans-serif;letter-spacing:0px;word-spacing:0px;fill:#ffffff;fill-opacity:1;stroke:none;stroke-width:0.26458332"
       id="text5443-0-4-0">
      <path
         d="m 67.579915,120.44855 h -0.53975 v 0.62865 h 0.465667 v 0.0571 h -0.465667 v 0.95674 h -0.10795 v -1.7018 h 0.6477 z"
         style="font-style:normal;font-variant:normal;font-weight:bold;font-stretch:normal;font-size:2.11666656px;font-family:'Labtop Secundo Wide';-inkscape-font-specification:'Labtop Secundo Wide Bold';stroke-width:0.26458332"
         id="path11148" />
      <path
         d="m 68.382132,122.09109 h -0.1016 v -0.74507 q 0,-0.10372 -0.05292,-0.14182 -0.06562,-0.0466 -0.207433,-0.0466 h -0.18415 v 0.93345 h -0.10795 v -1.7018 h 0.321733 q 0.20955,0 0.2794,0.0677 0.05292,0.0529 0.05292,0.19685 v 0.25823 q 0,0.17145 -0.179917,0.20532 0.179917,0.0444 0.179917,0.22013 z m -0.1016,-1.18534 v -0.27516 q 0,-0.12065 -0.07408,-0.15664 -0.04868,-0.0254 -0.186267,-0.0254 h -0.18415 v 0.64347 h 0.18415 q 0.137583,0 0.188383,-0.0275 0.07197,-0.0381 0.07197,-0.15875 z"
         style="font-style:normal;font-variant:normal;font-weight:bold;font-stretch:normal;font-size:2.11666656px;font-family:'Labtop Secundo Wide';-inkscape-font-specification:'Labtop Secundo Wide Bold';stroke-width:0.26458332"
         id="path11150" />
      <path
         d="m 69.303444,122.09109 h -0.6477 v -1.7018 h 0.6477 v 0.0571 h -0.53975 v 0.63711 h 0.53975 v 0.0529 h -0.53975 v 0.89958 h 0.53975 z"
         style="font-style:normal;font-variant:normal;font-weight:bold;font-stretch:normal;font-size:2.11666656px;font-family:'Labtop Secundo Wide';-inkscape-font-specification:'Labtop Secundo Wide Bold';stroke-width:0.26458332"
         id="path11152" />
      <path
         d="m 70.121999,122.09109 h -0.6477 v -1.7018 h 0.6477 v 0.0571 h -0.53975 v 0.63711 h 0.53975 v 0.0529 h -0.53975 v 0.89958 h 0.53975 z"
         style="font-style:normal;font-variant:normal;font-weight:bold;font-stretch:normal;font-size:2.11666656px;font-family:'Labtop Secundo Wide';-inkscape-font-specification:'Labtop Secundo Wide Bold';stroke-width:0.26458332"
         id="path11154" />
    </g>
    <g
       aria-label="FROZEN WASTELAND"
       style="font-style:normal;font-variant:normal;font-weight:bold;font-stretch:normal;font-size:3.52777767px;line-height:1.25;font-family:Consolas;-inkscape-font-specification:'Consolas Bold';text-align:start;letter-spacing:0px;word-spacing:0px;text-anchor:start;fill:#00a3f2;fill-opacity:1;stroke:none;stroke-width:0.26458332"
       id="text3885-7">
      <path
         d="m 50.764241,150.10076 q 0.119944,-0.11995 0.1905,-0.21167 0.07408,-0.0917 0.112889,-0.16933 0.04233,-0.0776 0.05292,-0.14464 0.01411,-0.0706 0.01411,-0.14817 0,-0.0952 -0.04586,-0.2293 -0.04586,-0.13406 -0.102305,-0.28575 -0.05645,-0.1517 -0.102306,-0.31045 -0.04586,-0.15875 -0.04586,-0.30339 0,-0.0776 0.0247,-0.15169 0.02822,-0.0741 0.06703,-0.14111 0.04233,-0.0706 0.09172,-0.13053 0.04939,-0.0635 0.09878,-0.11289 -0.07055,-0.0141 -0.123472,-0.0212 -0.05292,-0.0106 -0.07761,-0.0106 -0.130528,0 -0.22225,0.0706 -0.08819,0.067 -0.1905,0.16933 0,-0.11994 0.03528,-0.24694 0.0388,-0.13053 0.116416,-0.23637 0.07761,-0.10583 0.194028,-0.17286 0.119945,-0.067 0.282222,-0.067 0.112889,0 0.208139,0.0176 0.09878,0.0141 0.179917,0.0353 0.08114,0.0212 0.148167,0.0388 0.06703,0.0141 0.119944,0.0141 0.08114,0 0.141111,-0.0212 0.0635,-0.0247 0.123472,-0.0847 0,0.0776 -0.03175,0.17638 -0.02822,0.0988 -0.08819,0.1905 -0.05644,0.0882 -0.148167,0.1517 -0.09172,0.06 -0.211666,0.06 -0.05997,0 -0.137584,-0.007 -0.07408,-0.0106 -0.155222,-0.0247 -0.0071,0.0247 -0.01058,0.0459 -0.0035,0.0212 -0.0071,0.0388 -0.0035,0.0212 -0.0035,0.0388 0,0.0776 0.01058,0.1517 0.01411,0.0705 0.0388,0.14464 h 0.712611 l -0.08114,0.23989 q -0.01058,0.0459 -0.01411,0.067 -0.0035,0.0212 -0.01058,0.067 l -0.130528,-0.0917 h -0.363361 q 0.07761,0.17639 0.144639,0.35983 0.06703,0.17992 0.06703,0.38453 0,0.18344 -0.07408,0.34219 -0.07408,0.15523 -0.197556,0.27164 -0.119944,0.11642 -0.278694,0.17992 -0.155223,0.067 -0.321028,0.067 z"
         style="font-style:normal;font-variant:normal;font-weight:normal;font-stretch:normal;font-family:'Bradley Gratis';-inkscape-font-specification:'Bradley Gratis';text-align:start;text-anchor:start;stroke-width:0.26458332"
         id="path11157" />
      <path
         d="m 52.83433,148.37215 q 0.07055,-0.0423 0.137583,-0.0988 0.07056,-0.0565 0.123472,-0.127 0.05644,-0.0706 0.08819,-0.16228 0.03528,-0.0953 0.03528,-0.21167 0,-0.0988 -0.0388,-0.1658 -0.03528,-0.0706 -0.08467,-0.11289 -0.04939,-0.0423 -0.09878,-0.06 -0.04586,-0.0176 -0.07055,-0.0176 -0.02822,0 -0.05292,0.0106 -0.02117,0.0106 -0.0388,0.0247 z m -0.518584,-0.94192 q -0.112888,-0.0635 -0.112888,-0.23636 0.03175,0.0317 0.112888,0.0564 0.08114,0.0212 0.172862,0.0212 0.04586,0 0.130527,-0.0106 0.08467,-0.0141 0.172861,-0.0282 0.09172,-0.0141 0.172861,-0.0247 0.08467,-0.0141 0.130528,-0.0141 0.116417,0 0.232834,0.0353 0.116416,0.0353 0.215194,0.11994 0.09878,0.0847 0.165806,0.22931 0.07056,0.14111 0.09172,0.35983 l -0.627945,0.4445 q 0.07056,0.0282 0.15875,0.0952 0.08819,0.067 0.165806,0.18697 0.08114,0.11995 0.134055,0.30692 0.05292,0.18344 0.05292,0.45155 0,0.23284 0.02117,0.37748 0.02117,0.14464 0.05292,0.23283 0.03175,0.0882 0.06703,0.13053 0.03881,0.0459 0.07056,0.0776 -0.155222,0 -0.275167,-0.0917 -0.119944,-0.0882 -0.211667,-0.23284 -0.09172,-0.14464 -0.162277,-0.32808 -0.06703,-0.18344 -0.123473,-0.37042 -0.05644,-0.18697 -0.105833,-0.35983 -0.04586,-0.17286 -0.09525,-0.29986 -0.02469,0.0176 -0.04939,0.0353 -0.02117,0.0141 -0.0388,0.0317 v 1.31939 h -0.518584 z"
         style="font-style:normal;font-variant:normal;font-weight:normal;font-stretch:normal;font-family:'Bradley Gratis';-inkscape-font-specification:'Bradley Gratis';text-align:start;text-anchor:start;stroke-width:0.26458332"
         id="path11159" />
      <path
         d="m 54.722077,149.47987 q 0,0.11994 0.01411,0.18697 0.01764,0.067 0.04233,0.10231 0.02822,0.0318 0.0635,0.0388 0.03528,0.007 0.07056,0.007 0.07055,0 0.116416,-0.0952 0.04586,-0.0988 0.04586,-0.29986 v -1.53106 q 0,-0.15875 -0.01764,-0.25753 -0.01411,-0.1023 -0.04233,-0.15522 -0.02469,-0.0564 -0.05997,-0.0776 -0.03175,-0.0212 -0.0635,-0.0212 -0.06703,0 -0.119944,0.0847 -0.04939,0.0811 -0.04939,0.26106 z m 1.005416,-0.88547 q 0,0.25752 -0.06703,0.508 -0.0635,0.25047 -0.176388,0.44802 -0.109362,0.19756 -0.261056,0.32103 -0.151694,0.11995 -0.321028,0.11995 -0.15875,0 -0.310444,-0.10936 -0.148167,-0.10937 -0.264583,-0.29987 -0.112889,-0.1905 -0.183445,-0.4445 -0.07055,-0.254 -0.07055,-0.54327 0,-0.23636 0.0635,-0.48331 0.06703,-0.25047 0.179916,-0.45155 0.112889,-0.20109 0.264584,-0.32809 0.151694,-0.13053 0.321027,-0.13053 0.148167,0 0.292806,0.10937 0.148166,0.10936 0.264583,0.29986 0.119945,0.18697 0.194028,0.44097 0.07408,0.254 0.07408,0.54328 z"
         style="font-style:normal;font-variant:normal;font-weight:normal;font-stretch:normal;font-family:'Bradley Gratis';-inkscape-font-specification:'Bradley Gratis';text-align:start;text-anchor:start;stroke-width:0.26458332"
         id="path11161" />
      <path
         d="m 55.881558,149.95259 q 0.04586,-0.27164 0.130528,-0.51153 0.08819,-0.23989 0.194027,-0.45861 0.105834,-0.21872 0.218723,-0.41628 0.116416,-0.20108 0.218722,-0.38805 0.102305,-0.18697 0.179917,-0.36336 0.07761,-0.17992 0.112888,-0.35984 -0.02822,-0.0176 -0.06703,-0.0317 -0.03528,-0.0141 -0.137584,-0.0141 -0.05292,0 -0.09525,0.0282 -0.03881,0.0247 -0.06703,0.0635 -0.02822,0.0353 -0.04586,0.0776 -0.01411,0.0388 -0.01411,0.0635 0,0.0282 0.01058,0.067 0.01411,0.0353 0.02822,0.0706 0.01764,0.0353 0.03528,0.067 0.01764,0.0282 0.03175,0.0423 l -0.430389,0.26811 q -0.08467,-0.0811 -0.144639,-0.19755 -0.05645,-0.11995 -0.05645,-0.23989 0,-0.06 0.03175,-0.14817 0.03175,-0.0882 0.102306,-0.16933 0.07056,-0.0847 0.183444,-0.14111 0.116417,-0.06 0.282223,-0.06 0.130527,0 0.218722,0.0176 0.08819,0.0176 0.155222,0.0423 0.06703,0.0212 0.123472,0.0388 0.05997,0.0176 0.134056,0.0176 0.04586,0 0.09878,-0.007 0.05292,-0.007 0.09878,-0.0212 0.04586,-0.0141 0.08114,-0.0282 0.03881,-0.0176 0.05997,-0.0388 -0.04233,0.22225 -0.134056,0.46214 -0.09172,0.23989 -0.204611,0.47978 -0.109361,0.23989 -0.232833,0.46919 -0.119945,0.22931 -0.22225,0.43039 -0.09878,0.19756 -0.169334,0.35983 -0.06703,0.15875 -0.07408,0.26106 0.141111,0.06 0.239889,0.06 0.0635,0 0.130528,-0.0141 0.06703,-0.0176 0.119944,-0.0529 0.05644,-0.0353 0.09172,-0.0882 0.03528,-0.0564 0.03528,-0.13406 0,-0.0776 -0.01764,-0.127 -0.01411,-0.0529 -0.03881,-0.0847 -0.0247,-0.0353 -0.05644,-0.06 -0.03175,-0.0282 -0.05997,-0.0564 l 0.405694,-0.29986 q 0.141111,0.10583 0.201084,0.22578 0.05997,0.11994 0.05997,0.26105 0,0.067 -0.02117,0.13053 -0.01764,0.06 -0.04586,0.11289 -0.02469,0.0494 -0.05997,0.0917 -0.03175,0.0423 -0.05644,0.067 l 0.05997,0.06 q 0.01764,0.0176 0.0388,0.0529 0.02117,0.0318 0.02117,0.0564 0,0.0282 -0.02469,0.0811 -0.02117,0.0564 -0.08819,0.0988 -0.02469,-0.0318 -0.05644,-0.0564 -0.02822,-0.0212 -0.05997,-0.0388 -0.03175,-0.0176 -0.06703,-0.0176 z"
         style="font-style:normal;font-variant:normal;font-weight:normal;font-stretch:normal;font-family:'Bradley Gratis';-inkscape-font-specification:'Bradley Gratis';text-align:start;text-anchor:start;stroke-width:0.26458332"
         id="path11163" />
      <path
         d="m 59.387893,147.22562 v 0.381 q -0.0388,-0.0353 -0.102305,-0.0776 -0.05997,-0.0423 -0.130528,-0.0741 -0.06703,-0.0353 -0.134055,-0.0564 -0.06703,-0.0247 -0.112889,-0.0247 -0.08467,0 -0.172861,0.067 -0.08819,0.067 -0.144639,0.17992 -0.05644,0.10936 -0.07408,0.28928 -0.01411,0.17639 -0.01411,0.45508 h 0.903111 l -0.179916,0.40217 q -0.03528,-0.0529 -0.08467,-0.0706 -0.04586,-0.0212 -0.08467,-0.0212 h -0.553861 q 0,0.20108 0.0071,0.39511 0.0071,0.1905 0.04586,0.34219 0.04233,0.1517 0.127,0.24695 0.08467,0.0917 0.243417,0.0917 0.08467,0 0.165805,-0.0317 0.08467,-0.0318 0.155222,-0.0776 0.07056,-0.0494 0.123473,-0.10231 0.05644,-0.0529 0.08819,-0.0952 v 0.508 h -0.47625 q -0.342194,0 -0.553861,-0.11994 -0.211667,-0.12348 -0.331611,-0.32809 -0.116417,-0.20814 -0.15875,-0.47977 -0.03881,-0.27164 -0.03881,-0.56798 0,-0.0741 0.01058,-0.19402 0.01058,-0.12348 0.04586,-0.25753 0.03528,-0.13759 0.102305,-0.27517 0.06703,-0.14111 0.179917,-0.25047 0.116417,-0.11289 0.28575,-0.18345 0.169333,-0.0705 0.409222,-0.0705 z"
         style="font-style:normal;font-variant:normal;font-weight:normal;font-stretch:normal;font-family:'Bradley Gratis';-inkscape-font-specification:'Bradley Gratis';text-align:start;text-anchor:start;stroke-width:0.26458332"
         id="path11165" />
      <path
         d="m 59.774295,149.95259 v -2.43769 q 0,-0.0988 -0.04233,-0.16581 -0.04233,-0.0705 -0.08467,-0.12347 h 0.684389 v 0.35983 l 0.391584,-0.45508 q 0.179916,0.16228 0.296333,0.32455 0.116417,0.15875 0.183444,0.32103 0.06703,0.15875 0.09172,0.32456 0.02469,0.16228 0.02469,0.33514 0,0.16933 -0.02822,0.32455 -0.0247,0.1517 -0.07408,0.29986 -0.04939,0.14817 -0.119944,0.29986 -0.06703,0.1517 -0.148167,0.3175 h 0.127 q 0.04586,0 0.09525,-0.0318 0.04939,-0.0317 0.09878,-0.0317 v 0.33867 h -0.684389 q 0.09525,-0.19403 0.151695,-0.34925 0.05997,-0.15522 0.09172,-0.29633 0.03175,-0.14111 0.04233,-0.27517 0.01058,-0.13405 0.01058,-0.28575 0,-0.15169 -0.05292,-0.31397 -0.04939,-0.16581 -0.123472,-0.30339 -0.07408,-0.13758 -0.15875,-0.22578 -0.08114,-0.0882 -0.148167,-0.0882 -0.04233,0 -0.06703,0.0212 v 2.11667 z"
         style="font-style:normal;font-variant:normal;font-weight:normal;font-stretch:normal;font-family:'Bradley Gratis';-inkscape-font-specification:'Bradley Gratis';text-align:start;text-anchor:start;stroke-width:0.26458332"
         id="path11167" />
      <path
         d="m 63.012465,150.06901 q -0.1905,-0.13759 -0.324556,-0.29281 -0.134056,-0.15875 -0.215194,-0.32808 -0.08114,-0.16933 -0.119945,-0.3422 -0.03528,-0.17638 -0.03528,-0.34572 0,-0.1658 0.03528,-0.32808 0.03528,-0.16581 0.09172,-0.32456 0.05997,-0.16227 0.137584,-0.31397 0.07761,-0.15522 0.15875,-0.30339 h -0.02117 q -0.01058,0 -0.02469,0 -0.01058,-0.004 -0.02822,-0.004 -0.05644,0 -0.137583,0.0141 -0.07761,0.0141 -0.151694,0.0705 v -0.34572 h 0.740833 q -0.09172,0.15875 -0.15875,0.32103 -0.0635,0.15875 -0.105833,0.31044 -0.03881,0.14817 -0.05997,0.28222 -0.01764,0.13053 -0.01764,0.23636 0,0.10584 0.02117,0.254 0.02117,0.14817 0.07761,0.30692 0.05997,0.15522 0.15875,0.29633 0.102306,0.14112 0.264584,0.22931 l 0.105833,-0.0776 q -0.0635,-0.11995 -0.09878,-0.22931 -0.03528,-0.11289 -0.05292,-0.21166 -0.01411,-0.0988 -0.01764,-0.17992 -0.0035,-0.0847 -0.0035,-0.15169 0,-0.10937 0.02822,-0.24695 0.02822,-0.13758 0.08114,-0.28575 0.05292,-0.14817 0.127,-0.29986 0.07761,-0.15169 0.172861,-0.29633 -0.134056,0 -0.22225,0.0212 -0.08467,0.0212 -0.144639,0.06 v -0.33867 h 0.762 q -0.0635,0.0882 -0.127,0.20108 -0.05997,0.10936 -0.105833,0.23989 -0.04586,0.127 -0.07408,0.27164 -0.02822,0.14464 -0.02822,0.29633 0,0.25753 0.04586,0.45861 0.04586,0.19756 0.127,0.34925 0.08114,0.1517 0.1905,0.26106 0.109361,0.10936 0.232834,0.18697 v -2.26483 h 0.529166 v 2.12019 q 0,0.0247 -0.03528,0.0706 -0.03528,0.0423 -0.09172,0.0988 -0.05292,0.0564 -0.127,0.12347 -0.07055,0.0635 -0.144639,0.127 -0.176388,0.14817 -0.398638,0.32455 -0.172862,-0.13405 -0.296334,-0.26458 -0.123472,-0.13053 -0.211666,-0.254 z"
         style="font-style:normal;font-variant:normal;font-weight:normal;font-stretch:normal;font-family:'Bradley Gratis';-inkscape-font-specification:'Bradley Gratis';text-align:start;text-anchor:start;stroke-width:0.26458332"
         id="path11169" />
      <path
         d="m 66.264524,148.25573 v -0.87842 h -0.416278 q -0.0035,0.23636 -0.01411,0.4692 -0.0071,0.2293 -0.01764,0.40922 z m 0.719667,-1.03011 q -0.03881,0.0282 -0.07408,0.0705 -0.03175,0.0423 -0.05644,0.0917 -0.02117,0.0459 -0.03528,0.0917 -0.01411,0.0423 -0.01411,0.0741 v 2.39889 h -0.53975 v -1.32997 h -0.472722 q -0.0035,0.127 -0.03528,0.27869 -0.03175,0.14817 -0.08819,0.29986 -0.05292,0.14817 -0.127,0.28928 -0.07056,0.13759 -0.162278,0.24342 -0.08819,0.10583 -0.1905,0.16933 -0.09878,0.0635 -0.208139,0.0635 -0.07056,0 -0.123472,-0.0423 -0.04939,-0.0423 -0.04939,-0.11995 0,-0.0494 0.03175,-0.0705 0.03175,-0.0247 0.06703,-0.0247 0.03175,0 0.04939,0.0106 0.01764,0.007 0.03175,0.0212 0.01764,0.0106 0.0388,0.0212 0.02117,0.007 0.05997,0.007 0.0635,0 0.102306,-0.0635 0.0388,-0.067 0.0635,-0.17639 0.02469,-0.11289 0.03528,-0.25753 0.01411,-0.14817 0.02117,-0.31044 0.0071,-0.16228 0.01764,-0.32809 0.01058,-0.16933 0.02822,-0.32455 0.02117,-0.18345 0.0635,-0.33514 0.04586,-0.1517 0.09525,-0.26811 0.04939,-0.11642 0.09878,-0.19756 0.04939,-0.0811 0.08467,-0.13053 h -0.07761 q -0.06703,0 -0.123472,0.0212 -0.05644,0.0176 -0.102306,0.0423 -0.04233,0.0212 -0.07761,0.0423 -0.03175,0.0176 -0.05644,0.0176 -0.05997,0 -0.08819,-0.0423 -0.02822,-0.0423 -0.02822,-0.0952 0,-0.0494 0.05292,-0.0917 0.05645,-0.0459 0.155223,-0.0459 z"
         style="font-style:normal;font-variant:normal;font-weight:normal;font-stretch:normal;font-family:'Bradley Gratis';-inkscape-font-specification:'Bradley Gratis';text-align:start;text-anchor:start;stroke-width:0.26458332"
         id="path11171" />
      <path
         d="m 67.764381,150.07606 q -0.08114,-0.0811 -0.186972,-0.15875 -0.102305,-0.0776 -0.201083,-0.13758 -0.09525,-0.06 -0.169333,-0.10231 -0.07056,-0.0423 -0.08114,-0.0529 0.03528,-0.0423 0.08819,-0.11642 0.05292,-0.0776 0.102306,-0.15169 0.05292,-0.0741 0.09172,-0.13053 0.04233,-0.06 0.05292,-0.0706 0.04939,0.0318 0.134055,0.0882 0.08819,0.0529 0.172861,0.11289 0.08819,0.06 0.15875,0.10936 0.07056,0.0494 0.09172,0.0705 0.04939,-0.0282 0.08114,-0.0741 0.03528,-0.0459 0.03528,-0.14817 0,-0.0882 -0.07408,-0.18697 -0.07056,-0.0988 -0.176389,-0.20814 -0.105833,-0.10936 -0.232833,-0.2293 -0.127,-0.11995 -0.232834,-0.24695 -0.105833,-0.127 -0.179916,-0.25753 -0.07056,-0.13052 -0.07056,-0.26811 0,-0.0988 0.04939,-0.18344 0.05292,-0.0882 0.130528,-0.16228 0.07761,-0.0776 0.169333,-0.13758 0.09525,-0.0635 0.179917,-0.11642 0.08819,-0.0564 0.155222,-0.0988 0.06703,-0.0459 0.09525,-0.0811 0.02117,0.0176 0.09172,0.0882 0.07408,0.067 0.15875,0.14464 0.08467,0.0776 0.15875,0.13758 0.07761,0.06 0.102306,0.06 -0.03528,0.0282 -0.08819,0.0847 -0.04939,0.0529 -0.102305,0.11289 -0.04939,0.06 -0.09172,0.11642 -0.0388,0.0529 -0.05644,0.0811 -0.08114,-0.0353 -0.162278,-0.10583 -0.08114,-0.0705 -0.148166,-0.13758 -0.06703,-0.067 -0.112889,-0.11642 -0.04586,-0.0529 -0.05997,-0.0529 -0.02822,0 -0.04939,0.0317 -0.01764,0.0282 -0.01764,0.067 0,0.0847 0.07408,0.17992 0.07761,0.0952 0.186972,0.20461 0.112889,0.10583 0.243417,0.22578 0.134055,0.11641 0.243417,0.24341 0.112888,0.127 0.186972,0.26459 0.07761,0.13405 0.07761,0.27516 0,0.127 -0.09525,0.26812 -0.09525,0.14111 -0.229306,0.28222 -0.130527,0.13758 -0.268111,0.26458 -0.137583,0.12347 -0.225778,0.21872 z"
         style="font-style:normal;font-variant:normal;font-weight:normal;font-stretch:normal;font-family:'Bradley Gratis';-inkscape-font-specification:'Bradley Gratis';text-align:start;text-anchor:start;stroke-width:0.26458332"
         id="path11173" />
      <path
         d="m 70.249369,149.47634 q 0,0.13758 -0.05644,0.23989 -0.05644,0.0988 -0.148167,0.16228 -0.08819,0.0635 -0.197555,0.0952 -0.109361,0.0317 -0.215195,0.0317 -0.165805,0 -0.324555,-0.0811 -0.15875,-0.0811 -0.28575,-0.21872 -0.127,-0.14111 -0.204611,-0.32809 -0.07761,-0.1905 -0.07761,-0.40922 0,-0.39158 0.179917,-0.72672 0.179917,-0.33867 0.500945,-0.61383 -0.02822,-0.004 -0.05292,-0.004 -0.02117,-0.004 -0.04586,-0.004 -0.08467,0 -0.179917,0.0282 -0.09525,0.0282 -0.179917,0.0741 -0.08467,0.0423 -0.155222,0.0952 -0.06703,0.0529 -0.102305,0.0988 0.02822,-0.13758 0.105833,-0.27164 0.07761,-0.13405 0.194028,-0.23636 0.116416,-0.1023 0.268111,-0.1658 0.151694,-0.0635 0.331611,-0.0635 0.09172,0 0.194028,0.0282 0.102305,0.0282 0.194028,0.0741 0.09525,0.0423 0.169333,0.0952 0.07408,0.0529 0.112889,0.10231 l -0.289278,0.44097 q -0.176389,-0.17286 -0.381,-0.24694 -0.04586,0.0741 -0.09525,0.17639 -0.04939,0.0988 -0.09172,0.22577 -0.03881,0.127 -0.06703,0.28223 -0.02469,0.15169 -0.02469,0.33161 0,0.16933 0.02469,0.29986 0.02822,0.13053 0.07056,0.22578 0.04233,0.0952 0.09525,0.15875 0.05644,0.0635 0.112888,0.10583 0.134056,0.0952 0.306917,0.10583 0.07056,0 0.162278,-0.0282 0.09525,-0.0317 0.151694,-0.0811 z"
         style="font-style:normal;font-variant:normal;font-weight:normal;font-stretch:normal;font-family:'Bradley Gratis';-inkscape-font-specification:'Bradley Gratis';text-align:start;text-anchor:start;stroke-width:0.26458332"
         id="path11175" />
      <path
         d="m 72.017614,147.22562 v 0.381 q -0.03881,-0.0353 -0.102306,-0.0776 -0.05997,-0.0423 -0.130528,-0.0741 -0.06703,-0.0353 -0.134055,-0.0564 -0.06703,-0.0247 -0.112889,-0.0247 -0.08467,0 -0.172861,0.067 -0.08819,0.067 -0.144639,0.17992 -0.05644,0.10936 -0.07408,0.28928 -0.01411,0.17639 -0.01411,0.45508 h 0.903111 l -0.179916,0.40217 q -0.03528,-0.0529 -0.08467,-0.0706 -0.04586,-0.0212 -0.08467,-0.0212 h -0.553862 q 0,0.20108 0.0071,0.39511 0.0071,0.1905 0.04586,0.34219 0.04233,0.1517 0.127,0.24695 0.08467,0.0917 0.243417,0.0917 0.08467,0 0.165805,-0.0317 0.08467,-0.0318 0.155223,-0.0776 0.07055,-0.0494 0.123472,-0.10231 0.05644,-0.0529 0.08819,-0.0952 v 0.508 h -0.47625 q -0.342194,0 -0.553861,-0.11994 -0.211667,-0.12348 -0.331611,-0.32809 -0.116417,-0.20814 -0.15875,-0.47977 -0.03881,-0.27164 -0.03881,-0.56798 0,-0.0741 0.01058,-0.19402 0.01058,-0.12348 0.04586,-0.25753 0.03528,-0.13759 0.102305,-0.27517 0.06703,-0.14111 0.179917,-0.25047 0.116417,-0.11289 0.28575,-0.18345 0.169333,-0.0705 0.409222,-0.0705 z"
         style="font-style:normal;font-variant:normal;font-weight:normal;font-stretch:normal;font-family:'Bradley Gratis';-inkscape-font-specification:'Bradley Gratis';text-align:start;text-anchor:start;stroke-width:0.26458332"
         id="path11177" />
      <path
         d="m 73.296543,147.92059 q -0.08819,-0.21167 -0.151695,-0.35278 -0.0635,-0.14111 -0.09878,-0.14111 -0.03881,0 -0.05292,0.0353 -0.01058,0.0317 -0.01058,0.0564 v 1.91206 q 0,0.0776 -0.04233,0.16228 -0.04233,0.0847 -0.112889,0.14816 0.130528,0 0.232834,-0.0635 0.102305,-0.067 0.211666,-0.14463 0.112889,-0.0811 0.250473,-0.14464 0.137583,-0.067 0.342194,-0.067 v 0.63147 H 72.26996 q 0.04586,-0.067 0.07761,-0.127 0.03528,-0.06 0.05644,-0.11994 0.02117,-0.06 0.03175,-0.127 0.01058,-0.067 0.01058,-0.14817 v -1.66864 q 0,-0.11289 -0.04233,-0.18344 -0.04233,-0.0741 -0.05997,-0.10231 0.01411,-0.004 0.07055,-0.0247 0.05997,-0.0247 0.144639,-0.0565 0.08467,-0.0317 0.186973,-0.067 0.102305,-0.0353 0.201083,-0.0635 0.09878,-0.0317 0.186972,-0.0494 0.08819,-0.0212 0.144639,-0.0212 0.08819,0 0.165806,0.0494 0.07761,0.0494 0.141111,0.12347 0.0635,0.0741 0.109361,0.16581 0.04586,0.0882 0.07408,0.1658 z"
         style="font-style:normal;font-variant:normal;font-weight:normal;font-stretch:normal;font-family:'Bradley Gratis';-inkscape-font-specification:'Bradley Gratis';text-align:start;text-anchor:start;stroke-width:0.26458332"
         id="path11179" />
      <path
         d="m 75.47671,148.25573 v -0.87842 h -0.416278 q -0.0035,0.23636 -0.01411,0.4692 -0.0071,0.2293 -0.01764,0.40922 z m 0.719667,-1.03011 q -0.03881,0.0282 -0.07408,0.0705 -0.03175,0.0423 -0.05644,0.0917 -0.02117,0.0459 -0.03528,0.0917 -0.01411,0.0423 -0.01411,0.0741 v 2.39889 h -0.53975 v -1.32997 h -0.472722 q -0.0035,0.127 -0.03528,0.27869 -0.03175,0.14817 -0.08819,0.29986 -0.05292,0.14817 -0.127,0.28928 -0.07056,0.13759 -0.162278,0.24342 -0.08819,0.10583 -0.1905,0.16933 -0.09878,0.0635 -0.208139,0.0635 -0.07056,0 -0.123472,-0.0423 -0.04939,-0.0423 -0.04939,-0.11995 0,-0.0494 0.03175,-0.0705 0.03175,-0.0247 0.06703,-0.0247 0.03175,0 0.04939,0.0106 0.01764,0.007 0.03175,0.0212 0.01764,0.0106 0.03881,0.0212 0.02117,0.007 0.05997,0.007 0.0635,0 0.102306,-0.0635 0.0388,-0.067 0.0635,-0.17639 0.02469,-0.11289 0.03528,-0.25753 0.01411,-0.14817 0.02117,-0.31044 0.0071,-0.16228 0.01764,-0.32809 0.01058,-0.16933 0.02822,-0.32455 0.02117,-0.18345 0.0635,-0.33514 0.04586,-0.1517 0.09525,-0.26811 0.04939,-0.11642 0.09878,-0.19756 0.04939,-0.0811 0.08467,-0.13053 h -0.07761 q -0.06703,0 -0.123473,0.0212 -0.05644,0.0176 -0.102305,0.0423 -0.04233,0.0212 -0.07761,0.0423 -0.03175,0.0176 -0.05644,0.0176 -0.05997,0 -0.08819,-0.0423 -0.02822,-0.0423 -0.02822,-0.0952 0,-0.0494 0.05292,-0.0917 0.05644,-0.0459 0.155223,-0.0459 z"
         style="font-style:normal;font-variant:normal;font-weight:normal;font-stretch:normal;font-family:'Bradley Gratis';-inkscape-font-specification:'Bradley Gratis';text-align:start;text-anchor:start;stroke-width:0.26458332"
         id="path11181" />
      <path
         d="m 76.496789,149.95259 v -2.43769 q 0,-0.0988 -0.04233,-0.16581 -0.04233,-0.0705 -0.08467,-0.12347 h 0.684388 v 0.35983 l 0.391584,-0.45508 q 0.179916,0.16228 0.296333,0.32455 0.116417,0.15875 0.183445,0.32103 0.06703,0.15875 0.09172,0.32456 0.02469,0.16228 0.02469,0.33514 0,0.16933 -0.02822,0.32455 -0.02469,0.1517 -0.07408,0.29986 -0.04939,0.14817 -0.119945,0.29986 -0.06703,0.1517 -0.148166,0.3175 h 0.127 q 0.04586,0 0.09525,-0.0318 0.04939,-0.0317 0.09878,-0.0317 v 0.33867 h -0.684389 q 0.09525,-0.19403 0.151695,-0.34925 0.05997,-0.15522 0.09172,-0.29633 0.03175,-0.14111 0.04233,-0.27517 0.01058,-0.13405 0.01058,-0.28575 0,-0.15169 -0.05292,-0.31397 -0.04939,-0.16581 -0.123472,-0.30339 -0.07408,-0.13758 -0.15875,-0.22578 -0.08114,-0.0882 -0.148167,-0.0882 -0.04233,0 -0.06703,0.0212 v 2.11667 z"
         style="font-style:normal;font-variant:normal;font-weight:normal;font-stretch:normal;font-family:'Bradley Gratis';-inkscape-font-specification:'Bradley Gratis';text-align:start;text-anchor:start;stroke-width:0.26458332"
         id="path11183" />
      <path
         d="m 78.385693,147.47256 q -0.09172,-0.0388 -0.127,-0.0952 -0.03528,-0.0564 -0.03528,-0.10583 0,-0.0423 0.02822,-0.0529 0.02822,0.0176 0.07761,0.0247 0.04939,0.007 0.112889,0.007 0.03175,0 0.08819,-0.0106 0.05997,-0.0106 0.130528,-0.0212 0.07055,-0.0106 0.144638,-0.0212 0.07761,-0.0106 0.144639,-0.0106 0.162278,0 0.331611,0.0847 0.169334,0.0811 0.303389,0.254 0.134056,0.16933 0.218723,0.43392 0.08819,0.26105 0.08819,0.62441 0,0.30692 -0.05292,0.52917 -0.05292,0.22225 -0.134055,0.37747 -0.08114,0.15522 -0.179917,0.25047 -0.09878,0.0917 -0.194028,0.14464 -0.09172,0.0494 -0.169333,0.067 -0.07408,0.0176 -0.109361,0.0176 -0.05292,0 -0.112889,-0.0141 -0.05997,-0.0141 -0.119944,-0.0317 -0.05644,-0.0176 -0.109362,-0.0318 -0.04939,-0.0141 -0.08467,-0.0141 -0.03881,0 -0.07056,0.0141 -0.03175,0.0106 -0.06703,0.0247 -0.03175,0.0106 -0.07055,0.0247 -0.03881,0.0106 -0.08819,0.0106 -0.01764,0 -0.03881,-0.004 -0.01764,-0.004 -0.03528,-0.0106 -0.01764,-0.007 -0.03528,-0.0176 0.02822,-0.0176 0.05644,-0.06 0.02822,-0.0459 0.05292,-0.0952 0.02822,-0.0529 0.05644,-0.11642 z m 0.518583,2.10256 q 0,0.0741 0.0247,0.11642 0.02822,0.0388 0.05997,0.0564 0.0388,0.0212 0.08467,0.0247 0.08114,0 0.141111,-0.10936 0.0635,-0.10936 0.0635,-0.27869 v -1.5487 q 0,-0.1658 -0.03175,-0.25752 -0.03175,-0.0917 -0.07408,-0.13406 -0.04233,-0.0423 -0.08467,-0.0494 -0.04233,-0.0106 -0.06703,-0.0106 -0.04233,0 -0.08114,0.0564 -0.03528,0.0565 -0.03528,0.14817 z"
         style="font-style:normal;font-variant:normal;font-weight:normal;font-stretch:normal;font-family:'Bradley Gratis';-inkscape-font-specification:'Bradley Gratis';text-align:start;text-anchor:start;stroke-width:0.26458332"
         id="path11185" />
    </g>
    <path
       style="fill:#323232;fill-opacity:1;stroke-width:0.3110204"
       d="m 71.030434,86.736137 h 20.6375 v 20.637503 h -20.6375 z"
       id="rect4735-3" />
    <g
       aria-label="SKEW"
       style="font-style:normal;font-weight:normal;font-size:3.52777767px;line-height:1.25;font-family:sans-serif;letter-spacing:0px;word-spacing:0px;fill:#ffffff;fill-opacity:1;stroke:none;stroke-width:0.26458332"
       id="text5443-7">
      <path
         d="m 50.308702,87.549383 q 0,0.344311 -0.4318,0.344311 -0.443089,0 -0.443089,-0.344311 v -0.160866 h 0.146755 v 0.166511 q 0,0.262466 0.296334,0.262466 0.296333,0 0.296333,-0.262466 v -0.730956 q 0,-0.211666 -0.296333,-0.211666 -0.443089,0 -0.443089,-0.347134 v -0.341489 q 0,-0.341489 0.443089,-0.341489 0.4318,0 0.4318,0.341489 v 0.1778 h -0.135467 v -0.183444 q 0,-0.265289 -0.296333,-0.265289 -0.296334,0 -0.296334,0.265289 v 0.3556 q 0,0.268111 0.296334,0.268111 0.389466,0 0.428978,0.251178 h 0.0028 z"
         style="font-style:normal;font-variant:normal;font-weight:bold;font-stretch:normal;font-size:2.82222223px;font-family:'Labtop Secundo Wide';-inkscape-font-specification:'Labtop Secundo Wide Bold';stroke-width:0.26458332"
         id="path11189" />
      <path
         d="m 51.49796,87.871117 h -0.135467 v -1.027289 q 0,-0.158045 -0.09878,-0.211667 -0.06491,-0.03387 -0.248355,-0.03387 h -0.245534 v 1.272823 H 50.625893 V 85.60205 h 0.143933 v 0.925689 h 0.245534 q 0.208844,0 0.285044,-0.05644 0.06209,-0.04798 0.06209,-0.194733 V 85.60205 h 0.135467 v 0.6858 q 0,0.220133 -0.239889,0.273756 0.239889,0.0508 0.239889,0.276577 z"
         style="font-style:normal;font-variant:normal;font-weight:bold;font-stretch:normal;font-size:2.82222223px;font-family:'Labtop Secundo Wide';-inkscape-font-specification:'Labtop Secundo Wide Bold';stroke-width:0.26458332"
         id="path11191" />
      <path
         d="m 52.715352,87.871117 h -0.8636 V 85.60205 h 0.8636 v 0.0762 h -0.719667 v 0.849489 h 0.719667 v 0.07055 h -0.719667 v 1.199445 h 0.719667 z"
         style="font-style:normal;font-variant:normal;font-weight:bold;font-stretch:normal;font-size:2.82222223px;font-family:'Labtop Secundo Wide';-inkscape-font-specification:'Labtop Secundo Wide Bold';stroke-width:0.26458332"
         id="path11193" />
      <path
         d="m 54.898958,85.60205 -0.491067,2.269067 h -0.118533 l -0.426155,-1.975556 -0.428978,1.975556 H 53.315691 L 52.824625,85.60205 h 0.143933 l 0.4064,1.902178 0.4064,-1.902178 h 0.160867 l 0.4064,1.902178 0.4064,-1.902178 z"
         style="font-style:normal;font-variant:normal;font-weight:bold;font-stretch:normal;font-size:2.82222223px;font-family:'Labtop Secundo Wide';-inkscape-font-specification:'Labtop Secundo Wide Bold';stroke-width:0.26458332"
         id="path11195" />
    </g>
    <g
       aria-label="OUT"
       style="font-style:normal;font-weight:normal;font-size:3.52777767px;line-height:1.25;font-family:sans-serif;letter-spacing:0px;word-spacing:0px;fill:#ffffff;fill-opacity:1;stroke:none;stroke-width:0.26458332"
       id="text4978-4-9">
      <path
         d="m 64.067035,138.27138 q 0,0.34431 -0.440267,0.34431 -0.434622,0 -0.434622,-0.34431 v -1.6256 q 0,-0.34149 0.434622,-0.34149 0.440267,0 0.440267,0.34149 z m -0.143934,0.006 v -1.63689 q 0,-0.26247 -0.296333,-0.26247 -0.296333,0 -0.296333,0.26247 v 1.63689 q 0,0.26811 0.296333,0.26811 0.296333,0 0.296333,-0.26811 z"
         style="font-style:normal;font-variant:normal;font-weight:bold;font-stretch:normal;font-size:2.82222223px;font-family:'Labtop Secundo Wide';-inkscape-font-specification:'Labtop Secundo Wide Bold';stroke-width:0.26458332"
         id="path11198" />
      <path
         d="m 65.274196,138.27138 q 0,0.34431 -0.440266,0.34431 -0.434623,0 -0.434623,-0.34431 v -1.94734 h 0.138289 v 1.95298 q 0,0.26811 0.296334,0.26811 0.296333,0 0.296333,-0.26811 v -1.95298 h 0.143933 z"
         style="font-style:normal;font-variant:normal;font-weight:bold;font-stretch:normal;font-size:2.82222223px;font-family:'Labtop Secundo Wide';-inkscape-font-specification:'Labtop Secundo Wide Bold';stroke-width:0.26458332"
         id="path11200" />
      <path
         d="m 66.563202,136.40306 h -0.462844 v 2.19005 h -0.143934 v -2.19005 h -0.476955 v -0.079 h 1.083733 z"
         style="font-style:normal;font-variant:normal;font-weight:bold;font-stretch:normal;font-size:2.82222223px;font-family:'Labtop Secundo Wide';-inkscape-font-specification:'Labtop Secundo Wide Bold';stroke-width:0.26458332"
         id="path11202" />
    </g>
    <g
       style="font-style:normal;font-variant:normal;font-weight:bold;font-stretch:normal;font-size:13.33333302px;line-height:1.25;font-family:Consolas;-inkscape-font-specification:'Consolas Bold';text-align:center;letter-spacing:0px;word-spacing:0px;text-anchor:middle;fill:#ffffff;fill-opacity:1;stroke:none"
       id="flowRoot5761" />
    <g
       style="font-style:normal;font-variant:normal;font-weight:bold;font-stretch:normal;font-size:13.33333302px;line-height:1.25;font-family:Consolas;-inkscape-font-specification:'Consolas Bold';text-align:center;letter-spacing:0px;word-spacing:0px;text-anchor:middle;fill:#ffffff;fill-opacity:1;stroke:none"
       id="flowRoot5769" />
    <path
       style="fill:none;stroke:#ffffff;stroke-width:0.13229167;stroke-linecap:butt;stroke-linejoin:miter;stroke-miterlimit:4;stroke-dasharray:none;stroke-opacity:1"
       d="m 55.998785,121.79599 0.529167,-0.95911 0.578776,0.89297"
       id="path870"
       inkscape:connector-curvature="0"
       sodipodi:nodetypes="ccc" />
    <path
       style="fill:none;stroke:#ffffff;stroke-width:0.13229167;stroke-linecap:butt;stroke-linejoin:miter;stroke-miterlimit:4;stroke-dasharray:none;stroke-opacity:1"
       d="m 55.254645,113.33507 h 0.760677 v -1.02526 h 0.628385 v 1.0418 h 0.396875"
       id="path872"
       inkscape:connector-curvature="0" />
    <g
       aria-label="PHASE"
       style="font-style:normal;font-weight:normal;font-size:3.52777767px;line-height:1.25;font-family:sans-serif;letter-spacing:0px;word-spacing:0px;fill:#ffffff;fill-opacity:1;stroke:none;stroke-width:0.26458332"
       id="text5443-7-3">
      <path
         d="m 63.535045,86.28502 q 0,0.310445 -0.443089,0.310445 h -0.285045 v 1.275644 h -0.143933 v -2.269067 h 0.428978 q 0.2794,0 0.372533,0.09031 0.07056,0.07056 0.07056,0.262467 z m -0.135467,-0.01129 v -0.349955 q 0,-0.160867 -0.09878,-0.208845 -0.06491,-0.03387 -0.248355,-0.03387 h -0.245534 v 0.8382 h 0.245534 q 0.208844,0 0.285044,-0.0508 0.06209,-0.0508 0.06209,-0.194734 z"
         style="font-style:normal;font-variant:normal;font-weight:bold;font-stretch:normal;font-size:2.82222223px;font-family:'Labtop Secundo Wide';-inkscape-font-specification:'Labtop Secundo Wide Bold';stroke-width:0.26458332"
         id="path11207" />
      <path
         d="m 64.694757,87.871109 h -0.135466 v -1.272822 h -0.592667 v 1.272822 h -0.143933 v -2.269067 h 0.143933 v 0.925689 h 0.592667 v -0.925689 h 0.135466 z"
         style="font-style:normal;font-variant:normal;font-weight:bold;font-stretch:normal;font-size:2.82222223px;font-family:'Labtop Secundo Wide';-inkscape-font-specification:'Labtop Secundo Wide Bold';stroke-width:0.26458332"
         id="path11209" />
      <path
         d="m 65.978516,87.871109 h -0.138289 l -0.225778,-1.069622 h -0.375356 l -0.234244,1.069622 h -0.127 l 0.491067,-2.269067 h 0.118533 z m -0.381,-1.157111 -0.169334,-0.804333 -0.172155,0.804333 z"
         style="font-style:normal;font-variant:normal;font-weight:bold;font-stretch:normal;font-size:2.82222223px;font-family:'Labtop Secundo Wide';-inkscape-font-specification:'Labtop Secundo Wide Bold';stroke-width:0.26458332"
         id="path11211" />
      <path
         d="m 67.019695,87.549376 q 0,0.344311 -0.4318,0.344311 -0.443089,0 -0.443089,-0.344311 v -0.160867 h 0.146756 v 0.166511 q 0,0.262467 0.296333,0.262467 0.296333,0 0.296333,-0.262467 v -0.730955 q 0,-0.211667 -0.296333,-0.211667 -0.443089,0 -0.443089,-0.347133 v -0.341489 q 0,-0.341489 0.443089,-0.341489 0.4318,0 0.4318,0.341489 v 0.1778 h -0.135467 v -0.183445 q 0,-0.265289 -0.296333,-0.265289 -0.296333,0 -0.296333,0.265289 v 0.3556 q 0,0.268111 0.296333,0.268111 0.389467,0 0.428978,0.251178 h 0.0028 z"
         style="font-style:normal;font-variant:normal;font-weight:bold;font-stretch:normal;font-size:2.82222223px;font-family:'Labtop Secundo Wide';-inkscape-font-specification:'Labtop Secundo Wide Bold';stroke-width:0.26458332"
         id="path11213" />
      <path
         d="m 68.175086,87.871109 h -0.8636 v -2.269067 h 0.8636 v 0.0762 H 67.45542 v 0.849489 h 0.719666 v 0.07056 H 67.45542 v 1.199444 h 0.719666 z"
         style="font-style:normal;font-variant:normal;font-weight:bold;font-stretch:normal;font-size:2.82222223px;font-family:'Labtop Secundo Wide';-inkscape-font-specification:'Labtop Secundo Wide Bold';stroke-width:0.26458332"
         id="path11215" />
    </g>
    <g
       aria-label="90"
       style="font-style:normal;font-weight:normal;font-size:3.52777767px;line-height:1.25;font-family:sans-serif;letter-spacing:0px;word-spacing:0px;fill:#ffffff;fill-opacity:1;stroke:none;stroke-width:0.26458332"
       id="text5443-0-4-9-8">
      <path
         d="m 58.600413,93.492803 -0.10795,0.0021 v -1.005417 q -0.09525,0.0635 -0.24765,0.0635 -0.300567,0 -0.300567,-0.254 v -0.26035 q 0,-0.256116 0.325967,-0.256116 0.3302,0 0.3302,0.256116 z m -0.10795,-1.1938 V 92.03442 q 0,-0.19685 -0.22225,-0.19685 -0.22225,0 -0.22225,0.19685 v 0.264583 q 0,0.19685 0.213783,0.19685 0.230717,0 0.230717,-0.19685 z"
         style="font-style:normal;font-variant:normal;font-weight:bold;font-stretch:normal;font-size:2.11666656px;font-family:'Labtop Secundo Wide';-inkscape-font-specification:'Labtop Secundo Wide Bold';stroke-width:0.26458332"
         id="path11218" />
      <path
         d="m 59.505784,93.257853 q 0,0.258233 -0.3302,0.258233 -0.325967,0 -0.325967,-0.258233 v -1.2192 q 0,-0.256116 0.325967,-0.256116 0.3302,0 0.3302,0.256116 z M 59.395717,91.97092 q -0.02963,-0.13335 -0.220133,-0.13335 -0.22225,0 -0.22225,0.19685 v 1.030816 z m 0.0021,1.291166 v -1.041399 l -0.43815,1.096433 q 0.02117,0.14605 0.2159,0.14605 0.22225,0 0.22225,-0.201084 z"
         style="font-style:normal;font-variant:normal;font-weight:bold;font-stretch:normal;font-size:2.11666656px;font-family:'Labtop Secundo Wide';-inkscape-font-specification:'Labtop Secundo Wide Bold';stroke-width:0.26458332"
         id="path11220" />
      <path
         d="m 60.682088,92.13602 q 0,0.131233 -0.1397,0.22225 -0.1397,0.09102 -0.328083,0.09102 -0.194734,0 -0.332317,-0.09102 -0.13335,-0.08467 -0.13335,-0.22225 0,-0.131233 0.13335,-0.220133 0.135467,-0.09102 0.33655,-0.09102 0.127,0 0.237067,0.04445 0.127,0.04868 0.188383,0.14605 0.0381,0.05715 0.0381,0.12065 z m -0.08678,0 q 0,-0.1016 -0.110067,-0.1778 -0.110067,-0.0762 -0.2667,-0.0762 -0.167217,0 -0.275167,0.07408 -0.105833,0.07408 -0.105833,0.179917 0,0.127 0.13335,0.19685 0.10795,0.05715 0.24765,0.05715 0.24765,0 0.347133,-0.1524 0.02963,-0.04657 0.02963,-0.1016 z"
         style="font-style:normal;font-variant:normal;font-weight:bold;font-stretch:normal;font-size:2.11666656px;font-family:'Labtop Secundo Wide';-inkscape-font-specification:'Labtop Secundo Wide Bold';stroke-width:0.26458332"
         id="path11222" />
    </g>
    <path
       style="fill:#999999;fill-opacity:1;stroke-width:0.22657208"
       d="M 40.305668,58.657227 H 60.017126 V 70.431185 H 40.305668 Z"
       id="rect6948-0" />
    <path
       style="fill:#323232;fill-opacity:1;stroke-width:0.20366792"
       d="m 41.018742,59.583267 h 18.285305 v 9.988021 H 41.018742 Z"
       id="rect4735-6" />
    <g
       aria-label="SLOPE"
       style="font-style:normal;font-weight:normal;font-size:3.52777767px;line-height:1.25;font-family:sans-serif;letter-spacing:0px;word-spacing:0px;fill:#ffffff;fill-opacity:1;stroke:none;stroke-width:0.26458332"
       id="text5443-7-7">
      <path
         d="m 38.667035,87.615523 q 0,0.344311 -0.4318,0.344311 -0.443088,0 -0.443088,-0.344311 v -0.160867 h 0.146755 v 0.166511 q 0,0.262467 0.296333,0.262467 0.296334,0 0.296334,-0.262467 v -0.730956 q 0,-0.211666 -0.296334,-0.211666 -0.443088,0 -0.443088,-0.347134 v -0.341488 q 0,-0.341489 0.443088,-0.341489 0.4318,0 0.4318,0.341489 v 0.1778 h -0.135466 v -0.183445 q 0,-0.265289 -0.296334,-0.265289 -0.296333,0 -0.296333,0.265289 v 0.3556 q 0,0.268111 0.296333,0.268111 0.389467,0 0.428978,0.251178 h 0.0028 z"
         style="font-style:normal;font-variant:normal;font-weight:bold;font-stretch:normal;font-size:2.82222223px;font-family:'Labtop Secundo Wide';-inkscape-font-specification:'Labtop Secundo Wide Bold';stroke-width:0.26458332"
         id="path11227" />
      <path
         d="m 39.83936,87.937256 h -0.866422 v -2.269067 h 0.143933 v 2.195689 h 0.722489 z"
         style="font-style:normal;font-variant:normal;font-weight:bold;font-stretch:normal;font-size:2.82222223px;font-family:'Labtop Secundo Wide';-inkscape-font-specification:'Labtop Secundo Wide Bold';stroke-width:0.26458332"
         id="path11229" />
      <path
         d="m 40.803987,87.615523 q 0,0.344311 -0.440267,0.344311 -0.434622,0 -0.434622,-0.344311 v -1.6256 q 0,-0.341489 0.434622,-0.341489 0.440267,0 0.440267,0.341489 z m -0.143933,0.0056 v -1.636889 q 0,-0.262467 -0.296334,-0.262467 -0.296333,0 -0.296333,0.262467 v 1.636889 q 0,0.268111 0.296333,0.268111 0.296334,0 0.296334,-0.268111 z"
         style="font-style:normal;font-variant:normal;font-weight:bold;font-stretch:normal;font-size:2.82222223px;font-family:'Labtop Secundo Wide';-inkscape-font-specification:'Labtop Secundo Wide Bold';stroke-width:0.26458332"
         id="path11231" />
      <path
         d="m 42.045015,86.351167 q 0,0.310444 -0.443089,0.310444 h -0.285044 v 1.275645 h -0.143934 v -2.269067 h 0.428978 q 0.2794,0 0.372533,0.09031 0.07056,0.07056 0.07056,0.262467 z m -0.135467,-0.01129 v -0.349955 q 0,-0.160867 -0.09878,-0.208845 -0.06491,-0.03387 -0.248355,-0.03387 h -0.245533 v 0.8382 h 0.245533 q 0.208844,0 0.285044,-0.0508 0.06209,-0.0508 0.06209,-0.194733 z"
         style="font-style:normal;font-variant:normal;font-weight:bold;font-stretch:normal;font-size:2.82222223px;font-family:'Labtop Secundo Wide';-inkscape-font-specification:'Labtop Secundo Wide Bold';stroke-width:0.26458332"
         id="path11233" />
      <path
         d="m 43.179328,87.937256 h -0.8636 v -2.269067 h 0.8636 v 0.0762 h -0.719667 v 0.849489 h 0.719667 v 0.07056 h -0.719667 v 1.199444 h 0.719667 z"
         style="font-style:normal;font-variant:normal;font-weight:bold;font-stretch:normal;font-size:2.82222223px;font-family:'Labtop Secundo Wide';-inkscape-font-specification:'Labtop Secundo Wide Bold';stroke-width:0.26458332"
         id="path11235" />
    </g>
    <g
       aria-label="MULTIPLIER"
       style="font-style:normal;font-weight:normal;font-size:3.52777767px;line-height:1.25;font-family:sans-serif;letter-spacing:0px;word-spacing:0px;fill:#ffffff;fill-opacity:1;stroke:none;stroke-width:0.26458332"
       id="text5443-7-7-1">
      <path
         d="m 46.800679,58.159737 h -0.141111 v -1.902178 l -0.612422,1.763889 h -0.115711 l -0.587023,-1.741311 v 1.8796 H 45.200479 V 55.89067 h 0.146756 l 0.640644,1.916289 0.663222,-1.916289 h 0.149578 z"
         style="font-style:normal;font-variant:normal;font-weight:bold;font-stretch:normal;font-size:2.82222223px;font-family:'Labtop Secundo Wide';-inkscape-font-specification:'Labtop Secundo Wide Bold';stroke-width:0.26458332"
         id="path11238" />
      <path
         d="m 48.012691,57.838003 q 0,0.344311 -0.440266,0.344311 -0.434623,0 -0.434623,-0.344311 V 55.89067 h 0.138289 v 1.952978 q 0,0.268111 0.296334,0.268111 0.296333,0 0.296333,-0.268111 V 55.89067 h 0.143933 z"
         style="font-style:normal;font-variant:normal;font-weight:bold;font-stretch:normal;font-size:2.82222223px;font-family:'Labtop Secundo Wide';-inkscape-font-specification:'Labtop Secundo Wide Bold';stroke-width:0.26458332"
         id="path11240" />
      <path
         d="M 49.219852,58.159737 H 48.35343 V 55.89067 h 0.143934 v 2.195689 h 0.722488 z"
         style="font-style:normal;font-variant:normal;font-weight:bold;font-stretch:normal;font-size:2.82222223px;font-family:'Labtop Secundo Wide';-inkscape-font-specification:'Labtop Secundo Wide Bold';stroke-width:0.26458332"
         id="path11242" />
      <path
         d="m 50.134032,55.969692 h -0.462844 v 2.190045 h -0.143934 v -2.190045 h -0.476955 v -0.07902 h 1.083733 z"
         style="font-style:normal;font-variant:normal;font-weight:bold;font-stretch:normal;font-size:2.82222223px;font-family:'Labtop Secundo Wide';-inkscape-font-specification:'Labtop Secundo Wide Bold';stroke-width:0.26458332"
         id="path11244" />
      <path
         d="m 50.571918,58.156914 h -0.321734 v -0.08749 h 0.08749 v -2.085623 h -0.08749 v -0.08749 h 0.321734 v 0.08749 h -0.09313 v 2.085623 h 0.09313 z"
         style="font-style:normal;font-variant:normal;font-weight:bold;font-stretch:normal;font-size:2.82222223px;font-family:'Labtop Secundo Wide';-inkscape-font-specification:'Labtop Secundo Wide Bold';stroke-width:0.26458332"
         id="path11246" />
      <path
         d="m 51.717652,56.573648 q 0,0.310444 -0.443089,0.310444 h -0.285045 v 1.275645 H 50.845585 V 55.89067 h 0.428978 q 0.2794,0 0.372533,0.09031 0.07056,0.07056 0.07056,0.262467 z m -0.135467,-0.01129 v -0.349956 q 0,-0.160866 -0.09878,-0.208844 -0.06491,-0.03387 -0.248355,-0.03387 h -0.245534 v 0.8382 h 0.245534 q 0.208844,0 0.285044,-0.0508 0.06209,-0.0508 0.06209,-0.194733 z"
         style="font-style:normal;font-variant:normal;font-weight:bold;font-stretch:normal;font-size:2.82222223px;font-family:'Labtop Secundo Wide';-inkscape-font-specification:'Labtop Secundo Wide Bold';stroke-width:0.26458332"
         id="path11248" />
      <path
         d="M 52.868897,58.159737 H 52.002475 V 55.89067 h 0.143934 v 2.195689 h 0.722488 z"
         style="font-style:normal;font-variant:normal;font-weight:bold;font-stretch:normal;font-size:2.82222223px;font-family:'Labtop Secundo Wide';-inkscape-font-specification:'Labtop Secundo Wide Bold';stroke-width:0.26458332"
         id="path11250" />
      <path
         d="m 53.272872,58.156914 h -0.321733 v -0.08749 h 0.08749 v -2.085623 h -0.08749 v -0.08749 h 0.321733 v 0.08749 h -0.09313 v 2.085623 h 0.09313 z"
         style="font-style:normal;font-variant:normal;font-weight:bold;font-stretch:normal;font-size:2.82222223px;font-family:'Labtop Secundo Wide';-inkscape-font-specification:'Labtop Secundo Wide Bold';stroke-width:0.26458332"
         id="path11252" />
      <path
         d="m 54.367807,58.159737 h -0.8636 V 55.89067 h 0.8636 v 0.0762 H 53.64814 v 0.849489 h 0.719667 v 0.07055 H 53.64814 v 1.199445 h 0.719667 z"
         style="font-style:normal;font-variant:normal;font-weight:bold;font-stretch:normal;font-size:2.82222223px;font-family:'Labtop Secundo Wide';-inkscape-font-specification:'Labtop Secundo Wide Bold';stroke-width:0.26458332"
         id="path11254" />
      <path
         d="m 55.493079,58.159737 h -0.135467 v -0.993423 q 0,-0.138288 -0.07056,-0.189088 -0.08749,-0.06209 -0.276578,-0.06209 h -0.245533 v 1.2446 H 54.621012 V 55.89067 h 0.428978 q 0.2794,0 0.372534,0.09031 0.07055,0.07056 0.07055,0.262467 v 0.344311 q 0,0.2286 -0.239889,0.273755 0.239889,0.05927 0.239889,0.293512 z m -0.135467,-1.580445 v -0.366889 q 0,-0.160866 -0.09878,-0.208844 -0.06491,-0.03387 -0.248356,-0.03387 h -0.245533 v 0.857956 h 0.245533 q 0.183445,0 0.251178,-0.03669 0.09596,-0.0508 0.09596,-0.211667 z"
         style="font-style:normal;font-variant:normal;font-weight:bold;font-stretch:normal;font-size:2.82222223px;font-family:'Labtop Secundo Wide';-inkscape-font-specification:'Labtop Secundo Wide Bold';stroke-width:0.26458332"
         id="path11256" />
    </g>
    <g
       aria-label=":"
       style="font-style:normal;font-weight:normal;font-size:3.52777767px;line-height:1.25;font-family:sans-serif;letter-spacing:0px;word-spacing:0px;fill:#ffffff;fill-opacity:1;stroke:none;stroke-width:0.26458332"
       id="text5443-7-7-1-0">
      <path
         d="m 65.751164,62.96705 q 0,0.144694 -0.02412,0.241156 -0.02411,0.09646 -0.08268,0.158475 -0.05512,0.06201 -0.148139,0.08957 -0.09302,0.02412 -0.234267,0.02412 -0.141249,0 -0.234266,-0.02412 -0.09302,-0.02756 -0.151584,-0.08957 -0.05512,-0.06201 -0.07579,-0.158475 -0.02067,-0.09646 -0.02067,-0.241156 0,-0.14814 0.02067,-0.248047 0.02067,-0.09991 0.07579,-0.16192 0.05857,-0.06201 0.151584,-0.08957 0.09302,-0.02756 0.234266,-0.02756 0.141249,0 0.234267,0.02756 0.09302,0.02756 0.148139,0.08957 0.05857,0.06201 0.08268,0.16192 0.02412,0.09991 0.02412,0.248047 z m 0,2.249647 q 0,0.144694 -0.02412,0.244602 -0.02411,0.09646 -0.08268,0.158474 -0.05512,0.06201 -0.148139,0.08613 -0.09302,0.02756 -0.234267,0.02756 -0.141249,0 -0.234266,-0.02756 -0.09302,-0.02411 -0.151584,-0.08613 -0.05512,-0.06201 -0.07579,-0.158474 -0.02067,-0.09991 -0.02067,-0.244602 0,-0.144694 0.02067,-0.244602 0.02067,-0.103353 0.07579,-0.165364 0.05857,-0.06201 0.151584,-0.08613 0.09302,-0.02756 0.234266,-0.02756 0.141249,0 0.234267,0.02756 0.09302,0.02412 0.148139,0.08613 0.05857,0.06201 0.08268,0.165364 0.02412,0.09991 0.02412,0.244602 z"
         style="font-style:normal;font-variant:normal;font-weight:bold;font-stretch:normal;font-size:7.05555534px;font-family:Calibri;-inkscape-font-specification:'Calibri Bold';stroke-width:0.26458332"
         id="path11259" />
    </g>
    <g
       id="g346"
       transform="matrix(0.12402883,0,0,0.12402883,43.670772,90.650939)"
       style="stroke:#ffffff;stroke-width:1.06662023;stroke-miterlimit:4;stroke-dasharray:none;stroke-opacity:1">
      <!-- <text font-size="6pt" letter-spacing="2px" transform="translate(6.5 40)">SIN</text> -->
      <g
         id="g344"
         transform="translate(9,33.5)"
         style="stroke:#ffffff;stroke-width:1.06662023;stroke-miterlimit:4;stroke-dasharray:none;stroke-opacity:1">
        <!-- <rect width="12" height="8" fill="none" stroke-width="1" stroke="#0f0" /> -->
        <path
           style="fill:none;stroke:#ffffff;stroke-width:1.06662023;stroke-miterlimit:4;stroke-dasharray:none;stroke-opacity:1"
           inkscape:connector-curvature="0"
           id="path340"
           d="M 0,4 A 3,4.5 0 0 1 6,4" />
        <path
           style="fill:none;stroke:#ffffff;stroke-width:1.06662023;stroke-miterlimit:4;stroke-dasharray:none;stroke-opacity:1"
           inkscape:connector-curvature="0"
           id="path342"
           d="m 6,4 a 3,4.5 0 0 0 6,0" />
      </g>
    </g>
  </g>
</svg>
