<?xml version="1.0" encoding="UTF-8" standalone="no"?>
<svg
   xmlns:dc="http://purl.org/dc/elements/1.1/"
   xmlns:cc="http://creativecommons.org/ns#"
   xmlns:rdf="http://www.w3.org/1999/02/22-rdf-syntax-ns#"
   xmlns:svg="http://www.w3.org/2000/svg"
   xmlns="http://www.w3.org/2000/svg"
   xmlns:xlink="http://www.w3.org/1999/xlink"
   xmlns:sodipodi="http://sodipodi.sourceforge.net/DTD/sodipodi-0.dtd"
   xmlns:inkscape="http://www.inkscape.org/namespaces/inkscape"
   sodipodi:docname="BPMLFO.svg"
   inkscape:version="1.0 (4035a4fb49, 2020-05-01)"
   id="svg11003"
   version="1.1"
   viewBox="0 0 31.75 100.54167"
   height="380"
   width="120">
  <defs
     id="defs10997">
    <linearGradient
       id="linearGradient993"
       inkscape:collect="always">
      <stop
         id="stop989"
         offset="0"
         style="stop-color:#202023;stop-opacity:1;" />
      <stop
         id="stop991"
         offset="1"
         style="stop-color:#202023;stop-opacity:0;" />
    </linearGradient>
    <linearGradient
       id="linearGradient3391"
       inkscape:collect="always">
      <stop
         style="stop-color:#0c1622;stop-opacity:1"
         offset="0"
         id="stop3387" />
      <stop
         style="stop-color:#161625;stop-opacity:1"
         offset=".3"
         id="stop3388" />
      <stop
         style="stop-color:#081f35;stop-opacity:1"
         offset="1"
         id="stop3389" />
    </linearGradient>
    <linearGradient
       gradientTransform="matrix(0.80172961,0,0,1,6.9096935,0.07224295)"
       gradientUnits="userSpaceOnUse"
       y2="50.462322"
       x2="35.219627"
       y1="150.85843"
       x1="35.219627"
       id="linearGradient3393"
       xlink:href="#linearGradient3391"
       inkscape:collect="always" />
    <linearGradient
       gradientUnits="userSpaceOnUse"
       y2="94.132131"
       x2="119.98062"
       y1="94.132131"
       x1="0.48115775"
       id="linearGradient995"
       xlink:href="#linearGradient993"
       inkscape:collect="always" />
  </defs>
  <sodipodi:namedview
     inkscape:document-rotation="0"
     units="px"
     inkscape:window-maximized="1"
     inkscape:window-y="-6"
     inkscape:window-x="-6"
     inkscape:window-height="1058"
     inkscape:window-width="1920"
     fit-margin-bottom="0"
     fit-margin-right="0"
     fit-margin-left="0"
     fit-margin-top="0"
     showgrid="false"
     inkscape:current-layer="layer1"
     inkscape:document-units="px"
     inkscape:cy="347.41654"
     inkscape:cx="-36.526459"
     inkscape:zoom="1.7100819"
     inkscape:pageshadow="2"
     inkscape:pageopacity="0.0"
     borderopacity="1.0"
     bordercolor="#666666"
     pagecolor="#ffffff"
     id="base" />
  <metadata
     id="metadata11000">
    <rdf:RDF>
      <cc:Work
         rdf:about="">
        <dc:format>image/svg+xml</dc:format>
        <dc:type
           rdf:resource="http://purl.org/dc/dcmitype/StillImage" />
        <dc:title></dc:title>
      </cc:Work>
    </rdf:RDF>
  </metadata>
  <g
     transform="translate(-35.146312,-50.389004)"
     id="layer1"
     inkscape:groupmode="layer"
     inkscape:label="Layer 1">
    <path
       inkscape:export-ydpi="150.22649"
       inkscape:export-xdpi="150.22649"
       inkscape:export-filename="/home/vortico/pics/tmp/LFOs.png"
       style="fill:url(#linearGradient3393);fill-opacity:1;fill-rule:nonzero;stroke:none;stroke-width:0.24714991;opacity:1"
       d="M 35.146312,50.534566 H 66.896313 V 150.93067 H 35.146312 Z m 0,0"
       id="path33493"
       inkscape:connector-curvature="0" />
    <g
       id="text5097"
       style="font-style:normal;font-weight:normal;font-size:3.52777767px;line-height:1.25;font-family:sans-serif;letter-spacing:0px;word-spacing:0px;fill:#ffffff;fill-opacity:1;stroke:none;stroke-width:0.26458332" />
    <path
       inkscape:connector-curvature="0"
       id="path6731"
       d="m 58.429646,83.197338 a 7.4083331,7.4083328 0 0 1 -7.408333,7.408334 7.4083331,7.4083328 0 0 1 -7.408334,-7.408334 7.4083331,7.4083328 0 0 1 7.408334,-7.408333 7.4083331,7.4083328 0 0 1 7.408333,7.408333 z"
       style="fill:#141414;fill-opacity:1;stroke-width:0.1734011" />
    <g
       id="flowRoot1527"
       style="font-style:normal;font-variant:normal;font-weight:bold;font-stretch:normal;font-size:13.33333302px;line-height:1.25;font-family:Consolas;-inkscape-font-specification:'Consolas Bold';text-align:center;letter-spacing:0px;word-spacing:0px;text-anchor:middle;fill:#ffffff;fill-opacity:1;stroke:none"
       transform="matrix(0.26458333,0,0,0.26458333,34.617145,50.389004)" />
    <g
       style="font-style:normal;font-variant:normal;font-weight:normal;font-stretch:normal;font-size:3.52778px;line-height:1.25;font-family:Quarca;-inkscape-font-specification:Quarca;letter-spacing:0px;word-spacing:0px;fill:#dddddd;fill-opacity:1;stroke:none;stroke-width:0.264583"
       id="text5443-7-3"
       aria-label="PHASE">
      <path
         id="path16454"
         style="font-style:normal;font-variant:normal;font-weight:normal;font-stretch:normal;font-size:2.82222px;font-family:Quarca;-inkscape-font-specification:Quarca;fill:#dddddd;fill-opacity:1;stroke-width:0.264583"
         d="m 47.725661,94.544083 h 0.632177 c 0.251178,0 0.381,-0.126999 0.381,-0.378177 v -0.423333 c 0,-0.251178 -0.129822,-0.378178 -0.381,-0.378178 h -0.793044 v 2.003777 h 0.160867 z m 0,-1.027288 h 0.6096 c 0.163688,0 0.239888,0.0762 0.239888,0.256822 v 0.361245 c 0,0.180622 -0.0762,0.256822 -0.239888,0.256822 h -0.6096 z" />
      <path
         id="path16456"
         style="font-style:normal;font-variant:normal;font-weight:normal;font-stretch:normal;font-size:2.82222px;font-family:Quarca;-inkscape-font-specification:Quarca;fill:#dddddd;fill-opacity:1;stroke-width:0.264583"
         d="m 49.197405,95.368172 v -0.759178 h 0.92851 v 0.759178 h 0.160867 v -2.003777 h -0.160867 v 1.0922 h -0.92851 v -1.0922 h -0.160867 v 2.003777 z" />
      <path
         id="path16458"
         style="font-style:normal;font-variant:normal;font-weight:normal;font-stretch:normal;font-size:2.82222px;font-family:Quarca;-inkscape-font-specification:Quarca;fill:#dddddd;fill-opacity:1;stroke-width:0.264583"
         d="m 51.142399,93.364395 -0.618066,2.003777 h 0.172156 l 0.129822,-0.434622 h 0.807155 l 0.129822,0.434622 h 0.172155 l -0.615244,-2.003777 z m 0.09031,0.214489 0.3556,1.202266 h -0.716844 z" />
      <path
         id="path16460"
         style="font-style:normal;font-variant:normal;font-weight:normal;font-stretch:normal;font-size:2.82222px;font-family:Quarca;-inkscape-font-specification:Quarca;fill:#dddddd;fill-opacity:1;stroke-width:0.264583"
         d="m 52.960879,94.535617 c 0.141111,0.05927 0.1778,0.107244 0.1778,0.245533 v 0.194733 c 0,0.169333 -0.07056,0.239889 -0.231422,0.239889 h -0.426155 c -0.160867,0 -0.234244,-0.07056 -0.234244,-0.239889 v -0.211666 h -0.160867 v 0.251177 c 0,0.234244 0.110067,0.352778 0.369711,0.352778 h 0.496711 c 0.234244,0 0.349955,-0.118534 0.349955,-0.352778 v -0.276577 c 0,-0.200378 -0.0762,-0.270934 -0.282222,-0.361245 L 52.441591,94.132039 C 52.308947,94.075595 52.27508,94.021973 52.27508,93.897795 v -0.124178 c 0,-0.191911 0.06209,-0.256822 0.242711,-0.256822 h 0.352777 c 0.160867,0 0.239889,0.07338 0.239889,0.248356 v 0.189088 h 0.163689 V 93.72564 c 0,-0.254 -0.121356,-0.361245 -0.381,-0.361245 h -0.417688 c -0.248356,0 -0.361245,0.110067 -0.361245,0.361245 v 0.197555 c 0,0.2032 0.06773,0.276578 0.2794,0.369711 z" />
      <path
         id="path16462"
         style="font-style:normal;font-variant:normal;font-weight:normal;font-stretch:normal;font-size:2.82222px;font-family:Quarca;-inkscape-font-specification:Quarca;fill:#dddddd;fill-opacity:1;stroke-width:0.264583"
         d="m 53.783512,93.516795 h 0.905933 l 0.02258,-0.1524 h -1.089377 v 2.003777 h 1.072443 l 0.02258,-0.1524 H 53.783512 V 94.60335 h 0.759178 l 0.02258,-0.149578 h -0.781755 z" />
    </g>
    <g
       style="font-style:normal;font-variant:normal;font-weight:normal;font-stretch:normal;font-size:3.52778px;line-height:1.25;font-family:Quarca;-inkscape-font-specification:Quarca;letter-spacing:0px;word-spacing:0px;fill:#dddddd;fill-opacity:1;stroke:none;stroke-width:0.264583"
       id="text5443-0-4-9-8"
       aria-label="90°">
      <path
         id="path16447"
         style="font-style:normal;font-variant:normal;font-weight:normal;font-stretch:normal;font-size:2.11667px;font-family:Quarca;-inkscape-font-specification:Quarca;fill:#dddddd;fill-opacity:1;stroke-width:0.264583"
         d="m 44.684012,100.00155 h -0.258234 c -0.131234,0 -0.1778,-0.0635 -0.1778,-0.196848 v -0.135467 h -0.122767 v 0.154517 c 0,0.194738 0.0762,0.292098 0.2921,0.292098 h 0.279401 c 0.2159,0 0.289983,-0.0974 0.289983,-0.292098 v -0.918635 c 0,-0.194733 -0.07408,-0.2921 -0.289983,-0.2921 h -0.279401 c -0.2159,0 -0.2921,0.09737 -0.2921,0.2921 v 0.256117 c 0,0.186267 0.06773,0.279401 0.2667,0.279401 h 0.474134 v 0.364067 c 0,0.13335 -0.04657,0.196848 -0.182033,0.196848 z m 0,-1.274233 c 0.135466,0 0.182033,0.0635 0.182033,0.19685 v 0.402167 h -0.440267 c -0.131234,0 -0.1778,-0.0635 -0.1778,-0.198966 v -0.203201 c 0,-0.13335 0.04657,-0.19685 0.179916,-0.19685 z" />
      <path
         id="path16449"
         style="font-style:normal;font-variant:normal;font-weight:normal;font-stretch:normal;font-size:2.11667px;font-family:Quarca;-inkscape-font-specification:Quarca;fill:#dddddd;fill-opacity:1;stroke-width:0.264583"
         d="m 45.296159,99.823752 c 0,0.194738 0.07408,0.292098 0.292101,0.292098 h 0.345017 c 0.2159,0 0.289984,-0.0974 0.289984,-0.292098 v -0.918635 c 0,-0.194733 -0.07408,-0.2921 -0.289984,-0.2921 H 45.58826 c -0.218017,0 -0.292101,0.09737 -0.292101,0.2921 z m 0.302684,-1.096435 h 0.321734 c 0.13335,0 0.182033,0.0635 0.182033,0.19685 v 0.880535 c 0,0.13335 -0.04868,0.196848 -0.182033,0.196848 h -0.321734 c -0.13335,0 -0.179917,-0.0635 -0.179917,-0.196848 v -0.880535 c 0,-0.13335 0.04657,-0.19685 0.179917,-0.19685 z" />
      <path
         id="path16451"
         style="font-style:normal;font-variant:normal;font-weight:normal;font-stretch:normal;font-size:2.11667px;font-family:Quarca;-inkscape-font-specification:Quarca;fill:#dddddd;fill-opacity:1;stroke-width:0.264583"
         d="m 46.644345,98.519883 c -0.127,0 -0.169333,0.0381 -0.169333,0.156634 v 0.1016 c 0,0.118533 0.04445,0.156634 0.17145,0.156634 h 0.06773 c 0.127,0 0.169333,-0.0381 0.169333,-0.156634 v -0.1016 c 0,-0.118534 -0.04445,-0.156634 -0.169333,-0.156634 z m 0.06562,0.342901 h -0.04868 c -0.07408,0 -0.110067,-0.01905 -0.110067,-0.08043 v -0.110067 c 0,-0.05715 0.03598,-0.08043 0.09737,-0.08043 h 0.04868 c 0.07408,0 0.110067,0.01905 0.110067,0.08043 v 0.110067 c 0,0.05503 -0.02963,0.08043 -0.09737,0.08043 z" />
    </g>
    <g
       style="font-style:normal;font-variant:normal;font-weight:normal;font-stretch:normal;font-size:3.52778px;line-height:1.25;font-family:Quarca;-inkscape-font-specification:Quarca;letter-spacing:0px;word-spacing:0px;fill:#dddddd;fill-opacity:1;stroke:none;stroke-width:0.264583"
       id="text5443-7-3-7"
       aria-label="MULTIPLY">
      <path
         id="path16430"
         style="font-style:normal;font-variant:normal;font-weight:normal;font-stretch:normal;font-size:2.82222px;font-family:Quarca;-inkscape-font-specification:Quarca;fill:#dddddd;fill-opacity:1;stroke-width:0.264583"
         d="m 36.900322,58.174458 v -1.744132 l 0.499533,0.976488 h 0.158044 l 0.502356,-0.976488 v 1.744132 h 0.155222 v -2.003777 h -0.191911 l -0.544689,1.063977 -0.541866,-1.063977 H 36.7451 v 2.003777 z" />
      <path
         id="path16432"
         style="font-style:normal;font-variant:normal;font-weight:normal;font-stretch:normal;font-size:2.82222px;font-family:Quarca;-inkscape-font-specification:Quarca;fill:#dddddd;fill-opacity:1;stroke-width:0.264583"
         d="m 39.387536,58.022058 h -0.361244 c -0.194734,0 -0.2794,-0.09031 -0.2794,-0.296333 v -1.555044 h -0.160867 v 1.600199 c 0,0.268111 0.124178,0.403578 0.4064,0.403578 h 0.428977 c 0.282222,0 0.4064,-0.135467 0.4064,-0.403578 v -1.600199 h -0.163689 v 1.555044 c 0,0.206022 -0.08184,0.296333 -0.276577,0.296333 z" />
      <path
         id="path16434"
         style="font-style:normal;font-variant:normal;font-weight:normal;font-stretch:normal;font-size:2.82222px;font-family:Quarca;-inkscape-font-specification:Quarca;fill:#dddddd;fill-opacity:1;stroke-width:0.264583"
         d="m 40.362084,56.170681 h -0.160867 v 2.003777 h 1.027288 l 0.02258,-0.1524 h -0.888999 z" />
      <path
         id="path16436"
         style="font-style:normal;font-variant:normal;font-weight:normal;font-stretch:normal;font-size:2.82222px;font-family:Quarca;-inkscape-font-specification:Quarca;fill:#dddddd;fill-opacity:1;stroke-width:0.264583"
         d="m 42.251075,56.323081 v -0.1524 H 41.06292 v 0.1524 h 0.513644 v 1.851377 h 0.163689 v -1.851377 z" />
      <path
         id="path16438"
         style="font-style:normal;font-variant:normal;font-weight:normal;font-stretch:normal;font-size:2.82222px;font-family:Quarca;-inkscape-font-specification:Quarca;fill:#dddddd;fill-opacity:1;stroke-width:0.264583"
         d="m 42.633089,58.174458 v -2.003777 h -0.160867 v 2.003777 z" />
      <path
         id="path16440"
         style="font-style:normal;font-variant:normal;font-weight:normal;font-stretch:normal;font-size:2.82222px;font-family:Quarca;-inkscape-font-specification:Quarca;fill:#dddddd;fill-opacity:1;stroke-width:0.264583"
         d="m 43.173279,57.350369 h 0.632178 c 0.251177,0 0.381,-0.127 0.381,-0.378177 v -0.423333 c 0,-0.251178 -0.129823,-0.378178 -0.381,-0.378178 h -0.793044 v 2.003777 h 0.160866 z m 0,-1.027288 h 0.6096 c 0.163689,0 0.239889,0.0762 0.239889,0.256822 v 0.361244 c 0,0.180622 -0.0762,0.256822 -0.239889,0.256822 h -0.6096 z" />
      <path
         id="path16442"
         style="font-style:normal;font-variant:normal;font-weight:normal;font-stretch:normal;font-size:2.82222px;font-family:Quarca;-inkscape-font-specification:Quarca;fill:#dddddd;fill-opacity:1;stroke-width:0.264583"
         d="m 44.645023,56.170681 h -0.160866 v 2.003777 h 1.027288 l 0.02258,-0.1524 h -0.888999 z" />
      <path
         id="path16444"
         style="font-style:normal;font-variant:normal;font-weight:normal;font-stretch:normal;font-size:2.82222px;font-family:Quarca;-inkscape-font-specification:Quarca;fill:#dddddd;fill-opacity:1;stroke-width:0.264583"
         d="m 46.091719,58.174458 v -0.829733 l 0.592666,-1.174044 h -0.169333 l -0.44591,0.889 c -0.04798,0.09313 -0.0508,0.112888 -0.05927,0.149577 -0.0085,-0.03669 -0.01693,-0.05644 -0.06209,-0.1524 L 45.499053,56.170681 H 45.32972 l 0.59831,1.176866 v 0.826911 z" />
    </g>
    <g
       style="font-style:normal;font-weight:normal;font-size:4.93889px;line-height:1.25;font-family:sans-serif;letter-spacing:0px;word-spacing:0px;fill:#ffffff;fill-opacity:1;stroke:none;stroke-width:0.264583"
       id="text5443-7-3-6"
       aria-label=":">
      <path
         id="path16427"
         style="font-style:normal;font-variant:normal;font-weight:bold;font-stretch:normal;font-size:4.93889px;font-family:Calibri;-inkscape-font-specification:'Calibri Bold';stroke-width:0.264583"
         d="m 50.378459,60.094183 q 0,0.101286 -0.01688,0.168809 -0.01688,0.06752 -0.05788,0.110933 -0.03858,0.04341 -0.103697,0.0627 -0.06511,0.01688 -0.163987,0.01688 -0.09887,0 -0.163987,-0.01688 -0.06511,-0.01929 -0.106109,-0.0627 -0.03859,-0.04341 -0.05305,-0.110933 -0.01447,-0.06752 -0.01447,-0.168809 0,-0.103698 0.01447,-0.173633 0.01447,-0.06994 0.05305,-0.113344 0.041,-0.04341 0.106109,-0.0627 0.06511,-0.01929 0.163987,-0.01929 0.09887,0 0.163987,0.01929 0.06511,0.01929 0.103697,0.0627 0.041,0.04341 0.05788,0.113344 0.01688,0.06994 0.01688,0.173633 z m 0,1.574753 q 0,0.101286 -0.01688,0.171222 -0.01688,0.06752 -0.05788,0.110932 -0.03858,0.04341 -0.103697,0.06029 -0.06511,0.01929 -0.163987,0.01929 -0.09887,0 -0.163987,-0.01929 -0.06511,-0.01688 -0.106109,-0.06029 -0.03859,-0.04341 -0.05305,-0.110932 -0.01447,-0.06994 -0.01447,-0.171222 0,-0.101286 0.01447,-0.171221 0.01447,-0.07235 0.05305,-0.115755 0.041,-0.04341 0.106109,-0.06029 0.06511,-0.01929 0.163987,-0.01929 0.09887,0 0.163987,0.01929 0.06511,0.01688 0.103697,0.06029 0.041,0.04341 0.05788,0.115755 0.01688,0.06994 0.01688,0.171221 z" />
    </g>
    <g
       style="font-style:normal;font-variant:normal;font-weight:normal;font-stretch:normal;font-size:3.52778px;line-height:1.25;font-family:Quarca;-inkscape-font-specification:Quarca;letter-spacing:0px;word-spacing:0px;fill:#dddddd;fill-opacity:1;stroke:none;stroke-width:0.264583"
       id="text5443"
       aria-label="DIVISION">
      <path
         id="path16410"
         style="font-style:normal;font-variant:normal;font-weight:normal;font-stretch:normal;font-size:2.82222px;font-family:Quarca;-inkscape-font-specification:Quarca;fill:#dddddd;fill-opacity:1;stroke-width:0.264583"
         d="m 54.446783,58.145088 h 0.784577 c 0.352778,0 0.496711,-0.155222 0.496711,-0.474133 v -1.05551 c 0,-0.318911 -0.143933,-0.474133 -0.496711,-0.474133 h -0.784577 z m 0.776111,-0.1524 H 54.60765 v -1.698976 h 0.615244 c 0.245533,0 0.34431,0.110066 0.34431,0.3556 v 0.987777 c 0,0.245533 -0.09878,0.355599 -0.34431,0.355599 z" />
      <path
         id="path16412"
         style="font-style:normal;font-variant:normal;font-weight:normal;font-stretch:normal;font-size:2.82222px;font-family:Quarca;-inkscape-font-specification:Quarca;fill:#dddddd;fill-opacity:1;stroke-width:0.264583"
         d="m 56.255782,58.145088 v -2.003776 h -0.160867 v 2.003776 z" />
      <path
         id="path16414"
         style="font-style:normal;font-variant:normal;font-weight:normal;font-stretch:normal;font-size:2.82222px;font-family:Quarca;-inkscape-font-specification:Quarca;fill:#dddddd;fill-opacity:1;stroke-width:0.264583"
         d="m 57.270106,58.145088 0.570088,-2.003776 h -0.172155 l -0.468489,1.696154 c -0.0085,0.03951 -0.01693,0.08185 -0.01976,0.118533 -0.0056,-0.03669 -0.01129,-0.07902 -0.02258,-0.118533 l -0.468489,-1.696154 h -0.172155 l 0.57291,2.003776 z" />
      <path
         id="path16416"
         style="font-style:normal;font-variant:normal;font-weight:normal;font-stretch:normal;font-size:2.82222px;font-family:Quarca;-inkscape-font-specification:Quarca;fill:#dddddd;fill-opacity:1;stroke-width:0.264583"
         d="m 58.262204,58.145088 v -2.003776 h -0.160866 v 2.003776 z" />
      <path
         id="path16418"
         style="font-style:normal;font-variant:normal;font-weight:normal;font-stretch:normal;font-size:2.82222px;font-family:Quarca;-inkscape-font-specification:Quarca;fill:#dddddd;fill-opacity:1;stroke-width:0.264583"
         d="m 59.451505,57.312533 c 0.141111,0.05927 0.1778,0.107245 0.1778,0.245533 V 57.7528 c 0,0.169333 -0.07055,0.239888 -0.231422,0.239888 h -0.426155 c -0.160867,0 -0.234244,-0.07055 -0.234244,-0.239888 v -0.211667 h -0.160867 v 0.251178 c 0,0.234244 0.110067,0.352777 0.369711,0.352777 h 0.496711 c 0.234244,0 0.349955,-0.118533 0.349955,-0.352777 v -0.276578 c 0,-0.200378 -0.0762,-0.270933 -0.282222,-0.361244 l -0.578555,-0.245533 c -0.132645,-0.05645 -0.166511,-0.110067 -0.166511,-0.234244 v -0.124178 c 0,-0.191911 0.06209,-0.256822 0.242711,-0.256822 h 0.352777 c 0.160867,0 0.239889,0.07338 0.239889,0.248355 v 0.189089 h 0.163689 v -0.2286 c 0,-0.254 -0.121356,-0.361244 -0.381,-0.361244 h -0.417689 c -0.248355,0 -0.361244,0.110067 -0.361244,0.361244 v 0.197556 c 0,0.203199 0.06773,0.276577 0.2794,0.36971 z" />
      <path
         id="path16420"
         style="font-style:normal;font-variant:normal;font-weight:normal;font-stretch:normal;font-size:2.82222px;font-family:Quarca;-inkscape-font-specification:Quarca;fill:#dddddd;fill-opacity:1;stroke-width:0.264583"
         d="m 60.274138,58.145088 v -2.003776 h -0.160866 v 2.003776 z" />
      <path
         id="path16422"
         style="font-style:normal;font-variant:normal;font-weight:normal;font-stretch:normal;font-size:2.82222px;font-family:Quarca;-inkscape-font-specification:Quarca;fill:#dddddd;fill-opacity:1;stroke-width:0.264583"
         d="m 60.642173,57.755622 c 0,0.259644 0.09878,0.389466 0.386645,0.389466 h 0.536221 c 0.287867,0 0.386645,-0.129822 0.386645,-0.389466 v -1.224844 c 0,-0.259644 -0.09878,-0.389466 -0.386645,-0.389466 h -0.536221 c -0.287867,0 -0.386645,0.129822 -0.386645,0.389466 z m 0.403578,-1.46191 h 0.502355 c 0.180622,0 0.242711,0.08467 0.242711,0.262466 v 1.174044 c 0,0.1778 -0.06209,0.262466 -0.242711,0.262466 h -0.502355 c -0.1778,0 -0.242711,-0.08467 -0.242711,-0.262466 v -1.174044 c 0,-0.1778 0.06491,-0.262466 0.242711,-0.262466 z" />
      <path
         id="path16424"
         style="font-style:normal;font-variant:normal;font-weight:normal;font-stretch:normal;font-size:2.82222px;font-family:Quarca;-inkscape-font-specification:Quarca;fill:#dddddd;fill-opacity:1;stroke-width:0.264583"
         d="m 62.478998,58.145088 v -1.724376 c 0.04233,0.09313 0.07902,0.186266 0.146755,0.301977 l 0.824089,1.422399 h 0.163688 v -2.003776 h -0.163688 v 1.721554 c -0.03104,-0.07338 -0.05927,-0.143933 -0.112889,-0.237066 l -0.857955,-1.484488 h -0.160867 v 2.003776 z" />
    </g>
    <g
       style="font-style:normal;font-variant:normal;font-weight:normal;font-stretch:normal;font-size:3.52778px;line-height:1.25;font-family:Quarca;-inkscape-font-specification:Quarca;letter-spacing:0px;word-spacing:0px;fill:#dddddd;fill-opacity:1;stroke:none;stroke-width:0.264583"
       id="text5443-0-8"
       aria-label="MOM.">
      <path
         id="path16401"
         style="font-style:normal;font-variant:normal;font-weight:normal;font-stretch:normal;font-size:2.11667px;font-family:Quarca;-inkscape-font-specification:Quarca;fill:#dddddd;fill-opacity:1;stroke-width:0.264583"
         d="m 59.083696,127.36581 v -1.30811 l 0.374651,0.73237 h 0.118533 l 0.376767,-0.73237 v 1.30811 h 0.116417 v -1.50284 h -0.143933 l -0.408518,0.79799 -0.4064,-0.79799 h -0.143934 v 1.50284 z" />
      <path
         id="path16403"
         style="font-style:normal;font-variant:normal;font-weight:normal;font-stretch:normal;font-size:2.11667px;font-family:Quarca;-inkscape-font-specification:Quarca;fill:#dddddd;fill-opacity:1;stroke-width:0.264583"
         d="m 60.343743,127.07371 c 0,0.19473 0.07408,0.2921 0.289984,0.2921 h 0.402167 c 0.2159,0 0.289984,-0.0974 0.289984,-0.2921 v -0.91864 c 0,-0.19473 -0.07408,-0.2921 -0.289984,-0.2921 h -0.402167 c -0.215901,0 -0.289984,0.0974 -0.289984,0.2921 z m 0.302684,-1.09644 h 0.376767 c 0.135467,0 0.182034,0.0635 0.182034,0.19685 v 0.88054 c 0,0.13335 -0.04657,0.19685 -0.182034,0.19685 h -0.376767 c -0.13335,0 -0.182034,-0.0635 -0.182034,-0.19685 v -0.88054 c 0,-0.13335 0.04868,-0.19685 0.182034,-0.19685 z" />
      <path
         id="path16405"
         style="font-style:normal;font-variant:normal;font-weight:normal;font-stretch:normal;font-size:2.11667px;font-family:Quarca;-inkscape-font-specification:Quarca;fill:#dddddd;fill-opacity:1;stroke-width:0.264583"
         d="m 61.717131,127.36581 v -1.30811 l 0.374651,0.73237 h 0.118533 l 0.376767,-0.73237 v 1.30811 h 0.116417 v -1.50284 h -0.143933 l -0.408518,0.79799 -0.4064,-0.79799 h -0.143934 v 1.50284 z" />
      <path
         id="path16407"
         style="font-style:normal;font-variant:normal;font-weight:normal;font-stretch:normal;font-size:2.11667px;font-family:Quarca;-inkscape-font-specification:Quarca;fill:#dddddd;fill-opacity:1;stroke-width:0.264583"
         d="m 62.962361,127.37639 h 0.129117 v -0.15663 h -0.129117 z" />
    </g>
    <g
       style="font-style:normal;font-variant:normal;font-weight:normal;font-stretch:normal;font-size:3.52778px;line-height:1.25;font-family:Quarca;-inkscape-font-specification:Quarca;letter-spacing:0px;word-spacing:0px;fill:#dddddd;fill-opacity:1;stroke:none;stroke-width:0.264583"
       id="text5443-0-4-07"
       aria-label="GATE">
      <path
         id="path16392"
         style="font-style:normal;font-variant:normal;font-weight:normal;font-stretch:normal;font-size:2.11667px;font-family:Quarca;-inkscape-font-specification:Quarca;fill:#dddddd;fill-opacity:1;stroke-width:0.264583"
         d="m 59.499557,118.55201 h 0.361951 v 0.31538 c 0,0.12277 -0.0508,0.18204 -0.186267,0.18204 h -0.334434 c -0.124883,0 -0.18415,-0.0572 -0.18415,-0.19262 v -0.87418 c 0,-0.14394 0.04868,-0.20744 0.173567,-0.20744 h 0.36195 c 0.124884,0 0.179917,0.0572 0.179917,0.19262 v 0.13547 h 0.120651 v -0.17146 c 0,-0.18838 -0.09313,-0.27093 -0.273051,-0.27093 h -0.429684 c -0.169333,0 -0.254,0.0953 -0.254,0.28575 v 0.94827 c 0,0.1905 0.105833,0.26882 0.275167,0.26882 h 0.3937 c 0.209551,0 0.279401,-0.10372 0.279401,-0.28575 v -0.44027 h -0.467784 z" />
      <path
         id="path16394"
         style="font-style:normal;font-variant:normal;font-weight:normal;font-stretch:normal;font-size:2.11667px;font-family:Quarca;-inkscape-font-specification:Quarca;fill:#dddddd;fill-opacity:1;stroke-width:0.264583"
         d="m 60.574264,117.66089 -0.463551,1.50284 h 0.129117 l 0.09737,-0.32597 h 0.605368 l 0.09737,0.32597 h 0.129117 l -0.461434,-1.50284 z m 0.06773,0.16087 0.2667,0.9017 h -0.537634 z" />
      <path
         id="path16396"
         style="font-style:normal;font-variant:normal;font-weight:normal;font-stretch:normal;font-size:2.11667px;font-family:Quarca;-inkscape-font-specification:Quarca;fill:#dddddd;fill-opacity:1;stroke-width:0.264583"
         d="m 61.991606,117.77519 v -0.1143 h -0.891118 v 0.1143 h 0.385234 v 1.38854 h 0.122766 v -1.38854 z" />
      <path
         id="path16398"
         style="font-style:normal;font-variant:normal;font-weight:normal;font-stretch:normal;font-size:2.11667px;font-family:Quarca;-inkscape-font-specification:Quarca;fill:#dddddd;fill-opacity:1;stroke-width:0.264583"
         d="m 62.278117,117.77519 h 0.679451 l 0.01693,-0.1143 h -0.817035 v 1.50284 h 0.804335 l 0.01693,-0.1143 h -0.700617 v -0.45932 h 0.569384 l 0.01693,-0.11218 h -0.586317 z" />
    </g>
    <g
       style="font-style:normal;font-variant:normal;font-weight:normal;font-stretch:normal;font-size:3.52778px;line-height:1.25;font-family:Quarca;-inkscape-font-specification:Quarca;letter-spacing:0px;word-spacing:0px;fill:#dddddd;fill-opacity:1;stroke:none;stroke-width:0.264583"
       id="text5443-0-6-4"
       aria-label="BI">
      <path
         id="path16387"
         style="font-style:normal;font-variant:normal;font-weight:normal;font-stretch:normal;font-size:2.11667px;font-family:Quarca;-inkscape-font-specification:Quarca;fill:#dddddd;fill-opacity:1;stroke-width:0.264583"
         d="m 38.917154,127.38275 h 0.588434 c 0.226484,0 0.328084,-0.0974 0.328084,-0.2921 v -0.20532 c 0,-0.20531 -0.110067,-0.2794 -0.245534,-0.28998 0.114301,-0.0233 0.167217,-0.0995 0.167217,-0.23918 v -0.18415 c 0,-0.19474 -0.112183,-0.2921 -0.34925,-0.2921 h -0.488951 z m 0.12065,-0.72813 h 0.402168 c 0.188383,0 0.27305,0.072 0.27305,0.23706 v 0.17569 c 0,0.13546 -0.06985,0.20108 -0.226484,0.20108 h -0.448734 z m 0,-0.6604 h 0.340784 c 0.175684,0 0.256117,0.0593 0.256117,0.20531 v 0.14817 c 0,0.12065 -0.06562,0.19473 -0.213783,0.19473 h -0.383118 z" />
      <path
         id="path16389"
         style="font-style:normal;font-variant:normal;font-weight:normal;font-stretch:normal;font-size:2.11667px;font-family:Quarca;-inkscape-font-specification:Quarca;fill:#dddddd;fill-opacity:1;stroke-width:0.264583"
         d="m 40.191224,127.38275 v -1.50283 h -0.12065 v 1.50283 z" />
    </g>
    <g
       style="font-style:normal;font-variant:normal;font-weight:normal;font-stretch:normal;font-size:3.52778px;line-height:1.25;font-family:Quarca;-inkscape-font-specification:Quarca;letter-spacing:0px;word-spacing:0px;fill:#dddddd;fill-opacity:1;stroke:none;stroke-width:0.264583"
       id="text5443-0-4-9-0"
       aria-label="UNI">
      <path
         id="path16380"
         style="font-style:normal;font-variant:normal;font-weight:normal;font-stretch:normal;font-size:2.11667px;font-family:Quarca;-inkscape-font-specification:Quarca;fill:#dddddd;fill-opacity:1;stroke-width:0.264583"
         d="m 39.233595,119.04943 h -0.270934 c -0.14605,0 -0.20955,-0.0677 -0.20955,-0.22225 v -1.16629 H 38.63246 v 1.20015 c 0,0.20109 0.09313,0.30269 0.304801,0.30269 h 0.321734 c 0.211667,0 0.3048,-0.1016 0.3048,-0.30269 v -1.20015 h -0.122767 v 1.16629 c 0,0.15451 -0.06138,0.22225 -0.207433,0.22225 z" />
      <path
         id="path16382"
         style="font-style:normal;font-variant:normal;font-weight:normal;font-stretch:normal;font-size:2.11667px;font-family:Quarca;-inkscape-font-specification:Quarca;fill:#dddddd;fill-opacity:1;stroke-width:0.264583"
         d="m 39.964507,119.16373 v -1.29329 c 0.03175,0.0699 0.05927,0.1397 0.110067,0.22649 l 0.618068,1.0668 h 0.122767 v -1.50284 h -0.122767 v 1.29117 c -0.02328,-0.055 -0.04445,-0.10795 -0.08467,-0.1778 l -0.643468,-1.11337 h -0.12065 v 1.50284 z" />
      <path
         id="path16384"
         style="font-style:normal;font-variant:normal;font-weight:normal;font-stretch:normal;font-size:2.11667px;font-family:Quarca;-inkscape-font-specification:Quarca;fill:#dddddd;fill-opacity:1;stroke-width:0.264583"
         d="m 41.22128,119.16373 v -1.50284 h -0.12065 v 1.50284 z" />
    </g>
    <g
       style="font-style:normal;font-variant:normal;font-weight:normal;font-stretch:normal;font-size:3.52778px;line-height:1.25;font-family:Quarca;-inkscape-font-specification:Quarca;letter-spacing:0px;word-spacing:0px;fill:#dddddd;fill-opacity:1;stroke:none;stroke-width:0.264583"
       id="text5443-0-4-7-3"
       aria-label="PAUSE">
      <path
         id="path16369"
         style="font-style:normal;font-variant:normal;font-weight:normal;font-stretch:normal;font-size:2.11667px;font-family:Quarca;-inkscape-font-specification:Quarca;fill:#dddddd;fill-opacity:1;stroke-width:0.264583"
         d="m 48.218846,118.54566 h 0.474134 c 0.188384,0 0.28575,-0.0952 0.28575,-0.28363 v -0.31751 c 0,-0.18838 -0.09737,-0.28363 -0.28575,-0.28363 h -0.594784 v 1.50284 h 0.12065 z m 0,-0.77047 h 0.457201 c 0.122767,0 0.179917,0.0572 0.179917,0.19262 v 0.27093 c 0,0.13547 -0.05715,0.19262 -0.179917,0.19262 h -0.457201 z" />
      <path
         id="path16371"
         style="font-style:normal;font-variant:normal;font-weight:normal;font-stretch:normal;font-size:2.11667px;font-family:Quarca;-inkscape-font-specification:Quarca;fill:#dddddd;fill-opacity:1;stroke-width:0.264583"
         d="m 49.458487,117.66089 -0.463551,1.50284 h 0.129117 l 0.09737,-0.32597 h 0.605368 l 0.09737,0.32597 h 0.129117 l -0.461434,-1.50284 z m 0.06773,0.16087 0.266701,0.9017 h -0.537634 z" />
      <path
         id="path16373"
         style="font-style:normal;font-variant:normal;font-weight:normal;font-stretch:normal;font-size:2.11667px;font-family:Quarca;-inkscape-font-specification:Quarca;fill:#dddddd;fill-opacity:1;stroke-width:0.264583"
         d="m 50.811767,119.04943 h -0.270934 c -0.14605,0 -0.20955,-0.0677 -0.20955,-0.22225 v -1.16629 h -0.120651 v 1.20015 c 0,0.20109 0.09313,0.30269 0.304801,0.30269 h 0.321734 c 0.211667,0 0.3048,-0.1016 0.3048,-0.30269 v -1.20015 H 51.0192 v 1.16629 c 0,0.15451 -0.06138,0.22225 -0.207433,0.22225 z" />
      <path
         id="path16375"
         style="font-style:normal;font-variant:normal;font-weight:normal;font-stretch:normal;font-size:2.11667px;font-family:Quarca;-inkscape-font-specification:Quarca;fill:#dddddd;fill-opacity:1;stroke-width:0.264583"
         d="m 52.029513,118.53931 c 0.105834,0.0444 0.133351,0.0804 0.133351,0.18415 v 0.14605 c 0,0.127 -0.05292,0.17992 -0.173567,0.17992 h -0.319618 c -0.12065,0 -0.175683,-0.0529 -0.175683,-0.17992 v -0.15875 h -0.12065 v 0.18838 c 0,0.17569 0.08255,0.26459 0.277283,0.26459 h 0.372534 c 0.175684,0 0.262467,-0.0889 0.262467,-0.26459 v -0.20743 c 0,-0.15028 -0.05715,-0.2032 -0.211667,-0.27093 l -0.433917,-0.18415 c -0.09948,-0.0423 -0.124883,-0.0826 -0.124883,-0.17569 v -0.0931 c 0,-0.14394 0.04657,-0.19262 0.182033,-0.19262 h 0.264584 c 0.12065,0 0.179917,0.055 0.179917,0.18627 v 0.14182 h 0.122767 v -0.17146 c 0,-0.1905 -0.09102,-0.27093 -0.285751,-0.27093 h -0.313267 c -0.186267,0 -0.270934,0.0826 -0.270934,0.27093 v 0.14817 c 0,0.1524 0.0508,0.20744 0.209551,0.27729 z" />
      <path
         id="path16377"
         style="font-style:normal;font-variant:normal;font-weight:normal;font-stretch:normal;font-size:2.11667px;font-family:Quarca;-inkscape-font-specification:Quarca;fill:#dddddd;fill-opacity:1;stroke-width:0.264583"
         d="m 52.64649,117.77519 h 0.679451 l 0.01693,-0.1143 H 52.52584 v 1.50284 h 0.804334 l 0.01693,-0.1143 H 52.64649 v -0.45932 h 0.569384 l 0.01693,-0.11218 H 52.64649 Z" />
    </g>
    <g
       style="font-style:normal;font-variant:normal;font-weight:normal;font-stretch:normal;font-size:3.52778px;line-height:1.25;font-family:Quarca;-inkscape-font-specification:Quarca;letter-spacing:0px;word-spacing:0px;fill:#dddddd;fill-opacity:1;stroke:none;stroke-width:0.264583"
       id="text5443-0-4-0-8"
       aria-label="FREE">
      <path
         id="path16360"
         style="font-style:normal;font-variant:normal;font-weight:normal;font-stretch:normal;font-size:2.11667px;font-family:Quarca;-inkscape-font-specification:Quarca;fill:#dddddd;fill-opacity:1;stroke-width:0.264583"
         d="m 48.48343,125.99422 h 0.673101 l 0.01693,-0.1143 h -0.810685 v 1.50283 h 0.120651 v -0.57362 h 0.5334 l 0.01693,-0.11218 H 48.48343 Z" />
      <path
         id="path16362"
         style="font-style:normal;font-variant:normal;font-weight:normal;font-stretch:normal;font-size:2.11667px;font-family:Quarca;-inkscape-font-specification:Quarca;fill:#dddddd;fill-opacity:1;stroke-width:0.264583"
         d="m 49.354968,127.38275 h 0.120651 v -0.60325 h 0.277283 l 0.421218,0.60325 h 0.141817 l -0.423334,-0.60325 h 0.02963 c 0.201084,0 0.29845,-0.0952 0.29845,-0.28575 v -0.32808 c 0,-0.1905 -0.09737,-0.28575 -0.29845,-0.28575 h -0.567268 z m 0.120651,-1.38853 h 0.42545 c 0.135467,0 0.196851,0.0635 0.196851,0.20743 v 0.25612 c 0,0.14605 -0.06138,0.20955 -0.196851,0.20955 h -0.42545 z" />
      <path
         id="path16364"
         style="font-style:normal;font-variant:normal;font-weight:normal;font-stretch:normal;font-size:2.11667px;font-family:Quarca;-inkscape-font-specification:Quarca;fill:#dddddd;fill-opacity:1;stroke-width:0.264583"
         d="m 50.600099,125.99422 h 0.679452 l 0.01693,-0.1143 h -0.817035 v 1.50283 h 0.804335 l 0.01693,-0.1143 h -0.700618 v -0.45932 h 0.569385 l 0.01693,-0.11218 h -0.586318 z" />
      <path
         id="path16366"
         style="font-style:normal;font-variant:normal;font-weight:normal;font-stretch:normal;font-size:2.11667px;font-family:Quarca;-inkscape-font-specification:Quarca;fill:#dddddd;fill-opacity:1;stroke-width:0.264583"
         d="m 51.617093,125.99422 h 0.679451 l 0.01693,-0.1143 h -0.817035 v 1.50283 h 0.804335 l 0.01693,-0.1143 h -0.700618 v -0.45932 h 0.569384 l 0.01693,-0.11218 h -0.586318 z" />
    </g>
    <g
       style="font-style:normal;font-variant:normal;font-weight:normal;font-stretch:normal;font-size:3.52778px;line-height:1.25;font-family:Quarca;-inkscape-font-specification:Quarca;letter-spacing:0px;word-spacing:0px;fill:#dddddd;fill-opacity:1;stroke:none;stroke-width:0.264583"
       id="text4978"
       aria-label="RESET">
      <path
         id="path16349"
         style="font-style:normal;font-variant:normal;font-weight:normal;font-stretch:normal;font-size:2.82222px;font-family:Quarca;-inkscape-font-specification:Quarca;fill:#dddddd;fill-opacity:1;stroke-width:0.264583"
         d="m 47.300211,132.14525 h 0.160866 v -0.80433 h 0.369711 l 0.561622,0.80433 h 0.189089 l -0.564444,-0.80433 h 0.03951 c 0.268111,0 0.397933,-0.127 0.397933,-0.381 v -0.43745 c 0,-0.254 -0.129822,-0.381 -0.397933,-0.381 h -0.756355 z m 0.160866,-1.85138 h 0.567267 c 0.180622,0 0.262466,0.0847 0.262466,0.27658 v 0.34149 c 0,0.19473 -0.08184,0.2794 -0.262466,0.2794 h -0.567267 z" />
      <path
         id="path16351"
         style="font-style:normal;font-variant:normal;font-weight:normal;font-stretch:normal;font-size:2.82222px;font-family:Quarca;-inkscape-font-specification:Quarca;fill:#dddddd;fill-opacity:1;stroke-width:0.264583"
         d="m 48.960382,130.29387 h 0.905932 l 0.02258,-0.1524 h -1.089377 v 2.00378 h 1.072444 l 0.02258,-0.1524 h -0.934155 v -0.61242 h 0.759177 l 0.02258,-0.14958 h -0.781755 z" />
      <path
         id="path16353"
         style="font-style:normal;font-variant:normal;font-weight:normal;font-stretch:normal;font-size:2.82222px;font-family:Quarca;-inkscape-font-specification:Quarca;fill:#dddddd;fill-opacity:1;stroke-width:0.264583"
         d="m 50.965481,131.31269 c 0.141111,0.0593 0.1778,0.10725 0.1778,0.24554 v 0.19473 c 0,0.16933 -0.07056,0.23989 -0.231422,0.23989 h -0.426156 c -0.160866,0 -0.234244,-0.0706 -0.234244,-0.23989 v -0.21167 h -0.160866 v 0.25118 c 0,0.23425 0.110066,0.35278 0.36971,0.35278 h 0.496711 c 0.234244,0 0.349955,-0.11853 0.349955,-0.35278 v -0.27658 c 0,-0.20037 -0.0762,-0.27093 -0.282222,-0.36124 l -0.578555,-0.24553 c -0.132644,-0.0565 -0.166511,-0.11007 -0.166511,-0.23425 v -0.12418 c 0,-0.19191 0.06209,-0.25682 0.242711,-0.25682 h 0.352778 c 0.160866,0 0.239889,0.0734 0.239889,0.24836 v 0.18909 h 0.163688 v -0.2286 c 0,-0.254 -0.121355,-0.36125 -0.380999,-0.36125 h -0.417689 c -0.248355,0 -0.361244,0.11007 -0.361244,0.36125 v 0.19755 c 0,0.2032 0.06773,0.27658 0.2794,0.36971 z" />
      <path
         id="path16355"
         style="font-style:normal;font-variant:normal;font-weight:normal;font-stretch:normal;font-size:2.82222px;font-family:Quarca;-inkscape-font-specification:Quarca;fill:#dddddd;fill-opacity:1;stroke-width:0.264583"
         d="m 51.788114,130.29387 h 0.905933 l 0.02258,-0.1524 h -1.089377 v 2.00378 h 1.072443 l 0.02258,-0.1524 h -0.934155 v -0.61242 h 0.759177 l 0.02258,-0.14958 h -0.781755 z" />
      <path
         id="path16357"
         style="font-style:normal;font-variant:normal;font-weight:normal;font-stretch:normal;font-size:2.82222px;font-family:Quarca;-inkscape-font-specification:Quarca;fill:#dddddd;fill-opacity:1;stroke-width:0.264583"
         d="m 54.013347,130.29387 v -0.1524 h -1.188155 v 0.1524 h 0.513644 v 1.85138 h 0.163689 v -1.85138 z" />
    </g>
    <g
       style="font-style:normal;font-variant:normal;font-weight:normal;font-stretch:normal;font-size:3.52778px;line-height:1.25;font-family:Quarca;-inkscape-font-specification:Quarca;letter-spacing:0px;word-spacing:0px;fill:#dddddd;fill-opacity:1;stroke:none;stroke-width:0.264583"
       id="text4982"
       aria-label="CLOCK">
      <path
         id="path16338"
         style="font-style:normal;font-variant:normal;font-weight:normal;font-stretch:normal;font-size:2.82222px;font-family:Quarca;-inkscape-font-specification:Quarca;fill:#dddddd;fill-opacity:1;stroke-width:0.264583"
         d="m 36.929251,131.9731 c -0.1778,0 -0.242711,-0.0847 -0.242711,-0.26246 v -1.17405 c 0,-0.1778 0.06491,-0.26246 0.242711,-0.26246 h 0.4572 c 0.1778,0 0.242711,0.0847 0.242711,0.26246 v 0.18345 h 0.160866 v -0.20885 c 0,-0.25964 -0.09878,-0.38946 -0.386644,-0.38946 h -0.491066 c -0.287867,0 -0.386644,0.12982 -0.386644,0.38946 v 1.22485 c 0,0.25964 0.09878,0.38946 0.386644,0.38946 h 0.491066 c 0.287866,0 0.386644,-0.12982 0.386644,-0.38946 v -0.21449 h -0.160866 v 0.18909 c 0,0.1778 -0.06491,0.26246 -0.242711,0.26246 z" />
      <path
         id="path16340"
         style="font-style:normal;font-variant:normal;font-weight:normal;font-stretch:normal;font-size:2.82222px;font-family:Quarca;-inkscape-font-specification:Quarca;fill:#dddddd;fill-opacity:1;stroke-width:0.264583"
         d="m 38.263279,130.12173 h -0.160866 v 2.00377 h 1.027288 l 0.02258,-0.1524 h -0.888999 z" />
      <path
         id="path16342"
         style="font-style:normal;font-variant:normal;font-weight:normal;font-stretch:normal;font-size:2.82222px;font-family:Quarca;-inkscape-font-specification:Quarca;fill:#dddddd;fill-opacity:1;stroke-width:0.264583"
         d="m 39.358918,131.73604 c 0,0.25964 0.09878,0.38946 0.386644,0.38946 h 0.536222 c 0.287866,0 0.386644,-0.12982 0.386644,-0.38946 v -1.22485 c 0,-0.25964 -0.09878,-0.38946 -0.386644,-0.38946 h -0.536222 c -0.287866,0 -0.386644,0.12982 -0.386644,0.38946 z m 0.403577,-1.46191 h 0.502356 c 0.180622,0 0.24271,0.0847 0.24271,0.26246 v 1.17405 c 0,0.1778 -0.06209,0.26246 -0.24271,0.26246 h -0.502356 c -0.1778,0 -0.242711,-0.0847 -0.242711,-0.26246 v -1.17405 c 0,-0.1778 0.06491,-0.26246 0.242711,-0.26246 z" />
      <path
         id="path16344"
         style="font-style:normal;font-variant:normal;font-weight:normal;font-stretch:normal;font-size:2.82222px;font-family:Quarca;-inkscape-font-specification:Quarca;fill:#dddddd;fill-opacity:1;stroke-width:0.264583"
         d="m 41.427164,131.9731 c -0.177799,0 -0.242711,-0.0847 -0.242711,-0.26246 v -1.17405 c 0,-0.1778 0.06491,-0.26246 0.242711,-0.26246 h 0.4572 c 0.1778,0 0.242711,0.0847 0.242711,0.26246 v 0.18345 h 0.160867 v -0.20885 c 0,-0.25964 -0.09878,-0.38946 -0.386645,-0.38946 h -0.491066 c -0.287866,0 -0.386644,0.12982 -0.386644,0.38946 v 1.22485 c 0,0.25964 0.09878,0.38946 0.386644,0.38946 h 0.491066 c 0.287867,0 0.386645,-0.12982 0.386645,-0.38946 v -0.21449 h -0.160867 v 0.18909 c 0,0.1778 -0.06491,0.26246 -0.242711,0.26246 z" />
      <path
         id="path16346"
         style="font-style:normal;font-variant:normal;font-weight:normal;font-stretch:normal;font-size:2.82222px;font-family:Quarca;-inkscape-font-specification:Quarca;fill:#dddddd;fill-opacity:1;stroke-width:0.264583"
         d="m 42.761193,132.1255 v -0.95955 l 0.829732,0.95955 h 0.189089 l -0.866422,-1.00188 0.849489,-1.00189 h -0.1778 l -0.824088,0.95955 v -0.95955 h -0.160867 v 2.00377 z" />
    </g>
    <g
       style="font-style:normal;font-variant:normal;font-weight:normal;font-stretch:normal;font-size:3.52778px;line-height:1.25;font-family:Quarca;-inkscape-font-specification:Quarca;letter-spacing:0px;word-spacing:0px;fill:#dddddd;fill-opacity:1;stroke:none;stroke-width:0.264583"
       id="text4978-4"
       aria-label="HOLD">
      <path
         id="path16329"
         style="font-style:normal;font-variant:normal;font-weight:normal;font-stretch:normal;font-size:2.82222px;font-family:Quarca;-inkscape-font-specification:Quarca;fill:#dddddd;fill-opacity:1;stroke-width:0.264583"
         d="m 57.77983,132.1255 v -0.75917 h 0.92851 v 0.75917 h 0.160867 v -2.00377 H 58.70834 v 1.0922 h -0.92851 v -1.0922 h -0.160867 v 2.00377 z" />
      <path
         id="path16331"
         style="font-style:normal;font-variant:normal;font-weight:normal;font-stretch:normal;font-size:2.82222px;font-family:Quarca;-inkscape-font-specification:Quarca;fill:#dddddd;fill-opacity:1;stroke-width:0.264583"
         d="m 59.233758,131.73604 c 0,0.25964 0.09878,0.38946 0.386644,0.38946 h 0.536222 c 0.287867,0 0.386644,-0.12982 0.386644,-0.38946 v -1.22485 c 0,-0.25964 -0.09878,-0.38946 -0.386644,-0.38946 h -0.536222 c -0.287866,0 -0.386644,0.12982 -0.386644,0.38946 z m 0.403578,-1.46191 h 0.502355 c 0.180622,0 0.242711,0.0847 0.242711,0.26246 v 1.17405 c 0,0.1778 -0.06209,0.26246 -0.242711,0.26246 h -0.502355 c -0.1778,0 -0.242711,-0.0847 -0.242711,-0.26246 v -1.17405 c 0,-0.1778 0.06491,-0.26246 0.242711,-0.26246 z" />
      <path
         id="path16333"
         style="font-style:normal;font-variant:normal;font-weight:normal;font-stretch:normal;font-size:2.82222px;font-family:Quarca;-inkscape-font-specification:Quarca;fill:#dddddd;fill-opacity:1;stroke-width:0.264583"
         d="m 61.070583,130.12173 h -0.160867 v 2.00377 h 1.027288 l 0.02258,-0.1524 h -0.888999 z" />
      <path
         id="path16335"
         style="font-style:normal;font-variant:normal;font-weight:normal;font-stretch:normal;font-size:2.82222px;font-family:Quarca;-inkscape-font-specification:Quarca;fill:#dddddd;fill-opacity:1;stroke-width:0.264583"
         d="m 62.17751,132.1255 h 0.784577 c 0.352778,0 0.496711,-0.15522 0.496711,-0.47413 v -1.05551 c 0,-0.31891 -0.143933,-0.47413 -0.496711,-0.47413 H 62.17751 Z m 0.776111,-0.1524 h -0.615244 v -1.69897 h 0.615244 c 0.245533,0 0.344311,0.11006 0.344311,0.3556 v 0.98777 c 0,0.24554 -0.09878,0.3556 -0.344311,0.3556 z" />
    </g>
    <g
       style="font-style:normal;font-variant:normal;font-weight:normal;font-stretch:normal;font-size:3.52778px;line-height:1.25;font-family:Quarca;-inkscape-font-specification:Quarca;text-align:start;letter-spacing:0px;word-spacing:0px;text-anchor:start;fill:#dddddd;fill-opacity:1;stroke:none;stroke-width:0.264583"
       id="text3885"
       aria-label="BPM LFO">
      <path
         id="path16316"
         style="font-style:normal;font-variant:normal;font-weight:normal;font-stretch:normal;font-size:3.88056px;font-family:Quarca;-inkscape-font-specification:Quarca;text-align:start;text-anchor:start;fill:#dddddd;fill-opacity:1;stroke-width:0.264583"
         d="m 44.800288,54.32671 h 1.078796 c 0.41522,0 0.601487,-0.178506 0.601487,-0.535518 v -0.376414 c 0,-0.376414 -0.201789,-0.512234 -0.450145,-0.531637 0.20955,-0.04269 0.306564,-0.182386 0.306564,-0.438503 v -0.337609 c 0,-0.357011 -0.20567,-0.535517 -0.640292,-0.535517 h -0.89641 z m 0.221192,-1.334913 h 0.737307 c 0.345369,0 0.500592,0.131939 0.500592,0.434623 v 0.322086 c 0,0.248356 -0.128059,0.368654 -0.41522,0.368654 H 45.02148 Z m 0,-1.210735 h 0.62477 c 0.322087,0 0.469548,0.108656 0.469548,0.376415 v 0.271639 c 0,0.221192 -0.120297,0.357011 -0.391936,0.357011 H 45.02148 Z" />
      <path
         id="path16318"
         style="font-style:normal;font-variant:normal;font-weight:normal;font-stretch:normal;font-size:3.88056px;font-family:Quarca;-inkscape-font-specification:Quarca;text-align:start;text-anchor:start;fill:#dddddd;fill-opacity:1;stroke-width:0.264583"
         d="m 47.136082,53.193586 h 0.869246 c 0.34537,0 0.523875,-0.174625 0.523875,-0.519995 v -0.582084 c 0,-0.34537 -0.178505,-0.519995 -0.523875,-0.519995 H 46.91489 v 2.755198 h 0.221192 z m 0,-1.412524 h 0.838201 c 0.225073,0 0.329848,0.104776 0.329848,0.353131 v 0.496712 c 0,0.248356 -0.104775,0.353131 -0.329848,0.353131 h -0.838201 z" />
      <path
         id="path16320"
         style="font-style:normal;font-variant:normal;font-weight:normal;font-stretch:normal;font-size:3.88056px;font-family:Quarca;-inkscape-font-specification:Quarca;text-align:start;text-anchor:start;fill:#dddddd;fill-opacity:1;stroke-width:0.264583"
         d="m 49.151972,54.32671 v -2.398186 l 0.686859,1.342673 h 0.217312 l 0.690739,-1.342673 v 2.398186 h 0.213431 v -2.755198 h -0.263878 l -0.748948,1.462971 -0.745067,-1.462971 h -0.263878 v 2.755198 z" />
      <path
         id="path16322"
         style="font-style:normal;font-variant:normal;font-weight:normal;font-stretch:normal;font-size:3.88056px;font-family:Quarca;-inkscape-font-specification:Quarca;text-align:start;text-anchor:start;fill:#dddddd;fill-opacity:1;stroke-width:0.264583"
         d="m 52.487011,51.571512 h -0.221192 v 2.755198 h 1.412524 l 0.03104,-0.20955 h -1.222376 z" />
      <path
         id="path16324"
         style="font-style:normal;font-variant:normal;font-weight:normal;font-stretch:normal;font-size:3.88056px;font-family:Quarca;-inkscape-font-specification:Quarca;text-align:start;text-anchor:start;fill:#dddddd;fill-opacity:1;stroke-width:0.264583"
         d="m 54.230231,51.781062 h 1.234018 l 0.03104,-0.20955 h -1.486255 v 2.755198 h 0.221192 v -1.051632 h 0.977901 l 0.03104,-0.20567 h -1.008946 z" />
      <path
         id="path16326"
         style="font-style:normal;font-variant:normal;font-weight:normal;font-stretch:normal;font-size:3.88056px;font-family:Quarca;-inkscape-font-specification:Quarca;text-align:start;text-anchor:start;fill:#dddddd;fill-opacity:1;stroke-width:0.264583"
         d="m 55.812529,53.791192 c 0,0.357012 0.13582,0.535518 0.531637,0.535518 h 0.737307 c 0.395817,0 0.531636,-0.178506 0.531636,-0.535518 v -1.684163 c 0,-0.357011 -0.135819,-0.535517 -0.531636,-0.535517 h -0.737307 c -0.395817,0 -0.531637,0.178506 -0.531637,0.535517 z m 0.554921,-2.01013 h 0.690739 c 0.248356,0 0.333728,0.116417 0.333728,0.360893 v 1.614312 c 0,0.244476 -0.08537,0.360893 -0.333728,0.360893 H 56.36745 c -0.244476,0 -0.333729,-0.116417 -0.333729,-0.360893 v -1.614312 c 0,-0.244476 0.08925,-0.360893 0.333729,-0.360893 z" />
    </g>
    <path
       d="m 36.33794,138.89313 h 29.366743 v 8.20007 H 36.33794 Z"
       style="opacity:0.981;fill:#0e365d;fill-opacity:1;stroke:#000000;stroke-width:0.266591;stroke-miterlimit:4;stroke-dasharray:none;stroke-opacity:1"
       id="rect22843" />
    <path
       inkscape:connector-curvature="0"
       id="path872"
       d="m 61.604646,140.66225 h 0.760677 v -1.02526 h 0.628385 v 1.0418 h 0.396875"
       style="fill:none;stroke:#ffffff;stroke-width:0.13229169;stroke-linecap:butt;stroke-linejoin:miter;stroke-miterlimit:4;stroke-dasharray:none;stroke-opacity:1" />
    <path
       sodipodi:nodetypes="ccc"
       inkscape:connector-curvature="0"
       id="path870"
       d="m 46.052145,140.84455 0.529167,-0.95911 0.578776,0.89297"
       style="fill:none;stroke:#ffffff;stroke-width:0.13229169;stroke-linecap:butt;stroke-linejoin:miter;stroke-miterlimit:4;stroke-dasharray:none;stroke-opacity:1" />
    <g
       style="stroke:#ffffff;stroke-width:1.06662023;stroke-miterlimit:4;stroke-dasharray:none;stroke-opacity:1"
       transform="matrix(0.12402883,0,0,0.12402883,36.742032,135.60115)"
       id="g346">
      <!-- <text font-size="6pt" letter-spacing="2px" transform="translate(6.5 40)">SIN</text> -->
      <g
         style="stroke:#ffffff;stroke-width:1.06662023;stroke-miterlimit:4;stroke-dasharray:none;stroke-opacity:1"
         transform="translate(9,33.5)"
         id="g344">
        <!-- <rect width="12" height="8" fill="none" stroke-width="1" stroke="#0f0" /> -->
        <path
           d="M 0,4 A 3,4.5 0 0 1 6,4"
           id="path340"
           inkscape:connector-curvature="0"
           style="fill:none;stroke:#ffffff;stroke-width:1.06662023;stroke-miterlimit:4;stroke-dasharray:none;stroke-opacity:1" />
        <path
           d="m 6,4 a 3,4.5 0 0 0 6,0"
           id="path342"
           inkscape:connector-curvature="0"
           style="fill:none;stroke:#ffffff;stroke-width:1.06662023;stroke-miterlimit:4;stroke-dasharray:none;stroke-opacity:1" />
      </g>
    </g>
    <g
       style="stroke:#ffffff;stroke-width:1.06534851;stroke-miterlimit:4;stroke-dasharray:none;stroke-opacity:1"
       id="g318"
       transform="matrix(0.12417689,0,0,0.12417689,52.586245,135.66813)">
      <g
         style="stroke:#ffffff;stroke-width:1.06534851;stroke-miterlimit:4;stroke-dasharray:none;stroke-opacity:1"
         id="g316"
         transform="translate(9,33.5)">
        <path
           style="fill:none;stroke:#ffffff;stroke-width:1.06534851;stroke-miterlimit:4;stroke-dasharray:none;stroke-opacity:1"
           d="M 0,8 12,0 v 8"
           id="polyline314"
           inkscape:connector-curvature="0" />
      </g>
    </g>
    <g
       style="font-style:normal;font-variant:normal;font-weight:bold;font-stretch:normal;font-size:13.3333px;line-height:1.25;font-family:Consolas;-inkscape-font-specification:'Consolas Bold';text-align:center;letter-spacing:0px;word-spacing:0px;text-anchor:middle;fill:#000000;fill-opacity:1;stroke:none"
       id="flowRoot2155" />
    <g
       style="font-style:normal;font-variant:normal;font-weight:bold;font-stretch:normal;font-size:13.3333px;line-height:1.25;font-family:Consolas;-inkscape-font-specification:'Consolas Bold';text-align:center;letter-spacing:0px;word-spacing:0px;text-anchor:middle;fill:#000000;fill-opacity:1;stroke:none"
       id="flowRoot2163" />
    <g
       style="font-style:normal;font-variant:normal;font-weight:bold;font-stretch:normal;font-size:13.3333px;line-height:1.25;font-family:Consolas;-inkscape-font-specification:'Consolas Bold';text-align:center;letter-spacing:0px;word-spacing:0px;text-anchor:middle;fill:#000000;fill-opacity:1;stroke:none"
       id="flowRoot2171" />
    <g
       id="g1062">
      <path
         d="m 36.204647,58.855671 h 9.525001 v 4.7625 h -9.525001 z"
         style="fill:#999999;fill-opacity:1;stroke-width:0.10017"
         id="rect6948-0" />
      <path
         d="m 36.520828,59.120251 h 8.995834 v 4.233333 h -8.995834 z"
         style="fill:#323232;fill-opacity:1;stroke-width:0.0930023"
         id="rect4735-6" />
    </g>
    <g
       id="g1066">
      <path
         d="m 53.799438,58.855671 h 9.525001 v 4.7625 h -9.525001 z"
         style="fill:#999999;fill-opacity:1;stroke-width:0.10017"
         id="rect6948-0-8" />
      <path
         d="m 54.11562,59.120251 h 8.995833 v 4.233333 H 54.11562 Z"
         style="fill:#323232;fill-opacity:1;stroke-width:0.0930023"
         id="rect4735-6-8" />
    </g>
    <g
       style="font-style:normal;font-variant:normal;font-weight:bold;font-stretch:normal;font-size:2.77782px;line-height:1.25;font-family:Consolas;-inkscape-font-specification:'Consolas Bold';text-align:start;letter-spacing:0px;word-spacing:0px;text-anchor:start;fill:#00a3f2;fill-opacity:1;stroke:none;stroke-width:0.208337"
       id="text3885-7"
       aria-label="FROZEN WASTELAND">
      <path
         id="path16277"
         style="font-style:normal;font-variant:normal;font-weight:normal;font-stretch:normal;font-family:'Bradley Gratis';-inkscape-font-specification:'Bradley Gratis';text-align:start;text-anchor:start;stroke-width:0.208337"
         d="m 41.169928,150.13164 q 0.09445,-0.0944 0.150002,-0.16667 0.05833,-0.0722 0.08889,-0.13334 0.03333,-0.0611 0.04167,-0.11389 0.01111,-0.0555 0.01111,-0.11667 0,-0.075 -0.03611,-0.18055 -0.03611,-0.10556 -0.08056,-0.22501 -0.04445,-0.11944 -0.08056,-0.24445 -0.03611,-0.125 -0.03611,-0.23889 0,-0.0611 0.01944,-0.11945 0.02222,-0.0583 0.05278,-0.11111 0.03333,-0.0555 0.07222,-0.10278 0.03889,-0.05 0.07778,-0.0889 -0.05556,-0.0111 -0.09722,-0.0167 -0.04167,-0.008 -0.06111,-0.008 -0.102779,0 -0.175003,0.0556 -0.06944,0.0528 -0.150002,0.13333 0,-0.0944 0.02778,-0.19444 0.03056,-0.10278 0.09167,-0.18612 0.06111,-0.0833 0.152781,-0.13611 0.09445,-0.0528 0.222225,-0.0528 0.08889,0 0.163892,0.0139 0.07778,0.0111 0.141668,0.0278 0.06389,0.0167 0.116669,0.0306 0.05278,0.0111 0.09445,0.0111 0.06389,0 0.111113,-0.0167 0.05,-0.0195 0.09722,-0.0667 0,0.0611 -0.025,0.13889 -0.02222,0.0778 -0.06945,0.15 -0.04444,0.0694 -0.116668,0.11945 -0.07222,0.0472 -0.166669,0.0472 -0.04722,0 -0.108335,-0.006 -0.05833,-0.008 -0.122224,-0.0195 -0.0056,0.0195 -0.0083,0.0361 -0.0028,0.0167 -0.0056,0.0306 -0.0028,0.0167 -0.0028,0.0306 0,0.0611 0.0083,0.11944 0.01111,0.0556 0.03056,0.11389 h 0.56112 l -0.06389,0.1889 q -0.0083,0.0361 -0.01111,0.0528 -0.0028,0.0167 -0.0083,0.0528 l -0.102779,-0.0722 H 41.68938 q 0.06111,0.13889 0.113891,0.28334 0.05278,0.14167 0.05278,0.30278 0,0.14445 -0.05834,0.26945 -0.05833,0.12222 -0.155558,0.21389 -0.09445,0.0917 -0.219447,0.14167 -0.122224,0.0528 -0.252782,0.0528 z" />
      <path
         id="path16279"
         style="font-style:normal;font-variant:normal;font-weight:normal;font-stretch:normal;font-family:'Bradley Gratis';-inkscape-font-specification:'Bradley Gratis';text-align:start;text-anchor:start;stroke-width:0.208337"
         d="m 42.799944,148.77051 q 0.05556,-0.0333 0.108335,-0.0778 0.05556,-0.0445 0.09722,-0.10001 0.04445,-0.0556 0.06945,-0.12777 0.02778,-0.075 0.02778,-0.16667 0,-0.0778 -0.03056,-0.13056 -0.02778,-0.0556 -0.06667,-0.0889 -0.03889,-0.0333 -0.07778,-0.0472 -0.03611,-0.0139 -0.05556,-0.0139 -0.02222,0 -0.04167,0.008 -0.01667,0.008 -0.03056,0.0194 z m -0.408339,-0.74168 q -0.08889,-0.05 -0.08889,-0.18612 0.025,0.025 0.08889,0.0444 0.06389,0.0167 0.136113,0.0167 0.03611,0 0.102779,-0.008 0.06667,-0.0111 0.136113,-0.0222 0.07222,-0.0111 0.136114,-0.0194 0.06667,-0.0111 0.102779,-0.0111 0.09167,0 0.183336,0.0278 0.09167,0.0278 0.169447,0.0945 0.07778,0.0667 0.130558,0.18056 0.05556,0.11111 0.07222,0.28333 l -0.494452,0.35001 q 0.05556,0.0222 0.125002,0.075 0.06945,0.0528 0.130557,0.14722 0.06389,0.0944 0.105558,0.24167 0.04167,0.14445 0.04167,0.35557 0,0.18333 0.01667,0.29722 0.01667,0.11389 0.04167,0.18334 0.025,0.0694 0.05278,0.10278 0.03056,0.0361 0.05556,0.0611 -0.122224,0 -0.21667,-0.0722 -0.09445,-0.0695 -0.166669,-0.18334 -0.07222,-0.11389 -0.12778,-0.25834 -0.05278,-0.14444 -0.09722,-0.29167 -0.04444,-0.14722 -0.08333,-0.28334 -0.03611,-0.13611 -0.075,-0.23611 -0.01945,0.0139 -0.03889,0.0278 -0.01667,0.0111 -0.03056,0.025 v 1.0389 h -0.408339 z" />
      <path
         id="path16281"
         style="font-style:normal;font-variant:normal;font-weight:normal;font-stretch:normal;font-family:'Bradley Gratis';-inkscape-font-specification:'Bradley Gratis';text-align:start;text-anchor:start;stroke-width:0.208337"
         d="m 44.286382,149.64274 q 0,0.0944 0.01111,0.14723 0.01389,0.0528 0.03333,0.0805 0.02222,0.025 0.05,0.0306 0.02778,0.006 0.05556,0.006 0.05556,0 0.09167,-0.075 0.03611,-0.0778 0.03611,-0.23611 v -1.20558 q 0,-0.125 -0.01389,-0.20278 -0.01111,-0.0806 -0.03333,-0.12222 -0.01945,-0.0445 -0.04722,-0.0611 -0.025,-0.0167 -0.05,-0.0167 -0.05278,0 -0.09445,0.0667 -0.03889,0.0639 -0.03889,0.20556 z m 0.791679,-0.69723 q 0,0.20278 -0.05278,0.4 -0.05,0.19723 -0.138891,0.35279 -0.08611,0.15556 -0.205559,0.25278 -0.119446,0.0944 -0.252781,0.0944 -0.125002,0 -0.244448,-0.0861 -0.116669,-0.0861 -0.208337,-0.23611 -0.08889,-0.15 -0.144447,-0.35001 -0.05556,-0.2 -0.05556,-0.42778 0,-0.18612 0.05,-0.38056 0.05278,-0.19723 0.141669,-0.35556 0.08889,-0.15834 0.208336,-0.25834 0.119446,-0.10278 0.252782,-0.10278 0.116668,0 0.230559,0.0861 0.116668,0.0861 0.208336,0.23612 0.09445,0.14722 0.15278,0.34722 0.05833,0.20001 0.05833,0.42779 z" />
      <path
         id="path16283"
         style="font-style:normal;font-variant:normal;font-weight:normal;font-stretch:normal;font-family:'Bradley Gratis';-inkscape-font-specification:'Bradley Gratis';text-align:start;text-anchor:start;stroke-width:0.208337"
         d="m 45.199373,150.01497 q 0.03611,-0.21389 0.102779,-0.40279 0.06945,-0.18889 0.152781,-0.36111 0.08333,-0.17223 0.172224,-0.32778 0.09167,-0.15834 0.172225,-0.30556 0.08056,-0.14723 0.141669,-0.28612 0.06111,-0.14167 0.08889,-0.28334 -0.02222,-0.0139 -0.05278,-0.025 -0.02778,-0.0111 -0.108335,-0.0111 -0.04167,0 -0.075,0.0222 -0.03056,0.0195 -0.05278,0.05 -0.02222,0.0278 -0.03611,0.0611 -0.01111,0.0306 -0.01111,0.05 0,0.0222 0.0083,0.0528 0.01111,0.0278 0.02222,0.0556 0.01389,0.0278 0.02778,0.0528 0.01389,0.0222 0.025,0.0333 l -0.338894,0.21112 q -0.06667,-0.0639 -0.113891,-0.15556 -0.04445,-0.0945 -0.04445,-0.18889 0,-0.0472 0.025,-0.11667 0.025,-0.0694 0.08056,-0.13334 0.05556,-0.0667 0.144447,-0.11111 0.09167,-0.0472 0.222225,-0.0472 0.10278,0 0.172225,0.0139 0.06945,0.0139 0.122224,0.0333 0.05278,0.0167 0.09722,0.0306 0.04722,0.0139 0.105557,0.0139 0.03611,0 0.07778,-0.006 0.04167,-0.006 0.07778,-0.0167 0.03611,-0.0111 0.06389,-0.0222 0.03056,-0.0139 0.04722,-0.0306 -0.03333,0.175 -0.105557,0.36389 -0.07222,0.18889 -0.161114,0.37778 -0.08611,0.1889 -0.183336,0.36945 -0.09445,0.18056 -0.175003,0.3389 -0.07778,0.15556 -0.133335,0.28334 -0.05278,0.125 -0.05833,0.20555 0.111113,0.0472 0.188892,0.0472 0.05,0 0.102779,-0.0111 0.05278,-0.0139 0.09445,-0.0417 0.04444,-0.0278 0.07222,-0.0695 0.02778,-0.0444 0.02778,-0.10555 0,-0.0611 -0.01389,-0.10001 -0.01111,-0.0417 -0.03056,-0.0667 -0.01944,-0.0278 -0.04444,-0.0472 -0.025,-0.0222 -0.04722,-0.0444 l 0.319449,-0.23612 q 0.111113,0.0833 0.158336,0.17778 0.04722,0.0944 0.04722,0.20556 0,0.0528 -0.01667,0.10278 -0.01389,0.0472 -0.03611,0.0889 -0.01944,0.0389 -0.04722,0.0722 -0.025,0.0333 -0.04445,0.0528 l 0.04722,0.0472 q 0.01389,0.0139 0.03056,0.0417 0.01667,0.025 0.01667,0.0444 0,0.0222 -0.01944,0.0639 -0.01667,0.0444 -0.06945,0.0778 -0.01944,-0.025 -0.04444,-0.0444 -0.02222,-0.0167 -0.04722,-0.0306 -0.025,-0.0139 -0.05278,-0.0139 z" />
      <path
         id="path16285"
         style="font-style:normal;font-variant:normal;font-weight:normal;font-stretch:normal;font-family:'Bradley Gratis';-inkscape-font-specification:'Bradley Gratis';text-align:start;text-anchor:start;stroke-width:0.208337"
         d="m 47.960309,147.86771 v 0.30001 q -0.03056,-0.0278 -0.08056,-0.0611 -0.04722,-0.0333 -0.102779,-0.0583 -0.05278,-0.0278 -0.105557,-0.0444 -0.05278,-0.0195 -0.08889,-0.0195 -0.06667,0 -0.136114,0.0528 -0.06945,0.0528 -0.11389,0.14167 -0.04444,0.0861 -0.05833,0.22778 -0.01111,0.13889 -0.01111,0.35834 h 0.711122 l -0.141669,0.31667 q -0.02778,-0.0417 -0.06667,-0.0556 -0.03611,-0.0167 -0.06667,-0.0167 h -0.436118 q 0,0.15833 0.0056,0.31111 0.0056,0.15001 0.03611,0.26945 0.03333,0.11945 0.100001,0.19445 0.06667,0.0722 0.19167,0.0722 0.06667,0 0.130557,-0.025 0.06667,-0.025 0.122224,-0.0611 0.05556,-0.0389 0.09722,-0.0806 0.04444,-0.0417 0.06945,-0.075 v 0.40001 H 47.64086 q -0.269449,0 -0.436118,-0.0944 -0.166669,-0.0972 -0.261115,-0.25833 -0.09167,-0.1639 -0.125002,-0.37779 -0.03056,-0.21389 -0.03056,-0.44723 0,-0.0583 0.0083,-0.15278 0.0083,-0.0972 0.03611,-0.20278 0.02778,-0.10833 0.08056,-0.21667 0.05278,-0.11111 0.141669,-0.19722 0.09167,-0.0889 0.225003,-0.14445 0.133336,-0.0556 0.322227,-0.0556 z" />
      <path
         id="path16287"
         style="font-style:normal;font-variant:normal;font-weight:normal;font-stretch:normal;font-family:'Bradley Gratis';-inkscape-font-specification:'Bradley Gratis';text-align:start;text-anchor:start;stroke-width:0.208337"
         d="m 48.264568,150.01497 v -1.91947 q 0,-0.0778 -0.03333,-0.13056 -0.03333,-0.0556 -0.06667,-0.0972 h 0.538897 v 0.28334 l 0.308338,-0.35834 q 0.141669,0.12778 0.233337,0.25556 0.09167,0.125 0.144447,0.25278 0.05278,0.12501 0.07222,0.25556 0.01945,0.12778 0.01945,0.2639 0,0.13333 -0.02222,0.25556 -0.01944,0.11944 -0.05833,0.23611 -0.03889,0.11667 -0.09445,0.23612 -0.05278,0.11944 -0.116668,0.25 h 0.100001 q 0.03611,0 0.075,-0.025 0.03889,-0.025 0.07778,-0.025 v 0.26667 h -0.538897 q 0.075,-0.15278 0.119447,-0.27501 0.04722,-0.12222 0.07222,-0.23333 0.025,-0.11112 0.03333,-0.21667 0.0083,-0.10556 0.0083,-0.22501 0,-0.11944 -0.04167,-0.24722 -0.03889,-0.13056 -0.09722,-0.23889 -0.05833,-0.10834 -0.125002,-0.17778 -0.06389,-0.0694 -0.116668,-0.0694 -0.03333,0 -0.05278,0.0167 v 1.66669 z" />
      <path
         id="path16289"
         style="font-style:normal;font-variant:normal;font-weight:normal;font-stretch:normal;font-family:'Bradley Gratis';-inkscape-font-specification:'Bradley Gratis';text-align:start;text-anchor:start;stroke-width:0.208337"
         d="m 50.814346,150.10664 q -0.150003,-0.10834 -0.25556,-0.23056 -0.105557,-0.125 -0.169447,-0.25834 -0.06389,-0.13333 -0.09445,-0.26945 -0.02778,-0.13889 -0.02778,-0.27222 0,-0.13056 0.02778,-0.25834 0.02778,-0.13056 0.07222,-0.25556 0.04722,-0.12778 0.108335,-0.24723 0.06111,-0.12222 0.125001,-0.23889 h -0.01667 q -0.0083,0 -0.01944,0 -0.0083,-0.003 -0.02222,-0.003 -0.04444,0 -0.108335,0.0111 -0.06111,0.0111 -0.119446,0.0556 v -0.27223 h 0.583342 q -0.07222,0.12501 -0.125002,0.25279 -0.05,0.125 -0.08333,0.24444 -0.03056,0.11667 -0.04722,0.22223 -0.01389,0.10278 -0.01389,0.18611 0,0.0833 0.01667,0.20001 0.01667,0.11666 0.06111,0.24167 0.04722,0.12222 0.125002,0.23333 0.08056,0.11112 0.208336,0.18056 l 0.08333,-0.0611 q -0.05,-0.0944 -0.07778,-0.18056 -0.02778,-0.0889 -0.04167,-0.16667 -0.01111,-0.0778 -0.01389,-0.14167 -0.0028,-0.0667 -0.0028,-0.11944 0,-0.0861 0.02222,-0.19445 0.02222,-0.10834 0.06389,-0.225 0.04167,-0.11667 0.100001,-0.23612 0.06111,-0.11944 0.136114,-0.23334 -0.105558,0 -0.175003,0.0167 -0.06667,0.0167 -0.113891,0.0472 v -0.26667 h 0.600009 q -0.05,0.0695 -0.100001,0.15834 -0.04722,0.0861 -0.08333,0.18889 -0.03611,0.1 -0.05833,0.21389 -0.02222,0.11389 -0.02222,0.23334 0,0.20278 0.03611,0.36112 0.03611,0.15556 0.100002,0.275 0.06389,0.11945 0.150002,0.20556 0.08611,0.0861 0.183336,0.14722 v -1.78336 h 0.416673 v 1.66947 q 0,0.0195 -0.02778,0.0556 -0.02778,0.0333 -0.07222,0.0778 -0.04167,0.0444 -0.100002,0.0972 -0.05556,0.05 -0.113891,0.1 -0.138891,0.11667 -0.313893,0.25556 -0.136113,-0.10555 -0.233337,-0.20833 -0.09722,-0.10278 -0.166669,-0.20001 z" />
      <path
         id="path16291"
         style="font-style:normal;font-variant:normal;font-weight:normal;font-stretch:normal;font-family:'Bradley Gratis';-inkscape-font-specification:'Bradley Gratis';text-align:start;text-anchor:start;stroke-width:0.208337"
         d="m 53.376015,148.67884 v -0.69168 h -0.327782 q -0.0028,0.18611 -0.01111,0.36945 -0.0056,0.18056 -0.01389,0.32223 z m 0.566676,-0.81113 q -0.03056,0.0222 -0.05834,0.0556 -0.025,0.0333 -0.04444,0.0722 -0.01667,0.0361 -0.02778,0.0722 -0.01111,0.0333 -0.01111,0.0583 v 1.88892 h -0.425007 v -1.04724 h -0.372228 q -0.0028,0.1 -0.02778,0.21945 -0.025,0.11667 -0.06944,0.23611 -0.04167,0.11667 -0.100002,0.22778 -0.05556,0.10834 -0.12778,0.19167 -0.06945,0.0833 -0.150002,0.13334 -0.07778,0.05 -0.163891,0.05 -0.05556,0 -0.09722,-0.0333 -0.03889,-0.0333 -0.03889,-0.0944 0,-0.0389 0.025,-0.0556 0.025,-0.0194 0.05278,-0.0194 0.025,0 0.03889,0.008 0.01389,0.006 0.025,0.0167 0.01389,0.008 0.03056,0.0167 0.01667,0.006 0.04722,0.006 0.05,0 0.08056,-0.05 0.03056,-0.0528 0.05,-0.13889 0.01944,-0.0889 0.02778,-0.20278 0.01111,-0.11667 0.01667,-0.24445 0.0056,-0.12778 0.01389,-0.25834 0.0083,-0.13333 0.02222,-0.25556 0.01667,-0.14444 0.05,-0.26389 0.03611,-0.11944 0.075,-0.21111 0.03889,-0.0917 0.07778,-0.15556 0.03889,-0.0639 0.06667,-0.10278 h -0.06111 q -0.05278,0 -0.09722,0.0167 -0.04445,0.0139 -0.08056,0.0333 -0.03333,0.0167 -0.06111,0.0333 -0.025,0.0139 -0.04445,0.0139 -0.04722,0 -0.06945,-0.0333 -0.02222,-0.0333 -0.02222,-0.075 0,-0.0389 0.04167,-0.0722 0.04444,-0.0361 0.122224,-0.0361 z" />
      <path
         id="path16293"
         style="font-style:normal;font-variant:normal;font-weight:normal;font-stretch:normal;font-family:'Bradley Gratis';-inkscape-font-specification:'Bradley Gratis';text-align:start;text-anchor:start;stroke-width:0.208337"
         d="m 54.556069,150.11219 q -0.06389,-0.0639 -0.147224,-0.125 -0.08056,-0.0611 -0.158336,-0.10833 -0.075,-0.0472 -0.133335,-0.0806 -0.05556,-0.0333 -0.06389,-0.0417 0.02778,-0.0333 0.06945,-0.0917 0.04167,-0.0611 0.08056,-0.11944 0.04167,-0.0583 0.07222,-0.10278 0.03333,-0.0472 0.04167,-0.0556 0.03889,0.025 0.105557,0.0694 0.06945,0.0417 0.136113,0.0889 0.06945,0.0472 0.125002,0.0861 0.05556,0.0389 0.07222,0.0556 0.03889,-0.0222 0.06389,-0.0583 0.02778,-0.0361 0.02778,-0.11667 0,-0.0694 -0.05833,-0.14722 -0.05556,-0.0778 -0.138891,-0.16389 -0.08333,-0.0861 -0.183336,-0.18056 -0.100001,-0.0944 -0.183336,-0.19445 -0.08333,-0.1 -0.141669,-0.20278 -0.05556,-0.10278 -0.05556,-0.21111 0,-0.0778 0.03889,-0.14445 0.04167,-0.0694 0.10278,-0.12778 0.06111,-0.0611 0.133335,-0.10833 0.075,-0.05 0.141669,-0.0917 0.06945,-0.0445 0.122224,-0.0778 0.05278,-0.0361 0.075,-0.0639 0.01667,0.0139 0.07222,0.0694 0.05833,0.0528 0.125002,0.11389 0.06667,0.0611 0.125002,0.10834 0.06111,0.0472 0.08056,0.0472 -0.02778,0.0222 -0.06944,0.0667 -0.03889,0.0417 -0.08056,0.0889 -0.03889,0.0472 -0.07222,0.0917 -0.03056,0.0417 -0.04444,0.0639 -0.06389,-0.0278 -0.127779,-0.0833 -0.06389,-0.0555 -0.116669,-0.10833 -0.05278,-0.0528 -0.08889,-0.0917 -0.03611,-0.0417 -0.04722,-0.0417 -0.02222,0 -0.03889,0.025 -0.01389,0.0222 -0.01389,0.0528 0,0.0667 0.05833,0.14167 0.06111,0.075 0.147224,0.16111 0.08889,0.0833 0.19167,0.17779 0.105557,0.0917 0.191669,0.19166 0.08889,0.10001 0.147225,0.20834 0.06111,0.10556 0.06111,0.21667 0,0.1 -0.075,0.21112 -0.075,0.11111 -0.180559,0.22222 -0.102779,0.10834 -0.211114,0.20834 -0.108335,0.0972 -0.177781,0.17222 z" />
      <path
         id="path16295"
         style="font-style:normal;font-variant:normal;font-weight:normal;font-stretch:normal;font-family:'Bradley Gratis';-inkscape-font-specification:'Bradley Gratis';text-align:start;text-anchor:start;stroke-width:0.208337"
         d="m 56.512784,149.63996 q 0,0.10834 -0.04445,0.18889 -0.04445,0.0778 -0.116669,0.12778 -0.06945,0.05 -0.155558,0.075 -0.08611,0.025 -0.169447,0.025 -0.130557,0 -0.255559,-0.0639 -0.125002,-0.0639 -0.225004,-0.17223 -0.100001,-0.11111 -0.161113,-0.25834 -0.06111,-0.15 -0.06111,-0.32222 0,-0.30834 0.141669,-0.57223 0.141668,-0.26667 0.39445,-0.48334 -0.02222,-0.003 -0.04167,-0.003 -0.01667,-0.003 -0.03611,-0.003 -0.06667,0 -0.141669,0.0222 -0.075,0.0222 -0.141669,0.0583 -0.06667,0.0333 -0.122224,0.075 -0.05278,0.0417 -0.08056,0.0778 0.02222,-0.10834 0.08333,-0.2139 0.06111,-0.10555 0.15278,-0.18611 0.09167,-0.0806 0.211115,-0.13056 0.119446,-0.05 0.261115,-0.05 0.07222,0 0.15278,0.0222 0.08056,0.0222 0.15278,0.0583 0.075,0.0333 0.133335,0.075 0.05833,0.0417 0.08889,0.0806 l -0.227782,0.34722 q -0.138891,-0.13611 -0.300004,-0.19444 -0.03611,0.0583 -0.075,0.13889 -0.03889,0.0778 -0.07222,0.17778 -0.03056,0.1 -0.05278,0.22222 -0.01944,0.11945 -0.01944,0.26112 0,0.13333 0.01944,0.23611 0.02222,0.10278 0.05556,0.17778 0.03333,0.075 0.075,0.12501 0.04444,0.05 0.08889,0.0833 0.105558,0.075 0.241671,0.0833 0.05556,0 0.12778,-0.0222 0.075,-0.025 0.119446,-0.0639 z" />
      <path
         id="path16297"
         style="font-style:normal;font-variant:normal;font-weight:normal;font-stretch:normal;font-family:'Bradley Gratis';-inkscape-font-specification:'Bradley Gratis';text-align:start;text-anchor:start;stroke-width:0.208337"
         d="m 57.905123,147.86771 v 0.30001 q -0.03056,-0.0278 -0.08056,-0.0611 -0.04722,-0.0333 -0.102779,-0.0583 -0.05278,-0.0278 -0.105557,-0.0444 -0.05278,-0.0195 -0.08889,-0.0195 -0.06667,0 -0.136113,0.0528 -0.06945,0.0528 -0.113891,0.14167 -0.04445,0.0861 -0.05833,0.22778 -0.01111,0.13889 -0.01111,0.35834 h 0.711122 l -0.141669,0.31667 q -0.02778,-0.0417 -0.06667,-0.0556 -0.03611,-0.0167 -0.06667,-0.0167 H 57.20789 q 0,0.15833 0.0056,0.31111 0.0056,0.15001 0.03611,0.26945 0.03333,0.11945 0.100002,0.19445 0.06667,0.0722 0.191669,0.0722 0.06667,0 0.130558,-0.025 0.06667,-0.025 0.122224,-0.0611 0.05556,-0.0389 0.09722,-0.0806 0.04445,-0.0417 0.06945,-0.075 v 0.40001 h -0.375005 q -0.269449,0 -0.436118,-0.0944 -0.166669,-0.0972 -0.261115,-0.25833 -0.09167,-0.1639 -0.125002,-0.37779 -0.03056,-0.21389 -0.03056,-0.44723 0,-0.0583 0.0083,-0.15278 0.0083,-0.0972 0.03611,-0.20278 0.02778,-0.10833 0.08056,-0.21667 0.05278,-0.11111 0.141668,-0.19722 0.09167,-0.0889 0.225004,-0.14445 0.133335,-0.0556 0.322227,-0.0556 z" />
      <path
         id="path16299"
         style="font-style:normal;font-variant:normal;font-weight:normal;font-stretch:normal;font-family:'Bradley Gratis';-inkscape-font-specification:'Bradley Gratis';text-align:start;text-anchor:start;stroke-width:0.208337"
         d="m 58.912169,148.41494 q -0.06945,-0.16666 -0.119446,-0.27778 -0.05,-0.11111 -0.07778,-0.11111 -0.03056,0 -0.04167,0.0278 -0.0083,0.025 -0.0083,0.0444 v 1.50558 q 0,0.0611 -0.03333,0.12778 -0.03333,0.0667 -0.08889,0.11667 0.102779,0 0.183336,-0.05 0.08056,-0.0528 0.166669,-0.11389 0.08889,-0.0639 0.197225,-0.11389 0.108335,-0.0528 0.269449,-0.0528 v 0.49723 h -1.255575 q 0.03611,-0.0528 0.06111,-0.1 0.02778,-0.0472 0.04445,-0.0945 0.01667,-0.0472 0.025,-0.1 0.0083,-0.0528 0.0083,-0.11667 v -1.31391 q 0,-0.0889 -0.03333,-0.14444 -0.03333,-0.0583 -0.04722,-0.0806 0.01111,-0.003 0.05556,-0.0195 0.04722,-0.0194 0.113891,-0.0444 0.06667,-0.025 0.147224,-0.0528 0.08056,-0.0278 0.158336,-0.05 0.07778,-0.025 0.147224,-0.0389 0.06945,-0.0167 0.113891,-0.0167 0.06945,0 0.130557,0.0389 0.06111,0.0389 0.111113,0.0972 0.05,0.0583 0.08611,0.13055 0.03611,0.0695 0.05833,0.13056 z" />
      <path
         id="path16301"
         style="font-style:normal;font-variant:normal;font-weight:normal;font-stretch:normal;font-family:'Bradley Gratis';-inkscape-font-specification:'Bradley Gratis';text-align:start;text-anchor:start;stroke-width:0.208337"
         d="m 60.628862,148.67884 v -0.69168 h -0.327783 q -0.0028,0.18611 -0.01111,0.36945 -0.0056,0.18056 -0.01389,0.32223 z m 0.566675,-0.81113 q -0.03056,0.0222 -0.05833,0.0556 -0.025,0.0333 -0.04444,0.0722 -0.01667,0.0361 -0.02778,0.0722 -0.01111,0.0333 -0.01111,0.0583 v 1.88892 h -0.425006 v -1.04724 h -0.372228 q -0.0028,0.1 -0.02778,0.21945 -0.025,0.11667 -0.06945,0.23611 -0.04167,0.11667 -0.100001,0.22778 -0.05556,0.10834 -0.12778,0.19167 -0.06945,0.0833 -0.150002,0.13334 -0.07778,0.05 -0.163892,0.05 -0.05556,0 -0.09722,-0.0333 -0.03889,-0.0333 -0.03889,-0.0944 0,-0.0389 0.025,-0.0556 0.025,-0.0194 0.05278,-0.0194 0.025,0 0.03889,0.008 0.01389,0.006 0.025,0.0167 0.01389,0.008 0.03056,0.0167 0.01667,0.006 0.04722,0.006 0.05,0 0.08056,-0.05 0.03056,-0.0528 0.05,-0.13889 0.01944,-0.0889 0.02778,-0.20278 0.01111,-0.11667 0.01667,-0.24445 0.0056,-0.12778 0.01389,-0.25834 0.0083,-0.13333 0.02222,-0.25556 0.01667,-0.14444 0.05,-0.26389 0.03611,-0.11944 0.075,-0.21111 0.03889,-0.0917 0.07778,-0.15556 0.03889,-0.0639 0.06667,-0.10278 h -0.06111 q -0.05278,0 -0.09722,0.0167 -0.04444,0.0139 -0.08056,0.0333 -0.03333,0.0167 -0.06111,0.0333 -0.025,0.0139 -0.04444,0.0139 -0.04722,0 -0.06945,-0.0333 -0.02222,-0.0333 -0.02222,-0.075 0,-0.0389 0.04167,-0.0722 0.04445,-0.0361 0.122224,-0.0361 z" />
      <path
         id="path16303"
         style="font-style:normal;font-variant:normal;font-weight:normal;font-stretch:normal;font-family:'Bradley Gratis';-inkscape-font-specification:'Bradley Gratis';text-align:start;text-anchor:start;stroke-width:0.208337"
         d="m 61.432086,150.01497 v -1.91947 q 0,-0.0778 -0.03333,-0.13056 -0.03333,-0.0556 -0.06667,-0.0972 h 0.538897 v 0.28334 l 0.308338,-0.35834 q 0.141669,0.12778 0.233337,0.25556 0.09167,0.125 0.144446,0.25278 0.05278,0.12501 0.07222,0.25556 0.01944,0.12778 0.01944,0.2639 0,0.13333 -0.02222,0.25556 -0.01944,0.11944 -0.05833,0.23611 -0.03889,0.11667 -0.09445,0.23612 -0.05278,0.11944 -0.116669,0.25 h 0.100002 q 0.03611,0 0.075,-0.025 0.03889,-0.025 0.07778,-0.025 v 0.26667 h -0.538897 q 0.075,-0.15278 0.119446,-0.27501 0.04722,-0.12222 0.07222,-0.23333 0.025,-0.11112 0.03333,-0.21667 0.0083,-0.10556 0.0083,-0.22501 0,-0.11944 -0.04167,-0.24722 -0.03889,-0.13056 -0.09722,-0.23889 -0.05833,-0.10834 -0.125002,-0.17778 -0.06389,-0.0694 -0.116669,-0.0694 -0.03333,0 -0.05278,0.0167 v 1.66669 z" />
      <path
         id="path16305"
         style="font-style:normal;font-variant:normal;font-weight:normal;font-stretch:normal;font-family:'Bradley Gratis';-inkscape-font-specification:'Bradley Gratis';text-align:start;text-anchor:start;stroke-width:0.208337"
         d="m 62.919436,148.06216 q -0.07222,-0.0306 -0.100002,-0.075 -0.02778,-0.0444 -0.02778,-0.0833 0,-0.0333 0.02222,-0.0417 0.02222,0.0139 0.06111,0.0194 0.03889,0.006 0.08889,0.006 0.025,0 0.06945,-0.008 0.04722,-0.008 0.102779,-0.0167 0.05556,-0.008 0.11389,-0.0167 0.06111,-0.008 0.113891,-0.008 0.12778,0 0.261115,0.0667 0.133336,0.0639 0.238893,0.2 0.105557,0.13333 0.172225,0.34167 0.06945,0.20556 0.06945,0.49167 0,0.24168 -0.04167,0.41668 -0.04167,0.175 -0.105557,0.29722 -0.06389,0.12223 -0.141669,0.19723 -0.07778,0.0722 -0.15278,0.11389 -0.07222,0.0389 -0.133336,0.0528 -0.05833,0.0139 -0.08611,0.0139 -0.04167,0 -0.08889,-0.0111 -0.04722,-0.0111 -0.09445,-0.025 -0.04445,-0.0139 -0.08611,-0.025 -0.03889,-0.0111 -0.06667,-0.0111 -0.03056,0 -0.05556,0.0111 -0.025,0.008 -0.05278,0.0194 -0.025,0.008 -0.05556,0.0195 -0.03056,0.008 -0.06945,0.008 -0.01389,0 -0.03056,-0.003 -0.01389,-0.003 -0.02778,-0.008 -0.01389,-0.006 -0.02778,-0.0139 0.02222,-0.0139 0.04445,-0.0472 0.02222,-0.0361 0.04167,-0.075 0.02222,-0.0417 0.04444,-0.0917 z m 0.408339,1.65558 q 0,0.0583 0.01944,0.0917 0.02222,0.0306 0.04722,0.0444 0.03056,0.0167 0.06667,0.0194 0.06389,0 0.111113,-0.0861 0.05,-0.0861 0.05,-0.21945 v -1.21946 q 0,-0.13056 -0.025,-0.20278 -0.025,-0.0722 -0.05833,-0.10556 -0.03333,-0.0333 -0.06667,-0.0389 -0.03333,-0.008 -0.05278,-0.008 -0.03333,0 -0.06389,0.0444 -0.02778,0.0445 -0.02778,0.11667 z" />
    </g>
    <path
       transform="matrix(0.26458334,0,0,0.26458334,35.146312,50.389004)"
       id="path156"
       d="M 0.68790425,94.132128 V 1.0962212 H 60.230885 119.77387 V 94.132128 187.16804 H 80.492038 c -25.636561,0 -39.281827,-0.28727 -39.281827,-0.82699 0,-0.45484 0.558215,-0.82699 1.240478,-0.82699 0.689155,0 1.240479,-0.7351 1.240479,-1.65397 0,-1.4702 -0.551324,-1.65397 -4.961915,-1.65397 -4.226816,0 -4.961915,0.22053 -4.961915,1.48858 0,0.81871 0.446572,1.93514 0.992383,2.48095 0.771853,0.77185 -2.903639,0.99239 -16.539717,0.99239 H 0.68790425 Z M 48.802312,168.83238 c 0.38958,-2.6476 2.331729,-2.93115 2.331729,-0.34044 0,1.17501 0.372143,2.13638 0.826985,2.13638 0.454843,0 0.826986,-0.93036 0.826986,-2.06747 0,-1.1371 0.372144,-2.06746 0.826986,-2.06746 0.454842,0 0.826986,0.93036 0.826986,2.06746 0,1.13711 0.372144,2.06747 0.826986,2.06747 0.454842,0 0.826986,-1.86072 0.826986,-4.13493 0,-2.27421 -0.372144,-4.13493 -0.826986,-4.13493 -0.454842,0 -0.826986,0.74429 -0.826986,1.65397 0,0.90969 -0.372144,1.65397 -0.826986,1.65397 -0.454842,0 -0.826986,-0.68399 -0.826986,-1.51997 0,-1.16507 -0.675847,-1.54538 -2.89445,-1.62879 l -2.894451,-0.10882 v 4.10975 c 0,4.08363 1.29775,5.74886 1.803201,2.31381 z m 10.899503,-0.68502 c 0.290988,0 0.52907,0.521 0.52907,1.15778 0,0.86374 1.260169,1.15778 4.961915,1.15778 2.729053,0 4.961915,-0.33493 4.961915,-0.74429 0,-0.40935 -0.558215,-0.74428 -1.240479,-0.74428 -1.750232,0 -1.552844,-2.46025 0.206747,-2.57689 1.37831,-0.0914 1.37831,-0.11394 0,-0.47414 -1.767979,-0.46202 -1.924739,-1.91089 -0.206747,-1.91089 0.682264,0 1.240479,-0.37214 1.240479,-0.82698 0,-0.45485 -0.930359,-0.82699 -2.067465,-0.82699 -1.679713,0 -2.067464,0.40675 -2.067464,2.16872 0,1.89965 -0.165158,2.03167 -1.33116,1.06397 -0.832764,-0.69114 -0.98758,-1.2193 -0.413493,-1.41066 1.369372,-0.45646 1.10798,-1.82203 -0.348767,-1.82203 -1.898965,0 -2.423547,2.34207 -0.901328,4.02411 1.660799,1.83515 1.699384,2.59178 0.132173,2.59178 -0.710257,0 -1.575883,-1.36398 -2.09934,-3.30795 -0.489905,-1.81937 -1.38809,-3.30794 -1.995967,-3.30794 -1.091779,0 -2.163724,3.51419 -2.112662,6.92601 0.0245,1.63689 0.101599,1.65814 1.124902,0.31012 0.60423,-0.79598 1.336682,-1.44723 1.627671,-1.44723 z m 11.082686,-18.37081 c 5.305281,-1.95427 11.519322,-7.78402 14.184276,-13.3071 5.297349,-10.97869 2.761785,-24.54188 -6.118169,-32.72713 -6.018899,-5.548029 -10.226637,-7.121502 -19.033216,-7.117441 -6.507695,0.0033 -7.984557,0.288039 -11.75402,2.268496 -6.236273,3.276505 -9.52796,6.482255 -12.701188,12.369585 -2.585469,4.79686 -2.802871,5.7719 -2.818447,12.64066 -0.01996,8.80307 1.546455,12.99492 7.112355,19.03322 7.962638,8.63844 19.414431,11.15469 31.128409,6.83971 z M 40.203563,40.998288 40.437394,31.694697 H 22.216621 3.9958476 v 9.526465 9.526466 L 21.98279,50.524753 39.969732,50.301879 Z m 66.338527,0.206747 V 31.694697 H 88.348403 70.154715 v 8.959013 c 0,4.927458 0.248096,9.20711 0.551324,9.510338 0.303228,0.303228 8.490388,0.551324 18.193691,0.551324 h 17.64236 z m -48.792163,1.17984 c 0,-2.119269 -2.737181,-1.878853 -3.152338,0.276882 -0.191116,0.992383 0.25423,1.437728 1.437729,1.437728 1.183498,0 1.714609,-0.531111 1.714609,-1.71461 z m 0,-5.728263 c 0,-0.909684 -0.536252,-1.653971 -1.191672,-1.653971 -1.460945,0 -2.394998,1.360921 -1.702778,2.480957 0.899339,1.45516 2.89445,0.885128 2.89445,-0.826986 z M 7.303791,28.337948 c 0,-1.038753 0.3585521,-1.481181 0.9194453,-1.13453 0.5056953,0.312537 1.2442846,0.05539 1.6413089,-0.571433 0.5133278,-0.810445 0.7255208,-0.482697 0.7345258,1.13453 0.007,1.250816 0.384807,2.274211 0.839649,2.274211 0.454842,0 0.826986,-0.417711 0.826986,-0.928246 0,-0.641333 0.383421,-0.610034 1.240479,0.10126 0.951316,0.789522 1.512479,0.803766 2.407332,0.06111 0.797674,-0.66201 1.336416,-0.694047 1.702778,-0.10126 0.683053,1.105198 3.746255,1.138034 3.746255,0.04015 0,-0.454842 -0.558215,-0.826986 -1.240478,-0.826986 -0.895902,0 -1.240479,-0.918873 -1.240479,-3.307943 0,-2.75662 -0.275662,-3.307944 -1.653972,-3.307944 -1.37831,0 -1.653972,0.551324 -1.653972,3.307944 0,1.819368 -0.372143,3.307943 -0.826985,3.307943 -0.454843,0 -0.826986,-1.488575 -0.826986,-3.307943 0,-2.828638 -0.256399,-3.307944 -1.769549,-3.307944 -0.973252,0 -2.2639193,0.651252 -2.8681498,1.447225 -1.046286,1.37831 -1.0998532,1.37831 -1.1249017,0 -0.014465,-0.795973 -0.5845161,-1.447225 -1.2667794,-1.447225 -0.9372506,0 -1.2404788,1.010761 -1.2404788,4.134929 0,2.274212 0.3721436,4.13493 0.8269858,4.13493 0.4548423,0 0.8269859,-0.766251 0.8269859,-1.702778 z m 16.539717,-1.556359 c 0,-1.792526 0.372143,-3.489135 0.826986,-3.770243 0.505133,-0.312189 0.826986,0.956229 0.826986,3.259137 0,2.073633 0.372143,3.770243 0.826985,3.770243 0.454843,0 0.826986,-1.860718 0.826986,-4.13493 v -4.134929 h -3.47334 c -2.701488,0 -3.252811,0.22053 -2.480958,0.992383 0.545811,0.545811 0.992383,2.406529 0.992383,4.134929 0,1.728401 0.372144,3.142547 0.826986,3.142547 0.454842,0 0.826986,-1.466612 0.826986,-3.259137 z m 5.788901,1.693643 c 0,-0.861021 0.558215,-1.7797 1.240478,-2.041509 0.682264,-0.26181 1.240479,-1.418056 1.240479,-2.569436 0,-1.681657 -0.406657,-2.09342 -2.067464,-2.09342 -1.929634,0 -2.067465,0.275662 -2.067465,4.134929 0,2.274212 0.372144,4.13493 0.826986,4.13493 0.454842,0 0.826986,-0.704472 0.826986,-1.565494 z m 6.615886,0.738508 c 0,-0.454842 -0.372143,-0.826986 -0.826985,-0.826986 -0.454843,0 -0.826986,-1.488575 -0.826986,-3.307943 0,-1.819369 -0.372144,-3.307944 -0.826986,-3.307944 -0.454842,0 -0.826986,1.860718 -0.826986,4.134929 0,3.583605 0.22053,4.13493 1.653972,4.13493 0.909684,0 1.653971,-0.372144 1.653971,-0.826986 z m 2.711766,-3.101197 c 0.434424,-3.826983 -0.05364,-5.89155 -0.857627,-3.62786 -0.332112,0.935088 -0.516655,0.939172 -1.082294,0.02395 -0.375053,-0.606847 -0.846978,-0.928063 -1.048723,-0.713815 -0.514894,0.546805 1.363052,8.245909 2.011322,8.245909 0.292276,0 0.732071,-1.767683 0.977322,-3.928183 z m 37.147147,2.797958 c 0.88961,-0.952331 1.216015,-0.91979 2.073768,0.206746 0.847209,1.112687 1.022393,0.608633 1.044283,-3.004704 0.01446,-2.387922 -0.345843,-4.341676 -0.800686,-4.341676 -0.454842,0 -0.856365,0.46518 -0.892273,1.033733 -0.05223,0.826985 -0.148713,0.826985 -0.482409,0 -0.229416,-0.568553 -1.316468,-1.033733 -2.415669,-1.033733 -1.846936,0 -1.99855,0.313684 -1.99855,4.134929 0,4.329133 1.235448,5.398445 3.471536,3.004705 z m 8.062783,-1.970972 c 1.081863,-3.895611 1.092573,-5.168662 0.04348,-5.168662 -0.454842,0 -0.826986,0.744287 -0.826986,1.653972 0,0.909684 -0.372143,1.653972 -0.826985,1.653972 -0.454843,0 -0.826986,-0.744288 -0.826986,-1.653972 0,-0.909685 -0.372144,-1.653972 -0.826986,-1.653972 -1.049092,0 -1.038382,1.273051 0.04348,5.168662 0.473686,1.705658 1.198402,3.101197 1.610489,3.101197 0.412087,0 1.136799,-1.395539 1.610488,-3.101197 z m 3.351427,-1.033733 c 0,-2.274211 -0.372144,-4.134929 -0.826986,-4.134929 -0.454842,0 -0.826986,1.860718 -0.826986,4.134929 0,2.274212 0.372144,4.13493 0.826986,4.13493 0.454842,0 0.826986,-1.860718 0.826986,-4.13493 z m 2.826811,3.632958 c 1.558314,-0.597981 1.728053,-3.70921 0.281299,-5.155969 -0.817773,-0.817768 -0.775679,-1.185596 0.206747,-1.806705 0.986486,-0.623675 0.860867,-0.782423 -0.627153,-0.792549 -2.101669,-0.01431 -2.409027,1.562089 -0.826986,4.241535 0.826986,1.400639 0.826986,1.825671 0,2.125159 -0.568553,0.205898 -1.033733,0.715492 -1.033733,1.13243 0,0.892954 0.255084,0.92562 1.999826,0.256099 z m 3.789075,-3.632958 c 0,-2.274211 -0.372143,-4.134929 -0.826985,-4.134929 -0.454843,0 -0.826986,1.860718 -0.826986,4.134929 0,2.274212 0.372143,4.13493 0.826986,4.13493 0.454842,0 0.826985,-1.860718 0.826985,-4.13493 z m 3.653798,3.632958 c 0.918144,-0.352322 1.308117,-1.585033 1.308117,-4.134929 0,-3.323831 -0.175916,-3.632958 -2.067464,-3.632958 -1.887223,0 -2.067465,0.312417 -2.067465,3.583605 0,4.419588 0.455727,5.094155 2.826812,4.184282 z m 3.841498,-1.358746 0.0524,-1.860719 0.74792,1.860719 c 1.27188,3.1643 2.45517,2.068228 2.45517,-2.274212 0,-2.274211 -0.37214,-4.134929 -0.82699,-4.134929 -0.45484,0 -0.87015,0.651252 -0.92291,1.447225 -0.0914,1.37831 -0.11394,1.37831 -0.47414,0 -0.208,-0.795973 -0.90912,-1.447225 -1.55803,-1.447225 -0.86449,0 -1.179845,1.105212 -1.179845,4.134929 0,3.968348 1.598635,6.098955 1.706395,2.274212 z M 41.903028,13.707755 C 42.316083,12.911781 42.422212,10.585884 42.13887,8.5390938 41.658725,5.0706408 41.440993,4.8000409 38.935999,4.5585144 l -2.687704,-0.259143 v 5.427805 5.4278036 h 2.451861 c 1.497683,0 2.744128,-0.563209 3.202872,-1.447225 z m 3.442112,-0.620239 c 0,-1.137106 0.345562,-2.067465 0.767915,-2.067465 0.422354,0 1.352713,-0.584797 2.067464,-1.2995493 1.181409,-1.1814079 1.29955,-0.9934564 1.29955,2.0674643 0,2.441578 0.34095,3.367014 1.240479,3.367014 0.828512,0 1.272337,-0.892593 1.33641,-2.687703 0.05276,-1.478238 0.266121,-2.036453 0.474131,-1.240479 0.436243,1.669335 2.401736,1.938699 3.01717,0.413493 0.229416,-0.568553 0.4465,-0.01034 0.482409,1.240478 0.04137,1.44118 0.519668,2.274211 1.305766,2.274211 0.975419,0 1.240479,-1.148591 1.240479,-5.3754075 0,-4.22224 -0.265607,-5.375408 -1.238107,-5.375408 -0.680959,0 -1.739924,1.2094668 -2.353257,2.687704 l -1.115151,2.687704 -0.606901,-2.687704 c -0.426469,-1.8886457 -1.079094,-2.687704 -2.195165,-2.687704 -0.873545,0 -1.617643,0.4651796 -1.653551,1.0337324 -0.05223,0.8269858 -0.148713,0.8269858 -0.482409,0 C 48.702956,4.8693441 47.429833,4.4041645 46.10321,4.4041645 h -2.412042 v 5.375408 c 0,3.0322815 0.360481,5.3754075 0.826986,5.3754075 0.454842,0 0.826986,-0.930359 0.826986,-2.067464 z m 21.501632,1.240479 c 0,-0.454843 -0.538768,-0.826986 -1.197261,-0.826986 -0.858456,0 -1.267997,-1.210227 -1.447225,-4.2766723 C 64.056562,6.731136 63.521231,4.8055988 62.918589,4.6069989 62.161787,4.3575957 61.884857,5.724834 61.884857,9.7106573 V 15.15498 h 2.480957 c 1.364527,0 2.480958,-0.372143 2.480958,-0.826985 z m 2.480957,-1.653972 c 0,-1.653972 0.413493,-2.480958 1.240479,-2.480958 0.682263,0 1.240479,-0.3721432 1.240479,-0.8269854 0,-0.4548422 -0.558216,-0.8269858 -1.240479,-0.8269858 -0.682263,0 -1.240479,-0.5582155 -1.240479,-1.2404788 0,-0.6891548 0.735099,-1.2404788 1.653972,-1.2404788 0.909684,0 1.653971,-0.3721436 1.653971,-0.8269858 0,-0.4548422 -1.11643,-0.8269859 -2.480957,-0.8269859 h -2.480958 v 5.375408 c 0,3.0322815 0.360481,5.3754075 0.826986,5.3754075 0.454843,0 0.826986,-1.11643 0.826986,-2.480957 z m 9.421859,1.172842 c 0.276084,-0.719464 0.501971,-2.549745 0.501971,-4.0672925 0,-1.517547 -0.225887,-3.3478284 -0.501971,-4.0672921 -0.661968,-1.7250611 -4.949976,-1.7250611 -5.611944,0 -0.646873,1.6857232 -0.646873,6.4488606 0,8.1345846 0.661968,1.725061 4.949976,1.725061 5.611944,0 z"
       style="opacity:0;fill:url(#linearGradient995);stroke:#ffffff;stroke-width:0.413493;fill-opacity:1" />
    <g
       style="font-style:normal;font-variant:normal;font-weight:bold;font-stretch:normal;font-size:3.52777px;line-height:1.25;font-family:Arial;-inkscape-font-specification:'Arial Bold';text-align:center;letter-spacing:0px;word-spacing:0px;text-anchor:middle;fill:#000000;fill-opacity:1;stroke:none;stroke-width:0.264583"
       id="text12396" />
  </g>
</svg>
