<?xml version="1.0" encoding="UTF-8" standalone="no"?>
<!-- Created with Inkscape (http://www.inkscape.org/) -->

<svg
   xmlns:dc="http://purl.org/dc/elements/1.1/"
   xmlns:cc="http://creativecommons.org/ns#"
   xmlns:rdf="http://www.w3.org/1999/02/22-rdf-syntax-ns#"
   xmlns:svg="http://www.w3.org/2000/svg"
   xmlns="http://www.w3.org/2000/svg"
   xmlns:xlink="http://www.w3.org/1999/xlink"
   xmlns:sodipodi="http://sodipodi.sourceforge.net/DTD/sodipodi-0.dtd"
   xmlns:inkscape="http://www.inkscape.org/namespaces/inkscape"
   width="120"
   height="380"
   viewBox="0 0 31.75 100.54167"
   version="1.1"
   id="svg11003"
   inkscape:version="0.92.2 (5c3e80d, 2017-08-06)"
   sodipodi:docname="BPMLFO.svg">
  <defs
     id="defs10997">
    <linearGradient
       inkscape:collect="always"
       id="linearGradient3391">
      <stop
         style="stop-color:#202022;stop-opacity:1;"
         offset="0"
         id="stop3387" />
      <stop
         style="stop-color:#202025;stop-opacity:1;"
         offset=".3"
         id="stop3388" />
      <stop
         style="stop-color:#08006f;stop-opacity:1;"
         offset="1"
         id="stop3389" />
    </linearGradient>
    <linearGradient
       inkscape:collect="always"
       xlink:href="#linearGradient3391"
       id="linearGradient3393"
       x1="35.219627"
       y1="150.85843"
       x2="35.219627"
       y2="50.462322"
       gradientUnits="userSpaceOnUse"
       gradientTransform="matrix(0.80172961,0,0,1,6.9096935,0.07224295)" />
  </defs>
  <sodipodi:namedview
     id="base"
     pagecolor="#ffffff"
     bordercolor="#666666"
     borderopacity="1.0"
     inkscape:pageopacity="0.0"
     inkscape:pageshadow="2"
     inkscape:zoom="3.4201639"
     inkscape:cx="-222.17225"
     inkscape:cy="242.98958"
     inkscape:document-units="px"
     inkscape:current-layer="layer1"
     showgrid="false"
     fit-margin-top="0"
     fit-margin-left="0"
     fit-margin-right="0"
     fit-margin-bottom="0"
     inkscape:window-width="3840"
     inkscape:window-height="2115"
     inkscape:window-x="-13"
     inkscape:window-y="-13"
     inkscape:window-maximized="1"
     units="px" />
  <metadata
     id="metadata11000">
    <rdf:RDF>
      <cc:Work
         rdf:about="">
        <dc:format>image/svg+xml</dc:format>
        <dc:type
           rdf:resource="http://purl.org/dc/dcmitype/StillImage" />
        <dc:title></dc:title>
      </cc:Work>
    </rdf:RDF>
  </metadata>
  <g
     inkscape:label="Layer 1"
     inkscape:groupmode="layer"
     id="layer1"
     transform="translate(-35.146312,-50.389004)">
    <path
       inkscape:connector-curvature="0"
       id="path33493"
       d="M 35.146312,50.534566 H 66.896313 V 150.93067 H 35.146312 Z m 0,0"
       style="fill:url(#linearGradient3393);fill-opacity:1;fill-rule:nonzero;stroke:none;stroke-width:0.24714991;opacity:1"
       inkscape:export-filename="/home/vortico/pics/tmp/LFOs.png"
       inkscape:export-xdpi="150.22649"
       inkscape:export-ydpi="150.22649" />
    <g
       style="font-style:normal;font-weight:normal;font-size:3.52777767px;line-height:1.25;font-family:sans-serif;letter-spacing:0px;word-spacing:0px;fill:#ffffff;fill-opacity:1;stroke:none;stroke-width:0.26458332"
       id="text5097" />
    <path
       style="fill:#141414;fill-opacity:1;stroke-width:0.1734011"
       d="m 58.429646,83.197338 a 7.4083331,7.4083328 0 0 1 -7.408333,7.408334 7.4083331,7.4083328 0 0 1 -7.408334,-7.408334 7.4083331,7.4083328 0 0 1 7.408334,-7.408333 7.4083331,7.4083328 0 0 1 7.408333,7.408333 z"
       id="path6731"
       inkscape:connector-curvature="0" />
    <g
       transform="matrix(0.26458333,0,0,0.26458333,34.617145,50.389004)"
       style="font-style:normal;font-variant:normal;font-weight:bold;font-stretch:normal;font-size:13.33333302px;line-height:1.25;font-family:Consolas;-inkscape-font-specification:'Consolas Bold';text-align:center;letter-spacing:0px;word-spacing:0px;text-anchor:middle;fill:#ffffff;fill-opacity:1;stroke:none"
       id="flowRoot1527" />
    <g
       aria-label="PHASE"
       style="font-style:normal;font-variant:normal;font-weight:bold;font-stretch:normal;font-size:3.52777767px;line-height:1.25;font-family:Homenaje;-inkscape-font-specification:'Homenaje Bold';letter-spacing:0px;word-spacing:0px;fill:#ffffff;fill-opacity:1;stroke:none;stroke-width:0.26458332"
       id="text5443-7-3">
      <path
         d="m 47.830083,93.578883 v 0.733778 h 0.180623 q 0.160866,0 0.248355,-0.110067 0.09031,-0.110067 0.09031,-0.285045 0,-0.338666 -0.338666,-0.338666 z m 0.767645,0.338666 q 0,0.273756 -0.149578,0.428978 -0.146755,0.1524 -0.420511,0.1524 h -0.197556 v 0.869245 h -0.248355 v -1.975556 h 0.499533 q 0.516467,0 0.516467,0.524933 z"
         style="font-style:normal;font-variant:normal;font-weight:bold;font-stretch:normal;font-size:2.82222223px;font-family:Homenaje;-inkscape-font-specification:'Homenaje Bold';stroke-width:0.26458332"
         id="path6634" />
      <path
         d="m 49.670525,94.414261 h -0.561622 v 0.953911 h -0.248356 v -1.975556 h 0.248356 v 0.835378 h 0.561622 v -0.835378 h 0.248356 v 1.975556 h -0.248356 z"
         style="font-style:normal;font-variant:normal;font-weight:bold;font-stretch:normal;font-size:2.82222223px;font-family:Homenaje;-inkscape-font-specification:'Homenaje Bold';stroke-width:0.26458332"
         id="path6636" />
      <path
         d="m 50.628625,93.392616 h 0.375356 l 0.428978,1.975556 h -0.231423 l -0.138288,-0.581378 h -0.513645 l -0.127,0.581378 h -0.239889 z m 0.392289,1.202267 -0.2032,-1.016 h -0.01976 l -0.206023,1.016 z"
         style="font-style:normal;font-variant:normal;font-weight:bold;font-stretch:normal;font-size:2.82222223px;font-family:Homenaje;-inkscape-font-specification:'Homenaje Bold';stroke-width:0.26458332"
         id="path6638" />
      <path
         d="m 51.967549,95.181905 q 0.160867,0 0.231423,-0.09596 0.07338,-0.09596 0.07338,-0.222955 0,-0.127 -0.04798,-0.214489 -0.04516,-0.09031 -0.115712,-0.141111 -0.07055,-0.05362 -0.1524,-0.115711 -0.08184,-0.06209 -0.1524,-0.118534 -0.07055,-0.05927 -0.118533,-0.158044 -0.04516,-0.09878 -0.04516,-0.225778 0,-0.225778 0.135466,-0.361244 0.135467,-0.135467 0.375356,-0.135467 h 0.2286 v 0.186267 h -0.217311 q -0.135467,0 -0.206023,0.08749 -0.07055,0.08749 -0.07055,0.189089 0,0.1016 0.04516,0.174977 0.04798,0.07338 0.118534,0.121356 0.07055,0.04798 0.1524,0.112889 0.08467,0.06491 0.155222,0.132644 0.07056,0.06491 0.115711,0.1778 0.04798,0.112889 0.04798,0.256822 0,0.265289 -0.1524,0.400756 -0.149578,0.135467 -0.412045,0.135467 h -0.296333 v -0.186267 z"
         style="font-style:normal;font-variant:normal;font-weight:bold;font-stretch:normal;font-size:2.82222223px;font-family:Homenaje;-inkscape-font-specification:'Homenaje Bold';stroke-width:0.26458332"
         id="path6640" />
      <path
         d="m 52.796225,95.368172 v -1.975556 h 0.860777 v 0.191911 H 53.04458 v 0.632178 h 0.496711 v 0.191911 H 53.04458 v 0.767645 h 0.640645 v 0.191911 z"
         style="font-style:normal;font-variant:normal;font-weight:bold;font-stretch:normal;font-size:2.82222223px;font-family:Homenaje;-inkscape-font-specification:'Homenaje Bold';stroke-width:0.26458332"
         id="path6642" />
    </g>
    <g
       aria-label="90°"
       style="font-style:normal;font-variant:normal;font-weight:bold;font-stretch:normal;font-size:3.52777767px;line-height:1.25;font-family:Homenaje;-inkscape-font-specification:'Homenaje Bold';letter-spacing:0px;word-spacing:0px;fill:#ffffff;fill-opacity:1;stroke:none;stroke-width:0.26458332"
       id="text5443-0-4-9-8">
      <path
         d="m 44.705177,99.832219 v -0.338667 h -0.28575 q -0.277283,0 -0.277283,-0.28575 v -0.31115 q 0,-0.13335 0.110067,-0.205316 0.110066,-0.07197 0.262466,-0.07197 0.154517,0 0.264583,0.07408 0.110067,0.07197 0.110067,0.205317 v 0.95885 q 0,0.12065 -0.09313,0.190501 -0.09102,0.0677 -0.2667,0.0677 h -0.281517 v -0.139698 h 0.2794 q 0.1778,0 0.1778,-0.143933 z m -0.376766,-0.944033 v 0.3048 q 0,0.08467 0.02752,0.122766 0.02752,0.03598 0.1143,0.03598 h 0.23495 v -0.461434 q 0,-0.06985 -0.05503,-0.09948 -0.05292,-0.03175 -0.131234,-0.03175 -0.0762,0 -0.133349,0.02963 -0.05715,0.02963 -0.05715,0.09948 z"
         style="font-style:normal;font-variant:normal;font-weight:bold;font-stretch:normal;font-size:2.11666656px;font-family:Homenaje;-inkscape-font-specification:'Homenaje Bold';stroke-width:0.26458332"
         id="path6645" />
      <path
         d="m 45.855718,98.860669 v 1.007533 q 0,0.127 -0.09948,0.194738 -0.09737,0.0677 -0.254,0.0677 -0.156633,0 -0.256116,-0.0677 -0.09737,-0.06774 -0.09737,-0.194738 v -1.007533 q 0,-0.124883 0.09525,-0.182033 0.09737,-0.05927 0.258233,-0.05927 0.160867,0 0.256117,0.05927 0.09737,0.05715 0.09737,0.182033 z m -0.5207,0.03598 v 0.9652 q 0,0.124884 0.167216,0.124884 0.167217,0 0.167217,-0.124884 v -0.9652 q 0,-0.129116 -0.167217,-0.129116 -0.167216,0 -0.167216,0.129116 z"
         style="font-style:normal;font-variant:normal;font-weight:bold;font-stretch:normal;font-size:2.11666656px;font-family:Homenaje;-inkscape-font-specification:'Homenaje Bold';stroke-width:0.26458332"
         id="path6647" />
      <path
         d="m 46.653966,99.152769 q 0,0.0762 -0.06985,0.118533 -0.06773,0.04022 -0.162984,0.04022 -0.09525,0 -0.1651,-0.04022 -0.06773,-0.04233 -0.06773,-0.118533 v -0.38735 q 0,-0.07408 0.06562,-0.110067 0.06773,-0.03598 0.167216,-0.03598 0.09948,0 0.1651,0.03598 0.06773,0.03598 0.06773,0.110067 z m -0.353484,-0.366183 v 0.359833 q 0,0.07408 0.12065,0.07408 0.12065,0 0.12065,-0.07408 v -0.359833 q 0,-0.0762 -0.12065,-0.0762 -0.12065,0 -0.12065,0.0762 z"
         style="font-style:normal;font-variant:normal;font-weight:bold;font-stretch:normal;font-size:2.11666656px;font-family:Homenaje;-inkscape-font-specification:'Homenaje Bold';stroke-width:0.26458332"
         id="path6649" />
    </g>
    <g
       aria-label="MULTIPLY"
       style="font-style:normal;font-variant:normal;font-weight:bold;font-stretch:normal;font-size:3.52777767px;line-height:1.25;font-family:Homenaje;-inkscape-font-specification:'Homenaje Bold';letter-spacing:0px;word-spacing:0px;fill:#ffffff;fill-opacity:1;stroke:none;stroke-width:0.26458332"
       id="text5443-7-3-7">
      <path
         d="m 36.982167,58.174458 h -0.248356 v -1.975556 h 0.375356 l 0.378178,1.1684 h 0.01976 l 0.386645,-1.1684 h 0.361244 v 1.975556 h -0.248356 v -1.679223 l -0.378177,1.154289 h -0.268111 l -0.378178,-1.157111 z"
         style="font-style:normal;font-variant:normal;font-weight:bold;font-stretch:normal;font-size:2.82222223px;font-family:Homenaje;-inkscape-font-specification:'Homenaje Bold';stroke-width:0.26458332"
         id="path6652" />
      <path
         d="m 38.551499,56.198902 h 0.248355 v 1.535289 q 0,0.135467 0.06491,0.206022 0.06773,0.06773 0.186267,0.06773 0.118533,0 0.186267,-0.06773 0.06773,-0.07055 0.06773,-0.206022 v -1.535289 h 0.248356 v 1.487311 q 0,0.508 -0.502356,0.508 -0.499533,0 -0.499533,-0.508 z"
         style="font-style:normal;font-variant:normal;font-weight:bold;font-stretch:normal;font-size:2.82222223px;font-family:Homenaje;-inkscape-font-specification:'Homenaje Bold';stroke-width:0.26458332"
         id="path6654" />
      <path
         d="m 39.881912,58.174458 v -1.975556 h 0.248355 v 1.789289 h 0.578556 v 0.186267 z"
         style="font-style:normal;font-variant:normal;font-weight:bold;font-stretch:normal;font-size:2.82222223px;font-family:Homenaje;-inkscape-font-specification:'Homenaje Bold';stroke-width:0.26458332"
         id="path6656" />
      <path
         d="m 41.070023,58.174458 v -1.789289 h -0.395111 v -0.186267 h 1.038578 v 0.186267 h -0.395111 v 1.789289 z"
         style="font-style:normal;font-variant:normal;font-weight:bold;font-stretch:normal;font-size:2.82222223px;font-family:Homenaje;-inkscape-font-specification:'Homenaje Bold';stroke-width:0.26458332"
         id="path6658" />
      <path
         d="m 41.97653,58.174458 v -1.975556 h 0.248356 v 1.975556 z"
         style="font-style:normal;font-variant:normal;font-weight:bold;font-stretch:normal;font-size:2.82222223px;font-family:Homenaje;-inkscape-font-specification:'Homenaje Bold';stroke-width:0.26458332"
         id="path6660" />
      <path
         d="m 42.886344,56.385169 v 0.733777 h 0.180622 q 0.160866,0 0.248355,-0.110066 0.09031,-0.110067 0.09031,-0.285045 0,-0.338666 -0.338666,-0.338666 z m 0.767644,0.338666 q 0,0.273756 -0.149578,0.428978 -0.146755,0.1524 -0.420511,0.1524 h -0.197555 v 0.869245 h -0.248356 v -1.975556 h 0.499533 q 0.516467,0 0.516467,0.524933 z"
         style="font-style:normal;font-variant:normal;font-weight:bold;font-stretch:normal;font-size:2.82222223px;font-family:Homenaje;-inkscape-font-specification:'Homenaje Bold';stroke-width:0.26458332"
         id="path6662" />
      <path
         d="m 43.916808,58.174458 v -1.975556 h 0.248355 v 1.789289 h 0.578556 v 0.186267 z"
         style="font-style:normal;font-variant:normal;font-weight:bold;font-stretch:normal;font-size:2.82222223px;font-family:Homenaje;-inkscape-font-specification:'Homenaje Bold';stroke-width:0.26458332"
         id="path6664" />
      <path
         d="M 45.224775,58.174458 H 44.97642 V 57.38988 l -0.397934,-1.190978 h 0.248356 l 0.282222,0.934156 0.287867,-0.934156 h 0.248355 l -0.420511,1.190978 z"
         style="font-style:normal;font-variant:normal;font-weight:bold;font-stretch:normal;font-size:2.82222223px;font-family:Homenaje;-inkscape-font-specification:'Homenaje Bold';stroke-width:0.26458332"
         id="path6666" />
    </g>
    <g
       aria-label=":"
       style="font-style:normal;font-weight:normal;font-size:4.93888903px;line-height:1.25;font-family:sans-serif;letter-spacing:0px;word-spacing:0px;fill:#ffffff;fill-opacity:1;stroke:none;stroke-width:0.26458332"
       id="text5443-7-3-6">
      <path
         d="m 50.378458,60.094183 q 0,0.101286 -0.01688,0.16881 -0.01688,0.06752 -0.05788,0.110932 -0.03858,0.04341 -0.103698,0.0627 -0.06511,0.01688 -0.163986,0.01688 -0.09887,0 -0.163987,-0.01688 -0.06511,-0.01929 -0.106109,-0.0627 -0.03859,-0.04341 -0.05305,-0.110932 -0.01447,-0.06752 -0.01447,-0.16881 0,-0.103697 0.01447,-0.173633 0.01447,-0.06994 0.05305,-0.113343 0.041,-0.04341 0.106109,-0.0627 0.06511,-0.01929 0.163987,-0.01929 0.09887,0 0.163986,0.01929 0.06511,0.01929 0.103698,0.0627 0.041,0.04341 0.05788,0.113343 0.01688,0.06994 0.01688,0.173633 z m 0,1.574753 q 0,0.101286 -0.01688,0.171222 -0.01688,0.06752 -0.05788,0.110932 -0.03858,0.04341 -0.103698,0.06029 -0.06511,0.01929 -0.163986,0.01929 -0.09887,0 -0.163987,-0.01929 -0.06511,-0.01688 -0.106109,-0.06029 -0.03859,-0.04341 -0.05305,-0.110932 -0.01447,-0.06994 -0.01447,-0.171222 0,-0.101285 0.01447,-0.171221 0.01447,-0.07235 0.05305,-0.115755 0.041,-0.04341 0.106109,-0.06029 0.06511,-0.01929 0.163987,-0.01929 0.09887,0 0.163986,0.01929 0.06511,0.01688 0.103698,0.06029 0.041,0.04341 0.05788,0.115755 0.01688,0.06994 0.01688,0.171221 z"
         style="font-style:normal;font-variant:normal;font-weight:bold;font-stretch:normal;font-size:4.93888903px;font-family:Calibri;-inkscape-font-specification:'Calibri Bold';stroke-width:0.26458332"
         id="path6669" />
    </g>
    <g
       aria-label="DIVISION"
       style="font-style:normal;font-variant:normal;font-weight:bold;font-stretch:normal;font-size:3.52777767px;line-height:1.25;font-family:Homenaje;-inkscape-font-specification:'Homenaje Bold';letter-spacing:0px;word-spacing:0px;fill:#ffffff;fill-opacity:1;stroke:none;stroke-width:0.26458332"
       id="text5443">
      <path
         d="m 54.712072,57.953177 h 0.239889 q 0.129822,0 0.208844,-0.07338 0.08184,-0.0762 0.08184,-0.200377 v -1.044223 q 0,-0.124177 -0.08184,-0.197555 -0.07902,-0.0762 -0.208844,-0.0762 h -0.239889 z m -0.251178,0.191911 v -1.975555 h 0.491067 q 0.256822,0 0.397933,0.129822 0.141111,0.129822 0.141111,0.381 v 0.953911 q 0,0.251178 -0.141111,0.381 -0.141111,0.127 -0.397933,0.129822 z"
         style="font-style:normal;font-variant:normal;font-weight:bold;font-stretch:normal;font-size:2.82222223px;font-family:Homenaje;-inkscape-font-specification:'Homenaje Bold';stroke-width:0.26458332"
         id="path6672" />
      <path
         d="m 55.819706,58.145088 v -1.975555 h 0.248356 v 1.975555 z"
         style="font-style:normal;font-variant:normal;font-weight:bold;font-stretch:normal;font-size:2.82222223px;font-family:Homenaje;-inkscape-font-specification:'Homenaje Bold';stroke-width:0.26458332"
         id="path6674" />
      <path
         d="m 56.997631,57.91931 0.389467,-1.749777 h 0.245533 l -0.465667,1.975555 h -0.333022 l -0.474133,-1.975555 h 0.245533 z"
         style="font-style:normal;font-variant:normal;font-weight:bold;font-stretch:normal;font-size:2.82222223px;font-family:Homenaje;-inkscape-font-specification:'Homenaje Bold';stroke-width:0.26458332"
         id="path6676" />
      <path
         d="m 57.925348,58.145088 v -1.975555 h 0.248356 v 1.975555 z"
         style="font-style:normal;font-variant:normal;font-weight:bold;font-stretch:normal;font-size:2.82222223px;font-family:Homenaje;-inkscape-font-specification:'Homenaje Bold';stroke-width:0.26458332"
         id="path6678" />
      <path
         d="m 58.860562,57.958822 q 0.160867,0 0.231423,-0.09596 0.07338,-0.09596 0.07338,-0.222956 0,-0.127 -0.04798,-0.214488 -0.04516,-0.09031 -0.115712,-0.141112 -0.07055,-0.05362 -0.1524,-0.115711 -0.08184,-0.06209 -0.1524,-0.118533 -0.07055,-0.05927 -0.118533,-0.158044 -0.04515,-0.09878 -0.04515,-0.225778 0,-0.225778 0.135466,-0.361245 0.135467,-0.135466 0.375356,-0.135466 h 0.2286 v 0.186266 h -0.217311 q -0.135467,0 -0.206023,0.08749 -0.07055,0.08749 -0.07055,0.189089 0,0.1016 0.04516,0.174978 0.04798,0.07338 0.118534,0.121355 0.07055,0.04798 0.1524,0.112889 0.08467,0.06491 0.155222,0.132645 0.07056,0.06491 0.115711,0.1778 0.04798,0.112889 0.04798,0.256822 0,0.265289 -0.1524,0.400756 -0.149578,0.135466 -0.412045,0.135466 H 58.55294 v -0.186266 z"
         style="font-style:normal;font-variant:normal;font-weight:bold;font-stretch:normal;font-size:2.82222223px;font-family:Homenaje;-inkscape-font-specification:'Homenaje Bold';stroke-width:0.26458332"
         id="path6680" />
      <path
         d="m 59.689238,58.145088 v -1.975555 h 0.248355 v 1.975555 z"
         style="font-style:normal;font-variant:normal;font-weight:bold;font-stretch:normal;font-size:2.82222223px;font-family:Homenaje;-inkscape-font-specification:'Homenaje Bold';stroke-width:0.26458332"
         id="path6682" />
      <path
         d="m 61.34694,57.656844 q 0,0.239889 -0.138289,0.375355 -0.138289,0.132645 -0.403578,0.132645 -0.262466,0 -0.400755,-0.132645 -0.138289,-0.135466 -0.138289,-0.375355 v -0.999067 q 0,-0.239889 0.138289,-0.372533 0.138289,-0.135467 0.400755,-0.135467 0.265289,0 0.403578,0.135467 0.138289,0.132644 0.138289,0.372533 z m -0.832556,0.04798 q 0,0.129822 0.08185,0.2032 0.08467,0.07055 0.208844,0.07055 0.124178,0 0.208845,-0.07055 0.08467,-0.07338 0.08467,-0.2032 v -1.095023 q 0,-0.129822 -0.08467,-0.200377 -0.08467,-0.07338 -0.208845,-0.07338 -0.124177,0 -0.208844,0.07338 -0.08185,0.07055 -0.08185,0.200377 z"
         style="font-style:normal;font-variant:normal;font-weight:bold;font-stretch:normal;font-size:2.82222223px;font-family:Homenaje;-inkscape-font-specification:'Homenaje Bold';stroke-width:0.26458332"
         id="path6684" />
      <path
         d="m 62.777101,58.145088 h -0.3556 L 61.89939,56.350155 v 1.794933 h -0.248356 v -1.975555 h 0.414867 l 0.460022,1.707444 v -1.707444 h 0.251178 z"
         style="font-style:normal;font-variant:normal;font-weight:bold;font-stretch:normal;font-size:2.82222223px;font-family:Homenaje;-inkscape-font-specification:'Homenaje Bold';stroke-width:0.26458332"
         id="path6686" />
    </g>
    <g
       aria-label="MOM."
       style="font-style:normal;font-variant:normal;font-weight:normal;font-stretch:normal;font-size:3.52777767px;line-height:1.25;font-family:Homenaje;-inkscape-font-specification:Homenaje;letter-spacing:0px;word-spacing:0px;fill:#ffffff;fill-opacity:1;stroke:none;stroke-width:0.26458332"
       id="text5443-0-8">
      <path
         d="m 59.145079,127.36581 h -0.186267 v -1.48167 h 0.281517 l 0.283633,0.8763 h 0.01482 l 0.289983,-0.8763 h 0.270934 v 1.48167 h -0.186267 v -1.25942 l -0.283633,0.86572 h -0.201084 l -0.283633,-0.86784 z"
         style="font-style:normal;font-variant:normal;font-weight:normal;font-stretch:normal;font-size:2.11666656px;font-family:Homenaje;-inkscape-font-specification:Homenaje;stroke-width:0.26458332"
         id="path6689" />
      <path
         d="m 61.132761,126.99962 q 0,0.17992 -0.103716,0.28152 -0.103717,0.0995 -0.302684,0.0995 -0.19685,0 -0.300566,-0.0995 -0.103717,-0.1016 -0.103717,-0.28152 v -0.7493 q 0,-0.17991 0.103717,-0.2794 0.103716,-0.1016 0.300566,-0.1016 0.198967,0 0.302684,0.1016 0.103716,0.0995 0.103716,0.2794 z m -0.624416,0.036 q 0,0.0974 0.06138,0.1524 0.0635,0.0529 0.156633,0.0529 0.09313,0 0.156634,-0.0529 0.0635,-0.055 0.0635,-0.1524 v -0.82127 q 0,-0.0974 -0.0635,-0.15028 -0.0635,-0.055 -0.156634,-0.055 -0.09313,0 -0.156633,0.055 -0.06138,0.0529 -0.06138,0.15028 z"
         style="font-style:normal;font-variant:normal;font-weight:normal;font-stretch:normal;font-size:2.11666656px;font-family:Homenaje;-inkscape-font-specification:Homenaje;stroke-width:0.26458332"
         id="path6691" />
      <path
         d="m 61.542865,127.36581 h -0.186266 v -1.48167 h 0.281516 l 0.283634,0.8763 h 0.01482 l 0.289984,-0.8763 h 0.270933 v 1.48167 h -0.186267 v -1.25942 l -0.283633,0.86572 h -0.201083 l -0.283634,-0.86784 z"
         style="font-style:normal;font-variant:normal;font-weight:normal;font-stretch:normal;font-size:2.11666656px;font-family:Homenaje;-inkscape-font-specification:Homenaje;stroke-width:0.26458332"
         id="path6693" />
      <path
         d="m 62.715631,127.36581 v -0.21802 h 0.169333 v 0.21802 z"
         style="font-style:normal;font-variant:normal;font-weight:normal;font-stretch:normal;font-size:2.11666656px;font-family:Homenaje;-inkscape-font-specification:Homenaje;stroke-width:0.26458332"
         id="path6695" />
    </g>
    <g
       aria-label="GATE"
       style="font-style:normal;font-variant:normal;font-weight:normal;font-stretch:normal;font-size:3.52777767px;line-height:1.25;font-family:Homenaje;-inkscape-font-specification:Homenaje;letter-spacing:0px;word-spacing:0px;fill:#ffffff;fill-opacity:1;stroke:none;stroke-width:0.26458332"
       id="text5443-0-4-07">
      <path
         d="m 59.772607,119.16373 h -0.37465 q -0.192617,0 -0.29845,-0.0974 -0.105834,-0.0974 -0.105834,-0.28575 v -0.71755 q 0,-0.18627 0.1143,-0.28363 0.1143,-0.0974 0.31115,-0.0974 h 0.31115 v 0.14182 h -0.332316 q -0.09737,0 -0.15875,0.0571 -0.05927,0.055 -0.05927,0.14816 v 0.78952 q 0,0.0953 0.05715,0.15028 0.05715,0.055 0.1524,0.055 h 0.19685 v -0.58209 h -0.1905 v -0.1397 h 0.376767 z"
         style="font-style:normal;font-variant:normal;font-weight:normal;font-stretch:normal;font-size:2.11666656px;font-family:Homenaje;-inkscape-font-specification:Homenaje;stroke-width:0.26458332"
         id="path6698" />
      <path
         d="m 60.255074,117.68206 h 0.281517 l 0.321733,1.48167 h -0.173567 l -0.103716,-0.43604 h -0.385233 l -0.09525,0.43604 h -0.179917 z m 0.294217,0.9017 -0.1524,-0.762 h -0.01482 l -0.154516,0.762 z"
         style="font-style:normal;font-variant:normal;font-weight:normal;font-stretch:normal;font-size:2.11666656px;font-family:Homenaje;-inkscape-font-specification:Homenaje;stroke-width:0.26458332"
         id="path6700" />
      <path
         d="m 61.143016,119.16373 v -1.34197 h -0.296333 v -0.1397 h 0.778933 v 0.1397 h -0.296334 v 1.34197 z"
         style="font-style:normal;font-variant:normal;font-weight:normal;font-stretch:normal;font-size:2.11666656px;font-family:Homenaje;-inkscape-font-specification:Homenaje;stroke-width:0.26458332"
         id="path6702" />
      <path
         d="m 61.822896,119.16373 v -1.48167 h 0.645583 v 0.14393 h -0.459317 v 0.47414 h 0.372534 v 0.14393 h -0.372534 v 0.57573 h 0.480484 v 0.14394 z"
         style="font-style:normal;font-variant:normal;font-weight:normal;font-stretch:normal;font-size:2.11666656px;font-family:Homenaje;-inkscape-font-specification:Homenaje;stroke-width:0.26458332"
         id="path6704" />
    </g>
    <g
       aria-label="BI"
       style="font-style:normal;font-variant:normal;font-weight:normal;font-stretch:normal;font-size:3.52777767px;line-height:1.25;font-family:Homenaje;-inkscape-font-specification:Homenaje;letter-spacing:0px;word-spacing:0px;fill:#ffffff;fill-opacity:1;stroke:none;stroke-width:0.26458332"
       id="text5443-0-6-4">
      <path
         d="m 39.116121,126.04078 v 0.48049 h 0.13335 q 0.127,0 0.19685,-0.0635 0.06985,-0.0656 0.06985,-0.18839 0,-0.2286 -0.2667,-0.2286 z m 0.427566,0.55457 q 0.08255,0.0444 0.135467,0.13335 0.05503,0.0889 0.05503,0.17992 0,0.091 -0.0085,0.14605 -0.0085,0.055 -0.0381,0.12065 -0.02752,0.0635 -0.07832,0.10583 -0.1143,0.1016 -0.351367,0.1016 h -0.328083 v -1.48167 h 0.359833 q 0.19685,0 0.294217,0.091 0.09737,0.0889 0.09737,0.28152 0,0.10583 -0.04022,0.19473 -0.0381,0.0868 -0.09737,0.127 z m -0.296333,0.6477 q 0.309033,0 0.309033,-0.29633 0,-0.15029 -0.09102,-0.2159 -0.09102,-0.0656 -0.2159,-0.0656 h -0.13335 v 0.57785 z"
         style="font-style:normal;font-variant:normal;font-weight:normal;font-stretch:normal;font-size:2.11666656px;font-family:Homenaje;-inkscape-font-specification:Homenaje;stroke-width:0.26458332"
         id="path6707" />
      <path
         d="m 39.959248,127.38275 v -1.48167 h 0.186267 v 1.48167 z"
         style="font-style:normal;font-variant:normal;font-weight:normal;font-stretch:normal;font-size:2.11666656px;font-family:Homenaje;-inkscape-font-specification:Homenaje;stroke-width:0.26458332"
         id="path6709" />
    </g>
    <g
       aria-label="UNI"
       style="font-style:normal;font-variant:normal;font-weight:normal;font-stretch:normal;font-size:3.52777767px;line-height:1.25;font-family:Homenaje;-inkscape-font-specification:Homenaje;letter-spacing:0px;word-spacing:0px;fill:#ffffff;fill-opacity:1;stroke:none;stroke-width:0.26458332"
       id="text5443-0-4-9-0">
      <path
         d="m 38.585894,117.68206 h 0.186266 v 1.15147 q 0,0.1016 0.04868,0.15451 0.0508,0.0508 0.1397,0.0508 0.0889,0 0.139699,-0.0508 0.0508,-0.0529 0.0508,-0.15451 v -1.15147 h 0.186267 v 1.11548 q 0,0.381 -0.376766,0.381 -0.37465,0 -0.37465,-0.381 z"
         style="font-style:normal;font-variant:normal;font-weight:normal;font-stretch:normal;font-size:2.11666656px;font-family:Homenaje;-inkscape-font-specification:Homenaje;stroke-width:0.26458332"
         id="path6712" />
      <path
         d="m 40.41132,119.16373 h -0.2667 l -0.391583,-1.3462 v 1.3462 H 39.56677 v -1.48167 h 0.31115 l 0.345017,1.28058 v -1.28058 h 0.188383 z"
         style="font-style:normal;font-variant:normal;font-weight:normal;font-stretch:normal;font-size:2.11666656px;font-family:Homenaje;-inkscape-font-specification:Homenaje;stroke-width:0.26458332"
         id="path6714" />
      <path
         d="m 40.704048,119.16373 v -1.48167 h 0.186267 v 1.48167 z"
         style="font-style:normal;font-variant:normal;font-weight:normal;font-stretch:normal;font-size:2.11666656px;font-family:Homenaje;-inkscape-font-specification:Homenaje;stroke-width:0.26458332"
         id="path6716" />
    </g>
    <g
       aria-label="PAUSE"
       style="font-style:normal;font-variant:normal;font-weight:normal;font-stretch:normal;font-size:3.52777767px;line-height:1.25;font-family:Homenaje;-inkscape-font-specification:Homenaje;letter-spacing:0px;word-spacing:0px;fill:#ffffff;fill-opacity:1;stroke:none;stroke-width:0.26458332"
       id="text5443-0-4-7-3">
      <path
         d="m 48.297162,117.82176 v 0.55033 h 0.135467 q 0.12065,0 0.186267,-0.0825 0.06773,-0.0825 0.06773,-0.21378 0,-0.254 -0.254,-0.254 z m 0.575734,0.254 q 0,0.20532 -0.112184,0.32173 -0.110066,0.1143 -0.315383,0.1143 h -0.148167 v 0.65194 h -0.186266 v -1.48167 h 0.37465 q 0.38735,0 0.38735,0.3937 z"
         style="font-style:normal;font-variant:normal;font-weight:normal;font-stretch:normal;font-size:2.11666656px;font-family:Homenaje;-inkscape-font-specification:Homenaje;stroke-width:0.26458332"
         id="path6719" />
      <path
         d="m 49.29226,117.68206 h 0.281517 l 0.321733,1.48167 h -0.173567 l -0.103716,-0.43604 h -0.385234 l -0.09525,0.43604 h -0.179916 z m 0.294217,0.9017 -0.1524,-0.762 h -0.01482 l -0.154517,0.762 z"
         style="font-style:normal;font-variant:normal;font-weight:normal;font-stretch:normal;font-size:2.11666656px;font-family:Homenaje;-inkscape-font-specification:Homenaje;stroke-width:0.26458332"
         id="path6721" />
      <path
         d="m 50.027636,117.68206 h 0.186267 v 1.15147 q 0,0.1016 0.04868,0.15451 0.0508,0.0508 0.1397,0.0508 0.0889,0 0.1397,-0.0508 0.0508,-0.0529 0.0508,-0.15451 v -1.15147 h 0.186267 v 1.11548 q 0,0.381 -0.376767,0.381 -0.37465,0 -0.37465,-0.381 z"
         style="font-style:normal;font-variant:normal;font-weight:normal;font-stretch:normal;font-size:2.11666656px;font-family:Homenaje;-inkscape-font-specification:Homenaje;stroke-width:0.26458332"
         id="path6723" />
      <path
         d="m 51.230763,119.02403 q 0.12065,0 0.173567,-0.072 0.05503,-0.072 0.05503,-0.16722 0,-0.0953 -0.03598,-0.16086 -0.03387,-0.0677 -0.08678,-0.10584 -0.05292,-0.0402 -0.1143,-0.0868 -0.06138,-0.0466 -0.1143,-0.0889 -0.05292,-0.0444 -0.0889,-0.11853 -0.03387,-0.0741 -0.03387,-0.16934 0,-0.16933 0.1016,-0.27093 0.1016,-0.1016 0.281516,-0.1016 h 0.17145 v 0.1397 h -0.162983 q -0.1016,0 -0.154517,0.0656 -0.05292,0.0656 -0.05292,0.14181 0,0.0762 0.03387,0.13124 0.03598,0.055 0.0889,0.091 0.05292,0.036 0.1143,0.0847 0.0635,0.0487 0.116417,0.0995 0.05292,0.0487 0.08678,0.13335 0.03598,0.0847 0.03598,0.19262 0,0.19897 -0.1143,0.30057 -0.112184,0.1016 -0.309034,0.1016 h -0.22225 v -0.1397 z"
         style="font-style:normal;font-variant:normal;font-weight:normal;font-stretch:normal;font-size:2.11666656px;font-family:Homenaje;-inkscape-font-specification:Homenaje;stroke-width:0.26458332"
         id="path6725" />
      <path
         d="m 51.852269,119.16373 v -1.48167 h 0.645583 v 0.14393 h -0.459316 v 0.47414 h 0.372533 v 0.14393 h -0.372533 v 0.57573 h 0.480483 v 0.14394 z"
         style="font-style:normal;font-variant:normal;font-weight:normal;font-stretch:normal;font-size:2.11666656px;font-family:Homenaje;-inkscape-font-specification:Homenaje;stroke-width:0.26458332"
         id="path6727" />
    </g>
    <g
       aria-label="FREE"
       style="font-style:normal;font-variant:normal;font-weight:normal;font-stretch:normal;font-size:3.52777767px;line-height:1.25;font-family:Homenaje;-inkscape-font-specification:Homenaje;letter-spacing:0px;word-spacing:0px;fill:#ffffff;fill-opacity:1;stroke:none;stroke-width:0.26458332"
       id="text5443-0-4-0-8">
      <path
         d="m 48.375479,127.38275 v -1.48167 h 0.624417 v 0.14394 h -0.43815 v 0.508 h 0.3302 v 0.14393 h -0.3302 v 0.6858 z"
         style="font-style:normal;font-variant:normal;font-weight:normal;font-stretch:normal;font-size:2.11666656px;font-family:Homenaje;-inkscape-font-specification:Homenaje;stroke-width:0.26458332"
         id="path6730" />
      <path
         d="m 49.384435,126.04078 v 0.55245 h 0.150283 q 0.12065,0 0.186267,-0.0826 0.06773,-0.0847 0.06773,-0.2159 0,-0.254 -0.254,-0.254 z m -0.0042,0.69215 v 0.64982 h -0.182033 v -1.48167 h 0.391583 q 0.381,0 0.381,0.3937 0,0.14817 -0.05715,0.25824 -0.05715,0.11006 -0.162983,0.1524 l 0.294217,0.67733 h -0.182034 l -0.287866,-0.64982 z"
         style="font-style:normal;font-variant:normal;font-weight:normal;font-stretch:normal;font-size:2.11666656px;font-family:Homenaje;-inkscape-font-specification:Homenaje;stroke-width:0.26458332"
         id="path6732" />
      <path
         d="m 50.239965,127.38275 v -1.48167 h 0.645583 v 0.14394 h -0.459317 v 0.47413 h 0.372534 v 0.14393 h -0.372534 v 0.57574 h 0.480484 v 0.14393 z"
         style="font-style:normal;font-variant:normal;font-weight:normal;font-stretch:normal;font-size:2.11666656px;font-family:Homenaje;-inkscape-font-specification:Homenaje;stroke-width:0.26458332"
         id="path6734" />
      <path
         d="m 51.145336,127.38275 v -1.48167 h 0.645583 v 0.14394 h -0.459316 v 0.47413 h 0.372533 v 0.14393 h -0.372533 v 0.57574 h 0.480483 v 0.14393 z"
         style="font-style:normal;font-variant:normal;font-weight:normal;font-stretch:normal;font-size:2.11666656px;font-family:Homenaje;-inkscape-font-specification:Homenaje;stroke-width:0.26458332"
         id="path6736" />
    </g>
    <g
       aria-label="RESET"
       style="font-style:normal;font-variant:normal;font-weight:normal;font-stretch:normal;font-size:3.52777767px;line-height:1.25;font-family:Homenaje;-inkscape-font-specification:Homenaje;letter-spacing:0px;word-spacing:0px;fill:#ffffff;fill-opacity:1;stroke:none;stroke-width:0.26458332"
       id="text4978">
      <path
         d="m 47.5655,130.35596 v 0.7366 h 0.200378 q 0.160866,0 0.248355,-0.11007 0.09031,-0.11289 0.09031,-0.28786 0,-0.33867 -0.338666,-0.33867 z m -0.0056,0.92287 v 0.86642 h -0.242711 v -1.97556 h 0.522111 q 0.508,0 0.508,0.52494 0,0.19755 -0.0762,0.34431 -0.0762,0.14675 -0.217311,0.2032 l 0.392289,0.90311 H 48.203322 L 47.8195,131.27883 Z"
         style="font-style:normal;font-variant:normal;font-weight:normal;font-stretch:normal;font-size:2.82222223px;font-family:Homenaje;-inkscape-font-specification:Homenaje;stroke-width:0.26458332"
         id="path6739" />
      <path
         d="m 48.706207,132.14525 v -1.97556 h 0.860778 v 0.19191 h -0.612423 v 0.63218 h 0.496712 v 0.19191 h -0.496712 v 0.76765 h 0.640645 v 0.19191 z"
         style="font-style:normal;font-variant:normal;font-weight:normal;font-stretch:normal;font-size:2.82222223px;font-family:Homenaje;-inkscape-font-specification:Homenaje;stroke-width:0.26458332"
         id="path6741" />
      <path
         d="m 50.187124,131.95898 q 0.160866,0 0.231422,-0.0959 0.07338,-0.096 0.07338,-0.22296 0,-0.127 -0.04798,-0.21449 -0.04516,-0.0903 -0.115711,-0.14111 -0.07056,-0.0536 -0.1524,-0.11571 -0.08185,-0.0621 -0.1524,-0.11853 -0.07056,-0.0593 -0.118533,-0.15805 -0.04516,-0.0988 -0.04516,-0.22578 0,-0.22577 0.135467,-0.36124 0.135466,-0.13547 0.375355,-0.13547 h 0.2286 v 0.18627 h -0.217311 q -0.135467,0 -0.206022,0.0875 -0.07056,0.0875 -0.07056,0.18909 0,0.1016 0.04516,0.17498 0.04798,0.0734 0.118533,0.12135 0.07056,0.048 0.1524,0.11289 0.08467,0.0649 0.155222,0.13264 0.07056,0.0649 0.115712,0.1778 0.04798,0.11289 0.04798,0.25683 0,0.26529 -0.1524,0.40075 -0.149577,0.13547 -0.412044,0.13547 h -0.296333 v -0.18627 z"
         style="font-style:normal;font-variant:normal;font-weight:normal;font-stretch:normal;font-size:2.82222223px;font-family:Homenaje;-inkscape-font-specification:Homenaje;stroke-width:0.26458332"
         id="path6743" />
      <path
         d="m 51.015799,132.14525 v -1.97556 h 0.860778 v 0.19191 h -0.612422 v 0.63218 h 0.496711 v 0.19191 h -0.496711 v 0.76765 h 0.640644 v 0.19191 z"
         style="font-style:normal;font-variant:normal;font-weight:normal;font-stretch:normal;font-size:2.82222223px;font-family:Homenaje;-inkscape-font-specification:Homenaje;stroke-width:0.26458332"
         id="path6745" />
      <path
         d="m 52.468494,132.14525 v -1.78929 h -0.395111 v -0.18627 h 1.038577 v 0.18627 h -0.395111 v 1.78929 z"
         style="font-style:normal;font-variant:normal;font-weight:normal;font-stretch:normal;font-size:2.82222223px;font-family:Homenaje;-inkscape-font-specification:Homenaje;stroke-width:0.26458332"
         id="path6747" />
    </g>
    <g
       aria-label="CLOCK"
       style="font-style:normal;font-variant:normal;font-weight:normal;font-stretch:normal;font-size:3.52777767px;line-height:1.25;font-family:Homenaje;-inkscape-font-specification:Homenaje;letter-spacing:0px;word-spacing:0px;fill:#ffffff;fill-opacity:1;stroke:none;stroke-width:0.26458332"
       id="text4982">
      <path
         d="m 37.386451,131.93924 v 0.18626 h -0.378177 q -0.256823,0 -0.397934,-0.12982 -0.141111,-0.12982 -0.141111,-0.381 v -0.95391 q 0,-0.25118 0.141111,-0.381 0.141111,-0.12982 0.397934,-0.12982 h 0.378177 v 0.18626 h -0.378177 q -0.129823,0 -0.211667,0.0762 -0.07902,0.0734 -0.07902,0.19756 v 1.05551 q 0,0.12418 0.07902,0.20038 0.08184,0.0734 0.211667,0.0734 z"
         style="font-style:normal;font-variant:normal;font-weight:normal;font-stretch:normal;font-size:2.82222223px;font-family:Homenaje;-inkscape-font-specification:Homenaje;stroke-width:0.26458332"
         id="path6750" />
      <path
         d="m 37.650814,132.1255 v -1.97555 h 0.248356 v 1.78929 h 0.578555 v 0.18626 z"
         style="font-style:normal;font-variant:normal;font-weight:normal;font-stretch:normal;font-size:2.82222223px;font-family:Homenaje;-inkscape-font-specification:Homenaje;stroke-width:0.26458332"
         id="path6752" />
      <path
         d="m 39.716416,131.63726 q 0,0.23989 -0.138289,0.37535 -0.138288,0.13265 -0.403577,0.13265 -0.262467,0 -0.400756,-0.13265 -0.138289,-0.13546 -0.138289,-0.37535 v -0.99907 q 0,-0.23989 0.138289,-0.37253 0.138289,-0.13547 0.400756,-0.13547 0.265289,0 0.403577,0.13547 0.138289,0.13264 0.138289,0.37253 z m -0.832555,0.048 q 0,0.12982 0.08184,0.2032 0.08467,0.0705 0.208845,0.0705 0.124177,0 0.208844,-0.0705 0.08467,-0.0734 0.08467,-0.2032 v -1.09503 q 0,-0.12982 -0.08467,-0.20037 -0.08467,-0.0734 -0.208844,-0.0734 -0.124178,0 -0.208845,0.0734 -0.08184,0.0705 -0.08184,0.20037 z"
         style="font-style:normal;font-variant:normal;font-weight:normal;font-stretch:normal;font-size:2.82222223px;font-family:Homenaje;-inkscape-font-specification:Homenaje;stroke-width:0.26458332"
         id="path6754" />
      <path
         d="m 40.875644,131.93924 v 0.18626 h -0.378178 q -0.256822,0 -0.397933,-0.12982 -0.141111,-0.12982 -0.141111,-0.381 v -0.95391 q 0,-0.25118 0.141111,-0.381 0.141111,-0.12982 0.397933,-0.12982 h 0.378178 v 0.18626 h -0.378178 q -0.129822,0 -0.211666,0.0762 -0.07902,0.0734 -0.07902,0.19756 v 1.05551 q 0,0.12418 0.07902,0.20038 0.08184,0.0734 0.211666,0.0734 z"
         style="font-style:normal;font-variant:normal;font-weight:normal;font-stretch:normal;font-size:2.82222223px;font-family:Homenaje;-inkscape-font-specification:Homenaje;stroke-width:0.26458332"
         id="path6756" />
      <path
         d="m 41.379896,132.1255 h -0.239889 v -1.97555 h 0.239889 v 0.8636 l 0.5842,-0.8636 h 0.245533 l -0.575733,0.88053 0.6604,1.09502 h -0.251178 l -0.553155,-0.92004 -0.110067,0.14111 z"
         style="font-style:normal;font-variant:normal;font-weight:normal;font-stretch:normal;font-size:2.82222223px;font-family:Homenaje;-inkscape-font-specification:Homenaje;stroke-width:0.26458332"
         id="path6758" />
    </g>
    <g
       aria-label="HOLD"
       style="font-style:normal;font-variant:normal;font-weight:normal;font-stretch:normal;font-size:3.52777767px;line-height:1.25;font-family:Homenaje;-inkscape-font-specification:Homenaje;letter-spacing:0px;word-spacing:0px;fill:#ffffff;fill-opacity:1;stroke:none;stroke-width:0.26458332"
       id="text4978-4">
      <path
         d="m 58.445874,131.17159 h -0.561622 v 0.95391 h -0.248355 v -1.97555 h 0.248355 v 0.83538 h 0.561622 v -0.83538 h 0.248356 v 1.97555 h -0.248356 z"
         style="font-style:normal;font-variant:normal;font-weight:normal;font-stretch:normal;font-size:2.82222223px;font-family:Homenaje;-inkscape-font-specification:Homenaje;stroke-width:0.26458332"
         id="path6761" />
      <path
         d="m 60.103886,131.63726 q 0,0.23989 -0.138289,0.37535 -0.138289,0.13265 -0.403578,0.13265 -0.262466,0 -0.400755,-0.13265 -0.138289,-0.13546 -0.138289,-0.37535 v -0.99907 q 0,-0.23989 0.138289,-0.37253 0.138289,-0.13547 0.400755,-0.13547 0.265289,0 0.403578,0.13547 0.138289,0.13264 0.138289,0.37253 z m -0.832556,0.048 q 0,0.12982 0.08185,0.2032 0.08467,0.0705 0.208844,0.0705 0.124178,0 0.208845,-0.0705 0.08467,-0.0734 0.08467,-0.2032 v -1.09503 q 0,-0.12982 -0.08467,-0.20037 -0.08467,-0.0734 -0.208845,-0.0734 -0.124178,0 -0.208844,0.0734 -0.08185,0.0705 -0.08185,0.20037 z"
         style="font-style:normal;font-variant:normal;font-weight:normal;font-stretch:normal;font-size:2.82222223px;font-family:Homenaje;-inkscape-font-specification:Homenaje;stroke-width:0.26458332"
         id="path6763" />
      <path
         d="m 60.430558,132.1255 v -1.97555 h 0.248356 v 1.78929 h 0.578555 v 0.18626 z"
         style="font-style:normal;font-variant:normal;font-weight:normal;font-stretch:normal;font-size:2.82222223px;font-family:Homenaje;-inkscape-font-specification:Homenaje;stroke-width:0.26458332"
         id="path6765" />
      <path
         d="m 61.748271,131.93359 h 0.239889 q 0.129822,0 0.208844,-0.0734 0.08185,-0.0762 0.08185,-0.20037 v -1.04423 q 0,-0.12417 -0.08185,-0.19755 -0.07902,-0.0762 -0.208844,-0.0762 h -0.239889 z m -0.251178,0.19191 v -1.97555 h 0.491067 q 0.256822,0 0.397933,0.12982 0.141111,0.12982 0.141111,0.381 v 0.95391 q 0,0.25118 -0.141111,0.381 -0.141111,0.127 -0.397933,0.12982 z"
         style="font-style:normal;font-variant:normal;font-weight:normal;font-stretch:normal;font-size:2.82222223px;font-family:Homenaje;-inkscape-font-specification:Homenaje;stroke-width:0.26458332"
         id="path6767" />
    </g>
    <g
       aria-label="BPM LFO"
       style="font-style:normal;font-variant:normal;font-weight:bold;font-stretch:normal;font-size:3.52777767px;line-height:1.25;font-family:Homenaje;-inkscape-font-specification:'Homenaje Bold';text-align:start;letter-spacing:0px;word-spacing:0px;text-anchor:start;fill:#ffffff;fill-opacity:1;stroke:none;stroke-width:0.26458332"
       id="text3885">
      <path
         d="m 45.16506,51.866437 v 0.880887 h 0.244475 q 0.232834,0 0.360892,-0.116417 0.128058,-0.120297 0.128058,-0.34537 0,-0.4191 -0.48895,-0.4191 z m 0.783873,1.016706 q 0.151341,0.08149 0.248355,0.244475 0.100895,0.162983 0.100895,0.329847 0,0.166864 -0.01552,0.267759 -0.01552,0.100894 -0.06985,0.221191 -0.05045,0.116417 -0.14358,0.194028 -0.20955,0.186267 -0.644172,0.186267 h -0.601487 v -2.716389 h 0.659695 q 0.360892,0 0.539397,0.166864 0.178506,0.162983 0.178506,0.516114 0,0.194027 -0.07373,0.357011 -0.06985,0.159102 -0.178505,0.232833 z m -0.543278,1.18745 q 0.566561,0 0.566561,-0.543278 0,-0.275519 -0.166864,-0.395816 -0.166864,-0.120298 -0.395817,-0.120298 H 45.16506 v 1.059392 z"
         style="font-style:normal;font-variant:normal;font-weight:bold;font-stretch:normal;font-size:3.88055563px;font-family:Homenaje;-inkscape-font-specification:'Homenaje Bold';text-align:start;text-anchor:start;stroke-width:0.26458332"
         id="path6770" />
      <path
         d="m 47.052284,51.866437 v 1.008945 h 0.248355 q 0.221192,0 0.341489,-0.151342 0.124178,-0.151341 0.124178,-0.391936 0,-0.465667 -0.465667,-0.465667 z m 1.055511,0.465667 q 0,0.376414 -0.20567,0.589845 -0.201789,0.20955 -0.578202,0.20955 h -0.271639 v 1.195211 h -0.341489 v -2.716389 h 0.686858 q 0.710142,0 0.710142,0.721783 z"
         style="font-style:normal;font-variant:normal;font-weight:bold;font-stretch:normal;font-size:3.88055563px;font-family:Homenaje;-inkscape-font-specification:'Homenaje Bold';text-align:start;text-anchor:start;stroke-width:0.26458332"
         id="path6772" />
      <path
         d="m 48.771855,54.32671 h -0.341489 v -2.716389 h 0.516114 l 0.519994,1.60655 h 0.02716 l 0.531636,-1.60655 h 0.496711 v 2.716389 h -0.341488 v -2.308931 l -0.519995,1.587147 h -0.368653 l -0.519994,-1.591027 z"
         style="font-style:normal;font-variant:normal;font-weight:bold;font-stretch:normal;font-size:3.88055563px;font-family:Homenaje;-inkscape-font-specification:'Homenaje Bold';text-align:start;text-anchor:start;stroke-width:0.26458332"
         id="path6774" />
      <path
         d="m 51.629702,54.32671 v -2.716389 h 0.341489 v 2.460272 h 0.795514 v 0.256117 z"
         style="font-style:normal;font-variant:normal;font-weight:bold;font-stretch:normal;font-size:3.88055563px;font-family:Homenaje;-inkscape-font-specification:'Homenaje Bold';text-align:start;text-anchor:start;stroke-width:0.26458332"
         id="path6776" />
      <path
         d="m 53.100069,54.32671 v -2.716389 h 1.144764 v 0.263878 h -0.803275 v 0.931333 h 0.605367 v 0.263878 h -0.605367 v 1.2573 z"
         style="font-style:normal;font-variant:normal;font-weight:bold;font-stretch:normal;font-size:3.88055563px;font-family:Homenaje;-inkscape-font-specification:'Homenaje Bold';text-align:start;text-anchor:start;stroke-width:0.26458332"
         id="path6778" />
      <path
         d="m 55.978168,53.655374 q 0,0.329847 -0.190147,0.516114 -0.190147,0.182386 -0.55492,0.182386 -0.360891,0 -0.551039,-0.182386 -0.190147,-0.186267 -0.190147,-0.516114 v -1.373717 q 0,-0.329847 0.190147,-0.512233 0.190148,-0.186267 0.551039,-0.186267 0.364773,0 0.55492,0.186267 0.190147,0.182386 0.190147,0.512233 z m -1.144764,0.06597 q 0,0.178506 0.112536,0.2794 0.116417,0.09701 0.287161,0.09701 0.170745,0 0.287161,-0.09701 0.116417,-0.100894 0.116417,-0.2794 v -1.505656 q 0,-0.178505 -0.116417,-0.275519 -0.116416,-0.100894 -0.287161,-0.100894 -0.170744,0 -0.287161,0.100894 -0.112536,0.09701 -0.112536,0.275519 z"
         style="font-style:normal;font-variant:normal;font-weight:bold;font-stretch:normal;font-size:3.88055563px;font-family:Homenaje;-inkscape-font-specification:'Homenaje Bold';text-align:start;text-anchor:start;stroke-width:0.26458332"
         id="path6780" />
    </g>
    <path
       style="fill:none;stroke:#ffffff;stroke-width:0.13229169;stroke-linecap:butt;stroke-linejoin:miter;stroke-miterlimit:4;stroke-dasharray:none;stroke-opacity:1"
       d="m 61.604646,140.66225 h 0.760677 v -1.02526 h 0.628385 v 1.0418 h 0.396875"
       id="path872"
       inkscape:connector-curvature="0" />
    <path
       style="fill:none;stroke:#ffffff;stroke-width:0.13229169;stroke-linecap:butt;stroke-linejoin:miter;stroke-miterlimit:4;stroke-dasharray:none;stroke-opacity:1"
       d="m 46.052145,140.84455 0.529167,-0.95911 0.578776,0.89297"
       id="path870"
       inkscape:connector-curvature="0"
       sodipodi:nodetypes="ccc" />
    <g
       id="g346"
       transform="matrix(0.12402883,0,0,0.12402883,36.742032,135.60115)"
       style="stroke:#ffffff;stroke-width:1.06662023;stroke-miterlimit:4;stroke-dasharray:none;stroke-opacity:1">
      <!-- <text font-size="6pt" letter-spacing="2px" transform="translate(6.5 40)">SIN</text> -->
      <g
         id="g344"
         transform="translate(9,33.5)"
         style="stroke:#ffffff;stroke-width:1.06662023;stroke-miterlimit:4;stroke-dasharray:none;stroke-opacity:1">
        <!-- <rect width="12" height="8" fill="none" stroke-width="1" stroke="#0f0" /> -->
        <path
           style="fill:none;stroke:#ffffff;stroke-width:1.06662023;stroke-miterlimit:4;stroke-dasharray:none;stroke-opacity:1"
           inkscape:connector-curvature="0"
           id="path340"
           d="M 0,4 A 3,4.5 0 0 1 6,4" />
        <path
           style="fill:none;stroke:#ffffff;stroke-width:1.06662023;stroke-miterlimit:4;stroke-dasharray:none;stroke-opacity:1"
           inkscape:connector-curvature="0"
           id="path342"
           d="m 6,4 a 3,4.5 0 0 0 6,0" />
      </g>
    </g>
    <g
       transform="matrix(0.12417689,0,0,0.12417689,52.586245,135.66813)"
       id="g318"
       style="stroke:#ffffff;stroke-width:1.06534851;stroke-miterlimit:4;stroke-dasharray:none;stroke-opacity:1">
      <g
         transform="translate(9,33.5)"
         id="g316"
         style="stroke:#ffffff;stroke-width:1.06534851;stroke-miterlimit:4;stroke-dasharray:none;stroke-opacity:1">
        <path
           inkscape:connector-curvature="0"
           id="polyline314"
           d="M 0,8 12,0 v 8"
           style="fill:none;stroke:#ffffff;stroke-width:1.06534851;stroke-miterlimit:4;stroke-dasharray:none;stroke-opacity:1" />
      </g>
    </g>
    <g
       style="font-style:normal;font-variant:normal;font-weight:bold;font-stretch:normal;font-size:13.33333302px;line-height:1.25;font-family:Consolas;-inkscape-font-specification:'Consolas Bold';text-align:center;letter-spacing:0px;word-spacing:0px;text-anchor:middle;fill:#000000;fill-opacity:1;stroke:none"
       id="flowRoot2155" />
    <g
       style="font-style:normal;font-variant:normal;font-weight:bold;font-stretch:normal;font-size:13.33333302px;line-height:1.25;font-family:Consolas;-inkscape-font-specification:'Consolas Bold';text-align:center;letter-spacing:0px;word-spacing:0px;text-anchor:middle;fill:#000000;fill-opacity:1;stroke:none"
       id="flowRoot2163" />
    <g
       style="font-style:normal;font-variant:normal;font-weight:bold;font-stretch:normal;font-size:13.33333302px;line-height:1.25;font-family:Consolas;-inkscape-font-specification:'Consolas Bold';text-align:center;letter-spacing:0px;word-spacing:0px;text-anchor:middle;fill:#000000;fill-opacity:1;stroke:none"
       id="flowRoot2171" />
    <g
       id="g1062">
      <path
         style="fill:#999999;fill-opacity:1;stroke-width:0.10016956"
         d="m 36.204647,58.855671 h 9.525001 v 4.7625 h -9.525001 z"
         id="rect6948-0" />
      <path
         style="fill:#323232;fill-opacity:1;stroke-width:0.09300231"
         d="m 36.520828,59.120251 h 8.995834 v 4.233333 h -8.995834 z"
         id="rect4735-6" />
    </g>
    <g
       id="g1066">
      <path
         style="fill:#999999;fill-opacity:1;stroke-width:0.10016956"
         d="m 53.799438,58.855671 h 9.525001 v 4.7625 h -9.525001 z"
         id="rect6948-0-8" />
      <path
         style="fill:#323232;fill-opacity:1;stroke-width:0.09300231"
         d="m 54.11562,59.120251 h 8.995833 v 4.233333 H 54.11562 Z"
         id="rect4735-6-8" />
    </g>
    <g
       aria-label="FROZEN WASTELAND"
       style="font-style:normal;font-variant:normal;font-weight:bold;font-stretch:normal;font-size:2.77782488px;line-height:1.25;font-family:Consolas;-inkscape-font-specification:'Consolas Bold';text-align:start;letter-spacing:0px;word-spacing:0px;text-anchor:start;fill:#00a3f2;fill-opacity:1;stroke:none;stroke-width:0.20833685"
       id="text3885-7">
      <path
         d="m 41.169928,150.13164 q 0.09445,-0.0944 0.150003,-0.16667 0.05833,-0.0722 0.08889,-0.13334 0.03333,-0.0611 0.04167,-0.11389 0.01111,-0.0555 0.01111,-0.11667 0,-0.075 -0.03611,-0.18056 -0.03611,-0.10555 -0.08056,-0.225 -0.04445,-0.11945 -0.08056,-0.24445 -0.03611,-0.125 -0.03611,-0.23889 0,-0.0611 0.01945,-0.11945 0.02222,-0.0583 0.05278,-0.11111 0.03333,-0.0556 0.07222,-0.10278 0.03889,-0.05 0.07778,-0.0889 -0.05556,-0.0111 -0.09722,-0.0167 -0.04167,-0.008 -0.06111,-0.008 -0.10278,0 -0.175003,0.0556 -0.06945,0.0528 -0.150003,0.13333 0,-0.0944 0.02778,-0.19445 0.03056,-0.10278 0.09167,-0.18611 0.06111,-0.0833 0.15278,-0.13611 0.09445,-0.0528 0.222226,-0.0528 0.08889,0 0.163892,0.0139 0.07778,0.0111 0.141669,0.0278 0.06389,0.0167 0.116668,0.0306 0.05278,0.0111 0.09445,0.0111 0.06389,0 0.111113,-0.0167 0.05,-0.0194 0.09722,-0.0667 0,0.0611 -0.025,0.13889 -0.02222,0.0778 -0.06945,0.15 -0.04444,0.0694 -0.116668,0.11945 -0.07222,0.0472 -0.16667,0.0472 -0.04722,0 -0.108335,-0.006 -0.05833,-0.008 -0.122224,-0.0194 -0.0056,0.0194 -0.0083,0.0361 -0.0028,0.0167 -0.0056,0.0306 -0.0028,0.0167 -0.0028,0.0306 0,0.0611 0.0083,0.11945 0.01111,0.0556 0.03056,0.11389 h 0.561121 l -0.06389,0.18889 q -0.0083,0.0361 -0.01111,0.0528 -0.0028,0.0167 -0.0083,0.0528 l -0.102779,-0.0722 h -0.286116 q 0.06111,0.13889 0.113891,0.28334 0.05278,0.14166 0.05278,0.30278 0,0.14445 -0.05833,0.26945 -0.05833,0.12222 -0.155558,0.21389 -0.09445,0.0917 -0.219448,0.14167 -0.122225,0.0528 -0.252783,0.0528 z"
         style="font-style:normal;font-variant:normal;font-weight:normal;font-stretch:normal;font-family:'Bradley Gratis';-inkscape-font-specification:'Bradley Gratis';text-align:start;text-anchor:start;stroke-width:0.20833685"
         id="path6790" />
      <path
         d="m 42.799947,148.7705 q 0.05556,-0.0333 0.108336,-0.0778 0.05556,-0.0444 0.09722,-0.1 0.04445,-0.0556 0.06945,-0.12778 0.02778,-0.075 0.02778,-0.16667 0,-0.0778 -0.03056,-0.13055 -0.02778,-0.0556 -0.06667,-0.0889 -0.03889,-0.0333 -0.07778,-0.0472 -0.03611,-0.0139 -0.05556,-0.0139 -0.02222,0 -0.04167,0.008 -0.01667,0.008 -0.03056,0.0194 z m -0.40834,-0.74168 q -0.08889,-0.05 -0.08889,-0.18611 0.025,0.025 0.08889,0.0444 0.06389,0.0167 0.136114,0.0167 0.03611,0 0.102779,-0.008 0.06667,-0.0111 0.136114,-0.0222 0.07222,-0.0111 0.136113,-0.0194 0.06667,-0.0111 0.102779,-0.0111 0.09167,0 0.183337,0.0278 0.09167,0.0278 0.169447,0.0944 0.07778,0.0667 0.130558,0.18056 0.05556,0.11112 0.07222,0.28334 l -0.494452,0.35001 q 0.05556,0.0222 0.125002,0.075 0.06945,0.0528 0.130558,0.14722 0.06389,0.0944 0.105557,0.24167 0.04167,0.14445 0.04167,0.35557 0,0.18333 0.01667,0.29722 0.01667,0.11389 0.04167,0.18334 0.025,0.0694 0.05278,0.10278 0.03056,0.0361 0.05556,0.0611 -0.122225,0 -0.216671,-0.0722 -0.09445,-0.0695 -0.166669,-0.18334 -0.07222,-0.11389 -0.12778,-0.25834 -0.05278,-0.14444 -0.09722,-0.29167 -0.04445,-0.14722 -0.08333,-0.28334 -0.03611,-0.13611 -0.075,-0.23611 -0.01945,0.0139 -0.03889,0.0278 -0.01667,0.0111 -0.03056,0.025 v 1.0389 h -0.40834 z"
         style="font-style:normal;font-variant:normal;font-weight:normal;font-stretch:normal;font-family:'Bradley Gratis';-inkscape-font-specification:'Bradley Gratis';text-align:start;text-anchor:start;stroke-width:0.20833685"
         id="path6792" />
      <path
         d="m 44.286388,149.64274 q 0,0.0944 0.01111,0.14723 0.01389,0.0528 0.03333,0.0805 0.02222,0.025 0.05,0.0306 0.02778,0.006 0.05556,0.006 0.05556,0 0.09167,-0.075 0.03611,-0.0778 0.03611,-0.23611 v -1.20558 q 0,-0.125 -0.01389,-0.20278 -0.01111,-0.0806 -0.03333,-0.12222 -0.01945,-0.0445 -0.04722,-0.0611 -0.025,-0.0167 -0.05,-0.0167 -0.05278,0 -0.09445,0.0667 -0.03889,0.0639 -0.03889,0.20556 z m 0.79168,-0.69723 q 0,0.20278 -0.05278,0.4 -0.05,0.19723 -0.138891,0.35279 -0.08611,0.15556 -0.205559,0.25278 -0.119447,0.0944 -0.252782,0.0944 -0.125002,0 -0.244449,-0.0861 -0.116669,-0.0861 -0.208337,-0.23611 -0.08889,-0.15001 -0.144447,-0.35001 -0.05556,-0.2 -0.05556,-0.42778 0,-0.18612 0.05,-0.38057 0.05278,-0.19722 0.141669,-0.35556 0.08889,-0.15833 0.208337,-0.25834 0.119446,-0.10277 0.252782,-0.10277 0.116668,0 0.230559,0.0861 0.116669,0.0861 0.208337,0.23611 0.09445,0.14723 0.15278,0.34723 0.05833,0.2 0.05833,0.42779 z"
         style="font-style:normal;font-variant:normal;font-weight:normal;font-stretch:normal;font-family:'Bradley Gratis';-inkscape-font-specification:'Bradley Gratis';text-align:start;text-anchor:start;stroke-width:0.20833685"
         id="path6794" />
      <path
         d="m 45.19938,150.01497 q 0.03611,-0.21389 0.10278,-0.40279 0.06945,-0.18889 0.15278,-0.36111 0.08333,-0.17223 0.172225,-0.32779 0.09167,-0.15833 0.172226,-0.30556 0.08056,-0.14722 0.141669,-0.28611 0.06111,-0.14167 0.08889,-0.28334 -0.02222,-0.0139 -0.05278,-0.025 -0.02778,-0.0111 -0.108335,-0.0111 -0.04167,0 -0.075,0.0222 -0.03056,0.0194 -0.05278,0.05 -0.02222,0.0278 -0.03611,0.0611 -0.01111,0.0306 -0.01111,0.05 0,0.0222 0.0083,0.0528 0.01111,0.0278 0.02222,0.0556 0.01389,0.0278 0.02778,0.0528 0.01389,0.0222 0.025,0.0333 l -0.338895,0.21112 q -0.06667,-0.0639 -0.113891,-0.15556 -0.04445,-0.0945 -0.04445,-0.18889 0,-0.0472 0.025,-0.11667 0.025,-0.0694 0.08056,-0.13334 0.05556,-0.0667 0.144447,-0.11111 0.09167,-0.0472 0.222226,-0.0472 0.102779,0 0.172225,0.0139 0.06944,0.0139 0.122224,0.0333 0.05278,0.0167 0.09722,0.0306 0.04722,0.0139 0.105557,0.0139 0.03611,0 0.07778,-0.006 0.04167,-0.006 0.07778,-0.0167 0.03611,-0.0111 0.06389,-0.0222 0.03056,-0.0139 0.04722,-0.0306 -0.03333,0.17501 -0.105557,0.3639 -0.07222,0.18889 -0.161114,0.37778 -0.08611,0.18889 -0.183336,0.36945 -0.09445,0.18056 -0.175003,0.3389 -0.07778,0.15556 -0.133336,0.28334 -0.05278,0.125 -0.05833,0.20555 0.111113,0.0472 0.188892,0.0472 0.05,0 0.102779,-0.0111 0.05278,-0.0139 0.09445,-0.0417 0.04445,-0.0278 0.07222,-0.0695 0.02778,-0.0444 0.02778,-0.10555 0,-0.0611 -0.01389,-0.10001 -0.01111,-0.0417 -0.03056,-0.0667 -0.01945,-0.0278 -0.04445,-0.0472 -0.025,-0.0222 -0.04722,-0.0444 l 0.31945,-0.23612 q 0.111113,0.0833 0.158336,0.17778 0.04722,0.0944 0.04722,0.20556 0,0.0528 -0.01667,0.10278 -0.01389,0.0472 -0.03611,0.0889 -0.01944,0.0389 -0.04722,0.0722 -0.025,0.0333 -0.04444,0.0528 l 0.04722,0.0472 q 0.01389,0.0139 0.03056,0.0417 0.01667,0.025 0.01667,0.0444 0,0.0222 -0.01944,0.0639 -0.01667,0.0444 -0.06945,0.0778 -0.01944,-0.025 -0.04445,-0.0444 -0.02222,-0.0167 -0.04722,-0.0306 -0.025,-0.0139 -0.05278,-0.0139 z"
         style="font-style:normal;font-variant:normal;font-weight:normal;font-stretch:normal;font-family:'Bradley Gratis';-inkscape-font-specification:'Bradley Gratis';text-align:start;text-anchor:start;stroke-width:0.20833685"
         id="path6796" />
      <path
         d="m 47.960321,147.86771 v 0.30001 q -0.03056,-0.0278 -0.08056,-0.0611 -0.04722,-0.0333 -0.102779,-0.0583 -0.05278,-0.0278 -0.105557,-0.0445 -0.05278,-0.0194 -0.08889,-0.0194 -0.06667,0 -0.136113,0.0528 -0.06945,0.0528 -0.113891,0.14167 -0.04444,0.0861 -0.05833,0.22778 -0.01111,0.13889 -0.01111,0.35834 h 0.711123 l -0.141669,0.31667 q -0.02778,-0.0417 -0.06667,-0.0556 -0.03611,-0.0167 -0.06667,-0.0167 h -0.436119 q 0,0.15833 0.0056,0.31111 0.0056,0.15001 0.03611,0.26945 0.03333,0.11945 0.100001,0.19445 0.06667,0.0722 0.19167,0.0722 0.06667,0 0.130558,-0.025 0.06667,-0.025 0.122224,-0.0611 0.05556,-0.0389 0.09722,-0.0806 0.04444,-0.0417 0.06945,-0.075 v 0.40001 h -0.375006 q -0.26945,0 -0.436119,-0.0944 -0.166669,-0.0972 -0.261116,-0.25833 -0.09167,-0.1639 -0.125002,-0.37779 -0.03056,-0.21389 -0.03056,-0.44723 0,-0.0583 0.0083,-0.15278 0.0083,-0.0972 0.03611,-0.20278 0.02778,-0.10834 0.08056,-0.21667 0.05278,-0.11111 0.141669,-0.19723 0.09167,-0.0889 0.225004,-0.14444 0.133336,-0.0556 0.322228,-0.0556 z"
         style="font-style:normal;font-variant:normal;font-weight:normal;font-stretch:normal;font-family:'Bradley Gratis';-inkscape-font-specification:'Bradley Gratis';text-align:start;text-anchor:start;stroke-width:0.20833685"
         id="path6798" />
      <path
         d="m 48.26458,150.01497 v -1.91948 q 0,-0.0778 -0.03333,-0.13056 -0.03333,-0.0556 -0.06667,-0.0972 h 0.538898 v 0.28334 l 0.308339,-0.35834 q 0.141669,0.12778 0.233337,0.25556 0.09167,0.125 0.144447,0.25278 0.05278,0.125 0.07222,0.25556 0.01945,0.12778 0.01945,0.26389 0,0.13334 -0.02222,0.25556 -0.01945,0.11945 -0.05834,0.23612 -0.03889,0.11667 -0.09445,0.23611 -0.05278,0.11945 -0.116668,0.25001 h 0.100001 q 0.03611,0 0.075,-0.025 0.03889,-0.025 0.07778,-0.025 v 0.26667 H 48.90348 q 0.075,-0.15278 0.119446,-0.27501 0.04722,-0.12222 0.07222,-0.23333 0.025,-0.11112 0.03333,-0.21667 0.0083,-0.10556 0.0083,-0.22501 0,-0.11944 -0.04167,-0.24722 -0.03889,-0.13056 -0.09722,-0.2389 -0.05833,-0.10833 -0.125002,-0.17778 -0.06389,-0.0694 -0.116669,-0.0694 -0.03333,0 -0.05278,0.0167 v 1.6667 z"
         style="font-style:normal;font-variant:normal;font-weight:normal;font-stretch:normal;font-family:'Bradley Gratis';-inkscape-font-specification:'Bradley Gratis';text-align:start;text-anchor:start;stroke-width:0.20833685"
         id="path6800" />
      <path
         d="m 50.814363,150.10664 q -0.150003,-0.10834 -0.25556,-0.23056 -0.105557,-0.125 -0.169447,-0.25834 -0.06389,-0.13334 -0.09445,-0.26945 -0.02778,-0.13889 -0.02778,-0.27223 0,-0.13055 0.02778,-0.25833 0.02778,-0.13056 0.07222,-0.25556 0.04722,-0.12778 0.108335,-0.24723 0.06111,-0.12222 0.125002,-0.23889 h -0.01667 q -0.0083,0 -0.01944,0 -0.0083,-0.003 -0.02222,-0.003 -0.04444,0 -0.108335,0.0111 -0.06111,0.0111 -0.119447,0.0556 v -0.27223 h 0.583344 q -0.07222,0.125 -0.125003,0.25278 -0.05,0.125 -0.08333,0.24445 -0.03056,0.11667 -0.04722,0.22223 -0.01389,0.10278 -0.01389,0.18611 0,0.0833 0.01667,0.2 0.01667,0.11667 0.06111,0.24168 0.04722,0.12222 0.125002,0.23333 0.08056,0.11112 0.208337,0.18056 l 0.08333,-0.0611 q -0.05,-0.0944 -0.07778,-0.18056 -0.02778,-0.0889 -0.04167,-0.16667 -0.01111,-0.0778 -0.01389,-0.14167 -0.0028,-0.0667 -0.0028,-0.11944 0,-0.0861 0.02222,-0.19445 0.02222,-0.10834 0.06389,-0.22501 0.04167,-0.11666 0.100001,-0.23611 0.06111,-0.11945 0.136114,-0.23334 -0.105558,0 -0.175003,0.0167 -0.06667,0.0167 -0.113891,0.0472 v -0.26667 h 0.60001 q -0.05,0.0695 -0.100002,0.15834 -0.04722,0.0861 -0.08333,0.18889 -0.03611,0.1 -0.05833,0.21389 -0.02222,0.11389 -0.02222,0.23334 0,0.20278 0.03611,0.36112 0.03611,0.15555 0.100002,0.275 0.06389,0.11945 0.150003,0.20556 0.08611,0.0861 0.183336,0.14722 v -1.78336 h 0.416674 v 1.66947 q 0,0.0195 -0.02778,0.0556 -0.02778,0.0333 -0.07222,0.0778 -0.04167,0.0444 -0.100002,0.0972 -0.05556,0.05 -0.11389,0.1 -0.138892,0.11667 -0.313895,0.25556 -0.136113,-0.10555 -0.233337,-0.20833 -0.09722,-0.10278 -0.166669,-0.20001 z"
         style="font-style:normal;font-variant:normal;font-weight:normal;font-stretch:normal;font-family:'Bradley Gratis';-inkscape-font-specification:'Bradley Gratis';text-align:start;text-anchor:start;stroke-width:0.20833685"
         id="path6802" />
      <path
         d="m 53.375084,148.67884 v -0.69168 H 53.0473 q -0.0028,0.18611 -0.01111,0.36945 -0.0056,0.18056 -0.01389,0.32223 z m 0.566676,-0.81113 q -0.03056,0.0222 -0.05833,0.0556 -0.025,0.0333 -0.04445,0.0722 -0.01667,0.0361 -0.02778,0.0722 -0.01111,0.0333 -0.01111,0.0583 v 1.88892 h -0.425007 v -1.04724 h -0.372229 q -0.0028,0.1 -0.02778,0.21945 -0.025,0.11667 -0.06945,0.23611 -0.04167,0.11667 -0.100001,0.22778 -0.05556,0.10834 -0.12778,0.19167 -0.06945,0.0833 -0.150003,0.13334 -0.07778,0.05 -0.163892,0.05 -0.05556,0 -0.09722,-0.0333 -0.03889,-0.0333 -0.03889,-0.0944 0,-0.0389 0.025,-0.0556 0.025,-0.0194 0.05278,-0.0194 0.025,0 0.03889,0.008 0.01389,0.006 0.025,0.0167 0.01389,0.008 0.03056,0.0167 0.01667,0.006 0.04722,0.006 0.05,0 0.08056,-0.05 0.03056,-0.0528 0.05,-0.13889 0.01944,-0.0889 0.02778,-0.20278 0.01111,-0.11667 0.01667,-0.24445 0.0056,-0.12778 0.01389,-0.25834 0.0083,-0.13333 0.02222,-0.25556 0.01667,-0.14444 0.05,-0.26389 0.03611,-0.11945 0.075,-0.21112 0.03889,-0.0917 0.07778,-0.15555 0.03889,-0.0639 0.06667,-0.10278 h -0.06111 q -0.05278,0 -0.09722,0.0167 -0.04444,0.0139 -0.08056,0.0333 -0.03333,0.0167 -0.06111,0.0333 -0.025,0.0139 -0.04444,0.0139 -0.04722,0 -0.06945,-0.0333 -0.02222,-0.0333 -0.02222,-0.075 0,-0.0389 0.04167,-0.0722 0.04445,-0.0361 0.122224,-0.0361 z"
         style="font-style:normal;font-variant:normal;font-weight:normal;font-stretch:normal;font-family:'Bradley Gratis';-inkscape-font-specification:'Bradley Gratis';text-align:start;text-anchor:start;stroke-width:0.20833685"
         id="path6804" />
      <path
         d="m 54.556093,150.11219 q -0.06389,-0.0639 -0.147224,-0.125 -0.08056,-0.0611 -0.158336,-0.10833 -0.075,-0.0472 -0.133336,-0.0806 -0.05556,-0.0333 -0.06389,-0.0417 0.02778,-0.0333 0.06945,-0.0917 0.04167,-0.0611 0.08056,-0.11944 0.04167,-0.0583 0.07222,-0.10278 0.03333,-0.0472 0.04167,-0.0556 0.03889,0.025 0.105558,0.0694 0.06945,0.0417 0.136113,0.0889 0.06945,0.0472 0.125002,0.0861 0.05556,0.0389 0.07222,0.0556 0.03889,-0.0222 0.06389,-0.0583 0.02778,-0.0361 0.02778,-0.11667 0,-0.0694 -0.05833,-0.14722 -0.05556,-0.0778 -0.138892,-0.16389 -0.08333,-0.0861 -0.183336,-0.18056 -0.100002,-0.0944 -0.183337,-0.19445 -0.08333,-0.1 -0.141669,-0.20278 -0.05556,-0.10278 -0.05556,-0.21112 0,-0.0778 0.03889,-0.14444 0.04167,-0.0694 0.10278,-0.12778 0.06111,-0.0611 0.133336,-0.10834 0.075,-0.05 0.141669,-0.0917 0.06945,-0.0444 0.122224,-0.0778 0.05278,-0.0361 0.075,-0.0639 0.01667,0.0139 0.07222,0.0694 0.05833,0.0528 0.125002,0.11389 0.06667,0.0611 0.125002,0.10834 0.06111,0.0472 0.08056,0.0472 -0.02778,0.0222 -0.06945,0.0667 -0.03889,0.0417 -0.08056,0.0889 -0.03889,0.0472 -0.07222,0.0917 -0.03056,0.0417 -0.04444,0.0639 -0.06389,-0.0278 -0.12778,-0.0833 -0.06389,-0.0556 -0.116669,-0.10833 -0.05278,-0.0528 -0.08889,-0.0917 -0.03611,-0.0417 -0.04722,-0.0417 -0.02222,0 -0.03889,0.025 -0.01389,0.0222 -0.01389,0.0528 0,0.0667 0.05833,0.14167 0.06111,0.075 0.147225,0.16111 0.08889,0.0833 0.19167,0.17778 0.105557,0.0917 0.19167,0.19167 0.08889,0.1 0.147224,0.20834 0.06111,0.10556 0.06111,0.21667 0,0.1 -0.075,0.21111 -0.075,0.11112 -0.180558,0.22223 -0.10278,0.10834 -0.211115,0.20834 -0.108335,0.0972 -0.177781,0.17222 z"
         style="font-style:normal;font-variant:normal;font-weight:normal;font-stretch:normal;font-family:'Bradley Gratis';-inkscape-font-specification:'Bradley Gratis';text-align:start;text-anchor:start;stroke-width:0.20833685"
         id="path6806" />
      <path
         d="m 56.512811,149.63996 q 0,0.10834 -0.04444,0.18889 -0.04445,0.0778 -0.116669,0.12778 -0.06945,0.05 -0.155558,0.075 -0.08611,0.025 -0.169448,0.025 -0.130557,0 -0.255559,-0.0639 -0.125003,-0.0639 -0.225004,-0.17223 -0.100002,-0.11111 -0.161114,-0.25834 -0.06111,-0.15 -0.06111,-0.32222 0,-0.30834 0.141669,-0.57224 0.141669,-0.26667 0.394451,-0.48334 -0.02222,-0.003 -0.04167,-0.003 -0.01667,-0.003 -0.03611,-0.003 -0.06667,0 -0.141669,0.0222 -0.075,0.0222 -0.141669,0.0583 -0.06667,0.0333 -0.122225,0.075 -0.05278,0.0417 -0.08056,0.0778 0.02222,-0.10833 0.08333,-0.21389 0.06111,-0.10556 0.152781,-0.18611 0.09167,-0.0806 0.211114,-0.13056 0.119447,-0.05 0.261116,-0.05 0.07222,0 0.15278,0.0222 0.08056,0.0222 0.152781,0.0583 0.075,0.0333 0.133335,0.075 0.05833,0.0417 0.08889,0.0806 l -0.227782,0.34723 q -0.138891,-0.13611 -0.300005,-0.19445 -0.03611,0.0583 -0.075,0.1389 -0.03889,0.0778 -0.07222,0.17778 -0.03056,0.1 -0.05278,0.22222 -0.01944,0.11945 -0.01944,0.26112 0,0.13333 0.01944,0.23611 0.02222,0.10278 0.05556,0.17778 0.03333,0.075 0.075,0.12501 0.04444,0.05 0.08889,0.0833 0.105557,0.075 0.24167,0.0833 0.05556,0 0.12778,-0.0222 0.075,-0.025 0.119447,-0.0639 z"
         style="font-style:normal;font-variant:normal;font-weight:normal;font-stretch:normal;font-family:'Bradley Gratis';-inkscape-font-specification:'Bradley Gratis';text-align:start;text-anchor:start;stroke-width:0.20833685"
         id="path6808" />
      <path
         d="m 57.905152,147.86771 v 0.30001 q -0.03056,-0.0278 -0.08056,-0.0611 -0.04722,-0.0333 -0.10278,-0.0583 -0.05278,-0.0278 -0.105557,-0.0445 -0.05278,-0.0194 -0.08889,-0.0194 -0.06667,0 -0.136114,0.0528 -0.06945,0.0528 -0.113891,0.14167 -0.04445,0.0861 -0.05833,0.22778 -0.01111,0.13889 -0.01111,0.35834 h 0.711123 l -0.141669,0.31667 q -0.02778,-0.0417 -0.06667,-0.0556 -0.03611,-0.0167 -0.06667,-0.0167 h -0.436118 q 0,0.15833 0.0056,0.31111 0.0056,0.15001 0.03611,0.26945 0.03333,0.11945 0.100002,0.19445 0.06667,0.0722 0.19167,0.0722 0.06667,0 0.130557,-0.025 0.06667,-0.025 0.122225,-0.0611 0.05556,-0.0389 0.09722,-0.0806 0.04444,-0.0417 0.06944,-0.075 v 0.40001 h -0.375006 q -0.269449,0 -0.436119,-0.0944 -0.166669,-0.0972 -0.261115,-0.25833 -0.09167,-0.1639 -0.125002,-0.37779 -0.03056,-0.21389 -0.03056,-0.44723 0,-0.0583 0.0083,-0.15278 0.0083,-0.0972 0.03611,-0.20278 0.02778,-0.10834 0.08056,-0.21667 0.05278,-0.11111 0.141669,-0.19723 0.09167,-0.0889 0.225004,-0.14444 0.133335,-0.0556 0.322227,-0.0556 z"
         style="font-style:normal;font-variant:normal;font-weight:normal;font-stretch:normal;font-family:'Bradley Gratis';-inkscape-font-specification:'Bradley Gratis';text-align:start;text-anchor:start;stroke-width:0.20833685"
         id="path6810" />
      <path
         d="m 58.912199,148.41494 q -0.06945,-0.16667 -0.119446,-0.27778 -0.05,-0.11111 -0.07778,-0.11111 -0.03056,0 -0.04167,0.0278 -0.0083,0.025 -0.0083,0.0445 v 1.50558 q 0,0.0611 -0.03333,0.12778 -0.03333,0.0667 -0.08889,0.11667 0.10278,0 0.183337,-0.05 0.08056,-0.0528 0.166669,-0.11389 0.08889,-0.0639 0.197226,-0.11389 0.108335,-0.0528 0.269449,-0.0528 v 0.49723 h -1.255577 q 0.03611,-0.0528 0.06111,-0.1 0.02778,-0.0472 0.04445,-0.0945 0.01667,-0.0472 0.025,-0.1 0.0083,-0.0528 0.0083,-0.11667 v -1.31391 q 0,-0.0889 -0.03333,-0.14445 -0.03333,-0.0583 -0.04722,-0.0805 0.01111,-0.003 0.05556,-0.0195 0.04722,-0.0194 0.113891,-0.0444 0.06667,-0.025 0.147224,-0.0528 0.08056,-0.0278 0.158336,-0.05 0.07778,-0.025 0.147225,-0.0389 0.06945,-0.0167 0.113891,-0.0167 0.06945,0 0.130558,0.0389 0.06111,0.0389 0.111113,0.0972 0.05,0.0583 0.08611,0.13056 0.03611,0.0695 0.05833,0.13056 z"
         style="font-style:normal;font-variant:normal;font-weight:normal;font-stretch:normal;font-family:'Bradley Gratis';-inkscape-font-specification:'Bradley Gratis';text-align:start;text-anchor:start;stroke-width:0.20833685"
         id="path6812" />
      <path
         d="m 60.628896,148.67884 v -0.69168 h -0.327783 q -0.0028,0.18611 -0.01111,0.36945 -0.0056,0.18056 -0.01389,0.32223 z m 0.566677,-0.81113 q -0.03056,0.0222 -0.05833,0.0556 -0.025,0.0333 -0.04445,0.0722 -0.01667,0.0361 -0.02778,0.0722 -0.01111,0.0333 -0.01111,0.0583 v 1.88892 h -0.425008 v -1.04724 h -0.372228 q -0.0028,0.1 -0.02778,0.21945 -0.025,0.11667 -0.06945,0.23611 -0.04167,0.11667 -0.100002,0.22778 -0.05556,0.10834 -0.12778,0.19167 -0.06945,0.0833 -0.150002,0.13334 -0.07778,0.05 -0.163892,0.05 -0.05556,0 -0.09722,-0.0333 -0.03889,-0.0333 -0.03889,-0.0944 0,-0.0389 0.025,-0.0556 0.025,-0.0194 0.05278,-0.0194 0.025,0 0.03889,0.008 0.01389,0.006 0.025,0.0167 0.01389,0.008 0.03056,0.0167 0.01667,0.006 0.04722,0.006 0.05,0 0.08056,-0.05 0.03056,-0.0528 0.05,-0.13889 0.01945,-0.0889 0.02778,-0.20278 0.01111,-0.11667 0.01667,-0.24445 0.0056,-0.12778 0.01389,-0.25834 0.0083,-0.13333 0.02222,-0.25556 0.01667,-0.14444 0.05,-0.26389 0.03611,-0.11945 0.075,-0.21112 0.03889,-0.0917 0.07778,-0.15555 0.03889,-0.0639 0.06667,-0.10278 h -0.06111 q -0.05278,0 -0.09722,0.0167 -0.04445,0.0139 -0.08056,0.0333 -0.03333,0.0167 -0.06111,0.0333 -0.025,0.0139 -0.04445,0.0139 -0.04722,0 -0.06944,-0.0333 -0.02222,-0.0333 -0.02222,-0.075 0,-0.0389 0.04167,-0.0722 0.04444,-0.0361 0.122224,-0.0361 z"
         style="font-style:normal;font-variant:normal;font-weight:normal;font-stretch:normal;font-family:'Bradley Gratis';-inkscape-font-specification:'Bradley Gratis';text-align:start;text-anchor:start;stroke-width:0.20833685"
         id="path6814" />
      <path
         d="m 61.432121,150.01497 v -1.91948 q 0,-0.0778 -0.03333,-0.13056 -0.03333,-0.0556 -0.06667,-0.0972 h 0.538898 v 0.28334 l 0.308339,-0.35834 q 0.141669,0.12778 0.233337,0.25556 0.09167,0.125 0.144447,0.25278 0.05278,0.125 0.07222,0.25556 0.01945,0.12778 0.01945,0.26389 0,0.13334 -0.02222,0.25556 -0.01945,0.11945 -0.05834,0.23612 -0.03889,0.11667 -0.09445,0.23611 -0.05278,0.11945 -0.116668,0.25001 h 0.100001 q 0.03611,0 0.075,-0.025 0.03889,-0.025 0.07778,-0.025 v 0.26667 h -0.538898 q 0.075,-0.15278 0.119446,-0.27501 0.04722,-0.12222 0.07222,-0.23333 0.025,-0.11112 0.03333,-0.21667 0.0083,-0.10556 0.0083,-0.22501 0,-0.11944 -0.04167,-0.24722 -0.03889,-0.13056 -0.09722,-0.2389 -0.05833,-0.10833 -0.125002,-0.17778 -0.06389,-0.0694 -0.116669,-0.0694 -0.03333,0 -0.05278,0.0167 v 1.6667 z"
         style="font-style:normal;font-variant:normal;font-weight:normal;font-stretch:normal;font-family:'Bradley Gratis';-inkscape-font-specification:'Bradley Gratis';text-align:start;text-anchor:start;stroke-width:0.20833685"
         id="path6816" />
      <path
         d="m 62.919472,148.06216 q -0.07222,-0.0306 -0.100001,-0.075 -0.02778,-0.0444 -0.02778,-0.0833 0,-0.0333 0.02222,-0.0417 0.02222,0.0139 0.06111,0.0194 0.03889,0.006 0.08889,0.006 0.025,0 0.06945,-0.008 0.04722,-0.008 0.10278,-0.0167 0.05556,-0.008 0.113891,-0.0167 0.06111,-0.008 0.11389,-0.008 0.12778,0 0.261116,0.0667 0.133336,0.0639 0.238893,0.20001 0.105557,0.13333 0.172225,0.34167 0.06945,0.20556 0.06945,0.49167 0,0.24167 -0.04167,0.41668 -0.04167,0.175 -0.105557,0.29722 -0.06389,0.12223 -0.141669,0.19723 -0.07778,0.0722 -0.15278,0.11389 -0.07222,0.0389 -0.133336,0.0528 -0.05833,0.0139 -0.08611,0.0139 -0.04167,0 -0.08889,-0.0111 -0.04722,-0.0111 -0.09445,-0.025 -0.04444,-0.0139 -0.08611,-0.025 -0.03889,-0.0111 -0.06667,-0.0111 -0.03056,0 -0.05556,0.0111 -0.025,0.008 -0.05278,0.0194 -0.025,0.008 -0.05556,0.0195 -0.03056,0.008 -0.06945,0.008 -0.01389,0 -0.03056,-0.003 -0.01389,-0.003 -0.02778,-0.008 -0.01389,-0.006 -0.02778,-0.0139 0.02222,-0.0139 0.04444,-0.0472 0.02222,-0.0361 0.04167,-0.075 0.02222,-0.0417 0.04444,-0.0917 z m 0.408341,1.65558 q 0,0.0583 0.01944,0.0917 0.02222,0.0306 0.04722,0.0444 0.03056,0.0167 0.06667,0.0194 0.06389,0 0.111113,-0.0861 0.05,-0.0861 0.05,-0.21945 v -1.21947 q 0,-0.13055 -0.025,-0.20278 -0.025,-0.0722 -0.05833,-0.10555 -0.03333,-0.0333 -0.06667,-0.0389 -0.03333,-0.008 -0.05278,-0.008 -0.03333,0 -0.06389,0.0445 -0.02778,0.0444 -0.02778,0.11667 z"
         style="font-style:normal;font-variant:normal;font-weight:normal;font-stretch:normal;font-family:'Bradley Gratis';-inkscape-font-specification:'Bradley Gratis';text-align:start;text-anchor:start;stroke-width:0.20833685"
         id="path6818" />
    </g>
  </g>
</svg>
