<?xml version="1.0" encoding="UTF-8" standalone="no"?>
<!-- Created with Inkscape (http://www.inkscape.org/) -->

<svg
   xmlns:dc="http://purl.org/dc/elements/1.1/"
   xmlns:cc="http://creativecommons.org/ns#"
   xmlns:rdf="http://www.w3.org/1999/02/22-rdf-syntax-ns#"
   xmlns:svg="http://www.w3.org/2000/svg"
   xmlns="http://www.w3.org/2000/svg"
   xmlns:xlink="http://www.w3.org/1999/xlink"
   xmlns:sodipodi="http://sodipodi.sourceforge.net/DTD/sodipodi-0.dtd"
   xmlns:inkscape="http://www.inkscape.org/namespaces/inkscape"
   width="150.2265"
   height="380"
   viewBox="0 0 39.747429 100.54167"
   version="1.1"
   id="svg11003"
   inkscape:version="0.92.2 (5c3e80d, 2017-08-06)"
   sodipodi:docname="BPMLFO.svg">
  <defs
     id="defs10997">
    <linearGradient
       inkscape:collect="always"
       id="linearGradient3391">
      <stop
         style="stop-color:#202022;stop-opacity:1;"
         offset="0"
         id="stop3387" />
      <stop
         style="stop-color:#202025;stop-opacity:1;"
         offset=".3"
         id="stop3388" />
      <stop
         style="stop-color:#08006f;stop-opacity:1;"
         offset="1"
         id="stop3389" />
    </linearGradient>
    <linearGradient
       inkscape:collect="always"
       xlink:href="#linearGradient3391"
       id="linearGradient3393"
       x1="35.219627"
       y1="150.85843"
       x2="35.219627"
       y2="50.462322"
       gradientUnits="userSpaceOnUse" />
  </defs>
  <sodipodi:namedview
     id="base"
     pagecolor="#ffffff"
     bordercolor="#666666"
     borderopacity="1.0"
     inkscape:pageopacity="0.0"
     inkscape:pageshadow="2"
     inkscape:zoom="4.8368421"
     inkscape:cx="26.734576"
     inkscape:cy="227.21436"
     inkscape:document-units="mm"
     inkscape:current-layer="layer1"
     showgrid="false"
     fit-margin-top="0"
     fit-margin-left="0"
     fit-margin-right="0"
     fit-margin-bottom="0"
     inkscape:window-width="3840"
     inkscape:window-height="2115"
     inkscape:window-x="-13"
     inkscape:window-y="-13"
     inkscape:window-maximized="1"
     units="px" />
  <metadata
     id="metadata11000">
    <rdf:RDF>
      <cc:Work
         rdf:about="">
        <dc:format>image/svg+xml</dc:format>
        <dc:type
           rdf:resource="http://purl.org/dc/dcmitype/StillImage" />
        <dc:title></dc:title>
      </cc:Work>
    </rdf:RDF>
  </metadata>
  <g
     inkscape:label="Layer 1"
     inkscape:groupmode="layer"
     id="layer1"
     transform="translate(-35.146312,-50.389004)">
    <path
       inkscape:connector-curvature="0"
       id="path33493"
       d="M 35.219628,50.462323 H 74.821509 V 150.85843 H 35.219628 Z m 0,0"
       style="fill:url(#linearGradient3393);fill-opacity:1;fill-rule:nonzero;stroke:none;stroke-width:0.27602378"
       inkscape:export-filename="/home/vortico/pics/tmp/LFOs.png"
       inkscape:export-xdpi="150.22649"
       inkscape:export-ydpi="150.22649" />
    <g
       style="font-style:normal;font-weight:normal;font-size:3.52777767px;line-height:1.25;font-family:sans-serif;letter-spacing:0px;word-spacing:0px;fill:#ffffff;fill-opacity:1;stroke:none;stroke-width:0.26458332"
       id="text5097" />
    <path
       style="fill:#999999;fill-opacity:1;stroke-width:0.21163374"
       d="M 56.627662,58.789524 H 73.825579 V 70.563482 H 56.627662 Z"
       id="rect6948"
       inkscape:connector-curvature="0" />
    <path
       style="fill:#323232;fill-opacity:1;stroke-width:0.1902397"
       d="m 57.249806,59.715565 h 15.953622 v 9.988021 H 57.249806 Z"
       id="rect4735"
       inkscape:connector-curvature="0" />
    <path
       style="fill:#323232;fill-opacity:1;stroke-width:0.24152298"
       d="M 71.989542,95.434319 A 10.31875,10.31875 0 0 1 61.670792,105.75307 10.31875,10.31875 0 0 1 51.352041,95.434319 10.31875,10.31875 0 0 1 61.670792,85.115568 10.31875,10.31875 0 0 1 71.989542,95.434319 Z"
       id="path6731"
       inkscape:connector-curvature="0" />
    <g
       transform="matrix(0.26458333,0,0,0.26458333,34.617145,50.389004)"
       style="font-style:normal;font-variant:normal;font-weight:bold;font-stretch:normal;font-size:13.33333302px;line-height:1.25;font-family:Consolas;-inkscape-font-specification:'Consolas Bold';text-align:center;letter-spacing:0px;word-spacing:0px;text-anchor:middle;fill:#ffffff;fill-opacity:1;stroke:none"
       id="flowRoot1527" />
    <g
       aria-label="FROZEN WASTELAND"
       style="font-style:normal;font-variant:normal;font-weight:bold;font-stretch:normal;font-size:3.52777767px;line-height:1.25;font-family:Consolas;-inkscape-font-specification:'Consolas Bold';text-align:start;letter-spacing:0px;word-spacing:0px;text-anchor:start;fill:#00a3f2;fill-opacity:1;stroke:none;stroke-width:0.26458332"
       id="text3885-7">
      <path
         d="m 40.44558,150.10076 q 0.119945,-0.11995 0.1905,-0.21167 0.07408,-0.0917 0.112889,-0.16933 0.04233,-0.0776 0.05292,-0.14464 0.01411,-0.0706 0.01411,-0.14817 0,-0.0952 -0.04586,-0.2293 -0.04586,-0.13406 -0.102306,-0.28575 -0.05644,-0.1517 -0.102305,-0.31045 -0.04586,-0.15875 -0.04586,-0.30339 0,-0.0776 0.0247,-0.15169 0.02822,-0.0741 0.06703,-0.14111 0.04233,-0.0706 0.09172,-0.13053 0.04939,-0.0635 0.09878,-0.11289 -0.07056,-0.0141 -0.123473,-0.0212 -0.05292,-0.0106 -0.07761,-0.0106 -0.130527,0 -0.22225,0.0706 -0.08819,0.067 -0.1905,0.16933 0,-0.11994 0.03528,-0.24694 0.03881,-0.13053 0.116417,-0.23637 0.07761,-0.10583 0.194028,-0.17286 0.119944,-0.067 0.282222,-0.067 0.112889,0 0.208139,0.0176 0.09878,0.0141 0.179916,0.0353 0.08114,0.0212 0.148167,0.0388 0.06703,0.0141 0.119944,0.0141 0.08114,0 0.141111,-0.0212 0.0635,-0.0247 0.123473,-0.0847 0,0.0776 -0.03175,0.17638 -0.02822,0.0988 -0.08819,0.1905 -0.05644,0.0882 -0.148166,0.1517 -0.09172,0.06 -0.211667,0.06 -0.05997,0 -0.137583,-0.007 -0.07408,-0.0106 -0.155223,-0.0247 -0.0071,0.0247 -0.01058,0.0459 -0.0035,0.0212 -0.0071,0.0388 -0.0035,0.0212 -0.0035,0.0388 0,0.0776 0.01058,0.1517 0.01411,0.0705 0.03881,0.14464 h 0.712611 l -0.08114,0.23989 q -0.01058,0.0459 -0.01411,0.067 -0.0035,0.0212 -0.01058,0.067 l -0.130527,-0.0917 h -0.363361 q 0.07761,0.17639 0.144638,0.35983 0.06703,0.17992 0.06703,0.38453 0,0.18344 -0.07408,0.34219 -0.07408,0.15523 -0.197556,0.27164 -0.119944,0.11642 -0.278694,0.17992 -0.155222,0.067 -0.321028,0.067 z"
         style="font-style:normal;font-variant:normal;font-weight:normal;font-stretch:normal;font-family:'Bradley Gratis';-inkscape-font-specification:'Bradley Gratis';text-align:start;text-anchor:start;stroke-width:0.26458332;fill:#00a3f2;fill-opacity:1"
         id="path9054" />
      <path
         d="m 42.515669,148.37215 q 0.07056,-0.0423 0.137583,-0.0988 0.07056,-0.0565 0.123473,-0.127 0.05644,-0.0706 0.08819,-0.16228 0.03528,-0.0953 0.03528,-0.21167 0,-0.0988 -0.03881,-0.1658 -0.03528,-0.0706 -0.08467,-0.11289 -0.04939,-0.0423 -0.09878,-0.06 -0.04586,-0.0176 -0.07056,-0.0176 -0.02822,0 -0.05292,0.0106 -0.02117,0.0106 -0.03881,0.0247 z m -0.518583,-0.94192 q -0.112889,-0.0635 -0.112889,-0.23636 0.03175,0.0317 0.112889,0.0564 0.08114,0.0212 0.172861,0.0212 0.04586,0 0.130528,-0.0106 0.08467,-0.0141 0.172861,-0.0282 0.09172,-0.0141 0.172861,-0.0247 0.08467,-0.0141 0.130528,-0.0141 0.116416,0 0.232833,0.0353 0.116417,0.0353 0.215194,0.11994 0.09878,0.0847 0.165806,0.22931 0.07055,0.14111 0.09172,0.35983 l -0.627944,0.4445 q 0.07055,0.0282 0.15875,0.0952 0.08819,0.067 0.165805,0.18697 0.08114,0.11995 0.134056,0.30692 0.05292,0.18344 0.05292,0.45155 0,0.23284 0.02117,0.37748 0.02117,0.14464 0.05292,0.23283 0.03175,0.0882 0.06703,0.13053 0.03881,0.0459 0.07056,0.0776 -0.155222,0 -0.275167,-0.0917 -0.119944,-0.0882 -0.211666,-0.23284 -0.09172,-0.14464 -0.162278,-0.32808 -0.06703,-0.18344 -0.123472,-0.37042 -0.05644,-0.18697 -0.105834,-0.35983 -0.04586,-0.17286 -0.09525,-0.29986 -0.02469,0.0176 -0.04939,0.0353 -0.02117,0.0141 -0.03881,0.0317 v 1.31939 h -0.518583 z"
         style="font-style:normal;font-variant:normal;font-weight:normal;font-stretch:normal;font-family:'Bradley Gratis';-inkscape-font-specification:'Bradley Gratis';text-align:start;text-anchor:start;stroke-width:0.26458332;fill:#00a3f2;fill-opacity:1"
         id="path9056" />
      <path
         d="m 44.403416,149.47987 q 0,0.11994 0.01411,0.18697 0.01764,0.067 0.04233,0.10231 0.02822,0.0318 0.0635,0.0388 0.03528,0.007 0.07056,0.007 0.07055,0 0.116417,-0.0952 0.04586,-0.0988 0.04586,-0.29986 v -1.53106 q 0,-0.15875 -0.01764,-0.25753 -0.01411,-0.1023 -0.04233,-0.15522 -0.02469,-0.0564 -0.05997,-0.0776 -0.03175,-0.0212 -0.0635,-0.0212 -0.06703,0 -0.119944,0.0847 -0.04939,0.0811 -0.04939,0.26106 z m 1.005417,-0.88547 q 0,0.25752 -0.06703,0.508 -0.0635,0.25047 -0.176389,0.44802 -0.109361,0.19756 -0.261056,0.32103 -0.151694,0.11995 -0.321027,0.11995 -0.15875,0 -0.310445,-0.10936 -0.148167,-0.10937 -0.264583,-0.29987 -0.112889,-0.1905 -0.183445,-0.4445 -0.07055,-0.254 -0.07055,-0.54327 0,-0.23636 0.0635,-0.48331 0.06703,-0.25047 0.179916,-0.45155 0.112889,-0.20109 0.264584,-0.32809 0.151694,-0.13053 0.321028,-0.13053 0.148166,0 0.292805,0.10937 0.148167,0.10936 0.264583,0.29986 0.119945,0.18697 0.194028,0.44097 0.07408,0.254 0.07408,0.54328 z"
         style="font-style:normal;font-variant:normal;font-weight:normal;font-stretch:normal;font-family:'Bradley Gratis';-inkscape-font-specification:'Bradley Gratis';text-align:start;text-anchor:start;stroke-width:0.26458332;fill:#00a3f2;fill-opacity:1"
         id="path9058" />
      <path
         d="m 45.562897,149.95259 q 0.04586,-0.27164 0.130528,-0.51153 0.08819,-0.23989 0.194028,-0.45861 0.105833,-0.21872 0.218722,-0.41628 0.116417,-0.20108 0.218722,-0.38805 0.102306,-0.18697 0.179917,-0.36336 0.07761,-0.17992 0.112889,-0.35984 -0.02822,-0.0176 -0.06703,-0.0317 -0.03528,-0.0141 -0.137583,-0.0141 -0.05292,0 -0.09525,0.0282 -0.03881,0.0247 -0.06703,0.0635 -0.02822,0.0353 -0.04586,0.0776 -0.01411,0.0388 -0.01411,0.0635 0,0.0282 0.01058,0.067 0.01411,0.0353 0.02822,0.0706 0.01764,0.0353 0.03528,0.067 0.01764,0.0282 0.03175,0.0423 l -0.430389,0.26811 q -0.08467,-0.0811 -0.144639,-0.19755 -0.05644,-0.11995 -0.05644,-0.23989 0,-0.06 0.03175,-0.14817 0.03175,-0.0882 0.102305,-0.16933 0.07056,-0.0847 0.183445,-0.14111 0.116416,-0.06 0.282222,-0.06 0.130528,0 0.218722,0.0176 0.08819,0.0176 0.155222,0.0423 0.06703,0.0212 0.123473,0.0388 0.05997,0.0176 0.134055,0.0176 0.04586,0 0.09878,-0.007 0.05292,-0.007 0.09878,-0.0212 0.04586,-0.0141 0.08114,-0.0282 0.03881,-0.0176 0.05997,-0.0388 -0.04233,0.22225 -0.134056,0.46214 -0.09172,0.23989 -0.204611,0.47978 -0.109361,0.23989 -0.232833,0.46919 -0.119945,0.22931 -0.22225,0.43039 -0.09878,0.19756 -0.169333,0.35983 -0.06703,0.15875 -0.07408,0.26106 0.141111,0.06 0.239889,0.06 0.0635,0 0.130528,-0.0141 0.06703,-0.0176 0.119944,-0.0529 0.05645,-0.0353 0.09172,-0.0882 0.03528,-0.0564 0.03528,-0.13406 0,-0.0776 -0.01764,-0.127 -0.01411,-0.0529 -0.0388,-0.0847 -0.0247,-0.0353 -0.05645,-0.06 -0.03175,-0.0282 -0.05997,-0.0564 l 0.405695,-0.29986 q 0.141111,0.10583 0.201083,0.22578 0.05997,0.11994 0.05997,0.26105 0,0.067 -0.02117,0.13053 -0.01764,0.06 -0.04586,0.11289 -0.02469,0.0494 -0.05997,0.0917 -0.03175,0.0423 -0.05644,0.067 l 0.05997,0.06 q 0.01764,0.0176 0.0388,0.0529 0.02117,0.0318 0.02117,0.0564 0,0.0282 -0.02469,0.0811 -0.02117,0.0564 -0.08819,0.0988 -0.02469,-0.0318 -0.05644,-0.0564 -0.02822,-0.0212 -0.05997,-0.0388 -0.03175,-0.0176 -0.06703,-0.0176 z"
         style="font-style:normal;font-variant:normal;font-weight:normal;font-stretch:normal;font-family:'Bradley Gratis';-inkscape-font-specification:'Bradley Gratis';text-align:start;text-anchor:start;stroke-width:0.26458332;fill:#00a3f2;fill-opacity:1"
         id="path9060" />
      <path
         d="m 49.069233,147.22562 v 0.381 q -0.03881,-0.0353 -0.102306,-0.0776 -0.05997,-0.0423 -0.130528,-0.0741 -0.06703,-0.0353 -0.134055,-0.0564 -0.06703,-0.0247 -0.112889,-0.0247 -0.08467,0 -0.172861,0.067 -0.0882,0.067 -0.144639,0.17992 -0.05644,0.10936 -0.07408,0.28928 -0.01411,0.17639 -0.01411,0.45508 h 0.903112 l -0.179917,0.40217 q -0.03528,-0.0529 -0.08467,-0.0706 -0.04586,-0.0212 -0.08467,-0.0212 H 48.18376 q 0,0.20108 0.0071,0.39511 0.0071,0.1905 0.04586,0.34219 0.04233,0.1517 0.127,0.24695 0.08467,0.0917 0.243417,0.0917 0.08467,0 0.165805,-0.0317 0.08467,-0.0318 0.155223,-0.0776 0.07055,-0.0494 0.123472,-0.10231 0.05644,-0.0529 0.08819,-0.0952 v 0.508 h -0.47625 q -0.342194,0 -0.553861,-0.11994 -0.211667,-0.12348 -0.331611,-0.32809 -0.116417,-0.20814 -0.15875,-0.47977 -0.03881,-0.27164 -0.03881,-0.56798 0,-0.0741 0.01058,-0.19402 0.01058,-0.12348 0.04586,-0.25753 0.03528,-0.13759 0.102305,-0.27517 0.06703,-0.14111 0.179917,-0.25047 0.116417,-0.11289 0.28575,-0.18345 0.169333,-0.0705 0.409222,-0.0705 z"
         style="font-style:normal;font-variant:normal;font-weight:normal;font-stretch:normal;font-family:'Bradley Gratis';-inkscape-font-specification:'Bradley Gratis';text-align:start;text-anchor:start;stroke-width:0.26458332;fill:#00a3f2;fill-opacity:1"
         id="path9062" />
      <path
         d="m 49.455635,149.95259 v -2.43769 q 0,-0.0988 -0.04233,-0.16581 -0.04233,-0.0705 -0.08467,-0.12347 h 0.684389 v 0.35983 l 0.391583,-0.45508 q 0.179917,0.16228 0.296333,0.32455 0.116417,0.15875 0.183445,0.32103 0.06703,0.15875 0.09172,0.32456 0.02469,0.16228 0.02469,0.33514 0,0.16933 -0.02822,0.32455 -0.02469,0.1517 -0.07408,0.29986 -0.04939,0.14817 -0.119945,0.29986 -0.06703,0.1517 -0.148166,0.3175 h 0.127 q 0.04586,0 0.09525,-0.0318 0.04939,-0.0317 0.09878,-0.0317 v 0.33867 h -0.684388 q 0.09525,-0.19403 0.151694,-0.34925 0.05997,-0.15522 0.09172,-0.29633 0.03175,-0.14111 0.04233,-0.27517 0.01058,-0.13405 0.01058,-0.28575 0,-0.15169 -0.05292,-0.31397 -0.04939,-0.16581 -0.123472,-0.30339 -0.07408,-0.13758 -0.15875,-0.22578 -0.08114,-0.0882 -0.148167,-0.0882 -0.04233,0 -0.06703,0.0212 v 2.11667 z"
         style="font-style:normal;font-variant:normal;font-weight:normal;font-stretch:normal;font-family:'Bradley Gratis';-inkscape-font-specification:'Bradley Gratis';text-align:start;text-anchor:start;stroke-width:0.26458332;fill:#00a3f2;fill-opacity:1"
         id="path9064" />
      <path
         d="m 52.693804,150.06901 q -0.1905,-0.13759 -0.324556,-0.29281 -0.134055,-0.15875 -0.215194,-0.32808 -0.08114,-0.16933 -0.119945,-0.3422 -0.03528,-0.17638 -0.03528,-0.34572 0,-0.1658 0.03528,-0.32808 0.03528,-0.16581 0.09172,-0.32456 0.05997,-0.16227 0.137583,-0.31397 0.07761,-0.15522 0.15875,-0.30339 h -0.02117 q -0.01058,0 -0.02469,0 -0.01058,-0.004 -0.02822,-0.004 -0.05644,0 -0.137584,0.0141 -0.07761,0.0141 -0.151694,0.0705 v -0.34572 h 0.740833 q -0.09172,0.15875 -0.15875,0.32103 -0.0635,0.15875 -0.105833,0.31044 -0.03881,0.14817 -0.05997,0.28222 -0.01764,0.13053 -0.01764,0.23636 0,0.10584 0.02117,0.254 0.02117,0.14817 0.07761,0.30692 0.05997,0.15522 0.15875,0.29633 0.102306,0.14112 0.264584,0.22931 l 0.105833,-0.0776 q -0.0635,-0.11995 -0.09878,-0.22931 -0.03528,-0.11289 -0.05292,-0.21166 -0.01411,-0.0988 -0.01764,-0.17992 -0.0035,-0.0847 -0.0035,-0.15169 0,-0.10937 0.02822,-0.24695 0.02822,-0.13758 0.08114,-0.28575 0.05292,-0.14817 0.127,-0.29986 0.07761,-0.15169 0.172861,-0.29633 -0.134055,0 -0.22225,0.0212 -0.08467,0.0212 -0.144639,0.06 v -0.33867 h 0.762 q -0.0635,0.0882 -0.127,0.20108 -0.05997,0.10936 -0.105833,0.23989 -0.04586,0.127 -0.07408,0.27164 -0.02822,0.14464 -0.02822,0.29633 0,0.25753 0.04586,0.45861 0.04586,0.19756 0.127,0.34925 0.08114,0.1517 0.1905,0.26106 0.109361,0.10936 0.232833,0.18697 v -2.26483 h 0.529167 v 2.12019 q 0,0.0247 -0.03528,0.0706 -0.03528,0.0423 -0.09172,0.0988 -0.05292,0.0564 -0.127,0.12347 -0.07056,0.0635 -0.144639,0.127 -0.176389,0.14817 -0.398639,0.32455 -0.172861,-0.13405 -0.296334,-0.26458 -0.123472,-0.13053 -0.211666,-0.254 z"
         style="font-style:normal;font-variant:normal;font-weight:normal;font-stretch:normal;font-family:'Bradley Gratis';-inkscape-font-specification:'Bradley Gratis';text-align:start;text-anchor:start;stroke-width:0.26458332;fill:#00a3f2;fill-opacity:1"
         id="path9066" />
      <path
         d="m 55.945863,148.25573 v -0.87842 h -0.416277 q -0.0035,0.23636 -0.01411,0.4692 -0.0071,0.2293 -0.01764,0.40922 z m 0.719667,-1.03011 q -0.03881,0.0282 -0.07408,0.0705 -0.03175,0.0423 -0.05645,0.0917 -0.02117,0.0459 -0.03528,0.0917 -0.01411,0.0423 -0.01411,0.0741 v 2.39889 h -0.53975 v -1.32997 h -0.472722 q -0.0035,0.127 -0.03528,0.27869 -0.03175,0.14817 -0.08819,0.29986 -0.05292,0.14817 -0.127,0.28928 -0.07056,0.13759 -0.162278,0.24342 -0.08819,0.10583 -0.1905,0.16933 -0.09878,0.0635 -0.208139,0.0635 -0.07055,0 -0.123472,-0.0423 -0.04939,-0.0423 -0.04939,-0.11995 0,-0.0494 0.03175,-0.0705 0.03175,-0.0247 0.06703,-0.0247 0.03175,0 0.04939,0.0106 0.01764,0.007 0.03175,0.0212 0.01764,0.0106 0.03881,0.0212 0.02117,0.007 0.05997,0.007 0.0635,0 0.102305,-0.0635 0.03881,-0.067 0.0635,-0.17639 0.0247,-0.11289 0.03528,-0.25753 0.01411,-0.14817 0.02117,-0.31044 0.0071,-0.16228 0.01764,-0.32809 0.01058,-0.16933 0.02822,-0.32455 0.02117,-0.18345 0.0635,-0.33514 0.04586,-0.1517 0.09525,-0.26811 0.04939,-0.11642 0.09878,-0.19756 0.04939,-0.0811 0.08467,-0.13053 h -0.07761 q -0.06703,0 -0.123472,0.0212 -0.05645,0.0176 -0.102306,0.0423 -0.04233,0.0212 -0.07761,0.0423 -0.03175,0.0176 -0.05644,0.0176 -0.05997,0 -0.08819,-0.0423 -0.02822,-0.0423 -0.02822,-0.0952 0,-0.0494 0.05292,-0.0917 0.05644,-0.0459 0.155222,-0.0459 z"
         style="font-style:normal;font-variant:normal;font-weight:normal;font-stretch:normal;font-family:'Bradley Gratis';-inkscape-font-specification:'Bradley Gratis';text-align:start;text-anchor:start;stroke-width:0.26458332;fill:#00a3f2;fill-opacity:1"
         id="path9068" />
      <path
         d="m 57.445721,150.07606 q -0.08114,-0.0811 -0.186973,-0.15875 -0.102305,-0.0776 -0.201083,-0.13758 -0.09525,-0.06 -0.169333,-0.10231 -0.07056,-0.0423 -0.08114,-0.0529 0.03528,-0.0423 0.08819,-0.11642 0.05292,-0.0776 0.102306,-0.15169 0.05292,-0.0741 0.09172,-0.13053 0.04233,-0.06 0.05292,-0.0706 0.04939,0.0318 0.134055,0.0882 0.08819,0.0529 0.172861,0.11289 0.0882,0.06 0.15875,0.10936 0.07056,0.0494 0.09172,0.0705 0.04939,-0.0282 0.08114,-0.0741 0.03528,-0.0459 0.03528,-0.14817 0,-0.0882 -0.07408,-0.18697 -0.07056,-0.0988 -0.176389,-0.20814 -0.105833,-0.10936 -0.232833,-0.2293 -0.127,-0.11995 -0.232834,-0.24695 -0.105833,-0.127 -0.179916,-0.25753 -0.07056,-0.13052 -0.07056,-0.26811 0,-0.0988 0.04939,-0.18344 0.05292,-0.0882 0.130528,-0.16228 0.07761,-0.0776 0.169333,-0.13758 0.09525,-0.0635 0.179917,-0.11642 0.08819,-0.0564 0.155222,-0.0988 0.06703,-0.0459 0.09525,-0.0811 0.02117,0.0176 0.09172,0.0882 0.07408,0.067 0.15875,0.14464 0.08467,0.0776 0.15875,0.13758 0.07761,0.06 0.102306,0.06 -0.03528,0.0282 -0.08819,0.0847 -0.04939,0.0529 -0.102305,0.11289 -0.04939,0.06 -0.09172,0.11642 -0.03881,0.0529 -0.05645,0.0811 -0.08114,-0.0353 -0.162278,-0.10583 -0.08114,-0.0705 -0.148166,-0.13758 -0.06703,-0.067 -0.112889,-0.11642 -0.04586,-0.0529 -0.05997,-0.0529 -0.02822,0 -0.04939,0.0317 -0.01764,0.0282 -0.01764,0.067 0,0.0847 0.07408,0.17992 0.07761,0.0952 0.186972,0.20461 0.112889,0.10583 0.243417,0.22578 0.134056,0.11641 0.243417,0.24341 0.112889,0.127 0.186972,0.26459 0.07761,0.13405 0.07761,0.27516 0,0.127 -0.09525,0.26812 -0.09525,0.14111 -0.229305,0.28222 -0.130528,0.13758 -0.268112,0.26458 -0.137583,0.12347 -0.225777,0.21872 z"
         style="font-style:normal;font-variant:normal;font-weight:normal;font-stretch:normal;font-family:'Bradley Gratis';-inkscape-font-specification:'Bradley Gratis';text-align:start;text-anchor:start;stroke-width:0.26458332;fill:#00a3f2;fill-opacity:1"
         id="path9070" />
      <path
         d="m 59.930709,149.47634 q 0,0.13758 -0.05645,0.23989 -0.05644,0.0988 -0.148167,0.16228 -0.08819,0.0635 -0.197555,0.0952 -0.109361,0.0317 -0.215195,0.0317 -0.165805,0 -0.324555,-0.0811 -0.15875,-0.0811 -0.28575,-0.21872 -0.127,-0.14111 -0.204611,-0.32809 -0.07761,-0.1905 -0.07761,-0.40922 0,-0.39158 0.179916,-0.72672 0.179917,-0.33867 0.500945,-0.61383 -0.02822,-0.004 -0.05292,-0.004 -0.02117,-0.004 -0.04586,-0.004 -0.08467,0 -0.179917,0.0282 -0.09525,0.0282 -0.179916,0.0741 -0.08467,0.0423 -0.155223,0.0952 -0.06703,0.0529 -0.102305,0.0988 0.02822,-0.13758 0.105833,-0.27164 0.07761,-0.13405 0.194028,-0.23636 0.116417,-0.1023 0.268111,-0.1658 0.151695,-0.0635 0.331611,-0.0635 0.09172,0 0.194028,0.0282 0.102306,0.0282 0.194028,0.0741 0.09525,0.0423 0.169333,0.0952 0.07408,0.0529 0.112889,0.10231 l -0.289278,0.44097 q -0.176389,-0.17286 -0.381,-0.24694 -0.04586,0.0741 -0.09525,0.17639 -0.04939,0.0988 -0.09172,0.22577 -0.03881,0.127 -0.06703,0.28223 -0.02469,0.15169 -0.02469,0.33161 0,0.16933 0.02469,0.29986 0.02822,0.13053 0.07056,0.22578 0.04233,0.0952 0.09525,0.15875 0.05644,0.0635 0.112889,0.10583 0.134055,0.0952 0.306916,0.10583 0.07056,0 0.162278,-0.0282 0.09525,-0.0317 0.151695,-0.0811 z"
         style="font-style:normal;font-variant:normal;font-weight:normal;font-stretch:normal;font-family:'Bradley Gratis';-inkscape-font-specification:'Bradley Gratis';text-align:start;text-anchor:start;stroke-width:0.26458332;fill:#00a3f2;fill-opacity:1"
         id="path9072" />
      <path
         d="m 61.698953,147.22562 v 0.381 q -0.03881,-0.0353 -0.102306,-0.0776 -0.05997,-0.0423 -0.130527,-0.0741 -0.06703,-0.0353 -0.134056,-0.0564 -0.06703,-0.0247 -0.112889,-0.0247 -0.08467,0 -0.172861,0.067 -0.08819,0.067 -0.144639,0.17992 -0.05644,0.10936 -0.07408,0.28928 -0.01411,0.17639 -0.01411,0.45508 h 0.903111 l -0.179917,0.40217 q -0.03528,-0.0529 -0.08467,-0.0706 -0.04586,-0.0212 -0.08467,-0.0212 h -0.553861 q 0,0.20108 0.0071,0.39511 0.0071,0.1905 0.04586,0.34219 0.04233,0.1517 0.127,0.24695 0.08467,0.0917 0.243417,0.0917 0.08467,0 0.165806,-0.0317 0.08467,-0.0318 0.155222,-0.0776 0.07055,-0.0494 0.123472,-0.10231 0.05644,-0.0529 0.08819,-0.0952 v 0.508 h -0.47625 q -0.342194,0 -0.553861,-0.11994 -0.211666,-0.12348 -0.331611,-0.32809 -0.116416,-0.20814 -0.15875,-0.47977 -0.0388,-0.27164 -0.0388,-0.56798 0,-0.0741 0.01058,-0.19402 0.01058,-0.12348 0.04586,-0.25753 0.03528,-0.13759 0.102306,-0.27517 0.06703,-0.14111 0.179916,-0.25047 0.116417,-0.11289 0.28575,-0.18345 0.169334,-0.0705 0.409223,-0.0705 z"
         style="font-style:normal;font-variant:normal;font-weight:normal;font-stretch:normal;font-family:'Bradley Gratis';-inkscape-font-specification:'Bradley Gratis';text-align:start;text-anchor:start;stroke-width:0.26458332;fill:#00a3f2;fill-opacity:1"
         id="path9074" />
      <path
         d="m 62.977882,147.92059 q -0.08819,-0.21167 -0.151694,-0.35278 -0.0635,-0.14111 -0.09878,-0.14111 -0.03881,0 -0.05292,0.0353 -0.01058,0.0317 -0.01058,0.0564 v 1.91206 q 0,0.0776 -0.04233,0.16228 -0.04233,0.0847 -0.112889,0.14816 0.130527,0 0.232833,-0.0635 0.102306,-0.067 0.211667,-0.14463 0.112889,-0.0811 0.250472,-0.14464 0.137583,-0.067 0.342194,-0.067 v 0.63147 h -1.594555 q 0.04586,-0.067 0.07761,-0.127 0.03528,-0.06 0.05644,-0.11994 0.02117,-0.06 0.03175,-0.127 0.01058,-0.067 0.01058,-0.14817 v -1.66864 q 0,-0.11289 -0.04233,-0.18344 -0.04233,-0.0741 -0.05997,-0.10231 0.01411,-0.004 0.07056,-0.0247 0.05997,-0.0247 0.144639,-0.0565 0.08467,-0.0317 0.186972,-0.067 0.102305,-0.0353 0.201083,-0.0635 0.09878,-0.0317 0.186972,-0.0494 0.08819,-0.0212 0.144639,-0.0212 0.08819,0 0.165806,0.0494 0.07761,0.0494 0.141111,0.12347 0.0635,0.0741 0.109361,0.16581 0.04586,0.0882 0.07408,0.1658 z"
         style="font-style:normal;font-variant:normal;font-weight:normal;font-stretch:normal;font-family:'Bradley Gratis';-inkscape-font-specification:'Bradley Gratis';text-align:start;text-anchor:start;stroke-width:0.26458332;fill:#00a3f2;fill-opacity:1"
         id="path9076" />
      <path
         d="m 65.158049,148.25573 v -0.87842 h -0.416278 q -0.0035,0.23636 -0.01411,0.4692 -0.0071,0.2293 -0.01764,0.40922 z m 0.719667,-1.03011 q -0.03881,0.0282 -0.07408,0.0705 -0.03175,0.0423 -0.05645,0.0917 -0.02117,0.0459 -0.03528,0.0917 -0.01411,0.0423 -0.01411,0.0741 v 2.39889 h -0.53975 v -1.32997 h -0.472722 q -0.0035,0.127 -0.03528,0.27869 -0.03175,0.14817 -0.08819,0.29986 -0.05292,0.14817 -0.127,0.28928 -0.07056,0.13759 -0.162278,0.24342 -0.08819,0.10583 -0.1905,0.16933 -0.09878,0.0635 -0.208139,0.0635 -0.07056,0 -0.123472,-0.0423 -0.04939,-0.0423 -0.04939,-0.11995 0,-0.0494 0.03175,-0.0705 0.03175,-0.0247 0.06703,-0.0247 0.03175,0 0.04939,0.0106 0.01764,0.007 0.03175,0.0212 0.01764,0.0106 0.0388,0.0212 0.02117,0.007 0.05997,0.007 0.0635,0 0.102306,-0.0635 0.03881,-0.067 0.0635,-0.17639 0.02469,-0.11289 0.03528,-0.25753 0.01411,-0.14817 0.02117,-0.31044 0.0071,-0.16228 0.01764,-0.32809 0.01058,-0.16933 0.02822,-0.32455 0.02117,-0.18345 0.0635,-0.33514 0.04586,-0.1517 0.09525,-0.26811 0.04939,-0.11642 0.09878,-0.19756 0.04939,-0.0811 0.08467,-0.13053 h -0.07761 q -0.06703,0 -0.123472,0.0212 -0.05644,0.0176 -0.102306,0.0423 -0.04233,0.0212 -0.07761,0.0423 -0.03175,0.0176 -0.05644,0.0176 -0.05997,0 -0.08819,-0.0423 -0.02822,-0.0423 -0.02822,-0.0952 0,-0.0494 0.05292,-0.0917 0.05644,-0.0459 0.155222,-0.0459 z"
         style="font-style:normal;font-variant:normal;font-weight:normal;font-stretch:normal;font-family:'Bradley Gratis';-inkscape-font-specification:'Bradley Gratis';text-align:start;text-anchor:start;stroke-width:0.26458332;fill:#00a3f2;fill-opacity:1"
         id="path9078" />
      <path
         d="m 66.178128,149.95259 v -2.43769 q 0,-0.0988 -0.04233,-0.16581 -0.04233,-0.0705 -0.08467,-0.12347 h 0.684389 v 0.35983 l 0.391583,-0.45508 q 0.179917,0.16228 0.296333,0.32455 0.116417,0.15875 0.183445,0.32103 0.06703,0.15875 0.09172,0.32456 0.02469,0.16228 0.02469,0.33514 0,0.16933 -0.02822,0.32455 -0.02469,0.1517 -0.07408,0.29986 -0.04939,0.14817 -0.119945,0.29986 -0.06703,0.1517 -0.148166,0.3175 h 0.127 q 0.04586,0 0.09525,-0.0318 0.04939,-0.0317 0.09878,-0.0317 v 0.33867 h -0.684389 q 0.09525,-0.19403 0.151694,-0.34925 0.05997,-0.15522 0.09172,-0.29633 0.03175,-0.14111 0.04233,-0.27517 0.01058,-0.13405 0.01058,-0.28575 0,-0.15169 -0.05292,-0.31397 -0.04939,-0.16581 -0.123472,-0.30339 -0.07408,-0.13758 -0.15875,-0.22578 -0.08114,-0.0882 -0.148167,-0.0882 -0.04233,0 -0.06703,0.0212 v 2.11667 z"
         style="font-style:normal;font-variant:normal;font-weight:normal;font-stretch:normal;font-family:'Bradley Gratis';-inkscape-font-specification:'Bradley Gratis';text-align:start;text-anchor:start;stroke-width:0.26458332;fill:#00a3f2;fill-opacity:1"
         id="path9080" />
      <path
         d="m 68.067032,147.47256 q -0.09172,-0.0388 -0.127,-0.0952 -0.03528,-0.0564 -0.03528,-0.10583 0,-0.0423 0.02822,-0.0529 0.02822,0.0176 0.07761,0.0247 0.04939,0.007 0.112889,0.007 0.03175,0 0.08819,-0.0106 0.05997,-0.0106 0.130528,-0.0212 0.07056,-0.0106 0.144639,-0.0212 0.07761,-0.0106 0.144639,-0.0106 0.162277,0 0.331611,0.0847 0.169333,0.0811 0.303389,0.254 0.134055,0.16933 0.218722,0.43392 0.08819,0.26105 0.08819,0.62441 0,0.30692 -0.05292,0.52917 -0.05292,0.22225 -0.134056,0.37747 -0.08114,0.15522 -0.179917,0.25047 -0.09878,0.0917 -0.194027,0.14464 -0.09172,0.0494 -0.169334,0.067 -0.07408,0.0176 -0.109361,0.0176 -0.05292,0 -0.112889,-0.0141 -0.05997,-0.0141 -0.119944,-0.0317 -0.05645,-0.0176 -0.109361,-0.0318 -0.04939,-0.0141 -0.08467,-0.0141 -0.03881,0 -0.07056,0.0141 -0.03175,0.0106 -0.06703,0.0247 -0.03175,0.0106 -0.07056,0.0247 -0.0388,0.0106 -0.08819,0.0106 -0.01764,0 -0.03881,-0.004 -0.01764,-0.004 -0.03528,-0.0106 -0.01764,-0.007 -0.03528,-0.0176 0.02822,-0.0176 0.05644,-0.06 0.02822,-0.0459 0.05292,-0.0952 0.02822,-0.0529 0.05644,-0.11642 z m 0.518583,2.10256 q 0,0.0741 0.02469,0.11642 0.02822,0.0388 0.05997,0.0564 0.03881,0.0212 0.08467,0.0247 0.08114,0 0.141111,-0.10936 0.0635,-0.10936 0.0635,-0.27869 v -1.5487 q 0,-0.1658 -0.03175,-0.25752 -0.03175,-0.0917 -0.07408,-0.13406 -0.04233,-0.0423 -0.08467,-0.0494 -0.04233,-0.0106 -0.06703,-0.0106 -0.04233,0 -0.08114,0.0564 -0.03528,0.0565 -0.03528,0.14817 z"
         style="font-style:normal;font-variant:normal;font-weight:normal;font-stretch:normal;font-family:'Bradley Gratis';-inkscape-font-specification:'Bradley Gratis';text-align:start;text-anchor:start;stroke-width:0.26458332;fill:#00a3f2;fill-opacity:1"
         id="path9082" />
    </g>
    <g
       aria-label="PHASE"
       style="font-style:normal;font-weight:normal;font-size:3.52777767px;line-height:1.25;font-family:sans-serif;letter-spacing:0px;word-spacing:0px;fill:#ffffff;fill-opacity:1;stroke:none;stroke-width:0.26458332"
       id="text5443-7-3">
      <path
         d="m 38.875956,83.590539 q 0,0.310445 -0.443089,0.310445 h -0.285044 v 1.275644 H 38.00389 v -2.269067 h 0.428977 q 0.2794,0 0.372534,0.09031 0.07055,0.07055 0.07055,0.262466 z M 38.74049,83.57925 v -0.349955 q 0,-0.160867 -0.09878,-0.208845 -0.06491,-0.03387 -0.248356,-0.03387 h -0.245533 v 0.8382 h 0.245533 q 0.208845,0 0.285045,-0.0508 0.06209,-0.0508 0.06209,-0.194734 z"
         style="font-style:normal;font-variant:normal;font-weight:bold;font-stretch:normal;font-size:2.82222223px;font-family:'Labtop Secundo Wide';-inkscape-font-specification:'Labtop Secundo Wide Bold';stroke-width:0.26458332"
         id="path12031" />
      <path
         d="m 40.035669,85.176628 h -0.135466 v -1.272822 h -0.592667 v 1.272822 h -0.143933 v -2.269067 h 0.143933 v 0.925689 h 0.592667 v -0.925689 h 0.135466 z"
         style="font-style:normal;font-variant:normal;font-weight:bold;font-stretch:normal;font-size:2.82222223px;font-family:'Labtop Secundo Wide';-inkscape-font-specification:'Labtop Secundo Wide Bold';stroke-width:0.26458332"
         id="path12033" />
      <path
         d="m 41.319427,85.176628 h -0.138289 l -0.225777,-1.069622 h -0.375356 l -0.234244,1.069622 h -0.127 l 0.491066,-2.269067 h 0.118534 z m -0.381,-1.157111 -0.169333,-0.804333 -0.172156,0.804333 z"
         style="font-style:normal;font-variant:normal;font-weight:bold;font-stretch:normal;font-size:2.82222223px;font-family:'Labtop Secundo Wide';-inkscape-font-specification:'Labtop Secundo Wide Bold';stroke-width:0.26458332"
         id="path12035" />
      <path
         d="m 42.360607,84.854895 q 0,0.344311 -0.4318,0.344311 -0.443089,0 -0.443089,-0.344311 v -0.160867 h 0.146756 v 0.166511 q 0,0.262467 0.296333,0.262467 0.296333,0 0.296333,-0.262467 v -0.730955 q 0,-0.211667 -0.296333,-0.211667 -0.443089,0 -0.443089,-0.347133 v -0.341489 q 0,-0.341489 0.443089,-0.341489 0.4318,0 0.4318,0.341489 v 0.1778 H 42.22514 V 83.22365 q 0,-0.265289 -0.296333,-0.265289 -0.296333,0 -0.296333,0.265289 v 0.3556 q 0,0.268111 0.296333,0.268111 0.389467,0 0.428978,0.251178 h 0.0028 z"
         style="font-style:normal;font-variant:normal;font-weight:bold;font-stretch:normal;font-size:2.82222223px;font-family:'Labtop Secundo Wide';-inkscape-font-specification:'Labtop Secundo Wide Bold';stroke-width:0.26458332"
         id="path12037" />
      <path
         d="m 43.515998,85.176628 h -0.8636 v -2.269067 h 0.8636 v 0.0762 h -0.719667 v 0.849489 h 0.719667 v 0.07056 h -0.719667 v 1.199444 h 0.719667 z"
         style="font-style:normal;font-variant:normal;font-weight:bold;font-stretch:normal;font-size:2.82222223px;font-family:'Labtop Secundo Wide';-inkscape-font-specification:'Labtop Secundo Wide Bold';stroke-width:0.26458332"
         id="path12039" />
    </g>
    <g
       aria-label="90°"
       style="font-style:normal;font-weight:normal;font-size:3.52777767px;line-height:1.25;font-family:sans-serif;letter-spacing:0px;word-spacing:0px;fill:#ffffff;fill-opacity:1;stroke:none;stroke-width:0.26458332"
       id="text5443-0-4-9-8">
      <path
         d="m 39.768801,90.292242 -0.10795,0.0021 v -1.005416 q -0.09525,0.0635 -0.24765,0.0635 -0.300567,0 -0.300567,-0.254 v -0.26035 q 0,-0.256117 0.325967,-0.256117 0.3302,0 0.3302,0.256117 z m -0.10795,-1.1938 v -0.264584 q 0,-0.19685 -0.22225,-0.19685 -0.22225,0 -0.22225,0.19685 v 0.264584 q 0,0.19685 0.213783,0.19685 0.230717,0 0.230717,-0.19685 z"
         style="font-style:normal;font-variant:normal;font-weight:bold;font-stretch:normal;font-size:2.11666656px;font-family:'Labtop Secundo Wide';-inkscape-font-specification:'Labtop Secundo Wide Bold';stroke-width:0.26458332"
         id="path12042" />
      <path
         d="m 40.674172,90.057292 q 0,0.258233 -0.3302,0.258233 -0.325967,0 -0.325967,-0.258233 v -1.2192 q 0,-0.256117 0.325967,-0.256117 0.3302,0 0.3302,0.256117 z m -0.110067,-1.286934 q -0.02963,-0.13335 -0.220133,-0.13335 -0.22225,0 -0.22225,0.19685 v 1.030817 z m 0.0021,1.291167 v -1.0414 l -0.43815,1.096433 q 0.02117,0.14605 0.2159,0.14605 0.22225,0 0.22225,-0.201083 z"
         style="font-style:normal;font-variant:normal;font-weight:bold;font-stretch:normal;font-size:2.11666656px;font-family:'Labtop Secundo Wide';-inkscape-font-specification:'Labtop Secundo Wide Bold';stroke-width:0.26458332"
         id="path12044" />
      <path
         d="m 41.850476,88.935458 q 0,0.131234 -0.1397,0.22225 -0.1397,0.09102 -0.328083,0.09102 -0.194733,0 -0.332317,-0.09102 -0.13335,-0.08467 -0.13335,-0.22225 0,-0.131233 0.13335,-0.220133 0.135467,-0.09102 0.33655,-0.09102 0.127,0 0.237067,0.04445 0.127,0.04868 0.188383,0.14605 0.0381,0.05715 0.0381,0.12065 z m -0.08678,0 q 0,-0.1016 -0.110067,-0.1778 -0.110066,-0.0762 -0.2667,-0.0762 -0.167216,0 -0.275166,0.07408 -0.105834,0.07408 -0.105834,0.179916 0,0.127 0.13335,0.19685 0.10795,0.05715 0.24765,0.05715 0.24765,0 0.347134,-0.1524 0.02963,-0.04657 0.02963,-0.1016 z"
         style="font-style:normal;font-variant:normal;font-weight:bold;font-stretch:normal;font-size:2.11666656px;font-family:'Labtop Secundo Wide';-inkscape-font-specification:'Labtop Secundo Wide Bold';stroke-width:0.26458332"
         id="path12046" />
    </g>
    <path
       style="fill:#999999;fill-opacity:1;stroke-width:0.2116337"
       d="M 36.255932,58.789502 H 53.453849 V 70.563428 H 36.255932 Z"
       id="rect6948-2"
       inkscape:connector-curvature="0" />
    <path
       style="fill:#323232;fill-opacity:1;stroke-width:0.19023964"
       d="m 36.878076,59.715543 h 15.953623 v 9.987991 H 36.878076 Z"
       id="rect4735-6"
       inkscape:connector-curvature="0" />
    <g
       aria-label="MULTIPLIER"
       style="font-style:normal;font-weight:normal;font-size:3.52777767px;line-height:1.25;font-family:sans-serif;letter-spacing:0px;word-spacing:0px;fill:#ffffff;fill-opacity:1;stroke:none;stroke-width:0.26458332"
       id="text5443-7-3-7">
      <path
         d="m 41.457635,58.12812 h -0.141111 v -1.902177 l -0.612423,1.763889 H 40.58839 L 40.001368,56.24852 v 1.8796 h -0.143933 v -2.269066 h 0.146755 l 0.640645,1.916289 0.663222,-1.916289 h 0.149578 z"
         style="font-style:normal;font-variant:normal;font-weight:bold;font-stretch:normal;font-size:2.82222223px;font-family:'Labtop Secundo Wide';-inkscape-font-specification:'Labtop Secundo Wide Bold';stroke-width:0.26458332"
         id="path12049" />
      <path
         d="m 42.669647,57.806387 q 0,0.344311 -0.440267,0.344311 -0.434622,0 -0.434622,-0.344311 v -1.947333 h 0.138289 v 1.952978 q 0,0.268111 0.296333,0.268111 0.296334,0 0.296334,-0.268111 v -1.952978 h 0.143933 z"
         style="font-style:normal;font-variant:normal;font-weight:bold;font-stretch:normal;font-size:2.82222223px;font-family:'Labtop Secundo Wide';-inkscape-font-specification:'Labtop Secundo Wide Bold';stroke-width:0.26458332"
         id="path12051" />
      <path
         d="m 43.876808,58.12812 h -0.866422 v -2.269066 h 0.143933 v 2.195689 h 0.722489 z"
         style="font-style:normal;font-variant:normal;font-weight:bold;font-stretch:normal;font-size:2.82222223px;font-family:'Labtop Secundo Wide';-inkscape-font-specification:'Labtop Secundo Wide Bold';stroke-width:0.26458332"
         id="path12053" />
      <path
         d="M 44.790988,55.938076 H 44.328143 V 58.12812 H 44.18421 v -2.190044 h -0.476955 v -0.07902 h 1.083733 z"
         style="font-style:normal;font-variant:normal;font-weight:bold;font-stretch:normal;font-size:2.82222223px;font-family:'Labtop Secundo Wide';-inkscape-font-specification:'Labtop Secundo Wide Bold';stroke-width:0.26458332"
         id="path12055" />
      <path
         d="M 45.228873,58.125298 H 44.90714 v -0.08749 h 0.08749 v -2.085622 h -0.08749 v -0.08749 h 0.321733 v 0.08749 h -0.09313 v 2.085622 h 0.09313 z"
         style="font-style:normal;font-variant:normal;font-weight:bold;font-stretch:normal;font-size:2.82222223px;font-family:'Labtop Secundo Wide';-inkscape-font-specification:'Labtop Secundo Wide Bold';stroke-width:0.26458332"
         id="path12057" />
      <path
         d="m 46.374607,56.542032 q 0,0.310444 -0.443088,0.310444 h -0.285045 v 1.275644 h -0.143933 v -2.269066 h 0.428978 q 0.2794,0 0.372533,0.09031 0.07055,0.07055 0.07055,0.262467 z m -0.135466,-0.01129 v -0.349956 q 0,-0.160867 -0.09878,-0.208844 -0.06491,-0.03387 -0.248356,-0.03387 h -0.245533 v 0.8382 h 0.245533 q 0.208845,0 0.285045,-0.0508 0.06209,-0.0508 0.06209,-0.194733 z"
         style="font-style:normal;font-variant:normal;font-weight:bold;font-stretch:normal;font-size:2.82222223px;font-family:'Labtop Secundo Wide';-inkscape-font-specification:'Labtop Secundo Wide Bold';stroke-width:0.26458332"
         id="path12059" />
      <path
         d="m 47.525853,58.12812 h -0.866422 v -2.269066 h 0.143933 v 2.195689 h 0.722489 z"
         style="font-style:normal;font-variant:normal;font-weight:bold;font-stretch:normal;font-size:2.82222223px;font-family:'Labtop Secundo Wide';-inkscape-font-specification:'Labtop Secundo Wide Bold';stroke-width:0.26458332"
         id="path12061" />
      <path
         d="m 47.929828,58.125298 h -0.321733 v -0.08749 h 0.08749 v -2.085622 h -0.08749 v -0.08749 h 0.321733 v 0.08749 h -0.09313 v 2.085622 h 0.09313 z"
         style="font-style:normal;font-variant:normal;font-weight:bold;font-stretch:normal;font-size:2.82222223px;font-family:'Labtop Secundo Wide';-inkscape-font-specification:'Labtop Secundo Wide Bold';stroke-width:0.26458332"
         id="path12063" />
      <path
         d="m 49.024762,58.12812 h -0.8636 v -2.269066 h 0.8636 v 0.0762 h -0.719666 v 0.849489 h 0.719666 v 0.07055 h -0.719666 v 1.199445 h 0.719666 z"
         style="font-style:normal;font-variant:normal;font-weight:bold;font-stretch:normal;font-size:2.82222223px;font-family:'Labtop Secundo Wide';-inkscape-font-specification:'Labtop Secundo Wide Bold';stroke-width:0.26458332"
         id="path12065" />
      <path
         d="m 50.150035,58.12812 h -0.135467 v -0.993422 q 0,-0.138289 -0.07055,-0.189089 -0.08749,-0.06209 -0.276578,-0.06209 h -0.245533 v 1.2446 h -0.143934 v -2.269066 h 0.428978 q 0.2794,0 0.372533,0.09031 0.07056,0.07055 0.07056,0.262467 v 0.344311 q 0,0.2286 -0.239889,0.273755 0.239889,0.05927 0.239889,0.293511 z m -0.135467,-1.580444 v -0.366889 q 0,-0.160867 -0.09878,-0.208844 -0.06491,-0.03387 -0.248355,-0.03387 h -0.245533 v 0.857956 h 0.245533 q 0.183444,0 0.251178,-0.03669 0.09595,-0.0508 0.09595,-0.211667 z"
         style="font-style:normal;font-variant:normal;font-weight:bold;font-stretch:normal;font-size:2.82222223px;font-family:'Labtop Secundo Wide';-inkscape-font-specification:'Labtop Secundo Wide Bold';stroke-width:0.26458332"
         id="path12067" />
    </g>
    <g
       aria-label=":"
       style="font-style:normal;font-weight:normal;font-size:4.93888903px;line-height:1.25;font-family:sans-serif;letter-spacing:0px;word-spacing:0px;fill:#ffffff;fill-opacity:1;stroke:none;stroke-width:0.26458332"
       id="text5443-7-3-6">
      <path
         d="m 55.308241,63.620901 q 0,0.101286 -0.01688,0.16881 -0.01688,0.06752 -0.05788,0.110932 -0.03858,0.04341 -0.103698,0.0627 -0.06511,0.01688 -0.163986,0.01688 -0.09887,0 -0.163987,-0.01688 -0.06511,-0.01929 -0.106109,-0.0627 -0.03859,-0.04341 -0.05305,-0.110932 -0.01447,-0.06752 -0.01447,-0.16881 0,-0.103697 0.01447,-0.173633 0.01447,-0.06994 0.05305,-0.113343 0.041,-0.04341 0.106109,-0.0627 0.06511,-0.01929 0.163987,-0.01929 0.09887,0 0.163986,0.01929 0.06511,0.01929 0.103698,0.0627 0.041,0.04341 0.05788,0.113343 0.01688,0.06994 0.01688,0.173633 z m 0,1.574753 q 0,0.101286 -0.01688,0.171222 -0.01688,0.06752 -0.05788,0.110932 -0.03858,0.04341 -0.103698,0.06029 -0.06511,0.01929 -0.163986,0.01929 -0.09887,0 -0.163987,-0.01929 -0.06511,-0.01688 -0.106109,-0.06029 -0.03859,-0.04341 -0.05305,-0.110932 -0.01447,-0.06994 -0.01447,-0.171222 0,-0.101285 0.01447,-0.171221 0.01447,-0.07235 0.05305,-0.115755 0.041,-0.04341 0.106109,-0.06029 0.06511,-0.01929 0.163987,-0.01929 0.09887,0 0.163986,0.01929 0.06511,0.01688 0.103698,0.06029 0.041,0.04341 0.05788,0.115755 0.01688,0.06994 0.01688,0.171221 z"
         style="font-style:normal;font-variant:normal;font-weight:bold;font-stretch:normal;font-size:4.93888903px;font-family:Calibri;-inkscape-font-specification:'Calibri Bold';stroke-width:0.26458332"
         id="path12070" />
    </g>
    <g
       aria-label="DIVISION"
       style="font-style:normal;font-weight:normal;font-size:3.52777767px;line-height:1.25;font-family:sans-serif;letter-spacing:0px;word-spacing:0px;fill:#ffffff;fill-opacity:1;stroke:none;stroke-width:0.26458332"
       id="text5443">
      <path
         d="m 62.780601,57.831909 q 0,0.313267 -0.448734,0.313267 h -0.426155 v -2.269067 h 0.426155 q 0.270934,0 0.369711,0.09313 0.07902,0.06491 0.07902,0.259644 z m -0.143934,-0.0085 v -1.6256 q 0,-0.158045 -0.09313,-0.208845 -0.06773,-0.03387 -0.245533,-0.03387 h -0.254 v 2.116667 h 0.254 q 0.217311,0 0.285044,-0.05644 0.05362,-0.04516 0.05362,-0.191911 z"
         style="font-style:normal;font-variant:normal;font-weight:bold;font-stretch:normal;font-size:2.82222223px;font-family:'Labtop Secundo Wide';-inkscape-font-specification:'Labtop Secundo Wide Bold';stroke-width:0.26458332"
         id="path12073" />
      <path
         d="m 63.316867,58.142354 h -0.321733 v -0.08749 h 0.08749 v -2.085622 h -0.08749 v -0.08749 h 0.321733 v 0.08749 h -0.09313 v 2.085622 h 0.09313 z"
         style="font-style:normal;font-variant:normal;font-weight:bold;font-stretch:normal;font-size:2.82222223px;font-family:'Labtop Secundo Wide';-inkscape-font-specification:'Labtop Secundo Wide Bold';stroke-width:0.26458332"
         id="path12075" />
      <path
         d="m 64.530334,55.876109 -0.491066,2.269067 h -0.118534 l -0.491066,-2.269067 h 0.143933 l 0.4064,1.902178 0.4064,-1.902178 z"
         style="font-style:normal;font-variant:normal;font-weight:bold;font-stretch:normal;font-size:2.82222223px;font-family:'Labtop Secundo Wide';-inkscape-font-specification:'Labtop Secundo Wide Bold';stroke-width:0.26458332"
         id="path12077" />
      <path
         d="m 64.976025,58.142354 h -0.321733 v -0.08749 h 0.08749 v -2.085622 h -0.08749 v -0.08749 h 0.321733 v 0.08749 h -0.09313 v 2.085622 h 0.09313 z"
         style="font-style:normal;font-variant:normal;font-weight:bold;font-stretch:normal;font-size:2.82222223px;font-family:'Labtop Secundo Wide';-inkscape-font-specification:'Labtop Secundo Wide Bold';stroke-width:0.26458332"
         id="path12079" />
      <path
         d="m 66.045559,57.823443 q 0,0.344311 -0.4318,0.344311 -0.443089,0 -0.443089,-0.344311 v -0.160867 h 0.146756 v 0.166511 q 0,0.262467 0.296333,0.262467 0.296333,0 0.296333,-0.262467 v -0.730956 q 0,-0.211666 -0.296333,-0.211666 -0.443089,0 -0.443089,-0.347134 v -0.341488 q 0,-0.341489 0.443089,-0.341489 0.4318,0 0.4318,0.341489 v 0.1778 h -0.135467 v -0.183445 q 0,-0.265289 -0.296333,-0.265289 -0.296333,0 -0.296333,0.265289 v 0.3556 q 0,0.268111 0.296333,0.268111 0.389467,0 0.428978,0.251178 h 0.0028 z"
         style="font-style:normal;font-variant:normal;font-weight:bold;font-stretch:normal;font-size:2.82222223px;font-family:'Labtop Secundo Wide';-inkscape-font-specification:'Labtop Secundo Wide Bold';stroke-width:0.26458332"
         id="path12081" />
      <path
         d="m 66.580061,58.142354 h -0.321733 v -0.08749 h 0.08749 v -2.085622 h -0.08749 v -0.08749 h 0.321733 v 0.08749 h -0.09313 v 2.085622 h 0.09313 z"
         style="font-style:normal;font-variant:normal;font-weight:bold;font-stretch:normal;font-size:2.82222223px;font-family:'Labtop Secundo Wide';-inkscape-font-specification:'Labtop Secundo Wide Bold';stroke-width:0.26458332"
         id="path12083" />
      <path
         d="m 67.691929,57.823443 q 0,0.344311 -0.440267,0.344311 -0.434622,0 -0.434622,-0.344311 v -1.6256 q 0,-0.341489 0.434622,-0.341489 0.440267,0 0.440267,0.341489 z m -0.143933,0.0056 v -1.636889 q 0,-0.262467 -0.296334,-0.262467 -0.296333,0 -0.296333,0.262467 v 1.636889 q 0,0.268111 0.296333,0.268111 0.296334,0 0.296334,-0.268111 z"
         style="font-style:normal;font-variant:normal;font-weight:bold;font-stretch:normal;font-size:2.82222223px;font-family:'Labtop Secundo Wide';-inkscape-font-specification:'Labtop Secundo Wide Bold';stroke-width:0.26458332"
         id="path12085" />
      <path
         d="M 68.958357,58.145176 H 68.79749 v -0.04798 l -0.620889,-1.831622 v 1.8796 h -0.143933 v -2.269067 h 0.143933 v 0.0056 h 0.0085 l 0.612422,1.797755 v -1.8034 h 0.141111 z"
         style="font-style:normal;font-variant:normal;font-weight:bold;font-stretch:normal;font-size:2.82222223px;font-family:'Labtop Secundo Wide';-inkscape-font-specification:'Labtop Secundo Wide Bold';stroke-width:0.26458332"
         id="path12087" />
    </g>
    <g
       aria-label="MOM."
       style="font-style:normal;font-weight:normal;font-size:3.52777767px;line-height:1.25;font-family:sans-serif;letter-spacing:0px;word-spacing:0px;fill:#ffffff;fill-opacity:1;stroke:none;stroke-width:0.26458332"
       id="text5443-0-8">
      <path
         d="m 69.419381,117.31165 h -0.105834 v -1.42663 l -0.459316,1.32292 h -0.08678 l -0.440266,-1.30599 v 1.4097 h -0.10795 v -1.7018 h 0.110066 l 0.480484,1.43722 0.497416,-1.43722 h 0.112184 z"
         style="font-style:normal;font-variant:normal;font-weight:bold;font-stretch:normal;font-size:2.11666656px;font-family:'Labtop Secundo Wide';-inkscape-font-specification:'Labtop Secundo Wide Bold';stroke-width:0.26458332"
         id="path12090" />
      <path
         d="m 70.32839,117.07035 q 0,0.25824 -0.3302,0.25824 -0.325967,0 -0.325967,-0.25824 v -1.2192 q 0,-0.25611 0.325967,-0.25611 0.3302,0 0.3302,0.25611 z m -0.10795,0.004 v -1.22767 q 0,-0.19685 -0.22225,-0.19685 -0.22225,0 -0.22225,0.19685 v 1.22767 q 0,0.20108 0.22225,0.20108 0.22225,0 0.22225,-0.20108 z"
         style="font-style:normal;font-variant:normal;font-weight:bold;font-stretch:normal;font-size:2.11666656px;font-family:'Labtop Secundo Wide';-inkscape-font-specification:'Labtop Secundo Wide Bold';stroke-width:0.26458332"
         id="path12092" />
      <path
         d="m 71.784094,117.31165 h -0.105833 v -1.42663 l -0.459317,1.32292 h -0.08678 l -0.440267,-1.30599 v 1.4097 h -0.10795 v -1.7018 h 0.110067 l 0.480483,1.43722 0.497417,-1.43722 h 0.112183 z"
         style="font-style:normal;font-variant:normal;font-weight:bold;font-stretch:normal;font-size:2.11666656px;font-family:'Labtop Secundo Wide';-inkscape-font-specification:'Labtop Secundo Wide Bold';stroke-width:0.26458332"
         id="path12094" />
      <path
         d="m 72.189336,117.30319 h -0.1016 v -0.0783 h 0.1016 z"
         style="font-style:normal;font-variant:normal;font-weight:bold;font-stretch:normal;font-size:2.11666656px;font-family:'Labtop Secundo Wide';-inkscape-font-specification:'Labtop Secundo Wide Bold';stroke-width:0.26458332"
         id="path12096" />
    </g>
    <g
       aria-label="GATE"
       style="font-style:normal;font-weight:normal;font-size:3.52777767px;line-height:1.25;font-family:sans-serif;letter-spacing:0px;word-spacing:0px;fill:#ffffff;fill-opacity:1;stroke:none;stroke-width:0.26458332"
       id="text5443-0-4-07">
      <path
         d="m 69.176954,108.86827 q 0,0.25824 -0.330199,0.25824 -0.325967,0 -0.325967,-0.25824 v -1.2192 q 0,-0.25611 0.325967,-0.25611 0.330199,0 0.330199,0.25611 v 0.12277 h -0.107949 v -0.127 q 0,-0.19685 -0.22225,-0.19685 -0.22225,0 -0.22225,0.19685 v 1.22767 q 0,0.20108 0.22225,0.20108 0.22225,0 0.22225,-0.20108 v -0.70909 h -0.1778 v -0.0677 h 0.285749 z"
         style="font-style:normal;font-variant:normal;font-weight:bold;font-stretch:normal;font-size:2.11666656px;font-family:'Labtop Secundo Wide';-inkscape-font-specification:'Labtop Secundo Wide Bold';stroke-width:0.26458332"
         id="path12099" />
      <path
         d="m 70.158526,109.10957 h -0.103717 l -0.169333,-0.80221 h -0.281517 l -0.175683,0.80221 h -0.09525 l 0.3683,-1.7018 h 0.0889 z m -0.28575,-0.86783 -0.127,-0.60325 -0.129117,0.60325 z"
         style="font-style:normal;font-variant:normal;font-weight:bold;font-stretch:normal;font-size:2.11666656px;font-family:'Labtop Secundo Wide';-inkscape-font-specification:'Labtop Secundo Wide Bold';stroke-width:0.26458332"
         id="path12101" />
      <path
         d="M 70.906453,107.46704 H 70.55932 v 1.64253 h -0.10795 v -1.64253 h -0.357717 v -0.0593 h 0.8128 z"
         style="font-style:normal;font-variant:normal;font-weight:bold;font-stretch:normal;font-size:2.11666656px;font-family:'Labtop Secundo Wide';-inkscape-font-specification:'Labtop Secundo Wide Bold';stroke-width:0.26458332"
         id="path12103" />
      <path
         d="m 71.702601,109.10957 h -0.6477 v -1.7018 h 0.6477 v 0.0572 h -0.53975 v 0.63712 h 0.53975 v 0.0529 h -0.53975 v 0.89958 h 0.53975 z"
         style="font-style:normal;font-variant:normal;font-weight:bold;font-stretch:normal;font-size:2.11666656px;font-family:'Labtop Secundo Wide';-inkscape-font-specification:'Labtop Secundo Wide Bold';stroke-width:0.26458332"
         id="path12105" />
    </g>
    <g
       aria-label="BI"
       style="font-style:normal;font-weight:normal;font-size:3.52777767px;line-height:1.25;font-family:sans-serif;letter-spacing:0px;word-spacing:0px;fill:#ffffff;fill-opacity:1;stroke:none;stroke-width:0.26458332"
       id="text5443-0-6-4">
      <path
         d="m 40.298275,117.06401 q 0,0.15028 -0.05292,0.20108 -0.06985,0.0635 -0.2794,0.0635 h -0.321733 v -1.7018 h 0.321733 q 0.332317,0 0.332317,0.23707 v 0.27728 q 0,0.1651 -0.179917,0.20532 0.179917,0.0381 0.179917,0.20743 z m -0.1016,-0.93134 v -0.26246 q 0,-0.12065 -0.07197,-0.15875 -0.0508,-0.0275 -0.188383,-0.0275 h -0.18415 v 0.63712 h 0.18415 q 0.156633,0 0.213783,-0.0423 0.04657,-0.036 0.04657,-0.14605 z m 0,0.95462 v -0.52917 q 0,-0.11853 -0.07408,-0.15875 -0.04868,-0.0254 -0.186266,-0.0254 h -0.18415 v 0.89959 h 0.18415 q 0.156633,0 0.213783,-0.0423 0.04657,-0.036 0.04657,-0.14393 z"
         style="font-style:normal;font-variant:normal;font-weight:bold;font-stretch:normal;font-size:2.11666656px;font-family:'Labtop Secundo Wide';-inkscape-font-specification:'Labtop Secundo Wide Bold';stroke-width:0.26458332"
         id="path12108" />
      <path
         d="m 40.715093,117.32647 h -0.2413 v -0.0656 h 0.06562 v -1.56422 h -0.06562 v -0.0656 h 0.2413 v 0.0656 h -0.06985 v 1.56422 h 0.06985 z"
         style="font-style:normal;font-variant:normal;font-weight:bold;font-stretch:normal;font-size:2.11666656px;font-family:'Labtop Secundo Wide';-inkscape-font-specification:'Labtop Secundo Wide Bold';stroke-width:0.26458332"
         id="path12110" />
    </g>
    <g
       aria-label="UNI"
       style="font-style:normal;font-weight:normal;font-size:3.52777767px;line-height:1.25;font-family:sans-serif;letter-spacing:0px;word-spacing:0px;fill:#ffffff;fill-opacity:1;stroke:none;stroke-width:0.26458332"
       id="text5443-0-4-9-0">
      <path
         d="m 40.035811,108.86827 q 0,0.25824 -0.3302,0.25824 -0.325967,0 -0.325967,-0.25824 v -1.4605 h 0.103717 v 1.46474 q 0,0.20108 0.22225,0.20108 0.22225,0 0.22225,-0.20108 v -1.46474 h 0.10795 z"
         style="font-style:normal;font-variant:normal;font-weight:bold;font-stretch:normal;font-size:2.11666656px;font-family:'Labtop Secundo Wide';-inkscape-font-specification:'Labtop Secundo Wide Bold';stroke-width:0.26458332"
         id="path12113" />
      <path
         d="m 40.985632,109.10957 h -0.12065 v -0.036 l -0.465667,-1.37372 v 1.4097 h -0.10795 v -1.7018 h 0.10795 v 0.004 h 0.0063 l 0.459317,1.34831 v -1.35255 h 0.105833 z"
         style="font-style:normal;font-variant:normal;font-weight:bold;font-stretch:normal;font-size:2.11666656px;font-family:'Labtop Secundo Wide';-inkscape-font-specification:'Labtop Secundo Wide Bold';stroke-width:0.26458332"
         id="path12115" />
      <path
         d="m 41.376454,109.10746 h -0.2413 v -0.0656 h 0.06562 v -1.56422 h -0.06562 v -0.0656 h 0.2413 v 0.0656 h -0.06985 v 1.56422 h 0.06985 z"
         style="font-style:normal;font-variant:normal;font-weight:bold;font-stretch:normal;font-size:2.11666656px;font-family:'Labtop Secundo Wide';-inkscape-font-specification:'Labtop Secundo Wide Bold';stroke-width:0.26458332"
         id="path12117" />
    </g>
    <g
       aria-label="PAUSE"
       style="font-style:normal;font-weight:normal;font-size:3.52777767px;line-height:1.25;font-family:sans-serif;letter-spacing:0px;word-spacing:0px;fill:#ffffff;fill-opacity:1;stroke:none;stroke-width:0.26458332"
       id="text5443-0-4-7-3">
      <path
         d="m 54.321194,107.92001 q 0,0.23283 -0.332317,0.23283 h -0.213783 v 0.95673 h -0.10795 v -1.7018 h 0.321733 q 0.20955,0 0.2794,0.0677 0.05292,0.0529 0.05292,0.19685 z m -0.1016,-0.008 v -0.26247 q 0,-0.12065 -0.07408,-0.15663 -0.04868,-0.0254 -0.186266,-0.0254 h -0.18415 v 0.62865 h 0.18415 q 0.156633,0 0.213783,-0.0381 0.04657,-0.0381 0.04657,-0.14605 z"
         style="font-style:normal;font-variant:normal;font-weight:bold;font-stretch:normal;font-size:2.11666656px;font-family:'Labtop Secundo Wide';-inkscape-font-specification:'Labtop Secundo Wide Bold';stroke-width:0.26458332"
         id="path12120" />
      <path
         d="m 55.151274,109.10957 h -0.103716 l -0.169334,-0.80221 h -0.281516 l -0.175684,0.80221 h -0.09525 l 0.3683,-1.7018 h 0.0889 z m -0.28575,-0.86783 -0.127,-0.60325 -0.129116,0.60325 z"
         style="font-style:normal;font-variant:normal;font-weight:bold;font-stretch:normal;font-size:2.11666656px;font-family:'Labtop Secundo Wide';-inkscape-font-specification:'Labtop Secundo Wide Bold';stroke-width:0.26458332"
         id="path12122" />
      <path
         d="m 55.965976,108.86827 q 0,0.25824 -0.3302,0.25824 -0.325967,0 -0.325967,-0.25824 v -1.4605 h 0.103717 v 1.46474 q 0,0.20108 0.22225,0.20108 0.22225,0 0.22225,-0.20108 v -1.46474 h 0.10795 z"
         style="font-style:normal;font-variant:normal;font-weight:bold;font-stretch:normal;font-size:2.11666656px;font-family:'Labtop Secundo Wide';-inkscape-font-specification:'Labtop Secundo Wide Bold';stroke-width:0.26458332"
         id="path12124" />
      <path
         d="m 56.839597,108.86827 q 0,0.25824 -0.32385,0.25824 -0.332316,0 -0.332316,-0.25824 v -0.12065 h 0.110066 v 0.12489 q 0,0.19685 0.22225,0.19685 0.22225,0 0.22225,-0.19685 v -0.54822 q 0,-0.15875 -0.22225,-0.15875 -0.332316,0 -0.332316,-0.26035 v -0.25612 q 0,-0.25611 0.332316,-0.25611 0.32385,0 0.32385,0.25611 v 0.13335 h -0.1016 v -0.13758 q 0,-0.19897 -0.22225,-0.19897 -0.22225,0 -0.22225,0.19897 v 0.2667 q 0,0.20108 0.22225,0.20108 0.2921,0 0.321734,0.18839 h 0.0021 z"
         style="font-style:normal;font-variant:normal;font-weight:bold;font-stretch:normal;font-size:2.11666656px;font-family:'Labtop Secundo Wide';-inkscape-font-specification:'Labtop Secundo Wide Bold';stroke-width:0.26458332"
         id="path12126" />
      <path
         d="m 57.706141,109.10957 h -0.6477 v -1.7018 h 0.6477 v 0.0572 h -0.53975 v 0.63712 h 0.53975 v 0.0529 h -0.53975 v 0.89958 h 0.53975 z"
         style="font-style:normal;font-variant:normal;font-weight:bold;font-stretch:normal;font-size:2.11666656px;font-family:'Labtop Secundo Wide';-inkscape-font-specification:'Labtop Secundo Wide Bold';stroke-width:0.26458332"
         id="path12128" />
    </g>
    <g
       aria-label="FREE"
       style="font-style:normal;font-weight:normal;font-size:3.52777767px;line-height:1.25;font-family:sans-serif;letter-spacing:0px;word-spacing:0px;fill:#ffffff;fill-opacity:1;stroke:none;stroke-width:0.26458332"
       id="text5443-0-4-0-8">
      <path
         d="m 54.615319,115.68606 h -0.53975 v 0.62865 h 0.465667 v 0.0571 h -0.465667 v 0.95673 h -0.10795 v -1.7018 h 0.6477 z"
         style="font-style:normal;font-variant:normal;font-weight:bold;font-stretch:normal;font-size:2.11666656px;font-family:'Labtop Secundo Wide';-inkscape-font-specification:'Labtop Secundo Wide Bold';stroke-width:0.26458332"
         id="path12131" />
      <path
         d="m 55.417536,117.32859 h -0.1016 v -0.74507 q 0,-0.10371 -0.05292,-0.14181 -0.06562,-0.0466 -0.207433,-0.0466 h -0.18415 v 0.93345 h -0.10795 v -1.7018 h 0.321733 q 0.20955,0 0.2794,0.0677 0.05292,0.0529 0.05292,0.19685 v 0.25824 q 0,0.17145 -0.179917,0.20531 0.179917,0.0444 0.179917,0.22014 z m -0.1016,-1.18533 v -0.27517 q 0,-0.12065 -0.07408,-0.15663 -0.04868,-0.0254 -0.186267,-0.0254 h -0.18415 v 0.64346 h 0.18415 q 0.137583,0 0.188383,-0.0275 0.07197,-0.0381 0.07197,-0.15875 z"
         style="font-style:normal;font-variant:normal;font-weight:bold;font-stretch:normal;font-size:2.11666656px;font-family:'Labtop Secundo Wide';-inkscape-font-specification:'Labtop Secundo Wide Bold';stroke-width:0.26458332"
         id="path12133" />
      <path
         d="m 56.338848,117.32859 h -0.6477 v -1.7018 h 0.6477 v 0.0572 h -0.53975 v 0.63712 h 0.53975 v 0.0529 h -0.53975 v 0.89959 h 0.53975 z"
         style="font-style:normal;font-variant:normal;font-weight:bold;font-stretch:normal;font-size:2.11666656px;font-family:'Labtop Secundo Wide';-inkscape-font-specification:'Labtop Secundo Wide Bold';stroke-width:0.26458332"
         id="path12135" />
      <path
         d="m 57.157403,117.32859 h -0.6477 v -1.7018 h 0.6477 v 0.0572 h -0.53975 v 0.63712 h 0.53975 v 0.0529 h -0.53975 v 0.89959 h 0.53975 z"
         style="font-style:normal;font-variant:normal;font-weight:bold;font-stretch:normal;font-size:2.11666656px;font-family:'Labtop Secundo Wide';-inkscape-font-specification:'Labtop Secundo Wide Bold';stroke-width:0.26458332"
         id="path12137" />
    </g>
    <g
       aria-label="RESET"
       style="font-style:normal;font-weight:normal;font-size:3.52777767px;line-height:1.25;font-family:sans-serif;letter-spacing:0px;word-spacing:0px;fill:#ffffff;fill-opacity:1;stroke:none;stroke-width:0.26458332"
       id="text4978">
      <path
         d="m 53.216292,122.59768 h -0.135466 v -0.99342 q 0,-0.13829 -0.07056,-0.18909 -0.08749,-0.0621 -0.276578,-0.0621 h -0.245533 v 1.2446 h -0.143933 v -2.26907 h 0.428977 q 0.2794,0 0.372534,0.0903 0.07056,0.0706 0.07056,0.26247 v 0.34431 q 0,0.2286 -0.239889,0.27376 0.239889,0.0593 0.239889,0.29351 z m -0.135466,-1.58045 v -0.36688 q 0,-0.16087 -0.09878,-0.20885 -0.06491,-0.0339 -0.248356,-0.0339 h -0.245533 v 0.85796 h 0.245533 q 0.183445,0 0.251178,-0.0367 0.09596,-0.0508 0.09596,-0.21167 z"
         style="font-style:normal;font-variant:normal;font-weight:bold;font-stretch:normal;font-size:2.82222223px;font-family:'Labtop Secundo Wide';-inkscape-font-specification:'Labtop Secundo Wide Bold';stroke-width:0.26458332"
         id="path12140" />
      <path
         d="m 54.444709,122.59768 h -0.8636 v -2.26907 h 0.8636 v 0.0762 h -0.719667 v 0.84949 h 0.719667 v 0.0706 h -0.719667 v 1.19944 h 0.719667 z"
         style="font-style:normal;font-variant:normal;font-weight:bold;font-stretch:normal;font-size:2.82222223px;font-family:'Labtop Secundo Wide';-inkscape-font-specification:'Labtop Secundo Wide Bold';stroke-width:0.26458332"
         id="path12142" />
      <path
         d="m 55.510715,122.27595 q 0,0.34431 -0.4318,0.34431 -0.443089,0 -0.443089,-0.34431 v -0.16087 h 0.146756 v 0.16651 q 0,0.26247 0.296333,0.26247 0.296333,0 0.296333,-0.26247 v -0.73096 q 0,-0.21166 -0.296333,-0.21166 -0.443089,0 -0.443089,-0.34714 v -0.34148 q 0,-0.34149 0.443089,-0.34149 0.4318,0 0.4318,0.34149 v 0.1778 h -0.135467 v -0.18345 q 0,-0.26529 -0.296333,-0.26529 -0.296333,0 -0.296333,0.26529 v 0.3556 q 0,0.26811 0.296333,0.26811 0.389467,0 0.428978,0.25118 h 0.0028 z"
         style="font-style:normal;font-variant:normal;font-weight:bold;font-stretch:normal;font-size:2.82222223px;font-family:'Labtop Secundo Wide';-inkscape-font-specification:'Labtop Secundo Wide Bold';stroke-width:0.26458332"
         id="path12144" />
      <path
         d="m 56.666106,122.59768 h -0.8636 v -2.26907 h 0.8636 v 0.0762 h -0.719667 v 0.84949 h 0.719667 v 0.0706 h -0.719667 v 1.19944 h 0.719667 z"
         style="font-style:normal;font-variant:normal;font-weight:bold;font-stretch:normal;font-size:2.82222223px;font-family:'Labtop Secundo Wide';-inkscape-font-specification:'Labtop Secundo Wide Bold';stroke-width:0.26458332"
         id="path12146" />
      <path
         d="m 57.85629,120.40763 h -0.462844 v 2.19005 h -0.143934 v -2.19005 h -0.476955 v -0.079 h 1.083733 z"
         style="font-style:normal;font-variant:normal;font-weight:bold;font-stretch:normal;font-size:2.82222223px;font-family:'Labtop Secundo Wide';-inkscape-font-specification:'Labtop Secundo Wide Bold';stroke-width:0.26458332"
         id="path12148" />
    </g>
    <g
       aria-label="CLOCK"
       style="font-style:normal;font-weight:normal;font-size:3.52777767px;line-height:1.25;font-family:sans-serif;letter-spacing:0px;word-spacing:0px;fill:#ffffff;fill-opacity:1;stroke:none;stroke-width:0.26458332"
       id="text4982">
      <path
         d="m 40.783702,122.27595 q 0,0.34431 -0.440267,0.34431 -0.434622,0 -0.434622,-0.34431 v -1.6256 q 0,-0.34149 0.434622,-0.34149 0.440267,0 0.440267,0.34149 v 0.16368 h -0.143933 v -0.16933 q 0,-0.26247 -0.296334,-0.26247 -0.296333,0 -0.296333,0.26247 v 1.63689 q 0,0.26811 0.296333,0.26811 0.296334,0 0.296334,-0.26811 v -0.18062 h 0.143933 z"
         style="font-style:normal;font-variant:normal;font-weight:bold;font-stretch:normal;font-size:2.82222223px;font-family:'Labtop Secundo Wide';-inkscape-font-specification:'Labtop Secundo Wide Bold';stroke-width:0.26458332"
         id="path12151" />
      <path
         d="m 41.908181,122.59768 h -0.866422 v -2.26907 h 0.143933 v 2.19569 h 0.722489 z"
         style="font-style:normal;font-variant:normal;font-weight:bold;font-stretch:normal;font-size:2.82222223px;font-family:'Labtop Secundo Wide';-inkscape-font-specification:'Labtop Secundo Wide Bold';stroke-width:0.26458332"
         id="path12153" />
      <path
         d="m 42.872808,122.27595 q 0,0.34431 -0.440267,0.34431 -0.434622,0 -0.434622,-0.34431 v -1.6256 q 0,-0.34149 0.434622,-0.34149 0.440267,0 0.440267,0.34149 z m -0.143934,0.006 v -1.63689 q 0,-0.26247 -0.296333,-0.26247 -0.296333,0 -0.296333,0.26247 v 1.63689 q 0,0.26811 0.296333,0.26811 0.296333,0 0.296333,-0.26811 z"
         style="font-style:normal;font-variant:normal;font-weight:bold;font-stretch:normal;font-size:2.82222223px;font-family:'Labtop Secundo Wide';-inkscape-font-specification:'Labtop Secundo Wide Bold';stroke-width:0.26458332"
         id="path12155" />
      <path
         d="m 44.079969,122.27595 q 0,0.34431 -0.440266,0.34431 -0.434622,0 -0.434622,-0.34431 v -1.6256 q 0,-0.34149 0.434622,-0.34149 0.440266,0 0.440266,0.34149 v 0.16368 h -0.143933 v -0.16933 q 0,-0.26247 -0.296333,-0.26247 -0.296334,0 -0.296334,0.26247 v 1.63689 q 0,0.26811 0.296334,0.26811 0.296333,0 0.296333,-0.26811 v -0.18062 h 0.143933 z"
         style="font-style:normal;font-variant:normal;font-weight:bold;font-stretch:normal;font-size:2.82222223px;font-family:'Labtop Secundo Wide';-inkscape-font-specification:'Labtop Secundo Wide Bold';stroke-width:0.26458332"
         id="path12157" />
      <path
         d="m 45.221382,122.59768 h -0.135467 v -1.02729 q 0,-0.15804 -0.09878,-0.21167 -0.06491,-0.0339 -0.248356,-0.0339 h -0.245533 v 1.27282 h -0.143934 v -2.26907 h 0.143934 v 0.92569 h 0.245533 q 0.208845,0 0.285045,-0.0564 0.06209,-0.048 0.06209,-0.19474 v -0.67451 h 0.135467 v 0.6858 q 0,0.22014 -0.239889,0.27376 0.239889,0.0508 0.239889,0.27658 z"
         style="font-style:normal;font-variant:normal;font-weight:bold;font-stretch:normal;font-size:2.82222223px;font-family:'Labtop Secundo Wide';-inkscape-font-specification:'Labtop Secundo Wide Bold';stroke-width:0.26458332"
         id="path12159" />
    </g>
    <g
       aria-label="HOLD"
       style="font-style:normal;font-weight:normal;font-size:3.52777767px;line-height:1.25;font-family:sans-serif;letter-spacing:0px;word-spacing:0px;fill:#ffffff;fill-opacity:1;stroke:none;stroke-width:0.26458332"
       id="text4978-4">
      <path
         d="m 66.180879,122.59768 h -0.135467 v -1.27282 h -0.592667 v 1.27282 h -0.143933 v -2.26907 h 0.143933 v 0.92569 h 0.592667 v -0.92569 h 0.135467 z"
         style="font-style:normal;font-variant:normal;font-weight:bold;font-stretch:normal;font-size:2.82222223px;font-family:'Labtop Secundo Wide';-inkscape-font-specification:'Labtop Secundo Wide Bold';stroke-width:0.26458332"
         id="path12162" />
      <path
         d="m 67.363037,122.27595 q 0,0.34431 -0.440267,0.34431 -0.434622,0 -0.434622,-0.34431 v -1.6256 q 0,-0.34149 0.434622,-0.34149 0.440267,0 0.440267,0.34149 z m -0.143933,0.006 v -1.63689 q 0,-0.26247 -0.296334,-0.26247 -0.296333,0 -0.296333,0.26247 v 1.63689 q 0,0.26811 0.296333,0.26811 0.296334,0 0.296334,-0.26811 z"
         style="font-style:normal;font-variant:normal;font-weight:bold;font-stretch:normal;font-size:2.82222223px;font-family:'Labtop Secundo Wide';-inkscape-font-specification:'Labtop Secundo Wide Bold';stroke-width:0.26458332"
         id="path12164" />
      <path
         d="m 68.570198,122.59768 h -0.866422 v -2.26907 h 0.143933 v 2.19569 h 0.722489 z"
         style="font-style:normal;font-variant:normal;font-weight:bold;font-stretch:normal;font-size:2.82222223px;font-family:'Labtop Secundo Wide';-inkscape-font-specification:'Labtop Secundo Wide Bold';stroke-width:0.26458332"
         id="path12166" />
      <path
         d="m 69.611995,122.28441 q 0,0.31327 -0.448733,0.31327 h -0.426156 v -2.26907 h 0.426156 q 0.270933,0 0.369711,0.0931 0.07902,0.0649 0.07902,0.25964 z m -0.143933,-0.008 v -1.6256 q 0,-0.15805 -0.09313,-0.20885 -0.06773,-0.0339 -0.245534,-0.0339 h -0.254 v 2.11667 h 0.254 q 0.217311,0 0.285045,-0.0564 0.05362,-0.0452 0.05362,-0.19191 z"
         style="font-style:normal;font-variant:normal;font-weight:bold;font-stretch:normal;font-size:2.82222223px;font-family:'Labtop Secundo Wide';-inkscape-font-specification:'Labtop Secundo Wide Bold';stroke-width:0.26458332"
         id="path12168" />
    </g>
    <g
       aria-label="BPM LFO"
       style="font-style:normal;font-variant:normal;font-weight:bold;font-stretch:normal;font-size:3.52777767px;line-height:1.25;font-family:Consolas;-inkscape-font-specification:'Consolas Bold';text-align:start;letter-spacing:0px;word-spacing:0px;text-anchor:start;fill:#ffffff;fill-opacity:1;stroke:none;stroke-width:0.26458332"
       id="text3885">
      <path
         d="m 51.252246,53.84164 q 0,0.27552 -0.09701,0.368653 -0.128058,0.116417 -0.512233,0.116417 h -0.589845 v -3.119967 h 0.589845 q 0.609247,0 0.609247,0.434622 v 0.508353 q 0,0.302683 -0.329847,0.376414 0.329847,0.06985 0.329847,0.380294 z m -0.186267,-1.707444 v -0.481189 q 0,-0.221192 -0.131939,-0.291042 -0.09313,-0.05045 -0.345369,-0.05045 h -0.337608 v 1.168047 h 0.337608 q 0.287161,0 0.391936,-0.07761 0.08537,-0.06597 0.08537,-0.267758 z m 0,1.75013 v -0.970139 q 0,-0.217311 -0.135819,-0.291041 -0.08925,-0.04657 -0.341489,-0.04657 h -0.337608 v 1.649236 h 0.337608 q 0.287161,0 0.391936,-0.07761 0.08537,-0.06597 0.08537,-0.263878 z"
         style="font-style:normal;font-variant:normal;font-weight:bold;font-stretch:normal;font-size:3.88055563px;font-family:'Labtop Secundo Wide';-inkscape-font-specification:'Labtop Secundo Wide Bold';text-align:start;text-anchor:start;stroke-width:0.26458332"
         id="path12171" />
      <path
         d="m 52.939984,52.145837 q 0,0.426862 -0.609247,0.426862 h -0.391936 v 1.754011 h -0.197908 v -3.119967 h 0.589844 q 0.384175,0 0.512234,0.124178 0.09701,0.09701 0.09701,0.360891 z m -0.186266,-0.01552 v -0.481189 q 0,-0.221191 -0.13582,-0.287161 -0.08925,-0.04657 -0.341489,-0.04657 h -0.337608 v 1.152525 h 0.337608 q 0.287162,0 0.391937,-0.06985 0.08537,-0.06985 0.08537,-0.267759 z"
         style="font-style:normal;font-variant:normal;font-weight:bold;font-stretch:normal;font-size:3.88055563px;font-family:'Labtop Secundo Wide';-inkscape-font-specification:'Labtop Secundo Wide Bold';text-align:start;text-anchor:start;stroke-width:0.26458332"
         id="path12173" />
      <path
         d="m 55.531892,54.32671 h -0.194027 v -2.615495 l -0.842081,2.425348 H 54.336681 L 53.529526,51.74226 v 2.58445 h -0.197909 v -3.119967 h 0.201789 l 0.880886,2.634897 0.911931,-2.634897 h 0.205669 z"
         style="font-style:normal;font-variant:normal;font-weight:bold;font-stretch:normal;font-size:3.88055563px;font-family:'Labtop Secundo Wide';-inkscape-font-specification:'Labtop Secundo Wide Bold';text-align:start;text-anchor:start;stroke-width:0.26458332"
         id="path12175" />
      <path
         d="m 58.221603,54.32671 h -1.191331 v -3.119967 h 0.197908 v 3.019072 h 0.993423 z"
         style="font-style:normal;font-variant:normal;font-weight:bold;font-stretch:normal;font-size:3.88055563px;font-family:'Labtop Secundo Wide';-inkscape-font-specification:'Labtop Secundo Wide Bold';text-align:start;text-anchor:start;stroke-width:0.26458332"
         id="path12177" />
      <path
         d="m 59.661834,51.315399 h -0.989542 v 1.152525 h 0.853723 v 0.104775 h -0.853723 v 1.754011 h -0.197908 v -3.119967 h 1.18745 z"
         style="font-style:normal;font-variant:normal;font-weight:bold;font-stretch:normal;font-size:3.88055563px;font-family:'Labtop Secundo Wide';-inkscape-font-specification:'Labtop Secundo Wide Bold';text-align:start;text-anchor:start;stroke-width:0.26458332"
         id="path12179" />
      <path
         d="m 61.109282,53.884326 q 0,0.473428 -0.605367,0.473428 -0.597605,0 -0.597605,-0.473428 v -2.2352 q 0,-0.469547 0.597605,-0.469547 0.605367,0 0.605367,0.469547 z m -0.197909,0.0078 v -2.250723 q 0,-0.360891 -0.407458,-0.360891 -0.407458,0 -0.407458,0.360891 v 2.250723 q 0,0.368652 0.407458,0.368652 0.407458,0 0.407458,-0.368652 z"
         style="font-style:normal;font-variant:normal;font-weight:bold;font-stretch:normal;font-size:3.88055563px;font-family:'Labtop Secundo Wide';-inkscape-font-specification:'Labtop Secundo Wide Bold';text-align:start;text-anchor:start;stroke-width:0.26458332"
         id="path12181" />
    </g>
    <path
       style="fill:none;stroke:#ffffff;stroke-width:0.13229169;stroke-linecap:butt;stroke-linejoin:miter;stroke-miterlimit:4;stroke-dasharray:none;stroke-opacity:1"
       d="m 67.711762,134.84141 h 0.760677 v -1.02526 h 0.628385 v 1.0418 h 0.396875"
       id="path872"
       inkscape:connector-curvature="0" />
    <path
       style="fill:none;stroke:#ffffff;stroke-width:0.13229169;stroke-linecap:butt;stroke-linejoin:miter;stroke-miterlimit:4;stroke-dasharray:none;stroke-opacity:1"
       d="m 49.756311,135.02371 0.529167,-0.95911 0.578776,0.89297"
       id="path870"
       inkscape:connector-curvature="0"
       sodipodi:nodetypes="ccc" />
    <g
       id="g346"
       transform="matrix(0.12402883,0,0,0.12402883,39.433118,129.78031)"
       style="stroke:#ffffff;stroke-width:1.06662023;stroke-miterlimit:4;stroke-dasharray:none;stroke-opacity:1">
      <!-- <text font-size="6pt" letter-spacing="2px" transform="translate(6.5 40)">SIN</text> -->
      <g
         id="g344"
         transform="translate(9,33.5)"
         style="stroke:#ffffff;stroke-width:1.06662023;stroke-miterlimit:4;stroke-dasharray:none;stroke-opacity:1">
        <!-- <rect width="12" height="8" fill="none" stroke-width="1" stroke="#0f0" /> -->
        <path
           style="fill:none;stroke:#ffffff;stroke-width:1.06662023;stroke-miterlimit:4;stroke-dasharray:none;stroke-opacity:1"
           inkscape:connector-curvature="0"
           id="path340"
           d="M 0,4 A 3,4.5 0 0 1 6,4" />
        <path
           style="fill:none;stroke:#ffffff;stroke-width:1.06662023;stroke-miterlimit:4;stroke-dasharray:none;stroke-opacity:1"
           inkscape:connector-curvature="0"
           id="path342"
           d="m 6,4 a 3,4.5 0 0 0 6,0" />
      </g>
    </g>
    <g
       transform="matrix(0.12417689,0,0,0.12417689,57.877911,129.84729)"
       id="g318"
       style="stroke:#ffffff;stroke-width:1.06534851;stroke-miterlimit:4;stroke-dasharray:none;stroke-opacity:1">
      <g
         transform="translate(9,33.5)"
         id="g316"
         style="stroke:#ffffff;stroke-width:1.06534851;stroke-miterlimit:4;stroke-dasharray:none;stroke-opacity:1">
        <path
           inkscape:connector-curvature="0"
           id="polyline314"
           d="M 0,8 12,0 v 8"
           style="fill:none;stroke:#ffffff;stroke-width:1.06534851;stroke-miterlimit:4;stroke-dasharray:none;stroke-opacity:1" />
      </g>
    </g>
  </g>
</svg>
