<?xml version="1.0" encoding="UTF-8" standalone="no"?>
<!-- Created with Inkscape (http://www.inkscape.org/) -->

<svg
   xmlns:dc="http://purl.org/dc/elements/1.1/"
   xmlns:cc="http://creativecommons.org/ns#"
   xmlns:rdf="http://www.w3.org/1999/02/22-rdf-syntax-ns#"
   xmlns:svg="http://www.w3.org/2000/svg"
   xmlns="http://www.w3.org/2000/svg"
   xmlns:xlink="http://www.w3.org/1999/xlink"
   xmlns:sodipodi="http://sodipodi.sourceforge.net/DTD/sodipodi-0.dtd"
   xmlns:inkscape="http://www.inkscape.org/namespaces/inkscape"
   width="120"
   height="380"
   viewBox="0 0 31.750001 100.54167"
   version="1.1"
   id="svg11003"
   inkscape:version="0.92.2 (5c3e80d, 2017-08-06)"
   sodipodi:docname="BPMLFO2.svg">
  <defs
     id="defs10997">
    <linearGradient
       inkscape:collect="always"
       id="linearGradient3391">
      <stop
         style="stop-color:#202022;stop-opacity:1;"
         offset="0"
         id="stop3387" />
      <stop
         style="stop-color:#202025;stop-opacity:1;"
         offset=".3"
         id="stop3388" />
      <stop
         style="stop-color:#08003e;stop-opacity:1;"
         offset="1"
         id="stop3389" />
    </linearGradient>
    <linearGradient
       inkscape:collect="always"
       xlink:href="#linearGradient3391"
       id="linearGradient3393"
       x1="35.219627"
       y1="150.85843"
       x2="35.219627"
       y2="50.462322"
       gradientUnits="userSpaceOnUse"
       gradientTransform="matrix(0.8017296,0,0,1.0014499,6.9830088,-0.08643399)" />
  </defs>
  <sodipodi:namedview
     id="base"
     pagecolor="#ffffff"
     bordercolor="#666666"
     borderopacity="1.0"
     inkscape:pageopacity="0.0"
     inkscape:pageshadow="2"
     inkscape:zoom="7.9999999"
     inkscape:cx="-0.056389525"
     inkscape:cy="274.5719"
     inkscape:document-units="px"
     inkscape:current-layer="layer1"
     showgrid="false"
     fit-margin-top="0"
     fit-margin-left="0"
     fit-margin-right="0"
     fit-margin-bottom="0"
     inkscape:window-width="3840"
     inkscape:window-height="2115"
     inkscape:window-x="-13"
     inkscape:window-y="-13"
     inkscape:window-maximized="1"
     units="px"
     inkscape:measure-start="115.25,330.25"
     inkscape:measure-end="0,0" />
  <metadata
     id="metadata11000">
    <rdf:RDF>
      <cc:Work
         rdf:about="">
        <dc:format>image/svg+xml</dc:format>
        <dc:type
           rdf:resource="http://purl.org/dc/dcmitype/StillImage" />
        <dc:title></dc:title>
      </cc:Work>
    </rdf:RDF>
  </metadata>
  <g
     inkscape:label="Layer 1"
     inkscape:groupmode="layer"
     id="layer1"
     transform="translate(-35.146312,-50.389004)">
    <path
       inkscape:connector-curvature="0"
       id="path33493"
       d="M 35.219628,50.449053 H 66.969629 V 150.99072 H 35.219628 Z m 0,0"
       style="fill:url(#linearGradient3393);fill-opacity:1;fill-rule:nonzero;stroke:none;stroke-width:0.247329"
       inkscape:export-filename="/home/vortico/pics/tmp/LFOs.png"
       inkscape:export-xdpi="150.22649"
       inkscape:export-ydpi="150.22649" />
    <g
       aria-label="RESET"
       style="font-style:normal;font-variant:normal;font-weight:normal;font-stretch:normal;font-size:3.52777767px;line-height:1.25;font-family:Homenaje;-inkscape-font-specification:Homenaje;letter-spacing:0px;word-spacing:0px;fill:#ffffff;fill-opacity:1;stroke:none;stroke-width:0.26458332"
       id="text4978">
      <path
         d="m 47.5655,130.33621 v 0.7366 h 0.200378 q 0.160866,0 0.248355,-0.11006 0.09031,-0.11289 0.09031,-0.28787 0,-0.33867 -0.338666,-0.33867 z m -0.0056,0.92287 v 0.86642 h -0.242711 v -1.97555 h 0.522111 q 0.508,0 0.508,0.52493 0,0.19756 -0.0762,0.34431 -0.0762,0.14676 -0.217311,0.2032 l 0.392289,0.90311 H 48.203322 L 47.8195,131.25908 Z"
         style="font-style:normal;font-variant:normal;font-weight:normal;font-stretch:normal;font-size:2.82222223px;font-family:Homenaje;-inkscape-font-specification:Homenaje;stroke-width:0.26458332"
         id="path1451" />
      <path
         d="m 48.706207,132.1255 v -1.97555 h 0.860778 v 0.19191 h -0.612423 v 0.63218 h 0.496712 v 0.19191 h -0.496712 v 0.76764 h 0.640645 v 0.19191 z"
         style="font-style:normal;font-variant:normal;font-weight:normal;font-stretch:normal;font-size:2.82222223px;font-family:Homenaje;-inkscape-font-specification:Homenaje;stroke-width:0.26458332"
         id="path1453" />
      <path
         d="m 50.187124,131.93924 q 0.160866,0 0.231422,-0.096 0.07338,-0.0959 0.07338,-0.22295 0,-0.127 -0.04798,-0.21449 -0.04516,-0.0903 -0.115711,-0.14111 -0.07056,-0.0536 -0.1524,-0.11572 -0.08185,-0.0621 -0.1524,-0.11853 -0.07056,-0.0593 -0.118533,-0.15804 -0.04516,-0.0988 -0.04516,-0.22578 0,-0.22578 0.135467,-0.36125 0.135466,-0.13546 0.375355,-0.13546 h 0.2286 v 0.18626 h -0.217311 q -0.135467,0 -0.206022,0.0875 -0.07056,0.0875 -0.07056,0.18909 0,0.1016 0.04516,0.17498 0.04798,0.0734 0.118533,0.12136 0.07056,0.048 0.1524,0.11288 0.08467,0.0649 0.155222,0.13265 0.07056,0.0649 0.115712,0.1778 0.04798,0.11289 0.04798,0.25682 0,0.26529 -0.1524,0.40076 -0.149577,0.13546 -0.412044,0.13546 h -0.296333 v -0.18626 z"
         style="font-style:normal;font-variant:normal;font-weight:normal;font-stretch:normal;font-size:2.82222223px;font-family:Homenaje;-inkscape-font-specification:Homenaje;stroke-width:0.26458332"
         id="path1455" />
      <path
         d="m 51.015799,132.1255 v -1.97555 h 0.860778 v 0.19191 h -0.612422 v 0.63218 h 0.496711 v 0.19191 h -0.496711 v 0.76764 h 0.640644 v 0.19191 z"
         style="font-style:normal;font-variant:normal;font-weight:normal;font-stretch:normal;font-size:2.82222223px;font-family:Homenaje;-inkscape-font-specification:Homenaje;stroke-width:0.26458332"
         id="path1457" />
      <path
         d="m 52.468494,132.1255 v -1.78929 h -0.395111 v -0.18626 h 1.038577 v 0.18626 h -0.395111 v 1.78929 z"
         style="font-style:normal;font-variant:normal;font-weight:normal;font-stretch:normal;font-size:2.82222223px;font-family:Homenaje;-inkscape-font-specification:Homenaje;stroke-width:0.26458332"
         id="path1459" />
    </g>
    <g
       aria-label="CLOCK"
       style="font-style:normal;font-variant:normal;font-weight:normal;font-stretch:normal;font-size:3.52777767px;line-height:1.25;font-family:Homenaje;-inkscape-font-specification:Homenaje;letter-spacing:0px;word-spacing:0px;fill:#ffffff;fill-opacity:1;stroke:none;stroke-width:0.26458332"
       id="text4982">
      <path
         d="m 37.386451,131.93924 v 0.18626 h -0.378177 q -0.256823,0 -0.397934,-0.12982 -0.141111,-0.12982 -0.141111,-0.381 v -0.95391 q 0,-0.25118 0.141111,-0.381 0.141111,-0.12982 0.397934,-0.12982 h 0.378177 v 0.18626 h -0.378177 q -0.129823,0 -0.211667,0.0762 -0.07902,0.0734 -0.07902,0.19756 v 1.05551 q 0,0.12418 0.07902,0.20038 0.08184,0.0734 0.211667,0.0734 z"
         style="font-style:normal;font-variant:normal;font-weight:normal;font-stretch:normal;font-size:2.82222223px;font-family:Homenaje;-inkscape-font-specification:Homenaje;stroke-width:0.26458332"
         id="path1462" />
      <path
         d="m 37.650814,132.1255 v -1.97555 h 0.248356 v 1.78929 h 0.578555 v 0.18626 z"
         style="font-style:normal;font-variant:normal;font-weight:normal;font-stretch:normal;font-size:2.82222223px;font-family:Homenaje;-inkscape-font-specification:Homenaje;stroke-width:0.26458332"
         id="path1464" />
      <path
         d="m 39.716416,131.63726 q 0,0.23989 -0.138289,0.37535 -0.138288,0.13265 -0.403577,0.13265 -0.262467,0 -0.400756,-0.13265 -0.138289,-0.13546 -0.138289,-0.37535 v -0.99907 q 0,-0.23989 0.138289,-0.37253 0.138289,-0.13547 0.400756,-0.13547 0.265289,0 0.403577,0.13547 0.138289,0.13264 0.138289,0.37253 z m -0.832555,0.048 q 0,0.12982 0.08184,0.2032 0.08467,0.0705 0.208845,0.0705 0.124177,0 0.208844,-0.0705 0.08467,-0.0734 0.08467,-0.2032 v -1.09503 q 0,-0.12982 -0.08467,-0.20037 -0.08467,-0.0734 -0.208844,-0.0734 -0.124178,0 -0.208845,0.0734 -0.08184,0.0705 -0.08184,0.20037 z"
         style="font-style:normal;font-variant:normal;font-weight:normal;font-stretch:normal;font-size:2.82222223px;font-family:Homenaje;-inkscape-font-specification:Homenaje;stroke-width:0.26458332"
         id="path1466" />
      <path
         d="m 40.875644,131.93924 v 0.18626 h -0.378178 q -0.256822,0 -0.397933,-0.12982 -0.141111,-0.12982 -0.141111,-0.381 v -0.95391 q 0,-0.25118 0.141111,-0.381 0.141111,-0.12982 0.397933,-0.12982 h 0.378178 v 0.18626 h -0.378178 q -0.129822,0 -0.211666,0.0762 -0.07902,0.0734 -0.07902,0.19756 v 1.05551 q 0,0.12418 0.07902,0.20038 0.08184,0.0734 0.211666,0.0734 z"
         style="font-style:normal;font-variant:normal;font-weight:normal;font-stretch:normal;font-size:2.82222223px;font-family:Homenaje;-inkscape-font-specification:Homenaje;stroke-width:0.26458332"
         id="path1468" />
      <path
         d="m 41.379896,132.1255 h -0.239889 v -1.97555 h 0.239889 v 0.8636 l 0.5842,-0.8636 h 0.245533 l -0.575733,0.88053 0.6604,1.09502 h -0.251178 l -0.553155,-0.92004 -0.110067,0.14111 z"
         style="font-style:normal;font-variant:normal;font-weight:normal;font-stretch:normal;font-size:2.82222223px;font-family:Homenaje;-inkscape-font-specification:Homenaje;stroke-width:0.26458332"
         id="path1470" />
    </g>
    <g
       style="font-style:normal;font-weight:normal;font-size:3.52777767px;line-height:1.25;font-family:sans-serif;letter-spacing:0px;word-spacing:0px;fill:#ffffff;fill-opacity:1;stroke:none;stroke-width:0.26458332"
       id="text5097" />
    <g
       aria-label="DIVISION"
       style="font-style:normal;font-variant:normal;font-weight:normal;font-stretch:normal;font-size:3.52777767px;line-height:1.25;font-family:Homenaje;-inkscape-font-specification:Homenaje;letter-spacing:0px;word-spacing:0px;fill:#ffffff;fill-opacity:1;stroke:none;stroke-width:0.26458332"
       id="text5443">
      <path
         d="m 54.712053,57.936118 h 0.239889 q 0.129822,0 0.208844,-0.07338 0.08185,-0.0762 0.08185,-0.200378 V 56.61814 q 0,-0.124178 -0.08185,-0.197556 -0.07902,-0.0762 -0.208844,-0.0762 h -0.239889 z m -0.251178,0.191911 v -1.975556 h 0.491067 q 0.256822,0 0.397933,0.129823 0.141111,0.129822 0.141111,0.381 v 0.953911 q 0,0.251177 -0.141111,0.381 -0.141111,0.127 -0.397933,0.129822 z"
         style="font-style:normal;font-variant:normal;font-weight:normal;font-stretch:normal;font-size:2.82222223px;font-family:Homenaje;-inkscape-font-specification:Homenaje;stroke-width:0.26458332"
         id="path1474" />
      <path
         d="m 55.819687,58.128029 v -1.975556 h 0.248356 v 1.975556 z"
         style="font-style:normal;font-variant:normal;font-weight:normal;font-stretch:normal;font-size:2.82222223px;font-family:Homenaje;-inkscape-font-specification:Homenaje;stroke-width:0.26458332"
         id="path1476" />
      <path
         d="m 56.997612,57.902251 0.389467,-1.749778 h 0.245533 l -0.465667,1.975556 H 56.833923 L 56.35979,56.152473 h 0.245533 z"
         style="font-style:normal;font-variant:normal;font-weight:normal;font-stretch:normal;font-size:2.82222223px;font-family:Homenaje;-inkscape-font-specification:Homenaje;stroke-width:0.26458332"
         id="path1478" />
      <path
         d="m 57.925329,58.128029 v -1.975556 h 0.248356 v 1.975556 z"
         style="font-style:normal;font-variant:normal;font-weight:normal;font-stretch:normal;font-size:2.82222223px;font-family:Homenaje;-inkscape-font-specification:Homenaje;stroke-width:0.26458332"
         id="path1480" />
      <path
         d="m 58.860543,57.941762 q 0.160867,0 0.231422,-0.09595 0.07338,-0.09596 0.07338,-0.222956 0,-0.127 -0.04798,-0.214489 -0.04516,-0.09031 -0.115711,-0.141111 -0.07055,-0.05362 -0.1524,-0.115711 -0.08184,-0.06209 -0.1524,-0.118533 -0.07055,-0.05927 -0.118533,-0.158045 -0.04516,-0.09878 -0.04516,-0.225778 0,-0.225777 0.135467,-0.361244 0.135467,-0.135467 0.375356,-0.135467 h 0.2286 v 0.186267 h -0.217311 q -0.135467,0 -0.206023,0.08749 -0.07055,0.08749 -0.07055,0.189089 0,0.1016 0.04515,0.174978 0.04798,0.07338 0.118534,0.121355 0.07055,0.04798 0.1524,0.112889 0.08467,0.06491 0.155222,0.132644 0.07055,0.06491 0.115711,0.1778 0.04798,0.112889 0.04798,0.256823 0,0.265289 -0.1524,0.400755 -0.149578,0.135467 -0.412045,0.135467 h -0.296333 v -0.186267 z"
         style="font-style:normal;font-variant:normal;font-weight:normal;font-stretch:normal;font-size:2.82222223px;font-family:Homenaje;-inkscape-font-specification:Homenaje;stroke-width:0.26458332"
         id="path1482" />
      <path
         d="m 59.689218,58.128029 v -1.975556 h 0.248356 v 1.975556 z"
         style="font-style:normal;font-variant:normal;font-weight:normal;font-stretch:normal;font-size:2.82222223px;font-family:Homenaje;-inkscape-font-specification:Homenaje;stroke-width:0.26458332"
         id="path1484" />
      <path
         d="m 61.346921,57.639784 q 0,0.239889 -0.138289,0.375356 -0.138289,0.132644 -0.403578,0.132644 -0.262466,0 -0.400755,-0.132644 -0.138289,-0.135467 -0.138289,-0.375356 v -0.999066 q 0,-0.239889 0.138289,-0.372534 0.138289,-0.135466 0.400755,-0.135466 0.265289,0 0.403578,0.135466 0.138289,0.132645 0.138289,0.372534 z m -0.832556,0.04798 q 0,0.129822 0.08185,0.2032 0.08467,0.07056 0.208844,0.07056 0.124178,0 0.208845,-0.07056 0.08467,-0.07338 0.08467,-0.2032 V 56.59274 q 0,-0.129822 -0.08467,-0.200378 -0.08467,-0.07338 -0.208845,-0.07338 -0.124178,0 -0.208844,0.07338 -0.08185,0.07056 -0.08185,0.200378 z"
         style="font-style:normal;font-variant:normal;font-weight:normal;font-stretch:normal;font-size:2.82222223px;font-family:Homenaje;-inkscape-font-specification:Homenaje;stroke-width:0.26458332"
         id="path1486" />
      <path
         d="m 62.777082,58.128029 h -0.3556 l -0.522111,-1.794933 v 1.794933 h -0.248356 v -1.975556 h 0.414867 l 0.460022,1.707445 v -1.707445 h 0.251178 z"
         style="font-style:normal;font-variant:normal;font-weight:normal;font-stretch:normal;font-size:2.82222223px;font-family:Homenaje;-inkscape-font-specification:Homenaje;stroke-width:0.26458332"
         id="path1488" />
    </g>
    <g
       aria-label="BPM LFO 2"
       style="font-style:normal;font-variant:normal;font-weight:bold;font-stretch:normal;font-size:3.52777767px;line-height:1.25;font-family:Consolas;-inkscape-font-specification:'Consolas Bold';text-align:start;letter-spacing:0px;word-spacing:0px;text-anchor:start;fill:#ffffff;fill-opacity:1;stroke:none;stroke-width:0.26458332"
       id="text3885">
      <path
         d="m 45.0128,51.823396 v 0.880886 h 0.244475 q 0.232834,0 0.360892,-0.116416 0.128058,-0.120298 0.128058,-0.34537 0,-0.4191 -0.48895,-0.4191 z m 0.783873,1.016706 q 0.151341,0.08149 0.248355,0.244475 0.100895,0.162983 0.100895,0.329847 0,0.166864 -0.01552,0.267758 -0.01552,0.100895 -0.06985,0.221192 -0.05045,0.116417 -0.14358,0.194028 -0.20955,0.186267 -0.644172,0.186267 H 44.671312 V 51.56728 h 0.659694 q 0.360892,0 0.539397,0.166863 0.178506,0.162984 0.178506,0.516114 0,0.194028 -0.07373,0.357011 -0.06985,0.159103 -0.178505,0.232834 z m -0.543278,1.18745 q 0.566561,0 0.566561,-0.543278 0,-0.275519 -0.166864,-0.395817 Q 45.486228,52.96816 45.257275,52.96816 H 45.0128 v 1.059392 z"
         style="font-style:normal;font-variant:normal;font-weight:bold;font-stretch:normal;font-size:3.88055563px;font-family:Homenaje;-inkscape-font-specification:'Homenaje Bold';text-align:start;text-anchor:start;stroke-width:0.26458332"
         id="path1491" />
      <path
         d="m 46.900024,51.823396 v 1.008945 h 0.248355 q 0.221192,0 0.341489,-0.151342 0.124178,-0.151342 0.124178,-0.391936 0,-0.465667 -0.465667,-0.465667 z m 1.055511,0.465667 q 0,0.376414 -0.205669,0.589844 -0.201789,0.20955 -0.578203,0.20955 h -0.271639 v 1.195212 H 46.558535 V 51.56728 h 0.686858 q 0.710142,0 0.710142,0.721783 z"
         style="font-style:normal;font-variant:normal;font-weight:bold;font-stretch:normal;font-size:3.88055563px;font-family:Homenaje;-inkscape-font-specification:'Homenaje Bold';text-align:start;text-anchor:start;stroke-width:0.26458332"
         id="path1493" />
      <path
         d="M 48.619595,54.283669 H 48.278106 V 51.56728 h 0.516114 l 0.519994,1.60655 h 0.02716 l 0.531636,-1.60655 h 0.496712 v 2.716389 h -0.341489 v -2.308931 l -0.519995,1.587147 h -0.368653 l -0.519994,-1.591028 z"
         style="font-style:normal;font-variant:normal;font-weight:bold;font-stretch:normal;font-size:3.88055563px;font-family:Homenaje;-inkscape-font-specification:'Homenaje Bold';text-align:start;text-anchor:start;stroke-width:0.26458332"
         id="path1495" />
      <path
         d="M 51.477442,54.283669 V 51.56728 h 0.341489 v 2.460272 h 0.795514 v 0.256117 z"
         style="font-style:normal;font-variant:normal;font-weight:bold;font-stretch:normal;font-size:3.88055563px;font-family:Homenaje;-inkscape-font-specification:'Homenaje Bold';text-align:start;text-anchor:start;stroke-width:0.26458332"
         id="path1497" />
      <path
         d="M 52.947809,54.283669 V 51.56728 h 1.144764 v 0.263877 h -0.803275 v 0.931334 h 0.605367 v 0.263877 h -0.605367 v 1.257301 z"
         style="font-style:normal;font-variant:normal;font-weight:bold;font-stretch:normal;font-size:3.88055563px;font-family:Homenaje;-inkscape-font-specification:'Homenaje Bold';text-align:start;text-anchor:start;stroke-width:0.26458332"
         id="path1499" />
      <path
         d="m 55.825908,53.612332 q 0,0.329848 -0.190147,0.516114 -0.190147,0.182386 -0.55492,0.182386 -0.360891,0 -0.551038,-0.182386 -0.190148,-0.186266 -0.190148,-0.516114 v -1.373716 q 0,-0.329848 0.190148,-0.512234 0.190147,-0.186266 0.551038,-0.186266 0.364773,0 0.55492,0.186266 0.190147,0.182386 0.190147,0.512234 z m -1.144764,0.06597 q 0,0.178505 0.112536,0.2794 0.116417,0.09701 0.287161,0.09701 0.170745,0 0.287162,-0.09701 0.116416,-0.100895 0.116416,-0.2794 v -1.505656 q 0,-0.178505 -0.116416,-0.275519 -0.116417,-0.100895 -0.287162,-0.100895 -0.170744,0 -0.287161,0.100895 -0.112536,0.09701 -0.112536,0.275519 z"
         style="font-style:normal;font-variant:normal;font-weight:bold;font-stretch:normal;font-size:3.88055563px;font-family:Homenaje;-inkscape-font-specification:'Homenaje Bold';text-align:start;text-anchor:start;stroke-width:0.26458332"
         id="path1501" />
      <path
         d="m 57.999565,54.283669 h -1.19133 v -0.252237 q 0.570441,-1.094316 0.70238,-1.404761 0.131939,-0.314325 0.131939,-0.519994 0,-0.271639 -0.337608,-0.271639 H 56.928532 V 51.56728 h 0.551039 q 0.28328,0 0.399697,0.166863 0.120297,0.162984 0.120297,0.384175 0,0.217312 -0.08925,0.442384 -0.08537,0.221191 -0.345369,0.694619 -0.256117,0.473428 -0.399697,0.772231 h 0.834319 z"
         style="font-style:normal;font-variant:normal;font-weight:bold;font-stretch:normal;font-size:3.88055563px;font-family:Homenaje;-inkscape-font-specification:'Homenaje Bold';text-align:start;text-anchor:start;stroke-width:0.26458332"
         id="path1503" />
    </g>
    <g
       aria-label="HOLD"
       style="font-style:normal;font-variant:normal;font-weight:normal;font-stretch:normal;font-size:3.52777767px;line-height:1.25;font-family:Homenaje;-inkscape-font-specification:Homenaje;letter-spacing:0px;word-spacing:0px;fill:#ffffff;fill-opacity:1;stroke:none;stroke-width:0.26458332"
       id="text4978-4">
      <path
         d="m 58.445874,131.17159 h -0.561622 v 0.95391 h -0.248355 v -1.97555 h 0.248355 v 0.83538 h 0.561622 v -0.83538 h 0.248356 v 1.97555 h -0.248356 z"
         style="font-style:normal;font-variant:normal;font-weight:normal;font-stretch:normal;font-size:2.82222223px;font-family:Homenaje;-inkscape-font-specification:Homenaje;stroke-width:0.26458332"
         id="path1506" />
      <path
         d="m 60.103886,131.63726 q 0,0.23989 -0.138289,0.37535 -0.138289,0.13265 -0.403578,0.13265 -0.262466,0 -0.400755,-0.13265 -0.138289,-0.13546 -0.138289,-0.37535 v -0.99907 q 0,-0.23989 0.138289,-0.37253 0.138289,-0.13547 0.400755,-0.13547 0.265289,0 0.403578,0.13547 0.138289,0.13264 0.138289,0.37253 z m -0.832556,0.048 q 0,0.12982 0.08185,0.2032 0.08467,0.0705 0.208844,0.0705 0.124178,0 0.208845,-0.0705 0.08467,-0.0734 0.08467,-0.2032 v -1.09503 q 0,-0.12982 -0.08467,-0.20037 -0.08467,-0.0734 -0.208845,-0.0734 -0.124178,0 -0.208844,0.0734 -0.08185,0.0705 -0.08185,0.20037 z"
         style="font-style:normal;font-variant:normal;font-weight:normal;font-stretch:normal;font-size:2.82222223px;font-family:Homenaje;-inkscape-font-specification:Homenaje;stroke-width:0.26458332"
         id="path1508" />
      <path
         d="m 60.430558,132.1255 v -1.97555 h 0.248356 v 1.78929 h 0.578555 v 0.18626 z"
         style="font-style:normal;font-variant:normal;font-weight:normal;font-stretch:normal;font-size:2.82222223px;font-family:Homenaje;-inkscape-font-specification:Homenaje;stroke-width:0.26458332"
         id="path1510" />
      <path
         d="m 61.748271,131.93359 h 0.239889 q 0.129822,0 0.208844,-0.0734 0.08185,-0.0762 0.08185,-0.20037 v -1.04423 q 0,-0.12417 -0.08185,-0.19755 -0.07902,-0.0762 -0.208844,-0.0762 h -0.239889 z m -0.251178,0.19191 v -1.97555 h 0.491067 q 0.256822,0 0.397933,0.12982 0.141111,0.12982 0.141111,0.381 v 0.95391 q 0,0.25118 -0.141111,0.381 -0.141111,0.127 -0.397933,0.12982 z"
         style="font-style:normal;font-variant:normal;font-weight:normal;font-stretch:normal;font-size:2.82222223px;font-family:Homenaje;-inkscape-font-specification:Homenaje;stroke-width:0.26458332"
         id="path1512" />
    </g>
    <g
       aria-label="MOM."
       style="font-style:normal;font-variant:normal;font-weight:normal;font-stretch:normal;font-size:3.52777767px;line-height:1.25;font-family:Homenaje;-inkscape-font-specification:Homenaje;letter-spacing:0px;word-spacing:0px;fill:#ffffff;fill-opacity:1;stroke:none;stroke-width:0.26458332"
       id="text5443-0">
      <path
         d="M 60.467997,127.27646 H 60.28173 v -1.48167 h 0.281517 l 0.283633,0.8763 h 0.01482 l 0.289983,-0.8763 h 0.270934 v 1.48167 h -0.186267 v -1.25942 l -0.283633,0.86572 H 60.75163 l -0.283633,-0.86783 z"
         style="font-style:normal;font-variant:normal;font-weight:normal;font-stretch:normal;font-size:2.11666656px;font-family:Homenaje;-inkscape-font-specification:Homenaje;stroke-width:0.26458332"
         id="path1515" />
      <path
         d="m 62.455679,126.91028 q 0,0.17991 -0.103717,0.28151 -0.103716,0.0995 -0.302683,0.0995 -0.19685,0 -0.300567,-0.0995 -0.103716,-0.1016 -0.103716,-0.28151 v -0.7493 q 0,-0.17992 0.103716,-0.2794 0.103717,-0.1016 0.300567,-0.1016 0.198967,0 0.302683,0.1016 0.103717,0.0995 0.103717,0.2794 z m -0.624417,0.036 q 0,0.0974 0.06138,0.1524 0.0635,0.0529 0.156633,0.0529 0.09313,0 0.156633,-0.0529 0.0635,-0.055 0.0635,-0.1524 v -0.82127 q 0,-0.0974 -0.0635,-0.15028 -0.0635,-0.055 -0.156633,-0.055 -0.09313,0 -0.156633,0.055 -0.06138,0.0529 -0.06138,0.15028 z"
         style="font-style:normal;font-variant:normal;font-weight:normal;font-stretch:normal;font-size:2.11666656px;font-family:Homenaje;-inkscape-font-specification:Homenaje;stroke-width:0.26458332"
         id="path1517" />
      <path
         d="m 62.865783,127.27646 h -0.186266 v -1.48167 h 0.281516 l 0.283634,0.8763 h 0.01482 l 0.289984,-0.8763 H 63.8204 v 1.48167 h -0.186267 v -1.25942 l -0.283633,0.86572 h -0.201083 l -0.283634,-0.86783 z"
         style="font-style:normal;font-variant:normal;font-weight:normal;font-stretch:normal;font-size:2.11666656px;font-family:Homenaje;-inkscape-font-specification:Homenaje;stroke-width:0.26458332"
         id="path1519" />
      <path
         d="m 64.038549,127.27646 v -0.21802 h 0.169333 v 0.21802 z"
         style="font-style:normal;font-variant:normal;font-weight:normal;font-stretch:normal;font-size:2.11666656px;font-family:Homenaje;-inkscape-font-specification:Homenaje;stroke-width:0.26458332"
         id="path1521" />
    </g>
    <g
       aria-label="GATE"
       style="font-style:normal;font-variant:normal;font-weight:normal;font-stretch:normal;font-size:3.52777767px;line-height:1.25;font-family:Homenaje;-inkscape-font-specification:Homenaje;letter-spacing:0px;word-spacing:0px;fill:#ffffff;fill-opacity:1;stroke:none;stroke-width:0.26458332"
       id="text5443-0-4">
      <path
         d="m 61.326237,118.78961 h -0.37465 q -0.192616,0 -0.29845,-0.0974 -0.105833,-0.0974 -0.105833,-0.28575 v -0.71755 q 0,-0.18627 0.1143,-0.28364 0.1143,-0.0974 0.31115,-0.0974 h 0.31115 v 0.14181 h -0.332317 q -0.09737,0 -0.15875,0.0572 -0.05927,0.055 -0.05927,0.14817 v 0.78952 q 0,0.0953 0.05715,0.15028 0.05715,0.055 0.1524,0.055 h 0.19685 v -0.58208 h -0.1905 v -0.1397 h 0.376766 z"
         style="font-style:normal;font-variant:normal;font-weight:normal;font-stretch:normal;font-size:2.11666656px;font-family:Homenaje;-inkscape-font-specification:Homenaje;stroke-width:0.26458332"
         id="path1524" />
      <path
         d="m 61.808705,117.30795 h 0.281517 l 0.321733,1.48166 h -0.173567 l -0.103716,-0.43603 h -0.385234 l -0.09525,0.43603 h -0.179916 z m 0.294217,0.9017 -0.1524,-0.762 h -0.01482 l -0.154517,0.762 z"
         style="font-style:normal;font-variant:normal;font-weight:normal;font-stretch:normal;font-size:2.11666656px;font-family:Homenaje;-inkscape-font-specification:Homenaje;stroke-width:0.26458332"
         id="path1526" />
      <path
         d="m 62.696647,118.78961 v -1.34196 h -0.296334 v -0.1397 h 0.778934 v 0.1397 h -0.296334 v 1.34196 z"
         style="font-style:normal;font-variant:normal;font-weight:normal;font-stretch:normal;font-size:2.11666656px;font-family:Homenaje;-inkscape-font-specification:Homenaje;stroke-width:0.26458332"
         id="path1528" />
      <path
         d="m 63.376527,118.78961 v -1.48166 h 0.645583 v 0.14393 h -0.459317 v 0.47413 h 0.372534 v 0.14394 h -0.372534 v 0.57573 h 0.480484 v 0.14393 z"
         style="font-style:normal;font-variant:normal;font-weight:normal;font-stretch:normal;font-size:2.11666656px;font-family:Homenaje;-inkscape-font-specification:Homenaje;stroke-width:0.26458332"
         id="path1530" />
    </g>
    <g
       transform="matrix(0.26458333,0,0,0.26458333,34.617145,50.389004)"
       style="font-style:normal;font-variant:normal;font-weight:bold;font-stretch:normal;font-size:13.33333302px;line-height:1.25;font-family:Consolas;-inkscape-font-specification:'Consolas Bold';text-align:center;letter-spacing:0px;word-spacing:0px;text-anchor:middle;fill:#ffffff;fill-opacity:1;stroke:none"
       id="flowRoot1527" />
    <g
       aria-label="BI"
       style="font-style:normal;font-variant:normal;font-weight:normal;font-stretch:normal;font-size:3.52777767px;line-height:1.25;font-family:Homenaje;-inkscape-font-specification:Homenaje;letter-spacing:0px;word-spacing:0px;fill:#ffffff;fill-opacity:1;stroke:none;stroke-width:0.26458332"
       id="text5443-0-6">
      <path
         d="m 37.78156,125.93407 v 0.48049 h 0.13335 q 0.127,0 0.19685,-0.0635 0.06985,-0.0656 0.06985,-0.18839 0,-0.2286 -0.2667,-0.2286 z m 0.427567,0.55457 q 0.08255,0.0444 0.135466,0.13335 0.05503,0.0889 0.05503,0.17992 0,0.091 -0.0085,0.14605 -0.0085,0.055 -0.0381,0.12065 -0.02752,0.0635 -0.07832,0.10583 -0.1143,0.1016 -0.351366,0.1016 h -0.328084 v -1.48167 h 0.359834 q 0.19685,0 0.294216,0.091 0.09737,0.0889 0.09737,0.28152 0,0.10583 -0.04022,0.19473 -0.0381,0.0868 -0.09737,0.127 z m -0.296334,0.6477 q 0.309034,0 0.309034,-0.29633 0,-0.15029 -0.09102,-0.2159 -0.09102,-0.0656 -0.2159,-0.0656 h -0.13335 v 0.57785 z"
         style="font-style:normal;font-variant:normal;font-weight:normal;font-stretch:normal;font-size:2.11666656px;font-family:Homenaje;-inkscape-font-specification:Homenaje;stroke-width:0.26458332"
         id="path1534" />
      <path
         d="m 38.624688,127.27604 v -1.48167 h 0.186267 v 1.48167 z"
         style="font-style:normal;font-variant:normal;font-weight:normal;font-stretch:normal;font-size:2.11666656px;font-family:Homenaje;-inkscape-font-specification:Homenaje;stroke-width:0.26458332"
         id="path1536" />
    </g>
    <g
       aria-label="UNI"
       style="font-style:normal;font-variant:normal;font-weight:normal;font-stretch:normal;font-size:3.52777767px;line-height:1.25;font-family:Homenaje;-inkscape-font-specification:Homenaje;letter-spacing:0px;word-spacing:0px;fill:#ffffff;fill-opacity:1;stroke:none;stroke-width:0.26458332"
       id="text5443-0-4-9">
      <path
         d="m 37.262979,117.30788 h 0.186267 v 1.15147 q 0,0.1016 0.04868,0.15452 0.0508,0.0508 0.1397,0.0508 0.0889,0 0.1397,-0.0508 0.0508,-0.0529 0.0508,-0.15452 v -1.15147 h 0.186267 v 1.11549 q 0,0.381 -0.376767,0.381 -0.37465,0 -0.37465,-0.381 z"
         style="font-style:normal;font-variant:normal;font-weight:normal;font-stretch:normal;font-size:2.11666656px;font-family:Homenaje;-inkscape-font-specification:Homenaje;stroke-width:0.26458332"
         id="path1539" />
      <path
         d="m 39.088406,118.78955 h -0.2667 l -0.391583,-1.3462 v 1.3462 h -0.186267 v -1.48167 h 0.31115 l 0.345017,1.28059 v -1.28059 h 0.188383 z"
         style="font-style:normal;font-variant:normal;font-weight:normal;font-stretch:normal;font-size:2.11666656px;font-family:Homenaje;-inkscape-font-specification:Homenaje;stroke-width:0.26458332"
         id="path1541" />
      <path
         d="m 39.381134,118.78955 v -1.48167 h 0.186267 v 1.48167 z"
         style="font-style:normal;font-variant:normal;font-weight:normal;font-stretch:normal;font-size:2.11666656px;font-family:Homenaje;-inkscape-font-specification:Homenaje;stroke-width:0.26458332"
         id="path1543" />
    </g>
    <g
       aria-label="PAUSE"
       style="font-style:normal;font-variant:normal;font-weight:normal;font-stretch:normal;font-size:3.52777767px;line-height:1.25;font-family:Homenaje;-inkscape-font-specification:Homenaje;letter-spacing:0px;word-spacing:0px;fill:#ffffff;fill-opacity:1;stroke:none;stroke-width:0.26458332"
       id="text5443-0-4-7">
      <path
         d="m 52.265912,117.54211 v 0.55034 h 0.135467 q 0.12065,0 0.186267,-0.0825 0.06773,-0.0825 0.06773,-0.21379 0,-0.254 -0.254,-0.254 z m 0.575734,0.254 q 0,0.20532 -0.112184,0.32174 -0.110066,0.1143 -0.315383,0.1143 h -0.148167 v 0.65193 h -0.186266 v -1.48167 h 0.37465 q 0.38735,0 0.38735,0.3937 z"
         style="font-style:normal;font-variant:normal;font-weight:normal;font-stretch:normal;font-size:2.11666656px;font-family:Homenaje;-inkscape-font-specification:Homenaje;stroke-width:0.26458332"
         id="path1546" />
      <path
         d="m 53.26101,117.40241 h 0.281517 l 0.321733,1.48167 h -0.173567 l -0.103716,-0.43603 h -0.385234 l -0.09525,0.43603 h -0.179916 z m 0.294217,0.9017 -0.1524,-0.762 h -0.01482 l -0.154517,0.762 z"
         style="font-style:normal;font-variant:normal;font-weight:normal;font-stretch:normal;font-size:2.11666656px;font-family:Homenaje;-inkscape-font-specification:Homenaje;stroke-width:0.26458332"
         id="path1548" />
      <path
         d="m 53.996386,117.40241 h 0.186267 v 1.15147 q 0,0.1016 0.04868,0.15452 0.0508,0.0508 0.1397,0.0508 0.0889,0 0.1397,-0.0508 0.0508,-0.0529 0.0508,-0.15452 v -1.15147 h 0.186267 v 1.11549 q 0,0.381 -0.376767,0.381 -0.37465,0 -0.37465,-0.381 z"
         style="font-style:normal;font-variant:normal;font-weight:normal;font-stretch:normal;font-size:2.11666656px;font-family:Homenaje;-inkscape-font-specification:Homenaje;stroke-width:0.26458332"
         id="path1550" />
      <path
         d="m 55.199513,118.74438 q 0.12065,0 0.173567,-0.072 0.05503,-0.072 0.05503,-0.16721 0,-0.0953 -0.03598,-0.16087 -0.03387,-0.0677 -0.08678,-0.10583 -0.05292,-0.0402 -0.1143,-0.0868 -0.06138,-0.0466 -0.1143,-0.0889 -0.05292,-0.0444 -0.0889,-0.11853 -0.03387,-0.0741 -0.03387,-0.16933 0,-0.16934 0.1016,-0.27094 0.1016,-0.1016 0.281516,-0.1016 h 0.17145 v 0.1397 h -0.162983 q -0.1016,0 -0.154517,0.0656 -0.05292,0.0656 -0.05292,0.14182 0,0.0762 0.03387,0.13123 0.03598,0.055 0.0889,0.091 0.05292,0.036 0.1143,0.0847 0.0635,0.0487 0.116417,0.0995 0.05292,0.0487 0.08678,0.13335 0.03598,0.0847 0.03598,0.19261 0,0.19897 -0.1143,0.30057 -0.112184,0.1016 -0.309034,0.1016 h -0.22225 v -0.1397 z"
         style="font-style:normal;font-variant:normal;font-weight:normal;font-stretch:normal;font-size:2.11666656px;font-family:Homenaje;-inkscape-font-specification:Homenaje;stroke-width:0.26458332"
         id="path1552" />
      <path
         d="m 55.821019,118.88408 v -1.48167 h 0.645583 v 0.14394 h -0.459316 v 0.47413 h 0.372533 v 0.14393 h -0.372533 v 0.57574 h 0.480483 v 0.14393 z"
         style="font-style:normal;font-variant:normal;font-weight:normal;font-stretch:normal;font-size:2.11666656px;font-family:Homenaje;-inkscape-font-specification:Homenaje;stroke-width:0.26458332"
         id="path1554" />
    </g>
    <g
       aria-label="FREE"
       style="font-style:normal;font-variant:normal;font-weight:normal;font-stretch:normal;font-size:3.52777767px;line-height:1.25;font-family:Homenaje;-inkscape-font-specification:Homenaje;letter-spacing:0px;word-spacing:0px;fill:#ffffff;fill-opacity:1;stroke:none;stroke-width:0.26458332"
       id="text5443-0-4-0">
      <path
         d="m 52.661646,127.38276 v -1.48167 h 0.624417 v 0.14394 h -0.43815 v 0.508 h 0.3302 v 0.14393 h -0.3302 v 0.6858 z"
         style="font-style:normal;font-variant:normal;font-weight:normal;font-stretch:normal;font-size:2.11666656px;font-family:Homenaje;-inkscape-font-specification:Homenaje;stroke-width:0.26458332"
         id="path1557" />
      <path
         d="m 53.670602,126.04079 v 0.55245 h 0.150283 q 0.12065,0 0.186267,-0.0825 0.06773,-0.0847 0.06773,-0.2159 0,-0.254 -0.254,-0.254 z m -0.0042,0.69215 v 0.64982 h -0.182033 v -1.48167 h 0.391583 q 0.381,0 0.381,0.3937 0,0.14817 -0.05715,0.25824 -0.05715,0.11006 -0.162983,0.1524 l 0.294217,0.67733 h -0.182034 l -0.287866,-0.64982 z"
         style="font-style:normal;font-variant:normal;font-weight:normal;font-stretch:normal;font-size:2.11666656px;font-family:Homenaje;-inkscape-font-specification:Homenaje;stroke-width:0.26458332"
         id="path1559" />
      <path
         d="m 54.526132,127.38276 v -1.48167 h 0.645583 v 0.14394 h -0.459317 v 0.47413 h 0.372534 v 0.14393 h -0.372534 v 0.57574 h 0.480484 v 0.14393 z"
         style="font-style:normal;font-variant:normal;font-weight:normal;font-stretch:normal;font-size:2.11666656px;font-family:Homenaje;-inkscape-font-specification:Homenaje;stroke-width:0.26458332"
         id="path1561" />
      <path
         d="m 55.431503,127.38276 v -1.48167 h 0.645583 v 0.14394 H 55.61777 v 0.47413 h 0.372533 v 0.14393 H 55.61777 v 0.57574 h 0.480483 v 0.14393 z"
         style="font-style:normal;font-variant:normal;font-weight:normal;font-stretch:normal;font-size:2.11666656px;font-family:Homenaje;-inkscape-font-specification:Homenaje;stroke-width:0.26458332"
         id="path1563" />
    </g>
    <g
       aria-label="FROZEN WASTELAND"
       style="font-style:normal;font-variant:normal;font-weight:bold;font-stretch:normal;font-size:2.77782488px;line-height:1.25;font-family:Consolas;-inkscape-font-specification:'Consolas Bold';text-align:start;letter-spacing:0px;word-spacing:0px;text-anchor:start;fill:#00a3f2;fill-opacity:1;stroke:none;stroke-width:0.20833686"
       id="text3885-7">
      <path
         d="m 41.184485,150.13075 q 0.09445,-0.0944 0.150003,-0.16667 0.05833,-0.0722 0.08889,-0.13333 0.03333,-0.0611 0.04167,-0.11389 0.01111,-0.0556 0.01111,-0.11667 0,-0.075 -0.03611,-0.18056 -0.03611,-0.10556 -0.08056,-0.225 -0.04444,-0.11945 -0.08056,-0.24445 -0.03611,-0.12501 -0.03611,-0.2389 0,-0.0611 0.01944,-0.11944 0.02222,-0.0583 0.05278,-0.11112 0.03333,-0.0555 0.07222,-0.10277 0.03889,-0.05 0.07778,-0.0889 -0.05556,-0.0111 -0.09722,-0.0167 -0.04167,-0.008 -0.06111,-0.008 -0.10278,0 -0.175003,0.0556 -0.06945,0.0528 -0.150003,0.13334 0,-0.0944 0.02778,-0.19445 0.03056,-0.10278 0.09167,-0.18612 0.06111,-0.0833 0.15278,-0.13611 0.09445,-0.0528 0.222226,-0.0528 0.08889,0 0.163892,0.0139 0.07778,0.0111 0.141669,0.0278 0.06389,0.0167 0.116668,0.0306 0.05278,0.0111 0.09445,0.0111 0.06389,0 0.111113,-0.0167 0.05,-0.0194 0.09722,-0.0667 0,0.0611 -0.025,0.13889 -0.02222,0.0778 -0.06945,0.15001 -0.04445,0.0694 -0.116668,0.11944 -0.07222,0.0472 -0.16667,0.0472 -0.04722,0 -0.108335,-0.006 -0.05833,-0.008 -0.122224,-0.0194 -0.0056,0.0194 -0.0083,0.0361 -0.0028,0.0167 -0.0056,0.0306 -0.0028,0.0167 -0.0028,0.0306 0,0.0611 0.0083,0.11945 0.01111,0.0555 0.03056,0.11389 h 0.561121 l -0.06389,0.18889 q -0.0083,0.0361 -0.01111,0.0528 -0.0028,0.0167 -0.0083,0.0528 l -0.102779,-0.0722 h -0.286116 q 0.06111,0.13889 0.11389,0.28334 0.05278,0.14167 0.05278,0.30278 0,0.14445 -0.05833,0.26945 -0.05833,0.12223 -0.155558,0.21389 -0.09445,0.0917 -0.219449,0.14167 -0.122224,0.0528 -0.252782,0.0528 z"
         style="font-style:normal;font-variant:normal;font-weight:normal;font-stretch:normal;font-family:'Bradley Gratis';-inkscape-font-specification:'Bradley Gratis';text-align:start;text-anchor:start;stroke-width:0.20833686"
         id="path1566" />
      <path
         d="m 42.814504,148.76962 q 0.05556,-0.0333 0.108335,-0.0778 0.05556,-0.0445 0.09722,-0.1 0.04445,-0.0556 0.06945,-0.12778 0.02778,-0.075 0.02778,-0.16667 0,-0.0778 -0.03056,-0.13056 -0.02778,-0.0556 -0.06667,-0.0889 -0.03889,-0.0333 -0.07778,-0.0472 -0.03611,-0.0139 -0.05556,-0.0139 -0.02222,0 -0.04167,0.008 -0.01667,0.008 -0.03056,0.0195 z m -0.40834,-0.74168 q -0.08889,-0.05 -0.08889,-0.18612 0.025,0.025 0.08889,0.0444 0.06389,0.0167 0.136113,0.0167 0.03611,0 0.10278,-0.008 0.06667,-0.0111 0.136113,-0.0222 0.07222,-0.0111 0.136114,-0.0194 0.06667,-0.0111 0.102779,-0.0111 0.09167,0 0.183337,0.0278 0.09167,0.0278 0.169447,0.0944 0.07778,0.0667 0.130558,0.18056 0.05556,0.11111 0.07222,0.28334 l -0.494452,0.35 q 0.05556,0.0222 0.125002,0.075 0.06945,0.0528 0.130557,0.14723 0.06389,0.0944 0.105558,0.24167 0.04167,0.14445 0.04167,0.35556 0,0.18334 0.01667,0.29723 0.01667,0.11389 0.04167,0.18333 0.025,0.0695 0.05278,0.10278 0.03056,0.0361 0.05556,0.0611 -0.122225,0 -0.216671,-0.0722 -0.09445,-0.0694 -0.166669,-0.18333 -0.07222,-0.1139 -0.12778,-0.25834 -0.05278,-0.14445 -0.09722,-0.29167 -0.04444,-0.14723 -0.08333,-0.28334 -0.03611,-0.13612 -0.075,-0.23612 -0.01944,0.0139 -0.03889,0.0278 -0.01667,0.0111 -0.03056,0.025 v 1.03891 h -0.40834 z"
         style="font-style:normal;font-variant:normal;font-weight:normal;font-stretch:normal;font-family:'Bradley Gratis';-inkscape-font-specification:'Bradley Gratis';text-align:start;text-anchor:start;stroke-width:0.20833686"
         id="path1568" />
      <path
         d="m 44.300944,149.64186 q 0,0.0944 0.01111,0.14722 0.01389,0.0528 0.03333,0.0806 0.02222,0.025 0.05,0.0306 0.02778,0.006 0.05556,0.006 0.05556,0 0.09167,-0.075 0.03611,-0.0778 0.03611,-0.23612 v -1.20557 q 0,-0.12501 -0.01389,-0.20278 -0.01111,-0.0806 -0.03333,-0.12223 -0.01944,-0.0444 -0.04722,-0.0611 -0.025,-0.0167 -0.05,-0.0167 -0.05278,0 -0.09445,0.0667 -0.03889,0.0639 -0.03889,0.20556 z m 0.791681,-0.69724 q 0,0.20278 -0.05278,0.40001 -0.05,0.19722 -0.138891,0.35278 -0.08611,0.15556 -0.205559,0.25278 -0.119447,0.0944 -0.252782,0.0944 -0.125003,0 -0.244449,-0.0861 -0.116669,-0.0861 -0.208337,-0.23612 -0.08889,-0.15 -0.144447,-0.35 -0.05556,-0.20001 -0.05556,-0.42779 0,-0.18611 0.05,-0.38056 0.05278,-0.19723 0.141669,-0.35556 0.08889,-0.15834 0.208336,-0.25834 0.119447,-0.10278 0.252783,-0.10278 0.116668,0 0.230559,0.0861 0.116669,0.0861 0.208337,0.23612 0.09445,0.14722 0.15278,0.34723 0.05833,0.2 0.05833,0.42778 z"
         style="font-style:normal;font-variant:normal;font-weight:normal;font-stretch:normal;font-family:'Bradley Gratis';-inkscape-font-specification:'Bradley Gratis';text-align:start;text-anchor:start;stroke-width:0.20833686"
         id="path1570" />
      <path
         d="m 45.213937,150.01408 q 0.03611,-0.21389 0.10278,-0.40278 0.06945,-0.18889 0.15278,-0.36112 0.08334,-0.17222 0.172225,-0.32778 0.09167,-0.15834 0.172225,-0.30556 0.08056,-0.14723 0.141669,-0.28612 0.06111,-0.14167 0.08889,-0.28334 -0.02222,-0.0139 -0.05278,-0.025 -0.02778,-0.0111 -0.108335,-0.0111 -0.04167,0 -0.075,0.0222 -0.03056,0.0195 -0.05278,0.05 -0.02222,0.0278 -0.03611,0.0611 -0.01111,0.0306 -0.01111,0.05 0,0.0222 0.0083,0.0528 0.01111,0.0278 0.02222,0.0556 0.01389,0.0278 0.02778,0.0528 0.01389,0.0222 0.025,0.0333 l -0.338895,0.21111 q -0.06667,-0.0639 -0.113891,-0.15556 -0.04445,-0.0944 -0.04445,-0.18889 0,-0.0472 0.025,-0.11667 0.025,-0.0694 0.08056,-0.13333 0.05556,-0.0667 0.144446,-0.11112 0.09167,-0.0472 0.222226,-0.0472 0.10278,0 0.172226,0.0139 0.06945,0.0139 0.122224,0.0333 0.05278,0.0167 0.09722,0.0306 0.04722,0.0139 0.105557,0.0139 0.03611,0 0.07778,-0.006 0.04167,-0.006 0.07778,-0.0167 0.03611,-0.0111 0.06389,-0.0222 0.03056,-0.0139 0.04722,-0.0306 -0.03333,0.175 -0.105557,0.36389 -0.07222,0.18889 -0.161114,0.37779 -0.08611,0.18889 -0.183336,0.36945 -0.09445,0.18056 -0.175003,0.33889 -0.07778,0.15556 -0.133336,0.28334 -0.05278,0.125 -0.05833,0.20556 0.111113,0.0472 0.188892,0.0472 0.05,0 0.102779,-0.0111 0.05278,-0.0139 0.09445,-0.0417 0.04445,-0.0278 0.07222,-0.0694 0.02778,-0.0445 0.02778,-0.10556 0,-0.0611 -0.01389,-0.1 -0.01111,-0.0417 -0.03056,-0.0667 -0.01944,-0.0278 -0.04444,-0.0472 -0.025,-0.0222 -0.04722,-0.0445 l 0.31945,-0.23611 q 0.111113,0.0833 0.158336,0.17778 0.04722,0.0944 0.04722,0.20556 0,0.0528 -0.01667,0.10278 -0.01389,0.0472 -0.03611,0.0889 -0.01944,0.0389 -0.04722,0.0722 -0.025,0.0333 -0.04445,0.0528 l 0.04722,0.0472 q 0.01389,0.0139 0.03056,0.0417 0.01667,0.025 0.01667,0.0444 0,0.0222 -0.01945,0.0639 -0.01667,0.0444 -0.06945,0.0778 -0.01944,-0.025 -0.04444,-0.0444 -0.02222,-0.0167 -0.04722,-0.0306 -0.025,-0.0139 -0.05278,-0.0139 z"
         style="font-style:normal;font-variant:normal;font-weight:normal;font-stretch:normal;font-family:'Bradley Gratis';-inkscape-font-specification:'Bradley Gratis';text-align:start;text-anchor:start;stroke-width:0.20833686"
         id="path1572" />
      <path
         d="m 47.974878,147.86683 v 0.3 q -0.03056,-0.0278 -0.08056,-0.0611 -0.04722,-0.0333 -0.102779,-0.0583 -0.05278,-0.0278 -0.105558,-0.0444 -0.05278,-0.0195 -0.08889,-0.0195 -0.06667,0 -0.136113,0.0528 -0.06945,0.0528 -0.113891,0.14167 -0.04445,0.0861 -0.05833,0.22778 -0.01111,0.13889 -0.01111,0.35834 h 0.711123 l -0.141669,0.31667 q -0.02778,-0.0417 -0.06667,-0.0555 -0.03611,-0.0167 -0.06667,-0.0167 h -0.436119 q 0,0.15834 0.0056,0.31112 0.0056,0.15 0.03611,0.26945 0.03333,0.11944 0.100001,0.19444 0.06667,0.0722 0.19167,0.0722 0.06667,0 0.130558,-0.025 0.06667,-0.025 0.122224,-0.0611 0.05556,-0.0389 0.09722,-0.0806 0.04445,-0.0417 0.06945,-0.075 v 0.4 h -0.375007 q -0.269449,0 -0.436118,-0.0944 -0.16667,-0.0972 -0.261116,-0.25834 -0.09167,-0.16389 -0.125002,-0.37778 -0.03056,-0.2139 -0.03056,-0.44723 0,-0.0583 0.0083,-0.15278 0.0083,-0.0972 0.03611,-0.20279 0.02778,-0.10833 0.08056,-0.21667 0.05278,-0.11111 0.141669,-0.19722 0.09167,-0.0889 0.225004,-0.14445 0.133336,-0.0556 0.322228,-0.0556 z"
         style="font-style:normal;font-variant:normal;font-weight:normal;font-stretch:normal;font-family:'Bradley Gratis';-inkscape-font-specification:'Bradley Gratis';text-align:start;text-anchor:start;stroke-width:0.20833686"
         id="path1574" />
      <path
         d="m 48.279137,150.01408 v -1.91947 q 0,-0.0778 -0.03333,-0.13056 -0.03333,-0.0556 -0.06667,-0.0972 h 0.538898 v 0.28333 l 0.308339,-0.35834 q 0.141669,0.12778 0.233337,0.25556 0.09167,0.12501 0.144447,0.25279 0.05278,0.125 0.07222,0.25556 0.01944,0.12778 0.01944,0.26389 0,0.13333 -0.02222,0.25556 -0.01944,0.11945 -0.05833,0.23611 -0.03889,0.11667 -0.09445,0.23612 -0.05278,0.11945 -0.116669,0.25 h 0.100002 q 0.03611,0 0.075,-0.025 0.03889,-0.025 0.07778,-0.025 v 0.26667 h -0.538898 q 0.075,-0.15278 0.119446,-0.275 0.04722,-0.12223 0.07222,-0.23334 0.025,-0.11111 0.03333,-0.21667 0.0083,-0.10556 0.0083,-0.225 0,-0.11945 -0.04167,-0.24723 -0.03889,-0.13056 -0.09722,-0.23889 -0.05833,-0.10834 -0.125003,-0.17778 -0.06389,-0.0694 -0.116668,-0.0694 -0.03333,0 -0.05278,0.0167 v 1.66669 z"
         style="font-style:normal;font-variant:normal;font-weight:normal;font-stretch:normal;font-family:'Bradley Gratis';-inkscape-font-specification:'Bradley Gratis';text-align:start;text-anchor:start;stroke-width:0.20833686"
         id="path1576" />
      <path
         d="m 50.82892,150.10575 q -0.150003,-0.10833 -0.25556,-0.23056 -0.105557,-0.125 -0.169447,-0.25834 -0.06389,-0.13333 -0.09445,-0.26944 -0.02778,-0.1389 -0.02778,-0.27223 0,-0.13056 0.02778,-0.25834 0.02778,-0.13056 0.07222,-0.25556 0.04722,-0.12778 0.108335,-0.24722 0.06111,-0.12223 0.125002,-0.2389 h -0.01667 q -0.0083,0 -0.01944,0 -0.0083,-0.003 -0.02222,-0.003 -0.04445,0 -0.108335,0.0111 -0.06111,0.0111 -0.119447,0.0556 v -0.27222 h 0.583343 q -0.07222,0.125 -0.125002,0.25278 -0.05,0.125 -0.08333,0.24445 -0.03056,0.11666 -0.04722,0.22222 -0.01389,0.10278 -0.01389,0.18612 0,0.0833 0.01667,0.2 0.01667,0.11667 0.06111,0.24167 0.04722,0.12222 0.125002,0.23334 0.08056,0.11111 0.208337,0.18056 l 0.08333,-0.0611 q -0.05,-0.0944 -0.07778,-0.18055 -0.02778,-0.0889 -0.04167,-0.16667 -0.01111,-0.0778 -0.01389,-0.14167 -0.0028,-0.0667 -0.0028,-0.11945 0,-0.0861 0.02222,-0.19445 0.02222,-0.10833 0.06389,-0.225 0.04167,-0.11667 0.100002,-0.23612 0.06111,-0.11944 0.136114,-0.23333 -0.105558,0 -0.175003,0.0167 -0.06667,0.0167 -0.113891,0.0472 v -0.26667 h 0.60001 q -0.05,0.0694 -0.100002,0.15833 -0.04722,0.0861 -0.08333,0.18889 -0.03611,0.10001 -0.05833,0.2139 -0.02222,0.11389 -0.02222,0.23333 0,0.20278 0.03611,0.36112 0.03611,0.15556 0.100002,0.27501 0.06389,0.11944 0.150003,0.20555 0.08611,0.0861 0.183336,0.14723 v -1.78336 h 0.416674 v 1.66947 q 0,0.0194 -0.02778,0.0555 -0.02778,0.0333 -0.07222,0.0778 -0.04167,0.0444 -0.100002,0.0972 -0.05556,0.05 -0.11389,0.1 -0.138892,0.11667 -0.313895,0.25556 -0.136113,-0.10556 -0.233337,-0.20834 -0.09722,-0.10278 -0.166669,-0.2 z"
         style="font-style:normal;font-variant:normal;font-weight:normal;font-stretch:normal;font-family:'Bradley Gratis';-inkscape-font-specification:'Bradley Gratis';text-align:start;text-anchor:start;stroke-width:0.20833686"
         id="path1578" />
      <path
         d="m 53.389641,148.67795 v -0.69168 h -0.327784 q -0.0028,0.18612 -0.01111,0.36945 -0.0056,0.18056 -0.01389,0.32223 z m 0.566676,-0.81112 q -0.03056,0.0222 -0.05833,0.0556 -0.025,0.0333 -0.04445,0.0722 -0.01667,0.0361 -0.02778,0.0722 -0.01111,0.0333 -0.01111,0.0583 v 1.88892 h -0.425007 v -1.04724 h -0.372229 q -0.0028,0.10001 -0.02778,0.21945 -0.025,0.11667 -0.06945,0.23612 -0.04167,0.11667 -0.100002,0.22778 -0.05556,0.10833 -0.127779,0.19167 -0.06945,0.0833 -0.150003,0.13333 -0.07778,0.05 -0.163892,0.05 -0.05556,0 -0.09722,-0.0333 -0.03889,-0.0333 -0.03889,-0.0944 0,-0.0389 0.025,-0.0556 0.025,-0.0195 0.05278,-0.0195 0.025,0 0.03889,0.008 0.01389,0.006 0.025,0.0167 0.01389,0.008 0.03056,0.0167 0.01667,0.006 0.04722,0.006 0.05,0 0.08056,-0.05 0.03056,-0.0528 0.05,-0.1389 0.01944,-0.0889 0.02778,-0.20278 0.01111,-0.11666 0.01667,-0.24444 0.0056,-0.12778 0.01389,-0.25834 0.0083,-0.13334 0.02222,-0.25556 0.01667,-0.14445 0.05,-0.2639 0.03611,-0.11944 0.075,-0.21111 0.03889,-0.0917 0.07778,-0.15556 0.03889,-0.0639 0.06667,-0.10278 h -0.06111 q -0.05278,0 -0.09722,0.0167 -0.04445,0.0139 -0.08056,0.0333 -0.03333,0.0167 -0.06111,0.0333 -0.025,0.0139 -0.04445,0.0139 -0.04722,0 -0.06945,-0.0333 -0.02222,-0.0333 -0.02222,-0.075 0,-0.0389 0.04167,-0.0722 0.04444,-0.0361 0.122224,-0.0361 z"
         style="font-style:normal;font-variant:normal;font-weight:normal;font-stretch:normal;font-family:'Bradley Gratis';-inkscape-font-specification:'Bradley Gratis';text-align:start;text-anchor:start;stroke-width:0.20833686"
         id="path1580" />
      <path
         d="m 54.57065,150.11131 q -0.06389,-0.0639 -0.147225,-0.125 -0.08056,-0.0611 -0.158336,-0.10834 -0.075,-0.0472 -0.133335,-0.0806 -0.05556,-0.0333 -0.06389,-0.0417 0.02778,-0.0333 0.06945,-0.0917 0.04167,-0.0611 0.08056,-0.11945 0.04167,-0.0583 0.07222,-0.10278 0.03333,-0.0472 0.04167,-0.0555 0.03889,0.025 0.105558,0.0694 0.06945,0.0417 0.136113,0.0889 0.06945,0.0472 0.125002,0.0861 0.05556,0.0389 0.07222,0.0556 0.03889,-0.0222 0.06389,-0.0583 0.02778,-0.0361 0.02778,-0.11667 0,-0.0695 -0.05833,-0.14723 -0.05556,-0.0778 -0.138891,-0.16389 -0.08333,-0.0861 -0.183336,-0.18056 -0.100002,-0.0944 -0.183337,-0.19445 -0.08333,-0.1 -0.141669,-0.20278 -0.05556,-0.10278 -0.05556,-0.21111 0,-0.0778 0.03889,-0.14445 0.04167,-0.0694 0.10278,-0.12778 0.06111,-0.0611 0.133335,-0.10833 0.075,-0.05 0.141669,-0.0917 0.06945,-0.0445 0.122225,-0.0778 0.05278,-0.0361 0.075,-0.0639 0.01667,0.0139 0.07222,0.0694 0.05833,0.0528 0.125003,0.11389 0.06667,0.0611 0.125002,0.10833 0.06111,0.0472 0.08056,0.0472 -0.02778,0.0222 -0.06945,0.0667 -0.03889,0.0417 -0.08056,0.0889 -0.03889,0.0472 -0.07222,0.0917 -0.03056,0.0417 -0.04445,0.0639 -0.06389,-0.0278 -0.127779,-0.0833 -0.06389,-0.0556 -0.116669,-0.10834 -0.05278,-0.0528 -0.08889,-0.0917 -0.03611,-0.0417 -0.04722,-0.0417 -0.02222,0 -0.03889,0.025 -0.01389,0.0222 -0.01389,0.0528 0,0.0667 0.05833,0.14167 0.06111,0.075 0.147225,0.16112 0.08889,0.0833 0.19167,0.17778 0.105557,0.0917 0.19167,0.19167 0.08889,0.1 0.147224,0.20833 0.06111,0.10556 0.06111,0.21668 0,0.1 -0.075,0.21111 -0.075,0.11111 -0.180558,0.22223 -0.10278,0.10833 -0.211115,0.20833 -0.108335,0.0972 -0.177781,0.17223 z"
         style="font-style:normal;font-variant:normal;font-weight:normal;font-stretch:normal;font-family:'Bradley Gratis';-inkscape-font-specification:'Bradley Gratis';text-align:start;text-anchor:start;stroke-width:0.20833686"
         id="path1582" />
      <path
         d="m 56.527368,149.63908 q 0,0.10833 -0.04445,0.18889 -0.04445,0.0778 -0.116668,0.12778 -0.06945,0.05 -0.155558,0.075 -0.08611,0.025 -0.169448,0.025 -0.130557,0 -0.25556,-0.0639 -0.125002,-0.0639 -0.225003,-0.17222 -0.100002,-0.11112 -0.161114,-0.25834 -0.06111,-0.15 -0.06111,-0.32223 0,-0.30834 0.141669,-0.57223 0.141669,-0.26667 0.394451,-0.48334 -0.02222,-0.003 -0.04167,-0.003 -0.01667,-0.003 -0.03611,-0.003 -0.06667,0 -0.141669,0.0222 -0.075,0.0222 -0.141669,0.0583 -0.06667,0.0333 -0.122225,0.075 -0.05278,0.0417 -0.08056,0.0778 0.02222,-0.10834 0.08334,-0.21389 0.06111,-0.10556 0.15278,-0.18612 0.09167,-0.0805 0.211115,-0.13056 0.119447,-0.05 0.261116,-0.05 0.07222,0 0.15278,0.0222 0.08056,0.0222 0.15278,0.0583 0.075,0.0333 0.133336,0.075 0.05833,0.0417 0.08889,0.0806 l -0.227781,0.34723 q -0.138891,-0.13612 -0.300005,-0.19445 -0.03611,0.0583 -0.075,0.13889 -0.03889,0.0778 -0.07222,0.17778 -0.03056,0.1 -0.05278,0.22223 -0.01944,0.11944 -0.01944,0.26111 0,0.13334 0.01944,0.23612 0.02222,0.10278 0.05556,0.17778 0.03333,0.075 0.075,0.125 0.04445,0.05 0.08889,0.0833 0.105558,0.075 0.241671,0.0833 0.05556,0 0.12778,-0.0222 0.075,-0.025 0.119447,-0.0639 z"
         style="font-style:normal;font-variant:normal;font-weight:normal;font-stretch:normal;font-family:'Bradley Gratis';-inkscape-font-specification:'Bradley Gratis';text-align:start;text-anchor:start;stroke-width:0.20833686"
         id="path1584" />
      <path
         d="m 57.919709,147.86683 v 0.3 q -0.03056,-0.0278 -0.08056,-0.0611 -0.04722,-0.0333 -0.10278,-0.0583 -0.05278,-0.0278 -0.105557,-0.0444 -0.05278,-0.0195 -0.08889,-0.0195 -0.06667,0 -0.136113,0.0528 -0.06945,0.0528 -0.113891,0.14167 -0.04444,0.0861 -0.05833,0.22778 -0.01111,0.13889 -0.01111,0.35834 h 0.711123 l -0.141669,0.31667 q -0.02778,-0.0417 -0.06667,-0.0555 -0.03611,-0.0167 -0.06667,-0.0167 h -0.436118 q 0,0.15834 0.0056,0.31112 0.0056,0.15 0.03611,0.26945 0.03333,0.11944 0.100002,0.19444 0.06667,0.0722 0.19167,0.0722 0.06667,0 0.130557,-0.025 0.06667,-0.025 0.122225,-0.0611 0.05556,-0.0389 0.09722,-0.0806 0.04445,-0.0417 0.06945,-0.075 v 0.4 h -0.375006 q -0.269449,0 -0.436119,-0.0944 -0.166669,-0.0972 -0.261115,-0.25834 -0.09167,-0.16389 -0.125002,-0.37778 -0.03056,-0.2139 -0.03056,-0.44723 0,-0.0583 0.0083,-0.15278 0.0083,-0.0972 0.03611,-0.20279 0.02778,-0.10833 0.08056,-0.21667 0.05278,-0.11111 0.141669,-0.19722 0.09167,-0.0889 0.225004,-0.14445 0.133335,-0.0556 0.322227,-0.0556 z"
         style="font-style:normal;font-variant:normal;font-weight:normal;font-stretch:normal;font-family:'Bradley Gratis';-inkscape-font-specification:'Bradley Gratis';text-align:start;text-anchor:start;stroke-width:0.20833686"
         id="path1586" />
      <path
         d="m 58.926756,148.41406 q -0.06945,-0.16667 -0.119447,-0.27779 -0.05,-0.11111 -0.07778,-0.11111 -0.03056,0 -0.04167,0.0278 -0.0083,0.025 -0.0083,0.0444 v 1.50559 q 0,0.0611 -0.03333,0.12778 -0.03333,0.0667 -0.08889,0.11666 0.10278,0 0.183337,-0.05 0.08056,-0.0528 0.166669,-0.11389 0.08889,-0.0639 0.197226,-0.11389 0.108335,-0.0528 0.269449,-0.0528 v 0.49723 h -1.255577 q 0.03611,-0.0528 0.06111,-0.1 0.02778,-0.0472 0.04444,-0.0944 0.01667,-0.0472 0.025,-0.10001 0.0083,-0.0528 0.0083,-0.11666 v -1.31392 q 0,-0.0889 -0.03333,-0.14444 -0.03333,-0.0583 -0.04722,-0.0806 0.01111,-0.003 0.05556,-0.0194 0.04722,-0.0195 0.113891,-0.0445 0.06667,-0.025 0.147224,-0.0528 0.08056,-0.0278 0.158336,-0.05 0.07778,-0.025 0.147225,-0.0389 0.06945,-0.0167 0.113891,-0.0167 0.06945,0 0.130558,0.0389 0.06111,0.0389 0.111113,0.0972 0.05,0.0583 0.08611,0.13056 0.03611,0.0694 0.05833,0.13055 z"
         style="font-style:normal;font-variant:normal;font-weight:normal;font-stretch:normal;font-family:'Bradley Gratis';-inkscape-font-specification:'Bradley Gratis';text-align:start;text-anchor:start;stroke-width:0.20833686"
         id="path1588" />
      <path
         d="m 60.643453,148.67795 v -0.69168 H 60.31567 q -0.0028,0.18612 -0.01111,0.36945 -0.0056,0.18056 -0.01389,0.32223 z m 0.566677,-0.81112 q -0.03056,0.0222 -0.05833,0.0556 -0.025,0.0333 -0.04445,0.0722 -0.01667,0.0361 -0.02778,0.0722 -0.01111,0.0333 -0.01111,0.0583 v 1.88892 h -0.425008 v -1.04724 h -0.372228 q -0.0028,0.10001 -0.02778,0.21945 -0.025,0.11667 -0.06945,0.23612 -0.04167,0.11667 -0.100002,0.22778 -0.05556,0.10833 -0.12778,0.19167 -0.06945,0.0833 -0.150002,0.13333 -0.07778,0.05 -0.163892,0.05 -0.05556,0 -0.09722,-0.0333 -0.03889,-0.0333 -0.03889,-0.0944 0,-0.0389 0.025,-0.0556 0.025,-0.0195 0.05278,-0.0195 0.025,0 0.03889,0.008 0.01389,0.006 0.025,0.0167 0.01389,0.008 0.03056,0.0167 0.01667,0.006 0.04722,0.006 0.05,0 0.08056,-0.05 0.03056,-0.0528 0.05,-0.1389 0.01944,-0.0889 0.02778,-0.20278 0.01111,-0.11666 0.01667,-0.24444 0.0056,-0.12778 0.01389,-0.25834 0.0083,-0.13334 0.02222,-0.25556 0.01667,-0.14445 0.05,-0.2639 0.03611,-0.11944 0.075,-0.21111 0.03889,-0.0917 0.07778,-0.15556 0.03889,-0.0639 0.06667,-0.10278 h -0.06111 q -0.05278,0 -0.09722,0.0167 -0.04445,0.0139 -0.08056,0.0333 -0.03333,0.0167 -0.06111,0.0333 -0.025,0.0139 -0.04444,0.0139 -0.04722,0 -0.06945,-0.0333 -0.02222,-0.0333 -0.02222,-0.075 0,-0.0389 0.04167,-0.0722 0.04445,-0.0361 0.122225,-0.0361 z"
         style="font-style:normal;font-variant:normal;font-weight:normal;font-stretch:normal;font-family:'Bradley Gratis';-inkscape-font-specification:'Bradley Gratis';text-align:start;text-anchor:start;stroke-width:0.20833686"
         id="path1590" />
      <path
         d="m 61.446678,150.01408 v -1.91947 q 0,-0.0778 -0.03333,-0.13056 -0.03333,-0.0556 -0.06667,-0.0972 h 0.538898 v 0.28333 l 0.308339,-0.35834 q 0.141669,0.12778 0.233337,0.25556 0.09167,0.12501 0.144447,0.25279 0.05278,0.125 0.07222,0.25556 0.01944,0.12778 0.01944,0.26389 0,0.13333 -0.02222,0.25556 -0.01944,0.11945 -0.05833,0.23611 -0.03889,0.11667 -0.09445,0.23612 -0.05278,0.11945 -0.116669,0.25 h 0.100002 q 0.03611,0 0.075,-0.025 0.03889,-0.025 0.07778,-0.025 v 0.26667 h -0.538898 q 0.075,-0.15278 0.119446,-0.275 0.04722,-0.12223 0.07222,-0.23334 0.025,-0.11111 0.03333,-0.21667 0.0083,-0.10556 0.0083,-0.225 0,-0.11945 -0.04167,-0.24723 -0.03889,-0.13056 -0.09722,-0.23889 -0.05833,-0.10834 -0.125003,-0.17778 -0.06389,-0.0694 -0.116668,-0.0694 -0.03333,0 -0.05278,0.0167 v 1.66669 z"
         style="font-style:normal;font-variant:normal;font-weight:normal;font-stretch:normal;font-family:'Bradley Gratis';-inkscape-font-specification:'Bradley Gratis';text-align:start;text-anchor:start;stroke-width:0.20833686"
         id="path1592" />
      <path
         d="m 62.934029,148.06127 q -0.07222,-0.0306 -0.100001,-0.075 -0.02778,-0.0444 -0.02778,-0.0833 0,-0.0333 0.02222,-0.0417 0.02222,0.0139 0.06111,0.0194 0.03889,0.006 0.08889,0.006 0.025,0 0.06944,-0.008 0.04722,-0.008 0.10278,-0.0167 0.05556,-0.008 0.113891,-0.0167 0.06111,-0.008 0.11389,-0.008 0.12778,0 0.261116,0.0667 0.133335,0.0639 0.238893,0.2 0.105557,0.13334 0.172225,0.34167 0.06945,0.20556 0.06945,0.49168 0,0.24167 -0.04167,0.41667 -0.04167,0.175 -0.105557,0.29723 -0.06389,0.12222 -0.141669,0.19722 -0.07778,0.0722 -0.152781,0.1139 -0.07222,0.0389 -0.133335,0.0528 -0.05833,0.0139 -0.08611,0.0139 -0.04167,0 -0.08889,-0.0111 -0.04722,-0.0111 -0.09445,-0.025 -0.04445,-0.0139 -0.08611,-0.025 -0.03889,-0.0111 -0.06667,-0.0111 -0.03056,0 -0.05556,0.0111 -0.025,0.008 -0.05278,0.0195 -0.025,0.008 -0.05556,0.0194 -0.03056,0.008 -0.06945,0.008 -0.01389,0 -0.03056,-0.003 -0.01389,-0.003 -0.02778,-0.008 -0.01389,-0.006 -0.02778,-0.0139 0.02222,-0.0139 0.04445,-0.0472 0.02222,-0.0361 0.04167,-0.075 0.02222,-0.0417 0.04445,-0.0917 z m 0.408341,1.65559 q 0,0.0583 0.01944,0.0917 0.02222,0.0306 0.04722,0.0445 0.03056,0.0167 0.06667,0.0194 0.06389,0 0.111113,-0.0861 0.05,-0.0861 0.05,-0.21945 v -1.21946 q 0,-0.13056 -0.025,-0.20278 -0.025,-0.0722 -0.05833,-0.10556 -0.03333,-0.0333 -0.06667,-0.0389 -0.03333,-0.008 -0.05278,-0.008 -0.03333,0 -0.06389,0.0444 -0.02778,0.0445 -0.02778,0.11667 z"
         style="font-style:normal;font-variant:normal;font-weight:normal;font-stretch:normal;font-family:'Bradley Gratis';-inkscape-font-specification:'Bradley Gratis';text-align:start;text-anchor:start;stroke-width:0.20833686"
         id="path1594" />
    </g>
    <path
       style="fill:#141414;fill-opacity:1;stroke-width:0.2232967"
       d="M 43.61298,75.789001 H 58.429647 V 90.605669 H 43.61298 Z"
       id="rect4735-3" />
    <g
       aria-label="SKEW"
       style="font-style:normal;font-variant:normal;font-weight:normal;font-stretch:normal;font-size:3.52777767px;line-height:1.25;font-family:Homenaje;-inkscape-font-specification:Homenaje;letter-spacing:0px;word-spacing:0px;fill:#ffffff;fill-opacity:1;stroke:none;stroke-width:0.26458332"
       id="text5443-7">
      <path
         d="m 47.909107,95.096013 q 0.160866,0 0.231422,-0.09596 0.07338,-0.09596 0.07338,-0.222956 0,-0.127 -0.04798,-0.214489 -0.04516,-0.09031 -0.115711,-0.141111 -0.07056,-0.05362 -0.1524,-0.115711 -0.08185,-0.06209 -0.1524,-0.118533 -0.07056,-0.05927 -0.118534,-0.158045 -0.04515,-0.09878 -0.04515,-0.225777 0,-0.225778 0.135467,-0.361245 0.135466,-0.135467 0.375355,-0.135467 h 0.2286 v 0.186267 H 48.10384 q -0.135467,0 -0.206022,0.08749 -0.07056,0.08749 -0.07056,0.189089 0,0.1016 0.04516,0.174978 0.04798,0.07338 0.118533,0.121355 0.07056,0.04798 0.1524,0.112889 0.08467,0.06491 0.155222,0.132645 0.07056,0.06491 0.115711,0.1778 0.04798,0.112888 0.04798,0.256822 0,0.265289 -0.1524,0.400755 -0.149578,0.135467 -0.412044,0.135467 h -0.296334 v -0.186267 z"
         style="font-style:normal;font-variant:normal;font-weight:normal;font-stretch:normal;font-size:2.82222223px;font-family:Homenaje;-inkscape-font-specification:Homenaje;stroke-width:0.26458332"
         id="path1598" />
      <path
         d="m 48.977671,95.28228 h -0.239889 v -1.975556 h 0.239889 v 0.8636 l 0.5842,-0.8636 h 0.245533 l -0.575733,0.880534 0.6604,1.095022 h -0.251178 l -0.553156,-0.920044 -0.110066,0.141111 z"
         style="font-style:normal;font-variant:normal;font-weight:normal;font-stretch:normal;font-size:2.82222223px;font-family:Homenaje;-inkscape-font-specification:Homenaje;stroke-width:0.26458332"
         id="path1600" />
      <path
         d="m 50.104796,95.28228 v -1.975556 h 0.860777 v 0.191912 h -0.612422 v 0.632177 h 0.496711 v 0.191911 h -0.496711 v 0.767645 h 0.640645 v 0.191911 z"
         style="font-style:normal;font-variant:normal;font-weight:normal;font-stretch:normal;font-size:2.82222223px;font-family:Homenaje;-inkscape-font-specification:Homenaje;stroke-width:0.26458332"
         id="path1602" />
      <path
         d="m 52.06549,93.820369 h 0.265289 l 0.265289,1.222022 0.333022,-1.735667 h 0.245534 l -0.409222,1.975556 h -0.333023 l -0.231422,-1.182511 -0.2286,1.182511 h -0.333022 l -0.417689,-1.975556 h 0.245533 l 0.335845,1.735667 z"
         style="font-style:normal;font-variant:normal;font-weight:normal;font-stretch:normal;font-size:2.82222223px;font-family:Homenaje;-inkscape-font-specification:Homenaje;stroke-width:0.26458332"
         id="path1604" />
    </g>
    <g
       aria-label="OUT"
       transform="scale(0.9999876,1.0000124)"
       style="font-style:normal;font-variant:normal;font-weight:normal;font-stretch:normal;font-size:3.5277338px;line-height:1.25;font-family:Homenaje;-inkscape-font-specification:Homenaje;letter-spacing:0px;word-spacing:0px;fill:#ffffff;fill-opacity:1;stroke:none;stroke-width:0.26458004"
       id="text4978-4-9">
      <path
         d="m 38.344338,140.36676 q 0,0.23988 -0.138287,0.37535 -0.138288,0.13264 -0.403573,0.13264 -0.262464,0 -0.400751,-0.13264 -0.138287,-0.13547 -0.138287,-0.37535 v -0.99906 q 0,-0.23988 0.138287,-0.37253 0.138287,-0.13546 0.400751,-0.13546 0.265285,0 0.403573,0.13546 0.138287,0.13265 0.138287,0.37253 z m -0.832545,0.048 q 0,0.12983 0.08184,0.2032 0.08467,0.0706 0.208842,0.0706 0.124176,0 0.208842,-0.0706 0.08467,-0.0734 0.08467,-0.2032 v -1.095 q 0,-0.12982 -0.08467,-0.20038 -0.08467,-0.0734 -0.208842,-0.0734 -0.124176,0 -0.208842,0.0734 -0.08184,0.0706 -0.08184,0.20038 z"
         style="font-style:normal;font-variant:normal;font-weight:normal;font-stretch:normal;font-size:2.82218719px;font-family:Homenaje;-inkscape-font-specification:Homenaje;stroke-width:0.26458004"
         id="path1607" />
      <path
         d="m 38.58634,138.87946 h 0.248353 v 1.53527 q 0,0.13547 0.06491,0.20602 0.06773,0.0677 0.186265,0.0677 0.118531,0 0.186264,-0.0677 0.06773,-0.0705 0.06773,-0.20602 v -1.53527 h 0.248353 v 1.4873 q 0,0.50799 -0.502349,0.50799 -0.499528,0 -0.499528,-0.50799 z"
         style="font-style:normal;font-variant:normal;font-weight:normal;font-stretch:normal;font-size:2.82218719px;font-family:Homenaje;-inkscape-font-specification:Homenaje;stroke-width:0.26458004"
         id="path1609" />
      <path
         d="m 40.162267,140.855 v -1.78927 h -0.395106 v -0.18627 h 1.038565 v 0.18627 H 40.41062 v 1.78927 z"
         style="font-style:normal;font-variant:normal;font-weight:normal;font-stretch:normal;font-size:2.82218719px;font-family:Homenaje;-inkscape-font-specification:Homenaje;stroke-width:0.26458004"
         id="path1611" />
    </g>
    <g
       style="font-style:normal;font-variant:normal;font-weight:bold;font-stretch:normal;font-size:13.33333302px;line-height:1.25;font-family:Consolas;-inkscape-font-specification:'Consolas Bold';text-align:center;letter-spacing:0px;word-spacing:0px;text-anchor:middle;fill:#ffffff;fill-opacity:1;stroke:none"
       id="flowRoot5761" />
    <g
       style="font-style:normal;font-variant:normal;font-weight:bold;font-stretch:normal;font-size:13.33333302px;line-height:1.25;font-family:Consolas;-inkscape-font-specification:'Consolas Bold';text-align:center;letter-spacing:0px;word-spacing:0px;text-anchor:middle;fill:#ffffff;fill-opacity:1;stroke:none"
       id="flowRoot5769" />
    <path
       style="fill:none;stroke:#ffffff;stroke-width:0.13229167;stroke-linecap:butt;stroke-linejoin:miter;stroke-miterlimit:4;stroke-dasharray:none;stroke-opacity:1"
       d="m 45.680036,127.08766 0.529167,-0.95911 0.578776,0.89297"
       id="path870"
       inkscape:connector-curvature="0"
       sodipodi:nodetypes="ccc" />
    <path
       style="fill:none;stroke:#ffffff;stroke-width:0.13229167;stroke-linecap:butt;stroke-linejoin:miter;stroke-miterlimit:4;stroke-dasharray:none;stroke-opacity:1"
       d="m 45.200479,118.62674 h 0.760677 v -1.02526 h 0.628385 v 1.0418 h 0.396875"
       id="path872"
       inkscape:connector-curvature="0" />
    <g
       aria-label="PHASE"
       style="font-style:normal;font-variant:normal;font-weight:normal;font-stretch:normal;font-size:3.52777767px;line-height:1.25;font-family:Homenaje;-inkscape-font-specification:Homenaje;letter-spacing:0px;word-spacing:0px;fill:#ffffff;fill-opacity:1;stroke:none;stroke-width:0.26458332"
       id="text5443-7-3">
      <path
         d="m 59.207166,93.492983 v 0.733778 h 0.180623 q 0.160866,0 0.248355,-0.110066 0.09031,-0.110067 0.09031,-0.285045 0,-0.338667 -0.338666,-0.338667 z m 0.767645,0.338667 q 0,0.273756 -0.149578,0.428978 -0.146756,0.1524 -0.420511,0.1524 h -0.197556 v 0.869244 h -0.248355 v -1.975555 h 0.499533 q 0.516467,0 0.516467,0.524933 z"
         style="font-style:normal;font-variant:normal;font-weight:normal;font-stretch:normal;font-size:2.82222223px;font-family:Homenaje;-inkscape-font-specification:Homenaje;stroke-width:0.26458332"
         id="path1616" />
      <path
         d="m 61.047608,94.328361 h -0.561622 v 0.953911 H 60.23763 v -1.975555 h 0.248356 v 0.835378 h 0.561622 v -0.835378 h 0.248356 v 1.975555 h -0.248356 z"
         style="font-style:normal;font-variant:normal;font-weight:normal;font-stretch:normal;font-size:2.82222223px;font-family:Homenaje;-inkscape-font-specification:Homenaje;stroke-width:0.26458332"
         id="path1618" />
      <path
         d="m 62.005708,93.306717 h 0.375356 l 0.428978,1.975555 H 62.578619 L 62.44033,94.700895 h -0.513644 l -0.127,0.581377 h -0.239889 z m 0.392289,1.202266 -0.2032,-1.016 h -0.01976 l -0.206023,1.016 z"
         style="font-style:normal;font-variant:normal;font-weight:normal;font-stretch:normal;font-size:2.82222223px;font-family:Homenaje;-inkscape-font-specification:Homenaje;stroke-width:0.26458332"
         id="path1620" />
      <path
         d="m 63.344632,95.096006 q 0.160867,0 0.231422,-0.09596 0.07338,-0.09596 0.07338,-0.222955 0,-0.127 -0.04798,-0.214489 -0.04515,-0.09031 -0.115711,-0.141111 -0.07055,-0.05362 -0.1524,-0.115712 -0.08184,-0.06209 -0.1524,-0.118533 -0.07055,-0.05927 -0.118533,-0.158044 -0.04516,-0.09878 -0.04516,-0.225778 0,-0.225778 0.135467,-0.361245 0.135467,-0.135466 0.375356,-0.135466 h 0.2286 v 0.186266 h -0.217312 q -0.135466,0 -0.206022,0.08749 -0.07055,0.08749 -0.07055,0.189089 0,0.1016 0.04516,0.174978 0.04798,0.07338 0.118534,0.121356 0.07055,0.04798 0.1524,0.112888 0.08467,0.06491 0.155222,0.132645 0.07055,0.06491 0.115711,0.1778 0.04798,0.112889 0.04798,0.256822 0,0.265289 -0.1524,0.400756 -0.149578,0.135466 -0.412045,0.135466 H 63.03701 v -0.186266 z"
         style="font-style:normal;font-variant:normal;font-weight:normal;font-stretch:normal;font-size:2.82222223px;font-family:Homenaje;-inkscape-font-specification:Homenaje;stroke-width:0.26458332"
         id="path1622" />
      <path
         d="m 64.173307,95.282272 v -1.975555 h 0.860778 v 0.191911 h -0.612422 v 0.632178 h 0.496711 v 0.191911 h -0.496711 v 0.767644 h 0.640644 v 0.191911 z"
         style="font-style:normal;font-variant:normal;font-weight:normal;font-stretch:normal;font-size:2.82222223px;font-family:Homenaje;-inkscape-font-specification:Homenaje;stroke-width:0.26458332"
         id="path1624" />
    </g>
    <g
       aria-label="90"
       style="font-style:normal;font-weight:normal;font-size:3.52777767px;line-height:1.25;font-family:sans-serif;letter-spacing:0px;word-spacing:0px;fill:#ffffff;fill-opacity:1;stroke:none;stroke-width:0.26458332"
       id="text5443-0-4-9-8">
      <path
         d="m 56.082264,99.832219 v -0.338667 h -0.28575 q -0.277284,0 -0.277284,-0.28575 v -0.31115 q 0,-0.13335 0.110067,-0.205316 0.110067,-0.07197 0.262467,-0.07197 0.154516,0 0.264583,0.07408 0.110067,0.07197 0.110067,0.205317 v 0.95885 q 0,0.12065 -0.09313,0.190501 -0.09102,0.0677 -0.2667,0.0677 h -0.281516 v -0.139698 h 0.2794 q 0.1778,0 0.1778,-0.143933 z m -0.376767,-0.944033 v 0.3048 q 0,0.08467 0.02752,0.122766 0.02752,0.03598 0.1143,0.03598 h 0.23495 v -0.461434 q 0,-0.06985 -0.05503,-0.09948 -0.05292,-0.03175 -0.131233,-0.03175 -0.0762,0 -0.13335,0.02963 -0.05715,0.02963 -0.05715,0.09948 z"
         style="font-style:normal;font-variant:normal;font-weight:bold;font-stretch:normal;font-size:2.11666656px;font-family:Homenaje;-inkscape-font-specification:'Homenaje Bold';stroke-width:0.26458332"
         id="path1627" />
      <path
         d="m 57.232804,98.860669 v 1.007533 q 0,0.127 -0.09948,0.194738 -0.09737,0.0677 -0.254,0.0677 -0.156633,0 -0.256117,-0.0677 -0.09737,-0.06774 -0.09737,-0.194738 v -1.007533 q 0,-0.124883 0.09525,-0.182033 0.09737,-0.05927 0.258233,-0.05927 0.160867,0 0.256117,0.05927 0.09737,0.05715 0.09737,0.182033 z m -0.5207,0.03598 v 0.9652 q 0,0.124884 0.167217,0.124884 0.167217,0 0.167217,-0.124884 v -0.9652 q 0,-0.129116 -0.167217,-0.129116 -0.167217,0 -0.167217,0.129116 z"
         style="font-style:normal;font-variant:normal;font-weight:bold;font-stretch:normal;font-size:2.11666656px;font-family:Homenaje;-inkscape-font-specification:'Homenaje Bold';stroke-width:0.26458332"
         id="path1629" />
      <path
         d="m 58.031052,99.152769 q 0,0.0762 -0.06985,0.118533 -0.06773,0.04022 -0.162983,0.04022 -0.09525,0 -0.1651,-0.04022 -0.06773,-0.04233 -0.06773,-0.118533 v -0.38735 q 0,-0.07408 0.06562,-0.110067 0.06773,-0.03598 0.167217,-0.03598 0.09948,0 0.1651,0.03598 0.06773,0.03598 0.06773,0.110067 z m -0.353483,-0.366183 v 0.359833 q 0,0.07408 0.12065,0.07408 0.12065,0 0.12065,-0.07408 v -0.359833 q 0,-0.0762 -0.12065,-0.0762 -0.12065,0 -0.12065,0.0762 z"
         style="font-style:normal;font-variant:normal;font-weight:bold;font-stretch:normal;font-size:2.11666656px;font-family:Homenaje;-inkscape-font-specification:'Homenaje Bold';stroke-width:0.26458332"
         id="path1631" />
    </g>
    <g
       id="g1445">
      <path
         style="fill:#999999;fill-opacity:1;stroke-width:0.10052509"
         d="m 36.204647,58.855671 h 9.592733 v 4.7625 h -9.592733 z"
         id="rect6948-0" />
      <path
         style="fill:#323232;fill-opacity:1;stroke-width:0.09300231"
         d="m 36.520828,59.120251 h 8.995834 v 4.233333 h -8.995834 z"
         id="rect4735-6" />
    </g>
    <g
       aria-label="SLOPE"
       style="font-style:normal;font-variant:normal;font-weight:normal;font-stretch:normal;font-size:3.52777767px;line-height:1.25;font-family:Homenaje;-inkscape-font-specification:Homenaje;letter-spacing:0px;word-spacing:0px;fill:#ffffff;fill-opacity:1;stroke:none;stroke-width:0.26458332"
       id="text5443-7-7">
      <path
         d="m 37.061191,95.162153 q 0.160867,0 0.231422,-0.09596 0.07338,-0.09596 0.07338,-0.222956 0,-0.127 -0.04798,-0.214488 -0.04516,-0.09031 -0.115711,-0.141112 -0.07056,-0.05362 -0.1524,-0.115711 -0.08184,-0.06209 -0.1524,-0.118533 -0.07056,-0.05927 -0.118533,-0.158044 -0.04516,-0.09878 -0.04516,-0.225778 0,-0.225778 0.135467,-0.361245 0.135467,-0.135466 0.375355,-0.135466 h 0.2286 v 0.186266 h -0.217311 q -0.135466,0 -0.206022,0.08749 -0.07056,0.08749 -0.07056,0.189089 0,0.1016 0.04516,0.174978 0.04798,0.07338 0.118533,0.121355 0.07056,0.04798 0.1524,0.112889 0.08467,0.06491 0.155223,0.132645 0.07056,0.06491 0.115711,0.1778 0.04798,0.112889 0.04798,0.256822 0,0.265289 -0.1524,0.400756 -0.149578,0.135466 -0.412045,0.135466 h -0.296333 v -0.186266 z"
         style="font-style:normal;font-variant:normal;font-weight:normal;font-stretch:normal;font-size:2.82222223px;font-family:Homenaje;-inkscape-font-specification:Homenaje;stroke-width:0.26458332"
         id="path1636" />
      <path
         d="m 37.889866,95.348419 v -1.975555 h 0.248356 v 1.789289 h 0.578555 v 0.186266 z"
         style="font-style:normal;font-variant:normal;font-weight:normal;font-stretch:normal;font-size:2.82222223px;font-family:Homenaje;-inkscape-font-specification:Homenaje;stroke-width:0.26458332"
         id="path1638" />
      <path
         d="m 39.955468,94.860175 q 0,0.239889 -0.138289,0.375355 -0.138289,0.132645 -0.403578,0.132645 -0.262466,0 -0.400755,-0.132645 -0.138289,-0.135466 -0.138289,-0.375355 v -0.999067 q 0,-0.239889 0.138289,-0.372533 0.138289,-0.135467 0.400755,-0.135467 0.265289,0 0.403578,0.135467 0.138289,0.132644 0.138289,0.372533 z m -0.832555,0.04798 q 0,0.129822 0.08184,0.2032 0.08467,0.07056 0.208844,0.07056 0.124178,0 0.208845,-0.07056 0.08467,-0.07338 0.08467,-0.2032 V 93.81313 q 0,-0.129822 -0.08467,-0.200377 -0.08467,-0.07338 -0.208845,-0.07338 -0.124177,0 -0.208844,0.07338 -0.08184,0.07055 -0.08184,0.200377 z"
         style="font-style:normal;font-variant:normal;font-weight:normal;font-stretch:normal;font-size:2.82222223px;font-family:Homenaje;-inkscape-font-specification:Homenaje;stroke-width:0.26458332"
         id="path1640" />
      <path
         d="m 40.530496,93.55913 v 0.733778 h 0.180622 q 0.160867,0 0.248356,-0.110067 0.09031,-0.110066 0.09031,-0.285044 0,-0.338667 -0.338667,-0.338667 z m 0.767644,0.338667 q 0,0.273756 -0.149578,0.428978 -0.146755,0.1524 -0.420511,0.1524 h -0.197555 v 0.869244 H 40.28214 v -1.975555 h 0.499534 q 0.516466,0 0.516466,0.524933 z"
         style="font-style:normal;font-variant:normal;font-weight:normal;font-stretch:normal;font-size:2.82222223px;font-family:Homenaje;-inkscape-font-specification:Homenaje;stroke-width:0.26458332"
         id="path1642" />
      <path
         d="m 41.56096,95.348419 v -1.975555 h 0.860778 v 0.191911 h -0.612423 v 0.632178 h 0.496711 v 0.191911 h -0.496711 v 0.767644 h 0.640645 v 0.191911 z"
         style="font-style:normal;font-variant:normal;font-weight:normal;font-stretch:normal;font-size:2.82222223px;font-family:Homenaje;-inkscape-font-specification:Homenaje;stroke-width:0.26458332"
         id="path1644" />
    </g>
    <g
       aria-label="MULTIPLY"
       style="font-style:normal;font-variant:normal;font-weight:normal;font-stretch:normal;font-size:3.52777767px;line-height:1.25;font-family:Homenaje;-inkscape-font-specification:Homenaje;letter-spacing:0px;word-spacing:0px;fill:#ffffff;fill-opacity:1;stroke:none;stroke-width:0.26458332"
       id="text5443-7-7-1">
      <path
         d="m 36.982159,58.159737 h -0.248355 v -1.975556 h 0.375355 l 0.378178,1.1684 h 0.01976 l 0.386645,-1.1684 h 0.361244 v 1.975556 h -0.248355 v -1.679223 l -0.378178,1.154289 h -0.268111 l -0.378178,-1.157111 z"
         style="font-style:normal;font-variant:normal;font-weight:normal;font-stretch:normal;font-size:2.82222223px;font-family:Homenaje;-inkscape-font-specification:Homenaje;stroke-width:0.26458332"
         id="path1647" />
      <path
         d="m 38.551491,56.184181 h 0.248356 v 1.535289 q 0,0.135467 0.06491,0.206022 0.06773,0.06773 0.186266,0.06773 0.118534,0 0.186267,-0.06773 0.06773,-0.07055 0.06773,-0.206022 v -1.535289 h 0.248356 v 1.487311 q 0,0.508 -0.502356,0.508 -0.499533,0 -0.499533,-0.508 z"
         style="font-style:normal;font-variant:normal;font-weight:normal;font-stretch:normal;font-size:2.82222223px;font-family:Homenaje;-inkscape-font-specification:Homenaje;stroke-width:0.26458332"
         id="path1649" />
      <path
         d="m 39.881904,58.159737 v -1.975556 h 0.248356 v 1.789289 h 0.578555 v 0.186267 z"
         style="font-style:normal;font-variant:normal;font-weight:normal;font-stretch:normal;font-size:2.82222223px;font-family:Homenaje;-inkscape-font-specification:Homenaje;stroke-width:0.26458332"
         id="path1651" />
      <path
         d="m 41.070016,58.159737 v -1.789289 h -0.395111 v -0.186267 h 1.038577 v 0.186267 h -0.395111 v 1.789289 z"
         style="font-style:normal;font-variant:normal;font-weight:normal;font-stretch:normal;font-size:2.82222223px;font-family:Homenaje;-inkscape-font-specification:Homenaje;stroke-width:0.26458332"
         id="path1653" />
      <path
         d="m 41.976522,58.159737 v -1.975556 h 0.248356 v 1.975556 z"
         style="font-style:normal;font-variant:normal;font-weight:normal;font-stretch:normal;font-size:2.82222223px;font-family:Homenaje;-inkscape-font-specification:Homenaje;stroke-width:0.26458332"
         id="path1655" />
      <path
         d="m 42.886336,56.370448 v 0.733778 h 0.180622 q 0.160867,0 0.248356,-0.110067 0.09031,-0.110067 0.09031,-0.285045 0,-0.338666 -0.338667,-0.338666 z m 0.767644,0.338666 q 0,0.273756 -0.149577,0.428978 -0.146756,0.1524 -0.420511,0.1524 h -0.197556 v 0.869245 H 42.63798 v -1.975556 h 0.499534 q 0.516466,0 0.516466,0.524933 z"
         style="font-style:normal;font-variant:normal;font-weight:normal;font-stretch:normal;font-size:2.82222223px;font-family:Homenaje;-inkscape-font-specification:Homenaje;stroke-width:0.26458332"
         id="path1657" />
      <path
         d="m 43.9168,58.159737 v -1.975556 h 0.248356 v 1.789289 h 0.578555 v 0.186267 z"
         style="font-style:normal;font-variant:normal;font-weight:normal;font-stretch:normal;font-size:2.82222223px;font-family:Homenaje;-inkscape-font-specification:Homenaje;stroke-width:0.26458332"
         id="path1659" />
      <path
         d="m 45.224768,58.159737 h -0.248356 v -0.784578 l -0.397933,-1.190978 h 0.248355 l 0.282222,0.934156 0.287867,-0.934156 h 0.248356 l -0.420511,1.190978 z"
         style="font-style:normal;font-variant:normal;font-weight:normal;font-stretch:normal;font-size:2.82222223px;font-family:Homenaje;-inkscape-font-specification:Homenaje;stroke-width:0.26458332"
         id="path1661" />
    </g>
    <g
       aria-label=":"
       style="font-style:normal;font-weight:normal;font-size:3.52777791px;line-height:1.25;font-family:sans-serif;letter-spacing:0px;word-spacing:0px;fill:#ffffff;fill-opacity:1;stroke:none;stroke-width:0.26458332"
       id="text5443-7-7-1-0">
      <path
         d="m 50.184153,60.647465 q 0,0.07235 -0.01206,0.120578 -0.01206,0.04823 -0.04134,0.07924 -0.02756,0.03101 -0.07407,0.04479 -0.04651,0.01206 -0.117133,0.01206 -0.07062,0 -0.117133,-0.01206 -0.04651,-0.01378 -0.07579,-0.04479 -0.02756,-0.03101 -0.0379,-0.07924 -0.01034,-0.04823 -0.01034,-0.120578 0,-0.07407 0.01034,-0.124023 0.01033,-0.04995 0.0379,-0.08096 0.02928,-0.03101 0.07579,-0.04479 0.04651,-0.01378 0.117133,-0.01378 0.07062,0 0.117133,0.01378 0.04651,0.01378 0.07407,0.04479 0.02928,0.03101 0.04134,0.08096 0.01206,0.04995 0.01206,0.124023 z m 0,1.124824 q 0,0.07235 -0.01206,0.122301 -0.01206,0.04823 -0.04134,0.07924 -0.02756,0.03101 -0.07407,0.04306 -0.04651,0.01378 -0.117133,0.01378 -0.07062,0 -0.117133,-0.01378 -0.04651,-0.01206 -0.07579,-0.04306 -0.02756,-0.03101 -0.0379,-0.07924 -0.01034,-0.04995 -0.01034,-0.122301 0,-0.07235 0.01034,-0.122301 0.01033,-0.05168 0.0379,-0.08268 0.02928,-0.03101 0.07579,-0.04306 0.04651,-0.01378 0.117133,-0.01378 0.07062,0 0.117133,0.01378 0.04651,0.01206 0.07407,0.04306 0.02928,0.03101 0.04134,0.08268 0.01206,0.04995 0.01206,0.122301 z"
         style="font-style:normal;font-variant:normal;font-weight:bold;font-stretch:normal;font-size:3.52777791px;font-family:Calibri;-inkscape-font-specification:'Calibri Bold';stroke-width:0.26458332"
         id="path1664" />
    </g>
    <g
       id="g346"
       transform="matrix(0.12402883,0,0,0.12402883,40.975365,97.501149)"
       style="stroke:#ffffff;stroke-width:1.06662023;stroke-miterlimit:4;stroke-dasharray:none;stroke-opacity:1">
      <!-- <text font-size="6pt" letter-spacing="2px" transform="translate(6.5 40)">SIN</text> -->
      <g
         id="g344"
         transform="translate(9,33.5)"
         style="stroke:#ffffff;stroke-width:1.06662023;stroke-miterlimit:4;stroke-dasharray:none;stroke-opacity:1">
        <!-- <rect width="12" height="8" fill="none" stroke-width="1" stroke="#0f0" /> -->
        <path
           style="fill:none;stroke:#ffffff;stroke-width:1.06662023;stroke-miterlimit:4;stroke-dasharray:none;stroke-opacity:1"
           inkscape:connector-curvature="0"
           id="path340"
           d="M 0,4 A 3,4.5 0 0 1 6,4" />
        <path
           style="fill:none;stroke:#ffffff;stroke-width:1.06662023;stroke-miterlimit:4;stroke-dasharray:none;stroke-opacity:1"
           inkscape:connector-curvature="0"
           id="path342"
           d="m 6,4 a 3,4.5 0 0 0 6,0" />
      </g>
    </g>
    <g
       style="font-style:normal;font-variant:normal;font-weight:bold;font-stretch:normal;font-size:13.33333302px;line-height:1.25;font-family:Consolas;-inkscape-font-specification:'Consolas Bold';text-align:center;letter-spacing:0px;word-spacing:0px;text-anchor:middle;fill:#000000;fill-opacity:1;stroke:none"
       id="flowRoot3926" />
    <g
       style="font-style:normal;font-variant:normal;font-weight:bold;font-stretch:normal;font-size:13.33333302px;line-height:1.25;font-family:Consolas;-inkscape-font-specification:'Consolas Bold';text-align:center;letter-spacing:0px;word-spacing:0px;text-anchor:middle;fill:#000000;fill-opacity:1;stroke:none"
       id="flowRoot3934" />
    <g
       id="g1449">
      <path
         style="fill:#999999;fill-opacity:1;stroke-width:0.10016956"
         d="m 53.865585,58.855671 h 9.525001 v 4.7625 h -9.525001 z"
         id="rect6948-0-2" />
      <path
         style="fill:#323232;fill-opacity:1;stroke-width:0.09300231"
         d="m 54.115623,59.120251 h 8.995834 v 4.233333 h -8.995834 z"
         id="rect4735-6-8" />
    </g>
    <g
       aria-label="+180"
       transform="scale(0.9999876,1.0000124)"
       style="font-style:normal;font-variant:normal;font-weight:normal;font-stretch:normal;font-size:3.52773356px;line-height:1.25;font-family:Homenaje;-inkscape-font-specification:Homenaje;letter-spacing:0px;word-spacing:0px;fill:#ffffff;fill-opacity:1;stroke:none;stroke-width:0.26458004"
       id="text4978-4-9-8">
      <path
         d="m 60.68957,139.80516 h 0.445905 v 0.18626 H 60.68957 v 0.57573 h -0.225775 v -0.57573 h -0.445906 v -0.18626 h 0.445906 v -0.53622 h 0.225775 z"
         style="font-style:normal;font-variant:normal;font-weight:normal;font-stretch:normal;font-size:2.82218695px;font-family:Homenaje;-inkscape-font-specification:Homenaje;stroke-width:0.26458004"
         id="path1671" />
      <path
         d="m 61.913517,140.85501 v -1.78927 h -0.24553 v -0.18626 h 0.493882 v 1.97553 z"
         style="font-style:normal;font-variant:normal;font-weight:normal;font-stretch:normal;font-size:2.82218695px;font-family:Homenaje;-inkscape-font-specification:Homenaje;stroke-width:0.26458004"
         id="path1673" />
      <path
         d="m 62.537,139.59349 v -0.36406 q 0,-0.36971 0.460016,-0.36971 0.225775,0 0.341485,0.1016 0.118532,0.1016 0.118532,0.26811 v 0.36406 q 0,0.16087 -0.146754,0.26247 0.169331,0.11571 0.169331,0.27657 v 0.39229 q 0,0.16086 -0.124176,0.25399 -0.124176,0.0931 -0.358418,0.0931 -0.493882,0 -0.493882,-0.34712 v -0.39229 q 0,-0.16651 0.174975,-0.27657 Q 62.537,139.75718 62.537,139.59349 Z m 0.214486,0.57291 v 0.33019 q 0,0.18909 0.239886,0.18909 0.239886,0 0.239886,-0.18909 v -0.33019 q 0,-0.0988 -0.05927,-0.15805 -0.05927,-0.0593 -0.177798,-0.0593 -0.118532,0 -0.18062,0.0621 -0.06209,0.0593 -0.06209,0.15522 z m 0.242708,-0.41769 q 0.214486,0 0.214486,-0.18626 v -0.30197 q 0,-0.17216 -0.09313,-0.20038 -0.04233,-0.0141 -0.143931,-0.0141 -0.101599,0 -0.143932,0.0536 -0.04233,0.0536 -0.04233,0.16087 l 0.0028,0.30197 q 0,0.0988 0.04515,0.14393 0.04516,0.0423 0.160864,0.0423 z"
         style="font-style:normal;font-variant:normal;font-weight:normal;font-stretch:normal;font-size:2.82218695px;font-family:Homenaje;-inkscape-font-specification:Homenaje;stroke-width:0.26458004"
         id="path1675" />
      <path
         d="m 64.771334,139.18145 v 1.34337 q 0,0.16933 -0.132643,0.25964 -0.12982,0.0903 -0.338662,0.0903 -0.208842,0 -0.341485,-0.0903 -0.12982,-0.0903 -0.12982,-0.25964 v -1.34337 q 0,-0.1665 0.126998,-0.2427 0.129821,-0.079 0.344307,-0.079 0.214486,0 0.341484,0.079 0.129821,0.0762 0.129821,0.2427 z m -0.694258,0.048 v 1.28692 q 0,0.16651 0.222953,0.16651 0.222953,0 0.222953,-0.16651 v -1.28692 q 0,-0.17215 -0.222953,-0.17215 -0.222953,0 -0.222953,0.17215 z"
         style="font-style:normal;font-variant:normal;font-weight:normal;font-stretch:normal;font-size:2.82218695px;font-family:Homenaje;-inkscape-font-specification:Homenaje;stroke-width:0.26458004"
         id="path1677" />
      <path
         d="m 65.835651,139.57092 q 0,0.10159 -0.09313,0.15804 -0.09031,0.0536 -0.217308,0.0536 -0.126999,0 -0.220131,-0.0536 -0.09031,-0.0565 -0.09031,-0.15804 v -0.51646 q 0,-0.0988 0.08749,-0.14676 0.09031,-0.048 0.222953,-0.048 0.132642,0 0.22013,0.048 0.09031,0.048 0.09031,0.14676 z m -0.471305,-0.48824 v 0.47977 q 0,0.0988 0.160865,0.0988 0.160864,0 0.160864,-0.0988 v -0.47977 q 0,-0.1016 -0.160864,-0.1016 -0.160865,0 -0.160865,0.1016 z"
         style="font-style:normal;font-variant:normal;font-weight:normal;font-stretch:normal;font-size:2.82218695px;font-family:Homenaje;-inkscape-font-specification:Homenaje;stroke-width:0.26458004"
         id="path1679" />
    </g>
    <g
       aria-label="+90"
       transform="scale(0.9999876,1.0000124)"
       style="font-style:normal;font-variant:normal;font-weight:normal;font-stretch:normal;font-size:3.52773356px;line-height:1.25;font-family:Homenaje;-inkscape-font-specification:Homenaje;letter-spacing:0px;word-spacing:0px;fill:#ffffff;fill-opacity:1;stroke:none;stroke-width:0.26458004"
       id="text4978-4-9-3">
      <path
         d="m 53.016558,139.80516 h 0.445906 v 0.18626 h -0.445906 v 0.57573 h -0.225775 v -0.57573 h -0.445905 v -0.18626 h 0.445905 v -0.53622 h 0.225775 z"
         style="font-style:normal;font-variant:normal;font-weight:normal;font-stretch:normal;font-size:2.82218695px;font-family:Homenaje;-inkscape-font-specification:Homenaje;stroke-width:0.26458004"
         id="path1682" />
      <path
         d="m 54.748499,140.47684 v -0.45155 h -0.380995 q -0.369707,0 -0.369707,-0.381 v -0.41486 q 0,-0.1778 0.146754,-0.27375 0.146754,-0.096 0.349951,-0.096 0.20602,0 0.352773,0.0988 0.146754,0.096 0.146754,0.27375 v 1.27845 q 0,0.16087 -0.124176,0.254 -0.121354,0.0903 -0.355596,0.0903 h -0.37535 v -0.18626 h 0.372528 q 0.237064,0 0.237064,-0.19191 z m -0.502349,-1.2587 v 0.4064 q 0,0.11288 0.03669,0.16368 0.03669,0.048 0.152398,0.048 h 0.313263 v -0.61524 q 0,-0.0931 -0.07338,-0.13264 -0.07055,-0.0423 -0.174976,-0.0423 -0.101598,0 -0.177797,0.0395 -0.0762,0.0395 -0.0762,0.13264 z"
         style="font-style:normal;font-variant:normal;font-weight:normal;font-stretch:normal;font-size:2.82218695px;font-family:Homenaje;-inkscape-font-specification:Homenaje;stroke-width:0.26458004"
         id="path1684" />
      <path
         d="m 56.282534,139.18145 v 1.34337 q 0,0.16933 -0.132643,0.25964 -0.12982,0.0903 -0.338662,0.0903 -0.208842,0 -0.341485,-0.0903 -0.12982,-0.0903 -0.12982,-0.25964 v -1.34337 q 0,-0.1665 0.126998,-0.2427 0.129821,-0.079 0.344307,-0.079 0.214486,0 0.341484,0.079 0.129821,0.0762 0.129821,0.2427 z m -0.694258,0.048 v 1.28692 q 0,0.16651 0.222953,0.16651 0.222953,0 0.222953,-0.16651 v -1.28692 q 0,-0.17215 -0.222953,-0.17215 -0.222953,0 -0.222953,0.17215 z"
         style="font-style:normal;font-variant:normal;font-weight:normal;font-stretch:normal;font-size:2.82218695px;font-family:Homenaje;-inkscape-font-specification:Homenaje;stroke-width:0.26458004"
         id="path1686" />
      <path
         d="m 57.346851,139.57092 q 0,0.10159 -0.09313,0.15804 -0.09031,0.0536 -0.217308,0.0536 -0.126999,0 -0.220131,-0.0536 -0.09031,-0.0565 -0.09031,-0.15804 v -0.51646 q 0,-0.0988 0.08749,-0.14676 0.09031,-0.048 0.222953,-0.048 0.132642,0 0.22013,0.048 0.09031,0.048 0.09031,0.14676 z m -0.471305,-0.48824 v 0.47977 q 0,0.0988 0.160865,0.0988 0.160864,0 0.160864,-0.0988 v -0.47977 q 0,-0.1016 -0.160864,-0.1016 -0.160865,0 -0.160865,0.1016 z"
         style="font-style:normal;font-variant:normal;font-weight:normal;font-stretch:normal;font-size:2.82218695px;font-family:Homenaje;-inkscape-font-specification:Homenaje;stroke-width:0.26458004"
         id="path1688" />
    </g>
    <g
       aria-label="+45"
       transform="scale(0.9999876,1.0000124)"
       style="font-style:normal;font-variant:normal;font-weight:normal;font-stretch:normal;font-size:3.52773356px;line-height:1.25;font-family:Homenaje;-inkscape-font-specification:Homenaje;letter-spacing:0px;word-spacing:0px;fill:#ffffff;fill-opacity:1;stroke:none;stroke-width:0.26458004"
       id="text4978-4-9-81">
      <path
         d="m 45.078959,139.80516 h 0.445905 v 0.18626 h -0.445905 v 0.57573 h -0.225775 v -0.57573 h -0.445906 v -0.18626 h 0.445906 v -0.53622 h 0.225775 z"
         style="font-style:normal;font-variant:normal;font-weight:normal;font-stretch:normal;font-size:2.82218695px;font-family:Homenaje;-inkscape-font-specification:Homenaje;stroke-width:0.26458004"
         id="path1691" />
      <path
         d="m 46.714945,140.14664 v -1.0809 h -0.01976 l -0.389462,1.0809 z m 0,0.70837 v -0.5221 h -0.657569 v -0.18627 l 0.496705,-1.26716 h 0.409217 v 1.26716 h 0.186264 v 0.18627 h -0.186264 v 0.5221 z"
         style="font-style:normal;font-variant:normal;font-weight:normal;font-stretch:normal;font-size:2.82218695px;font-family:Homenaje;-inkscape-font-specification:Homenaje;stroke-width:0.26458004"
         id="path1693" />
      <path
         d="m 47.485006,140.51353 h 0.248352 q 0,0.0903 0.07338,0.13264 0.0762,0.0423 0.174975,0.0423 0.101599,0 0.174976,-0.0395 0.0762,-0.0395 0.0762,-0.13264 v -0.47695 q 0,-0.11007 -0.03669,-0.14675 -0.03387,-0.0395 -0.152398,-0.0395 H 47.49065 v -0.97365 h 0.855123 v 0.18626 H 47.73618 v 0.60113 h 0.375351 q 0.194731,0 0.282219,0.0847 0.08749,0.0847 0.08749,0.27093 v 0.48259 q 0,0.1778 -0.146754,0.27375 -0.146754,0.096 -0.352774,0.096 -0.206019,0 -0.352773,-0.0903 -0.143931,-0.0931 -0.143931,-0.27093 z"
         style="font-style:normal;font-variant:normal;font-weight:normal;font-stretch:normal;font-size:2.82218695px;font-family:Homenaje;-inkscape-font-specification:Homenaje;stroke-width:0.26458004"
         id="path1695" />
      <path
         d="m 49.547054,139.57092 q 0,0.10159 -0.09313,0.15804 -0.09031,0.0536 -0.217309,0.0536 -0.126998,0 -0.22013,-0.0536 -0.09031,-0.0565 -0.09031,-0.15804 v -0.51646 q 0,-0.0988 0.08749,-0.14676 0.09031,-0.048 0.222952,-0.048 0.132643,0 0.220131,0.048 0.09031,0.048 0.09031,0.14676 z m -0.471305,-0.48824 v 0.47977 q 0,0.0988 0.160864,0.0988 0.160865,0 0.160865,-0.0988 v -0.47977 q 0,-0.1016 -0.160865,-0.1016 -0.160864,0 -0.160864,0.1016 z"
         style="font-style:normal;font-variant:normal;font-weight:normal;font-stretch:normal;font-size:2.82218695px;font-family:Homenaje;-inkscape-font-specification:Homenaje;stroke-width:0.26458004"
         id="path1697" />
    </g>
  </g>
</svg>
