<?xml version="1.0" encoding="UTF-8" standalone="no"?>
<!-- Created with Inkscape (http://www.inkscape.org/) -->

<svg
   xmlns:dc="http://purl.org/dc/elements/1.1/"
   xmlns:cc="http://creativecommons.org/ns#"
   xmlns:rdf="http://www.w3.org/1999/02/22-rdf-syntax-ns#"
   xmlns:svg="http://www.w3.org/2000/svg"
   xmlns="http://www.w3.org/2000/svg"
   xmlns:xlink="http://www.w3.org/1999/xlink"
   xmlns:sodipodi="http://sodipodi.sourceforge.net/DTD/sodipodi-0.dtd"
   xmlns:inkscape="http://www.inkscape.org/namespaces/inkscape"
   width="225"
   height="380"
   viewBox="0 0 59.531251 100.54167"
   version="1.1"
   id="svg11003"
   inkscape:version="0.92.2 (5c3e80d, 2017-08-06)"
   sodipodi:docname="BPMLFO2.svg">
  <defs
     id="defs10997">
    <linearGradient
       inkscape:collect="always"
       id="linearGradient3391">
      <stop
         style="stop-color:#202022;stop-opacity:1;"
         offset="0"
         id="stop3387" />
      <stop
         style="stop-color:#202025;stop-opacity:1;"
         offset=".3"
         id="stop3388" />
      <stop
         style="stop-color:#08006f;stop-opacity:1;"
         offset="1"
         id="stop3389" />
    </linearGradient>
    <linearGradient
       inkscape:collect="always"
       xlink:href="#linearGradient3391"
       id="linearGradient3393"
       x1="35.219627"
       y1="150.85843"
       x2="35.219627"
       y2="50.462322"
       gradientUnits="userSpaceOnUse"
       gradientTransform="matrix(1.503243,0,0,1.0014499,-17.724031,-0.08643399)" />
  </defs>
  <sodipodi:namedview
     id="base"
     pagecolor="#ffffff"
     bordercolor="#666666"
     borderopacity="1.0"
     inkscape:pageopacity="0.0"
     inkscape:pageshadow="2"
     inkscape:zoom="4"
     inkscape:cx="-4.73401"
     inkscape:cy="174.10808"
     inkscape:document-units="px"
     inkscape:current-layer="layer1"
     showgrid="false"
     fit-margin-top="0"
     fit-margin-left="0"
     fit-margin-right="0"
     fit-margin-bottom="0"
     inkscape:window-width="3840"
     inkscape:window-height="2115"
     inkscape:window-x="-13"
     inkscape:window-y="-13"
     inkscape:window-maximized="1"
     units="px"
     inkscape:measure-start="115.25,330.25"
     inkscape:measure-end="0,0" />
  <metadata
     id="metadata11000">
    <rdf:RDF>
      <cc:Work
         rdf:about="">
        <dc:format>image/svg+xml</dc:format>
        <dc:type
           rdf:resource="http://purl.org/dc/dcmitype/StillImage" />
        <dc:title></dc:title>
      </cc:Work>
    </rdf:RDF>
  </metadata>
  <g
     inkscape:label="Layer 1"
     inkscape:groupmode="layer"
     id="layer1"
     transform="translate(-35.146312,-50.389004)">
    <path
       inkscape:connector-curvature="0"
       id="path33493"
       d="m 35.219628,50.449053 h 59.53125 V 150.99072 h -59.53125 z m 0,0"
       style="fill:url(#linearGradient3393);fill-opacity:1;fill-rule:nonzero;stroke:none;stroke-width:0.33866918"
       inkscape:export-filename="/home/vortico/pics/tmp/LFOs.png"
       inkscape:export-xdpi="150.22649"
       inkscape:export-ydpi="150.22649" />
    <g
       aria-label="RESET"
       style="font-style:normal;font-variant:normal;font-weight:normal;font-stretch:normal;font-size:3.52777767px;line-height:1.25;font-family:Homenaje;-inkscape-font-specification:Homenaje;letter-spacing:0px;word-spacing:0px;fill:#ffffff;fill-opacity:1;stroke:none;stroke-width:0.26458332"
       id="text4978">
      <path
         d="m 62.401922,125.04172 v 0.7366 H 62.6023 q 0.160866,0 0.248355,-0.11007 0.09031,-0.11289 0.09031,-0.28786 0,-0.33867 -0.338666,-0.33867 z m -0.0056,0.92287 v 0.86642 h -0.242711 v -1.97556 h 0.522111 q 0.508,0 0.508,0.52494 0,0.19755 -0.0762,0.34431 -0.0762,0.14675 -0.217311,0.2032 l 0.392289,0.90311 h -0.242711 l -0.383822,-0.86642 z"
         style="font-style:normal;font-variant:normal;font-weight:normal;font-stretch:normal;font-size:2.82222223px;font-family:Homenaje;-inkscape-font-specification:Homenaje;stroke-width:0.26458332"
         id="path2596" />
      <path
         d="m 63.542629,126.83101 v -1.97556 h 0.860778 v 0.19191 h -0.612423 v 0.63218 h 0.496712 v 0.19191 h -0.496712 v 0.76765 h 0.640645 v 0.19191 z"
         style="font-style:normal;font-variant:normal;font-weight:normal;font-stretch:normal;font-size:2.82222223px;font-family:Homenaje;-inkscape-font-specification:Homenaje;stroke-width:0.26458332"
         id="path2598" />
      <path
         d="m 65.023546,126.64474 q 0.160866,0 0.231422,-0.096 0.07338,-0.096 0.07338,-0.22296 0,-0.127 -0.04798,-0.21449 -0.04516,-0.0903 -0.115711,-0.14111 -0.07056,-0.0536 -0.1524,-0.11571 -0.08185,-0.0621 -0.1524,-0.11853 -0.07056,-0.0593 -0.118534,-0.15805 -0.04515,-0.0988 -0.04515,-0.22578 0,-0.22577 0.135467,-0.36124 0.135466,-0.13547 0.375355,-0.13547 h 0.2286 v 0.18627 h -0.217311 q -0.135467,0 -0.206022,0.0875 -0.07056,0.0875 -0.07056,0.18909 0,0.1016 0.04516,0.17498 0.04798,0.0734 0.118533,0.12135 0.07056,0.048 0.1524,0.11289 0.08467,0.0649 0.155222,0.13264 0.07056,0.0649 0.115711,0.1778 0.04798,0.11289 0.04798,0.25683 0,0.26529 -0.1524,0.40075 -0.149578,0.13547 -0.412044,0.13547 h -0.296334 v -0.18627 z"
         style="font-style:normal;font-variant:normal;font-weight:normal;font-stretch:normal;font-size:2.82222223px;font-family:Homenaje;-inkscape-font-specification:Homenaje;stroke-width:0.26458332"
         id="path2600" />
      <path
         d="m 65.852221,126.83101 v -1.97556 h 0.860778 v 0.19191 h -0.612422 v 0.63218 h 0.496711 v 0.19191 h -0.496711 v 0.76765 h 0.640644 v 0.19191 z"
         style="font-style:normal;font-variant:normal;font-weight:normal;font-stretch:normal;font-size:2.82222223px;font-family:Homenaje;-inkscape-font-specification:Homenaje;stroke-width:0.26458332"
         id="path2602" />
      <path
         d="m 67.304916,126.83101 v -1.78929 h -0.395111 v -0.18627 h 1.038577 v 0.18627 h -0.395111 v 1.78929 z"
         style="font-style:normal;font-variant:normal;font-weight:normal;font-stretch:normal;font-size:2.82222223px;font-family:Homenaje;-inkscape-font-specification:Homenaje;stroke-width:0.26458332"
         id="path2604" />
    </g>
    <g
       aria-label="CLOCK"
       style="font-style:normal;font-variant:normal;font-weight:normal;font-stretch:normal;font-size:3.52777767px;line-height:1.25;font-family:Homenaje;-inkscape-font-specification:Homenaje;letter-spacing:0px;word-spacing:0px;fill:#ffffff;fill-opacity:1;stroke:none;stroke-width:0.26458332"
       id="text4982">
      <path
         d="m 48.453796,126.64474 v 0.18627 h -0.378178 q -0.256822,0 -0.397933,-0.12982 -0.141111,-0.12983 -0.141111,-0.381 v -0.95391 q 0,-0.25118 0.141111,-0.381 0.141111,-0.12983 0.397933,-0.12983 h 0.378178 v 0.18627 h -0.378178 q -0.129822,0 -0.211666,0.0762 -0.07902,0.0734 -0.07902,0.19756 v 1.05551 q 0,0.12417 0.07902,0.20037 0.08184,0.0734 0.211666,0.0734 z"
         style="font-style:normal;font-variant:normal;font-weight:normal;font-stretch:normal;font-size:2.82222223px;font-family:Homenaje;-inkscape-font-specification:Homenaje;stroke-width:0.26458332"
         id="path2607" />
      <path
         d="m 48.718159,126.83101 v -1.97556 h 0.248356 v 1.78929 h 0.578555 v 0.18627 z"
         style="font-style:normal;font-variant:normal;font-weight:normal;font-stretch:normal;font-size:2.82222223px;font-family:Homenaje;-inkscape-font-specification:Homenaje;stroke-width:0.26458332"
         id="path2609" />
      <path
         d="m 50.783761,126.34276 q 0,0.23989 -0.138289,0.37536 -0.138289,0.13264 -0.403578,0.13264 -0.262466,0 -0.400755,-0.13264 -0.138289,-0.13547 -0.138289,-0.37536 v -0.99906 q 0,-0.23989 0.138289,-0.37254 0.138289,-0.13546 0.400755,-0.13546 0.265289,0 0.403578,0.13546 0.138289,0.13265 0.138289,0.37254 z m -0.832556,0.048 q 0,0.12982 0.08185,0.2032 0.08467,0.0706 0.208844,0.0706 0.124178,0 0.208845,-0.0706 0.08467,-0.0734 0.08467,-0.2032 v -1.09502 q 0,-0.12982 -0.08467,-0.20038 -0.08467,-0.0734 -0.208845,-0.0734 -0.124177,0 -0.208844,0.0734 -0.08185,0.0706 -0.08185,0.20038 z"
         style="font-style:normal;font-variant:normal;font-weight:normal;font-stretch:normal;font-size:2.82222223px;font-family:Homenaje;-inkscape-font-specification:Homenaje;stroke-width:0.26458332"
         id="path2611" />
      <path
         d="m 51.942989,126.64474 v 0.18627 h -0.378178 q -0.256822,0 -0.397933,-0.12982 -0.141111,-0.12983 -0.141111,-0.381 v -0.95391 q 0,-0.25118 0.141111,-0.381 0.141111,-0.12983 0.397933,-0.12983 h 0.378178 v 0.18627 h -0.378178 q -0.129822,0 -0.211667,0.0762 -0.07902,0.0734 -0.07902,0.19756 v 1.05551 q 0,0.12417 0.07902,0.20037 0.08185,0.0734 0.211667,0.0734 z"
         style="font-style:normal;font-variant:normal;font-weight:normal;font-stretch:normal;font-size:2.82222223px;font-family:Homenaje;-inkscape-font-specification:Homenaje;stroke-width:0.26458332"
         id="path2613" />
      <path
         d="m 52.447241,126.83101 h -0.239889 v -1.97556 h 0.239889 v 0.8636 l 0.5842,-0.8636 h 0.245533 l -0.575733,0.88054 0.6604,1.09502 h -0.251178 l -0.553156,-0.92005 -0.110066,0.14112 z"
         style="font-style:normal;font-variant:normal;font-weight:normal;font-stretch:normal;font-size:2.82222223px;font-family:Homenaje;-inkscape-font-specification:Homenaje;stroke-width:0.26458332"
         id="path2615" />
    </g>
    <g
       style="font-style:normal;font-weight:normal;font-size:3.52777767px;line-height:1.25;font-family:sans-serif;letter-spacing:0px;word-spacing:0px;fill:#ffffff;fill-opacity:1;stroke:none;stroke-width:0.26458332"
       id="text5097" />
    <g
       aria-label="DIVISION"
       style="font-style:normal;font-variant:normal;font-weight:normal;font-stretch:normal;font-size:3.52777767px;line-height:1.25;font-family:Homenaje;-inkscape-font-specification:Homenaje;letter-spacing:0px;word-spacing:0px;fill:#ffffff;fill-opacity:1;stroke:none;stroke-width:0.26458332"
       id="text5443">
      <path
         d="m 76.937074,57.936118 h 0.239889 q 0.129822,0 0.208845,-0.07338 0.08184,-0.0762 0.08184,-0.200378 V 56.61814 q 0,-0.124178 -0.08184,-0.197556 -0.07902,-0.0762 -0.208845,-0.0762 h -0.239889 z m -0.251177,0.191911 v -1.975556 h 0.491066 q 0.256822,0 0.397934,0.129823 0.141111,0.129822 0.141111,0.381 v 0.953911 q 0,0.251177 -0.141111,0.381 -0.141112,0.127 -0.397934,0.129822 z"
         style="font-style:normal;font-variant:normal;font-weight:normal;font-stretch:normal;font-size:2.82222223px;font-family:Homenaje;-inkscape-font-specification:Homenaje;stroke-width:0.26458332"
         id="path2619" />
      <path
         d="m 78.044708,58.128029 v -1.975556 h 0.248356 v 1.975556 z"
         style="font-style:normal;font-variant:normal;font-weight:normal;font-stretch:normal;font-size:2.82222223px;font-family:Homenaje;-inkscape-font-specification:Homenaje;stroke-width:0.26458332"
         id="path2621" />
      <path
         d="M 79.222633,57.902251 79.6121,56.152473 h 0.245533 l -0.465666,1.975556 h -0.333023 l -0.474133,-1.975556 h 0.245533 z"
         style="font-style:normal;font-variant:normal;font-weight:normal;font-stretch:normal;font-size:2.82222223px;font-family:Homenaje;-inkscape-font-specification:Homenaje;stroke-width:0.26458332"
         id="path2623" />
      <path
         d="m 80.150351,58.128029 v -1.975556 h 0.248355 v 1.975556 z"
         style="font-style:normal;font-variant:normal;font-weight:normal;font-stretch:normal;font-size:2.82222223px;font-family:Homenaje;-inkscape-font-specification:Homenaje;stroke-width:0.26458332"
         id="path2625" />
      <path
         d="m 81.085565,57.941762 q 0.160866,0 0.231422,-0.09595 0.07338,-0.09596 0.07338,-0.222956 0,-0.127 -0.04798,-0.214489 -0.04516,-0.09031 -0.115711,-0.141111 -0.07056,-0.05362 -0.1524,-0.115711 -0.08185,-0.06209 -0.1524,-0.118533 -0.07056,-0.05927 -0.118534,-0.158045 -0.04515,-0.09878 -0.04515,-0.225778 0,-0.225777 0.135466,-0.361244 0.135467,-0.135467 0.375356,-0.135467 h 0.2286 v 0.186267 h -0.217311 q -0.135467,0 -0.206022,0.08749 -0.07056,0.08749 -0.07056,0.189089 0,0.1016 0.04516,0.174978 0.04798,0.07338 0.118533,0.121355 0.07056,0.04798 0.1524,0.112889 0.08467,0.06491 0.155222,0.132644 0.07056,0.06491 0.115711,0.1778 0.04798,0.112889 0.04798,0.256823 0,0.265289 -0.1524,0.400755 -0.149578,0.135467 -0.412044,0.135467 h -0.296334 v -0.186267 z"
         style="font-style:normal;font-variant:normal;font-weight:normal;font-stretch:normal;font-size:2.82222223px;font-family:Homenaje;-inkscape-font-specification:Homenaje;stroke-width:0.26458332"
         id="path2627" />
      <path
         d="m 81.91424,58.128029 v -1.975556 h 0.248355 v 1.975556 z"
         style="font-style:normal;font-variant:normal;font-weight:normal;font-stretch:normal;font-size:2.82222223px;font-family:Homenaje;-inkscape-font-specification:Homenaje;stroke-width:0.26458332"
         id="path2629" />
      <path
         d="m 83.571942,57.639784 q 0,0.239889 -0.138289,0.375356 -0.138288,0.132644 -0.403577,0.132644 -0.262467,0 -0.400756,-0.132644 -0.138289,-0.135467 -0.138289,-0.375356 v -0.999066 q 0,-0.239889 0.138289,-0.372534 0.138289,-0.135466 0.400756,-0.135466 0.265289,0 0.403577,0.135466 0.138289,0.132645 0.138289,0.372534 z m -0.832555,0.04798 q 0,0.129822 0.08184,0.2032 0.08467,0.07056 0.208845,0.07056 0.124177,0 0.208844,-0.07056 0.08467,-0.07338 0.08467,-0.2032 V 56.59274 q 0,-0.129822 -0.08467,-0.200378 -0.08467,-0.07338 -0.208844,-0.07338 -0.124178,0 -0.208845,0.07338 -0.08184,0.07056 -0.08184,0.200378 z"
         style="font-style:normal;font-variant:normal;font-weight:normal;font-stretch:normal;font-size:2.82222223px;font-family:Homenaje;-inkscape-font-specification:Homenaje;stroke-width:0.26458332"
         id="path2631" />
      <path
         d="m 85.002103,58.128029 h -0.3556 l -0.522111,-1.794933 v 1.794933 h -0.248355 v -1.975556 h 0.414866 l 0.460022,1.707445 v -1.707445 h 0.251178 z"
         style="font-style:normal;font-variant:normal;font-weight:normal;font-stretch:normal;font-size:2.82222223px;font-family:Homenaje;-inkscape-font-specification:Homenaje;stroke-width:0.26458332"
         id="path2633" />
    </g>
    <g
       aria-label="BPM LFO 2"
       style="font-style:normal;font-variant:normal;font-weight:bold;font-stretch:normal;font-size:3.52777767px;line-height:1.25;font-family:Consolas;-inkscape-font-specification:'Consolas Bold';text-align:start;letter-spacing:0px;word-spacing:0px;text-anchor:start;fill:#ffffff;fill-opacity:1;stroke:none;stroke-width:0.26458332"
       id="text3885">
      <path
         d="m 58.833224,51.823396 v 0.880886 h 0.244475 q 0.232833,0 0.360891,-0.116416 0.128059,-0.120298 0.128059,-0.34537 0,-0.4191 -0.48895,-0.4191 z m 0.783872,1.016706 q 0.151341,0.08149 0.248355,0.244475 0.100895,0.162983 0.100895,0.329847 0,0.166864 -0.01552,0.267758 -0.01552,0.100895 -0.06985,0.221192 -0.05045,0.116417 -0.143581,0.194028 -0.20955,0.186267 -0.644172,0.186267 H 58.491735 V 51.56728 h 0.659694 q 0.360892,0 0.539397,0.166863 0.178506,0.162984 0.178506,0.516114 0,0.194028 -0.07373,0.357011 -0.06985,0.159103 -0.178505,0.232834 z m -0.543278,1.18745 q 0.566561,0 0.566561,-0.543278 0,-0.275519 -0.166864,-0.395817 -0.166864,-0.120297 -0.395816,-0.120297 h -0.244475 v 1.059392 z"
         style="font-style:normal;font-variant:normal;font-weight:bold;font-stretch:normal;font-size:3.88055563px;font-family:Homenaje;-inkscape-font-specification:'Homenaje Bold';text-align:start;text-anchor:start;stroke-width:0.26458332"
         id="path2636" />
      <path
         d="m 60.720447,51.823396 v 1.008945 h 0.248356 q 0.221191,0 0.341488,-0.151342 0.124178,-0.151342 0.124178,-0.391936 0,-0.465667 -0.465666,-0.465667 z m 1.055511,0.465667 q 0,0.376414 -0.205669,0.589844 -0.201789,0.20955 -0.578203,0.20955 h -0.271639 v 1.195212 H 60.378958 V 51.56728 h 0.686858 q 0.710142,0 0.710142,0.721783 z"
         style="font-style:normal;font-variant:normal;font-weight:bold;font-stretch:normal;font-size:3.88055563px;font-family:Homenaje;-inkscape-font-specification:'Homenaje Bold';text-align:start;text-anchor:start;stroke-width:0.26458332"
         id="path2638" />
      <path
         d="M 62.440018,54.283669 H 62.098529 V 51.56728 h 0.516114 l 0.519995,1.60655 h 0.02716 l 0.531637,-1.60655 h 0.496711 v 2.716389 H 63.84866 v -2.308931 l -0.519995,1.587147 h -0.368652 l -0.519995,-1.591028 z"
         style="font-style:normal;font-variant:normal;font-weight:bold;font-stretch:normal;font-size:3.88055563px;font-family:Homenaje;-inkscape-font-specification:'Homenaje Bold';text-align:start;text-anchor:start;stroke-width:0.26458332"
         id="path2640" />
      <path
         d="M 65.297866,54.283669 V 51.56728 h 0.341488 v 2.460272 h 0.795514 v 0.256117 z"
         style="font-style:normal;font-variant:normal;font-weight:bold;font-stretch:normal;font-size:3.88055563px;font-family:Homenaje;-inkscape-font-specification:'Homenaje Bold';text-align:start;text-anchor:start;stroke-width:0.26458332"
         id="path2642" />
      <path
         d="M 66.768233,54.283669 V 51.56728 h 1.144763 v 0.263877 h -0.803275 v 0.931334 h 0.605367 v 0.263877 h -0.605367 v 1.257301 z"
         style="font-style:normal;font-variant:normal;font-weight:bold;font-stretch:normal;font-size:3.88055563px;font-family:Homenaje;-inkscape-font-specification:'Homenaje Bold';text-align:start;text-anchor:start;stroke-width:0.26458332"
         id="path2644" />
      <path
         d="m 69.646331,53.612332 q 0,0.329848 -0.190147,0.516114 -0.190147,0.182386 -0.554919,0.182386 -0.360892,0 -0.551039,-0.182386 -0.190148,-0.186266 -0.190148,-0.516114 v -1.373716 q 0,-0.329848 0.190148,-0.512234 0.190147,-0.186266 0.551039,-0.186266 0.364772,0 0.554919,0.186266 0.190147,0.182386 0.190147,0.512234 z m -1.144764,0.06597 q 0,0.178505 0.112537,0.2794 0.116416,0.09701 0.287161,0.09701 0.170744,0 0.287161,-0.09701 0.116416,-0.100895 0.116416,-0.2794 v -1.505656 q 0,-0.178505 -0.116416,-0.275519 -0.116417,-0.100895 -0.287161,-0.100895 -0.170745,0 -0.287161,0.100895 -0.112537,0.09701 -0.112537,0.275519 z"
         style="font-style:normal;font-variant:normal;font-weight:bold;font-stretch:normal;font-size:3.88055563px;font-family:Homenaje;-inkscape-font-specification:'Homenaje Bold';text-align:start;text-anchor:start;stroke-width:0.26458332"
         id="path2646" />
      <path
         d="m 71.819988,54.283669 h -1.19133 v -0.252237 q 0.570441,-1.094316 0.70238,-1.404761 0.131939,-0.314325 0.131939,-0.519994 0,-0.271639 -0.337608,-0.271639 H 70.748955 V 51.56728 h 0.551039 q 0.28328,0 0.399697,0.166863 0.120297,0.162984 0.120297,0.384175 0,0.217312 -0.08925,0.442384 -0.08537,0.221191 -0.34537,0.694619 -0.256117,0.473428 -0.399697,0.772231 h 0.834319 z"
         style="font-style:normal;font-variant:normal;font-weight:bold;font-stretch:normal;font-size:3.88055563px;font-family:Homenaje;-inkscape-font-specification:'Homenaje Bold';text-align:start;text-anchor:start;stroke-width:0.26458332"
         id="path2648" />
    </g>
    <path
       style="fill:#999999;fill-opacity:1;stroke-width:0.22657207"
       d="M 70.666641,58.789524 H 90.378099 V 70.563482 H 70.666641 Z"
       id="rect6948" />
    <path
       style="fill:#323232;fill-opacity:1;stroke-width:0.20366792"
       d="M 71.379715,59.715565 H 89.66502 v 9.988021 H 71.379715 Z"
       id="rect4735" />
    <g
       aria-label="HOLD"
       style="font-style:normal;font-variant:normal;font-weight:normal;font-stretch:normal;font-size:3.52777767px;line-height:1.25;font-family:Homenaje;-inkscape-font-specification:Homenaje;letter-spacing:0px;word-spacing:0px;fill:#ffffff;fill-opacity:1;stroke:none;stroke-width:0.26458332"
       id="text4978-4">
      <path
         d="m 76.46576,125.8771 h -0.561622 v 0.95391 h -0.248355 v -1.97556 h 0.248355 v 0.83538 h 0.561622 v -0.83538 h 0.248356 v 1.97556 H 76.46576 Z"
         style="font-style:normal;font-variant:normal;font-weight:normal;font-stretch:normal;font-size:2.82222223px;font-family:Homenaje;-inkscape-font-specification:Homenaje;stroke-width:0.26458332"
         id="path2653" />
      <path
         d="m 78.123772,126.34276 q 0,0.23989 -0.138289,0.37536 -0.138289,0.13264 -0.403578,0.13264 -0.262466,0 -0.400755,-0.13264 -0.138289,-0.13547 -0.138289,-0.37536 v -0.99906 q 0,-0.23989 0.138289,-0.37254 0.138289,-0.13546 0.400755,-0.13546 0.265289,0 0.403578,0.13546 0.138289,0.13265 0.138289,0.37254 z m -0.832556,0.048 q 0,0.12982 0.08185,0.2032 0.08467,0.0706 0.208844,0.0706 0.124178,0 0.208845,-0.0706 0.08467,-0.0734 0.08467,-0.2032 v -1.09502 q 0,-0.12982 -0.08467,-0.20038 -0.08467,-0.0734 -0.208845,-0.0734 -0.124178,0 -0.208844,0.0734 -0.08185,0.0706 -0.08185,0.20038 z"
         style="font-style:normal;font-variant:normal;font-weight:normal;font-stretch:normal;font-size:2.82222223px;font-family:Homenaje;-inkscape-font-specification:Homenaje;stroke-width:0.26458332"
         id="path2655" />
      <path
         d="m 78.450444,126.83101 v -1.97556 H 78.6988 v 1.78929 h 0.578555 v 0.18627 z"
         style="font-style:normal;font-variant:normal;font-weight:normal;font-stretch:normal;font-size:2.82222223px;font-family:Homenaje;-inkscape-font-specification:Homenaje;stroke-width:0.26458332"
         id="path2657" />
      <path
         d="m 79.768157,126.6391 h 0.239889 q 0.129822,0 0.208844,-0.0734 0.08184,-0.0762 0.08184,-0.20038 v -1.04422 q 0,-0.12418 -0.08184,-0.19756 -0.07902,-0.0762 -0.208844,-0.0762 h -0.239889 z m -0.251178,0.19191 v -1.97556 h 0.491067 q 0.256822,0 0.397933,0.12983 0.141111,0.12982 0.141111,0.381 v 0.95391 q 0,0.25117 -0.141111,0.381 -0.141111,0.127 -0.397933,0.12982 z"
         style="font-style:normal;font-variant:normal;font-weight:normal;font-stretch:normal;font-size:2.82222223px;font-family:Homenaje;-inkscape-font-specification:Homenaje;stroke-width:0.26458332"
         id="path2659" />
    </g>
    <g
       aria-label="MOM."
       style="font-style:normal;font-variant:normal;font-weight:normal;font-stretch:normal;font-size:3.52777767px;line-height:1.25;font-family:Homenaje;-inkscape-font-specification:Homenaje;letter-spacing:0px;word-spacing:0px;fill:#ffffff;fill-opacity:1;stroke:none;stroke-width:0.26458332"
       id="text5443-0">
      <path
         d="M 80.049277,121.98479 H 79.86301 v -1.48167 h 0.281517 l 0.283633,0.8763 h 0.01482 l 0.289983,-0.8763 h 0.270933 v 1.48167 h -0.186266 v -1.25942 l -0.283634,0.86572 H 80.33291 l -0.283633,-0.86784 z"
         style="font-style:normal;font-variant:normal;font-weight:normal;font-stretch:normal;font-size:2.11666656px;font-family:Homenaje;-inkscape-font-specification:Homenaje;stroke-width:0.26458332"
         id="path2662" />
      <path
         d="m 82.036959,121.6186 q 0,0.17992 -0.103717,0.28152 -0.103716,0.0995 -0.302683,0.0995 -0.19685,0 -0.300567,-0.0995 -0.103716,-0.1016 -0.103716,-0.28152 v -0.7493 q 0,-0.17991 0.103716,-0.2794 0.103717,-0.1016 0.300567,-0.1016 0.198967,0 0.302683,0.1016 0.103717,0.0995 0.103717,0.2794 z m -0.624417,0.036 q 0,0.0974 0.06138,0.1524 0.0635,0.0529 0.156633,0.0529 0.09313,0 0.156633,-0.0529 0.0635,-0.055 0.0635,-0.1524 v -0.82127 q 0,-0.0974 -0.0635,-0.15028 -0.0635,-0.055 -0.156633,-0.055 -0.09313,0 -0.156633,0.055 -0.06138,0.0529 -0.06138,0.15028 z"
         style="font-style:normal;font-variant:normal;font-weight:normal;font-stretch:normal;font-size:2.11666656px;font-family:Homenaje;-inkscape-font-specification:Homenaje;stroke-width:0.26458332"
         id="path2664" />
      <path
         d="m 82.447063,121.98479 h -0.186267 v -1.48167 h 0.281517 l 0.283633,0.8763 h 0.01482 l 0.289983,-0.8763 h 0.270934 v 1.48167 h -0.186267 v -1.25942 l -0.283633,0.86572 h -0.201084 l -0.283633,-0.86784 z"
         style="font-style:normal;font-variant:normal;font-weight:normal;font-stretch:normal;font-size:2.11666656px;font-family:Homenaje;-inkscape-font-specification:Homenaje;stroke-width:0.26458332"
         id="path2666" />
      <path
         d="m 83.619829,121.98479 v -0.21802 h 0.169333 v 0.21802 z"
         style="font-style:normal;font-variant:normal;font-weight:normal;font-stretch:normal;font-size:2.11666656px;font-family:Homenaje;-inkscape-font-specification:Homenaje;stroke-width:0.26458332"
         id="path2668" />
    </g>
    <g
       aria-label="GATE"
       style="font-style:normal;font-variant:normal;font-weight:normal;font-stretch:normal;font-size:3.52777767px;line-height:1.25;font-family:Homenaje;-inkscape-font-specification:Homenaje;letter-spacing:0px;word-spacing:0px;fill:#ffffff;fill-opacity:1;stroke:none;stroke-width:0.26458332"
       id="text5443-0-4">
      <path
         d="m 80.907517,113.49794 h -0.37465 q -0.192617,0 -0.29845,-0.0974 -0.105833,-0.0974 -0.105833,-0.28575 v -0.71755 q 0,-0.18626 0.1143,-0.28363 0.1143,-0.0974 0.31115,-0.0974 h 0.31115 v 0.14182 h -0.332317 q -0.09737,0 -0.15875,0.0571 -0.05927,0.055 -0.05927,0.14817 v 0.78951 q 0,0.0953 0.05715,0.15029 0.05715,0.055 0.1524,0.055 h 0.19685 v -0.58208 h -0.1905 v -0.1397 h 0.376767 z"
         style="font-style:normal;font-variant:normal;font-weight:normal;font-stretch:normal;font-size:2.11666656px;font-family:Homenaje;-inkscape-font-specification:Homenaje;stroke-width:0.26458332"
         id="path2671" />
      <path
         d="m 81.389985,112.01627 h 0.281516 l 0.321734,1.48167 h -0.173567 l -0.103717,-0.43603 h -0.385233 l -0.09525,0.43603 h -0.179917 z m 0.294216,0.9017 -0.1524,-0.762 h -0.01482 l -0.154517,0.762 z"
         style="font-style:normal;font-variant:normal;font-weight:normal;font-stretch:normal;font-size:2.11666656px;font-family:Homenaje;-inkscape-font-specification:Homenaje;stroke-width:0.26458332"
         id="path2673" />
      <path
         d="m 82.277926,113.49794 v -1.34197 h -0.296333 v -0.1397 h 0.778933 v 0.1397 h -0.296333 v 1.34197 z"
         style="font-style:normal;font-variant:normal;font-weight:normal;font-stretch:normal;font-size:2.11666656px;font-family:Homenaje;-inkscape-font-specification:Homenaje;stroke-width:0.26458332"
         id="path2675" />
      <path
         d="m 82.957806,113.49794 v -1.48167 h 0.645584 v 0.14394 h -0.459317 v 0.47413 h 0.372533 v 0.14393 h -0.372533 v 0.57574 h 0.480483 v 0.14393 z"
         style="font-style:normal;font-variant:normal;font-weight:normal;font-stretch:normal;font-size:2.11666656px;font-family:Homenaje;-inkscape-font-specification:Homenaje;stroke-width:0.26458332"
         id="path2677" />
    </g>
    <g
       transform="matrix(0.26458333,0,0,0.26458333,34.617145,50.389004)"
       style="font-style:normal;font-variant:normal;font-weight:bold;font-stretch:normal;font-size:13.33333302px;line-height:1.25;font-family:Consolas;-inkscape-font-specification:'Consolas Bold';text-align:center;letter-spacing:0px;word-spacing:0px;text-anchor:middle;fill:#ffffff;fill-opacity:1;stroke:none"
       id="flowRoot1527" />
    <g
       aria-label="BI"
       style="font-style:normal;font-variant:normal;font-weight:normal;font-stretch:normal;font-size:3.52777767px;line-height:1.25;font-family:Homenaje;-inkscape-font-specification:Homenaje;letter-spacing:0px;word-spacing:0px;fill:#ffffff;fill-opacity:1;stroke:none;stroke-width:0.26458332"
       id="text5443-0-6">
      <path
         d="m 44.362275,120.6424 v 0.48048 h 0.13335 q 0.127,0 0.19685,-0.0635 0.06985,-0.0656 0.06985,-0.18838 0,-0.2286 -0.2667,-0.2286 z m 0.427567,0.55457 q 0.08255,0.0445 0.135467,0.13335 0.05503,0.0889 0.05503,0.17991 0,0.091 -0.0085,0.14605 -0.0085,0.055 -0.0381,0.12065 -0.02752,0.0635 -0.07832,0.10584 -0.1143,0.1016 -0.351367,0.1016 h -0.328083 v -1.48167 h 0.359833 q 0.19685,0 0.294217,0.091 0.09737,0.0889 0.09737,0.28151 0,0.10584 -0.04022,0.19474 -0.0381,0.0868 -0.09737,0.127 z m -0.296333,0.6477 q 0.309033,0 0.309033,-0.29634 0,-0.15028 -0.09102,-0.2159 -0.09102,-0.0656 -0.2159,-0.0656 h -0.13335 v 0.57785 z"
         style="font-style:normal;font-variant:normal;font-weight:normal;font-stretch:normal;font-size:2.11666656px;font-family:Homenaje;-inkscape-font-specification:Homenaje;stroke-width:0.26458332"
         id="path2681" />
      <path
         d="m 45.205403,121.98437 v -1.48167 h 0.186267 v 1.48167 z"
         style="font-style:normal;font-variant:normal;font-weight:normal;font-stretch:normal;font-size:2.11666656px;font-family:Homenaje;-inkscape-font-specification:Homenaje;stroke-width:0.26458332"
         id="path2683" />
    </g>
    <g
       aria-label="UNI"
       style="font-style:normal;font-variant:normal;font-weight:normal;font-stretch:normal;font-size:3.52777767px;line-height:1.25;font-family:Homenaje;-inkscape-font-specification:Homenaje;letter-spacing:0px;word-spacing:0px;fill:#ffffff;fill-opacity:1;stroke:none;stroke-width:0.26458332"
       id="text5443-0-4-9">
      <path
         d="m 43.843695,112.01621 h 0.186266 v 1.15147 q 0,0.1016 0.04868,0.15452 0.0508,0.0508 0.1397,0.0508 0.0889,0 0.1397,-0.0508 0.0508,-0.0529 0.0508,-0.15452 v -1.15147 h 0.186266 v 1.11549 q 0,0.381 -0.376766,0.381 -0.37465,0 -0.37465,-0.381 z"
         style="font-style:normal;font-variant:normal;font-weight:normal;font-stretch:normal;font-size:2.11666656px;font-family:Homenaje;-inkscape-font-specification:Homenaje;stroke-width:0.26458332"
         id="path2686" />
      <path
         d="m 45.669121,113.49788 h -0.2667 l -0.391583,-1.3462 v 1.3462 h -0.186267 v -1.48167 h 0.31115 l 0.345017,1.28059 v -1.28059 h 0.188383 z"
         style="font-style:normal;font-variant:normal;font-weight:normal;font-stretch:normal;font-size:2.11666656px;font-family:Homenaje;-inkscape-font-specification:Homenaje;stroke-width:0.26458332"
         id="path2688" />
      <path
         d="m 45.961849,113.49788 v -1.48167 h 0.186267 v 1.48167 z"
         style="font-style:normal;font-variant:normal;font-weight:normal;font-stretch:normal;font-size:2.11666656px;font-family:Homenaje;-inkscape-font-specification:Homenaje;stroke-width:0.26458332"
         id="path2690" />
    </g>
    <g
       aria-label="PAUSE"
       style="font-style:normal;font-variant:normal;font-weight:normal;font-stretch:normal;font-size:3.52777767px;line-height:1.25;font-family:Homenaje;-inkscape-font-specification:Homenaje;letter-spacing:0px;word-spacing:0px;fill:#ffffff;fill-opacity:1;stroke:none;stroke-width:0.26458332"
       id="text5443-0-4-7">
      <path
         d="m 66.553415,112.25044 v 0.55033 h 0.135466 q 0.12065,0 0.186267,-0.0825 0.06773,-0.0825 0.06773,-0.21378 0,-0.254 -0.254,-0.254 z m 0.575733,0.254 q 0,0.20532 -0.112183,0.32173 -0.110067,0.1143 -0.315384,0.1143 h -0.148166 v 0.65194 h -0.186267 v -1.48167 h 0.37465 q 0.38735,0 0.38735,0.3937 z"
         style="font-style:normal;font-variant:normal;font-weight:normal;font-stretch:normal;font-size:2.11666656px;font-family:Homenaje;-inkscape-font-specification:Homenaje;stroke-width:0.26458332"
         id="path2693" />
      <path
         d="m 67.548512,112.11074 h 0.281517 l 0.321733,1.48167 h -0.173566 l -0.103717,-0.43604 h -0.385233 l -0.09525,0.43604 h -0.179917 z m 0.294217,0.9017 -0.1524,-0.762 h -0.01482 l -0.154516,0.762 z"
         style="font-style:normal;font-variant:normal;font-weight:normal;font-stretch:normal;font-size:2.11666656px;font-family:Homenaje;-inkscape-font-specification:Homenaje;stroke-width:0.26458332"
         id="path2695" />
      <path
         d="m 68.283889,112.11074 h 0.186266 v 1.15147 q 0,0.1016 0.04868,0.15451 0.0508,0.0508 0.1397,0.0508 0.0889,0 0.1397,-0.0508 0.0508,-0.0529 0.0508,-0.15451 v -1.15147 h 0.186266 v 1.11548 q 0,0.381 -0.376766,0.381 -0.37465,0 -0.37465,-0.381 z"
         style="font-style:normal;font-variant:normal;font-weight:normal;font-stretch:normal;font-size:2.11666656px;font-family:Homenaje;-inkscape-font-specification:Homenaje;stroke-width:0.26458332"
         id="path2697" />
      <path
         d="m 69.487015,113.45271 q 0.12065,0 0.173567,-0.072 0.05503,-0.072 0.05503,-0.16722 0,-0.0953 -0.03598,-0.16086 -0.03387,-0.0677 -0.08678,-0.10584 -0.05292,-0.0402 -0.1143,-0.0868 -0.06138,-0.0466 -0.1143,-0.0889 -0.05292,-0.0444 -0.0889,-0.11853 -0.03387,-0.0741 -0.03387,-0.16934 0,-0.16933 0.1016,-0.27093 0.1016,-0.1016 0.281517,-0.1016 h 0.17145 v 0.1397 h -0.162984 q -0.1016,0 -0.154516,0.0656 -0.05292,0.0656 -0.05292,0.14181 0,0.0762 0.03387,0.13124 0.03598,0.055 0.0889,0.091 0.05292,0.036 0.1143,0.0847 0.0635,0.0487 0.116416,0.0995 0.05292,0.0487 0.08678,0.13335 0.03598,0.0847 0.03598,0.19262 0,0.19897 -0.1143,0.30057 -0.112183,0.1016 -0.309033,0.1016 h -0.22225 v -0.1397 z"
         style="font-style:normal;font-variant:normal;font-weight:normal;font-stretch:normal;font-size:2.11666656px;font-family:Homenaje;-inkscape-font-specification:Homenaje;stroke-width:0.26458332"
         id="path2699" />
      <path
         d="m 70.108521,113.59241 v -1.48167 h 0.645584 v 0.14393 h -0.459317 v 0.47414 h 0.372533 v 0.14393 h -0.372533 v 0.57573 h 0.480483 v 0.14394 z"
         style="font-style:normal;font-variant:normal;font-weight:normal;font-stretch:normal;font-size:2.11666656px;font-family:Homenaje;-inkscape-font-specification:Homenaje;stroke-width:0.26458332"
         id="path2701" />
    </g>
    <g
       aria-label="FREE"
       style="font-style:normal;font-variant:normal;font-weight:normal;font-stretch:normal;font-size:3.52777767px;line-height:1.25;font-family:Homenaje;-inkscape-font-specification:Homenaje;letter-spacing:0px;word-spacing:0px;fill:#ffffff;fill-opacity:1;stroke:none;stroke-width:0.26458332"
       id="text5443-0-4-0">
      <path
         d="m 66.949149,122.09109 v -1.48167 h 0.624416 v 0.14393 h -0.43815 v 0.508 h 0.3302 v 0.14394 h -0.3302 v 0.6858 z"
         style="font-style:normal;font-variant:normal;font-weight:normal;font-stretch:normal;font-size:2.11666656px;font-family:Homenaje;-inkscape-font-specification:Homenaje;stroke-width:0.26458332"
         id="path2704" />
      <path
         d="m 67.958104,120.74912 v 0.55245 h 0.150283 q 0.12065,0 0.186267,-0.0825 0.06773,-0.0847 0.06773,-0.2159 0,-0.254 -0.254,-0.254 z m -0.0042,0.69215 v 0.64982 h -0.182034 v -1.48167 h 0.391584 q 0.381,0 0.381,0.3937 0,0.14817 -0.05715,0.25823 -0.05715,0.11007 -0.162984,0.1524 l 0.294217,0.67734 h -0.182033 l -0.287867,-0.64982 z"
         style="font-style:normal;font-variant:normal;font-weight:normal;font-stretch:normal;font-size:2.11666656px;font-family:Homenaje;-inkscape-font-specification:Homenaje;stroke-width:0.26458332"
         id="path2706" />
      <path
         d="m 68.813634,122.09109 v -1.48167 h 0.645583 v 0.14393 h -0.459316 v 0.47414 h 0.372533 v 0.14393 h -0.372533 v 0.57573 h 0.480483 v 0.14394 z"
         style="font-style:normal;font-variant:normal;font-weight:normal;font-stretch:normal;font-size:2.11666656px;font-family:Homenaje;-inkscape-font-specification:Homenaje;stroke-width:0.26458332"
         id="path2708" />
      <path
         d="m 69.719005,122.09109 v -1.48167 h 0.645584 v 0.14393 h -0.459317 v 0.47414 h 0.372533 v 0.14393 h -0.372533 v 0.57573 h 0.480483 v 0.14394 z"
         style="font-style:normal;font-variant:normal;font-weight:normal;font-stretch:normal;font-size:2.11666656px;font-family:Homenaje;-inkscape-font-specification:Homenaje;stroke-width:0.26458332"
         id="path2710" />
    </g>
    <g
       aria-label="FROZEN WASTELAND"
       style="font-style:normal;font-variant:normal;font-weight:bold;font-stretch:normal;font-size:3.52777767px;line-height:1.25;font-family:Consolas;-inkscape-font-specification:'Consolas Bold';text-align:start;letter-spacing:0px;word-spacing:0px;text-anchor:start;fill:#00a3f2;fill-opacity:1;stroke:none;stroke-width:0.26458332"
       id="text3885-7">
      <path
         d="m 50.764241,150.10076 q 0.119944,-0.11995 0.1905,-0.21167 0.07408,-0.0917 0.112889,-0.16933 0.04233,-0.0776 0.05292,-0.14464 0.01411,-0.0706 0.01411,-0.14817 0,-0.0952 -0.04586,-0.2293 -0.04586,-0.13406 -0.102305,-0.28575 -0.05645,-0.1517 -0.102306,-0.31045 -0.04586,-0.15875 -0.04586,-0.30339 0,-0.0776 0.0247,-0.15169 0.02822,-0.0741 0.06703,-0.14111 0.04233,-0.0706 0.09172,-0.13053 0.04939,-0.0635 0.09878,-0.11289 -0.07055,-0.0141 -0.123472,-0.0212 -0.05292,-0.0106 -0.07761,-0.0106 -0.130528,0 -0.22225,0.0706 -0.08819,0.067 -0.1905,0.16933 0,-0.11994 0.03528,-0.24694 0.0388,-0.13053 0.116416,-0.23637 0.07761,-0.10583 0.194028,-0.17286 0.119945,-0.067 0.282222,-0.067 0.112889,0 0.208139,0.0176 0.09878,0.0141 0.179917,0.0353 0.08114,0.0212 0.148167,0.0388 0.06703,0.0141 0.119944,0.0141 0.08114,0 0.141111,-0.0212 0.0635,-0.0247 0.123472,-0.0847 0,0.0776 -0.03175,0.17638 -0.02822,0.0988 -0.08819,0.1905 -0.05644,0.0882 -0.148167,0.1517 -0.09172,0.06 -0.211666,0.06 -0.05997,0 -0.137584,-0.007 -0.07408,-0.0106 -0.155222,-0.0247 -0.0071,0.0247 -0.01058,0.0459 -0.0035,0.0212 -0.0071,0.0388 -0.0035,0.0212 -0.0035,0.0388 0,0.0776 0.01058,0.1517 0.01411,0.0705 0.0388,0.14464 h 0.712611 l -0.08114,0.23989 q -0.01058,0.0459 -0.01411,0.067 -0.0035,0.0212 -0.01058,0.067 l -0.130528,-0.0917 h -0.363361 q 0.07761,0.17639 0.144639,0.35983 0.06703,0.17992 0.06703,0.38453 0,0.18344 -0.07408,0.34219 -0.07408,0.15523 -0.197556,0.27164 -0.119944,0.11642 -0.278694,0.17992 -0.155223,0.067 -0.321028,0.067 z"
         style="font-style:normal;font-variant:normal;font-weight:normal;font-stretch:normal;font-family:'Bradley Gratis';-inkscape-font-specification:'Bradley Gratis';text-align:start;text-anchor:start;stroke-width:0.26458332"
         id="path2713" />
      <path
         d="m 52.83433,148.37215 q 0.07055,-0.0423 0.137583,-0.0988 0.07056,-0.0565 0.123472,-0.127 0.05644,-0.0706 0.08819,-0.16228 0.03528,-0.0953 0.03528,-0.21167 0,-0.0988 -0.0388,-0.1658 -0.03528,-0.0706 -0.08467,-0.11289 -0.04939,-0.0423 -0.09878,-0.06 -0.04586,-0.0176 -0.07055,-0.0176 -0.02822,0 -0.05292,0.0106 -0.02117,0.0106 -0.0388,0.0247 z m -0.518584,-0.94192 q -0.112888,-0.0635 -0.112888,-0.23636 0.03175,0.0317 0.112888,0.0564 0.08114,0.0212 0.172862,0.0212 0.04586,0 0.130527,-0.0106 0.08467,-0.0141 0.172861,-0.0282 0.09172,-0.0141 0.172861,-0.0247 0.08467,-0.0141 0.130528,-0.0141 0.116417,0 0.232834,0.0353 0.116416,0.0353 0.215194,0.11994 0.09878,0.0847 0.165806,0.22931 0.07056,0.14111 0.09172,0.35983 l -0.627945,0.4445 q 0.07056,0.0282 0.15875,0.0952 0.08819,0.067 0.165806,0.18697 0.08114,0.11995 0.134055,0.30692 0.05292,0.18344 0.05292,0.45155 0,0.23284 0.02117,0.37748 0.02117,0.14464 0.05292,0.23283 0.03175,0.0882 0.06703,0.13053 0.03881,0.0459 0.07056,0.0776 -0.155222,0 -0.275167,-0.0917 -0.119944,-0.0882 -0.211667,-0.23284 -0.09172,-0.14464 -0.162277,-0.32808 -0.06703,-0.18344 -0.123473,-0.37042 -0.05644,-0.18697 -0.105833,-0.35983 -0.04586,-0.17286 -0.09525,-0.29986 -0.02469,0.0176 -0.04939,0.0353 -0.02117,0.0141 -0.0388,0.0317 v 1.31939 h -0.518584 z"
         style="font-style:normal;font-variant:normal;font-weight:normal;font-stretch:normal;font-family:'Bradley Gratis';-inkscape-font-specification:'Bradley Gratis';text-align:start;text-anchor:start;stroke-width:0.26458332"
         id="path2715" />
      <path
         d="m 54.722077,149.47987 q 0,0.11994 0.01411,0.18697 0.01764,0.067 0.04233,0.10231 0.02822,0.0318 0.0635,0.0388 0.03528,0.007 0.07056,0.007 0.07055,0 0.116416,-0.0952 0.04586,-0.0988 0.04586,-0.29986 v -1.53106 q 0,-0.15875 -0.01764,-0.25753 -0.01411,-0.1023 -0.04233,-0.15522 -0.02469,-0.0564 -0.05997,-0.0776 -0.03175,-0.0212 -0.0635,-0.0212 -0.06703,0 -0.119944,0.0847 -0.04939,0.0811 -0.04939,0.26106 z m 1.005416,-0.88547 q 0,0.25752 -0.06703,0.508 -0.0635,0.25047 -0.176388,0.44802 -0.109362,0.19756 -0.261056,0.32103 -0.151694,0.11995 -0.321028,0.11995 -0.15875,0 -0.310444,-0.10936 -0.148167,-0.10937 -0.264583,-0.29987 -0.112889,-0.1905 -0.183445,-0.4445 -0.07055,-0.254 -0.07055,-0.54327 0,-0.23636 0.0635,-0.48331 0.06703,-0.25047 0.179916,-0.45155 0.112889,-0.20109 0.264584,-0.32809 0.151694,-0.13053 0.321027,-0.13053 0.148167,0 0.292806,0.10937 0.148166,0.10936 0.264583,0.29986 0.119945,0.18697 0.194028,0.44097 0.07408,0.254 0.07408,0.54328 z"
         style="font-style:normal;font-variant:normal;font-weight:normal;font-stretch:normal;font-family:'Bradley Gratis';-inkscape-font-specification:'Bradley Gratis';text-align:start;text-anchor:start;stroke-width:0.26458332"
         id="path2717" />
      <path
         d="m 55.881558,149.95259 q 0.04586,-0.27164 0.130528,-0.51153 0.08819,-0.23989 0.194027,-0.45861 0.105834,-0.21872 0.218723,-0.41628 0.116416,-0.20108 0.218722,-0.38805 0.102305,-0.18697 0.179917,-0.36336 0.07761,-0.17992 0.112888,-0.35984 -0.02822,-0.0176 -0.06703,-0.0317 -0.03528,-0.0141 -0.137584,-0.0141 -0.05292,0 -0.09525,0.0282 -0.03881,0.0247 -0.06703,0.0635 -0.02822,0.0353 -0.04586,0.0776 -0.01411,0.0388 -0.01411,0.0635 0,0.0282 0.01058,0.067 0.01411,0.0353 0.02822,0.0706 0.01764,0.0353 0.03528,0.067 0.01764,0.0282 0.03175,0.0423 l -0.430389,0.26811 q -0.08467,-0.0811 -0.144639,-0.19755 -0.05645,-0.11995 -0.05645,-0.23989 0,-0.06 0.03175,-0.14817 0.03175,-0.0882 0.102306,-0.16933 0.07056,-0.0847 0.183444,-0.14111 0.116417,-0.06 0.282223,-0.06 0.130527,0 0.218722,0.0176 0.08819,0.0176 0.155222,0.0423 0.06703,0.0212 0.123472,0.0388 0.05997,0.0176 0.134056,0.0176 0.04586,0 0.09878,-0.007 0.05292,-0.007 0.09878,-0.0212 0.04586,-0.0141 0.08114,-0.0282 0.03881,-0.0176 0.05997,-0.0388 -0.04233,0.22225 -0.134056,0.46214 -0.09172,0.23989 -0.204611,0.47978 -0.109361,0.23989 -0.232833,0.46919 -0.119945,0.22931 -0.22225,0.43039 -0.09878,0.19756 -0.169334,0.35983 -0.06703,0.15875 -0.07408,0.26106 0.141111,0.06 0.239889,0.06 0.0635,0 0.130528,-0.0141 0.06703,-0.0176 0.119944,-0.0529 0.05644,-0.0353 0.09172,-0.0882 0.03528,-0.0564 0.03528,-0.13406 0,-0.0776 -0.01764,-0.127 -0.01411,-0.0529 -0.03881,-0.0847 -0.0247,-0.0353 -0.05644,-0.06 -0.03175,-0.0282 -0.05997,-0.0564 l 0.405694,-0.29986 q 0.141111,0.10583 0.201084,0.22578 0.05997,0.11994 0.05997,0.26105 0,0.067 -0.02117,0.13053 -0.01764,0.06 -0.04586,0.11289 -0.02469,0.0494 -0.05997,0.0917 -0.03175,0.0423 -0.05644,0.067 l 0.05997,0.06 q 0.01764,0.0176 0.0388,0.0529 0.02117,0.0318 0.02117,0.0564 0,0.0282 -0.02469,0.0811 -0.02117,0.0564 -0.08819,0.0988 -0.02469,-0.0318 -0.05644,-0.0564 -0.02822,-0.0212 -0.05997,-0.0388 -0.03175,-0.0176 -0.06703,-0.0176 z"
         style="font-style:normal;font-variant:normal;font-weight:normal;font-stretch:normal;font-family:'Bradley Gratis';-inkscape-font-specification:'Bradley Gratis';text-align:start;text-anchor:start;stroke-width:0.26458332"
         id="path2719" />
      <path
         d="m 59.387893,147.22562 v 0.381 q -0.0388,-0.0353 -0.102305,-0.0776 -0.05997,-0.0423 -0.130528,-0.0741 -0.06703,-0.0353 -0.134055,-0.0564 -0.06703,-0.0247 -0.112889,-0.0247 -0.08467,0 -0.172861,0.067 -0.08819,0.067 -0.144639,0.17992 -0.05644,0.10936 -0.07408,0.28928 -0.01411,0.17639 -0.01411,0.45508 h 0.903111 l -0.179916,0.40217 q -0.03528,-0.0529 -0.08467,-0.0706 -0.04586,-0.0212 -0.08467,-0.0212 h -0.553861 q 0,0.20108 0.0071,0.39511 0.0071,0.1905 0.04586,0.34219 0.04233,0.1517 0.127,0.24695 0.08467,0.0917 0.243417,0.0917 0.08467,0 0.165805,-0.0317 0.08467,-0.0318 0.155222,-0.0776 0.07056,-0.0494 0.123473,-0.10231 0.05644,-0.0529 0.08819,-0.0952 v 0.508 h -0.47625 q -0.342194,0 -0.553861,-0.11994 -0.211667,-0.12348 -0.331611,-0.32809 -0.116417,-0.20814 -0.15875,-0.47977 -0.03881,-0.27164 -0.03881,-0.56798 0,-0.0741 0.01058,-0.19402 0.01058,-0.12348 0.04586,-0.25753 0.03528,-0.13759 0.102305,-0.27517 0.06703,-0.14111 0.179917,-0.25047 0.116417,-0.11289 0.28575,-0.18345 0.169333,-0.0705 0.409222,-0.0705 z"
         style="font-style:normal;font-variant:normal;font-weight:normal;font-stretch:normal;font-family:'Bradley Gratis';-inkscape-font-specification:'Bradley Gratis';text-align:start;text-anchor:start;stroke-width:0.26458332"
         id="path2721" />
      <path
         d="m 59.774295,149.95259 v -2.43769 q 0,-0.0988 -0.04233,-0.16581 -0.04233,-0.0705 -0.08467,-0.12347 h 0.684389 v 0.35983 l 0.391584,-0.45508 q 0.179916,0.16228 0.296333,0.32455 0.116417,0.15875 0.183444,0.32103 0.06703,0.15875 0.09172,0.32456 0.02469,0.16228 0.02469,0.33514 0,0.16933 -0.02822,0.32455 -0.0247,0.1517 -0.07408,0.29986 -0.04939,0.14817 -0.119944,0.29986 -0.06703,0.1517 -0.148167,0.3175 h 0.127 q 0.04586,0 0.09525,-0.0318 0.04939,-0.0317 0.09878,-0.0317 v 0.33867 h -0.684389 q 0.09525,-0.19403 0.151695,-0.34925 0.05997,-0.15522 0.09172,-0.29633 0.03175,-0.14111 0.04233,-0.27517 0.01058,-0.13405 0.01058,-0.28575 0,-0.15169 -0.05292,-0.31397 -0.04939,-0.16581 -0.123472,-0.30339 -0.07408,-0.13758 -0.15875,-0.22578 -0.08114,-0.0882 -0.148167,-0.0882 -0.04233,0 -0.06703,0.0212 v 2.11667 z"
         style="font-style:normal;font-variant:normal;font-weight:normal;font-stretch:normal;font-family:'Bradley Gratis';-inkscape-font-specification:'Bradley Gratis';text-align:start;text-anchor:start;stroke-width:0.26458332"
         id="path2723" />
      <path
         d="m 63.012465,150.06901 q -0.1905,-0.13759 -0.324556,-0.29281 -0.134056,-0.15875 -0.215194,-0.32808 -0.08114,-0.16933 -0.119945,-0.3422 -0.03528,-0.17638 -0.03528,-0.34572 0,-0.1658 0.03528,-0.32808 0.03528,-0.16581 0.09172,-0.32456 0.05997,-0.16227 0.137584,-0.31397 0.07761,-0.15522 0.15875,-0.30339 h -0.02117 q -0.01058,0 -0.02469,0 -0.01058,-0.004 -0.02822,-0.004 -0.05644,0 -0.137583,0.0141 -0.07761,0.0141 -0.151694,0.0705 v -0.34572 h 0.740833 q -0.09172,0.15875 -0.15875,0.32103 -0.0635,0.15875 -0.105833,0.31044 -0.03881,0.14817 -0.05997,0.28222 -0.01764,0.13053 -0.01764,0.23636 0,0.10584 0.02117,0.254 0.02117,0.14817 0.07761,0.30692 0.05997,0.15522 0.15875,0.29633 0.102306,0.14112 0.264584,0.22931 l 0.105833,-0.0776 q -0.0635,-0.11995 -0.09878,-0.22931 -0.03528,-0.11289 -0.05292,-0.21166 -0.01411,-0.0988 -0.01764,-0.17992 -0.0035,-0.0847 -0.0035,-0.15169 0,-0.10937 0.02822,-0.24695 0.02822,-0.13758 0.08114,-0.28575 0.05292,-0.14817 0.127,-0.29986 0.07761,-0.15169 0.172861,-0.29633 -0.134056,0 -0.22225,0.0212 -0.08467,0.0212 -0.144639,0.06 v -0.33867 h 0.762 q -0.0635,0.0882 -0.127,0.20108 -0.05997,0.10936 -0.105833,0.23989 -0.04586,0.127 -0.07408,0.27164 -0.02822,0.14464 -0.02822,0.29633 0,0.25753 0.04586,0.45861 0.04586,0.19756 0.127,0.34925 0.08114,0.1517 0.1905,0.26106 0.109361,0.10936 0.232834,0.18697 v -2.26483 h 0.529166 v 2.12019 q 0,0.0247 -0.03528,0.0706 -0.03528,0.0423 -0.09172,0.0988 -0.05292,0.0564 -0.127,0.12347 -0.07055,0.0635 -0.144639,0.127 -0.176388,0.14817 -0.398638,0.32455 -0.172862,-0.13405 -0.296334,-0.26458 -0.123472,-0.13053 -0.211666,-0.254 z"
         style="font-style:normal;font-variant:normal;font-weight:normal;font-stretch:normal;font-family:'Bradley Gratis';-inkscape-font-specification:'Bradley Gratis';text-align:start;text-anchor:start;stroke-width:0.26458332"
         id="path2725" />
      <path
         d="m 66.264524,148.25573 v -0.87842 h -0.416278 q -0.0035,0.23636 -0.01411,0.4692 -0.0071,0.2293 -0.01764,0.40922 z m 0.719667,-1.03011 q -0.03881,0.0282 -0.07408,0.0705 -0.03175,0.0423 -0.05644,0.0917 -0.02117,0.0459 -0.03528,0.0917 -0.01411,0.0423 -0.01411,0.0741 v 2.39889 h -0.53975 v -1.32997 h -0.472722 q -0.0035,0.127 -0.03528,0.27869 -0.03175,0.14817 -0.08819,0.29986 -0.05292,0.14817 -0.127,0.28928 -0.07056,0.13759 -0.162278,0.24342 -0.08819,0.10583 -0.1905,0.16933 -0.09878,0.0635 -0.208139,0.0635 -0.07056,0 -0.123472,-0.0423 -0.04939,-0.0423 -0.04939,-0.11995 0,-0.0494 0.03175,-0.0705 0.03175,-0.0247 0.06703,-0.0247 0.03175,0 0.04939,0.0106 0.01764,0.007 0.03175,0.0212 0.01764,0.0106 0.0388,0.0212 0.02117,0.007 0.05997,0.007 0.0635,0 0.102306,-0.0635 0.0388,-0.067 0.0635,-0.17639 0.02469,-0.11289 0.03528,-0.25753 0.01411,-0.14817 0.02117,-0.31044 0.0071,-0.16228 0.01764,-0.32809 0.01058,-0.16933 0.02822,-0.32455 0.02117,-0.18345 0.0635,-0.33514 0.04586,-0.1517 0.09525,-0.26811 0.04939,-0.11642 0.09878,-0.19756 0.04939,-0.0811 0.08467,-0.13053 h -0.07761 q -0.06703,0 -0.123472,0.0212 -0.05644,0.0176 -0.102306,0.0423 -0.04233,0.0212 -0.07761,0.0423 -0.03175,0.0176 -0.05644,0.0176 -0.05997,0 -0.08819,-0.0423 -0.02822,-0.0423 -0.02822,-0.0952 0,-0.0494 0.05292,-0.0917 0.05645,-0.0459 0.155223,-0.0459 z"
         style="font-style:normal;font-variant:normal;font-weight:normal;font-stretch:normal;font-family:'Bradley Gratis';-inkscape-font-specification:'Bradley Gratis';text-align:start;text-anchor:start;stroke-width:0.26458332"
         id="path2727" />
      <path
         d="m 67.764381,150.07606 q -0.08114,-0.0811 -0.186972,-0.15875 -0.102305,-0.0776 -0.201083,-0.13758 -0.09525,-0.06 -0.169333,-0.10231 -0.07056,-0.0423 -0.08114,-0.0529 0.03528,-0.0423 0.08819,-0.11642 0.05292,-0.0776 0.102306,-0.15169 0.05292,-0.0741 0.09172,-0.13053 0.04233,-0.06 0.05292,-0.0706 0.04939,0.0318 0.134055,0.0882 0.08819,0.0529 0.172861,0.11289 0.08819,0.06 0.15875,0.10936 0.07056,0.0494 0.09172,0.0705 0.04939,-0.0282 0.08114,-0.0741 0.03528,-0.0459 0.03528,-0.14817 0,-0.0882 -0.07408,-0.18697 -0.07056,-0.0988 -0.176389,-0.20814 -0.105833,-0.10936 -0.232833,-0.2293 -0.127,-0.11995 -0.232834,-0.24695 -0.105833,-0.127 -0.179916,-0.25753 -0.07056,-0.13052 -0.07056,-0.26811 0,-0.0988 0.04939,-0.18344 0.05292,-0.0882 0.130528,-0.16228 0.07761,-0.0776 0.169333,-0.13758 0.09525,-0.0635 0.179917,-0.11642 0.08819,-0.0564 0.155222,-0.0988 0.06703,-0.0459 0.09525,-0.0811 0.02117,0.0176 0.09172,0.0882 0.07408,0.067 0.15875,0.14464 0.08467,0.0776 0.15875,0.13758 0.07761,0.06 0.102306,0.06 -0.03528,0.0282 -0.08819,0.0847 -0.04939,0.0529 -0.102305,0.11289 -0.04939,0.06 -0.09172,0.11642 -0.0388,0.0529 -0.05644,0.0811 -0.08114,-0.0353 -0.162278,-0.10583 -0.08114,-0.0705 -0.148166,-0.13758 -0.06703,-0.067 -0.112889,-0.11642 -0.04586,-0.0529 -0.05997,-0.0529 -0.02822,0 -0.04939,0.0317 -0.01764,0.0282 -0.01764,0.067 0,0.0847 0.07408,0.17992 0.07761,0.0952 0.186972,0.20461 0.112889,0.10583 0.243417,0.22578 0.134055,0.11641 0.243417,0.24341 0.112888,0.127 0.186972,0.26459 0.07761,0.13405 0.07761,0.27516 0,0.127 -0.09525,0.26812 -0.09525,0.14111 -0.229306,0.28222 -0.130527,0.13758 -0.268111,0.26458 -0.137583,0.12347 -0.225778,0.21872 z"
         style="font-style:normal;font-variant:normal;font-weight:normal;font-stretch:normal;font-family:'Bradley Gratis';-inkscape-font-specification:'Bradley Gratis';text-align:start;text-anchor:start;stroke-width:0.26458332"
         id="path2729" />
      <path
         d="m 70.249369,149.47634 q 0,0.13758 -0.05644,0.23989 -0.05644,0.0988 -0.148167,0.16228 -0.08819,0.0635 -0.197555,0.0952 -0.109361,0.0317 -0.215195,0.0317 -0.165805,0 -0.324555,-0.0811 -0.15875,-0.0811 -0.28575,-0.21872 -0.127,-0.14111 -0.204611,-0.32809 -0.07761,-0.1905 -0.07761,-0.40922 0,-0.39158 0.179917,-0.72672 0.179917,-0.33867 0.500945,-0.61383 -0.02822,-0.004 -0.05292,-0.004 -0.02117,-0.004 -0.04586,-0.004 -0.08467,0 -0.179917,0.0282 -0.09525,0.0282 -0.179917,0.0741 -0.08467,0.0423 -0.155222,0.0952 -0.06703,0.0529 -0.102305,0.0988 0.02822,-0.13758 0.105833,-0.27164 0.07761,-0.13405 0.194028,-0.23636 0.116416,-0.1023 0.268111,-0.1658 0.151694,-0.0635 0.331611,-0.0635 0.09172,0 0.194028,0.0282 0.102305,0.0282 0.194028,0.0741 0.09525,0.0423 0.169333,0.0952 0.07408,0.0529 0.112889,0.10231 l -0.289278,0.44097 q -0.176389,-0.17286 -0.381,-0.24694 -0.04586,0.0741 -0.09525,0.17639 -0.04939,0.0988 -0.09172,0.22577 -0.03881,0.127 -0.06703,0.28223 -0.02469,0.15169 -0.02469,0.33161 0,0.16933 0.02469,0.29986 0.02822,0.13053 0.07056,0.22578 0.04233,0.0952 0.09525,0.15875 0.05644,0.0635 0.112888,0.10583 0.134056,0.0952 0.306917,0.10583 0.07056,0 0.162278,-0.0282 0.09525,-0.0317 0.151694,-0.0811 z"
         style="font-style:normal;font-variant:normal;font-weight:normal;font-stretch:normal;font-family:'Bradley Gratis';-inkscape-font-specification:'Bradley Gratis';text-align:start;text-anchor:start;stroke-width:0.26458332"
         id="path2731" />
      <path
         d="m 72.017614,147.22562 v 0.381 q -0.03881,-0.0353 -0.102306,-0.0776 -0.05997,-0.0423 -0.130528,-0.0741 -0.06703,-0.0353 -0.134055,-0.0564 -0.06703,-0.0247 -0.112889,-0.0247 -0.08467,0 -0.172861,0.067 -0.08819,0.067 -0.144639,0.17992 -0.05644,0.10936 -0.07408,0.28928 -0.01411,0.17639 -0.01411,0.45508 h 0.903111 l -0.179916,0.40217 q -0.03528,-0.0529 -0.08467,-0.0706 -0.04586,-0.0212 -0.08467,-0.0212 h -0.553862 q 0,0.20108 0.0071,0.39511 0.0071,0.1905 0.04586,0.34219 0.04233,0.1517 0.127,0.24695 0.08467,0.0917 0.243417,0.0917 0.08467,0 0.165805,-0.0317 0.08467,-0.0318 0.155223,-0.0776 0.07055,-0.0494 0.123472,-0.10231 0.05644,-0.0529 0.08819,-0.0952 v 0.508 h -0.47625 q -0.342194,0 -0.553861,-0.11994 -0.211667,-0.12348 -0.331611,-0.32809 -0.116417,-0.20814 -0.15875,-0.47977 -0.03881,-0.27164 -0.03881,-0.56798 0,-0.0741 0.01058,-0.19402 0.01058,-0.12348 0.04586,-0.25753 0.03528,-0.13759 0.102305,-0.27517 0.06703,-0.14111 0.179917,-0.25047 0.116417,-0.11289 0.28575,-0.18345 0.169333,-0.0705 0.409222,-0.0705 z"
         style="font-style:normal;font-variant:normal;font-weight:normal;font-stretch:normal;font-family:'Bradley Gratis';-inkscape-font-specification:'Bradley Gratis';text-align:start;text-anchor:start;stroke-width:0.26458332"
         id="path2733" />
      <path
         d="m 73.296543,147.92059 q -0.08819,-0.21167 -0.151695,-0.35278 -0.0635,-0.14111 -0.09878,-0.14111 -0.03881,0 -0.05292,0.0353 -0.01058,0.0317 -0.01058,0.0564 v 1.91206 q 0,0.0776 -0.04233,0.16228 -0.04233,0.0847 -0.112889,0.14816 0.130528,0 0.232834,-0.0635 0.102305,-0.067 0.211666,-0.14463 0.112889,-0.0811 0.250473,-0.14464 0.137583,-0.067 0.342194,-0.067 v 0.63147 H 72.26996 q 0.04586,-0.067 0.07761,-0.127 0.03528,-0.06 0.05644,-0.11994 0.02117,-0.06 0.03175,-0.127 0.01058,-0.067 0.01058,-0.14817 v -1.66864 q 0,-0.11289 -0.04233,-0.18344 -0.04233,-0.0741 -0.05997,-0.10231 0.01411,-0.004 0.07055,-0.0247 0.05997,-0.0247 0.144639,-0.0565 0.08467,-0.0317 0.186973,-0.067 0.102305,-0.0353 0.201083,-0.0635 0.09878,-0.0317 0.186972,-0.0494 0.08819,-0.0212 0.144639,-0.0212 0.08819,0 0.165806,0.0494 0.07761,0.0494 0.141111,0.12347 0.0635,0.0741 0.109361,0.16581 0.04586,0.0882 0.07408,0.1658 z"
         style="font-style:normal;font-variant:normal;font-weight:normal;font-stretch:normal;font-family:'Bradley Gratis';-inkscape-font-specification:'Bradley Gratis';text-align:start;text-anchor:start;stroke-width:0.26458332"
         id="path2735" />
      <path
         d="m 75.47671,148.25573 v -0.87842 h -0.416278 q -0.0035,0.23636 -0.01411,0.4692 -0.0071,0.2293 -0.01764,0.40922 z m 0.719667,-1.03011 q -0.03881,0.0282 -0.07408,0.0705 -0.03175,0.0423 -0.05644,0.0917 -0.02117,0.0459 -0.03528,0.0917 -0.01411,0.0423 -0.01411,0.0741 v 2.39889 h -0.53975 v -1.32997 h -0.472722 q -0.0035,0.127 -0.03528,0.27869 -0.03175,0.14817 -0.08819,0.29986 -0.05292,0.14817 -0.127,0.28928 -0.07056,0.13759 -0.162278,0.24342 -0.08819,0.10583 -0.1905,0.16933 -0.09878,0.0635 -0.208139,0.0635 -0.07056,0 -0.123472,-0.0423 -0.04939,-0.0423 -0.04939,-0.11995 0,-0.0494 0.03175,-0.0705 0.03175,-0.0247 0.06703,-0.0247 0.03175,0 0.04939,0.0106 0.01764,0.007 0.03175,0.0212 0.01764,0.0106 0.03881,0.0212 0.02117,0.007 0.05997,0.007 0.0635,0 0.102306,-0.0635 0.0388,-0.067 0.0635,-0.17639 0.02469,-0.11289 0.03528,-0.25753 0.01411,-0.14817 0.02117,-0.31044 0.0071,-0.16228 0.01764,-0.32809 0.01058,-0.16933 0.02822,-0.32455 0.02117,-0.18345 0.0635,-0.33514 0.04586,-0.1517 0.09525,-0.26811 0.04939,-0.11642 0.09878,-0.19756 0.04939,-0.0811 0.08467,-0.13053 h -0.07761 q -0.06703,0 -0.123473,0.0212 -0.05644,0.0176 -0.102305,0.0423 -0.04233,0.0212 -0.07761,0.0423 -0.03175,0.0176 -0.05644,0.0176 -0.05997,0 -0.08819,-0.0423 -0.02822,-0.0423 -0.02822,-0.0952 0,-0.0494 0.05292,-0.0917 0.05644,-0.0459 0.155223,-0.0459 z"
         style="font-style:normal;font-variant:normal;font-weight:normal;font-stretch:normal;font-family:'Bradley Gratis';-inkscape-font-specification:'Bradley Gratis';text-align:start;text-anchor:start;stroke-width:0.26458332"
         id="path2737" />
      <path
         d="m 76.496789,149.95259 v -2.43769 q 0,-0.0988 -0.04233,-0.16581 -0.04233,-0.0705 -0.08467,-0.12347 h 0.684388 v 0.35983 l 0.391584,-0.45508 q 0.179916,0.16228 0.296333,0.32455 0.116417,0.15875 0.183445,0.32103 0.06703,0.15875 0.09172,0.32456 0.02469,0.16228 0.02469,0.33514 0,0.16933 -0.02822,0.32455 -0.02469,0.1517 -0.07408,0.29986 -0.04939,0.14817 -0.119945,0.29986 -0.06703,0.1517 -0.148166,0.3175 h 0.127 q 0.04586,0 0.09525,-0.0318 0.04939,-0.0317 0.09878,-0.0317 v 0.33867 h -0.684389 q 0.09525,-0.19403 0.151695,-0.34925 0.05997,-0.15522 0.09172,-0.29633 0.03175,-0.14111 0.04233,-0.27517 0.01058,-0.13405 0.01058,-0.28575 0,-0.15169 -0.05292,-0.31397 -0.04939,-0.16581 -0.123472,-0.30339 -0.07408,-0.13758 -0.15875,-0.22578 -0.08114,-0.0882 -0.148167,-0.0882 -0.04233,0 -0.06703,0.0212 v 2.11667 z"
         style="font-style:normal;font-variant:normal;font-weight:normal;font-stretch:normal;font-family:'Bradley Gratis';-inkscape-font-specification:'Bradley Gratis';text-align:start;text-anchor:start;stroke-width:0.26458332"
         id="path2739" />
      <path
         d="m 78.385693,147.47256 q -0.09172,-0.0388 -0.127,-0.0952 -0.03528,-0.0564 -0.03528,-0.10583 0,-0.0423 0.02822,-0.0529 0.02822,0.0176 0.07761,0.0247 0.04939,0.007 0.112889,0.007 0.03175,0 0.08819,-0.0106 0.05997,-0.0106 0.130528,-0.0212 0.07055,-0.0106 0.144638,-0.0212 0.07761,-0.0106 0.144639,-0.0106 0.162278,0 0.331611,0.0847 0.169334,0.0811 0.303389,0.254 0.134056,0.16933 0.218723,0.43392 0.08819,0.26105 0.08819,0.62441 0,0.30692 -0.05292,0.52917 -0.05292,0.22225 -0.134055,0.37747 -0.08114,0.15522 -0.179917,0.25047 -0.09878,0.0917 -0.194028,0.14464 -0.09172,0.0494 -0.169333,0.067 -0.07408,0.0176 -0.109361,0.0176 -0.05292,0 -0.112889,-0.0141 -0.05997,-0.0141 -0.119944,-0.0317 -0.05644,-0.0176 -0.109362,-0.0318 -0.04939,-0.0141 -0.08467,-0.0141 -0.03881,0 -0.07056,0.0141 -0.03175,0.0106 -0.06703,0.0247 -0.03175,0.0106 -0.07055,0.0247 -0.03881,0.0106 -0.08819,0.0106 -0.01764,0 -0.03881,-0.004 -0.01764,-0.004 -0.03528,-0.0106 -0.01764,-0.007 -0.03528,-0.0176 0.02822,-0.0176 0.05644,-0.06 0.02822,-0.0459 0.05292,-0.0952 0.02822,-0.0529 0.05644,-0.11642 z m 0.518583,2.10256 q 0,0.0741 0.0247,0.11642 0.02822,0.0388 0.05997,0.0564 0.0388,0.0212 0.08467,0.0247 0.08114,0 0.141111,-0.10936 0.0635,-0.10936 0.0635,-0.27869 v -1.5487 q 0,-0.1658 -0.03175,-0.25752 -0.03175,-0.0917 -0.07408,-0.13406 -0.04233,-0.0423 -0.08467,-0.0494 -0.04233,-0.0106 -0.06703,-0.0106 -0.04233,0 -0.08114,0.0564 -0.03528,0.0565 -0.03528,0.14817 z"
         style="font-style:normal;font-variant:normal;font-weight:normal;font-stretch:normal;font-family:'Bradley Gratis';-inkscape-font-specification:'Bradley Gratis';text-align:start;text-anchor:start;stroke-width:0.26458332"
         id="path2741" />
    </g>
    <path
       style="fill:#323232;fill-opacity:1;stroke-width:0.3110204"
       d="m 71.030434,86.736137 h 20.6375 v 20.637503 h -20.6375 z"
       id="rect4735-3" />
    <g
       aria-label="SKEW"
       style="font-style:normal;font-variant:normal;font-weight:normal;font-stretch:normal;font-size:3.52777767px;line-height:1.25;font-family:Homenaje;-inkscape-font-specification:Homenaje;letter-spacing:0px;word-spacing:0px;fill:#ffffff;fill-opacity:1;stroke:none;stroke-width:0.26458332"
       id="text5443-7">
      <path
         d="m 49.789413,87.68485 q 0.160867,0 0.231422,-0.09596 0.07338,-0.09595 0.07338,-0.222955 0,-0.127 -0.04798,-0.214489 -0.04516,-0.09031 -0.115711,-0.141111 -0.07056,-0.05362 -0.1524,-0.115711 -0.08184,-0.06209 -0.1524,-0.118534 -0.07056,-0.05927 -0.118533,-0.158044 -0.04516,-0.09878 -0.04516,-0.225778 0,-0.225778 0.135467,-0.361244 0.135466,-0.135467 0.375355,-0.135467 h 0.2286 v 0.186267 h -0.217311 q -0.135466,0 -0.206022,0.08749 -0.07056,0.08749 -0.07056,0.189089 0,0.1016 0.04516,0.174977 0.04798,0.07338 0.118533,0.121356 0.07056,0.04798 0.1524,0.112889 0.08467,0.06491 0.155223,0.132644 0.07055,0.06491 0.115711,0.1778 0.04798,0.112889 0.04798,0.256822 0,0.265289 -0.1524,0.400756 -0.149577,0.135467 -0.412044,0.135467 H 49.481791 V 87.68485 Z"
         style="font-style:normal;font-variant:normal;font-weight:normal;font-stretch:normal;font-size:2.82222223px;font-family:Homenaje;-inkscape-font-specification:Homenaje;stroke-width:0.26458332"
         id="path2745" />
      <path
         d="m 50.857977,87.871117 h -0.239889 v -1.975556 h 0.239889 v 0.8636 l 0.5842,-0.8636 h 0.245533 l -0.575733,0.880533 0.6604,1.095023 h -0.251178 l -0.553155,-0.920045 -0.110067,0.141111 z"
         style="font-style:normal;font-variant:normal;font-weight:normal;font-stretch:normal;font-size:2.82222223px;font-family:Homenaje;-inkscape-font-specification:Homenaje;stroke-width:0.26458332"
         id="path2747" />
      <path
         d="m 51.985102,87.871117 v -1.975556 h 0.860778 v 0.191911 h -0.612423 v 0.632178 h 0.496712 v 0.191911 h -0.496712 v 0.767645 h 0.640645 v 0.191911 z"
         style="font-style:normal;font-variant:normal;font-weight:normal;font-stretch:normal;font-size:2.82222223px;font-family:Homenaje;-inkscape-font-specification:Homenaje;stroke-width:0.26458332"
         id="path2749" />
      <path
         d="m 53.945797,86.409206 h 0.265289 l 0.265288,1.222022 0.333023,-1.735667 h 0.245533 l -0.409222,1.975556 h -0.333022 l -0.231423,-1.182511 -0.2286,1.182511 h -0.333022 l -0.417689,-1.975556 h 0.245534 l 0.335844,1.735667 z"
         style="font-style:normal;font-variant:normal;font-weight:normal;font-stretch:normal;font-size:2.82222223px;font-family:Homenaje;-inkscape-font-specification:Homenaje;stroke-width:0.26458332"
         id="path2751" />
    </g>
    <g
       aria-label="OUT"
       style="font-style:normal;font-variant:normal;font-weight:normal;font-stretch:normal;font-size:3.52777767px;line-height:1.25;font-family:Homenaje;-inkscape-font-specification:Homenaje;letter-spacing:0px;word-spacing:0px;fill:#ffffff;fill-opacity:1;stroke:none;stroke-width:0.26458332"
       id="text4978-4-9">
      <path
         d="m 64.227901,138.10486 q 0,0.23989 -0.138288,0.37536 -0.138289,0.13264 -0.403578,0.13264 -0.262467,0 -0.400756,-0.13264 -0.138289,-0.13547 -0.138289,-0.37536 v -0.99906 q 0,-0.23989 0.138289,-0.37254 0.138289,-0.13546 0.400756,-0.13546 0.265289,0 0.403578,0.13546 0.138288,0.13265 0.138288,0.37254 z m -0.832555,0.048 q 0,0.12982 0.08184,0.2032 0.08467,0.0706 0.208845,0.0706 0.124178,0 0.208844,-0.0706 0.08467,-0.0734 0.08467,-0.2032 v -1.09502 q 0,-0.12982 -0.08467,-0.20038 -0.08467,-0.0734 -0.208844,-0.0734 -0.124178,0 -0.208845,0.0734 -0.08184,0.0706 -0.08184,0.20038 z"
         style="font-style:normal;font-variant:normal;font-weight:normal;font-stretch:normal;font-size:2.82222223px;font-family:Homenaje;-inkscape-font-specification:Homenaje;stroke-width:0.26458332"
         id="path2754" />
      <path
         d="m 64.469907,136.61755 h 0.248356 v 1.53529 q 0,0.13547 0.06491,0.20602 0.06773,0.0677 0.186266,0.0677 0.118534,0 0.186267,-0.0677 0.06773,-0.0705 0.06773,-0.20602 v -1.53529 h 0.248356 v 1.48731 q 0,0.508 -0.502356,0.508 -0.499533,0 -0.499533,-0.508 z"
         style="font-style:normal;font-variant:normal;font-weight:normal;font-stretch:normal;font-size:2.82222223px;font-family:Homenaje;-inkscape-font-specification:Homenaje;stroke-width:0.26458332"
         id="path2756" />
      <path
         d="m 66.045853,138.59311 v -1.78929 h -0.395111 v -0.18627 h 1.038578 v 0.18627 h -0.395111 v 1.78929 z"
         style="font-style:normal;font-variant:normal;font-weight:normal;font-stretch:normal;font-size:2.82222223px;font-family:Homenaje;-inkscape-font-specification:Homenaje;stroke-width:0.26458332"
         id="path2758" />
    </g>
    <g
       style="font-style:normal;font-variant:normal;font-weight:bold;font-stretch:normal;font-size:13.33333302px;line-height:1.25;font-family:Consolas;-inkscape-font-specification:'Consolas Bold';text-align:center;letter-spacing:0px;word-spacing:0px;text-anchor:middle;fill:#ffffff;fill-opacity:1;stroke:none"
       id="flowRoot5761" />
    <g
       style="font-style:normal;font-variant:normal;font-weight:bold;font-stretch:normal;font-size:13.33333302px;line-height:1.25;font-family:Consolas;-inkscape-font-specification:'Consolas Bold';text-align:center;letter-spacing:0px;word-spacing:0px;text-anchor:middle;fill:#ffffff;fill-opacity:1;stroke:none"
       id="flowRoot5769" />
    <path
       style="fill:none;stroke:#ffffff;stroke-width:0.13229167;stroke-linecap:butt;stroke-linejoin:miter;stroke-miterlimit:4;stroke-dasharray:none;stroke-opacity:1"
       d="m 55.998785,121.79599 0.529167,-0.95911 0.578776,0.89297"
       id="path870"
       inkscape:connector-curvature="0"
       sodipodi:nodetypes="ccc" />
    <path
       style="fill:none;stroke:#ffffff;stroke-width:0.13229167;stroke-linecap:butt;stroke-linejoin:miter;stroke-miterlimit:4;stroke-dasharray:none;stroke-opacity:1"
       d="m 55.254645,113.33507 h 0.760677 v -1.02526 h 0.628385 v 1.0418 h 0.396875"
       id="path872"
       inkscape:connector-curvature="0" />
    <g
       aria-label="PHASE"
       style="font-style:normal;font-variant:normal;font-weight:normal;font-stretch:normal;font-size:3.52777767px;line-height:1.25;font-family:Homenaje;-inkscape-font-specification:Homenaje;letter-spacing:0px;word-spacing:0px;fill:#ffffff;fill-opacity:1;stroke:none;stroke-width:0.26458332"
       id="text5443-7-3">
      <path
         d="m 62.914156,86.08182 v 0.733778 h 0.180622 q 0.160867,0 0.248355,-0.110067 0.09031,-0.110066 0.09031,-0.285044 0,-0.338667 -0.338667,-0.338667 z m 0.767644,0.338667 q 0,0.273755 -0.149578,0.428978 -0.146755,0.1524 -0.420511,0.1524 h -0.197555 v 0.869244 H 62.6658 v -1.975556 h 0.499533 q 0.516467,0 0.516467,0.524934 z"
         style="font-style:normal;font-variant:normal;font-weight:normal;font-stretch:normal;font-size:2.82222223px;font-family:Homenaje;-inkscape-font-specification:Homenaje;stroke-width:0.26458332"
         id="path2763" />
      <path
         d="m 64.754597,86.917198 h -0.561622 v 0.953911 h -0.248356 v -1.975556 h 0.248356 v 0.835378 h 0.561622 v -0.835378 h 0.248356 v 1.975556 h -0.248356 z"
         style="font-style:normal;font-variant:normal;font-weight:normal;font-stretch:normal;font-size:2.82222223px;font-family:Homenaje;-inkscape-font-specification:Homenaje;stroke-width:0.26458332"
         id="path2765" />
      <path
         d="m 65.712697,85.895553 h 0.375356 l 0.428978,1.975556 H 66.285609 L 66.14732,87.289731 h -0.513645 l -0.127,0.581378 h -0.239889 z m 0.392289,1.202267 -0.2032,-1.016 h -0.01976 l -0.206022,1.016 z"
         style="font-style:normal;font-variant:normal;font-weight:normal;font-stretch:normal;font-size:2.82222223px;font-family:Homenaje;-inkscape-font-specification:Homenaje;stroke-width:0.26458332"
         id="path2767" />
      <path
         d="m 67.051621,87.684842 q 0.160867,0 0.231423,-0.09596 0.07338,-0.09596 0.07338,-0.222956 0,-0.127 -0.04798,-0.214489 -0.04516,-0.09031 -0.115711,-0.141111 -0.07056,-0.05362 -0.1524,-0.115711 -0.08185,-0.06209 -0.1524,-0.118533 -0.07056,-0.05927 -0.118534,-0.158045 -0.04516,-0.09878 -0.04516,-0.225777 0,-0.225778 0.135466,-0.361245 0.135467,-0.135467 0.375356,-0.135467 h 0.2286 v 0.186267 h -0.217311 q -0.135467,0 -0.206022,0.08749 -0.07056,0.08749 -0.07056,0.189089 0,0.1016 0.04516,0.174978 0.04798,0.07338 0.118533,0.121355 0.07055,0.04798 0.1524,0.112889 0.08467,0.06491 0.155222,0.132645 0.07056,0.06491 0.115711,0.1778 0.04798,0.112888 0.04798,0.256822 0,0.265289 -0.1524,0.400755 -0.149578,0.135467 -0.412044,0.135467 h -0.296334 v -0.186267 z"
         style="font-style:normal;font-variant:normal;font-weight:normal;font-stretch:normal;font-size:2.82222223px;font-family:Homenaje;-inkscape-font-specification:Homenaje;stroke-width:0.26458332"
         id="path2769" />
      <path
         d="m 67.880297,87.871109 v -1.975556 h 0.860777 v 0.191912 h -0.612422 v 0.632177 h 0.496711 v 0.191911 h -0.496711 v 0.767645 h 0.640645 v 0.191911 z"
         style="font-style:normal;font-variant:normal;font-weight:normal;font-stretch:normal;font-size:2.82222223px;font-family:Homenaje;-inkscape-font-specification:Homenaje;stroke-width:0.26458332"
         id="path2771" />
    </g>
    <g
       aria-label="90"
       style="font-style:normal;font-weight:normal;font-size:3.52777767px;line-height:1.25;font-family:sans-serif;letter-spacing:0px;word-spacing:0px;fill:#ffffff;fill-opacity:1;stroke:none;stroke-width:0.26458332"
       id="text5443-0-4-9-8">
      <path
         d="m 58.728096,93.21552 v -0.338667 h -0.28575 q -0.277283,0 -0.277283,-0.28575 v -0.31115 q 0,-0.13335 0.110066,-0.205316 0.110067,-0.07197 0.262467,-0.07197 0.154517,0 0.264583,0.07408 0.110067,0.07197 0.110067,0.205317 v 0.95885 q 0,0.12065 -0.09313,0.1905 -0.09102,0.06773 -0.2667,0.06773 h -0.281517 v -0.1397 h 0.2794 q 0.1778,0 0.1778,-0.143933 z m -0.376767,-0.944033 v 0.3048 q 0,0.08467 0.02752,0.122766 0.02752,0.03598 0.1143,0.03598 h 0.23495 v -0.461434 q 0,-0.06985 -0.05503,-0.09948 -0.05292,-0.03175 -0.131234,-0.03175 -0.0762,0 -0.13335,0.02963 -0.05715,0.02963 -0.05715,0.09948 z"
         style="font-style:normal;font-variant:normal;font-weight:bold;font-stretch:normal;font-size:2.11666656px;font-family:Homenaje;-inkscape-font-specification:'Homenaje Bold';stroke-width:0.26458332"
         id="path2774" />
      <path
         d="m 59.878636,92.24397 v 1.007533 q 0,0.127 -0.09948,0.194733 -0.09737,0.06773 -0.254,0.06773 -0.156633,0 -0.256117,-0.06773 -0.09737,-0.06773 -0.09737,-0.194733 V 92.24397 q 0,-0.124883 0.09525,-0.182033 0.09737,-0.05927 0.258233,-0.05927 0.160867,0 0.256117,0.05927 0.09737,0.05715 0.09737,0.182033 z m -0.5207,0.03598 v 0.9652 q 0,0.124883 0.167217,0.124883 0.167217,0 0.167217,-0.124883 v -0.9652 q 0,-0.129116 -0.167217,-0.129116 -0.167217,0 -0.167217,0.129116 z"
         style="font-style:normal;font-variant:normal;font-weight:bold;font-stretch:normal;font-size:2.11666656px;font-family:Homenaje;-inkscape-font-specification:'Homenaje Bold';stroke-width:0.26458332"
         id="path2776" />
      <path
         d="m 60.676884,92.53607 q 0,0.0762 -0.06985,0.118533 -0.06773,0.04022 -0.162983,0.04022 -0.09525,0 -0.1651,-0.04022 -0.06773,-0.04233 -0.06773,-0.118533 v -0.38735 q 0,-0.07408 0.06562,-0.110067 0.06773,-0.03598 0.167217,-0.03598 0.09948,0 0.1651,0.03598 0.06773,0.03598 0.06773,0.110067 z m -0.353483,-0.366183 v 0.359833 q 0,0.07408 0.12065,0.07408 0.12065,0 0.12065,-0.07408 v -0.359833 q 0,-0.0762 -0.12065,-0.0762 -0.12065,0 -0.12065,0.0762 z"
         style="font-style:normal;font-variant:normal;font-weight:bold;font-stretch:normal;font-size:2.11666656px;font-family:Homenaje;-inkscape-font-specification:'Homenaje Bold';stroke-width:0.26458332"
         id="path2778" />
    </g>
    <path
       style="fill:#999999;fill-opacity:1;stroke-width:0.22657208"
       d="M 40.305668,58.657227 H 60.017126 V 70.431185 H 40.305668 Z"
       id="rect6948-0" />
    <path
       style="fill:#323232;fill-opacity:1;stroke-width:0.20366792"
       d="m 41.018742,59.583267 h 18.285305 v 9.988021 H 41.018742 Z"
       id="rect4735-6" />
    <g
       aria-label="SLOPE"
       style="font-style:normal;font-variant:normal;font-weight:normal;font-stretch:normal;font-size:3.52777767px;line-height:1.25;font-family:Homenaje;-inkscape-font-specification:Homenaje;letter-spacing:0px;word-spacing:0px;fill:#ffffff;fill-opacity:1;stroke:none;stroke-width:0.26458332"
       id="text5443-7-7">
      <path
         d="m 38.147747,87.750989 q 0.160866,0 0.231422,-0.09596 0.07338,-0.09596 0.07338,-0.222956 0,-0.127 -0.04798,-0.214489 -0.04516,-0.09031 -0.115711,-0.141111 -0.07056,-0.05362 -0.1524,-0.115711 -0.08184,-0.06209 -0.1524,-0.118533 -0.07056,-0.05927 -0.118534,-0.158045 -0.04516,-0.09878 -0.04516,-0.225778 0,-0.225777 0.135466,-0.361244 0.135467,-0.135467 0.375356,-0.135467 h 0.2286 v 0.186267 H 38.34248 q -0.135467,0 -0.206022,0.08749 -0.07056,0.08749 -0.07056,0.189089 0,0.1016 0.04516,0.174978 0.04798,0.07338 0.118533,0.121355 0.07056,0.04798 0.1524,0.112889 0.08467,0.06491 0.155222,0.132644 0.07056,0.06491 0.115711,0.1778 0.04798,0.112889 0.04798,0.256823 0,0.265289 -0.1524,0.400755 -0.149578,0.135467 -0.412044,0.135467 h -0.296334 v -0.186267 z"
         style="font-style:normal;font-variant:normal;font-weight:normal;font-stretch:normal;font-size:2.82222223px;font-family:Homenaje;-inkscape-font-specification:Homenaje;stroke-width:0.26458332"
         id="path2783" />
      <path
         d="M 38.976422,87.937256 V 85.9617 h 0.248355 v 1.789289 h 0.578556 v 0.186267 z"
         style="font-style:normal;font-variant:normal;font-weight:normal;font-stretch:normal;font-size:2.82222223px;font-family:Homenaje;-inkscape-font-specification:Homenaje;stroke-width:0.26458332"
         id="path2785" />
      <path
         d="m 41.042024,87.449011 q 0,0.239889 -0.138289,0.375356 -0.138289,0.132644 -0.403578,0.132644 -0.262467,0 -0.400756,-0.132644 -0.138288,-0.135467 -0.138288,-0.375356 v -0.999066 q 0,-0.239889 0.138288,-0.372534 0.138289,-0.135466 0.400756,-0.135466 0.265289,0 0.403578,0.135466 0.138289,0.132645 0.138289,0.372534 z m -0.832556,0.04798 q 0,0.129822 0.08185,0.2032 0.08467,0.07056 0.208844,0.07056 0.124178,0 0.208844,-0.07056 0.08467,-0.07338 0.08467,-0.2032 v -1.095022 q 0,-0.129822 -0.08467,-0.200378 -0.08467,-0.07338 -0.208844,-0.07338 -0.124178,0 -0.208844,0.07338 -0.08185,0.07056 -0.08185,0.200378 z"
         style="font-style:normal;font-variant:normal;font-weight:normal;font-stretch:normal;font-size:2.82222223px;font-family:Homenaje;-inkscape-font-specification:Homenaje;stroke-width:0.26458332"
         id="path2787" />
      <path
         d="m 41.617051,86.147967 v 0.733778 h 0.180622 q 0.160867,0 0.248356,-0.110067 0.09031,-0.110067 0.09031,-0.285044 0,-0.338667 -0.338667,-0.338667 z m 0.767645,0.338667 q 0,0.273755 -0.149578,0.428977 -0.146756,0.1524 -0.420511,0.1524 h -0.197556 v 0.869245 H 41.368696 V 85.9617 h 0.499533 q 0.516467,0 0.516467,0.524934 z"
         style="font-style:normal;font-variant:normal;font-weight:normal;font-stretch:normal;font-size:2.82222223px;font-family:Homenaje;-inkscape-font-specification:Homenaje;stroke-width:0.26458332"
         id="path2789" />
      <path
         d="M 42.647515,87.937256 V 85.9617 h 0.860778 v 0.191911 h -0.612422 v 0.632178 h 0.496711 V 86.9777 h -0.496711 v 0.767645 h 0.640644 v 0.191911 z"
         style="font-style:normal;font-variant:normal;font-weight:normal;font-stretch:normal;font-size:2.82222223px;font-family:Homenaje;-inkscape-font-specification:Homenaje;stroke-width:0.26458332"
         id="path2791" />
    </g>
    <g
       aria-label="MULTIPLIER"
       style="font-style:normal;font-variant:normal;font-weight:normal;font-stretch:normal;font-size:3.52777767px;line-height:1.25;font-family:Homenaje;-inkscape-font-specification:Homenaje;letter-spacing:0px;word-spacing:0px;fill:#ffffff;fill-opacity:1;stroke:none;stroke-width:0.26458332"
       id="text5443-7-7-1">
      <path
         d="m 44.919667,58.159737 h -0.248356 v -1.975556 h 0.375356 l 0.378178,1.1684 h 0.01976 l 0.386645,-1.1684 h 0.361244 v 1.975556 h -0.248356 v -1.679223 l -0.378177,1.154289 h -0.268111 l -0.378178,-1.157111 z"
         style="font-style:normal;font-variant:normal;font-weight:normal;font-stretch:normal;font-size:2.82222223px;font-family:Homenaje;-inkscape-font-specification:Homenaje;stroke-width:0.26458332"
         id="path2794" />
      <path
         d="m 46.488999,56.184181 h 0.248355 v 1.535289 q 0,0.135467 0.06491,0.206022 0.06773,0.06773 0.186267,0.06773 0.118533,0 0.186267,-0.06773 0.06773,-0.07055 0.06773,-0.206022 v -1.535289 h 0.248356 v 1.487311 q 0,0.508 -0.502356,0.508 -0.499533,0 -0.499533,-0.508 z"
         style="font-style:normal;font-variant:normal;font-weight:normal;font-stretch:normal;font-size:2.82222223px;font-family:Homenaje;-inkscape-font-specification:Homenaje;stroke-width:0.26458332"
         id="path2796" />
      <path
         d="m 47.819412,58.159737 v -1.975556 h 0.248355 v 1.789289 h 0.578556 v 0.186267 z"
         style="font-style:normal;font-variant:normal;font-weight:normal;font-stretch:normal;font-size:2.82222223px;font-family:Homenaje;-inkscape-font-specification:Homenaje;stroke-width:0.26458332"
         id="path2798" />
      <path
         d="m 49.007523,58.159737 v -1.789289 h -0.395111 v -0.186267 h 1.038578 v 0.186267 h -0.395111 v 1.789289 z"
         style="font-style:normal;font-variant:normal;font-weight:normal;font-stretch:normal;font-size:2.82222223px;font-family:Homenaje;-inkscape-font-specification:Homenaje;stroke-width:0.26458332"
         id="path2800" />
      <path
         d="m 49.91403,58.159737 v -1.975556 h 0.248356 v 1.975556 z"
         style="font-style:normal;font-variant:normal;font-weight:normal;font-stretch:normal;font-size:2.82222223px;font-family:Homenaje;-inkscape-font-specification:Homenaje;stroke-width:0.26458332"
         id="path2802" />
      <path
         d="m 50.823844,56.370448 v 0.733778 h 0.180622 q 0.160866,0 0.248355,-0.110067 0.09031,-0.110067 0.09031,-0.285045 0,-0.338666 -0.338666,-0.338666 z m 0.767644,0.338666 q 0,0.273756 -0.149578,0.428978 -0.146755,0.1524 -0.420511,0.1524 h -0.197555 v 0.869245 h -0.248356 v -1.975556 h 0.499533 q 0.516467,0 0.516467,0.524933 z"
         style="font-style:normal;font-variant:normal;font-weight:normal;font-stretch:normal;font-size:2.82222223px;font-family:Homenaje;-inkscape-font-specification:Homenaje;stroke-width:0.26458332"
         id="path2804" />
      <path
         d="m 51.854308,58.159737 v -1.975556 h 0.248355 v 1.789289 h 0.578556 v 0.186267 z"
         style="font-style:normal;font-variant:normal;font-weight:normal;font-stretch:normal;font-size:2.82222223px;font-family:Homenaje;-inkscape-font-specification:Homenaje;stroke-width:0.26458332"
         id="path2806" />
      <path
         d="m 52.923665,58.159737 v -1.975556 h 0.248356 v 1.975556 z"
         style="font-style:normal;font-variant:normal;font-weight:normal;font-stretch:normal;font-size:2.82222223px;font-family:Homenaje;-inkscape-font-specification:Homenaje;stroke-width:0.26458332"
         id="path2808" />
      <path
         d="m 53.585124,58.159737 v -1.975556 h 0.860778 v 0.191911 H 53.83348 v 0.632178 h 0.496711 v 0.191911 H 53.83348 v 0.767645 h 0.640644 v 0.191911 z"
         style="font-style:normal;font-variant:normal;font-weight:normal;font-stretch:normal;font-size:2.82222223px;font-family:Homenaje;-inkscape-font-specification:Homenaje;stroke-width:0.26458332"
         id="path2810" />
      <path
         d="m 55.04064,56.370448 v 0.7366 h 0.200378 q 0.160867,0 0.248356,-0.110067 0.09031,-0.112889 0.09031,-0.287867 0,-0.338666 -0.338667,-0.338666 z m -0.0056,0.922866 v 0.866423 h -0.242711 v -1.975556 h 0.522111 q 0.508,0 0.508,0.524933 0,0.197556 -0.0762,0.344312 -0.0762,0.146755 -0.217311,0.2032 l 0.392289,0.903111 H 55.678463 L 55.29464,57.293314 Z"
         style="font-style:normal;font-variant:normal;font-weight:normal;font-stretch:normal;font-size:2.82222223px;font-family:Homenaje;-inkscape-font-specification:Homenaje;stroke-width:0.26458332"
         id="path2812" />
    </g>
    <g
       aria-label=":"
       style="font-style:normal;font-weight:normal;font-size:3.52777767px;line-height:1.25;font-family:sans-serif;letter-spacing:0px;word-spacing:0px;fill:#ffffff;fill-opacity:1;stroke:none;stroke-width:0.26458332"
       id="text5443-7-7-1-0">
      <path
         d="m 65.751164,62.96705 q 0,0.144694 -0.02412,0.241156 -0.02411,0.09646 -0.08268,0.158475 -0.05512,0.06201 -0.148139,0.08957 -0.09302,0.02412 -0.234267,0.02412 -0.141249,0 -0.234266,-0.02412 -0.09302,-0.02756 -0.151584,-0.08957 -0.05512,-0.06201 -0.07579,-0.158475 -0.02067,-0.09646 -0.02067,-0.241156 0,-0.14814 0.02067,-0.248047 0.02067,-0.09991 0.07579,-0.16192 0.05857,-0.06201 0.151584,-0.08957 0.09302,-0.02756 0.234266,-0.02756 0.141249,0 0.234267,0.02756 0.09302,0.02756 0.148139,0.08957 0.05857,0.06201 0.08268,0.16192 0.02412,0.09991 0.02412,0.248047 z m 0,2.249647 q 0,0.144694 -0.02412,0.244602 -0.02411,0.09646 -0.08268,0.158474 -0.05512,0.06201 -0.148139,0.08613 -0.09302,0.02756 -0.234267,0.02756 -0.141249,0 -0.234266,-0.02756 -0.09302,-0.02411 -0.151584,-0.08613 -0.05512,-0.06201 -0.07579,-0.158474 -0.02067,-0.09991 -0.02067,-0.244602 0,-0.144694 0.02067,-0.244602 0.02067,-0.103353 0.07579,-0.165364 0.05857,-0.06201 0.151584,-0.08613 0.09302,-0.02756 0.234266,-0.02756 0.141249,0 0.234267,0.02756 0.09302,0.02412 0.148139,0.08613 0.05857,0.06201 0.08268,0.165364 0.02412,0.09991 0.02412,0.244602 z"
         style="font-style:normal;font-variant:normal;font-weight:bold;font-stretch:normal;font-size:7.05555534px;font-family:Calibri;-inkscape-font-specification:'Calibri Bold';stroke-width:0.26458332"
         id="path2815" />
    </g>
    <g
       id="g346"
       transform="matrix(0.12402883,0,0,0.12402883,43.670772,90.650939)"
       style="stroke:#ffffff;stroke-width:1.06662023;stroke-miterlimit:4;stroke-dasharray:none;stroke-opacity:1">
      <!-- <text font-size="6pt" letter-spacing="2px" transform="translate(6.5 40)">SIN</text> -->
      <g
         id="g344"
         transform="translate(9,33.5)"
         style="stroke:#ffffff;stroke-width:1.06662023;stroke-miterlimit:4;stroke-dasharray:none;stroke-opacity:1">
        <!-- <rect width="12" height="8" fill="none" stroke-width="1" stroke="#0f0" /> -->
        <path
           style="fill:none;stroke:#ffffff;stroke-width:1.06662023;stroke-miterlimit:4;stroke-dasharray:none;stroke-opacity:1"
           inkscape:connector-curvature="0"
           id="path340"
           d="M 0,4 A 3,4.5 0 0 1 6,4" />
        <path
           style="fill:none;stroke:#ffffff;stroke-width:1.06662023;stroke-miterlimit:4;stroke-dasharray:none;stroke-opacity:1"
           inkscape:connector-curvature="0"
           id="path342"
           d="m 6,4 a 3,4.5 0 0 0 6,0" />
      </g>
    </g>
    <g
       style="font-style:normal;font-variant:normal;font-weight:bold;font-stretch:normal;font-size:13.33333302px;line-height:1.25;font-family:Consolas;-inkscape-font-specification:'Consolas Bold';text-align:center;letter-spacing:0px;word-spacing:0px;text-anchor:middle;fill:#000000;fill-opacity:1;stroke:none"
       id="flowRoot3926" />
    <g
       style="font-style:normal;font-variant:normal;font-weight:bold;font-stretch:normal;font-size:13.33333302px;line-height:1.25;font-family:Consolas;-inkscape-font-specification:'Consolas Bold';text-align:center;letter-spacing:0px;word-spacing:0px;text-anchor:middle;fill:#000000;fill-opacity:1;stroke:none"
       id="flowRoot3934" />
  </g>
</svg>
