<?xml version="1.0" encoding="UTF-8" standalone="no"?>
<svg
   xmlns:dc="http://purl.org/dc/elements/1.1/"
   xmlns:cc="http://creativecommons.org/ns#"
   xmlns:rdf="http://www.w3.org/1999/02/22-rdf-syntax-ns#"
   xmlns:svg="http://www.w3.org/2000/svg"
   xmlns="http://www.w3.org/2000/svg"
   xmlns:xlink="http://www.w3.org/1999/xlink"
   xmlns:sodipodi="http://sodipodi.sourceforge.net/DTD/sodipodi-0.dtd"
   xmlns:inkscape="http://www.inkscape.org/namespaces/inkscape"
   width="120"
   height="380"
   viewBox="0 0 31.750001 100.54167"
   version="1.1"
   id="svg11003"
   inkscape:version="1.0 (4035a4fb49, 2020-05-01)"
   sodipodi:docname="BPMLFO2.svg">
  <defs
     id="defs10997">
    <linearGradient
       inkscape:collect="always"
       id="linearGradient3391">
      <stop
         style="stop-color:#0c1622;stop-opacity:1"
         offset="0"
         id="stop3387" />
      <stop
         style="stop-color:#161625;stop-opacity:1"
         offset=".3"
         id="stop3388" />
      <stop
         style="stop-color:#081f35;stop-opacity:1"
         offset="1"
         id="stop3389" />
    </linearGradient>
    <linearGradient
       inkscape:collect="always"
       xlink:href="#linearGradient3391"
       id="linearGradient3393"
       x1="35.219627"
       y1="150.85843"
       x2="35.219627"
       y2="50.462322"
       gradientUnits="userSpaceOnUse"
       gradientTransform="matrix(0.8017296,0,0,1.0014499,6.9830088,-0.08643399)" />
  </defs>
  <sodipodi:namedview
     id="base"
     pagecolor="#ffffff"
     bordercolor="#666666"
     borderopacity="1.0"
     inkscape:pageopacity="0.0"
     inkscape:pageshadow="2"
     inkscape:zoom="2"
     inkscape:cx="-0.056389525"
     inkscape:cy="314.5719"
     inkscape:document-units="px"
     inkscape:current-layer="layer1"
     showgrid="false"
     fit-margin-top="0"
     fit-margin-left="0"
     fit-margin-right="0"
     fit-margin-bottom="0"
     inkscape:window-width="1920"
     inkscape:window-height="1058"
     inkscape:window-x="-6"
     inkscape:window-y="-6"
     inkscape:window-maximized="1"
     units="px"
     inkscape:measure-start="115.25,330.25"
     inkscape:measure-end="0,0"
     inkscape:document-rotation="0" />
  <metadata
     id="metadata11000">
    <rdf:RDF>
      <cc:Work
         rdf:about="">
        <dc:format>image/svg+xml</dc:format>
        <dc:type
           rdf:resource="http://purl.org/dc/dcmitype/StillImage" />
        <dc:title></dc:title>
      </cc:Work>
    </rdf:RDF>
  </metadata>
  <g
     inkscape:label="Layer 1"
     inkscape:groupmode="layer"
     id="layer1"
     transform="translate(-35.146312,-50.389004)">
    <path
       inkscape:connector-curvature="0"
       id="path33493"
       d="M 35.219628,50.449053 H 66.969629 V 150.99072 H 35.219628 Z m 0,0"
       style="fill:url(#linearGradient3393);fill-opacity:1;fill-rule:nonzero;stroke:none;stroke-width:0.247329"
       inkscape:export-filename="/home/vortico/pics/tmp/LFOs.png"
       inkscape:export-xdpi="150.22649"
       inkscape:export-ydpi="150.22649" />
    <g
       style="font-style:normal;font-variant:normal;font-weight:normal;font-stretch:normal;font-size:3.52778px;line-height:1.25;font-family:Quarca;-inkscape-font-specification:Quarca;letter-spacing:0px;word-spacing:0px;fill:#dddddd;fill-opacity:1;stroke:none;stroke-width:0.264583"
       id="text4978"
       aria-label="RESET">
      <path
         id="path5071"
         style="font-style:normal;font-variant:normal;font-weight:normal;font-stretch:normal;font-size:2.82222px;font-family:Quarca;-inkscape-font-specification:Quarca;fill:#dddddd;fill-opacity:1;stroke-width:0.264583"
         d="m 47.300211,132.1255 h 0.160866 v -0.80433 h 0.369711 l 0.561622,0.80433 h 0.189089 l -0.564444,-0.80433 h 0.03951 c 0.268111,0 0.397933,-0.127 0.397933,-0.381 v -0.43744 c 0,-0.254 -0.129822,-0.381 -0.397933,-0.381 h -0.756355 z m 0.160866,-1.85137 h 0.567267 c 0.180622,0 0.262466,0.0847 0.262466,0.27657 v 0.34149 c 0,0.19474 -0.08184,0.2794 -0.262466,0.2794 h -0.567267 z" />
      <path
         id="path5073"
         style="font-style:normal;font-variant:normal;font-weight:normal;font-stretch:normal;font-size:2.82222px;font-family:Quarca;-inkscape-font-specification:Quarca;fill:#dddddd;fill-opacity:1;stroke-width:0.264583"
         d="m 48.960382,130.27413 h 0.905932 l 0.02258,-0.1524 h -1.089377 v 2.00377 h 1.072444 l 0.02258,-0.1524 h -0.934155 v -0.61242 h 0.759177 l 0.02258,-0.14958 h -0.781755 z" />
      <path
         id="path5075"
         style="font-style:normal;font-variant:normal;font-weight:normal;font-stretch:normal;font-size:2.82222px;font-family:Quarca;-inkscape-font-specification:Quarca;fill:#dddddd;fill-opacity:1;stroke-width:0.264583"
         d="m 50.965481,131.29295 c 0.141111,0.0593 0.1778,0.10724 0.1778,0.24553 v 0.19473 c 0,0.16934 -0.07056,0.23989 -0.231422,0.23989 h -0.426156 c -0.160866,0 -0.234244,-0.0705 -0.234244,-0.23989 v -0.21166 h -0.160866 v 0.25118 c 0,0.23424 0.110066,0.35277 0.36971,0.35277 h 0.496711 c 0.234244,0 0.349955,-0.11853 0.349955,-0.35277 v -0.27658 c 0,-0.20038 -0.0762,-0.27093 -0.282222,-0.36125 l -0.578555,-0.24553 c -0.132644,-0.0564 -0.166511,-0.11007 -0.166511,-0.23424 v -0.12418 c 0,-0.19191 0.06209,-0.25682 0.242711,-0.25682 h 0.352778 c 0.160866,0 0.239889,0.0734 0.239889,0.24835 v 0.18909 h 0.163688 v -0.2286 c 0,-0.254 -0.121355,-0.36124 -0.380999,-0.36124 h -0.417689 c -0.248355,0 -0.361244,0.11006 -0.361244,0.36124 v 0.19756 c 0,0.2032 0.06773,0.27657 0.2794,0.36971 z" />
      <path
         id="path5077"
         style="font-style:normal;font-variant:normal;font-weight:normal;font-stretch:normal;font-size:2.82222px;font-family:Quarca;-inkscape-font-specification:Quarca;fill:#dddddd;fill-opacity:1;stroke-width:0.264583"
         d="m 51.788114,130.27413 h 0.905933 l 0.02258,-0.1524 h -1.089377 v 2.00377 h 1.072443 l 0.02258,-0.1524 h -0.934155 v -0.61242 h 0.759177 l 0.02258,-0.14958 h -0.781755 z" />
      <path
         id="path5079"
         style="font-style:normal;font-variant:normal;font-weight:normal;font-stretch:normal;font-size:2.82222px;font-family:Quarca;-inkscape-font-specification:Quarca;fill:#dddddd;fill-opacity:1;stroke-width:0.264583"
         d="m 54.013347,130.27413 v -0.1524 h -1.188155 v 0.1524 h 0.513644 v 1.85137 h 0.163689 v -1.85137 z" />
    </g>
    <g
       style="font-style:normal;font-variant:normal;font-weight:normal;font-stretch:normal;font-size:3.52778px;line-height:1.25;font-family:Quarca;-inkscape-font-specification:Quarca;letter-spacing:0px;word-spacing:0px;fill:#dddddd;fill-opacity:1;stroke:none;stroke-width:0.264583"
       id="text4982"
       aria-label="CLOCK">
      <path
         id="path5060"
         style="font-style:normal;font-variant:normal;font-weight:normal;font-stretch:normal;font-size:2.82222px;font-family:Quarca;-inkscape-font-specification:Quarca;fill:#dddddd;fill-opacity:1;stroke-width:0.264583"
         d="m 36.929251,131.9731 c -0.1778,0 -0.242711,-0.0847 -0.242711,-0.26246 v -1.17405 c 0,-0.1778 0.06491,-0.26246 0.242711,-0.26246 h 0.4572 c 0.1778,0 0.242711,0.0847 0.242711,0.26246 v 0.18345 h 0.160866 v -0.20885 c 0,-0.25964 -0.09878,-0.38946 -0.386644,-0.38946 h -0.491066 c -0.287867,0 -0.386644,0.12982 -0.386644,0.38946 v 1.22485 c 0,0.25964 0.09878,0.38946 0.386644,0.38946 h 0.491066 c 0.287866,0 0.386644,-0.12982 0.386644,-0.38946 v -0.21449 h -0.160866 v 0.18909 c 0,0.1778 -0.06491,0.26246 -0.242711,0.26246 z" />
      <path
         id="path5062"
         style="font-style:normal;font-variant:normal;font-weight:normal;font-stretch:normal;font-size:2.82222px;font-family:Quarca;-inkscape-font-specification:Quarca;fill:#dddddd;fill-opacity:1;stroke-width:0.264583"
         d="m 38.263279,130.12173 h -0.160866 v 2.00377 h 1.027288 l 0.02258,-0.1524 h -0.888999 z" />
      <path
         id="path5064"
         style="font-style:normal;font-variant:normal;font-weight:normal;font-stretch:normal;font-size:2.82222px;font-family:Quarca;-inkscape-font-specification:Quarca;fill:#dddddd;fill-opacity:1;stroke-width:0.264583"
         d="m 39.358918,131.73604 c 0,0.25964 0.09878,0.38946 0.386644,0.38946 h 0.536222 c 0.287866,0 0.386644,-0.12982 0.386644,-0.38946 v -1.22485 c 0,-0.25964 -0.09878,-0.38946 -0.386644,-0.38946 h -0.536222 c -0.287866,0 -0.386644,0.12982 -0.386644,0.38946 z m 0.403577,-1.46191 h 0.502356 c 0.180622,0 0.24271,0.0847 0.24271,0.26246 v 1.17405 c 0,0.1778 -0.06209,0.26246 -0.24271,0.26246 h -0.502356 c -0.1778,0 -0.242711,-0.0847 -0.242711,-0.26246 v -1.17405 c 0,-0.1778 0.06491,-0.26246 0.242711,-0.26246 z" />
      <path
         id="path5066"
         style="font-style:normal;font-variant:normal;font-weight:normal;font-stretch:normal;font-size:2.82222px;font-family:Quarca;-inkscape-font-specification:Quarca;fill:#dddddd;fill-opacity:1;stroke-width:0.264583"
         d="m 41.427164,131.9731 c -0.177799,0 -0.242711,-0.0847 -0.242711,-0.26246 v -1.17405 c 0,-0.1778 0.06491,-0.26246 0.242711,-0.26246 h 0.4572 c 0.1778,0 0.242711,0.0847 0.242711,0.26246 v 0.18345 h 0.160867 v -0.20885 c 0,-0.25964 -0.09878,-0.38946 -0.386645,-0.38946 h -0.491066 c -0.287866,0 -0.386644,0.12982 -0.386644,0.38946 v 1.22485 c 0,0.25964 0.09878,0.38946 0.386644,0.38946 h 0.491066 c 0.287867,0 0.386645,-0.12982 0.386645,-0.38946 v -0.21449 h -0.160867 v 0.18909 c 0,0.1778 -0.06491,0.26246 -0.242711,0.26246 z" />
      <path
         id="path5068"
         style="font-style:normal;font-variant:normal;font-weight:normal;font-stretch:normal;font-size:2.82222px;font-family:Quarca;-inkscape-font-specification:Quarca;fill:#dddddd;fill-opacity:1;stroke-width:0.264583"
         d="m 42.761193,132.1255 v -0.95955 l 0.829732,0.95955 h 0.189089 l -0.866422,-1.00188 0.849489,-1.00189 h -0.1778 l -0.824088,0.95955 v -0.95955 h -0.160867 v 2.00377 z" />
    </g>
    <g
       style="font-style:normal;font-weight:normal;font-size:3.52778px;line-height:1.25;font-family:sans-serif;letter-spacing:0px;word-spacing:0px;fill:#ffffff;fill-opacity:1;stroke:none;stroke-width:0.264583"
       id="text5097" />
    <g
       style="font-style:normal;font-variant:normal;font-weight:normal;font-stretch:normal;font-size:3.52778px;line-height:1.25;font-family:Quarca;-inkscape-font-specification:Quarca;letter-spacing:0px;word-spacing:0px;fill:#dddddd;fill-opacity:1;stroke:none;stroke-width:0.264583"
       id="text5443"
       aria-label="DIVISION">
      <path
         id="path5042"
         style="font-style:normal;font-variant:normal;font-weight:normal;font-stretch:normal;font-size:2.82222px;font-family:Quarca;-inkscape-font-specification:Quarca;fill:#dddddd;fill-opacity:1;stroke-width:0.264583"
         d="m 54.446764,58.128029 h 0.784577 c 0.352778,0 0.496711,-0.155222 0.496711,-0.474133 v -1.05551 c 0,-0.318911 -0.143933,-0.474133 -0.496711,-0.474133 h -0.784577 z m 0.77611,-0.1524 H 54.60763 v -1.698977 h 0.615244 c 0.245534,0 0.344311,0.110067 0.344311,0.3556 v 0.987777 c 0,0.245533 -0.09878,0.3556 -0.344311,0.3556 z" />
      <path
         id="path5044"
         style="font-style:normal;font-variant:normal;font-weight:normal;font-stretch:normal;font-size:2.82222px;font-family:Quarca;-inkscape-font-specification:Quarca;fill:#dddddd;fill-opacity:1;stroke-width:0.264583"
         d="m 56.255763,58.128029 v -2.003776 h -0.160867 v 2.003776 z" />
      <path
         id="path5046"
         style="font-style:normal;font-variant:normal;font-weight:normal;font-stretch:normal;font-size:2.82222px;font-family:Quarca;-inkscape-font-specification:Quarca;fill:#dddddd;fill-opacity:1;stroke-width:0.264583"
         d="m 57.270086,58.128029 0.570089,-2.003776 h -0.172156 l -0.468488,1.696154 c -0.0085,0.03951 -0.01693,0.08184 -0.01976,0.118533 -0.0056,-0.03669 -0.01129,-0.07902 -0.02258,-0.118533 l -0.468489,-1.696154 h -0.172155 l 0.57291,2.003776 z" />
      <path
         id="path5048"
         style="font-style:normal;font-variant:normal;font-weight:normal;font-stretch:normal;font-size:2.82222px;font-family:Quarca;-inkscape-font-specification:Quarca;fill:#dddddd;fill-opacity:1;stroke-width:0.264583"
         d="m 58.262185,58.128029 v -2.003776 h -0.160866 v 2.003776 z" />
      <path
         id="path5050"
         style="font-style:normal;font-variant:normal;font-weight:normal;font-stretch:normal;font-size:2.82222px;font-family:Quarca;-inkscape-font-specification:Quarca;fill:#dddddd;fill-opacity:1;stroke-width:0.264583"
         d="m 59.451486,57.295474 c 0.141111,0.05927 0.1778,0.107244 0.1778,0.245533 v 0.194733 c 0,0.169333 -0.07055,0.239889 -0.231422,0.239889 h -0.426155 c -0.160867,0 -0.234245,-0.07056 -0.234245,-0.239889 v -0.211666 h -0.160866 v 0.251177 c 0,0.234245 0.110067,0.352778 0.369711,0.352778 h 0.49671 c 0.234245,0 0.349956,-0.118533 0.349956,-0.352778 v -0.276577 c 0,-0.200378 -0.0762,-0.270933 -0.282222,-0.361244 l -0.578555,-0.245534 c -0.132645,-0.05644 -0.166511,-0.110066 -0.166511,-0.234244 v -0.124177 c 0,-0.191911 0.06209,-0.256823 0.242711,-0.256823 h 0.352777 c 0.160867,0 0.239889,0.07338 0.239889,0.248356 v 0.189089 h 0.163689 v -0.2286 c 0,-0.254 -0.121356,-0.361244 -0.381,-0.361244 h -0.417689 c -0.248355,0 -0.361244,0.110066 -0.361244,0.361244 v 0.197555 c 0,0.2032 0.06773,0.276578 0.2794,0.369711 z" />
      <path
         id="path5052"
         style="font-style:normal;font-variant:normal;font-weight:normal;font-stretch:normal;font-size:2.82222px;font-family:Quarca;-inkscape-font-specification:Quarca;fill:#dddddd;fill-opacity:1;stroke-width:0.264583"
         d="m 60.274119,58.128029 v -2.003776 h -0.160866 v 2.003776 z" />
      <path
         id="path5054"
         style="font-style:normal;font-variant:normal;font-weight:normal;font-stretch:normal;font-size:2.82222px;font-family:Quarca;-inkscape-font-specification:Quarca;fill:#dddddd;fill-opacity:1;stroke-width:0.264583"
         d="m 60.642154,57.738562 c 0,0.259645 0.09878,0.389467 0.386645,0.389467 h 0.536221 c 0.287867,0 0.386645,-0.129822 0.386645,-0.389467 v -1.224843 c 0,-0.259644 -0.09878,-0.389466 -0.386645,-0.389466 h -0.536221 c -0.287867,0 -0.386645,0.129822 -0.386645,0.389466 z m 0.403578,-1.46191 h 0.502355 c 0.180622,0 0.242711,0.08467 0.242711,0.262467 v 1.174044 c 0,0.177799 -0.06209,0.262466 -0.242711,0.262466 h -0.502355 c -0.1778,0 -0.242711,-0.08467 -0.242711,-0.262466 v -1.174044 c 0,-0.1778 0.06491,-0.262467 0.242711,-0.262467 z" />
      <path
         id="path5056"
         style="font-style:normal;font-variant:normal;font-weight:normal;font-stretch:normal;font-size:2.82222px;font-family:Quarca;-inkscape-font-specification:Quarca;fill:#dddddd;fill-opacity:1;stroke-width:0.264583"
         d="m 62.478979,58.128029 v -1.724377 c 0.04233,0.09313 0.07902,0.186267 0.146755,0.301978 l 0.824089,1.422399 h 0.163688 v -2.003776 h -0.163688 v 1.721554 c -0.03104,-0.07338 -0.05927,-0.143933 -0.112889,-0.237067 l -0.857955,-1.484487 h -0.160867 v 2.003776 z" />
    </g>
    <g
       style="font-style:normal;font-variant:normal;font-weight:bold;font-stretch:normal;font-size:3.52778px;line-height:1.25;font-family:Consolas;-inkscape-font-specification:'Consolas Bold';text-align:start;letter-spacing:0px;word-spacing:0px;text-anchor:start;fill:#dddddd;fill-opacity:1;stroke:none;stroke-width:0.264583"
       id="text3885"
       aria-label="BPM LFO 2">
      <path
         id="path5027"
         style="font-style:normal;font-variant:normal;font-weight:normal;font-stretch:normal;font-size:3.88056px;font-family:Quarca;-inkscape-font-specification:Quarca;text-align:start;text-anchor:start;fill:#dddddd;fill-opacity:1;stroke-width:0.264583"
         d="m 43.348395,54.283669 h 1.078796 c 0.41522,0 0.601487,-0.178506 0.601487,-0.535518 v -0.376414 c 0,-0.376414 -0.201789,-0.512234 -0.450145,-0.531637 0.20955,-0.04269 0.306564,-0.182386 0.306564,-0.438503 v -0.337609 c 0,-0.357011 -0.205669,-0.535517 -0.640292,-0.535517 h -0.89641 z m 0.221192,-1.334913 h 0.737307 c 0.34537,0 0.500592,0.131939 0.500592,0.434623 v 0.322086 c 0,0.248356 -0.128058,0.368653 -0.41522,0.368653 h -0.822679 z m 0,-1.210735 h 0.624771 c 0.322086,0 0.469547,0.108656 0.469547,0.376415 v 0.271639 c 0,0.221192 -0.120297,0.357011 -0.391936,0.357011 h -0.702382 z" />
      <path
         id="path5029"
         style="font-style:normal;font-variant:normal;font-weight:normal;font-stretch:normal;font-size:3.88056px;font-family:Quarca;-inkscape-font-specification:Quarca;text-align:start;text-anchor:start;fill:#dddddd;fill-opacity:1;stroke-width:0.264583"
         d="m 45.684189,53.150545 h 0.869246 c 0.34537,0 0.523876,-0.174625 0.523876,-0.519995 v -0.582084 c 0,-0.34537 -0.178506,-0.519995 -0.523876,-0.519995 h -1.090437 v 2.755198 h 0.221191 z m 0,-1.412524 h 0.838201 c 0.225073,0 0.329848,0.104775 0.329848,0.353131 v 0.496712 c 0,0.248356 -0.104775,0.353131 -0.329848,0.353131 h -0.838201 z" />
      <path
         id="path5031"
         style="font-style:normal;font-variant:normal;font-weight:normal;font-stretch:normal;font-size:3.88056px;font-family:Quarca;-inkscape-font-specification:Quarca;text-align:start;text-anchor:start;fill:#dddddd;fill-opacity:1;stroke-width:0.264583"
         d="m 47.70008,54.283669 v -2.398187 l 0.686859,1.342674 h 0.217311 l 0.69074,-1.342674 v 2.398187 h 0.21343 v -2.755198 h -0.263878 l -0.748948,1.462971 -0.745067,-1.462971 h -0.263878 v 2.755198 z" />
      <path
         id="path5033"
         style="font-style:normal;font-variant:normal;font-weight:normal;font-stretch:normal;font-size:3.88056px;font-family:Quarca;-inkscape-font-specification:Quarca;text-align:start;text-anchor:start;fill:#dddddd;fill-opacity:1;stroke-width:0.264583"
         d="m 51.035118,51.528471 h -0.221192 v 2.755198 h 1.412524 l 0.03104,-0.209551 h -1.222376 z" />
      <path
         id="path5035"
         style="font-style:normal;font-variant:normal;font-weight:normal;font-stretch:normal;font-size:3.88056px;font-family:Quarca;-inkscape-font-specification:Quarca;text-align:start;text-anchor:start;fill:#dddddd;fill-opacity:1;stroke-width:0.264583"
         d="m 52.778338,51.738021 h 1.234018 l 0.03105,-0.20955 h -1.486255 v 2.755198 h 0.221192 v -1.051632 h 0.977901 l 0.03104,-0.20567 h -1.008946 z" />
      <path
         id="path5037"
         style="font-style:normal;font-variant:normal;font-weight:normal;font-stretch:normal;font-size:3.88056px;font-family:Quarca;-inkscape-font-specification:Quarca;text-align:start;text-anchor:start;fill:#dddddd;fill-opacity:1;stroke-width:0.264583"
         d="m 54.360637,53.748151 c 0,0.357012 0.135819,0.535518 0.531636,0.535518 h 0.737307 c 0.395817,0 0.531636,-0.178506 0.531636,-0.535518 v -1.684163 c 0,-0.357011 -0.135819,-0.535517 -0.531636,-0.535517 h -0.737307 c -0.395817,0 -0.531636,0.178506 -0.531636,0.535517 z m 0.55492,-2.01013 h 0.690739 c 0.248356,0 0.333729,0.116417 0.333729,0.360892 v 1.614313 c 0,0.244475 -0.08537,0.360892 -0.333729,0.360892 h -0.690739 c -0.244476,0 -0.333728,-0.116417 -0.333728,-0.360892 v -1.614313 c 0,-0.244475 0.08925,-0.360892 0.333728,-0.360892 z" />
      <path
         id="path5039"
         style="font-style:normal;font-variant:normal;font-weight:normal;font-stretch:normal;font-size:3.88056px;font-family:Quarca;-inkscape-font-specification:Quarca;text-align:start;text-anchor:start;fill:#dddddd;fill-opacity:1;stroke-width:0.264583"
         d="m 58.493312,54.074118 h -0.888649 v -0.395817 c 0,-0.194028 0.08537,-0.318206 0.248356,-0.391936 l 0.814918,-0.364773 c 0.20955,-0.09313 0.34925,-0.225072 0.34925,-0.500592 v -0.357012 c 0,-0.357011 -0.135819,-0.535517 -0.535517,-0.535517 h -0.55492 c -0.395817,0 -0.535517,0.178506 -0.535517,0.535517 v 0.27552 h 0.225072 v -0.240595 c 0,-0.244475 0.08537,-0.360892 0.333728,-0.360892 h 0.512234 c 0.244475,0 0.329848,0.116417 0.329848,0.360892 v 0.287162 c 0,0.162983 -0.04269,0.271639 -0.201789,0.341489 l -0.818798,0.364773 c -0.225073,0.100894 -0.391937,0.252236 -0.391937,0.5588 v 0.632532 h 1.133123 c 0.399698,0 0.535518,-0.178506 0.535518,-0.535518 v -0.294922 h -0.225073 v 0.259997 c 0,0.244475 -0.08537,0.360892 -0.329847,0.360892 z" />
    </g>
    <g
       style="font-style:normal;font-variant:normal;font-weight:normal;font-stretch:normal;font-size:3.52778px;line-height:1.25;font-family:Quarca;-inkscape-font-specification:Quarca;letter-spacing:0px;word-spacing:0px;fill:#dddddd;fill-opacity:1;stroke:none;stroke-width:0.264583"
       id="text4978-4"
       aria-label="HOLD">
      <path
         id="path5018"
         style="font-style:normal;font-variant:normal;font-weight:normal;font-stretch:normal;font-size:2.82222px;font-family:Quarca;-inkscape-font-specification:Quarca;fill:#dddddd;fill-opacity:1;stroke-width:0.264583"
         d="m 57.77983,132.1255 v -0.75917 h 0.92851 v 0.75917 h 0.160867 v -2.00377 H 58.70834 v 1.0922 h -0.92851 v -1.0922 h -0.160867 v 2.00377 z" />
      <path
         id="path5020"
         style="font-style:normal;font-variant:normal;font-weight:normal;font-stretch:normal;font-size:2.82222px;font-family:Quarca;-inkscape-font-specification:Quarca;fill:#dddddd;fill-opacity:1;stroke-width:0.264583"
         d="m 59.233758,131.73604 c 0,0.25964 0.09878,0.38946 0.386644,0.38946 h 0.536222 c 0.287867,0 0.386644,-0.12982 0.386644,-0.38946 v -1.22485 c 0,-0.25964 -0.09878,-0.38946 -0.386644,-0.38946 h -0.536222 c -0.287866,0 -0.386644,0.12982 -0.386644,0.38946 z m 0.403578,-1.46191 h 0.502355 c 0.180622,0 0.242711,0.0847 0.242711,0.26246 v 1.17405 c 0,0.1778 -0.06209,0.26246 -0.242711,0.26246 h -0.502355 c -0.1778,0 -0.242711,-0.0847 -0.242711,-0.26246 v -1.17405 c 0,-0.1778 0.06491,-0.26246 0.242711,-0.26246 z" />
      <path
         id="path5022"
         style="font-style:normal;font-variant:normal;font-weight:normal;font-stretch:normal;font-size:2.82222px;font-family:Quarca;-inkscape-font-specification:Quarca;fill:#dddddd;fill-opacity:1;stroke-width:0.264583"
         d="m 61.070583,130.12173 h -0.160867 v 2.00377 h 1.027288 l 0.02258,-0.1524 h -0.888999 z" />
      <path
         id="path5024"
         style="font-style:normal;font-variant:normal;font-weight:normal;font-stretch:normal;font-size:2.82222px;font-family:Quarca;-inkscape-font-specification:Quarca;fill:#dddddd;fill-opacity:1;stroke-width:0.264583"
         d="m 62.17751,132.1255 h 0.784577 c 0.352778,0 0.496711,-0.15522 0.496711,-0.47413 v -1.05551 c 0,-0.31891 -0.143933,-0.47413 -0.496711,-0.47413 H 62.17751 Z m 0.776111,-0.1524 h -0.615244 v -1.69897 h 0.615244 c 0.245533,0 0.344311,0.11006 0.344311,0.3556 v 0.98777 c 0,0.24554 -0.09878,0.3556 -0.344311,0.3556 z" />
    </g>
    <g
       style="font-style:normal;font-variant:normal;font-weight:normal;font-stretch:normal;font-size:3.52778px;line-height:1.25;font-family:Quarca;-inkscape-font-specification:Quarca;letter-spacing:0px;word-spacing:0px;fill:#dddddd;fill-opacity:1;stroke:none;stroke-width:0.264583"
       id="text5443-0"
       aria-label="MOM.">
      <path
         id="path5009"
         style="font-style:normal;font-variant:normal;font-weight:normal;font-stretch:normal;font-size:2.11667px;font-family:Quarca;-inkscape-font-specification:Quarca;fill:#dddddd;fill-opacity:1;stroke-width:0.264583"
         d="m 61.58877,127.27646 v -1.3081 l 0.37465,0.73236 h 0.118534 l 0.376767,-0.73236 v 1.3081 h 0.116417 v -1.50284 h -0.143934 l -0.408517,0.79799 -0.406401,-0.79799 h -0.143933 v 1.50284 z" />
      <path
         id="path5011"
         style="font-style:normal;font-variant:normal;font-weight:normal;font-stretch:normal;font-size:2.11667px;font-family:Quarca;-inkscape-font-specification:Quarca;fill:#dddddd;fill-opacity:1;stroke-width:0.264583"
         d="m 62.848817,126.98436 c 0,0.19473 0.07408,0.2921 0.289983,0.2921 h 0.402168 c 0.2159,0 0.289983,-0.0974 0.289983,-0.2921 v -0.91864 c 0,-0.19473 -0.07408,-0.2921 -0.289983,-0.2921 H 63.1388 c -0.2159,0 -0.289983,0.0974 -0.289983,0.2921 z m 0.302683,-1.09644 h 0.376768 c 0.135466,0 0.182033,0.0635 0.182033,0.19685 v 0.88054 c 0,0.13335 -0.04657,0.19685 -0.182033,0.19685 H 63.1515 c -0.13335,0 -0.182033,-0.0635 -0.182033,-0.19685 v -0.88054 c 0,-0.13335 0.04868,-0.19685 0.182033,-0.19685 z" />
      <path
         id="path5013"
         style="font-style:normal;font-variant:normal;font-weight:normal;font-stretch:normal;font-size:2.11667px;font-family:Quarca;-inkscape-font-specification:Quarca;fill:#dddddd;fill-opacity:1;stroke-width:0.264583"
         d="m 64.222205,127.27646 v -1.3081 l 0.37465,0.73236 h 0.118534 l 0.376767,-0.73236 v 1.3081 h 0.116417 v -1.50284 h -0.143934 l -0.408517,0.79799 -0.406401,-0.79799 h -0.143933 v 1.50284 z" />
      <path
         id="path5015"
         style="font-style:normal;font-variant:normal;font-weight:normal;font-stretch:normal;font-size:2.11667px;font-family:Quarca;-inkscape-font-specification:Quarca;fill:#dddddd;fill-opacity:1;stroke-width:0.264583"
         d="m 65.467435,127.28704 h 0.129117 v -0.15663 h -0.129117 z" />
    </g>
    <g
       style="font-style:normal;font-variant:normal;font-weight:normal;font-stretch:normal;font-size:3.52778px;line-height:1.25;font-family:Quarca;-inkscape-font-specification:Quarca;letter-spacing:0px;word-spacing:0px;fill:#dddddd;fill-opacity:1;stroke:none;stroke-width:0.264583"
       id="text5443-0-4"
       aria-label="GATE">
      <path
         id="path5000"
         style="font-style:normal;font-variant:normal;font-weight:normal;font-stretch:normal;font-size:2.11667px;font-family:Quarca;-inkscape-font-specification:Quarca;fill:#dddddd;fill-opacity:1;stroke-width:0.264583"
         d="m 61.935905,118.17789 h 0.361951 v 0.31539 c 0,0.12276 -0.0508,0.18203 -0.186267,0.18203 h -0.334434 c -0.124883,0 -0.18415,-0.0571 -0.18415,-0.19262 v -0.87418 c 0,-0.14393 0.04868,-0.20743 0.173567,-0.20743 h 0.36195 c 0.124884,0 0.179917,0.0572 0.179917,0.19261 v 0.13547 h 0.120651 v -0.17145 c 0,-0.18838 -0.09313,-0.27093 -0.273051,-0.27093 h -0.429684 c -0.169333,0 -0.254,0.0953 -0.254,0.28575 v 0.94826 c 0,0.19051 0.105833,0.26882 0.275167,0.26882 h 0.3937 c 0.209551,0 0.279401,-0.10372 0.279401,-0.28575 v -0.44027 h -0.467784 z" />
      <path
         id="path5002"
         style="font-style:normal;font-variant:normal;font-weight:normal;font-stretch:normal;font-size:2.11667px;font-family:Quarca;-inkscape-font-specification:Quarca;fill:#dddddd;fill-opacity:1;stroke-width:0.264583"
         d="m 63.010611,117.28678 -0.46355,1.50283 h 0.129117 l 0.09737,-0.32597 h 0.605368 l 0.09737,0.32597 h 0.129117 l -0.461434,-1.50283 z m 0.06773,0.16086 0.2667,0.9017 h -0.537634 z" />
      <path
         id="path5004"
         style="font-style:normal;font-variant:normal;font-weight:normal;font-stretch:normal;font-size:2.11667px;font-family:Quarca;-inkscape-font-specification:Quarca;fill:#dddddd;fill-opacity:1;stroke-width:0.264583"
         d="m 64.427954,117.40108 v -0.1143 h -0.891118 v 0.1143 h 0.385233 v 1.38853 h 0.122767 v -1.38853 z" />
      <path
         id="path5006"
         style="font-style:normal;font-variant:normal;font-weight:normal;font-stretch:normal;font-size:2.11667px;font-family:Quarca;-inkscape-font-specification:Quarca;fill:#dddddd;fill-opacity:1;stroke-width:0.264583"
         d="m 64.714465,117.40108 h 0.679451 l 0.01693,-0.1143 h -0.817035 v 1.50283 h 0.804335 l 0.01693,-0.1143 h -0.700617 v -0.45932 h 0.569384 l 0.01693,-0.11218 h -0.586317 z" />
    </g>
    <g
       style="font-style:normal;font-variant:normal;font-weight:bold;font-stretch:normal;font-size:13.3333px;line-height:1.25;font-family:Consolas;-inkscape-font-specification:'Consolas Bold';text-align:center;letter-spacing:0px;word-spacing:0px;text-anchor:middle;fill:#ffffff;fill-opacity:1;stroke:none"
       id="flowRoot1527"
       transform="matrix(0.26458333,0,0,0.26458333,34.617145,50.389004)" />
    <g
       style="font-style:normal;font-variant:normal;font-weight:normal;font-stretch:normal;font-size:3.52778px;line-height:1.25;font-family:Quarca;-inkscape-font-specification:Quarca;letter-spacing:0px;word-spacing:0px;fill:#dddddd;fill-opacity:1;stroke:none;stroke-width:0.264583"
       id="text5443-0-6"
       aria-label="BI">
      <path
         id="path4994"
         style="font-style:normal;font-variant:normal;font-weight:normal;font-stretch:normal;font-size:2.11667px;font-family:Quarca;-inkscape-font-specification:Quarca;fill:#dddddd;fill-opacity:1;stroke-width:0.264583"
         d="m 43.612978,127.27604 h 0.588434 c 0.226484,0 0.328084,-0.0974 0.328084,-0.2921 v -0.20532 c 0,-0.20532 -0.110067,-0.2794 -0.245534,-0.28998 0.1143,-0.0233 0.167217,-0.0995 0.167217,-0.23919 v -0.18415 c 0,-0.19473 -0.112183,-0.2921 -0.34925,-0.2921 h -0.488951 z m 0.12065,-0.72814 h 0.402167 c 0.188384,0 0.273051,0.072 0.273051,0.23707 v 0.17569 c 0,0.13546 -0.06985,0.20108 -0.226484,0.20108 h -0.448734 z m 0,-0.6604 h 0.340784 c 0.175683,0 0.256117,0.0593 0.256117,0.20532 v 0.14817 c 0,0.12065 -0.06562,0.19473 -0.213784,0.19473 h -0.383117 z" />
      <path
         id="path4996"
         style="font-style:normal;font-variant:normal;font-weight:normal;font-stretch:normal;font-size:2.11667px;font-family:Quarca;-inkscape-font-specification:Quarca;fill:#dddddd;fill-opacity:1;stroke-width:0.264583"
         d="m 44.887048,127.27604 v -1.50284 h -0.12065 v 1.50284 z" />
    </g>
    <g
       style="font-style:normal;font-variant:normal;font-weight:normal;font-stretch:normal;font-size:3.52778px;line-height:1.25;font-family:Quarca;-inkscape-font-specification:Quarca;letter-spacing:0px;word-spacing:0px;fill:#dddddd;fill-opacity:1;stroke:none;stroke-width:0.264583"
       id="text5443-0-4-9"
       aria-label="UNI">
      <path
         id="path4987"
         style="font-style:normal;font-variant:normal;font-weight:normal;font-stretch:normal;font-size:2.11667px;font-family:Quarca;-inkscape-font-specification:Quarca;fill:#dddddd;fill-opacity:1;stroke-width:0.264583"
         d="m 43.55266,118.67525 h -0.270934 c -0.14605,0 -0.20955,-0.0677 -0.20955,-0.22225 v -1.16628 h -0.120651 v 1.20015 c 0,0.20108 0.09313,0.30268 0.304801,0.30268 h 0.321734 c 0.211667,0 0.3048,-0.1016 0.3048,-0.30268 v -1.20015 h -0.122767 v 1.16628 c 0,0.15452 -0.06138,0.22225 -0.207433,0.22225 z" />
      <path
         id="path4989"
         style="font-style:normal;font-variant:normal;font-weight:normal;font-stretch:normal;font-size:2.11667px;font-family:Quarca;-inkscape-font-specification:Quarca;fill:#dddddd;fill-opacity:1;stroke-width:0.264583"
         d="m 44.283572,118.78955 v -1.29328 c 0.03175,0.0699 0.05927,0.1397 0.110067,0.22648 l 0.618068,1.0668 h 0.122767 v -1.50283 h -0.122767 v 1.29116 c -0.02328,-0.055 -0.04445,-0.10795 -0.08467,-0.1778 l -0.643468,-1.11336 h -0.12065 v 1.50283 z" />
      <path
         id="path4991"
         style="font-style:normal;font-variant:normal;font-weight:normal;font-stretch:normal;font-size:2.11667px;font-family:Quarca;-inkscape-font-specification:Quarca;fill:#dddddd;fill-opacity:1;stroke-width:0.264583"
         d="m 45.540345,118.78955 v -1.50283 h -0.12065 v 1.50283 z" />
    </g>
    <g
       style="font-style:normal;font-variant:normal;font-weight:normal;font-stretch:normal;font-size:3.52778px;line-height:1.25;font-family:Quarca;-inkscape-font-specification:Quarca;letter-spacing:0px;word-spacing:0px;fill:#dddddd;fill-opacity:1;stroke:none;stroke-width:0.264583"
       id="text5443-0-4-7"
       aria-label="PAUSE">
      <path
         id="path4976"
         style="font-style:normal;font-variant:normal;font-weight:normal;font-stretch:normal;font-size:2.11667px;font-family:Quarca;-inkscape-font-specification:Quarca;fill:#dddddd;fill-opacity:1;stroke-width:0.264583"
         d="m 54.581547,118.26601 h 0.474134 c 0.188384,0 0.285751,-0.0952 0.285751,-0.28363 v -0.3175 c 0,-0.18839 -0.09737,-0.28364 -0.285751,-0.28364 h -0.594784 v 1.50284 h 0.12065 z m 0,-0.77047 h 0.457201 c 0.122767,0 0.179917,0.0571 0.179917,0.19262 v 0.27093 c 0,0.13547 -0.05715,0.19262 -0.179917,0.19262 h -0.457201 z" />
      <path
         id="path4978"
         style="font-style:normal;font-variant:normal;font-weight:normal;font-stretch:normal;font-size:2.11667px;font-family:Quarca;-inkscape-font-specification:Quarca;fill:#dddddd;fill-opacity:1;stroke-width:0.264583"
         d="m 55.821188,117.38124 -0.46355,1.50284 h 0.129117 l 0.09737,-0.32597 h 0.605368 l 0.09737,0.32597 h 0.129117 l -0.461434,-1.50284 z m 0.06773,0.16087 0.2667,0.9017 h -0.537634 z" />
      <path
         id="path4980"
         style="font-style:normal;font-variant:normal;font-weight:normal;font-stretch:normal;font-size:2.11667px;font-family:Quarca;-inkscape-font-specification:Quarca;fill:#dddddd;fill-opacity:1;stroke-width:0.264583"
         d="m 57.174468,118.76978 h -0.270934 c -0.14605,0 -0.20955,-0.0677 -0.20955,-0.22225 v -1.16629 h -0.12065 v 1.20016 c 0,0.20108 0.09313,0.30268 0.3048,0.30268 h 0.321734 c 0.211667,0 0.304801,-0.1016 0.304801,-0.30268 v -1.20016 h -0.122767 v 1.16629 c 0,0.15452 -0.06138,0.22225 -0.207434,0.22225 z" />
      <path
         id="path4982"
         style="font-style:normal;font-variant:normal;font-weight:normal;font-stretch:normal;font-size:2.11667px;font-family:Quarca;-inkscape-font-specification:Quarca;fill:#dddddd;fill-opacity:1;stroke-width:0.264583"
         d="m 58.392215,118.25966 c 0.105833,0.0444 0.13335,0.0804 0.13335,0.18415 v 0.14605 c 0,0.127 -0.05292,0.17992 -0.173567,0.17992 h -0.319617 c -0.12065,0 -0.175684,-0.0529 -0.175684,-0.17992 v -0.15875 h -0.12065 v 0.18839 c 0,0.17568 0.08255,0.26458 0.277284,0.26458 h 0.372534 c 0.175683,0 0.262467,-0.0889 0.262467,-0.26458 v -0.20744 c 0,-0.15028 -0.05715,-0.2032 -0.211667,-0.27093 l -0.433918,-0.18415 c -0.09948,-0.0423 -0.124883,-0.0825 -0.124883,-0.17569 v -0.0931 c 0,-0.14393 0.04657,-0.19262 0.182034,-0.19262 h 0.264583 c 0.12065,0 0.179917,0.055 0.179917,0.18627 v 0.14182 h 0.122767 v -0.17145 c 0,-0.1905 -0.09102,-0.27094 -0.28575,-0.27094 h -0.313267 c -0.186267,0 -0.270934,0.0825 -0.270934,0.27094 v 0.14816 c 0,0.1524 0.0508,0.20744 0.20955,0.27729 z" />
      <path
         id="path4984"
         style="font-style:normal;font-variant:normal;font-weight:normal;font-stretch:normal;font-size:2.11667px;font-family:Quarca;-inkscape-font-specification:Quarca;fill:#dddddd;fill-opacity:1;stroke-width:0.264583"
         d="m 59.009191,117.49554 h 0.679451 l 0.01693,-0.1143 h -0.817035 v 1.50284 h 0.804335 l 0.01693,-0.1143 h -0.700618 v -0.45932 h 0.569384 l 0.01693,-0.11218 h -0.586318 z" />
    </g>
    <g
       style="font-style:normal;font-variant:normal;font-weight:normal;font-stretch:normal;font-size:3.52778px;line-height:1.25;font-family:Quarca;-inkscape-font-specification:Quarca;letter-spacing:0px;word-spacing:0px;fill:#dddddd;fill-opacity:1;stroke:none;stroke-width:0.264583"
       id="text5443-0-4-0"
       aria-label="FREE">
      <path
         id="path4967"
         style="font-style:normal;font-variant:normal;font-weight:normal;font-stretch:normal;font-size:2.11667px;font-family:Quarca;-inkscape-font-specification:Quarca;fill:#dddddd;fill-opacity:1;stroke-width:0.264583"
         d="m 55.375298,125.99422 h 0.673101 l 0.01693,-0.1143 h -0.810685 v 1.50284 h 0.12065 v -0.57362 h 0.533401 l 0.01693,-0.11218 h -0.550334 z" />
      <path
         id="path4969"
         style="font-style:normal;font-variant:normal;font-weight:normal;font-stretch:normal;font-size:2.11667px;font-family:Quarca;-inkscape-font-specification:Quarca;fill:#dddddd;fill-opacity:1;stroke-width:0.264583"
         d="m 56.246837,127.38276 h 0.12065 v -0.60325 h 0.277284 l 0.421217,0.60325 h 0.141817 l -0.423334,-0.60325 h 0.02963 c 0.201083,0 0.29845,-0.0953 0.29845,-0.28575 v -0.32809 c 0,-0.1905 -0.09737,-0.28575 -0.29845,-0.28575 h -0.567268 z m 0.12065,-1.38854 h 0.425451 c 0.135467,0 0.19685,0.0635 0.19685,0.20744 v 0.25611 c 0,0.14605 -0.06138,0.20955 -0.19685,0.20955 h -0.425451 z" />
      <path
         id="path4971"
         style="font-style:normal;font-variant:normal;font-weight:normal;font-stretch:normal;font-size:2.11667px;font-family:Quarca;-inkscape-font-specification:Quarca;fill:#dddddd;fill-opacity:1;stroke-width:0.264583"
         d="m 57.491968,125.99422 h 0.679451 l 0.01693,-0.1143 h -0.817034 v 1.50284 h 0.804334 l 0.01693,-0.1143 h -0.700618 v -0.45932 h 0.569384 l 0.01693,-0.11218 h -0.586318 z" />
      <path
         id="path4973"
         style="font-style:normal;font-variant:normal;font-weight:normal;font-stretch:normal;font-size:2.11667px;font-family:Quarca;-inkscape-font-specification:Quarca;fill:#dddddd;fill-opacity:1;stroke-width:0.264583"
         d="m 58.508962,125.99422 h 0.679451 l 0.01693,-0.1143 h -0.817034 v 1.50284 h 0.804334 l 0.01693,-0.1143 h -0.700618 v -0.45932 h 0.569384 l 0.01693,-0.11218 h -0.586317 z" />
    </g>
    <g
       style="font-style:normal;font-variant:normal;font-weight:bold;font-stretch:normal;font-size:2.77782px;line-height:1.25;font-family:Consolas;-inkscape-font-specification:'Consolas Bold';text-align:start;letter-spacing:0px;word-spacing:0px;text-anchor:start;fill:#00a3f2;fill-opacity:1;stroke:none;stroke-width:0.208337"
       id="text3885-7"
       aria-label="FROZEN WASTELAND">
      <path
         id="path4936"
         style="font-style:normal;font-variant:normal;font-weight:normal;font-stretch:normal;font-family:'Bradley Gratis';-inkscape-font-specification:'Bradley Gratis';text-align:start;text-anchor:start;stroke-width:0.208337"
         d="m 41.184485,150.13075 q 0.09445,-0.0944 0.150002,-0.16667 0.05833,-0.0722 0.08889,-0.13333 0.03333,-0.0611 0.04167,-0.11389 0.01111,-0.0556 0.01111,-0.11667 0,-0.075 -0.03611,-0.18056 -0.03611,-0.10556 -0.08056,-0.225 -0.04445,-0.11945 -0.08056,-0.24445 -0.03611,-0.125 -0.03611,-0.23889 0,-0.0611 0.01945,-0.11945 0.02222,-0.0583 0.05278,-0.11111 0.03333,-0.0556 0.07222,-0.10278 0.03889,-0.05 0.07778,-0.0889 -0.05556,-0.0111 -0.09722,-0.0167 -0.04167,-0.008 -0.06111,-0.008 -0.102779,0 -0.175003,0.0556 -0.06945,0.0528 -0.150002,0.13334 0,-0.0944 0.02778,-0.19445 0.03056,-0.10278 0.09167,-0.18611 0.06111,-0.0833 0.15278,-0.13612 0.09445,-0.0528 0.222226,-0.0528 0.08889,0 0.163891,0.0139 0.07778,0.0111 0.141669,0.0278 0.06389,0.0167 0.116669,0.0306 0.05278,0.0111 0.09445,0.0111 0.06389,0 0.111112,-0.0167 0.05,-0.0194 0.09722,-0.0667 0,0.0611 -0.025,0.13889 -0.02222,0.0778 -0.06945,0.15 -0.04445,0.0694 -0.116668,0.11945 -0.07222,0.0472 -0.166669,0.0472 -0.04722,0 -0.108335,-0.006 -0.05833,-0.008 -0.122225,-0.0194 -0.0056,0.0194 -0.0083,0.0361 -0.0028,0.0167 -0.0056,0.0306 -0.0028,0.0167 -0.0028,0.0306 0,0.0611 0.0083,0.11945 0.01111,0.0555 0.03056,0.11389 h 0.56112 l -0.06389,0.18889 q -0.0083,0.0361 -0.01111,0.0528 -0.0028,0.0167 -0.0083,0.0528 l -0.102779,-0.0722 h -0.286116 q 0.06111,0.1389 0.113891,0.28334 0.05278,0.14167 0.05278,0.30278 0,0.14445 -0.05833,0.26945 -0.05833,0.12223 -0.155558,0.21389 -0.09445,0.0917 -0.219447,0.14167 -0.122225,0.0528 -0.252782,0.0528 z" />
      <path
         id="path4938"
         style="font-style:normal;font-variant:normal;font-weight:normal;font-stretch:normal;font-family:'Bradley Gratis';-inkscape-font-specification:'Bradley Gratis';text-align:start;text-anchor:start;stroke-width:0.208337"
         d="m 42.814501,148.76962 q 0.05556,-0.0333 0.108335,-0.0778 0.05556,-0.0444 0.09722,-0.1 0.04444,-0.0556 0.06945,-0.12778 0.02778,-0.075 0.02778,-0.16667 0,-0.0778 -0.03056,-0.13056 -0.02778,-0.0556 -0.06667,-0.0889 -0.03889,-0.0333 -0.07778,-0.0472 -0.03611,-0.0139 -0.05556,-0.0139 -0.02222,0 -0.04167,0.008 -0.01667,0.008 -0.03056,0.0195 z m -0.408339,-0.74168 q -0.08889,-0.05 -0.08889,-0.18611 0.025,0.025 0.08889,0.0444 0.06389,0.0167 0.136113,0.0167 0.03611,0 0.102779,-0.008 0.06667,-0.0111 0.136113,-0.0222 0.07222,-0.0111 0.136113,-0.0194 0.06667,-0.0111 0.10278,-0.0111 0.09167,0 0.183336,0.0278 0.09167,0.0278 0.169447,0.0944 0.07778,0.0667 0.130557,0.18056 0.05556,0.11111 0.07222,0.28334 l -0.494452,0.35 q 0.05556,0.0222 0.125002,0.075 0.06945,0.0528 0.130557,0.14722 0.06389,0.0944 0.105557,0.24167 0.04167,0.14445 0.04167,0.35556 0,0.18334 0.01667,0.29723 0.01667,0.11389 0.04167,0.18333 0.025,0.0695 0.05278,0.10278 0.03056,0.0361 0.05556,0.0611 -0.122224,0 -0.21667,-0.0722 -0.09445,-0.0694 -0.166669,-0.18333 -0.07222,-0.11389 -0.12778,-0.25834 -0.05278,-0.14445 -0.09722,-0.29167 -0.04445,-0.14723 -0.08333,-0.28334 -0.03611,-0.13611 -0.075,-0.23612 -0.01944,0.0139 -0.03889,0.0278 -0.01667,0.0111 -0.03056,0.025 v 1.03891 h -0.408339 z" />
      <path
         id="path4940"
         style="font-style:normal;font-variant:normal;font-weight:normal;font-stretch:normal;font-family:'Bradley Gratis';-inkscape-font-specification:'Bradley Gratis';text-align:start;text-anchor:start;stroke-width:0.208337"
         d="m 44.300939,149.64186 q 0,0.0944 0.01111,0.14722 0.01389,0.0528 0.03333,0.0806 0.02222,0.025 0.05,0.0306 0.02778,0.006 0.05556,0.006 0.05556,0 0.09167,-0.075 0.03611,-0.0778 0.03611,-0.23612 v -1.20557 q 0,-0.125 -0.01389,-0.20278 -0.01111,-0.0806 -0.03333,-0.12223 -0.01944,-0.0444 -0.04722,-0.0611 -0.025,-0.0167 -0.05,-0.0167 -0.05278,0 -0.09445,0.0667 -0.03889,0.0639 -0.03889,0.20556 z m 0.791678,-0.69724 q 0,0.20278 -0.05278,0.40001 -0.05,0.19722 -0.138891,0.35278 -0.08611,0.15556 -0.205559,0.25278 -0.119446,0.0944 -0.252781,0.0944 -0.125002,0 -0.244449,-0.0861 -0.116668,-0.0861 -0.208336,-0.23612 -0.08889,-0.15 -0.144447,-0.35 -0.05556,-0.20001 -0.05556,-0.42779 0,-0.18611 0.05,-0.38056 0.05278,-0.19722 0.141668,-0.35556 0.08889,-0.15833 0.208337,-0.25834 0.119446,-0.10278 0.252782,-0.10278 0.116668,0 0.230559,0.0861 0.116668,0.0861 0.208336,0.23611 0.09445,0.14723 0.15278,0.34723 0.05833,0.2 0.05833,0.42778 z" />
      <path
         id="path4942"
         style="font-style:normal;font-variant:normal;font-weight:normal;font-stretch:normal;font-family:'Bradley Gratis';-inkscape-font-specification:'Bradley Gratis';text-align:start;text-anchor:start;stroke-width:0.208337"
         d="m 45.21393,150.01408 q 0.03611,-0.21389 0.102779,-0.40278 0.06945,-0.18889 0.15278,-0.36112 0.08333,-0.17222 0.172225,-0.32778 0.09167,-0.15834 0.172225,-0.30556 0.08056,-0.14722 0.141669,-0.28612 0.06111,-0.14166 0.08889,-0.28333 -0.02222,-0.0139 -0.05278,-0.025 -0.02778,-0.0111 -0.108335,-0.0111 -0.04167,0 -0.075,0.0222 -0.03056,0.0194 -0.05278,0.05 -0.02222,0.0278 -0.03611,0.0611 -0.01111,0.0306 -0.01111,0.05 0,0.0222 0.0083,0.0528 0.01111,0.0278 0.02222,0.0556 0.01389,0.0278 0.02778,0.0528 0.01389,0.0222 0.025,0.0333 l -0.338894,0.21111 q -0.06667,-0.0639 -0.113891,-0.15555 -0.04445,-0.0944 -0.04445,-0.1889 0,-0.0472 0.025,-0.11666 0.025,-0.0694 0.08056,-0.13334 0.05556,-0.0667 0.144447,-0.11111 0.09167,-0.0472 0.222225,-0.0472 0.10278,0 0.172225,0.0139 0.06945,0.0139 0.122224,0.0333 0.05278,0.0167 0.09722,0.0306 0.04722,0.0139 0.105557,0.0139 0.03611,0 0.07778,-0.006 0.04167,-0.006 0.07778,-0.0167 0.03611,-0.0111 0.06389,-0.0222 0.03056,-0.0139 0.04722,-0.0306 -0.03333,0.175 -0.105557,0.3639 -0.07222,0.18889 -0.161114,0.37778 -0.08611,0.18889 -0.183336,0.36945 -0.09445,0.18056 -0.175003,0.33889 -0.07778,0.15556 -0.133335,0.28334 -0.05278,0.125 -0.05833,0.20556 0.111112,0.0472 0.188891,0.0472 0.05,0 0.10278,-0.0111 0.05278,-0.0139 0.09445,-0.0417 0.04445,-0.0278 0.07222,-0.0694 0.02778,-0.0445 0.02778,-0.10556 0,-0.0611 -0.01389,-0.1 -0.01111,-0.0417 -0.03056,-0.0667 -0.01944,-0.0278 -0.04445,-0.0472 -0.025,-0.0222 -0.04722,-0.0445 l 0.319449,-0.23611 q 0.111113,0.0833 0.158336,0.17778 0.04722,0.0945 0.04722,0.20556 0,0.0528 -0.01667,0.10278 -0.01389,0.0472 -0.03611,0.0889 -0.01944,0.0389 -0.04722,0.0722 -0.025,0.0333 -0.04444,0.0528 l 0.04722,0.0472 q 0.01389,0.0139 0.03056,0.0417 0.01667,0.025 0.01667,0.0444 0,0.0222 -0.01944,0.0639 -0.01667,0.0444 -0.06945,0.0778 -0.01944,-0.025 -0.04445,-0.0444 -0.02222,-0.0167 -0.04722,-0.0306 -0.025,-0.0139 -0.05278,-0.0139 z" />
      <path
         id="path4944"
         style="font-style:normal;font-variant:normal;font-weight:normal;font-stretch:normal;font-family:'Bradley Gratis';-inkscape-font-specification:'Bradley Gratis';text-align:start;text-anchor:start;stroke-width:0.208337"
         d="m 47.974866,147.86683 v 0.3 q -0.03056,-0.0278 -0.08056,-0.0611 -0.04722,-0.0333 -0.102779,-0.0583 -0.05278,-0.0278 -0.105557,-0.0445 -0.05278,-0.0194 -0.08889,-0.0194 -0.06667,0 -0.136113,0.0528 -0.06945,0.0528 -0.11389,0.14166 -0.04445,0.0861 -0.05833,0.22779 -0.01111,0.13889 -0.01111,0.35833 h 0.711122 l -0.141669,0.31668 q -0.02778,-0.0417 -0.06667,-0.0556 -0.03611,-0.0167 -0.06667,-0.0167 h -0.436118 q 0,0.15834 0.0056,0.31112 0.0056,0.15 0.03611,0.26945 0.03333,0.11944 0.100002,0.19444 0.06667,0.0722 0.19167,0.0722 0.06667,0 0.130557,-0.025 0.06667,-0.025 0.122224,-0.0611 0.05556,-0.0389 0.09722,-0.0806 0.04445,-0.0417 0.06945,-0.075 v 0.4 h -0.375005 q -0.269449,0 -0.436118,-0.0944 -0.166669,-0.0972 -0.261115,-0.25834 -0.09167,-0.16389 -0.125002,-0.37778 -0.03056,-0.21389 -0.03056,-0.44723 0,-0.0583 0.0083,-0.15278 0.0083,-0.0972 0.03611,-0.20278 0.02778,-0.10834 0.08056,-0.21667 0.05278,-0.11112 0.141669,-0.19723 0.09167,-0.0889 0.225003,-0.14444 0.133335,-0.0556 0.322227,-0.0556 z" />
      <path
         id="path4946"
         style="font-style:normal;font-variant:normal;font-weight:normal;font-stretch:normal;font-family:'Bradley Gratis';-inkscape-font-specification:'Bradley Gratis';text-align:start;text-anchor:start;stroke-width:0.208337"
         d="m 48.279125,150.01408 v -1.91947 q 0,-0.0778 -0.03333,-0.13056 -0.03333,-0.0555 -0.06667,-0.0972 h 0.538897 v 0.28334 l 0.308338,-0.35834 q 0.141669,0.12778 0.233337,0.25556 0.09167,0.125 0.144447,0.25278 0.05278,0.125 0.07222,0.25556 0.01944,0.12778 0.01944,0.26389 0,0.13334 -0.02222,0.25556 -0.01945,0.11945 -0.05833,0.23612 -0.03889,0.11666 -0.09445,0.23611 -0.05278,0.11945 -0.116668,0.25 h 0.100001 q 0.03611,0 0.075,-0.025 0.03889,-0.025 0.07778,-0.025 v 0.26667 h -0.538897 q 0.075,-0.15278 0.119446,-0.275 0.04722,-0.12222 0.07222,-0.23334 0.025,-0.11111 0.03333,-0.21667 0.0083,-0.10555 0.0083,-0.225 0,-0.11945 -0.04167,-0.24723 -0.03889,-0.13055 -0.09722,-0.23889 -0.05833,-0.10833 -0.125002,-0.17778 -0.06389,-0.0694 -0.116668,-0.0694 -0.03333,0 -0.05278,0.0167 v 1.66669 z" />
      <path
         id="path4948"
         style="font-style:normal;font-variant:normal;font-weight:normal;font-stretch:normal;font-family:'Bradley Gratis';-inkscape-font-specification:'Bradley Gratis';text-align:start;text-anchor:start;stroke-width:0.208337"
         d="m 50.828902,150.10575 q -0.150002,-0.10833 -0.255559,-0.23056 -0.105557,-0.125 -0.169447,-0.25833 -0.06389,-0.13334 -0.09445,-0.26945 -0.02778,-0.13889 -0.02778,-0.27223 0,-0.13056 0.02778,-0.25834 0.02778,-0.13055 0.07222,-0.25556 0.04722,-0.12778 0.108335,-0.24722 0.06111,-0.12223 0.125002,-0.23889 h -0.01667 q -0.0083,0 -0.01944,0 -0.0083,-0.003 -0.02222,-0.003 -0.04445,0 -0.108335,0.0111 -0.06111,0.0111 -0.119446,0.0556 v -0.27223 h 0.583342 q -0.07222,0.125 -0.125002,0.25278 -0.05,0.125 -0.08333,0.24445 -0.03056,0.11667 -0.04722,0.22222 -0.01389,0.10278 -0.01389,0.18612 0,0.0833 0.01667,0.2 0.01667,0.11667 0.06111,0.24167 0.04722,0.12223 0.125002,0.23334 0.08056,0.11111 0.208337,0.18056 l 0.08333,-0.0611 q -0.05,-0.0944 -0.07778,-0.18055 -0.02778,-0.0889 -0.04167,-0.16667 -0.01111,-0.0778 -0.01389,-0.14167 -0.0028,-0.0667 -0.0028,-0.11945 0,-0.0861 0.02222,-0.19445 0.02222,-0.10833 0.06389,-0.225 0.04167,-0.11667 0.100001,-0.23611 0.06111,-0.11945 0.136113,-0.23334 -0.105557,0 -0.175002,0.0167 -0.06667,0.0167 -0.113891,0.0472 v -0.26667 h 0.600009 q -0.05,0.0694 -0.100001,0.15833 -0.04722,0.0861 -0.08333,0.1889 -0.03611,0.1 -0.05833,0.21389 -0.02222,0.11389 -0.02222,0.23334 0,0.20278 0.03611,0.36111 0.03611,0.15556 0.100002,0.27501 0.06389,0.11944 0.150002,0.20555 0.08611,0.0861 0.183336,0.14723 v -1.78336 h 0.416673 v 1.66947 q 0,0.0194 -0.02778,0.0556 -0.02778,0.0333 -0.07222,0.0778 -0.04167,0.0444 -0.100001,0.0972 -0.05556,0.05 -0.113891,0.1 -0.138891,0.11667 -0.313893,0.25556 -0.136114,-0.10556 -0.233337,-0.20834 -0.09722,-0.10278 -0.166669,-0.2 z" />
      <path
         id="path4950"
         style="font-style:normal;font-variant:normal;font-weight:normal;font-stretch:normal;font-family:'Bradley Gratis';-inkscape-font-specification:'Bradley Gratis';text-align:start;text-anchor:start;stroke-width:0.208337"
         d="m 53.390572,148.67795 v -0.69167 h -0.327783 q -0.0028,0.18611 -0.01111,0.36945 -0.0056,0.18055 -0.01389,0.32222 z m 0.566675,-0.81112 q -0.03056,0.0222 -0.05833,0.0556 -0.025,0.0333 -0.04445,0.0722 -0.01667,0.0361 -0.02778,0.0722 -0.01111,0.0333 -0.01111,0.0583 v 1.88891 h -0.425007 v -1.04723 h -0.372228 q -0.0028,0.1 -0.02778,0.21944 -0.025,0.11667 -0.06945,0.23612 -0.04167,0.11667 -0.100002,0.22778 -0.05556,0.10833 -0.12778,0.19167 -0.06945,0.0833 -0.150002,0.13333 -0.07778,0.05 -0.163891,0.05 -0.05556,0 -0.09722,-0.0333 -0.03889,-0.0333 -0.03889,-0.0944 0,-0.0389 0.025,-0.0556 0.025,-0.0195 0.05278,-0.0195 0.025,0 0.03889,0.008 0.01389,0.006 0.025,0.0167 0.01389,0.008 0.03056,0.0167 0.01667,0.006 0.04722,0.006 0.05,0 0.08056,-0.05 0.03056,-0.0528 0.05,-0.13889 0.01944,-0.0889 0.02778,-0.20279 0.01111,-0.11666 0.01667,-0.24444 0.0056,-0.12778 0.01389,-0.25834 0.0083,-0.13334 0.02222,-0.25556 0.01667,-0.14445 0.05,-0.26389 0.03611,-0.11945 0.075,-0.21112 0.03889,-0.0917 0.07778,-0.15556 0.03889,-0.0639 0.06667,-0.10277 h -0.06111 q -0.05278,0 -0.09722,0.0167 -0.04445,0.0139 -0.08056,0.0333 -0.03333,0.0167 -0.06111,0.0333 -0.025,0.0139 -0.04445,0.0139 -0.04722,0 -0.06944,-0.0333 -0.02222,-0.0333 -0.02222,-0.075 0,-0.0389 0.04167,-0.0722 0.04445,-0.0361 0.122224,-0.0361 z" />
      <path
         id="path4952"
         style="font-style:normal;font-variant:normal;font-weight:normal;font-stretch:normal;font-family:'Bradley Gratis';-inkscape-font-specification:'Bradley Gratis';text-align:start;text-anchor:start;stroke-width:0.208337"
         d="m 54.570626,150.11131 q -0.06389,-0.0639 -0.147224,-0.125 -0.08056,-0.0611 -0.158336,-0.10834 -0.075,-0.0472 -0.133335,-0.0806 -0.05556,-0.0333 -0.06389,-0.0417 0.02778,-0.0333 0.06945,-0.0917 0.04167,-0.0611 0.08056,-0.11945 0.04167,-0.0583 0.07222,-0.10278 0.03333,-0.0472 0.04167,-0.0555 0.03889,0.025 0.105557,0.0694 0.06944,0.0417 0.136113,0.0889 0.06945,0.0472 0.125002,0.0861 0.05556,0.0389 0.07222,0.0556 0.03889,-0.0222 0.06389,-0.0583 0.02778,-0.0361 0.02778,-0.11667 0,-0.0695 -0.05833,-0.14723 -0.05556,-0.0778 -0.138891,-0.16389 -0.08333,-0.0861 -0.183336,-0.18056 -0.100001,-0.0944 -0.183336,-0.19444 -0.08333,-0.1 -0.141669,-0.20278 -0.05556,-0.10278 -0.05556,-0.21112 0,-0.0778 0.03889,-0.14444 0.04167,-0.0694 0.10278,-0.12778 0.06111,-0.0611 0.133335,-0.10834 0.075,-0.05 0.141669,-0.0917 0.06945,-0.0444 0.122224,-0.0778 0.05278,-0.0361 0.075,-0.0639 0.01667,0.0139 0.07222,0.0694 0.05833,0.0528 0.125002,0.11389 0.06667,0.0611 0.125002,0.10833 0.06111,0.0472 0.08056,0.0472 -0.02778,0.0222 -0.06945,0.0667 -0.03889,0.0417 -0.08056,0.0889 -0.03889,0.0472 -0.07222,0.0917 -0.03056,0.0417 -0.04445,0.0639 -0.06389,-0.0278 -0.12778,-0.0833 -0.06389,-0.0556 -0.116668,-0.10834 -0.05278,-0.0528 -0.08889,-0.0917 -0.03611,-0.0417 -0.04722,-0.0417 -0.02222,0 -0.03889,0.025 -0.01389,0.0222 -0.01389,0.0528 0,0.0667 0.05833,0.14167 0.06111,0.075 0.147225,0.16111 0.08889,0.0833 0.19167,0.17778 0.105557,0.0917 0.191669,0.19167 0.08889,0.1 0.147225,0.20834 0.06111,0.10555 0.06111,0.21667 0,0.1 -0.075,0.21111 -0.075,0.11111 -0.180558,0.22223 -0.102779,0.10833 -0.211114,0.20833 -0.108335,0.0972 -0.177781,0.17223 z" />
      <path
         id="path4954"
         style="font-style:normal;font-variant:normal;font-weight:normal;font-stretch:normal;font-family:'Bradley Gratis';-inkscape-font-specification:'Bradley Gratis';text-align:start;text-anchor:start;stroke-width:0.208337"
         d="m 56.527341,149.63908 q 0,0.10833 -0.04445,0.18889 -0.04445,0.0778 -0.116669,0.12778 -0.06945,0.05 -0.155558,0.075 -0.08611,0.025 -0.169447,0.025 -0.130557,0 -0.255559,-0.0639 -0.125002,-0.0639 -0.225004,-0.17222 -0.100001,-0.11112 -0.161113,-0.25834 -0.06111,-0.15 -0.06111,-0.32223 0,-0.30834 0.141668,-0.57223 0.141669,-0.26667 0.394451,-0.48334 -0.02222,-0.003 -0.04167,-0.003 -0.01667,-0.003 -0.03611,-0.003 -0.06667,0 -0.141669,0.0222 -0.075,0.0222 -0.141669,0.0583 -0.06667,0.0333 -0.122224,0.075 -0.05278,0.0417 -0.08056,0.0778 0.02222,-0.10833 0.08334,-0.21389 0.06111,-0.10556 0.15278,-0.18611 0.09167,-0.0806 0.211115,-0.13056 0.119446,-0.05 0.261115,-0.05 0.07222,0 0.15278,0.0222 0.08056,0.0222 0.15278,0.0583 0.075,0.0333 0.133335,0.075 0.05833,0.0417 0.08889,0.0806 l -0.227781,0.34723 q -0.138891,-0.13611 -0.300004,-0.19445 -0.03611,0.0583 -0.075,0.13889 -0.03889,0.0778 -0.07222,0.17778 -0.03056,0.10001 -0.05278,0.22223 -0.01945,0.11945 -0.01945,0.26111 0,0.13334 0.01945,0.23612 0.02222,0.10278 0.05556,0.17778 0.03333,0.075 0.075,0.125 0.04445,0.05 0.08889,0.0833 0.105557,0.075 0.241671,0.0833 0.05556,0 0.127779,-0.0222 0.075,-0.025 0.119447,-0.0639 z" />
      <path
         id="path4956"
         style="font-style:normal;font-variant:normal;font-weight:normal;font-stretch:normal;font-family:'Bradley Gratis';-inkscape-font-specification:'Bradley Gratis';text-align:start;text-anchor:start;stroke-width:0.208337"
         d="m 57.91968,147.86683 v 0.3 q -0.03056,-0.0278 -0.08056,-0.0611 -0.04722,-0.0333 -0.102779,-0.0583 -0.05278,-0.0278 -0.105558,-0.0445 -0.05278,-0.0194 -0.08889,-0.0194 -0.06667,0 -0.136113,0.0528 -0.06945,0.0528 -0.113891,0.14166 -0.04444,0.0861 -0.05833,0.22779 -0.01111,0.13889 -0.01111,0.35833 h 0.711122 l -0.141669,0.31668 q -0.02778,-0.0417 -0.06667,-0.0556 -0.03611,-0.0167 -0.06667,-0.0167 h -0.436118 q 0,0.15834 0.0056,0.31112 0.0056,0.15 0.03611,0.26945 0.03333,0.11944 0.100002,0.19444 0.06667,0.0722 0.191669,0.0722 0.06667,0 0.130558,-0.025 0.06667,-0.025 0.122224,-0.0611 0.05556,-0.0389 0.09722,-0.0806 0.04444,-0.0417 0.06945,-0.075 v 0.4 H 57.60023 q -0.269448,0 -0.436117,-0.0944 -0.16667,-0.0972 -0.261115,-0.25834 -0.09167,-0.16389 -0.125002,-0.37778 -0.03056,-0.21389 -0.03056,-0.44723 0,-0.0583 0.0083,-0.15278 0.0083,-0.0972 0.03611,-0.20278 0.02778,-0.10834 0.08056,-0.21667 0.05278,-0.11112 0.141668,-0.19723 0.09167,-0.0889 0.225004,-0.14444 0.133335,-0.0556 0.322227,-0.0556 z" />
      <path
         id="path4958"
         style="font-style:normal;font-variant:normal;font-weight:normal;font-stretch:normal;font-family:'Bradley Gratis';-inkscape-font-specification:'Bradley Gratis';text-align:start;text-anchor:start;stroke-width:0.208337"
         d="m 58.926726,148.41406 q -0.06945,-0.16667 -0.119446,-0.27778 -0.05,-0.11112 -0.07778,-0.11112 -0.03056,0 -0.04167,0.0278 -0.0083,0.025 -0.0083,0.0444 v 1.50558 q 0,0.0611 -0.03333,0.12778 -0.03333,0.0667 -0.08889,0.11666 0.102779,0 0.183336,-0.05 0.08056,-0.0528 0.166669,-0.11389 0.08889,-0.0639 0.197225,-0.11389 0.108335,-0.0528 0.269449,-0.0528 v 0.49723 H 58.11838 q 0.03611,-0.0528 0.06111,-0.1 0.02778,-0.0472 0.04444,-0.0944 0.01667,-0.0472 0.025,-0.10001 0.0083,-0.0528 0.0083,-0.11666 v -1.31391 q 0,-0.0889 -0.03333,-0.14445 -0.03333,-0.0583 -0.04722,-0.0806 0.01111,-0.003 0.05556,-0.0194 0.04722,-0.0195 0.11389,-0.0445 0.06667,-0.025 0.147225,-0.0528 0.08056,-0.0278 0.158336,-0.05 0.07778,-0.025 0.147224,-0.0389 0.06945,-0.0167 0.113891,-0.0167 0.06944,0 0.130557,0.0389 0.06111,0.0389 0.111113,0.0972 0.05,0.0583 0.08611,0.13056 0.03611,0.0694 0.05833,0.13056 z" />
      <path
         id="path4960"
         style="font-style:normal;font-variant:normal;font-weight:normal;font-stretch:normal;font-family:'Bradley Gratis';-inkscape-font-specification:'Bradley Gratis';text-align:start;text-anchor:start;stroke-width:0.208337"
         d="m 60.643419,148.67795 v -0.69167 h -0.327783 q -0.0028,0.18611 -0.01111,0.36945 -0.0056,0.18055 -0.01389,0.32222 z m 0.566675,-0.81112 q -0.03056,0.0222 -0.05833,0.0556 -0.025,0.0333 -0.04445,0.0722 -0.01667,0.0361 -0.02778,0.0722 -0.01111,0.0333 -0.01111,0.0583 v 1.88891 h -0.425006 v -1.04723 h -0.372228 q -0.0028,0.1 -0.02778,0.21944 -0.025,0.11667 -0.06945,0.23612 -0.04167,0.11667 -0.100001,0.22778 -0.05556,0.10833 -0.12778,0.19167 -0.06944,0.0833 -0.150002,0.13333 -0.07778,0.05 -0.163892,0.05 -0.05556,0 -0.09722,-0.0333 -0.03889,-0.0333 -0.03889,-0.0944 0,-0.0389 0.025,-0.0556 0.025,-0.0195 0.05278,-0.0195 0.025,0 0.03889,0.008 0.01389,0.006 0.025,0.0167 0.01389,0.008 0.03056,0.0167 0.01667,0.006 0.04722,0.006 0.05,0 0.08056,-0.05 0.03056,-0.0528 0.05,-0.13889 0.01944,-0.0889 0.02778,-0.20279 0.01111,-0.11666 0.01667,-0.24444 0.0056,-0.12778 0.01389,-0.25834 0.0083,-0.13334 0.02222,-0.25556 0.01667,-0.14445 0.05,-0.26389 0.03611,-0.11945 0.075,-0.21112 0.03889,-0.0917 0.07778,-0.15556 0.03889,-0.0639 0.06667,-0.10277 h -0.06111 q -0.05278,0 -0.09722,0.0167 -0.04445,0.0139 -0.08056,0.0333 -0.03333,0.0167 -0.06111,0.0333 -0.025,0.0139 -0.04445,0.0139 -0.04722,0 -0.06945,-0.0333 -0.02222,-0.0333 -0.02222,-0.075 0,-0.0389 0.04167,-0.0722 0.04445,-0.0361 0.122224,-0.0361 z" />
      <path
         id="path4962"
         style="font-style:normal;font-variant:normal;font-weight:normal;font-stretch:normal;font-family:'Bradley Gratis';-inkscape-font-specification:'Bradley Gratis';text-align:start;text-anchor:start;stroke-width:0.208337"
         d="m 61.446643,150.01408 v -1.91947 q 0,-0.0778 -0.03333,-0.13056 -0.03333,-0.0555 -0.06667,-0.0972 h 0.538897 v 0.28334 l 0.308338,-0.35834 q 0.141669,0.12778 0.233337,0.25556 0.09167,0.125 0.144446,0.25278 0.05278,0.125 0.07222,0.25556 0.01944,0.12778 0.01944,0.26389 0,0.13334 -0.02222,0.25556 -0.01944,0.11945 -0.05833,0.23612 -0.03889,0.11666 -0.09445,0.23611 -0.05278,0.11945 -0.116669,0.25 h 0.100002 q 0.03611,0 0.075,-0.025 0.03889,-0.025 0.07778,-0.025 v 0.26667 h -0.538897 q 0.075,-0.15278 0.119446,-0.275 0.04722,-0.12222 0.07222,-0.23334 0.025,-0.11111 0.03333,-0.21667 0.0083,-0.10555 0.0083,-0.225 0,-0.11945 -0.04167,-0.24723 -0.03889,-0.13055 -0.09722,-0.23889 -0.05833,-0.10833 -0.125002,-0.17778 -0.06389,-0.0694 -0.116669,-0.0694 -0.03333,0 -0.05278,0.0167 v 1.66669 z" />
      <path
         id="path4964"
         style="font-style:normal;font-variant:normal;font-weight:normal;font-stretch:normal;font-family:'Bradley Gratis';-inkscape-font-specification:'Bradley Gratis';text-align:start;text-anchor:start;stroke-width:0.208337"
         d="m 62.933993,148.06128 q -0.07222,-0.0306 -0.100002,-0.075 -0.02778,-0.0444 -0.02778,-0.0833 0,-0.0333 0.02222,-0.0417 0.02222,0.0139 0.06111,0.0195 0.03889,0.006 0.08889,0.006 0.025,0 0.06945,-0.008 0.04722,-0.008 0.10278,-0.0167 0.05556,-0.008 0.11389,-0.0167 0.06111,-0.008 0.113891,-0.008 0.12778,0 0.261115,0.0667 0.133335,0.0639 0.238893,0.2 0.105557,0.13334 0.172224,0.34168 0.06945,0.20555 0.06945,0.49167 0,0.24167 -0.04167,0.41667 -0.04167,0.17501 -0.105558,0.29723 -0.06389,0.12222 -0.141668,0.19722 -0.07778,0.0722 -0.15278,0.1139 -0.07222,0.0389 -0.133336,0.0528 -0.05833,0.0139 -0.08611,0.0139 -0.04167,0 -0.08889,-0.0111 -0.04722,-0.0111 -0.09445,-0.025 -0.04444,-0.0139 -0.08611,-0.025 -0.03889,-0.0111 -0.06667,-0.0111 -0.03056,0 -0.05556,0.0111 -0.025,0.008 -0.05278,0.0195 -0.025,0.008 -0.05556,0.0194 -0.03056,0.008 -0.06945,0.008 -0.01389,0 -0.03056,-0.003 -0.01389,-0.003 -0.02778,-0.008 -0.01389,-0.006 -0.02778,-0.0139 0.02222,-0.0139 0.04445,-0.0472 0.02222,-0.0361 0.04167,-0.075 0.02222,-0.0417 0.04445,-0.0917 z m 0.408339,1.65558 q 0,0.0583 0.01944,0.0917 0.02222,0.0306 0.04722,0.0444 0.03056,0.0167 0.06667,0.0195 0.06389,0 0.111112,-0.0861 0.05,-0.0861 0.05,-0.21945 v -1.21946 q 0,-0.13056 -0.025,-0.20278 -0.025,-0.0722 -0.05833,-0.10556 -0.03333,-0.0333 -0.06667,-0.0389 -0.03333,-0.008 -0.05278,-0.008 -0.03333,0 -0.06389,0.0445 -0.02778,0.0444 -0.02778,0.11666 z" />
    </g>
    <path
       d="M 43.61298,75.789001 H 58.429647 V 90.605669 H 43.61298 Z"
       style="fill:#141414;fill-opacity:1;stroke-width:0.223297"
       id="rect4735-3" />
    <g
       style="font-style:normal;font-variant:normal;font-weight:normal;font-stretch:normal;font-size:3.52778px;line-height:1.25;font-family:Quarca;-inkscape-font-specification:Quarca;letter-spacing:0px;word-spacing:0px;fill:#dddddd;fill-opacity:1;stroke:none;stroke-width:0.264583"
       id="text5443-7"
       aria-label="SKEW">
      <path
         id="path4926"
         style="font-style:normal;font-variant:normal;font-weight:normal;font-stretch:normal;font-size:2.82222px;font-family:Quarca;-inkscape-font-specification:Quarca;fill:#dddddd;fill-opacity:1;stroke-width:0.264583"
         d="m 48.428395,94.449725 c 0.141111,0.05927 0.1778,0.107244 0.1778,0.245533 v 0.194733 c 0,0.169334 -0.07056,0.239889 -0.231422,0.239889 h -0.426156 c -0.160866,0 -0.234244,-0.07055 -0.234244,-0.239889 v -0.211666 h -0.160866 v 0.251177 c 0,0.234245 0.110066,0.352778 0.36971,0.352778 h 0.496711 c 0.234244,0 0.349955,-0.118533 0.349955,-0.352778 v -0.276577 c 0,-0.200378 -0.0762,-0.270933 -0.282222,-0.361244 l -0.578555,-0.245533 c -0.132644,-0.05644 -0.166511,-0.110067 -0.166511,-0.234245 v -0.124177 c 0,-0.191911 0.06209,-0.256822 0.242711,-0.256822 h 0.352778 c 0.160866,0 0.239888,0.07338 0.239888,0.248355 v 0.189089 h 0.163689 v -0.2286 c 0,-0.254 -0.121355,-0.361244 -0.380999,-0.361244 h -0.417689 c -0.248355,0 -0.361244,0.110066 -0.361244,0.361244 v 0.197555 c 0,0.2032 0.06773,0.276578 0.2794,0.369711 z" />
      <path
         id="path4928"
         style="font-style:normal;font-variant:normal;font-weight:normal;font-stretch:normal;font-size:2.82222px;font-family:Quarca;-inkscape-font-specification:Quarca;fill:#dddddd;fill-opacity:1;stroke-width:0.264583"
         d="m 49.251028,95.28228 v -0.959555 l 0.829733,0.959555 h 0.189088 l -0.866421,-1.001888 0.849488,-1.001888 h -0.1778 l -0.824088,0.959555 v -0.959555 h -0.160867 v 2.003776 z" />
      <path
         id="path4930"
         style="font-style:normal;font-variant:normal;font-weight:normal;font-stretch:normal;font-size:2.82222px;font-family:Quarca;-inkscape-font-specification:Quarca;fill:#dddddd;fill-opacity:1;stroke-width:0.264583"
         d="m 50.607016,93.430904 h 0.905933 l 0.02258,-0.1524 H 50.44615 v 2.003776 h 1.072443 l 0.02258,-0.1524 h -0.934155 v -0.612422 h 0.759177 l 0.02258,-0.149577 h -0.781755 z" />
      <path
         id="path4932"
         style="font-style:normal;font-variant:normal;font-weight:normal;font-stretch:normal;font-size:2.82222px;font-family:Quarca;-inkscape-font-specification:Quarca;fill:#dddddd;fill-opacity:1;stroke-width:0.264583"
         d="m 52.384177,95.28228 0.361244,-1.622777 c 0.0085,-0.02822 0.01129,-0.07338 0.01129,-0.110066 0.0028,0.03669 0.0085,0.08184 0.01693,0.110066 l 0.364067,1.622777 h 0.180622 l 0.536222,-2.003776 h -0.163689 l -0.423333,1.642532 c -0.01411,0.05927 -0.02822,0.110066 -0.03387,0.166511 -0.0056,-0.05644 -0.01976,-0.110067 -0.03104,-0.169333 l -0.364066,-1.63971 h -0.160867 l -0.361244,1.63971 c -0.01129,0.05927 -0.02258,0.115711 -0.02822,0.174977 -0.01129,-0.05927 -0.0254,-0.118533 -0.03951,-0.1778 L 51.8282,93.278504 h -0.166511 l 0.539044,2.003776 z" />
    </g>
    <path
       d="m 36.349064,138.16446 h 29.360187 v 8.72269 H 36.349064 Z"
       style="opacity:0.981;fill:#0e365d;fill-opacity:1;stroke:#000000;stroke-width:0.27305;stroke-miterlimit:4;stroke-dasharray:none;stroke-opacity:1"
       id="rect22843" />
    <g
       style="font-style:normal;font-variant:normal;font-weight:normal;font-stretch:normal;font-size:3.52773px;line-height:1.25;font-family:Quarca;-inkscape-font-specification:Quarca;letter-spacing:0px;word-spacing:0px;fill:#dddddd;fill-opacity:1;stroke:none;stroke-width:0.26458"
       id="text4978-4-9"
       transform="scale(0.9999876,1.0000124)"
       aria-label="OUT">
      <path
         id="path4918"
         style="font-style:normal;font-variant:normal;font-weight:normal;font-stretch:normal;font-size:2.82219px;font-family:Quarca;-inkscape-font-specification:Quarca;fill:#dddddd;fill-opacity:1;stroke-width:0.26458"
         d="m 37.319884,140.46553 c 0,0.25964 0.09878,0.38947 0.38664,0.38947 h 0.536216 c 0.287864,0 0.38664,-0.12983 0.38664,-0.38947 v -1.22483 c 0,-0.25964 -0.09878,-0.38946 -0.38664,-0.38946 h -0.536216 c -0.287863,0 -0.38664,0.12982 -0.38664,0.38946 z m 0.403573,-1.46189 h 0.50235 c 0.18062,0 0.242708,0.0847 0.242708,0.26246 v 1.17403 c 0,0.1778 -0.06209,0.26247 -0.242708,0.26247 h -0.50235 c -0.177798,0 -0.242708,-0.0847 -0.242708,-0.26247 v -1.17403 c 0,-0.1778 0.06491,-0.26246 0.242708,-0.26246 z" />
      <path
         id="path4920"
         style="font-style:normal;font-variant:normal;font-weight:normal;font-stretch:normal;font-size:2.82219px;font-family:Quarca;-inkscape-font-specification:Quarca;fill:#dddddd;fill-opacity:1;stroke-width:0.26458"
         d="m 39.791682,140.7026 h -0.361241 c -0.194731,0 -0.279397,-0.0903 -0.279397,-0.29633 v -1.55503 H 38.99018 v 1.60018 c 0,0.26811 0.124176,0.40358 0.406395,0.40358 h 0.428973 c 0.282219,0 0.406395,-0.13547 0.406395,-0.40358 v -1.60018 h -0.163687 v 1.55503 c 0,0.20602 -0.08184,0.29633 -0.276574,0.29633 z" />
      <path
         id="path4922"
         style="font-style:normal;font-variant:normal;font-weight:normal;font-stretch:normal;font-size:2.82219px;font-family:Quarca;-inkscape-font-specification:Quarca;fill:#dddddd;fill-opacity:1;stroke-width:0.26458"
         d="m 41.635453,139.00364 v -0.1524 h -1.188142 v 0.1524 h 0.513639 v 1.85136 h 0.163687 v -1.85136 z" />
    </g>
    <g
       style="font-style:normal;font-variant:normal;font-weight:bold;font-stretch:normal;font-size:13.3333px;line-height:1.25;font-family:Consolas;-inkscape-font-specification:'Consolas Bold';text-align:center;letter-spacing:0px;word-spacing:0px;text-anchor:middle;fill:#ffffff;fill-opacity:1;stroke:none"
       id="flowRoot5761" />
    <g
       style="font-style:normal;font-variant:normal;font-weight:bold;font-stretch:normal;font-size:13.3333px;line-height:1.25;font-family:Consolas;-inkscape-font-specification:'Consolas Bold';text-align:center;letter-spacing:0px;word-spacing:0px;text-anchor:middle;fill:#ffffff;fill-opacity:1;stroke:none"
       id="flowRoot5769" />
    <path
       style="fill:none;stroke:#ffffff;stroke-width:0.132292;stroke-linecap:butt;stroke-linejoin:miter;stroke-miterlimit:4;stroke-dasharray:none;stroke-opacity:1"
       d="m 49.913369,127.08766 0.529167,-0.95911 0.578776,0.89297"
       id="path870"
       inkscape:connector-curvature="0"
       sodipodi:nodetypes="ccc" />
    <path
       style="fill:none;stroke:#ffffff;stroke-width:0.132292;stroke-linecap:butt;stroke-linejoin:miter;stroke-miterlimit:4;stroke-dasharray:none;stroke-opacity:1"
       d="m 49.433812,118.62674 h 0.760677 v -1.02526 h 0.628385 v 1.0418 h 0.396875"
       id="path872"
       inkscape:connector-curvature="0" />
    <g
       style="font-style:normal;font-variant:normal;font-weight:normal;font-stretch:normal;font-size:3.52778px;line-height:1.25;font-family:Quarca;-inkscape-font-specification:Quarca;letter-spacing:0px;word-spacing:0px;fill:#dddddd;fill-opacity:1;stroke:none;stroke-width:0.264583"
       id="text5443-7-3"
       aria-label="PHASE">
      <path
         id="path4905"
         style="font-style:normal;font-variant:normal;font-weight:normal;font-stretch:normal;font-size:2.82222px;font-family:Quarca;-inkscape-font-specification:Quarca;fill:#dddddd;fill-opacity:1;stroke-width:0.264583"
         d="m 59.102744,94.458184 h 0.632177 c 0.251178,0 0.381,-0.127 0.381,-0.378177 v -0.423333 c 0,-0.251178 -0.129822,-0.378178 -0.381,-0.378178 h -0.793044 v 2.003776 h 0.160867 z m 0,-1.027288 h 0.609599 c 0.163689,0 0.239889,0.0762 0.239889,0.256822 v 0.361244 c 0,0.180622 -0.0762,0.256822 -0.239889,0.256822 h -0.609599 z" />
      <path
         id="path4907"
         style="font-style:normal;font-variant:normal;font-weight:normal;font-stretch:normal;font-size:2.82222px;font-family:Quarca;-inkscape-font-specification:Quarca;fill:#dddddd;fill-opacity:1;stroke-width:0.264583"
         d="m 60.574488,95.282272 v -0.759177 h 0.92851 v 0.759177 h 0.160866 v -2.003776 h -0.160866 v 1.092199 h -0.92851 v -1.092199 h -0.160867 v 2.003776 z" />
      <path
         id="path4909"
         style="font-style:normal;font-variant:normal;font-weight:normal;font-stretch:normal;font-size:2.82222px;font-family:Quarca;-inkscape-font-specification:Quarca;fill:#dddddd;fill-opacity:1;stroke-width:0.264583"
         d="m 62.519482,93.278496 -0.618066,2.003776 h 0.172155 l 0.129822,-0.434622 h 0.807155 l 0.129823,0.434622 h 0.172155 l -0.615244,-2.003776 z m 0.09031,0.214489 0.3556,1.202266 h -0.716844 z" />
      <path
         id="path4911"
         style="font-style:normal;font-variant:normal;font-weight:normal;font-stretch:normal;font-size:2.82222px;font-family:Quarca;-inkscape-font-specification:Quarca;fill:#dddddd;fill-opacity:1;stroke-width:0.264583"
         d="m 64.337962,94.449717 c 0.141111,0.05927 0.1778,0.107245 0.1778,0.245534 v 0.194733 c 0,0.169333 -0.07055,0.239888 -0.231422,0.239888 h -0.426155 c -0.160867,0 -0.234244,-0.07056 -0.234244,-0.239888 v -0.211667 h -0.160867 v 0.251178 c 0,0.234244 0.110067,0.352777 0.369711,0.352777 h 0.496711 c 0.234244,0 0.349955,-0.118533 0.349955,-0.352777 v -0.276578 c 0,-0.200377 -0.0762,-0.270933 -0.282222,-0.361244 L 63.818674,94.04614 c -0.132645,-0.05644 -0.166511,-0.110067 -0.166511,-0.234244 v -0.124178 c 0,-0.191911 0.06209,-0.256822 0.242711,-0.256822 h 0.352777 c 0.160867,0 0.239889,0.07338 0.239889,0.248355 v 0.189089 h 0.163689 v -0.2286 c 0,-0.254 -0.121356,-0.361244 -0.381,-0.361244 H 63.85254 c -0.248355,0 -0.361244,0.110067 -0.361244,0.361244 v 0.197556 c 0,0.2032 0.06773,0.276577 0.2794,0.36971 z" />
      <path
         id="path4913"
         style="font-style:normal;font-variant:normal;font-weight:normal;font-stretch:normal;font-size:2.82222px;font-family:Quarca;-inkscape-font-specification:Quarca;fill:#dddddd;fill-opacity:1;stroke-width:0.264583"
         d="m 65.160595,93.430896 h 0.905933 l 0.02258,-0.1524 h -1.089377 v 2.003776 h 1.072443 l 0.02258,-0.1524 h -0.934155 v -0.612421 h 0.759177 l 0.02258,-0.149578 h -0.781755 z" />
    </g>
    <g
       style="font-style:normal;font-variant:normal;font-weight:normal;font-stretch:normal;font-size:3.52778px;line-height:1.25;font-family:Quarca;-inkscape-font-specification:'Quarca weight=255';letter-spacing:0px;word-spacing:0px;fill:#dddddd;fill-opacity:1;stroke:none;stroke-width:0.264583"
       id="text5443-0-4-9-8"
       aria-label="90">
      <path
         id="path4898"
         style="font-style:normal;font-variant:normal;font-weight:normal;font-stretch:normal;font-size:2.11667px;font-family:Quarca;-inkscape-font-specification:Quarca;fill:#dddddd;fill-opacity:1;stroke-width:0.264583"
         d="m 56.061098,100.00155 h -0.258234 c -0.131233,0 -0.1778,-0.0635 -0.1778,-0.196848 v -0.135467 h -0.122767 v 0.154517 c 0,0.194738 0.0762,0.292098 0.292101,0.292098 h 0.2794 c 0.215901,0 0.289984,-0.0974 0.289984,-0.292098 v -0.918635 c 0,-0.194733 -0.07408,-0.2921 -0.289984,-0.2921 h -0.2794 c -0.215901,0 -0.292101,0.09737 -0.292101,0.2921 v 0.256117 c 0,0.186267 0.06773,0.279401 0.266701,0.279401 h 0.474134 v 0.364067 c 0,0.13335 -0.04657,0.196848 -0.182034,0.196848 z m 0,-1.274233 c 0.135467,0 0.182034,0.0635 0.182034,0.19685 v 0.402167 h -0.440268 c -0.131233,0 -0.1778,-0.0635 -0.1778,-0.198966 v -0.203201 c 0,-0.13335 0.04657,-0.19685 0.179917,-0.19685 z" />
      <path
         id="path4900"
         style="font-style:normal;font-variant:normal;font-weight:normal;font-stretch:normal;font-size:2.11667px;font-family:Quarca;-inkscape-font-specification:Quarca;fill:#dddddd;fill-opacity:1;stroke-width:0.264583"
         d="m 56.673246,99.823752 c 0,0.194738 0.07408,0.292098 0.2921,0.292098 h 0.345017 c 0.215901,0 0.289984,-0.0974 0.289984,-0.292098 v -0.918635 c 0,-0.194733 -0.07408,-0.2921 -0.289984,-0.2921 h -0.345017 c -0.218017,0 -0.2921,0.09737 -0.2921,0.2921 z m 0.302684,-1.096435 h 0.321733 c 0.133351,0 0.182034,0.0635 0.182034,0.19685 v 0.880535 c 0,0.13335 -0.04868,0.196848 -0.182034,0.196848 H 56.97593 c -0.133351,0 -0.179917,-0.0635 -0.179917,-0.196848 v -0.880535 c 0,-0.13335 0.04657,-0.19685 0.179917,-0.19685 z" />
      <path
         id="path4902"
         style="font-style:normal;font-variant:normal;font-weight:normal;font-stretch:normal;font-size:2.11667px;font-family:Quarca;-inkscape-font-specification:Quarca;fill:#dddddd;fill-opacity:1;stroke-width:0.264583"
         d="m 58.021432,98.519883 c -0.127,0 -0.169334,0.0381 -0.169334,0.156634 v 0.1016 c 0,0.118533 0.04445,0.156634 0.171451,0.156634 h 0.06773 c 0.127,0 0.169334,-0.0381 0.169334,-0.156634 v -0.1016 c 0,-0.118534 -0.04445,-0.156634 -0.169334,-0.156634 z m 0.06562,0.342901 h -0.04868 c -0.07408,0 -0.110066,-0.01905 -0.110066,-0.08043 v -0.110067 c 0,-0.05715 0.03598,-0.08043 0.09737,-0.08043 h 0.04868 c 0.07408,0 0.110067,0.01905 0.110067,0.08043 v 0.110067 c 0,0.05503 -0.02963,0.08043 -0.09737,0.08043 z" />
    </g>
    <g
       id="g1445">
      <path
         d="m 36.204647,58.855671 h 9.592733 v 4.7625 h -9.592733 z"
         style="fill:#999999;fill-opacity:1;stroke-width:0.100525"
         id="rect6948-0" />
      <path
         d="m 36.520828,59.120251 h 8.995834 v 4.233333 h -8.995834 z"
         style="fill:#323232;fill-opacity:1;stroke-width:0.0930023"
         id="rect4735-6" />
    </g>
    <g
       style="font-style:normal;font-variant:normal;font-weight:normal;font-stretch:normal;font-size:3.52778px;line-height:1.25;font-family:Quarca;-inkscape-font-specification:Quarca;letter-spacing:0px;word-spacing:0px;fill:#dddddd;fill-opacity:1;stroke:none;stroke-width:0.264583"
       id="text5443-7-7"
       aria-label="SLOPE">
      <path
         id="path4885"
         style="font-style:normal;font-variant:normal;font-weight:normal;font-stretch:normal;font-size:2.82222px;font-family:Quarca;-inkscape-font-specification:Quarca;fill:#dddddd;fill-opacity:1;stroke-width:0.264583"
         d="m 37.580479,94.515864 c 0.141111,0.05927 0.1778,0.107245 0.1778,0.245533 v 0.194734 c 0,0.169333 -0.07055,0.239888 -0.231422,0.239888 h -0.426155 c -0.160867,0 -0.234245,-0.07056 -0.234245,-0.239888 v -0.211667 h -0.160866 v 0.251178 c 0,0.234244 0.110067,0.352777 0.369711,0.352777 h 0.496711 c 0.234244,0 0.349955,-0.118533 0.349955,-0.352777 v -0.276578 c 0,-0.200378 -0.0762,-0.270933 -0.282222,-0.361244 L 37.061191,94.112287 C 36.928546,94.055842 36.89468,94.00222 36.89468,93.878043 v -0.124178 c 0,-0.191911 0.06209,-0.256822 0.242711,-0.256822 h 0.352777 c 0.160867,0 0.239889,0.07338 0.239889,0.248355 v 0.189089 h 0.163689 v -0.2286 c 0,-0.254 -0.121356,-0.361244 -0.381,-0.361244 h -0.417689 c -0.248355,0 -0.361244,0.110067 -0.361244,0.361244 v 0.197556 c 0,0.203199 0.06773,0.276577 0.2794,0.36971 z" />
      <path
         id="path4887"
         style="font-style:normal;font-variant:normal;font-weight:normal;font-stretch:normal;font-size:2.82222px;font-family:Quarca;-inkscape-font-specification:Quarca;fill:#dddddd;fill-opacity:1;stroke-width:0.264583"
         d="m 38.403112,93.344643 h -0.160866 v 2.003776 h 1.027288 l 0.02258,-0.1524 h -0.889 z" />
      <path
         id="path4889"
         style="font-style:normal;font-variant:normal;font-weight:normal;font-stretch:normal;font-size:2.82222px;font-family:Quarca;-inkscape-font-specification:Quarca;fill:#dddddd;fill-opacity:1;stroke-width:0.264583"
         d="m 39.498751,94.958953 c 0,0.259644 0.09878,0.389466 0.386644,0.389466 h 0.536222 c 0.287866,0 0.386644,-0.129822 0.386644,-0.389466 v -1.224844 c 0,-0.259644 -0.09878,-0.389466 -0.386644,-0.389466 h -0.536222 c -0.287866,0 -0.386644,0.129822 -0.386644,0.389466 z m 0.403577,-1.46191 h 0.502355 c 0.180623,0 0.242711,0.08467 0.242711,0.262466 v 1.174044 c 0,0.1778 -0.06209,0.262466 -0.242711,0.262466 h -0.502355 c -0.1778,0 -0.242711,-0.08467 -0.242711,-0.262466 v -1.174044 c 0,-0.1778 0.06491,-0.262466 0.242711,-0.262466 z" />
      <path
         id="path4891"
         style="font-style:normal;font-variant:normal;font-weight:normal;font-stretch:normal;font-size:2.82222px;font-family:Quarca;-inkscape-font-specification:Quarca;fill:#dddddd;fill-opacity:1;stroke-width:0.264583"
         d="m 41.335575,94.524331 h 0.632178 c 0.251177,0 0.380999,-0.127 0.380999,-0.378178 V 93.72282 c 0,-0.251177 -0.129822,-0.378177 -0.380999,-0.378177 h -0.793044 v 2.003776 h 0.160866 z m 0,-1.027288 h 0.6096 c 0.163689,0 0.239889,0.0762 0.239889,0.256822 v 0.361244 c 0,0.180622 -0.0762,0.256822 -0.239889,0.256822 h -0.6096 z" />
      <path
         id="path4893"
         style="font-style:normal;font-variant:normal;font-weight:normal;font-stretch:normal;font-size:2.82222px;font-family:Quarca;-inkscape-font-specification:Quarca;fill:#dddddd;fill-opacity:1;stroke-width:0.264583"
         d="m 42.807319,93.497043 h 0.905933 l 0.02258,-0.1524 h -1.089377 v 2.003776 h 1.072444 l 0.02258,-0.1524 h -0.934155 v -0.612421 h 0.759177 l 0.02258,-0.149578 h -0.781755 z" />
    </g>
    <g
       style="font-style:normal;font-variant:normal;font-weight:normal;font-stretch:normal;font-size:3.52778px;line-height:1.25;font-family:Quarca;-inkscape-font-specification:Quarca;letter-spacing:0px;word-spacing:0px;fill:#dddddd;fill-opacity:1;stroke:none;stroke-width:0.264583"
       id="text5443-7-7-1"
       aria-label="MULTIPLY">
      <path
         id="path4868"
         style="font-style:normal;font-variant:normal;font-weight:normal;font-stretch:normal;font-size:2.82222px;font-family:Quarca;-inkscape-font-specification:Quarca;fill:#dddddd;fill-opacity:1;stroke-width:0.264583"
         d="m 36.900314,58.159737 v -1.744132 l 0.499533,0.976488 h 0.158045 l 0.502355,-0.976488 v 1.744132 h 0.155222 V 56.15596 H 38.023558 L 37.47887,57.219937 36.937003,56.15596 h -0.191911 v 2.003777 z" />
      <path
         id="path4870"
         style="font-style:normal;font-variant:normal;font-weight:normal;font-stretch:normal;font-size:2.82222px;font-family:Quarca;-inkscape-font-specification:Quarca;fill:#dddddd;fill-opacity:1;stroke-width:0.264583"
         d="m 39.387528,58.007337 h -0.361244 c -0.194733,0 -0.2794,-0.09031 -0.2794,-0.296333 V 56.15596 h -0.160866 v 1.600199 c 0,0.268111 0.124177,0.403578 0.406399,0.403578 h 0.428978 c 0.282222,0 0.406399,-0.135467 0.406399,-0.403578 V 56.15596 h -0.163688 v 1.555044 c 0,0.206022 -0.08184,0.296333 -0.276578,0.296333 z" />
      <path
         id="path4872"
         style="font-style:normal;font-variant:normal;font-weight:normal;font-stretch:normal;font-size:2.82222px;font-family:Quarca;-inkscape-font-specification:Quarca;fill:#dddddd;fill-opacity:1;stroke-width:0.264583"
         d="m 40.362076,56.15596 h -0.160867 v 2.003777 h 1.027289 l 0.02258,-0.1524 h -0.888999 z" />
      <path
         id="path4874"
         style="font-style:normal;font-variant:normal;font-weight:normal;font-stretch:normal;font-size:2.82222px;font-family:Quarca;-inkscape-font-specification:Quarca;fill:#dddddd;fill-opacity:1;stroke-width:0.264583"
         d="m 42.251067,56.30836 v -0.1524 h -1.188155 v 0.1524 h 0.513644 v 1.851377 h 0.163689 V 56.30836 Z" />
      <path
         id="path4876"
         style="font-style:normal;font-variant:normal;font-weight:normal;font-stretch:normal;font-size:2.82222px;font-family:Quarca;-inkscape-font-specification:Quarca;fill:#dddddd;fill-opacity:1;stroke-width:0.264583"
         d="M 42.633081,58.159737 V 56.15596 h -0.160866 v 2.003777 z" />
      <path
         id="path4878"
         style="font-style:normal;font-variant:normal;font-weight:normal;font-stretch:normal;font-size:2.82222px;font-family:Quarca;-inkscape-font-specification:Quarca;fill:#dddddd;fill-opacity:1;stroke-width:0.264583"
         d="m 43.173272,57.335648 h 0.632177 c 0.251178,0 0.381,-0.127 0.381,-0.378177 v -0.423333 c 0,-0.251178 -0.129822,-0.378178 -0.381,-0.378178 h -0.793044 v 2.003777 h 0.160867 z m 0,-1.027288 h 0.609599 c 0.163689,0 0.239889,0.0762 0.239889,0.256822 v 0.361244 c 0,0.180623 -0.0762,0.256822 -0.239889,0.256822 h -0.609599 z" />
      <path
         id="path4880"
         style="font-style:normal;font-variant:normal;font-weight:normal;font-stretch:normal;font-size:2.82222px;font-family:Quarca;-inkscape-font-specification:Quarca;fill:#dddddd;fill-opacity:1;stroke-width:0.264583"
         d="m 44.645015,56.15596 h -0.160866 v 2.003777 h 1.027288 l 0.02258,-0.1524 h -0.889 z" />
      <path
         id="path4882"
         style="font-style:normal;font-variant:normal;font-weight:normal;font-stretch:normal;font-size:2.82222px;font-family:Quarca;-inkscape-font-specification:Quarca;fill:#dddddd;fill-opacity:1;stroke-width:0.264583"
         d="m 46.091712,58.159737 v -0.829733 l 0.592666,-1.174044 h -0.169333 l -0.445911,0.889 c -0.04798,0.09313 -0.0508,0.112889 -0.05927,0.149577 -0.0085,-0.03669 -0.01693,-0.05644 -0.06209,-0.1524 L 45.499045,56.15596 h -0.169333 l 0.598311,1.176866 v 0.826911 z" />
    </g>
    <g
       style="font-style:normal;font-weight:normal;font-size:3.52778px;line-height:1.25;font-family:sans-serif;letter-spacing:0px;word-spacing:0px;fill:#ffffff;fill-opacity:1;stroke:none;stroke-width:0.264583"
       id="text5443-7-7-1-0"
       aria-label=":">
      <path
         id="path4865"
         style="font-style:normal;font-variant:normal;font-weight:bold;font-stretch:normal;font-size:3.52778px;font-family:Calibri;-inkscape-font-specification:'Calibri Bold';stroke-width:0.264583"
         d="m 50.184153,60.647464 q 0,0.07235 -0.01206,0.120579 -0.01206,0.04823 -0.04134,0.07924 -0.02756,0.03101 -0.07407,0.04479 -0.04651,0.01206 -0.117134,0.01206 -0.07062,0 -0.117133,-0.01206 -0.04651,-0.01378 -0.07579,-0.04479 -0.02756,-0.03101 -0.0379,-0.07924 -0.01034,-0.04823 -0.01034,-0.120579 0,-0.07407 0.01034,-0.124023 0.01033,-0.04995 0.0379,-0.08096 0.02928,-0.03101 0.07579,-0.04479 0.04651,-0.01378 0.117133,-0.01378 0.07062,0 0.117134,0.01378 0.04651,0.01378 0.07407,0.04479 0.02928,0.03101 0.04134,0.08096 0.01206,0.04995 0.01206,0.124023 z m 0,1.124825 q 0,0.07235 -0.01206,0.122301 -0.01206,0.04823 -0.04134,0.07924 -0.02756,0.03101 -0.07407,0.04306 -0.04651,0.01378 -0.117134,0.01378 -0.07062,0 -0.117133,-0.01378 -0.04651,-0.01206 -0.07579,-0.04306 -0.02756,-0.03101 -0.0379,-0.07924 -0.01034,-0.04995 -0.01034,-0.122301 0,-0.07235 0.01034,-0.122301 0.01033,-0.05168 0.0379,-0.08268 0.02928,-0.03101 0.07579,-0.04306 0.04651,-0.01378 0.117133,-0.01378 0.07062,0 0.117134,0.01378 0.04651,0.01206 0.07407,0.04306 0.02928,0.03101 0.04134,0.08268 0.01206,0.04995 0.01206,0.122301 z" />
    </g>
    <g
       id="g346"
       transform="matrix(0.12402883,0,0,0.12402883,40.975365,97.501149)"
       style="stroke:#ffffff;stroke-width:1.06662023;stroke-miterlimit:4;stroke-dasharray:none;stroke-opacity:1">
      <!-- <text font-size="6pt" letter-spacing="2px" transform="translate(6.5 40)">SIN</text> -->
      <g
         id="g344"
         transform="translate(9,33.5)"
         style="stroke:#ffffff;stroke-width:1.06662023;stroke-miterlimit:4;stroke-dasharray:none;stroke-opacity:1">
        <!-- <rect width="12" height="8" fill="none" stroke-width="1" stroke="#0f0" /> -->
        <path
           style="fill:none;stroke:#ffffff;stroke-width:1.06662023;stroke-miterlimit:4;stroke-dasharray:none;stroke-opacity:1"
           inkscape:connector-curvature="0"
           id="path340"
           d="M 0,4 A 3,4.5 0 0 1 6,4" />
        <path
           style="fill:none;stroke:#ffffff;stroke-width:1.06662023;stroke-miterlimit:4;stroke-dasharray:none;stroke-opacity:1"
           inkscape:connector-curvature="0"
           id="path342"
           d="m 6,4 a 3,4.5 0 0 0 6,0" />
      </g>
    </g>
    <g
       style="font-style:normal;font-variant:normal;font-weight:bold;font-stretch:normal;font-size:13.3333px;line-height:1.25;font-family:Consolas;-inkscape-font-specification:'Consolas Bold';text-align:center;letter-spacing:0px;word-spacing:0px;text-anchor:middle;fill:#000000;fill-opacity:1;stroke:none"
       id="flowRoot3926" />
    <g
       style="font-style:normal;font-variant:normal;font-weight:bold;font-stretch:normal;font-size:13.3333px;line-height:1.25;font-family:Consolas;-inkscape-font-specification:'Consolas Bold';text-align:center;letter-spacing:0px;word-spacing:0px;text-anchor:middle;fill:#000000;fill-opacity:1;stroke:none"
       id="flowRoot3934" />
    <g
       id="g1449">
      <path
         d="m 53.865585,58.855671 h 9.525001 v 4.7625 h -9.525001 z"
         style="fill:#999999;fill-opacity:1;stroke-width:0.10017"
         id="rect6948-0-2" />
      <path
         d="m 54.115623,59.120251 h 8.995834 v 4.233333 h -8.995834 z"
         style="fill:#323232;fill-opacity:1;stroke-width:0.0930023"
         id="rect4735-6-8" />
    </g>
    <g
       style="font-style:normal;font-variant:normal;font-weight:normal;font-stretch:normal;font-size:3.52773px;line-height:1.25;font-family:Quarca;-inkscape-font-specification:Quarca;letter-spacing:0px;word-spacing:0px;fill:#dddddd;fill-opacity:1;stroke:none;stroke-width:0.26458"
       id="text4978-4-9-8"
       transform="scale(0.9999876,1.0000124)"
       aria-label="+180">
      <path
         id="path4850"
         style="font-style:normal;font-variant:normal;font-weight:normal;font-stretch:normal;font-size:2.82219px;font-family:Quarca;-inkscape-font-specification:Quarca;fill:#dddddd;fill-opacity:1;stroke-width:0.26458"
         d="m 60.020712,140.09584 h 0.457194 v 0.44026 h 0.160865 v -0.44026 h 0.440262 l 0.02258,-0.1524 h -0.462839 v -0.42615 h -0.160865 v 0.42615 h -0.437439 z" />
      <path
         id="path4852"
         style="font-style:normal;font-variant:normal;font-weight:normal;font-stretch:normal;font-size:2.82219px;font-family:Quarca;-inkscape-font-specification:Quarca;fill:#dddddd;fill-opacity:1;stroke-width:0.26458"
         d="m 61.458882,140.85501 h 0.160865 v -2.00375 h -0.143932 l -0.262464,0.18626 v 0.16933 l 0.245531,-0.1778 z" />
      <path
         id="path4854"
         style="font-style:normal;font-variant:normal;font-weight:normal;font-stretch:normal;font-size:2.82219px;font-family:Quarca;-inkscape-font-specification:Quarca;fill:#dddddd;fill-opacity:1;stroke-width:0.26458"
         d="m 62.266293,139.79951 c -0.110065,0.0226 -0.234242,0.079 -0.234242,0.29915 v 0.36689 c 0,0.25964 0.09878,0.38946 0.38664,0.38946 h 0.479773 c 0.287863,0 0.38664,-0.12982 0.38664,-0.38946 v -0.36689 c 0,-0.22013 -0.118532,-0.27657 -0.214487,-0.29915 0.09878,-0.031 0.129821,-0.10724 0.129821,-0.25117 v -0.30762 c 0,-0.25964 -0.09878,-0.38946 -0.38664,-0.38946 h -0.310441 c -0.287863,0 -0.38664,0.12982 -0.38664,0.38946 v 0.30762 c 0,0.14393 0.03669,0.22013 0.149576,0.25117 z m 0.612415,0.0819 c 0.129821,0 0.245531,0.0452 0.245531,0.22013 v 0.33866 c 0,0.1778 -0.06491,0.26246 -0.242709,0.26246 h -0.445906 c -0.177798,0 -0.242708,-0.0847 -0.242708,-0.26246 v -0.33866 c 0,-0.18062 0.118532,-0.22013 0.245531,-0.22013 z m -0.358418,-0.87771 h 0.276575 c 0.177798,0 0.242708,0.0847 0.242708,0.26247 v 0.25964 c 0,0.16933 -0.07902,0.2032 -0.256819,0.2032 h -0.245531 c -0.177798,0 -0.259641,-0.0339 -0.259641,-0.2032 v -0.25964 c 0,-0.1778 0.06491,-0.26247 0.242708,-0.26247 z" />
      <path
         id="path4856"
         style="font-style:normal;font-variant:normal;font-weight:normal;font-stretch:normal;font-size:2.82219px;font-family:Quarca;-inkscape-font-specification:Quarca;fill:#dddddd;fill-opacity:1;stroke-width:0.26458"
         d="m 63.666981,140.46555 c 0,0.25964 0.09878,0.38946 0.389462,0.38946 h 0.460017 c 0.287864,0 0.38664,-0.12982 0.38664,-0.38946 v -1.22483 c 0,-0.25964 -0.09878,-0.38946 -0.38664,-0.38946 h -0.460017 c -0.290685,0 -0.389462,0.12982 -0.389462,0.38946 z m 0.403573,-1.4619 h 0.428973 c 0.177798,0 0.242709,0.0847 0.242709,0.26247 v 1.17403 c 0,0.1778 -0.06491,0.26246 -0.242709,0.26246 h -0.428973 c -0.177798,0 -0.239886,-0.0847 -0.239886,-0.26246 v -1.17403 c 0,-0.1778 0.06209,-0.26247 0.239886,-0.26247 z" />
      <path
         id="path4858"
         style="font-style:normal;font-variant:normal;font-weight:normal;font-stretch:normal;font-size:2.82219px;font-family:Quarca;-inkscape-font-specification:Quarca;fill:#dddddd;fill-opacity:1;stroke-width:0.26458"
         d="m 65.46454,138.72708 c -0.169332,0 -0.225775,0.0508 -0.225775,0.20884 v 0.13547 c 0,0.15804 0.05927,0.20884 0.228597,0.20884 h 0.09031 c 0.169332,0 0.225775,-0.0508 0.225775,-0.20884 v -0.13547 c 0,-0.15804 -0.05927,-0.20884 -0.225775,-0.20884 z m 0.08749,0.45719 h -0.06491 c -0.09878,0 -0.146754,-0.0254 -0.146754,-0.10724 v -0.14675 c 0,-0.0762 0.04798,-0.10725 0.129821,-0.10725 h 0.06491 c 0.09878,0 0.146753,0.0254 0.146753,0.10725 v 0.14675 c 0,0.0734 -0.03951,0.10724 -0.12982,0.10724 z" />
    </g>
    <g
       style="font-style:normal;font-variant:normal;font-weight:normal;font-stretch:normal;font-size:3.52773px;line-height:1.25;font-family:Quarca;-inkscape-font-specification:Quarca;letter-spacing:0px;word-spacing:0px;fill:#dddddd;fill-opacity:1;stroke:none;stroke-width:0.26458"
       id="text4978-4-9-3"
       transform="scale(0.9999876,1.0000124)"
       aria-label="+90">
      <path
         id="path4841"
         style="font-style:normal;font-variant:normal;font-weight:normal;font-stretch:normal;font-size:2.82219px;font-family:Quarca;-inkscape-font-specification:Quarca;fill:#dddddd;fill-opacity:1;stroke-width:0.26458"
         d="m 52.3477,140.09584 h 0.457195 v 0.44026 h 0.160864 v -0.44026 h 0.440262 l 0.02258,-0.1524 h -0.46284 v -0.42615 h -0.160864 v 0.42615 h -0.43744 z" />
      <path
         id="path4843"
         style="font-style:normal;font-variant:normal;font-weight:normal;font-stretch:normal;font-size:2.82219px;font-family:Quarca;-inkscape-font-specification:Quarca;fill:#dddddd;fill-opacity:1;stroke-width:0.26458"
         d="m 54.411603,140.70261 h -0.344307 c -0.174976,0 -0.237064,-0.0847 -0.237064,-0.26246 v -0.18062 h -0.163687 v 0.20602 c 0,0.25964 0.101598,0.38946 0.389462,0.38946 h 0.372529 c 0.287863,0 0.38664,-0.12982 0.38664,-0.38946 v -1.22483 c 0,-0.25964 -0.09878,-0.38946 -0.38664,-0.38946 h -0.372529 c -0.287864,0 -0.389462,0.12982 -0.389462,0.38946 v 0.34148 c 0,0.24836 0.09031,0.37253 0.355596,0.37253 h 0.63217 v 0.48542 c 0,0.1778 -0.06209,0.26246 -0.242708,0.26246 z m 0,-1.69896 c 0.18062,0 0.242708,0.0847 0.242708,0.26247 v 0.53621 h -0.587015 c -0.174976,0 -0.237064,-0.0847 -0.237064,-0.26528 v -0.27093 c 0,-0.1778 0.06209,-0.26247 0.239886,-0.26247 z" />
      <path
         id="path4845"
         style="font-style:normal;font-variant:normal;font-weight:normal;font-stretch:normal;font-size:2.82219px;font-family:Quarca;-inkscape-font-specification:Quarca;fill:#dddddd;fill-opacity:1;stroke-width:0.26458"
         d="m 55.227789,140.46555 c 0,0.25964 0.09878,0.38946 0.389462,0.38946 h 0.460017 c 0.287864,0 0.38664,-0.12982 0.38664,-0.38946 v -1.22483 c 0,-0.25964 -0.09878,-0.38946 -0.38664,-0.38946 h -0.460017 c -0.290685,0 -0.389462,0.12982 -0.389462,0.38946 z m 0.403573,-1.4619 h 0.428973 c 0.177798,0 0.242708,0.0847 0.242708,0.26247 v 1.17403 c 0,0.1778 -0.06491,0.26246 -0.242708,0.26246 h -0.428973 c -0.177798,0 -0.239886,-0.0847 -0.239886,-0.26246 v -1.17403 c 0,-0.1778 0.06209,-0.26247 0.239886,-0.26247 z" />
      <path
         id="path4847"
         style="font-style:normal;font-variant:normal;font-weight:normal;font-stretch:normal;font-size:2.82219px;font-family:Quarca;-inkscape-font-specification:Quarca;fill:#dddddd;fill-opacity:1;stroke-width:0.26458"
         d="m 57.025348,138.72708 c -0.169332,0 -0.225776,0.0508 -0.225776,0.20884 v 0.13547 c 0,0.15804 0.05927,0.20884 0.228598,0.20884 h 0.09031 c 0.169331,0 0.225775,-0.0508 0.225775,-0.20884 v -0.13547 c 0,-0.15804 -0.05927,-0.20884 -0.225775,-0.20884 z m 0.08749,0.45719 h -0.06491 c -0.09878,0 -0.146754,-0.0254 -0.146754,-0.10724 v -0.14675 c 0,-0.0762 0.04798,-0.10725 0.129821,-0.10725 h 0.06491 c 0.09878,0 0.146754,0.0254 0.146754,0.10725 v 0.14675 c 0,0.0734 -0.03951,0.10724 -0.129821,0.10724 z" />
    </g>
    <g
       style="font-style:normal;font-variant:normal;font-weight:normal;font-stretch:normal;font-size:3.52773px;line-height:1.25;font-family:Quarca;-inkscape-font-specification:Quarca;letter-spacing:0px;word-spacing:0px;fill:#dddddd;fill-opacity:1;stroke:none;stroke-width:0.26458"
       id="text4978-4-9-81"
       transform="scale(0.9999876,1.0000124)"
       aria-label="+45">
      <path
         id="path4832"
         style="font-style:normal;font-variant:normal;font-weight:normal;font-stretch:normal;font-size:2.82219px;font-family:Quarca;-inkscape-font-specification:Quarca;fill:#dddddd;fill-opacity:1;stroke-width:0.26458"
         d="m 44.410101,140.09584 h 0.457194 v 0.44026 h 0.160865 v -0.44026 h 0.440262 l 0.02258,-0.1524 H 45.02816 v -0.42615 h -0.160865 v 0.42615 h -0.437439 z" />
      <path
         id="path4834"
         style="font-style:normal;font-variant:normal;font-weight:normal;font-stretch:normal;font-size:2.82219px;font-family:Quarca;-inkscape-font-specification:Quarca;fill:#dddddd;fill-opacity:1;stroke-width:0.26458"
         d="m 45.669679,140.47684 h 0.917212 v 0.37817 h 0.160865 v -0.37817 h 0.287863 l 0.02258,-0.1524 h -0.310441 v -0.57008 h -0.03669 l -0.124177,0.031 v 0.53904 h -0.756347 v -0.31326 c 0,-0.0847 0.0254,-0.16934 0.09595,-0.25118 l 0.787391,-0.90874 h -0.197554 l -0.733769,0.84101 c -0.06773,0.0762 -0.112888,0.18062 -0.112888,0.30197 z" />
      <path
         id="path4836"
         style="font-style:normal;font-variant:normal;font-weight:normal;font-stretch:normal;font-size:2.82219px;font-family:Quarca;-inkscape-font-specification:Quarca;fill:#dddddd;fill-opacity:1;stroke-width:0.26458"
         d="m 47.989961,140.70261 h -0.372529 c -0.177798,0 -0.242709,-0.0847 -0.242709,-0.26246 v -0.18909 h -0.160865 v 0.21449 c 0,0.25964 0.09878,0.38946 0.386641,0.38946 h 0.406395 c 0.287863,0 0.38664,-0.12982 0.38664,-0.38946 v -0.45437 c 0,-0.25682 -0.121354,-0.381 -0.380996,-0.381 h -0.578549 v -0.62653 h 0.911568 l 0.02258,-0.15239 h -1.097832 v 0.93132 h 0.711192 c 0.174976,0 0.251175,0.0875 0.251175,0.2794 v 0.37817 c 0,0.1778 -0.06491,0.26246 -0.242708,0.26246 z" />
      <path
         id="path4838"
         style="font-style:normal;font-variant:normal;font-weight:normal;font-stretch:normal;font-size:2.82219px;font-family:Quarca;-inkscape-font-specification:Quarca;fill:#dddddd;fill-opacity:1;stroke-width:0.26458"
         d="m 48.872777,138.72708 c -0.169332,0 -0.225775,0.0508 -0.225775,0.20884 v 0.13547 c 0,0.15804 0.05927,0.20884 0.228597,0.20884 h 0.09031 c 0.169331,0 0.225775,-0.0508 0.225775,-0.20884 v -0.13547 c 0,-0.15804 -0.05927,-0.20884 -0.225775,-0.20884 z m 0.08749,0.45719 h -0.06491 c -0.09878,0 -0.146754,-0.0254 -0.146754,-0.10724 v -0.14675 c 0,-0.0762 0.04798,-0.10725 0.129821,-0.10725 h 0.06491 c 0.09878,0 0.146753,0.0254 0.146753,0.10725 v 0.14675 c 0,0.0734 -0.03951,0.10724 -0.12982,0.10724 z" />
    </g>
    <g
       style="font-style:normal;font-variant:normal;font-weight:normal;font-stretch:normal;font-size:3.52777px;line-height:1.25;font-family:Quarca;-inkscape-font-specification:Quarca;letter-spacing:0px;word-spacing:0px;fill:#dddddd;fill-opacity:1;stroke:none;stroke-width:0.264583"
       id="text5443-0-4-9-0-5"
       aria-label="CLK">
      <path
         id="path4825"
         style="font-style:normal;font-variant:normal;font-weight:normal;font-stretch:normal;font-size:2.11667px;font-family:Quarca;-inkscape-font-specification:Quarca;fill:#dddddd;fill-opacity:1;stroke-width:0.264583"
         d="m 37.234931,118.67532 c -0.13335,0 -0.182034,-0.0635 -0.182034,-0.19685 v -0.88054 c 0,-0.13335 0.04868,-0.19685 0.182034,-0.19685 h 0.3429 c 0.133351,0 0.182034,0.0635 0.182034,0.19685 v 0.13759 h 0.12065 v -0.15664 c 0,-0.19473 -0.07408,-0.2921 -0.289984,-0.2921 h -0.3683 c -0.215901,0 -0.289984,0.0974 -0.289984,0.2921 v 0.91864 c 0,0.19473 0.07408,0.2921 0.289984,0.2921 h 0.3683 c 0.215901,0 0.289984,-0.0974 0.289984,-0.2921 v -0.16087 h -0.12065 v 0.14182 c 0,0.13335 -0.04868,0.19685 -0.182034,0.19685 z" />
      <path
         id="path4827"
         style="font-style:normal;font-variant:normal;font-weight:normal;font-stretch:normal;font-size:2.11667px;font-family:Quarca;-inkscape-font-specification:Quarca;fill:#dddddd;fill-opacity:1;stroke-width:0.264583"
         d="m 38.235454,117.28678 h -0.12065 v 1.50284 h 0.770468 l 0.01693,-0.1143 h -0.666751 z" />
      <path
         id="path4829"
         style="font-style:normal;font-variant:normal;font-weight:normal;font-stretch:normal;font-size:2.11667px;font-family:Quarca;-inkscape-font-specification:Quarca;fill:#dddddd;fill-opacity:1;stroke-width:0.264583"
         d="m 39.186302,118.78962 v -0.71967 l 0.622301,0.71967 h 0.141817 l -0.649818,-0.75142 0.637118,-0.75142 h -0.13335 l -0.618068,0.71967 v -0.71967 h -0.12065 v 1.50284 z" />
    </g>
    <g
       style="font-style:normal;font-variant:normal;font-weight:normal;font-stretch:normal;font-size:3.52777px;line-height:1.25;font-family:Quarca;-inkscape-font-specification:Quarca;letter-spacing:0px;word-spacing:0px;fill:#dddddd;fill-opacity:1;stroke:none;stroke-width:0.264583"
       id="text5443-0-4-9-0-5-3"
       aria-label="BPM">
      <path
         id="path4818"
         style="font-style:normal;font-variant:normal;font-weight:normal;font-stretch:normal;font-size:2.11667px;font-family:Quarca;-inkscape-font-specification:Quarca;fill:#dddddd;fill-opacity:1;stroke-width:0.264583"
         d="m 36.733812,127.27613 h 0.588434 c 0.226484,0 0.328084,-0.0974 0.328084,-0.2921 v -0.20532 c 0,-0.20531 -0.110067,-0.2794 -0.245534,-0.28998 0.114301,-0.0233 0.167217,-0.0995 0.167217,-0.23918 v -0.18415 c 0,-0.19474 -0.112183,-0.2921 -0.34925,-0.2921 h -0.488951 z m 0.12065,-0.72813 h 0.402168 c 0.188383,0 0.27305,0.072 0.27305,0.23706 v 0.17569 c 0,0.13546 -0.06985,0.20108 -0.226484,0.20108 h -0.448734 z m 0,-0.6604 h 0.340784 c 0.175684,0 0.256117,0.0593 0.256117,0.20531 v 0.14817 c 0,0.12065 -0.06562,0.19473 -0.213783,0.19473 h -0.383118 z" />
      <path
         id="path4820"
         style="font-style:normal;font-variant:normal;font-weight:normal;font-stretch:normal;font-size:2.11667px;font-family:Quarca;-inkscape-font-specification:Quarca;fill:#dddddd;fill-opacity:1;stroke-width:0.264583"
         d="m 38.007882,126.65806 h 0.474134 c 0.188384,0 0.285751,-0.0953 0.285751,-0.28363 v -0.3175 c 0,-0.18838 -0.09737,-0.28363 -0.285751,-0.28363 h -0.594784 v 1.50283 h 0.12065 z m 0,-0.77046 h 0.457201 c 0.122767,0 0.179917,0.0571 0.179917,0.19261 v 0.27094 c 0,0.13546 -0.05715,0.19261 -0.179917,0.19261 h -0.457201 z" />
      <path
         id="path4822"
         style="font-style:normal;font-variant:normal;font-weight:normal;font-stretch:normal;font-size:2.11667px;font-family:Quarca;-inkscape-font-specification:Quarca;fill:#dddddd;fill-opacity:1;stroke-width:0.264583"
         d="m 39.107459,127.27613 v -1.3081 l 0.374651,0.73237 h 0.118533 l 0.376767,-0.73237 v 1.3081 h 0.116417 v -1.50283 h -0.143933 l -0.408518,0.79798 -0.4064,-0.79798 h -0.143934 v 1.50283 z" />
    </g>
  </g>
</svg>
