<?xml version="1.0" encoding="UTF-8" standalone="no"?>
<svg
   xmlns:dc="http://purl.org/dc/elements/1.1/"
   xmlns:cc="http://creativecommons.org/ns#"
   xmlns:rdf="http://www.w3.org/1999/02/22-rdf-syntax-ns#"
   xmlns:svg="http://www.w3.org/2000/svg"
   xmlns="http://www.w3.org/2000/svg"
   xmlns:xlink="http://www.w3.org/1999/xlink"
   xmlns:sodipodi="http://sodipodi.sourceforge.net/DTD/sodipodi-0.dtd"
   xmlns:inkscape="http://www.inkscape.org/namespaces/inkscape"
   sodipodi:docname="EverlastingGlottalStopper.svg"
   inkscape:version="1.0 (4035a4fb49, 2020-05-01)"
   id="svg11003"
   version="1.1"
   viewBox="0 0 31.750001 100.54167"
   height="380"
   width="120">
  <defs
     id="defs10997">
    <linearGradient
       id="linearGradient4682"
       inkscape:collect="always">
      <stop
         id="stop3387"
         offset="0"
         style="stop-color:#0c1622;stop-opacity:1" />
      <stop
         id="stop3388"
         offset=".3"
         style="stop-color:#161625;stop-opacity:1" />
      <stop
         id="stop3389"
         offset="1"
         style="stop-color:#081f35;stop-opacity:1" />
    </linearGradient>
    <linearGradient
       gradientTransform="matrix(0.61728112,0,0,1,13.405902,0.07224348)"
       gradientUnits="userSpaceOnUse"
       y2="50.163956"
       x2="35.23983"
       y1="150.85843"
       x1="35.219627"
       id="linearGradient4684"
       xlink:href="#linearGradient4682"
       inkscape:collect="always" />
  </defs>
  <sodipodi:namedview
     inkscape:document-rotation="0"
     units="px"
     inkscape:window-maximized="1"
     inkscape:window-y="-6"
     inkscape:window-x="-6"
     inkscape:window-height="1058"
     inkscape:window-width="1920"
     fit-margin-bottom="0"
     fit-margin-right="0"
     fit-margin-left="0"
     fit-margin-top="0"
     showgrid="false"
     inkscape:current-layer="layer1"
     inkscape:document-units="px"
     inkscape:cy="200.72062"
     inkscape:cx="-10.70313"
     inkscape:zoom="2"
     inkscape:pageshadow="2"
     inkscape:pageopacity="0.0"
     borderopacity="1.0"
     bordercolor="#666666"
     pagecolor="#ffffff"
     id="base" />
  <metadata
     id="metadata11000">
    <rdf:RDF>
      <cc:Work
         rdf:about="">
        <dc:format>image/svg+xml</dc:format>
        <dc:type
           rdf:resource="http://purl.org/dc/dcmitype/StillImage" />
        <dc:title></dc:title>
      </cc:Work>
    </rdf:RDF>
  </metadata>
  <g
     transform="translate(-35.146312,-50.389004)"
     id="layer1"
     inkscape:groupmode="layer"
     inkscape:label="Layer 1">
    <path
       inkscape:export-ydpi="150.22649"
       inkscape:export-xdpi="150.22649"
       inkscape:export-filename="/home/vortico/pics/tmp/LFOs.png"
       style="fill:url(#linearGradient4684);fill-opacity:1;fill-rule:nonzero;stroke:none;stroke-width:0.24714991"
       d="M 35.146312,50.534566 H 66.896313 V 150.93067 H 35.146312 Z m 0,0"
       id="path33493"
       inkscape:connector-curvature="0" />
    <g
       style="font-style:normal;font-weight:normal;font-size:3.52778px;line-height:1.25;font-family:sans-serif;letter-spacing:0px;word-spacing:0px;fill:#ffffff;fill-opacity:1;stroke:none;stroke-width:0.264583"
       id="text5097" />
    <g
       style="font-style:normal;font-variant:normal;font-weight:normal;font-stretch:normal;font-size:3.52778px;line-height:1.25;font-family:Quarca;-inkscape-font-specification:Quarca;text-align:center;letter-spacing:0px;word-spacing:0px;text-anchor:middle;fill:#dddddd;fill-opacity:1;stroke:none;stroke-width:0.264583"
       id="text136"
       aria-label="EVERLASTING">
      <path
         id="path6411"
         style="font-style:normal;font-variant:normal;font-weight:normal;font-stretch:normal;font-size:3.88056px;font-family:Quarca;-inkscape-font-specification:Quarca;fill:#dddddd;fill-opacity:1;stroke-width:0.264583"
         d="m 41.135758,51.738098 h 1.24566 l 0.03104,-0.209551 h -1.497896 v 2.755198 h 1.474613 l 0.03104,-0.20955 h -1.284465 v -0.842082 h 1.043871 l 0.03104,-0.20567 h -1.074915 z" />
      <path
         id="path6413"
         style="font-style:normal;font-variant:normal;font-weight:normal;font-stretch:normal;font-size:3.88056px;font-family:Quarca;-inkscape-font-specification:Quarca;fill:#dddddd;fill-opacity:1;stroke-width:0.264583"
         d="m 43.65218,54.283745 0.783873,-2.755198 h -0.236714 l -0.644173,2.332217 c -0.01164,0.05433 -0.02328,0.112536 -0.02716,0.162983 -0.0078,-0.05045 -0.01552,-0.108655 -0.03104,-0.162983 L 42.852784,51.528547 H 42.61607 l 0.787754,2.755198 z" />
      <path
         id="path6415"
         style="font-style:normal;font-variant:normal;font-weight:normal;font-stretch:normal;font-size:3.88056px;font-family:Quarca;-inkscape-font-specification:Quarca;fill:#dddddd;fill-opacity:1;stroke-width:0.264583"
         d="m 45.016318,51.738098 h 1.24566 l 0.03104,-0.209551 h -1.497896 v 2.755198 h 1.474613 l 0.03104,-0.20955 h -1.284465 v -0.842082 h 1.04387 l 0.03105,-0.20567 h -1.074915 z" />
      <path
         id="path6417"
         style="font-style:normal;font-variant:normal;font-weight:normal;font-stretch:normal;font-size:3.88056px;font-family:Quarca;-inkscape-font-specification:Quarca;fill:#dddddd;fill-opacity:1;stroke-width:0.264583"
         d="m 46.659614,54.283745 h 0.221192 v -1.10596 h 0.508353 l 0.772231,1.10596 h 0.259998 l -0.776112,-1.10596 h 0.05433 c 0.368653,0 0.547159,-0.174625 0.547159,-0.523875 v -0.601487 c 0,-0.349251 -0.178506,-0.523876 -0.547159,-0.523876 h -1.03999 z m 0.221192,-2.545647 h 0.779992 c 0.248356,0 0.360892,0.116416 0.360892,0.380294 v 0.469548 c 0,0.267759 -0.112536,0.384176 -0.360892,0.384176 h -0.779992 z" />
      <path
         id="path6419"
         style="font-style:normal;font-variant:normal;font-weight:normal;font-stretch:normal;font-size:3.88056px;font-family:Quarca;-inkscape-font-specification:Quarca;fill:#dddddd;fill-opacity:1;stroke-width:0.264583"
         d="m 48.942353,51.528547 h -0.221192 v 2.755198 h 1.412524 l 0.03104,-0.20955 h -1.222376 z" />
      <path
         id="path6421"
         style="font-style:normal;font-variant:normal;font-weight:normal;font-stretch:normal;font-size:3.88056px;font-family:Quarca;-inkscape-font-specification:Quarca;fill:#dddddd;fill-opacity:1;stroke-width:0.264583"
         d="m 51.124076,51.528547 -0.849842,2.755198 h 0.236714 l 0.178506,-0.597606 h 1.10984 l 0.178506,0.597606 h 0.236714 l -0.845962,-2.755198 z m 0.124178,0.294923 0.488951,1.653118 h -0.985662 z" />
      <path
         id="path6423"
         style="font-style:normal;font-variant:normal;font-weight:normal;font-stretch:normal;font-size:3.88056px;font-family:Quarca;-inkscape-font-specification:Quarca;fill:#dddddd;fill-opacity:1;stroke-width:0.264583"
         d="m 53.624491,53.13898 c 0.194028,0.08149 0.244476,0.147461 0.244476,0.337608 v 0.267759 c 0,0.232834 -0.09701,0.329848 -0.318206,0.329848 h -0.585965 c -0.221192,0 -0.322086,-0.09701 -0.322086,-0.329848 v -0.291042 h -0.221192 v 0.34537 c 0,0.322086 0.151342,0.48507 0.508353,0.48507 h 0.682979 c 0.322086,0 0.481189,-0.162984 0.481189,-0.48507 V 53.41838 c 0,-0.27552 -0.104775,-0.372534 -0.388056,-0.496712 L 52.910468,52.58406 c -0.182386,-0.07761 -0.228953,-0.151342 -0.228953,-0.322087 v -0.170745 c 0,-0.263878 0.08537,-0.35313 0.333729,-0.35313 h 0.48507 c 0.221191,0 0.329847,0.100894 0.329847,0.341489 v 0.259997 h 0.225073 v -0.314325 c 0,-0.34925 -0.166864,-0.496712 -0.523876,-0.496712 h -0.574323 c -0.341489,0 -0.496711,0.151342 -0.496711,0.496712 v 0.271639 c 0,0.2794 0.09313,0.380295 0.384175,0.508353 z" />
      <path
         id="path6425"
         style="font-style:normal;font-variant:normal;font-weight:normal;font-stretch:normal;font-size:3.88056px;font-family:Quarca;-inkscape-font-specification:Quarca;fill:#dddddd;fill-opacity:1;stroke-width:0.264583"
         d="m 55.950826,51.738098 v -0.209551 h -1.633715 v 0.209551 h 0.706261 v 2.545647 h 0.225073 v -2.545647 z" />
      <path
         id="path6427"
         style="font-style:normal;font-variant:normal;font-weight:normal;font-stretch:normal;font-size:3.88056px;font-family:Quarca;-inkscape-font-specification:Quarca;fill:#dddddd;fill-opacity:1;stroke-width:0.264583"
         d="m 56.476097,54.283745 v -2.755198 h -0.221192 v 2.755198 z" />
      <path
         id="path6429"
         style="font-style:normal;font-variant:normal;font-weight:normal;font-stretch:normal;font-size:3.88056px;font-family:Quarca;-inkscape-font-specification:Quarca;fill:#dddddd;fill-opacity:1;stroke-width:0.264583"
         d="m 57.218859,54.283745 v -2.371022 c 0.05821,0.128058 0.108656,0.256117 0.201789,0.41522 l 1.133124,1.955802 h 0.225072 v -2.755198 h -0.225072 v 2.367142 c -0.04269,-0.100895 -0.08149,-0.197909 -0.155223,-0.325967 l -1.17969,-2.041175 h -0.221192 v 2.755198 z" />
      <path
         id="path6431"
         style="font-style:normal;font-variant:normal;font-weight:normal;font-stretch:normal;font-size:3.88056px;font-family:Quarca;-inkscape-font-specification:Quarca;fill:#dddddd;fill-opacity:1;stroke-width:0.264583"
         d="m 60.136071,53.162263 h 0.663575 v 0.578203 c 0,0.225073 -0.09313,0.333729 -0.341489,0.333729 h -0.613128 c -0.228953,0 -0.337609,-0.104776 -0.337609,-0.353131 v -1.602672 c 0,-0.263878 0.08925,-0.380294 0.318206,-0.380294 h 0.663576 c 0.228953,0 0.329847,0.104775 0.329847,0.35313 v 0.248356 h 0.221192 v -0.314325 c 0,-0.34537 -0.170745,-0.496712 -0.500592,-0.496712 h -0.787754 c -0.310445,0 -0.465667,0.174625 -0.465667,0.523876 v 1.738491 c 0,0.34925 0.194028,0.492831 0.504473,0.492831 h 0.721784 c 0.384175,0 0.512234,-0.190148 0.512234,-0.523876 v -0.807156 h -0.857604 z" />
    </g>
    <g
       style="font-style:normal;font-variant:normal;font-weight:normal;font-stretch:normal;font-size:3.52778px;line-height:1.25;font-family:Quarca;-inkscape-font-specification:Quarca;text-align:center;letter-spacing:0px;word-spacing:0px;text-anchor:middle;fill:#dddddd;fill-opacity:1;stroke:none;stroke-width:0.264583"
       id="text299"
       aria-label="FREQUENCY">
      <path
         id="path6392"
         style="font-style:normal;font-variant:normal;font-weight:normal;font-stretch:normal;font-size:2.82222px;font-family:Quarca;-inkscape-font-specification:Quarca;fill:#dddddd;fill-opacity:1;stroke-width:0.264583"
         d="m 44.498303,62.909442 h 0.897466 l 0.02258,-0.1524 h -1.08091 v 2.003776 h 0.160866 v -0.764821 h 0.7112 l 0.02258,-0.149578 h -0.733778 z" />
      <path
         id="path6394"
         style="font-style:normal;font-variant:normal;font-weight:normal;font-stretch:normal;font-size:2.82222px;font-family:Quarca;-inkscape-font-specification:Quarca;fill:#dddddd;fill-opacity:1;stroke-width:0.264583"
         d="m 45.660353,64.760818 h 0.160866 v -0.804332 h 0.369711 l 0.561622,0.804332 h 0.189088 l -0.564444,-0.804332 h 0.03951 c 0.268111,0 0.397934,-0.127 0.397934,-0.381 v -0.437444 c 0,-0.254 -0.129823,-0.381 -0.397934,-0.381 h -0.756354 z m 0.160866,-1.851376 h 0.567266 c 0.180622,0 0.262467,0.08467 0.262467,0.276578 v 0.341488 c 0,0.194733 -0.08184,0.2794 -0.262467,0.2794 h -0.567266 z" />
      <path
         id="path6396"
         style="font-style:normal;font-variant:normal;font-weight:normal;font-stretch:normal;font-size:2.82222px;font-family:Quarca;-inkscape-font-specification:Quarca;fill:#dddddd;fill-opacity:1;stroke-width:0.264583"
         d="m 47.320523,62.909442 h 0.905933 l 0.02258,-0.1524 h -1.089377 v 2.003776 h 1.072444 l 0.02258,-0.152399 h -0.934155 v -0.612422 h 0.759178 l 0.02258,-0.149578 h -0.781755 z" />
      <path
         id="path6398"
         style="font-style:normal;font-variant:normal;font-weight:normal;font-stretch:normal;font-size:2.82222px;font-family:Quarca;-inkscape-font-specification:Quarca;fill:#dddddd;fill-opacity:1;stroke-width:0.264583"
         d="m 48.504356,64.371352 c 0,0.259644 0.09878,0.389466 0.386644,0.389466 h 0.186267 v 0.327378 h 0.1524 v -0.327378 h 0.197555 c 0.287867,0 0.386644,-0.129822 0.386644,-0.389466 v -1.224843 c 0,-0.259645 -0.09878,-0.389467 -0.386644,-0.389467 H 48.891 c -0.287866,0 -0.386644,0.129822 -0.386644,0.389467 z m 0.403578,0.237067 c -0.1778,0 -0.242711,-0.08467 -0.242711,-0.262467 v -1.174043 c 0,-0.1778 0.06491,-0.262467 0.242711,-0.262467 h 0.502355 c 0.180622,0 0.242711,0.08467 0.242711,0.262467 v 1.174043 c 0,0.1778 -0.06209,0.262467 -0.242711,0.262467 h -0.180622 v -0.282222 h -0.1524 v 0.282222 z" />
      <path
         id="path6400"
         style="font-style:normal;font-variant:normal;font-weight:normal;font-stretch:normal;font-size:2.82222px;font-family:Quarca;-inkscape-font-specification:Quarca;fill:#dddddd;fill-opacity:1;stroke-width:0.264583"
         d="m 50.97618,64.608419 h -0.361244 c -0.194733,0 -0.2794,-0.09031 -0.2794,-0.296334 V 62.757042 H 50.17467 v 1.600199 c 0,0.268111 0.124177,0.403577 0.406399,0.403577 h 0.428978 c 0.282222,0 0.4064,-0.135466 0.4064,-0.403577 v -1.600199 h -0.163689 v 1.555043 c 0,0.206023 -0.08185,0.296334 -0.276578,0.296334 z" />
      <path
         id="path6402"
         style="font-style:normal;font-variant:normal;font-weight:normal;font-stretch:normal;font-size:2.82222px;font-family:Quarca;-inkscape-font-specification:Quarca;fill:#dddddd;fill-opacity:1;stroke-width:0.264583"
         d="m 51.950728,62.909442 h 0.905933 l 0.02258,-0.1524 h -1.089377 v 2.003776 h 1.072443 l 0.02258,-0.152399 h -0.934155 v -0.612422 h 0.759178 l 0.02258,-0.149578 h -0.781755 z" />
      <path
         id="path6404"
         style="font-style:normal;font-variant:normal;font-weight:normal;font-stretch:normal;font-size:2.82222px;font-family:Quarca;-inkscape-font-specification:Quarca;fill:#dddddd;fill-opacity:1;stroke-width:0.264583"
         d="m 53.306717,64.760818 v -1.724376 c 0.04233,0.09313 0.07902,0.186267 0.146755,0.301978 l 0.824089,1.422398 h 0.163688 v -2.003776 h -0.163688 v 1.721554 c -0.03104,-0.07338 -0.05927,-0.143933 -0.112889,-0.237066 L 53.306717,62.757042 H 53.14585 v 2.003776 z" />
      <path
         id="path6406"
         style="font-style:normal;font-variant:normal;font-weight:normal;font-stretch:normal;font-size:2.82222px;font-family:Quarca;-inkscape-font-specification:Quarca;fill:#dddddd;fill-opacity:1;stroke-width:0.264583"
         d="m 55.213831,64.608419 c -0.177799,0 -0.24271,-0.08467 -0.24271,-0.262467 v -1.174043 c 0,-0.1778 0.06491,-0.262467 0.24271,-0.262467 h 0.4572 c 0.1778,0 0.242711,0.08467 0.242711,0.262467 v 0.183444 h 0.160867 v -0.208844 c 0,-0.259645 -0.09878,-0.389467 -0.386645,-0.389467 h -0.491066 c -0.287866,0 -0.386644,0.129822 -0.386644,0.389467 v 1.224843 c 0,0.259644 0.09878,0.389466 0.386644,0.389466 h 0.491066 c 0.287867,0 0.386645,-0.129822 0.386645,-0.389466 v -0.214489 h -0.160867 v 0.189089 c 0,0.1778 -0.06491,0.262467 -0.242711,0.262467 z" />
      <path
         id="path6408"
         style="font-style:normal;font-variant:normal;font-weight:normal;font-stretch:normal;font-size:2.82222px;font-family:Quarca;-inkscape-font-specification:Quarca;fill:#dddddd;fill-opacity:1;stroke-width:0.264583"
         d="m 57.007882,64.760818 v -0.829732 l 0.592666,-1.174044 h -0.169333 l -0.445911,0.889 c -0.04798,0.09313 -0.0508,0.112888 -0.05927,0.149577 -0.0085,-0.03669 -0.01693,-0.05644 -0.06209,-0.1524 l -0.448733,-0.886177 h -0.169333 l 0.59831,1.176866 v 0.82691 z" />
    </g>
    <g
       style="font-style:normal;font-variant:normal;font-weight:normal;font-stretch:normal;font-size:3.52778px;line-height:1.25;font-family:Quarca;-inkscape-font-specification:Quarca;text-align:center;letter-spacing:0px;word-spacing:0px;text-anchor:middle;fill:#dddddd;fill-opacity:1;stroke:none;stroke-width:0.264583"
       id="text303"
       aria-label="OPENING">
      <path
         id="path6377"
         style="font-style:normal;font-variant:normal;font-weight:normal;font-stretch:normal;font-size:2.82222px;font-family:Quarca;-inkscape-font-specification:Quarca;fill:#dddddd;fill-opacity:1;stroke-width:0.264583"
         d="m 36.4812,96.546325 c 0,0.259644 0.09878,0.389466 0.386644,0.389466 h 0.536222 c 0.287867,0 0.386644,-0.129822 0.386644,-0.389466 v -1.224844 c 0,-0.259644 -0.09878,-0.389466 -0.386644,-0.389466 h -0.536222 c -0.287866,0 -0.386644,0.129822 -0.386644,0.389466 z m 0.403578,-1.46191 h 0.502355 c 0.180622,0 0.242711,0.08467 0.242711,0.262466 v 1.174044 c 0,0.1778 -0.06209,0.262466 -0.242711,0.262466 h -0.502355 c -0.1778,0 -0.242711,-0.08467 -0.242711,-0.262466 v -1.174044 c 0,-0.1778 0.06491,-0.262466 0.242711,-0.262466 z" />
      <path
         id="path6379"
         style="font-style:normal;font-variant:normal;font-weight:normal;font-stretch:normal;font-size:2.82222px;font-family:Quarca;-inkscape-font-specification:Quarca;fill:#dddddd;fill-opacity:1;stroke-width:0.264583"
         d="m 38.318025,96.111703 h 0.632177 c 0.251178,0 0.381,-0.127 0.381,-0.378178 v -0.423333 c 0,-0.251177 -0.129822,-0.378177 -0.381,-0.378177 h -0.793044 v 2.003776 h 0.160867 z m 0,-1.027288 h 0.609599 c 0.163689,0 0.239889,0.0762 0.239889,0.256822 v 0.361244 c 0,0.180622 -0.0762,0.256822 -0.239889,0.256822 h -0.609599 z" />
      <path
         id="path6381"
         style="font-style:normal;font-variant:normal;font-weight:normal;font-stretch:normal;font-size:2.82222px;font-family:Quarca;-inkscape-font-specification:Quarca;fill:#dddddd;fill-opacity:1;stroke-width:0.264583"
         d="m 39.789768,95.084415 h 0.905933 l 0.02258,-0.1524 h -1.089377 v 2.003776 h 1.072443 l 0.02258,-0.1524 h -0.934155 v -0.612422 h 0.759178 l 0.02258,-0.149577 h -0.781755 z" />
      <path
         id="path6383"
         style="font-style:normal;font-variant:normal;font-weight:normal;font-stretch:normal;font-size:2.82222px;font-family:Quarca;-inkscape-font-specification:Quarca;fill:#dddddd;fill-opacity:1;stroke-width:0.264583"
         d="m 41.145757,96.935791 v -1.724376 c 0.04233,0.09313 0.07902,0.186266 0.146755,0.301977 l 0.824089,1.422399 h 0.163688 v -2.003776 h -0.163688 v 1.721554 c -0.03105,-0.07338 -0.05927,-0.143933 -0.112889,-0.237066 L 41.145757,94.932015 H 40.98489 v 2.003776 z" />
      <path
         id="path6385"
         style="font-style:normal;font-variant:normal;font-weight:normal;font-stretch:normal;font-size:2.82222px;font-family:Quarca;-inkscape-font-specification:Quarca;fill:#dddddd;fill-opacity:1;stroke-width:0.264583"
         d="m 42.82145,96.935791 v -2.003776 h -0.160867 v 2.003776 z" />
      <path
         id="path6387"
         style="font-style:normal;font-variant:normal;font-weight:normal;font-stretch:normal;font-size:2.82222px;font-family:Quarca;-inkscape-font-specification:Quarca;fill:#dddddd;fill-opacity:1;stroke-width:0.264583"
         d="m 43.361641,96.935791 v -1.724376 c 0.04233,0.09313 0.07902,0.186266 0.146755,0.301977 l 0.824088,1.422399 h 0.163689 v -2.003776 h -0.163689 v 1.721554 c -0.03104,-0.07338 -0.05927,-0.143933 -0.112888,-0.237066 l -0.857955,-1.484488 h -0.160867 v 2.003776 z" />
      <path
         id="path6389"
         style="font-style:normal;font-variant:normal;font-weight:normal;font-stretch:normal;font-size:2.82222px;font-family:Quarca;-inkscape-font-specification:Quarca;fill:#dddddd;fill-opacity:1;stroke-width:0.264583"
         d="m 45.483244,96.120169 h 0.4826 v 0.420511 c 0,0.163689 -0.06773,0.242711 -0.248355,0.242711 h -0.445911 c -0.166511,0 -0.245533,-0.0762 -0.245533,-0.256822 v -1.165577 c 0,-0.191911 0.06491,-0.276577 0.231422,-0.276577 h 0.482599 c 0.166511,0 0.239889,0.0762 0.239889,0.256822 v 0.180622 h 0.160867 v -0.2286 c 0,-0.251178 -0.124178,-0.361244 -0.364067,-0.361244 h -0.57291 c -0.225778,0 -0.338667,0.127 -0.338667,0.380999 v 1.264355 c 0,0.254 0.141111,0.358422 0.366889,0.358422 H 45.757 c 0.2794,0 0.372533,-0.138289 0.372533,-0.381 V 95.96777 h -0.623711 z" />
    </g>
    <g
       style="font-style:normal;font-variant:normal;font-weight:normal;font-stretch:normal;font-size:3.52778px;line-height:1.25;font-family:Quarca;-inkscape-font-specification:Quarca;text-align:center;letter-spacing:0px;word-spacing:0px;text-anchor:middle;fill:#dddddd;fill-opacity:1;stroke:none;stroke-width:0.264583"
       id="text307"
       aria-label="CLOSED">
      <path
         id="path6364"
         style="font-style:normal;font-variant:normal;font-weight:normal;font-stretch:normal;font-size:2.82222px;font-family:Quarca;-inkscape-font-specification:Quarca;fill:#dddddd;fill-opacity:1;stroke-width:0.264583"
         d="m 47.925993,96.783391 c -0.1778,0 -0.242711,-0.08467 -0.242711,-0.262466 v -1.174044 c 0,-0.1778 0.06491,-0.262466 0.242711,-0.262466 h 0.4572 c 0.1778,0 0.242711,0.08467 0.242711,0.262466 v 0.183444 h 0.160866 v -0.208844 c 0,-0.259644 -0.09878,-0.389466 -0.386644,-0.389466 H 47.90906 c -0.287867,0 -0.386644,0.129822 -0.386644,0.389466 v 1.224844 c 0,0.259644 0.09878,0.389466 0.386644,0.389466 h 0.491066 c 0.287867,0 0.386644,-0.129822 0.386644,-0.389466 v -0.214489 h -0.160866 v 0.189089 c 0,0.1778 -0.06491,0.262466 -0.242711,0.262466 z" />
      <path
         id="path6366"
         style="font-style:normal;font-variant:normal;font-weight:normal;font-stretch:normal;font-size:2.82222px;font-family:Quarca;-inkscape-font-specification:Quarca;fill:#dddddd;fill-opacity:1;stroke-width:0.264583"
         d="m 49.260021,94.932015 h -0.160866 v 2.003776 h 1.027288 l 0.02258,-0.1524 h -0.889 z" />
      <path
         id="path6368"
         style="font-style:normal;font-variant:normal;font-weight:normal;font-stretch:normal;font-size:2.82222px;font-family:Quarca;-inkscape-font-specification:Quarca;fill:#dddddd;fill-opacity:1;stroke-width:0.264583"
         d="m 50.35566,96.546325 c 0,0.259644 0.09878,0.389466 0.386644,0.389466 h 0.536222 c 0.287866,0 0.386644,-0.129822 0.386644,-0.389466 v -1.224844 c 0,-0.259644 -0.09878,-0.389466 -0.386644,-0.389466 h -0.536222 c -0.287866,0 -0.386644,0.129822 -0.386644,0.389466 z m 0.403578,-1.46191 h 0.502355 c 0.180622,0 0.242711,0.08467 0.242711,0.262466 v 1.174044 c 0,0.1778 -0.06209,0.262466 -0.242711,0.262466 h -0.502355 c -0.1778,0 -0.242711,-0.08467 -0.242711,-0.262466 v -1.174044 c 0,-0.1778 0.06491,-0.262466 0.242711,-0.262466 z" />
      <path
         id="path6370"
         style="font-style:normal;font-variant:normal;font-weight:normal;font-stretch:normal;font-size:2.82222px;font-family:Quarca;-inkscape-font-specification:Quarca;fill:#dddddd;fill-opacity:1;stroke-width:0.264583"
         d="m 52.841595,96.103236 c 0.141111,0.05927 0.1778,0.107244 0.1778,0.245533 v 0.194733 c 0,0.169334 -0.07056,0.239889 -0.231422,0.239889 h -0.426155 c -0.160867,0 -0.234245,-0.07055 -0.234245,-0.239889 v -0.211666 h -0.160866 v 0.251178 c 0,0.234244 0.110066,0.352777 0.369711,0.352777 h 0.49671 c 0.234245,0 0.349956,-0.118533 0.349956,-0.352777 v -0.276578 c 0,-0.200378 -0.0762,-0.270933 -0.282222,-0.361244 l -0.578555,-0.245533 c -0.132645,-0.05644 -0.166511,-0.110067 -0.166511,-0.234245 v -0.124177 c 0,-0.191911 0.06209,-0.256822 0.242711,-0.256822 h 0.352777 c 0.160867,0 0.239889,0.07338 0.239889,0.248355 v 0.189089 h 0.163689 v -0.2286 c 0,-0.254 -0.121356,-0.361244 -0.381,-0.361244 h -0.417689 c -0.248355,0 -0.361244,0.110066 -0.361244,0.361244 v 0.197555 c 0,0.2032 0.06773,0.276578 0.2794,0.369711 z" />
      <path
         id="path6372"
         style="font-style:normal;font-variant:normal;font-weight:normal;font-stretch:normal;font-size:2.82222px;font-family:Quarca;-inkscape-font-specification:Quarca;fill:#dddddd;fill-opacity:1;stroke-width:0.264583"
         d="m 53.664228,95.084415 h 0.905933 l 0.02258,-0.1524 h -1.089376 v 2.003776 h 1.072443 l 0.02258,-0.1524 h -0.934155 v -0.612422 h 0.759177 l 0.02258,-0.149577 h -0.781755 z" />
      <path
         id="path6374"
         style="font-style:normal;font-variant:normal;font-weight:normal;font-stretch:normal;font-size:2.82222px;font-family:Quarca;-inkscape-font-specification:Quarca;fill:#dddddd;fill-opacity:1;stroke-width:0.264583"
         d="m 54.85935,96.935791 h 0.784577 c 0.352778,0 0.496711,-0.155222 0.496711,-0.474133 v -1.05551 c 0,-0.318911 -0.143933,-0.474133 -0.496711,-0.474133 H 54.85935 Z m 0.776111,-0.1524 h -0.615244 v -1.698976 h 0.615244 c 0.245533,0 0.34431,0.110066 0.34431,0.355599 v 0.987777 c 0,0.245534 -0.09878,0.3556 -0.34431,0.3556 z" />
    </g>
    <g
       style="font-style:normal;font-variant:normal;font-weight:bold;font-stretch:normal;font-size:3.52778px;line-height:1.25;font-family:Consolas;-inkscape-font-specification:'Consolas Bold';text-align:center;letter-spacing:0px;word-spacing:0px;text-anchor:middle;fill:#ffffff;fill-opacity:1;stroke:none;stroke-width:0.264583"
       id="text373" />
    <g
       style="font-style:normal;font-variant:normal;font-weight:bold;font-stretch:normal;font-size:13.3333px;line-height:1.25;font-family:Consolas;-inkscape-font-specification:'Consolas Bold';text-align:center;letter-spacing:0px;word-spacing:0px;text-anchor:middle;fill:#ffffff;fill-opacity:1;stroke:none"
       id="flowRoot250" />
    <g
       style="font-style:normal;font-variant:normal;font-weight:bold;font-stretch:normal;font-size:3.52778px;line-height:1.25;font-family:Consolas;-inkscape-font-specification:'Consolas Bold';text-align:center;letter-spacing:0px;word-spacing:0px;text-anchor:middle;fill:#ffffff;fill-opacity:1;stroke:none;stroke-width:0.264583"
       id="text6637" />
    <g
       style="font-style:normal;font-variant:normal;font-weight:bold;font-stretch:normal;font-size:13.3333px;line-height:1.25;font-family:Consolas;-inkscape-font-specification:'Consolas Bold';text-align:center;letter-spacing:0px;word-spacing:0px;text-anchor:middle;fill:#ffffff;fill-opacity:1;stroke:none"
       id="flowRoot1051" />
    <path
       d="m 45.595966,133.60048 h 10.321526 v 8.20486 H 45.595966 Z"
       style="opacity:0.981;fill:#0e365d;fill-opacity:1;stroke:#000000;stroke-width:0.264583;stroke-miterlimit:4;stroke-dasharray:none;stroke-opacity:1"
       id="rect22843" />
    <g
       style="font-style:normal;font-variant:normal;font-weight:bold;font-stretch:normal;font-size:3.52778px;line-height:1.25;font-family:Quarca;-inkscape-font-specification:Quarca;text-align:center;letter-spacing:0px;word-spacing:0px;text-anchor:middle;fill:#dddddd;fill-opacity:1;stroke:none;stroke-width:0.264583"
       id="text307-7"
       aria-label="OUT">
      <path
         id="path6352"
         style="font-style:normal;font-variant:normal;font-weight:normal;font-stretch:normal;font-size:2.82222px;font-family:Quarca;-inkscape-font-specification:Quarca;fill:#dddddd;fill-opacity:1;stroke-width:0.264583"
         d="m 48.823289,135.96654 c 0,0.25964 0.09878,0.38946 0.386644,0.38946 h 0.536222 c 0.287866,0 0.386644,-0.12982 0.386644,-0.38946 v -1.22485 c 0,-0.25964 -0.09878,-0.38946 -0.386644,-0.38946 h -0.536222 c -0.287866,0 -0.386644,0.12982 -0.386644,0.38946 z m 0.403577,-1.46191 h 0.502356 c 0.180622,0 0.24271,0.0847 0.24271,0.26246 v 1.17405 c 0,0.1778 -0.06209,0.26246 -0.24271,0.26246 h -0.502356 c -0.1778,0 -0.242711,-0.0847 -0.242711,-0.26246 v -1.17405 c 0,-0.1778 0.06491,-0.26246 0.242711,-0.26246 z" />
      <path
         id="path6354"
         style="font-style:normal;font-variant:normal;font-weight:normal;font-stretch:normal;font-size:2.82222px;font-family:Quarca;-inkscape-font-specification:Quarca;fill:#dddddd;fill-opacity:1;stroke-width:0.264583"
         d="m 51.295113,136.2036 h -0.361244 c -0.194734,0 -0.2794,-0.0903 -0.2794,-0.29633 v -1.55504 h -0.160867 v 1.6002 c 0,0.26811 0.124178,0.40357 0.4064,0.40357 h 0.428977 c 0.282222,0 0.4064,-0.13546 0.4064,-0.40357 v -1.6002 H 51.57169 v 1.55504 c 0,0.20602 -0.08184,0.29633 -0.276577,0.29633 z" />
      <path
         id="path6356"
         style="font-style:normal;font-variant:normal;font-weight:normal;font-stretch:normal;font-size:2.82222px;font-family:Quarca;-inkscape-font-specification:Quarca;fill:#dddddd;fill-opacity:1;stroke-width:0.264583"
         d="m 53.138904,134.50463 v -0.1524 H 51.95075 v 0.1524 h 0.513644 v 1.85137 h 0.163688 v -1.85137 z" />
    </g>
    <g
       style="font-style:normal;font-variant:normal;font-weight:normal;font-stretch:normal;font-size:3.52778px;line-height:1.25;font-family:Quarca;-inkscape-font-specification:Quarca;text-align:center;letter-spacing:0px;word-spacing:0px;text-anchor:middle;fill:#dddddd;fill-opacity:1;stroke:none;stroke-width:0.264583"
       id="text303-0"
       aria-label="FM">
      <path
         id="path6347"
         style="font-style:normal;font-variant:normal;font-weight:normal;font-stretch:normal;font-size:2.82222px;font-family:Quarca;-inkscape-font-specification:Quarca;fill:#dddddd;fill-opacity:1;stroke-width:0.264583"
         d="m 59.797271,76.05202 h 0.897466 l 0.02258,-0.1524 h -1.08091 v 2.003777 h 0.160866 v -0.764822 h 0.7112 l 0.02258,-0.149578 h -0.733778 z" />
      <path
         id="path6349"
         style="font-style:normal;font-variant:normal;font-weight:normal;font-stretch:normal;font-size:2.82222px;font-family:Quarca;-inkscape-font-specification:Quarca;fill:#dddddd;fill-opacity:1;stroke-width:0.264583"
         d="m 61.114543,77.903397 v -1.744132 l 0.499532,0.976488 h 0.158045 l 0.502355,-0.976488 v 1.744132 h 0.155222 V 75.89962 H 62.237786 L 61.693098,76.963597 61.151231,75.89962 H 60.95932 v 2.003777 z" />
    </g>
    <g
       style="font-style:normal;font-variant:normal;font-weight:normal;font-stretch:normal;font-size:3.52778px;line-height:1.25;font-family:Quarca;-inkscape-font-specification:Quarca;text-align:center;letter-spacing:0px;word-spacing:0px;text-anchor:middle;fill:#dddddd;fill-opacity:1;stroke:none;stroke-width:0.264583"
       id="text303-0-2"
       aria-label="1V/OCT">
      <path
         id="path6334"
         style="font-style:normal;font-variant:normal;font-weight:normal;font-stretch:normal;font-size:2.82222px;font-family:Quarca;-inkscape-font-specification:Quarca;fill:#dddddd;fill-opacity:1;stroke-width:0.264583"
         d="m 40.292261,77.885918 h 0.160867 v -2.003777 h -0.143933 l -0.262467,0.186267 v 0.169333 l 0.245533,-0.1778 z" />
      <path
         id="path6336"
         style="font-style:normal;font-variant:normal;font-weight:normal;font-stretch:normal;font-size:2.82222px;font-family:Quarca;-inkscape-font-specification:Quarca;fill:#dddddd;fill-opacity:1;stroke-width:0.264583"
         d="m 41.508903,77.885918 0.570088,-2.003777 h -0.172155 l -0.468489,1.696155 c -0.0085,0.03951 -0.01693,0.08184 -0.01976,0.118533 -0.0056,-0.03669 -0.01129,-0.07902 -0.02258,-0.118533 L 40.927525,75.882141 H 40.75537 l 0.572911,2.003777 z" />
      <path
         id="path6338"
         style="font-style:normal;font-variant:normal;font-weight:normal;font-stretch:normal;font-size:2.82222px;font-family:Quarca;-inkscape-font-specification:Quarca;fill:#dddddd;fill-opacity:1;stroke-width:0.264583"
         d="m 42.830319,75.789008 -0.824088,2.190043 h 0.166511 l 0.821266,-2.190043 z" />
      <path
         id="path6340"
         style="font-style:normal;font-variant:normal;font-weight:normal;font-stretch:normal;font-size:2.82222px;font-family:Quarca;-inkscape-font-specification:Quarca;fill:#dddddd;fill-opacity:1;stroke-width:0.264583"
         d="m 43.216302,77.496451 c 0,0.259645 0.09878,0.389467 0.386644,0.389467 h 0.536222 c 0.287866,0 0.386644,-0.129822 0.386644,-0.389467 v -1.224843 c 0,-0.259644 -0.09878,-0.389467 -0.386644,-0.389467 h -0.536222 c -0.287867,0 -0.386644,0.129823 -0.386644,0.389467 z m 0.403577,-1.46191 h 0.502355 c 0.180623,0 0.242711,0.08467 0.242711,0.262467 v 1.174043 c 0,0.1778 -0.06209,0.262467 -0.242711,0.262467 h -0.502355 c -0.1778,0 -0.242711,-0.08467 -0.242711,-0.262467 v -1.174043 c 0,-0.1778 0.06491,-0.262467 0.242711,-0.262467 z" />
      <path
         id="path6342"
         style="font-style:normal;font-variant:normal;font-weight:normal;font-stretch:normal;font-size:2.82222px;font-family:Quarca;-inkscape-font-specification:Quarca;fill:#dddddd;fill-opacity:1;stroke-width:0.264583"
         d="m 45.284548,77.733518 c -0.1778,0 -0.242711,-0.08467 -0.242711,-0.262467 v -1.174043 c 0,-0.1778 0.06491,-0.262467 0.242711,-0.262467 h 0.457199 c 0.1778,0 0.242711,0.08467 0.242711,0.262467 v 0.183444 h 0.160867 v -0.208844 c 0,-0.259644 -0.09878,-0.389467 -0.386644,-0.389467 h -0.491066 c -0.287867,0 -0.386645,0.129823 -0.386645,0.389467 v 1.224843 c 0,0.259645 0.09878,0.389467 0.386645,0.389467 h 0.491066 c 0.287866,0 0.386644,-0.129822 0.386644,-0.389467 v -0.214488 h -0.160867 v 0.189088 c 0,0.1778 -0.06491,0.262467 -0.242711,0.262467 z" />
      <path
         id="path6344"
         style="font-style:normal;font-variant:normal;font-weight:normal;font-stretch:normal;font-size:2.82222px;font-family:Quarca;-inkscape-font-specification:Quarca;fill:#dddddd;fill-opacity:1;stroke-width:0.264583"
         d="m 47.48782,76.034541 v -0.1524 h -1.188154 v 0.1524 h 0.513644 v 1.851377 h 0.163688 v -1.851377 z" />
    </g>
    <g
       style="font-style:normal;font-variant:normal;font-weight:normal;font-stretch:normal;font-size:3.52778px;line-height:1.25;font-family:Quarca;-inkscape-font-specification:Quarca;text-align:center;letter-spacing:0px;word-spacing:0px;text-anchor:middle;fill:#dddddd;fill-opacity:1;stroke:none;stroke-width:0.264583"
       id="text307-8"
       aria-label="NOISE">
      <path
         id="path6323"
         style="font-style:normal;font-variant:normal;font-weight:normal;font-stretch:normal;font-size:2.82222px;font-family:Quarca;-inkscape-font-specification:Quarca;fill:#dddddd;fill-opacity:1;stroke-width:0.264583"
         d="m 58.135889,96.935913 v -1.724376 c 0.04233,0.09313 0.07902,0.186266 0.146755,0.301977 l 0.824088,1.422399 h 0.163689 v -2.003776 h -0.163689 v 1.721554 c -0.03104,-0.07338 -0.05927,-0.143933 -0.112889,-0.237066 l -0.857954,-1.484488 h -0.160867 v 2.003776 z" />
      <path
         id="path6325"
         style="font-style:normal;font-variant:normal;font-weight:normal;font-stretch:normal;font-size:2.82222px;font-family:Quarca;-inkscape-font-specification:Quarca;fill:#dddddd;fill-opacity:1;stroke-width:0.264583"
         d="m 59.639426,96.546447 c 0,0.259644 0.09878,0.389466 0.386644,0.389466 h 0.536222 c 0.287867,0 0.386644,-0.129822 0.386644,-0.389466 v -1.224844 c 0,-0.259644 -0.09878,-0.389466 -0.386644,-0.389466 H 60.02607 c -0.287866,0 -0.386644,0.129822 -0.386644,0.389466 z m 0.403578,-1.46191 h 0.502355 c 0.180622,0 0.242711,0.08467 0.242711,0.262466 v 1.174044 c 0,0.1778 -0.06209,0.262466 -0.242711,0.262466 h -0.502355 c -0.1778,0 -0.242711,-0.08467 -0.242711,-0.262466 v -1.174044 c 0,-0.1778 0.06491,-0.262466 0.242711,-0.262466 z" />
      <path
         id="path6327"
         style="font-style:normal;font-variant:normal;font-weight:normal;font-stretch:normal;font-size:2.82222px;font-family:Quarca;-inkscape-font-specification:Quarca;fill:#dddddd;fill-opacity:1;stroke-width:0.264583"
         d="m 61.476251,96.935913 v -2.003776 h -0.160867 v 2.003776 z" />
      <path
         id="path6329"
         style="font-style:normal;font-variant:normal;font-weight:normal;font-stretch:normal;font-size:2.82222px;font-family:Quarca;-inkscape-font-specification:Quarca;fill:#dddddd;fill-opacity:1;stroke-width:0.264583"
         d="m 62.665552,96.103358 c 0.141111,0.05927 0.1778,0.107245 0.1778,0.245533 v 0.194733 c 0,0.169334 -0.07056,0.239889 -0.231422,0.239889 h -0.426155 c -0.160867,0 -0.234245,-0.07055 -0.234245,-0.239889 v -0.211666 h -0.160866 v 0.251178 c 0,0.234244 0.110066,0.352777 0.369711,0.352777 h 0.49671 c 0.234245,0 0.349956,-0.118533 0.349956,-0.352777 v -0.276578 c 0,-0.200378 -0.0762,-0.270933 -0.282222,-0.361244 l -0.578556,-0.245533 c -0.132644,-0.05644 -0.166511,-0.110067 -0.166511,-0.234245 v -0.124177 c 0,-0.191911 0.06209,-0.256822 0.242711,-0.256822 h 0.352778 c 0.160866,0 0.239889,0.07338 0.239889,0.248355 v 0.189089 h 0.163688 v -0.2286 c 0,-0.254 -0.121355,-0.361244 -0.380999,-0.361244 H 62.18013 c -0.248355,0 -0.361244,0.110066 -0.361244,0.361244 v 0.197555 c 0,0.2032 0.06773,0.276578 0.2794,0.369711 z" />
      <path
         id="path6331"
         style="font-style:normal;font-variant:normal;font-weight:normal;font-stretch:normal;font-size:2.82222px;font-family:Quarca;-inkscape-font-specification:Quarca;fill:#dddddd;fill-opacity:1;stroke-width:0.264583"
         d="m 63.488185,95.084537 h 0.905933 l 0.02258,-0.1524 h -1.089377 v 2.003776 h 1.072444 l 0.02258,-0.1524 h -0.934155 v -0.612422 h 0.759177 l 0.02258,-0.149577 h -0.781755 z" />
    </g>
    <g
       style="font-style:normal;font-variant:normal;font-weight:normal;font-stretch:normal;font-size:3.52778px;line-height:1.25;font-family:Quarca;-inkscape-font-specification:Quarca;text-align:center;letter-spacing:0px;word-spacing:0px;text-anchor:middle;fill:#dddddd;fill-opacity:1;stroke:none;stroke-width:0.264583"
       id="text136-3"
       aria-label="GLOTTAL STOPPER">
      <path
         id="path6294"
         style="font-style:normal;font-variant:normal;font-weight:normal;font-stretch:normal;font-size:3.88056px;font-family:Quarca;-inkscape-font-specification:Quarca;fill:#dddddd;fill-opacity:1;stroke-width:0.264583"
         d="m 38.060538,57.173978 h 0.663576 v 0.578203 c 0,0.225073 -0.09313,0.333729 -0.341489,0.333729 h -0.613129 c -0.228953,0 -0.337608,-0.104776 -0.337608,-0.353131 v -1.602672 c 0,-0.263878 0.08925,-0.380295 0.318205,-0.380295 h 0.663576 c 0.228953,0 0.329848,0.104776 0.329848,0.353131 v 0.248356 h 0.221192 v -0.314325 c 0,-0.34537 -0.170745,-0.496712 -0.500592,-0.496712 h -0.787754 c -0.310445,0 -0.465667,0.174625 -0.465667,0.523876 v 1.738491 c 0,0.34925 0.194028,0.492831 0.504472,0.492831 h 0.721785 c 0.384175,0 0.512234,-0.190148 0.512234,-0.523876 v -0.807156 h -0.857604 z" />
      <path
         id="path6296"
         style="font-style:normal;font-variant:normal;font-weight:normal;font-stretch:normal;font-size:3.88056px;font-family:Quarca;-inkscape-font-specification:Quarca;fill:#dddddd;fill-opacity:1;stroke-width:0.264583"
         d="m 39.645383,55.540262 h -0.221192 v 2.755198 h 1.412524 l 0.03104,-0.20955 h -1.222377 z" />
      <path
         id="path6298"
         style="font-style:normal;font-variant:normal;font-weight:normal;font-stretch:normal;font-size:3.88056px;font-family:Quarca;-inkscape-font-specification:Quarca;fill:#dddddd;fill-opacity:1;stroke-width:0.264583"
         d="m 41.151889,57.759942 c 0,0.357012 0.13582,0.535518 0.531637,0.535518 h 0.737307 c 0.395817,0 0.531636,-0.178506 0.531636,-0.535518 v -1.684163 c 0,-0.357011 -0.135819,-0.535517 -0.531636,-0.535517 h -0.737307 c -0.395817,0 -0.531637,0.178506 -0.531637,0.535517 z m 0.554921,-2.01013 h 0.690739 c 0.248356,0 0.333728,0.116417 0.333728,0.360893 v 1.614312 c 0,0.244476 -0.08537,0.360893 -0.333728,0.360893 H 41.70681 c -0.244476,0 -0.333729,-0.116417 -0.333729,-0.360893 v -1.614312 c 0,-0.244476 0.08925,-0.360893 0.333729,-0.360893 z" />
      <path
         id="path6300"
         style="font-style:normal;font-variant:normal;font-weight:normal;font-stretch:normal;font-size:3.88056px;font-family:Quarca;-inkscape-font-specification:Quarca;fill:#dddddd;fill-opacity:1;stroke-width:0.264583"
         d="m 44.87274,55.749812 v -0.20955 h -1.633716 v 0.20955 h 0.706262 v 2.545648 h 0.225073 v -2.545648 z" />
      <path
         id="path6302"
         style="font-style:normal;font-variant:normal;font-weight:normal;font-stretch:normal;font-size:3.88056px;font-family:Quarca;-inkscape-font-specification:Quarca;fill:#dddddd;fill-opacity:1;stroke-width:0.264583"
         d="m 46.593223,55.749812 v -0.20955 h -1.633716 v 0.20955 h 0.706262 v 2.545648 h 0.225073 v -2.545648 z" />
      <path
         id="path6304"
         style="font-style:normal;font-variant:normal;font-weight:normal;font-stretch:normal;font-size:3.88056px;font-family:Quarca;-inkscape-font-specification:Quarca;fill:#dddddd;fill-opacity:1;stroke-width:0.264583"
         d="m 47.314461,55.540262 -0.849843,2.755198 h 0.236714 l 0.178506,-0.597606 h 1.10984 l 0.178506,0.597606 h 0.236714 l -0.845962,-2.755198 z m 0.124178,0.294923 0.48895,1.653118 h -0.985662 z" />
      <path
         id="path6306"
         style="font-style:normal;font-variant:normal;font-weight:normal;font-stretch:normal;font-size:3.88056px;font-family:Quarca;-inkscape-font-specification:Quarca;fill:#dddddd;fill-opacity:1;stroke-width:0.264583"
         d="m 48.960242,55.540262 h -0.221191 v 2.755198 h 1.412523 l 0.03105,-0.20955 h -1.222377 z" />
      <path
         id="path6308"
         style="font-style:normal;font-variant:normal;font-weight:normal;font-stretch:normal;font-size:3.88056px;font-family:Quarca;-inkscape-font-specification:Quarca;fill:#dddddd;fill-opacity:1;stroke-width:0.264583"
         d="m 52.300859,57.150695 c 0.194028,0.08149 0.244475,0.147461 0.244475,0.337608 v 0.267759 c 0,0.232834 -0.09701,0.329848 -0.318206,0.329848 h -0.585964 c -0.221192,0 -0.322087,-0.09701 -0.322087,-0.329848 V 57.46502 h -0.221192 v 0.34537 c 0,0.322086 0.151342,0.48507 0.508354,0.48507 h 0.682978 c 0.322087,0 0.48119,-0.162984 0.48119,-0.48507 v -0.380295 c 0,-0.27552 -0.104775,-0.372534 -0.388056,-0.496712 l -0.795515,-0.337608 c -0.182386,-0.07761 -0.228953,-0.151342 -0.228953,-0.322087 v -0.170745 c 0,-0.263878 0.08537,-0.353131 0.333728,-0.353131 h 0.48507 c 0.221192,0 0.329848,0.100895 0.329848,0.34149 v 0.259997 h 0.225072 v -0.314325 c 0,-0.349251 -0.166864,-0.496712 -0.523876,-0.496712 h -0.574322 c -0.34149,0 -0.496712,0.151342 -0.496712,0.496712 v 0.271639 c 0,0.2794 0.09313,0.380295 0.384175,0.508353 z" />
      <path
         id="path6310"
         style="font-style:normal;font-variant:normal;font-weight:normal;font-stretch:normal;font-size:3.88056px;font-family:Quarca;-inkscape-font-specification:Quarca;fill:#dddddd;fill-opacity:1;stroke-width:0.264583"
         d="m 54.627195,55.749812 v -0.20955 h -1.633716 v 0.20955 h 0.706262 v 2.545648 h 0.225072 v -2.545648 z" />
      <path
         id="path6312"
         style="font-style:normal;font-variant:normal;font-weight:normal;font-stretch:normal;font-size:3.88056px;font-family:Quarca;-inkscape-font-specification:Quarca;fill:#dddddd;fill-opacity:1;stroke-width:0.264583"
         d="m 54.915751,57.759942 c 0,0.357012 0.135819,0.535518 0.531637,0.535518 h 0.737306 c 0.395817,0 0.531637,-0.178506 0.531637,-0.535518 v -1.684163 c 0,-0.357011 -0.13582,-0.535517 -0.531637,-0.535517 h -0.737306 c -0.395818,0 -0.531637,0.178506 -0.531637,0.535517 z m 0.55492,-2.01013 h 0.69074 c 0.248355,0 0.333728,0.116417 0.333728,0.360893 v 1.614312 c 0,0.244476 -0.08537,0.360893 -0.333728,0.360893 h -0.69074 c -0.244475,0 -0.333728,-0.116417 -0.333728,-0.360893 v -1.614312 c 0,-0.244476 0.08925,-0.360893 0.333728,-0.360893 z" />
      <path
         id="path6314"
         style="font-style:normal;font-variant:normal;font-weight:normal;font-stretch:normal;font-size:3.88056px;font-family:Quarca;-inkscape-font-specification:Quarca;fill:#dddddd;fill-opacity:1;stroke-width:0.264583"
         d="m 57.441388,57.162336 h 0.869246 c 0.34537,0 0.523875,-0.174625 0.523875,-0.519995 v -0.582084 c 0,-0.34537 -0.178505,-0.519995 -0.523875,-0.519995 h -1.090438 v 2.755198 h 0.221192 z m 0,-1.412524 h 0.838201 c 0.225073,0 0.329848,0.104776 0.329848,0.353131 v 0.496712 c 0,0.248356 -0.104775,0.353131 -0.329848,0.353131 h -0.838201 z" />
      <path
         id="path6316"
         style="font-style:normal;font-variant:normal;font-weight:normal;font-stretch:normal;font-size:3.88056px;font-family:Quarca;-inkscape-font-specification:Quarca;fill:#dddddd;fill-opacity:1;stroke-width:0.264583"
         d="m 59.465039,57.162336 h 0.869246 c 0.34537,0 0.523875,-0.174625 0.523875,-0.519995 v -0.582084 c 0,-0.34537 -0.178505,-0.519995 -0.523875,-0.519995 h -1.090437 v 2.755198 h 0.221191 z m 0,-1.412524 h 0.838201 c 0.225073,0 0.329848,0.104776 0.329848,0.353131 v 0.496712 c 0,0.248356 -0.104775,0.353131 -0.329848,0.353131 h -0.838201 z" />
      <path
         id="path6318"
         style="font-style:normal;font-variant:normal;font-weight:normal;font-stretch:normal;font-size:3.88056px;font-family:Quarca;-inkscape-font-specification:Quarca;fill:#dddddd;fill-opacity:1;stroke-width:0.264583"
         d="m 61.488691,55.749812 h 1.245659 l 0.03104,-0.20955 h -1.497896 v 2.755198 h 1.474612 l 0.03104,-0.20955 h -1.284465 v -0.842082 h 1.04387 l 0.03104,-0.20567 h -1.074915 z" />
      <path
         id="path6320"
         style="font-style:normal;font-variant:normal;font-weight:normal;font-stretch:normal;font-size:3.88056px;font-family:Quarca;-inkscape-font-specification:Quarca;fill:#dddddd;fill-opacity:1;stroke-width:0.264583"
         d="m 63.131987,58.29546 h 0.221192 V 57.1895 h 0.508354 l 0.772231,1.10596 h 0.259997 L 64.117649,57.1895 h 0.05433 c 0.368653,0 0.547159,-0.174625 0.547159,-0.523875 v -0.601487 c 0,-0.349251 -0.178506,-0.523876 -0.547159,-0.523876 h -1.03999 z m 0.221192,-2.545648 h 0.779993 c 0.248356,0 0.360892,0.116417 0.360892,0.380295 v 0.469548 c 0,0.267759 -0.112536,0.384175 -0.360892,0.384175 h -0.779993 z" />
    </g>
    <g
       transform="matrix(0.8830805,0,0,0.8830805,3.3470599,20.502525)"
       id="text271"
       style="font-style:normal;font-weight:normal;font-size:3.52777767px;line-height:1.25;font-family:sans-serif;letter-spacing:0px;word-spacing:0px;fill:#00a3f2;fill-opacity:1;stroke:none;stroke-width:0.26458332"
       aria-label="Frozen Wasteland">
      <g
         transform="translate(-1.5875001)"
         id="text3885-7"
         style="font-style:normal;font-variant:normal;font-weight:bold;font-stretch:normal;font-size:3.52777767px;line-height:1.25;font-family:Consolas;-inkscape-font-specification:'Consolas Bold';text-align:start;letter-spacing:0px;word-spacing:0px;text-anchor:start;fill:#00a3f2;fill-opacity:1;stroke:none;stroke-width:0.26458332"
         aria-label="FROZEN WASTELAND">
        <path
           inkscape:connector-curvature="0"
           id="path20360"
           style="font-style:normal;font-variant:normal;font-weight:normal;font-stretch:normal;font-family:'Bradley Gratis';-inkscape-font-specification:'Bradley Gratis';text-align:start;text-anchor:start;fill:#00a3f2;fill-opacity:1;stroke-width:0.26458332"
           d="m 41.150231,146.65677 q 0.119944,-0.11994 0.1905,-0.21166 0.07408,-0.0917 0.112889,-0.16934 0.04233,-0.0776 0.05292,-0.14464 0.01411,-0.0706 0.01411,-0.14816 0,-0.0952 -0.04586,-0.22931 -0.04586,-0.13405 -0.102306,-0.28575 -0.05644,-0.15169 -0.102306,-0.31044 -0.04586,-0.15875 -0.04586,-0.30339 0,-0.0776 0.0247,-0.1517 0.02822,-0.0741 0.06703,-0.14111 0.04233,-0.0705 0.09172,-0.13053 0.04939,-0.0635 0.09878,-0.11288 -0.07056,-0.0141 -0.123473,-0.0212 -0.05292,-0.0106 -0.07761,-0.0106 -0.130528,0 -0.22225,0.0705 -0.08819,0.067 -0.1905,0.16933 0,-0.11994 0.03528,-0.24694 0.03881,-0.13053 0.116417,-0.23636 0.07761,-0.10583 0.194027,-0.17286 0.119945,-0.067 0.282223,-0.067 0.112889,0 0.208139,0.0176 0.09878,0.0141 0.179916,0.0353 0.08114,0.0212 0.148167,0.0388 0.06703,0.0141 0.119944,0.0141 0.08114,0 0.141111,-0.0212 0.0635,-0.0247 0.123473,-0.0847 0,0.0776 -0.03175,0.17639 -0.02822,0.0988 -0.08819,0.1905 -0.05644,0.0882 -0.148167,0.15169 -0.09172,0.06 -0.211666,0.06 -0.05997,0 -0.137584,-0.007 -0.07408,-0.0106 -0.155222,-0.0247 -0.0071,0.0247 -0.01058,0.0459 -0.0035,0.0212 -0.0071,0.0388 -0.0035,0.0212 -0.0035,0.0388 0,0.0776 0.01058,0.15169 0.01411,0.0706 0.03881,0.14464 h 0.712611 l -0.08114,0.23989 q -0.01058,0.0459 -0.01411,0.067 -0.0035,0.0212 -0.01058,0.067 l -0.130528,-0.0917 h -0.363361 q 0.07761,0.17639 0.144639,0.35984 0.06703,0.17991 0.06703,0.38452 0,0.18345 -0.07408,0.3422 -0.07408,0.15522 -0.197556,0.27164 -0.119944,0.11641 -0.278694,0.17991 -0.155222,0.067 -0.321028,0.067 z" />
        <path
           inkscape:connector-curvature="0"
           id="path20362"
           style="font-style:normal;font-variant:normal;font-weight:normal;font-stretch:normal;font-family:'Bradley Gratis';-inkscape-font-specification:'Bradley Gratis';text-align:start;text-anchor:start;fill:#00a3f2;fill-opacity:1;stroke-width:0.26458332"
           d="m 43.22032,144.92816 q 0.07055,-0.0423 0.137583,-0.0988 0.07056,-0.0564 0.123472,-0.127 0.05645,-0.0705 0.08819,-0.16227 0.03528,-0.0952 0.03528,-0.21167 0,-0.0988 -0.03881,-0.16581 -0.03528,-0.0705 -0.08467,-0.11289 -0.04939,-0.0423 -0.09878,-0.06 -0.04586,-0.0176 -0.07056,-0.0176 -0.02822,0 -0.05292,0.0106 -0.02117,0.0106 -0.0388,0.0247 z m -0.518583,-0.94192 q -0.112889,-0.0635 -0.112889,-0.23636 0.03175,0.0318 0.112889,0.0565 0.08114,0.0212 0.172861,0.0212 0.04586,0 0.130527,-0.0106 0.08467,-0.0141 0.172862,-0.0282 0.09172,-0.0141 0.172861,-0.0247 0.08467,-0.0141 0.130527,-0.0141 0.116417,0 0.232834,0.0353 0.116416,0.0353 0.215194,0.11995 0.09878,0.0847 0.165806,0.2293 0.07056,0.14111 0.09172,0.35983 l -0.627944,0.4445 q 0.07055,0.0282 0.15875,0.0952 0.08819,0.067 0.165805,0.18698 0.08114,0.11994 0.134056,0.30691 0.05292,0.18345 0.05292,0.45156 0,0.23283 0.02117,0.37747 0.02117,0.14464 0.05292,0.23283 0.03175,0.0882 0.06703,0.13053 0.03881,0.0459 0.07056,0.0776 -0.155222,0 -0.275167,-0.0917 -0.119944,-0.0882 -0.211666,-0.23283 -0.09172,-0.14464 -0.162278,-0.32809 -0.06703,-0.18344 -0.123472,-0.37041 -0.05644,-0.18697 -0.105834,-0.35984 -0.04586,-0.17286 -0.09525,-0.29986 -0.02469,0.0176 -0.04939,0.0353 -0.02117,0.0141 -0.0388,0.0318 v 1.31939 h -0.518583 z" />
        <path
           inkscape:connector-curvature="0"
           id="path20364"
           style="font-style:normal;font-variant:normal;font-weight:normal;font-stretch:normal;font-family:'Bradley Gratis';-inkscape-font-specification:'Bradley Gratis';text-align:start;text-anchor:start;fill:#00a3f2;fill-opacity:1;stroke-width:0.26458332"
           d="m 45.108067,146.03588 q 0,0.11995 0.01411,0.18698 0.01764,0.067 0.04233,0.1023 0.02822,0.0317 0.0635,0.0388 0.03528,0.007 0.07056,0.007 0.07055,0 0.116416,-0.0952 0.04586,-0.0988 0.04586,-0.29986 v -1.53105 q 0,-0.15875 -0.01764,-0.25753 -0.01411,-0.10231 -0.04233,-0.15522 -0.02469,-0.0564 -0.05997,-0.0776 -0.03175,-0.0212 -0.0635,-0.0212 -0.06703,0 -0.119944,0.0847 -0.04939,0.0811 -0.04939,0.26106 z m 1.005416,-0.88547 q 0,0.25753 -0.06703,0.508 -0.0635,0.25047 -0.176389,0.44803 -0.109361,0.19755 -0.261056,0.32103 -0.151694,0.11994 -0.321028,0.11994 -0.15875,0 -0.310444,-0.10936 -0.148167,-0.10936 -0.264583,-0.29986 -0.112889,-0.1905 -0.183445,-0.4445 -0.07055,-0.254 -0.07055,-0.54328 0,-0.23636 0.0635,-0.4833 0.06703,-0.25048 0.179916,-0.45156 0.112889,-0.20108 0.264584,-0.32808 0.151694,-0.13053 0.321027,-0.13053 0.148167,0 0.292806,0.10936 0.148167,0.10936 0.264583,0.29986 0.119945,0.18697 0.194028,0.44097 0.07408,0.254 0.07408,0.54328 z" />
        <path
           inkscape:connector-curvature="0"
           id="path20366"
           style="font-style:normal;font-variant:normal;font-weight:normal;font-stretch:normal;font-family:'Bradley Gratis';-inkscape-font-specification:'Bradley Gratis';text-align:start;text-anchor:start;fill:#00a3f2;fill-opacity:1;stroke-width:0.26458332"
           d="m 46.267548,146.50861 q 0.04586,-0.27164 0.130528,-0.51153 0.08819,-0.23989 0.194028,-0.45861 0.105833,-0.21873 0.218722,-0.41628 0.116417,-0.20108 0.218722,-0.38806 0.102306,-0.18697 0.179917,-0.36336 0.07761,-0.17991 0.112889,-0.35983 -0.02822,-0.0176 -0.06703,-0.0318 -0.03528,-0.0141 -0.137583,-0.0141 -0.05292,0 -0.09525,0.0282 -0.03881,0.0247 -0.06703,0.0635 -0.02822,0.0353 -0.04586,0.0776 -0.01411,0.0388 -0.01411,0.0635 0,0.0282 0.01058,0.067 0.01411,0.0353 0.02822,0.0705 0.01764,0.0353 0.03528,0.067 0.01764,0.0282 0.03175,0.0423 l -0.430389,0.26811 q -0.08467,-0.0811 -0.144639,-0.19756 -0.05644,-0.11994 -0.05644,-0.23989 0,-0.06 0.03175,-0.14816 0.03175,-0.0882 0.102305,-0.16934 0.07056,-0.0847 0.183445,-0.14111 0.116416,-0.06 0.282222,-0.06 0.130528,0 0.218722,0.0176 0.08819,0.0176 0.155222,0.0423 0.06703,0.0212 0.123472,0.0388 0.05997,0.0176 0.134056,0.0176 0.04586,0 0.09878,-0.007 0.05292,-0.007 0.09878,-0.0212 0.04586,-0.0141 0.08114,-0.0282 0.03881,-0.0176 0.05997,-0.0388 -0.04233,0.22225 -0.134056,0.46213 -0.09172,0.23989 -0.204611,0.47978 -0.109361,0.23989 -0.232833,0.4692 -0.119945,0.2293 -0.22225,0.43039 -0.09878,0.19755 -0.169334,0.35983 -0.06703,0.15875 -0.07408,0.26105 0.141111,0.06 0.239889,0.06 0.0635,0 0.130528,-0.0141 0.06703,-0.0176 0.119944,-0.0529 0.05644,-0.0353 0.09172,-0.0882 0.03528,-0.0564 0.03528,-0.13405 0,-0.0776 -0.01764,-0.127 -0.01411,-0.0529 -0.03881,-0.0847 -0.0247,-0.0353 -0.05644,-0.06 -0.03175,-0.0282 -0.05997,-0.0564 l 0.405694,-0.29987 q 0.141112,0.10584 0.201084,0.22578 0.05997,0.11995 0.05997,0.26106 0,0.067 -0.02117,0.13053 -0.01764,0.06 -0.04586,0.11288 -0.02469,0.0494 -0.05997,0.0917 -0.03175,0.0423 -0.05644,0.067 l 0.05997,0.06 q 0.01764,0.0176 0.0388,0.0529 0.02117,0.0317 0.02117,0.0564 0,0.0282 -0.02469,0.0811 -0.02117,0.0564 -0.08819,0.0988 -0.02469,-0.0317 -0.05644,-0.0564 -0.02822,-0.0212 -0.05997,-0.0388 -0.03175,-0.0176 -0.06703,-0.0176 z" />
        <path
           inkscape:connector-curvature="0"
           id="path20368"
           style="font-style:normal;font-variant:normal;font-weight:normal;font-stretch:normal;font-family:'Bradley Gratis';-inkscape-font-specification:'Bradley Gratis';text-align:start;text-anchor:start;fill:#00a3f2;fill-opacity:1;stroke-width:0.26458332"
           d="m 49.773884,143.78163 v 0.381 q -0.03881,-0.0353 -0.102306,-0.0776 -0.05997,-0.0423 -0.130528,-0.0741 -0.06703,-0.0353 -0.134055,-0.0565 -0.06703,-0.0247 -0.112889,-0.0247 -0.08467,0 -0.172861,0.067 -0.08819,0.067 -0.144639,0.17991 -0.05644,0.10937 -0.07408,0.28928 -0.01411,0.17639 -0.01411,0.45509 h 0.903111 l -0.179916,0.40216 q -0.03528,-0.0529 -0.08467,-0.0705 -0.04586,-0.0212 -0.08467,-0.0212 H 48.88841 q 0,0.20108 0.0071,0.39511 0.0071,0.1905 0.04586,0.3422 0.04233,0.15169 0.127,0.24694 0.08467,0.0917 0.243417,0.0917 0.08467,0 0.165805,-0.0318 0.08467,-0.0317 0.155222,-0.0776 0.07056,-0.0494 0.123473,-0.1023 0.05644,-0.0529 0.08819,-0.0952 v 0.508 h -0.47625 q -0.342194,0 -0.553861,-0.11995 -0.211667,-0.12347 -0.331611,-0.32808 -0.116417,-0.20814 -0.15875,-0.47978 -0.03881,-0.27164 -0.03881,-0.56797 0,-0.0741 0.01058,-0.19403 0.01058,-0.12347 0.04586,-0.25753 0.03528,-0.13758 0.102305,-0.27516 0.06703,-0.14112 0.179917,-0.25048 0.116417,-0.11289 0.28575,-0.18344 0.169333,-0.0706 0.409222,-0.0706 z" />
        <path
           inkscape:connector-curvature="0"
           id="path20370"
           style="font-style:normal;font-variant:normal;font-weight:normal;font-stretch:normal;font-family:'Bradley Gratis';-inkscape-font-specification:'Bradley Gratis';text-align:start;text-anchor:start;fill:#00a3f2;fill-opacity:1;stroke-width:0.26458332"
           d="m 50.160286,146.50861 v -2.4377 q 0,-0.0988 -0.04233,-0.1658 -0.04233,-0.0706 -0.08467,-0.12348 h 0.684388 v 0.35984 l 0.391584,-0.45509 q 0.179916,0.16228 0.296333,0.32456 0.116417,0.15875 0.183445,0.32103 0.06703,0.15875 0.09172,0.32455 0.02469,0.16228 0.02469,0.33514 0,0.16933 -0.02822,0.32456 -0.02469,0.15169 -0.07408,0.29986 -0.04939,0.14816 -0.119945,0.29986 -0.06703,0.15169 -0.148166,0.3175 h 0.127 q 0.04586,0 0.09525,-0.0317 0.04939,-0.0318 0.09878,-0.0318 v 0.33867 h -0.684389 q 0.09525,-0.19403 0.151695,-0.34925 0.05997,-0.15523 0.09172,-0.29634 0.03175,-0.14111 0.04233,-0.27516 0.01058,-0.13406 0.01058,-0.28575 0,-0.1517 -0.05292,-0.31398 -0.04939,-0.1658 -0.123472,-0.30339 -0.07408,-0.13758 -0.15875,-0.22577 -0.08114,-0.0882 -0.148167,-0.0882 -0.04233,0 -0.06703,0.0212 v 2.11667 z" />
        <path
           inkscape:connector-curvature="0"
           id="path20372"
           style="font-style:normal;font-variant:normal;font-weight:normal;font-stretch:normal;font-family:'Bradley Gratis';-inkscape-font-specification:'Bradley Gratis';text-align:start;text-anchor:start;fill:#00a3f2;fill-opacity:1;stroke-width:0.26458332"
           d="m 53.398455,146.62502 q -0.1905,-0.13758 -0.324556,-0.2928 -0.134055,-0.15875 -0.215194,-0.32809 -0.08114,-0.16933 -0.119945,-0.34219 -0.03528,-0.17639 -0.03528,-0.34572 0,-0.16581 0.03528,-0.32809 0.03528,-0.1658 0.09172,-0.32455 0.05997,-0.16228 0.137584,-0.31397 0.07761,-0.15523 0.15875,-0.30339 h -0.02117 q -0.01058,0 -0.02469,0 -0.01058,-0.004 -0.02822,-0.004 -0.05644,0 -0.137583,0.0141 -0.07761,0.0141 -0.151694,0.0706 v -0.34573 h 0.740833 q -0.09172,0.15875 -0.15875,0.32103 -0.0635,0.15875 -0.105833,0.31045 -0.03881,0.14816 -0.05997,0.28222 -0.01764,0.13053 -0.01764,0.23636 0,0.10583 0.02117,0.254 0.02117,0.14817 0.07761,0.30692 0.05997,0.15522 0.15875,0.29633 0.102306,0.14111 0.264584,0.2293 l 0.105833,-0.0776 q -0.0635,-0.11994 -0.09878,-0.2293 -0.03528,-0.11289 -0.05292,-0.21167 -0.01411,-0.0988 -0.01764,-0.17992 -0.0035,-0.0847 -0.0035,-0.15169 0,-0.10936 0.02822,-0.24694 0.02822,-0.13759 0.08114,-0.28575 0.05292,-0.14817 0.127,-0.29987 0.07761,-0.15169 0.172861,-0.29633 -0.134055,0 -0.22225,0.0212 -0.08467,0.0212 -0.144639,0.06 v -0.33867 h 0.762 q -0.0635,0.0882 -0.127,0.20109 -0.05997,0.10936 -0.105833,0.23989 -0.04586,0.127 -0.07408,0.27163 -0.02822,0.14464 -0.02822,0.29634 0,0.25753 0.04586,0.45861 0.04586,0.19755 0.127,0.34925 0.08114,0.15169 0.1905,0.26105 0.109362,0.10937 0.232834,0.18698 v -2.26484 h 0.529166 v 2.1202 q 0,0.0247 -0.03528,0.0705 -0.03528,0.0423 -0.09172,0.0988 -0.05292,0.0565 -0.127,0.12347 -0.07055,0.0635 -0.144638,0.127 -0.176389,0.14817 -0.398639,0.32456 -0.172861,-0.13406 -0.296334,-0.26458 -0.123472,-0.13053 -0.211666,-0.254 z" />
        <path
           inkscape:connector-curvature="0"
           id="path20374"
           style="font-style:normal;font-variant:normal;font-weight:normal;font-stretch:normal;font-family:'Bradley Gratis';-inkscape-font-specification:'Bradley Gratis';text-align:start;text-anchor:start;fill:#00a3f2;fill-opacity:1;stroke-width:0.26458332"
           d="m 56.650514,144.81174 v -0.87841 h -0.416278 q -0.0035,0.23636 -0.01411,0.46919 -0.0071,0.22931 -0.01764,0.40922 z m 0.719667,-1.03011 q -0.03881,0.0282 -0.07408,0.0706 -0.03175,0.0423 -0.05645,0.0917 -0.02117,0.0459 -0.03528,0.0917 -0.01411,0.0423 -0.01411,0.0741 v 2.39889 h -0.53975 v -1.32998 h -0.472722 q -0.0035,0.127 -0.03528,0.2787 -0.03175,0.14816 -0.08819,0.29986 -0.05292,0.14817 -0.127,0.28928 -0.07056,0.13758 -0.162278,0.24341 -0.08819,0.10584 -0.1905,0.16934 -0.09878,0.0635 -0.208139,0.0635 -0.07055,0 -0.123472,-0.0423 -0.04939,-0.0423 -0.04939,-0.11994 0,-0.0494 0.03175,-0.0706 0.03175,-0.0247 0.06703,-0.0247 0.03175,0 0.04939,0.0106 0.01764,0.007 0.03175,0.0212 0.01764,0.0106 0.03881,0.0212 0.02117,0.007 0.05997,0.007 0.0635,0 0.102305,-0.0635 0.03881,-0.067 0.0635,-0.17639 0.0247,-0.11289 0.03528,-0.25753 0.01411,-0.14816 0.02117,-0.31044 0.0071,-0.16228 0.01764,-0.32808 0.01058,-0.16934 0.02822,-0.32456 0.02117,-0.18344 0.0635,-0.33514 0.04586,-0.15169 0.09525,-0.26811 0.04939,-0.11642 0.09878,-0.19755 0.04939,-0.0811 0.08467,-0.13053 h -0.07761 q -0.06703,0 -0.123472,0.0212 -0.05644,0.0176 -0.102306,0.0423 -0.04233,0.0212 -0.07761,0.0423 -0.03175,0.0176 -0.05644,0.0176 -0.05997,0 -0.08819,-0.0423 -0.02822,-0.0423 -0.02822,-0.0952 0,-0.0494 0.05292,-0.0917 0.05644,-0.0459 0.155222,-0.0459 z" />
        <path
           inkscape:connector-curvature="0"
           id="path20376"
           style="font-style:normal;font-variant:normal;font-weight:normal;font-stretch:normal;font-family:'Bradley Gratis';-inkscape-font-specification:'Bradley Gratis';text-align:start;text-anchor:start;fill:#00a3f2;fill-opacity:1;stroke-width:0.26458332"
           d="m 58.150372,146.63208 q -0.08114,-0.0811 -0.186973,-0.15875 -0.102305,-0.0776 -0.201083,-0.13759 -0.09525,-0.06 -0.169333,-0.1023 -0.07056,-0.0423 -0.08114,-0.0529 0.03528,-0.0423 0.08819,-0.11641 0.05292,-0.0776 0.102306,-0.1517 0.05292,-0.0741 0.09172,-0.13053 0.04233,-0.06 0.05292,-0.0705 0.04939,0.0317 0.134055,0.0882 0.08819,0.0529 0.172861,0.11289 0.08819,0.06 0.15875,0.10936 0.07056,0.0494 0.09172,0.0706 0.04939,-0.0282 0.08114,-0.0741 0.03528,-0.0459 0.03528,-0.14816 0,-0.0882 -0.07408,-0.18697 -0.07056,-0.0988 -0.176389,-0.20814 -0.105833,-0.10936 -0.232833,-0.22931 -0.127,-0.11994 -0.232834,-0.24694 -0.105833,-0.127 -0.179916,-0.25753 -0.07056,-0.13053 -0.07056,-0.26811 0,-0.0988 0.04939,-0.18345 0.05292,-0.0882 0.130528,-0.16227 0.07761,-0.0776 0.169333,-0.13759 0.09525,-0.0635 0.179917,-0.11641 0.08819,-0.0564 0.155222,-0.0988 0.06703,-0.0459 0.09525,-0.0811 0.02117,0.0176 0.09172,0.0882 0.07408,0.067 0.15875,0.14464 0.08467,0.0776 0.15875,0.13759 0.07761,0.06 0.102306,0.06 -0.03528,0.0282 -0.08819,0.0847 -0.04939,0.0529 -0.102305,0.11289 -0.04939,0.06 -0.09172,0.11642 -0.03881,0.0529 -0.05644,0.0811 -0.08114,-0.0353 -0.162278,-0.10583 -0.08114,-0.0706 -0.148166,-0.13759 -0.06703,-0.067 -0.112889,-0.11641 -0.04586,-0.0529 -0.05997,-0.0529 -0.02822,0 -0.04939,0.0317 -0.01764,0.0282 -0.01764,0.067 0,0.0847 0.07408,0.17991 0.07761,0.0952 0.186972,0.20461 0.112889,0.10584 0.243417,0.22578 0.134056,0.11642 0.243417,0.24342 0.112889,0.127 0.186972,0.26458 0.07761,0.13406 0.07761,0.27517 0,0.127 -0.09525,0.26811 -0.09525,0.14111 -0.229306,0.28222 -0.130527,0.13759 -0.268111,0.26459 -0.137583,0.12347 -0.225777,0.21872 z" />
        <path
           inkscape:connector-curvature="0"
           id="path20378"
           style="font-style:normal;font-variant:normal;font-weight:normal;font-stretch:normal;font-family:'Bradley Gratis';-inkscape-font-specification:'Bradley Gratis';text-align:start;text-anchor:start;fill:#00a3f2;fill-opacity:1;stroke-width:0.26458332"
           d="m 60.635359,146.03236 q 0,0.13758 -0.05644,0.23988 -0.05644,0.0988 -0.148167,0.16228 -0.08819,0.0635 -0.197555,0.0953 -0.109361,0.0317 -0.215195,0.0317 -0.165805,0 -0.324555,-0.0811 -0.15875,-0.0811 -0.28575,-0.21872 -0.127,-0.14111 -0.204611,-0.32808 -0.07761,-0.1905 -0.07761,-0.40922 0,-0.39159 0.179916,-0.72673 0.179917,-0.33866 0.500945,-0.61383 -0.02822,-0.004 -0.05292,-0.004 -0.02117,-0.004 -0.04586,-0.004 -0.08467,0 -0.179917,0.0282 -0.09525,0.0282 -0.179916,0.0741 -0.08467,0.0423 -0.155223,0.0952 -0.06703,0.0529 -0.102305,0.0988 0.02822,-0.13759 0.105833,-0.27164 0.07761,-0.13406 0.194028,-0.23636 0.116417,-0.10231 0.268111,-0.16581 0.151694,-0.0635 0.331611,-0.0635 0.09172,0 0.194028,0.0282 0.102305,0.0282 0.194028,0.0741 0.09525,0.0423 0.169333,0.0953 0.07408,0.0529 0.112889,0.1023 l -0.289278,0.44098 q -0.176389,-0.17287 -0.381,-0.24695 -0.04586,0.0741 -0.09525,0.17639 -0.04939,0.0988 -0.09172,0.22578 -0.03881,0.127 -0.06703,0.28222 -0.02469,0.15169 -0.02469,0.33161 0,0.16933 0.02469,0.29986 0.02822,0.13053 0.07056,0.22578 0.04233,0.0952 0.09525,0.15875 0.05644,0.0635 0.112889,0.10583 0.134055,0.0953 0.306916,0.10584 0.07056,0 0.162278,-0.0282 0.09525,-0.0318 0.151694,-0.0811 z" />
        <path
           inkscape:connector-curvature="0"
           id="path20380"
           style="font-style:normal;font-variant:normal;font-weight:normal;font-stretch:normal;font-family:'Bradley Gratis';-inkscape-font-specification:'Bradley Gratis';text-align:start;text-anchor:start;fill:#00a3f2;fill-opacity:1;stroke-width:0.26458332"
           d="m 62.403604,143.78163 v 0.381 q -0.03881,-0.0353 -0.102306,-0.0776 -0.05997,-0.0423 -0.130528,-0.0741 -0.06703,-0.0353 -0.134055,-0.0565 -0.06703,-0.0247 -0.112889,-0.0247 -0.08467,0 -0.172861,0.067 -0.08819,0.067 -0.144639,0.17991 -0.05644,0.10937 -0.07408,0.28928 -0.01411,0.17639 -0.01411,0.45509 h 0.903111 l -0.179917,0.40216 q -0.03528,-0.0529 -0.08467,-0.0705 -0.04586,-0.0212 -0.08467,-0.0212 h -0.553861 q 0,0.20108 0.0071,0.39511 0.0071,0.1905 0.04586,0.3422 0.04233,0.15169 0.127,0.24694 0.08467,0.0917 0.243417,0.0917 0.08467,0 0.165805,-0.0318 0.08467,-0.0317 0.155223,-0.0776 0.07055,-0.0494 0.123472,-0.1023 0.05644,-0.0529 0.08819,-0.0952 v 0.508 h -0.47625 q -0.342194,0 -0.553861,-0.11995 -0.211666,-0.12347 -0.331611,-0.32808 -0.116417,-0.20814 -0.15875,-0.47978 -0.03881,-0.27164 -0.03881,-0.56797 0,-0.0741 0.01058,-0.19403 0.01058,-0.12347 0.04586,-0.25753 0.03528,-0.13758 0.102306,-0.27516 0.06703,-0.14112 0.179916,-0.25048 0.116417,-0.11289 0.28575,-0.18344 0.169334,-0.0706 0.409222,-0.0706 z" />
        <path
           inkscape:connector-curvature="0"
           id="path20382"
           style="font-style:normal;font-variant:normal;font-weight:normal;font-stretch:normal;font-family:'Bradley Gratis';-inkscape-font-specification:'Bradley Gratis';text-align:start;text-anchor:start;fill:#00a3f2;fill-opacity:1;stroke-width:0.26458332"
           d="m 63.682533,144.47661 q -0.08819,-0.21167 -0.151694,-0.35278 -0.0635,-0.14111 -0.09878,-0.14111 -0.03881,0 -0.05292,0.0353 -0.01058,0.0318 -0.01058,0.0565 v 1.91205 q 0,0.0776 -0.04233,0.16228 -0.04233,0.0847 -0.112888,0.14817 0.130527,0 0.232833,-0.0635 0.102305,-0.067 0.211667,-0.14464 0.112888,-0.0811 0.250472,-0.14464 0.137583,-0.067 0.342194,-0.067 v 0.63148 H 62.65595 q 0.04586,-0.067 0.07761,-0.127 0.03528,-0.06 0.05644,-0.11995 0.02117,-0.06 0.03175,-0.127 0.01058,-0.067 0.01058,-0.14817 v -1.66863 q 0,-0.11289 -0.04233,-0.18345 -0.04233,-0.0741 -0.05997,-0.1023 0.01411,-0.004 0.07056,-0.0247 0.05997,-0.0247 0.144639,-0.0564 0.08467,-0.0318 0.186972,-0.067 0.102305,-0.0353 0.201083,-0.0635 0.09878,-0.0317 0.186972,-0.0494 0.08819,-0.0212 0.144639,-0.0212 0.0882,0 0.165806,0.0494 0.07761,0.0494 0.141111,0.12347 0.0635,0.0741 0.109361,0.16581 0.04586,0.0882 0.07408,0.16581 z" />
        <path
           inkscape:connector-curvature="0"
           id="path20384"
           style="font-style:normal;font-variant:normal;font-weight:normal;font-stretch:normal;font-family:'Bradley Gratis';-inkscape-font-specification:'Bradley Gratis';text-align:start;text-anchor:start;fill:#00a3f2;fill-opacity:1;stroke-width:0.26458332"
           d="m 65.8627,144.81174 v -0.87841 h -0.416278 q -0.0035,0.23636 -0.01411,0.46919 -0.0071,0.22931 -0.01764,0.40922 z m 0.719667,-1.03011 q -0.03881,0.0282 -0.07408,0.0706 -0.03175,0.0423 -0.05644,0.0917 -0.02117,0.0459 -0.03528,0.0917 -0.01411,0.0423 -0.01411,0.0741 v 2.39889 H 65.8627 v -1.32998 h -0.472722 q -0.0035,0.127 -0.03528,0.2787 -0.03175,0.14816 -0.08819,0.29986 -0.05292,0.14817 -0.127,0.28928 -0.07056,0.13758 -0.162278,0.24341 -0.08819,0.10584 -0.1905,0.16934 -0.09878,0.0635 -0.208139,0.0635 -0.07056,0 -0.123472,-0.0423 -0.04939,-0.0423 -0.04939,-0.11994 0,-0.0494 0.03175,-0.0706 0.03175,-0.0247 0.06703,-0.0247 0.03175,0 0.04939,0.0106 0.01764,0.007 0.03175,0.0212 0.01764,0.0106 0.0388,0.0212 0.02117,0.007 0.05997,0.007 0.0635,0 0.102306,-0.0635 0.0388,-0.067 0.0635,-0.17639 0.02469,-0.11289 0.03528,-0.25753 0.01411,-0.14816 0.02117,-0.31044 0.0071,-0.16228 0.01764,-0.32808 0.01058,-0.16934 0.02822,-0.32456 0.02117,-0.18344 0.0635,-0.33514 0.04586,-0.15169 0.09525,-0.26811 0.04939,-0.11642 0.09878,-0.19755 0.04939,-0.0811 0.08467,-0.13053 h -0.07761 q -0.06703,0 -0.123472,0.0212 -0.05644,0.0176 -0.102306,0.0423 -0.04233,0.0212 -0.07761,0.0423 -0.03175,0.0176 -0.05645,0.0176 -0.05997,0 -0.08819,-0.0423 -0.02822,-0.0423 -0.02822,-0.0952 0,-0.0494 0.05292,-0.0917 0.05644,-0.0459 0.155223,-0.0459 z" />
        <path
           inkscape:connector-curvature="0"
           id="path20386"
           style="font-style:normal;font-variant:normal;font-weight:normal;font-stretch:normal;font-family:'Bradley Gratis';-inkscape-font-specification:'Bradley Gratis';text-align:start;text-anchor:start;fill:#00a3f2;fill-opacity:1;stroke-width:0.26458332"
           d="m 66.882779,146.50861 v -2.4377 q 0,-0.0988 -0.04233,-0.1658 -0.04233,-0.0706 -0.08467,-0.12348 h 0.684389 v 0.35984 l 0.391583,-0.45509 q 0.179917,0.16228 0.296333,0.32456 0.116417,0.15875 0.183445,0.32103 0.06703,0.15875 0.09172,0.32455 0.02469,0.16228 0.02469,0.33514 0,0.16933 -0.02822,0.32456 -0.02469,0.15169 -0.07408,0.29986 -0.04939,0.14816 -0.119945,0.29986 -0.06703,0.15169 -0.148166,0.3175 h 0.127 q 0.04586,0 0.09525,-0.0317 0.04939,-0.0318 0.09878,-0.0318 v 0.33867 H 67.69417 q 0.09525,-0.19403 0.151694,-0.34925 0.05997,-0.15523 0.09172,-0.29634 0.03175,-0.14111 0.04233,-0.27516 0.01058,-0.13406 0.01058,-0.28575 0,-0.1517 -0.05292,-0.31398 -0.04939,-0.1658 -0.123472,-0.30339 -0.07408,-0.13758 -0.15875,-0.22577 -0.08114,-0.0882 -0.148167,-0.0882 -0.04233,0 -0.06703,0.0212 v 2.11667 z" />
        <path
           inkscape:connector-curvature="0"
           id="path20388"
           style="font-style:normal;font-variant:normal;font-weight:normal;font-stretch:normal;font-family:'Bradley Gratis';-inkscape-font-specification:'Bradley Gratis';text-align:start;text-anchor:start;fill:#00a3f2;fill-opacity:1;stroke-width:0.26458332"
           d="m 68.771683,144.02858 q -0.09172,-0.0388 -0.127,-0.0952 -0.03528,-0.0565 -0.03528,-0.10584 0,-0.0423 0.02822,-0.0529 0.02822,0.0176 0.07761,0.0247 0.04939,0.007 0.112888,0.007 0.03175,0 0.08819,-0.0106 0.05997,-0.0106 0.130528,-0.0212 0.07055,-0.0106 0.144639,-0.0212 0.07761,-0.0106 0.144638,-0.0106 0.162278,0 0.331612,0.0847 0.169333,0.0811 0.303388,0.254 0.134056,0.16934 0.218723,0.43392 0.08819,0.26106 0.08819,0.62442 0,0.30691 -0.05292,0.52916 -0.05292,0.22225 -0.134055,0.37748 -0.08114,0.15522 -0.179917,0.25047 -0.09878,0.0917 -0.194028,0.14464 -0.09172,0.0494 -0.169333,0.067 -0.07408,0.0176 -0.109361,0.0176 -0.05292,0 -0.112889,-0.0141 -0.05997,-0.0141 -0.119944,-0.0318 -0.05645,-0.0176 -0.109361,-0.0317 -0.04939,-0.0141 -0.08467,-0.0141 -0.03881,0 -0.07056,0.0141 -0.03175,0.0106 -0.06703,0.0247 -0.03175,0.0106 -0.07056,0.0247 -0.03881,0.0106 -0.08819,0.0106 -0.01764,0 -0.03881,-0.004 -0.01764,-0.004 -0.03528,-0.0106 -0.01764,-0.007 -0.03528,-0.0176 0.02822,-0.0176 0.05644,-0.06 0.02822,-0.0459 0.05292,-0.0952 0.02822,-0.0529 0.05644,-0.11641 z m 0.518583,2.10255 q 0,0.0741 0.02469,0.11642 0.02822,0.0388 0.05997,0.0564 0.03881,0.0212 0.08467,0.0247 0.08114,0 0.141111,-0.10936 0.0635,-0.10936 0.0635,-0.2787 v -1.54869 q 0,-0.16581 -0.03175,-0.25753 -0.03175,-0.0917 -0.07408,-0.13405 -0.04233,-0.0423 -0.08467,-0.0494 -0.04233,-0.0106 -0.06703,-0.0106 -0.04233,0 -0.08114,0.0564 -0.03528,0.0564 -0.03528,0.14816 z" />
      </g>
    </g>
    <g
       style="font-style:normal;font-variant:normal;font-weight:normal;font-stretch:normal;font-size:3.52778px;line-height:1.25;font-family:Quarca;-inkscape-font-specification:Quarca;text-align:center;letter-spacing:0px;word-spacing:0px;text-anchor:middle;fill:#dddddd;fill-opacity:1;stroke:none;stroke-width:0.264583"
       id="text307-8-3"
       aria-label="DE-EMPHASISIS FILTER">
      <path
         id="path6255"
         style="font-style:normal;font-variant:normal;font-weight:normal;font-stretch:normal;font-size:2.11667px;font-family:Quarca;-inkscape-font-specification:Quarca;fill:#dddddd;fill-opacity:1;stroke-width:0.264583"
         d="m 36.650869,121.82651 h 0.588434 c 0.264584,0 0.372534,-0.11642 0.372534,-0.3556 v -0.79164 c 0,-0.23918 -0.10795,-0.3556 -0.372534,-0.3556 h -0.588434 z m 0.582084,-0.1143 h -0.461434 v -1.27424 h 0.461434 c 0.184151,0 0.258234,0.0825 0.258234,0.2667 v 0.74084 c 0,0.18415 -0.07408,0.2667 -0.258234,0.2667 z" />
      <path
         id="path6257"
         style="font-style:normal;font-variant:normal;font-weight:normal;font-stretch:normal;font-size:2.11667px;font-family:Quarca;-inkscape-font-specification:Quarca;fill:#dddddd;fill-opacity:1;stroke-width:0.264583"
         d="m 38.007621,120.43797 h 0.679451 l 0.01693,-0.1143 h -0.817035 v 1.50284 h 0.804335 l 0.01693,-0.1143 h -0.700618 v -0.45932 h 0.569385 l 0.01693,-0.11218 h -0.586318 z" />
      <path
         id="path6259"
         style="font-style:normal;font-variant:normal;font-weight:normal;font-stretch:normal;font-size:2.11667px;font-family:Quarca;-inkscape-font-specification:Quarca;fill:#dddddd;fill-opacity:1;stroke-width:0.264583"
         d="m 39.501362,121.14917 h -0.649818 l -0.01693,0.10795 h 0.649818 z" />
      <path
         id="path6261"
         style="font-style:normal;font-variant:normal;font-weight:normal;font-stretch:normal;font-size:2.11667px;font-family:Quarca;-inkscape-font-specification:Quarca;fill:#dddddd;fill-opacity:1;stroke-width:0.264583"
         d="m 39.855573,120.43797 h 0.679451 l 0.01693,-0.1143 h -0.817035 v 1.50284 h 0.804335 l 0.01693,-0.1143 h -0.700618 v -0.45932 h 0.569385 l 0.01693,-0.11218 h -0.586318 z" />
      <path
         id="path6263"
         style="font-style:normal;font-variant:normal;font-weight:normal;font-stretch:normal;font-size:2.11667px;font-family:Quarca;-inkscape-font-specification:Quarca;fill:#dddddd;fill-opacity:1;stroke-width:0.264583"
         d="m 40.868334,121.82651 v -1.3081 l 0.374651,0.73236 h 0.118533 l 0.376767,-0.73236 v 1.3081 h 0.116417 v -1.50284 h -0.143933 l -0.408518,0.79799 -0.4064,-0.79799 h -0.143934 v 1.50284 z" />
      <path
         id="path6265"
         style="font-style:normal;font-variant:normal;font-weight:normal;font-stretch:normal;font-size:2.11667px;font-family:Quarca;-inkscape-font-specification:Quarca;fill:#dddddd;fill-opacity:1;stroke-width:0.264583"
         d="m 42.257497,121.20844 h 0.474134 c 0.188384,0 0.285751,-0.0952 0.285751,-0.28363 v -0.3175 c 0,-0.18839 -0.09737,-0.28364 -0.285751,-0.28364 h -0.594784 v 1.50284 h 0.12065 z m 0,-0.77047 h 0.457201 c 0.122767,0 0.179917,0.0571 0.179917,0.19262 v 0.27093 c 0,0.13547 -0.05715,0.19262 -0.179917,0.19262 h -0.457201 z" />
      <path
         id="path6267"
         style="font-style:normal;font-variant:normal;font-weight:normal;font-stretch:normal;font-size:2.11667px;font-family:Quarca;-inkscape-font-specification:Quarca;fill:#dddddd;fill-opacity:1;stroke-width:0.264583"
         d="m 43.361308,121.82651 v -0.56939 h 0.696384 v 0.56939 h 0.12065 v -1.50284 h -0.12065 v 0.81915 h -0.696384 v -0.81915 h -0.12065 v 1.50284 z" />
      <path
         id="path6269"
         style="font-style:normal;font-variant:normal;font-weight:normal;font-stretch:normal;font-size:2.11667px;font-family:Quarca;-inkscape-font-specification:Quarca;fill:#dddddd;fill-opacity:1;stroke-width:0.264583"
         d="m 44.820057,120.32367 -0.46355,1.50284 h 0.129116 l 0.09737,-0.32597 h 0.605368 l 0.09737,0.32597 h 0.129117 l -0.461434,-1.50284 z m 0.06773,0.16087 0.2667,0.9017 h -0.537634 z" />
      <path
         id="path6271"
         style="font-style:normal;font-variant:normal;font-weight:normal;font-stretch:normal;font-size:2.11667px;font-family:Quarca;-inkscape-font-specification:Quarca;fill:#dddddd;fill-opacity:1;stroke-width:0.264583"
         d="m 46.18392,121.20209 c 0.105834,0.0444 0.13335,0.0804 0.13335,0.18415 v 0.14605 c 0,0.127 -0.05292,0.17992 -0.173567,0.17992 h -0.319617 c -0.12065,0 -0.175683,-0.0529 -0.175683,-0.17992 v -0.15875 h -0.120651 v 0.18838 c 0,0.17569 0.08255,0.26459 0.277284,0.26459 h 0.372534 c 0.175684,0 0.262467,-0.0889 0.262467,-0.26459 v -0.20743 c 0,-0.15028 -0.05715,-0.2032 -0.211667,-0.27093 l -0.433917,-0.18415 c -0.09948,-0.0423 -0.124884,-0.0825 -0.124884,-0.17569 v -0.0931 c 0,-0.14393 0.04657,-0.19262 0.182034,-0.19262 h 0.264584 c 0.12065,0 0.179917,0.055 0.179917,0.18627 v 0.14182 h 0.122766 v -0.17145 c 0,-0.1905 -0.09102,-0.27094 -0.28575,-0.27094 h -0.313267 c -0.186267,0 -0.270934,0.0825 -0.270934,0.27094 v 0.14816 c 0,0.1524 0.0508,0.20744 0.20955,0.27729 z" />
      <path
         id="path6273"
         style="font-style:normal;font-variant:normal;font-weight:normal;font-stretch:normal;font-size:2.11667px;font-family:Quarca;-inkscape-font-specification:Quarca;fill:#dddddd;fill-opacity:1;stroke-width:0.264583"
         d="m 46.800896,121.82651 v -1.50284 h -0.12065 v 1.50284 z" />
      <path
         id="path6275"
         style="font-style:normal;font-variant:normal;font-weight:normal;font-stretch:normal;font-size:2.11667px;font-family:Quarca;-inkscape-font-specification:Quarca;fill:#dddddd;fill-opacity:1;stroke-width:0.264583"
         d="m 47.692874,121.20209 c 0.105834,0.0444 0.13335,0.0804 0.13335,0.18415 v 0.14605 c 0,0.127 -0.05292,0.17992 -0.173567,0.17992 H 47.33304 c -0.12065,0 -0.175683,-0.0529 -0.175683,-0.17992 v -0.15875 h -0.120651 v 0.18838 c 0,0.17569 0.08255,0.26459 0.277284,0.26459 h 0.372534 c 0.175684,0 0.262467,-0.0889 0.262467,-0.26459 v -0.20743 c 0,-0.15028 -0.05715,-0.2032 -0.211667,-0.27093 l -0.433917,-0.18415 c -0.09948,-0.0423 -0.124884,-0.0825 -0.124884,-0.17569 v -0.0931 c 0,-0.14393 0.04657,-0.19262 0.182034,-0.19262 h 0.264584 c 0.12065,0 0.179917,0.055 0.179917,0.18627 v 0.14182 h 0.122766 v -0.17145 c 0,-0.1905 -0.09102,-0.27094 -0.28575,-0.27094 h -0.313267 c -0.186267,0 -0.270934,0.0825 -0.270934,0.27094 v 0.14816 c 0,0.1524 0.0508,0.20744 0.20955,0.27729 z" />
      <path
         id="path6277"
         style="font-style:normal;font-variant:normal;font-weight:normal;font-stretch:normal;font-size:2.11667px;font-family:Quarca;-inkscape-font-specification:Quarca;fill:#dddddd;fill-opacity:1;stroke-width:0.264583"
         d="m 48.30985,121.82651 v -1.50284 H 48.1892 v 1.50284 z" />
      <path
         id="path6279"
         style="font-style:normal;font-variant:normal;font-weight:normal;font-stretch:normal;font-size:2.11667px;font-family:Quarca;-inkscape-font-specification:Quarca;fill:#dddddd;fill-opacity:1;stroke-width:0.264583"
         d="m 49.201829,121.20209 c 0.105834,0.0444 0.13335,0.0804 0.13335,0.18415 v 0.14605 c 0,0.127 -0.05292,0.17992 -0.173567,0.17992 h -0.319617 c -0.12065,0 -0.175683,-0.0529 -0.175683,-0.17992 v -0.15875 h -0.120651 v 0.18838 c 0,0.17569 0.08255,0.26459 0.277284,0.26459 h 0.372534 c 0.175684,0 0.262467,-0.0889 0.262467,-0.26459 v -0.20743 c 0,-0.15028 -0.05715,-0.2032 -0.211667,-0.27093 l -0.433917,-0.18415 c -0.09948,-0.0423 -0.124884,-0.0825 -0.124884,-0.17569 v -0.0931 c 0,-0.14393 0.04657,-0.19262 0.182034,-0.19262 h 0.264584 c 0.12065,0 0.179917,0.055 0.179917,0.18627 v 0.14182 h 0.122766 v -0.17145 c 0,-0.1905 -0.09102,-0.27094 -0.28575,-0.27094 h -0.313267 c -0.186267,0 -0.270934,0.0825 -0.270934,0.27094 v 0.14816 c 0,0.1524 0.0508,0.20744 0.20955,0.27729 z" />
      <path
         id="path6281"
         style="font-style:normal;font-variant:normal;font-weight:normal;font-stretch:normal;font-size:2.11667px;font-family:Quarca;-inkscape-font-specification:Quarca;fill:#dddddd;fill-opacity:1;stroke-width:0.264583"
         d="m 50.248753,120.43797 h 0.673101 l 0.01693,-0.1143 h -0.810685 v 1.50284 h 0.12065 v -0.57362 h 0.533401 l 0.01693,-0.11218 h -0.550334 z" />
      <path
         id="path6283"
         style="font-style:normal;font-variant:normal;font-weight:normal;font-stretch:normal;font-size:2.11667px;font-family:Quarca;-inkscape-font-specification:Quarca;fill:#dddddd;fill-opacity:1;stroke-width:0.264583"
         d="m 51.240943,121.82651 v -1.50284 h -0.120651 v 1.50284 z" />
      <path
         id="path6285"
         style="font-style:normal;font-variant:normal;font-weight:normal;font-stretch:normal;font-size:2.11667px;font-family:Quarca;-inkscape-font-specification:Quarca;fill:#dddddd;fill-opacity:1;stroke-width:0.264583"
         d="m 51.646086,120.32367 h -0.12065 v 1.50284 h 0.770468 l 0.01693,-0.1143 h -0.666751 z" />
      <path
         id="path6287"
         style="font-style:normal;font-variant:normal;font-weight:normal;font-stretch:normal;font-size:2.11667px;font-family:Quarca;-inkscape-font-specification:Quarca;fill:#dddddd;fill-opacity:1;stroke-width:0.264583"
         d="m 53.062833,120.43797 v -0.1143 h -0.891118 v 0.1143 h 0.385234 v 1.38854 h 0.122767 v -1.38854 z" />
      <path
         id="path6289"
         style="font-style:normal;font-variant:normal;font-weight:normal;font-stretch:normal;font-size:2.11667px;font-family:Quarca;-inkscape-font-specification:Quarca;fill:#dddddd;fill-opacity:1;stroke-width:0.264583"
         d="m 53.349345,120.43797 h 0.679451 l 0.01693,-0.1143 h -0.817034 v 1.50284 h 0.804334 l 0.01693,-0.1143 h -0.700618 v -0.45932 h 0.569384 l 0.01693,-0.11218 h -0.586317 z" />
      <path
         id="path6291"
         style="font-style:normal;font-variant:normal;font-weight:normal;font-stretch:normal;font-size:2.11667px;font-family:Quarca;-inkscape-font-specification:Quarca;fill:#dddddd;fill-opacity:1;stroke-width:0.264583"
         d="m 54.245687,121.82651 h 0.12065 v -0.60325 h 0.277284 l 0.421217,0.60325 h 0.141817 l -0.423334,-0.60325 h 0.02963 c 0.201083,0 0.29845,-0.0952 0.29845,-0.28575 v -0.32809 c 0,-0.1905 -0.09737,-0.28575 -0.29845,-0.28575 h -0.567268 z m 0.12065,-1.38854 h 0.425451 c 0.135467,0 0.19685,0.0635 0.19685,0.20744 v 0.25611 c 0,0.14605 -0.06138,0.20955 -0.19685,0.20955 h -0.425451 z" />
    </g>
  </g>
</svg>
