<?xml version="1.0" encoding="UTF-8" standalone="no"?>
<!-- Created with Inkscape (http://www.inkscape.org/) -->

<svg
   xmlns:dc="http://purl.org/dc/elements/1.1/"
   xmlns:cc="http://creativecommons.org/ns#"
   xmlns:rdf="http://www.w3.org/1999/02/22-rdf-syntax-ns#"
   xmlns:svg="http://www.w3.org/2000/svg"
   xmlns="http://www.w3.org/2000/svg"
   xmlns:xlink="http://www.w3.org/1999/xlink"
   xmlns:sodipodi="http://sodipodi.sourceforge.net/DTD/sodipodi-0.dtd"
   xmlns:inkscape="http://www.inkscape.org/namespaces/inkscape"
   width="165"
   height="380"
   viewBox="0 0 43.656251 100.54167"
   version="1.1"
   id="svg11003"
   inkscape:version="0.92.2 (5c3e80d, 2017-08-06)"
   sodipodi:docname="EverlastingGlottalStopper.svg">
  <defs
     id="defs10997">
    <linearGradient
       inkscape:collect="always"
       id="linearGradient4682">
      <stop
         style="stop-color:#202022;stop-opacity:1;"
         offset="0"
         id="stop3387" />
      <stop
         style="stop-color:#202025;stop-opacity:1;"
         offset=".3"
         id="stop3388" />
      <stop
         style="stop-color:#08006f;stop-opacity:1;"
         offset="1"
         id="stop3389" />
    </linearGradient>
    <linearGradient
       inkscape:collect="always"
       xlink:href="#linearGradient4682"
       id="linearGradient4684"
       x1="35.219627"
       y1="150.85843"
       x2="35.23983"
       y2="50.163956"
       gradientUnits="userSpaceOnUse"
       gradientTransform="matrix(0.84723076,0,0,1,5.3804778,0)" />
  </defs>
  <sodipodi:namedview
     id="base"
     pagecolor="#ffffff"
     bordercolor="#666666"
     borderopacity="1.0"
     inkscape:pageopacity="0.0"
     inkscape:pageshadow="2"
     inkscape:zoom="2.8284271"
     inkscape:cx="-102.22425"
     inkscape:cy="200.72062"
     inkscape:document-units="px"
     inkscape:current-layer="layer1"
     showgrid="false"
     fit-margin-top="0"
     fit-margin-left="0"
     fit-margin-right="0"
     fit-margin-bottom="0"
     inkscape:window-width="3840"
     inkscape:window-height="2115"
     inkscape:window-x="-13"
     inkscape:window-y="-13"
     inkscape:window-maximized="1"
     units="px" />
  <metadata
     id="metadata11000">
    <rdf:RDF>
      <cc:Work
         rdf:about="">
        <dc:format>image/svg+xml</dc:format>
        <dc:type
           rdf:resource="http://purl.org/dc/dcmitype/StillImage" />
        <dc:title></dc:title>
      </cc:Work>
    </rdf:RDF>
  </metadata>
  <g
     inkscape:label="Layer 1"
     inkscape:groupmode="layer"
     id="layer1"
     transform="translate(-35.146312,-50.389004)">
    <path
       inkscape:connector-curvature="0"
       id="path33493"
       d="M 35.219628,50.462323 H 78.797143 V 150.85843 H 35.219628 Z m 0,0"
       style="fill:url(#linearGradient4684);fill-opacity:1;fill-rule:nonzero;stroke:none;stroke-width:0.2895475"
       inkscape:export-filename="/home/vortico/pics/tmp/LFOs.png"
       inkscape:export-xdpi="150.22649"
       inkscape:export-ydpi="150.22649" />
    <g
       style="font-style:normal;font-weight:normal;font-size:3.52777767px;line-height:1.25;font-family:sans-serif;letter-spacing:0px;word-spacing:0px;fill:#ffffff;fill-opacity:1;stroke:none;stroke-width:0.26458332"
       id="text5097" />
    <g
       aria-label="EVERLASTING"
       style="font-style:normal;font-variant:normal;font-weight:bold;font-stretch:normal;font-size:3.52777767px;line-height:1.25;font-family:Homenaje;-inkscape-font-specification:'Homenaje Bold';text-align:center;letter-spacing:0px;word-spacing:0px;text-anchor:middle;fill:#ffffff;fill-opacity:1;stroke:none;stroke-width:0.26458332"
       id="text136">
      <path
         d="m 48.118918,54.283745 v -2.716389 h 1.18357 v 0.263878 h -0.842081 v 0.869244 h 0.682978 v 0.263878 h -0.682978 v 1.055511 h 0.880886 v 0.263878 z"
         style="font-style:normal;font-variant:normal;font-weight:bold;font-stretch:normal;font-size:3.88055563px;font-family:Homenaje;-inkscape-font-specification:'Homenaje Bold';stroke-width:0.26458332"
         id="path4270" />
      <path
         d="m 50.488907,53.9733 0.535517,-2.405944 h 0.337608 l -0.640292,2.716389 h -0.457905 l -0.651934,-2.716389 h 0.337609 z"
         style="font-style:normal;font-variant:normal;font-weight:bold;font-stretch:normal;font-size:3.88055563px;font-family:Homenaje;-inkscape-font-specification:'Homenaje Bold';stroke-width:0.26458332"
         id="path4272" />
      <path
         d="m 51.764518,54.283745 v -2.716389 h 1.18357 v 0.263878 h -0.842081 v 0.869244 h 0.682978 v 0.263878 h -0.682978 v 1.055511 h 0.880886 v 0.263878 z"
         style="font-style:normal;font-variant:normal;font-weight:bold;font-stretch:normal;font-size:3.88055563px;font-family:Homenaje;-inkscape-font-specification:'Homenaje Bold';stroke-width:0.26458332"
         id="path4274" />
      <path
         d="m 53.765854,51.823473 v 1.012825 h 0.27552 q 0.221191,0 0.341488,-0.151342 0.124178,-0.155222 0.124178,-0.395817 0,-0.465666 -0.465666,-0.465666 z m -0.0078,1.268941 v 1.191331 h -0.333728 v -2.716389 h 0.717903 q 0.6985,0 0.6985,0.721783 0,0.271639 -0.104775,0.473428 -0.104775,0.201789 -0.298803,0.2794 l 0.539397,1.241778 H 54.64286 l -0.527756,-1.191331 z"
         style="font-style:normal;font-variant:normal;font-weight:bold;font-stretch:normal;font-size:3.88055563px;font-family:Homenaje;-inkscape-font-specification:'Homenaje Bold';stroke-width:0.26458332"
         id="path4276" />
      <path
         d="m 55.334326,54.283745 v -2.716389 h 0.341489 v 2.460272 h 0.795514 v 0.256117 z"
         style="font-style:normal;font-variant:normal;font-weight:bold;font-stretch:normal;font-size:3.88055563px;font-family:Homenaje;-inkscape-font-specification:'Homenaje Bold';stroke-width:0.26458332"
         id="path4278" />
      <path
         d="m 57.212151,51.567356 h 0.516114 l 0.589845,2.716389 H 57.999904 L 57.809757,53.48435 h -0.706261 l -0.174625,0.799395 h -0.329848 z m 0.539398,1.653117 -0.2794,-1.397 h -0.02716 l -0.283281,1.397 z"
         style="font-style:normal;font-variant:normal;font-weight:bold;font-stretch:normal;font-size:3.88055563px;font-family:Homenaje;-inkscape-font-specification:'Homenaje Bold';stroke-width:0.26458332"
         id="path4280" />
      <path
         d="m 59.053172,54.027628 q 0.221192,0 0.318206,-0.131939 0.100894,-0.131939 0.100894,-0.306564 0,-0.174625 -0.06597,-0.294922 -0.06209,-0.124178 -0.159103,-0.194028 -0.09701,-0.07373 -0.20955,-0.159102 -0.112536,-0.08537 -0.20955,-0.162984 -0.09701,-0.08149 -0.162983,-0.217311 -0.06209,-0.135819 -0.06209,-0.310444 0,-0.310445 0.186267,-0.496711 0.186266,-0.186267 0.516113,-0.186267 h 0.314325 v 0.256117 h -0.298802 q -0.186267,0 -0.283281,0.120297 -0.09701,0.120297 -0.09701,0.259997 0,0.1397 0.06209,0.240594 0.06597,0.100895 0.162983,0.166864 0.09701,0.06597 0.20955,0.155223 0.116417,0.08925 0.213431,0.182386 0.09701,0.08925 0.159103,0.244475 0.06597,0.155222 0.06597,0.35313 0,0.364772 -0.20955,0.551039 -0.205669,0.186267 -0.566561,0.186267 h -0.407458 v -0.256117 z"
         style="font-style:normal;font-variant:normal;font-weight:bold;font-stretch:normal;font-size:3.88055563px;font-family:Homenaje;-inkscape-font-specification:'Homenaje Bold';stroke-width:0.26458332"
         id="path4282" />
      <path
         d="m 60.530208,54.283745 v -2.460272 h -0.543277 v -0.256117 h 1.428044 v 0.256117 h -0.543278 v 2.460272 z"
         style="font-style:normal;font-variant:normal;font-weight:bold;font-stretch:normal;font-size:3.88055563px;font-family:Homenaje;-inkscape-font-specification:'Homenaje Bold';stroke-width:0.26458332"
         id="path4284" />
      <path
         d="m 61.776655,54.283745 v -2.716389 h 0.341489 v 2.716389 z"
         style="font-style:normal;font-variant:normal;font-weight:bold;font-stretch:normal;font-size:3.88055563px;font-family:Homenaje;-inkscape-font-specification:'Homenaje Bold';stroke-width:0.26458332"
         id="path4286" />
      <path
         d="m 64.203457,54.283745 h -0.48895 l -0.717903,-2.468034 v 2.468034 h -0.341489 v -2.716389 h 0.570442 l 0.632531,2.347736 v -2.347736 h 0.345369 z"
         style="font-style:normal;font-variant:normal;font-weight:bold;font-stretch:normal;font-size:3.88055563px;font-family:Homenaje;-inkscape-font-specification:'Homenaje Bold';stroke-width:0.26458332"
         id="path4288" />
      <path
         d="m 66.051754,54.283745 h -0.686858 q -0.353131,0 -0.547159,-0.178506 -0.194027,-0.178505 -0.194027,-0.523875 v -1.315508 q 0,-0.341489 0.20955,-0.519995 0.20955,-0.178505 0.570441,-0.178505 h 0.570442 v 0.259997 h -0.609247 q -0.178506,0 -0.291042,0.104775 -0.108655,0.100895 -0.108655,0.271639 v 1.447447 q 0,0.174625 0.104775,0.27552 0.104775,0.100894 0.2794,0.100894 h 0.360891 v -1.067153 h -0.34925 v -0.256116 h 0.690739 z"
         style="font-style:normal;font-variant:normal;font-weight:bold;font-stretch:normal;font-size:3.88055563px;font-family:Homenaje;-inkscape-font-specification:'Homenaje Bold';stroke-width:0.26458332"
         id="path4290" />
    </g>
    <g
       aria-label="FREQUENCY"
       style="font-style:normal;font-variant:normal;font-weight:bold;font-stretch:normal;font-size:3.52777767px;line-height:1.25;font-family:Homenaje;-inkscape-font-specification:'Homenaje Bold';text-align:center;letter-spacing:0px;word-spacing:0px;text-anchor:middle;fill:#ffffff;fill-opacity:1;stroke:none;stroke-width:0.26458332"
       id="text299">
      <path
         d="m 51.462559,64.760818 v -1.975555 h 0.832556 v 0.191911 h -0.5842 v 0.677333 h 0.440267 v 0.191911 h -0.440267 v 0.9144 z"
         style="font-style:normal;font-variant:normal;font-weight:bold;font-stretch:normal;font-size:2.82222223px;font-family:Homenaje;-inkscape-font-specification:'Homenaje Bold';stroke-width:0.26458332"
         id="path4293" />
      <path
         d="m 52.807834,62.97153 v 0.7366 h 0.200377 q 0.160867,0 0.248356,-0.110067 0.09031,-0.112889 0.09031,-0.287867 0,-0.338666 -0.338667,-0.338666 z m -0.0056,0.922866 v 0.866422 h -0.242711 v -1.975555 h 0.522111 q 0.508,0 0.508,0.524933 0,0.197556 -0.0762,0.344311 -0.0762,0.146756 -0.217311,0.2032 l 0.392289,0.903111 h -0.242711 l -0.383822,-0.866422 z"
         style="font-style:normal;font-variant:normal;font-weight:bold;font-stretch:normal;font-size:2.82222223px;font-family:Homenaje;-inkscape-font-specification:'Homenaje Bold';stroke-width:0.26458332"
         id="path4295" />
      <path
         d="m 53.94854,64.760818 v -1.975555 h 0.860778 v 0.191911 h -0.612422 v 0.632178 h 0.496711 v 0.191911 h -0.496711 v 0.767644 h 0.640644 v 0.191911 z"
         style="font-style:normal;font-variant:normal;font-weight:bold;font-stretch:normal;font-size:2.82222223px;font-family:Homenaje;-inkscape-font-specification:'Homenaje Bold';stroke-width:0.26458332"
         id="path4297" />
      <path
         d="m 56.106791,64.278218 q 0,0.445912 -0.403578,0.499534 v 0.05644 q 0,0.121356 0.03104,0.160867 0.03387,0.04233 0.107245,0.04233 h 0.132644 v 0.1778 h -0.166511 q -0.155222,0 -0.245533,-0.09313 -0.09031,-0.09313 -0.09031,-0.251178 v -0.09313 q -0.400756,-0.05362 -0.400756,-0.499534 v -1.004711 q 0,-0.242711 0.127,-0.375355 0.129822,-0.132645 0.389467,-0.132645 0.262467,0 0.389467,0.132645 0.129822,0.132644 0.129822,0.375355 z m -0.7874,0.04798 q 0,0.132645 0.07338,0.2032 0.07338,0.07056 0.194733,0.07056 0.121355,0 0.194733,-0.07056 0.0762,-0.07055 0.0762,-0.2032 V 63.22553 q 0,-0.132645 -0.0762,-0.2032 -0.07338,-0.07056 -0.194733,-0.07056 -0.121356,0 -0.194733,0.07056 -0.07338,0.07056 -0.07338,0.2032 z"
         style="font-style:normal;font-variant:normal;font-weight:bold;font-stretch:normal;font-size:2.82222223px;font-family:Homenaje;-inkscape-font-specification:'Homenaje Bold';stroke-width:0.26458332"
         id="path4299" />
      <path
         d="m 56.349855,62.785263 h 0.248355 v 1.535289 q 0,0.135466 0.06491,0.206022 0.06773,0.06773 0.186267,0.06773 0.118533,0 0.186267,-0.06773 0.06773,-0.07056 0.06773,-0.206022 v -1.535289 h 0.248356 v 1.487311 q 0,0.508 -0.502356,0.508 -0.499533,0 -0.499533,-0.508 z"
         style="font-style:normal;font-variant:normal;font-weight:bold;font-stretch:normal;font-size:2.82222223px;font-family:Homenaje;-inkscape-font-specification:'Homenaje Bold';stroke-width:0.26458332"
         id="path4301" />
      <path
         d="m 57.680268,64.760818 v -1.975555 h 0.860778 v 0.191911 h -0.612422 v 0.632178 h 0.496711 v 0.191911 h -0.496711 v 0.767644 h 0.640644 v 0.191911 z"
         style="font-style:normal;font-variant:normal;font-weight:bold;font-stretch:normal;font-size:2.82222223px;font-family:Homenaje;-inkscape-font-specification:'Homenaje Bold';stroke-width:0.26458332"
         id="path4303" />
      <path
         d="m 59.990918,64.760818 h -0.3556 l -0.522111,-1.794933 v 1.794933 h -0.248356 v -1.975555 h 0.414867 l 0.460022,1.707444 v -1.707444 h 0.251178 z"
         style="font-style:normal;font-variant:normal;font-weight:bold;font-stretch:normal;font-size:2.82222223px;font-family:Homenaje;-inkscape-font-specification:'Homenaje Bold';stroke-width:0.26458332"
         id="path4305" />
      <path
         d="m 61.213778,64.574552 v 0.186266 H 60.8356 q -0.256822,0 -0.397933,-0.129822 -0.141111,-0.129822 -0.141111,-0.381 v -0.953911 q 0,-0.251178 0.141111,-0.381 0.141111,-0.129822 0.397933,-0.129822 h 0.378178 V 62.97153 H 60.8356 q -0.129822,0 -0.211666,0.0762 -0.07902,0.07338 -0.07902,0.197555 v 1.055511 q 0,0.124178 0.07902,0.200378 0.08184,0.07338 0.211666,0.07338 z"
         style="font-style:normal;font-variant:normal;font-weight:bold;font-stretch:normal;font-size:2.82222223px;font-family:Homenaje;-inkscape-font-specification:'Homenaje Bold';stroke-width:0.26458332"
         id="path4307" />
      <path
         d="m 61.898652,64.760818 h -0.248356 v -0.784577 l -0.397933,-1.190978 h 0.248355 l 0.282223,0.934155 0.287866,-0.934155 h 0.248356 l -0.420511,1.190978 z"
         style="font-style:normal;font-variant:normal;font-weight:bold;font-stretch:normal;font-size:2.82222223px;font-family:Homenaje;-inkscape-font-specification:'Homenaje Bold';stroke-width:0.26458332"
         id="path4309" />
    </g>
    <g
       aria-label="OPENING"
       style="font-style:normal;font-variant:normal;font-weight:bold;font-stretch:normal;font-size:3.52777767px;line-height:1.25;font-family:Homenaje;-inkscape-font-specification:'Homenaje Bold';text-align:center;letter-spacing:0px;word-spacing:0px;text-anchor:middle;fill:#ffffff;fill-opacity:1;stroke:none;stroke-width:0.26458332"
       id="text303">
      <path
         d="m 39.705014,105.88865 q 0,0.23989 -0.138289,0.37535 -0.138289,0.13265 -0.403578,0.13265 -0.262467,0 -0.400755,-0.13265 -0.138289,-0.13546 -0.138289,-0.37535 v -0.99907 q 0,-0.23989 0.138289,-0.37253 0.138288,-0.13547 0.400755,-0.13547 0.265289,0 0.403578,0.13547 0.138289,0.13264 0.138289,0.37253 z m -0.832556,0.048 q 0,0.12982 0.08185,0.2032 0.08467,0.0705 0.208844,0.0705 0.124178,0 0.208845,-0.0705 0.08467,-0.0734 0.08467,-0.2032 v -1.09503 q 0,-0.12982 -0.08467,-0.20037 -0.08467,-0.0734 -0.208845,-0.0734 -0.124178,0 -0.208844,0.0734 -0.08185,0.0706 -0.08185,0.20037 z"
         style="font-style:normal;font-variant:normal;font-weight:bold;font-stretch:normal;font-size:2.82222223px;font-family:Homenaje;-inkscape-font-specification:'Homenaje Bold';stroke-width:0.26458332"
         id="path4312" />
      <path
         d="m 40.280042,104.5876 v 0.73378 h 0.180622 q 0.160866,0 0.248355,-0.11007 0.09031,-0.11006 0.09031,-0.28504 0,-0.33867 -0.338666,-0.33867 z m 0.767644,0.33867 q 0,0.27376 -0.149578,0.42898 -0.146755,0.1524 -0.420511,0.1524 h -0.197555 v 0.86924 h -0.248356 v -1.97555 h 0.499533 q 0.516467,0 0.516467,0.52493 z"
         style="font-style:normal;font-variant:normal;font-weight:bold;font-stretch:normal;font-size:2.82222223px;font-family:Homenaje;-inkscape-font-specification:'Homenaje Bold';stroke-width:0.26458332"
         id="path4314" />
      <path
         d="m 41.310505,106.37689 v -1.97555 h 0.860778 v 0.19191 h -0.612422 v 0.63218 h 0.496711 v 0.19191 h -0.496711 v 0.76764 h 0.640644 v 0.19191 z"
         style="font-style:normal;font-variant:normal;font-weight:bold;font-stretch:normal;font-size:2.82222223px;font-family:Homenaje;-inkscape-font-specification:'Homenaje Bold';stroke-width:0.26458332"
         id="path4316" />
      <path
         d="m 43.621156,106.37689 h -0.3556 l -0.522111,-1.79493 v 1.79493 h -0.248356 v -1.97555 h 0.414867 l 0.460022,1.70744 v -1.70744 h 0.251178 z"
         style="font-style:normal;font-variant:normal;font-weight:bold;font-stretch:normal;font-size:2.82222223px;font-family:Homenaje;-inkscape-font-specification:'Homenaje Bold';stroke-width:0.26458332"
         id="path4318" />
      <path
         d="m 44.01146,106.37689 v -1.97555 h 0.248356 v 1.97555 z"
         style="font-style:normal;font-variant:normal;font-weight:bold;font-stretch:normal;font-size:2.82222223px;font-family:Homenaje;-inkscape-font-specification:'Homenaje Bold';stroke-width:0.26458332"
         id="path4320" />
      <path
         d="m 45.776407,106.37689 h -0.3556 l -0.522111,-1.79493 v 1.79493 h -0.248355 v -1.97555 h 0.414866 l 0.460022,1.70744 v -1.70744 h 0.251178 z"
         style="font-style:normal;font-variant:normal;font-weight:bold;font-stretch:normal;font-size:2.82222223px;font-family:Homenaje;-inkscape-font-specification:'Homenaje Bold';stroke-width:0.26458332"
         id="path4322" />
      <path
         d="M 47.120623,106.37689 H 46.62109 q -0.256823,0 -0.397934,-0.12982 -0.141111,-0.12982 -0.141111,-0.381 v -0.95673 q 0,-0.24836 0.1524,-0.37818 0.1524,-0.12982 0.414867,-0.12982 h 0.414867 v 0.18909 H 46.62109 q -0.129823,0 -0.211667,0.0762 -0.07902,0.0734 -0.07902,0.19755 v 1.05269 q 0,0.127 0.0762,0.20038 0.0762,0.0734 0.2032,0.0734 h 0.262466 v -0.77612 h -0.254 v -0.18626 h 0.502356 z"
         style="font-style:normal;font-variant:normal;font-weight:bold;font-stretch:normal;font-size:2.82222223px;font-family:Homenaje;-inkscape-font-specification:'Homenaje Bold';stroke-width:0.26458332"
         id="path4324" />
    </g>
    <g
       aria-label="CLOSED"
       style="font-style:normal;font-variant:normal;font-weight:bold;font-stretch:normal;font-size:3.52777767px;line-height:1.25;font-family:Homenaje;-inkscape-font-specification:'Homenaje Bold';text-align:center;letter-spacing:0px;word-spacing:0px;text-anchor:middle;fill:#ffffff;fill-opacity:1;stroke:none;stroke-width:0.26458332"
       id="text307">
      <path
         d="m 54.0552,106.19063 v 0.18626 h -0.378178 q -0.256822,0 -0.397933,-0.12982 -0.141111,-0.12982 -0.141111,-0.381 v -0.95391 q 0,-0.25118 0.141111,-0.381 0.141111,-0.12982 0.397933,-0.12982 H 54.0552 v 0.18626 h -0.378178 q -0.129822,0 -0.211666,0.0762 -0.07902,0.0734 -0.07902,0.19756 v 1.05551 q 0,0.12418 0.07902,0.20038 0.08184,0.0734 0.211666,0.0734 z"
         style="font-style:normal;font-variant:normal;font-weight:bold;font-stretch:normal;font-size:2.82222223px;font-family:Homenaje;-inkscape-font-specification:'Homenaje Bold';stroke-width:0.26458332"
         id="path4327" />
      <path
         d="m 54.319563,106.37689 v -1.97555 h 0.248355 v 1.78929 h 0.578556 v 0.18626 z"
         style="font-style:normal;font-variant:normal;font-weight:bold;font-stretch:normal;font-size:2.82222223px;font-family:Homenaje;-inkscape-font-specification:'Homenaje Bold';stroke-width:0.26458332"
         id="path4329" />
      <path
         d="m 56.385165,105.88865 q 0,0.23989 -0.138289,0.37535 -0.138289,0.13265 -0.403578,0.13265 -0.262466,0 -0.400755,-0.13265 -0.138289,-0.13546 -0.138289,-0.37535 v -0.99907 q 0,-0.23989 0.138289,-0.37253 0.138289,-0.13547 0.400755,-0.13547 0.265289,0 0.403578,0.13547 0.138289,0.13264 0.138289,0.37253 z m -0.832556,0.048 q 0,0.12982 0.08185,0.2032 0.08467,0.0705 0.208844,0.0705 0.124178,0 0.208845,-0.0705 0.08467,-0.0734 0.08467,-0.2032 v -1.09503 q 0,-0.12982 -0.08467,-0.20037 -0.08467,-0.0734 -0.208845,-0.0734 -0.124178,0 -0.208844,0.0734 -0.08185,0.0706 -0.08185,0.20037 z"
         style="font-style:normal;font-variant:normal;font-weight:bold;font-stretch:normal;font-size:2.82222223px;font-family:Homenaje;-inkscape-font-specification:'Homenaje Bold';stroke-width:0.26458332"
         id="path4331" />
      <path
         d="m 56.985593,106.19063 q 0.160866,0 0.231422,-0.096 0.07338,-0.096 0.07338,-0.22296 0,-0.127 -0.04798,-0.21448 -0.04516,-0.0903 -0.115711,-0.14112 -0.07056,-0.0536 -0.1524,-0.11571 -0.08184,-0.0621 -0.1524,-0.11853 -0.07056,-0.0593 -0.118533,-0.15804 -0.04516,-0.0988 -0.04516,-0.22578 0,-0.22578 0.135467,-0.36125 0.135466,-0.13546 0.375355,-0.13546 h 0.2286 v 0.18626 h -0.217311 q -0.135467,0 -0.206022,0.0875 -0.07056,0.0875 -0.07056,0.18909 0,0.1016 0.04516,0.17498 0.04798,0.0734 0.118533,0.12135 0.07056,0.048 0.1524,0.11289 0.08467,0.0649 0.155222,0.13265 0.07056,0.0649 0.115712,0.1778 0.04798,0.11289 0.04798,0.25682 0,0.26529 -0.1524,0.40076 -0.149577,0.13546 -0.412044,0.13546 h -0.296333 v -0.18626 z"
         style="font-style:normal;font-variant:normal;font-weight:bold;font-stretch:normal;font-size:2.82222223px;font-family:Homenaje;-inkscape-font-specification:'Homenaje Bold';stroke-width:0.26458332"
         id="path4333" />
      <path
         d="m 57.814268,106.37689 v -1.97555 h 0.860778 v 0.19191 h -0.612423 v 0.63218 h 0.496711 v 0.19191 h -0.496711 v 0.76764 h 0.640645 v 0.19191 z"
         style="font-style:normal;font-variant:normal;font-weight:bold;font-stretch:normal;font-size:2.82222223px;font-family:Homenaje;-inkscape-font-specification:'Homenaje Bold';stroke-width:0.26458332"
         id="path4335" />
      <path
         d="m 59.269785,106.18498 h 0.239889 q 0.129822,0 0.208844,-0.0734 0.08184,-0.0762 0.08184,-0.20037 V 104.867 q 0,-0.12417 -0.08184,-0.19755 -0.07902,-0.0762 -0.208844,-0.0762 h -0.239889 z m -0.251178,0.19191 v -1.97555 h 0.491067 q 0.256822,0 0.397933,0.12982 0.141111,0.12982 0.141111,0.381 v 0.95391 q 0,0.25118 -0.141111,0.381 -0.141111,0.127 -0.397933,0.12982 z"
         style="font-style:normal;font-variant:normal;font-weight:bold;font-stretch:normal;font-size:2.82222223px;font-family:Homenaje;-inkscape-font-specification:'Homenaje Bold';stroke-width:0.26458332"
         id="path4337" />
    </g>
    <g
       style="font-style:normal;font-variant:normal;font-weight:bold;font-stretch:normal;font-size:3.52777767px;line-height:1.25;font-family:Consolas;-inkscape-font-specification:'Consolas Bold';text-align:center;letter-spacing:0px;word-spacing:0px;text-anchor:middle;fill:#ffffff;fill-opacity:1;stroke:none;stroke-width:0.26458332"
       id="text373" />
    <g
       style="font-style:normal;font-variant:normal;font-weight:bold;font-stretch:normal;font-size:13.33333302px;line-height:1.25;font-family:Consolas;-inkscape-font-specification:'Consolas Bold';text-align:center;letter-spacing:0px;word-spacing:0px;text-anchor:middle;fill:#ffffff;fill-opacity:1;stroke:none"
       id="flowRoot250" />
    <g
       aria-label="FROZEN WASTELAND"
       style="font-style:normal;font-variant:normal;font-weight:bold;font-stretch:normal;font-size:3.52777767px;line-height:1.25;font-family:Consolas;-inkscape-font-specification:'Consolas Bold';text-align:start;letter-spacing:0px;word-spacing:0px;text-anchor:start;fill:#00a3f2;fill-opacity:1;stroke:none;stroke-width:0.26458332"
       id="text3885-7">
      <path
         d="m 42.605439,149.20208 q 0.119944,-0.11995 0.1905,-0.21167 0.07408,-0.0917 0.112889,-0.16933 0.04233,-0.0776 0.05292,-0.14464 0.01411,-0.0706 0.01411,-0.14817 0,-0.0952 -0.04586,-0.22931 -0.04586,-0.13405 -0.102305,-0.28575 -0.05644,-0.15169 -0.102306,-0.31044 -0.04586,-0.15875 -0.04586,-0.30339 0,-0.0776 0.0247,-0.15169 0.02822,-0.0741 0.06703,-0.14111 0.04233,-0.0706 0.09172,-0.13053 0.04939,-0.0635 0.09878,-0.11289 -0.07056,-0.0141 -0.123472,-0.0212 -0.05292,-0.0106 -0.07761,-0.0106 -0.130528,0 -0.22225,0.0705 -0.08819,0.067 -0.1905,0.16934 0,-0.11995 0.03528,-0.24695 0.0388,-0.13052 0.116416,-0.23636 0.07761,-0.10583 0.194028,-0.17286 0.119945,-0.067 0.282222,-0.067 0.112889,0 0.208139,0.0176 0.09878,0.0141 0.179917,0.0353 0.08114,0.0212 0.148167,0.0388 0.06703,0.0141 0.119944,0.0141 0.08114,0 0.141111,-0.0212 0.0635,-0.0247 0.123472,-0.0847 0,0.0776 -0.03175,0.17639 -0.02822,0.0988 -0.08819,0.1905 -0.05644,0.0882 -0.148167,0.1517 -0.09172,0.06 -0.211666,0.06 -0.05997,0 -0.137584,-0.007 -0.07408,-0.0106 -0.155222,-0.0247 -0.0071,0.0247 -0.01058,0.0459 -0.0035,0.0212 -0.0071,0.0388 -0.0035,0.0212 -0.0035,0.0388 0,0.0776 0.01058,0.1517 0.01411,0.0705 0.03881,0.14463 h 0.712611 l -0.08114,0.23989 q -0.01058,0.0459 -0.01411,0.067 -0.0035,0.0212 -0.01058,0.067 l -0.130528,-0.0917 h -0.363361 q 0.07761,0.17639 0.144639,0.35983 0.06703,0.17992 0.06703,0.38453 0,0.18344 -0.07408,0.34219 -0.07408,0.15522 -0.197556,0.27164 -0.119944,0.11642 -0.278694,0.17992 -0.155223,0.067 -0.321028,0.067 z"
         style="font-style:normal;font-variant:normal;font-weight:normal;font-stretch:normal;font-family:'Bradley Gratis';-inkscape-font-specification:'Bradley Gratis';text-align:start;text-anchor:start;fill:#00a3f2;fill-opacity:1;stroke-width:0.26458332"
         id="path4342" />
      <path
         d="m 44.675528,147.47346 q 0.07055,-0.0423 0.137583,-0.0988 0.07056,-0.0564 0.123472,-0.127 0.05645,-0.0706 0.08819,-0.16228 0.03528,-0.0952 0.03528,-0.21167 0,-0.0988 -0.0388,-0.1658 -0.03528,-0.0706 -0.08467,-0.11289 -0.04939,-0.0423 -0.09878,-0.06 -0.04586,-0.0176 -0.07056,-0.0176 -0.02822,0 -0.05292,0.0106 -0.02117,0.0106 -0.03881,0.0247 z m -0.518584,-0.94191 q -0.112889,-0.0635 -0.112889,-0.23636 0.03175,0.0318 0.112889,0.0564 0.08114,0.0212 0.172861,0.0212 0.04586,0 0.130528,-0.0106 0.08467,-0.0141 0.172861,-0.0282 0.09172,-0.0141 0.172861,-0.0247 0.08467,-0.0141 0.130528,-0.0141 0.116417,0 0.232834,0.0353 0.116416,0.0353 0.215194,0.11995 0.09878,0.0847 0.165806,0.2293 0.07055,0.14112 0.09172,0.35984 l -0.627945,0.4445 q 0.07056,0.0282 0.15875,0.0952 0.08819,0.067 0.165806,0.18697 0.08114,0.11994 0.134055,0.30692 0.05292,0.18344 0.05292,0.45155 0,0.23284 0.02117,0.37747 0.02117,0.14464 0.05292,0.23284 0.03175,0.0882 0.06703,0.13053 0.03881,0.0459 0.07056,0.0776 -0.155222,0 -0.275167,-0.0917 -0.119944,-0.0882 -0.211667,-0.23283 -0.09172,-0.14464 -0.162277,-0.32808 -0.06703,-0.18345 -0.123473,-0.37042 -0.05644,-0.18697 -0.105833,-0.35983 -0.04586,-0.17286 -0.09525,-0.29986 -0.02469,0.0176 -0.04939,0.0353 -0.02117,0.0141 -0.03881,0.0318 v 1.31939 h -0.518584 z"
         style="font-style:normal;font-variant:normal;font-weight:normal;font-stretch:normal;font-family:'Bradley Gratis';-inkscape-font-specification:'Bradley Gratis';text-align:start;text-anchor:start;fill:#00a3f2;fill-opacity:1;stroke-width:0.26458332"
         id="path4344" />
      <path
         d="m 46.563275,148.58119 q 0,0.11994 0.01411,0.18697 0.01764,0.067 0.04233,0.1023 0.02822,0.0317 0.0635,0.0388 0.03528,0.007 0.07056,0.007 0.07056,0 0.116416,-0.0952 0.04586,-0.0988 0.04586,-0.29987 v -1.53105 q 0,-0.15875 -0.01764,-0.25753 -0.01411,-0.1023 -0.04233,-0.15522 -0.02469,-0.0564 -0.05997,-0.0776 -0.03175,-0.0212 -0.0635,-0.0212 -0.06703,0 -0.119945,0.0847 -0.04939,0.0811 -0.04939,0.26105 z m 1.005416,-0.88548 q 0,0.25753 -0.06703,0.508 -0.0635,0.25048 -0.176388,0.44803 -0.109362,0.19756 -0.261056,0.32103 -0.151694,0.11994 -0.321028,0.11994 -0.15875,0 -0.310444,-0.10936 -0.148167,-0.10936 -0.264584,-0.29986 -0.112888,-0.1905 -0.183444,-0.4445 -0.07056,-0.254 -0.07056,-0.54328 0,-0.23636 0.0635,-0.4833 0.06703,-0.25047 0.179917,-0.45156 0.112889,-0.20108 0.264583,-0.32808 0.151695,-0.13053 0.321028,-0.13053 0.148167,0 0.292806,0.10936 0.148166,0.10936 0.264583,0.29986 0.119945,0.18698 0.194028,0.44098 0.07408,0.254 0.07408,0.54327 z"
         style="font-style:normal;font-variant:normal;font-weight:normal;font-stretch:normal;font-family:'Bradley Gratis';-inkscape-font-specification:'Bradley Gratis';text-align:start;text-anchor:start;fill:#00a3f2;fill-opacity:1;stroke-width:0.26458332"
         id="path4346" />
      <path
         d="m 47.722756,149.05391 q 0.04586,-0.27164 0.130528,-0.51153 0.08819,-0.23989 0.194027,-0.45861 0.105834,-0.21872 0.218723,-0.41628 0.116416,-0.20108 0.218722,-0.38805 0.102305,-0.18698 0.179917,-0.36336 0.07761,-0.17992 0.112888,-0.35984 -0.02822,-0.0176 -0.06703,-0.0318 -0.03528,-0.0141 -0.137584,-0.0141 -0.05292,0 -0.09525,0.0282 -0.0388,0.0247 -0.06703,0.0635 -0.02822,0.0353 -0.04586,0.0776 -0.01411,0.0388 -0.01411,0.0635 0,0.0282 0.01058,0.067 0.01411,0.0353 0.02822,0.0706 0.01764,0.0353 0.03528,0.067 0.01764,0.0282 0.03175,0.0423 l -0.430389,0.26811 q -0.08467,-0.0811 -0.144639,-0.19756 -0.05645,-0.11994 -0.05645,-0.23988 0,-0.06 0.03175,-0.14817 0.03175,-0.0882 0.102306,-0.16933 0.07056,-0.0847 0.183444,-0.14112 0.116417,-0.06 0.282223,-0.06 0.130527,0 0.218722,0.0176 0.08819,0.0176 0.155222,0.0423 0.06703,0.0212 0.123472,0.0388 0.05997,0.0176 0.134056,0.0176 0.04586,0 0.09878,-0.007 0.05292,-0.007 0.09878,-0.0212 0.04586,-0.0141 0.08114,-0.0282 0.03881,-0.0176 0.05997,-0.0388 -0.04233,0.22225 -0.134056,0.46214 -0.09172,0.23989 -0.204611,0.47978 -0.109361,0.23988 -0.232833,0.46919 -0.119945,0.22931 -0.22225,0.43039 -0.09878,0.19755 -0.169334,0.35983 -0.06703,0.15875 -0.07408,0.26106 0.141111,0.06 0.239889,0.06 0.0635,0 0.130528,-0.0141 0.06703,-0.0176 0.119944,-0.0529 0.05644,-0.0353 0.09172,-0.0882 0.03528,-0.0565 0.03528,-0.13406 0,-0.0776 -0.01764,-0.127 -0.01411,-0.0529 -0.03881,-0.0847 -0.0247,-0.0353 -0.05644,-0.06 -0.03175,-0.0282 -0.05997,-0.0564 l 0.405694,-0.29986 q 0.141111,0.10583 0.201084,0.22578 0.05997,0.11994 0.05997,0.26105 0,0.067 -0.02117,0.13053 -0.01764,0.06 -0.04586,0.11289 -0.02469,0.0494 -0.05997,0.0917 -0.03175,0.0423 -0.05644,0.067 l 0.05997,0.06 q 0.01764,0.0176 0.0388,0.0529 0.02117,0.0317 0.02117,0.0564 0,0.0282 -0.0247,0.0811 -0.02117,0.0564 -0.08819,0.0988 -0.02469,-0.0317 -0.05644,-0.0564 -0.02822,-0.0212 -0.05997,-0.0388 -0.03175,-0.0176 -0.06703,-0.0176 z"
         style="font-style:normal;font-variant:normal;font-weight:normal;font-stretch:normal;font-family:'Bradley Gratis';-inkscape-font-specification:'Bradley Gratis';text-align:start;text-anchor:start;fill:#00a3f2;fill-opacity:1;stroke-width:0.26458332"
         id="path4348" />
      <path
         d="m 51.229091,146.32694 v 0.381 q -0.0388,-0.0353 -0.102305,-0.0776 -0.05997,-0.0423 -0.130528,-0.0741 -0.06703,-0.0353 -0.134056,-0.0564 -0.06703,-0.0247 -0.112888,-0.0247 -0.08467,0 -0.172862,0.067 -0.08819,0.067 -0.144638,0.17992 -0.05645,0.10936 -0.07408,0.28928 -0.01411,0.17638 -0.01411,0.45508 h 0.903111 l -0.179916,0.40217 q -0.03528,-0.0529 -0.08467,-0.0706 -0.04586,-0.0212 -0.08467,-0.0212 h -0.553861 q 0,0.20109 0.0071,0.39511 0.0071,0.1905 0.04586,0.3422 0.04233,0.15169 0.127,0.24694 0.08467,0.0917 0.243416,0.0917 0.08467,0 0.165806,-0.0318 0.08467,-0.0317 0.155222,-0.0776 0.07056,-0.0494 0.123472,-0.1023 0.05644,-0.0529 0.08819,-0.0953 v 0.508 h -0.47625 q -0.342194,0 -0.553861,-0.11995 -0.211667,-0.12347 -0.331611,-0.32808 -0.116417,-0.20814 -0.15875,-0.47978 -0.03881,-0.27164 -0.03881,-0.56797 0,-0.0741 0.01058,-0.19403 0.01058,-0.12347 0.04586,-0.25752 0.03528,-0.13759 0.102305,-0.27517 0.06703,-0.14111 0.179917,-0.25047 0.116417,-0.11289 0.28575,-0.18345 0.169333,-0.0705 0.409222,-0.0705 z"
         style="font-style:normal;font-variant:normal;font-weight:normal;font-stretch:normal;font-family:'Bradley Gratis';-inkscape-font-specification:'Bradley Gratis';text-align:start;text-anchor:start;fill:#00a3f2;fill-opacity:1;stroke-width:0.26458332"
         id="path4350" />
      <path
         d="m 51.615493,149.05391 v -2.4377 q 0,-0.0988 -0.04233,-0.1658 -0.04233,-0.0706 -0.08467,-0.12347 h 0.684389 v 0.35983 l 0.391584,-0.45508 q 0.179916,0.16227 0.296333,0.32455 0.116417,0.15875 0.183444,0.32103 0.06703,0.15875 0.09172,0.32456 0.02469,0.16227 0.02469,0.33513 0,0.16934 -0.02822,0.32456 -0.0247,0.15169 -0.07408,0.29986 -0.04939,0.14817 -0.119944,0.29986 -0.06703,0.1517 -0.148167,0.3175 h 0.127 q 0.04586,0 0.09525,-0.0317 0.04939,-0.0318 0.09878,-0.0318 v 0.33867 h -0.684389 q 0.09525,-0.19403 0.151695,-0.34925 0.05997,-0.15522 0.09172,-0.29633 0.03175,-0.14112 0.04233,-0.27517 0.01058,-0.13406 0.01058,-0.28575 0,-0.1517 -0.05292,-0.31397 -0.04939,-0.16581 -0.123472,-0.30339 -0.07408,-0.13759 -0.15875,-0.22578 -0.08114,-0.0882 -0.148167,-0.0882 -0.04233,0 -0.06703,0.0212 v 2.11667 z"
         style="font-style:normal;font-variant:normal;font-weight:normal;font-stretch:normal;font-family:'Bradley Gratis';-inkscape-font-specification:'Bradley Gratis';text-align:start;text-anchor:start;fill:#00a3f2;fill-opacity:1;stroke-width:0.26458332"
         id="path4352" />
      <path
         d="m 54.853663,149.17033 q -0.1905,-0.13759 -0.324556,-0.29281 -0.134056,-0.15875 -0.215194,-0.32808 -0.08114,-0.16934 -0.119945,-0.3422 -0.03528,-0.17639 -0.03528,-0.34572 0,-0.16581 0.03528,-0.32808 0.03528,-0.16581 0.09172,-0.32456 0.05997,-0.16228 0.137584,-0.31397 0.07761,-0.15522 0.15875,-0.30339 h -0.02117 q -0.01058,0 -0.02469,0 -0.01058,-0.004 -0.02822,-0.004 -0.05644,0 -0.137583,0.0141 -0.07761,0.0141 -0.151694,0.0706 v -0.34572 h 0.740833 q -0.09172,0.15875 -0.15875,0.32102 -0.0635,0.15875 -0.105833,0.31045 -0.03881,0.14817 -0.05997,0.28222 -0.01764,0.13053 -0.01764,0.23636 0,0.10584 0.02117,0.254 0.02117,0.14817 0.07761,0.30692 0.05997,0.15522 0.15875,0.29633 0.102306,0.14111 0.264584,0.22931 l 0.105833,-0.0776 q -0.0635,-0.11995 -0.09878,-0.22931 -0.03528,-0.11289 -0.05292,-0.21167 -0.01411,-0.0988 -0.01764,-0.17991 -0.0035,-0.0847 -0.0035,-0.1517 0,-0.10936 0.02822,-0.24694 0.02822,-0.13758 0.08114,-0.28575 0.05292,-0.14817 0.127,-0.29986 0.07761,-0.1517 0.172861,-0.29634 -0.134056,0 -0.22225,0.0212 -0.08467,0.0212 -0.144639,0.06 v -0.33866 h 0.762 q -0.0635,0.0882 -0.127,0.20108 -0.05997,0.10936 -0.105833,0.23989 -0.04586,0.127 -0.07408,0.27164 -0.02822,0.14464 -0.02822,0.29633 0,0.25753 0.04586,0.45861 0.04586,0.19756 0.127,0.34925 0.08114,0.1517 0.1905,0.26106 0.109361,0.10936 0.232834,0.18697 v -2.26483 h 0.529166 v 2.12019 q 0,0.0247 -0.03528,0.0706 -0.03528,0.0423 -0.09172,0.0988 -0.05292,0.0565 -0.127,0.12348 -0.07055,0.0635 -0.144639,0.127 -0.176389,0.14816 -0.398639,0.32455 -0.172861,-0.13405 -0.296333,-0.26458 -0.123472,-0.13053 -0.211666,-0.254 z"
         style="font-style:normal;font-variant:normal;font-weight:normal;font-stretch:normal;font-family:'Bradley Gratis';-inkscape-font-specification:'Bradley Gratis';text-align:start;text-anchor:start;fill:#00a3f2;fill-opacity:1;stroke-width:0.26458332"
         id="path4354" />
      <path
         d="m 58.105722,147.35705 v -0.87842 h -0.416278 q -0.0035,0.23636 -0.01411,0.4692 -0.0071,0.2293 -0.01764,0.40922 z m 0.719667,-1.03011 q -0.03881,0.0282 -0.07408,0.0705 -0.03175,0.0423 -0.05644,0.0917 -0.02117,0.0459 -0.03528,0.0917 -0.01411,0.0423 -0.01411,0.0741 v 2.39889 h -0.53975 v -1.32997 H 57.633 q -0.0035,0.127 -0.03528,0.27869 -0.03175,0.14817 -0.08819,0.29986 -0.05292,0.14817 -0.127,0.28928 -0.07056,0.13758 -0.162278,0.24342 -0.08819,0.10583 -0.1905,0.16933 -0.09878,0.0635 -0.208139,0.0635 -0.07056,0 -0.123472,-0.0423 -0.04939,-0.0423 -0.04939,-0.11995 0,-0.0494 0.03175,-0.0705 0.03175,-0.0247 0.06703,-0.0247 0.03175,0 0.04939,0.0106 0.01764,0.007 0.03175,0.0212 0.01764,0.0106 0.0388,0.0212 0.02117,0.007 0.05997,0.007 0.0635,0 0.102306,-0.0635 0.03881,-0.067 0.0635,-0.17638 0.02469,-0.11289 0.03528,-0.25753 0.01411,-0.14817 0.02117,-0.31045 0.0071,-0.16227 0.01764,-0.32808 0.01058,-0.16933 0.02822,-0.32456 0.02117,-0.18344 0.0635,-0.33513 0.04586,-0.1517 0.09525,-0.26812 0.04939,-0.11641 0.09878,-0.19755 0.04939,-0.0811 0.08467,-0.13053 h -0.07761 q -0.06703,0 -0.123472,0.0212 -0.05644,0.0176 -0.102306,0.0423 -0.04233,0.0212 -0.07761,0.0423 -0.03175,0.0176 -0.05645,0.0176 -0.05997,0 -0.08819,-0.0423 -0.02822,-0.0423 -0.02822,-0.0952 0,-0.0494 0.05292,-0.0917 0.05644,-0.0459 0.155223,-0.0459 z"
         style="font-style:normal;font-variant:normal;font-weight:normal;font-stretch:normal;font-family:'Bradley Gratis';-inkscape-font-specification:'Bradley Gratis';text-align:start;text-anchor:start;fill:#00a3f2;fill-opacity:1;stroke-width:0.26458332"
         id="path4356" />
      <path
         d="m 59.605579,149.17738 q -0.08114,-0.0811 -0.186972,-0.15875 -0.102305,-0.0776 -0.201083,-0.13758 -0.09525,-0.06 -0.169333,-0.10231 -0.07056,-0.0423 -0.08114,-0.0529 0.03528,-0.0423 0.08819,-0.11642 0.05292,-0.0776 0.102306,-0.1517 0.05292,-0.0741 0.09172,-0.13052 0.04233,-0.06 0.05292,-0.0706 0.04939,0.0317 0.134055,0.0882 0.0882,0.0529 0.172861,0.11288 0.08819,0.06 0.15875,0.10937 0.07056,0.0494 0.09172,0.0705 0.04939,-0.0282 0.08114,-0.0741 0.03528,-0.0459 0.03528,-0.14817 0,-0.0882 -0.07408,-0.18697 -0.07056,-0.0988 -0.176389,-0.20814 -0.105833,-0.10936 -0.232833,-0.22931 -0.127,-0.11994 -0.232834,-0.24694 -0.105833,-0.127 -0.179916,-0.25753 -0.07056,-0.13053 -0.07056,-0.26811 0,-0.0988 0.04939,-0.18344 0.05292,-0.0882 0.130528,-0.16228 0.07761,-0.0776 0.169333,-0.13758 0.09525,-0.0635 0.179917,-0.11642 0.08819,-0.0564 0.155222,-0.0988 0.06703,-0.0459 0.09525,-0.0811 0.02117,0.0176 0.09172,0.0882 0.07408,0.067 0.15875,0.14464 0.08467,0.0776 0.15875,0.13758 0.07761,0.06 0.102306,0.06 -0.03528,0.0282 -0.0882,0.0847 -0.04939,0.0529 -0.102305,0.11289 -0.04939,0.06 -0.09172,0.11641 -0.03881,0.0529 -0.05644,0.0811 -0.08114,-0.0353 -0.162278,-0.10583 -0.08114,-0.0706 -0.148166,-0.13758 -0.06703,-0.067 -0.112889,-0.11642 -0.04586,-0.0529 -0.05997,-0.0529 -0.02822,0 -0.04939,0.0318 -0.01764,0.0282 -0.01764,0.067 0,0.0847 0.07408,0.17992 0.07761,0.0952 0.186972,0.20461 0.112889,0.10583 0.243417,0.22578 0.134055,0.11641 0.243416,0.24341 0.112889,0.127 0.186973,0.26459 0.07761,0.13405 0.07761,0.27516 0,0.127 -0.09525,0.26811 -0.09525,0.14111 -0.229306,0.28223 -0.130527,0.13758 -0.268111,0.26458 -0.137583,0.12347 -0.225778,0.21872 z"
         style="font-style:normal;font-variant:normal;font-weight:normal;font-stretch:normal;font-family:'Bradley Gratis';-inkscape-font-specification:'Bradley Gratis';text-align:start;text-anchor:start;fill:#00a3f2;fill-opacity:1;stroke-width:0.26458332"
         id="path4358" />
      <path
         d="m 62.090567,148.57766 q 0,0.13758 -0.05644,0.23989 -0.05645,0.0988 -0.148167,0.16228 -0.08819,0.0635 -0.197555,0.0953 -0.109362,0.0317 -0.215195,0.0317 -0.165805,0 -0.324555,-0.0811 -0.15875,-0.0811 -0.28575,-0.21873 -0.127,-0.14111 -0.204611,-0.32808 -0.07761,-0.1905 -0.07761,-0.40922 0,-0.39158 0.179917,-0.72672 0.179917,-0.33867 0.500944,-0.61384 -0.02822,-0.004 -0.05292,-0.004 -0.02117,-0.004 -0.04586,-0.004 -0.08467,0 -0.179917,0.0282 -0.09525,0.0282 -0.179917,0.0741 -0.08467,0.0423 -0.155222,0.0952 -0.06703,0.0529 -0.102305,0.0988 0.02822,-0.13758 0.105833,-0.27164 0.07761,-0.13405 0.194028,-0.23636 0.116416,-0.1023 0.268111,-0.1658 0.151694,-0.0635 0.331611,-0.0635 0.09172,0 0.194028,0.0282 0.102305,0.0282 0.194027,0.0741 0.09525,0.0423 0.169334,0.0953 0.07408,0.0529 0.112889,0.10231 l -0.289278,0.44097 q -0.176389,-0.17286 -0.381,-0.24695 -0.04586,0.0741 -0.09525,0.17639 -0.04939,0.0988 -0.09172,0.22578 -0.03881,0.127 -0.06703,0.28222 -0.0247,0.1517 -0.0247,0.33161 0,0.16934 0.0247,0.29987 0.02822,0.13052 0.07055,0.22577 0.04233,0.0952 0.09525,0.15875 0.05645,0.0635 0.112889,0.10584 0.134056,0.0953 0.306917,0.10583 0.07056,0 0.162278,-0.0282 0.09525,-0.0318 0.151694,-0.0811 z"
         style="font-style:normal;font-variant:normal;font-weight:normal;font-stretch:normal;font-family:'Bradley Gratis';-inkscape-font-specification:'Bradley Gratis';text-align:start;text-anchor:start;fill:#00a3f2;fill-opacity:1;stroke-width:0.26458332"
         id="path4360" />
      <path
         d="m 63.858812,146.32694 v 0.381 q -0.03881,-0.0353 -0.102306,-0.0776 -0.05997,-0.0423 -0.130528,-0.0741 -0.06703,-0.0353 -0.134055,-0.0564 -0.06703,-0.0247 -0.112889,-0.0247 -0.08467,0 -0.172861,0.067 -0.08819,0.067 -0.144639,0.17992 -0.05645,0.10936 -0.07408,0.28928 -0.01411,0.17638 -0.01411,0.45508 h 0.903111 l -0.179916,0.40217 q -0.03528,-0.0529 -0.08467,-0.0706 -0.04586,-0.0212 -0.08467,-0.0212 h -0.553861 q 0,0.20109 0.0071,0.39511 0.0071,0.1905 0.04586,0.3422 0.04233,0.15169 0.127,0.24694 0.08467,0.0917 0.243417,0.0917 0.08467,0 0.165805,-0.0318 0.08467,-0.0317 0.155222,-0.0776 0.07056,-0.0494 0.123473,-0.1023 0.05644,-0.0529 0.08819,-0.0953 v 0.508 h -0.47625 q -0.342194,0 -0.553861,-0.11995 -0.211667,-0.12347 -0.331611,-0.32808 -0.116417,-0.20814 -0.15875,-0.47978 -0.03881,-0.27164 -0.03881,-0.56797 0,-0.0741 0.01058,-0.19403 0.01058,-0.12347 0.04586,-0.25752 0.03528,-0.13759 0.102305,-0.27517 0.06703,-0.14111 0.179917,-0.25047 0.116417,-0.11289 0.28575,-0.18345 0.169333,-0.0705 0.409222,-0.0705 z"
         style="font-style:normal;font-variant:normal;font-weight:normal;font-stretch:normal;font-family:'Bradley Gratis';-inkscape-font-specification:'Bradley Gratis';text-align:start;text-anchor:start;fill:#00a3f2;fill-opacity:1;stroke-width:0.26458332"
         id="path4362" />
      <path
         d="m 65.137741,147.02191 q -0.08819,-0.21167 -0.151695,-0.35278 -0.0635,-0.14111 -0.09878,-0.14111 -0.03881,0 -0.05292,0.0353 -0.01058,0.0317 -0.01058,0.0564 v 1.91206 q 0,0.0776 -0.04233,0.16228 -0.04233,0.0847 -0.112889,0.14816 0.130528,0 0.232834,-0.0635 0.102305,-0.067 0.211666,-0.14464 0.112889,-0.0811 0.250473,-0.14464 0.137583,-0.067 0.342194,-0.067 v 0.63147 h -1.594555 q 0.04586,-0.067 0.07761,-0.127 0.03528,-0.06 0.05644,-0.11995 0.02117,-0.06 0.03175,-0.127 0.01058,-0.067 0.01058,-0.14816 v -1.66864 q 0,-0.11289 -0.04233,-0.18345 -0.04233,-0.0741 -0.05997,-0.1023 0.01411,-0.004 0.07055,-0.0247 0.05997,-0.0247 0.144639,-0.0564 0.08467,-0.0318 0.186973,-0.067 0.102305,-0.0353 0.201083,-0.0635 0.09878,-0.0317 0.186972,-0.0494 0.08819,-0.0212 0.144639,-0.0212 0.08819,0 0.165806,0.0494 0.07761,0.0494 0.141111,0.12347 0.0635,0.0741 0.109361,0.1658 0.04586,0.0882 0.07408,0.16581 z"
         style="font-style:normal;font-variant:normal;font-weight:normal;font-stretch:normal;font-family:'Bradley Gratis';-inkscape-font-specification:'Bradley Gratis';text-align:start;text-anchor:start;fill:#00a3f2;fill-opacity:1;stroke-width:0.26458332"
         id="path4364" />
      <path
         d="m 67.317908,147.35705 v -0.87842 H 66.90163 q -0.0035,0.23636 -0.01411,0.4692 -0.0071,0.2293 -0.01764,0.40922 z m 0.719667,-1.03011 q -0.03881,0.0282 -0.07408,0.0705 -0.03175,0.0423 -0.05644,0.0917 -0.02117,0.0459 -0.03528,0.0917 -0.01411,0.0423 -0.01411,0.0741 v 2.39889 h -0.53975 v -1.32997 h -0.472722 q -0.0035,0.127 -0.03528,0.27869 -0.03175,0.14817 -0.08819,0.29986 -0.05292,0.14817 -0.127,0.28928 -0.07056,0.13758 -0.162278,0.24342 -0.08819,0.10583 -0.1905,0.16933 -0.09878,0.0635 -0.208139,0.0635 -0.07056,0 -0.123472,-0.0423 -0.04939,-0.0423 -0.04939,-0.11995 0,-0.0494 0.03175,-0.0705 0.03175,-0.0247 0.06703,-0.0247 0.03175,0 0.04939,0.0106 0.01764,0.007 0.03175,0.0212 0.01764,0.0106 0.03881,0.0212 0.02117,0.007 0.05997,0.007 0.0635,0 0.102306,-0.0635 0.03881,-0.067 0.0635,-0.17638 0.02469,-0.11289 0.03528,-0.25753 0.01411,-0.14817 0.02117,-0.31045 0.0071,-0.16227 0.01764,-0.32808 0.01058,-0.16933 0.02822,-0.32456 0.02117,-0.18344 0.0635,-0.33513 0.04586,-0.1517 0.09525,-0.26812 0.04939,-0.11641 0.09878,-0.19755 0.04939,-0.0811 0.08467,-0.13053 h -0.07761 q -0.06703,0 -0.123473,0.0212 -0.05644,0.0176 -0.102305,0.0423 -0.04233,0.0212 -0.07761,0.0423 -0.03175,0.0176 -0.05645,0.0176 -0.05997,0 -0.08819,-0.0423 -0.02822,-0.0423 -0.02822,-0.0952 0,-0.0494 0.05292,-0.0917 0.05644,-0.0459 0.155223,-0.0459 z"
         style="font-style:normal;font-variant:normal;font-weight:normal;font-stretch:normal;font-family:'Bradley Gratis';-inkscape-font-specification:'Bradley Gratis';text-align:start;text-anchor:start;fill:#00a3f2;fill-opacity:1;stroke-width:0.26458332"
         id="path4366" />
      <path
         d="m 68.337987,149.05391 v -2.4377 q 0,-0.0988 -0.04233,-0.1658 -0.04233,-0.0706 -0.08467,-0.12347 h 0.684388 v 0.35983 l 0.391584,-0.45508 q 0.179916,0.16227 0.296333,0.32455 0.116417,0.15875 0.183445,0.32103 0.06703,0.15875 0.09172,0.32456 0.02469,0.16227 0.02469,0.33513 0,0.16934 -0.02822,0.32456 -0.02469,0.15169 -0.07408,0.29986 -0.04939,0.14817 -0.119945,0.29986 -0.06703,0.1517 -0.148166,0.3175 h 0.127 q 0.04586,0 0.09525,-0.0317 0.04939,-0.0318 0.09878,-0.0318 v 0.33867 h -0.684389 q 0.09525,-0.19403 0.151695,-0.34925 0.05997,-0.15522 0.09172,-0.29633 0.03175,-0.14112 0.04233,-0.27517 0.01058,-0.13406 0.01058,-0.28575 0,-0.1517 -0.05292,-0.31397 -0.04939,-0.16581 -0.123472,-0.30339 -0.07408,-0.13759 -0.15875,-0.22578 -0.08114,-0.0882 -0.148167,-0.0882 -0.04233,0 -0.06703,0.0212 v 2.11667 z"
         style="font-style:normal;font-variant:normal;font-weight:normal;font-stretch:normal;font-family:'Bradley Gratis';-inkscape-font-specification:'Bradley Gratis';text-align:start;text-anchor:start;fill:#00a3f2;fill-opacity:1;stroke-width:0.26458332"
         id="path4368" />
      <path
         d="m 70.226891,146.57388 q -0.09172,-0.0388 -0.127,-0.0952 -0.03528,-0.0564 -0.03528,-0.10583 0,-0.0423 0.02822,-0.0529 0.02822,0.0176 0.07761,0.0247 0.04939,0.007 0.112889,0.007 0.03175,0 0.0882,-0.0106 0.05997,-0.0106 0.130528,-0.0212 0.07055,-0.0106 0.144638,-0.0212 0.07761,-0.0106 0.144639,-0.0106 0.162278,0 0.331611,0.0847 0.169334,0.0811 0.303389,0.254 0.134056,0.16933 0.218722,0.43391 0.08819,0.26106 0.08819,0.62442 0,0.30692 -0.05292,0.52917 -0.05292,0.22225 -0.134055,0.37747 -0.08114,0.15522 -0.179917,0.25047 -0.09878,0.0917 -0.194028,0.14464 -0.09172,0.0494 -0.169333,0.067 -0.07408,0.0176 -0.109361,0.0176 -0.05292,0 -0.112889,-0.0141 -0.05997,-0.0141 -0.119945,-0.0318 -0.05644,-0.0176 -0.109361,-0.0317 -0.04939,-0.0141 -0.08467,-0.0141 -0.03881,0 -0.07056,0.0141 -0.03175,0.0106 -0.06703,0.0247 -0.03175,0.0106 -0.07055,0.0247 -0.03881,0.0106 -0.08819,0.0106 -0.01764,0 -0.0388,-0.004 -0.01764,-0.004 -0.03528,-0.0106 -0.01764,-0.007 -0.03528,-0.0176 0.02822,-0.0176 0.05644,-0.06 0.02822,-0.0459 0.05292,-0.0952 0.02822,-0.0529 0.05644,-0.11642 z m 0.518583,2.10256 q 0,0.0741 0.02469,0.11641 0.02822,0.0388 0.05997,0.0565 0.0388,0.0212 0.08467,0.0247 0.08114,0 0.141112,-0.10936 0.0635,-0.10936 0.0635,-0.27869 v -1.5487 q 0,-0.1658 -0.03175,-0.25753 -0.03175,-0.0917 -0.07408,-0.13405 -0.04233,-0.0423 -0.08467,-0.0494 -0.04233,-0.0106 -0.06703,-0.0106 -0.04233,0 -0.08114,0.0564 -0.03528,0.0565 -0.03528,0.14817 z"
         style="font-style:normal;font-variant:normal;font-weight:normal;font-stretch:normal;font-family:'Bradley Gratis';-inkscape-font-specification:'Bradley Gratis';text-align:start;text-anchor:start;fill:#00a3f2;fill-opacity:1;stroke-width:0.26458332"
         id="path4370" />
    </g>
    <g
       style="font-style:normal;font-variant:normal;font-weight:bold;font-stretch:normal;font-size:3.52777767px;line-height:1.25;font-family:Consolas;-inkscape-font-specification:'Consolas Bold';text-align:center;letter-spacing:0px;word-spacing:0px;text-anchor:middle;fill:#ffffff;fill-opacity:1;stroke:none;stroke-width:0.26458332"
       id="text6637" />
    <g
       style="font-style:normal;font-variant:normal;font-weight:bold;font-stretch:normal;font-size:13.33333302px;line-height:1.25;font-family:Consolas;-inkscape-font-specification:'Consolas Bold';text-align:center;letter-spacing:0px;word-spacing:0px;text-anchor:middle;fill:#ffffff;fill-opacity:1;stroke:none"
       id="flowRoot1051" />
    <g
       aria-label="OUT"
       style="font-style:normal;font-variant:normal;font-weight:bold;font-stretch:normal;font-size:3.52777767px;line-height:1.25;font-family:Homenaje;-inkscape-font-specification:'Homenaje Bold';text-align:center;letter-spacing:0px;word-spacing:0px;text-anchor:middle;fill:#ffffff;fill-opacity:1;stroke:none;stroke-width:0.26458332"
       id="text307-7">
      <path
         d="m 56.335556,135.86776 q 0,0.23989 -0.138289,0.37535 -0.138289,0.13265 -0.403578,0.13265 -0.262466,0 -0.400755,-0.13265 -0.138289,-0.13546 -0.138289,-0.37535 v -0.99907 q 0,-0.23989 0.138289,-0.37253 0.138289,-0.13547 0.400755,-0.13547 0.265289,0 0.403578,0.13547 0.138289,0.13264 0.138289,0.37253 z m -0.832556,0.048 q 0,0.12982 0.08185,0.2032 0.08467,0.0705 0.208844,0.0705 0.124178,0 0.208845,-0.0705 0.08467,-0.0734 0.08467,-0.2032 v -1.09503 q 0,-0.12982 -0.08467,-0.20037 -0.08467,-0.0734 -0.208845,-0.0734 -0.124177,0 -0.208844,0.0734 -0.08185,0.0705 -0.08185,0.20037 z"
         style="font-style:normal;font-variant:normal;font-weight:bold;font-stretch:normal;font-size:2.82222223px;font-family:Homenaje;-inkscape-font-specification:'Homenaje Bold';stroke-width:0.26458332"
         id="path4375" />
      <path
         d="m 56.577562,134.38045 h 0.248355 v 1.53529 q 0,0.13546 0.06491,0.20602 0.06773,0.0677 0.186267,0.0677 0.118533,0 0.186267,-0.0677 0.06773,-0.0706 0.06773,-0.20602 v -1.53529 h 0.248355 v 1.48731 q 0,0.508 -0.502355,0.508 -0.499533,0 -0.499533,-0.508 z"
         style="font-style:normal;font-variant:normal;font-weight:bold;font-stretch:normal;font-size:2.82222223px;font-family:Homenaje;-inkscape-font-specification:'Homenaje Bold';stroke-width:0.26458332"
         id="path4377" />
      <path
         d="m 58.153508,136.356 v -1.78929 h -0.395111 v -0.18626 h 1.038578 v 0.18626 h -0.395111 v 1.78929 z"
         style="font-style:normal;font-variant:normal;font-weight:bold;font-stretch:normal;font-size:2.82222223px;font-family:Homenaje;-inkscape-font-specification:'Homenaje Bold';stroke-width:0.26458332"
         id="path4379" />
    </g>
    <g
       aria-label="FM"
       style="font-style:normal;font-variant:normal;font-weight:bold;font-stretch:normal;font-size:3.52777767px;line-height:1.25;font-family:Homenaje;-inkscape-font-specification:'Homenaje Bold';text-align:center;letter-spacing:0px;word-spacing:0px;text-anchor:middle;fill:#ffffff;fill-opacity:1;stroke:none;stroke-width:0.26458332"
       id="text303-0">
      <path
         d="m 65.573395,84.779739 v -1.975555 h 0.832555 v 0.191911 h -0.5842 v 0.677333 h 0.440267 v 0.191911 H 65.82175 v 0.9144 z"
         style="font-style:normal;font-variant:normal;font-weight:bold;font-stretch:normal;font-size:2.82222223px;font-family:Homenaje;-inkscape-font-specification:'Homenaje Bold';stroke-width:0.26458332"
         id="path4382" />
      <path
         d="m 66.890446,84.779739 h -0.248355 v -1.975555 h 0.375355 l 0.378178,1.1684 h 0.01976 l 0.386644,-1.1684 h 0.361245 v 1.975555 h -0.248356 v -1.679222 l -0.378178,1.154289 h -0.268111 l -0.378178,-1.157111 z"
         style="font-style:normal;font-variant:normal;font-weight:bold;font-stretch:normal;font-size:2.82222223px;font-family:Homenaje;-inkscape-font-specification:'Homenaje Bold';stroke-width:0.26458332"
         id="path4384" />
    </g>
    <g
       aria-label="1V/OCT"
       style="font-style:normal;font-variant:normal;font-weight:bold;font-stretch:normal;font-size:3.52777767px;line-height:1.25;font-family:Homenaje;-inkscape-font-specification:'Homenaje Bold';text-align:center;letter-spacing:0px;word-spacing:0px;text-anchor:middle;fill:#ffffff;fill-opacity:1;stroke:none;stroke-width:0.26458332"
       id="text303-0-2">
      <path
         d="m 43.329347,84.76226 v -1.789288 h -0.245533 v -0.186267 h 0.493889 v 1.975555 z"
         style="font-style:normal;font-variant:normal;font-weight:bold;font-stretch:normal;font-size:2.82222223px;font-family:Homenaje;-inkscape-font-specification:'Homenaje Bold';stroke-width:0.26458332"
         id="path4387" />
      <path
         d="m 44.469304,84.536483 0.389467,-1.749778 h 0.245533 l -0.465666,1.975555 h -0.333023 l -0.474133,-1.975555 h 0.245533 z"
         style="font-style:normal;font-variant:normal;font-weight:bold;font-stretch:normal;font-size:2.82222223px;font-family:Homenaje;-inkscape-font-specification:'Homenaje Bold';stroke-width:0.26458332"
         id="path4389" />
      <path
         d="m 45.495799,84.76226 h -0.245533 l 0.773289,-1.975555 h 0.231422 z"
         style="font-style:normal;font-variant:normal;font-weight:bold;font-stretch:normal;font-size:2.82222223px;font-family:Homenaje;-inkscape-font-specification:'Homenaje Bold';stroke-width:0.26458332"
         id="path4391" />
      <path
         d="m 47.517745,84.274016 q 0,0.239889 -0.138288,0.375356 -0.138289,0.132644 -0.403578,0.132644 -0.262467,0 -0.400756,-0.132644 -0.138289,-0.135467 -0.138289,-0.375356 v -0.999067 q 0,-0.239889 0.138289,-0.372533 0.138289,-0.135467 0.400756,-0.135467 0.265289,0 0.403578,0.135467 0.138288,0.132644 0.138288,0.372533 z m -0.832555,0.04798 q 0,0.129822 0.08184,0.2032 0.08467,0.07055 0.208845,0.07055 0.124178,0 0.208844,-0.07055 0.08467,-0.07338 0.08467,-0.2032 v -1.095022 q 0,-0.129823 -0.08467,-0.200378 -0.08467,-0.07338 -0.208844,-0.07338 -0.124178,0 -0.208845,0.07338 -0.08184,0.07055 -0.08184,0.200378 z"
         style="font-style:normal;font-variant:normal;font-weight:bold;font-stretch:normal;font-size:2.82222223px;font-family:Homenaje;-inkscape-font-specification:'Homenaje Bold';stroke-width:0.26458332"
         id="path4393" />
      <path
         d="m 48.676973,84.575994 v 0.186266 h -0.378177 q -0.256823,0 -0.397934,-0.129822 -0.141111,-0.129822 -0.141111,-0.381 v -0.953911 q 0,-0.251178 0.141111,-0.381 0.141111,-0.129822 0.397934,-0.129822 h 0.378177 v 0.186267 h -0.378177 q -0.129823,0 -0.211667,0.0762 -0.07902,0.07338 -0.07902,0.197555 v 1.055511 q 0,0.124178 0.07902,0.200378 0.08184,0.07338 0.211667,0.07338 z"
         style="font-style:normal;font-variant:normal;font-weight:bold;font-stretch:normal;font-size:2.82222223px;font-family:Homenaje;-inkscape-font-specification:'Homenaje Bold';stroke-width:0.26458332"
         id="path4395" />
      <path
         d="m 49.186869,84.76226 v -1.789288 h -0.395111 v -0.186267 h 1.038578 v 0.186267 h -0.395111 v 1.789288 z"
         style="font-style:normal;font-variant:normal;font-weight:bold;font-stretch:normal;font-size:2.82222223px;font-family:Homenaje;-inkscape-font-specification:'Homenaje Bold';stroke-width:0.26458332"
         id="path4397" />
    </g>
    <g
       aria-label="NOISE"
       style="font-style:normal;font-variant:normal;font-weight:bold;font-stretch:normal;font-size:3.52777767px;line-height:1.25;font-family:Homenaje;-inkscape-font-specification:'Homenaje Bold';text-align:center;letter-spacing:0px;word-spacing:0px;text-anchor:middle;fill:#ffffff;fill-opacity:1;stroke:none;stroke-width:0.26458332"
       id="text307-8">
      <path
         d="m 69.080716,106.37701 h -0.3556 l -0.522111,-1.79494 v 1.79494 h -0.248356 v -1.97556 h 0.414867 l 0.460022,1.70745 v -1.70745 h 0.251178 z"
         style="font-style:normal;font-variant:normal;font-weight:bold;font-stretch:normal;font-size:2.82222223px;font-family:Homenaje;-inkscape-font-specification:'Homenaje Bold';stroke-width:0.26458332"
         id="path4400" />
      <path
         d="m 70.467265,105.88876 q 0,0.23989 -0.138289,0.37536 -0.138289,0.13264 -0.403578,0.13264 -0.262467,0 -0.400756,-0.13264 -0.138288,-0.13547 -0.138288,-0.37536 v -0.99906 q 0,-0.23989 0.138288,-0.37254 0.138289,-0.13546 0.400756,-0.13546 0.265289,0 0.403578,0.13546 0.138289,0.13265 0.138289,0.37254 z m -0.832556,0.048 q 0,0.12982 0.08185,0.2032 0.08467,0.0706 0.208844,0.0706 0.124178,0 0.208844,-0.0706 0.08467,-0.0734 0.08467,-0.2032 v -1.09502 q 0,-0.12982 -0.08467,-0.20038 -0.08467,-0.0734 -0.208844,-0.0734 -0.124178,0 -0.208844,0.0734 -0.08185,0.0706 -0.08185,0.20038 z"
         style="font-style:normal;font-variant:normal;font-weight:bold;font-stretch:normal;font-size:2.82222223px;font-family:Homenaje;-inkscape-font-specification:'Homenaje Bold';stroke-width:0.26458332"
         id="path4402" />
      <path
         d="m 70.793937,106.37701 v -1.97556 h 0.248355 v 1.97556 z"
         style="font-style:normal;font-variant:normal;font-weight:bold;font-stretch:normal;font-size:2.82222223px;font-family:Homenaje;-inkscape-font-specification:'Homenaje Bold';stroke-width:0.26458332"
         id="path4404" />
      <path
         d="m 71.729151,106.19074 q 0.160866,0 0.231422,-0.096 0.07338,-0.096 0.07338,-0.22295 0,-0.127 -0.04798,-0.21449 -0.04516,-0.0903 -0.115711,-0.14111 -0.07056,-0.0536 -0.1524,-0.11571 -0.08185,-0.0621 -0.1524,-0.11854 -0.07056,-0.0593 -0.118534,-0.15804 -0.04515,-0.0988 -0.04515,-0.22578 0,-0.22578 0.135467,-0.36124 0.135466,-0.13547 0.375355,-0.13547 h 0.2286 v 0.18627 h -0.217311 q -0.135467,0 -0.206022,0.0875 -0.07056,0.0875 -0.07056,0.18909 0,0.1016 0.04516,0.17497 0.04798,0.0734 0.118533,0.12136 0.07056,0.048 0.1524,0.11289 0.08467,0.0649 0.155222,0.13264 0.07056,0.0649 0.115711,0.1778 0.04798,0.11289 0.04798,0.25682 0,0.26529 -0.1524,0.40076 -0.149578,0.13547 -0.412044,0.13547 h -0.296334 v -0.18627 z"
         style="font-style:normal;font-variant:normal;font-weight:bold;font-stretch:normal;font-size:2.82222223px;font-family:Homenaje;-inkscape-font-specification:'Homenaje Bold';stroke-width:0.26458332"
         id="path4406" />
      <path
         d="m 72.557826,106.37701 v -1.97556 h 0.860777 v 0.19191 h -0.612422 v 0.63218 h 0.496711 v 0.19191 h -0.496711 v 0.76765 h 0.640645 v 0.19191 z"
         style="font-style:normal;font-variant:normal;font-weight:bold;font-stretch:normal;font-size:2.82222223px;font-family:Homenaje;-inkscape-font-specification:'Homenaje Bold';stroke-width:0.26458332"
         id="path4408" />
    </g>
    <g
       aria-label="GLOTTAL STOPPER"
       style="font-style:normal;font-variant:normal;font-weight:bold;font-stretch:normal;font-size:3.52777767px;line-height:1.25;font-family:Homenaje;-inkscape-font-specification:'Homenaje Bold';text-align:center;letter-spacing:0px;word-spacing:0px;text-anchor:middle;fill:#ffffff;fill-opacity:1;stroke:none;stroke-width:0.26458332"
       id="text136-3">
      <path
         d="m 46.633821,58.29546 h -0.686858 q -0.353131,0 -0.547159,-0.178506 -0.194027,-0.178505 -0.194027,-0.523875 v -1.315508 q 0,-0.341489 0.20955,-0.519995 0.20955,-0.178505 0.570441,-0.178505 h 0.570442 v 0.259997 h -0.609247 q -0.178506,0 -0.291042,0.104775 -0.108655,0.100894 -0.108655,0.271639 v 1.447447 q 0,0.174625 0.104775,0.27552 0.104775,0.100894 0.2794,0.100894 h 0.360891 V 56.97219 h -0.34925 v -0.256116 h 0.690739 z"
         style="font-style:normal;font-variant:normal;font-weight:bold;font-stretch:normal;font-size:3.88055563px;font-family:Homenaje;-inkscape-font-specification:'Homenaje Bold';stroke-width:0.26458332"
         id="path4411" />
      <path
         d="m 47.110887,58.29546 v -2.716389 h 0.341489 v 2.460272 h 0.795514 v 0.256117 z"
         style="font-style:normal;font-variant:normal;font-weight:bold;font-stretch:normal;font-size:3.88055563px;font-family:Homenaje;-inkscape-font-specification:'Homenaje Bold';stroke-width:0.26458332"
         id="path4413" />
      <path
         d="m 49.95109,57.624124 q 0,0.329847 -0.190147,0.516114 -0.190148,0.182386 -0.55492,0.182386 -0.360891,0 -0.551039,-0.182386 -0.190147,-0.186267 -0.190147,-0.516114 v -1.373717 q 0,-0.329847 0.190147,-0.512233 0.190148,-0.186267 0.551039,-0.186267 0.364772,0 0.55492,0.186267 0.190147,0.182386 0.190147,0.512233 z m -1.144764,0.06597 q 0,0.178506 0.112536,0.2794 0.116417,0.09701 0.287161,0.09701 0.170745,0 0.287161,-0.09701 0.116417,-0.100894 0.116417,-0.2794 v -1.505656 q 0,-0.178505 -0.116417,-0.275519 -0.116416,-0.100894 -0.287161,-0.100894 -0.170744,0 -0.287161,0.100894 -0.112536,0.09701 -0.112536,0.275519 z"
         style="font-style:normal;font-variant:normal;font-weight:bold;font-stretch:normal;font-size:3.88055563px;font-family:Homenaje;-inkscape-font-specification:'Homenaje Bold';stroke-width:0.26458332"
         id="path4415" />
      <path
         d="m 50.737873,58.29546 v -2.460273 h -0.543278 v -0.256116 h 1.428045 v 0.256116 h -0.543278 v 2.460273 z"
         style="font-style:normal;font-variant:normal;font-weight:bold;font-stretch:normal;font-size:3.88055563px;font-family:Homenaje;-inkscape-font-specification:'Homenaje Bold';stroke-width:0.26458332"
         id="path4417" />
      <path
         d="M 52.321928,58.29546 V 55.835187 H 51.77865 v -0.256116 h 1.428044 v 0.256116 h -0.543277 v 2.460273 z"
         style="font-style:normal;font-variant:normal;font-weight:bold;font-stretch:normal;font-size:3.88055563px;font-family:Homenaje;-inkscape-font-specification:'Homenaje Bold';stroke-width:0.26458332"
         id="path4419" />
      <path
         d="m 53.801511,55.579071 h 0.516114 l 0.589844,2.716389 h -0.318205 l -0.190147,-0.799395 h -0.706261 l -0.174625,0.799395 h -0.329848 z m 0.539397,1.653117 -0.2794,-1.397001 h -0.02716 l -0.28328,1.397001 z"
         style="font-style:normal;font-variant:normal;font-weight:bold;font-stretch:normal;font-size:3.88055563px;font-family:Homenaje;-inkscape-font-specification:'Homenaje Bold';stroke-width:0.26458332"
         id="path4421" />
      <path
         d="m 55.266117,58.29546 v -2.716389 h 0.341489 v 2.460272 h 0.795514 v 0.256117 z"
         style="font-style:normal;font-variant:normal;font-weight:bold;font-stretch:normal;font-size:3.88055563px;font-family:Homenaje;-inkscape-font-specification:'Homenaje Bold';stroke-width:0.26458332"
         id="path4423" />
      <path
         d="m 57.696498,58.039343 q 0.221191,0 0.318205,-0.131939 0.100895,-0.131939 0.100895,-0.306564 0,-0.174625 -0.06597,-0.294922 -0.06209,-0.124178 -0.159102,-0.194028 -0.09701,-0.07373 -0.20955,-0.159103 -0.112537,-0.08537 -0.20955,-0.162983 -0.09701,-0.08149 -0.162984,-0.217311 -0.06209,-0.135819 -0.06209,-0.310444 0,-0.310445 0.186267,-0.496712 0.186267,-0.186266 0.516114,-0.186266 h 0.314325 v 0.256116 h -0.298803 q -0.186267,0 -0.28328,0.120298 -0.09701,0.120297 -0.09701,0.259997 0,0.1397 0.06209,0.240594 0.06597,0.100895 0.162983,0.166864 0.09701,0.06597 0.20955,0.155222 0.116417,0.08925 0.21343,0.182387 0.09701,0.08925 0.159103,0.244475 0.06597,0.155222 0.06597,0.35313 0,0.364772 -0.20955,0.551039 -0.20567,0.186267 -0.566561,0.186267 h -0.407459 v -0.256117 z"
         style="font-style:normal;font-variant:normal;font-weight:bold;font-stretch:normal;font-size:3.88055563px;font-family:Homenaje;-inkscape-font-specification:'Homenaje Bold';stroke-width:0.26458332"
         id="path4425" />
      <path
         d="M 59.173534,58.29546 V 55.835187 H 58.630256 V 55.579071 H 60.0583 v 0.256116 h -0.543277 v 2.460273 z"
         style="font-style:normal;font-variant:normal;font-weight:bold;font-stretch:normal;font-size:3.88055563px;font-family:Homenaje;-inkscape-font-specification:'Homenaje Bold';stroke-width:0.26458332"
         id="path4427" />
      <path
         d="m 61.789816,57.624124 q 0,0.329847 -0.190147,0.516114 -0.190147,0.182386 -0.554919,0.182386 -0.360892,0 -0.551039,-0.182386 -0.190147,-0.186267 -0.190147,-0.516114 v -1.373717 q 0,-0.329847 0.190147,-0.512233 0.190147,-0.186267 0.551039,-0.186267 0.364772,0 0.554919,0.186267 0.190147,0.182386 0.190147,0.512233 z m -1.144763,0.06597 q 0,0.178506 0.112536,0.2794 0.116416,0.09701 0.287161,0.09701 0.170744,0 0.287161,-0.09701 0.116417,-0.100894 0.116417,-0.2794 v -1.505656 q 0,-0.178505 -0.116417,-0.275519 -0.116417,-0.100894 -0.287161,-0.100894 -0.170745,0 -0.287161,0.100894 -0.112536,0.09701 -0.112536,0.275519 z"
         style="font-style:normal;font-variant:normal;font-weight:bold;font-stretch:normal;font-size:3.88055563px;font-family:Homenaje;-inkscape-font-specification:'Homenaje Bold';stroke-width:0.26458332"
         id="path4429" />
      <path
         d="m 62.58048,55.835187 v 1.008945 h 0.248355 q 0.221192,0 0.341489,-0.151342 0.124178,-0.151341 0.124178,-0.391936 0,-0.465667 -0.465667,-0.465667 z m 1.055511,0.465667 q 0,0.376414 -0.205669,0.589845 -0.201789,0.20955 -0.578203,0.20955 H 62.58048 v 1.195211 h -0.341489 v -2.716389 h 0.686858 q 0.710142,0 0.710142,0.721783 z"
         style="font-style:normal;font-variant:normal;font-weight:bold;font-stretch:normal;font-size:3.88055563px;font-family:Homenaje;-inkscape-font-specification:'Homenaje Bold';stroke-width:0.26458332"
         id="path4431" />
      <path
         d="m 64.338857,55.835187 v 1.008945 h 0.248356 q 0.221191,0 0.341488,-0.151342 0.124178,-0.151341 0.124178,-0.391936 0,-0.465667 -0.465666,-0.465667 z m 1.055511,0.465667 q 0,0.376414 -0.205669,0.589845 -0.201789,0.20955 -0.578203,0.20955 h -0.271639 v 1.195211 h -0.341489 v -2.716389 h 0.686858 q 0.710142,0 0.710142,0.721783 z"
         style="font-style:normal;font-variant:normal;font-weight:bold;font-stretch:normal;font-size:3.88055563px;font-family:Homenaje;-inkscape-font-specification:'Homenaje Bold';stroke-width:0.26458332"
         id="path4433" />
      <path
         d="m 65.755745,58.29546 v -2.716389 h 1.18357 v 0.263878 h -0.842081 v 0.869244 h 0.682978 v 0.263878 h -0.682978 v 1.055511 h 0.880886 v 0.263878 z"
         style="font-style:normal;font-variant:normal;font-weight:bold;font-stretch:normal;font-size:3.88055563px;font-family:Homenaje;-inkscape-font-specification:'Homenaje Bold';stroke-width:0.26458332"
         id="path4435" />
      <path
         d="m 67.757079,55.835187 v 1.012825 h 0.27552 q 0.221192,0 0.341489,-0.151341 0.124178,-0.155222 0.124178,-0.395817 0,-0.465667 -0.465667,-0.465667 z m -0.0078,1.268942 v 1.191331 h -0.333727 v -2.716389 h 0.717902 q 0.6985,0 0.6985,0.721783 0,0.271639 -0.104775,0.473428 -0.104775,0.201789 -0.298802,0.2794 l 0.539397,1.241778 h -0.333728 l -0.527756,-1.191331 z"
         style="font-style:normal;font-variant:normal;font-weight:bold;font-stretch:normal;font-size:3.88055563px;font-family:Homenaje;-inkscape-font-specification:'Homenaje Bold';stroke-width:0.26458332"
         id="path4437" />
    </g>
  </g>
</svg>
