<?xml version="1.0" encoding="UTF-8" standalone="no"?>
<!-- Created with Inkscape (http://www.inkscape.org/) -->

<svg
   xmlns:dc="http://purl.org/dc/elements/1.1/"
   xmlns:cc="http://creativecommons.org/ns#"
   xmlns:rdf="http://www.w3.org/1999/02/22-rdf-syntax-ns#"
   xmlns:svg="http://www.w3.org/2000/svg"
   xmlns="http://www.w3.org/2000/svg"
   xmlns:xlink="http://www.w3.org/1999/xlink"
   xmlns:sodipodi="http://sodipodi.sourceforge.net/DTD/sodipodi-0.dtd"
   xmlns:inkscape="http://www.inkscape.org/namespaces/inkscape"
   width="120"
   height="380"
   viewBox="0 0 31.750001 100.54167"
   version="1.1"
   id="svg11003"
   inkscape:version="0.92.2 (5c3e80d, 2017-08-06)"
   sodipodi:docname="EverlastingGlottalStopper.svg">
  <defs
     id="defs10997">
    <linearGradient
       inkscape:collect="always"
       id="linearGradient4682">
      <stop
         style="stop-color:#202022;stop-opacity:1;"
         offset="0"
         id="stop3387" />
      <stop
         style="stop-color:#202025;stop-opacity:1;"
         offset=".3"
         id="stop3388" />
      <stop
         style="stop-color:#08006f;stop-opacity:1;"
         offset="1"
         id="stop3389" />
    </linearGradient>
    <linearGradient
       inkscape:collect="always"
       xlink:href="#linearGradient4682"
       id="linearGradient4684"
       x1="35.219627"
       y1="150.85843"
       x2="35.23983"
       y2="50.163956"
       gradientUnits="userSpaceOnUse"
       gradientTransform="matrix(0.61728112,0,0,1,13.405902,0.07224348)" />
  </defs>
  <sodipodi:namedview
     id="base"
     pagecolor="#ffffff"
     bordercolor="#666666"
     borderopacity="1.0"
     inkscape:pageopacity="0.0"
     inkscape:pageshadow="2"
     inkscape:zoom="4"
     inkscape:cx="-10.70313"
     inkscape:cy="200.72062"
     inkscape:document-units="px"
     inkscape:current-layer="layer1"
     showgrid="false"
     fit-margin-top="0"
     fit-margin-left="0"
     fit-margin-right="0"
     fit-margin-bottom="0"
     inkscape:window-width="3840"
     inkscape:window-height="2115"
     inkscape:window-x="-13"
     inkscape:window-y="-13"
     inkscape:window-maximized="1"
     units="px" />
  <metadata
     id="metadata11000">
    <rdf:RDF>
      <cc:Work
         rdf:about="">
        <dc:format>image/svg+xml</dc:format>
        <dc:type
           rdf:resource="http://purl.org/dc/dcmitype/StillImage" />
        <dc:title></dc:title>
      </cc:Work>
    </rdf:RDF>
  </metadata>
  <g
     inkscape:label="Layer 1"
     inkscape:groupmode="layer"
     id="layer1"
     transform="translate(-35.146312,-50.389004)">
    <path
       inkscape:connector-curvature="0"
       id="path33493"
       d="M 35.146312,50.534566 H 66.896313 V 150.93067 H 35.146312 Z m 0,0"
       style="fill:url(#linearGradient4684);fill-opacity:1;fill-rule:nonzero;stroke:none;stroke-width:0.24714991"
       inkscape:export-filename="/home/vortico/pics/tmp/LFOs.png"
       inkscape:export-xdpi="150.22649"
       inkscape:export-ydpi="150.22649" />
    <g
       style="font-style:normal;font-weight:normal;font-size:3.52777767px;line-height:1.25;font-family:sans-serif;letter-spacing:0px;word-spacing:0px;fill:#ffffff;fill-opacity:1;stroke:none;stroke-width:0.26458332"
       id="text5097" />
    <g
       aria-label="EVERLASTING"
       style="font-style:normal;font-variant:normal;font-weight:bold;font-stretch:normal;font-size:3.52777767px;line-height:1.25;font-family:Homenaje;-inkscape-font-specification:'Homenaje Bold';text-align:center;letter-spacing:0px;word-spacing:0px;text-anchor:middle;fill:#ffffff;fill-opacity:1;stroke:none;stroke-width:0.26458332"
       id="text136">
      <path
         d="m 42.025477,54.283745 v -2.716389 h 1.18357 v 0.263878 h -0.842081 v 0.869244 h 0.682978 v 0.263878 h -0.682978 v 1.055511 h 0.880886 v 0.263878 z"
         style="font-style:normal;font-variant:normal;font-weight:bold;font-stretch:normal;font-size:3.88055563px;font-family:Homenaje;-inkscape-font-specification:'Homenaje Bold';stroke-width:0.26458332"
         id="path5856" />
      <path
         d="m 44.395466,53.9733 0.535517,-2.405944 h 0.337608 l -0.640292,2.716389 H 44.170394 L 43.51846,51.567356 h 0.337609 z"
         style="font-style:normal;font-variant:normal;font-weight:bold;font-stretch:normal;font-size:3.88055563px;font-family:Homenaje;-inkscape-font-specification:'Homenaje Bold';stroke-width:0.26458332"
         id="path5858" />
      <path
         d="m 45.671077,54.283745 v -2.716389 h 1.18357 v 0.263878 h -0.842081 v 0.869244 h 0.682978 v 0.263878 h -0.682978 v 1.055511 h 0.880886 v 0.263878 z"
         style="font-style:normal;font-variant:normal;font-weight:bold;font-stretch:normal;font-size:3.88055563px;font-family:Homenaje;-inkscape-font-specification:'Homenaje Bold';stroke-width:0.26458332"
         id="path5860" />
      <path
         d="m 47.672413,51.823473 v 1.012825 h 0.27552 q 0.221191,0 0.341488,-0.151342 0.124178,-0.155222 0.124178,-0.395817 0,-0.465666 -0.465666,-0.465666 z m -0.0078,1.268941 v 1.191331 h -0.333728 v -2.716389 h 0.717903 q 0.6985,0 0.6985,0.721783 0,0.271639 -0.104775,0.473428 -0.104775,0.201789 -0.298803,0.2794 l 0.539397,1.241778 h -0.333727 l -0.527756,-1.191331 z"
         style="font-style:normal;font-variant:normal;font-weight:bold;font-stretch:normal;font-size:3.88055563px;font-family:Homenaje;-inkscape-font-specification:'Homenaje Bold';stroke-width:0.26458332"
         id="path5862" />
      <path
         d="m 49.240885,54.283745 v -2.716389 h 0.341489 v 2.460272 h 0.795514 v 0.256117 z"
         style="font-style:normal;font-variant:normal;font-weight:bold;font-stretch:normal;font-size:3.88055563px;font-family:Homenaje;-inkscape-font-specification:'Homenaje Bold';stroke-width:0.26458332"
         id="path5864" />
      <path
         d="m 51.11871,51.567356 h 0.516114 l 0.589845,2.716389 H 51.906463 L 51.716316,53.48435 h -0.706261 l -0.174625,0.799395 h -0.329848 z m 0.539398,1.653117 -0.279401,-1.397 h -0.02716 l -0.283281,1.397 z"
         style="font-style:normal;font-variant:normal;font-weight:bold;font-stretch:normal;font-size:3.88055563px;font-family:Homenaje;-inkscape-font-specification:'Homenaje Bold';stroke-width:0.26458332"
         id="path5866" />
      <path
         d="m 52.959731,54.027628 q 0.221192,0 0.318206,-0.131939 0.100894,-0.131939 0.100894,-0.306564 0,-0.174625 -0.06597,-0.294922 -0.06209,-0.124178 -0.159103,-0.194028 -0.09701,-0.07373 -0.20955,-0.159102 -0.112536,-0.08537 -0.20955,-0.162984 -0.09701,-0.08149 -0.162983,-0.217311 -0.06209,-0.135819 -0.06209,-0.310444 0,-0.310445 0.186267,-0.496711 0.186266,-0.186267 0.516113,-0.186267 h 0.314325 v 0.256117 H 53.22749 q -0.186267,0 -0.283281,0.120297 -0.09701,0.120297 -0.09701,0.259997 0,0.1397 0.06209,0.240594 0.06597,0.100895 0.162983,0.166864 0.09701,0.06597 0.20955,0.155223 0.116417,0.08925 0.213431,0.182386 0.09701,0.08925 0.159103,0.244475 0.06597,0.155222 0.06597,0.35313 0,0.364772 -0.20955,0.551039 -0.205669,0.186267 -0.566561,0.186267 h -0.407458 v -0.256117 z"
         style="font-style:normal;font-variant:normal;font-weight:bold;font-stretch:normal;font-size:3.88055563px;font-family:Homenaje;-inkscape-font-specification:'Homenaje Bold';stroke-width:0.26458332"
         id="path5868" />
      <path
         d="M 54.436767,54.283745 V 51.823473 H 53.89349 v -0.256117 h 1.428044 v 0.256117 h -0.543278 v 2.460272 z"
         style="font-style:normal;font-variant:normal;font-weight:bold;font-stretch:normal;font-size:3.88055563px;font-family:Homenaje;-inkscape-font-specification:'Homenaje Bold';stroke-width:0.26458332"
         id="path5870" />
      <path
         d="m 55.683214,54.283745 v -2.716389 h 0.341489 v 2.716389 z"
         style="font-style:normal;font-variant:normal;font-weight:bold;font-stretch:normal;font-size:3.88055563px;font-family:Homenaje;-inkscape-font-specification:'Homenaje Bold';stroke-width:0.26458332"
         id="path5872" />
      <path
         d="m 58.110016,54.283745 h -0.48895 l -0.717903,-2.468034 v 2.468034 h -0.341489 v -2.716389 h 0.570442 l 0.632531,2.347736 v -2.347736 h 0.345369 z"
         style="font-style:normal;font-variant:normal;font-weight:bold;font-stretch:normal;font-size:3.88055563px;font-family:Homenaje;-inkscape-font-specification:'Homenaje Bold';stroke-width:0.26458332"
         id="path5874" />
      <path
         d="m 59.958313,54.283745 h -0.686858 q -0.353131,0 -0.547159,-0.178506 -0.194027,-0.178505 -0.194027,-0.523875 v -1.315508 q 0,-0.341489 0.20955,-0.519995 0.20955,-0.178505 0.570441,-0.178505 h 0.570442 v 0.259997 h -0.609247 q -0.178506,0 -0.291042,0.104775 -0.108655,0.100895 -0.108655,0.271639 v 1.447447 q 0,0.174625 0.104775,0.27552 0.104775,0.100894 0.2794,0.100894 h 0.360891 v -1.067153 h -0.34925 v -0.256116 h 0.690739 z"
         style="font-style:normal;font-variant:normal;font-weight:bold;font-stretch:normal;font-size:3.88055563px;font-family:Homenaje;-inkscape-font-specification:'Homenaje Bold';stroke-width:0.26458332"
         id="path5876" />
    </g>
    <g
       aria-label="FREQUENCY"
       style="font-style:normal;font-variant:normal;font-weight:bold;font-stretch:normal;font-size:3.52777767px;line-height:1.25;font-family:Homenaje;-inkscape-font-specification:'Homenaje Bold';text-align:center;letter-spacing:0px;word-spacing:0px;text-anchor:middle;fill:#ffffff;fill-opacity:1;stroke:none;stroke-width:0.26458332"
       id="text299">
      <path
         d="m 45.597356,64.760818 v -1.975555 h 0.832555 v 0.191911 h -0.5842 v 0.677333 h 0.440267 v 0.191911 h -0.440267 v 0.9144 z"
         style="font-style:normal;font-variant:normal;font-weight:bold;font-stretch:normal;font-size:2.82222223px;font-family:Homenaje;-inkscape-font-specification:'Homenaje Bold';stroke-width:0.26458332"
         id="path5879" />
      <path
         d="m 46.94263,62.97153 v 0.7366 h 0.200377 q 0.160867,0 0.248356,-0.110067 0.09031,-0.112889 0.09031,-0.287867 0,-0.338666 -0.338667,-0.338666 z m -0.0056,0.922866 v 0.866422 h -0.242711 v -1.975555 h 0.522111 q 0.508,0 0.508,0.524933 0,0.197556 -0.0762,0.344311 -0.0762,0.146756 -0.217311,0.2032 l 0.392289,0.903111 H 47.580452 L 47.19663,63.894396 Z"
         style="font-style:normal;font-variant:normal;font-weight:bold;font-stretch:normal;font-size:2.82222223px;font-family:Homenaje;-inkscape-font-specification:'Homenaje Bold';stroke-width:0.26458332"
         id="path5881" />
      <path
         d="m 48.083337,64.760818 v -1.975555 h 0.860777 v 0.191911 h -0.612422 v 0.632178 h 0.496711 v 0.191911 h -0.496711 v 0.767644 h 0.640645 v 0.191911 z"
         style="font-style:normal;font-variant:normal;font-weight:bold;font-stretch:normal;font-size:2.82222223px;font-family:Homenaje;-inkscape-font-specification:'Homenaje Bold';stroke-width:0.26458332"
         id="path5883" />
      <path
         d="m 50.241587,64.278218 q 0,0.445912 -0.403578,0.499534 v 0.05644 q 0,0.121356 0.03104,0.160867 0.03387,0.04233 0.107244,0.04233 h 0.132644 v 0.1778 h -0.166511 q -0.155222,0 -0.245533,-0.09313 -0.09031,-0.09313 -0.09031,-0.251178 v -0.09313 q -0.400756,-0.05362 -0.400756,-0.499534 v -1.004711 q 0,-0.242711 0.127,-0.375355 0.129823,-0.132645 0.389467,-0.132645 0.262467,0 0.389467,0.132645 0.129822,0.132644 0.129822,0.375355 z m -0.7874,0.04798 q 0,0.132645 0.07338,0.2032 0.07338,0.07056 0.194733,0.07056 0.121356,0 0.194733,-0.07056 0.0762,-0.07055 0.0762,-0.2032 V 63.22553 q 0,-0.132645 -0.0762,-0.2032 -0.07338,-0.07056 -0.194733,-0.07056 -0.121356,0 -0.194733,0.07056 -0.07338,0.07056 -0.07338,0.2032 z"
         style="font-style:normal;font-variant:normal;font-weight:bold;font-stretch:normal;font-size:2.82222223px;font-family:Homenaje;-inkscape-font-specification:'Homenaje Bold';stroke-width:0.26458332"
         id="path5885" />
      <path
         d="m 50.484651,62.785263 h 0.248355 v 1.535289 q 0,0.135466 0.06491,0.206022 0.06773,0.06773 0.186266,0.06773 0.118534,0 0.186267,-0.06773 0.06773,-0.07056 0.06773,-0.206022 v -1.535289 h 0.248356 v 1.487311 q 0,0.508 -0.502356,0.508 -0.499533,0 -0.499533,-0.508 z"
         style="font-style:normal;font-variant:normal;font-weight:bold;font-stretch:normal;font-size:2.82222223px;font-family:Homenaje;-inkscape-font-specification:'Homenaje Bold';stroke-width:0.26458332"
         id="path5887" />
      <path
         d="m 51.815064,64.760818 v -1.975555 h 0.860778 v 0.191911 H 52.06342 v 0.632178 h 0.496711 v 0.191911 H 52.06342 v 0.767644 h 0.640644 v 0.191911 z"
         style="font-style:normal;font-variant:normal;font-weight:bold;font-stretch:normal;font-size:2.82222223px;font-family:Homenaje;-inkscape-font-specification:'Homenaje Bold';stroke-width:0.26458332"
         id="path5889" />
      <path
         d="m 54.125714,64.760818 h -0.3556 l -0.522111,-1.794933 v 1.794933 h -0.248356 v -1.975555 h 0.414867 l 0.460022,1.707444 v -1.707444 h 0.251178 z"
         style="font-style:normal;font-variant:normal;font-weight:bold;font-stretch:normal;font-size:2.82222223px;font-family:Homenaje;-inkscape-font-specification:'Homenaje Bold';stroke-width:0.26458332"
         id="path5891" />
      <path
         d="m 55.348574,64.574552 v 0.186266 h -0.378178 q -0.256822,0 -0.397933,-0.129822 -0.141111,-0.129822 -0.141111,-0.381 v -0.953911 q 0,-0.251178 0.141111,-0.381 0.141111,-0.129822 0.397933,-0.129822 h 0.378178 v 0.186267 h -0.378178 q -0.129822,0 -0.211666,0.0762 -0.07902,0.07338 -0.07902,0.197555 v 1.055511 q 0,0.124178 0.07902,0.200378 0.08184,0.07338 0.211666,0.07338 z"
         style="font-style:normal;font-variant:normal;font-weight:bold;font-stretch:normal;font-size:2.82222223px;font-family:Homenaje;-inkscape-font-specification:'Homenaje Bold';stroke-width:0.26458332"
         id="path5893" />
      <path
         d="m 56.033448,64.760818 h -0.248356 v -0.784577 l -0.397933,-1.190978 h 0.248356 l 0.282222,0.934155 0.287866,-0.934155 h 0.248356 l -0.420511,1.190978 z"
         style="font-style:normal;font-variant:normal;font-weight:bold;font-stretch:normal;font-size:2.82222223px;font-family:Homenaje;-inkscape-font-specification:'Homenaje Bold';stroke-width:0.26458332"
         id="path5895" />
    </g>
    <g
       aria-label="OPENING"
       style="font-style:normal;font-variant:normal;font-weight:bold;font-stretch:normal;font-size:3.52777767px;line-height:1.25;font-family:Homenaje;-inkscape-font-specification:'Homenaje Bold';text-align:center;letter-spacing:0px;word-spacing:0px;text-anchor:middle;fill:#ffffff;fill-opacity:1;stroke:none;stroke-width:0.26458332"
       id="text303">
      <path
         d="m 38.117512,96.447547 q 0,0.239888 -0.138289,0.375355 -0.138288,0.132645 -0.403577,0.132645 -0.262467,0 -0.400756,-0.132645 -0.138289,-0.135467 -0.138289,-0.375355 V 95.44848 q 0,-0.239889 0.138289,-0.372533 0.138289,-0.135467 0.400756,-0.135467 0.265289,0 0.403577,0.135467 0.138289,0.132644 0.138289,0.372533 z m -0.832555,0.04798 q 0,0.129823 0.08184,0.2032 0.08467,0.07056 0.208845,0.07056 0.124177,0 0.208844,-0.07056 0.08467,-0.07338 0.08467,-0.2032 v -1.095022 q 0,-0.129822 -0.08467,-0.200378 -0.08467,-0.07338 -0.208844,-0.07338 -0.124178,0 -0.208845,0.07338 -0.08184,0.07056 -0.08184,0.200378 z"
         style="font-style:normal;font-variant:normal;font-weight:bold;font-stretch:normal;font-size:2.82222223px;font-family:Homenaje;-inkscape-font-specification:'Homenaje Bold';stroke-width:0.26458332"
         id="path5898" />
      <path
         d="m 38.69254,95.146502 v 0.733778 h 0.180622 q 0.160867,0 0.248356,-0.110067 0.09031,-0.110066 0.09031,-0.285044 0,-0.338667 -0.338667,-0.338667 z m 0.767644,0.338667 q 0,0.273755 -0.149577,0.428978 -0.146756,0.1524 -0.420511,0.1524 H 38.69254 v 0.869244 h -0.248356 v -1.975556 h 0.499534 q 0.516466,0 0.516466,0.524934 z"
         style="font-style:normal;font-variant:normal;font-weight:bold;font-stretch:normal;font-size:2.82222223px;font-family:Homenaje;-inkscape-font-specification:'Homenaje Bold';stroke-width:0.26458332"
         id="path5900" />
      <path
         d="m 39.723004,96.935791 v -1.975556 h 0.860778 v 0.191912 h -0.612423 v 0.632177 h 0.496712 v 0.191911 h -0.496712 v 0.767645 h 0.640645 v 0.191911 z"
         style="font-style:normal;font-variant:normal;font-weight:bold;font-stretch:normal;font-size:2.82222223px;font-family:Homenaje;-inkscape-font-specification:'Homenaje Bold';stroke-width:0.26458332"
         id="path5902" />
      <path
         d="m 42.033654,96.935791 h -0.3556 l -0.522111,-1.794933 v 1.794933 h -0.248355 v -1.975556 h 0.414866 l 0.460022,1.707445 v -1.707445 h 0.251178 z"
         style="font-style:normal;font-variant:normal;font-weight:bold;font-stretch:normal;font-size:2.82222223px;font-family:Homenaje;-inkscape-font-specification:'Homenaje Bold';stroke-width:0.26458332"
         id="path5904" />
      <path
         d="m 42.423959,96.935791 v -1.975556 h 0.248355 v 1.975556 z"
         style="font-style:normal;font-variant:normal;font-weight:bold;font-stretch:normal;font-size:2.82222223px;font-family:Homenaje;-inkscape-font-specification:'Homenaje Bold';stroke-width:0.26458332"
         id="path5906" />
      <path
         d="m 44.188906,96.935791 h -0.3556 l -0.522111,-1.794933 v 1.794933 h -0.248356 v -1.975556 h 0.414867 l 0.460022,1.707445 v -1.707445 h 0.251178 z"
         style="font-style:normal;font-variant:normal;font-weight:bold;font-stretch:normal;font-size:2.82222223px;font-family:Homenaje;-inkscape-font-specification:'Homenaje Bold';stroke-width:0.26458332"
         id="path5908" />
      <path
         d="m 45.533121,96.935791 h -0.499533 q -0.256822,0 -0.397933,-0.129822 -0.141111,-0.129822 -0.141111,-0.381 v -0.956734 q 0,-0.248355 0.1524,-0.378177 0.1524,-0.129823 0.414866,-0.129823 h 0.414867 v 0.189089 h -0.443089 q -0.129822,0 -0.211667,0.0762 -0.07902,0.07338 -0.07902,0.197556 v 1.052689 q 0,0.127 0.0762,0.200378 0.0762,0.07338 0.2032,0.07338 h 0.262467 v -0.776111 h -0.254 v -0.186266 h 0.502355 z"
         style="font-style:normal;font-variant:normal;font-weight:bold;font-stretch:normal;font-size:2.82222223px;font-family:Homenaje;-inkscape-font-specification:'Homenaje Bold';stroke-width:0.26458332"
         id="path5910" />
    </g>
    <g
       aria-label="CLOSED"
       style="font-style:normal;font-variant:normal;font-weight:bold;font-stretch:normal;font-size:3.52777767px;line-height:1.25;font-family:Homenaje;-inkscape-font-specification:'Homenaje Bold';text-align:center;letter-spacing:0px;word-spacing:0px;text-anchor:middle;fill:#ffffff;fill-opacity:1;stroke:none;stroke-width:0.26458332"
       id="text307">
      <path
         d="m 49.292695,96.749524 v 0.186267 h -0.378177 q -0.256823,0 -0.397934,-0.129822 -0.141111,-0.129822 -0.141111,-0.381 v -0.953911 q 0,-0.251178 0.141111,-0.381 0.141111,-0.129823 0.397934,-0.129823 h 0.378177 v 0.186267 h -0.378177 q -0.129823,0 -0.211667,0.0762 -0.07902,0.07338 -0.07902,0.197556 v 1.055511 q 0,0.124178 0.07902,0.200378 0.08184,0.07338 0.211667,0.07338 z"
         style="font-style:normal;font-variant:normal;font-weight:bold;font-stretch:normal;font-size:2.82222223px;font-family:Homenaje;-inkscape-font-specification:'Homenaje Bold';stroke-width:0.26458332"
         id="path5913" />
      <path
         d="m 49.557058,96.935791 v -1.975556 h 0.248356 v 1.789289 h 0.578555 v 0.186267 z"
         style="font-style:normal;font-variant:normal;font-weight:bold;font-stretch:normal;font-size:2.82222223px;font-family:Homenaje;-inkscape-font-specification:'Homenaje Bold';stroke-width:0.26458332"
         id="path5915" />
      <path
         d="m 51.62266,96.447547 q 0,0.239888 -0.138289,0.375355 -0.138288,0.132645 -0.403577,0.132645 -0.262467,0 -0.400756,-0.132645 -0.138289,-0.135467 -0.138289,-0.375355 V 95.44848 q 0,-0.239889 0.138289,-0.372533 0.138289,-0.135467 0.400756,-0.135467 0.265289,0 0.403577,0.135467 0.138289,0.132644 0.138289,0.372533 z m -0.832555,0.04798 q 0,0.129823 0.08184,0.2032 0.08467,0.07056 0.208845,0.07056 0.124177,0 0.208844,-0.07056 0.08467,-0.07338 0.08467,-0.2032 v -1.095022 q 0,-0.129822 -0.08467,-0.200378 -0.08467,-0.07338 -0.208844,-0.07338 -0.124178,0 -0.208845,0.07338 -0.08184,0.07056 -0.08184,0.200378 z"
         style="font-style:normal;font-variant:normal;font-weight:bold;font-stretch:normal;font-size:2.82222223px;font-family:Homenaje;-inkscape-font-specification:'Homenaje Bold';stroke-width:0.26458332"
         id="path5917" />
      <path
         d="m 52.223088,96.749524 q 0.160867,0 0.231422,-0.09595 0.07338,-0.09596 0.07338,-0.222956 0,-0.127 -0.04798,-0.214489 -0.04515,-0.09031 -0.115711,-0.141111 -0.07055,-0.05362 -0.1524,-0.115711 -0.08184,-0.06209 -0.1524,-0.118533 -0.07055,-0.05927 -0.118533,-0.158045 -0.04516,-0.09878 -0.04516,-0.225777 0,-0.225778 0.135467,-0.361245 0.135467,-0.135467 0.375356,-0.135467 h 0.2286 v 0.186267 h -0.217312 q -0.135466,0 -0.206022,0.08749 -0.07055,0.08749 -0.07055,0.189089 0,0.1016 0.04516,0.174978 0.04798,0.07338 0.118534,0.121355 0.07055,0.04798 0.1524,0.112889 0.08467,0.06491 0.155222,0.132645 0.07055,0.06491 0.115711,0.1778 0.04798,0.112888 0.04798,0.256822 0,0.265289 -0.1524,0.400755 -0.149578,0.135467 -0.412045,0.135467 h -0.296333 v -0.186267 z"
         style="font-style:normal;font-variant:normal;font-weight:bold;font-stretch:normal;font-size:2.82222223px;font-family:Homenaje;-inkscape-font-specification:'Homenaje Bold';stroke-width:0.26458332"
         id="path5919" />
      <path
         d="m 53.051763,96.935791 v -1.975556 h 0.860778 v 0.191912 h -0.612422 v 0.632177 h 0.496711 v 0.191911 h -0.496711 v 0.767645 h 0.640644 v 0.191911 z"
         style="font-style:normal;font-variant:normal;font-weight:bold;font-stretch:normal;font-size:2.82222223px;font-family:Homenaje;-inkscape-font-specification:'Homenaje Bold';stroke-width:0.26458332"
         id="path5921" />
      <path
         d="m 54.50728,96.74388 h 0.239889 q 0.129822,0 0.208845,-0.07338 0.08184,-0.0762 0.08184,-0.200378 v -1.044222 q 0,-0.124178 -0.08184,-0.197555 -0.07902,-0.0762 -0.208845,-0.0762 H 54.50728 Z m -0.251178,0.191911 v -1.975556 h 0.491067 q 0.256822,0 0.397933,0.129823 0.141112,0.129822 0.141112,0.381 v 0.953911 q 0,0.251178 -0.141112,0.381 -0.141111,0.127 -0.397933,0.129822 z"
         style="font-style:normal;font-variant:normal;font-weight:bold;font-stretch:normal;font-size:2.82222223px;font-family:Homenaje;-inkscape-font-specification:'Homenaje Bold';stroke-width:0.26458332"
         id="path5923" />
    </g>
    <g
       style="font-style:normal;font-variant:normal;font-weight:bold;font-stretch:normal;font-size:3.52777767px;line-height:1.25;font-family:Consolas;-inkscape-font-specification:'Consolas Bold';text-align:center;letter-spacing:0px;word-spacing:0px;text-anchor:middle;fill:#ffffff;fill-opacity:1;stroke:none;stroke-width:0.26458332"
       id="text373" />
    <g
       style="font-style:normal;font-variant:normal;font-weight:bold;font-stretch:normal;font-size:13.33333302px;line-height:1.25;font-family:Consolas;-inkscape-font-specification:'Consolas Bold';text-align:center;letter-spacing:0px;word-spacing:0px;text-anchor:middle;fill:#ffffff;fill-opacity:1;stroke:none"
       id="flowRoot250" />
    <g
       style="font-style:normal;font-variant:normal;font-weight:bold;font-stretch:normal;font-size:3.52777767px;line-height:1.25;font-family:Consolas;-inkscape-font-specification:'Consolas Bold';text-align:center;letter-spacing:0px;word-spacing:0px;text-anchor:middle;fill:#ffffff;fill-opacity:1;stroke:none;stroke-width:0.26458332"
       id="text6637" />
    <g
       style="font-style:normal;font-variant:normal;font-weight:bold;font-stretch:normal;font-size:13.33333302px;line-height:1.25;font-family:Consolas;-inkscape-font-specification:'Consolas Bold';text-align:center;letter-spacing:0px;word-spacing:0px;text-anchor:middle;fill:#ffffff;fill-opacity:1;stroke:none"
       id="flowRoot1051" />
    <g
       aria-label="OUT"
       style="font-style:normal;font-variant:normal;font-weight:bold;font-stretch:normal;font-size:3.52777767px;line-height:1.25;font-family:Homenaje;-inkscape-font-specification:'Homenaje Bold';text-align:center;letter-spacing:0px;word-spacing:0px;text-anchor:middle;fill:#ffffff;fill-opacity:1;stroke:none;stroke-width:0.26458332"
       id="text307-7">
      <path
         d="m 50.250141,135.86776 q 0,0.23989 -0.138289,0.37535 -0.138289,0.13265 -0.403578,0.13265 -0.262466,0 -0.400755,-0.13265 -0.138289,-0.13546 -0.138289,-0.37535 v -0.99907 q 0,-0.23989 0.138289,-0.37253 0.138289,-0.13547 0.400755,-0.13547 0.265289,0 0.403578,0.13547 0.138289,0.13264 0.138289,0.37253 z m -0.832555,0.048 q 0,0.12982 0.08184,0.2032 0.08467,0.0705 0.208844,0.0705 0.124178,0 0.208845,-0.0705 0.08467,-0.0734 0.08467,-0.2032 v -1.09503 q 0,-0.12982 -0.08467,-0.20037 -0.08467,-0.0734 -0.208845,-0.0734 -0.124177,0 -0.208844,0.0734 -0.08184,0.0705 -0.08184,0.20037 z"
         style="font-style:normal;font-variant:normal;font-weight:bold;font-stretch:normal;font-size:2.82222223px;font-family:Homenaje;-inkscape-font-specification:'Homenaje Bold';stroke-width:0.26458332"
         id="path5930" />
      <path
         d="m 50.492147,134.38045 h 0.248355 v 1.53529 q 0,0.13546 0.06491,0.20602 0.06773,0.0677 0.186267,0.0677 0.118533,0 0.186267,-0.0677 0.06773,-0.0706 0.06773,-0.20602 v -1.53529 h 0.248356 v 1.48731 q 0,0.508 -0.502356,0.508 -0.499533,0 -0.499533,-0.508 z"
         style="font-style:normal;font-variant:normal;font-weight:bold;font-stretch:normal;font-size:2.82222223px;font-family:Homenaje;-inkscape-font-specification:'Homenaje Bold';stroke-width:0.26458332"
         id="path5932" />
      <path
         d="m 52.068093,136.356 v -1.78929 h -0.395111 v -0.18626 h 1.038578 v 0.18626 h -0.395111 v 1.78929 z"
         style="font-style:normal;font-variant:normal;font-weight:bold;font-stretch:normal;font-size:2.82222223px;font-family:Homenaje;-inkscape-font-specification:'Homenaje Bold';stroke-width:0.26458332"
         id="path5934" />
    </g>
    <g
       aria-label="FM"
       style="font-style:normal;font-variant:normal;font-weight:bold;font-stretch:normal;font-size:3.52777767px;line-height:1.25;font-family:Homenaje;-inkscape-font-specification:'Homenaje Bold';text-align:center;letter-spacing:0px;word-spacing:0px;text-anchor:middle;fill:#ffffff;fill-opacity:1;stroke:none;stroke-width:0.26458332"
       id="text303-0">
      <path
         d="m 59.752556,77.903397 v -1.975556 h 0.832555 v 0.191911 h -0.5842 v 0.677333 h 0.440267 v 0.191912 h -0.440267 v 0.9144 z"
         style="font-style:normal;font-variant:normal;font-weight:bold;font-stretch:normal;font-size:2.82222223px;font-family:Homenaje;-inkscape-font-specification:'Homenaje Bold';stroke-width:0.26458332"
         id="path5937" />
      <path
         d="m 61.069608,77.903397 h -0.248356 v -1.975556 h 0.375356 l 0.378177,1.1684 h 0.01976 l 0.386644,-1.1684 h 0.361245 v 1.975556 h -0.248356 v -1.679223 l -0.378178,1.154289 h -0.268111 l -0.378177,-1.157111 z"
         style="font-style:normal;font-variant:normal;font-weight:bold;font-stretch:normal;font-size:2.82222223px;font-family:Homenaje;-inkscape-font-specification:'Homenaje Bold';stroke-width:0.26458332"
         id="path5939" />
    </g>
    <g
       aria-label="1V/OCT"
       style="font-style:normal;font-variant:normal;font-weight:bold;font-stretch:normal;font-size:3.52777767px;line-height:1.25;font-family:Homenaje;-inkscape-font-specification:'Homenaje Bold';text-align:center;letter-spacing:0px;word-spacing:0px;text-anchor:middle;fill:#ffffff;fill-opacity:1;stroke:none;stroke-width:0.26458332"
       id="text303-0-2">
      <path
         d="m 40.683511,77.885918 v -1.789289 h -0.245533 v -0.186267 h 0.493889 v 1.975556 z"
         style="font-style:normal;font-variant:normal;font-weight:bold;font-stretch:normal;font-size:2.82222223px;font-family:Homenaje;-inkscape-font-specification:'Homenaje Bold';stroke-width:0.26458332"
         id="path5942" />
      <path
         d="m 41.823468,77.66014 0.389467,-1.749778 h 0.245533 l -0.465666,1.975556 H 41.65978 l -0.474134,-1.975556 h 0.245534 z"
         style="font-style:normal;font-variant:normal;font-weight:bold;font-stretch:normal;font-size:2.82222223px;font-family:Homenaje;-inkscape-font-specification:'Homenaje Bold';stroke-width:0.26458332"
         id="path5944" />
      <path
         d="M 42.849964,77.885918 H 42.60443 l 0.773289,-1.975556 h 0.231422 z"
         style="font-style:normal;font-variant:normal;font-weight:bold;font-stretch:normal;font-size:2.82222223px;font-family:Homenaje;-inkscape-font-specification:'Homenaje Bold';stroke-width:0.26458332"
         id="path5946" />
      <path
         d="m 44.87191,77.397673 q 0,0.239889 -0.138289,0.375356 -0.138289,0.132644 -0.403578,0.132644 -0.262467,0 -0.400756,-0.132644 -0.138289,-0.135467 -0.138289,-0.375356 v -0.999066 q 0,-0.239889 0.138289,-0.372534 0.138289,-0.135466 0.400756,-0.135466 0.265289,0 0.403578,0.135466 0.138289,0.132645 0.138289,0.372534 z m -0.832556,0.04798 q 0,0.129822 0.08184,0.2032 0.08467,0.07056 0.208845,0.07056 0.124178,0 0.208844,-0.07056 0.08467,-0.07338 0.08467,-0.2032 v -1.095022 q 0,-0.129822 -0.08467,-0.200378 -0.08467,-0.07338 -0.208844,-0.07338 -0.124178,0 -0.208845,0.07338 -0.08184,0.07056 -0.08184,0.200378 z"
         style="font-style:normal;font-variant:normal;font-weight:bold;font-stretch:normal;font-size:2.82222223px;font-family:Homenaje;-inkscape-font-specification:'Homenaje Bold';stroke-width:0.26458332"
         id="path5948" />
      <path
         d="m 46.031137,77.699651 v 0.186267 H 45.65296 q -0.256823,0 -0.397934,-0.129823 -0.141111,-0.129822 -0.141111,-0.381 v -0.953911 q 0,-0.251177 0.141111,-0.381 0.141111,-0.129822 0.397934,-0.129822 h 0.378177 v 0.186267 H 45.65296 q -0.129823,0 -0.211667,0.0762 -0.07902,0.07338 -0.07902,0.197555 v 1.055511 q 0,0.124178 0.07902,0.200378 0.08184,0.07338 0.211667,0.07338 z"
         style="font-style:normal;font-variant:normal;font-weight:bold;font-stretch:normal;font-size:2.82222223px;font-family:Homenaje;-inkscape-font-specification:'Homenaje Bold';stroke-width:0.26458332"
         id="path5950" />
      <path
         d="M 46.541033,77.885918 V 76.096629 H 46.145922 V 75.910362 H 47.1845 v 0.186267 h -0.395111 v 1.789289 z"
         style="font-style:normal;font-variant:normal;font-weight:bold;font-stretch:normal;font-size:2.82222223px;font-family:Homenaje;-inkscape-font-specification:'Homenaje Bold';stroke-width:0.26458332"
         id="path5952" />
    </g>
    <g
       aria-label="NOISE"
       style="font-style:normal;font-variant:normal;font-weight:bold;font-stretch:normal;font-size:3.52777767px;line-height:1.25;font-family:Homenaje;-inkscape-font-specification:'Homenaje Bold';text-align:center;letter-spacing:0px;word-spacing:0px;text-anchor:middle;fill:#ffffff;fill-opacity:1;stroke:none;stroke-width:0.26458332"
       id="text307-8">
      <path
         d="m 59.555707,96.935913 h -0.3556 L 58.677995,95.14098 v 1.794933 H 58.42964 v -1.975555 h 0.414867 l 0.460022,1.707444 v -1.707444 h 0.251178 z"
         style="font-style:normal;font-variant:normal;font-weight:bold;font-stretch:normal;font-size:2.82222223px;font-family:Homenaje;-inkscape-font-specification:'Homenaje Bold';stroke-width:0.26458332"
         id="path5955" />
      <path
         d="m 60.942256,96.447669 q 0,0.239889 -0.138289,0.375355 -0.138289,0.132645 -0.403578,0.132645 -0.262467,0 -0.400756,-0.132645 -0.138289,-0.135466 -0.138289,-0.375355 v -0.999067 q 0,-0.239889 0.138289,-0.372533 0.138289,-0.135467 0.400756,-0.135467 0.265289,0 0.403578,0.135467 0.138289,0.132644 0.138289,0.372533 z m -0.832556,0.04798 q 0,0.129823 0.08184,0.2032 0.08467,0.07056 0.208845,0.07056 0.124178,0 0.208844,-0.07056 0.08467,-0.07338 0.08467,-0.2032 v -1.095022 q 0,-0.129822 -0.08467,-0.200378 -0.08467,-0.07338 -0.208844,-0.07338 -0.124178,0 -0.208845,0.07338 -0.08184,0.07056 -0.08184,0.200378 z"
         style="font-style:normal;font-variant:normal;font-weight:bold;font-stretch:normal;font-size:2.82222223px;font-family:Homenaje;-inkscape-font-specification:'Homenaje Bold';stroke-width:0.26458332"
         id="path5957" />
      <path
         d="m 61.268928,96.935913 v -1.975555 h 0.248355 v 1.975555 z"
         style="font-style:normal;font-variant:normal;font-weight:bold;font-stretch:normal;font-size:2.82222223px;font-family:Homenaje;-inkscape-font-specification:'Homenaje Bold';stroke-width:0.26458332"
         id="path5959" />
      <path
         d="m 62.204141,96.749646 q 0.160867,0 0.231423,-0.09596 0.07338,-0.09596 0.07338,-0.222956 0,-0.127 -0.04798,-0.214489 -0.04516,-0.09031 -0.115711,-0.141111 -0.07056,-0.05362 -0.1524,-0.115711 -0.08185,-0.06209 -0.1524,-0.118533 -0.07056,-0.05927 -0.118534,-0.158045 -0.04516,-0.09878 -0.04516,-0.225777 0,-0.225778 0.135466,-0.361245 0.135467,-0.135466 0.375356,-0.135466 h 0.2286 v 0.186266 h -0.217311 q -0.135467,0 -0.206022,0.08749 -0.07056,0.08749 -0.07056,0.189089 0,0.1016 0.04516,0.174978 0.04798,0.07338 0.118533,0.121355 0.07055,0.04798 0.1524,0.112889 0.08467,0.06491 0.155222,0.132645 0.07056,0.06491 0.115711,0.1778 0.04798,0.112889 0.04798,0.256822 0,0.265289 -0.1524,0.400755 -0.149578,0.135467 -0.412044,0.135467 h -0.296334 v -0.186267 z"
         style="font-style:normal;font-variant:normal;font-weight:bold;font-stretch:normal;font-size:2.82222223px;font-family:Homenaje;-inkscape-font-specification:'Homenaje Bold';stroke-width:0.26458332"
         id="path5961" />
      <path
         d="m 63.032817,96.935913 v -1.975555 h 0.860777 v 0.191911 h -0.612422 v 0.632177 h 0.496711 v 0.191912 h -0.496711 v 0.767644 h 0.640645 v 0.191911 z"
         style="font-style:normal;font-variant:normal;font-weight:bold;font-stretch:normal;font-size:2.82222223px;font-family:Homenaje;-inkscape-font-specification:'Homenaje Bold';stroke-width:0.26458332"
         id="path5963" />
    </g>
    <g
       aria-label="GLOTTAL STOPPER"
       style="font-style:normal;font-variant:normal;font-weight:bold;font-stretch:normal;font-size:3.52777767px;line-height:1.25;font-family:Homenaje;-inkscape-font-specification:'Homenaje Bold';text-align:center;letter-spacing:0px;word-spacing:0px;text-anchor:middle;fill:#ffffff;fill-opacity:1;stroke:none;stroke-width:0.26458332"
       id="text136-3">
      <path
         d="m 40.543108,58.29546 h -0.686859 q -0.35313,0 -0.547158,-0.178506 -0.194028,-0.178505 -0.194028,-0.523875 v -1.315508 q 0,-0.341489 0.20955,-0.519995 0.20955,-0.178505 0.570442,-0.178505 h 0.570442 v 0.259997 h -0.609248 q -0.178505,0 -0.291041,0.104775 -0.108656,0.100894 -0.108656,0.271639 v 1.447447 q 0,0.174625 0.104775,0.27552 0.104775,0.100894 0.2794,0.100894 h 0.360892 V 56.97219 h -0.34925 v -0.256116 h 0.690739 z"
         style="font-style:normal;font-variant:normal;font-weight:bold;font-stretch:normal;font-size:3.88055563px;font-family:Homenaje;-inkscape-font-specification:'Homenaje Bold';stroke-width:0.26458332"
         id="path5966" />
      <path
         d="m 41.020174,58.29546 v -2.716389 h 0.341488 v 2.460272 h 0.795514 v 0.256117 z"
         style="font-style:normal;font-variant:normal;font-weight:bold;font-stretch:normal;font-size:3.88055563px;font-family:Homenaje;-inkscape-font-specification:'Homenaje Bold';stroke-width:0.26458332"
         id="path5968" />
      <path
         d="m 43.860376,57.624124 q 0,0.329847 -0.190147,0.516114 -0.190147,0.182386 -0.554919,0.182386 -0.360892,0 -0.551039,-0.182386 -0.190147,-0.186267 -0.190147,-0.516114 v -1.373717 q 0,-0.329847 0.190147,-0.512233 0.190147,-0.186267 0.551039,-0.186267 0.364772,0 0.554919,0.186267 0.190147,0.182386 0.190147,0.512233 z m -1.144764,0.06597 q 0,0.178506 0.112537,0.2794 0.116416,0.09701 0.287161,0.09701 0.170744,0 0.287161,-0.09701 0.116417,-0.100894 0.116417,-0.2794 v -1.505656 q 0,-0.178505 -0.116417,-0.275519 -0.116417,-0.100894 -0.287161,-0.100894 -0.170745,0 -0.287161,0.100894 -0.112537,0.09701 -0.112537,0.275519 z"
         style="font-style:normal;font-variant:normal;font-weight:bold;font-stretch:normal;font-size:3.88055563px;font-family:Homenaje;-inkscape-font-specification:'Homenaje Bold';stroke-width:0.26458332"
         id="path5970" />
      <path
         d="m 44.647159,58.29546 v -2.460273 h -0.543277 v -0.256116 h 1.428044 v 0.256116 h -0.543278 v 2.460273 z"
         style="font-style:normal;font-variant:normal;font-weight:bold;font-stretch:normal;font-size:3.88055563px;font-family:Homenaje;-inkscape-font-specification:'Homenaje Bold';stroke-width:0.26458332"
         id="path5972" />
      <path
         d="m 46.231214,58.29546 v -2.460273 h -0.543278 v -0.256116 h 1.428045 v 0.256116 h -0.543278 v 2.460273 z"
         style="font-style:normal;font-variant:normal;font-weight:bold;font-stretch:normal;font-size:3.88055563px;font-family:Homenaje;-inkscape-font-specification:'Homenaje Bold';stroke-width:0.26458332"
         id="path5974" />
      <path
         d="m 47.710798,55.579071 h 0.516113 l 0.589845,2.716389 H 48.49855 L 48.308403,57.496065 H 47.602142 L 47.427517,58.29546 H 47.09767 Z m 0.539397,1.653117 -0.2794,-1.397001 h -0.02716 l -0.283281,1.397001 z"
         style="font-style:normal;font-variant:normal;font-weight:bold;font-stretch:normal;font-size:3.88055563px;font-family:Homenaje;-inkscape-font-specification:'Homenaje Bold';stroke-width:0.26458332"
         id="path5976" />
      <path
         d="m 49.175404,58.29546 v -2.716389 h 0.341489 v 2.460272 h 0.795514 v 0.256117 z"
         style="font-style:normal;font-variant:normal;font-weight:bold;font-stretch:normal;font-size:3.88055563px;font-family:Homenaje;-inkscape-font-specification:'Homenaje Bold';stroke-width:0.26458332"
         id="path5978" />
      <path
         d="m 51.605784,58.039343 q 0.221192,0 0.318206,-0.131939 0.100894,-0.131939 0.100894,-0.306564 0,-0.174625 -0.06597,-0.294922 -0.06209,-0.124178 -0.159103,-0.194028 -0.09701,-0.07373 -0.20955,-0.159103 -0.112536,-0.08537 -0.20955,-0.162983 -0.09701,-0.08149 -0.162983,-0.217311 -0.06209,-0.135819 -0.06209,-0.310444 0,-0.310445 0.186266,-0.496712 0.186267,-0.186266 0.516114,-0.186266 h 0.314325 v 0.256116 h -0.298802 q -0.186267,0 -0.283281,0.120298 -0.09701,0.120297 -0.09701,0.259997 0,0.1397 0.06209,0.240594 0.06597,0.100895 0.162983,0.166864 0.09701,0.06597 0.20955,0.155222 0.116417,0.08925 0.213431,0.182387 0.09701,0.08925 0.159103,0.244475 0.06597,0.155222 0.06597,0.35313 0,0.364772 -0.20955,0.551039 -0.205669,0.186267 -0.566561,0.186267 h -0.407458 v -0.256117 z"
         style="font-style:normal;font-variant:normal;font-weight:bold;font-stretch:normal;font-size:3.88055563px;font-family:Homenaje;-inkscape-font-specification:'Homenaje Bold';stroke-width:0.26458332"
         id="path5980" />
      <path
         d="m 53.08282,58.29546 v -2.460273 h -0.543278 v -0.256116 h 1.428045 v 0.256116 h -0.543278 v 2.460273 z"
         style="font-style:normal;font-variant:normal;font-weight:bold;font-stretch:normal;font-size:3.88055563px;font-family:Homenaje;-inkscape-font-specification:'Homenaje Bold';stroke-width:0.26458332"
         id="path5982" />
      <path
         d="m 55.699103,57.624124 q 0,0.329847 -0.190147,0.516114 -0.190148,0.182386 -0.55492,0.182386 -0.360891,0 -0.551039,-0.182386 -0.190147,-0.186267 -0.190147,-0.516114 v -1.373717 q 0,-0.329847 0.190147,-0.512233 0.190148,-0.186267 0.551039,-0.186267 0.364772,0 0.55492,0.186267 0.190147,0.182386 0.190147,0.512233 z m -1.144764,0.06597 q 0,0.178506 0.112536,0.2794 0.116417,0.09701 0.287161,0.09701 0.170745,0 0.287161,-0.09701 0.116417,-0.100894 0.116417,-0.2794 v -1.505656 q 0,-0.178505 -0.116417,-0.275519 -0.116416,-0.100894 -0.287161,-0.100894 -0.170744,0 -0.287161,0.100894 -0.112536,0.09701 -0.112536,0.275519 z"
         style="font-style:normal;font-variant:normal;font-weight:bold;font-stretch:normal;font-size:3.88055563px;font-family:Homenaje;-inkscape-font-specification:'Homenaje Bold';stroke-width:0.26458332"
         id="path5984" />
      <path
         d="m 56.489766,55.835187 v 1.008945 h 0.248356 q 0.221192,0 0.341489,-0.151342 0.124178,-0.151341 0.124178,-0.391936 0,-0.465667 -0.465667,-0.465667 z m 1.055512,0.465667 q 0,0.376414 -0.20567,0.589845 -0.201789,0.20955 -0.578203,0.20955 h -0.271639 v 1.195211 h -0.341488 v -2.716389 h 0.686858 q 0.710142,0 0.710142,0.721783 z"
         style="font-style:normal;font-variant:normal;font-weight:bold;font-stretch:normal;font-size:3.88055563px;font-family:Homenaje;-inkscape-font-specification:'Homenaje Bold';stroke-width:0.26458332"
         id="path5986" />
      <path
         d="m 58.248143,55.835187 v 1.008945 h 0.248356 q 0.221192,0 0.341489,-0.151342 0.124178,-0.151341 0.124178,-0.391936 0,-0.465667 -0.465667,-0.465667 z m 1.055512,0.465667 q 0,0.376414 -0.20567,0.589845 -0.201789,0.20955 -0.578203,0.20955 h -0.271639 v 1.195211 h -0.341488 v -2.716389 h 0.686858 q 0.710142,0 0.710142,0.721783 z"
         style="font-style:normal;font-variant:normal;font-weight:bold;font-stretch:normal;font-size:3.88055563px;font-family:Homenaje;-inkscape-font-specification:'Homenaje Bold';stroke-width:0.26458332"
         id="path5988" />
      <path
         d="m 59.665032,58.29546 v -2.716389 h 1.183569 v 0.263878 h -0.84208 v 0.869244 h 0.682977 v 0.263878 h -0.682977 v 1.055511 h 0.880886 v 0.263878 z"
         style="font-style:normal;font-variant:normal;font-weight:bold;font-stretch:normal;font-size:3.88055563px;font-family:Homenaje;-inkscape-font-specification:'Homenaje Bold';stroke-width:0.26458332"
         id="path5990" />
      <path
         d="m 61.666366,55.835187 v 1.012825 h 0.275519 q 0.221192,0 0.341489,-0.151341 0.124178,-0.155222 0.124178,-0.395817 0,-0.465667 -0.465667,-0.465667 z m -0.0078,1.268942 v 1.191331 h -0.333728 v -2.716389 h 0.717903 q 0.6985,0 0.6985,0.721783 0,0.271639 -0.104775,0.473428 -0.104775,0.201789 -0.298803,0.2794 l 0.539397,1.241778 h -0.333728 l -0.527755,-1.191331 z"
         style="font-style:normal;font-variant:normal;font-weight:bold;font-stretch:normal;font-size:3.88055563px;font-family:Homenaje;-inkscape-font-specification:'Homenaje Bold';stroke-width:0.26458332"
         id="path5992" />
    </g>
    <g
       aria-label="Frozen Wasteland"
       style="font-style:normal;font-weight:normal;font-size:3.52777767px;line-height:1.25;font-family:sans-serif;letter-spacing:0px;word-spacing:0px;fill:#00a3f2;fill-opacity:1;stroke:none;stroke-width:0.26458332"
       id="text271"
       transform="matrix(0.8830805,0,0,0.8830805,3.3470599,20.502525)">
      <g
         aria-label="FROZEN WASTELAND"
         style="font-style:normal;font-variant:normal;font-weight:bold;font-stretch:normal;font-size:3.52777767px;line-height:1.25;font-family:Consolas;-inkscape-font-specification:'Consolas Bold';text-align:start;letter-spacing:0px;word-spacing:0px;text-anchor:start;fill:#00a3f2;fill-opacity:1;stroke:none;stroke-width:0.26458332"
         id="text3885-7"
         transform="translate(-1.5875001)">
        <path
           d="m 41.150231,146.65677 q 0.119944,-0.11994 0.1905,-0.21166 0.07408,-0.0917 0.112889,-0.16934 0.04233,-0.0776 0.05292,-0.14464 0.01411,-0.0706 0.01411,-0.14816 0,-0.0952 -0.04586,-0.22931 -0.04586,-0.13405 -0.102306,-0.28575 -0.05644,-0.15169 -0.102306,-0.31044 -0.04586,-0.15875 -0.04586,-0.30339 0,-0.0776 0.0247,-0.1517 0.02822,-0.0741 0.06703,-0.14111 0.04233,-0.0705 0.09172,-0.13053 0.04939,-0.0635 0.09878,-0.11288 -0.07056,-0.0141 -0.123473,-0.0212 -0.05292,-0.0106 -0.07761,-0.0106 -0.130528,0 -0.22225,0.0705 -0.08819,0.067 -0.1905,0.16933 0,-0.11994 0.03528,-0.24694 0.03881,-0.13053 0.116417,-0.23636 0.07761,-0.10583 0.194027,-0.17286 0.119945,-0.067 0.282223,-0.067 0.112889,0 0.208139,0.0176 0.09878,0.0141 0.179916,0.0353 0.08114,0.0212 0.148167,0.0388 0.06703,0.0141 0.119944,0.0141 0.08114,0 0.141111,-0.0212 0.0635,-0.0247 0.123473,-0.0847 0,0.0776 -0.03175,0.17639 -0.02822,0.0988 -0.08819,0.1905 -0.05644,0.0882 -0.148167,0.15169 -0.09172,0.06 -0.211666,0.06 -0.05997,0 -0.137584,-0.007 -0.07408,-0.0106 -0.155222,-0.0247 -0.0071,0.0247 -0.01058,0.0459 -0.0035,0.0212 -0.0071,0.0388 -0.0035,0.0212 -0.0035,0.0388 0,0.0776 0.01058,0.15169 0.01411,0.0706 0.03881,0.14464 h 0.712611 l -0.08114,0.23989 q -0.01058,0.0459 -0.01411,0.067 -0.0035,0.0212 -0.01058,0.067 l -0.130528,-0.0917 h -0.363361 q 0.07761,0.17639 0.144639,0.35984 0.06703,0.17991 0.06703,0.38452 0,0.18345 -0.07408,0.3422 -0.07408,0.15522 -0.197556,0.27164 -0.119944,0.11641 -0.278694,0.17991 -0.155222,0.067 -0.321028,0.067 z"
           style="font-style:normal;font-variant:normal;font-weight:normal;font-stretch:normal;font-family:'Bradley Gratis';-inkscape-font-specification:'Bradley Gratis';text-align:start;text-anchor:start;fill:#00a3f2;fill-opacity:1;stroke-width:0.26458332"
           id="path20360"
           inkscape:connector-curvature="0" />
        <path
           d="m 43.22032,144.92816 q 0.07055,-0.0423 0.137583,-0.0988 0.07056,-0.0564 0.123472,-0.127 0.05645,-0.0705 0.08819,-0.16227 0.03528,-0.0952 0.03528,-0.21167 0,-0.0988 -0.03881,-0.16581 -0.03528,-0.0705 -0.08467,-0.11289 -0.04939,-0.0423 -0.09878,-0.06 -0.04586,-0.0176 -0.07056,-0.0176 -0.02822,0 -0.05292,0.0106 -0.02117,0.0106 -0.0388,0.0247 z m -0.518583,-0.94192 q -0.112889,-0.0635 -0.112889,-0.23636 0.03175,0.0318 0.112889,0.0565 0.08114,0.0212 0.172861,0.0212 0.04586,0 0.130527,-0.0106 0.08467,-0.0141 0.172862,-0.0282 0.09172,-0.0141 0.172861,-0.0247 0.08467,-0.0141 0.130527,-0.0141 0.116417,0 0.232834,0.0353 0.116416,0.0353 0.215194,0.11995 0.09878,0.0847 0.165806,0.2293 0.07056,0.14111 0.09172,0.35983 l -0.627944,0.4445 q 0.07055,0.0282 0.15875,0.0952 0.08819,0.067 0.165805,0.18698 0.08114,0.11994 0.134056,0.30691 0.05292,0.18345 0.05292,0.45156 0,0.23283 0.02117,0.37747 0.02117,0.14464 0.05292,0.23283 0.03175,0.0882 0.06703,0.13053 0.03881,0.0459 0.07056,0.0776 -0.155222,0 -0.275167,-0.0917 -0.119944,-0.0882 -0.211666,-0.23283 -0.09172,-0.14464 -0.162278,-0.32809 -0.06703,-0.18344 -0.123472,-0.37041 -0.05644,-0.18697 -0.105834,-0.35984 -0.04586,-0.17286 -0.09525,-0.29986 -0.02469,0.0176 -0.04939,0.0353 -0.02117,0.0141 -0.0388,0.0318 v 1.31939 h -0.518583 z"
           style="font-style:normal;font-variant:normal;font-weight:normal;font-stretch:normal;font-family:'Bradley Gratis';-inkscape-font-specification:'Bradley Gratis';text-align:start;text-anchor:start;fill:#00a3f2;fill-opacity:1;stroke-width:0.26458332"
           id="path20362"
           inkscape:connector-curvature="0" />
        <path
           d="m 45.108067,146.03588 q 0,0.11995 0.01411,0.18698 0.01764,0.067 0.04233,0.1023 0.02822,0.0317 0.0635,0.0388 0.03528,0.007 0.07056,0.007 0.07055,0 0.116416,-0.0952 0.04586,-0.0988 0.04586,-0.29986 v -1.53105 q 0,-0.15875 -0.01764,-0.25753 -0.01411,-0.10231 -0.04233,-0.15522 -0.02469,-0.0564 -0.05997,-0.0776 -0.03175,-0.0212 -0.0635,-0.0212 -0.06703,0 -0.119944,0.0847 -0.04939,0.0811 -0.04939,0.26106 z m 1.005416,-0.88547 q 0,0.25753 -0.06703,0.508 -0.0635,0.25047 -0.176389,0.44803 -0.109361,0.19755 -0.261056,0.32103 -0.151694,0.11994 -0.321028,0.11994 -0.15875,0 -0.310444,-0.10936 -0.148167,-0.10936 -0.264583,-0.29986 -0.112889,-0.1905 -0.183445,-0.4445 -0.07055,-0.254 -0.07055,-0.54328 0,-0.23636 0.0635,-0.4833 0.06703,-0.25048 0.179916,-0.45156 0.112889,-0.20108 0.264584,-0.32808 0.151694,-0.13053 0.321027,-0.13053 0.148167,0 0.292806,0.10936 0.148167,0.10936 0.264583,0.29986 0.119945,0.18697 0.194028,0.44097 0.07408,0.254 0.07408,0.54328 z"
           style="font-style:normal;font-variant:normal;font-weight:normal;font-stretch:normal;font-family:'Bradley Gratis';-inkscape-font-specification:'Bradley Gratis';text-align:start;text-anchor:start;fill:#00a3f2;fill-opacity:1;stroke-width:0.26458332"
           id="path20364"
           inkscape:connector-curvature="0" />
        <path
           d="m 46.267548,146.50861 q 0.04586,-0.27164 0.130528,-0.51153 0.08819,-0.23989 0.194028,-0.45861 0.105833,-0.21873 0.218722,-0.41628 0.116417,-0.20108 0.218722,-0.38806 0.102306,-0.18697 0.179917,-0.36336 0.07761,-0.17991 0.112889,-0.35983 -0.02822,-0.0176 -0.06703,-0.0318 -0.03528,-0.0141 -0.137583,-0.0141 -0.05292,0 -0.09525,0.0282 -0.03881,0.0247 -0.06703,0.0635 -0.02822,0.0353 -0.04586,0.0776 -0.01411,0.0388 -0.01411,0.0635 0,0.0282 0.01058,0.067 0.01411,0.0353 0.02822,0.0705 0.01764,0.0353 0.03528,0.067 0.01764,0.0282 0.03175,0.0423 l -0.430389,0.26811 q -0.08467,-0.0811 -0.144639,-0.19756 -0.05644,-0.11994 -0.05644,-0.23989 0,-0.06 0.03175,-0.14816 0.03175,-0.0882 0.102305,-0.16934 0.07056,-0.0847 0.183445,-0.14111 0.116416,-0.06 0.282222,-0.06 0.130528,0 0.218722,0.0176 0.08819,0.0176 0.155222,0.0423 0.06703,0.0212 0.123472,0.0388 0.05997,0.0176 0.134056,0.0176 0.04586,0 0.09878,-0.007 0.05292,-0.007 0.09878,-0.0212 0.04586,-0.0141 0.08114,-0.0282 0.03881,-0.0176 0.05997,-0.0388 -0.04233,0.22225 -0.134056,0.46213 -0.09172,0.23989 -0.204611,0.47978 -0.109361,0.23989 -0.232833,0.4692 -0.119945,0.2293 -0.22225,0.43039 -0.09878,0.19755 -0.169334,0.35983 -0.06703,0.15875 -0.07408,0.26105 0.141111,0.06 0.239889,0.06 0.0635,0 0.130528,-0.0141 0.06703,-0.0176 0.119944,-0.0529 0.05644,-0.0353 0.09172,-0.0882 0.03528,-0.0564 0.03528,-0.13405 0,-0.0776 -0.01764,-0.127 -0.01411,-0.0529 -0.03881,-0.0847 -0.0247,-0.0353 -0.05644,-0.06 -0.03175,-0.0282 -0.05997,-0.0564 l 0.405694,-0.29987 q 0.141112,0.10584 0.201084,0.22578 0.05997,0.11995 0.05997,0.26106 0,0.067 -0.02117,0.13053 -0.01764,0.06 -0.04586,0.11288 -0.02469,0.0494 -0.05997,0.0917 -0.03175,0.0423 -0.05644,0.067 l 0.05997,0.06 q 0.01764,0.0176 0.0388,0.0529 0.02117,0.0317 0.02117,0.0564 0,0.0282 -0.02469,0.0811 -0.02117,0.0564 -0.08819,0.0988 -0.02469,-0.0317 -0.05644,-0.0564 -0.02822,-0.0212 -0.05997,-0.0388 -0.03175,-0.0176 -0.06703,-0.0176 z"
           style="font-style:normal;font-variant:normal;font-weight:normal;font-stretch:normal;font-family:'Bradley Gratis';-inkscape-font-specification:'Bradley Gratis';text-align:start;text-anchor:start;fill:#00a3f2;fill-opacity:1;stroke-width:0.26458332"
           id="path20366"
           inkscape:connector-curvature="0" />
        <path
           d="m 49.773884,143.78163 v 0.381 q -0.03881,-0.0353 -0.102306,-0.0776 -0.05997,-0.0423 -0.130528,-0.0741 -0.06703,-0.0353 -0.134055,-0.0565 -0.06703,-0.0247 -0.112889,-0.0247 -0.08467,0 -0.172861,0.067 -0.08819,0.067 -0.144639,0.17991 -0.05644,0.10937 -0.07408,0.28928 -0.01411,0.17639 -0.01411,0.45509 h 0.903111 l -0.179916,0.40216 q -0.03528,-0.0529 -0.08467,-0.0705 -0.04586,-0.0212 -0.08467,-0.0212 H 48.88841 q 0,0.20108 0.0071,0.39511 0.0071,0.1905 0.04586,0.3422 0.04233,0.15169 0.127,0.24694 0.08467,0.0917 0.243417,0.0917 0.08467,0 0.165805,-0.0318 0.08467,-0.0317 0.155222,-0.0776 0.07056,-0.0494 0.123473,-0.1023 0.05644,-0.0529 0.08819,-0.0952 v 0.508 h -0.47625 q -0.342194,0 -0.553861,-0.11995 -0.211667,-0.12347 -0.331611,-0.32808 -0.116417,-0.20814 -0.15875,-0.47978 -0.03881,-0.27164 -0.03881,-0.56797 0,-0.0741 0.01058,-0.19403 0.01058,-0.12347 0.04586,-0.25753 0.03528,-0.13758 0.102305,-0.27516 0.06703,-0.14112 0.179917,-0.25048 0.116417,-0.11289 0.28575,-0.18344 0.169333,-0.0706 0.409222,-0.0706 z"
           style="font-style:normal;font-variant:normal;font-weight:normal;font-stretch:normal;font-family:'Bradley Gratis';-inkscape-font-specification:'Bradley Gratis';text-align:start;text-anchor:start;fill:#00a3f2;fill-opacity:1;stroke-width:0.26458332"
           id="path20368"
           inkscape:connector-curvature="0" />
        <path
           d="m 50.160286,146.50861 v -2.4377 q 0,-0.0988 -0.04233,-0.1658 -0.04233,-0.0706 -0.08467,-0.12348 h 0.684388 v 0.35984 l 0.391584,-0.45509 q 0.179916,0.16228 0.296333,0.32456 0.116417,0.15875 0.183445,0.32103 0.06703,0.15875 0.09172,0.32455 0.02469,0.16228 0.02469,0.33514 0,0.16933 -0.02822,0.32456 -0.02469,0.15169 -0.07408,0.29986 -0.04939,0.14816 -0.119945,0.29986 -0.06703,0.15169 -0.148166,0.3175 h 0.127 q 0.04586,0 0.09525,-0.0317 0.04939,-0.0318 0.09878,-0.0318 v 0.33867 h -0.684389 q 0.09525,-0.19403 0.151695,-0.34925 0.05997,-0.15523 0.09172,-0.29634 0.03175,-0.14111 0.04233,-0.27516 0.01058,-0.13406 0.01058,-0.28575 0,-0.1517 -0.05292,-0.31398 -0.04939,-0.1658 -0.123472,-0.30339 -0.07408,-0.13758 -0.15875,-0.22577 -0.08114,-0.0882 -0.148167,-0.0882 -0.04233,0 -0.06703,0.0212 v 2.11667 z"
           style="font-style:normal;font-variant:normal;font-weight:normal;font-stretch:normal;font-family:'Bradley Gratis';-inkscape-font-specification:'Bradley Gratis';text-align:start;text-anchor:start;fill:#00a3f2;fill-opacity:1;stroke-width:0.26458332"
           id="path20370"
           inkscape:connector-curvature="0" />
        <path
           d="m 53.398455,146.62502 q -0.1905,-0.13758 -0.324556,-0.2928 -0.134055,-0.15875 -0.215194,-0.32809 -0.08114,-0.16933 -0.119945,-0.34219 -0.03528,-0.17639 -0.03528,-0.34572 0,-0.16581 0.03528,-0.32809 0.03528,-0.1658 0.09172,-0.32455 0.05997,-0.16228 0.137584,-0.31397 0.07761,-0.15523 0.15875,-0.30339 h -0.02117 q -0.01058,0 -0.02469,0 -0.01058,-0.004 -0.02822,-0.004 -0.05644,0 -0.137583,0.0141 -0.07761,0.0141 -0.151694,0.0706 v -0.34573 h 0.740833 q -0.09172,0.15875 -0.15875,0.32103 -0.0635,0.15875 -0.105833,0.31045 -0.03881,0.14816 -0.05997,0.28222 -0.01764,0.13053 -0.01764,0.23636 0,0.10583 0.02117,0.254 0.02117,0.14817 0.07761,0.30692 0.05997,0.15522 0.15875,0.29633 0.102306,0.14111 0.264584,0.2293 l 0.105833,-0.0776 q -0.0635,-0.11994 -0.09878,-0.2293 -0.03528,-0.11289 -0.05292,-0.21167 -0.01411,-0.0988 -0.01764,-0.17992 -0.0035,-0.0847 -0.0035,-0.15169 0,-0.10936 0.02822,-0.24694 0.02822,-0.13759 0.08114,-0.28575 0.05292,-0.14817 0.127,-0.29987 0.07761,-0.15169 0.172861,-0.29633 -0.134055,0 -0.22225,0.0212 -0.08467,0.0212 -0.144639,0.06 v -0.33867 h 0.762 q -0.0635,0.0882 -0.127,0.20109 -0.05997,0.10936 -0.105833,0.23989 -0.04586,0.127 -0.07408,0.27163 -0.02822,0.14464 -0.02822,0.29634 0,0.25753 0.04586,0.45861 0.04586,0.19755 0.127,0.34925 0.08114,0.15169 0.1905,0.26105 0.109362,0.10937 0.232834,0.18698 v -2.26484 h 0.529166 v 2.1202 q 0,0.0247 -0.03528,0.0705 -0.03528,0.0423 -0.09172,0.0988 -0.05292,0.0565 -0.127,0.12347 -0.07055,0.0635 -0.144638,0.127 -0.176389,0.14817 -0.398639,0.32456 -0.172861,-0.13406 -0.296334,-0.26458 -0.123472,-0.13053 -0.211666,-0.254 z"
           style="font-style:normal;font-variant:normal;font-weight:normal;font-stretch:normal;font-family:'Bradley Gratis';-inkscape-font-specification:'Bradley Gratis';text-align:start;text-anchor:start;fill:#00a3f2;fill-opacity:1;stroke-width:0.26458332"
           id="path20372"
           inkscape:connector-curvature="0" />
        <path
           d="m 56.650514,144.81174 v -0.87841 h -0.416278 q -0.0035,0.23636 -0.01411,0.46919 -0.0071,0.22931 -0.01764,0.40922 z m 0.719667,-1.03011 q -0.03881,0.0282 -0.07408,0.0706 -0.03175,0.0423 -0.05645,0.0917 -0.02117,0.0459 -0.03528,0.0917 -0.01411,0.0423 -0.01411,0.0741 v 2.39889 h -0.53975 v -1.32998 h -0.472722 q -0.0035,0.127 -0.03528,0.2787 -0.03175,0.14816 -0.08819,0.29986 -0.05292,0.14817 -0.127,0.28928 -0.07056,0.13758 -0.162278,0.24341 -0.08819,0.10584 -0.1905,0.16934 -0.09878,0.0635 -0.208139,0.0635 -0.07055,0 -0.123472,-0.0423 -0.04939,-0.0423 -0.04939,-0.11994 0,-0.0494 0.03175,-0.0706 0.03175,-0.0247 0.06703,-0.0247 0.03175,0 0.04939,0.0106 0.01764,0.007 0.03175,0.0212 0.01764,0.0106 0.03881,0.0212 0.02117,0.007 0.05997,0.007 0.0635,0 0.102305,-0.0635 0.03881,-0.067 0.0635,-0.17639 0.0247,-0.11289 0.03528,-0.25753 0.01411,-0.14816 0.02117,-0.31044 0.0071,-0.16228 0.01764,-0.32808 0.01058,-0.16934 0.02822,-0.32456 0.02117,-0.18344 0.0635,-0.33514 0.04586,-0.15169 0.09525,-0.26811 0.04939,-0.11642 0.09878,-0.19755 0.04939,-0.0811 0.08467,-0.13053 h -0.07761 q -0.06703,0 -0.123472,0.0212 -0.05644,0.0176 -0.102306,0.0423 -0.04233,0.0212 -0.07761,0.0423 -0.03175,0.0176 -0.05644,0.0176 -0.05997,0 -0.08819,-0.0423 -0.02822,-0.0423 -0.02822,-0.0952 0,-0.0494 0.05292,-0.0917 0.05644,-0.0459 0.155222,-0.0459 z"
           style="font-style:normal;font-variant:normal;font-weight:normal;font-stretch:normal;font-family:'Bradley Gratis';-inkscape-font-specification:'Bradley Gratis';text-align:start;text-anchor:start;fill:#00a3f2;fill-opacity:1;stroke-width:0.26458332"
           id="path20374"
           inkscape:connector-curvature="0" />
        <path
           d="m 58.150372,146.63208 q -0.08114,-0.0811 -0.186973,-0.15875 -0.102305,-0.0776 -0.201083,-0.13759 -0.09525,-0.06 -0.169333,-0.1023 -0.07056,-0.0423 -0.08114,-0.0529 0.03528,-0.0423 0.08819,-0.11641 0.05292,-0.0776 0.102306,-0.1517 0.05292,-0.0741 0.09172,-0.13053 0.04233,-0.06 0.05292,-0.0705 0.04939,0.0317 0.134055,0.0882 0.08819,0.0529 0.172861,0.11289 0.08819,0.06 0.15875,0.10936 0.07056,0.0494 0.09172,0.0706 0.04939,-0.0282 0.08114,-0.0741 0.03528,-0.0459 0.03528,-0.14816 0,-0.0882 -0.07408,-0.18697 -0.07056,-0.0988 -0.176389,-0.20814 -0.105833,-0.10936 -0.232833,-0.22931 -0.127,-0.11994 -0.232834,-0.24694 -0.105833,-0.127 -0.179916,-0.25753 -0.07056,-0.13053 -0.07056,-0.26811 0,-0.0988 0.04939,-0.18345 0.05292,-0.0882 0.130528,-0.16227 0.07761,-0.0776 0.169333,-0.13759 0.09525,-0.0635 0.179917,-0.11641 0.08819,-0.0564 0.155222,-0.0988 0.06703,-0.0459 0.09525,-0.0811 0.02117,0.0176 0.09172,0.0882 0.07408,0.067 0.15875,0.14464 0.08467,0.0776 0.15875,0.13759 0.07761,0.06 0.102306,0.06 -0.03528,0.0282 -0.08819,0.0847 -0.04939,0.0529 -0.102305,0.11289 -0.04939,0.06 -0.09172,0.11642 -0.03881,0.0529 -0.05644,0.0811 -0.08114,-0.0353 -0.162278,-0.10583 -0.08114,-0.0706 -0.148166,-0.13759 -0.06703,-0.067 -0.112889,-0.11641 -0.04586,-0.0529 -0.05997,-0.0529 -0.02822,0 -0.04939,0.0317 -0.01764,0.0282 -0.01764,0.067 0,0.0847 0.07408,0.17991 0.07761,0.0952 0.186972,0.20461 0.112889,0.10584 0.243417,0.22578 0.134056,0.11642 0.243417,0.24342 0.112889,0.127 0.186972,0.26458 0.07761,0.13406 0.07761,0.27517 0,0.127 -0.09525,0.26811 -0.09525,0.14111 -0.229306,0.28222 -0.130527,0.13759 -0.268111,0.26459 -0.137583,0.12347 -0.225777,0.21872 z"
           style="font-style:normal;font-variant:normal;font-weight:normal;font-stretch:normal;font-family:'Bradley Gratis';-inkscape-font-specification:'Bradley Gratis';text-align:start;text-anchor:start;fill:#00a3f2;fill-opacity:1;stroke-width:0.26458332"
           id="path20376"
           inkscape:connector-curvature="0" />
        <path
           d="m 60.635359,146.03236 q 0,0.13758 -0.05644,0.23988 -0.05644,0.0988 -0.148167,0.16228 -0.08819,0.0635 -0.197555,0.0953 -0.109361,0.0317 -0.215195,0.0317 -0.165805,0 -0.324555,-0.0811 -0.15875,-0.0811 -0.28575,-0.21872 -0.127,-0.14111 -0.204611,-0.32808 -0.07761,-0.1905 -0.07761,-0.40922 0,-0.39159 0.179916,-0.72673 0.179917,-0.33866 0.500945,-0.61383 -0.02822,-0.004 -0.05292,-0.004 -0.02117,-0.004 -0.04586,-0.004 -0.08467,0 -0.179917,0.0282 -0.09525,0.0282 -0.179916,0.0741 -0.08467,0.0423 -0.155223,0.0952 -0.06703,0.0529 -0.102305,0.0988 0.02822,-0.13759 0.105833,-0.27164 0.07761,-0.13406 0.194028,-0.23636 0.116417,-0.10231 0.268111,-0.16581 0.151694,-0.0635 0.331611,-0.0635 0.09172,0 0.194028,0.0282 0.102305,0.0282 0.194028,0.0741 0.09525,0.0423 0.169333,0.0953 0.07408,0.0529 0.112889,0.1023 l -0.289278,0.44098 q -0.176389,-0.17287 -0.381,-0.24695 -0.04586,0.0741 -0.09525,0.17639 -0.04939,0.0988 -0.09172,0.22578 -0.03881,0.127 -0.06703,0.28222 -0.02469,0.15169 -0.02469,0.33161 0,0.16933 0.02469,0.29986 0.02822,0.13053 0.07056,0.22578 0.04233,0.0952 0.09525,0.15875 0.05644,0.0635 0.112889,0.10583 0.134055,0.0953 0.306916,0.10584 0.07056,0 0.162278,-0.0282 0.09525,-0.0318 0.151694,-0.0811 z"
           style="font-style:normal;font-variant:normal;font-weight:normal;font-stretch:normal;font-family:'Bradley Gratis';-inkscape-font-specification:'Bradley Gratis';text-align:start;text-anchor:start;fill:#00a3f2;fill-opacity:1;stroke-width:0.26458332"
           id="path20378"
           inkscape:connector-curvature="0" />
        <path
           d="m 62.403604,143.78163 v 0.381 q -0.03881,-0.0353 -0.102306,-0.0776 -0.05997,-0.0423 -0.130528,-0.0741 -0.06703,-0.0353 -0.134055,-0.0565 -0.06703,-0.0247 -0.112889,-0.0247 -0.08467,0 -0.172861,0.067 -0.08819,0.067 -0.144639,0.17991 -0.05644,0.10937 -0.07408,0.28928 -0.01411,0.17639 -0.01411,0.45509 h 0.903111 l -0.179917,0.40216 q -0.03528,-0.0529 -0.08467,-0.0705 -0.04586,-0.0212 -0.08467,-0.0212 h -0.553861 q 0,0.20108 0.0071,0.39511 0.0071,0.1905 0.04586,0.3422 0.04233,0.15169 0.127,0.24694 0.08467,0.0917 0.243417,0.0917 0.08467,0 0.165805,-0.0318 0.08467,-0.0317 0.155223,-0.0776 0.07055,-0.0494 0.123472,-0.1023 0.05644,-0.0529 0.08819,-0.0952 v 0.508 h -0.47625 q -0.342194,0 -0.553861,-0.11995 -0.211666,-0.12347 -0.331611,-0.32808 -0.116417,-0.20814 -0.15875,-0.47978 -0.03881,-0.27164 -0.03881,-0.56797 0,-0.0741 0.01058,-0.19403 0.01058,-0.12347 0.04586,-0.25753 0.03528,-0.13758 0.102306,-0.27516 0.06703,-0.14112 0.179916,-0.25048 0.116417,-0.11289 0.28575,-0.18344 0.169334,-0.0706 0.409222,-0.0706 z"
           style="font-style:normal;font-variant:normal;font-weight:normal;font-stretch:normal;font-family:'Bradley Gratis';-inkscape-font-specification:'Bradley Gratis';text-align:start;text-anchor:start;fill:#00a3f2;fill-opacity:1;stroke-width:0.26458332"
           id="path20380"
           inkscape:connector-curvature="0" />
        <path
           d="m 63.682533,144.47661 q -0.08819,-0.21167 -0.151694,-0.35278 -0.0635,-0.14111 -0.09878,-0.14111 -0.03881,0 -0.05292,0.0353 -0.01058,0.0318 -0.01058,0.0565 v 1.91205 q 0,0.0776 -0.04233,0.16228 -0.04233,0.0847 -0.112888,0.14817 0.130527,0 0.232833,-0.0635 0.102305,-0.067 0.211667,-0.14464 0.112888,-0.0811 0.250472,-0.14464 0.137583,-0.067 0.342194,-0.067 v 0.63148 H 62.65595 q 0.04586,-0.067 0.07761,-0.127 0.03528,-0.06 0.05644,-0.11995 0.02117,-0.06 0.03175,-0.127 0.01058,-0.067 0.01058,-0.14817 v -1.66863 q 0,-0.11289 -0.04233,-0.18345 -0.04233,-0.0741 -0.05997,-0.1023 0.01411,-0.004 0.07056,-0.0247 0.05997,-0.0247 0.144639,-0.0564 0.08467,-0.0318 0.186972,-0.067 0.102305,-0.0353 0.201083,-0.0635 0.09878,-0.0317 0.186972,-0.0494 0.08819,-0.0212 0.144639,-0.0212 0.0882,0 0.165806,0.0494 0.07761,0.0494 0.141111,0.12347 0.0635,0.0741 0.109361,0.16581 0.04586,0.0882 0.07408,0.16581 z"
           style="font-style:normal;font-variant:normal;font-weight:normal;font-stretch:normal;font-family:'Bradley Gratis';-inkscape-font-specification:'Bradley Gratis';text-align:start;text-anchor:start;fill:#00a3f2;fill-opacity:1;stroke-width:0.26458332"
           id="path20382"
           inkscape:connector-curvature="0" />
        <path
           d="m 65.8627,144.81174 v -0.87841 h -0.416278 q -0.0035,0.23636 -0.01411,0.46919 -0.0071,0.22931 -0.01764,0.40922 z m 0.719667,-1.03011 q -0.03881,0.0282 -0.07408,0.0706 -0.03175,0.0423 -0.05644,0.0917 -0.02117,0.0459 -0.03528,0.0917 -0.01411,0.0423 -0.01411,0.0741 v 2.39889 H 65.8627 v -1.32998 h -0.472722 q -0.0035,0.127 -0.03528,0.2787 -0.03175,0.14816 -0.08819,0.29986 -0.05292,0.14817 -0.127,0.28928 -0.07056,0.13758 -0.162278,0.24341 -0.08819,0.10584 -0.1905,0.16934 -0.09878,0.0635 -0.208139,0.0635 -0.07056,0 -0.123472,-0.0423 -0.04939,-0.0423 -0.04939,-0.11994 0,-0.0494 0.03175,-0.0706 0.03175,-0.0247 0.06703,-0.0247 0.03175,0 0.04939,0.0106 0.01764,0.007 0.03175,0.0212 0.01764,0.0106 0.0388,0.0212 0.02117,0.007 0.05997,0.007 0.0635,0 0.102306,-0.0635 0.0388,-0.067 0.0635,-0.17639 0.02469,-0.11289 0.03528,-0.25753 0.01411,-0.14816 0.02117,-0.31044 0.0071,-0.16228 0.01764,-0.32808 0.01058,-0.16934 0.02822,-0.32456 0.02117,-0.18344 0.0635,-0.33514 0.04586,-0.15169 0.09525,-0.26811 0.04939,-0.11642 0.09878,-0.19755 0.04939,-0.0811 0.08467,-0.13053 h -0.07761 q -0.06703,0 -0.123472,0.0212 -0.05644,0.0176 -0.102306,0.0423 -0.04233,0.0212 -0.07761,0.0423 -0.03175,0.0176 -0.05645,0.0176 -0.05997,0 -0.08819,-0.0423 -0.02822,-0.0423 -0.02822,-0.0952 0,-0.0494 0.05292,-0.0917 0.05644,-0.0459 0.155223,-0.0459 z"
           style="font-style:normal;font-variant:normal;font-weight:normal;font-stretch:normal;font-family:'Bradley Gratis';-inkscape-font-specification:'Bradley Gratis';text-align:start;text-anchor:start;fill:#00a3f2;fill-opacity:1;stroke-width:0.26458332"
           id="path20384"
           inkscape:connector-curvature="0" />
        <path
           d="m 66.882779,146.50861 v -2.4377 q 0,-0.0988 -0.04233,-0.1658 -0.04233,-0.0706 -0.08467,-0.12348 h 0.684389 v 0.35984 l 0.391583,-0.45509 q 0.179917,0.16228 0.296333,0.32456 0.116417,0.15875 0.183445,0.32103 0.06703,0.15875 0.09172,0.32455 0.02469,0.16228 0.02469,0.33514 0,0.16933 -0.02822,0.32456 -0.02469,0.15169 -0.07408,0.29986 -0.04939,0.14816 -0.119945,0.29986 -0.06703,0.15169 -0.148166,0.3175 h 0.127 q 0.04586,0 0.09525,-0.0317 0.04939,-0.0318 0.09878,-0.0318 v 0.33867 H 67.69417 q 0.09525,-0.19403 0.151694,-0.34925 0.05997,-0.15523 0.09172,-0.29634 0.03175,-0.14111 0.04233,-0.27516 0.01058,-0.13406 0.01058,-0.28575 0,-0.1517 -0.05292,-0.31398 -0.04939,-0.1658 -0.123472,-0.30339 -0.07408,-0.13758 -0.15875,-0.22577 -0.08114,-0.0882 -0.148167,-0.0882 -0.04233,0 -0.06703,0.0212 v 2.11667 z"
           style="font-style:normal;font-variant:normal;font-weight:normal;font-stretch:normal;font-family:'Bradley Gratis';-inkscape-font-specification:'Bradley Gratis';text-align:start;text-anchor:start;fill:#00a3f2;fill-opacity:1;stroke-width:0.26458332"
           id="path20386"
           inkscape:connector-curvature="0" />
        <path
           d="m 68.771683,144.02858 q -0.09172,-0.0388 -0.127,-0.0952 -0.03528,-0.0565 -0.03528,-0.10584 0,-0.0423 0.02822,-0.0529 0.02822,0.0176 0.07761,0.0247 0.04939,0.007 0.112888,0.007 0.03175,0 0.08819,-0.0106 0.05997,-0.0106 0.130528,-0.0212 0.07055,-0.0106 0.144639,-0.0212 0.07761,-0.0106 0.144638,-0.0106 0.162278,0 0.331612,0.0847 0.169333,0.0811 0.303388,0.254 0.134056,0.16934 0.218723,0.43392 0.08819,0.26106 0.08819,0.62442 0,0.30691 -0.05292,0.52916 -0.05292,0.22225 -0.134055,0.37748 -0.08114,0.15522 -0.179917,0.25047 -0.09878,0.0917 -0.194028,0.14464 -0.09172,0.0494 -0.169333,0.067 -0.07408,0.0176 -0.109361,0.0176 -0.05292,0 -0.112889,-0.0141 -0.05997,-0.0141 -0.119944,-0.0318 -0.05645,-0.0176 -0.109361,-0.0317 -0.04939,-0.0141 -0.08467,-0.0141 -0.03881,0 -0.07056,0.0141 -0.03175,0.0106 -0.06703,0.0247 -0.03175,0.0106 -0.07056,0.0247 -0.03881,0.0106 -0.08819,0.0106 -0.01764,0 -0.03881,-0.004 -0.01764,-0.004 -0.03528,-0.0106 -0.01764,-0.007 -0.03528,-0.0176 0.02822,-0.0176 0.05644,-0.06 0.02822,-0.0459 0.05292,-0.0952 0.02822,-0.0529 0.05644,-0.11641 z m 0.518583,2.10255 q 0,0.0741 0.02469,0.11642 0.02822,0.0388 0.05997,0.0564 0.03881,0.0212 0.08467,0.0247 0.08114,0 0.141111,-0.10936 0.0635,-0.10936 0.0635,-0.2787 v -1.54869 q 0,-0.16581 -0.03175,-0.25753 -0.03175,-0.0917 -0.07408,-0.13405 -0.04233,-0.0423 -0.08467,-0.0494 -0.04233,-0.0106 -0.06703,-0.0106 -0.04233,0 -0.08114,0.0564 -0.03528,0.0564 -0.03528,0.14816 z"
           style="font-style:normal;font-variant:normal;font-weight:normal;font-stretch:normal;font-family:'Bradley Gratis';-inkscape-font-specification:'Bradley Gratis';text-align:start;text-anchor:start;fill:#00a3f2;fill-opacity:1;stroke-width:0.26458332"
           id="path20388"
           inkscape:connector-curvature="0" />
      </g>
    </g>
    <g
       aria-label="DE-EMPHASISIS FILTER"
       style="font-style:normal;font-variant:normal;font-weight:bold;font-stretch:normal;font-size:3.52777767px;line-height:1.25;font-family:Homenaje;-inkscape-font-specification:'Homenaje Bold';text-align:center;letter-spacing:0px;word-spacing:0px;text-anchor:middle;fill:#ffffff;fill-opacity:1;stroke:none;stroke-width:0.26458332"
       id="text307-8-3">
      <path
         d="m 37.98053,121.68257 h 0.179916 q 0.09737,0 0.156634,-0.055 0.06138,-0.0571 0.06138,-0.15028 v -0.78317 q 0,-0.0931 -0.06138,-0.14817 -0.05927,-0.0571 -0.156634,-0.0571 H 37.98053 Z m -0.188384,0.14394 v -1.48167 h 0.3683 q 0.192617,0 0.29845,0.0974 0.105834,0.0974 0.105834,0.28575 v 0.71543 q 0,0.18838 -0.105834,0.28575 -0.105833,0.0952 -0.29845,0.0974 z"
         style="font-style:normal;font-variant:normal;font-weight:bold;font-stretch:normal;font-size:2.11666679px;font-family:Homenaje;-inkscape-font-specification:'Homenaje Bold';stroke-width:0.26458332"
         id="path5995" />
      <path
         d="m 38.811255,121.82651 v -1.48167 h 0.645584 v 0.14393 h -0.459317 v 0.47414 h 0.372533 v 0.14393 h -0.372533 v 0.57573 h 0.480483 v 0.14394 z"
         style="font-style:normal;font-variant:normal;font-weight:bold;font-stretch:normal;font-size:2.11666679px;font-family:Homenaje;-inkscape-font-specification:'Homenaje Bold';stroke-width:0.26458332"
         id="path5997" />
      <path
         d="m 39.572693,121.41587 v -0.1397 h 0.491067 v 0.1397 z"
         style="font-style:normal;font-variant:normal;font-weight:bold;font-stretch:normal;font-size:2.11666679px;font-family:Homenaje;-inkscape-font-specification:'Homenaje Bold';stroke-width:0.26458332"
         id="path5999" />
      <path
         d="m 40.229257,121.82651 v -1.48167 h 0.645583 v 0.14393 h -0.459317 v 0.47414 h 0.372534 v 0.14393 h -0.372534 v 0.57573 h 0.480484 v 0.14394 z"
         style="font-style:normal;font-variant:normal;font-weight:bold;font-stretch:normal;font-size:2.11666679px;font-family:Homenaje;-inkscape-font-specification:'Homenaje Bold';stroke-width:0.26458332"
         id="path6001" />
      <path
         d="m 41.299728,121.82651 h -0.186267 v -1.48167 h 0.281517 l 0.283633,0.8763 h 0.01482 l 0.289983,-0.8763 h 0.270933 v 1.48167 h -0.186266 v -1.25942 l -0.283634,0.86572 h -0.201083 l -0.283633,-0.86784 z"
         style="font-style:normal;font-variant:normal;font-weight:bold;font-stretch:normal;font-size:2.11666679px;font-family:Homenaje;-inkscape-font-specification:'Homenaje Bold';stroke-width:0.26458332"
         id="path6003" />
      <path
         d="m 42.726493,120.48454 v 0.55033 h 0.135467 q 0.12065,0 0.186267,-0.0825 0.06773,-0.0825 0.06773,-0.21378 0,-0.254 -0.254,-0.254 z m 0.575734,0.254 q 0,0.20532 -0.112184,0.32173 -0.110066,0.1143 -0.315383,0.1143 h -0.148167 v 0.65194 h -0.186266 v -1.48167 h 0.37465 q 0.38735,0 0.38735,0.3937 z"
         style="font-style:normal;font-variant:normal;font-weight:bold;font-stretch:normal;font-size:2.11666679px;font-family:Homenaje;-inkscape-font-specification:'Homenaje Bold';stroke-width:0.26458332"
         id="path6005" />
      <path
         d="m 44.106825,121.11107 h -0.421217 v 0.71544 h -0.186267 v -1.48167 h 0.186267 v 0.62653 h 0.421217 v -0.62653 h 0.186266 v 1.48167 h -0.186266 z"
         style="font-style:normal;font-variant:normal;font-weight:bold;font-stretch:normal;font-size:2.11666679px;font-family:Homenaje;-inkscape-font-specification:'Homenaje Bold';stroke-width:0.26458332"
         id="path6007" />
      <path
         d="m 44.8254,120.34484 h 0.281517 l 0.321733,1.48167 h -0.173567 l -0.103716,-0.43604 h -0.385234 l -0.09525,0.43604 h -0.179916 z m 0.294217,0.9017 -0.1524,-0.762 H 44.9524 l -0.154517,0.762 z"
         style="font-style:normal;font-variant:normal;font-weight:bold;font-stretch:normal;font-size:2.11666679px;font-family:Homenaje;-inkscape-font-specification:'Homenaje Bold';stroke-width:0.26458332"
         id="path6009" />
      <path
         d="m 45.829593,121.68681 q 0.12065,0 0.173567,-0.072 0.05503,-0.072 0.05503,-0.16722 0,-0.0953 -0.03598,-0.16086 -0.03387,-0.0677 -0.08678,-0.10584 -0.05292,-0.0402 -0.1143,-0.0868 -0.06138,-0.0466 -0.1143,-0.0889 -0.05292,-0.0444 -0.0889,-0.11853 -0.03387,-0.0741 -0.03387,-0.16934 0,-0.16933 0.1016,-0.27093 0.1016,-0.1016 0.281516,-0.1016 h 0.17145 v 0.1397 h -0.162983 q -0.1016,0 -0.154517,0.0656 -0.05292,0.0656 -0.05292,0.14181 0,0.0762 0.03387,0.13124 0.03598,0.055 0.0889,0.091 0.05292,0.036 0.1143,0.0847 0.0635,0.0487 0.116417,0.0995 0.05292,0.0487 0.08678,0.13335 0.03598,0.0847 0.03598,0.19262 0,0.19897 -0.1143,0.30057 -0.112184,0.1016 -0.309034,0.1016 h -0.22225 v -0.1397 z"
         style="font-style:normal;font-variant:normal;font-weight:bold;font-stretch:normal;font-size:2.11666679px;font-family:Homenaje;-inkscape-font-specification:'Homenaje Bold';stroke-width:0.26458332"
         id="path6011" />
      <path
         d="m 46.4511,121.82651 v -1.48167 h 0.186266 v 1.48167 z"
         style="font-style:normal;font-variant:normal;font-weight:bold;font-stretch:normal;font-size:2.11666679px;font-family:Homenaje;-inkscape-font-specification:'Homenaje Bold';stroke-width:0.26458332"
         id="path6013" />
      <path
         d="m 47.15251,121.68681 q 0.12065,0 0.173567,-0.072 0.05503,-0.072 0.05503,-0.16722 0,-0.0953 -0.03598,-0.16086 -0.03387,-0.0677 -0.08678,-0.10584 -0.05292,-0.0402 -0.1143,-0.0868 -0.06138,-0.0466 -0.1143,-0.0889 -0.05292,-0.0444 -0.0889,-0.11853 -0.03387,-0.0741 -0.03387,-0.16934 0,-0.16933 0.1016,-0.27093 0.1016,-0.1016 0.281516,-0.1016 h 0.17145 v 0.1397 H 47.29856 q -0.1016,0 -0.154517,0.0656 -0.05292,0.0656 -0.05292,0.14181 0,0.0762 0.03387,0.13124 0.03598,0.055 0.0889,0.091 0.05292,0.036 0.1143,0.0847 0.0635,0.0487 0.116417,0.0995 0.05292,0.0487 0.08678,0.13335 0.03598,0.0847 0.03598,0.19262 0,0.19897 -0.1143,0.30057 -0.112184,0.1016 -0.309034,0.1016 h -0.22225 v -0.1397 z"
         style="font-style:normal;font-variant:normal;font-weight:bold;font-stretch:normal;font-size:2.11666679px;font-family:Homenaje;-inkscape-font-specification:'Homenaje Bold';stroke-width:0.26458332"
         id="path6015" />
      <path
         d="m 47.774017,121.82651 v -1.48167 h 0.186266 v 1.48167 z"
         style="font-style:normal;font-variant:normal;font-weight:bold;font-stretch:normal;font-size:2.11666679px;font-family:Homenaje;-inkscape-font-specification:'Homenaje Bold';stroke-width:0.26458332"
         id="path6017" />
      <path
         d="m 48.475427,121.68681 q 0.12065,0 0.173567,-0.072 0.05503,-0.072 0.05503,-0.16722 0,-0.0953 -0.03598,-0.16086 -0.03387,-0.0677 -0.08678,-0.10584 -0.05292,-0.0402 -0.1143,-0.0868 -0.06138,-0.0466 -0.1143,-0.0889 -0.05292,-0.0444 -0.0889,-0.11853 -0.03387,-0.0741 -0.03387,-0.16934 0,-0.16933 0.1016,-0.27093 0.1016,-0.1016 0.281516,-0.1016 h 0.17145 v 0.1397 h -0.162983 q -0.1016,0 -0.154517,0.0656 -0.05292,0.0656 -0.05292,0.14181 0,0.0762 0.03387,0.13124 0.03598,0.055 0.0889,0.091 0.05292,0.036 0.1143,0.0847 0.0635,0.0487 0.116417,0.0995 0.05292,0.0487 0.08678,0.13335 0.03598,0.0847 0.03598,0.19262 0,0.19897 -0.1143,0.30057 -0.112184,0.1016 -0.309034,0.1016 h -0.22225 v -0.1397 z"
         style="font-style:normal;font-variant:normal;font-weight:bold;font-stretch:normal;font-size:2.11666679px;font-family:Homenaje;-inkscape-font-specification:'Homenaje Bold';stroke-width:0.26458332"
         id="path6019" />
      <path
         d="m 49.41526,121.82651 v -1.48167 h 0.624416 v 0.14393 h -0.43815 v 0.508 h 0.3302 v 0.14394 h -0.3302 v 0.6858 z"
         style="font-style:normal;font-variant:normal;font-weight:bold;font-stretch:normal;font-size:2.11666679px;font-family:Homenaje;-inkscape-font-specification:'Homenaje Bold';stroke-width:0.26458332"
         id="path6021" />
      <path
         d="m 50.237949,121.82651 v -1.48167 h 0.186266 v 1.48167 z"
         style="font-style:normal;font-variant:normal;font-weight:bold;font-stretch:normal;font-size:2.11666679px;font-family:Homenaje;-inkscape-font-specification:'Homenaje Bold';stroke-width:0.26458332"
         id="path6023" />
      <path
         d="m 50.734042,121.82651 v -1.48167 h 0.186267 v 1.34197 h 0.433917 v 0.1397 z"
         style="font-style:normal;font-variant:normal;font-weight:bold;font-stretch:normal;font-size:2.11666679px;font-family:Homenaje;-inkscape-font-specification:'Homenaje Bold';stroke-width:0.26458332"
         id="path6025" />
      <path
         d="m 51.625126,121.82651 v -1.34197 h -0.296333 v -0.1397 h 0.778933 v 0.1397 h -0.296333 v 1.34197 z"
         style="font-style:normal;font-variant:normal;font-weight:bold;font-stretch:normal;font-size:2.11666679px;font-family:Homenaje;-inkscape-font-specification:'Homenaje Bold';stroke-width:0.26458332"
         id="path6027" />
      <path
         d="m 52.305006,121.82651 v -1.48167 h 0.645584 v 0.14393 h -0.459317 v 0.47414 h 0.372533 v 0.14393 h -0.372533 v 0.57573 h 0.480483 v 0.14394 z"
         style="font-style:normal;font-variant:normal;font-weight:bold;font-stretch:normal;font-size:2.11666679px;font-family:Homenaje;-inkscape-font-specification:'Homenaje Bold';stroke-width:0.26458332"
         id="path6029" />
      <path
         d="m 53.396644,120.48454 v 0.55245 h 0.150283 q 0.12065,0 0.186267,-0.0825 0.06773,-0.0847 0.06773,-0.2159 0,-0.254 -0.254,-0.254 z m -0.0042,0.69215 v 0.64982 h -0.182033 v -1.48167 h 0.391583 q 0.381,0 0.381,0.3937 0,0.14817 -0.05715,0.25823 -0.05715,0.11007 -0.162983,0.1524 l 0.294217,0.67734 H 53.87501 l -0.287866,-0.64982 z"
         style="font-style:normal;font-variant:normal;font-weight:bold;font-stretch:normal;font-size:2.11666679px;font-family:Homenaje;-inkscape-font-specification:'Homenaje Bold';stroke-width:0.26458332"
         id="path6031" />
    </g>
  </g>
</svg>
