<?xml version="1.0" encoding="UTF-8" standalone="no"?>
<!-- Created with Inkscape (http://www.inkscape.org/) -->

<svg
   xmlns:dc="http://purl.org/dc/elements/1.1/"
   xmlns:cc="http://creativecommons.org/ns#"
   xmlns:rdf="http://www.w3.org/1999/02/22-rdf-syntax-ns#"
   xmlns:svg="http://www.w3.org/2000/svg"
   xmlns="http://www.w3.org/2000/svg"
   xmlns:xlink="http://www.w3.org/1999/xlink"
   xmlns:sodipodi="http://sodipodi.sourceforge.net/DTD/sodipodi-0.dtd"
   xmlns:inkscape="http://www.inkscape.org/namespaces/inkscape"
   width="210"
   height="380"
   viewBox="0 0 55.562501 100.54167"
   version="1.1"
   id="svg11003"
   inkscape:version="0.92.2 (5c3e80d, 2017-08-06)"
   sodipodi:docname="HairPick.svg">
  <defs
     id="defs10997">
    <linearGradient
       inkscape:collect="always"
       id="linearGradient4682">
      <stop
         style="stop-color:#202022;stop-opacity:1;"
         offset="0"
         id="stop3387" />
      <stop
         style="stop-color:#202025;stop-opacity:1;"
         offset=".3"
         id="stop3388" />
      <stop
         style="stop-color:#08006f;stop-opacity:1;"
         offset="1"
         id="stop3389" />
    </linearGradient>
    <linearGradient
       inkscape:collect="always"
       xlink:href="#linearGradient4682"
       id="linearGradient4684"
       x1="35.219627"
       y1="150.85843"
       x2="35.23983"
       y2="50.163956"
       gradientUnits="userSpaceOnUse"
       gradientTransform="matrix(1.0745659,0,0,1,-2.6261843,0)" />
  </defs>
  <sodipodi:namedview
     id="base"
     pagecolor="#ffffff"
     bordercolor="#666666"
     borderopacity="1.0"
     inkscape:pageopacity="0.0"
     inkscape:pageshadow="2"
     inkscape:zoom="4"
     inkscape:cx="-46.57495"
     inkscape:cy="217.55861"
     inkscape:document-units="px"
     inkscape:current-layer="layer1"
     showgrid="false"
     fit-margin-top="0"
     fit-margin-left="0"
     fit-margin-right="0"
     fit-margin-bottom="0"
     inkscape:window-width="3840"
     inkscape:window-height="2115"
     inkscape:window-x="-13"
     inkscape:window-y="-13"
     inkscape:window-maximized="1"
     units="px" />
  <metadata
     id="metadata11000">
    <rdf:RDF>
      <cc:Work
         rdf:about="">
        <dc:format>image/svg+xml</dc:format>
        <dc:type
           rdf:resource="http://purl.org/dc/dcmitype/StillImage" />
        <dc:title></dc:title>
      </cc:Work>
    </rdf:RDF>
  </metadata>
  <g
     inkscape:label="Layer 1"
     inkscape:groupmode="layer"
     id="layer1"
     transform="translate(-35.146312,-50.389004)">
    <path
       inkscape:connector-curvature="0"
       id="path33493"
       d="M 35.219628,50.462323 H 90.490184 V 150.85843 H 35.219628 Z m 0,0"
       style="fill:url(#linearGradient4684);fill-opacity:1;fill-rule:nonzero;stroke:none;stroke-width:0.32608852"
       inkscape:export-filename="/home/vortico/pics/tmp/LFOs.png"
       inkscape:export-xdpi="150.22649"
       inkscape:export-ydpi="150.22649" />
    <g
       style="font-style:normal;font-weight:normal;font-size:3.52777767px;line-height:1.25;font-family:sans-serif;letter-spacing:0px;word-spacing:0px;fill:#ffffff;fill-opacity:1;stroke:none;stroke-width:0.26458332"
       id="text5097" />
    <g
       aria-label="HAIR PICK"
       style="font-style:normal;font-variant:normal;font-weight:bold;font-stretch:normal;font-size:3.52777767px;line-height:1.25;font-family:Homenaje;-inkscape-font-specification:'Homenaje Bold';text-align:center;letter-spacing:0px;word-spacing:0px;text-anchor:middle;fill:#ffffff;fill-opacity:1;stroke:none;stroke-width:0.26458332"
       id="text136">
      <path
         d="m 57.581143,52.972117 h -0.77223 v 1.311628 h -0.341489 v -2.716389 h 0.341489 V 52.716 h 0.77223 v -1.148644 h 0.341489 v 2.716389 h -0.341489 z"
         style="font-style:normal;font-variant:normal;font-weight:bold;font-stretch:normal;font-size:3.88055563px;font-family:Homenaje;-inkscape-font-specification:'Homenaje Bold';stroke-width:0.26458332"
         id="path3242" />
      <path
         d="m 58.898531,51.567356 h 0.516114 l 0.589845,2.716389 H 59.686284 L 59.496137,53.48435 h -0.706261 l -0.174625,0.799395 h -0.329848 z m 0.539397,1.653117 -0.2794,-1.397 h -0.02716 l -0.283281,1.397 z"
         style="font-style:normal;font-variant:normal;font-weight:bold;font-stretch:normal;font-size:3.88055563px;font-family:Homenaje;-inkscape-font-specification:'Homenaje Bold';stroke-width:0.26458332"
         id="path3244" />
      <path
         d="m 60.363138,54.283745 v -2.716389 h 0.341489 v 2.716389 z"
         style="font-style:normal;font-variant:normal;font-weight:bold;font-stretch:normal;font-size:3.88055563px;font-family:Homenaje;-inkscape-font-specification:'Homenaje Bold';stroke-width:0.26458332"
         id="path3246" />
      <path
         d="m 61.614132,51.823473 v 1.012825 h 0.27552 q 0.221191,0 0.341489,-0.151342 0.124177,-0.155222 0.124177,-0.395817 0,-0.465666 -0.465666,-0.465666 z m -0.0078,1.268941 v 1.191331 h -0.333728 v -2.716389 h 0.717903 q 0.6985,0 0.6985,0.721783 0,0.271639 -0.104775,0.473428 -0.104775,0.201789 -0.298803,0.2794 l 0.539398,1.241778 h -0.333728 l -0.527756,-1.191331 z"
         style="font-style:normal;font-variant:normal;font-weight:bold;font-stretch:normal;font-size:3.88055563px;font-family:Homenaje;-inkscape-font-specification:'Homenaje Bold';stroke-width:0.26458332"
         id="path3248" />
      <path
         d="m 64.107692,51.823473 v 1.008944 h 0.248356 q 0.221191,0 0.341489,-0.151342 0.124177,-0.151341 0.124177,-0.391936 0,-0.465666 -0.465666,-0.465666 z m 1.055511,0.465666 q 0,0.376414 -0.205669,0.589845 -0.201789,0.20955 -0.578203,0.20955 h -0.271639 v 1.195211 h -0.341489 v -2.716389 h 0.686859 q 0.710141,0 0.710141,0.721783 z"
         style="font-style:normal;font-variant:normal;font-weight:bold;font-stretch:normal;font-size:3.88055563px;font-family:Homenaje;-inkscape-font-specification:'Homenaje Bold';stroke-width:0.26458332"
         id="path3250" />
      <path
         d="m 65.52458,54.283745 v -2.716389 h 0.341489 v 2.716389 z"
         style="font-style:normal;font-variant:normal;font-weight:bold;font-stretch:normal;font-size:3.88055563px;font-family:Homenaje;-inkscape-font-specification:'Homenaje Bold';stroke-width:0.26458332"
         id="path3252" />
      <path
         d="m 67.578849,54.027628 v 0.256117 h -0.519994 q -0.353131,0 -0.547159,-0.178506 -0.194028,-0.178505 -0.194028,-0.523875 v -1.311628 q 0,-0.345369 0.194028,-0.523875 0.194028,-0.178505 0.547159,-0.178505 h 0.519994 v 0.256117 h -0.519994 q -0.178506,0 -0.291042,0.104775 -0.108656,0.100894 -0.108656,0.271638 v 1.451328 q 0,0.170745 0.108656,0.27552 0.112536,0.100894 0.291042,0.100894 z"
         style="font-style:normal;font-variant:normal;font-weight:bold;font-stretch:normal;font-size:3.88055563px;font-family:Homenaje;-inkscape-font-specification:'Homenaje Bold';stroke-width:0.26458332"
         id="path3254" />
      <path
         d="m 68.272195,54.283745 h -0.329847 v -2.716389 h 0.329847 v 1.18745 l 0.803275,-1.18745 h 0.337608 l -0.791633,1.210733 0.90805,1.505656 h -0.345369 l -0.760589,-1.265061 -0.151342,0.194027 z"
         style="font-style:normal;font-variant:normal;font-weight:bold;font-stretch:normal;font-size:3.88055563px;font-family:Homenaje;-inkscape-font-specification:'Homenaje Bold';stroke-width:0.26458332"
         id="path3256" />
    </g>
    <g
       aria-label="FEEDBACK TYPE"
       style="font-style:normal;font-variant:normal;font-weight:bold;font-stretch:normal;font-size:3.52777767px;line-height:1.25;font-family:Homenaje;-inkscape-font-specification:'Homenaje Bold';text-align:center;letter-spacing:0px;word-spacing:0px;text-anchor:middle;fill:#ffffff;fill-opacity:1;stroke:none;stroke-width:0.26458332"
       id="text299">
      <path
         d="m 37.219412,124.70341 v -1.97556 h 0.832555 v 0.19191 h -0.5842 v 0.67734 h 0.440267 v 0.19191 h -0.440267 v 0.9144 z"
         style="font-style:normal;font-variant:normal;font-weight:bold;font-stretch:normal;font-size:2.82222223px;font-family:Homenaje;-inkscape-font-specification:'Homenaje Bold';stroke-width:0.26458332"
         id="path3259" />
      <path
         d="m 38.31633,124.70341 v -1.97556 h 0.860778 v 0.19191 h -0.612422 v 0.63218 h 0.496711 v 0.19191 h -0.496711 v 0.76765 h 0.640644 v 0.19191 z"
         style="font-style:normal;font-variant:normal;font-weight:bold;font-stretch:normal;font-size:2.82222223px;font-family:Homenaje;-inkscape-font-specification:'Homenaje Bold';stroke-width:0.26458332"
         id="path3261" />
      <path
         d="m 39.523492,124.70341 v -1.97556 h 0.860778 v 0.19191 h -0.612423 v 0.63218 h 0.496711 v 0.19191 h -0.496711 v 0.76765 h 0.640645 v 0.19191 z"
         style="font-style:normal;font-variant:normal;font-weight:bold;font-stretch:normal;font-size:2.82222223px;font-family:Homenaje;-inkscape-font-specification:'Homenaje Bold';stroke-width:0.26458332"
         id="path3263" />
      <path
         d="m 40.979009,124.5115 h 0.239889 q 0.129822,0 0.208844,-0.0734 0.08185,-0.0762 0.08185,-0.20038 v -1.04422 q 0,-0.12418 -0.08185,-0.19756 -0.07902,-0.0762 -0.208844,-0.0762 h -0.239889 z m -0.251178,0.19191 v -1.97556 h 0.491067 q 0.256822,0 0.397933,0.12982 0.141111,0.12983 0.141111,0.381 v 0.95392 q 0,0.25117 -0.141111,0.381 -0.141111,0.127 -0.397933,0.12982 z"
         style="font-style:normal;font-variant:normal;font-weight:bold;font-stretch:normal;font-size:2.82222223px;font-family:Homenaje;-inkscape-font-specification:'Homenaje Bold';stroke-width:0.26458332"
         id="path3265" />
      <path
         d="m 42.334998,122.91412 v 0.64064 h 0.1778 q 0.169334,0 0.262467,-0.0847 0.09313,-0.0875 0.09313,-0.25118 0,-0.3048 -0.3556,-0.3048 z m 0.570089,0.73942 q 0.110067,0.0593 0.180622,0.1778 0.07338,0.11853 0.07338,0.23989 0,0.12136 -0.01129,0.19473 -0.01129,0.0734 -0.0508,0.16087 -0.03669,0.0847 -0.104422,0.14111 -0.1524,0.13547 -0.468489,0.13547 h -0.437444 v -1.97556 h 0.479777 q 0.262467,0 0.392289,0.12136 0.129823,0.11853 0.129823,0.37535 0,0.14111 -0.05362,0.25965 -0.0508,0.11571 -0.129822,0.16933 z m -0.395111,0.8636 q 0.412044,0 0.412044,-0.39511 0,-0.20038 -0.121355,-0.28787 -0.121356,-0.0875 -0.287867,-0.0875 h -0.1778 v 0.77047 z"
         style="font-style:normal;font-variant:normal;font-weight:bold;font-stretch:normal;font-size:2.82222223px;font-family:Homenaje;-inkscape-font-specification:'Homenaje Bold';stroke-width:0.26458332"
         id="path3267" />
      <path
         d="m 43.755502,122.72785 h 0.375356 l 0.428978,1.97556 h -0.231423 l -0.138289,-0.58138 H 43.67648 l -0.127,0.58138 h -0.239889 z m 0.392289,1.20227 -0.2032,-1.016 h -0.01976 l -0.206023,1.016 z"
         style="font-style:normal;font-variant:normal;font-weight:bold;font-stretch:normal;font-size:2.82222223px;font-family:Homenaje;-inkscape-font-specification:'Homenaje Bold';stroke-width:0.26458332"
         id="path3269" />
      <path
         d="m 45.653226,124.51714 v 0.18627 h -0.378178 q -0.256822,0 -0.397933,-0.12982 -0.141111,-0.12983 -0.141111,-0.381 v -0.95392 q 0,-0.25117 0.141111,-0.381 0.141111,-0.12982 0.397933,-0.12982 h 0.378178 v 0.18627 h -0.378178 q -0.129822,0 -0.211666,0.0762 -0.07902,0.0734 -0.07902,0.19755 v 1.05552 q 0,0.12417 0.07902,0.20037 0.08184,0.0734 0.211666,0.0734 z"
         style="font-style:normal;font-variant:normal;font-weight:bold;font-stretch:normal;font-size:2.82222223px;font-family:Homenaje;-inkscape-font-specification:'Homenaje Bold';stroke-width:0.26458332"
         id="path3271" />
      <path
         d="m 46.157478,124.70341 h -0.239889 v -1.97556 h 0.239889 v 0.8636 l 0.5842,-0.8636 h 0.245533 l -0.575733,0.88054 0.6604,1.09502 H 46.8207 l -0.553155,-0.92005 -0.110067,0.14111 z"
         style="font-style:normal;font-variant:normal;font-weight:bold;font-stretch:normal;font-size:2.82222223px;font-family:Homenaje;-inkscape-font-specification:'Homenaje Bold';stroke-width:0.26458332"
         id="path3273" />
      <path
         d="m 47.954572,124.70341 v -1.78929 h -0.395111 v -0.18627 h 1.038578 v 0.18627 h -0.395111 v 1.78929 z"
         style="font-style:normal;font-variant:normal;font-weight:bold;font-stretch:normal;font-size:2.82222223px;font-family:Homenaje;-inkscape-font-specification:'Homenaje Bold';stroke-width:0.26458332"
         id="path3275" />
      <path
         d="m 49.281589,124.70341 h -0.248355 v -0.78458 L 48.6353,122.72785 h 0.248356 l 0.282222,0.93416 0.287867,-0.93416 H 49.7021 l -0.420511,1.19098 z"
         style="font-style:normal;font-variant:normal;font-weight:bold;font-stretch:normal;font-size:2.82222223px;font-family:Homenaje;-inkscape-font-specification:'Homenaje Bold';stroke-width:0.26458332"
         id="path3277" />
      <path
         d="m 50.112646,122.91412 v 0.73378 h 0.180622 q 0.160867,0 0.248356,-0.11007 0.09031,-0.11007 0.09031,-0.28504 0,-0.33867 -0.338667,-0.33867 z m 0.767644,0.33867 q 0,0.27375 -0.149578,0.42897 -0.146755,0.1524 -0.420511,0.1524 h -0.197555 v 0.86925 H 49.86429 v -1.97556 h 0.499534 q 0.516466,0 0.516466,0.52494 z"
         style="font-style:normal;font-variant:normal;font-weight:bold;font-stretch:normal;font-size:2.82222223px;font-family:Homenaje;-inkscape-font-specification:'Homenaje Bold';stroke-width:0.26458332"
         id="path3279" />
      <path
         d="m 51.14311,124.70341 v -1.97556 h 0.860778 v 0.19191 h -0.612422 v 0.63218 h 0.496711 v 0.19191 h -0.496711 v 0.76765 h 0.640644 v 0.19191 z"
         style="font-style:normal;font-variant:normal;font-weight:bold;font-stretch:normal;font-size:2.82222223px;font-family:Homenaje;-inkscape-font-specification:'Homenaje Bold';stroke-width:0.26458332"
         id="path3281" />
    </g>
    <g
       style="font-style:normal;font-variant:normal;font-weight:bold;font-stretch:normal;font-size:3.52777767px;line-height:1.25;font-family:Consolas;-inkscape-font-specification:'Consolas Bold';text-align:center;letter-spacing:0px;word-spacing:0px;text-anchor:middle;fill:#ffffff;fill-opacity:1;stroke:none;stroke-width:0.26458332"
       id="text373" />
    <g
       style="font-style:normal;font-variant:normal;font-weight:bold;font-stretch:normal;font-size:13.33333302px;line-height:1.25;font-family:Consolas;-inkscape-font-specification:'Consolas Bold';text-align:center;letter-spacing:0px;word-spacing:0px;text-anchor:middle;fill:#ffffff;fill-opacity:1;stroke:none"
       id="flowRoot250" />
    <g
       aria-label="FROZEN WASTELAND"
       style="font-style:normal;font-variant:normal;font-weight:bold;font-stretch:normal;font-size:3.52777767px;line-height:1.25;font-family:Consolas;-inkscape-font-specification:'Consolas Bold';text-align:start;letter-spacing:0px;word-spacing:0px;text-anchor:start;fill:#00a3f2;fill-opacity:1;stroke:none;stroke-width:0.26458332"
       id="text3885-7">
      <path
         d="m 48.426278,150.10085 q 0.119944,-0.11995 0.1905,-0.21167 0.07408,-0.0917 0.112889,-0.16933 0.04233,-0.0776 0.05292,-0.14464 0.01411,-0.0706 0.01411,-0.14817 0,-0.0952 -0.04586,-0.2293 -0.04586,-0.13406 -0.102305,-0.28575 -0.05644,-0.1517 -0.102306,-0.31045 -0.04586,-0.15875 -0.04586,-0.30339 0,-0.0776 0.02469,-0.15169 0.02822,-0.0741 0.06703,-0.14111 0.04233,-0.0706 0.09172,-0.13053 0.04939,-0.0635 0.09878,-0.11289 -0.07056,-0.0141 -0.123472,-0.0212 -0.05292,-0.0106 -0.07761,-0.0106 -0.130528,0 -0.22225,0.0706 -0.08819,0.067 -0.1905,0.16933 0,-0.11994 0.03528,-0.24694 0.0388,-0.13053 0.116416,-0.23636 0.07761,-0.10584 0.194028,-0.17287 0.119945,-0.067 0.282222,-0.067 0.112889,0 0.208139,0.0176 0.09878,0.0141 0.179917,0.0353 0.08114,0.0212 0.148167,0.0388 0.06703,0.0141 0.119944,0.0141 0.08114,0 0.141111,-0.0212 0.0635,-0.0247 0.123472,-0.0847 0,0.0776 -0.03175,0.17639 -0.02822,0.0988 -0.08819,0.1905 -0.05644,0.0882 -0.148167,0.15169 -0.09172,0.06 -0.211666,0.06 -0.05997,0 -0.137584,-0.007 -0.07408,-0.0106 -0.155222,-0.0247 -0.0071,0.0247 -0.01058,0.0459 -0.0035,0.0212 -0.0071,0.0388 -0.0035,0.0212 -0.0035,0.0388 0,0.0776 0.01058,0.1517 0.01411,0.0705 0.03881,0.14464 h 0.712611 l -0.08114,0.23989 q -0.01058,0.0459 -0.01411,0.067 -0.0035,0.0212 -0.01058,0.067 l -0.130528,-0.0917 h -0.363361 q 0.07761,0.17639 0.144639,0.35983 0.06703,0.17992 0.06703,0.38453 0,0.18345 -0.07408,0.3422 -0.07408,0.15522 -0.197555,0.27163 -0.119945,0.11642 -0.278695,0.17992 -0.155222,0.067 -0.321027,0.067 z"
         style="font-style:normal;font-variant:normal;font-weight:normal;font-stretch:normal;font-family:'Bradley Gratis';-inkscape-font-specification:'Bradley Gratis';text-align:start;text-anchor:start;fill:#00a3f2;fill-opacity:1;stroke-width:0.26458332"
         id="path3286" />
      <path
         d="m 50.496367,148.37224 q 0.07055,-0.0423 0.137583,-0.0988 0.07055,-0.0564 0.123472,-0.127 0.05645,-0.0706 0.08819,-0.16228 0.03528,-0.0953 0.03528,-0.21166 0,-0.0988 -0.0388,-0.16581 -0.03528,-0.0706 -0.08467,-0.11289 -0.04939,-0.0423 -0.09878,-0.06 -0.04586,-0.0176 -0.07056,-0.0176 -0.02822,0 -0.05292,0.0106 -0.02117,0.0106 -0.03881,0.0247 z m -0.518584,-0.94192 q -0.112889,-0.0635 -0.112889,-0.23636 0.03175,0.0317 0.112889,0.0564 0.08114,0.0212 0.172861,0.0212 0.04586,0 0.130528,-0.0106 0.08467,-0.0141 0.172861,-0.0282 0.09172,-0.0141 0.172861,-0.0247 0.08467,-0.0141 0.130528,-0.0141 0.116417,0 0.232833,0.0353 0.116417,0.0353 0.215195,0.11994 0.09878,0.0847 0.165805,0.22931 0.07056,0.14111 0.09172,0.35983 l -0.627945,0.4445 q 0.07056,0.0282 0.15875,0.0952 0.08819,0.067 0.165806,0.18697 0.08114,0.11995 0.134055,0.30692 0.05292,0.18344 0.05292,0.45156 0,0.23283 0.02117,0.37747 0.02117,0.14464 0.05292,0.23283 0.03175,0.0882 0.06703,0.13053 0.03881,0.0459 0.07056,0.0776 -0.155223,0 -0.275167,-0.0917 -0.119944,-0.0882 -0.211667,-0.23284 -0.09172,-0.14463 -0.162277,-0.32808 -0.06703,-0.18344 -0.123473,-0.37042 -0.05644,-0.18697 -0.105833,-0.35983 -0.04586,-0.17286 -0.09525,-0.29986 -0.02469,0.0176 -0.04939,0.0353 -0.02117,0.0141 -0.03881,0.0317 v 1.31939 h -0.518584 z"
         style="font-style:normal;font-variant:normal;font-weight:normal;font-stretch:normal;font-family:'Bradley Gratis';-inkscape-font-specification:'Bradley Gratis';text-align:start;text-anchor:start;fill:#00a3f2;fill-opacity:1;stroke-width:0.26458332"
         id="path3288" />
      <path
         d="m 52.384114,149.47996 q 0,0.11994 0.01411,0.18697 0.01764,0.067 0.04233,0.10231 0.02822,0.0318 0.0635,0.0388 0.03528,0.007 0.07056,0.007 0.07056,0 0.116416,-0.0952 0.04586,-0.0988 0.04586,-0.29986 v -1.53106 q 0,-0.15875 -0.01764,-0.25753 -0.01411,-0.1023 -0.04233,-0.15522 -0.02469,-0.0564 -0.05997,-0.0776 -0.03175,-0.0212 -0.0635,-0.0212 -0.06703,0 -0.119945,0.0847 -0.04939,0.0811 -0.04939,0.26106 z m 1.005416,-0.88547 q 0,0.25753 -0.06703,0.508 -0.0635,0.25047 -0.176389,0.44803 -0.109361,0.19755 -0.261055,0.32102 -0.151695,0.11995 -0.321028,0.11995 -0.15875,0 -0.310444,-0.10936 -0.148167,-0.10936 -0.264584,-0.29986 -0.112888,-0.1905 -0.183444,-0.4445 -0.07056,-0.254 -0.07056,-0.54328 0,-0.23636 0.0635,-0.48331 0.06703,-0.25047 0.179917,-0.45155 0.112889,-0.20109 0.264583,-0.32809 0.151695,-0.13052 0.321028,-0.13052 0.148167,0 0.292806,0.10936 0.148166,0.10936 0.264583,0.29986 0.119944,0.18697 0.194028,0.44097 0.07408,0.254 0.07408,0.54328 z"
         style="font-style:normal;font-variant:normal;font-weight:normal;font-stretch:normal;font-family:'Bradley Gratis';-inkscape-font-specification:'Bradley Gratis';text-align:start;text-anchor:start;fill:#00a3f2;fill-opacity:1;stroke-width:0.26458332"
         id="path3290" />
      <path
         d="m 53.543595,149.95268 q 0.04586,-0.27164 0.130528,-0.51153 0.08819,-0.23988 0.194027,-0.45861 0.105834,-0.21872 0.218723,-0.41627 0.116416,-0.20109 0.218722,-0.38806 0.102305,-0.18697 0.179916,-0.36336 0.07761,-0.17992 0.112889,-0.35983 -0.02822,-0.0176 -0.06703,-0.0317 -0.03528,-0.0141 -0.137584,-0.0141 -0.05292,0 -0.09525,0.0282 -0.0388,0.0247 -0.06703,0.0635 -0.02822,0.0353 -0.04586,0.0776 -0.01411,0.0388 -0.01411,0.0635 0,0.0282 0.01058,0.067 0.01411,0.0353 0.02822,0.0705 0.01764,0.0353 0.03528,0.067 0.01764,0.0282 0.03175,0.0423 l -0.430389,0.26811 q -0.08467,-0.0811 -0.144639,-0.19755 -0.05645,-0.11995 -0.05645,-0.23989 0,-0.06 0.03175,-0.14817 0.03175,-0.0882 0.102306,-0.16933 0.07055,-0.0847 0.183444,-0.14111 0.116417,-0.06 0.282223,-0.06 0.130527,0 0.218722,0.0176 0.08819,0.0176 0.155222,0.0423 0.06703,0.0212 0.123472,0.0388 0.05997,0.0176 0.134056,0.0176 0.04586,0 0.09878,-0.007 0.05292,-0.007 0.09878,-0.0212 0.04586,-0.0141 0.08114,-0.0282 0.03881,-0.0176 0.05997,-0.0388 -0.04233,0.22225 -0.134055,0.46214 -0.09172,0.23989 -0.204611,0.47978 -0.109361,0.23989 -0.232834,0.46919 -0.119944,0.22931 -0.22225,0.43039 -0.09878,0.19756 -0.169333,0.35984 -0.06703,0.15875 -0.07408,0.26105 0.141111,0.06 0.239889,0.06 0.0635,0 0.130527,-0.0141 0.06703,-0.0176 0.119945,-0.0529 0.05644,-0.0353 0.09172,-0.0882 0.03528,-0.0564 0.03528,-0.13405 0,-0.0776 -0.01764,-0.127 -0.01411,-0.0529 -0.03881,-0.0847 -0.02469,-0.0353 -0.05644,-0.06 -0.03175,-0.0282 -0.05997,-0.0564 l 0.405694,-0.29986 q 0.141111,0.10583 0.201084,0.22578 0.05997,0.11994 0.05997,0.26105 0,0.067 -0.02117,0.13053 -0.01764,0.06 -0.04586,0.11289 -0.02469,0.0494 -0.05997,0.0917 -0.03175,0.0423 -0.05644,0.067 l 0.05997,0.06 q 0.01764,0.0176 0.0388,0.0529 0.02117,0.0318 0.02117,0.0564 0,0.0282 -0.0247,0.0811 -0.02117,0.0564 -0.08819,0.0988 -0.0247,-0.0318 -0.05644,-0.0564 -0.02822,-0.0212 -0.05997,-0.0388 -0.03175,-0.0176 -0.06703,-0.0176 z"
         style="font-style:normal;font-variant:normal;font-weight:normal;font-stretch:normal;font-family:'Bradley Gratis';-inkscape-font-specification:'Bradley Gratis';text-align:start;text-anchor:start;fill:#00a3f2;fill-opacity:1;stroke-width:0.26458332"
         id="path3292" />
      <path
         d="m 57.04993,147.22571 v 0.381 q -0.03881,-0.0353 -0.102305,-0.0776 -0.05997,-0.0423 -0.130528,-0.0741 -0.06703,-0.0353 -0.134056,-0.0564 -0.06703,-0.0247 -0.112888,-0.0247 -0.08467,0 -0.172862,0.067 -0.08819,0.067 -0.144638,0.17992 -0.05645,0.10936 -0.07408,0.28928 -0.01411,0.17639 -0.01411,0.45508 h 0.903111 l -0.179916,0.40217 q -0.03528,-0.0529 -0.08467,-0.0706 -0.04586,-0.0212 -0.08467,-0.0212 h -0.553861 q 0,0.20108 0.0071,0.39511 0.0071,0.1905 0.04586,0.34219 0.04233,0.1517 0.127,0.24695 0.08467,0.0917 0.243416,0.0917 0.08467,0 0.165806,-0.0317 0.08467,-0.0318 0.155222,-0.0776 0.07056,-0.0494 0.123472,-0.10231 0.05644,-0.0529 0.08819,-0.0952 v 0.508 h -0.47625 q -0.342195,0 -0.553861,-0.11994 -0.211667,-0.12347 -0.331611,-0.32809 -0.116417,-0.20813 -0.15875,-0.47977 -0.03881,-0.27164 -0.03881,-0.56798 0,-0.0741 0.01058,-0.19402 0.01058,-0.12348 0.04586,-0.25753 0.03528,-0.13758 0.102305,-0.27517 0.06703,-0.14111 0.179917,-0.25047 0.116416,-0.11289 0.28575,-0.18344 0.169333,-0.0706 0.409222,-0.0706 z"
         style="font-style:normal;font-variant:normal;font-weight:normal;font-stretch:normal;font-family:'Bradley Gratis';-inkscape-font-specification:'Bradley Gratis';text-align:start;text-anchor:start;fill:#00a3f2;fill-opacity:1;stroke-width:0.26458332"
         id="path3294" />
      <path
         d="m 57.436332,149.95268 v -2.43769 q 0,-0.0988 -0.04233,-0.16581 -0.04233,-0.0705 -0.08467,-0.12347 h 0.684389 v 0.35983 l 0.391583,-0.45508 q 0.179917,0.16228 0.296334,0.32456 0.116416,0.15875 0.183444,0.32102 0.06703,0.15875 0.09172,0.32456 0.0247,0.16228 0.0247,0.33514 0,0.16933 -0.02822,0.32455 -0.0247,0.1517 -0.07408,0.29986 -0.04939,0.14817 -0.119944,0.29987 -0.06703,0.15169 -0.148167,0.3175 h 0.127 q 0.04586,0 0.09525,-0.0317 0.04939,-0.0317 0.09878,-0.0317 v 0.33866 h -0.684389 q 0.09525,-0.19403 0.151695,-0.34925 0.05997,-0.15522 0.09172,-0.29633 0.03175,-0.14111 0.04233,-0.27517 0.01058,-0.13405 0.01058,-0.28575 0,-0.15169 -0.05292,-0.31397 -0.04939,-0.16581 -0.123472,-0.30339 -0.07408,-0.13758 -0.15875,-0.22578 -0.08114,-0.0882 -0.148167,-0.0882 -0.04233,0 -0.06703,0.0212 v 2.11666 z"
         style="font-style:normal;font-variant:normal;font-weight:normal;font-stretch:normal;font-family:'Bradley Gratis';-inkscape-font-specification:'Bradley Gratis';text-align:start;text-anchor:start;fill:#00a3f2;fill-opacity:1;stroke-width:0.26458332"
         id="path3296" />
      <path
         d="m 60.674501,150.0691 q -0.1905,-0.13758 -0.324555,-0.29281 -0.134056,-0.15875 -0.215195,-0.32808 -0.08114,-0.16933 -0.119944,-0.34219 -0.03528,-0.17639 -0.03528,-0.34573 0,-0.1658 0.03528,-0.32808 0.03528,-0.16581 0.09172,-0.32456 0.05997,-0.16227 0.137584,-0.31397 0.07761,-0.15522 0.15875,-0.30339 h -0.02117 q -0.01058,0 -0.0247,0 -0.01058,-0.004 -0.02822,-0.004 -0.05644,0 -0.137583,0.0141 -0.07761,0.0141 -0.151695,0.0705 v -0.34572 h 0.740834 q -0.09172,0.15875 -0.15875,0.32103 -0.0635,0.15875 -0.105834,0.31044 -0.03881,0.14817 -0.05997,0.28222 -0.01764,0.13053 -0.01764,0.23637 0,0.10583 0.02117,0.254 0.02117,0.14816 0.07761,0.30691 0.05997,0.15522 0.15875,0.29634 0.102306,0.14111 0.264583,0.2293 l 0.105834,-0.0776 q -0.0635,-0.11994 -0.09878,-0.22931 -0.03528,-0.11288 -0.05292,-0.21166 -0.01411,-0.0988 -0.01764,-0.17992 -0.0035,-0.0847 -0.0035,-0.15169 0,-0.10936 0.02822,-0.24695 0.02822,-0.13758 0.08114,-0.28575 0.05292,-0.14816 0.127,-0.29986 0.07761,-0.15169 0.172861,-0.29633 -0.134056,0 -0.22225,0.0212 -0.08467,0.0212 -0.144639,0.06 v -0.33867 h 0.762 q -0.0635,0.0882 -0.127,0.20108 -0.05997,0.10936 -0.105833,0.23989 -0.04586,0.127 -0.07408,0.27164 -0.02822,0.14464 -0.02822,0.29633 0,0.25753 0.04586,0.45862 0.04586,0.19755 0.127,0.34925 0.08114,0.15169 0.1905,0.26105 0.109361,0.10936 0.232834,0.18697 v -2.26483 h 0.529166 v 2.12019 q 0,0.0247 -0.03528,0.0706 -0.03528,0.0423 -0.09172,0.0988 -0.05292,0.0564 -0.127,0.12347 -0.07055,0.0635 -0.144639,0.127 -0.176389,0.14817 -0.398639,0.32456 -0.172861,-0.13406 -0.296333,-0.26459 -0.123472,-0.13053 -0.211667,-0.254 z"
         style="font-style:normal;font-variant:normal;font-weight:normal;font-stretch:normal;font-family:'Bradley Gratis';-inkscape-font-specification:'Bradley Gratis';text-align:start;text-anchor:start;fill:#00a3f2;fill-opacity:1;stroke-width:0.26458332"
         id="path3298" />
      <path
         d="m 63.926561,148.25582 v -0.87842 h -0.416278 q -0.0035,0.23637 -0.01411,0.4692 -0.0071,0.2293 -0.01764,0.40922 z m 0.719667,-1.03011 q -0.03881,0.0282 -0.07408,0.0706 -0.03175,0.0423 -0.05644,0.0917 -0.02117,0.0459 -0.03528,0.0917 -0.01411,0.0423 -0.01411,0.0741 v 2.39889 h -0.53975 v -1.32997 h -0.472722 q -0.0035,0.127 -0.03528,0.27869 -0.03175,0.14817 -0.08819,0.29987 -0.05292,0.14816 -0.127,0.28927 -0.07056,0.13759 -0.162278,0.24342 -0.08819,0.10583 -0.1905,0.16933 -0.09878,0.0635 -0.208139,0.0635 -0.07056,0 -0.123472,-0.0423 -0.04939,-0.0423 -0.04939,-0.11994 0,-0.0494 0.03175,-0.0706 0.03175,-0.0247 0.06703,-0.0247 0.03175,0 0.04939,0.0106 0.01764,0.007 0.03175,0.0212 0.01764,0.0106 0.03881,0.0212 0.02117,0.007 0.05997,0.007 0.0635,0 0.102306,-0.0635 0.03881,-0.067 0.0635,-0.17639 0.02469,-0.11289 0.03528,-0.25753 0.01411,-0.14817 0.02117,-0.31044 0.0071,-0.16228 0.01764,-0.32809 0.01058,-0.16933 0.02822,-0.32455 0.02117,-0.18345 0.0635,-0.33514 0.04586,-0.1517 0.09525,-0.26811 0.04939,-0.11642 0.09878,-0.19756 0.04939,-0.0811 0.08467,-0.13053 h -0.07761 q -0.06703,0 -0.123473,0.0212 -0.05644,0.0176 -0.102305,0.0423 -0.04233,0.0212 -0.07761,0.0423 -0.03175,0.0176 -0.05645,0.0176 -0.05997,0 -0.08819,-0.0423 -0.02822,-0.0423 -0.02822,-0.0952 0,-0.0494 0.05292,-0.0917 0.05644,-0.0459 0.155223,-0.0459 z"
         style="font-style:normal;font-variant:normal;font-weight:normal;font-stretch:normal;font-family:'Bradley Gratis';-inkscape-font-specification:'Bradley Gratis';text-align:start;text-anchor:start;fill:#00a3f2;fill-opacity:1;stroke-width:0.26458332"
         id="path3300" />
      <path
         d="m 65.426418,150.07615 q -0.08114,-0.0811 -0.186972,-0.15875 -0.102305,-0.0776 -0.201083,-0.13758 -0.09525,-0.06 -0.169334,-0.1023 -0.07055,-0.0423 -0.08114,-0.0529 0.03528,-0.0423 0.08819,-0.11642 0.05292,-0.0776 0.102306,-0.15169 0.05292,-0.0741 0.09172,-0.13053 0.04233,-0.06 0.05292,-0.0706 0.04939,0.0318 0.134056,0.0882 0.08819,0.0529 0.172861,0.11289 0.08819,0.06 0.15875,0.10936 0.07056,0.0494 0.09172,0.0705 0.04939,-0.0282 0.08114,-0.0741 0.03528,-0.0459 0.03528,-0.14817 0,-0.0882 -0.07408,-0.18697 -0.07056,-0.0988 -0.176389,-0.20814 -0.105834,-0.10936 -0.232834,-0.2293 -0.127,-0.11995 -0.232833,-0.24695 -0.105833,-0.127 -0.179917,-0.25752 -0.07055,-0.13053 -0.07055,-0.26812 0,-0.0988 0.04939,-0.18344 0.05292,-0.0882 0.130528,-0.16228 0.07761,-0.0776 0.169333,-0.13758 0.09525,-0.0635 0.179917,-0.11642 0.08819,-0.0564 0.155222,-0.0988 0.06703,-0.0459 0.09525,-0.0811 0.02117,0.0176 0.09172,0.0882 0.07408,0.067 0.15875,0.14464 0.08467,0.0776 0.15875,0.13758 0.07761,0.06 0.102306,0.06 -0.03528,0.0282 -0.08819,0.0847 -0.04939,0.0529 -0.102305,0.11289 -0.04939,0.06 -0.09172,0.11642 -0.0388,0.0529 -0.05644,0.0811 -0.08114,-0.0353 -0.162278,-0.10584 -0.08114,-0.0705 -0.148167,-0.13758 -0.06703,-0.067 -0.112888,-0.11642 -0.04586,-0.0529 -0.05997,-0.0529 -0.02822,0 -0.04939,0.0317 -0.01764,0.0282 -0.01764,0.067 0,0.0847 0.07408,0.17992 0.07761,0.0952 0.186972,0.20461 0.112889,0.10583 0.243417,0.22578 0.134055,0.11642 0.243416,0.24342 0.112889,0.127 0.186973,0.26458 0.07761,0.13405 0.07761,0.27517 0,0.127 -0.09525,0.26811 -0.09525,0.14111 -0.229306,0.28222 -0.130528,0.13758 -0.268111,0.26458 -0.137583,0.12347 -0.225778,0.21872 z"
         style="font-style:normal;font-variant:normal;font-weight:normal;font-stretch:normal;font-family:'Bradley Gratis';-inkscape-font-specification:'Bradley Gratis';text-align:start;text-anchor:start;fill:#00a3f2;fill-opacity:1;stroke-width:0.26458332"
         id="path3302" />
      <path
         d="m 67.911406,149.47643 q 0,0.13759 -0.05644,0.23989 -0.05644,0.0988 -0.148167,0.16228 -0.08819,0.0635 -0.197555,0.0952 -0.109362,0.0317 -0.215195,0.0317 -0.165805,0 -0.324555,-0.0811 -0.15875,-0.0811 -0.28575,-0.21872 -0.127,-0.14111 -0.204612,-0.32809 -0.07761,-0.1905 -0.07761,-0.40922 0,-0.39158 0.179917,-0.72672 0.179917,-0.33867 0.500944,-0.61383 -0.02822,-0.004 -0.05292,-0.004 -0.02117,-0.004 -0.04586,-0.004 -0.08467,0 -0.179917,0.0282 -0.09525,0.0282 -0.179917,0.0741 -0.08467,0.0423 -0.155222,0.0952 -0.06703,0.0529 -0.102305,0.0988 0.02822,-0.13758 0.105833,-0.27163 0.07761,-0.13406 0.194028,-0.23637 0.116416,-0.1023 0.268111,-0.1658 0.151694,-0.0635 0.331611,-0.0635 0.09172,0 0.194028,0.0282 0.102305,0.0282 0.194027,0.0741 0.09525,0.0423 0.169334,0.0952 0.07408,0.0529 0.112889,0.10231 l -0.289278,0.44097 q -0.176389,-0.17286 -0.381,-0.24694 -0.04586,0.0741 -0.09525,0.17639 -0.04939,0.0988 -0.09172,0.22577 -0.03881,0.127 -0.06703,0.28223 -0.0247,0.15169 -0.0247,0.33161 0,0.16933 0.0247,0.29986 0.02822,0.13053 0.07055,0.22578 0.04233,0.0952 0.09525,0.15875 0.05644,0.0635 0.112889,0.10583 0.134056,0.0952 0.306917,0.10583 0.07056,0 0.162278,-0.0282 0.09525,-0.0317 0.151694,-0.0811 z"
         style="font-style:normal;font-variant:normal;font-weight:normal;font-stretch:normal;font-family:'Bradley Gratis';-inkscape-font-specification:'Bradley Gratis';text-align:start;text-anchor:start;fill:#00a3f2;fill-opacity:1;stroke-width:0.26458332"
         id="path3304" />
      <path
         d="m 69.679651,147.22571 v 0.381 q -0.03881,-0.0353 -0.102306,-0.0776 -0.05997,-0.0423 -0.130528,-0.0741 -0.06703,-0.0353 -0.134055,-0.0564 -0.06703,-0.0247 -0.112889,-0.0247 -0.08467,0 -0.172861,0.067 -0.08819,0.067 -0.144639,0.17992 -0.05644,0.10936 -0.07408,0.28928 -0.01411,0.17639 -0.01411,0.45508 h 0.903111 l -0.179916,0.40217 q -0.03528,-0.0529 -0.08467,-0.0706 -0.04586,-0.0212 -0.08467,-0.0212 h -0.553861 q 0,0.20108 0.0071,0.39511 0.0071,0.1905 0.04586,0.34219 0.04233,0.1517 0.127,0.24695 0.08467,0.0917 0.243417,0.0917 0.08467,0 0.165805,-0.0317 0.08467,-0.0318 0.155222,-0.0776 0.07056,-0.0494 0.123473,-0.10231 0.05644,-0.0529 0.08819,-0.0952 v 0.508 h -0.47625 q -0.342194,0 -0.553861,-0.11994 -0.211667,-0.12347 -0.331611,-0.32809 -0.116417,-0.20813 -0.15875,-0.47977 -0.03881,-0.27164 -0.03881,-0.56798 0,-0.0741 0.01058,-0.19402 0.01058,-0.12348 0.04586,-0.25753 0.03528,-0.13758 0.102305,-0.27517 0.06703,-0.14111 0.179917,-0.25047 0.116417,-0.11289 0.28575,-0.18344 0.169333,-0.0706 0.409222,-0.0706 z"
         style="font-style:normal;font-variant:normal;font-weight:normal;font-stretch:normal;font-family:'Bradley Gratis';-inkscape-font-specification:'Bradley Gratis';text-align:start;text-anchor:start;fill:#00a3f2;fill-opacity:1;stroke-width:0.26458332"
         id="path3306" />
      <path
         d="m 70.95858,147.92068 q -0.08819,-0.21166 -0.151695,-0.35278 -0.0635,-0.14111 -0.09878,-0.14111 -0.03881,0 -0.05292,0.0353 -0.01058,0.0317 -0.01058,0.0564 v 1.91205 q 0,0.0776 -0.04233,0.16228 -0.04233,0.0847 -0.112889,0.14817 0.130528,0 0.232834,-0.0635 0.102305,-0.067 0.211666,-0.14464 0.112889,-0.0811 0.250473,-0.14464 0.137583,-0.067 0.342194,-0.067 v 0.63147 h -1.594556 q 0.04586,-0.067 0.07761,-0.127 0.03528,-0.06 0.05644,-0.11994 0.02117,-0.06 0.03175,-0.127 0.01058,-0.067 0.01058,-0.14817 v -1.66864 q 0,-0.11289 -0.04233,-0.18344 -0.04233,-0.0741 -0.05997,-0.10231 0.01411,-0.004 0.07055,-0.0247 0.05997,-0.0247 0.144639,-0.0565 0.08467,-0.0317 0.186972,-0.067 0.102306,-0.0353 0.201084,-0.0635 0.09878,-0.0318 0.186972,-0.0494 0.08819,-0.0212 0.144639,-0.0212 0.08819,0 0.165805,0.0494 0.07761,0.0494 0.141112,0.12347 0.0635,0.0741 0.109361,0.16581 0.04586,0.0882 0.07408,0.1658 z"
         style="font-style:normal;font-variant:normal;font-weight:normal;font-stretch:normal;font-family:'Bradley Gratis';-inkscape-font-specification:'Bradley Gratis';text-align:start;text-anchor:start;fill:#00a3f2;fill-opacity:1;stroke-width:0.26458332"
         id="path3308" />
      <path
         d="m 73.138747,148.25582 v -0.87842 h -0.416278 q -0.0035,0.23637 -0.01411,0.4692 -0.0071,0.2293 -0.01764,0.40922 z m 0.719667,-1.03011 q -0.03881,0.0282 -0.07408,0.0706 -0.03175,0.0423 -0.05644,0.0917 -0.02117,0.0459 -0.03528,0.0917 -0.01411,0.0423 -0.01411,0.0741 v 2.39889 h -0.53975 v -1.32997 h -0.472722 q -0.0035,0.127 -0.03528,0.27869 -0.03175,0.14817 -0.08819,0.29987 -0.05292,0.14816 -0.127,0.28927 -0.07055,0.13759 -0.162277,0.24342 -0.08819,0.10583 -0.1905,0.16933 -0.09878,0.0635 -0.208139,0.0635 -0.07056,0 -0.123472,-0.0423 -0.04939,-0.0423 -0.04939,-0.11994 0,-0.0494 0.03175,-0.0706 0.03175,-0.0247 0.06703,-0.0247 0.03175,0 0.04939,0.0106 0.01764,0.007 0.03175,0.0212 0.01764,0.0106 0.03881,0.0212 0.02117,0.007 0.05997,0.007 0.0635,0 0.102306,-0.0635 0.0388,-0.067 0.0635,-0.17639 0.02469,-0.11289 0.03528,-0.25753 0.01411,-0.14817 0.02117,-0.31044 0.0071,-0.16228 0.01764,-0.32809 0.01058,-0.16933 0.02822,-0.32455 0.02117,-0.18345 0.0635,-0.33514 0.04586,-0.1517 0.09525,-0.26811 0.04939,-0.11642 0.09878,-0.19756 0.04939,-0.0811 0.08467,-0.13053 h -0.07761 q -0.06703,0 -0.123473,0.0212 -0.05644,0.0176 -0.102305,0.0423 -0.04233,0.0212 -0.07761,0.0423 -0.03175,0.0176 -0.05644,0.0176 -0.05997,0 -0.08819,-0.0423 -0.02822,-0.0423 -0.02822,-0.0952 0,-0.0494 0.05292,-0.0917 0.05645,-0.0459 0.155222,-0.0459 z"
         style="font-style:normal;font-variant:normal;font-weight:normal;font-stretch:normal;font-family:'Bradley Gratis';-inkscape-font-specification:'Bradley Gratis';text-align:start;text-anchor:start;fill:#00a3f2;fill-opacity:1;stroke-width:0.26458332"
         id="path3310" />
      <path
         d="m 74.158825,149.95268 v -2.43769 q 0,-0.0988 -0.04233,-0.16581 -0.04233,-0.0705 -0.08467,-0.12347 h 0.684389 v 0.35983 l 0.391584,-0.45508 q 0.179916,0.16228 0.296333,0.32456 0.116417,0.15875 0.183444,0.32102 0.06703,0.15875 0.09172,0.32456 0.02469,0.16228 0.02469,0.33514 0,0.16933 -0.02822,0.32455 -0.02469,0.1517 -0.07408,0.29986 -0.04939,0.14817 -0.119945,0.29987 -0.06703,0.15169 -0.148167,0.3175 h 0.127 q 0.04586,0 0.09525,-0.0317 0.04939,-0.0317 0.09878,-0.0317 v 0.33866 h -0.684389 q 0.09525,-0.19403 0.151695,-0.34925 0.05997,-0.15522 0.09172,-0.29633 0.03175,-0.14111 0.04233,-0.27517 0.01058,-0.13405 0.01058,-0.28575 0,-0.15169 -0.05292,-0.31397 -0.04939,-0.16581 -0.123472,-0.30339 -0.07408,-0.13758 -0.15875,-0.22578 -0.08114,-0.0882 -0.148167,-0.0882 -0.04233,0 -0.06703,0.0212 v 2.11666 z"
         style="font-style:normal;font-variant:normal;font-weight:normal;font-stretch:normal;font-family:'Bradley Gratis';-inkscape-font-specification:'Bradley Gratis';text-align:start;text-anchor:start;fill:#00a3f2;fill-opacity:1;stroke-width:0.26458332"
         id="path3312" />
      <path
         d="m 76.04773,147.47265 q -0.09172,-0.0388 -0.127,-0.0952 -0.03528,-0.0564 -0.03528,-0.10583 0,-0.0423 0.02822,-0.0529 0.02822,0.0176 0.07761,0.0247 0.04939,0.007 0.112889,0.007 0.03175,0 0.08819,-0.0106 0.05997,-0.0106 0.130527,-0.0212 0.07056,-0.0106 0.144639,-0.0212 0.07761,-0.0106 0.144639,-0.0106 0.162278,0 0.331611,0.0847 0.169334,0.0811 0.303389,0.254 0.134056,0.16933 0.218722,0.43392 0.08819,0.26105 0.08819,0.62441 0,0.30692 -0.05292,0.52917 -0.05292,0.22225 -0.134055,0.37747 -0.08114,0.15523 -0.179917,0.25048 -0.09878,0.0917 -0.194028,0.14463 -0.09172,0.0494 -0.169333,0.067 -0.07408,0.0176 -0.109361,0.0176 -0.05292,0 -0.112889,-0.0141 -0.05997,-0.0141 -0.119945,-0.0317 -0.05644,-0.0176 -0.109361,-0.0318 -0.04939,-0.0141 -0.08467,-0.0141 -0.03881,0 -0.07056,0.0141 -0.03175,0.0106 -0.06703,0.0247 -0.03175,0.0106 -0.07055,0.0247 -0.03881,0.0106 -0.08819,0.0106 -0.01764,0 -0.03881,-0.004 -0.01764,-0.004 -0.03528,-0.0106 -0.01764,-0.007 -0.03528,-0.0176 0.02822,-0.0176 0.05644,-0.06 0.02822,-0.0459 0.05292,-0.0952 0.02822,-0.0529 0.05644,-0.11642 z m 0.518583,2.10256 q 0,0.0741 0.0247,0.11642 0.02822,0.0388 0.05997,0.0564 0.0388,0.0212 0.08467,0.0247 0.08114,0 0.141112,-0.10937 0.0635,-0.10936 0.0635,-0.27869 v -1.54869 q 0,-0.16581 -0.03175,-0.25753 -0.03175,-0.0917 -0.07408,-0.13406 -0.04233,-0.0423 -0.08467,-0.0494 -0.04233,-0.0106 -0.06703,-0.0106 -0.04233,0 -0.08114,0.0564 -0.03528,0.0565 -0.03528,0.14817 z"
         style="font-style:normal;font-variant:normal;font-weight:normal;font-stretch:normal;font-family:'Bradley Gratis';-inkscape-font-specification:'Bradley Gratis';text-align:start;text-anchor:start;fill:#00a3f2;fill-opacity:1;stroke-width:0.26458332"
         id="path3314" />
    </g>
    <g
       style="font-style:normal;font-variant:normal;font-weight:bold;font-stretch:normal;font-size:3.52777767px;line-height:1.25;font-family:Consolas;-inkscape-font-specification:'Consolas Bold';text-align:center;letter-spacing:0px;word-spacing:0px;text-anchor:middle;fill:#ffffff;fill-opacity:1;stroke:none;stroke-width:0.26458332"
       id="text6637" />
    <g
       style="font-style:normal;font-variant:normal;font-weight:bold;font-stretch:normal;font-size:13.33333302px;line-height:1.25;font-family:Consolas;-inkscape-font-specification:'Consolas Bold';text-align:center;letter-spacing:0px;word-spacing:0px;text-anchor:middle;fill:#ffffff;fill-opacity:1;stroke:none"
       id="flowRoot1051" />
    <g
       aria-label="OUT"
       style="font-style:normal;font-variant:normal;font-weight:bold;font-stretch:normal;font-size:3.52777767px;line-height:1.25;font-family:Homenaje;-inkscape-font-specification:'Homenaje Bold';text-align:center;letter-spacing:0px;word-spacing:0px;text-anchor:middle;fill:#ffffff;fill-opacity:1;stroke:none;stroke-width:0.26458332"
       id="text307-7">
      <path
         d="m 70.449665,138.48911 q 0,0.23989 -0.138289,0.37536 -0.138289,0.13264 -0.403578,0.13264 -0.262466,0 -0.400755,-0.13264 -0.138289,-0.13547 -0.138289,-0.37536 v -0.99907 q 0,-0.23988 0.138289,-0.37253 0.138289,-0.13547 0.400755,-0.13547 0.265289,0 0.403578,0.13547 0.138289,0.13265 0.138289,0.37253 z m -0.832556,0.048 q 0,0.12982 0.08185,0.2032 0.08467,0.0706 0.208844,0.0706 0.124178,0 0.208845,-0.0706 0.08467,-0.0734 0.08467,-0.2032 v -1.09502 q 0,-0.12983 -0.08467,-0.20038 -0.08467,-0.0734 -0.208845,-0.0734 -0.124177,0 -0.208844,0.0734 -0.08185,0.0705 -0.08185,0.20038 z"
         style="font-style:normal;font-variant:normal;font-weight:bold;font-stretch:normal;font-size:2.82222223px;font-family:Homenaje;-inkscape-font-specification:'Homenaje Bold';stroke-width:0.26458332"
         id="path3319" />
      <path
         d="m 70.691671,137.0018 h 0.248355 v 1.53529 q 0,0.13547 0.06491,0.20602 0.06773,0.0677 0.186267,0.0677 0.118533,0 0.186267,-0.0677 0.06773,-0.0705 0.06773,-0.20602 v -1.53529 h 0.248355 v 1.48731 q 0,0.508 -0.502355,0.508 -0.499533,0 -0.499533,-0.508 z"
         style="font-style:normal;font-variant:normal;font-weight:bold;font-stretch:normal;font-size:2.82222223px;font-family:Homenaje;-inkscape-font-specification:'Homenaje Bold';stroke-width:0.26458332"
         id="path3321" />
      <path
         d="m 72.267617,138.97736 v -1.78929 h -0.395111 v -0.18627 h 1.038578 v 0.18627 h -0.395111 v 1.78929 z"
         style="font-style:normal;font-variant:normal;font-weight:bold;font-stretch:normal;font-size:2.82222223px;font-family:Homenaje;-inkscape-font-specification:'Homenaje Bold';stroke-width:0.26458332"
         id="path3323" />
    </g>
    <g
       aria-label="IN"
       style="font-style:normal;font-variant:normal;font-weight:bold;font-stretch:normal;font-size:3.52777767px;line-height:1.25;font-family:Homenaje;-inkscape-font-specification:'Homenaje Bold';text-align:center;letter-spacing:0px;word-spacing:0px;text-anchor:middle;fill:#ffffff;fill-opacity:1;stroke:none;stroke-width:0.26458332"
       id="text307-7-9">
      <path
         d="m 53.559812,138.93414 v -1.97555 h 0.248355 v 1.97555 z"
         style="font-style:normal;font-variant:normal;font-weight:bold;font-stretch:normal;font-size:2.82222223px;font-family:Homenaje;-inkscape-font-specification:'Homenaje Bold';stroke-width:0.26458332"
         id="path3326" />
      <path
         d="m 55.324759,138.93414 h -0.3556 l -0.522111,-1.79493 v 1.79493 h -0.248356 v -1.97555 h 0.414867 l 0.460022,1.70744 v -1.70744 h 0.251178 z"
         style="font-style:normal;font-variant:normal;font-weight:bold;font-stretch:normal;font-size:2.82222223px;font-family:Homenaje;-inkscape-font-specification:'Homenaje Bold';stroke-width:0.26458332"
         id="path3328" />
    </g>
    <g
       aria-label="EDGE LEVEL"
       style="font-style:normal;font-variant:normal;font-weight:bold;font-stretch:normal;font-size:3.52777767px;line-height:1.25;font-family:Homenaje;-inkscape-font-specification:'Homenaje Bold';text-align:start;letter-spacing:0px;word-spacing:0px;text-anchor:start;fill:#ffffff;fill-opacity:1;stroke:none;stroke-width:0.26458332"
       id="text299-5">
      <path
         d="m 38.366468,102.94928 v -1.97556 h 0.860778 v 0.19192 h -0.612422 v 0.63217 h 0.496711 v 0.19191 h -0.496711 v 0.76765 h 0.640644 v 0.19191 z"
         style="font-style:normal;font-variant:normal;font-weight:bold;font-stretch:normal;font-size:2.82222223px;font-family:Homenaje;-inkscape-font-specification:'Homenaje Bold';text-align:start;text-anchor:start;stroke-width:0.26458332"
         id="path3331" />
      <path
         d="m 39.821985,102.75737 h 0.239889 q 0.129822,0 0.208845,-0.0734 0.08184,-0.0762 0.08184,-0.20038 v -1.04422 q 0,-0.12418 -0.08184,-0.19755 -0.07902,-0.0762 -0.208845,-0.0762 h -0.239889 z m -0.251177,0.19191 v -1.97556 h 0.491066 q 0.256822,0 0.397934,0.12983 0.141111,0.12982 0.141111,0.381 v 0.95391 q 0,0.25118 -0.141111,0.381 -0.141112,0.127 -0.397934,0.12982 z"
         style="font-style:normal;font-variant:normal;font-weight:bold;font-stretch:normal;font-size:2.82222223px;font-family:Homenaje;-inkscape-font-specification:'Homenaje Bold';text-align:start;text-anchor:start;stroke-width:0.26458332"
         id="path3333" />
      <path
         d="m 41.88353,102.94928 h -0.499533 q -0.256822,0 -0.397933,-0.12982 -0.141111,-0.12982 -0.141111,-0.381 v -0.95674 q 0,-0.24835 0.1524,-0.37817 0.1524,-0.12983 0.414866,-0.12983 h 0.414867 v 0.18909 h -0.443089 q -0.129822,0 -0.211667,0.0762 -0.07902,0.0734 -0.07902,0.19756 v 1.05269 q 0,0.127 0.0762,0.20038 0.0762,0.0734 0.2032,0.0734 h 0.262467 v -0.77611 h -0.254 v -0.18626 h 0.502355 z"
         style="font-style:normal;font-variant:normal;font-weight:bold;font-stretch:normal;font-size:2.82222223px;font-family:Homenaje;-inkscape-font-specification:'Homenaje Bold';text-align:start;text-anchor:start;stroke-width:0.26458332"
         id="path3335" />
      <path
         d="m 42.230487,102.94928 v -1.97556 h 0.860778 v 0.19192 h -0.612422 v 0.63217 h 0.496711 v 0.19191 h -0.496711 v 0.76765 h 0.640644 v 0.19191 z"
         style="font-style:normal;font-variant:normal;font-weight:bold;font-stretch:normal;font-size:2.82222223px;font-family:Homenaje;-inkscape-font-specification:'Homenaje Bold';text-align:start;text-anchor:start;stroke-width:0.26458332"
         id="path3337" />
      <path
         d="m 43.862085,102.94928 v -1.97556 h 0.248355 v 1.78929 h 0.578556 v 0.18627 z"
         style="font-style:normal;font-variant:normal;font-weight:bold;font-stretch:normal;font-size:2.82222223px;font-family:Homenaje;-inkscape-font-specification:'Homenaje Bold';text-align:start;text-anchor:start;stroke-width:0.26458332"
         id="path3339" />
      <path
         d="m 44.931442,102.94928 v -1.97556 h 0.860778 v 0.19192 h -0.612422 v 0.63217 h 0.496711 v 0.19191 h -0.496711 v 0.76765 h 0.640644 v 0.19191 z"
         style="font-style:normal;font-variant:normal;font-weight:bold;font-stretch:normal;font-size:2.82222223px;font-family:Homenaje;-inkscape-font-specification:'Homenaje Bold';text-align:start;text-anchor:start;stroke-width:0.26458332"
         id="path3341" />
      <path
         d="m 46.65507,102.7235 0.389467,-1.74978 h 0.245533 l -0.465666,1.97556 h -0.333023 l -0.474133,-1.97556 h 0.245533 z"
         style="font-style:normal;font-variant:normal;font-weight:bold;font-stretch:normal;font-size:2.82222223px;font-family:Homenaje;-inkscape-font-specification:'Homenaje Bold';text-align:start;text-anchor:start;stroke-width:0.26458332"
         id="path3343" />
      <path
         d="m 47.582787,102.94928 v -1.97556 h 0.860778 v 0.19192 h -0.612422 v 0.63217 h 0.496711 v 0.19191 h -0.496711 v 0.76765 h 0.640644 v 0.19191 z"
         style="font-style:normal;font-variant:normal;font-weight:bold;font-stretch:normal;font-size:2.82222223px;font-family:Homenaje;-inkscape-font-specification:'Homenaje Bold';text-align:start;text-anchor:start;stroke-width:0.26458332"
         id="path3345" />
      <path
         d="m 48.789949,102.94928 v -1.97556 h 0.248356 v 1.78929 h 0.578555 v 0.18627 z"
         style="font-style:normal;font-variant:normal;font-weight:bold;font-stretch:normal;font-size:2.82222223px;font-family:Homenaje;-inkscape-font-specification:'Homenaje Bold';text-align:start;text-anchor:start;stroke-width:0.26458332"
         id="path3347" />
    </g>
    <g
       style="font-style:normal;font-variant:normal;font-weight:bold;font-stretch:normal;font-size:13.33333302px;line-height:1.25;font-family:Consolas;-inkscape-font-specification:'Consolas Bold';text-align:center;letter-spacing:0px;word-spacing:0px;text-anchor:middle;fill:#ffffff;fill-opacity:1;stroke:none"
       id="flowRoot1227" />
    <g
       style="font-style:normal;font-variant:normal;font-weight:bold;font-stretch:normal;font-size:13.33333302px;line-height:1.25;font-family:Consolas;-inkscape-font-specification:'Consolas Bold';text-align:center;letter-spacing:0px;word-spacing:0px;text-anchor:middle;fill:#000000;fill-opacity:1;stroke:none"
       id="flowRoot5298" />
    <g
       aria-label="TENT LEVEL"
       style="font-style:normal;font-variant:normal;font-weight:bold;font-stretch:normal;font-size:3.52777767px;line-height:1.25;font-family:Homenaje;-inkscape-font-specification:'Homenaje Bold';text-align:start;letter-spacing:0px;word-spacing:0px;text-anchor:start;fill:#ffffff;fill-opacity:1;stroke:none;stroke-width:0.26458332"
       id="text299-5-6">
      <path
         d="m 57.254191,102.854 v -1.78929 H 56.85908 v -0.18627 h 1.038577 v 0.18627 h -0.395111 v 1.78929 z"
         style="font-style:normal;font-variant:normal;font-weight:bold;font-stretch:normal;font-size:2.82222223px;font-family:Homenaje;-inkscape-font-specification:'Homenaje Bold';text-align:start;text-anchor:start;stroke-width:0.26458332"
         id="path3352" />
      <path
         d="m 58.160697,102.854 v -1.97556 h 0.860778 v 0.19191 h -0.612422 v 0.63218 h 0.496711 v 0.19191 h -0.496711 v 0.76765 h 0.640644 v 0.19191 z"
         style="font-style:normal;font-variant:normal;font-weight:bold;font-stretch:normal;font-size:2.82222223px;font-family:Homenaje;-inkscape-font-specification:'Homenaje Bold';text-align:start;text-anchor:start;stroke-width:0.26458332"
         id="path3354" />
      <path
         d="m 60.471348,102.854 h -0.3556 l -0.522111,-1.79494 v 1.79494 h -0.248356 v -1.97556 h 0.414867 l 0.460022,1.70745 v -1.70745 h 0.251178 z"
         style="font-style:normal;font-variant:normal;font-weight:bold;font-stretch:normal;font-size:2.82222223px;font-family:Homenaje;-inkscape-font-specification:'Homenaje Bold';text-align:start;text-anchor:start;stroke-width:0.26458332"
         id="path3356" />
      <path
         d="m 61.107185,102.854 v -1.78929 h -0.395111 v -0.18627 h 1.038578 v 0.18627 h -0.395111 v 1.78929 z"
         style="font-style:normal;font-variant:normal;font-weight:bold;font-stretch:normal;font-size:2.82222223px;font-family:Homenaje;-inkscape-font-specification:'Homenaje Bold';text-align:start;text-anchor:start;stroke-width:0.26458332"
         id="path3358" />
      <path
         d="m 62.438128,102.854 v -1.97556 h 0.248356 v 1.78929 h 0.578555 v 0.18627 z"
         style="font-style:normal;font-variant:normal;font-weight:bold;font-stretch:normal;font-size:2.82222223px;font-family:Homenaje;-inkscape-font-specification:'Homenaje Bold';text-align:start;text-anchor:start;stroke-width:0.26458332"
         id="path3360" />
      <path
         d="m 63.507485,102.854 v -1.97556 h 0.860778 v 0.19191 h -0.612422 v 0.63218 h 0.496711 v 0.19191 h -0.496711 v 0.76765 h 0.640644 v 0.19191 z"
         style="font-style:normal;font-variant:normal;font-weight:bold;font-stretch:normal;font-size:2.82222223px;font-family:Homenaje;-inkscape-font-specification:'Homenaje Bold';text-align:start;text-anchor:start;stroke-width:0.26458332"
         id="path3362" />
      <path
         d="m 65.231113,102.62822 0.389467,-1.74978 h 0.245533 l -0.465666,1.97556 h -0.333022 l -0.474134,-1.97556 h 0.245534 z"
         style="font-style:normal;font-variant:normal;font-weight:bold;font-stretch:normal;font-size:2.82222223px;font-family:Homenaje;-inkscape-font-specification:'Homenaje Bold';text-align:start;text-anchor:start;stroke-width:0.26458332"
         id="path3364" />
      <path
         d="m 66.158831,102.854 v -1.97556 h 0.860777 v 0.19191 h -0.612422 v 0.63218 h 0.496711 v 0.19191 h -0.496711 v 0.76765 h 0.640645 v 0.19191 z"
         style="font-style:normal;font-variant:normal;font-weight:bold;font-stretch:normal;font-size:2.82222223px;font-family:Homenaje;-inkscape-font-specification:'Homenaje Bold';text-align:start;text-anchor:start;stroke-width:0.26458332"
         id="path3366" />
      <path
         d="m 67.365993,102.854 v -1.97556 h 0.248355 v 1.78929 h 0.578556 v 0.18627 z"
         style="font-style:normal;font-variant:normal;font-weight:bold;font-stretch:normal;font-size:2.82222223px;font-family:Homenaje;-inkscape-font-specification:'Homenaje Bold';text-align:start;text-anchor:start;stroke-width:0.26458332"
         id="path3368" />
    </g>
    <g
       aria-label="TENT TAP"
       style="font-style:normal;font-variant:normal;font-weight:bold;font-stretch:normal;font-size:3.52777767px;line-height:1.25;font-family:Homenaje;-inkscape-font-specification:'Homenaje Bold';text-align:start;letter-spacing:0px;word-spacing:0px;text-anchor:start;fill:#ffffff;fill-opacity:1;stroke:none;stroke-width:0.26458332"
       id="text299-5-6-7">
      <path
         d="m 76.833353,103.04108 v -1.78929 h -0.395111 v -0.18627 h 1.038578 v 0.18627 h -0.395111 v 1.78929 z"
         style="font-style:normal;font-variant:normal;font-weight:bold;font-stretch:normal;font-size:2.82222223px;font-family:Homenaje;-inkscape-font-specification:'Homenaje Bold';text-align:start;text-anchor:start;stroke-width:0.26458332"
         id="path3371" />
      <path
         d="m 77.73986,103.04108 v -1.97556 h 0.860778 v 0.19191 h -0.612423 v 0.63218 h 0.496712 v 0.19191 h -0.496712 v 0.76765 h 0.640645 v 0.19191 z"
         style="font-style:normal;font-variant:normal;font-weight:bold;font-stretch:normal;font-size:2.82222223px;font-family:Homenaje;-inkscape-font-specification:'Homenaje Bold';text-align:start;text-anchor:start;stroke-width:0.26458332"
         id="path3373" />
      <path
         d="m 80.05051,103.04108 h -0.3556 l -0.522111,-1.79494 v 1.79494 h -0.248355 v -1.97556 h 0.414866 l 0.460023,1.70745 v -1.70745 h 0.251177 z"
         style="font-style:normal;font-variant:normal;font-weight:bold;font-stretch:normal;font-size:2.82222223px;font-family:Homenaje;-inkscape-font-specification:'Homenaje Bold';text-align:start;text-anchor:start;stroke-width:0.26458332"
         id="path3375" />
      <path
         d="m 80.686348,103.04108 v -1.78929 h -0.395111 v -0.18627 h 1.038578 v 0.18627 h -0.395111 v 1.78929 z"
         style="font-style:normal;font-variant:normal;font-weight:bold;font-stretch:normal;font-size:2.82222223px;font-family:Homenaje;-inkscape-font-specification:'Homenaje Bold';text-align:start;text-anchor:start;stroke-width:0.26458332"
         id="path3377" />
      <path
         d="m 82.262824,103.04108 v -1.78929 h -0.395111 v -0.18627 h 1.038578 v 0.18627 h -0.395112 v 1.78929 z"
         style="font-style:normal;font-variant:normal;font-weight:bold;font-stretch:normal;font-size:2.82222223px;font-family:Homenaje;-inkscape-font-specification:'Homenaje Bold';text-align:start;text-anchor:start;stroke-width:0.26458332"
         id="path3379" />
      <path
         d="m 83.338884,101.06552 h 0.375356 l 0.428978,1.97556 h -0.231423 l -0.138288,-0.58138 h -0.513645 l -0.127,0.58138 h -0.239889 z m 0.392289,1.20227 -0.2032,-1.016 h -0.01976 l -0.206023,1.016 z"
         style="font-style:normal;font-variant:normal;font-weight:bold;font-stretch:normal;font-size:2.82222223px;font-family:Homenaje;-inkscape-font-specification:'Homenaje Bold';text-align:start;text-anchor:start;stroke-width:0.26458332"
         id="path3381" />
      <path
         d="m 84.652408,101.25179 v 0.73378 h 0.180622 q 0.160867,0 0.248356,-0.11007 0.09031,-0.11007 0.09031,-0.28505 0,-0.33866 -0.338667,-0.33866 z m 0.767645,0.33866 q 0,0.27376 -0.149578,0.42898 -0.146756,0.1524 -0.420511,0.1524 h -0.197556 v 0.86925 h -0.248355 v -1.97556 h 0.499533 q 0.516467,0 0.516467,0.52493 z"
         style="font-style:normal;font-variant:normal;font-weight:bold;font-stretch:normal;font-size:2.82222223px;font-family:Homenaje;-inkscape-font-specification:'Homenaje Bold';text-align:start;text-anchor:start;stroke-width:0.26458332"
         id="path3383" />
    </g>
    <g
       style="font-style:normal;font-variant:normal;font-weight:bold;font-stretch:normal;font-size:13.33333302px;line-height:1.25;font-family:Consolas;-inkscape-font-specification:'Consolas Bold';text-align:center;letter-spacing:0px;word-spacing:0px;text-anchor:middle;fill:#000000;fill-opacity:1;stroke:none"
       id="flowRoot1643" />
    <g
       aria-label="FEEDBACK AMOUNT"
       style="font-style:normal;font-variant:normal;font-weight:bold;font-stretch:normal;font-size:3.52777767px;line-height:1.25;font-family:Homenaje;-inkscape-font-specification:'Homenaje Bold';text-align:center;letter-spacing:0px;word-spacing:0px;text-anchor:middle;fill:#ffffff;fill-opacity:1;stroke:none;stroke-width:0.26458332"
       id="text299-8">
      <path
         d="m 68.478827,124.67791 v -1.97556 h 0.832556 v 0.19192 h -0.5842 v 0.67733 h 0.440266 v 0.19191 h -0.440266 v 0.9144 z"
         style="font-style:normal;font-variant:normal;font-weight:bold;font-stretch:normal;font-size:2.82222223px;font-family:Homenaje;-inkscape-font-specification:'Homenaje Bold';stroke-width:0.26458332"
         id="path3387" />
      <path
         d="m 69.575746,124.67791 v -1.97556 h 0.860777 v 0.19192 h -0.612422 v 0.63217 h 0.496711 v 0.19191 h -0.496711 v 0.76765 h 0.640645 v 0.19191 z"
         style="font-style:normal;font-variant:normal;font-weight:bold;font-stretch:normal;font-size:2.82222223px;font-family:Homenaje;-inkscape-font-specification:'Homenaje Bold';stroke-width:0.26458332"
         id="path3389" />
      <path
         d="m 70.782907,124.67791 v -1.97556 h 0.860778 v 0.19192 h -0.612422 v 0.63217 h 0.496711 v 0.19191 h -0.496711 v 0.76765 h 0.640644 v 0.19191 z"
         style="font-style:normal;font-variant:normal;font-weight:bold;font-stretch:normal;font-size:2.82222223px;font-family:Homenaje;-inkscape-font-specification:'Homenaje Bold';stroke-width:0.26458332"
         id="path3391" />
      <path
         d="m 72.238424,124.486 h 0.239889 q 0.129822,0 0.208844,-0.0734 0.08185,-0.0762 0.08185,-0.20038 v -1.04422 q 0,-0.12418 -0.08185,-0.19755 -0.07902,-0.0762 -0.208844,-0.0762 h -0.239889 z m -0.251178,0.19191 v -1.97556 h 0.491067 q 0.256822,0 0.397933,0.12983 0.141111,0.12982 0.141111,0.381 v 0.95391 q 0,0.25118 -0.141111,0.381 -0.141111,0.127 -0.397933,0.12982 z"
         style="font-style:normal;font-variant:normal;font-weight:bold;font-stretch:normal;font-size:2.82222223px;font-family:Homenaje;-inkscape-font-specification:'Homenaje Bold';stroke-width:0.26458332"
         id="path3393" />
      <path
         d="m 73.594414,122.88862 v 0.64065 h 0.1778 q 0.169333,0 0.262466,-0.0847 0.09313,-0.0875 0.09313,-0.25118 0,-0.3048 -0.3556,-0.3048 z m 0.570088,0.73942 q 0.110067,0.0593 0.180623,0.1778 0.07338,0.11854 0.07338,0.23989 0,0.12136 -0.01129,0.19474 -0.01129,0.0734 -0.0508,0.16086 -0.03669,0.0847 -0.104423,0.14111 -0.1524,0.13547 -0.468489,0.13547 h -0.437444 v -1.97556 h 0.479778 q 0.262466,0 0.392289,0.12136 0.129822,0.11853 0.129822,0.37536 0,0.14111 -0.05362,0.25964 -0.0508,0.11571 -0.129823,0.16933 z m -0.395111,0.8636 q 0.412045,0 0.412045,-0.39511 0,-0.20038 -0.121356,-0.28786 -0.121355,-0.0875 -0.287866,-0.0875 h -0.1778 v 0.77046 z"
         style="font-style:normal;font-variant:normal;font-weight:bold;font-stretch:normal;font-size:2.82222223px;font-family:Homenaje;-inkscape-font-specification:'Homenaje Bold';stroke-width:0.26458332"
         id="path3395" />
      <path
         d="m 75.014918,122.70235 h 0.375355 l 0.428978,1.97556 h -0.231422 l -0.138289,-0.58138 h -0.513645 l -0.127,0.58138 h -0.239889 z m 0.392288,1.20227 -0.2032,-1.016 h -0.01976 l -0.206022,1.016 z"
         style="font-style:normal;font-variant:normal;font-weight:bold;font-stretch:normal;font-size:2.82222223px;font-family:Homenaje;-inkscape-font-specification:'Homenaje Bold';stroke-width:0.26458332"
         id="path3397" />
      <path
         d="m 76.912641,124.49164 v 0.18627 h -0.378177 q -0.256823,0 -0.397934,-0.12982 -0.141111,-0.12982 -0.141111,-0.381 v -0.95391 q 0,-0.25118 0.141111,-0.381 0.141111,-0.12983 0.397934,-0.12983 h 0.378177 v 0.18627 h -0.378177 q -0.129823,0 -0.211667,0.0762 -0.07902,0.0734 -0.07902,0.19756 v 1.05551 q 0,0.12418 0.07902,0.20038 0.08184,0.0734 0.211667,0.0734 z"
         style="font-style:normal;font-variant:normal;font-weight:bold;font-stretch:normal;font-size:2.82222223px;font-family:Homenaje;-inkscape-font-specification:'Homenaje Bold';stroke-width:0.26458332"
         id="path3399" />
      <path
         d="m 77.416893,124.67791 h -0.239889 v -1.97556 h 0.239889 v 0.8636 l 0.5842,-0.8636 h 0.245534 l -0.575734,0.88054 0.6604,1.09502 h -0.251177 l -0.553156,-0.92004 -0.110067,0.14111 z"
         style="font-style:normal;font-variant:normal;font-weight:bold;font-stretch:normal;font-size:2.82222223px;font-family:Homenaje;-inkscape-font-specification:'Homenaje Bold';stroke-width:0.26458332"
         id="path3401" />
      <path
         d="m 79.264787,122.70235 h 0.375356 l 0.428978,1.97556 h -0.231423 l -0.138288,-0.58138 h -0.513645 l -0.127,0.58138 h -0.239889 z m 0.392289,1.20227 -0.2032,-1.016 h -0.01975 l -0.206023,1.016 z"
         style="font-style:normal;font-variant:normal;font-weight:bold;font-stretch:normal;font-size:2.82222223px;font-family:Homenaje;-inkscape-font-specification:'Homenaje Bold';stroke-width:0.26458332"
         id="path3403" />
      <path
         d="m 80.550089,124.67791 h -0.248356 v -1.97556 h 0.375356 l 0.378178,1.1684 h 0.01976 l 0.386645,-1.1684 h 0.361244 v 1.97556 h -0.248355 v -1.67922 l -0.378178,1.15429 h -0.268111 l -0.378178,-1.15711 z"
         style="font-style:normal;font-variant:normal;font-weight:bold;font-stretch:normal;font-size:2.82222223px;font-family:Homenaje;-inkscape-font-specification:'Homenaje Bold';stroke-width:0.26458332"
         id="path3405" />
      <path
         d="m 83.200332,124.18967 q 0,0.23988 -0.138289,0.37535 -0.138288,0.13265 -0.403577,0.13265 -0.262467,0 -0.400756,-0.13265 -0.138289,-0.13547 -0.138289,-0.37535 v -0.99907 q 0,-0.23989 0.138289,-0.37253 0.138289,-0.13547 0.400756,-0.13547 0.265289,0 0.403577,0.13547 0.138289,0.13264 0.138289,0.37253 z m -0.832555,0.048 q 0,0.12983 0.08184,0.2032 0.08467,0.0706 0.208845,0.0706 0.124177,0 0.208844,-0.0706 0.08467,-0.0734 0.08467,-0.2032 v -1.09502 q 0,-0.12982 -0.08467,-0.20038 -0.08467,-0.0734 -0.208844,-0.0734 -0.124178,0 -0.208845,0.0734 -0.08184,0.0706 -0.08184,0.20038 z"
         style="font-style:normal;font-variant:normal;font-weight:bold;font-stretch:normal;font-size:2.82222223px;font-family:Homenaje;-inkscape-font-specification:'Homenaje Bold';stroke-width:0.26458332"
         id="path3407" />
      <path
         d="m 83.442337,122.70235 h 0.248356 v 1.53529 q 0,0.13547 0.06491,0.20603 0.06773,0.0677 0.186267,0.0677 0.118533,0 0.186266,-0.0677 0.06773,-0.0706 0.06773,-0.20603 v -1.53529 h 0.248355 v 1.48732 q 0,0.508 -0.502355,0.508 -0.499534,0 -0.499534,-0.508 z"
         style="font-style:normal;font-variant:normal;font-weight:bold;font-stretch:normal;font-size:2.82222223px;font-family:Homenaje;-inkscape-font-specification:'Homenaje Bold';stroke-width:0.26458332"
         id="path3409" />
      <path
         d="m 85.87624,124.67791 h -0.3556 l -0.522111,-1.79493 v 1.79493 h -0.248355 v -1.97556 h 0.414866 l 0.460023,1.70745 v -1.70745 h 0.251177 z"
         style="font-style:normal;font-variant:normal;font-weight:bold;font-stretch:normal;font-size:2.82222223px;font-family:Homenaje;-inkscape-font-specification:'Homenaje Bold';stroke-width:0.26458332"
         id="path3411" />
      <path
         d="m 86.512078,124.67791 v -1.78929 h -0.395111 v -0.18627 h 1.038578 v 0.18627 h -0.395111 v 1.78929 z"
         style="font-style:normal;font-variant:normal;font-weight:bold;font-stretch:normal;font-size:2.82222223px;font-family:Homenaje;-inkscape-font-specification:'Homenaje Bold';stroke-width:0.26458332"
         id="path3413" />
    </g>
    <g
       aria-label="COMB PATTERN"
       style="font-style:normal;font-variant:normal;font-weight:bold;font-stretch:normal;font-size:3.52777767px;line-height:1.25;font-family:Homenaje;-inkscape-font-specification:'Homenaje Bold';text-align:center;letter-spacing:0px;word-spacing:0px;text-anchor:middle;fill:#ffffff;fill-opacity:1;stroke:none;stroke-width:0.26458332"
       id="text299-0">
      <path
         d="m 38.768942,80.132421 v 0.186266 h -0.378177 q -0.256823,0 -0.397934,-0.129822 -0.141111,-0.129822 -0.141111,-0.381 v -0.953911 q 0,-0.251178 0.141111,-0.381 0.141111,-0.129822 0.397934,-0.129822 h 0.378177 v 0.186267 h -0.378177 q -0.129823,0 -0.211667,0.0762 -0.07902,0.07338 -0.07902,0.197555 v 1.055511 q 0,0.124178 0.07902,0.200378 0.08184,0.07338 0.211667,0.07338 z"
         style="font-style:normal;font-variant:normal;font-weight:bold;font-stretch:normal;font-size:2.82222223px;font-family:Homenaje;-inkscape-font-specification:'Homenaje Bold';stroke-width:0.26458332"
         id="path3416" />
      <path
         d="m 40.02955,79.830443 q 0,0.239889 -0.138289,0.375356 -0.138289,0.132644 -0.403578,0.132644 -0.262466,0 -0.400755,-0.132644 -0.138289,-0.135467 -0.138289,-0.375356 v -0.999067 q 0,-0.239889 0.138289,-0.372533 0.138289,-0.135467 0.400755,-0.135467 0.265289,0 0.403578,0.135467 0.138289,0.132644 0.138289,0.372533 z m -0.832556,0.04798 q 0,0.129822 0.08185,0.2032 0.08467,0.07055 0.208844,0.07055 0.124178,0 0.208845,-0.07055 0.08467,-0.07338 0.08467,-0.2032 v -1.095022 q 0,-0.129823 -0.08467,-0.200378 -0.08467,-0.07338 -0.208845,-0.07338 -0.124178,0 -0.208844,0.07338 -0.08185,0.07055 -0.08185,0.200378 z"
         style="font-style:normal;font-variant:normal;font-weight:bold;font-stretch:normal;font-size:2.82222223px;font-family:Homenaje;-inkscape-font-specification:'Homenaje Bold';stroke-width:0.26458332"
         id="path3418" />
      <path
         d="M 40.576355,80.318687 H 40.328 v -1.975555 h 0.375355 l 0.378178,1.1684 h 0.01976 l 0.386644,-1.1684 h 0.361245 v 1.975555 h -0.248356 v -1.679222 l -0.378178,1.154289 h -0.268111 l -0.378178,-1.157111 z"
         style="font-style:normal;font-variant:normal;font-weight:bold;font-stretch:normal;font-size:2.82222223px;font-family:Homenaje;-inkscape-font-specification:'Homenaje Bold';stroke-width:0.26458332"
         id="path3420" />
      <path
         d="m 42.47871,78.529399 v 0.640644 h 0.1778 q 0.169333,0 0.262466,-0.08467 0.09313,-0.08749 0.09313,-0.251177 0,-0.3048 -0.3556,-0.3048 z m 0.570089,0.739422 q 0.110066,0.05927 0.180622,0.1778 0.07338,0.118533 0.07338,0.239889 0,0.121355 -0.01129,0.194733 -0.01129,0.07338 -0.0508,0.160867 -0.03669,0.08467 -0.104422,0.141111 -0.1524,0.135466 -0.468489,0.135466 h -0.437445 v -1.975555 h 0.479778 q 0.262467,0 0.392289,0.121355 0.129822,0.118534 0.129822,0.375356 0,0.141111 -0.05362,0.259644 -0.0508,0.115712 -0.129822,0.169334 z m -0.395111,0.8636 q 0.412044,0 0.412044,-0.395111 0,-0.200378 -0.121356,-0.287867 -0.121355,-0.08749 -0.287866,-0.08749 h -0.1778 v 0.770467 z"
         style="font-style:normal;font-variant:normal;font-weight:bold;font-stretch:normal;font-size:2.82222223px;font-family:Homenaje;-inkscape-font-specification:'Homenaje Bold';stroke-width:0.26458332"
         id="path3422" />
      <path
         d="m 44.275672,78.529399 v 0.733777 h 0.180622 q 0.160866,0 0.248355,-0.110066 0.09031,-0.110067 0.09031,-0.285045 0,-0.338666 -0.338666,-0.338666 z m 0.767644,0.338666 q 0,0.273756 -0.149578,0.428978 -0.146755,0.1524 -0.420511,0.1524 h -0.197555 v 0.869244 h -0.248356 v -1.975555 h 0.499533 q 0.516467,0 0.516467,0.524933 z"
         style="font-style:normal;font-variant:normal;font-weight:bold;font-stretch:normal;font-size:2.82222223px;font-family:Homenaje;-inkscape-font-specification:'Homenaje Bold';stroke-width:0.26458332"
         id="path3424" />
      <path
         d="m 45.602468,78.343132 h 0.375356 l 0.428978,1.975555 H 46.175379 L 46.037091,79.73731 h -0.513645 l -0.127,0.581377 h -0.239889 z m 0.392289,1.202267 -0.2032,-1.016 h -0.01975 l -0.206023,1.016 z"
         style="font-style:normal;font-variant:normal;font-weight:bold;font-stretch:normal;font-size:2.82222223px;font-family:Homenaje;-inkscape-font-specification:'Homenaje Bold';stroke-width:0.26458332"
         id="path3426" />
      <path
         d="m 46.786391,80.318687 v -1.789288 h -0.395112 v -0.186267 h 1.038578 v 0.186267 h -0.395111 v 1.789288 z"
         style="font-style:normal;font-variant:normal;font-weight:bold;font-stretch:normal;font-size:2.82222223px;font-family:Homenaje;-inkscape-font-specification:'Homenaje Bold';stroke-width:0.26458332"
         id="path3428" />
      <path
         d="M 47.938431,80.318687 V 78.529399 H 47.54332 v -0.186267 h 1.038578 v 0.186267 h -0.395111 v 1.789288 z"
         style="font-style:normal;font-variant:normal;font-weight:bold;font-stretch:normal;font-size:2.82222223px;font-family:Homenaje;-inkscape-font-specification:'Homenaje Bold';stroke-width:0.26458332"
         id="path3430" />
      <path
         d="m 48.844937,80.318687 v -1.975555 h 0.860778 v 0.191911 h -0.612422 v 0.632178 h 0.496711 v 0.191911 h -0.496711 v 0.767644 h 0.640644 v 0.191911 z"
         style="font-style:normal;font-variant:normal;font-weight:bold;font-stretch:normal;font-size:2.82222223px;font-family:Homenaje;-inkscape-font-specification:'Homenaje Bold';stroke-width:0.26458332"
         id="path3432" />
      <path
         d="m 50.300455,78.529399 v 0.7366 h 0.200377 q 0.160867,0 0.248356,-0.110067 0.09031,-0.112889 0.09031,-0.287867 0,-0.338666 -0.338667,-0.338666 z m -0.0056,0.922866 v 0.866422 h -0.242711 v -1.975555 h 0.522111 q 0.508,0 0.508,0.524933 0,0.197556 -0.0762,0.344311 -0.0762,0.146756 -0.217311,0.2032 l 0.392289,0.903111 h -0.242711 l -0.383822,-0.866422 z"
         style="font-style:normal;font-variant:normal;font-weight:bold;font-stretch:normal;font-size:2.82222223px;font-family:Homenaje;-inkscape-font-specification:'Homenaje Bold';stroke-width:0.26458332"
         id="path3434" />
      <path
         d="m 52.54465,80.318687 h -0.3556 l -0.522111,-1.794933 v 1.794933 h -0.248356 v -1.975555 h 0.414867 l 0.460022,1.707444 v -1.707444 h 0.251178 z"
         style="font-style:normal;font-variant:normal;font-weight:bold;font-stretch:normal;font-size:2.82222223px;font-family:Homenaje;-inkscape-font-specification:'Homenaje Bold';stroke-width:0.26458332"
         id="path3436" />
    </g>
    <g
       aria-label="TAP COUNT"
       style="font-style:normal;font-variant:normal;font-weight:bold;font-stretch:normal;font-size:3.52777767px;line-height:1.25;font-family:Homenaje;-inkscape-font-specification:'Homenaje Bold';text-align:center;letter-spacing:0px;word-spacing:0px;text-anchor:middle;fill:#ffffff;fill-opacity:1;stroke:none;stroke-width:0.26458332"
       id="text299-0-0">
      <path
         d="m 76.632164,80.062744 v -1.789289 h -0.395111 v -0.186266 h 1.038578 v 0.186266 H 76.88052 v 1.789289 z"
         style="font-style:normal;font-variant:normal;font-weight:bold;font-stretch:normal;font-size:2.82222223px;font-family:Homenaje;-inkscape-font-specification:'Homenaje Bold';stroke-width:0.26458332"
         id="path3439" />
      <path
         d="m 77.708225,78.087189 h 0.375355 l 0.428978,1.975555 h -0.231422 l -0.138289,-0.581378 h -0.513645 l -0.127,0.581378 h -0.239889 z m 0.392288,1.202266 -0.2032,-1.016 h -0.01976 l -0.206022,1.016 z"
         style="font-style:normal;font-variant:normal;font-weight:bold;font-stretch:normal;font-size:2.82222223px;font-family:Homenaje;-inkscape-font-specification:'Homenaje Bold';stroke-width:0.26458332"
         id="path3441" />
      <path
         d="m 79.021749,78.273455 v 0.733778 h 0.180622 q 0.160866,0 0.248355,-0.110067 0.09031,-0.110066 0.09031,-0.285044 0,-0.338667 -0.338666,-0.338667 z m 0.767644,0.338667 q 0,0.273755 -0.149578,0.428978 -0.146755,0.1524 -0.420511,0.1524 h -0.197555 v 0.869244 h -0.248356 v -1.975555 h 0.499533 q 0.516467,0 0.516467,0.524933 z"
         style="font-style:normal;font-variant:normal;font-weight:bold;font-stretch:normal;font-size:2.82222223px;font-family:Homenaje;-inkscape-font-specification:'Homenaje Bold';stroke-width:0.26458332"
         id="path3443" />
      <path
         d="m 81.309204,79.876477 v 0.186267 h -0.378178 q -0.256822,0 -0.397933,-0.129822 -0.141112,-0.129822 -0.141112,-0.381 v -0.953911 q 0,-0.251178 0.141112,-0.381 0.141111,-0.129822 0.397933,-0.129822 h 0.378178 v 0.186266 h -0.378178 q -0.129822,0 -0.211667,0.0762 -0.07902,0.07338 -0.07902,0.197556 v 1.055511 q 0,0.124178 0.07902,0.200378 0.08185,0.07338 0.211667,0.07338 z"
         style="font-style:normal;font-variant:normal;font-weight:bold;font-stretch:normal;font-size:2.82222223px;font-family:Homenaje;-inkscape-font-specification:'Homenaje Bold';stroke-width:0.26458332"
         id="path3445" />
      <path
         d="m 82.569811,79.5745 q 0,0.239889 -0.138289,0.375355 -0.138289,0.132645 -0.403577,0.132645 -0.262467,0 -0.400756,-0.132645 Q 81.4889,79.814389 81.4889,79.5745 v -0.999067 q 0,-0.239889 0.138289,-0.372533 0.138289,-0.135467 0.400756,-0.135467 0.265288,0 0.403577,0.135467 0.138289,0.132644 0.138289,0.372533 z m -0.832555,0.04798 q 0,0.129823 0.08184,0.2032 0.08467,0.07056 0.208845,0.07056 0.124177,0 0.208844,-0.07056 0.08467,-0.07338 0.08467,-0.2032 v -1.095022 q 0,-0.129822 -0.08467,-0.200378 -0.08467,-0.07338 -0.208844,-0.07338 -0.124178,0 -0.208845,0.07338 -0.08184,0.07056 -0.08184,0.200378 z"
         style="font-style:normal;font-variant:normal;font-weight:bold;font-stretch:normal;font-size:2.82222223px;font-family:Homenaje;-inkscape-font-specification:'Homenaje Bold';stroke-width:0.26458332"
         id="path3447" />
      <path
         d="m 82.811817,78.087189 h 0.248355 v 1.535288 q 0,0.135467 0.06491,0.206023 0.06773,0.06773 0.186267,0.06773 0.118533,0 0.186267,-0.06773 0.06773,-0.07056 0.06773,-0.206023 v -1.535288 h 0.248355 V 79.5745 q 0,0.508 -0.502355,0.508 -0.499533,0 -0.499533,-0.508 z"
         style="font-style:normal;font-variant:normal;font-weight:bold;font-stretch:normal;font-size:2.82222223px;font-family:Homenaje;-inkscape-font-specification:'Homenaje Bold';stroke-width:0.26458332"
         id="path3449" />
      <path
         d="m 85.245719,80.062744 h -0.3556 l -0.522111,-1.794933 v 1.794933 h -0.248356 v -1.975555 h 0.414867 l 0.460022,1.707444 v -1.707444 h 0.251178 z"
         style="font-style:normal;font-variant:normal;font-weight:bold;font-stretch:normal;font-size:2.82222223px;font-family:Homenaje;-inkscape-font-specification:'Homenaje Bold';stroke-width:0.26458332"
         id="path3451" />
      <path
         d="m 85.881557,80.062744 v -1.789289 h -0.395111 v -0.186266 h 1.038577 v 0.186266 h -0.395111 v 1.789289 z"
         style="font-style:normal;font-variant:normal;font-weight:bold;font-stretch:normal;font-size:2.82222223px;font-family:Homenaje;-inkscape-font-specification:'Homenaje Bold';stroke-width:0.26458332"
         id="path3453" />
    </g>
    <g
       aria-label="DIVISION"
       style="font-style:normal;font-variant:normal;font-weight:bold;font-stretch:normal;font-size:3.52777767px;line-height:1.25;font-family:Homenaje;-inkscape-font-specification:'Homenaje Bold';text-align:center;letter-spacing:0px;word-spacing:0px;text-anchor:middle;fill:#ffffff;fill-opacity:1;stroke:none;stroke-width:0.26458332"
       id="text299-0-8">
      <path
         d="m 47.715254,57.864073 h 0.239889 q 0.129822,0 0.208844,-0.07338 0.08184,-0.0762 0.08184,-0.200378 v -1.044222 q 0,-0.124178 -0.08184,-0.197556 -0.07902,-0.0762 -0.208844,-0.0762 h -0.239889 z m -0.251178,0.191911 v -1.975555 h 0.491067 q 0.256822,0 0.397933,0.129822 0.141111,0.129822 0.141111,0.381 v 0.953911 q 0,0.251178 -0.141111,0.381 -0.141111,0.127 -0.397933,0.129822 z"
         style="font-style:normal;font-variant:normal;font-weight:bold;font-stretch:normal;font-size:2.82222223px;font-family:Homenaje;-inkscape-font-specification:'Homenaje Bold';stroke-width:0.26458332"
         id="path3456" />
      <path
         d="m 48.822888,58.055984 v -1.975555 h 0.248355 v 1.975555 z"
         style="font-style:normal;font-variant:normal;font-weight:bold;font-stretch:normal;font-size:2.82222223px;font-family:Homenaje;-inkscape-font-specification:'Homenaje Bold';stroke-width:0.26458332"
         id="path3458" />
      <path
         d="m 50.000813,57.830207 0.389466,-1.749778 h 0.245534 l -0.465667,1.975555 H 49.837124 L 49.36299,56.080429 h 0.245534 z"
         style="font-style:normal;font-variant:normal;font-weight:bold;font-stretch:normal;font-size:2.82222223px;font-family:Homenaje;-inkscape-font-specification:'Homenaje Bold';stroke-width:0.26458332"
         id="path3460" />
      <path
         d="m 50.92853,58.055984 v -1.975555 h 0.248356 v 1.975555 z"
         style="font-style:normal;font-variant:normal;font-weight:bold;font-stretch:normal;font-size:2.82222223px;font-family:Homenaje;-inkscape-font-specification:'Homenaje Bold';stroke-width:0.26458332"
         id="path3462" />
      <path
         d="m 51.863744,57.869718 q 0.160867,0 0.231422,-0.09596 0.07338,-0.09595 0.07338,-0.222955 0,-0.127 -0.04798,-0.214489 -0.04515,-0.09031 -0.115711,-0.141111 -0.07056,-0.05362 -0.1524,-0.115711 -0.08184,-0.06209 -0.1524,-0.118534 -0.07056,-0.05927 -0.118533,-0.158044 -0.04516,-0.09878 -0.04516,-0.225778 0,-0.225778 0.135467,-0.361244 0.135466,-0.135467 0.375355,-0.135467 h 0.2286 v 0.186267 h -0.217311 q -0.135466,0 -0.206022,0.08749 -0.07056,0.08749 -0.07056,0.189089 0,0.1016 0.04516,0.174978 0.04798,0.07338 0.118533,0.121356 0.07056,0.04798 0.1524,0.112889 0.08467,0.06491 0.155223,0.132644 0.07055,0.06491 0.115711,0.1778 0.04798,0.112889 0.04798,0.256822 0,0.265289 -0.1524,0.400756 -0.149577,0.135466 -0.412044,0.135466 h -0.296333 v -0.186266 z"
         style="font-style:normal;font-variant:normal;font-weight:bold;font-stretch:normal;font-size:2.82222223px;font-family:Homenaje;-inkscape-font-specification:'Homenaje Bold';stroke-width:0.26458332"
         id="path3464" />
      <path
         d="m 52.692419,58.055984 v -1.975555 h 0.248356 v 1.975555 z"
         style="font-style:normal;font-variant:normal;font-weight:bold;font-stretch:normal;font-size:2.82222223px;font-family:Homenaje;-inkscape-font-specification:'Homenaje Bold';stroke-width:0.26458332"
         id="path3466" />
      <path
         d="m 54.350122,57.56774 q 0,0.239889 -0.138289,0.375356 -0.138289,0.132644 -0.403578,0.132644 -0.262467,0 -0.400756,-0.132644 -0.138288,-0.135467 -0.138288,-0.375356 v -0.999067 q 0,-0.239889 0.138288,-0.372533 0.138289,-0.135467 0.400756,-0.135467 0.265289,0 0.403578,0.135467 0.138289,0.132644 0.138289,0.372533 z m -0.832556,0.04798 q 0,0.129822 0.08185,0.2032 0.08467,0.07056 0.208844,0.07056 0.124178,0 0.208844,-0.07056 0.08467,-0.07338 0.08467,-0.2032 v -1.095022 q 0,-0.129823 -0.08467,-0.200378 -0.08467,-0.07338 -0.208844,-0.07338 -0.124178,0 -0.208844,0.07338 -0.08185,0.07055 -0.08185,0.200378 z"
         style="font-style:normal;font-variant:normal;font-weight:bold;font-stretch:normal;font-size:2.82222223px;font-family:Homenaje;-inkscape-font-specification:'Homenaje Bold';stroke-width:0.26458332"
         id="path3468" />
      <path
         d="m 55.780283,58.055984 h -0.3556 l -0.522112,-1.794933 v 1.794933 h -0.248355 v -1.975555 h 0.414867 l 0.460022,1.707444 v -1.707444 h 0.251178 z"
         style="font-style:normal;font-variant:normal;font-weight:bold;font-stretch:normal;font-size:2.82222223px;font-family:Homenaje;-inkscape-font-specification:'Homenaje Bold';stroke-width:0.26458332"
         id="path3470" />
    </g>
    <g
       aria-label="SIZE"
       style="font-style:normal;font-variant:normal;font-weight:bold;font-stretch:normal;font-size:3.52777767px;line-height:1.25;font-family:Homenaje;-inkscape-font-specification:'Homenaje Bold';text-align:center;letter-spacing:0px;word-spacing:0px;text-anchor:middle;fill:#ffffff;fill-opacity:1;stroke:none;stroke-width:0.26458332"
       id="text299-0-8-9">
      <path
         d="m 79.078237,57.869745 q 0.160867,0 0.231422,-0.09596 0.07338,-0.09596 0.07338,-0.222956 0,-0.127 -0.04798,-0.214488 -0.04515,-0.09031 -0.115711,-0.141112 -0.07055,-0.05362 -0.1524,-0.115711 -0.08184,-0.06209 -0.1524,-0.118533 -0.07055,-0.05927 -0.118533,-0.158044 -0.04516,-0.09878 -0.04516,-0.225778 0,-0.225778 0.135467,-0.361245 0.135467,-0.135466 0.375355,-0.135466 h 0.2286 v 0.186266 H 79.27297 q -0.135466,0 -0.206022,0.08749 -0.07055,0.08749 -0.07055,0.189089 0,0.1016 0.04516,0.174978 0.04798,0.07338 0.118533,0.121355 0.07056,0.04798 0.1524,0.112889 0.08467,0.06491 0.155223,0.132645 0.07055,0.06491 0.115711,0.1778 0.04798,0.112889 0.04798,0.256822 0,0.265289 -0.1524,0.400756 -0.149578,0.135466 -0.412045,0.135466 h -0.296333 v -0.186266 z"
         style="font-style:normal;font-variant:normal;font-weight:bold;font-stretch:normal;font-size:2.82222223px;font-family:Homenaje;-inkscape-font-specification:'Homenaje Bold';stroke-width:0.26458332"
         id="path3473" />
      <path
         d="m 79.906912,58.056011 v -1.975555 h 0.248356 v 1.975555 z"
         style="font-style:normal;font-variant:normal;font-weight:bold;font-stretch:normal;font-size:2.82222223px;font-family:Homenaje;-inkscape-font-specification:'Homenaje Bold';stroke-width:0.26458332"
         id="path3475" />
      <path
         d="m 81.296504,58.056011 h -0.877712 v -0.186266 l 0.606778,-1.603023 h -0.536222 v -0.186266 h 0.809978 V 56.2639 l -0.620889,1.605845 h 0.618067 z"
         style="font-style:normal;font-variant:normal;font-weight:bold;font-stretch:normal;font-size:2.82222223px;font-family:Homenaje;-inkscape-font-specification:'Homenaje Bold';stroke-width:0.26458332"
         id="path3477" />
      <path
         d="m 81.560558,58.056011 v -1.975555 h 0.860778 v 0.191911 h -0.612423 v 0.632178 h 0.496711 v 0.191911 H 81.808913 V 57.8641 h 0.640645 v 0.191911 z"
         style="font-style:normal;font-variant:normal;font-weight:bold;font-stretch:normal;font-size:2.82222223px;font-family:Homenaje;-inkscape-font-specification:'Homenaje Bold';stroke-width:0.26458332"
         id="path3479" />
    </g>
    <g
       aria-label="CLOCK"
       style="font-style:normal;font-variant:normal;font-weight:bold;font-stretch:normal;font-size:3.52777767px;line-height:1.25;font-family:Homenaje;-inkscape-font-specification:'Homenaje Bold';text-align:center;letter-spacing:0px;word-spacing:0px;text-anchor:middle;fill:#ffffff;fill-opacity:1;stroke:none;stroke-width:0.26458332"
       id="text299-0-8-2">
      <path
         d="m 39.317402,57.869622 v 0.186267 h -0.378178 q -0.256822,0 -0.397933,-0.129822 -0.141112,-0.129822 -0.141112,-0.381 v -0.953911 q 0,-0.251178 0.141112,-0.381 0.141111,-0.129822 0.397933,-0.129822 h 0.378178 V 56.2666 h -0.378178 q -0.129822,0 -0.211667,0.0762 -0.07902,0.07338 -0.07902,0.197556 v 1.055511 q 0,0.124178 0.07902,0.200378 0.08185,0.07338 0.211667,0.07338 z"
         style="font-style:normal;font-variant:normal;font-weight:bold;font-stretch:normal;font-size:2.82222223px;font-family:Homenaje;-inkscape-font-specification:'Homenaje Bold';stroke-width:0.26458332"
         id="path3482" />
      <path
         d="m 39.581765,58.055889 v -1.975555 h 0.248355 v 1.789288 h 0.578556 v 0.186267 z"
         style="font-style:normal;font-variant:normal;font-weight:bold;font-stretch:normal;font-size:2.82222223px;font-family:Homenaje;-inkscape-font-specification:'Homenaje Bold';stroke-width:0.26458332"
         id="path3484" />
      <path
         d="m 41.647366,57.567645 q 0,0.239889 -0.138288,0.375355 -0.138289,0.132645 -0.403578,0.132645 -0.262467,0 -0.400756,-0.132645 -0.138289,-0.135466 -0.138289,-0.375355 v -0.999067 q 0,-0.239889 0.138289,-0.372533 0.138289,-0.135467 0.400756,-0.135467 0.265289,0 0.403578,0.135467 0.138288,0.132644 0.138288,0.372533 z m -0.832555,0.04798 q 0,0.129823 0.08184,0.2032 0.08467,0.07056 0.208845,0.07056 0.124178,0 0.208844,-0.07056 0.08467,-0.07338 0.08467,-0.2032 V 56.5206 q 0,-0.129822 -0.08467,-0.200378 -0.08467,-0.07338 -0.208844,-0.07338 -0.124178,0 -0.208845,0.07338 -0.08184,0.07056 -0.08184,0.200378 z"
         style="font-style:normal;font-variant:normal;font-weight:bold;font-stretch:normal;font-size:2.82222223px;font-family:Homenaje;-inkscape-font-specification:'Homenaje Bold';stroke-width:0.26458332"
         id="path3486" />
      <path
         d="m 42.806594,57.869622 v 0.186267 h -0.378177 q -0.256823,0 -0.397934,-0.129822 -0.141111,-0.129822 -0.141111,-0.381 v -0.953911 q 0,-0.251178 0.141111,-0.381 0.141111,-0.129822 0.397934,-0.129822 h 0.378177 V 56.2666 h -0.378177 q -0.129823,0 -0.211667,0.0762 -0.07902,0.07338 -0.07902,0.197556 v 1.055511 q 0,0.124178 0.07902,0.200378 0.08184,0.07338 0.211667,0.07338 z"
         style="font-style:normal;font-variant:normal;font-weight:bold;font-stretch:normal;font-size:2.82222223px;font-family:Homenaje;-inkscape-font-specification:'Homenaje Bold';stroke-width:0.26458332"
         id="path3488" />
      <path
         d="m 43.310846,58.055889 h -0.239889 v -1.975555 h 0.239889 v 0.8636 l 0.5842,-0.8636 h 0.245533 l -0.575733,0.880533 0.6604,1.095022 h -0.251178 l -0.553155,-0.920044 -0.110067,0.141111 z"
         style="font-style:normal;font-variant:normal;font-weight:bold;font-stretch:normal;font-size:2.82222223px;font-family:Homenaje;-inkscape-font-specification:'Homenaje Bold';stroke-width:0.26458332"
         id="path3490" />
    </g>
    <g
       aria-label="V/OCT"
       style="font-style:normal;font-variant:normal;font-weight:bold;font-stretch:normal;font-size:3.52777767px;line-height:1.25;font-family:Consolas;-inkscape-font-specification:'Consolas Bold';text-align:center;letter-spacing:0px;word-spacing:0px;text-anchor:middle;fill:#ffffff;fill-opacity:1;stroke:none;stroke-width:0.26458332"
       id="text299-0-8-2-0">
      <path
         d="m 39.067614,68.916121 0.389466,-1.749777 h 0.245534 l -0.465667,1.975555 h -0.333022 l -0.474134,-1.975555 h 0.245534 z"
         style="font-style:normal;font-variant:normal;font-weight:bold;font-stretch:normal;font-size:2.82222223px;font-family:Homenaje;-inkscape-font-specification:'Homenaje Bold';stroke-width:0.26458332"
         id="path3493" />
      <path
         d="m 40.094109,69.141899 h -0.245534 l 0.773289,-1.975555 h 0.231423 z"
         style="font-style:normal;font-variant:normal;font-weight:bold;font-stretch:normal;font-size:2.82222223px;font-family:Homenaje;-inkscape-font-specification:'Homenaje Bold';stroke-width:0.26458332"
         id="path3495" />
      <path
         d="m 42.116055,68.653655 q 0,0.239889 -0.138289,0.375355 -0.138289,0.132645 -0.403578,0.132645 -0.262467,0 -0.400756,-0.132645 -0.138289,-0.135466 -0.138289,-0.375355 v -0.999067 q 0,-0.239889 0.138289,-0.372533 0.138289,-0.135467 0.400756,-0.135467 0.265289,0 0.403578,0.135467 0.138289,0.132644 0.138289,0.372533 z m -0.832556,0.04798 q 0,0.129823 0.08184,0.2032 0.08467,0.07056 0.208845,0.07056 0.124178,0 0.208844,-0.07056 0.08467,-0.07338 0.08467,-0.2032 V 67.60661 q 0,-0.129822 -0.08467,-0.200378 -0.08467,-0.07338 -0.208844,-0.07338 -0.124178,0 -0.208845,0.07338 -0.08184,0.07056 -0.08184,0.200378 z"
         style="font-style:normal;font-variant:normal;font-weight:bold;font-stretch:normal;font-size:2.82222223px;font-family:Homenaje;-inkscape-font-specification:'Homenaje Bold';stroke-width:0.26458332"
         id="path3497" />
      <path
         d="m 43.275282,68.955632 v 0.186267 h -0.378177 q -0.256823,0 -0.397934,-0.129822 -0.141111,-0.129822 -0.141111,-0.381 v -0.953911 q 0,-0.251178 0.141111,-0.381 0.141111,-0.129822 0.397934,-0.129822 h 0.378177 v 0.186266 h -0.378177 q -0.129823,0 -0.211667,0.0762 -0.07902,0.07338 -0.07902,0.197556 v 1.055511 q 0,0.124178 0.07902,0.200378 0.08184,0.07338 0.211667,0.07338 z"
         style="font-style:normal;font-variant:normal;font-weight:bold;font-stretch:normal;font-size:2.82222223px;font-family:Homenaje;-inkscape-font-specification:'Homenaje Bold';stroke-width:0.26458332"
         id="path3499" />
      <path
         d="M 43.785178,69.141899 V 67.35261 h -0.395111 v -0.186266 h 1.038578 v 0.186266 h -0.395111 v 1.789289 z"
         style="font-style:normal;font-variant:normal;font-weight:bold;font-stretch:normal;font-size:2.82222223px;font-family:Homenaje;-inkscape-font-specification:'Homenaje Bold';stroke-width:0.26458332"
         id="path3501" />
    </g>
    <g
       aria-label="SIZE OUT"
       style="font-style:normal;font-variant:normal;font-weight:bold;font-stretch:normal;font-size:3.52777767px;line-height:1.25;font-family:Homenaje;-inkscape-font-specification:'Homenaje Bold';text-align:center;letter-spacing:0px;word-spacing:0px;text-anchor:middle;fill:#ffffff;fill-opacity:1;stroke:none;stroke-width:0.26458332"
       id="text299-0-8-2-0-5">
      <path
         d="m 60.378257,74.158681 q 0.160866,0 0.231422,-0.09596 0.07338,-0.09596 0.07338,-0.222956 0,-0.127 -0.04798,-0.214489 -0.04516,-0.09031 -0.115711,-0.141111 -0.07056,-0.05362 -0.1524,-0.115711 -0.08185,-0.06209 -0.1524,-0.118533 -0.07056,-0.05927 -0.118534,-0.158045 -0.04516,-0.09878 -0.04516,-0.225778 0,-0.225777 0.135467,-0.361244 0.135466,-0.135467 0.375355,-0.135467 h 0.2286 v 0.186267 H 60.57299 q -0.135467,0 -0.206022,0.08749 -0.07056,0.08749 -0.07056,0.189089 0,0.1016 0.04516,0.174977 0.04798,0.07338 0.118533,0.121356 0.07056,0.04798 0.1524,0.112889 0.08467,0.06491 0.155222,0.132644 0.07056,0.06491 0.115711,0.1778 0.04798,0.112889 0.04798,0.256823 0,0.265288 -0.1524,0.400755 -0.149578,0.135467 -0.412044,0.135467 h -0.296334 v -0.186267 z"
         style="font-style:normal;font-variant:normal;font-weight:bold;font-stretch:normal;font-size:2.82222223px;font-family:Homenaje;-inkscape-font-specification:'Homenaje Bold';stroke-width:0.26458332"
         id="path3504" />
      <path
         d="m 61.206932,74.344948 v -1.975556 h 0.248355 v 1.975556 z"
         style="font-style:normal;font-variant:normal;font-weight:bold;font-stretch:normal;font-size:2.82222223px;font-family:Homenaje;-inkscape-font-specification:'Homenaje Bold';stroke-width:0.26458332"
         id="path3506" />
      <path
         d="m 62.596523,74.344948 h -0.877711 v -0.186267 l 0.606778,-1.603022 h -0.536222 v -0.186267 h 0.809977 v 0.183445 l -0.620888,1.605844 h 0.618066 z"
         style="font-style:normal;font-variant:normal;font-weight:bold;font-stretch:normal;font-size:2.82222223px;font-family:Homenaje;-inkscape-font-specification:'Homenaje Bold';stroke-width:0.26458332"
         id="path3508" />
      <path
         d="m 62.860577,74.344948 v -1.975556 h 0.860778 v 0.191911 h -0.612422 v 0.632178 h 0.496711 v 0.191911 h -0.496711 v 0.767645 h 0.640644 v 0.191911 z"
         style="font-style:normal;font-variant:normal;font-weight:bold;font-stretch:normal;font-size:2.82222223px;font-family:Homenaje;-inkscape-font-specification:'Homenaje Bold';stroke-width:0.26458332"
         id="path3510" />
      <path
         d="m 65.488419,73.856703 q 0,0.239889 -0.138289,0.375356 -0.138289,0.132644 -0.403578,0.132644 -0.262466,0 -0.400755,-0.132644 -0.138289,-0.135467 -0.138289,-0.375356 v -0.999066 q 0,-0.239889 0.138289,-0.372534 0.138289,-0.135466 0.400755,-0.135466 0.265289,0 0.403578,0.135466 0.138289,0.132645 0.138289,0.372534 z m -0.832556,0.04798 q 0,0.129822 0.08185,0.2032 0.08467,0.07056 0.208844,0.07056 0.124178,0 0.208845,-0.07056 0.08467,-0.07338 0.08467,-0.2032 v -1.095022 q 0,-0.129822 -0.08467,-0.200378 -0.08467,-0.07338 -0.208845,-0.07338 -0.124178,0 -0.208844,0.07338 -0.08185,0.07056 -0.08185,0.200378 z"
         style="font-style:normal;font-variant:normal;font-weight:bold;font-stretch:normal;font-size:2.82222223px;font-family:Homenaje;-inkscape-font-specification:'Homenaje Bold';stroke-width:0.26458332"
         id="path3512" />
      <path
         d="m 65.730425,72.369392 h 0.248355 v 1.535289 q 0,0.135467 0.06491,0.206022 0.06773,0.06773 0.186267,0.06773 0.118533,0 0.186267,-0.06773 0.06773,-0.07055 0.06773,-0.206022 v -1.535289 h 0.248356 v 1.487311 q 0,0.508 -0.502356,0.508 -0.499533,0 -0.499533,-0.508 z"
         style="font-style:normal;font-variant:normal;font-weight:bold;font-stretch:normal;font-size:2.82222223px;font-family:Homenaje;-inkscape-font-specification:'Homenaje Bold';stroke-width:0.26458332"
         id="path3514" />
      <path
         d="M 67.306371,74.344948 V 72.555659 H 66.91126 v -0.186267 h 1.038578 v 0.186267 h -0.395112 v 1.789289 z"
         style="font-style:normal;font-variant:normal;font-weight:bold;font-stretch:normal;font-size:2.82222223px;font-family:Homenaje;-inkscape-font-specification:'Homenaje Bold';stroke-width:0.26458332"
         id="path3516" />
    </g>
    <path
       style="opacity:0.981;fill:#b1b1b1;fill-opacity:1;stroke:none;stroke-width:1.11632049;stroke-miterlimit:4;stroke-dasharray:none;stroke-opacity:1"
       d="m 57.371311,58.987965 h 17.197916 v 9.392708 H 57.371311 Z"
       id="rect1673-4" />
    <path
       style="opacity:0.981;fill:#323232;fill-opacity:1;stroke:none;stroke-width:1.01655829;stroke-miterlimit:4;stroke-dasharray:none;stroke-opacity:1"
       d="m 57.951801,59.532349 h 16.089627 v 8.325446 H 57.951801 Z"
       id="rect1673" />
    <path
       style="opacity:0.981;fill:#b1b1b1;fill-opacity:1;stroke:none;stroke-width:0.64051104;stroke-miterlimit:4;stroke-dasharray:none;stroke-opacity:1"
       d="m 50.889019,81.609848 h 21.695833 v 7.408333 H 50.889019 Z"
       id="rect1673-6-2" />
    <path
       style="opacity:0.981;fill:#323232;fill-opacity:1;stroke:none;stroke-width:0.57885456;stroke-miterlimit:4;stroke-dasharray:none;stroke-opacity:1"
       d="m 51.406525,82.134377 h 20.6375 v 6.361 h -20.6375 z"
       id="rect1673-6" />
    <path
       style="opacity:0.981;fill:#b1b1b1;fill-opacity:1;stroke:none;stroke-width:0.72133392;stroke-miterlimit:4;stroke-dasharray:none;stroke-opacity:1"
       d="m 49.169228,92.193169 h 27.516666 v 7.408333 H 49.169228 Z"
       id="rect1673-6-4-6" />
    <path
       style="opacity:0.981;fill:#323232;fill-opacity:1;stroke:none;stroke-width:0.6554237;stroke-miterlimit:4;stroke-dasharray:none;stroke-opacity:1"
       d="m 49.698395,92.789886 h 26.458334 v 6.361001 H 49.698395 Z"
       id="rect1673-6-4" />
    <path
       style="opacity:0.981;fill:#b1b1b1;fill-opacity:1;stroke:none;stroke-width:0.63265175;stroke-miterlimit:4;stroke-dasharray:none;stroke-opacity:1"
       d="m 50.227562,126.32442 h 21.166666 v 7.40833 H 50.227562 Z"
       id="rect1673-6-0-5" />
    <path
       style="opacity:0.981;fill:#323232;fill-opacity:1;stroke:none;stroke-width:0.57138515;stroke-miterlimit:4;stroke-dasharray:none;stroke-opacity:1"
       d="m 50.808582,126.84595 h 20.108334 v 6.361 H 50.808582 Z"
       id="rect1673-6-0" />
  </g>
</svg>
