<?xml version="1.0" encoding="UTF-8" standalone="no"?>
<svg
   xmlns:dc="http://purl.org/dc/elements/1.1/"
   xmlns:cc="http://creativecommons.org/ns#"
   xmlns:rdf="http://www.w3.org/1999/02/22-rdf-syntax-ns#"
   xmlns:svg="http://www.w3.org/2000/svg"
   xmlns="http://www.w3.org/2000/svg"
   xmlns:xlink="http://www.w3.org/1999/xlink"
   xmlns:sodipodi="http://sodipodi.sourceforge.net/DTD/sodipodi-0.dtd"
   xmlns:inkscape="http://www.inkscape.org/namespaces/inkscape"
   sodipodi:docname="HairPick.svg"
   inkscape:version="1.0 (4035a4fb49, 2020-05-01)"
   id="svg11003"
   version="1.1"
   viewBox="0 0 55.562501 100.54167"
   height="380"
   width="210">
  <defs
     id="defs10997">
    <linearGradient
       id="linearGradient4682"
       inkscape:collect="always">
      <stop
         id="stop3387"
         offset="0"
         style="stop-color:#0c1622;stop-opacity:1" />
      <stop
         id="stop3388"
         offset=".3"
         style="stop-color:#161625;stop-opacity:1" />
      <stop
         id="stop3389"
         offset="1"
         style="stop-color:#081f35;stop-opacity:1" />
    </linearGradient>
    <linearGradient
       gradientTransform="matrix(1.0745659,0,0,1,-2.6261843,0)"
       gradientUnits="userSpaceOnUse"
       y2="50.163956"
       x2="35.23983"
       y1="150.85843"
       x1="35.219627"
       id="linearGradient4684"
       xlink:href="#linearGradient4682"
       inkscape:collect="always" />
  </defs>
  <sodipodi:namedview
     inkscape:document-rotation="0"
     units="px"
     inkscape:window-maximized="1"
     inkscape:window-y="-6"
     inkscape:window-x="-6"
     inkscape:window-height="1058"
     inkscape:window-width="1920"
     fit-margin-bottom="0"
     fit-margin-right="0"
     fit-margin-left="0"
     fit-margin-top="0"
     showgrid="false"
     inkscape:current-layer="layer1"
     inkscape:document-units="px"
     inkscape:cy="197.55861"
     inkscape:cx="33.42505"
     inkscape:zoom="2"
     inkscape:pageshadow="2"
     inkscape:pageopacity="0.0"
     borderopacity="1.0"
     bordercolor="#666666"
     pagecolor="#ffffff"
     id="base" />
  <metadata
     id="metadata11000">
    <rdf:RDF>
      <cc:Work
         rdf:about="">
        <dc:format>image/svg+xml</dc:format>
        <dc:type
           rdf:resource="http://purl.org/dc/dcmitype/StillImage" />
        <dc:title></dc:title>
      </cc:Work>
    </rdf:RDF>
  </metadata>
  <g
     transform="translate(-35.146312,-50.389004)"
     id="layer1"
     inkscape:groupmode="layer"
     inkscape:label="Layer 1">
    <path
       inkscape:export-ydpi="150.22649"
       inkscape:export-xdpi="150.22649"
       inkscape:export-filename="/home/vortico/pics/tmp/LFOs.png"
       style="fill:url(#linearGradient4684);fill-opacity:1;fill-rule:nonzero;stroke:none;stroke-width:0.32608852"
       d="M 35.219628,50.462323 H 90.490184 V 150.85843 H 35.219628 Z m 0,0"
       id="path33493"
       inkscape:connector-curvature="0" />
    <g
       style="font-style:normal;font-weight:normal;font-size:3.52778px;line-height:1.25;font-family:sans-serif;letter-spacing:0px;word-spacing:0px;fill:#ffffff;fill-opacity:1;stroke:none;stroke-width:0.264583"
       id="text5097" />
    <g
       style="font-style:normal;font-variant:normal;font-weight:normal;font-stretch:normal;font-size:3.52778px;line-height:1.25;font-family:Quarca;-inkscape-font-specification:Quarca;text-align:center;letter-spacing:0px;word-spacing:0px;text-anchor:middle;fill:#dddddd;fill-opacity:1;stroke:none;stroke-width:0.264583"
       id="text136"
       aria-label="HAIR PICK">
      <path
         id="path7942"
         style="font-style:normal;font-variant:normal;font-weight:normal;font-stretch:normal;font-size:3.88056px;font-family:Quarca;-inkscape-font-specification:Quarca;fill:#dddddd;fill-opacity:1;stroke-width:0.264583"
         d="m 55.994564,54.283745 v -1.043871 h 1.276705 v 1.043871 h 0.221191 v -2.755198 h -0.221191 v 1.501777 h -1.276705 v -1.501777 h -0.221192 v 2.755198 z" />
      <path
         id="path7944"
         style="font-style:normal;font-variant:normal;font-weight:normal;font-stretch:normal;font-size:3.88056px;font-family:Quarca;-inkscape-font-specification:Quarca;fill:#dddddd;fill-opacity:1;stroke-width:0.264583"
         d="m 58.668937,51.528547 -0.849843,2.755198 h 0.236715 l 0.178505,-0.597606 h 1.10984 l 0.178506,0.597606 h 0.236714 l -0.845962,-2.755198 z m 0.124178,0.294923 0.48895,1.653118 h -0.985662 z" />
      <path
         id="path7946"
         style="font-style:normal;font-variant:normal;font-weight:normal;font-stretch:normal;font-size:3.88056px;font-family:Quarca;-inkscape-font-specification:Quarca;fill:#dddddd;fill-opacity:1;stroke-width:0.264583"
         d="m 60.314718,54.283745 v -2.755198 h -0.221191 v 2.755198 z" />
      <path
         id="path7948"
         style="font-style:normal;font-variant:normal;font-weight:normal;font-stretch:normal;font-size:3.88056px;font-family:Quarca;-inkscape-font-specification:Quarca;fill:#dddddd;fill-opacity:1;stroke-width:0.264583"
         d="m 60.83629,54.283745 h 0.221192 v -1.10596 h 0.508353 l 0.772232,1.10596 h 0.259997 l -0.776112,-1.10596 h 0.05433 c 0.368653,0 0.547159,-0.174625 0.547159,-0.523875 v -0.601487 c 0,-0.349251 -0.178506,-0.523876 -0.547159,-0.523876 h -1.03999 z m 0.221192,-2.545647 h 0.779993 c 0.248355,0 0.360892,0.116416 0.360892,0.380294 v 0.469548 c 0,0.267759 -0.112537,0.384176 -0.360892,0.384176 h -0.779993 z" />
      <path
         id="path7950"
         style="font-style:normal;font-variant:normal;font-weight:normal;font-stretch:normal;font-size:3.88056px;font-family:Quarca;-inkscape-font-specification:Quarca;fill:#dddddd;fill-opacity:1;stroke-width:0.264583"
         d="m 63.907268,53.150621 h 0.869246 c 0.34537,0 0.523875,-0.174625 0.523875,-0.519995 v -0.582084 c 0,-0.34537 -0.178505,-0.519995 -0.523875,-0.519995 h -1.090438 v 2.755198 h 0.221192 z m 0,-1.412523 h 0.838201 c 0.225073,0 0.329848,0.104775 0.329848,0.35313 v 0.496712 c 0,0.248356 -0.104775,0.353131 -0.329848,0.353131 h -0.838201 z" />
      <path
         id="path7952"
         style="font-style:normal;font-variant:normal;font-weight:normal;font-stretch:normal;font-size:3.88056px;font-family:Quarca;-inkscape-font-specification:Quarca;fill:#dddddd;fill-opacity:1;stroke-width:0.264583"
         d="m 65.93092,54.283745 v -2.755198 h -0.221192 v 2.755198 z" />
      <path
         id="path7954"
         style="font-style:normal;font-variant:normal;font-weight:normal;font-stretch:normal;font-size:3.88056px;font-family:Quarca;-inkscape-font-specification:Quarca;fill:#dddddd;fill-opacity:1;stroke-width:0.264583"
         d="m 66.991889,54.074195 c -0.244475,0 -0.333728,-0.116417 -0.333728,-0.360892 V 52.09899 c 0,-0.244476 0.08925,-0.360892 0.333728,-0.360892 h 0.628651 c 0.244475,0 0.333728,0.116416 0.333728,0.360892 v 0.252236 h 0.221192 v -0.287161 c 0,-0.357012 -0.135819,-0.535518 -0.531637,-0.535518 h -0.675217 c -0.395817,0 -0.531637,0.178506 -0.531637,0.535518 v 1.684163 c 0,0.357011 0.13582,0.535517 0.531637,0.535517 h 0.675217 c 0.395818,0 0.531637,-0.178506 0.531637,-0.535517 v -0.294923 h -0.221192 v 0.259998 c 0,0.244475 -0.08925,0.360892 -0.333728,0.360892 z" />
      <path
         id="path7956"
         style="font-style:normal;font-variant:normal;font-weight:normal;font-stretch:normal;font-size:3.88056px;font-family:Quarca;-inkscape-font-specification:Quarca;fill:#dddddd;fill-opacity:1;stroke-width:0.264583"
         d="m 68.826182,54.283745 v -1.319391 l 1.140884,1.319391 h 0.259998 l -1.191332,-1.377599 1.168048,-1.377599 h -0.244475 l -1.133123,1.319391 V 51.528547 H 68.60499 v 2.755198 z" />
    </g>
    <g
       style="font-style:normal;font-variant:normal;font-weight:normal;font-stretch:normal;font-size:3.52778px;line-height:1.25;font-family:Quarca;-inkscape-font-specification:Quarca;text-align:center;letter-spacing:0px;word-spacing:0px;text-anchor:middle;fill:#dddddd;fill-opacity:1;stroke:none;stroke-width:0.264583"
       id="text299"
       aria-label="FEEDBACK TYPE">
      <path
         id="path7917"
         style="font-style:normal;font-variant:normal;font-weight:normal;font-stretch:normal;font-size:2.82222px;font-family:Quarca;-inkscape-font-specification:Quarca;fill:#dddddd;fill-opacity:1;stroke-width:0.264583"
         d="m 36.365511,122.85203 h 0.897466 l 0.02258,-0.1524 h -1.080911 v 2.00378 h 0.160867 v -0.76482 h 0.711199 l 0.02258,-0.14958 h -0.733777 z" />
      <path
         id="path7919"
         style="font-style:normal;font-variant:normal;font-weight:normal;font-stretch:normal;font-size:2.82222px;font-family:Quarca;-inkscape-font-specification:Quarca;fill:#dddddd;fill-opacity:1;stroke-width:0.264583"
         d="m 37.688427,122.85203 h 0.905932 l 0.02258,-0.1524 H 37.52756 v 2.00378 h 1.072444 l 0.02258,-0.1524 h -0.934154 v -0.61242 h 0.759177 l 0.02258,-0.14958 h -0.781754 z" />
      <path
         id="path7921"
         style="font-style:normal;font-variant:normal;font-weight:normal;font-stretch:normal;font-size:2.82222px;font-family:Quarca;-inkscape-font-specification:Quarca;fill:#dddddd;fill-opacity:1;stroke-width:0.264583"
         d="m 39.044415,122.85203 h 0.905933 l 0.02258,-0.1524 h -1.089377 v 2.00378 h 1.072444 l 0.02258,-0.1524 h -0.934155 v -0.61242 h 0.759177 l 0.02258,-0.14958 h -0.781755 z" />
      <path
         id="path7923"
         style="font-style:normal;font-variant:normal;font-weight:normal;font-stretch:normal;font-size:2.82222px;font-family:Quarca;-inkscape-font-specification:Quarca;fill:#dddddd;fill-opacity:1;stroke-width:0.264583"
         d="m 40.239537,124.70341 h 0.784577 c 0.352778,0 0.496711,-0.15522 0.496711,-0.47414 v -1.05551 c 0,-0.31891 -0.143933,-0.47413 -0.496711,-0.47413 h -0.784577 z m 0.77611,-0.1524 h -0.615244 v -1.69898 h 0.615244 c 0.245534,0 0.344311,0.11007 0.344311,0.3556 v 0.98778 c 0,0.24553 -0.09878,0.3556 -0.344311,0.3556 z" />
      <path
         id="path7925"
         style="font-style:normal;font-variant:normal;font-weight:normal;font-stretch:normal;font-size:2.82222px;font-family:Quarca;-inkscape-font-specification:Quarca;fill:#dddddd;fill-opacity:1;stroke-width:0.264583"
         d="m 41.88767,124.70341 h 0.784577 c 0.301977,0 0.437444,-0.12982 0.437444,-0.38947 v -0.27375 c 0,-0.27376 -0.146755,-0.37254 -0.327378,-0.38665 0.1524,-0.031 0.222956,-0.13264 0.222956,-0.31891 v -0.24553 c 0,-0.25965 -0.149578,-0.38947 -0.465667,-0.38947 H 41.88767 Z m 0.160866,-0.97085 h 0.536222 c 0.251178,0 0.364066,0.096 0.364066,0.31609 v 0.23425 c 0,0.18062 -0.09313,0.26811 -0.301977,0.26811 h -0.598311 z m 0,-0.88053 h 0.454378 c 0.234244,0 0.341488,0.079 0.341488,0.27376 v 0.19755 c 0,0.16087 -0.08749,0.25965 -0.285044,0.25965 h -0.510822 z" />
      <path
         id="path7927"
         style="font-style:normal;font-variant:normal;font-weight:normal;font-stretch:normal;font-size:2.82222px;font-family:Quarca;-inkscape-font-specification:Quarca;fill:#dddddd;fill-opacity:1;stroke-width:0.264583"
         d="m 43.872263,122.69963 -0.618066,2.00378 h 0.172155 l 0.129822,-0.43462 h 0.807155 l 0.129823,0.43462 h 0.172155 l -0.615244,-2.00378 z m 0.09031,0.21449 0.3556,1.20227 H 43.60133 Z" />
      <path
         id="path7929"
         style="font-style:normal;font-variant:normal;font-weight:normal;font-stretch:normal;font-size:2.82222px;font-family:Quarca;-inkscape-font-specification:Quarca;fill:#dddddd;fill-opacity:1;stroke-width:0.264583"
         d="m 45.300616,124.55101 c -0.1778,0 -0.242711,-0.0847 -0.242711,-0.26247 v -1.17404 c 0,-0.1778 0.06491,-0.26247 0.242711,-0.26247 h 0.457199 c 0.1778,0 0.242711,0.0847 0.242711,0.26247 v 0.18344 h 0.160867 v -0.20884 c 0,-0.25965 -0.09878,-0.38947 -0.386644,-0.38947 h -0.491067 c -0.287866,0 -0.386644,0.12982 -0.386644,0.38947 v 1.22484 c 0,0.25965 0.09878,0.38947 0.386644,0.38947 h 0.491067 c 0.287866,0 0.386644,-0.12982 0.386644,-0.38947 v -0.21449 h -0.160867 v 0.18909 c 0,0.1778 -0.06491,0.26247 -0.242711,0.26247 z" />
      <path
         id="path7931"
         style="font-style:normal;font-variant:normal;font-weight:normal;font-stretch:normal;font-size:2.82222px;font-family:Quarca;-inkscape-font-specification:Quarca;fill:#dddddd;fill-opacity:1;stroke-width:0.264583"
         d="m 46.634643,124.70341 v -0.95956 l 0.829733,0.95956 h 0.189089 l -0.866422,-1.00189 0.849489,-1.00189 h -0.1778 l -0.824089,0.95956 v -0.95956 h -0.160866 v 2.00378 z" />
      <path
         id="path7933"
         style="font-style:normal;font-variant:normal;font-weight:normal;font-stretch:normal;font-size:2.82222px;font-family:Quarca;-inkscape-font-specification:Quarca;fill:#dddddd;fill-opacity:1;stroke-width:0.264583"
         d="m 49.333921,122.85203 v -0.1524 h -1.188155 v 0.1524 h 0.513644 v 1.85138 h 0.163689 v -1.85138 z" />
      <path
         id="path7935"
         style="font-style:normal;font-variant:normal;font-weight:normal;font-stretch:normal;font-size:2.82222px;font-family:Quarca;-inkscape-font-specification:Quarca;fill:#dddddd;fill-opacity:1;stroke-width:0.264583"
         d="m 50.175957,124.70341 v -0.82974 l 0.592666,-1.17404 H 50.59929 l -0.445911,0.889 c -0.04798,0.0931 -0.0508,0.11289 -0.05927,0.14958 -0.0085,-0.0367 -0.01693,-0.0564 -0.06209,-0.1524 l -0.448733,-0.88618 h -0.169333 l 0.598311,1.17687 v 0.82691 z" />
      <path
         id="path7937"
         style="font-style:normal;font-variant:normal;font-weight:normal;font-stretch:normal;font-size:2.82222px;font-family:Quarca;-inkscape-font-specification:Quarca;fill:#dddddd;fill-opacity:1;stroke-width:0.264583"
         d="m 51.171142,123.87932 h 0.632177 c 0.251177,0 0.381,-0.127 0.381,-0.37818 v -0.42333 c 0,-0.25118 -0.129823,-0.37818 -0.381,-0.37818 h -0.793044 v 2.00378 h 0.160867 z m 0,-1.02729 h 0.609599 c 0.163689,0 0.239889,0.0762 0.239889,0.25682 v 0.36125 c 0,0.18062 -0.0762,0.25682 -0.239889,0.25682 h -0.609599 z" />
      <path
         id="path7939"
         style="font-style:normal;font-variant:normal;font-weight:normal;font-stretch:normal;font-size:2.82222px;font-family:Quarca;-inkscape-font-specification:Quarca;fill:#dddddd;fill-opacity:1;stroke-width:0.264583"
         d="m 52.642885,122.85203 h 0.905933 l 0.02258,-0.1524 h -1.089377 v 2.00378 h 1.072443 l 0.02258,-0.1524 h -0.934155 v -0.61242 h 0.759177 l 0.02258,-0.14958 h -0.781755 z" />
    </g>
    <g
       style="font-style:normal;font-variant:normal;font-weight:bold;font-stretch:normal;font-size:3.52778px;line-height:1.25;font-family:Consolas;-inkscape-font-specification:'Consolas Bold';text-align:center;letter-spacing:0px;word-spacing:0px;text-anchor:middle;fill:#ffffff;fill-opacity:1;stroke:none;stroke-width:0.264583"
       id="text373" />
    <g
       style="font-style:normal;font-variant:normal;font-weight:bold;font-stretch:normal;font-size:13.3333px;line-height:1.25;font-family:Consolas;-inkscape-font-specification:'Consolas Bold';text-align:center;letter-spacing:0px;word-spacing:0px;text-anchor:middle;fill:#ffffff;fill-opacity:1;stroke:none"
       id="flowRoot250" />
    <g
       style="font-style:normal;font-variant:normal;font-weight:bold;font-stretch:normal;font-size:3.52778px;line-height:1.25;font-family:Consolas;-inkscape-font-specification:'Consolas Bold';text-align:start;letter-spacing:0px;word-spacing:0px;text-anchor:start;fill:#00a3f2;fill-opacity:1;stroke:none;stroke-width:0.264583"
       id="text3885-7"
       aria-label="FROZEN WASTELAND">
      <path
         id="path7884"
         style="font-style:normal;font-variant:normal;font-weight:normal;font-stretch:normal;font-family:'Bradley Gratis';-inkscape-font-specification:'Bradley Gratis';text-align:start;text-anchor:start;fill:#00a3f2;fill-opacity:1;stroke-width:0.264583"
         d="m 48.426278,150.10085 q 0.119944,-0.11995 0.1905,-0.21167 0.07408,-0.0917 0.112889,-0.16933 0.04233,-0.0776 0.05292,-0.14464 0.01411,-0.0706 0.01411,-0.14817 0,-0.0952 -0.04586,-0.2293 -0.04586,-0.13406 -0.102306,-0.28575 -0.05644,-0.1517 -0.102306,-0.31045 -0.04586,-0.15875 -0.04586,-0.30339 0,-0.0776 0.0247,-0.15169 0.02822,-0.0741 0.06703,-0.14111 0.04233,-0.0706 0.09172,-0.13053 0.04939,-0.0635 0.09878,-0.11289 -0.07056,-0.0141 -0.123473,-0.0212 -0.05292,-0.0106 -0.07761,-0.0106 -0.130528,0 -0.22225,0.0706 -0.08819,0.067 -0.1905,0.16933 0,-0.11994 0.03528,-0.24694 0.0388,-0.13053 0.116417,-0.23637 0.07761,-0.10583 0.194027,-0.17286 0.119945,-0.067 0.282223,-0.067 0.112889,0 0.208139,0.0176 0.09878,0.0141 0.179917,0.0353 0.08114,0.0212 0.148166,0.0388 0.06703,0.0141 0.119945,0.0141 0.08114,0 0.141111,-0.0212 0.0635,-0.0247 0.123472,-0.0847 0,0.0776 -0.03175,0.17638 -0.02822,0.0988 -0.08819,0.1905 -0.05645,0.0882 -0.148167,0.1517 -0.09172,0.06 -0.211667,0.06 -0.05997,0 -0.137583,-0.007 -0.07408,-0.0106 -0.155222,-0.0247 -0.0071,0.0247 -0.01058,0.0459 -0.0035,0.0212 -0.0071,0.0388 -0.0035,0.0212 -0.0035,0.0388 0,0.0776 0.01058,0.1517 0.01411,0.0705 0.03881,0.14464 h 0.712611 l -0.08114,0.23989 q -0.01058,0.0459 -0.01411,0.067 -0.0035,0.0212 -0.01058,0.067 l -0.130528,-0.0917 h -0.363361 q 0.07761,0.17639 0.144639,0.35983 0.06703,0.17992 0.06703,0.38453 0,0.18345 -0.07408,0.3422 -0.07408,0.15522 -0.197555,0.27163 -0.119945,0.11642 -0.278695,0.17992 -0.155222,0.067 -0.321028,0.067 z" />
      <path
         id="path7886"
         style="font-style:normal;font-variant:normal;font-weight:normal;font-stretch:normal;font-family:'Bradley Gratis';-inkscape-font-specification:'Bradley Gratis';text-align:start;text-anchor:start;fill:#00a3f2;fill-opacity:1;stroke-width:0.264583"
         d="m 50.496368,148.37224 q 0.07056,-0.0423 0.137584,-0.0988 0.07055,-0.0565 0.123472,-0.127 0.05644,-0.0706 0.08819,-0.16228 0.03528,-0.0953 0.03528,-0.21167 0,-0.0988 -0.0388,-0.1658 -0.03528,-0.0706 -0.08467,-0.11289 -0.04939,-0.0423 -0.09878,-0.06 -0.04586,-0.0176 -0.07056,-0.0176 -0.02822,0 -0.05292,0.0106 -0.02117,0.0106 -0.03881,0.0247 z m -0.518583,-0.94192 q -0.112889,-0.0635 -0.112889,-0.23636 0.03175,0.0317 0.112889,0.0564 0.08114,0.0212 0.172861,0.0212 0.04586,0 0.130528,-0.0106 0.08467,-0.0141 0.172861,-0.0282 0.09172,-0.0141 0.172861,-0.0247 0.08467,-0.0141 0.130528,-0.0141 0.116417,0 0.232833,0.0353 0.116417,0.0353 0.215195,0.11994 0.09878,0.0847 0.165806,0.22931 0.07056,0.14111 0.09172,0.35983 l -0.627945,0.4445 q 0.07056,0.0282 0.15875,0.0952 0.08819,0.067 0.165806,0.18697 0.08114,0.11995 0.134055,0.30692 0.05292,0.18344 0.05292,0.45156 0,0.23283 0.02117,0.37747 0.02117,0.14464 0.05292,0.23283 0.03175,0.0882 0.06703,0.13053 0.03881,0.0459 0.07056,0.0776 -0.155222,0 -0.275167,-0.0917 -0.119944,-0.0882 -0.211667,-0.23284 -0.09172,-0.14463 -0.162278,-0.32808 -0.06703,-0.18344 -0.123472,-0.37042 -0.05644,-0.18697 -0.105833,-0.35983 -0.04586,-0.17286 -0.09525,-0.29986 -0.0247,0.0176 -0.04939,0.0353 -0.02117,0.0141 -0.03881,0.0317 v 1.31939 h -0.518583 z" />
      <path
         id="path7888"
         style="font-style:normal;font-variant:normal;font-weight:normal;font-stretch:normal;font-family:'Bradley Gratis';-inkscape-font-specification:'Bradley Gratis';text-align:start;text-anchor:start;fill:#00a3f2;fill-opacity:1;stroke-width:0.264583"
         d="m 52.384116,149.47996 q 0,0.11994 0.01411,0.18697 0.01764,0.067 0.04233,0.10231 0.02822,0.0318 0.0635,0.0388 0.03528,0.007 0.07056,0.007 0.07055,0 0.116416,-0.0952 0.04586,-0.0988 0.04586,-0.29986 v -1.53106 q 0,-0.15875 -0.01764,-0.25753 -0.01411,-0.1023 -0.04233,-0.15522 -0.02469,-0.0564 -0.05997,-0.0776 -0.03175,-0.0212 -0.0635,-0.0212 -0.06703,0 -0.119945,0.0847 -0.04939,0.0811 -0.04939,0.26106 z m 1.005418,-0.88547 q 0,0.25753 -0.06703,0.508 -0.0635,0.25047 -0.176389,0.44803 -0.109361,0.19755 -0.261056,0.32102 -0.151694,0.11995 -0.321028,0.11995 -0.15875,0 -0.310444,-0.10936 -0.148167,-0.10936 -0.264584,-0.29986 -0.112889,-0.1905 -0.183445,-0.4445 -0.07055,-0.254 -0.07055,-0.54328 0,-0.23636 0.0635,-0.48331 0.06703,-0.25047 0.179917,-0.45155 0.112889,-0.20109 0.264583,-0.32809 0.151695,-0.13053 0.321028,-0.13053 0.148167,0 0.292806,0.10937 0.148167,0.10936 0.264583,0.29986 0.119945,0.18697 0.194028,0.44097 0.07408,0.254 0.07408,0.54328 z" />
      <path
         id="path7890"
         style="font-style:normal;font-variant:normal;font-weight:normal;font-stretch:normal;font-family:'Bradley Gratis';-inkscape-font-specification:'Bradley Gratis';text-align:start;text-anchor:start;fill:#00a3f2;fill-opacity:1;stroke-width:0.264583"
         d="m 53.543598,149.95268 q 0.04586,-0.27164 0.130528,-0.51153 0.08819,-0.23988 0.194028,-0.45861 0.105833,-0.21872 0.218722,-0.41628 0.116417,-0.20108 0.218723,-0.38805 0.102305,-0.18697 0.179917,-0.36336 0.07761,-0.17992 0.112888,-0.35984 -0.02822,-0.0176 -0.06703,-0.0317 -0.03528,-0.0141 -0.137584,-0.0141 -0.05292,0 -0.09525,0.0282 -0.03881,0.0247 -0.06703,0.0635 -0.02822,0.0353 -0.04586,0.0776 -0.01411,0.0388 -0.01411,0.0635 0,0.0282 0.01058,0.067 0.01411,0.0353 0.02822,0.0706 0.01764,0.0353 0.03528,0.067 0.01764,0.0282 0.03175,0.0423 l -0.430389,0.26811 q -0.08467,-0.0811 -0.144639,-0.19755 -0.05644,-0.11995 -0.05644,-0.23989 0,-0.06 0.03175,-0.14817 0.03175,-0.0882 0.102305,-0.16933 0.07056,-0.0847 0.183445,-0.14111 0.116417,-0.06 0.282222,-0.06 0.130528,0 0.218723,0.0176 0.08819,0.0176 0.155222,0.0423 0.06703,0.0212 0.123472,0.0388 0.05997,0.0176 0.134056,0.0176 0.04586,0 0.09878,-0.007 0.05292,-0.007 0.09878,-0.0212 0.04586,-0.0141 0.08114,-0.0282 0.0388,-0.0176 0.05997,-0.0388 -0.04233,0.22225 -0.134056,0.46214 -0.09172,0.23989 -0.204611,0.47978 -0.109361,0.23989 -0.232833,0.46919 -0.119945,0.22931 -0.222251,0.43039 -0.09878,0.19756 -0.169333,0.35984 -0.06703,0.15875 -0.07408,0.26105 0.141111,0.06 0.239889,0.06 0.0635,0 0.130528,-0.0141 0.06703,-0.0176 0.119944,-0.0529 0.05645,-0.0353 0.09172,-0.0882 0.03528,-0.0564 0.03528,-0.13405 0,-0.0776 -0.01764,-0.127 -0.01411,-0.0529 -0.0388,-0.0847 -0.0247,-0.0353 -0.05645,-0.06 -0.03175,-0.0282 -0.05997,-0.0564 l 0.405695,-0.29986 q 0.141111,0.10583 0.201083,0.22578 0.05997,0.11994 0.05997,0.26105 0,0.067 -0.02117,0.13053 -0.01764,0.06 -0.04586,0.11289 -0.0247,0.0494 -0.05997,0.0917 -0.03175,0.0423 -0.05644,0.067 l 0.05997,0.06 q 0.01764,0.0176 0.03881,0.0529 0.02117,0.0318 0.02117,0.0564 0,0.0282 -0.02469,0.0811 -0.02117,0.0564 -0.08819,0.0988 -0.02469,-0.0318 -0.05644,-0.0564 -0.02822,-0.0212 -0.05997,-0.0388 -0.03175,-0.0176 -0.06703,-0.0176 z" />
      <path
         id="path7892"
         style="font-style:normal;font-variant:normal;font-weight:normal;font-stretch:normal;font-family:'Bradley Gratis';-inkscape-font-specification:'Bradley Gratis';text-align:start;text-anchor:start;fill:#00a3f2;fill-opacity:1;stroke-width:0.264583"
         d="m 57.049936,147.22571 v 0.381 q -0.03881,-0.0353 -0.102305,-0.0776 -0.05997,-0.0423 -0.130528,-0.0741 -0.06703,-0.0353 -0.134056,-0.0564 -0.06703,-0.0247 -0.112889,-0.0247 -0.08467,0 -0.172861,0.067 -0.08819,0.067 -0.144639,0.17992 -0.05644,0.10936 -0.07408,0.28928 -0.01411,0.17639 -0.01411,0.45508 h 0.903112 l -0.179917,0.40217 q -0.03528,-0.0529 -0.08467,-0.0706 -0.04586,-0.0212 -0.08467,-0.0212 h -0.553862 q 0,0.20108 0.0071,0.39511 0.0071,0.1905 0.04586,0.34219 0.04233,0.1517 0.127,0.24695 0.08467,0.0917 0.243417,0.0917 0.08467,0 0.165806,-0.0317 0.08467,-0.0318 0.155222,-0.0776 0.07056,-0.0494 0.123472,-0.10231 0.05645,-0.0529 0.08819,-0.0952 v 0.508 h -0.476251 q -0.342194,0 -0.553861,-0.11994 -0.211667,-0.12347 -0.331611,-0.32809 -0.116417,-0.20813 -0.15875,-0.47977 -0.03881,-0.27164 -0.03881,-0.56798 0,-0.0741 0.01058,-0.19402 0.01058,-0.12348 0.04586,-0.25753 0.03528,-0.13759 0.102306,-0.27517 0.06703,-0.14111 0.179917,-0.25047 0.116417,-0.11289 0.28575,-0.18345 0.169334,-0.0705 0.409223,-0.0705 z" />
      <path
         id="path7894"
         style="font-style:normal;font-variant:normal;font-weight:normal;font-stretch:normal;font-family:'Bradley Gratis';-inkscape-font-specification:'Bradley Gratis';text-align:start;text-anchor:start;fill:#00a3f2;fill-opacity:1;stroke-width:0.264583"
         d="m 57.436338,149.95268 v -2.43769 q 0,-0.0988 -0.04233,-0.16581 -0.04233,-0.0705 -0.08467,-0.12347 h 0.684389 v 0.35983 l 0.391584,-0.45508 q 0.179917,0.16228 0.296334,0.32455 0.116416,0.15875 0.183444,0.32103 0.06703,0.15875 0.09172,0.32456 0.0247,0.16228 0.0247,0.33514 0,0.16933 -0.02822,0.32455 -0.02469,0.1517 -0.07408,0.29986 -0.04939,0.14817 -0.119944,0.29987 -0.06703,0.15169 -0.148167,0.3175 h 0.127 q 0.04586,0 0.09525,-0.0317 0.04939,-0.0317 0.09878,-0.0317 v 0.33866 h -0.684389 q 0.09525,-0.19403 0.151694,-0.34925 0.05997,-0.15522 0.09172,-0.29633 0.03175,-0.14111 0.04233,-0.27517 0.01058,-0.13405 0.01058,-0.28575 0,-0.15169 -0.05292,-0.31397 -0.04939,-0.16581 -0.123472,-0.30339 -0.07408,-0.13758 -0.15875,-0.22578 -0.08114,-0.0882 -0.148167,-0.0882 -0.04233,0 -0.06703,0.0212 v 2.11667 z" />
      <path
         id="path7896"
         style="font-style:normal;font-variant:normal;font-weight:normal;font-stretch:normal;font-family:'Bradley Gratis';-inkscape-font-specification:'Bradley Gratis';text-align:start;text-anchor:start;fill:#00a3f2;fill-opacity:1;stroke-width:0.264583"
         d="m 60.67451,150.0691 q -0.190501,-0.13758 -0.324556,-0.29281 -0.134056,-0.15875 -0.215195,-0.32808 -0.08114,-0.16933 -0.119944,-0.34219 -0.03528,-0.17639 -0.03528,-0.34573 0,-0.1658 0.03528,-0.32808 0.03528,-0.16581 0.09172,-0.32456 0.05997,-0.16227 0.137583,-0.31397 0.07761,-0.15522 0.158751,-0.30339 h -0.02117 q -0.01058,0 -0.0247,0 -0.01058,-0.004 -0.02822,-0.004 -0.05644,0 -0.137583,0.0141 -0.07761,0.0141 -0.151695,0.0705 v -0.34572 h 0.740834 q -0.09172,0.15875 -0.15875,0.32103 -0.0635,0.15875 -0.105833,0.31044 -0.03881,0.14817 -0.05997,0.28222 -0.01764,0.13053 -0.01764,0.23636 0,0.10584 0.02117,0.254 0.02117,0.14817 0.07761,0.30692 0.05997,0.15522 0.15875,0.29634 0.102306,0.14111 0.264584,0.2293 l 0.105833,-0.0776 q -0.0635,-0.11994 -0.09878,-0.22931 -0.03528,-0.11288 -0.05292,-0.21166 -0.01411,-0.0988 -0.01764,-0.17992 -0.0035,-0.0847 -0.0035,-0.15169 0,-0.10937 0.02822,-0.24695 0.02822,-0.13758 0.08114,-0.28575 0.05292,-0.14817 0.127,-0.29986 0.07761,-0.15169 0.172861,-0.29633 -0.134055,0 -0.22225,0.0212 -0.08467,0.0212 -0.144639,0.06 v -0.33867 h 0.762001 q -0.0635,0.0882 -0.127,0.20108 -0.05997,0.10936 -0.105834,0.23989 -0.04586,0.127 -0.07408,0.27164 -0.02822,0.14464 -0.02822,0.29633 0,0.25753 0.04586,0.45862 0.04586,0.19755 0.127,0.34925 0.08114,0.15169 0.1905,0.26105 0.109361,0.10936 0.232834,0.18697 v -2.26483 h 0.529167 v 2.12019 q 0,0.0247 -0.03528,0.0706 -0.03528,0.0423 -0.09172,0.0988 -0.05292,0.0564 -0.127,0.12347 -0.07055,0.0635 -0.144639,0.127 -0.176389,0.14817 -0.398639,0.32456 -0.172861,-0.13406 -0.296333,-0.26459 -0.123473,-0.13053 -0.211667,-0.254 z" />
      <path
         id="path7898"
         style="font-style:normal;font-variant:normal;font-weight:normal;font-stretch:normal;font-family:'Bradley Gratis';-inkscape-font-specification:'Bradley Gratis';text-align:start;text-anchor:start;fill:#00a3f2;fill-opacity:1;stroke-width:0.264583"
         d="m 63.927783,148.25582 v -0.87842 h -0.416278 q -0.0035,0.23636 -0.01411,0.4692 -0.0071,0.2293 -0.01764,0.40922 z m 0.719667,-1.03011 q -0.03881,0.0282 -0.07408,0.0705 -0.03175,0.0423 -0.05644,0.0917 -0.02117,0.0459 -0.03528,0.0917 -0.01411,0.0423 -0.01411,0.0741 v 2.39889 h -0.53975 v -1.32997 H 63.45506 q -0.0035,0.127 -0.03528,0.27869 -0.03175,0.14817 -0.08819,0.29987 -0.05292,0.14816 -0.127,0.28927 -0.07056,0.13759 -0.162278,0.24342 -0.08819,0.10583 -0.1905,0.16933 -0.09878,0.0635 -0.208139,0.0635 -0.07056,0 -0.123473,-0.0423 -0.04939,-0.0423 -0.04939,-0.11994 0,-0.0494 0.03175,-0.0706 0.03175,-0.0247 0.06703,-0.0247 0.03175,0 0.04939,0.0106 0.01764,0.007 0.03175,0.0212 0.01764,0.0106 0.03881,0.0212 0.02117,0.007 0.05997,0.007 0.0635,0 0.102306,-0.0635 0.0388,-0.067 0.0635,-0.17639 0.02469,-0.11289 0.03528,-0.25753 0.01411,-0.14817 0.02117,-0.31044 0.0071,-0.16228 0.01764,-0.32809 0.01058,-0.16933 0.02822,-0.32455 0.02117,-0.18345 0.0635,-0.33514 0.04586,-0.1517 0.09525,-0.26811 0.04939,-0.11642 0.09878,-0.19756 0.04939,-0.0811 0.08467,-0.13053 h -0.07761 q -0.06703,0 -0.123472,0.0212 -0.05644,0.0176 -0.102306,0.0423 -0.04233,0.0212 -0.07761,0.0423 -0.03175,0.0176 -0.05645,0.0176 -0.05997,0 -0.08819,-0.0423 -0.02822,-0.0423 -0.02822,-0.0952 0,-0.0494 0.05292,-0.0917 0.05644,-0.0459 0.155223,-0.0459 z" />
      <path
         id="path7900"
         style="font-style:normal;font-variant:normal;font-weight:normal;font-stretch:normal;font-family:'Bradley Gratis';-inkscape-font-specification:'Bradley Gratis';text-align:start;text-anchor:start;fill:#00a3f2;fill-opacity:1;stroke-width:0.264583"
         d="m 65.42643,150.07615 q -0.08114,-0.0811 -0.186972,-0.15875 -0.102306,-0.0776 -0.201084,-0.13758 -0.09525,-0.06 -0.169333,-0.1023 -0.07056,-0.0423 -0.08114,-0.0529 0.03528,-0.0423 0.08819,-0.11642 0.05292,-0.0776 0.102305,-0.15169 0.05292,-0.0741 0.09172,-0.13053 0.04233,-0.06 0.05292,-0.0706 0.04939,0.0318 0.134056,0.0882 0.08819,0.0529 0.172861,0.11289 0.08819,0.06 0.15875,0.10936 0.07056,0.0494 0.09172,0.0705 0.04939,-0.0282 0.08114,-0.0741 0.03528,-0.0459 0.03528,-0.14817 0,-0.0882 -0.07408,-0.18697 -0.07056,-0.0988 -0.176389,-0.20814 -0.105834,-0.10936 -0.232834,-0.2293 -0.127,-0.11995 -0.232833,-0.24695 -0.105834,-0.127 -0.179917,-0.25753 -0.07056,-0.13052 -0.07056,-0.26811 0,-0.0988 0.04939,-0.18344 0.05292,-0.0882 0.130528,-0.16228 0.07761,-0.0776 0.169334,-0.13758 0.09525,-0.0635 0.179916,-0.11642 0.08819,-0.0564 0.155223,-0.0988 0.06703,-0.0459 0.09525,-0.0811 0.02117,0.0176 0.09172,0.0882 0.07408,0.067 0.15875,0.14464 0.08467,0.0776 0.15875,0.13758 0.07761,0.06 0.102306,0.06 -0.03528,0.0282 -0.08819,0.0847 -0.04939,0.0529 -0.102305,0.11289 -0.04939,0.06 -0.09172,0.11642 -0.03881,0.0529 -0.05644,0.0811 -0.08114,-0.0353 -0.162278,-0.10583 -0.08114,-0.0705 -0.148167,-0.13758 -0.06703,-0.067 -0.112889,-0.11642 -0.04586,-0.0529 -0.05997,-0.0529 -0.02822,0 -0.04939,0.0317 -0.01764,0.0282 -0.01764,0.067 0,0.0847 0.07408,0.17992 0.07761,0.0952 0.186972,0.20461 0.112889,0.10583 0.243417,0.22578 0.134056,0.11641 0.243417,0.24341 0.112889,0.127 0.186972,0.26459 0.07761,0.13405 0.07761,0.27517 0,0.127 -0.09525,0.26811 -0.09525,0.14111 -0.229306,0.28222 -0.130527,0.13758 -0.268111,0.26458 -0.137583,0.12347 -0.225778,0.21872 z" />
      <path
         id="path7902"
         style="font-style:normal;font-variant:normal;font-weight:normal;font-stretch:normal;font-family:'Bradley Gratis';-inkscape-font-specification:'Bradley Gratis';text-align:start;text-anchor:start;fill:#00a3f2;fill-opacity:1;stroke-width:0.264583"
         d="m 67.911421,149.47643 q 0,0.13759 -0.05645,0.23989 -0.05644,0.0988 -0.148167,0.16228 -0.08819,0.0635 -0.197555,0.0952 -0.109361,0.0317 -0.215195,0.0317 -0.165806,0 -0.324556,-0.0811 -0.15875,-0.0811 -0.28575,-0.21872 -0.127,-0.14111 -0.204611,-0.32809 -0.07761,-0.1905 -0.07761,-0.40922 0,-0.39158 0.179917,-0.72672 0.179916,-0.33867 0.500944,-0.61383 -0.02822,-0.004 -0.05292,-0.004 -0.02117,-0.004 -0.04586,-0.004 -0.08467,0 -0.179916,0.0282 -0.09525,0.0282 -0.179917,0.0741 -0.08467,0.0423 -0.155222,0.0952 -0.06703,0.0529 -0.102306,0.0988 0.02822,-0.13758 0.105833,-0.27164 0.07761,-0.13405 0.194028,-0.23636 0.116417,-0.1023 0.268112,-0.1658 0.151694,-0.0635 0.331611,-0.0635 0.09172,0 0.194028,0.0282 0.102305,0.0282 0.194028,0.0741 0.09525,0.0423 0.169333,0.0952 0.07408,0.0529 0.112889,0.10231 l -0.289278,0.44097 q -0.176389,-0.17286 -0.381,-0.24694 -0.04586,0.0741 -0.09525,0.17639 -0.04939,0.0988 -0.09172,0.22577 -0.03881,0.127 -0.06703,0.28223 -0.02469,0.15169 -0.02469,0.33161 0,0.16933 0.02469,0.29986 0.02822,0.13053 0.07055,0.22578 0.04233,0.0952 0.09525,0.15875 0.05644,0.0635 0.112889,0.10583 0.134056,0.0952 0.306917,0.10583 0.07056,0 0.162278,-0.0282 0.09525,-0.0317 0.151695,-0.0811 z" />
      <path
         id="path7904"
         style="font-style:normal;font-variant:normal;font-weight:normal;font-stretch:normal;font-family:'Bradley Gratis';-inkscape-font-specification:'Bradley Gratis';text-align:start;text-anchor:start;fill:#00a3f2;fill-opacity:1;stroke-width:0.264583"
         d="m 69.679665,147.22571 v 0.381 q -0.03881,-0.0353 -0.102306,-0.0776 -0.05997,-0.0423 -0.130528,-0.0741 -0.06703,-0.0353 -0.134055,-0.0564 -0.06703,-0.0247 -0.112889,-0.0247 -0.08467,0 -0.172861,0.067 -0.0882,0.067 -0.144639,0.17992 -0.05644,0.10936 -0.07408,0.28928 -0.01411,0.17639 -0.01411,0.45508 h 0.903112 l -0.179917,0.40217 q -0.03528,-0.0529 -0.08467,-0.0706 -0.04586,-0.0212 -0.08467,-0.0212 h -0.553862 q 0,0.20108 0.0071,0.39511 0.0071,0.1905 0.04586,0.34219 0.04233,0.1517 0.127,0.24695 0.08467,0.0917 0.243417,0.0917 0.08467,0 0.165805,-0.0317 0.08467,-0.0318 0.155223,-0.0776 0.07055,-0.0494 0.123472,-0.10231 0.05644,-0.0529 0.08819,-0.0952 v 0.508 H 69.27397 q -0.342194,0 -0.553861,-0.11994 -0.211667,-0.12347 -0.331612,-0.32809 -0.116416,-0.20813 -0.15875,-0.47977 -0.0388,-0.27164 -0.0388,-0.56798 0,-0.0741 0.01058,-0.19402 0.01058,-0.12348 0.04586,-0.25753 0.03528,-0.13759 0.102306,-0.27517 0.06703,-0.14111 0.179917,-0.25047 0.116416,-0.11289 0.28575,-0.18345 0.169333,-0.0705 0.409222,-0.0705 z" />
      <path
         id="path7906"
         style="font-style:normal;font-variant:normal;font-weight:normal;font-stretch:normal;font-family:'Bradley Gratis';-inkscape-font-specification:'Bradley Gratis';text-align:start;text-anchor:start;fill:#00a3f2;fill-opacity:1;stroke-width:0.264583"
         d="m 70.958594,147.92068 q -0.08819,-0.21167 -0.151695,-0.35278 -0.0635,-0.14111 -0.09878,-0.14111 -0.03881,0 -0.05292,0.0353 -0.01058,0.0317 -0.01058,0.0564 v 1.91206 q 0,0.0776 -0.04233,0.16228 -0.04233,0.0847 -0.112889,0.14817 0.130528,0 0.232834,-0.0635 0.102305,-0.067 0.211666,-0.14464 0.112889,-0.0811 0.250473,-0.14464 0.137583,-0.067 0.342194,-0.067 v 0.63147 H 69.93201 q 0.04586,-0.067 0.07761,-0.127 0.03528,-0.06 0.05645,-0.11994 0.02117,-0.06 0.03175,-0.127 0.01058,-0.067 0.01058,-0.14817 v -1.66864 q 0,-0.11289 -0.04233,-0.18344 -0.04233,-0.0741 -0.05997,-0.10231 0.01411,-0.004 0.07056,-0.0247 0.05997,-0.0247 0.144639,-0.0565 0.08467,-0.0317 0.186972,-0.067 0.102306,-0.0353 0.201084,-0.0635 0.09878,-0.0317 0.186972,-0.0494 0.08819,-0.0212 0.144639,-0.0212 0.08819,0 0.165806,0.0494 0.07761,0.0494 0.141111,0.12347 0.0635,0.0741 0.109361,0.16581 0.04586,0.0882 0.07408,0.1658 z" />
      <path
         id="path7908"
         style="font-style:normal;font-variant:normal;font-weight:normal;font-stretch:normal;font-family:'Bradley Gratis';-inkscape-font-specification:'Bradley Gratis';text-align:start;text-anchor:start;fill:#00a3f2;fill-opacity:1;stroke-width:0.264583"
         d="m 73.138763,148.25582 v -0.87842 h -0.416278 q -0.0035,0.23636 -0.01411,0.4692 -0.0071,0.2293 -0.01764,0.40922 z m 0.719667,-1.03011 q -0.0388,0.0282 -0.07408,0.0705 -0.03175,0.0423 -0.05644,0.0917 -0.02117,0.0459 -0.03528,0.0917 -0.01411,0.0423 -0.01411,0.0741 v 2.39889 h -0.539751 v -1.32997 h -0.472722 q -0.0035,0.127 -0.03528,0.27869 -0.03175,0.14817 -0.08819,0.29987 -0.05292,0.14816 -0.127,0.28927 -0.07055,0.13759 -0.162278,0.24342 -0.08819,0.10583 -0.1905,0.16933 -0.09878,0.0635 -0.208139,0.0635 -0.07055,0 -0.123472,-0.0423 -0.04939,-0.0423 -0.04939,-0.11994 0,-0.0494 0.03175,-0.0706 0.03175,-0.0247 0.06703,-0.0247 0.03175,0 0.04939,0.0106 0.01764,0.007 0.03175,0.0212 0.01764,0.0106 0.03881,0.0212 0.02117,0.007 0.05997,0.007 0.0635,0 0.102305,-0.0635 0.03881,-0.067 0.0635,-0.17639 0.0247,-0.11289 0.03528,-0.25753 0.01411,-0.14817 0.02117,-0.31044 0.0071,-0.16228 0.01764,-0.32809 0.01058,-0.16933 0.02822,-0.32455 0.02117,-0.18345 0.0635,-0.33514 0.04586,-0.1517 0.09525,-0.26811 0.04939,-0.11642 0.09878,-0.19756 0.04939,-0.0811 0.08467,-0.13053 h -0.07761 q -0.06703,0 -0.123472,0.0212 -0.05644,0.0176 -0.102306,0.0423 -0.04233,0.0212 -0.07761,0.0423 -0.03175,0.0176 -0.05644,0.0176 -0.05997,0 -0.08819,-0.0423 -0.02822,-0.0423 -0.02822,-0.0952 0,-0.0494 0.05292,-0.0917 0.05644,-0.0459 0.155222,-0.0459 z" />
      <path
         id="path7910"
         style="font-style:normal;font-variant:normal;font-weight:normal;font-stretch:normal;font-family:'Bradley Gratis';-inkscape-font-specification:'Bradley Gratis';text-align:start;text-anchor:start;fill:#00a3f2;fill-opacity:1;stroke-width:0.264583"
         d="m 74.158843,149.95268 v -2.43769 q 0,-0.0988 -0.04233,-0.16581 -0.04233,-0.0705 -0.08467,-0.12347 h 0.684389 v 0.35983 l 0.391584,-0.45508 q 0.179916,0.16228 0.296333,0.32455 0.116417,0.15875 0.183445,0.32103 0.06703,0.15875 0.09172,0.32456 0.02469,0.16228 0.02469,0.33514 0,0.16933 -0.02822,0.32455 -0.02469,0.1517 -0.07408,0.29986 -0.04939,0.14817 -0.119945,0.29987 -0.06703,0.15169 -0.148166,0.3175 h 0.127 q 0.04586,0 0.09525,-0.0317 0.04939,-0.0317 0.09878,-0.0317 v 0.33866 h -0.68439 q 0.09525,-0.19403 0.151695,-0.34925 0.05997,-0.15522 0.09172,-0.29633 0.03175,-0.14111 0.04233,-0.27517 0.01058,-0.13405 0.01058,-0.28575 0,-0.15169 -0.05292,-0.31397 -0.04939,-0.16581 -0.123472,-0.30339 -0.07408,-0.13758 -0.15875,-0.22578 -0.08114,-0.0882 -0.148167,-0.0882 -0.04233,0 -0.06703,0.0212 v 2.11667 z" />
      <path
         id="path7912"
         style="font-style:normal;font-variant:normal;font-weight:normal;font-stretch:normal;font-family:'Bradley Gratis';-inkscape-font-specification:'Bradley Gratis';text-align:start;text-anchor:start;fill:#00a3f2;fill-opacity:1;stroke-width:0.264583"
         d="m 76.047749,147.47265 q -0.09172,-0.0388 -0.127,-0.0952 -0.03528,-0.0564 -0.03528,-0.10583 0,-0.0423 0.02822,-0.0529 0.02822,0.0176 0.07761,0.0247 0.04939,0.007 0.112889,0.007 0.03175,0 0.08819,-0.0106 0.05997,-0.0106 0.130528,-0.0212 0.07055,-0.0106 0.144639,-0.0212 0.07761,-0.0106 0.144639,-0.0106 0.162278,0 0.331611,0.0847 0.169334,0.0811 0.303389,0.254 0.134056,0.16933 0.218723,0.43392 0.08819,0.26105 0.08819,0.62441 0,0.30692 -0.05292,0.52917 -0.05292,0.22225 -0.134055,0.37747 -0.08114,0.15523 -0.179917,0.25048 -0.09878,0.0917 -0.194028,0.14463 -0.09172,0.0494 -0.169333,0.067 -0.07408,0.0176 -0.109362,0.0176 -0.05292,0 -0.112889,-0.0141 -0.05997,-0.0141 -0.119944,-0.0317 -0.05645,-0.0176 -0.109361,-0.0318 -0.04939,-0.0141 -0.08467,-0.0141 -0.03881,0 -0.07056,0.0141 -0.03175,0.0106 -0.06703,0.0247 -0.03175,0.0106 -0.07056,0.0247 -0.03881,0.0106 -0.08819,0.0106 -0.01764,0 -0.03881,-0.004 -0.01764,-0.004 -0.03528,-0.0106 -0.01764,-0.007 -0.03528,-0.0176 0.02822,-0.0176 0.05644,-0.06 0.02822,-0.0459 0.05292,-0.0952 0.02822,-0.0529 0.05644,-0.11642 z m 0.518584,2.10256 q 0,0.0741 0.02469,0.11642 0.02822,0.0388 0.05997,0.0564 0.03881,0.0212 0.08467,0.0247 0.08114,0 0.141111,-0.10937 0.0635,-0.10936 0.0635,-0.27869 v -1.5487 q 0,-0.1658 -0.03175,-0.25752 -0.03175,-0.0917 -0.07408,-0.13406 -0.04233,-0.0423 -0.08467,-0.0494 -0.04233,-0.0106 -0.06703,-0.0106 -0.04233,0 -0.08114,0.0564 -0.03528,0.0565 -0.03528,0.14817 z" />
    </g>
    <g
       style="font-style:normal;font-variant:normal;font-weight:bold;font-stretch:normal;font-size:3.52778px;line-height:1.25;font-family:Consolas;-inkscape-font-specification:'Consolas Bold';text-align:center;letter-spacing:0px;word-spacing:0px;text-anchor:middle;fill:#ffffff;fill-opacity:1;stroke:none;stroke-width:0.264583"
       id="text6637" />
    <g
       style="font-style:normal;font-variant:normal;font-weight:bold;font-stretch:normal;font-size:13.3333px;line-height:1.25;font-family:Consolas;-inkscape-font-specification:'Consolas Bold';text-align:center;letter-spacing:0px;word-spacing:0px;text-anchor:middle;fill:#ffffff;fill-opacity:1;stroke:none"
       id="flowRoot1051" />
    <path
       d="M 63.853733,136.28542 H 77.87639 v 10.31849 H 63.853733 Z"
       style="opacity:0.981;fill:#0e365d;fill-opacity:1;stroke:#000000;stroke-width:0.264842;stroke-miterlimit:4;stroke-dasharray:none;stroke-opacity:1"
       id="rect22843" />
    <g
       style="font-style:normal;font-variant:normal;font-weight:normal;font-stretch:normal;font-size:3.52778px;line-height:1.25;font-family:Quarca;-inkscape-font-specification:Quarca;text-align:center;letter-spacing:0px;word-spacing:0px;text-anchor:middle;fill:#dddddd;fill-opacity:1;stroke:none;stroke-width:0.264583"
       id="text307-7"
       aria-label="OUT">
      <path
         id="path7874"
         style="font-style:normal;font-variant:normal;font-weight:normal;font-stretch:normal;font-size:2.82222px;font-family:Quarca;-inkscape-font-specification:Quarca;fill:#dddddd;fill-opacity:1;stroke-width:0.264583"
         d="m 69.022813,138.58789 c 0,0.25964 0.09878,0.38947 0.386644,0.38947 h 0.536222 c 0.287866,0 0.386644,-0.12983 0.386644,-0.38947 v -1.22484 c 0,-0.25965 -0.09878,-0.38947 -0.386644,-0.38947 h -0.536222 c -0.287866,0 -0.386644,0.12982 -0.386644,0.38947 z m 0.403577,-1.46191 h 0.502355 c 0.180623,0 0.242711,0.0847 0.242711,0.26247 v 1.17404 c 0,0.1778 -0.06209,0.26247 -0.242711,0.26247 H 69.42639 c -0.1778,0 -0.242711,-0.0847 -0.242711,-0.26247 v -1.17404 c 0,-0.1778 0.06491,-0.26247 0.242711,-0.26247 z" />
      <path
         id="path7876"
         style="font-style:normal;font-variant:normal;font-weight:normal;font-stretch:normal;font-size:2.82222px;font-family:Quarca;-inkscape-font-specification:Quarca;fill:#dddddd;fill-opacity:1;stroke-width:0.264583"
         d="m 71.494637,138.82496 h -0.361245 c -0.194733,0 -0.279399,-0.0903 -0.279399,-0.29634 v -1.55504 h -0.160867 v 1.6002 c 0,0.26811 0.124178,0.40358 0.4064,0.40358 h 0.428977 c 0.282222,0 0.4064,-0.13547 0.4064,-0.40358 v -1.6002 h -0.163689 v 1.55504 c 0,0.20603 -0.08184,0.29634 -0.276577,0.29634 z" />
      <path
         id="path7878"
         style="font-style:normal;font-variant:normal;font-weight:normal;font-stretch:normal;font-size:2.82222px;font-family:Quarca;-inkscape-font-specification:Quarca;fill:#dddddd;fill-opacity:1;stroke-width:0.264583"
         d="m 73.338428,137.12598 v -0.1524 h -1.188154 v 0.1524 h 0.513644 v 1.85138 h 0.163688 v -1.85138 z" />
    </g>
    <g
       style="font-style:normal;font-variant:normal;font-weight:normal;font-stretch:normal;font-size:3.52778px;line-height:1.25;font-family:Quarca;-inkscape-font-specification:Quarca;text-align:center;letter-spacing:0px;word-spacing:0px;text-anchor:middle;fill:#dddddd;fill-opacity:1;stroke:none;stroke-width:0.264583"
       id="text307-7-9"
       aria-label="IN">
      <path
         id="path7869"
         style="font-style:normal;font-variant:normal;font-weight:normal;font-stretch:normal;font-size:2.82222px;font-family:Quarca;-inkscape-font-specification:Quarca;fill:#dddddd;fill-opacity:1;stroke-width:0.264583"
         d="m 53.673429,138.93414 v -2.00377 h -0.160867 v 2.00377 z" />
      <path
         id="path7871"
         style="font-style:normal;font-variant:normal;font-weight:normal;font-stretch:normal;font-size:2.82222px;font-family:Quarca;-inkscape-font-specification:Quarca;fill:#dddddd;fill-opacity:1;stroke-width:0.264583"
         d="m 54.21362,138.93414 v -1.72437 c 0.04233,0.0931 0.07902,0.18626 0.146755,0.30197 l 0.824088,1.4224 h 0.163689 v -2.00377 h -0.163689 v 1.72155 c -0.03104,-0.0734 -0.05927,-0.14393 -0.112889,-0.23707 l -0.857954,-1.48448 h -0.160867 v 2.00377 z" />
    </g>
    <g
       style="font-style:normal;font-variant:normal;font-weight:normal;font-stretch:normal;font-size:3.52778px;line-height:1.25;font-family:Quarca;-inkscape-font-specification:Quarca;text-align:start;letter-spacing:0px;word-spacing:0px;text-anchor:start;fill:#dddddd;fill-opacity:1;stroke:none;stroke-width:0.264583"
       id="text299-5"
       aria-label="EDGE LEVEL">
      <path
         id="path7850"
         style="font-style:normal;font-variant:normal;font-weight:normal;font-stretch:normal;font-size:2.82222px;font-family:Quarca;-inkscape-font-specification:Quarca;text-align:start;text-anchor:start;fill:#dddddd;fill-opacity:1;stroke-width:0.264583"
         d="m 38.510401,100.90753 h 0.905933 l 0.02258,-0.1524 h -1.089377 v 2.00377 h 1.072444 l 0.02258,-0.1524 h -0.934155 v -0.61242 h 0.759178 l 0.02258,-0.14958 h -0.781755 z" />
      <path
         id="path7852"
         style="font-style:normal;font-variant:normal;font-weight:normal;font-stretch:normal;font-size:2.82222px;font-family:Quarca;-inkscape-font-specification:Quarca;text-align:start;text-anchor:start;fill:#dddddd;fill-opacity:1;stroke-width:0.264583"
         d="m 39.705523,102.7589 h 0.784578 c 0.352777,0 0.49671,-0.15522 0.49671,-0.47413 v -1.05551 c 0,-0.31891 -0.143933,-0.47413 -0.49671,-0.47413 h -0.784578 z m 0.776111,-0.1524 H 39.86639 v -1.69897 h 0.615244 c 0.245533,0 0.344311,0.11006 0.344311,0.3556 v 0.98777 c 0,0.24554 -0.09878,0.3556 -0.344311,0.3556 z" />
      <path
         id="path7854"
         style="font-style:normal;font-variant:normal;font-weight:normal;font-stretch:normal;font-size:2.82222px;font-family:Quarca;-inkscape-font-specification:Quarca;text-align:start;text-anchor:start;fill:#dddddd;fill-opacity:1;stroke-width:0.264583"
         d="m 41.960433,101.94328 h 0.4826 v 0.42051 c 0,0.16369 -0.06773,0.24271 -0.248356,0.24271 h -0.44591 c -0.166511,0 -0.245534,-0.0762 -0.245534,-0.25682 v -1.16558 c 0,-0.19191 0.06491,-0.27657 0.231422,-0.27657 h 0.4826 c 0.166511,0 0.239889,0.0762 0.239889,0.25682 v 0.18062 h 0.160866 v -0.2286 c 0,-0.25118 -0.124177,-0.36124 -0.364066,-0.36124 h -0.572911 c -0.225777,0 -0.338666,0.127 -0.338666,0.381 v 1.26435 c 0,0.254 0.141111,0.35842 0.366888,0.35842 h 0.524933 c 0.2794,0 0.372533,-0.13829 0.372533,-0.381 v -0.58702 h -0.62371 z" />
      <path
         id="path7856"
         style="font-style:normal;font-variant:normal;font-weight:normal;font-stretch:normal;font-size:2.82222px;font-family:Quarca;-inkscape-font-specification:Quarca;text-align:start;text-anchor:start;fill:#dddddd;fill-opacity:1;stroke-width:0.264583"
         d="m 43.113045,100.90753 h 0.905933 l 0.02258,-0.1524 h -1.089377 v 2.00377 h 1.072444 l 0.02258,-0.1524 h -0.934155 v -0.61242 h 0.759178 l 0.02258,-0.14958 h -0.781755 z" />
      <path
         id="path7858"
         style="font-style:normal;font-variant:normal;font-weight:normal;font-stretch:normal;font-size:2.82222px;font-family:Quarca;-inkscape-font-specification:Quarca;text-align:start;text-anchor:start;fill:#dddddd;fill-opacity:1;stroke-width:0.264583"
         d="m 45.042298,100.75513 h -0.160867 v 2.00377 h 1.027288 l 0.02258,-0.1524 h -0.888999 z" />
      <path
         id="path7860"
         style="font-style:normal;font-variant:normal;font-weight:normal;font-stretch:normal;font-size:2.82222px;font-family:Quarca;-inkscape-font-specification:Quarca;text-align:start;text-anchor:start;fill:#dddddd;fill-opacity:1;stroke-width:0.264583"
         d="m 46.310092,100.90753 h 0.905932 l 0.02258,-0.1524 h -1.089377 v 2.00377 h 1.072444 l 0.02258,-0.1524 h -0.934155 v -0.61242 h 0.759177 l 0.02258,-0.14958 h -0.781755 z" />
      <path
         id="path7862"
         style="font-style:normal;font-variant:normal;font-weight:normal;font-stretch:normal;font-size:2.82222px;font-family:Quarca;-inkscape-font-specification:Quarca;text-align:start;text-anchor:start;fill:#dddddd;fill-opacity:1;stroke-width:0.264583"
         d="m 48.140213,102.7589 0.570089,-2.00377 h -0.172156 l -0.468488,1.69615 c -0.0085,0.0395 -0.01693,0.0819 -0.01976,0.11853 -0.0056,-0.0367 -0.01129,-0.079 -0.02258,-0.11853 l -0.468488,-1.69615 H 47.38668 l 0.572911,2.00377 z" />
      <path
         id="path7864"
         style="font-style:normal;font-variant:normal;font-weight:normal;font-stretch:normal;font-size:2.82222px;font-family:Quarca;-inkscape-font-specification:Quarca;text-align:start;text-anchor:start;fill:#dddddd;fill-opacity:1;stroke-width:0.264583"
         d="m 49.132312,100.90753 h 0.905932 l 0.02258,-0.1524 h -1.089377 v 2.00377 h 1.072444 l 0.02258,-0.1524 h -0.934154 v -0.61242 h 0.759177 l 0.02258,-0.14958 h -0.781755 z" />
      <path
         id="path7866"
         style="font-style:normal;font-variant:normal;font-weight:normal;font-stretch:normal;font-size:2.82222px;font-family:Quarca;-inkscape-font-specification:Quarca;text-align:start;text-anchor:start;fill:#dddddd;fill-opacity:1;stroke-width:0.264583"
         d="m 50.4883,100.75513 h -0.160866 v 2.00377 h 1.027288 l 0.02258,-0.1524 H 50.4883 Z" />
    </g>
    <g
       style="font-style:normal;font-variant:normal;font-weight:bold;font-stretch:normal;font-size:13.3333px;line-height:1.25;font-family:Consolas;-inkscape-font-specification:'Consolas Bold';text-align:center;letter-spacing:0px;word-spacing:0px;text-anchor:middle;fill:#ffffff;fill-opacity:1;stroke:none"
       id="flowRoot1227" />
    <g
       style="font-style:normal;font-variant:normal;font-weight:bold;font-stretch:normal;font-size:13.3333px;line-height:1.25;font-family:Consolas;-inkscape-font-specification:'Consolas Bold';text-align:center;letter-spacing:0px;word-spacing:0px;text-anchor:middle;fill:#000000;fill-opacity:1;stroke:none"
       id="flowRoot5298" />
    <g
       style="font-style:normal;font-variant:normal;font-weight:normal;font-stretch:normal;font-size:3.52778px;line-height:1.25;font-family:Quarca;-inkscape-font-specification:Quarca;text-align:start;letter-spacing:0px;word-spacing:0px;text-anchor:start;fill:#dddddd;fill-opacity:1;stroke:none;stroke-width:0.264583"
       id="text299-5-6"
       aria-label="TENT LEVEL">
      <path
         id="path7829"
         style="font-style:normal;font-variant:normal;font-weight:normal;font-stretch:normal;font-size:2.82222px;font-family:Quarca;-inkscape-font-specification:Quarca;text-align:start;text-anchor:start;fill:#dddddd;fill-opacity:1;stroke-width:0.264583"
         d="m 58.021834,100.81224 v -0.1524 H 56.83368 v 0.1524 h 0.513644 v 1.85137 h 0.163688 v -1.85137 z" />
      <path
         id="path7831"
         style="font-style:normal;font-variant:normal;font-weight:normal;font-stretch:normal;font-size:2.82222px;font-family:Quarca;-inkscape-font-specification:Quarca;text-align:start;text-anchor:start;fill:#dddddd;fill-opacity:1;stroke-width:0.264583"
         d="m 58.403848,100.81224 h 0.905933 l 0.02258,-0.1524 h -1.089377 v 2.00377 h 1.072443 l 0.02258,-0.1524 h -0.934155 v -0.61242 h 0.759177 l 0.02258,-0.14958 h -0.781755 z" />
      <path
         id="path7833"
         style="font-style:normal;font-variant:normal;font-weight:normal;font-stretch:normal;font-size:2.82222px;font-family:Quarca;-inkscape-font-specification:Quarca;text-align:start;text-anchor:start;fill:#dddddd;fill-opacity:1;stroke-width:0.264583"
         d="m 59.759837,102.66361 v -1.72437 c 0.04233,0.0931 0.07902,0.18626 0.146755,0.30197 l 0.824089,1.4224 h 0.163688 v -2.00377 h -0.163688 v 1.72155 c -0.03104,-0.0734 -0.05927,-0.14393 -0.112889,-0.23707 l -0.857955,-1.48448 H 59.59897 v 2.00377 z" />
      <path
         id="path7835"
         style="font-style:normal;font-variant:normal;font-weight:normal;font-stretch:normal;font-size:2.82222px;font-family:Quarca;-inkscape-font-specification:Quarca;text-align:start;text-anchor:start;fill:#dddddd;fill-opacity:1;stroke-width:0.264583"
         d="m 62.304774,100.81224 v -0.1524 h -1.188155 v 0.1524 h 0.513644 v 1.85137 h 0.163689 v -1.85137 z" />
      <path
         id="path7837"
         style="font-style:normal;font-variant:normal;font-weight:normal;font-stretch:normal;font-size:2.82222px;font-family:Quarca;-inkscape-font-specification:Quarca;text-align:start;text-anchor:start;fill:#dddddd;fill-opacity:1;stroke-width:0.264583"
         d="m 63.199417,100.65984 h -0.160866 v 2.00377 h 1.027288 l 0.02258,-0.1524 h -0.889 z" />
      <path
         id="path7839"
         style="font-style:normal;font-variant:normal;font-weight:normal;font-stretch:normal;font-size:2.82222px;font-family:Quarca;-inkscape-font-specification:Quarca;text-align:start;text-anchor:start;fill:#dddddd;fill-opacity:1;stroke-width:0.264583"
         d="m 64.467211,100.81224 h 0.905933 l 0.02258,-0.1524 h -1.089377 v 2.00377 h 1.072444 l 0.02258,-0.1524 h -0.934155 v -0.61242 h 0.759178 l 0.02258,-0.14958 h -0.781755 z" />
      <path
         id="path7841"
         style="font-style:normal;font-variant:normal;font-weight:normal;font-stretch:normal;font-size:2.82222px;font-family:Quarca;-inkscape-font-specification:Quarca;text-align:start;text-anchor:start;fill:#dddddd;fill-opacity:1;stroke-width:0.264583"
         d="m 66.297333,102.66361 0.570088,-2.00377 h -0.172155 l -0.468489,1.69615 c -0.0085,0.0395 -0.01693,0.0818 -0.01976,0.11853 -0.0056,-0.0367 -0.01129,-0.079 -0.02258,-0.11853 l -0.468488,-1.69615 H 65.5438 l 0.572911,2.00377 z" />
      <path
         id="path7843"
         style="font-style:normal;font-variant:normal;font-weight:normal;font-stretch:normal;font-size:2.82222px;font-family:Quarca;-inkscape-font-specification:Quarca;text-align:start;text-anchor:start;fill:#dddddd;fill-opacity:1;stroke-width:0.264583"
         d="m 67.289431,100.81224 h 0.905933 l 0.02258,-0.1524 h -1.089377 v 2.00377 h 1.072443 l 0.02258,-0.1524 h -0.934155 v -0.61242 h 0.759178 l 0.02258,-0.14958 h -0.781755 z" />
      <path
         id="path7845"
         style="font-style:normal;font-variant:normal;font-weight:normal;font-stretch:normal;font-size:2.82222px;font-family:Quarca;-inkscape-font-specification:Quarca;text-align:start;text-anchor:start;fill:#dddddd;fill-opacity:1;stroke-width:0.264583"
         d="m 68.64542,100.65984 h -0.160867 v 2.00377 h 1.027288 l 0.02258,-0.1524 H 68.64542 Z" />
    </g>
    <g
       style="font-style:normal;font-variant:normal;font-weight:normal;font-stretch:normal;font-size:3.52778px;line-height:1.25;font-family:Quarca;-inkscape-font-specification:Quarca;text-align:start;letter-spacing:0px;word-spacing:0px;text-anchor:start;fill:#dddddd;fill-opacity:1;stroke:none;stroke-width:0.264583"
       id="text299-5-6-7"
       aria-label="TENT TAP">
      <path
         id="path7814"
         style="font-style:normal;font-variant:normal;font-weight:normal;font-stretch:normal;font-size:2.82222px;font-family:Quarca;-inkscape-font-specification:Quarca;text-align:start;text-anchor:start;fill:#dddddd;fill-opacity:1;stroke-width:0.264583"
         d="m 77.600997,100.99932 v -0.1524 h -1.188155 v 0.1524 h 0.513644 v 1.85137 h 0.163689 v -1.85137 z" />
      <path
         id="path7816"
         style="font-style:normal;font-variant:normal;font-weight:normal;font-stretch:normal;font-size:2.82222px;font-family:Quarca;-inkscape-font-specification:Quarca;text-align:start;text-anchor:start;fill:#dddddd;fill-opacity:1;stroke-width:0.264583"
         d="m 77.983011,100.99932 h 0.905933 l 0.02258,-0.1524 h -1.089377 v 2.00377 h 1.072444 l 0.02258,-0.1524 h -0.934155 v -0.61242 h 0.759177 l 0.02258,-0.14958 h -0.781755 z" />
      <path
         id="path7818"
         style="font-style:normal;font-variant:normal;font-weight:normal;font-stretch:normal;font-size:2.82222px;font-family:Quarca;-inkscape-font-specification:Quarca;text-align:start;text-anchor:start;fill:#dddddd;fill-opacity:1;stroke-width:0.264583"
         d="m 79.338999,102.85069 v -1.72437 c 0.04233,0.0931 0.07902,0.18626 0.146756,0.30197 l 0.824088,1.4224 h 0.163689 v -2.00377 h -0.163689 v 1.72155 c -0.03104,-0.0734 -0.05927,-0.14393 -0.112889,-0.23707 l -0.857955,-1.48448 h -0.160866 v 2.00377 z" />
      <path
         id="path7820"
         style="font-style:normal;font-variant:normal;font-weight:normal;font-stretch:normal;font-size:2.82222px;font-family:Quarca;-inkscape-font-specification:Quarca;text-align:start;text-anchor:start;fill:#dddddd;fill-opacity:1;stroke-width:0.264583"
         d="m 81.883936,100.99932 v -0.1524 h -1.188154 v 0.1524 h 0.513644 v 1.85137 h 0.163688 v -1.85137 z" />
      <path
         id="path7822"
         style="font-style:normal;font-variant:normal;font-weight:normal;font-stretch:normal;font-size:2.82222px;font-family:Quarca;-inkscape-font-specification:Quarca;text-align:start;text-anchor:start;fill:#dddddd;fill-opacity:1;stroke-width:0.264583"
         d="m 83.58719,100.99932 v -0.1524 h -1.188155 v 0.1524 h 0.513644 v 1.85137 h 0.163689 v -1.85137 z" />
      <path
         id="path7824"
         style="font-style:normal;font-variant:normal;font-weight:normal;font-stretch:normal;font-size:2.82222px;font-family:Quarca;-inkscape-font-specification:Quarca;text-align:start;text-anchor:start;fill:#dddddd;fill-opacity:1;stroke-width:0.264583"
         d="m 84.111726,100.84692 -0.618066,2.00377 h 0.172156 l 0.129822,-0.43462 h 0.807155 l 0.129822,0.43462 h 0.172155 l -0.615244,-2.00377 z m 0.09031,0.21449 0.3556,1.20226 h -0.716844 z" />
      <path
         id="path7826"
         style="font-style:normal;font-variant:normal;font-weight:normal;font-stretch:normal;font-size:2.82222px;font-family:Quarca;-inkscape-font-specification:Quarca;text-align:start;text-anchor:start;fill:#dddddd;fill-opacity:1;stroke-width:0.264583"
         d="m 85.308656,102.0266 h 0.632178 c 0.251177,0 0.380999,-0.127 0.380999,-0.37817 v -0.42334 c 0,-0.25117 -0.129822,-0.37817 -0.380999,-0.37817 H 85.14779 v 2.00377 h 0.160866 z m 0,-1.02728 h 0.6096 c 0.163689,0 0.239889,0.0762 0.239889,0.25682 v 0.36124 c 0,0.18062 -0.0762,0.25682 -0.239889,0.25682 h -0.6096 z" />
    </g>
    <g
       style="font-style:normal;font-variant:normal;font-weight:bold;font-stretch:normal;font-size:13.3333px;line-height:1.25;font-family:Consolas;-inkscape-font-specification:'Consolas Bold';text-align:center;letter-spacing:0px;word-spacing:0px;text-anchor:middle;fill:#000000;fill-opacity:1;stroke:none"
       id="flowRoot1643" />
    <g
       style="font-style:normal;font-variant:normal;font-weight:normal;font-stretch:normal;font-size:3.52778px;line-height:1.25;font-family:Quarca;-inkscape-font-specification:Quarca;text-align:center;letter-spacing:0px;word-spacing:0px;text-anchor:middle;fill:#dddddd;fill-opacity:1;stroke:none;stroke-width:0.264583"
       id="text299-8"
       aria-label="FEEDBACK AMOUNT">
      <path
         id="path7784"
         style="font-style:normal;font-variant:normal;font-weight:normal;font-stretch:normal;font-size:2.82222px;font-family:Quarca;-inkscape-font-specification:Quarca;fill:#dddddd;fill-opacity:1;stroke-width:0.264583"
         d="m 67.264023,122.82653 h 0.897466 l 0.02258,-0.1524 h -1.080911 v 2.00378 h 0.160867 v -0.76482 h 0.711199 l 0.02258,-0.14958 h -0.733777 z" />
      <path
         id="path7786"
         style="font-style:normal;font-variant:normal;font-weight:normal;font-stretch:normal;font-size:2.82222px;font-family:Quarca;-inkscape-font-specification:Quarca;fill:#dddddd;fill-opacity:1;stroke-width:0.264583"
         d="m 68.586938,122.82653 h 0.905933 l 0.02258,-0.1524 h -1.089377 v 2.00378 h 1.072444 l 0.02258,-0.1524 h -0.934155 v -0.61242 h 0.759178 l 0.02258,-0.14958 h -0.781755 z" />
      <path
         id="path7788"
         style="font-style:normal;font-variant:normal;font-weight:normal;font-stretch:normal;font-size:2.82222px;font-family:Quarca;-inkscape-font-specification:Quarca;fill:#dddddd;fill-opacity:1;stroke-width:0.264583"
         d="m 69.942927,122.82653 h 0.905932 l 0.02258,-0.1524 H 69.78206 v 2.00378 h 1.072444 l 0.02258,-0.1524 h -0.934155 v -0.61242 h 0.759177 l 0.02258,-0.14958 h -0.781755 z" />
      <path
         id="path7790"
         style="font-style:normal;font-variant:normal;font-weight:normal;font-stretch:normal;font-size:2.82222px;font-family:Quarca;-inkscape-font-specification:Quarca;fill:#dddddd;fill-opacity:1;stroke-width:0.264583"
         d="m 71.138049,124.67791 h 0.784577 c 0.352777,0 0.496711,-0.15522 0.496711,-0.47413 v -1.05551 c 0,-0.31891 -0.143934,-0.47414 -0.496711,-0.47414 h -0.784577 z m 0.77611,-0.1524 h -0.615244 v -1.69898 h 0.615244 c 0.245533,0 0.344311,0.11007 0.344311,0.3556 v 0.98778 c 0,0.24553 -0.09878,0.3556 -0.344311,0.3556 z" />
      <path
         id="path7792"
         style="font-style:normal;font-variant:normal;font-weight:normal;font-stretch:normal;font-size:2.82222px;font-family:Quarca;-inkscape-font-specification:Quarca;fill:#dddddd;fill-opacity:1;stroke-width:0.264583"
         d="m 72.786182,124.67791 h 0.784577 c 0.301977,0 0.437444,-0.12982 0.437444,-0.38947 v -0.27375 c 0,-0.27376 -0.146756,-0.37253 -0.327378,-0.38665 0.1524,-0.031 0.222956,-0.13264 0.222956,-0.31891 v -0.24553 c 0,-0.25964 -0.149578,-0.38947 -0.465667,-0.38947 h -0.651932 z m 0.160866,-0.97084 h 0.536222 c 0.251178,0 0.364066,0.096 0.364066,0.31608 v 0.23425 c 0,0.18062 -0.09313,0.26811 -0.301977,0.26811 h -0.598311 z m 0,-0.88054 h 0.454378 c 0.234244,0 0.341488,0.079 0.341488,0.27376 v 0.19755 c 0,0.16087 -0.08749,0.25965 -0.285044,0.25965 h -0.510822 z" />
      <path
         id="path7794"
         style="font-style:normal;font-variant:normal;font-weight:normal;font-stretch:normal;font-size:2.82222px;font-family:Quarca;-inkscape-font-specification:Quarca;fill:#dddddd;fill-opacity:1;stroke-width:0.264583"
         d="m 74.770775,122.67413 -0.618066,2.00378 h 0.172155 l 0.129822,-0.43462 h 0.807155 l 0.129822,0.43462 h 0.172156 l -0.615244,-2.00378 z m 0.09031,0.21449 0.3556,1.20227 h -0.716844 z" />
      <path
         id="path7796"
         style="font-style:normal;font-variant:normal;font-weight:normal;font-stretch:normal;font-size:2.82222px;font-family:Quarca;-inkscape-font-specification:Quarca;fill:#dddddd;fill-opacity:1;stroke-width:0.264583"
         d="m 76.199128,124.52551 c -0.1778,0 -0.242711,-0.0847 -0.242711,-0.26247 V 123.089 c 0,-0.1778 0.06491,-0.26247 0.242711,-0.26247 h 0.457199 c 0.1778,0 0.242711,0.0847 0.242711,0.26247 v 0.18344 h 0.160867 v -0.20884 c 0,-0.25964 -0.09878,-0.38947 -0.386644,-0.38947 h -0.491067 c -0.287866,0 -0.386644,0.12983 -0.386644,0.38947 v 1.22484 c 0,0.25965 0.09878,0.38947 0.386644,0.38947 h 0.491067 c 0.287866,0 0.386644,-0.12982 0.386644,-0.38947 v -0.21449 h -0.160867 v 0.18909 c 0,0.1778 -0.06491,0.26247 -0.242711,0.26247 z" />
      <path
         id="path7798"
         style="font-style:normal;font-variant:normal;font-weight:normal;font-stretch:normal;font-size:2.82222px;font-family:Quarca;-inkscape-font-specification:Quarca;fill:#dddddd;fill-opacity:1;stroke-width:0.264583"
         d="m 77.533155,124.67791 v -0.95955 l 0.829733,0.95955 h 0.189089 l -0.866422,-1.00189 0.849489,-1.00189 h -0.1778 l -0.824089,0.95956 v -0.95956 h -0.160866 v 2.00378 z" />
      <path
         id="path7800"
         style="font-style:normal;font-variant:normal;font-weight:normal;font-stretch:normal;font-size:2.82222px;font-family:Quarca;-inkscape-font-specification:Quarca;fill:#dddddd;fill-opacity:1;stroke-width:0.264583"
         d="m 79.676587,122.67413 -0.618066,2.00378 h 0.172156 l 0.129822,-0.43462 h 0.807155 l 0.129822,0.43462 h 0.172155 l -0.615244,-2.00378 z m 0.09031,0.21449 0.3556,1.20227 h -0.716844 z" />
      <path
         id="path7802"
         style="font-style:normal;font-variant:normal;font-weight:normal;font-stretch:normal;font-size:2.82222px;font-family:Quarca;-inkscape-font-specification:Quarca;fill:#dddddd;fill-opacity:1;stroke-width:0.264583"
         d="m 80.867873,124.67791 v -1.74413 l 0.499533,0.97649 h 0.158045 l 0.502355,-0.97649 v 1.74413 h 0.155222 v -2.00378 h -0.191911 l -0.544688,1.06398 -0.541867,-1.06398 h -0.191911 v 2.00378 z" />
      <path
         id="path7804"
         style="font-style:normal;font-variant:normal;font-weight:normal;font-stretch:normal;font-size:2.82222px;font-family:Quarca;-inkscape-font-specification:Quarca;fill:#dddddd;fill-opacity:1;stroke-width:0.264583"
         d="m 82.547932,124.28844 c 0,0.25965 0.09878,0.38947 0.386644,0.38947 h 0.536222 c 0.287866,0 0.386644,-0.12982 0.386644,-0.38947 v -1.22484 c 0,-0.25964 -0.09878,-0.38947 -0.386644,-0.38947 h -0.536222 c -0.287867,0 -0.386644,0.12983 -0.386644,0.38947 z m 0.403577,-1.46191 h 0.502355 c 0.180622,0 0.242711,0.0847 0.242711,0.26247 v 1.17404 c 0,0.1778 -0.06209,0.26247 -0.242711,0.26247 h -0.502355 c -0.1778,0 -0.242711,-0.0847 -0.242711,-0.26247 V 123.089 c 0,-0.1778 0.06491,-0.26247 0.242711,-0.26247 z" />
      <path
         id="path7806"
         style="font-style:normal;font-variant:normal;font-weight:normal;font-stretch:normal;font-size:2.82222px;font-family:Quarca;-inkscape-font-specification:Quarca;fill:#dddddd;fill-opacity:1;stroke-width:0.264583"
         d="m 85.019756,124.52551 h -0.361245 c -0.194733,0 -0.279399,-0.0903 -0.279399,-0.29633 v -1.55505 h -0.160867 v 1.6002 c 0,0.26811 0.124178,0.40358 0.4064,0.40358 h 0.428977 c 0.282222,0 0.4064,-0.13547 0.4064,-0.40358 v -1.6002 h -0.163689 v 1.55505 c 0,0.20602 -0.08184,0.29633 -0.276577,0.29633 z" />
      <path
         id="path7808"
         style="font-style:normal;font-variant:normal;font-weight:normal;font-stretch:normal;font-size:2.82222px;font-family:Quarca;-inkscape-font-specification:Quarca;fill:#dddddd;fill-opacity:1;stroke-width:0.264583"
         d="m 85.994305,124.67791 v -1.72438 c 0.04233,0.0931 0.07902,0.18627 0.146755,0.30198 l 0.824088,1.4224 h 0.163689 v -2.00378 h -0.163689 v 1.72156 c -0.03104,-0.0734 -0.05927,-0.14394 -0.112889,-0.23707 l -0.857954,-1.48449 h -0.160867 v 2.00378 z" />
      <path
         id="path7810"
         style="font-style:normal;font-variant:normal;font-weight:normal;font-stretch:normal;font-size:2.82222px;font-family:Quarca;-inkscape-font-specification:Quarca;fill:#dddddd;fill-opacity:1;stroke-width:0.264583"
         d="m 88.53924,122.82653 v -0.1524 h -1.188155 v 0.1524 h 0.513644 v 1.85138 h 0.163689 v -1.85138 z" />
    </g>
    <g
       style="font-style:normal;font-variant:normal;font-weight:normal;font-stretch:normal;font-size:3.52778px;line-height:1.25;font-family:Quarca;-inkscape-font-specification:Quarca;text-align:center;letter-spacing:0px;word-spacing:0px;text-anchor:middle;fill:#dddddd;fill-opacity:1;stroke:none;stroke-width:0.264583"
       id="text299-0"
       aria-label="COMB PATTERN">
      <path
         id="path7761"
         style="font-style:normal;font-variant:normal;font-weight:normal;font-stretch:normal;font-size:2.82222px;font-family:Quarca;-inkscape-font-specification:Quarca;fill:#dddddd;fill-opacity:1;stroke-width:0.264583"
         d="m 37.363658,80.166288 c -0.1778,0 -0.242711,-0.08467 -0.242711,-0.262467 v -1.174043 c 0,-0.1778 0.06491,-0.262467 0.242711,-0.262467 h 0.4572 c 0.1778,0 0.242711,0.08467 0.242711,0.262467 v 0.183444 h 0.160866 v -0.208844 c 0,-0.259645 -0.09878,-0.389467 -0.386644,-0.389467 h -0.491066 c -0.287867,0 -0.386644,0.129822 -0.386644,0.389467 v 1.224843 c 0,0.259644 0.09878,0.389466 0.386644,0.389466 h 0.491066 c 0.287867,0 0.386644,-0.129822 0.386644,-0.389466 v -0.214489 h -0.160866 v 0.189089 c 0,0.1778 -0.06491,0.262467 -0.242711,0.262467 z" />
      <path
         id="path7763"
         style="font-style:normal;font-variant:normal;font-weight:normal;font-stretch:normal;font-size:2.82222px;font-family:Quarca;-inkscape-font-specification:Quarca;fill:#dddddd;fill-opacity:1;stroke-width:0.264583"
         d="m 38.525531,79.929221 c 0,0.259644 0.09878,0.389466 0.386644,0.389466 h 0.536222 c 0.287866,0 0.386644,-0.129822 0.386644,-0.389466 v -1.224843 c 0,-0.259645 -0.09878,-0.389467 -0.386644,-0.389467 h -0.536222 c -0.287866,0 -0.386644,0.129822 -0.386644,0.389467 z m 0.403577,-1.46191 h 0.502356 c 0.180622,0 0.24271,0.08467 0.24271,0.262467 v 1.174043 c 0,0.1778 -0.06209,0.262467 -0.24271,0.262467 h -0.502356 c -0.177799,0 -0.242711,-0.08467 -0.242711,-0.262467 v -1.174043 c 0,-0.1778 0.06491,-0.262467 0.242711,-0.262467 z" />
      <path
         id="path7765"
         style="font-style:normal;font-variant:normal;font-weight:normal;font-stretch:normal;font-size:2.82222px;font-family:Quarca;-inkscape-font-specification:Quarca;fill:#dddddd;fill-opacity:1;stroke-width:0.264583"
         d="m 40.356711,80.318687 v -1.744132 l 0.499533,0.976489 h 0.158044 l 0.502355,-0.976489 v 1.744132 h 0.155222 v -2.003776 h -0.19191 L 40.935266,79.378888 40.3934,78.314911 h -0.191911 v 2.003776 z" />
      <path
         id="path7767"
         style="font-style:normal;font-variant:normal;font-weight:normal;font-stretch:normal;font-size:2.82222px;font-family:Quarca;-inkscape-font-specification:Quarca;fill:#dddddd;fill-opacity:1;stroke-width:0.264583"
         d="m 42.048058,80.318687 h 0.784578 c 0.301977,0 0.437444,-0.129822 0.437444,-0.389466 v -0.273755 c 0,-0.273756 -0.146756,-0.372533 -0.327378,-0.386644 0.1524,-0.03105 0.222956,-0.132645 0.222956,-0.318911 v -0.245533 c 0,-0.259645 -0.149578,-0.389467 -0.465667,-0.389467 h -0.651933 z m 0.160867,-0.970843 h 0.536222 c 0.251177,0 0.364066,0.09596 0.364066,0.316088 v 0.234245 c 0,0.180622 -0.09313,0.268111 -0.301977,0.268111 h -0.598311 z m 0,-0.880533 h 0.454377 c 0.234245,0 0.341489,0.07902 0.341489,0.273755 v 0.197556 c 0,0.160866 -0.08749,0.259644 -0.285044,0.259644 h -0.510822 z" />
      <path
         id="path7769"
         style="font-style:normal;font-variant:normal;font-weight:normal;font-stretch:normal;font-size:2.82222px;font-family:Quarca;-inkscape-font-specification:Quarca;fill:#dddddd;fill-opacity:1;stroke-width:0.264583"
         d="m 44.320078,79.494599 h 0.632177 c 0.251178,0 0.381,-0.127 0.381,-0.378177 v -0.423333 c 0,-0.251178 -0.129822,-0.378178 -0.381,-0.378178 h -0.793044 v 2.003776 h 0.160867 z m 0,-1.027288 h 0.6096 c 0.163688,0 0.239888,0.0762 0.239888,0.256822 v 0.361244 c 0,0.180622 -0.0762,0.256822 -0.239888,0.256822 h -0.6096 z" />
      <path
         id="path7771"
         style="font-style:normal;font-variant:normal;font-weight:normal;font-stretch:normal;font-size:2.82222px;font-family:Quarca;-inkscape-font-specification:Quarca;fill:#dddddd;fill-opacity:1;stroke-width:0.264583"
         d="m 45.972929,78.314911 -0.618066,2.003776 h 0.172155 l 0.129822,-0.434621 h 0.807155 l 0.129822,0.434621 h 0.172156 l -0.615244,-2.003776 z m 0.09031,0.214489 0.3556,1.202266 h -0.716844 z" />
      <path
         id="path7773"
         style="font-style:normal;font-variant:normal;font-weight:normal;font-stretch:normal;font-size:2.82222px;font-family:Quarca;-inkscape-font-specification:Quarca;fill:#dddddd;fill-opacity:1;stroke-width:0.264583"
         d="m 47.862714,78.467311 v -0.1524 h -1.188155 v 0.1524 h 0.513644 v 1.851376 h 0.163689 v -1.851376 z" />
      <path
         id="path7775"
         style="font-style:normal;font-variant:normal;font-weight:normal;font-stretch:normal;font-size:2.82222px;font-family:Quarca;-inkscape-font-specification:Quarca;fill:#dddddd;fill-opacity:1;stroke-width:0.264583"
         d="m 49.113972,78.467311 v -0.1524 h -1.188155 v 0.1524 h 0.513644 v 1.851376 h 0.163689 v -1.851376 z" />
      <path
         id="path7777"
         style="font-style:normal;font-variant:normal;font-weight:normal;font-stretch:normal;font-size:2.82222px;font-family:Quarca;-inkscape-font-specification:Quarca;fill:#dddddd;fill-opacity:1;stroke-width:0.264583"
         d="m 49.495986,78.467311 h 0.905932 l 0.02258,-0.1524 h -1.089377 v 2.003776 h 1.072444 l 0.02258,-0.152399 h -0.934154 v -0.612422 h 0.759177 l 0.02258,-0.149578 h -0.781755 z" />
      <path
         id="path7779"
         style="font-style:normal;font-variant:normal;font-weight:normal;font-stretch:normal;font-size:2.82222px;font-family:Quarca;-inkscape-font-specification:Quarca;fill:#dddddd;fill-opacity:1;stroke-width:0.264583"
         d="m 50.691108,80.318687 h 0.160866 v -0.804332 h 0.369711 l 0.561622,0.804332 h 0.189089 l -0.564444,-0.804332 h 0.03951 c 0.26811,0 0.397933,-0.127 0.397933,-0.381 v -0.437444 c 0,-0.254 -0.129823,-0.381 -0.397933,-0.381 h -0.756355 z m 0.160866,-1.851376 h 0.567266 c 0.180622,0 0.262467,0.08467 0.262467,0.276578 v 0.341488 c 0,0.194733 -0.08185,0.2794 -0.262467,0.2794 h -0.567266 z" />
      <path
         id="path7781"
         style="font-style:normal;font-variant:normal;font-weight:normal;font-stretch:normal;font-size:2.82222px;font-family:Quarca;-inkscape-font-specification:Quarca;fill:#dddddd;fill-opacity:1;stroke-width:0.264583"
         d="m 52.351279,80.318687 v -1.724376 c 0.04233,0.09313 0.07902,0.186266 0.146755,0.301978 l 0.824089,1.422398 h 0.163688 v -2.003776 h -0.163688 v 1.721554 c -0.03104,-0.07338 -0.05927,-0.143933 -0.112889,-0.237066 l -0.857955,-1.484488 h -0.160867 v 2.003776 z" />
    </g>
    <g
       style="font-style:normal;font-variant:normal;font-weight:normal;font-stretch:normal;font-size:3.52778px;line-height:1.25;font-family:Quarca;-inkscape-font-specification:Quarca;text-align:center;letter-spacing:0px;word-spacing:0px;text-anchor:middle;fill:#dddddd;fill-opacity:1;stroke:none;stroke-width:0.264583"
       id="text299-0-0"
       aria-label="TAP COUNT">
      <path
         id="path7744"
         style="font-style:normal;font-variant:normal;font-weight:normal;font-stretch:normal;font-size:2.82222px;font-family:Quarca;-inkscape-font-specification:Quarca;fill:#dddddd;fill-opacity:1;stroke-width:0.264583"
         d="m 76.399357,78.211368 v -0.1524 h -1.188155 v 0.1524 h 0.513644 v 1.851376 h 0.163689 v -1.851376 z" />
      <path
         id="path7746"
         style="font-style:normal;font-variant:normal;font-weight:normal;font-stretch:normal;font-size:2.82222px;font-family:Quarca;-inkscape-font-specification:Quarca;fill:#dddddd;fill-opacity:1;stroke-width:0.264583"
         d="m 76.923893,78.058968 -0.618066,2.003776 h 0.172155 l 0.129822,-0.434622 h 0.807155 l 0.129822,0.434622 h 0.172156 l -0.615244,-2.003776 z m 0.09031,0.214489 0.3556,1.202265 H 76.65296 Z" />
      <path
         id="path7748"
         style="font-style:normal;font-variant:normal;font-weight:normal;font-stretch:normal;font-size:2.82222px;font-family:Quarca;-inkscape-font-specification:Quarca;fill:#dddddd;fill-opacity:1;stroke-width:0.264583"
         d="M 78.120823,79.238656 H 78.753 c 0.251178,0 0.381,-0.127 0.381,-0.378178 v -0.423333 c 0,-0.251177 -0.129822,-0.378177 -0.381,-0.378177 h -0.793044 v 2.003776 h 0.160867 z m 0,-1.027288 h 0.609599 c 0.163689,0 0.239889,0.0762 0.239889,0.256822 v 0.361244 c 0,0.180622 -0.0762,0.256822 -0.239889,0.256822 h -0.609599 z" />
      <path
         id="path7750"
         style="font-style:normal;font-variant:normal;font-weight:normal;font-stretch:normal;font-size:2.82222px;font-family:Quarca;-inkscape-font-specification:Quarca;fill:#dddddd;fill-opacity:1;stroke-width:0.264583"
         d="m 80.397252,79.910344 c -0.1778,0 -0.242711,-0.08467 -0.242711,-0.262466 v -1.174044 c 0,-0.1778 0.06491,-0.262466 0.242711,-0.262466 h 0.457199 c 0.1778,0 0.242711,0.08467 0.242711,0.262466 v 0.183445 h 0.160867 v -0.208845 c 0,-0.259644 -0.09878,-0.389466 -0.386644,-0.389466 h -0.491066 c -0.287867,0 -0.386645,0.129822 -0.386645,0.389466 v 1.224844 c 0,0.259644 0.09878,0.389466 0.386645,0.389466 h 0.491066 c 0.287866,0 0.386644,-0.129822 0.386644,-0.389466 v -0.214489 h -0.160867 v 0.189089 c 0,0.1778 -0.06491,0.262466 -0.242711,0.262466 z" />
      <path
         id="path7752"
         style="font-style:normal;font-variant:normal;font-weight:normal;font-stretch:normal;font-size:2.82222px;font-family:Quarca;-inkscape-font-specification:Quarca;fill:#dddddd;fill-opacity:1;stroke-width:0.264583"
         d="m 81.559125,79.673278 c 0,0.259644 0.09878,0.389466 0.386644,0.389466 h 0.536222 c 0.287866,0 0.386644,-0.129822 0.386644,-0.389466 v -1.224844 c 0,-0.259644 -0.09878,-0.389466 -0.386644,-0.389466 h -0.536222 c -0.287867,0 -0.386644,0.129822 -0.386644,0.389466 z m 0.403577,-1.46191 h 0.502355 c 0.180622,0 0.242711,0.08467 0.242711,0.262466 v 1.174044 c 0,0.1778 -0.06209,0.262466 -0.242711,0.262466 h -0.502355 c -0.1778,0 -0.242711,-0.08467 -0.242711,-0.262466 v -1.174044 c 0,-0.1778 0.06491,-0.262466 0.242711,-0.262466 z" />
      <path
         id="path7754"
         style="font-style:normal;font-variant:normal;font-weight:normal;font-stretch:normal;font-size:2.82222px;font-family:Quarca;-inkscape-font-specification:Quarca;fill:#dddddd;fill-opacity:1;stroke-width:0.264583"
         d="m 84.030949,79.910344 h -0.361245 c -0.194733,0 -0.279399,-0.09031 -0.279399,-0.296333 v -1.555043 h -0.160867 v 1.600199 c 0,0.268111 0.124178,0.403577 0.4064,0.403577 h 0.428977 c 0.282222,0 0.4064,-0.135466 0.4064,-0.403577 v -1.600199 h -0.163689 v 1.555043 c 0,0.206022 -0.08184,0.296333 -0.276577,0.296333 z" />
      <path
         id="path7756"
         style="font-style:normal;font-variant:normal;font-weight:normal;font-stretch:normal;font-size:2.82222px;font-family:Quarca;-inkscape-font-specification:Quarca;fill:#dddddd;fill-opacity:1;stroke-width:0.264583"
         d="m 85.005497,80.062744 v -1.724376 c 0.04233,0.09313 0.07902,0.186266 0.146755,0.301977 l 0.824088,1.422399 h 0.163689 V 78.058968 H 85.97634 v 1.721554 c -0.03104,-0.07338 -0.05927,-0.143933 -0.112888,-0.237066 L 85.005497,78.058968 H 84.84463 v 2.003776 z" />
      <path
         id="path7758"
         style="font-style:normal;font-variant:normal;font-weight:normal;font-stretch:normal;font-size:2.82222px;font-family:Quarca;-inkscape-font-specification:Quarca;fill:#dddddd;fill-opacity:1;stroke-width:0.264583"
         d="m 87.550433,78.211368 v -0.1524 h -1.188155 v 0.1524 h 0.513644 v 1.851376 h 0.163689 v -1.851376 z" />
    </g>
    <g
       style="font-style:normal;font-variant:normal;font-weight:normal;font-stretch:normal;font-size:3.52778px;line-height:1.25;font-family:Quarca;-inkscape-font-specification:Quarca;text-align:center;letter-spacing:0px;word-spacing:0px;text-anchor:middle;fill:#dddddd;fill-opacity:1;stroke:none;stroke-width:0.264583"
       id="text299-0-8"
       aria-label="DIVISION">
      <path
         id="path7727"
         style="font-style:normal;font-variant:normal;font-weight:normal;font-stretch:normal;font-size:2.82222px;font-family:Quarca;-inkscape-font-specification:Quarca;fill:#dddddd;fill-opacity:1;stroke-width:0.264583"
         d="m 47.028289,58.055984 h 0.784577 c 0.352777,0 0.49671,-0.155222 0.49671,-0.474132 v -1.055511 c 0,-0.318911 -0.143933,-0.474133 -0.49671,-0.474133 h -0.784577 z m 0.77611,-0.152399 h -0.615244 v -1.698977 h 0.615244 c 0.245533,0 0.344311,0.110067 0.344311,0.3556 v 0.987777 c 0,0.245533 -0.09878,0.3556 -0.344311,0.3556 z" />
      <path
         id="path7729"
         style="font-style:normal;font-variant:normal;font-weight:normal;font-stretch:normal;font-size:2.82222px;font-family:Quarca;-inkscape-font-specification:Quarca;fill:#dddddd;fill-opacity:1;stroke-width:0.264583"
         d="m 48.837288,58.055984 v -2.003776 h -0.160867 v 2.003776 z" />
      <path
         id="path7731"
         style="font-style:normal;font-variant:normal;font-weight:normal;font-stretch:normal;font-size:2.82222px;font-family:Quarca;-inkscape-font-specification:Quarca;fill:#dddddd;fill-opacity:1;stroke-width:0.264583"
         d="M 49.851611,58.055984 50.4217,56.052208 h -0.172156 l -0.468488,1.696155 c -0.0085,0.03951 -0.01693,0.08184 -0.01976,0.118533 -0.0056,-0.03669 -0.01129,-0.07902 -0.02258,-0.118533 l -0.468488,-1.696155 h -0.172156 l 0.572911,2.003776 z" />
      <path
         id="path7733"
         style="font-style:normal;font-variant:normal;font-weight:normal;font-stretch:normal;font-size:2.82222px;font-family:Quarca;-inkscape-font-specification:Quarca;fill:#dddddd;fill-opacity:1;stroke-width:0.264583"
         d="m 50.84371,58.055984 v -2.003776 h -0.160867 v 2.003776 z" />
      <path
         id="path7735"
         style="font-style:normal;font-variant:normal;font-weight:normal;font-stretch:normal;font-size:2.82222px;font-family:Quarca;-inkscape-font-specification:Quarca;fill:#dddddd;fill-opacity:1;stroke-width:0.264583"
         d="m 52.033011,57.22343 c 0.141111,0.05927 0.1778,0.107244 0.1778,0.245533 v 0.194733 c 0,0.169333 -0.07056,0.239889 -0.231422,0.239889 h -0.426156 c -0.160866,0 -0.234244,-0.07056 -0.234244,-0.239889 v -0.211667 h -0.160866 v 0.251178 c 0,0.234244 0.110066,0.352777 0.36971,0.352777 h 0.496711 c 0.234244,0 0.349955,-0.118533 0.349955,-0.352777 v -0.276578 c 0,-0.200377 -0.0762,-0.270933 -0.282222,-0.361244 l -0.578555,-0.245533 c -0.132644,-0.05644 -0.166511,-0.110066 -0.166511,-0.234244 V 56.46143 c 0,-0.191911 0.06209,-0.256822 0.242711,-0.256822 H 51.9427 c 0.160866,0 0.239888,0.07338 0.239888,0.248355 v 0.189089 h 0.163689 v -0.2286 c 0,-0.253999 -0.121355,-0.361244 -0.381,-0.361244 h -0.417688 c -0.248355,0 -0.361244,0.110067 -0.361244,0.361244 v 0.197556 c 0,0.2032 0.06773,0.276577 0.2794,0.369711 z" />
      <path
         id="path7737"
         style="font-style:normal;font-variant:normal;font-weight:normal;font-stretch:normal;font-size:2.82222px;font-family:Quarca;-inkscape-font-specification:Quarca;fill:#dddddd;fill-opacity:1;stroke-width:0.264583"
         d="m 52.855644,58.055984 v -2.003776 h -0.160867 v 2.003776 z" />
      <path
         id="path7739"
         style="font-style:normal;font-variant:normal;font-weight:normal;font-stretch:normal;font-size:2.82222px;font-family:Quarca;-inkscape-font-specification:Quarca;fill:#dddddd;fill-opacity:1;stroke-width:0.264583"
         d="m 53.223679,57.666518 c 0,0.259644 0.09878,0.389466 0.386644,0.389466 h 0.536222 c 0.287866,0 0.386644,-0.129822 0.386644,-0.389466 v -1.224843 c 0,-0.259645 -0.09878,-0.389467 -0.386644,-0.389467 h -0.536222 c -0.287866,0 -0.386644,0.129822 -0.386644,0.389467 z m 0.403577,-1.46191 h 0.502356 c 0.180622,0 0.242711,0.08467 0.242711,0.262467 v 1.174043 c 0,0.1778 -0.06209,0.262467 -0.242711,0.262467 h -0.502356 c -0.177799,0 -0.24271,-0.08467 -0.24271,-0.262467 v -1.174043 c 0,-0.1778 0.06491,-0.262467 0.24271,-0.262467 z" />
      <path
         id="path7741"
         style="font-style:normal;font-variant:normal;font-weight:normal;font-stretch:normal;font-size:2.82222px;font-family:Quarca;-inkscape-font-specification:Quarca;fill:#dddddd;fill-opacity:1;stroke-width:0.264583"
         d="m 55.060503,58.055984 v -1.724376 c 0.04233,0.09313 0.07902,0.186267 0.146756,0.301978 l 0.824088,1.422398 h 0.163689 v -2.003776 h -0.163689 v 1.721554 c -0.03104,-0.07338 -0.05927,-0.143933 -0.112889,-0.237066 l -0.857955,-1.484488 h -0.160866 v 2.003776 z" />
    </g>
    <g
       style="font-style:normal;font-variant:normal;font-weight:normal;font-stretch:normal;font-size:3.52778px;line-height:1.25;font-family:Quarca;-inkscape-font-specification:Quarca;text-align:center;letter-spacing:0px;word-spacing:0px;text-anchor:middle;fill:#dddddd;fill-opacity:1;stroke:none;stroke-width:0.264583"
       id="text299-0-8-9"
       aria-label="SIZE">
      <path
         id="path7718"
         style="font-style:normal;font-variant:normal;font-weight:normal;font-stretch:normal;font-size:2.82222px;font-family:Quarca;-inkscape-font-specification:Quarca;fill:#dddddd;fill-opacity:1;stroke-width:0.264583"
         d="m 79.942037,57.223456 c 0.141111,0.05927 0.1778,0.107245 0.1778,0.245533 v 0.194734 c 0,0.169333 -0.07055,0.239888 -0.231422,0.239888 H 79.46226 c -0.160867,0 -0.234244,-0.07055 -0.234244,-0.239888 v -0.211667 h -0.160867 v 0.251178 c 0,0.234244 0.110067,0.352777 0.369711,0.352777 h 0.496711 c 0.234244,0 0.349955,-0.118533 0.349955,-0.352777 v -0.276578 c 0,-0.200378 -0.0762,-0.270933 -0.282222,-0.361244 l -0.578555,-0.245533 c -0.132644,-0.05645 -0.166511,-0.110067 -0.166511,-0.234244 v -0.124178 c 0,-0.191911 0.06209,-0.256822 0.242711,-0.256822 h 0.352777 c 0.160867,0 0.239889,0.07338 0.239889,0.248355 v 0.189089 h 0.163689 v -0.2286 c 0,-0.254 -0.121356,-0.361244 -0.381,-0.361244 h -0.417688 c -0.248356,0 -0.361245,0.110067 -0.361245,0.361244 v 0.197556 c 0,0.203199 0.06773,0.276577 0.2794,0.36971 z" />
      <path
         id="path7720"
         style="font-style:normal;font-variant:normal;font-weight:normal;font-stretch:normal;font-size:2.82222px;font-family:Quarca;-inkscape-font-specification:Quarca;fill:#dddddd;fill-opacity:1;stroke-width:0.264583"
         d="m 80.764671,58.056011 v -2.003776 h -0.160867 v 2.003776 z" />
      <path
         id="path7722"
         style="font-style:normal;font-variant:normal;font-weight:normal;font-stretch:normal;font-size:2.82222px;font-family:Quarca;-inkscape-font-specification:Quarca;fill:#dddddd;fill-opacity:1;stroke-width:0.264583"
         d="m 82.159994,56.193346 -0.02258,-0.141111 H 81.01135 l 0.02258,0.1524 h 0.925688 l -0.951088,1.710265 0.02258,0.141111 h 1.140177 l 0.02258,-0.1524 h -0.987777 z" />
      <path
         id="path7724"
         style="font-style:normal;font-variant:normal;font-weight:normal;font-stretch:normal;font-size:2.82222px;font-family:Quarca;-inkscape-font-specification:Quarca;fill:#dddddd;fill-opacity:1;stroke-width:0.264583"
         d="m 82.58368,56.204635 h 0.905932 l 0.02258,-0.1524 h -1.089377 v 2.003776 h 1.072444 l 0.02258,-0.1524 H 82.58368 V 57.29119 h 0.759177 l 0.02258,-0.149578 H 82.58368 Z" />
    </g>
    <g
       style="font-style:normal;font-variant:normal;font-weight:normal;font-stretch:normal;font-size:3.52778px;line-height:1.25;font-family:Quarca;-inkscape-font-specification:Quarca;text-align:center;letter-spacing:0px;word-spacing:0px;text-anchor:middle;fill:#dddddd;fill-opacity:1;stroke:none;stroke-width:0.264583"
       id="text299-0-8-2"
       aria-label="CLOCK">
      <path
         id="path7707"
         style="font-style:normal;font-variant:normal;font-weight:normal;font-stretch:normal;font-size:2.82222px;font-family:Quarca;-inkscape-font-specification:Quarca;fill:#dddddd;fill-opacity:1;stroke-width:0.264583"
         d="m 38.127088,57.903489 c -0.1778,0 -0.242711,-0.08467 -0.242711,-0.262466 v -1.174044 c 0,-0.1778 0.06491,-0.262466 0.242711,-0.262466 h 0.457199 c 0.1778,0 0.242711,0.08467 0.242711,0.262466 v 0.183445 h 0.160867 v -0.208845 c 0,-0.259644 -0.09878,-0.389466 -0.386644,-0.389466 h -0.491067 c -0.287866,0 -0.386644,0.129822 -0.386644,0.389466 v 1.224844 c 0,0.259644 0.09878,0.389466 0.386644,0.389466 h 0.491067 c 0.287866,0 0.386644,-0.129822 0.386644,-0.389466 v -0.214489 h -0.160867 v 0.189089 c 0,0.1778 -0.06491,0.262466 -0.242711,0.262466 z" />
      <path
         id="path7709"
         style="font-style:normal;font-variant:normal;font-weight:normal;font-stretch:normal;font-size:2.82222px;font-family:Quarca;-inkscape-font-specification:Quarca;fill:#dddddd;fill-opacity:1;stroke-width:0.264583"
         d="m 39.461116,56.052113 h -0.160867 v 2.003776 h 1.027288 l 0.02258,-0.1524 h -0.888999 z" />
      <path
         id="path7711"
         style="font-style:normal;font-variant:normal;font-weight:normal;font-stretch:normal;font-size:2.82222px;font-family:Quarca;-inkscape-font-specification:Quarca;fill:#dddddd;fill-opacity:1;stroke-width:0.264583"
         d="m 40.556755,57.666423 c 0,0.259644 0.09878,0.389466 0.386644,0.389466 h 0.536221 c 0.287867,0 0.386645,-0.129822 0.386645,-0.389466 v -1.224844 c 0,-0.259644 -0.09878,-0.389466 -0.386645,-0.389466 h -0.536221 c -0.287867,0 -0.386644,0.129822 -0.386644,0.389466 z m 0.403577,-1.46191 h 0.502355 c 0.180622,0 0.242711,0.08467 0.242711,0.262466 v 1.174044 c 0,0.1778 -0.06209,0.262466 -0.242711,0.262466 h -0.502355 c -0.1778,0 -0.242711,-0.08467 -0.242711,-0.262466 v -1.174044 c 0,-0.1778 0.06491,-0.262466 0.242711,-0.262466 z" />
      <path
         id="path7713"
         style="font-style:normal;font-variant:normal;font-weight:normal;font-stretch:normal;font-size:2.82222px;font-family:Quarca;-inkscape-font-specification:Quarca;fill:#dddddd;fill-opacity:1;stroke-width:0.264583"
         d="m 42.625001,57.903489 c -0.1778,0 -0.242711,-0.08467 -0.242711,-0.262466 v -1.174044 c 0,-0.1778 0.06491,-0.262466 0.242711,-0.262466 h 0.4572 c 0.1778,0 0.242711,0.08467 0.242711,0.262466 v 0.183445 h 0.160866 v -0.208845 c 0,-0.259644 -0.09878,-0.389466 -0.386644,-0.389466 h -0.491066 c -0.287867,0 -0.386644,0.129822 -0.386644,0.389466 v 1.224844 c 0,0.259644 0.09878,0.389466 0.386644,0.389466 h 0.491066 c 0.287866,0 0.386644,-0.129822 0.386644,-0.389466 v -0.214489 h -0.160866 v 0.189089 c 0,0.1778 -0.06491,0.262466 -0.242711,0.262466 z" />
      <path
         id="path7715"
         style="font-style:normal;font-variant:normal;font-weight:normal;font-stretch:normal;font-size:2.82222px;font-family:Quarca;-inkscape-font-specification:Quarca;fill:#dddddd;fill-opacity:1;stroke-width:0.264583"
         d="m 43.959029,58.055889 v -0.959555 l 0.829733,0.959555 h 0.189089 l -0.866422,-1.001888 0.849488,-1.001888 h -0.1778 l -0.824088,0.959555 v -0.959555 h -0.160866 v 2.003776 z" />
    </g>
    <g
       style="font-style:normal;font-variant:normal;font-weight:normal;font-stretch:normal;font-size:3.52778px;line-height:1.25;font-family:Quarca;-inkscape-font-specification:Quarca;text-align:center;letter-spacing:0px;word-spacing:0px;text-anchor:middle;fill:#dddddd;fill-opacity:1;stroke:none;stroke-width:0.264583"
       id="text299-0-8-2-0"
       aria-label="V/OCT">
      <path
         id="path7696"
         style="font-style:normal;font-variant:normal;font-weight:normal;font-stretch:normal;font-size:2.82222px;font-family:Quarca;-inkscape-font-specification:Quarca;fill:#dddddd;fill-opacity:1;stroke-width:0.264583"
         d="m 38.82195,69.141899 0.570088,-2.003776 h -0.172155 l -0.468489,1.696154 c -0.0085,0.03951 -0.01693,0.08185 -0.01975,0.118533 -0.0056,-0.03669 -0.01129,-0.07902 -0.02258,-0.118533 l -0.468488,-1.696154 h -0.172156 l 0.572911,2.003776 z" />
      <path
         id="path7698"
         style="font-style:normal;font-variant:normal;font-weight:normal;font-stretch:normal;font-size:2.82222px;font-family:Quarca;-inkscape-font-specification:Quarca;fill:#dddddd;fill-opacity:1;stroke-width:0.264583"
         d="m 40.143366,67.04499 -0.824088,2.190042 h 0.166511 l 0.821266,-2.190042 z" />
      <path
         id="path7700"
         style="font-style:normal;font-variant:normal;font-weight:normal;font-stretch:normal;font-size:2.82222px;font-family:Quarca;-inkscape-font-specification:Quarca;fill:#dddddd;fill-opacity:1;stroke-width:0.264583"
         d="m 40.529349,68.752433 c 0,0.259644 0.09878,0.389466 0.386644,0.389466 h 0.536222 c 0.287866,0 0.386644,-0.129822 0.386644,-0.389466 v -1.224844 c 0,-0.259644 -0.09878,-0.389466 -0.386644,-0.389466 h -0.536222 c -0.287866,0 -0.386644,0.129822 -0.386644,0.389466 z m 0.403577,-1.46191 h 0.502355 c 0.180623,0 0.242711,0.08467 0.242711,0.262466 v 1.174044 c 0,0.1778 -0.06209,0.262466 -0.242711,0.262466 h -0.502355 c -0.1778,0 -0.242711,-0.08467 -0.242711,-0.262466 v -1.174044 c 0,-0.1778 0.06491,-0.262466 0.242711,-0.262466 z" />
      <path
         id="path7702"
         style="font-style:normal;font-variant:normal;font-weight:normal;font-stretch:normal;font-size:2.82222px;font-family:Quarca;-inkscape-font-specification:Quarca;fill:#dddddd;fill-opacity:1;stroke-width:0.264583"
         d="m 42.597595,68.989499 c -0.1778,0 -0.242711,-0.08467 -0.242711,-0.262466 v -1.174044 c 0,-0.1778 0.06491,-0.262466 0.242711,-0.262466 h 0.4572 c 0.1778,0 0.242711,0.08467 0.242711,0.262466 v 0.183445 h 0.160866 v -0.208845 c 0,-0.259644 -0.09878,-0.389466 -0.386644,-0.389466 h -0.491066 c -0.287866,0 -0.386644,0.129822 -0.386644,0.389466 v 1.224844 c 0,0.259644 0.09878,0.389466 0.386644,0.389466 h 0.491066 c 0.287867,0 0.386644,-0.129822 0.386644,-0.389466 v -0.214489 h -0.160866 v 0.189089 c 0,0.1778 -0.06491,0.262466 -0.242711,0.262466 z" />
      <path
         id="path7704"
         style="font-style:normal;font-variant:normal;font-weight:normal;font-stretch:normal;font-size:2.82222px;font-family:Quarca;-inkscape-font-specification:Quarca;fill:#dddddd;fill-opacity:1;stroke-width:0.264583"
         d="m 44.800867,67.290523 v -0.1524 h -1.188154 v 0.1524 h 0.513644 v 1.851376 h 0.163688 v -1.851376 z" />
    </g>
    <g
       style="font-style:normal;font-variant:normal;font-weight:normal;font-stretch:normal;font-size:3.52778px;line-height:1.25;font-family:Quarca;-inkscape-font-specification:Quarca;text-align:center;letter-spacing:0px;word-spacing:0px;text-anchor:middle;fill:#dddddd;fill-opacity:1;stroke:none;stroke-width:0.264583"
       id="text299-0-8-2-0-5"
       aria-label="SIZE OUT">
      <path
         id="path7681"
         style="font-style:normal;font-variant:normal;font-weight:normal;font-stretch:normal;font-size:2.82222px;font-family:Quarca;-inkscape-font-specification:Quarca;fill:#dddddd;fill-opacity:1;stroke-width:0.264583"
         d="m 60.078994,73.512393 c 0.141111,0.05927 0.1778,0.107244 0.1778,0.245533 v 0.194733 c 0,0.169333 -0.07056,0.239889 -0.231422,0.239889 h -0.426156 c -0.160866,0 -0.234244,-0.07056 -0.234244,-0.239889 v -0.211666 h -0.160866 v 0.251177 c 0,0.234245 0.110066,0.352778 0.36971,0.352778 h 0.496711 c 0.234244,0 0.349955,-0.118533 0.349955,-0.352778 v -0.276577 c 0,-0.200378 -0.0762,-0.270933 -0.282222,-0.361244 l -0.578555,-0.245534 c -0.132644,-0.05644 -0.166511,-0.110066 -0.166511,-0.234244 v -0.124178 c 0,-0.191911 0.06209,-0.256822 0.242711,-0.256822 h 0.352778 c 0.160866,0 0.239888,0.07338 0.239888,0.248356 v 0.189089 h 0.163689 v -0.2286 c 0,-0.254 -0.121355,-0.361244 -0.381,-0.361244 h -0.417688 c -0.248355,0 -0.361244,0.110066 -0.361244,0.361244 v 0.197555 c 0,0.2032 0.06773,0.276578 0.2794,0.369711 z" />
      <path
         id="path7683"
         style="font-style:normal;font-variant:normal;font-weight:normal;font-stretch:normal;font-size:2.82222px;font-family:Quarca;-inkscape-font-specification:Quarca;fill:#dddddd;fill-opacity:1;stroke-width:0.264583"
         d="M 60.901627,74.344948 V 72.341172 H 60.74076 v 2.003776 z" />
      <path
         id="path7685"
         style="font-style:normal;font-variant:normal;font-weight:normal;font-stretch:normal;font-size:2.82222px;font-family:Quarca;-inkscape-font-specification:Quarca;fill:#dddddd;fill-opacity:1;stroke-width:0.264583"
         d="m 62.29695,72.482283 -0.02258,-0.141111 h -1.126065 l 0.02258,0.152399 h 0.925688 l -0.951088,1.710266 0.02258,0.141111 h 1.140177 l 0.02258,-0.1524 H 61.34304 Z" />
      <path
         id="path7687"
         style="font-style:normal;font-variant:normal;font-weight:normal;font-stretch:normal;font-size:2.82222px;font-family:Quarca;-inkscape-font-specification:Quarca;fill:#dddddd;fill-opacity:1;stroke-width:0.264583"
         d="m 62.720636,72.493571 h 0.905933 l 0.02258,-0.152399 H 62.55977 v 2.003776 h 1.072443 l 0.02258,-0.1524 h -0.934155 v -0.612422 h 0.759177 l 0.02258,-0.149577 h -0.781755 z" />
      <path
         id="path7689"
         style="font-style:normal;font-variant:normal;font-weight:normal;font-stretch:normal;font-size:2.82222px;font-family:Quarca;-inkscape-font-specification:Quarca;fill:#dddddd;fill-opacity:1;stroke-width:0.264583"
         d="m 64.477732,73.955481 c 0,0.259645 0.09878,0.389467 0.386644,0.389467 h 0.536222 c 0.287867,0 0.386644,-0.129822 0.386644,-0.389467 v -1.224843 c 0,-0.259644 -0.09878,-0.389466 -0.386644,-0.389466 h -0.536222 c -0.287866,0 -0.386644,0.129822 -0.386644,0.389466 z m 0.403578,-1.46191 h 0.502355 c 0.180622,0 0.242711,0.08467 0.242711,0.262467 v 1.174043 c 0,0.1778 -0.06209,0.262467 -0.242711,0.262467 H 64.88131 c -0.1778,0 -0.242711,-0.08467 -0.242711,-0.262467 v -1.174043 c 0,-0.1778 0.06491,-0.262467 0.242711,-0.262467 z" />
      <path
         id="path7691"
         style="font-style:normal;font-variant:normal;font-weight:normal;font-stretch:normal;font-size:2.82222px;font-family:Quarca;-inkscape-font-specification:Quarca;fill:#dddddd;fill-opacity:1;stroke-width:0.264583"
         d="m 66.949556,74.192548 h -0.361244 c -0.194733,0 -0.2794,-0.09031 -0.2794,-0.296333 v -1.555043 h -0.160866 v 1.600198 c 0,0.268111 0.124177,0.403578 0.406399,0.403578 h 0.428978 c 0.282222,0 0.4064,-0.135467 0.4064,-0.403578 v -1.600198 h -0.163689 v 1.555043 c 0,0.206022 -0.08185,0.296333 -0.276578,0.296333 z" />
      <path
         id="path7693"
         style="font-style:normal;font-variant:normal;font-weight:normal;font-stretch:normal;font-size:2.82222px;font-family:Quarca;-inkscape-font-specification:Quarca;fill:#dddddd;fill-opacity:1;stroke-width:0.264583"
         d="m 68.793348,72.493571 v -0.152399 h -1.188155 v 0.152399 h 0.513644 v 1.851377 h 0.163689 v -1.851377 z" />
    </g>
    <path
       d="m 57.371311,58.987965 h 17.197916 v 9.392708 H 57.371311 Z"
       style="opacity:0.981;fill:#b1b1b1;fill-opacity:1;stroke:none;stroke-width:1.11632;stroke-miterlimit:4;stroke-dasharray:none;stroke-opacity:1"
       id="rect1673-4" />
    <path
       d="m 57.951801,59.532349 h 16.089627 v 8.325446 H 57.951801 Z"
       style="opacity:0.981;fill:#323232;fill-opacity:1;stroke:none;stroke-width:1.01656;stroke-miterlimit:4;stroke-dasharray:none;stroke-opacity:1"
       id="rect1673" />
    <path
       d="m 50.889019,81.609848 h 21.695833 v 7.408333 H 50.889019 Z"
       style="opacity:0.981;fill:#b1b1b1;fill-opacity:1;stroke:none;stroke-width:0.640511;stroke-miterlimit:4;stroke-dasharray:none;stroke-opacity:1"
       id="rect1673-6-2" />
    <path
       d="m 51.406525,82.134377 h 20.6375 v 6.361 h -20.6375 z"
       style="opacity:0.981;fill:#323232;fill-opacity:1;stroke:none;stroke-width:0.578855;stroke-miterlimit:4;stroke-dasharray:none;stroke-opacity:1"
       id="rect1673-6" />
    <path
       d="m 49.169228,92.193169 h 27.516666 v 7.408333 H 49.169228 Z"
       style="opacity:0.981;fill:#b1b1b1;fill-opacity:1;stroke:none;stroke-width:0.721334;stroke-miterlimit:4;stroke-dasharray:none;stroke-opacity:1"
       id="rect1673-6-4-6" />
    <path
       d="m 49.698395,92.789886 h 26.458334 v 6.361001 H 49.698395 Z"
       style="opacity:0.981;fill:#323232;fill-opacity:1;stroke:none;stroke-width:0.655424;stroke-miterlimit:4;stroke-dasharray:none;stroke-opacity:1"
       id="rect1673-6-4" />
    <path
       d="m 50.227562,126.32442 h 21.166666 v 7.40833 H 50.227562 Z"
       style="opacity:0.981;fill:#b1b1b1;fill-opacity:1;stroke:none;stroke-width:0.632652;stroke-miterlimit:4;stroke-dasharray:none;stroke-opacity:1"
       id="rect1673-6-0-5" />
    <path
       d="m 50.808582,126.84595 h 20.108334 v 6.361 H 50.808582 Z"
       style="opacity:0.981;fill:#323232;fill-opacity:1;stroke:none;stroke-width:0.571385;stroke-miterlimit:4;stroke-dasharray:none;stroke-opacity:1"
       id="rect1673-6-0" />
  </g>
</svg>
