<?xml version="1.0" encoding="UTF-8" standalone="no"?>
<!-- Created with Inkscape (http://www.inkscape.org/) -->

<svg
   xmlns:dc="http://purl.org/dc/elements/1.1/"
   xmlns:cc="http://creativecommons.org/ns#"
   xmlns:rdf="http://www.w3.org/1999/02/22-rdf-syntax-ns#"
   xmlns:svg="http://www.w3.org/2000/svg"
   xmlns="http://www.w3.org/2000/svg"
   xmlns:xlink="http://www.w3.org/1999/xlink"
   xmlns:sodipodi="http://sodipodi.sourceforge.net/DTD/sodipodi-0.dtd"
   xmlns:inkscape="http://www.inkscape.org/namespaces/inkscape"
   width="180"
   height="380"
   viewBox="0 0 47.625001 100.54167"
   version="1.1"
   id="svg11003"
   inkscape:version="0.92.2 (5c3e80d, 2017-08-06)"
   sodipodi:docname="HyperMeasures.svg">
  <defs
     id="defs10997">
    <linearGradient
       inkscape:collect="always"
       id="linearGradient3391">
      <stop
         style="stop-color:#000002;stop-opacity:1;"
         offset="0"
         id="stop3387" />
      <stop
         style="stop-color:#000005;stop-opacity:1;"
         offset=".3"
         id="stop3388" />
      <stop
         style="stop-color:#08008f;stop-opacity:1;"
         offset="1"
         id="stop3389" />
    </linearGradient>
    <linearGradient
       inkscape:collect="always"
       xlink:href="#linearGradient3391"
       id="linearGradient3393"
       x1="35.219627"
       y1="150.85843"
       x2="35.219627"
       y2="50.462322"
       gradientUnits="userSpaceOnUse"
       gradientTransform="matrix(1.2025944,0,0,1,-7.1352991,0)" />
  </defs>
  <sodipodi:namedview
     id="base"
     pagecolor="#ffffff"
     bordercolor="#666666"
     borderopacity="1.0"
     inkscape:pageopacity="0.0"
     inkscape:pageshadow="2"
     inkscape:zoom="4.8368421"
     inkscape:cx="-130.80623"
     inkscape:cy="190"
     inkscape:document-units="mm"
     inkscape:current-layer="layer1"
     showgrid="false"
     fit-margin-top="0"
     fit-margin-left="0"
     fit-margin-right="0"
     fit-margin-bottom="0"
     inkscape:window-width="3840"
     inkscape:window-height="2115"
     inkscape:window-x="-13"
     inkscape:window-y="-13"
     inkscape:window-maximized="1"
     units="px" />
  <metadata
     id="metadata11000">
    <rdf:RDF>
      <cc:Work
         rdf:about="">
        <dc:format>image/svg+xml</dc:format>
        <dc:type
           rdf:resource="http://purl.org/dc/dcmitype/StillImage" />
        <dc:title></dc:title>
      </cc:Work>
    </rdf:RDF>
  </metadata>
  <g
     inkscape:label="Layer 1"
     inkscape:groupmode="layer"
     id="layer1"
     transform="translate(-35.146312,-50.389004)">
    <path
       inkscape:connector-curvature="0"
       id="path33493"
       d="m 35.219628,50.462323 h 47.625 V 150.85843 h -47.625 z m 0,0"
       style="fill:url(#linearGradient3393);fill-opacity:1;fill-rule:nonzero;stroke:none;stroke-width:0.30269557"
       inkscape:export-filename="/home/vortico/pics/tmp/LFOs.png"
       inkscape:export-xdpi="150.22649"
       inkscape:export-ydpi="150.22649" />
    <g
       style="font-style:normal;font-weight:normal;font-size:3.52777767px;line-height:1.25;font-family:sans-serif;letter-spacing:0px;word-spacing:0px;fill:#ffffff;fill-opacity:1;stroke:none;stroke-width:0.26458332"
       id="text5097" />
    <path
       style="fill:#999999;fill-opacity:1;stroke-width:0.2581985"
       d="M 45.134549,76.34876 H 70.732987 V 88.122718 H 45.134549 Z"
       id="rect6948"
       inkscape:connector-curvature="0" />
    <path
       style="fill:#323232;fill-opacity:1;stroke-width:0.23209724"
       d="m 46.060586,77.274801 h 23.746353 v 9.988021 H 46.060586 Z"
       id="rect4735"
       inkscape:connector-curvature="0" />
    <g
       transform="matrix(0.26458333,0,0,0.26458333,34.617145,50.389004)"
       style="font-style:normal;font-variant:normal;font-weight:bold;font-stretch:normal;font-size:13.33333302px;line-height:1.25;font-family:Consolas;-inkscape-font-specification:'Consolas Bold';text-align:center;letter-spacing:0px;word-spacing:0px;text-anchor:middle;fill:#ffffff;fill-opacity:1;stroke:none"
       id="flowRoot1527" />
    <g
       aria-label="FROZEN WASTELAND"
       style="font-style:normal;font-variant:normal;font-weight:bold;font-stretch:normal;font-size:3.52777767px;line-height:1.25;font-family:Consolas;-inkscape-font-specification:'Consolas Bold';text-align:start;letter-spacing:0px;word-spacing:0px;text-anchor:start;fill:#00a3f2;fill-opacity:1;stroke:none;stroke-width:0.26458332"
       id="text3885-7"
       transform="translate(4.2333335)">
      <path
         d="m 40.44558,150.10076 q 0.119945,-0.11995 0.1905,-0.21167 0.07408,-0.0917 0.112889,-0.16933 0.04233,-0.0776 0.05292,-0.14464 0.01411,-0.0706 0.01411,-0.14817 0,-0.0952 -0.04586,-0.2293 -0.04586,-0.13406 -0.102306,-0.28575 -0.05644,-0.1517 -0.102305,-0.31045 -0.04586,-0.15875 -0.04586,-0.30339 0,-0.0776 0.0247,-0.15169 0.02822,-0.0741 0.06703,-0.14111 0.04233,-0.0706 0.09172,-0.13053 0.04939,-0.0635 0.09878,-0.11289 -0.07056,-0.0141 -0.123473,-0.0212 -0.05292,-0.0106 -0.07761,-0.0106 -0.130527,0 -0.22225,0.0706 -0.08819,0.067 -0.1905,0.16933 0,-0.11994 0.03528,-0.24694 0.03881,-0.13053 0.116417,-0.23637 0.07761,-0.10583 0.194028,-0.17286 0.119944,-0.067 0.282222,-0.067 0.112889,0 0.208139,0.0176 0.09878,0.0141 0.179916,0.0353 0.08114,0.0212 0.148167,0.0388 0.06703,0.0141 0.119944,0.0141 0.08114,0 0.141111,-0.0212 0.0635,-0.0247 0.123473,-0.0847 0,0.0776 -0.03175,0.17638 -0.02822,0.0988 -0.08819,0.1905 -0.05644,0.0882 -0.148166,0.1517 -0.09172,0.06 -0.211667,0.06 -0.05997,0 -0.137583,-0.007 -0.07408,-0.0106 -0.155223,-0.0247 -0.0071,0.0247 -0.01058,0.0459 -0.0035,0.0212 -0.0071,0.0388 -0.0035,0.0212 -0.0035,0.0388 0,0.0776 0.01058,0.1517 0.01411,0.0705 0.03881,0.14464 h 0.712611 l -0.08114,0.23989 q -0.01058,0.0459 -0.01411,0.067 -0.0035,0.0212 -0.01058,0.067 l -0.130527,-0.0917 h -0.363361 q 0.07761,0.17639 0.144638,0.35983 0.06703,0.17992 0.06703,0.38453 0,0.18344 -0.07408,0.34219 -0.07408,0.15523 -0.197556,0.27164 -0.119944,0.11642 -0.278694,0.17992 -0.155222,0.067 -0.321028,0.067 z"
         style="font-style:normal;font-variant:normal;font-weight:normal;font-stretch:normal;font-family:'Bradley Gratis';-inkscape-font-specification:'Bradley Gratis';text-align:start;text-anchor:start;fill:#00a3f2;fill-opacity:1;stroke-width:0.26458332"
         id="path9054"
         inkscape:connector-curvature="0" />
      <path
         d="m 42.515669,148.37215 q 0.07056,-0.0423 0.137583,-0.0988 0.07056,-0.0565 0.123473,-0.127 0.05644,-0.0706 0.08819,-0.16228 0.03528,-0.0953 0.03528,-0.21167 0,-0.0988 -0.03881,-0.1658 -0.03528,-0.0706 -0.08467,-0.11289 -0.04939,-0.0423 -0.09878,-0.06 -0.04586,-0.0176 -0.07056,-0.0176 -0.02822,0 -0.05292,0.0106 -0.02117,0.0106 -0.03881,0.0247 z m -0.518583,-0.94192 q -0.112889,-0.0635 -0.112889,-0.23636 0.03175,0.0317 0.112889,0.0564 0.08114,0.0212 0.172861,0.0212 0.04586,0 0.130528,-0.0106 0.08467,-0.0141 0.172861,-0.0282 0.09172,-0.0141 0.172861,-0.0247 0.08467,-0.0141 0.130528,-0.0141 0.116416,0 0.232833,0.0353 0.116417,0.0353 0.215194,0.11994 0.09878,0.0847 0.165806,0.22931 0.07055,0.14111 0.09172,0.35983 l -0.627944,0.4445 q 0.07055,0.0282 0.15875,0.0952 0.08819,0.067 0.165805,0.18697 0.08114,0.11995 0.134056,0.30692 0.05292,0.18344 0.05292,0.45155 0,0.23284 0.02117,0.37748 0.02117,0.14464 0.05292,0.23283 0.03175,0.0882 0.06703,0.13053 0.03881,0.0459 0.07056,0.0776 -0.155222,0 -0.275167,-0.0917 -0.119944,-0.0882 -0.211666,-0.23284 -0.09172,-0.14464 -0.162278,-0.32808 -0.06703,-0.18344 -0.123472,-0.37042 -0.05644,-0.18697 -0.105834,-0.35983 -0.04586,-0.17286 -0.09525,-0.29986 -0.02469,0.0176 -0.04939,0.0353 -0.02117,0.0141 -0.03881,0.0317 v 1.31939 h -0.518583 z"
         style="font-style:normal;font-variant:normal;font-weight:normal;font-stretch:normal;font-family:'Bradley Gratis';-inkscape-font-specification:'Bradley Gratis';text-align:start;text-anchor:start;fill:#00a3f2;fill-opacity:1;stroke-width:0.26458332"
         id="path9056"
         inkscape:connector-curvature="0" />
      <path
         d="m 44.403416,149.47987 q 0,0.11994 0.01411,0.18697 0.01764,0.067 0.04233,0.10231 0.02822,0.0318 0.0635,0.0388 0.03528,0.007 0.07056,0.007 0.07055,0 0.116417,-0.0952 0.04586,-0.0988 0.04586,-0.29986 v -1.53106 q 0,-0.15875 -0.01764,-0.25753 -0.01411,-0.1023 -0.04233,-0.15522 -0.02469,-0.0564 -0.05997,-0.0776 -0.03175,-0.0212 -0.0635,-0.0212 -0.06703,0 -0.119944,0.0847 -0.04939,0.0811 -0.04939,0.26106 z m 1.005417,-0.88547 q 0,0.25752 -0.06703,0.508 -0.0635,0.25047 -0.176389,0.44802 -0.109361,0.19756 -0.261056,0.32103 -0.151694,0.11995 -0.321027,0.11995 -0.15875,0 -0.310445,-0.10936 -0.148167,-0.10937 -0.264583,-0.29987 -0.112889,-0.1905 -0.183445,-0.4445 -0.07055,-0.254 -0.07055,-0.54327 0,-0.23636 0.0635,-0.48331 0.06703,-0.25047 0.179916,-0.45155 0.112889,-0.20109 0.264584,-0.32809 0.151694,-0.13053 0.321028,-0.13053 0.148166,0 0.292805,0.10937 0.148167,0.10936 0.264583,0.29986 0.119945,0.18697 0.194028,0.44097 0.07408,0.254 0.07408,0.54328 z"
         style="font-style:normal;font-variant:normal;font-weight:normal;font-stretch:normal;font-family:'Bradley Gratis';-inkscape-font-specification:'Bradley Gratis';text-align:start;text-anchor:start;fill:#00a3f2;fill-opacity:1;stroke-width:0.26458332"
         id="path9058"
         inkscape:connector-curvature="0" />
      <path
         d="m 45.562897,149.95259 q 0.04586,-0.27164 0.130528,-0.51153 0.08819,-0.23989 0.194028,-0.45861 0.105833,-0.21872 0.218722,-0.41628 0.116417,-0.20108 0.218722,-0.38805 0.102306,-0.18697 0.179917,-0.36336 0.07761,-0.17992 0.112889,-0.35984 -0.02822,-0.0176 -0.06703,-0.0317 -0.03528,-0.0141 -0.137583,-0.0141 -0.05292,0 -0.09525,0.0282 -0.03881,0.0247 -0.06703,0.0635 -0.02822,0.0353 -0.04586,0.0776 -0.01411,0.0388 -0.01411,0.0635 0,0.0282 0.01058,0.067 0.01411,0.0353 0.02822,0.0706 0.01764,0.0353 0.03528,0.067 0.01764,0.0282 0.03175,0.0423 l -0.430389,0.26811 q -0.08467,-0.0811 -0.144639,-0.19755 -0.05644,-0.11995 -0.05644,-0.23989 0,-0.06 0.03175,-0.14817 0.03175,-0.0882 0.102305,-0.16933 0.07056,-0.0847 0.183445,-0.14111 0.116416,-0.06 0.282222,-0.06 0.130528,0 0.218722,0.0176 0.08819,0.0176 0.155222,0.0423 0.06703,0.0212 0.123473,0.0388 0.05997,0.0176 0.134055,0.0176 0.04586,0 0.09878,-0.007 0.05292,-0.007 0.09878,-0.0212 0.04586,-0.0141 0.08114,-0.0282 0.03881,-0.0176 0.05997,-0.0388 -0.04233,0.22225 -0.134056,0.46214 -0.09172,0.23989 -0.204611,0.47978 -0.109361,0.23989 -0.232833,0.46919 -0.119945,0.22931 -0.22225,0.43039 -0.09878,0.19756 -0.169333,0.35983 -0.06703,0.15875 -0.07408,0.26106 0.141111,0.06 0.239889,0.06 0.0635,0 0.130528,-0.0141 0.06703,-0.0176 0.119944,-0.0529 0.05645,-0.0353 0.09172,-0.0882 0.03528,-0.0564 0.03528,-0.13406 0,-0.0776 -0.01764,-0.127 -0.01411,-0.0529 -0.0388,-0.0847 -0.0247,-0.0353 -0.05645,-0.06 -0.03175,-0.0282 -0.05997,-0.0564 l 0.405695,-0.29986 q 0.141111,0.10583 0.201083,0.22578 0.05997,0.11994 0.05997,0.26105 0,0.067 -0.02117,0.13053 -0.01764,0.06 -0.04586,0.11289 -0.02469,0.0494 -0.05997,0.0917 -0.03175,0.0423 -0.05644,0.067 l 0.05997,0.06 q 0.01764,0.0176 0.0388,0.0529 0.02117,0.0318 0.02117,0.0564 0,0.0282 -0.02469,0.0811 -0.02117,0.0564 -0.08819,0.0988 -0.02469,-0.0318 -0.05644,-0.0564 -0.02822,-0.0212 -0.05997,-0.0388 -0.03175,-0.0176 -0.06703,-0.0176 z"
         style="font-style:normal;font-variant:normal;font-weight:normal;font-stretch:normal;font-family:'Bradley Gratis';-inkscape-font-specification:'Bradley Gratis';text-align:start;text-anchor:start;fill:#00a3f2;fill-opacity:1;stroke-width:0.26458332"
         id="path9060"
         inkscape:connector-curvature="0" />
      <path
         d="m 49.069233,147.22562 v 0.381 q -0.03881,-0.0353 -0.102306,-0.0776 -0.05997,-0.0423 -0.130528,-0.0741 -0.06703,-0.0353 -0.134055,-0.0564 -0.06703,-0.0247 -0.112889,-0.0247 -0.08467,0 -0.172861,0.067 -0.0882,0.067 -0.144639,0.17992 -0.05644,0.10936 -0.07408,0.28928 -0.01411,0.17639 -0.01411,0.45508 h 0.903112 l -0.179917,0.40217 q -0.03528,-0.0529 -0.08467,-0.0706 -0.04586,-0.0212 -0.08467,-0.0212 h -0.55386 q 0,0.20108 0.0071,0.39511 0.0071,0.1905 0.04586,0.34219 0.04233,0.1517 0.127,0.24695 0.08467,0.0917 0.243417,0.0917 0.08467,0 0.165805,-0.0317 0.08467,-0.0318 0.155223,-0.0776 0.07055,-0.0494 0.123472,-0.10231 0.05644,-0.0529 0.08819,-0.0952 v 0.508 h -0.47625 q -0.342194,0 -0.553861,-0.11994 -0.211667,-0.12348 -0.331611,-0.32809 -0.116417,-0.20814 -0.15875,-0.47977 -0.03881,-0.27164 -0.03881,-0.56798 0,-0.0741 0.01058,-0.19402 0.01058,-0.12348 0.04586,-0.25753 0.03528,-0.13759 0.102305,-0.27517 0.06703,-0.14111 0.179917,-0.25047 0.116417,-0.11289 0.28575,-0.18345 0.169333,-0.0705 0.409222,-0.0705 z"
         style="font-style:normal;font-variant:normal;font-weight:normal;font-stretch:normal;font-family:'Bradley Gratis';-inkscape-font-specification:'Bradley Gratis';text-align:start;text-anchor:start;fill:#00a3f2;fill-opacity:1;stroke-width:0.26458332"
         id="path9062"
         inkscape:connector-curvature="0" />
      <path
         d="m 49.455635,149.95259 v -2.43769 q 0,-0.0988 -0.04233,-0.16581 -0.04233,-0.0705 -0.08467,-0.12347 h 0.684389 v 0.35983 l 0.391583,-0.45508 q 0.179917,0.16228 0.296333,0.32455 0.116417,0.15875 0.183445,0.32103 0.06703,0.15875 0.09172,0.32456 0.02469,0.16228 0.02469,0.33514 0,0.16933 -0.02822,0.32455 -0.02469,0.1517 -0.07408,0.29986 -0.04939,0.14817 -0.119945,0.29986 -0.06703,0.1517 -0.148166,0.3175 h 0.127 q 0.04586,0 0.09525,-0.0318 0.04939,-0.0317 0.09878,-0.0317 v 0.33867 h -0.684388 q 0.09525,-0.19403 0.151694,-0.34925 0.05997,-0.15522 0.09172,-0.29633 0.03175,-0.14111 0.04233,-0.27517 0.01058,-0.13405 0.01058,-0.28575 0,-0.15169 -0.05292,-0.31397 -0.04939,-0.16581 -0.123472,-0.30339 -0.07408,-0.13758 -0.15875,-0.22578 -0.08114,-0.0882 -0.148167,-0.0882 -0.04233,0 -0.06703,0.0212 v 2.11667 z"
         style="font-style:normal;font-variant:normal;font-weight:normal;font-stretch:normal;font-family:'Bradley Gratis';-inkscape-font-specification:'Bradley Gratis';text-align:start;text-anchor:start;fill:#00a3f2;fill-opacity:1;stroke-width:0.26458332"
         id="path9064"
         inkscape:connector-curvature="0" />
      <path
         d="m 52.693804,150.06901 q -0.1905,-0.13759 -0.324556,-0.29281 -0.134055,-0.15875 -0.215194,-0.32808 -0.08114,-0.16933 -0.119945,-0.3422 -0.03528,-0.17638 -0.03528,-0.34572 0,-0.1658 0.03528,-0.32808 0.03528,-0.16581 0.09172,-0.32456 0.05997,-0.16227 0.137583,-0.31397 0.07761,-0.15522 0.15875,-0.30339 h -0.02117 q -0.01058,0 -0.02469,0 -0.01058,-0.004 -0.02822,-0.004 -0.05644,0 -0.137584,0.0141 -0.07761,0.0141 -0.151694,0.0705 v -0.34572 h 0.740833 q -0.09172,0.15875 -0.15875,0.32103 -0.0635,0.15875 -0.105833,0.31044 -0.03881,0.14817 -0.05997,0.28222 -0.01764,0.13053 -0.01764,0.23636 0,0.10584 0.02117,0.254 0.02117,0.14817 0.07761,0.30692 0.05997,0.15522 0.15875,0.29633 0.102306,0.14112 0.264584,0.22931 l 0.105833,-0.0776 q -0.0635,-0.11995 -0.09878,-0.22931 -0.03528,-0.11289 -0.05292,-0.21166 -0.01411,-0.0988 -0.01764,-0.17992 -0.0035,-0.0847 -0.0035,-0.15169 0,-0.10937 0.02822,-0.24695 0.02822,-0.13758 0.08114,-0.28575 0.05292,-0.14817 0.127,-0.29986 0.07761,-0.15169 0.172861,-0.29633 -0.134055,0 -0.22225,0.0212 -0.08467,0.0212 -0.144639,0.06 v -0.33867 h 0.762 q -0.0635,0.0882 -0.127,0.20108 -0.05997,0.10936 -0.105833,0.23989 -0.04586,0.127 -0.07408,0.27164 -0.02822,0.14464 -0.02822,0.29633 0,0.25753 0.04586,0.45861 0.04586,0.19756 0.127,0.34925 0.08114,0.1517 0.1905,0.26106 0.109361,0.10936 0.232833,0.18697 v -2.26483 h 0.529167 v 2.12019 q 0,0.0247 -0.03528,0.0706 -0.03528,0.0423 -0.09172,0.0988 -0.05292,0.0564 -0.127,0.12347 -0.07056,0.0635 -0.144639,0.127 -0.176389,0.14817 -0.398639,0.32455 -0.172861,-0.13405 -0.296334,-0.26458 -0.123472,-0.13053 -0.211666,-0.254 z"
         style="font-style:normal;font-variant:normal;font-weight:normal;font-stretch:normal;font-family:'Bradley Gratis';-inkscape-font-specification:'Bradley Gratis';text-align:start;text-anchor:start;fill:#00a3f2;fill-opacity:1;stroke-width:0.26458332"
         id="path9066"
         inkscape:connector-curvature="0" />
      <path
         d="m 55.945863,148.25573 v -0.87842 h -0.416277 q -0.0035,0.23636 -0.01411,0.4692 -0.0071,0.2293 -0.01764,0.40922 z m 0.719667,-1.03011 q -0.03881,0.0282 -0.07408,0.0705 -0.03175,0.0423 -0.05645,0.0917 -0.02117,0.0459 -0.03528,0.0917 -0.01411,0.0423 -0.01411,0.0741 v 2.39889 h -0.53975 v -1.32997 h -0.472722 q -0.0035,0.127 -0.03528,0.27869 -0.03175,0.14817 -0.08819,0.29986 -0.05292,0.14817 -0.127,0.28928 -0.07056,0.13759 -0.162278,0.24342 -0.08819,0.10583 -0.1905,0.16933 -0.09878,0.0635 -0.208139,0.0635 -0.07055,0 -0.123472,-0.0423 -0.04939,-0.0423 -0.04939,-0.11995 0,-0.0494 0.03175,-0.0705 0.03175,-0.0247 0.06703,-0.0247 0.03175,0 0.04939,0.0106 0.01764,0.007 0.03175,0.0212 0.01764,0.0106 0.03881,0.0212 0.02117,0.007 0.05997,0.007 0.0635,0 0.102305,-0.0635 0.03881,-0.067 0.0635,-0.17639 0.0247,-0.11289 0.03528,-0.25753 0.01411,-0.14817 0.02117,-0.31044 0.0071,-0.16228 0.01764,-0.32809 0.01058,-0.16933 0.02822,-0.32455 0.02117,-0.18345 0.0635,-0.33514 0.04586,-0.1517 0.09525,-0.26811 0.04939,-0.11642 0.09878,-0.19756 0.04939,-0.0811 0.08467,-0.13053 h -0.07761 q -0.06703,0 -0.123472,0.0212 -0.05645,0.0176 -0.102306,0.0423 -0.04233,0.0212 -0.07761,0.0423 -0.03175,0.0176 -0.05644,0.0176 -0.05997,0 -0.08819,-0.0423 -0.02822,-0.0423 -0.02822,-0.0952 0,-0.0494 0.05292,-0.0917 0.05644,-0.0459 0.155222,-0.0459 z"
         style="font-style:normal;font-variant:normal;font-weight:normal;font-stretch:normal;font-family:'Bradley Gratis';-inkscape-font-specification:'Bradley Gratis';text-align:start;text-anchor:start;fill:#00a3f2;fill-opacity:1;stroke-width:0.26458332"
         id="path9068"
         inkscape:connector-curvature="0" />
      <path
         d="m 57.445721,150.07606 q -0.08114,-0.0811 -0.186973,-0.15875 -0.102305,-0.0776 -0.201083,-0.13758 -0.09525,-0.06 -0.169333,-0.10231 -0.07056,-0.0423 -0.08114,-0.0529 0.03528,-0.0423 0.08819,-0.11642 0.05292,-0.0776 0.102306,-0.15169 0.05292,-0.0741 0.09172,-0.13053 0.04233,-0.06 0.05292,-0.0706 0.04939,0.0318 0.134055,0.0882 0.08819,0.0529 0.172861,0.11289 0.0882,0.06 0.15875,0.10936 0.07056,0.0494 0.09172,0.0705 0.04939,-0.0282 0.08114,-0.0741 0.03528,-0.0459 0.03528,-0.14817 0,-0.0882 -0.07408,-0.18697 -0.07056,-0.0988 -0.176389,-0.20814 -0.105833,-0.10936 -0.232833,-0.2293 -0.127,-0.11995 -0.232834,-0.24695 -0.105833,-0.127 -0.179916,-0.25753 -0.07056,-0.13052 -0.07056,-0.26811 0,-0.0988 0.04939,-0.18344 0.05292,-0.0882 0.130528,-0.16228 0.07761,-0.0776 0.169333,-0.13758 0.09525,-0.0635 0.179917,-0.11642 0.08819,-0.0564 0.155222,-0.0988 0.06703,-0.0459 0.09525,-0.0811 0.02117,0.0176 0.09172,0.0882 0.07408,0.067 0.15875,0.14464 0.08467,0.0776 0.15875,0.13758 0.07761,0.06 0.102306,0.06 -0.03528,0.0282 -0.08819,0.0847 -0.04939,0.0529 -0.102305,0.11289 -0.04939,0.06 -0.09172,0.11642 -0.03881,0.0529 -0.05645,0.0811 -0.08114,-0.0353 -0.162278,-0.10583 -0.08114,-0.0705 -0.148166,-0.13758 -0.06703,-0.067 -0.112889,-0.11642 -0.04586,-0.0529 -0.05997,-0.0529 -0.02822,0 -0.04939,0.0317 -0.01764,0.0282 -0.01764,0.067 0,0.0847 0.07408,0.17992 0.07761,0.0952 0.186972,0.20461 0.112889,0.10583 0.243417,0.22578 0.134056,0.11641 0.243417,0.24341 0.112889,0.127 0.186972,0.26459 0.07761,0.13405 0.07761,0.27516 0,0.127 -0.09525,0.26812 -0.09525,0.14111 -0.229305,0.28222 -0.130528,0.13758 -0.268112,0.26458 -0.137583,0.12347 -0.225777,0.21872 z"
         style="font-style:normal;font-variant:normal;font-weight:normal;font-stretch:normal;font-family:'Bradley Gratis';-inkscape-font-specification:'Bradley Gratis';text-align:start;text-anchor:start;fill:#00a3f2;fill-opacity:1;stroke-width:0.26458332"
         id="path9070"
         inkscape:connector-curvature="0" />
      <path
         d="m 59.930709,149.47634 q 0,0.13758 -0.05645,0.23989 -0.05644,0.0988 -0.148167,0.16228 -0.08819,0.0635 -0.197555,0.0952 -0.109361,0.0317 -0.215195,0.0317 -0.165805,0 -0.324555,-0.0811 -0.15875,-0.0811 -0.28575,-0.21872 -0.127,-0.14111 -0.204611,-0.32809 -0.07761,-0.1905 -0.07761,-0.40922 0,-0.39158 0.179916,-0.72672 0.179917,-0.33867 0.500945,-0.61383 -0.02822,-0.004 -0.05292,-0.004 -0.02117,-0.004 -0.04586,-0.004 -0.08467,0 -0.179917,0.0282 -0.09525,0.0282 -0.179916,0.0741 -0.08467,0.0423 -0.155223,0.0952 -0.06703,0.0529 -0.102305,0.0988 0.02822,-0.13758 0.105833,-0.27164 0.07761,-0.13405 0.194028,-0.23636 0.116417,-0.1023 0.268111,-0.1658 0.151695,-0.0635 0.331611,-0.0635 0.09172,0 0.194028,0.0282 0.102306,0.0282 0.194028,0.0741 0.09525,0.0423 0.169333,0.0952 0.07408,0.0529 0.112889,0.10231 l -0.289278,0.44097 q -0.176389,-0.17286 -0.381,-0.24694 -0.04586,0.0741 -0.09525,0.17639 -0.04939,0.0988 -0.09172,0.22577 -0.03881,0.127 -0.06703,0.28223 -0.02469,0.15169 -0.02469,0.33161 0,0.16933 0.02469,0.29986 0.02822,0.13053 0.07056,0.22578 0.04233,0.0952 0.09525,0.15875 0.05644,0.0635 0.112889,0.10583 0.134055,0.0952 0.306916,0.10583 0.07056,0 0.162278,-0.0282 0.09525,-0.0317 0.151695,-0.0811 z"
         style="font-style:normal;font-variant:normal;font-weight:normal;font-stretch:normal;font-family:'Bradley Gratis';-inkscape-font-specification:'Bradley Gratis';text-align:start;text-anchor:start;fill:#00a3f2;fill-opacity:1;stroke-width:0.26458332"
         id="path9072"
         inkscape:connector-curvature="0" />
      <path
         d="m 61.698953,147.22562 v 0.381 q -0.03881,-0.0353 -0.102306,-0.0776 -0.05997,-0.0423 -0.130527,-0.0741 -0.06703,-0.0353 -0.134056,-0.0564 -0.06703,-0.0247 -0.112889,-0.0247 -0.08467,0 -0.172861,0.067 -0.08819,0.067 -0.144639,0.17992 -0.05644,0.10936 -0.07408,0.28928 -0.01411,0.17639 -0.01411,0.45508 h 0.903111 l -0.179917,0.40217 q -0.03528,-0.0529 -0.08467,-0.0706 -0.04586,-0.0212 -0.08467,-0.0212 h -0.553861 q 0,0.20108 0.0071,0.39511 0.0071,0.1905 0.04586,0.34219 0.04233,0.1517 0.127,0.24695 0.08467,0.0917 0.243417,0.0917 0.08467,0 0.165806,-0.0317 0.08467,-0.0318 0.155222,-0.0776 0.07055,-0.0494 0.123472,-0.10231 0.05644,-0.0529 0.08819,-0.0952 v 0.508 h -0.47625 q -0.342194,0 -0.553861,-0.11994 -0.211666,-0.12348 -0.331611,-0.32809 -0.116416,-0.20814 -0.15875,-0.47977 -0.0388,-0.27164 -0.0388,-0.56798 0,-0.0741 0.01058,-0.19402 0.01058,-0.12348 0.04586,-0.25753 0.03528,-0.13759 0.102306,-0.27517 0.06703,-0.14111 0.179916,-0.25047 0.116417,-0.11289 0.28575,-0.18345 0.169334,-0.0705 0.409223,-0.0705 z"
         style="font-style:normal;font-variant:normal;font-weight:normal;font-stretch:normal;font-family:'Bradley Gratis';-inkscape-font-specification:'Bradley Gratis';text-align:start;text-anchor:start;fill:#00a3f2;fill-opacity:1;stroke-width:0.26458332"
         id="path9074"
         inkscape:connector-curvature="0" />
      <path
         d="m 62.977882,147.92059 q -0.08819,-0.21167 -0.151694,-0.35278 -0.0635,-0.14111 -0.09878,-0.14111 -0.03881,0 -0.05292,0.0353 -0.01058,0.0317 -0.01058,0.0564 v 1.91206 q 0,0.0776 -0.04233,0.16228 -0.04233,0.0847 -0.112889,0.14816 0.130527,0 0.232833,-0.0635 0.102306,-0.067 0.211667,-0.14463 0.112889,-0.0811 0.250472,-0.14464 0.137583,-0.067 0.342194,-0.067 v 0.63147 H 61.9513 q 0.04586,-0.067 0.07761,-0.127 0.03528,-0.06 0.05644,-0.11994 0.02117,-0.06 0.03175,-0.127 0.01058,-0.067 0.01058,-0.14817 v -1.66864 q 0,-0.11289 -0.04233,-0.18344 -0.04233,-0.0741 -0.05997,-0.10231 0.01411,-0.004 0.07056,-0.0247 0.05997,-0.0247 0.144639,-0.0565 0.08467,-0.0317 0.186972,-0.067 0.102305,-0.0353 0.201083,-0.0635 0.09878,-0.0317 0.186972,-0.0494 0.08819,-0.0212 0.144639,-0.0212 0.08819,0 0.165806,0.0494 0.07761,0.0494 0.141111,0.12347 0.0635,0.0741 0.109361,0.16581 0.04586,0.0882 0.07408,0.1658 z"
         style="font-style:normal;font-variant:normal;font-weight:normal;font-stretch:normal;font-family:'Bradley Gratis';-inkscape-font-specification:'Bradley Gratis';text-align:start;text-anchor:start;fill:#00a3f2;fill-opacity:1;stroke-width:0.26458332"
         id="path9076"
         inkscape:connector-curvature="0" />
      <path
         d="m 65.158049,148.25573 v -0.87842 h -0.416278 q -0.0035,0.23636 -0.01411,0.4692 -0.0071,0.2293 -0.01764,0.40922 z m 0.719667,-1.03011 q -0.03881,0.0282 -0.07408,0.0705 -0.03175,0.0423 -0.05645,0.0917 -0.02117,0.0459 -0.03528,0.0917 -0.01411,0.0423 -0.01411,0.0741 v 2.39889 h -0.53975 v -1.32997 h -0.472722 q -0.0035,0.127 -0.03528,0.27869 -0.03175,0.14817 -0.08819,0.29986 -0.05292,0.14817 -0.127,0.28928 -0.07056,0.13759 -0.162278,0.24342 -0.08819,0.10583 -0.1905,0.16933 -0.09878,0.0635 -0.208139,0.0635 -0.07056,0 -0.123472,-0.0423 -0.04939,-0.0423 -0.04939,-0.11995 0,-0.0494 0.03175,-0.0705 0.03175,-0.0247 0.06703,-0.0247 0.03175,0 0.04939,0.0106 0.01764,0.007 0.03175,0.0212 0.01764,0.0106 0.0388,0.0212 0.02117,0.007 0.05997,0.007 0.0635,0 0.102306,-0.0635 0.03881,-0.067 0.0635,-0.17639 0.02469,-0.11289 0.03528,-0.25753 0.01411,-0.14817 0.02117,-0.31044 0.0071,-0.16228 0.01764,-0.32809 0.01058,-0.16933 0.02822,-0.32455 0.02117,-0.18345 0.0635,-0.33514 0.04586,-0.1517 0.09525,-0.26811 0.04939,-0.11642 0.09878,-0.19756 0.04939,-0.0811 0.08467,-0.13053 h -0.07761 q -0.06703,0 -0.123472,0.0212 -0.05644,0.0176 -0.102306,0.0423 -0.04233,0.0212 -0.07761,0.0423 -0.03175,0.0176 -0.05644,0.0176 -0.05997,0 -0.08819,-0.0423 -0.02822,-0.0423 -0.02822,-0.0952 0,-0.0494 0.05292,-0.0917 0.05644,-0.0459 0.155222,-0.0459 z"
         style="font-style:normal;font-variant:normal;font-weight:normal;font-stretch:normal;font-family:'Bradley Gratis';-inkscape-font-specification:'Bradley Gratis';text-align:start;text-anchor:start;fill:#00a3f2;fill-opacity:1;stroke-width:0.26458332"
         id="path9078"
         inkscape:connector-curvature="0" />
      <path
         d="m 66.178128,149.95259 v -2.43769 q 0,-0.0988 -0.04233,-0.16581 -0.04233,-0.0705 -0.08467,-0.12347 h 0.684389 v 0.35983 l 0.391583,-0.45508 q 0.179917,0.16228 0.296333,0.32455 0.116417,0.15875 0.183445,0.32103 0.06703,0.15875 0.09172,0.32456 0.02469,0.16228 0.02469,0.33514 0,0.16933 -0.02822,0.32455 -0.02469,0.1517 -0.07408,0.29986 -0.04939,0.14817 -0.119945,0.29986 -0.06703,0.1517 -0.148166,0.3175 h 0.127 q 0.04586,0 0.09525,-0.0318 0.04939,-0.0317 0.09878,-0.0317 v 0.33867 h -0.684389 q 0.09525,-0.19403 0.151694,-0.34925 0.05997,-0.15522 0.09172,-0.29633 0.03175,-0.14111 0.04233,-0.27517 0.01058,-0.13405 0.01058,-0.28575 0,-0.15169 -0.05292,-0.31397 -0.04939,-0.16581 -0.123472,-0.30339 -0.07408,-0.13758 -0.15875,-0.22578 -0.08114,-0.0882 -0.148167,-0.0882 -0.04233,0 -0.06703,0.0212 v 2.11667 z"
         style="font-style:normal;font-variant:normal;font-weight:normal;font-stretch:normal;font-family:'Bradley Gratis';-inkscape-font-specification:'Bradley Gratis';text-align:start;text-anchor:start;fill:#00a3f2;fill-opacity:1;stroke-width:0.26458332"
         id="path9080"
         inkscape:connector-curvature="0" />
      <path
         d="m 68.067032,147.47256 q -0.09172,-0.0388 -0.127,-0.0952 -0.03528,-0.0564 -0.03528,-0.10583 0,-0.0423 0.02822,-0.0529 0.02822,0.0176 0.07761,0.0247 0.04939,0.007 0.112889,0.007 0.03175,0 0.08819,-0.0106 0.05997,-0.0106 0.130528,-0.0212 0.07056,-0.0106 0.144639,-0.0212 0.07761,-0.0106 0.144639,-0.0106 0.162277,0 0.331611,0.0847 0.169333,0.0811 0.303389,0.254 0.134055,0.16933 0.218722,0.43392 0.08819,0.26105 0.08819,0.62441 0,0.30692 -0.05292,0.52917 -0.05292,0.22225 -0.134056,0.37747 -0.08114,0.15522 -0.179917,0.25047 -0.09878,0.0917 -0.194027,0.14464 -0.09172,0.0494 -0.169334,0.067 -0.07408,0.0176 -0.109361,0.0176 -0.05292,0 -0.112889,-0.0141 -0.05997,-0.0141 -0.119944,-0.0317 -0.05645,-0.0176 -0.109361,-0.0318 -0.04939,-0.0141 -0.08467,-0.0141 -0.03881,0 -0.07056,0.0141 -0.03175,0.0106 -0.06703,0.0247 -0.03175,0.0106 -0.07056,0.0247 -0.0388,0.0106 -0.08819,0.0106 -0.01764,0 -0.03881,-0.004 -0.01764,-0.004 -0.03528,-0.0106 -0.01764,-0.007 -0.03528,-0.0176 0.02822,-0.0176 0.05644,-0.06 0.02822,-0.0459 0.05292,-0.0952 0.02822,-0.0529 0.05644,-0.11642 z m 0.518583,2.10256 q 0,0.0741 0.02469,0.11642 0.02822,0.0388 0.05997,0.0564 0.03881,0.0212 0.08467,0.0247 0.08114,0 0.141111,-0.10936 0.0635,-0.10936 0.0635,-0.27869 v -1.5487 q 0,-0.1658 -0.03175,-0.25752 -0.03175,-0.0917 -0.07408,-0.13406 -0.04233,-0.0423 -0.08467,-0.0494 -0.04233,-0.0106 -0.06703,-0.0106 -0.04233,0 -0.08114,0.0564 -0.03528,0.0565 -0.03528,0.14817 z"
         style="font-style:normal;font-variant:normal;font-weight:normal;font-stretch:normal;font-family:'Bradley Gratis';-inkscape-font-specification:'Bradley Gratis';text-align:start;text-anchor:start;fill:#00a3f2;fill-opacity:1;stroke-width:0.26458332"
         id="path9082"
         inkscape:connector-curvature="0" />
    </g>
    <g
       aria-label="1"
       style="font-style:normal;font-weight:normal;font-size:3.52777767px;line-height:1.25;font-family:sans-serif;letter-spacing:0px;word-spacing:0px;fill:#ffffff;fill-opacity:1;stroke:none;stroke-width:0.26458332"
       id="text5443-7-3">
      <path
         d="m 43.334895,83.98049 q 0,0.03858 -0.0041,0.06615 -0.0041,0.02618 -0.0124,0.04272 -0.0069,0.01516 -0.01654,0.02205 -0.0096,0.0069 -0.02205,0.0069 h -0.98392 q -0.01102,0 -0.02067,-0.0069 -0.0096,-0.0069 -0.01792,-0.02205 -0.0069,-0.01654 -0.01102,-0.04272 -0.0041,-0.02756 -0.0041,-0.06615 0,-0.03996 0.0028,-0.06615 0.0041,-0.02756 0.01102,-0.0441 0.0083,-0.01654 0.01792,-0.02343 0.0096,-0.0083 0.02205,-0.0083 h 0.332108 v -1.160308 l -0.286632,0.158474 q -0.03169,0.01516 -0.05237,0.01929 -0.01929,0.0028 -0.03169,-0.0083 -0.01102,-0.0124 -0.01516,-0.04134 -0.0041,-0.02894 -0.0041,-0.0813 0,-0.03307 0.0014,-0.05374 0.0014,-0.02205 0.0069,-0.03721 0.0055,-0.01516 0.01516,-0.02481 0.0096,-0.0096 0.02618,-0.02067 l 0.383095,-0.248047 q 0.0069,-0.0055 0.01654,-0.0083 0.01103,-0.0041 0.02756,-0.0055 0.01654,-0.0028 0.04272,-0.0028 0.02756,-0.0014 0.07028,-0.0014 0.05237,0 0.08406,0.0028 0.03307,0.0014 0.04961,0.0069 0.01654,0.0041 0.02205,0.0124 0.0055,0.0083 0.0055,0.02067 v 1.473123 h 0.290766 q 0.0124,0 0.02205,0.0083 0.01102,0.0069 0.01792,0.02343 0.0083,0.01654 0.01102,0.0441 0.0041,0.02618 0.0041,0.06615 z"
         style="font-style:normal;font-variant:normal;font-weight:bold;font-stretch:normal;font-size:2.82222223px;font-family:Calibri;-inkscape-font-specification:'Calibri Bold';stroke-width:0.26458332"
         id="path2183" />
    </g>
    <g
       aria-label="90°"
       style="font-style:normal;font-weight:normal;font-size:3.52777767px;line-height:1.25;font-family:sans-serif;letter-spacing:0px;word-spacing:0px;fill:#ffffff;fill-opacity:1;stroke:none;stroke-width:0.26458332"
       id="text5443-0-4-9-8">
      <path
         d="m 39.978905,89.56892 q 0,0.08165 -0.0083,0.169499 -0.0083,0.08682 -0.03204,0.170532 -0.02274,0.08372 -0.06408,0.159164 -0.04031,0.07545 -0.10542,0.132291 -0.06408,0.05581 -0.157097,0.08888 -0.09198,0.03307 -0.218074,0.03307 -0.04444,0 -0.08888,-0.0062 -0.04341,-0.0062 -0.07958,-0.0155 -0.03617,-0.0093 -0.06201,-0.01964 -0.02481,-0.01034 -0.03617,-0.02067 -0.01137,-0.01137 -0.01654,-0.03204 -0.0052,-0.02067 -0.0052,-0.05788 0,-0.03411 0.001,-0.05478 0.0021,-0.02067 0.0062,-0.03204 0.0052,-0.01137 0.01137,-0.01447 0.0072,-0.0041 0.01654,-0.0041 0.0124,0 0.03514,0.0072 0.02274,0.0072 0.05478,0.01654 0.03307,0.0093 0.07441,0.01654 0.04134,0.0072 0.09198,0.0072 0.08682,0 0.146761,-0.031 0.05995,-0.03101 0.09715,-0.08372 0.03721,-0.05271 0.05478,-0.121957 0.01757,-0.06925 0.01964,-0.145727 -0.04754,0.02997 -0.114722,0.05271 -0.06718,0.0217 -0.153995,0.0217 -0.106454,0 -0.180868,-0.0279 -0.07441,-0.02791 -0.120923,-0.08062 -0.04651,-0.05271 -0.06821,-0.128157 -0.02067,-0.07545 -0.02067,-0.170532 0,-0.100253 0.02997,-0.183968 0.02997,-0.08475 0.08888,-0.145728 0.05891,-0.06201 0.146761,-0.09612 0.08785,-0.03411 0.203605,-0.03411 0.09302,0 0.162264,0.0217 0.07028,0.0217 0.119889,0.06201 0.05064,0.04031 0.08372,0.09819 0.03411,0.05684 0.05271,0.127125 0.01964,0.07028 0.02687,0.151928 0.0083,0.08165 0.0083,0.170532 z m -0.269751,-0.03721 q 0,-0.110587 -0.0124,-0.185001 -0.0124,-0.07441 -0.03721,-0.118856 -0.02481,-0.04444 -0.06201,-0.06305 -0.03721,-0.0186 -0.08682,-0.0186 -0.04857,0 -0.08372,0.01757 -0.03514,0.01654 -0.05891,0.04754 -0.02274,0.031 -0.03411,0.07338 -0.01137,0.04237 -0.01137,0.09302 0,0.05478 0.0093,0.09715 0.01033,0.04134 0.03101,0.06925 0.0217,0.02687 0.05581,0.04031 0.03411,0.01344 0.08268,0.01344 0.05994,0 0.112654,-0.01757 0.05374,-0.0186 0.09508,-0.04858 z"
         style="font-style:normal;font-variant:normal;font-weight:bold;font-stretch:normal;font-size:2.11666656px;font-family:Calibri;-inkscape-font-specification:'Calibri Bold';stroke-width:0.26458332"
         id="path2186" />
      <path
         d="m 41.077546,89.624731 q 0,0.160197 -0.02584,0.289388 -0.02584,0.129191 -0.08475,0.220142 -0.05788,0.09095 -0.151928,0.139526 -0.09302,0.04858 -0.22841,0.04858 -0.13746,0 -0.227377,-0.04651 -0.08992,-0.04754 -0.142626,-0.135392 -0.05271,-0.08888 -0.07442,-0.216008 -0.02067,-0.128157 -0.02067,-0.289388 0,-0.159163 0.02584,-0.288354 0.02687,-0.130225 0.08475,-0.221175 0.05891,-0.09095 0.151929,-0.139527 0.09405,-0.04858 0.22841,-0.04858 0.137459,0 0.227376,0.04754 0.09095,0.04651 0.143661,0.135392 0.05271,0.08785 0.07338,0.216007 0.02067,0.127125 0.02067,0.288355 z m -0.273885,0.01344 q 0,-0.09508 -0.0052,-0.167432 -0.0052,-0.07338 -0.01654,-0.127124 -0.01034,-0.05374 -0.02687,-0.09095 -0.0155,-0.03721 -0.03824,-0.05891 -0.02274,-0.02274 -0.05168,-0.03204 -0.02894,-0.0093 -0.06408,-0.0093 -0.06098,0 -0.101286,0.02997 -0.03927,0.02894 -0.06305,0.08785 -0.02274,0.05891 -0.03204,0.146761 -0.0093,0.08785 -0.0093,0.204638 0,0.142627 0.01137,0.236678 0.01137,0.09302 0.03514,0.148829 0.0248,0.05478 0.06304,0.07751 0.03824,0.0217 0.09198,0.0217 0.04031,0 0.07131,-0.0124 0.03101,-0.01344 0.05374,-0.03927 0.02377,-0.02584 0.03927,-0.06511 0.0155,-0.03927 0.02481,-0.09095 0.01033,-0.05168 0.01344,-0.116789 0.0041,-0.06511 0.0041,-0.14366 z"
         style="font-style:normal;font-variant:normal;font-weight:bold;font-stretch:normal;font-size:2.11666656px;font-family:Calibri;-inkscape-font-specification:'Calibri Bold';stroke-width:0.26458332"
         id="path2188" />
      <path
         d="m 41.785513,89.133805 q 0,0.05788 -0.0217,0.107487 -0.02067,0.04961 -0.05994,0.08682 -0.03824,0.03721 -0.09198,0.05891 -0.05271,0.02067 -0.116789,0.02067 -0.06408,0 -0.115755,-0.01964 -0.05168,-0.01964 -0.08888,-0.05374 -0.03721,-0.03514 -0.05684,-0.08371 -0.01964,-0.04858 -0.01964,-0.106454 0,-0.05788 0.0217,-0.107487 0.0217,-0.04961 0.05994,-0.08578 0.03824,-0.03721 0.09095,-0.05891 0.05374,-0.0217 0.116789,-0.0217 0.06408,0 0.115755,0.01964 0.05271,0.01964 0.08888,0.05478 0.03721,0.03411 0.05684,0.08268 0.02067,0.04858 0.02067,0.106454 z m -0.177767,0.0062 q 0,-0.02481 -0.0083,-0.04651 -0.0083,-0.02274 -0.02274,-0.03824 -0.01447,-0.0155 -0.03514,-0.02377 -0.02067,-0.0083 -0.04444,-0.0083 -0.0217,0 -0.04237,0.0093 -0.01964,0.0083 -0.03411,0.02377 -0.01344,0.0155 -0.0217,0.03721 -0.0083,0.02067 -0.0083,0.04444 0,0.02481 0.0083,0.04754 0.0083,0.0217 0.02274,0.03721 0.01447,0.0155 0.03514,0.02481 0.02067,0.0083 0.04444,0.0083 0.0217,0 0.04134,-0.0083 0.02067,-0.0093 0.03514,-0.02481 0.01447,-0.01654 0.0217,-0.03721 0.0083,-0.0217 0.0083,-0.04547 z m -0.470255,-0.1788 z"
         style="font-style:normal;font-variant:normal;font-weight:bold;font-stretch:normal;font-size:2.11666656px;font-family:Calibri;-inkscape-font-specification:'Calibri Bold';stroke-width:0.26458332"
         id="path2190" />
    </g>
    <g
       aria-label="HYPERMEASURES"
       style="font-style:normal;font-variant:normal;font-weight:bold;font-stretch:normal;font-size:3.52777767px;line-height:4.40972233px;font-family:Consolas;-inkscape-font-specification:'Consolas Bold';text-align:start;letter-spacing:0px;word-spacing:0px;text-anchor:start;fill:#ffffff;fill-opacity:1;stroke:none;stroke-width:0.26458332"
       id="text3885">
      <path
         d="m 47.289328,55.304292 q 0,0.01895 -0.01326,0.03411 -0.01137,0.01516 -0.03979,0.02463 -0.02842,0.0095 -0.07579,0.01516 -0.04737,0.0057 -0.119373,0.0057 -0.0739,0 -0.123162,-0.0057 -0.04737,-0.0057 -0.07579,-0.01516 -0.02653,-0.0095 -0.03979,-0.02463 -0.01137,-0.01516 -0.01137,-0.03411 V 54.313311 H 45.87391 v 0.990981 q 0,0.01895 -0.01137,0.03411 -0.01137,0.01516 -0.03979,0.02463 -0.02842,0.0095 -0.07579,0.01516 -0.04737,0.0057 -0.121267,0.0057 -0.072,0 -0.121267,-0.0057 -0.04737,-0.0057 -0.07579,-0.01516 -0.02842,-0.0095 -0.04169,-0.02463 -0.01137,-0.01516 -0.01137,-0.03411 v -2.315448 q 0,-0.01895 0.01137,-0.03411 0.01326,-0.01516 0.04169,-0.02463 0.02842,-0.0095 0.07579,-0.01516 0.04926,-0.0057 0.121267,-0.0057 0.0739,0 0.121267,0.0057 0.04737,0.0057 0.07579,0.01516 0.02842,0.0095 0.03979,0.02463 0.01137,0.01516 0.01137,0.03411 v 0.900031 h 0.917085 v -0.900031 q 0,-0.01895 0.01137,-0.03411 0.01326,-0.01516 0.03979,-0.02463 0.02842,-0.0095 0.07579,-0.01516 0.04926,-0.0057 0.123162,-0.0057 0.072,0 0.119373,0.0057 0.04737,0.0057 0.07579,0.01516 0.02842,0.0095 0.03979,0.02463 0.01326,0.01516 0.01326,0.03411 z"
         style="font-style:normal;font-variant:normal;font-weight:bold;font-stretch:normal;font-size:3.88055563px;line-height:4.40972233px;font-family:Calibri;-inkscape-font-specification:'Calibri Bold';text-align:start;text-anchor:start;stroke-width:0.26458332"
         id="path2193" />
      <path
         d="m 48.814644,54.442157 v 0.862135 q 0,0.01895 -0.01326,0.03411 -0.01137,0.01516 -0.03979,0.02463 -0.02842,0.0095 -0.07769,0.01516 -0.04737,0.0057 -0.119372,0.0057 -0.0739,0 -0.121268,-0.0057 -0.04737,-0.0057 -0.07769,-0.01516 -0.02842,-0.0095 -0.03979,-0.02463 -0.01137,-0.01516 -0.01137,-0.03411 v -0.862135 l -0.67076,-1.335836 q -0.036,-0.07011 -0.04737,-0.108003 -0.0095,-0.03979 0.01137,-0.05874 0.02274,-0.02084 0.08148,-0.02463 0.05874,-0.0057 0.162953,-0.0057 0.08716,0 0.13832,0.0038 0.05306,0.0038 0.08337,0.01516 0.03032,0.0095 0.04358,0.02653 0.01516,0.01705 0.02842,0.04358 l 0.272852,0.602547 q 0.03979,0.08716 0.07769,0.183796 0.03979,0.09663 0.07958,0.202744 h 0.0038 q 0.036,-0.10232 0.0739,-0.198955 0.0379,-0.09663 0.0739,-0.183796 l 0.269062,-0.598757 q 0.0095,-0.03032 0.02274,-0.04737 0.01516,-0.01895 0.04358,-0.03032 0.02842,-0.01137 0.07769,-0.01516 0.04927,-0.0038 0.130741,-0.0038 0.108004,0 0.166743,0.0057 0.06063,0.0038 0.08148,0.02463 0.02274,0.01895 0.01137,0.05874 -0.01137,0.03979 -0.04547,0.108003 z"
         style="font-style:normal;font-variant:normal;font-weight:bold;font-stretch:normal;font-size:3.88055563px;line-height:4.40972233px;font-family:Calibri;-inkscape-font-specification:'Calibri Bold';text-align:start;text-anchor:start;stroke-width:0.26458332"
         id="path2195" />
      <path
         d="m 51.518527,53.665288 q 0,0.206534 -0.06442,0.365697 -0.06442,0.159163 -0.187586,0.269062 -0.123162,0.108004 -0.303168,0.164848 -0.178112,0.05684 -0.420646,0.05684 h -0.204639 v 0.782553 q 0,0.01895 -0.01326,0.03411 -0.01137,0.01516 -0.03979,0.02463 -0.02842,0.0095 -0.07579,0.01516 -0.04737,0.0057 -0.121267,0.0057 -0.072,0 -0.121267,-0.0057 -0.04737,-0.0057 -0.07579,-0.01516 -0.02842,-0.0095 -0.03979,-0.02463 -0.01137,-0.01516 -0.01137,-0.03411 v -2.20555 q 0,-0.08906 0.04548,-0.132636 0.04737,-0.04548 0.123162,-0.04548 h 0.577915 q 0.08716,0 0.164848,0.0076 0.07958,0.0057 0.18948,0.02842 0.109899,0.02084 0.221692,0.07958 0.113688,0.05874 0.19327,0.149689 0.07958,0.08906 0.121267,0.210323 0.04169,0.119373 0.04169,0.269062 z m -0.521071,0.036 q 0,-0.128846 -0.04547,-0.212218 -0.04548,-0.08337 -0.111793,-0.123162 -0.06632,-0.03979 -0.140216,-0.04927 -0.072,-0.01137 -0.149689,-0.01137 h -0.212218 v 0.831818 h 0.223587 q 0.119372,0 0.198954,-0.03221 0.08148,-0.03221 0.132636,-0.08906 0.05116,-0.05874 0.07769,-0.138321 0.02653,-0.08148 0.02653,-0.176217 z"
         style="font-style:normal;font-variant:normal;font-weight:bold;font-stretch:normal;font-size:3.88055563px;line-height:4.40972233px;font-family:Calibri;-inkscape-font-specification:'Calibri Bold';text-align:start;text-anchor:start;stroke-width:0.26458332"
         id="path2197" />
      <path
         d="m 53.36217,55.177341 q 0,0.05495 -0.0057,0.09285 -0.0038,0.036 -0.01326,0.05874 -0.0095,0.02274 -0.02463,0.03411 -0.01326,0.0095 -0.03032,0.0095 h -1.231622 q -0.06253,0 -0.106109,-0.036 -0.04169,-0.0379 -0.04169,-0.121267 v -2.137338 q 0,-0.08337 0.04169,-0.119372 0.04358,-0.0379 0.106109,-0.0379 h 1.224043 q 0.01705,0 0.03032,0.0095 0.01326,0.0095 0.02274,0.03411 0.0095,0.02274 0.01326,0.06063 0.0057,0.036 0.0057,0.09285 0,0.05305 -0.0057,0.09095 -0.0038,0.036 -0.01326,0.05874 -0.0095,0.02274 -0.02274,0.03411 -0.01326,0.0095 -0.03032,0.0095 h -0.875399 v 0.598758 h 0.740868 q 0.01705,0 0.03032,0.01137 0.01516,0.0095 0.02463,0.03221 0.0095,0.02084 0.01326,0.05874 0.0057,0.036 0.0057,0.08906 0,0.05495 -0.0057,0.09095 -0.0038,0.036 -0.01326,0.05874 -0.0095,0.02084 -0.02463,0.03032 -0.01326,0.0095 -0.03032,0.0095 h -0.740868 v 0.691603 h 0.882978 q 0.01705,0 0.03032,0.01137 0.01516,0.0095 0.02463,0.03221 0.0095,0.02274 0.01326,0.06063 0.0057,0.036 0.0057,0.09095 z"
         style="font-style:normal;font-variant:normal;font-weight:bold;font-stretch:normal;font-size:3.88055563px;line-height:4.40972233px;font-family:Calibri;-inkscape-font-specification:'Calibri Bold';text-align:start;text-anchor:start;stroke-width:0.26458332"
         id="path2199" />
      <path
         d="m 55.622669,55.308082 q 0,0.02084 -0.0076,0.036 -0.0076,0.01326 -0.036,0.02274 -0.02842,0.0095 -0.08337,0.01326 -0.05495,0.0038 -0.149689,0.0038 -0.07958,0 -0.126952,-0.0038 -0.04737,-0.0038 -0.07579,-0.01326 -0.02653,-0.01137 -0.0379,-0.02653 -0.01137,-0.01705 -0.01895,-0.03979 l -0.219797,-0.547598 q -0.03979,-0.09285 -0.07769,-0.164848 -0.0379,-0.072 -0.08527,-0.119373 -0.04548,-0.04926 -0.106109,-0.0739 -0.06063,-0.02463 -0.140216,-0.02463 h -0.155373 v 0.934137 q 0,0.01895 -0.01326,0.03411 -0.01137,0.01516 -0.03979,0.02463 -0.02842,0.0095 -0.07579,0.01516 -0.04737,0.0057 -0.121267,0.0057 -0.072,0 -0.121268,-0.0057 -0.04737,-0.0057 -0.07579,-0.01516 -0.02842,-0.0095 -0.03979,-0.02463 -0.01137,-0.01516 -0.01137,-0.03411 v -2.226393 q 0,-0.08337 0.04168,-0.119372 0.04358,-0.0379 0.106109,-0.0379 h 0.634759 q 0.09663,0 0.159163,0.0038 0.06253,0.0038 0.113689,0.0095 0.147794,0.02084 0.265272,0.072 0.119372,0.05116 0.200849,0.134531 0.08337,0.08148 0.126952,0.195164 0.04358,0.111794 0.04358,0.257694 0,0.123162 -0.03221,0.225481 -0.03032,0.100425 -0.09095,0.180006 -0.06063,0.07958 -0.149689,0.138321 -0.08906,0.05874 -0.202744,0.09474 0.05495,0.02653 0.102319,0.06442 0.04926,0.0379 0.09095,0.09285 0.04358,0.05305 0.08148,0.123162 0.0379,0.06821 0.0739,0.155374 l 0.206534,0.483174 q 0.02842,0.072 0.0379,0.106109 0.0095,0.03221 0.0095,0.05116 z m -0.642338,-1.663637 q 0,-0.121267 -0.05495,-0.204638 -0.05495,-0.08337 -0.180007,-0.117478 -0.0379,-0.0095 -0.08716,-0.01516 -0.04737,-0.0057 -0.132637,-0.0057 h -0.223586 v 0.695393 h 0.253903 q 0.106109,0 0.185691,-0.02463 0.07958,-0.02653 0.132636,-0.072 0.05305,-0.04737 0.07958,-0.111794 0.02653,-0.06442 0.02653,-0.144005 z"
         style="font-style:normal;font-variant:normal;font-weight:bold;font-stretch:normal;font-size:3.88055563px;line-height:4.40972233px;font-family:Calibri;-inkscape-font-specification:'Calibri Bold';text-align:start;text-anchor:start;stroke-width:0.26458332"
         id="path2201" />
      <path
         d="m 58.843833,55.304292 q 0,0.01895 -0.01137,0.03411 -0.0095,0.01516 -0.0379,0.02463 -0.02653,0.0095 -0.072,0.01516 -0.04548,0.0057 -0.115583,0.0057 -0.06821,0 -0.113688,-0.0057 -0.04548,-0.0057 -0.072,-0.01516 -0.02653,-0.0095 -0.0379,-0.02463 -0.01137,-0.01516 -0.01137,-0.03411 v -1.995227 h -0.0038 l -0.710551,1.993332 q -0.0076,0.02463 -0.02463,0.04169 -0.01705,0.01516 -0.04737,0.02463 -0.02842,0.0095 -0.0739,0.01137 -0.04547,0.0038 -0.109898,0.0038 -0.06442,0 -0.109899,-0.0057 -0.04547,-0.0038 -0.07579,-0.01326 -0.02842,-0.01137 -0.04547,-0.02653 -0.01705,-0.01516 -0.02274,-0.036 l -0.685918,-1.993332 h -0.0038 v 1.995227 q 0,0.01895 -0.01137,0.03411 -0.0095,0.01516 -0.0379,0.02463 -0.02842,0.0095 -0.0739,0.01516 -0.04358,0.0057 -0.113688,0.0057 -0.06821,0 -0.113688,-0.0057 -0.04548,-0.0057 -0.0739,-0.01516 -0.02653,-0.0095 -0.0379,-0.02463 -0.0095,-0.01516 -0.0095,-0.03411 v -2.184707 q 0,-0.09663 0.05116,-0.147795 0.05116,-0.05116 0.136426,-0.05116 h 0.325906 q 0.08716,0 0.149689,0.01516 0.06253,0.01326 0.108004,0.04737 0.04548,0.03221 0.07579,0.08716 0.03032,0.05306 0.05305,0.132636 l 0.530545,1.460893 h 0.0076 l 0.549493,-1.457103 q 0.02463,-0.07958 0.05306,-0.134531 0.03032,-0.05495 0.06821,-0.08906 0.03979,-0.03411 0.09285,-0.04737 0.05305,-0.01516 0.123162,-0.01516 h 0.33538 q 0.05116,0 0.08716,0.01326 0.0379,0.01326 0.06063,0.03979 0.02463,0.02463 0.036,0.06253 0.01326,0.036 0.01326,0.08337 z"
         style="font-style:normal;font-variant:normal;font-weight:bold;font-stretch:normal;font-size:3.88055563px;line-height:4.40972233px;font-family:Calibri;-inkscape-font-specification:'Calibri Bold';text-align:start;text-anchor:start;stroke-width:0.26458332"
         id="path2203" />
      <path
         d="m 60.835271,55.177341 q 0,0.05495 -0.0057,0.09285 -0.0038,0.036 -0.01326,0.05874 -0.0095,0.02274 -0.02463,0.03411 -0.01326,0.0095 -0.03032,0.0095 h -1.231621 q -0.06253,0 -0.106109,-0.036 -0.04169,-0.0379 -0.04169,-0.121267 v -2.137338 q 0,-0.08337 0.04169,-0.119372 0.04358,-0.0379 0.106109,-0.0379 h 1.224042 q 0.01705,0 0.03032,0.0095 0.01326,0.0095 0.02274,0.03411 0.0095,0.02274 0.01326,0.06063 0.0057,0.036 0.0057,0.09285 0,0.05305 -0.0057,0.09095 -0.0038,0.036 -0.01326,0.05874 -0.0095,0.02274 -0.02274,0.03411 -0.01326,0.0095 -0.03032,0.0095 h -0.875399 v 0.598758 h 0.740868 q 0.01705,0 0.03032,0.01137 0.01516,0.0095 0.02463,0.03221 0.0095,0.02084 0.01326,0.05874 0.0057,0.036 0.0057,0.08906 0,0.05495 -0.0057,0.09095 -0.0038,0.036 -0.01326,0.05874 -0.0095,0.02084 -0.02463,0.03032 -0.01326,0.0095 -0.03032,0.0095 h -0.740868 v 0.691603 h 0.882978 q 0.01705,0 0.03032,0.01137 0.01516,0.0095 0.02463,0.03221 0.0095,0.02274 0.01326,0.06063 0.0057,0.036 0.0057,0.09095 z"
         style="font-style:normal;font-variant:normal;font-weight:bold;font-stretch:normal;font-size:3.88055563px;line-height:4.40972233px;font-family:Calibri;-inkscape-font-specification:'Calibri Bold';text-align:start;text-anchor:start;stroke-width:0.26458332"
         id="path2205" />
      <path
         d="m 63.239775,55.186815 q 0.02274,0.06821 0.02842,0.108003 0.0057,0.03979 -0.01516,0.06063 -0.02084,0.01895 -0.0739,0.02274 -0.05305,0.0057 -0.1459,0.0057 -0.09663,0 -0.151584,-0.0038 -0.05305,-0.0019 -0.08148,-0.0095 -0.02842,-0.0095 -0.03979,-0.02463 -0.01137,-0.01516 -0.01895,-0.03979 L 62.576594,54.813538 H 61.65572 l -0.155374,0.479385 q -0.0076,0.02653 -0.02084,0.04548 -0.01137,0.01705 -0.03979,0.02842 -0.02653,0.0095 -0.07769,0.01326 -0.04926,0.0038 -0.130742,0.0038 -0.08716,0 -0.136426,-0.0057 -0.04926,-0.0057 -0.06821,-0.02653 -0.01895,-0.02274 -0.01326,-0.06253 0.0057,-0.03979 0.02842,-0.106109 l 0.756026,-2.175233 q 0.01137,-0.03221 0.02653,-0.05116 0.01516,-0.02084 0.04737,-0.03032 0.03411,-0.01137 0.09285,-0.01326 0.05874,-0.0038 0.155374,-0.0038 0.111793,0 0.178111,0.0038 0.06632,0.0019 0.102319,0.01326 0.0379,0.0095 0.05306,0.03032 0.01705,0.02084 0.02842,0.05684 z m -1.125513,-1.798168 h -0.0019 l -0.346748,1.042141 h 0.695392 z"
         style="font-style:normal;font-variant:normal;font-weight:bold;font-stretch:normal;font-size:3.88055563px;line-height:4.40972233px;font-family:Calibri;-inkscape-font-specification:'Calibri Bold';text-align:start;text-anchor:start;stroke-width:0.26458332"
         id="path2207" />
      <path
         d="m 65.034154,54.637322 q 0,0.19327 -0.072,0.339169 -0.072,0.1459 -0.195164,0.24443 -0.123163,0.09664 -0.28801,0.1459 -0.164848,0.04926 -0.352434,0.04926 -0.126951,0 -0.23685,-0.02084 -0.108004,-0.02084 -0.191375,-0.04926 -0.08337,-0.03032 -0.140215,-0.06253 -0.05495,-0.03221 -0.07958,-0.05684 -0.02463,-0.02463 -0.036,-0.07011 -0.0095,-0.04737 -0.0095,-0.134531 0,-0.05874 0.0038,-0.09853 0.0038,-0.03979 0.01137,-0.06442 0.0095,-0.02463 0.02274,-0.03411 0.01516,-0.01137 0.03411,-0.01137 0.02653,0 0.0739,0.03221 0.04927,0.03032 0.125057,0.06821 0.07579,0.0379 0.180007,0.07011 0.106109,0.03032 0.244429,0.03032 0.09095,0 0.162953,-0.02084 0.072,-0.02274 0.121268,-0.06253 0.05116,-0.03979 0.07769,-0.09853 0.02653,-0.05874 0.02653,-0.130741 0,-0.08337 -0.04548,-0.14211 -0.04547,-0.06063 -0.119372,-0.106109 -0.072,-0.04737 -0.164848,-0.08716 -0.09285,-0.04169 -0.191375,-0.08716 -0.09853,-0.04548 -0.191375,-0.102319 -0.09284,-0.05874 -0.166743,-0.138321 -0.072,-0.08148 -0.117478,-0.191375 -0.04548,-0.109898 -0.04548,-0.263377 0,-0.176217 0.06442,-0.308853 0.06632,-0.134531 0.176216,-0.221692 0.111794,-0.08906 0.261483,-0.132636 0.151584,-0.04358 0.320222,-0.04358 0.08716,0 0.174321,0.01326 0.08716,0.01326 0.162953,0.036 0.07579,0.02274 0.134531,0.05116 0.05874,0.02842 0.07769,0.04737 0.01895,0.01895 0.02463,0.03221 0.0076,0.01326 0.01137,0.036 0.0057,0.02084 0.0076,0.05495 0.0019,0.03221 0.0019,0.08148 0,0.05495 -0.0038,0.09285 -0.0019,0.0379 -0.0095,0.06253 -0.0057,0.02463 -0.01895,0.036 -0.01137,0.01137 -0.03221,0.01137 -0.02084,0 -0.06632,-0.02653 -0.04547,-0.02653 -0.111793,-0.05684 -0.06632,-0.03221 -0.153479,-0.05684 -0.08716,-0.02653 -0.191375,-0.02653 -0.08148,0 -0.14211,0.02084 -0.06063,0.01895 -0.10232,0.05495 -0.03979,0.03411 -0.06063,0.08337 -0.01895,0.04927 -0.01895,0.104214 0,0.08148 0.04358,0.14211 0.04547,0.05874 0.119373,0.106109 0.07579,0.04548 0.170532,0.08716 0.09474,0.03979 0.19327,0.08527 0.09853,0.04548 0.193269,0.104215 0.09474,0.05684 0.168638,0.13832 0.0739,0.07958 0.119372,0.18948 0.04548,0.108004 0.04548,0.255799 z"
         style="font-style:normal;font-variant:normal;font-weight:bold;font-stretch:normal;font-size:3.88055563px;line-height:4.40972233px;font-family:Calibri;-inkscape-font-specification:'Calibri Bold';text-align:start;text-anchor:start;stroke-width:0.26458332"
         id="path2209" />
      <path
         d="m 67.415921,54.45921 q 0,0.225482 -0.06632,0.403593 -0.06632,0.178112 -0.195165,0.301274 -0.128846,0.123162 -0.318327,0.187585 -0.18948,0.06442 -0.435804,0.06442 -0.231166,0 -0.414962,-0.05684 -0.183796,-0.05874 -0.310747,-0.176217 -0.126952,-0.117478 -0.195165,-0.2918 -0.06632,-0.176216 -0.06632,-0.411172 v -1.491209 q 0,-0.01895 0.01137,-0.03411 0.01137,-0.01516 0.03979,-0.02463 0.03032,-0.0095 0.07769,-0.01516 0.04737,-0.0057 0.121268,-0.0057 0.072,0 0.119372,0.0057 0.04737,0.0057 0.07579,0.01516 0.02842,0.0095 0.03979,0.02463 0.01326,0.01516 0.01326,0.03411 v 1.447629 q 0,0.1459 0.036,0.253903 0.036,0.106109 0.102319,0.176217 0.06821,0.07011 0.161059,0.106109 0.09474,0.03411 0.210323,0.03411 0.117477,0 0.210323,-0.036 0.09284,-0.036 0.157268,-0.104214 0.06442,-0.07011 0.09853,-0.170532 0.036,-0.10232 0.036,-0.231166 v -1.476051 q 0,-0.01895 0.01137,-0.03411 0.01137,-0.01516 0.03979,-0.02463 0.02842,-0.0095 0.07579,-0.01516 0.04927,-0.0057 0.121268,-0.0057 0.072,0 0.117477,0.0057 0.04737,0.0057 0.07579,0.01516 0.02842,0.0095 0.03979,0.02463 0.01137,0.01516 0.01137,0.03411 z"
         style="font-style:normal;font-variant:normal;font-weight:bold;font-stretch:normal;font-size:3.88055563px;line-height:4.40972233px;font-family:Calibri;-inkscape-font-specification:'Calibri Bold';text-align:start;text-anchor:start;stroke-width:0.26458332"
         id="path2211" />
      <path
         d="m 69.765476,55.308082 q 0,0.02084 -0.0076,0.036 -0.0076,0.01326 -0.036,0.02274 -0.02842,0.0095 -0.08337,0.01326 -0.05495,0.0038 -0.149689,0.0038 -0.07958,0 -0.126952,-0.0038 -0.04737,-0.0038 -0.07579,-0.01326 -0.02653,-0.01137 -0.0379,-0.02653 -0.01137,-0.01705 -0.01895,-0.03979 L 69.00945,54.752905 q -0.03979,-0.09285 -0.07769,-0.164848 -0.0379,-0.072 -0.08527,-0.119373 -0.04547,-0.04926 -0.106109,-0.0739 -0.06063,-0.02463 -0.140216,-0.02463 h -0.155373 v 0.934137 q 0,0.01895 -0.01326,0.03411 -0.01137,0.01516 -0.03979,0.02463 -0.02842,0.0095 -0.07579,0.01516 -0.04737,0.0057 -0.121267,0.0057 -0.072,0 -0.121268,-0.0057 -0.04737,-0.0057 -0.07579,-0.01516 -0.02842,-0.0095 -0.03979,-0.02463 -0.01137,-0.01516 -0.01137,-0.03411 v -2.226393 q 0,-0.08337 0.04169,-0.119372 0.04358,-0.0379 0.106109,-0.0379 h 0.634759 q 0.09664,0 0.159163,0.0038 0.06253,0.0038 0.113689,0.0095 0.147794,0.02084 0.265272,0.072 0.119373,0.05116 0.200849,0.134531 0.08337,0.08148 0.126952,0.195164 0.04358,0.111794 0.04358,0.257694 0,0.123162 -0.03221,0.225481 -0.03032,0.100425 -0.09095,0.180006 -0.06063,0.07958 -0.149689,0.138321 -0.08906,0.05874 -0.202744,0.09474 0.05495,0.02653 0.102319,0.06442 0.04927,0.0379 0.09095,0.09285 0.04358,0.05305 0.08148,0.123162 0.0379,0.06821 0.0739,0.155374 l 0.206534,0.483174 q 0.02842,0.072 0.0379,0.106109 0.0095,0.03221 0.0095,0.05116 z m -0.642338,-1.663637 q 0,-0.121267 -0.05495,-0.204638 -0.05495,-0.08337 -0.180007,-0.117478 -0.0379,-0.0095 -0.08716,-0.01516 -0.04737,-0.0057 -0.132637,-0.0057 h -0.223586 v 0.695393 h 0.253903 q 0.106109,0 0.185691,-0.02463 0.07958,-0.02653 0.132636,-0.072 0.05305,-0.04737 0.07958,-0.111794 0.02653,-0.06442 0.02653,-0.144005 z"
         style="font-style:normal;font-variant:normal;font-weight:bold;font-stretch:normal;font-size:3.88055563px;line-height:4.40972233px;font-family:Calibri;-inkscape-font-specification:'Calibri Bold';text-align:start;text-anchor:start;stroke-width:0.26458332"
         id="path2213" />
      <path
         d="m 71.582591,55.177341 q 0,0.05495 -0.0057,0.09285 -0.0038,0.036 -0.01326,0.05874 -0.0095,0.02274 -0.02463,0.03411 -0.01326,0.0095 -0.03032,0.0095 h -1.231622 q -0.06253,0 -0.106109,-0.036 -0.04169,-0.0379 -0.04169,-0.121267 v -2.137338 q 0,-0.08337 0.04169,-0.119372 0.04358,-0.0379 0.106109,-0.0379 h 1.224042 q 0.01705,0 0.03032,0.0095 0.01326,0.0095 0.02274,0.03411 0.0095,0.02274 0.01326,0.06063 0.0057,0.036 0.0057,0.09285 0,0.05305 -0.0057,0.09095 -0.0038,0.036 -0.01326,0.05874 -0.0095,0.02274 -0.02274,0.03411 -0.01326,0.0095 -0.03032,0.0095 h -0.875398 v 0.598758 h 0.740867 q 0.01705,0 0.03032,0.01137 0.01516,0.0095 0.02463,0.03221 0.0095,0.02084 0.01326,0.05874 0.0057,0.036 0.0057,0.08906 0,0.05495 -0.0057,0.09095 -0.0038,0.036 -0.01326,0.05874 -0.0095,0.02084 -0.02463,0.03032 -0.01326,0.0095 -0.03032,0.0095 h -0.740867 v 0.691603 h 0.882978 q 0.01705,0 0.03032,0.01137 0.01516,0.0095 0.02463,0.03221 0.0095,0.02274 0.01326,0.06063 0.0057,0.036 0.0057,0.09095 z"
         style="font-style:normal;font-variant:normal;font-weight:bold;font-stretch:normal;font-size:3.88055563px;line-height:4.40972233px;font-family:Calibri;-inkscape-font-specification:'Calibri Bold';text-align:start;text-anchor:start;stroke-width:0.26458332"
         id="path2215" />
      <path
         d="m 73.439498,54.637322 q 0,0.19327 -0.072,0.339169 -0.072,0.1459 -0.195164,0.24443 -0.123163,0.09664 -0.28801,0.1459 -0.164848,0.04926 -0.352434,0.04926 -0.126951,0 -0.23685,-0.02084 -0.108004,-0.02084 -0.191375,-0.04926 -0.08337,-0.03032 -0.140215,-0.06253 -0.05495,-0.03221 -0.07958,-0.05684 -0.02463,-0.02463 -0.036,-0.07011 -0.0095,-0.04737 -0.0095,-0.134531 0,-0.05874 0.0038,-0.09853 0.0038,-0.03979 0.01137,-0.06442 0.0095,-0.02463 0.02274,-0.03411 0.01516,-0.01137 0.03411,-0.01137 0.02653,0 0.0739,0.03221 0.04926,0.03032 0.125057,0.06821 0.07579,0.0379 0.180007,0.07011 0.106109,0.03032 0.244429,0.03032 0.09095,0 0.162953,-0.02084 0.072,-0.02274 0.121268,-0.06253 0.05116,-0.03979 0.07769,-0.09853 0.02653,-0.05874 0.02653,-0.130741 0,-0.08337 -0.04548,-0.14211 -0.04547,-0.06063 -0.119372,-0.106109 -0.072,-0.04737 -0.164848,-0.08716 -0.09285,-0.04169 -0.191375,-0.08716 -0.09853,-0.04548 -0.191375,-0.102319 -0.09284,-0.05874 -0.166743,-0.138321 -0.072,-0.08148 -0.117477,-0.191375 -0.04548,-0.109898 -0.04548,-0.263377 0,-0.176217 0.06442,-0.308853 0.06632,-0.134531 0.176216,-0.221692 0.111794,-0.08906 0.261483,-0.132636 0.151584,-0.04358 0.320222,-0.04358 0.08716,0 0.174321,0.01326 0.08716,0.01326 0.162953,0.036 0.07579,0.02274 0.134531,0.05116 0.05874,0.02842 0.07769,0.04737 0.01895,0.01895 0.02463,0.03221 0.0076,0.01326 0.01137,0.036 0.0057,0.02084 0.0076,0.05495 0.0019,0.03221 0.0019,0.08148 0,0.05495 -0.0038,0.09285 -0.0019,0.0379 -0.0095,0.06253 -0.0057,0.02463 -0.01895,0.036 -0.01137,0.01137 -0.03221,0.01137 -0.02084,0 -0.06632,-0.02653 -0.04547,-0.02653 -0.111793,-0.05684 -0.06632,-0.03221 -0.153479,-0.05684 -0.08716,-0.02653 -0.191375,-0.02653 -0.08148,0 -0.14211,0.02084 -0.06063,0.01895 -0.10232,0.05495 -0.03979,0.03411 -0.06063,0.08337 -0.01895,0.04927 -0.01895,0.104214 0,0.08148 0.04358,0.14211 0.04547,0.05874 0.119373,0.106109 0.07579,0.04548 0.170532,0.08716 0.09474,0.03979 0.19327,0.08527 0.09853,0.04548 0.193269,0.104215 0.09474,0.05684 0.168638,0.13832 0.0739,0.07958 0.119372,0.18948 0.04548,0.108004 0.04548,0.255799 z"
         style="font-style:normal;font-variant:normal;font-weight:bold;font-stretch:normal;font-size:3.88055563px;line-height:4.40972233px;font-family:Calibri;-inkscape-font-specification:'Calibri Bold';text-align:start;text-anchor:start;stroke-width:0.26458332"
         id="path2217" />
    </g>
  </g>
</svg>
