<?xml version="1.0" encoding="UTF-8" standalone="no"?>
<!-- Created with Inkscape (http://www.inkscape.org/) -->

<svg
   xmlns:dc="http://purl.org/dc/elements/1.1/"
   xmlns:cc="http://creativecommons.org/ns#"
   xmlns:rdf="http://www.w3.org/1999/02/22-rdf-syntax-ns#"
   xmlns:svg="http://www.w3.org/2000/svg"
   xmlns="http://www.w3.org/2000/svg"
   xmlns:xlink="http://www.w3.org/1999/xlink"
   xmlns:sodipodi="http://sodipodi.sourceforge.net/DTD/sodipodi-0.dtd"
   xmlns:inkscape="http://www.inkscape.org/namespaces/inkscape"
   width="195"
   height="380"
   viewBox="0 0 51.593751 100.54167"
   version="1.1"
   id="svg11003"
   inkscape:version="0.92.2 (5c3e80d, 2017-08-06)"
   sodipodi:docname="LissajousLFO.svg">
  <defs
     id="defs10997">
    <linearGradient
       inkscape:collect="always"
       id="linearGradient4682">
      <stop
         style="stop-color:#000002;stop-opacity:1;"
         offset="0"
         id="stop3387" />
      <stop
         style="stop-color:#000005;stop-opacity:1;"
         offset=".3"
         id="stop3388" />
      <stop
         style="stop-color:#08008f;stop-opacity:1;"
         offset="1"
         id="stop3389" />
    </linearGradient>
    <linearGradient
       inkscape:collect="always"
       xlink:href="#linearGradient4682"
       id="linearGradient4684"
       x1="35.219627"
       y1="150.85843"
       x2="35.23983"
       y2="96.163956"
       gradientUnits="userSpaceOnUse" />
  </defs>
  <sodipodi:namedview
     id="base"
     pagecolor="#ffffff"
     bordercolor="#666666"
     borderopacity="1.0"
     inkscape:pageopacity="0.0"
     inkscape:pageshadow="2"
     inkscape:zoom="5.6568542"
     inkscape:cx="-22.05668"
     inkscape:cy="261.40637"
     inkscape:document-units="mm"
     inkscape:current-layer="layer1"
     showgrid="false"
     fit-margin-top="0"
     fit-margin-left="0"
     fit-margin-right="0"
     fit-margin-bottom="0"
     inkscape:window-width="3840"
     inkscape:window-height="2115"
     inkscape:window-x="-13"
     inkscape:window-y="-13"
     inkscape:window-maximized="1"
     units="px" />
  <metadata
     id="metadata11000">
    <rdf:RDF>
      <cc:Work
         rdf:about="">
        <dc:format>image/svg+xml</dc:format>
        <dc:type
           rdf:resource="http://purl.org/dc/dcmitype/StillImage" />
        <dc:title></dc:title>
      </cc:Work>
    </rdf:RDF>
  </metadata>
  <g
     inkscape:label="Layer 1"
     inkscape:groupmode="layer"
     id="layer1"
     transform="translate(-35.146312,-50.389004)">
    <path
       inkscape:connector-curvature="0"
       id="path33493"
       d="M 35.219628,50.462323 H 86.654867 V 150.85843 H 35.219628 Z m 0,0"
       style="fill:url(#linearGradient4684);fill-opacity:1;fill-rule:nonzero;stroke:none;stroke-width:0.3145712"
       inkscape:export-filename="/home/vortico/pics/tmp/LFOs.png"
       inkscape:export-xdpi="150.22649"
       inkscape:export-ydpi="150.22649" />
    <g
       style="font-style:normal;font-weight:normal;font-size:3.52777767px;line-height:1.25;font-family:sans-serif;letter-spacing:0px;word-spacing:0px;fill:#ffffff;fill-opacity:1;stroke:none;stroke-width:0.26458332"
       id="text5097" />
    <g
       aria-label="LISSAJOUS LFO"
       style="font-style:normal;font-variant:normal;font-weight:bold;font-stretch:normal;font-size:3.52777767px;line-height:1.25;font-family:Consolas;-inkscape-font-specification:'Consolas, Bold';font-variant-ligatures:normal;font-variant-caps:normal;font-variant-numeric:normal;font-feature-settings:normal;text-align:center;letter-spacing:0px;word-spacing:0px;writing-mode:lr-tb;text-anchor:middle;fill:#ffffff;fill-opacity:1;stroke:none;stroke-width:0.26458332"
       id="text136">
      <path
         d="m 48.983544,54.099419 v -2.25137 h 0.430637 v 1.887912 h 0.950846 v 0.363458 z"
         style="font-style:normal;font-variant:normal;font-weight:bold;font-stretch:normal;font-size:3.52777767px;font-family:Consolas;-inkscape-font-specification:'Consolas, Bold';font-variant-ligatures:normal;font-variant-caps:normal;font-variant-numeric:normal;font-feature-settings:normal;text-align:center;writing-mode:lr-tb;text-anchor:middle;stroke-width:0.26458332"
         id="path13313" />
      <path
         d="m 50.845618,52.194281 v -0.346232 h 1.422825 v 0.346232 h -0.496094 v 1.55546 h 0.496094 v 0.349678 h -1.422825 v -0.349678 h 0.496094 v -1.55546 z"
         style="font-style:normal;font-variant:normal;font-weight:bold;font-stretch:normal;font-size:3.52777767px;font-family:Consolas;-inkscape-font-specification:'Consolas, Bold';font-variant-ligatures:normal;font-variant-caps:normal;font-variant-numeric:normal;font-feature-settings:normal;text-align:center;writing-mode:lr-tb;text-anchor:middle;stroke-width:0.26458332"
         id="path13315" />
      <path
         d="m 54.287269,53.419012 q 0,0.184313 -0.0689,0.320394 -0.06718,0.136081 -0.189481,0.225654 -0.1223,0.08785 -0.29111,0.130914 -0.16881,0.04306 -0.368625,0.04306 -0.177423,0 -0.342787,-0.02067 -0.165365,-0.02067 -0.327284,-0.0689 v -0.418579 q 0.07924,0.02756 0.165364,0.05168 0.08613,0.02412 0.172255,0.04306 0.08785,0.01723 0.173977,0.02756 0.08613,0.01034 0.167087,0.01034 0.120579,0 0.204984,-0.02067 0.0844,-0.02067 0.137803,-0.05684 0.0534,-0.03617 0.07751,-0.08613 0.02412,-0.04995 0.02412,-0.110243 0,-0.08268 -0.04823,-0.137804 -0.04651,-0.05684 -0.124023,-0.09991 -0.07751,-0.04306 -0.177422,-0.07751 -0.09819,-0.03445 -0.201539,-0.07407 -0.10163,-0.03962 -0.201538,-0.08957 -0.09819,-0.04995 -0.1757,-0.124023 -0.07751,-0.07407 -0.125745,-0.1757 -0.04651,-0.103353 -0.04651,-0.248047 0,-0.132636 0.04823,-0.251492 0.04823,-0.118855 0.151584,-0.206705 0.103353,-0.08957 0.265273,-0.141249 0.161919,-0.0534 0.391018,-0.0534 0.06718,0 0.139526,0.0069 0.07407,0.0052 0.144694,0.0155 0.07235,0.0086 0.137804,0.02239 0.06718,0.01206 0.122301,0.02584 v 0.387573 q -0.05512,-0.02067 -0.120578,-0.0379 -0.06546,-0.01723 -0.136082,-0.02928 -0.0689,-0.01378 -0.139526,-0.02067 -0.07062,-0.0069 -0.134359,-0.0069 -0.111965,0 -0.18948,0.01895 -0.07751,0.01723 -0.127468,0.04995 -0.04995,0.03101 -0.07235,0.07752 -0.02239,0.04651 -0.02239,0.103353 0,0.07062 0.04651,0.122301 0.04823,0.04995 0.125746,0.09129 0.07924,0.03962 0.177423,0.07579 0.09991,0.03445 0.20326,0.07579 0.105076,0.03962 0.203261,0.0913 0.09991,0.05168 0.177422,0.125746 0.07924,0.07407 0.125746,0.1757 0.04823,0.09991 0.04823,0.237711 z"
         style="font-style:normal;font-variant:normal;font-weight:bold;font-stretch:normal;font-size:3.52777767px;font-family:Consolas;-inkscape-font-specification:'Consolas, Bold';font-variant-ligatures:normal;font-variant-caps:normal;font-variant-numeric:normal;font-feature-settings:normal;text-align:center;writing-mode:lr-tb;text-anchor:middle;stroke-width:0.26458332"
         id="path13317" />
      <path
         d="m 56.230303,53.419012 q 0,0.184313 -0.0689,0.320394 -0.06718,0.136081 -0.189481,0.225654 -0.122301,0.08785 -0.29111,0.130914 -0.16881,0.04306 -0.368625,0.04306 -0.177423,0 -0.342787,-0.02067 -0.165365,-0.02067 -0.327284,-0.0689 v -0.418579 q 0.07924,0.02756 0.165364,0.05168 0.08613,0.02412 0.172255,0.04306 0.08785,0.01723 0.173977,0.02756 0.08613,0.01034 0.167087,0.01034 0.120579,0 0.204983,-0.02067 0.08441,-0.02067 0.137804,-0.05684 0.0534,-0.03617 0.07751,-0.08613 0.02412,-0.04995 0.02412,-0.110243 0,-0.08268 -0.04823,-0.137804 -0.04651,-0.05684 -0.124023,-0.09991 -0.07751,-0.04306 -0.177423,-0.07751 -0.09819,-0.03445 -0.201538,-0.07407 -0.10163,-0.03962 -0.201538,-0.08957 -0.09819,-0.04995 -0.1757,-0.124023 -0.07751,-0.07407 -0.125746,-0.1757 -0.04651,-0.103353 -0.04651,-0.248047 0,-0.132636 0.04823,-0.251492 0.04823,-0.118855 0.151584,-0.206705 0.103353,-0.08957 0.265273,-0.141249 0.161919,-0.0534 0.391018,-0.0534 0.06718,0 0.139526,0.0069 0.07407,0.0052 0.144694,0.0155 0.07235,0.0086 0.137804,0.02239 0.06718,0.01206 0.122301,0.02584 v 0.387573 q -0.05512,-0.02067 -0.120578,-0.0379 -0.06546,-0.01723 -0.136082,-0.02928 -0.0689,-0.01378 -0.139526,-0.02067 -0.07062,-0.0069 -0.134359,-0.0069 -0.111965,0 -0.18948,0.01895 -0.07751,0.01723 -0.127469,0.04995 -0.04995,0.03101 -0.07235,0.07752 -0.02239,0.04651 -0.02239,0.103353 0,0.07062 0.04651,0.122301 0.04823,0.04995 0.125746,0.09129 0.07924,0.03962 0.177423,0.07579 0.09991,0.03445 0.20326,0.07579 0.105076,0.03962 0.203261,0.0913 0.09991,0.05168 0.177422,0.125746 0.07924,0.07407 0.125746,0.1757 0.04823,0.09991 0.04823,0.237711 z"
         style="font-style:normal;font-variant:normal;font-weight:bold;font-stretch:normal;font-size:3.52777767px;font-family:Consolas;-inkscape-font-specification:'Consolas, Bold';font-variant-ligatures:normal;font-variant-caps:normal;font-variant-numeric:normal;font-feature-settings:normal;text-align:center;writing-mode:lr-tb;text-anchor:middle;stroke-width:0.26458332"
         id="path13319" />
      <path
         d="M 57.880503,54.099419 57.75648,53.655001 h -0.785482 l -0.127469,0.444418 h -0.420301 l 0.666626,-2.25137 h 0.592556 l 0.666626,2.25137 z m -0.511597,-1.837959 -0.296278,1.047309 h 0.589112 z"
         style="font-style:normal;font-variant:normal;font-weight:bold;font-stretch:normal;font-size:3.52777767px;font-family:Consolas;-inkscape-font-specification:'Consolas, Bold';font-variant-ligatures:normal;font-variant-caps:normal;font-variant-numeric:normal;font-feature-settings:normal;text-align:center;writing-mode:lr-tb;text-anchor:middle;stroke-width:0.26458332"
         id="path13321" />
      <path
         d="m 59.918277,53.425902 q 0,0.158475 -0.04995,0.289389 -0.04995,0.130913 -0.146417,0.223931 -0.09646,0.09302 -0.239434,0.144694 -0.142971,0.04995 -0.332451,0.04995 -0.139527,0 -0.268718,-0.03273 -0.129191,-0.03273 -0.225654,-0.08268 v -0.409966 q 0.04306,0.03617 0.09991,0.06718 0.05857,0.03101 0.124024,0.05512 0.06546,0.02239 0.134358,0.03617 0.0689,0.01206 0.136082,0.01206 0.05684,0 0.117133,-0.02067 0.06201,-0.02067 0.110243,-0.0689 0.04823,-0.04823 0.07924,-0.125746 0.03101,-0.07924 0.03101,-0.194648 v -1.171332 h -0.814765 v -0.349677 h 1.245402 z"
         style="font-style:normal;font-variant:normal;font-weight:bold;font-stretch:normal;font-size:3.52777767px;font-family:Consolas;-inkscape-font-specification:'Consolas, Bold';font-variant-ligatures:normal;font-variant-caps:normal;font-variant-numeric:normal;font-feature-settings:normal;text-align:center;writing-mode:lr-tb;text-anchor:middle;stroke-width:0.26458332"
         id="path13323" />
      <path
         d="m 62.17826,52.96426 q 0,0.306613 -0.07235,0.528822 -0.07062,0.222209 -0.196371,0.36518 -0.124023,0.142971 -0.292833,0.211873 -0.167087,0.0689 -0.35829,0.0689 -0.444417,0 -0.668348,-0.294555 -0.223931,-0.296279 -0.223931,-0.859552 0,-0.306613 0.07062,-0.528822 0.07235,-0.222209 0.196371,-0.36518 0.125746,-0.142971 0.292833,-0.211873 0.168809,-0.0689 0.360012,-0.0689 0.444417,0 0.668349,0.294555 0.223931,0.294556 0.223931,0.859552 z m -0.447863,0.02067 q 0,-0.399631 -0.106798,-0.596001 -0.106797,-0.196371 -0.351399,-0.196371 -0.122301,0 -0.208429,0.05168 -0.08613,0.04995 -0.142971,0.148139 -0.05512,0.09819 -0.08096,0.242879 -0.02584,0.142972 -0.02584,0.329007 0,0.399631 0.106798,0.596001 0.108521,0.196371 0.3514,0.196371 0.122301,0 0.208428,-0.04995 0.08785,-0.05168 0.142971,-0.149862 0.05512,-0.09819 0.08096,-0.241157 0.02584,-0.144694 0.02584,-0.330729 z"
         style="font-style:normal;font-variant:normal;font-weight:bold;font-stretch:normal;font-size:3.52777767px;font-family:Consolas;-inkscape-font-specification:'Consolas, Bold';font-variant-ligatures:normal;font-variant-caps:normal;font-variant-numeric:normal;font-feature-settings:normal;text-align:center;writing-mode:lr-tb;text-anchor:middle;stroke-width:0.26458332"
         id="path13325" />
      <path
         d="m 64.035166,53.270873 q 0,0.215319 -0.05857,0.378961 -0.05684,0.161919 -0.165365,0.27044 -0.106797,0.10852 -0.261827,0.163642 -0.155029,0.05512 -0.347954,0.05512 -0.217041,0 -0.372071,-0.05512 -0.155029,-0.05512 -0.251492,-0.158475 -0.09646,-0.103353 -0.139526,-0.251492 Q 62.3953,53.52581 62.3953,53.341498 v -1.493449 h 0.423747 v 1.46761 q 0,0.113689 0.01895,0.201539 0.02067,0.08785 0.0689,0.149861 0.04995,0.06029 0.124023,0.09129 0.07407,0.03101 0.186036,0.03101 0.105075,0 0.177422,-0.02584 0.07235,-0.02756 0.120578,-0.08613 0.04823,-0.06029 0.07235,-0.153306 0.02412,-0.09302 0.02412,-0.225654 v -1.450385 h 0.423747 z"
         style="font-style:normal;font-variant:normal;font-weight:bold;font-stretch:normal;font-size:3.52777767px;font-family:Consolas;-inkscape-font-specification:'Consolas, Bold';font-variant-ligatures:normal;font-variant-caps:normal;font-variant-numeric:normal;font-feature-settings:normal;text-align:center;writing-mode:lr-tb;text-anchor:middle;stroke-width:0.26458332"
         id="path13327" />
      <path
         d="m 65.945471,53.419012 q 0,0.184313 -0.0689,0.320394 -0.06718,0.136081 -0.189481,0.225654 -0.122301,0.08785 -0.29111,0.130914 -0.16881,0.04306 -0.368625,0.04306 -0.177423,0 -0.342787,-0.02067 -0.165365,-0.02067 -0.327285,-0.0689 v -0.418579 q 0.07924,0.02756 0.165365,0.05168 0.08613,0.02412 0.172255,0.04306 0.08785,0.01723 0.173977,0.02756 0.08613,0.01034 0.167087,0.01034 0.120579,0 0.204983,-0.02067 0.08441,-0.02067 0.137804,-0.05684 0.0534,-0.03617 0.07751,-0.08613 0.02412,-0.04995 0.02412,-0.110243 0,-0.08268 -0.04823,-0.137804 -0.04651,-0.05684 -0.124023,-0.09991 -0.07751,-0.04306 -0.177423,-0.07751 -0.09819,-0.03445 -0.201538,-0.07407 -0.10163,-0.03962 -0.201538,-0.08957 -0.09819,-0.04995 -0.1757,-0.124023 -0.07751,-0.07407 -0.125746,-0.1757 -0.04651,-0.103353 -0.04651,-0.248047 0,-0.132636 0.04823,-0.251492 0.04823,-0.118855 0.151584,-0.206705 0.103353,-0.08957 0.265272,-0.141249 0.16192,-0.0534 0.391019,-0.0534 0.06718,0 0.139526,0.0069 0.07407,0.0052 0.144694,0.0155 0.07235,0.0086 0.137804,0.02239 0.06718,0.01206 0.122301,0.02584 v 0.387573 q -0.05512,-0.02067 -0.120578,-0.0379 -0.06546,-0.01723 -0.136082,-0.02928 -0.0689,-0.01378 -0.139526,-0.02067 -0.07063,-0.0069 -0.134359,-0.0069 -0.111965,0 -0.18948,0.01895 -0.07751,0.01723 -0.127469,0.04995 -0.04995,0.03101 -0.07235,0.07752 -0.02239,0.04651 -0.02239,0.103353 0,0.07062 0.04651,0.122301 0.04823,0.04995 0.125746,0.09129 0.07924,0.03962 0.177422,0.07579 0.09991,0.03445 0.203261,0.07579 0.105076,0.03962 0.203261,0.0913 0.09991,0.05168 0.177422,0.125746 0.07924,0.07407 0.125746,0.1757 0.04823,0.09991 0.04823,0.237711 z"
         style="font-style:normal;font-variant:normal;font-weight:bold;font-stretch:normal;font-size:3.52777767px;font-family:Consolas;-inkscape-font-specification:'Consolas, Bold';font-variant-ligatures:normal;font-variant-caps:normal;font-variant-numeric:normal;font-feature-settings:normal;text-align:center;writing-mode:lr-tb;text-anchor:middle;stroke-width:0.26458332"
         id="path13329" />
      <path
         d="m 68.413882,54.099419 v -2.25137 h 0.430637 v 1.887912 h 0.950846 v 0.363458 z"
         style="font-style:normal;font-variant:normal;font-weight:bold;font-stretch:normal;font-size:3.52777767px;font-family:Consolas;-inkscape-font-specification:'Consolas, Bold';font-variant-ligatures:normal;font-variant-caps:normal;font-variant-numeric:normal;font-feature-settings:normal;text-align:center;writing-mode:lr-tb;text-anchor:middle;stroke-width:0.26458332"
         id="path13331" />
      <path
         d="m 70.765159,52.206339 v 0.623562 h 0.850939 v 0.347955 h -0.850939 v 0.921563 h -0.430637 v -2.25137 h 1.329807 v 0.35829 z"
         style="font-style:normal;font-variant:normal;font-weight:bold;font-stretch:normal;font-size:3.52777767px;font-family:Consolas;-inkscape-font-specification:'Consolas, Bold';font-variant-ligatures:normal;font-variant-caps:normal;font-variant-numeric:normal;font-feature-settings:normal;text-align:center;writing-mode:lr-tb;text-anchor:middle;stroke-width:0.26458332"
         id="path13333" />
      <path
         d="m 73.836463,52.96426 q 0,0.306613 -0.07235,0.528822 -0.07062,0.222209 -0.19637,0.36518 -0.124024,0.142971 -0.292834,0.211873 -0.167087,0.0689 -0.358289,0.0689 -0.444418,0 -0.668349,-0.294555 -0.223931,-0.296279 -0.223931,-0.859552 0,-0.306613 0.07062,-0.528822 0.07235,-0.222209 0.196371,-0.36518 0.125746,-0.142971 0.292833,-0.211873 0.168809,-0.0689 0.360012,-0.0689 0.444418,0 0.668349,0.294555 0.223931,0.294556 0.223931,0.859552 z m -0.447862,0.02067 q 0,-0.399631 -0.106798,-0.596001 -0.106798,-0.196371 -0.3514,-0.196371 -0.122301,0 -0.208428,0.05168 -0.08613,0.04995 -0.142972,0.148139 -0.05512,0.09819 -0.08096,0.242879 -0.02584,0.142972 -0.02584,0.329007 0,0.399631 0.106798,0.596001 0.108521,0.196371 0.3514,0.196371 0.122301,0 0.208428,-0.04995 0.08785,-0.05168 0.142972,-0.149862 0.05512,-0.09819 0.08096,-0.241157 0.02584,-0.144694 0.02584,-0.330729 z"
         style="font-style:normal;font-variant:normal;font-weight:bold;font-stretch:normal;font-size:3.52777767px;font-family:Consolas;-inkscape-font-specification:'Consolas, Bold';font-variant-ligatures:normal;font-variant-caps:normal;font-variant-numeric:normal;font-feature-settings:normal;text-align:center;writing-mode:lr-tb;text-anchor:middle;stroke-width:0.26458332"
         id="path13335" />
    </g>
    <g
       aria-label="L
F
O
2"
       style="font-style:normal;font-variant:normal;font-weight:bold;font-stretch:normal;font-size:3.52777767px;line-height:89.99999762%;font-family:Consolas;-inkscape-font-specification:'Consolas Bold';text-align:start;letter-spacing:0px;word-spacing:0px;writing-mode:lr-tb;text-anchor:start;fill:#ffffff;fill-opacity:1;stroke:none;stroke-width:0.26458332"
       id="text295">
      <path
         d="m 37.375662,123.15662 v -2.25137 h 0.430637 v 1.88791 h 0.950846 v 0.36346 z"
         style="line-height:89.99999762%;text-align:start;writing-mode:lr-tb;text-anchor:start;stroke-width:0.26458332"
         id="path13338" />
      <path
         d="m 37.783905,124.43854 v 0.62356 h 0.850939 v 0.34795 h -0.850939 v 0.92157 h -0.430636 v -2.25137 h 1.329806 v 0.35829 z"
         style="line-height:89.99999762%;text-align:start;writing-mode:lr-tb;text-anchor:start;stroke-width:0.26458332"
         id="path13340" />
      <path
         d="m 38.912174,128.37146 q 0,0.30661 -0.07235,0.52882 -0.07062,0.22221 -0.19637,0.36518 -0.124024,0.14297 -0.292833,0.21187 -0.167088,0.0689 -0.35829,0.0689 -0.444418,0 -0.668349,-0.29455 -0.223931,-0.29628 -0.223931,-0.85955 0,-0.30662 0.07062,-0.52883 0.07235,-0.2222 0.196371,-0.36518 0.125746,-0.14297 0.292833,-0.21187 0.16881,-0.0689 0.360012,-0.0689 0.444418,0 0.668349,0.29456 0.223931,0.29455 0.223931,0.85955 z m -0.447862,0.0207 q 0,-0.39963 -0.106798,-0.596 -0.106798,-0.19637 -0.3514,-0.19637 -0.122301,0 -0.208428,0.0517 -0.08613,0.05 -0.142972,0.14814 -0.05512,0.0982 -0.08096,0.24288 -0.02584,0.14297 -0.02584,0.32901 0,0.39963 0.106798,0.596 0.108521,0.19637 0.3514,0.19637 0.122301,0 0.208428,-0.05 0.08785,-0.0517 0.142972,-0.14986 0.05512,-0.0982 0.08096,-0.24115 0.02584,-0.1447 0.02584,-0.33073 z"
         style="line-height:89.99999762%;text-align:start;writing-mode:lr-tb;text-anchor:start;stroke-width:0.26458332"
         id="path13342" />
      <path
         d="m 37.258528,132.68162 v -0.31006 l 0.532268,-0.53227 q 0.149861,-0.14986 0.239434,-0.25838 0.09129,-0.10852 0.139526,-0.19293 0.04995,-0.0861 0.06546,-0.15847 0.0155,-0.0724 0.0155,-0.14986 0,-0.0637 -0.02067,-0.12058 -0.02067,-0.0586 -0.06029,-0.0999 -0.03962,-0.0431 -0.09991,-0.0672 -0.06029,-0.0258 -0.137803,-0.0258 -0.132637,0 -0.246325,0.0586 -0.113688,0.0568 -0.215318,0.15331 l -0.222209,-0.28595 q 0.146417,-0.13608 0.329007,-0.21704 0.184312,-0.0827 0.397908,-0.0827 0.165365,0 0.299724,0.0431 0.134358,0.0413 0.229098,0.12403 0.09646,0.0827 0.148139,0.2067 0.0534,0.12403 0.0534,0.28594 0,0.13436 -0.03617,0.2515 -0.03617,0.11541 -0.105075,0.22565 -0.0689,0.11024 -0.170533,0.22049 -0.09991,0.11024 -0.229099,0.23254 l -0.327284,0.31178 h 0.949124 v 0.38758 z"
         style="line-height:89.99999762%;text-align:start;writing-mode:lr-tb;text-anchor:start;stroke-width:0.26458332"
         id="path13344" />
    </g>
    <g
       aria-label="AMP"
       style="font-style:normal;font-variant:normal;font-weight:bold;font-stretch:normal;font-size:3.52777767px;line-height:1.25;font-family:Consolas;-inkscape-font-specification:'Consolas Bold';text-align:center;letter-spacing:0px;word-spacing:0px;text-anchor:middle;fill:#ffffff;fill-opacity:1;stroke:none;stroke-width:0.26458332"
       id="text299">
      <path
         d="m 48.446458,99.072319 -0.124024,-0.444417 h -0.785481 l -0.127469,0.444417 h -0.420302 l 0.666626,-2.25137 h 0.592557 l 0.666626,2.25137 z m -0.511597,-1.837958 -0.296278,1.047309 h 0.589111 z"
         style="stroke-width:0.26458332"
         id="path13347" />
      <path
         d="m 50.413607,99.072319 -0.04134,-1.272963 -0.0155,-0.508151 -0.10852,0.344509 -0.24977,0.766534 h -0.265272 l -0.225654,-0.766534 -0.09474,-0.344509 -0.01206,0.497816 -0.0379,1.283298 h -0.360012 l 0.110243,-2.25137 h 0.478868 l 0.198093,0.639065 0.09474,0.360013 0.09474,-0.339342 0.208429,-0.659736 h 0.487481 l 0.111965,2.25137 z"
         style="stroke-width:0.26458332"
         id="path13349" />
      <path
         d="m 52.663255,97.537529 q 0,0.1757 -0.05857,0.325562 -0.05857,0.148139 -0.173977,0.256659 -0.115411,0.108521 -0.287666,0.16881 -0.172255,0.06029 -0.399631,0.06029 h -0.215318 v 0.72347 h -0.427192 v -2.25137 h 0.659736 q 0.218763,0 0.38585,0.04823 0.16881,0.04651 0.282498,0.137803 0.115411,0.0913 0.173977,0.225654 0.06029,0.132636 0.06029,0.304891 z m -0.444418,0.02928 q 0,-0.08957 -0.02928,-0.161919 -0.02756,-0.07407 -0.08613,-0.125746 -0.05684,-0.05168 -0.144694,-0.07924 -0.08785,-0.02756 -0.208429,-0.02756 h -0.222208 v 0.8251 h 0.235989 q 0.110243,0 0.194648,-0.02928 0.0844,-0.03101 0.141248,-0.08785 0.05857,-0.05684 0.08785,-0.136081 0.03101,-0.07924 0.03101,-0.177423 z"
         style="stroke-width:0.26458332"
         id="path13351" />
    </g>
    <g
       aria-label="X"
       style="font-style:normal;font-variant:normal;font-weight:bold;font-stretch:normal;font-size:3.52777767px;line-height:1.25;font-family:Consolas;-inkscape-font-specification:'Consolas Bold';text-align:center;letter-spacing:0px;word-spacing:0px;text-anchor:middle;fill:#ffffff;fill-opacity:1;stroke:none;stroke-width:0.26458332"
       id="text303">
      <path
         d="m 63.144271,99.072159 -0.434082,-0.828546 -0.427191,0.828546 h -0.511597 l 0.6494,-1.154107 -0.606336,-1.097263 h 0.497816 l 0.408244,0.783759 0.394463,-0.783759 h 0.497816 l -0.602891,1.097263 0.673516,1.154107 z"
         style="stroke-width:0.26458332"
         id="path13354" />
    </g>
    <g
       aria-label="Y"
       style="font-style:normal;font-variant:normal;font-weight:bold;font-stretch:normal;font-size:3.52777767px;line-height:1.25;font-family:Consolas;-inkscape-font-specification:'Consolas Bold';text-align:center;letter-spacing:0px;word-spacing:0px;text-anchor:middle;fill:#ffffff;fill-opacity:1;stroke:none;stroke-width:0.26458332"
       id="text307">
      <path
         d="m 76.365159,98.274619 v 0.79754 h -0.430637 v -0.794095 l -0.732083,-1.457275 h 0.470256 l 0.330729,0.695909 0.151584,0.341065 0.151584,-0.3514 0.346232,-0.685574 h 0.451308 z"
         style="stroke-width:0.26458332"
         id="path13357" />
    </g>
    <g
       aria-label="AMP"
       style="font-style:normal;font-variant:normal;font-weight:bold;font-stretch:normal;font-size:3.52777767px;line-height:1.25;font-family:Consolas;-inkscape-font-specification:'Consolas Bold';text-align:center;letter-spacing:0px;word-spacing:0px;text-anchor:middle;fill:#ffffff;fill-opacity:1;stroke:none;stroke-width:0.26458332"
       id="text299-1">
      <path
         d="m 48.446431,120.04168 -0.124023,-0.44442 h -0.785482 l -0.127469,0.44442 h -0.420301 l 0.666626,-2.25137 h 0.592556 l 0.666626,2.25137 z m -0.511597,-1.83796 -0.296278,1.04731 h 0.589112 z"
         style="stroke-width:0.26458332"
         id="path13360" />
      <path
         d="m 50.413581,120.04168 -0.04134,-1.27296 -0.0155,-0.50815 -0.108521,0.3445 -0.249769,0.76654 h -0.265273 l -0.225654,-0.76654 -0.09474,-0.3445 -0.01206,0.49781 -0.0379,1.2833 h -0.360012 l 0.110243,-2.25137 h 0.478868 l 0.198093,0.63906 0.09474,0.36002 0.09474,-0.33934 0.208428,-0.65974 h 0.487481 l 0.111965,2.25137 z"
         style="stroke-width:0.26458332"
         id="path13362" />
      <path
         d="m 52.663228,118.50689 q 0,0.1757 -0.05857,0.32556 -0.05857,0.14814 -0.173977,0.25666 -0.115411,0.10852 -0.287666,0.16881 -0.172254,0.0603 -0.399631,0.0603 h -0.215318 v 0.72347 h -0.427192 v -2.25137 h 0.659736 q 0.218763,0 0.385851,0.0482 0.168809,0.0465 0.282497,0.1378 0.115411,0.0913 0.173978,0.22566 0.06029,0.13263 0.06029,0.30489 z m -0.444417,0.0293 q 0,-0.0896 -0.02928,-0.16192 -0.02756,-0.0741 -0.08613,-0.12574 -0.05684,-0.0517 -0.144694,-0.0792 -0.08785,-0.0276 -0.208428,-0.0276 h -0.222209 v 0.8251 h 0.235989 q 0.110243,0 0.194648,-0.0293 0.08441,-0.031 0.141249,-0.0878 0.05857,-0.0569 0.08785,-0.13608 0.03101,-0.0792 0.03101,-0.17743 z"
         style="stroke-width:0.26458332"
         id="path13364" />
    </g>
    <g
       aria-label="X"
       style="font-style:normal;font-variant:normal;font-weight:bold;font-stretch:normal;font-size:3.52777767px;line-height:1.25;font-family:Consolas;-inkscape-font-specification:'Consolas Bold';text-align:center;letter-spacing:0px;word-spacing:0px;text-anchor:middle;fill:#ffffff;fill-opacity:1;stroke:none;stroke-width:0.26458332"
       id="text303-4">
      <path
         d="m 63.143856,120.04179 -0.434082,-0.82855 -0.427192,0.82855 h -0.511597 l 0.649401,-1.15411 -0.606337,-1.09726 h 0.497816 l 0.408244,0.78376 0.394463,-0.78376 h 0.497817 l -0.602892,1.09726 0.673516,1.15411 z"
         style="stroke-width:0.26458332"
         id="path13367" />
    </g>
    <g
       aria-label="Y"
       style="font-style:normal;font-variant:normal;font-weight:bold;font-stretch:normal;font-size:3.52777767px;line-height:1.25;font-family:Consolas;-inkscape-font-specification:'Consolas Bold';text-align:center;letter-spacing:0px;word-spacing:0px;text-anchor:middle;fill:#ffffff;fill-opacity:1;stroke:none;stroke-width:0.26458332"
       id="text307-1">
      <path
         d="m 76.364877,119.24414 v 0.79754 H 75.93424 v -0.7941 l -0.732083,-1.45727 h 0.470255 l 0.33073,0.69591 0.151584,0.34106 0.151584,-0.3514 0.346232,-0.68557 h 0.451308 z"
         style="stroke-width:0.26458332"
         id="path13370" />
    </g>
    <g
       aria-label="Xs"
       style="font-style:normal;font-variant:normal;font-weight:bold;font-stretch:normal;font-size:3.52777767px;line-height:1.25;font-family:Consolas;-inkscape-font-specification:'Consolas Bold';text-align:center;letter-spacing:0px;word-spacing:0px;text-anchor:middle;fill:#ffffff;fill-opacity:1;stroke:none;stroke-width:0.26458332"
       id="text365">
      <path
         d="m 44.072905,146.56496 -0.260449,-0.49713 -0.256316,0.49713 h -0.306958 l 0.389641,-0.69247 -0.363802,-0.65836 h 0.298689 l 0.244947,0.47026 0.236678,-0.47026 h 0.29869 l -0.361735,0.65836 0.404109,0.69247 z"
         style="font-size:2.11666656px;stroke-width:0.26458332"
         id="path13373" />
      <path
         d="m 45.416492,146.25593 q 0,0.0899 -0.04031,0.154 -0.03927,0.063 -0.10542,0.10335 -0.06511,0.0393 -0.148828,0.0568 -0.08268,0.0186 -0.169498,0.0186 -0.115756,0 -0.208773,-0.0114 -0.09302,-0.0103 -0.1757,-0.031 v -0.22737 q 0.09715,0.0403 0.19327,0.0589 0.09715,0.0176 0.182934,0.0176 0.09922,0 0.147795,-0.031 0.04961,-0.032 0.04961,-0.0827 0,-0.0238 -0.01033,-0.0434 -0.01034,-0.0196 -0.03927,-0.0372 -0.0279,-0.0186 -0.07958,-0.0372 -0.05168,-0.0196 -0.135392,-0.0434 -0.07751,-0.0217 -0.136426,-0.0486 -0.05788,-0.0279 -0.09612,-0.0651 -0.03824,-0.0372 -0.05788,-0.0858 -0.0186,-0.0496 -0.0186,-0.11576 0,-0.0641 0.02894,-0.12092 0.02894,-0.0568 0.08578,-0.0992 0.05788,-0.0434 0.14366,-0.0682 0.08578,-0.0248 0.200505,-0.0248 0.09922,0 0.175699,0.0103 0.07648,0.0103 0.135393,0.0227 v 0.20567 q -0.08992,-0.0289 -0.169499,-0.0403 -0.07855,-0.0124 -0.156063,-0.0124 -0.07751,0 -0.125057,0.0279 -0.04651,0.0279 -0.04651,0.0775 0,0.0238 0.0093,0.0424 0.0093,0.0186 0.03617,0.0362 0.02791,0.0176 0.07648,0.0372 0.04961,0.0186 0.130224,0.0413 0.09095,0.0258 0.152963,0.0558 0.06201,0.0289 0.09922,0.0661 0.03824,0.0372 0.05478,0.0848 0.01654,0.0475 0.01654,0.10852 z"
         style="font-size:2.11666656px;stroke-width:0.26458332"
         id="path13375" />
    </g>
    <g
       aria-label="Ys"
       style="font-style:normal;font-variant:normal;font-weight:bold;font-stretch:normal;font-size:3.52777767px;line-height:1.25;font-family:Consolas;-inkscape-font-specification:'Consolas Bold';text-align:center;letter-spacing:0px;word-spacing:0px;text-anchor:middle;fill:#ffffff;fill-opacity:1;stroke:none;stroke-width:0.26458332"
       id="text369">
      <path
         d="m 52.084822,146.08622 v 0.47852 H 51.82644 v -0.47645 l -0.43925,-0.87437 h 0.282153 l 0.198438,0.41755 0.09095,0.20464 0.09095,-0.21084 0.207739,-0.41135 h 0.270785 z"
         style="font-size:2.11666656px;stroke-width:0.26458332"
         id="path13378" />
      <path
         d="m 53.552432,146.25572 q 0,0.0899 -0.04031,0.15399 -0.03927,0.0631 -0.10542,0.10336 -0.06511,0.0393 -0.148828,0.0568 -0.08268,0.0186 -0.169499,0.0186 -0.115755,0 -0.208773,-0.0114 -0.09302,-0.0103 -0.1757,-0.031 v -0.22738 q 0.09715,0.0403 0.19327,0.0589 0.09715,0.0176 0.182935,0.0176 0.09922,0 0.147794,-0.031 0.04961,-0.032 0.04961,-0.0827 0,-0.0238 -0.01033,-0.0434 -0.01034,-0.0196 -0.03927,-0.0372 -0.02791,-0.0186 -0.07958,-0.0372 -0.05168,-0.0196 -0.135392,-0.0434 -0.07752,-0.0217 -0.136426,-0.0486 -0.05788,-0.0279 -0.09612,-0.0651 -0.03824,-0.0372 -0.05788,-0.0858 -0.0186,-0.0496 -0.0186,-0.11575 0,-0.0641 0.02894,-0.12092 0.02894,-0.0568 0.08578,-0.0992 0.05788,-0.0434 0.143661,-0.0682 0.08578,-0.0248 0.200504,-0.0248 0.09922,0 0.1757,0.0103 0.07648,0.0103 0.135392,0.0227 v 0.20568 q -0.08992,-0.0289 -0.169498,-0.0403 -0.07855,-0.0124 -0.156063,-0.0124 -0.07751,0 -0.125057,0.0279 -0.04651,0.0279 -0.04651,0.0775 0,0.0238 0.0093,0.0424 0.0093,0.0186 0.03617,0.0362 0.02791,0.0176 0.07648,0.0372 0.04961,0.0186 0.130225,0.0413 0.09095,0.0258 0.152962,0.0558 0.06201,0.0289 0.09922,0.0662 0.03824,0.0372 0.05478,0.0847 0.01654,0.0475 0.01654,0.10852 z"
         style="font-size:2.11666656px;stroke-width:0.26458332"
         id="path13380" />
    </g>
    <g
       style="font-style:normal;font-variant:normal;font-weight:bold;font-stretch:normal;font-size:3.52777767px;line-height:1.25;font-family:Consolas;-inkscape-font-specification:'Consolas Bold';text-align:center;letter-spacing:0px;word-spacing:0px;text-anchor:middle;fill:#ffffff;fill-opacity:1;stroke:none;stroke-width:0.26458332"
       id="text373" />
    <g
       aria-label="/Y"
       style="font-style:normal;font-variant:normal;font-weight:bold;font-stretch:normal;font-size:3.52777767px;line-height:1.25;font-family:Consolas;-inkscape-font-specification:'Consolas Bold';text-align:center;letter-spacing:0px;word-spacing:0px;text-anchor:middle;fill:#ffffff;fill-opacity:1;stroke:none;stroke-width:0.26458332"
       id="text377">
      <path
         d="m 79.41133,146.58866 h -0.244947 l 0.721403,-1.68258 h 0.24598 z"
         style="font-size:2.11666656px;stroke-width:0.26458332"
         id="path13384" />
      <path
         d="m 80.965757,145.88793 v 0.47853 H 80.707375 V 145.89 l -0.43925,-0.87437 h 0.282153 l 0.198438,0.41755 0.09095,0.20464 0.09095,-0.21084 0.207739,-0.41135 h 0.270784 z"
         style="font-size:2.11666656px;stroke-width:0.26458332"
         id="path13386" />
    </g>
    <path
       style="fill:#cce6f1;fill-opacity:1;stroke-width:0.26458332"
       d="m 35.193085,60.660389 h 15.10741 v 6.26747 h -15.10741 z"
       id="rect5490" />
    <path
       style="fill:#cce6f1;fill-opacity:1;stroke-width:0.26458332"
       d="M 35.239857,59.210449 H 74.622021 V 77.685455 H 35.239857 Z"
       id="rect264" />
    <g
       style="font-style:normal;font-variant:normal;font-weight:bold;font-stretch:normal;font-size:13.33333302px;line-height:1.25;font-family:Consolas;-inkscape-font-specification:'Consolas Bold';text-align:center;letter-spacing:0px;word-spacing:0px;text-anchor:middle;fill:#000000;fill-opacity:1;stroke:none"
       id="flowRoot250" />
    <g
       aria-label="L
F
O
1"
       style="font-style:normal;font-variant:normal;font-weight:bold;font-stretch:normal;font-size:3.52777767px;line-height:89.99999762%;font-family:Consolas;-inkscape-font-specification:'Consolas Bold';text-align:start;letter-spacing:0px;word-spacing:0px;writing-mode:lr-tb;text-anchor:start;fill:#ffffff;fill-opacity:1;stroke:none;stroke-width:0.26458332"
       id="text295-5">
      <path
         d="m 37.375921,102.43111 v -2.25137 h 0.430637 v 1.88791 h 0.950846 v 0.36346 z"
         style="line-height:89.99999762%;text-align:start;writing-mode:lr-tb;text-anchor:start;stroke-width:0.26458332"
         id="path13392" />
      <path
         d="m 37.784165,103.71303 v 0.62356 h 0.850938 v 0.34795 h -0.850938 v 0.92157 h -0.430637 v -2.25137 h 1.329807 v 0.35829 z"
         style="line-height:89.99999762%;text-align:start;writing-mode:lr-tb;text-anchor:start;stroke-width:0.26458332"
         id="path13394" />
      <path
         d="m 38.912434,107.64595 q 0,0.30661 -0.07235,0.52882 -0.07062,0.22221 -0.196371,0.36518 -0.124023,0.14297 -0.292833,0.21187 -0.167087,0.0689 -0.35829,0.0689 -0.444417,0 -0.668348,-0.29455 -0.223932,-0.29628 -0.223932,-0.85955 0,-0.30662 0.07062,-0.52882 0.07235,-0.22221 0.19637,-0.36518 0.125746,-0.14298 0.292833,-0.21188 0.16881,-0.0689 0.360013,-0.0689 0.444417,0 0.668348,0.29456 0.223932,0.29455 0.223932,0.85955 z m -0.447863,0.0207 q 0,-0.39963 -0.106798,-0.596 -0.106798,-0.19637 -0.3514,-0.19637 -0.1223,0 -0.208428,0.0517 -0.08613,0.05 -0.142971,0.14814 -0.05512,0.0982 -0.08096,0.24288 -0.02584,0.14297 -0.02584,0.32901 0,0.39963 0.106798,0.596 0.10852,0.19637 0.351399,0.19637 0.122301,0 0.208429,-0.05 0.08785,-0.0517 0.142971,-0.14986 0.05512,-0.0982 0.08096,-0.24115 0.02584,-0.1447 0.02584,-0.33073 z"
         style="line-height:89.99999762%;text-align:start;writing-mode:lr-tb;text-anchor:start;stroke-width:0.26458332"
         id="path13396" />
      <path
         d="m 37.298406,111.95611 v -0.3738 h 0.573609 v -1.44694 l -0.499539,0.27561 -0.137804,-0.34279 0.714857,-0.37723 h 0.353123 v 1.89135 h 0.494371 v 0.3738 z"
         style="line-height:89.99999762%;text-align:start;writing-mode:lr-tb;text-anchor:start;stroke-width:0.26458332"
         id="path13398" />
    </g>
    <path
       inkscape:connector-curvature="0"
       id="path38411"
       d="M 86.911315,96.163954 H 35.23983 V 59.205875 h 51.671485 z m 0,0"
       style="fill:#1e282b;fill-opacity:1;fill-rule:nonzero;stroke:none;stroke-width:0.27602378" />
    <path
       inkscape:connector-curvature="0"
       id="path5509"
       d="M 35.239857,63.118735 H 86.911288"
       style="clip-rule:nonzero;fill:none;stroke:#ffffff;stroke-width:0.26458332;stroke-linecap:butt;stroke-linejoin:miter;stroke-miterlimit:10;stroke-dasharray:none;stroke-opacity:0.25098039" />
    <path
       inkscape:connector-curvature="0"
       id="path5503"
       d="M 35.239857,70.402095 H 86.911288"
       style="clip-rule:nonzero;fill:none;stroke:#ffffff;stroke-width:0.26458332;stroke-linecap:butt;stroke-linejoin:miter;stroke-miterlimit:10;stroke-dasharray:none;stroke-opacity:0.25098039" />
    <path
       inkscape:connector-curvature="0"
       id="path5497"
       d="M 35.239857,84.967745 H 86.911288"
       style="clip-rule:nonzero;fill:none;stroke:#ffffff;stroke-width:0.26458332;stroke-linecap:butt;stroke-linejoin:miter;stroke-miterlimit:10;stroke-dasharray:none;stroke-opacity:0.25098039" />
    <path
       inkscape:connector-curvature="0"
       id="path5491"
       d="M 35.239857,92.251106 H 86.911288"
       style="clip-rule:nonzero;fill:none;stroke:#ffffff;stroke-width:0.26458332;stroke-linecap:butt;stroke-linejoin:miter;stroke-miterlimit:10;stroke-dasharray:none;stroke-opacity:0.25098039" />
    <path
       inkscape:connector-curvature="0"
       id="path5305"
       d="M 35.239857,77.685455 H 86.911288"
       style="clip-rule:nonzero;fill:none;stroke:#ffffff;stroke-width:0.26458332;stroke-linecap:butt;stroke-linejoin:miter;stroke-miterlimit:10;stroke-dasharray:none;stroke-opacity:0.25098039" />
    <path
       inkscape:connector-curvature="0"
       id="path4803"
       d="M 61.076128,63.118735 V 92.253254"
       style="clip-rule:nonzero;fill:none;stroke:#ffffff;stroke-width:0.26458332;stroke-linecap:butt;stroke-linejoin:miter;stroke-miterlimit:10;stroke-dasharray:none;stroke-opacity:0.25098039" />
    <path
       inkscape:connector-curvature="0"
       id="path4797"
       d="M 69.687839,63.118735 V 92.253254"
       style="clip-rule:nonzero;fill:none;stroke:#ffffff;stroke-width:0.26458332;stroke-linecap:butt;stroke-linejoin:miter;stroke-miterlimit:10;stroke-dasharray:none;stroke-opacity:0.25098039" />
    <path
       inkscape:connector-curvature="0"
       id="path4791"
       d="M 52.464364,63.118735 V 92.253254"
       style="clip-rule:nonzero;fill:none;stroke:#ffffff;stroke-width:0.26458332;stroke-linecap:butt;stroke-linejoin:miter;stroke-miterlimit:10;stroke-dasharray:none;stroke-opacity:0.25098039" />
    <path
       inkscape:connector-curvature="0"
       id="path4785"
       d="M 43.852653,63.118735 V 92.253254"
       style="clip-rule:nonzero;fill:none;stroke:#ffffff;stroke-width:0.26458332;stroke-linecap:butt;stroke-linejoin:miter;stroke-miterlimit:10;stroke-dasharray:none;stroke-opacity:0.25098039" />
    <path
       inkscape:connector-curvature="0"
       id="path4779"
       d="M 78.300635,63.118735 V 92.253254"
       style="clip-rule:nonzero;fill:none;stroke:#ffffff;stroke-width:0.26458332;stroke-linecap:butt;stroke-linejoin:miter;stroke-miterlimit:10;stroke-dasharray:none;stroke-opacity:0.25098039" />
    <g
       aria-label="O
U
T"
       style="font-style:normal;font-variant:normal;font-weight:bold;font-stretch:normal;font-size:3.52777767px;line-height:89.99999762%;font-family:Consolas;-inkscape-font-specification:'Consolas Bold';text-align:start;letter-spacing:0px;word-spacing:0px;writing-mode:lr-tb;text-anchor:start;fill:#ffffff;fill-opacity:1;stroke:none;stroke-width:0.26458332"
       id="text295-57">
      <path
         d="m 38.912434,139.12821 q 0,0.30661 -0.07235,0.52882 -0.07062,0.22221 -0.196371,0.36518 -0.124023,0.14297 -0.292833,0.21187 -0.167087,0.0689 -0.35829,0.0689 -0.444417,0 -0.668348,-0.29456 -0.223932,-0.29628 -0.223932,-0.85955 0,-0.30662 0.07062,-0.52882 0.07235,-0.22221 0.19637,-0.36518 0.125746,-0.14298 0.292833,-0.21188 0.16881,-0.0689 0.360013,-0.0689 0.444417,0 0.668348,0.29456 0.223932,0.29455 0.223932,0.85955 z m -0.447863,0.0207 q 0,-0.39963 -0.106798,-0.596 -0.106798,-0.19637 -0.3514,-0.19637 -0.1223,0 -0.208428,0.0517 -0.08613,0.05 -0.142971,0.14814 -0.05512,0.0982 -0.08096,0.24288 -0.02584,0.14297 -0.02584,0.32901 0,0.39963 0.106798,0.596 0.10852,0.19637 0.351399,0.19637 0.122301,0 0.208429,-0.0499 0.08785,-0.0517 0.142971,-0.14987 0.05512,-0.0982 0.08096,-0.24115 0.02584,-0.1447 0.02584,-0.33073 z"
         style="line-height:89.99999762%;text-align:start;writing-mode:lr-tb;text-anchor:start;stroke-width:0.26458332"
         id="path13401" />
      <path
         d="m 38.826306,142.60982 q 0,0.21532 -0.05857,0.37896 -0.05685,0.16192 -0.165365,0.27044 -0.106798,0.10852 -0.261827,0.16364 -0.15503,0.0551 -0.347955,0.0551 -0.217041,0 -0.37207,-0.0551 -0.155029,-0.0551 -0.251492,-0.15847 -0.09646,-0.10335 -0.139527,-0.25149 -0.04306,-0.14814 -0.04306,-0.33245 V 141.187 h 0.423747 v 1.46761 q 0,0.11369 0.01895,0.20154 0.02067,0.0878 0.0689,0.14986 0.04995,0.0603 0.124024,0.0913 0.07407,0.031 0.186035,0.031 0.105075,0 0.177422,-0.0258 0.07235,-0.0276 0.120579,-0.0861 0.04823,-0.0603 0.07235,-0.1533 0.02411,-0.093 0.02411,-0.22566 V 141.187 h 0.423747 z"
         style="line-height:89.99999762%;text-align:start;writing-mode:lr-tb;text-anchor:start;stroke-width:0.26458332"
         id="path13403" />
      <path
         d="m 38.223414,144.71512 v 1.89825 h -0.434082 v -1.89825 H 37.17266 V 144.362 h 1.667427 v 0.35312 z"
         style="line-height:89.99999762%;text-align:start;writing-mode:lr-tb;text-anchor:start;stroke-width:0.26458332"
         id="path13405" />
    </g>
    <g
       aria-label="Xs+Ys"
       style="font-style:normal;font-variant:normal;font-weight:bold;font-stretch:normal;font-size:3.52777767px;line-height:1.25;font-family:Consolas;-inkscape-font-specification:'Consolas Bold';text-align:center;letter-spacing:0px;word-spacing:0px;text-anchor:middle;fill:#ffffff;fill-opacity:1;stroke:none;stroke-width:0.26458332"
       id="text1470">
      <path
         d="m 59.422868,146.5649 -0.260449,-0.49713 -0.256315,0.49713 h -0.306958 l 0.38964,-0.69247 -0.363802,-0.65836 h 0.29869 l 0.244946,0.47026 0.236678,-0.47026 h 0.29869 l -0.361735,0.65836 0.40411,0.69247 z"
         style="font-size:2.11666656px;stroke-width:0.26458332"
         id="path13408" />
      <path
         d="m 60.766455,146.25587 q 0,0.0899 -0.04031,0.154 -0.03927,0.063 -0.10542,0.10335 -0.06511,0.0393 -0.148828,0.0568 -0.08268,0.0186 -0.169499,0.0186 -0.115755,0 -0.208773,-0.0114 -0.09302,-0.0103 -0.1757,-0.031 v -0.22737 q 0.09715,0.0403 0.19327,0.0589 0.09715,0.0176 0.182935,0.0176 0.09922,0 0.147794,-0.031 0.04961,-0.032 0.04961,-0.0827 0,-0.0238 -0.01034,-0.0434 -0.01033,-0.0196 -0.03927,-0.0372 -0.0279,-0.0186 -0.07958,-0.0372 -0.05168,-0.0196 -0.135393,-0.0434 -0.07751,-0.0217 -0.136425,-0.0486 -0.05788,-0.0279 -0.09612,-0.0651 -0.03824,-0.0372 -0.05788,-0.0858 -0.0186,-0.0496 -0.0186,-0.11576 0,-0.0641 0.02894,-0.12092 0.02894,-0.0568 0.08578,-0.0992 0.05788,-0.0434 0.143661,-0.0682 0.08578,-0.0248 0.200504,-0.0248 0.09922,0 0.1757,0.0103 0.07648,0.0103 0.135392,0.0227 v 0.20567 q -0.08992,-0.0289 -0.169499,-0.0403 -0.07855,-0.0124 -0.156062,-0.0124 -0.07752,0 -0.125057,0.0279 -0.04651,0.0279 -0.04651,0.0775 0,0.0238 0.0093,0.0424 0.0093,0.0186 0.03617,0.0362 0.0279,0.0176 0.07648,0.0372 0.04961,0.0186 0.130225,0.0413 0.09095,0.0258 0.152962,0.0558 0.06201,0.0289 0.09922,0.0661 0.03824,0.0372 0.05478,0.0847 0.01654,0.0475 0.01654,0.10852 z"
         style="font-size:2.11666656px;stroke-width:0.26458332"
         id="path13410" />
      <path
         d="m 61.621183,146.10601 v 0.40204 H 61.38864 v -0.40204 h -0.385507 v -0.20774 h 0.385507 v -0.39998 h 0.232543 v 0.39998 h 0.385507 v 0.20774 z"
         style="font-size:2.11666656px;stroke-width:0.26458332"
         id="path13412" />
      <path
         d="m 62.796306,146.08637 v 0.47853 h -0.258383 v -0.47646 l -0.439249,-0.87437 h 0.282153 l 0.198438,0.41755 0.09095,0.20464 0.09095,-0.21084 0.207739,-0.41135 h 0.270784 z"
         style="font-size:2.11666656px;stroke-width:0.26458332"
         id="path13414" />
      <path
         d="m 64.263916,146.25587 q 0,0.0899 -0.04031,0.154 -0.03927,0.063 -0.105419,0.10335 -0.06511,0.0393 -0.148829,0.0568 -0.08268,0.0186 -0.169498,0.0186 -0.115755,0 -0.208773,-0.0114 -0.09302,-0.0103 -0.1757,-0.031 v -0.22737 q 0.09715,0.0403 0.19327,0.0589 0.09715,0.0176 0.182935,0.0176 0.09922,0 0.147794,-0.031 0.04961,-0.032 0.04961,-0.0827 0,-0.0238 -0.01033,-0.0434 -0.01033,-0.0196 -0.03927,-0.0372 -0.02791,-0.0186 -0.07958,-0.0372 -0.05168,-0.0196 -0.135392,-0.0434 -0.07751,-0.0217 -0.136426,-0.0486 -0.05788,-0.0279 -0.09612,-0.0651 -0.03824,-0.0372 -0.05788,-0.0858 -0.0186,-0.0496 -0.0186,-0.11576 0,-0.0641 0.02894,-0.12092 0.02894,-0.0568 0.08578,-0.0992 0.05788,-0.0434 0.14366,-0.0682 0.08578,-0.0248 0.200505,-0.0248 0.09922,0 0.1757,0.0103 0.07648,0.0103 0.135392,0.0227 v 0.20567 q -0.08992,-0.0289 -0.169499,-0.0403 -0.07855,-0.0124 -0.156063,-0.0124 -0.07751,0 -0.125057,0.0279 -0.04651,0.0279 -0.04651,0.0775 0,0.0238 0.0093,0.0424 0.0093,0.0186 0.03617,0.0362 0.0279,0.0176 0.07648,0.0372 0.04961,0.0186 0.130225,0.0413 0.09095,0.0258 0.152962,0.0558 0.06201,0.0289 0.09922,0.0661 0.03824,0.0372 0.05478,0.0847 0.01654,0.0475 0.01654,0.10852 z"
         style="font-size:2.11666656px;stroke-width:0.26458332"
         id="path13416" />
    </g>
    <g
       aria-label="/X"
       style="font-style:normal;font-variant:normal;font-weight:bold;font-stretch:normal;font-size:3.52777767px;line-height:1.25;font-family:Consolas;-inkscape-font-specification:'Consolas Bold';text-align:center;letter-spacing:0px;word-spacing:0px;text-anchor:middle;fill:#ffffff;fill-opacity:1;stroke:none;stroke-width:0.26458332"
       id="text1474">
      <path
         d="m 70.382399,146.58866 h -0.244946 l 0.721403,-1.68258 h 0.24598 z"
         style="font-size:2.11666656px;stroke-width:0.26458332"
         id="path13419" />
      <path
         d="m 72.060849,146.36646 -0.260449,-0.49713 -0.256315,0.49713 h -0.306958 l 0.38964,-0.69247 -0.363802,-0.65836 h 0.29869 l 0.244946,0.47026 0.236678,-0.47026 h 0.29869 l -0.361735,0.65836 0.40411,0.69247 z"
         style="font-size:2.11666656px;stroke-width:0.26458332"
         id="path13421" />
    </g>
    <g
       aria-label="FROZEN WASTELAND"
       style="font-style:normal;font-variant:normal;font-weight:bold;font-stretch:normal;font-size:3.52777767px;line-height:1.25;font-family:Consolas;-inkscape-font-specification:'Consolas Bold';text-align:start;letter-spacing:0px;word-spacing:0px;text-anchor:start;fill:#00a3f2;fill-opacity:1;stroke:none;stroke-width:0.26458332"
       id="text3885-7">
      <path
         d="m 47.43409,150.09638 q 0.119945,-0.11995 0.1905,-0.21167 0.07408,-0.0917 0.112889,-0.16933 0.04233,-0.0776 0.05292,-0.14464 0.01411,-0.0706 0.01411,-0.14817 0,-0.0953 -0.04586,-0.2293 -0.04586,-0.13406 -0.102306,-0.28575 -0.05644,-0.1517 -0.102305,-0.31045 -0.04586,-0.15875 -0.04586,-0.30339 0,-0.0776 0.02469,-0.15169 0.02822,-0.0741 0.06703,-0.14111 0.04233,-0.0706 0.09172,-0.13053 0.04939,-0.0635 0.09878,-0.11289 -0.07056,-0.0141 -0.123472,-0.0212 -0.05292,-0.0106 -0.07761,-0.0106 -0.130527,0 -0.22225,0.0706 -0.08819,0.067 -0.1905,0.16933 0,-0.11994 0.03528,-0.24694 0.03881,-0.13053 0.116417,-0.23636 0.07761,-0.10584 0.194028,-0.17287 0.119944,-0.067 0.282222,-0.067 0.112889,0 0.208139,0.0176 0.09878,0.0141 0.179916,0.0353 0.08114,0.0212 0.148167,0.0388 0.06703,0.0141 0.119945,0.0141 0.08114,0 0.141111,-0.0212 0.0635,-0.0247 0.123472,-0.0847 0,0.0776 -0.03175,0.17639 -0.02822,0.0988 -0.08819,0.1905 -0.05644,0.0882 -0.148166,0.15169 -0.09172,0.06 -0.211667,0.06 -0.05997,0 -0.137583,-0.007 -0.07408,-0.0106 -0.155222,-0.0247 -0.0071,0.0247 -0.01058,0.0459 -0.0035,0.0212 -0.0071,0.0388 -0.0035,0.0212 -0.0035,0.0388 0,0.0776 0.01058,0.1517 0.01411,0.0705 0.03881,0.14464 h 0.712611 l -0.08114,0.23989 q -0.01058,0.0459 -0.01411,0.067 -0.0035,0.0212 -0.01058,0.067 l -0.130528,-0.0917 h -0.363361 q 0.07761,0.17639 0.144639,0.35983 0.06703,0.17992 0.06703,0.38453 0,0.18345 -0.07408,0.3422 -0.07408,0.15522 -0.197556,0.27163 -0.119944,0.11642 -0.278694,0.17992 -0.155222,0.067 -0.321028,0.067 z"
         style="font-style:normal;font-variant:normal;font-weight:normal;font-stretch:normal;font-family:'Bradley Gratis';-inkscape-font-specification:'Bradley Gratis';text-align:start;text-anchor:start;fill:#00a3f2;fill-opacity:1;stroke-width:0.26458332"
         id="path13424" />
      <path
         d="m 49.504179,148.36777 q 0.07056,-0.0423 0.137583,-0.0988 0.07056,-0.0564 0.123473,-0.127 0.05644,-0.0706 0.08819,-0.16228 0.03528,-0.0953 0.03528,-0.21166 0,-0.0988 -0.03881,-0.16581 -0.03528,-0.0706 -0.08467,-0.11289 -0.04939,-0.0423 -0.09878,-0.06 -0.04586,-0.0176 -0.07056,-0.0176 -0.02822,0 -0.05292,0.0106 -0.02117,0.0106 -0.03881,0.0247 z m -0.518583,-0.94192 q -0.112889,-0.0635 -0.112889,-0.23636 0.03175,0.0317 0.112889,0.0564 0.08114,0.0212 0.172861,0.0212 0.04586,0 0.130528,-0.0106 0.08467,-0.0141 0.172861,-0.0282 0.09172,-0.0141 0.172861,-0.0247 0.08467,-0.0141 0.130528,-0.0141 0.116416,0 0.232833,0.0353 0.116417,0.0353 0.215194,0.11994 0.09878,0.0847 0.165806,0.22931 0.07056,0.14111 0.09172,0.35983 l -0.627944,0.4445 q 0.07055,0.0282 0.15875,0.0952 0.08819,0.067 0.165805,0.18697 0.08114,0.11995 0.134056,0.30692 0.05292,0.18344 0.05292,0.45156 0,0.23283 0.02117,0.37747 0.02117,0.14464 0.05292,0.23283 0.03175,0.0882 0.06703,0.13053 0.0388,0.0459 0.07055,0.0776 -0.155222,0 -0.275166,-0.0917 -0.119945,-0.0882 -0.211667,-0.23284 -0.09172,-0.14463 -0.162278,-0.32808 -0.06703,-0.18344 -0.123472,-0.37042 -0.05644,-0.18697 -0.105833,-0.35983 -0.04586,-0.17286 -0.09525,-0.29986 -0.0247,0.0176 -0.04939,0.0353 -0.02117,0.0141 -0.03881,0.0317 v 1.31939 h -0.518583 z"
         style="font-style:normal;font-variant:normal;font-weight:normal;font-stretch:normal;font-family:'Bradley Gratis';-inkscape-font-specification:'Bradley Gratis';text-align:start;text-anchor:start;fill:#00a3f2;fill-opacity:1;stroke-width:0.26458332"
         id="path13426" />
      <path
         d="m 51.391926,149.47549 q 0,0.11994 0.01411,0.18697 0.01764,0.067 0.04233,0.10231 0.02822,0.0317 0.0635,0.0388 0.03528,0.007 0.07056,0.007 0.07056,0 0.116417,-0.0952 0.04586,-0.0988 0.04586,-0.29986 v -1.53106 q 0,-0.15875 -0.01764,-0.25753 -0.01411,-0.1023 -0.04233,-0.15522 -0.02469,-0.0564 -0.05997,-0.0776 -0.03175,-0.0212 -0.0635,-0.0212 -0.06703,0 -0.119944,0.0847 -0.04939,0.0811 -0.04939,0.26106 z m 1.005417,-0.88547 q 0,0.25753 -0.06703,0.508 -0.0635,0.25047 -0.176389,0.44803 -0.109361,0.19755 -0.261056,0.32102 -0.151694,0.11995 -0.321027,0.11995 -0.15875,0 -0.310445,-0.10936 -0.148166,-0.10936 -0.264583,-0.29986 -0.112889,-0.1905 -0.183445,-0.4445 -0.07055,-0.254 -0.07055,-0.54328 0,-0.23636 0.0635,-0.48331 0.06703,-0.25047 0.179917,-0.45155 0.112888,-0.20109 0.264583,-0.32809 0.151694,-0.13052 0.321028,-0.13052 0.148166,0 0.292805,0.10936 0.148167,0.10936 0.264584,0.29986 0.119944,0.18697 0.194027,0.44097 0.07408,0.254 0.07408,0.54328 z"
         style="font-style:normal;font-variant:normal;font-weight:normal;font-stretch:normal;font-family:'Bradley Gratis';-inkscape-font-specification:'Bradley Gratis';text-align:start;text-anchor:start;fill:#00a3f2;fill-opacity:1;stroke-width:0.26458332"
         id="path13428" />
      <path
         d="m 52.551407,149.94821 q 0.04586,-0.27164 0.130528,-0.51153 0.08819,-0.23988 0.194028,-0.45861 0.105833,-0.21872 0.218722,-0.41627 0.116417,-0.20109 0.218722,-0.38806 0.102306,-0.18697 0.179917,-0.36336 0.07761,-0.17992 0.112889,-0.35983 -0.02822,-0.0176 -0.06703,-0.0317 -0.03528,-0.0141 -0.137583,-0.0141 -0.05292,0 -0.09525,0.0282 -0.03881,0.0247 -0.06703,0.0635 -0.02822,0.0353 -0.04586,0.0776 -0.01411,0.0388 -0.01411,0.0635 0,0.0282 0.01058,0.067 0.01411,0.0353 0.02822,0.0705 0.01764,0.0353 0.03528,0.067 0.01764,0.0282 0.03175,0.0423 l -0.430389,0.26811 q -0.08467,-0.0811 -0.144639,-0.19755 -0.05644,-0.11995 -0.05644,-0.23989 0,-0.06 0.03175,-0.14817 0.03175,-0.0882 0.102305,-0.16933 0.07056,-0.0847 0.183445,-0.14111 0.116417,-0.06 0.282222,-0.06 0.130528,0 0.218722,0.0176 0.08819,0.0176 0.155223,0.0423 0.06703,0.0212 0.123472,0.0388 0.05997,0.0176 0.134055,0.0176 0.04586,0 0.09878,-0.007 0.05292,-0.007 0.09878,-0.0212 0.04586,-0.0141 0.08114,-0.0282 0.03881,-0.0176 0.05997,-0.0388 -0.04233,0.22225 -0.134056,0.46214 -0.09172,0.23989 -0.204611,0.47978 -0.109361,0.23989 -0.232833,0.46919 -0.119944,0.22931 -0.22225,0.43039 -0.09878,0.19756 -0.169333,0.35984 -0.06703,0.15875 -0.07408,0.26105 0.141111,0.06 0.239889,0.06 0.0635,0 0.130528,-0.0141 0.06703,-0.0176 0.119944,-0.0529 0.05644,-0.0353 0.09172,-0.0882 0.03528,-0.0564 0.03528,-0.13405 0,-0.0776 -0.01764,-0.127 -0.01411,-0.0529 -0.03881,-0.0847 -0.02469,-0.0353 -0.05644,-0.06 -0.03175,-0.0282 -0.05997,-0.0564 l 0.405695,-0.29986 q 0.141111,0.10583 0.201083,0.22578 0.05997,0.11994 0.05997,0.26105 0,0.067 -0.02117,0.13053 -0.01764,0.06 -0.04586,0.11289 -0.0247,0.0494 -0.05997,0.0917 -0.03175,0.0423 -0.05644,0.067 l 0.05997,0.06 q 0.01764,0.0176 0.03881,0.0529 0.02117,0.0318 0.02117,0.0564 0,0.0282 -0.02469,0.0811 -0.02117,0.0564 -0.08819,0.0988 -0.02469,-0.0318 -0.05644,-0.0564 -0.02822,-0.0212 -0.05997,-0.0388 -0.03175,-0.0176 -0.06703,-0.0176 z"
         style="font-style:normal;font-variant:normal;font-weight:normal;font-stretch:normal;font-family:'Bradley Gratis';-inkscape-font-specification:'Bradley Gratis';text-align:start;text-anchor:start;fill:#00a3f2;fill-opacity:1;stroke-width:0.26458332"
         id="path13430" />
      <path
         d="m 56.057743,147.22124 v 0.381 q -0.03881,-0.0353 -0.102306,-0.0776 -0.05997,-0.0423 -0.130528,-0.0741 -0.06703,-0.0353 -0.134055,-0.0564 -0.06703,-0.0247 -0.112889,-0.0247 -0.08467,0 -0.172861,0.067 -0.08819,0.067 -0.144639,0.17992 -0.05644,0.10936 -0.07408,0.28928 -0.01411,0.17639 -0.01411,0.45508 h 0.903111 l -0.179917,0.40217 q -0.03528,-0.0529 -0.08467,-0.0706 -0.04586,-0.0212 -0.08467,-0.0212 h -0.553861 q 0,0.20108 0.0071,0.39511 0.0071,0.1905 0.04586,0.34219 0.04233,0.1517 0.127,0.24695 0.08467,0.0917 0.243417,0.0917 0.08467,0 0.165805,-0.0317 0.08467,-0.0318 0.155223,-0.0776 0.07055,-0.0494 0.123472,-0.10231 0.05644,-0.0529 0.08819,-0.0952 v 0.508 h -0.47625 q -0.342194,0 -0.553861,-0.11994 -0.211666,-0.12347 -0.331611,-0.32809 -0.116416,-0.20813 -0.15875,-0.47977 -0.03881,-0.27164 -0.03881,-0.56798 0,-0.0741 0.01058,-0.19402 0.01058,-0.12348 0.04586,-0.25753 0.03528,-0.13758 0.102306,-0.27517 0.06703,-0.14111 0.179916,-0.25047 0.116417,-0.11289 0.28575,-0.18344 0.169334,-0.0706 0.409222,-0.0706 z"
         style="font-style:normal;font-variant:normal;font-weight:normal;font-stretch:normal;font-family:'Bradley Gratis';-inkscape-font-specification:'Bradley Gratis';text-align:start;text-anchor:start;fill:#00a3f2;fill-opacity:1;stroke-width:0.26458332"
         id="path13432" />
      <path
         d="m 56.444145,149.94821 v -2.43769 q 0,-0.0988 -0.04233,-0.16581 -0.04233,-0.0705 -0.08467,-0.12347 h 0.684389 v 0.35983 l 0.391583,-0.45508 q 0.179917,0.16228 0.296333,0.32456 0.116417,0.15875 0.183445,0.32102 0.06703,0.15875 0.09172,0.32456 0.02469,0.16228 0.02469,0.33514 0,0.16933 -0.02822,0.32455 -0.02469,0.1517 -0.07408,0.29986 -0.04939,0.14817 -0.119945,0.29987 -0.06703,0.15169 -0.148166,0.3175 h 0.127 q 0.04586,0 0.09525,-0.0317 0.04939,-0.0317 0.09878,-0.0317 v 0.33866 h -0.684389 q 0.09525,-0.19403 0.151694,-0.34925 0.05997,-0.15522 0.09172,-0.29633 0.03175,-0.14111 0.04233,-0.27517 0.01058,-0.13405 0.01058,-0.28575 0,-0.15169 -0.05292,-0.31397 -0.04939,-0.16581 -0.123472,-0.30339 -0.07408,-0.13758 -0.15875,-0.22578 -0.08114,-0.0882 -0.148167,-0.0882 -0.04233,0 -0.06703,0.0212 v 2.11666 z"
         style="font-style:normal;font-variant:normal;font-weight:normal;font-stretch:normal;font-family:'Bradley Gratis';-inkscape-font-specification:'Bradley Gratis';text-align:start;text-anchor:start;fill:#00a3f2;fill-opacity:1;stroke-width:0.26458332"
         id="path13434" />
      <path
         d="m 59.682314,150.06463 q -0.1905,-0.13758 -0.324556,-0.29281 -0.134055,-0.15875 -0.215194,-0.32808 -0.08114,-0.16933 -0.119944,-0.34219 -0.03528,-0.17639 -0.03528,-0.34573 0,-0.1658 0.03528,-0.32808 0.03528,-0.16581 0.09172,-0.32456 0.05997,-0.16227 0.137583,-0.31397 0.07761,-0.15522 0.15875,-0.30339 h -0.02117 q -0.01058,0 -0.02469,0 -0.01058,-0.004 -0.02822,-0.004 -0.05645,0 -0.137584,0.0141 -0.07761,0.0141 -0.151694,0.0705 v -0.34572 h 0.740833 q -0.09172,0.15875 -0.15875,0.32103 -0.0635,0.15875 -0.105833,0.31044 -0.03881,0.14817 -0.05997,0.28222 -0.01764,0.13053 -0.01764,0.23637 0,0.10583 0.02117,0.254 0.02117,0.14816 0.07761,0.30691 0.05997,0.15522 0.15875,0.29634 0.102305,0.14111 0.264583,0.2293 l 0.105833,-0.0776 q -0.0635,-0.11994 -0.09878,-0.22931 -0.03528,-0.11288 -0.05292,-0.21166 -0.01411,-0.0988 -0.01764,-0.17992 -0.0035,-0.0847 -0.0035,-0.15169 0,-0.10936 0.02822,-0.24695 0.02822,-0.13758 0.08114,-0.28575 0.05292,-0.14816 0.127,-0.29986 0.07761,-0.15169 0.172861,-0.29633 -0.134055,0 -0.22225,0.0212 -0.08467,0.0212 -0.144639,0.06 v -0.33867 h 0.762 q -0.0635,0.0882 -0.127,0.20108 -0.05997,0.10936 -0.105833,0.23989 -0.04586,0.127 -0.07408,0.27164 -0.02822,0.14464 -0.02822,0.29633 0,0.25753 0.04586,0.45862 0.04586,0.19755 0.127,0.34925 0.08114,0.15169 0.1905,0.26105 0.109361,0.10936 0.232833,0.18697 v -2.26483 h 0.529167 v 2.12019 q 0,0.0247 -0.03528,0.0706 -0.03528,0.0423 -0.09172,0.0988 -0.05292,0.0564 -0.127,0.12347 -0.07056,0.0635 -0.144639,0.127 -0.176389,0.14817 -0.398639,0.32455 -0.172861,-0.13405 -0.296333,-0.26458 -0.123473,-0.13053 -0.211667,-0.254 z"
         style="font-style:normal;font-variant:normal;font-weight:normal;font-stretch:normal;font-family:'Bradley Gratis';-inkscape-font-specification:'Bradley Gratis';text-align:start;text-anchor:start;fill:#00a3f2;fill-opacity:1;stroke-width:0.26458332"
         id="path13436" />
      <path
         d="m 62.934374,148.25135 v -0.87842 h -0.416278 q -0.0035,0.23637 -0.01411,0.4692 -0.0071,0.2293 -0.01764,0.40922 z m 0.719666,-1.03011 q -0.03881,0.0282 -0.07408,0.0706 -0.03175,0.0423 -0.05645,0.0917 -0.02117,0.0459 -0.03528,0.0917 -0.01411,0.0423 -0.01411,0.0741 v 2.39889 h -0.539749 v -1.32997 h -0.472723 q -0.0035,0.127 -0.03528,0.27869 -0.03175,0.14817 -0.0882,0.29987 -0.05292,0.14816 -0.127,0.28927 -0.07055,0.13759 -0.162278,0.24342 -0.08819,0.10583 -0.1905,0.16933 -0.09878,0.0635 -0.208139,0.0635 -0.07055,0 -0.123472,-0.0423 -0.04939,-0.0423 -0.04939,-0.11994 0,-0.0494 0.03175,-0.0706 0.03175,-0.0247 0.06703,-0.0247 0.03175,0 0.04939,0.0106 0.01764,0.007 0.03175,0.0212 0.01764,0.0106 0.03881,0.0212 0.02117,0.007 0.05997,0.007 0.0635,0 0.102305,-0.0635 0.03881,-0.067 0.0635,-0.17639 0.0247,-0.11289 0.03528,-0.25753 0.01411,-0.14817 0.02117,-0.31044 0.0071,-0.16228 0.01764,-0.32809 0.01058,-0.16933 0.02822,-0.32455 0.02117,-0.18345 0.0635,-0.33514 0.04586,-0.1517 0.09525,-0.26811 0.04939,-0.11642 0.09878,-0.19756 0.04939,-0.0811 0.08467,-0.13053 h -0.07761 q -0.06703,0 -0.123472,0.0212 -0.05644,0.0176 -0.102306,0.0423 -0.04233,0.0212 -0.07761,0.0423 -0.03175,0.0176 -0.05644,0.0176 -0.05997,0 -0.08819,-0.0423 -0.02822,-0.0423 -0.02822,-0.0952 0,-0.0494 0.05292,-0.0917 0.05644,-0.0459 0.155222,-0.0459 z"
         style="font-style:normal;font-variant:normal;font-weight:normal;font-stretch:normal;font-family:'Bradley Gratis';-inkscape-font-specification:'Bradley Gratis';text-align:start;text-anchor:start;fill:#00a3f2;fill-opacity:1;stroke-width:0.26458332"
         id="path13438" />
      <path
         d="m 64.434231,150.07168 q -0.08114,-0.0811 -0.186972,-0.15875 -0.102306,-0.0776 -0.201084,-0.13758 -0.09525,-0.06 -0.169333,-0.1023 -0.07056,-0.0423 -0.08114,-0.0529 0.03528,-0.0423 0.08819,-0.11642 0.05292,-0.0776 0.102305,-0.15169 0.05292,-0.0741 0.09172,-0.13053 0.04233,-0.06 0.05292,-0.0706 0.04939,0.0318 0.134056,0.0882 0.08819,0.0529 0.172861,0.11289 0.08819,0.06 0.15875,0.10936 0.07055,0.0494 0.09172,0.0705 0.04939,-0.0282 0.08114,-0.0741 0.03528,-0.0459 0.03528,-0.14817 0,-0.0882 -0.07408,-0.18697 -0.07055,-0.0988 -0.176389,-0.20814 -0.105833,-0.10936 -0.232833,-0.2293 -0.127,-0.11995 -0.232833,-0.24695 -0.105834,-0.127 -0.179917,-0.25752 -0.07056,-0.13053 -0.07056,-0.26812 0,-0.0988 0.04939,-0.18344 0.05292,-0.0882 0.130528,-0.16228 0.07761,-0.0776 0.169333,-0.13758 0.09525,-0.0635 0.179917,-0.11642 0.08819,-0.0564 0.155222,-0.0988 0.06703,-0.0459 0.09525,-0.0811 0.02117,0.0176 0.09172,0.0882 0.07408,0.067 0.15875,0.14464 0.08467,0.0776 0.15875,0.13758 0.07761,0.06 0.102306,0.06 -0.03528,0.0282 -0.08819,0.0847 -0.04939,0.0529 -0.102306,0.11289 -0.04939,0.06 -0.09172,0.11642 -0.03881,0.0529 -0.05644,0.0811 -0.08114,-0.0353 -0.162277,-0.10584 -0.08114,-0.0705 -0.148167,-0.13758 -0.06703,-0.067 -0.112889,-0.11642 -0.04586,-0.0529 -0.05997,-0.0529 -0.02822,0 -0.04939,0.0317 -0.01764,0.0282 -0.01764,0.067 0,0.0847 0.07408,0.17992 0.07761,0.0952 0.186973,0.20461 0.112888,0.10583 0.243416,0.22578 0.134056,0.11642 0.243417,0.24342 0.112889,0.127 0.186972,0.26458 0.07761,0.13405 0.07761,0.27517 0,0.127 -0.09525,0.26811 -0.09525,0.14111 -0.229305,0.28222 -0.130528,0.13758 -0.268111,0.26458 -0.137584,0.12347 -0.225778,0.21872 z"
         style="font-style:normal;font-variant:normal;font-weight:normal;font-stretch:normal;font-family:'Bradley Gratis';-inkscape-font-specification:'Bradley Gratis';text-align:start;text-anchor:start;fill:#00a3f2;fill-opacity:1;stroke-width:0.26458332"
         id="path13440" />
      <path
         d="m 66.919219,149.47196 q 0,0.13759 -0.05644,0.23989 -0.05644,0.0988 -0.148166,0.16228 -0.08819,0.0635 -0.197556,0.0952 -0.109361,0.0317 -0.215194,0.0317 -0.165806,0 -0.324556,-0.0811 -0.15875,-0.0811 -0.28575,-0.21872 -0.127,-0.14111 -0.204611,-0.32809 -0.07761,-0.1905 -0.07761,-0.40922 0,-0.39158 0.179916,-0.72672 0.179917,-0.33867 0.500945,-0.61383 -0.02822,-0.004 -0.05292,-0.004 -0.02117,-0.004 -0.04586,-0.004 -0.08467,0 -0.179917,0.0282 -0.09525,0.0282 -0.179916,0.0741 -0.08467,0.0423 -0.155222,0.0952 -0.06703,0.0529 -0.102306,0.0988 0.02822,-0.13758 0.105833,-0.27163 0.07761,-0.13406 0.194028,-0.23637 0.116417,-0.1023 0.268111,-0.1658 0.151695,-0.0635 0.331611,-0.0635 0.09172,0 0.194028,0.0282 0.102306,0.0282 0.194028,0.0741 0.09525,0.0423 0.169333,0.0952 0.07408,0.0529 0.112889,0.10231 l -0.289278,0.44097 q -0.176389,-0.17286 -0.381,-0.24694 -0.04586,0.0741 -0.09525,0.17639 -0.04939,0.0988 -0.09172,0.22577 -0.0388,0.127 -0.06703,0.28223 -0.02469,0.15169 -0.02469,0.33161 0,0.16933 0.02469,0.29986 0.02822,0.13053 0.07056,0.22578 0.04233,0.0952 0.09525,0.15875 0.05644,0.0635 0.112889,0.10583 0.134055,0.0952 0.306916,0.10583 0.07056,0 0.162278,-0.0282 0.09525,-0.0317 0.151695,-0.0811 z"
         style="font-style:normal;font-variant:normal;font-weight:normal;font-stretch:normal;font-family:'Bradley Gratis';-inkscape-font-specification:'Bradley Gratis';text-align:start;text-anchor:start;fill:#00a3f2;fill-opacity:1;stroke-width:0.26458332"
         id="path13442" />
      <path
         d="m 68.687463,147.22124 v 0.381 q -0.03881,-0.0353 -0.102306,-0.0776 -0.05997,-0.0423 -0.130527,-0.0741 -0.06703,-0.0353 -0.134056,-0.0564 -0.06703,-0.0247 -0.112889,-0.0247 -0.08467,0 -0.172861,0.067 -0.08819,0.067 -0.144639,0.17992 -0.05644,0.10936 -0.07408,0.28928 -0.01411,0.17639 -0.01411,0.45508 h 0.903111 l -0.179917,0.40217 q -0.03528,-0.0529 -0.08467,-0.0706 -0.04586,-0.0212 -0.08467,-0.0212 h -0.553861 q 0,0.20108 0.0071,0.39511 0.0071,0.1905 0.04586,0.34219 0.04233,0.1517 0.127,0.24695 0.08467,0.0917 0.243417,0.0917 0.08467,0 0.165806,-0.0317 0.08467,-0.0318 0.155222,-0.0776 0.07055,-0.0494 0.123472,-0.10231 0.05644,-0.0529 0.08819,-0.0952 v 0.508 h -0.47625 q -0.342195,0 -0.553862,-0.11994 -0.211666,-0.12347 -0.331611,-0.32809 -0.116416,-0.20813 -0.15875,-0.47977 -0.0388,-0.27164 -0.0388,-0.56798 0,-0.0741 0.01058,-0.19402 0.01058,-0.12348 0.04586,-0.25753 0.03528,-0.13758 0.102306,-0.27517 0.06703,-0.14111 0.179916,-0.25047 0.116417,-0.11289 0.28575,-0.18344 0.169334,-0.0706 0.409223,-0.0706 z"
         style="font-style:normal;font-variant:normal;font-weight:normal;font-stretch:normal;font-family:'Bradley Gratis';-inkscape-font-specification:'Bradley Gratis';text-align:start;text-anchor:start;fill:#00a3f2;fill-opacity:1;stroke-width:0.26458332"
         id="path13444" />
      <path
         d="m 69.966392,147.91621 q -0.08819,-0.21166 -0.151694,-0.35278 -0.0635,-0.14111 -0.09878,-0.14111 -0.0388,0 -0.05292,0.0353 -0.01058,0.0317 -0.01058,0.0564 v 1.91205 q 0,0.0776 -0.04233,0.16228 -0.04233,0.0847 -0.112889,0.14817 0.130528,0 0.232833,-0.0635 0.102306,-0.067 0.211667,-0.14464 0.112889,-0.0811 0.250472,-0.14464 0.137583,-0.067 0.342194,-0.067 v 0.63147 h -1.594555 q 0.04586,-0.067 0.07761,-0.127 0.03528,-0.06 0.05644,-0.11994 0.02117,-0.06 0.03175,-0.127 0.01058,-0.067 0.01058,-0.14817 v -1.66864 q 0,-0.11289 -0.04233,-0.18344 -0.04233,-0.0741 -0.05997,-0.10231 0.01411,-0.004 0.07056,-0.0247 0.05997,-0.0247 0.144639,-0.0565 0.08467,-0.0317 0.186972,-0.067 0.102306,-0.0353 0.201083,-0.0635 0.09878,-0.0318 0.186973,-0.0494 0.08819,-0.0212 0.144638,-0.0212 0.08819,0 0.165806,0.0494 0.07761,0.0494 0.141111,0.12347 0.0635,0.0741 0.109361,0.16581 0.04586,0.0882 0.07408,0.1658 z"
         style="font-style:normal;font-variant:normal;font-weight:normal;font-stretch:normal;font-family:'Bradley Gratis';-inkscape-font-specification:'Bradley Gratis';text-align:start;text-anchor:start;fill:#00a3f2;fill-opacity:1;stroke-width:0.26458332"
         id="path13446" />
      <path
         d="m 72.146559,148.25135 v -0.87842 h -0.416277 q -0.0035,0.23637 -0.01411,0.4692 -0.0071,0.2293 -0.01764,0.40922 z m 0.719667,-1.03011 q -0.03881,0.0282 -0.07408,0.0706 -0.03175,0.0423 -0.05644,0.0917 -0.02117,0.0459 -0.03528,0.0917 -0.01411,0.0423 -0.01411,0.0741 v 2.39889 h -0.53975 v -1.32997 h -0.472722 q -0.0035,0.127 -0.03528,0.27869 -0.03175,0.14817 -0.08819,0.29987 -0.05292,0.14816 -0.127,0.28927 -0.07056,0.13759 -0.162278,0.24342 -0.08819,0.10583 -0.1905,0.16933 -0.09878,0.0635 -0.208139,0.0635 -0.07055,0 -0.123472,-0.0423 -0.04939,-0.0423 -0.04939,-0.11994 0,-0.0494 0.03175,-0.0706 0.03175,-0.0247 0.06703,-0.0247 0.03175,0 0.04939,0.0106 0.01764,0.007 0.03175,0.0212 0.01764,0.0106 0.0388,0.0212 0.02117,0.007 0.05997,0.007 0.0635,0 0.102305,-0.0635 0.03881,-0.067 0.0635,-0.17639 0.0247,-0.11289 0.03528,-0.25753 0.01411,-0.14817 0.02117,-0.31044 0.0071,-0.16228 0.01764,-0.32809 0.01058,-0.16933 0.02822,-0.32455 0.02117,-0.18345 0.0635,-0.33514 0.04586,-0.1517 0.09525,-0.26811 0.04939,-0.11642 0.09878,-0.19756 0.04939,-0.0811 0.08467,-0.13053 h -0.07761 q -0.06703,0 -0.123472,0.0212 -0.05644,0.0176 -0.102306,0.0423 -0.04233,0.0212 -0.07761,0.0423 -0.03175,0.0176 -0.05644,0.0176 -0.05997,0 -0.08819,-0.0423 -0.02822,-0.0423 -0.02822,-0.0952 0,-0.0494 0.05292,-0.0917 0.05644,-0.0459 0.155222,-0.0459 z"
         style="font-style:normal;font-variant:normal;font-weight:normal;font-stretch:normal;font-family:'Bradley Gratis';-inkscape-font-specification:'Bradley Gratis';text-align:start;text-anchor:start;fill:#00a3f2;fill-opacity:1;stroke-width:0.26458332"
         id="path13448" />
      <path
         d="m 73.166638,149.94821 v -2.43769 q 0,-0.0988 -0.04233,-0.16581 -0.04233,-0.0705 -0.08467,-0.12347 h 0.684389 v 0.35983 l 0.391583,-0.45508 q 0.179917,0.16228 0.296333,0.32456 0.116417,0.15875 0.183445,0.32102 0.06703,0.15875 0.09172,0.32456 0.02469,0.16228 0.02469,0.33514 0,0.16933 -0.02822,0.32455 -0.02469,0.1517 -0.07408,0.29986 -0.04939,0.14817 -0.119944,0.29987 -0.06703,0.15169 -0.148167,0.3175 h 0.127 q 0.04586,0 0.09525,-0.0317 0.04939,-0.0317 0.09878,-0.0317 v 0.33866 h -0.684389 q 0.09525,-0.19403 0.151694,-0.34925 0.05997,-0.15522 0.09172,-0.29633 0.03175,-0.14111 0.04233,-0.27517 0.01058,-0.13405 0.01058,-0.28575 0,-0.15169 -0.05292,-0.31397 -0.04939,-0.16581 -0.123472,-0.30339 -0.07408,-0.13758 -0.15875,-0.22578 -0.08114,-0.0882 -0.148166,-0.0882 -0.04233,0 -0.06703,0.0212 v 2.11666 z"
         style="font-style:normal;font-variant:normal;font-weight:normal;font-stretch:normal;font-family:'Bradley Gratis';-inkscape-font-specification:'Bradley Gratis';text-align:start;text-anchor:start;fill:#00a3f2;fill-opacity:1;stroke-width:0.26458332"
         id="path13450" />
      <path
         d="m 75.055542,147.46818 q -0.09172,-0.0388 -0.127,-0.0952 -0.03528,-0.0564 -0.03528,-0.10583 0,-0.0423 0.02822,-0.0529 0.02822,0.0176 0.07761,0.0247 0.04939,0.007 0.112889,0.007 0.03175,0 0.08819,-0.0106 0.05997,-0.0106 0.130528,-0.0212 0.07055,-0.0106 0.144639,-0.0212 0.07761,-0.0106 0.144639,-0.0106 0.162277,0 0.331611,0.0847 0.169333,0.0811 0.303389,0.254 0.134055,0.16933 0.218722,0.43392 0.08819,0.26105 0.08819,0.62441 0,0.30692 -0.05292,0.52917 -0.05292,0.22225 -0.134056,0.37747 -0.08114,0.15523 -0.179917,0.25048 -0.09878,0.0917 -0.194027,0.14463 -0.09172,0.0494 -0.169334,0.067 -0.07408,0.0176 -0.109361,0.0176 -0.05292,0 -0.112889,-0.0141 -0.05997,-0.0141 -0.119944,-0.0317 -0.05644,-0.0176 -0.109361,-0.0318 -0.04939,-0.0141 -0.08467,-0.0141 -0.0388,0 -0.07055,0.0141 -0.03175,0.0106 -0.06703,0.0247 -0.03175,0.0106 -0.07056,0.0247 -0.03881,0.0106 -0.08819,0.0106 -0.01764,0 -0.03881,-0.004 -0.01764,-0.004 -0.03528,-0.0106 -0.01764,-0.007 -0.03528,-0.0176 0.02822,-0.0176 0.05644,-0.06 0.02822,-0.0459 0.05292,-0.0953 0.02822,-0.0529 0.05644,-0.11642 z m 0.518584,2.10256 q 0,0.0741 0.02469,0.11642 0.02822,0.0388 0.05997,0.0564 0.03881,0.0212 0.08467,0.0247 0.08114,0 0.141111,-0.10937 0.0635,-0.10936 0.0635,-0.27869 v -1.54869 q 0,-0.16581 -0.03175,-0.25753 -0.03175,-0.0917 -0.07408,-0.13406 -0.04233,-0.0423 -0.08467,-0.0494 -0.04233,-0.0106 -0.06703,-0.0106 -0.04233,0 -0.08114,0.0564 -0.03528,0.0565 -0.03528,0.14817 z"
         style="font-style:normal;font-variant:normal;font-weight:normal;font-stretch:normal;font-family:'Bradley Gratis';-inkscape-font-specification:'Bradley Gratis';text-align:start;text-anchor:start;fill:#00a3f2;fill-opacity:1;stroke-width:0.26458332"
         id="path13452" />
    </g>
  </g>
</svg>
