<?xml version="1.0" encoding="UTF-8" standalone="no"?>
<!-- Created with Inkscape (http://www.inkscape.org/) -->

<svg
   xmlns:dc="http://purl.org/dc/elements/1.1/"
   xmlns:cc="http://creativecommons.org/ns#"
   xmlns:rdf="http://www.w3.org/1999/02/22-rdf-syntax-ns#"
   xmlns:svg="http://www.w3.org/2000/svg"
   xmlns="http://www.w3.org/2000/svg"
   xmlns:xlink="http://www.w3.org/1999/xlink"
   xmlns:sodipodi="http://sodipodi.sourceforge.net/DTD/sodipodi-0.dtd"
   xmlns:inkscape="http://www.inkscape.org/namespaces/inkscape"
   width="210"
   height="380"
   viewBox="0 0 55.5625 100.54167"
   version="1.1"
   id="svg11003"
   inkscape:version="0.92.2 (5c3e80d, 2017-08-06)"
   sodipodi:docname="PWAlgorithmicExpander.svg">
  <defs
     id="defs10997">
    <linearGradient
       inkscape:collect="always"
       id="linearGradient4047">
      <stop
         style="stop-color:#202022;stop-opacity:1;"
         offset="0"
         id="stop3387" />
      <stop
         style="stop-color:#202025;stop-opacity:1;"
         offset=".3"
         id="stop3388" />
      <stop
         style="stop-color:#08006f;stop-opacity:1;"
         offset="1"
         id="stop3389" />
    </linearGradient>
    <linearGradient
       inkscape:collect="always"
       xlink:href="#linearGradient4047"
       id="linearGradient4049"
       x1="35.418064"
       y1="158.3329"
       x2="35.219627"
       y2="50.462322"
       gradientUnits="userSpaceOnUse"
       gradientTransform="matrix(0.58240964,0,0,1.0014499,14.634062,-0.14648349)" />
  </defs>
  <sodipodi:namedview
     id="base"
     pagecolor="#ffffff"
     bordercolor="#666666"
     borderopacity="1.0"
     inkscape:pageopacity="0.0"
     inkscape:pageshadow="2"
     inkscape:zoom="4.8368421"
     inkscape:cx="173.52178"
     inkscape:cy="193.49025"
     inkscape:document-units="px"
     inkscape:current-layer="layer1"
     showgrid="false"
     fit-margin-top="0"
     fit-margin-left="0"
     fit-margin-right="0"
     fit-margin-bottom="0"
     inkscape:window-width="3840"
     inkscape:window-height="2115"
     inkscape:window-x="-13"
     inkscape:window-y="-13"
     inkscape:window-maximized="1"
     units="px"
     showguides="false" />
  <metadata
     id="metadata11000">
    <rdf:RDF>
      <cc:Work
         rdf:about="">
        <dc:format>image/svg+xml</dc:format>
        <dc:type
           rdf:resource="http://purl.org/dc/dcmitype/StillImage" />
        <dc:title></dc:title>
      </cc:Work>
    </rdf:RDF>
  </metadata>
  <g
     inkscape:label="Layer 1"
     inkscape:groupmode="layer"
     id="layer1"
     transform="translate(-35.146312,-50.389004)">
    <path
       inkscape:connector-curvature="0"
       id="path33493"
       d="M 35.146312,50.389003 H 90.708813 V 150.93067 H 35.146312 Z m 0,0"
       style="fill:url(#linearGradient4049);fill-opacity:1;fill-rule:nonzero;stroke:none;stroke-width:0.32718554"
       inkscape:export-filename="/home/vortico/pics/tmp/LFOs.png"
       inkscape:export-xdpi="150.22649"
       inkscape:export-ydpi="150.22649" />
    <g
       style="font-style:normal;font-weight:normal;font-size:3.52777767px;line-height:1.25;font-family:sans-serif;letter-spacing:0px;word-spacing:0px;fill:#ffffff;fill-opacity:1;stroke:none;stroke-width:0.26458332"
       id="text5097"
       transform="matrix(1.0344827,0,0,1.0014499,-1.2877853,-0.14648349)" />
    <g
       style="font-style:normal;font-variant:normal;font-weight:bold;font-stretch:normal;font-size:3.52777767px;line-height:1.25;font-family:Consolas;-inkscape-font-specification:'Consolas Bold';text-align:center;letter-spacing:0px;word-spacing:0px;text-anchor:middle;fill:#ffffff;fill-opacity:1;stroke:none;stroke-width:0.26458332"
       id="text373"
       transform="matrix(1.0344827,0,0,1.0014499,-1.2877853,-0.14648349)" />
    <g
       style="font-style:normal;font-variant:normal;font-weight:bold;font-stretch:normal;font-size:13.33333302px;line-height:1.25;font-family:Consolas;-inkscape-font-specification:'Consolas Bold';text-align:center;letter-spacing:0px;word-spacing:0px;text-anchor:middle;fill:#ffffff;fill-opacity:1;stroke:none"
       id="flowRoot250"
       transform="matrix(1.0344827,0,0,1.0014499,-1.2877853,-0.14648349)" />
    <g
       style="font-style:normal;font-variant:normal;font-weight:bold;font-stretch:normal;font-size:13.33333302px;line-height:1.25;font-family:Consolas;-inkscape-font-specification:'Consolas Bold';text-align:center;letter-spacing:0px;word-spacing:0px;text-anchor:middle;fill:#ffffff;fill-opacity:1;stroke:none"
       id="flowRoot53665"
       transform="matrix(1.0344827,0,0,1.0014499,-1.2877853,-0.14648349)" />
    <g
       style="font-style:normal;font-variant:normal;font-weight:bold;font-stretch:normal;font-size:3.52777767px;line-height:1.25;font-family:Consolas;-inkscape-font-specification:'Consolas Bold';text-align:center;letter-spacing:0px;word-spacing:0px;text-anchor:middle;fill:#ffffff;fill-opacity:1;stroke:none;stroke-width:0.26458332"
       id="text53994"
       transform="matrix(1.0344827,0,0,1.0014499,-1.2877853,-0.14648349)" />
    <g
       aria-label="FROZEN WASTELAND"
       style="font-style:normal;font-variant:normal;font-weight:bold;font-stretch:normal;font-size:3.52777767px;line-height:1.25;font-family:Consolas;-inkscape-font-specification:'Consolas Bold';text-align:start;letter-spacing:0px;word-spacing:0px;text-anchor:start;fill:#00a3f2;fill-opacity:1;stroke:none;stroke-width:0.26458332"
       id="text3885-7"
       transform="matrix(1.0344827,0,0,1.0014499,-32.692167,-0.14648349)">
      <path
         d="m 77.98351,150.2604 q 0.119944,-0.11995 0.1905,-0.21167 0.07408,-0.0917 0.112889,-0.16933 0.04233,-0.0776 0.05292,-0.14464 0.01411,-0.0706 0.01411,-0.14817 0,-0.0952 -0.04586,-0.22931 -0.04586,-0.13405 -0.102305,-0.28575 -0.05644,-0.15169 -0.102306,-0.31044 -0.04586,-0.15875 -0.04586,-0.30339 0,-0.0776 0.02469,-0.15169 0.02822,-0.0741 0.06703,-0.14111 0.04233,-0.0706 0.09172,-0.13053 0.04939,-0.0635 0.09878,-0.11289 -0.07055,-0.0141 -0.123472,-0.0212 -0.05292,-0.0106 -0.07761,-0.0106 -0.130528,0 -0.22225,0.0706 -0.08819,0.067 -0.1905,0.16934 0,-0.11995 0.03528,-0.24695 0.03881,-0.13052 0.116416,-0.23636 0.07761,-0.10583 0.194028,-0.17286 0.119945,-0.067 0.282222,-0.067 0.112889,0 0.208139,0.0176 0.09878,0.0141 0.179917,0.0353 0.08114,0.0212 0.148166,0.0388 0.06703,0.0141 0.119945,0.0141 0.08114,0 0.141111,-0.0212 0.0635,-0.0247 0.123472,-0.0847 0,0.0776 -0.03175,0.17639 -0.02822,0.0988 -0.08819,0.1905 -0.05644,0.0882 -0.148167,0.1517 -0.09172,0.06 -0.211667,0.06 -0.05997,0 -0.137583,-0.007 -0.07408,-0.0106 -0.155222,-0.0247 -0.0071,0.0247 -0.01058,0.0459 -0.0035,0.0212 -0.0071,0.0388 -0.0035,0.0212 -0.0035,0.0388 0,0.0776 0.01058,0.1517 0.01411,0.0705 0.0388,0.14463 h 0.712611 l -0.08114,0.23989 q -0.01058,0.0459 -0.01411,0.067 -0.0035,0.0212 -0.01058,0.067 l -0.130528,-0.0917 h -0.363361 q 0.07761,0.17639 0.144639,0.35983 0.06703,0.17992 0.06703,0.38453 0,0.18344 -0.07408,0.34219 -0.07408,0.15522 -0.197555,0.27164 -0.119945,0.11642 -0.278695,0.17992 -0.155222,0.067 -0.321027,0.067 z"
         style="font-style:normal;font-variant:normal;font-weight:normal;font-stretch:normal;font-family:'Bradley Gratis';-inkscape-font-specification:'Bradley Gratis';text-align:start;text-anchor:start;stroke-width:0.26458332"
         id="path7125"
         inkscape:connector-curvature="0" />
      <path
         d="m 80.053599,148.53178 q 0.07055,-0.0423 0.137583,-0.0988 0.07055,-0.0564 0.123472,-0.127 0.05644,-0.0706 0.08819,-0.16228 0.03528,-0.0952 0.03528,-0.21167 0,-0.0988 -0.0388,-0.1658 -0.03528,-0.0706 -0.08467,-0.11289 -0.04939,-0.0423 -0.09878,-0.06 -0.04586,-0.0176 -0.07055,-0.0176 -0.02822,0 -0.05292,0.0106 -0.02117,0.0106 -0.0388,0.0247 z m -0.518584,-0.94191 q -0.112889,-0.0635 -0.112889,-0.23636 0.03175,0.0317 0.112889,0.0564 0.08114,0.0212 0.172861,0.0212 0.04586,0 0.130528,-0.0106 0.08467,-0.0141 0.172861,-0.0282 0.09172,-0.0141 0.172861,-0.0247 0.08467,-0.0141 0.130528,-0.0141 0.116417,0 0.232833,0.0353 0.116417,0.0353 0.215195,0.11995 0.09878,0.0847 0.165805,0.2293 0.07056,0.14112 0.09172,0.35984 l -0.627945,0.4445 q 0.07056,0.0282 0.15875,0.0952 0.08819,0.067 0.165806,0.18697 0.08114,0.11994 0.134055,0.30692 0.05292,0.18344 0.05292,0.45155 0,0.23284 0.02117,0.37747 0.02117,0.14464 0.05292,0.23284 0.03175,0.0882 0.06703,0.13053 0.03881,0.0459 0.07056,0.0776 -0.155223,0 -0.275167,-0.0917 -0.119945,-0.0882 -0.211667,-0.23283 -0.09172,-0.14464 -0.162277,-0.32808 -0.06703,-0.18345 -0.123473,-0.37042 -0.05644,-0.18697 -0.105833,-0.35983 -0.04586,-0.17286 -0.09525,-0.29986 -0.02469,0.0176 -0.04939,0.0353 -0.02117,0.0141 -0.0388,0.0317 v 1.31939 h -0.518584 z"
         style="font-style:normal;font-variant:normal;font-weight:normal;font-stretch:normal;font-family:'Bradley Gratis';-inkscape-font-specification:'Bradley Gratis';text-align:start;text-anchor:start;stroke-width:0.26458332"
         id="path7127"
         inkscape:connector-curvature="0" />
      <path
         d="m 81.941345,149.63951 q 0,0.11994 0.01411,0.18697 0.01764,0.067 0.04233,0.1023 0.02822,0.0318 0.0635,0.0388 0.03528,0.007 0.07055,0.007 0.07056,0 0.116417,-0.0952 0.04586,-0.0988 0.04586,-0.29987 v -1.53105 q 0,-0.15875 -0.01764,-0.25753 -0.01411,-0.1023 -0.04233,-0.15522 -0.02469,-0.0564 -0.05997,-0.0776 -0.03175,-0.0212 -0.0635,-0.0212 -0.06703,0 -0.119945,0.0847 -0.04939,0.0811 -0.04939,0.26105 z m 1.005417,-0.88548 q 0,0.25753 -0.06703,0.508 -0.0635,0.25048 -0.176389,0.44803 -0.109361,0.19756 -0.261055,0.32103 -0.151695,0.11994 -0.321028,0.11994 -0.15875,0 -0.310444,-0.10936 -0.148167,-0.10936 -0.264584,-0.29986 -0.112889,-0.1905 -0.183444,-0.4445 -0.07056,-0.254 -0.07056,-0.54328 0,-0.23636 0.0635,-0.4833 0.06703,-0.25047 0.179917,-0.45156 0.112889,-0.20108 0.264583,-0.32808 0.151695,-0.13053 0.321028,-0.13053 0.148167,0 0.292806,0.10936 0.148166,0.10936 0.264583,0.29986 0.119944,0.18698 0.194028,0.44098 0.07408,0.254 0.07408,0.54327 z"
         style="font-style:normal;font-variant:normal;font-weight:normal;font-stretch:normal;font-family:'Bradley Gratis';-inkscape-font-specification:'Bradley Gratis';text-align:start;text-anchor:start;stroke-width:0.26458332"
         id="path7129"
         inkscape:connector-curvature="0" />
      <path
         d="m 83.100827,150.11223 q 0.04586,-0.27164 0.130528,-0.51153 0.08819,-0.23989 0.194027,-0.45861 0.105834,-0.21872 0.218723,-0.41628 0.116416,-0.20108 0.218722,-0.38805 0.102305,-0.18698 0.179916,-0.36336 0.07761,-0.17992 0.112889,-0.35984 -0.02822,-0.0176 -0.06703,-0.0318 -0.03528,-0.0141 -0.137583,-0.0141 -0.05292,0 -0.09525,0.0282 -0.03881,0.0247 -0.06703,0.0635 -0.02822,0.0353 -0.04586,0.0776 -0.01411,0.0388 -0.01411,0.0635 0,0.0282 0.01058,0.067 0.01411,0.0353 0.02822,0.0706 0.01764,0.0353 0.03528,0.067 0.01764,0.0282 0.03175,0.0423 l -0.430388,0.26811 q -0.08467,-0.0811 -0.144639,-0.19756 -0.05644,-0.11994 -0.05644,-0.23988 0,-0.06 0.03175,-0.14817 0.03175,-0.0882 0.102306,-0.16933 0.07055,-0.0847 0.183444,-0.14112 0.116417,-0.06 0.282222,-0.06 0.130528,0 0.218723,0.0176 0.08819,0.0176 0.155222,0.0423 0.06703,0.0212 0.123472,0.0388 0.05997,0.0176 0.134056,0.0176 0.04586,0 0.09878,-0.007 0.05292,-0.007 0.09878,-0.0212 0.04586,-0.0141 0.08114,-0.0282 0.03881,-0.0176 0.05997,-0.0388 -0.04233,0.22225 -0.134055,0.46214 -0.09172,0.23989 -0.204611,0.47978 -0.109361,0.23988 -0.232834,0.46919 -0.119944,0.22931 -0.22225,0.43039 -0.09878,0.19755 -0.169333,0.35983 -0.06703,0.15875 -0.07408,0.26106 0.141111,0.06 0.239889,0.06 0.0635,0 0.130527,-0.0141 0.06703,-0.0176 0.119945,-0.0529 0.05644,-0.0353 0.09172,-0.0882 0.03528,-0.0565 0.03528,-0.13406 0,-0.0776 -0.01764,-0.127 -0.01411,-0.0529 -0.03881,-0.0847 -0.02469,-0.0353 -0.05644,-0.06 -0.03175,-0.0282 -0.05997,-0.0564 l 0.405694,-0.29986 q 0.141111,0.10583 0.201083,0.22578 0.05997,0.11994 0.05997,0.26105 0,0.067 -0.02117,0.13053 -0.01764,0.06 -0.04586,0.11289 -0.0247,0.0494 -0.05997,0.0917 -0.03175,0.0423 -0.05644,0.067 l 0.05997,0.06 q 0.01764,0.0176 0.03881,0.0529 0.02117,0.0317 0.02117,0.0564 0,0.0282 -0.02469,0.0811 -0.02117,0.0564 -0.08819,0.0988 -0.02469,-0.0318 -0.05644,-0.0565 -0.02822,-0.0212 -0.05997,-0.0388 -0.03175,-0.0176 -0.06703,-0.0176 z"
         style="font-style:normal;font-variant:normal;font-weight:normal;font-stretch:normal;font-family:'Bradley Gratis';-inkscape-font-specification:'Bradley Gratis';text-align:start;text-anchor:start;stroke-width:0.26458332"
         id="path7131"
         inkscape:connector-curvature="0" />
      <path
         d="m 86.607162,147.38526 v 0.381 q -0.0388,-0.0353 -0.102305,-0.0776 -0.05997,-0.0423 -0.130528,-0.0741 -0.06703,-0.0353 -0.134056,-0.0564 -0.06703,-0.0247 -0.112889,-0.0247 -0.08467,0 -0.172861,0.067 -0.08819,0.067 -0.144639,0.17992 -0.05644,0.10936 -0.07408,0.28928 -0.01411,0.17638 -0.01411,0.45508 h 0.903111 l -0.179917,0.40217 q -0.03528,-0.0529 -0.08467,-0.0706 -0.04586,-0.0212 -0.08467,-0.0212 H 85.72169 q 0,0.20109 0.0071,0.39511 0.0071,0.1905 0.04586,0.3422 0.04233,0.15169 0.127,0.24694 0.08467,0.0917 0.243416,0.0917 0.08467,0 0.165806,-0.0317 0.08467,-0.0318 0.155222,-0.0776 0.07056,-0.0494 0.123472,-0.1023 0.05644,-0.0529 0.08819,-0.0952 v 0.508 h -0.47625 q -0.342195,0 -0.553861,-0.11995 -0.211667,-0.12347 -0.331611,-0.32808 -0.116417,-0.20814 -0.15875,-0.47978 -0.03881,-0.27164 -0.03881,-0.56797 0,-0.0741 0.01058,-0.19403 0.01058,-0.12347 0.04586,-0.25752 0.03528,-0.13759 0.102306,-0.27517 0.06703,-0.14111 0.179917,-0.25047 0.116416,-0.11289 0.28575,-0.18345 0.169333,-0.0706 0.409222,-0.0706 z"
         style="font-style:normal;font-variant:normal;font-weight:normal;font-stretch:normal;font-family:'Bradley Gratis';-inkscape-font-specification:'Bradley Gratis';text-align:start;text-anchor:start;stroke-width:0.26458332"
         id="path7133"
         inkscape:connector-curvature="0" />
      <path
         d="m 86.993564,150.11223 v -2.4377 q 0,-0.0988 -0.04233,-0.1658 -0.04233,-0.0706 -0.08467,-0.12347 h 0.684389 v 0.35983 l 0.391583,-0.45508 q 0.179917,0.16227 0.296334,0.32455 0.116416,0.15875 0.183444,0.32103 0.06703,0.15875 0.09172,0.32456 0.02469,0.16227 0.02469,0.33513 0,0.16934 -0.02822,0.32456 -0.02469,0.15169 -0.07408,0.29986 -0.04939,0.14817 -0.119944,0.29986 -0.06703,0.1517 -0.148167,0.3175 h 0.127 q 0.04586,0 0.09525,-0.0318 0.04939,-0.0317 0.09878,-0.0317 v 0.33867 h -0.684389 q 0.09525,-0.19403 0.151695,-0.34925 0.05997,-0.15522 0.09172,-0.29633 0.03175,-0.14112 0.04233,-0.27517 0.01058,-0.13406 0.01058,-0.28575 0,-0.1517 -0.05292,-0.31397 -0.04939,-0.16581 -0.123472,-0.30339 -0.07408,-0.13759 -0.15875,-0.22578 -0.08114,-0.0882 -0.148167,-0.0882 -0.04233,0 -0.06703,0.0212 v 2.11667 z"
         style="font-style:normal;font-variant:normal;font-weight:normal;font-stretch:normal;font-family:'Bradley Gratis';-inkscape-font-specification:'Bradley Gratis';text-align:start;text-anchor:start;stroke-width:0.26458332"
         id="path7135"
         inkscape:connector-curvature="0" />
      <path
         d="m 90.231733,150.22865 q -0.1905,-0.13759 -0.324555,-0.29281 -0.134056,-0.15875 -0.215195,-0.32808 -0.08114,-0.16934 -0.119944,-0.3422 -0.03528,-0.17639 -0.03528,-0.34572 0,-0.16581 0.03528,-0.32808 0.03528,-0.16581 0.09172,-0.32456 0.05997,-0.16228 0.137583,-0.31397 0.07761,-0.15522 0.15875,-0.30339 h -0.02117 q -0.01058,0 -0.0247,0 -0.01058,-0.004 -0.02822,-0.004 -0.05644,0 -0.137583,0.0141 -0.07761,0.0141 -0.151695,0.0706 v -0.34572 h 0.740834 q -0.09172,0.15875 -0.15875,0.32102 -0.0635,0.15875 -0.105834,0.31045 -0.0388,0.14817 -0.05997,0.28222 -0.01764,0.13053 -0.01764,0.23636 0,0.10584 0.02117,0.254 0.02117,0.14817 0.07761,0.30692 0.05997,0.15522 0.15875,0.29633 0.102306,0.14111 0.264583,0.22931 l 0.105834,-0.0776 q -0.0635,-0.11995 -0.09878,-0.22931 -0.03528,-0.11289 -0.05292,-0.21167 -0.01411,-0.0988 -0.01764,-0.17991 -0.0035,-0.0847 -0.0035,-0.1517 0,-0.10936 0.02822,-0.24694 0.02822,-0.13758 0.08114,-0.28575 0.05292,-0.14817 0.127,-0.29986 0.07761,-0.1517 0.172861,-0.29634 -0.134056,0 -0.22225,0.0212 -0.08467,0.0212 -0.144639,0.06 v -0.33866 h 0.762 q -0.0635,0.0882 -0.127,0.20108 -0.05997,0.10936 -0.105833,0.23989 -0.04586,0.127 -0.07408,0.27164 -0.02822,0.14464 -0.02822,0.29633 0,0.25753 0.04586,0.45861 0.04586,0.19756 0.127,0.34925 0.08114,0.1517 0.1905,0.26106 0.109361,0.10936 0.232833,0.18697 v -2.26483 h 0.529167 v 2.12019 q 0,0.0247 -0.03528,0.0706 -0.03528,0.0423 -0.09172,0.0988 -0.05292,0.0565 -0.127,0.12348 -0.07055,0.0635 -0.144639,0.127 -0.176389,0.14816 -0.398639,0.32455 -0.172861,-0.13405 -0.296333,-0.26458 -0.123472,-0.13053 -0.211667,-0.254 z"
         style="font-style:normal;font-variant:normal;font-weight:normal;font-stretch:normal;font-family:'Bradley Gratis';-inkscape-font-specification:'Bradley Gratis';text-align:start;text-anchor:start;stroke-width:0.26458332"
         id="path7137"
         inkscape:connector-curvature="0" />
      <path
         d="m 93.483793,148.41537 v -0.87842 h -0.416278 q -0.0035,0.23636 -0.01411,0.4692 -0.0071,0.2293 -0.01764,0.40922 z m 0.719667,-1.03011 q -0.03881,0.0282 -0.07408,0.0706 -0.03175,0.0423 -0.05644,0.0917 -0.02117,0.0459 -0.03528,0.0917 -0.01411,0.0423 -0.01411,0.0741 v 2.39889 H 93.4838 v -1.32997 h -0.472722 q -0.0035,0.127 -0.03528,0.27869 -0.03175,0.14817 -0.08819,0.29986 -0.05292,0.14817 -0.127,0.28928 -0.07055,0.13758 -0.162277,0.24342 -0.08819,0.10583 -0.1905,0.16933 -0.09878,0.0635 -0.208139,0.0635 -0.07056,0 -0.123472,-0.0423 -0.04939,-0.0423 -0.04939,-0.11995 0,-0.0494 0.03175,-0.0705 0.03175,-0.0247 0.06703,-0.0247 0.03175,0 0.04939,0.0106 0.01764,0.007 0.03175,0.0212 0.01764,0.0106 0.03881,0.0212 0.02117,0.007 0.05997,0.007 0.0635,0 0.102306,-0.0635 0.0388,-0.067 0.0635,-0.17638 0.02469,-0.11289 0.03528,-0.25753 0.01411,-0.14817 0.02117,-0.31045 0.0071,-0.16227 0.01764,-0.32808 0.01058,-0.16933 0.02822,-0.32456 0.02117,-0.18344 0.0635,-0.33513 0.04586,-0.1517 0.09525,-0.26812 0.04939,-0.11641 0.09878,-0.19755 0.04939,-0.0811 0.08467,-0.13053 h -0.07761 q -0.06703,0 -0.123473,0.0212 -0.05644,0.0176 -0.102305,0.0423 -0.04233,0.0212 -0.07761,0.0423 -0.03175,0.0176 -0.05644,0.0176 -0.05997,0 -0.08819,-0.0423 -0.02822,-0.0423 -0.02822,-0.0952 0,-0.0494 0.05292,-0.0917 0.05644,-0.0459 0.155222,-0.0459 z"
         style="font-style:normal;font-variant:normal;font-weight:normal;font-stretch:normal;font-family:'Bradley Gratis';-inkscape-font-specification:'Bradley Gratis';text-align:start;text-anchor:start;stroke-width:0.26458332"
         id="path7139"
         inkscape:connector-curvature="0" />
      <path
         d="m 94.98365,150.2357 q -0.08114,-0.0811 -0.186972,-0.15875 -0.102306,-0.0776 -0.201083,-0.13758 -0.09525,-0.06 -0.169334,-0.10231 -0.07055,-0.0423 -0.08114,-0.0529 0.03528,-0.0423 0.08819,-0.11642 0.05292,-0.0776 0.102305,-0.1517 0.05292,-0.0741 0.09172,-0.13052 0.04233,-0.06 0.05292,-0.0706 0.04939,0.0317 0.134056,0.0882 0.08819,0.0529 0.172861,0.11288 0.08819,0.06 0.15875,0.10937 0.07056,0.0494 0.09172,0.0705 0.04939,-0.0282 0.08114,-0.0741 0.03528,-0.0459 0.03528,-0.14817 0,-0.0882 -0.07408,-0.18697 -0.07056,-0.0988 -0.176389,-0.20814 -0.105834,-0.10936 -0.232834,-0.22931 -0.127,-0.11994 -0.232833,-0.24694 -0.105833,-0.127 -0.179917,-0.25753 -0.07055,-0.13053 -0.07055,-0.26811 0,-0.0988 0.04939,-0.18344 0.05292,-0.0882 0.130527,-0.16228 0.07761,-0.0776 0.169334,-0.13758 0.09525,-0.0635 0.179916,-0.11642 0.08819,-0.0564 0.155223,-0.0988 0.06703,-0.0459 0.09525,-0.0811 0.02117,0.0176 0.09172,0.0882 0.07408,0.067 0.15875,0.14464 0.08467,0.0776 0.15875,0.13758 0.07761,0.06 0.102305,0.06 -0.03528,0.0282 -0.08819,0.0847 -0.04939,0.0529 -0.102306,0.11289 -0.04939,0.06 -0.09172,0.11641 -0.0388,0.0529 -0.05644,0.0811 -0.08114,-0.0353 -0.162278,-0.10583 -0.08114,-0.0706 -0.148167,-0.13758 -0.06703,-0.067 -0.112889,-0.11642 -0.04586,-0.0529 -0.05997,-0.0529 -0.02822,0 -0.04939,0.0317 -0.01764,0.0282 -0.01764,0.067 0,0.0847 0.07408,0.17992 0.07761,0.0953 0.186972,0.20461 0.112889,0.10583 0.243417,0.22578 0.134055,0.11641 0.243416,0.24341 0.112889,0.127 0.186973,0.26459 0.07761,0.13405 0.07761,0.27516 0,0.127 -0.09525,0.26811 -0.09525,0.14111 -0.229306,0.28223 -0.130528,0.13758 -0.268111,0.26458 -0.137583,0.12347 -0.225778,0.21872 z"
         style="font-style:normal;font-variant:normal;font-weight:normal;font-stretch:normal;font-family:'Bradley Gratis';-inkscape-font-specification:'Bradley Gratis';text-align:start;text-anchor:start;stroke-width:0.26458332"
         id="path7141"
         inkscape:connector-curvature="0" />
      <path
         d="m 97.468638,149.63598 q 0,0.13758 -0.05644,0.23989 -0.05644,0.0988 -0.148167,0.16228 -0.08819,0.0635 -0.197556,0.0952 -0.109361,0.0318 -0.215194,0.0318 -0.165806,0 -0.324556,-0.0811 -0.15875,-0.0811 -0.28575,-0.21873 -0.127,-0.14111 -0.204611,-0.32808 -0.07761,-0.1905 -0.07761,-0.40922 0,-0.39158 0.179917,-0.72672 0.179917,-0.33867 0.500944,-0.61384 -0.02822,-0.004 -0.05292,-0.004 -0.02117,-0.004 -0.04586,-0.004 -0.08467,0 -0.179917,0.0282 -0.09525,0.0282 -0.179917,0.0741 -0.08467,0.0423 -0.155222,0.0953 -0.06703,0.0529 -0.102306,0.0988 0.02822,-0.13758 0.105834,-0.27164 0.07761,-0.13405 0.194028,-0.23636 0.116416,-0.1023 0.268111,-0.1658 0.151694,-0.0635 0.331611,-0.0635 0.09172,0 0.194028,0.0282 0.102305,0.0282 0.194027,0.0741 0.09525,0.0423 0.169334,0.0952 0.07408,0.0529 0.112889,0.10231 l -0.289278,0.44097 q -0.176389,-0.17286 -0.381,-0.24695 -0.04586,0.0741 -0.09525,0.17639 -0.04939,0.0988 -0.09172,0.22578 -0.03881,0.127 -0.06703,0.28222 -0.0247,0.1517 -0.0247,0.33161 0,0.16934 0.0247,0.29987 0.02822,0.13052 0.07055,0.22577 0.04233,0.0952 0.09525,0.15875 0.05644,0.0635 0.112889,0.10584 0.134056,0.0952 0.306917,0.10583 0.07055,0 0.162278,-0.0282 0.09525,-0.0317 0.151694,-0.0811 z"
         style="font-style:normal;font-variant:normal;font-weight:normal;font-stretch:normal;font-family:'Bradley Gratis';-inkscape-font-specification:'Bradley Gratis';text-align:start;text-anchor:start;stroke-width:0.26458332"
         id="path7143"
         inkscape:connector-curvature="0" />
      <path
         d="m 99.236882,147.38526 v 0.381 q -0.0388,-0.0353 -0.102305,-0.0776 -0.05997,-0.0423 -0.130528,-0.0741 -0.06703,-0.0353 -0.134055,-0.0564 -0.06703,-0.0247 -0.112889,-0.0247 -0.08467,0 -0.172861,0.067 -0.08819,0.067 -0.144639,0.17992 -0.05644,0.10936 -0.07408,0.28928 -0.01411,0.17638 -0.01411,0.45508 h 0.903111 l -0.179916,0.40217 q -0.03528,-0.0529 -0.08467,-0.0706 -0.04586,-0.0212 -0.08467,-0.0212 h -0.55386 q 0,0.20109 0.0071,0.39511 0.0071,0.1905 0.04586,0.3422 0.04233,0.15169 0.127,0.24694 0.08467,0.0917 0.243417,0.0917 0.08467,0 0.165805,-0.0317 0.08467,-0.0318 0.155222,-0.0776 0.07056,-0.0494 0.123473,-0.1023 0.05644,-0.0529 0.08819,-0.0952 v 0.508 h -0.47625 q -0.342194,0 -0.553861,-0.11995 -0.211667,-0.12347 -0.331611,-0.32808 -0.116417,-0.20814 -0.15875,-0.47978 -0.03881,-0.27164 -0.03881,-0.56797 0,-0.0741 0.01058,-0.19403 0.01058,-0.12347 0.04586,-0.25752 0.03528,-0.13759 0.102305,-0.27517 0.06703,-0.14111 0.179917,-0.25047 0.116417,-0.11289 0.28575,-0.18345 0.169333,-0.0706 0.409222,-0.0706 z"
         style="font-style:normal;font-variant:normal;font-weight:normal;font-stretch:normal;font-family:'Bradley Gratis';-inkscape-font-specification:'Bradley Gratis';text-align:start;text-anchor:start;stroke-width:0.26458332"
         id="path7145"
         inkscape:connector-curvature="0" />
      <path
         d="m 100.51581,148.08023 q -0.0882,-0.21167 -0.15169,-0.35278 -0.0635,-0.14111 -0.0988,-0.14111 -0.0388,0 -0.0529,0.0353 -0.0106,0.0317 -0.0106,0.0564 v 1.91206 q 0,0.0776 -0.0423,0.16228 -0.0423,0.0847 -0.11289,0.14816 0.13053,0 0.23283,-0.0635 0.10231,-0.067 0.21167,-0.14464 0.11289,-0.0811 0.25047,-0.14464 0.13758,-0.067 0.34219,-0.067 v 0.63147 h -1.594552 q 0.04586,-0.067 0.07761,-0.127 0.03528,-0.06 0.05644,-0.11995 0.02117,-0.06 0.03175,-0.127 0.01058,-0.067 0.01058,-0.14816 v -1.66864 q 0,-0.11289 -0.04233,-0.18345 -0.04233,-0.0741 -0.05997,-0.1023 0.01411,-0.004 0.07055,-0.0247 0.05997,-0.0247 0.144639,-0.0564 0.08467,-0.0317 0.186972,-0.067 0.102301,-0.0353 0.201081,-0.0635 0.0988,-0.0317 0.18697,-0.0494 0.0882,-0.0212 0.14464,-0.0212 0.0882,0 0.16581,0.0494 0.0776,0.0494 0.14111,0.12347 0.0635,0.0741 0.10936,0.1658 0.0459,0.0882 0.0741,0.16581 z"
         style="font-style:normal;font-variant:normal;font-weight:normal;font-stretch:normal;font-family:'Bradley Gratis';-inkscape-font-specification:'Bradley Gratis';text-align:start;text-anchor:start;stroke-width:0.26458332"
         id="path7147"
         inkscape:connector-curvature="0" />
      <path
         d="m 102.69598,148.41537 v -0.87842 h -0.41628 q -0.004,0.23636 -0.0141,0.4692 -0.007,0.2293 -0.0176,0.40922 z m 0.71967,-1.03011 q -0.0388,0.0282 -0.0741,0.0706 -0.0318,0.0423 -0.0564,0.0917 -0.0212,0.0459 -0.0353,0.0917 -0.0141,0.0423 -0.0141,0.0741 v 2.39889 H 102.696 v -1.32997 h -0.47272 q -0.004,0.127 -0.0353,0.27869 -0.0318,0.14817 -0.0882,0.29986 -0.0529,0.14817 -0.127,0.28928 -0.0705,0.13758 -0.16227,0.24342 -0.0882,0.10583 -0.1905,0.16933 -0.0988,0.0635 -0.20814,0.0635 -0.0706,0 -0.12347,-0.0423 -0.0494,-0.0423 -0.0494,-0.11995 0,-0.0494 0.0318,-0.0705 0.0318,-0.0247 0.067,-0.0247 0.0318,0 0.0494,0.0106 0.0176,0.007 0.0318,0.0212 0.0176,0.0106 0.0388,0.0212 0.0212,0.007 0.06,0.007 0.0635,0 0.10231,-0.0635 0.0388,-0.067 0.0635,-0.17638 0.0247,-0.11289 0.0353,-0.25753 0.0141,-0.14817 0.0212,-0.31045 0.007,-0.16227 0.0176,-0.32808 0.0106,-0.16933 0.0282,-0.32456 0.0212,-0.18344 0.0635,-0.33513 0.0459,-0.1517 0.0952,-0.26812 0.0494,-0.11641 0.0988,-0.19755 0.0494,-0.0811 0.0847,-0.13053 h -0.0776 q -0.067,0 -0.12348,0.0212 -0.0564,0.0176 -0.1023,0.0423 -0.0423,0.0212 -0.0776,0.0423 -0.0318,0.0176 -0.0564,0.0176 -0.06,0 -0.0882,-0.0423 -0.0282,-0.0423 -0.0282,-0.0952 0,-0.0494 0.0529,-0.0917 0.0564,-0.0459 0.15522,-0.0459 z"
         style="font-style:normal;font-variant:normal;font-weight:normal;font-stretch:normal;font-family:'Bradley Gratis';-inkscape-font-specification:'Bradley Gratis';text-align:start;text-anchor:start;stroke-width:0.26458332"
         id="path7149"
         inkscape:connector-curvature="0" />
      <path
         d="m 103.71606,150.11223 v -2.4377 q 0,-0.0988 -0.0423,-0.1658 -0.0423,-0.0706 -0.0847,-0.12347 h 0.68439 v 0.35983 l 0.39158,-0.45508 q 0.17992,0.16227 0.29633,0.32455 0.11642,0.15875 0.18345,0.32103 0.067,0.15875 0.0917,0.32456 0.0247,0.16227 0.0247,0.33513 0,0.16934 -0.0282,0.32456 -0.0247,0.15169 -0.0741,0.29986 -0.0494,0.14817 -0.11995,0.29986 -0.067,0.1517 -0.14816,0.3175 h 0.127 q 0.0459,0 0.0953,-0.0318 0.0494,-0.0317 0.0988,-0.0317 v 0.33867 h -0.68439 q 0.0952,-0.19403 0.15169,-0.34925 0.06,-0.15522 0.0917,-0.29633 0.0318,-0.14112 0.0423,-0.27517 0.0106,-0.13406 0.0106,-0.28575 0,-0.1517 -0.0529,-0.31397 -0.0494,-0.16581 -0.12347,-0.30339 -0.0741,-0.13759 -0.15875,-0.22578 -0.0811,-0.0882 -0.14817,-0.0882 -0.0423,0 -0.067,0.0212 v 2.11667 z"
         style="font-style:normal;font-variant:normal;font-weight:normal;font-stretch:normal;font-family:'Bradley Gratis';-inkscape-font-specification:'Bradley Gratis';text-align:start;text-anchor:start;stroke-width:0.26458332"
         id="path7151"
         inkscape:connector-curvature="0" />
      <path
         d="m 105.60496,147.6322 q -0.0917,-0.0388 -0.127,-0.0953 -0.0353,-0.0564 -0.0353,-0.10583 0,-0.0423 0.0282,-0.0529 0.0282,0.0176 0.0776,0.0247 0.0494,0.007 0.11289,0.007 0.0318,0 0.0882,-0.0106 0.06,-0.0106 0.13053,-0.0212 0.0706,-0.0106 0.14464,-0.0212 0.0776,-0.0106 0.14464,-0.0106 0.16227,0 0.33161,0.0847 0.16933,0.0811 0.30339,0.254 0.13405,0.16933 0.21872,0.43391 0.0882,0.26106 0.0882,0.62442 0,0.30692 -0.0529,0.52917 -0.0529,0.22225 -0.13406,0.37747 -0.0811,0.15522 -0.17992,0.25047 -0.0988,0.0917 -0.19402,0.14464 -0.0917,0.0494 -0.16934,0.067 -0.0741,0.0176 -0.10936,0.0176 -0.0529,0 -0.11289,-0.0141 -0.06,-0.0141 -0.11994,-0.0317 -0.0565,-0.0176 -0.10936,-0.0318 -0.0494,-0.0141 -0.0847,-0.0141 -0.0388,0 -0.0705,0.0141 -0.0318,0.0106 -0.067,0.0247 -0.0317,0.0106 -0.0706,0.0247 -0.0388,0.0106 -0.0882,0.0106 -0.0176,0 -0.0388,-0.004 -0.0176,-0.004 -0.0353,-0.0106 -0.0176,-0.007 -0.0353,-0.0176 0.0282,-0.0176 0.0564,-0.06 0.0282,-0.0459 0.0529,-0.0952 0.0282,-0.0529 0.0564,-0.11642 z m 0.51858,2.10256 q 0,0.0741 0.0247,0.11641 0.0282,0.0388 0.06,0.0565 0.0388,0.0212 0.0847,0.0247 0.0811,0 0.14111,-0.10936 0.0635,-0.10936 0.0635,-0.27869 v -1.5487 q 0,-0.1658 -0.0318,-0.25753 -0.0318,-0.0917 -0.0741,-0.13405 -0.0423,-0.0423 -0.0847,-0.0494 -0.0423,-0.0106 -0.067,-0.0106 -0.0423,0 -0.0811,0.0564 -0.0353,0.0565 -0.0353,0.14817 z"
         style="font-style:normal;font-variant:normal;font-weight:normal;font-stretch:normal;font-family:'Bradley Gratis';-inkscape-font-specification:'Bradley Gratis';text-align:start;text-anchor:start;stroke-width:0.26458332"
         id="path7153"
         inkscape:connector-curvature="0" />
    </g>
    <g
       transform="matrix(1.0344827,0,0,1.0014499,-1.2877853,-0.14648349)"
       style="font-style:normal;font-variant:normal;font-weight:bold;font-stretch:normal;font-size:13.33333302px;line-height:1.25;font-family:Consolas;-inkscape-font-specification:'Consolas Bold';text-align:center;letter-spacing:0px;word-spacing:0px;text-anchor:middle;fill:#000000;fill-opacity:1;stroke:none"
       id="flowRoot2363" />
    <g
       aria-label="PW - ALGORITHMIC EXPANDER"
       transform="scale(1.0163587,0.9839046)"
       style="font-style:normal;font-variant:normal;font-weight:bold;font-stretch:normal;font-size:3.59068608px;line-height:1.25;font-family:Consolas;-inkscape-font-specification:'Consolas Bold';text-align:start;letter-spacing:0px;word-spacing:0px;text-anchor:start;fill:#ffffff;fill-opacity:1;stroke:none;stroke-width:0.26930144"
       id="text3885">
      <path
         d="m 41.956967,52.654558 v 1.026937 h 0.252784 q 0.225136,0 0.347579,-0.154041 0.126392,-0.15404 0.126392,-0.398925 0,-0.473971 -0.473971,-0.473971 z m 1.074333,0.473971 q 0,0.383126 -0.209337,0.600363 -0.205387,0.213286 -0.588513,0.213286 h -0.276483 v 1.216525 h -0.347579 v -2.764828 h 0.699107 q 0.722805,0 0.722805,0.734654 z"
         style="font-style:normal;font-variant:normal;font-weight:bold;font-stretch:normal;font-size:3.94975471px;font-family:Homenaje;-inkscape-font-specification:'Homenaje Bold';text-align:start;text-anchor:start;fill:#ffffff;fill-opacity:1;stroke-width:0.26930144"
         id="path3173" />
      <path
         d="m 44.453706,53.11273 h 0.371276 l 0.371277,1.710244 0.466071,-2.429099 h 0.343629 l -0.572714,2.764828 h -0.466071 l -0.32388,-1.654947 -0.31993,1.654947 h -0.466071 l -0.584564,-2.764828 h 0.343629 l 0.47002,2.429099 z"
         style="font-style:normal;font-variant:normal;font-weight:bold;font-stretch:normal;font-size:3.94975471px;font-family:Homenaje;-inkscape-font-specification:'Homenaje Bold';text-align:start;text-anchor:start;fill:#ffffff;fill-opacity:1;stroke-width:0.26930144"
         id="path3175" />
      <path
         d="m 46.779432,54.39245 v -0.260683 h 0.916343 v 0.260683 z"
         style="font-style:normal;font-variant:normal;font-weight:bold;font-stretch:normal;font-size:3.94975471px;font-family:Homenaje;-inkscape-font-specification:'Homenaje Bold';text-align:start;text-anchor:start;fill:#ffffff;fill-opacity:1;stroke-width:0.26930144"
         id="path3177" />
      <path
         d="m 49.013327,52.393875 h 0.525318 l 0.600362,2.764828 h -0.32388 l -0.193538,-0.81365 h -0.718855 l -0.177739,0.81365 h -0.335729 z m 0.549016,1.682595 -0.284382,-1.421912 h -0.02765 L 48.96198,54.07647 Z"
         style="font-style:normal;font-variant:normal;font-weight:bold;font-stretch:normal;font-size:3.94975471px;font-family:Homenaje;-inkscape-font-specification:'Homenaje Bold';text-align:start;text-anchor:start;fill:#ffffff;fill-opacity:1;stroke-width:0.26930144"
         id="path3179" />
      <path
         d="m 50.504051,55.158703 v -2.764828 h 0.347579 v 2.504144 h 0.809699 v 0.260684 z"
         style="font-style:normal;font-variant:normal;font-weight:bold;font-stretch:normal;font-size:3.94975471px;font-family:Homenaje;-inkscape-font-specification:'Homenaje Bold';text-align:start;text-anchor:start;fill:#ffffff;fill-opacity:1;stroke-width:0.26930144"
         id="path3181" />
      <path
         d="m 53.335655,55.158703 h -0.699106 q -0.359428,0 -0.556916,-0.181689 -0.197488,-0.181689 -0.197488,-0.533217 V 53.10483 q 0,-0.347578 0.213287,-0.529267 0.213287,-0.181688 0.580614,-0.181688 h 0.580614 v 0.264633 h -0.620111 q -0.181689,0 -0.296232,0.106643 -0.110593,0.102694 -0.110593,0.276483 v 1.473259 q 0,0.177739 0.106643,0.280432 0.106644,0.102694 0.284383,0.102694 h 0.367327 v -1.086183 h -0.355478 v -0.260683 h 0.703056 z"
         style="font-style:normal;font-variant:normal;font-weight:bold;font-stretch:normal;font-size:3.94975471px;font-family:Homenaje;-inkscape-font-specification:'Homenaje Bold';text-align:start;text-anchor:start;fill:#ffffff;fill-opacity:1;stroke-width:0.26930144"
         id="path3183" />
      <path
         d="m 55.215492,54.475395 q 0,0.335729 -0.193538,0.525318 -0.193538,0.185638 -0.564815,0.185638 -0.367328,0 -0.560866,-0.185638 -0.193538,-0.189589 -0.193538,-0.525318 v -1.398213 q 0,-0.335729 0.193538,-0.521368 0.193538,-0.189588 0.560866,-0.189588 0.371277,0 0.564815,0.189588 0.193538,0.185639 0.193538,0.521368 z m -1.165178,0.06715 q 0,0.181689 0.114543,0.284382 0.118492,0.09874 0.292282,0.09874 0.173789,0 0.292281,-0.09874 0.118493,-0.102693 0.118493,-0.284382 v -1.532505 q 0,-0.181688 -0.118493,-0.280432 -0.118492,-0.102694 -0.292281,-0.102694 -0.17379,0 -0.292282,0.102694 -0.114543,0.09874 -0.114543,0.280432 z"
         style="font-style:normal;font-variant:normal;font-weight:bold;font-stretch:normal;font-size:3.94975471px;font-family:Homenaje;-inkscape-font-specification:'Homenaje Bold';text-align:start;text-anchor:start;fill:#ffffff;fill-opacity:1;stroke-width:0.26930144"
         id="path3185" />
      <path
         d="m 56.020254,52.654558 v 1.030886 h 0.280432 q 0.225136,0 0.347579,-0.15404 0.126392,-0.15799 0.126392,-0.402875 0,-0.473971 -0.473971,-0.473971 z m -0.0079,1.29157 v 1.212575 h -0.339679 v -2.764828 h 0.730705 q 0.710956,0 0.710956,0.734654 0,0.276483 -0.106644,0.48187 -0.106643,0.205387 -0.304131,0.284382 l 0.549016,1.263922 h -0.339679 l -0.537166,-1.212575 z"
         style="font-style:normal;font-variant:normal;font-weight:bold;font-stretch:normal;font-size:3.94975471px;font-family:Homenaje;-inkscape-font-specification:'Homenaje Bold';text-align:start;text-anchor:start;fill:#ffffff;fill-opacity:1;stroke-width:0.26930144"
         id="path3187" />
      <path
         d="m 57.616696,55.158703 v -2.764828 h 0.347578 v 2.764828 z"
         style="font-style:normal;font-variant:normal;font-weight:bold;font-stretch:normal;font-size:3.94975471px;font-family:Homenaje;-inkscape-font-specification:'Homenaje Bold';text-align:start;text-anchor:start;fill:#ffffff;fill-opacity:1;stroke-width:0.26930144"
         id="path3189" />
      <path
         d="m 58.886048,55.158703 v -2.504145 h -0.552965 v -0.260683 h 1.453509 v 0.260683 h -0.552965 v 2.504145 z"
         style="font-style:normal;font-variant:normal;font-weight:bold;font-stretch:normal;font-size:3.94975471px;font-family:Homenaje;-inkscape-font-specification:'Homenaje Bold';text-align:start;text-anchor:start;fill:#ffffff;fill-opacity:1;stroke-width:0.26930144"
         id="path3191" />
      <path
         d="m 61.2883,53.823686 h -0.786001 v 1.335017 H 60.15472 v -2.764828 h 0.347579 v 1.169127 H 61.2883 v -1.169127 h 0.347578 v 2.764828 H 61.2883 Z"
         style="font-style:normal;font-variant:normal;font-weight:bold;font-stretch:normal;font-size:3.94975471px;font-family:Homenaje;-inkscape-font-specification:'Homenaje Bold';text-align:start;text-anchor:start;fill:#ffffff;fill-opacity:1;stroke-width:0.26930144"
         id="path3193" />
      <path
         d="m 62.522538,55.158703 h -0.347579 v -2.764828 h 0.525317 l 0.529268,1.635198 h 0.02765 l 0.541116,-1.635198 h 0.505569 v 2.764828 h -0.347579 v -2.350104 l -0.529267,1.615449 h -0.375226 l -0.529267,-1.619399 z"
         style="font-style:normal;font-variant:normal;font-weight:bold;font-stretch:normal;font-size:3.94975471px;font-family:Homenaje;-inkscape-font-specification:'Homenaje Bold';text-align:start;text-anchor:start;fill:#ffffff;fill-opacity:1;stroke-width:0.26930144"
         id="path3195" />
      <path
         d="m 64.837341,55.158703 v -2.764828 h 0.347579 v 2.764828 z"
         style="font-style:normal;font-variant:normal;font-weight:bold;font-stretch:normal;font-size:3.94975471px;font-family:Homenaje;-inkscape-font-specification:'Homenaje Bold';text-align:start;text-anchor:start;fill:#ffffff;fill-opacity:1;stroke-width:0.26930144"
         id="path3197" />
      <path
         d="m 66.928241,54.898019 v 0.260684 h -0.529267 q -0.359428,0 -0.556915,-0.181689 -0.197488,-0.181689 -0.197488,-0.533217 V 53.10878 q 0,-0.351528 0.197488,-0.533217 0.197487,-0.181688 0.556915,-0.181688 h 0.529267 v 0.260683 h -0.529267 q -0.181689,0 -0.296232,0.106644 -0.110593,0.102693 -0.110593,0.276483 v 1.477208 q 0,0.173789 0.110593,0.280432 0.114543,0.102694 0.296232,0.102694 z"
         style="font-style:normal;font-variant:normal;font-weight:bold;font-stretch:normal;font-size:3.94975471px;font-family:Homenaje;-inkscape-font-specification:'Homenaje Bold';text-align:start;text-anchor:start;fill:#ffffff;fill-opacity:1;stroke-width:0.26930144"
         id="path3199" />
      <path
         d="m 67.892229,55.158703 v -2.764828 h 1.204675 v 0.268583 h -0.857096 v 0.884745 h 0.695156 v 0.268583 h -0.695156 v 1.074334 h 0.896594 v 0.268583 z"
         style="font-style:normal;font-variant:normal;font-weight:bold;font-stretch:normal;font-size:3.94975471px;font-family:Homenaje;-inkscape-font-specification:'Homenaje Bold';text-align:start;text-anchor:start;fill:#ffffff;fill-opacity:1;stroke-width:0.26930144"
         id="path3201" />
      <path
         d="m 70.233384,54.052772 -0.47397,1.105931 h -0.347579 l 0.624061,-1.45351 -0.545066,-1.311318 h 0.347579 l 0.394975,0.95189 0.402875,-0.95189 h 0.347579 l -0.572715,1.311318 0.63986,1.45351 h -0.351528 z"
         style="font-style:normal;font-variant:normal;font-weight:bold;font-stretch:normal;font-size:3.94975471px;font-family:Homenaje;-inkscape-font-specification:'Homenaje Bold';text-align:start;text-anchor:start;fill:#ffffff;fill-opacity:1;stroke-width:0.26930144"
         id="path3203" />
      <path
         d="m 71.803843,52.654558 v 1.026937 h 0.252784 q 0.225136,0 0.347579,-0.154041 0.126392,-0.15404 0.126392,-0.398925 0,-0.473971 -0.473971,-0.473971 z m 1.074333,0.473971 q 0,0.383126 -0.209337,0.600363 -0.205387,0.213286 -0.588513,0.213286 h -0.276483 v 1.216525 h -0.347578 v -2.764828 h 0.699106 q 0.722805,0 0.722805,0.734654 z"
         style="font-style:normal;font-variant:normal;font-weight:bold;font-stretch:normal;font-size:3.94975471px;font-family:Homenaje;-inkscape-font-specification:'Homenaje Bold';text-align:start;text-anchor:start;fill:#ffffff;fill-opacity:1;stroke-width:0.26930144"
         id="path3205" />
      <path
         d="m 73.660723,52.393875 h 0.525317 l 0.600363,2.764828 h -0.32388 l -0.193538,-0.81365 H 73.55013 l -0.177739,0.81365 h -0.33573 z m 0.549016,1.682595 -0.284383,-1.421912 h -0.02765 l -0.288332,1.421912 z"
         style="font-style:normal;font-variant:normal;font-weight:bold;font-stretch:normal;font-size:3.94975471px;font-family:Homenaje;-inkscape-font-specification:'Homenaje Bold';text-align:start;text-anchor:start;fill:#ffffff;fill-opacity:1;stroke-width:0.26930144"
         id="path3207" />
      <path
         d="m 76.6958,55.158703 h -0.49767 l -0.730704,-2.512044 v 2.512044 h -0.347579 v -2.764828 h 0.580614 l 0.64381,2.389601 V 52.393875 H 76.6958 Z"
         style="font-style:normal;font-variant:normal;font-weight:bold;font-stretch:normal;font-size:3.94975471px;font-family:Homenaje;-inkscape-font-specification:'Homenaje Bold';text-align:start;text-anchor:start;fill:#ffffff;fill-opacity:1;stroke-width:0.26930144"
         id="path3209" />
      <path
         d="m 77.589619,54.89012 h 0.335729 q 0.181689,0 0.292282,-0.102694 0.114543,-0.106643 0.114543,-0.280433 v -1.461409 q 0,-0.173789 -0.114543,-0.276483 -0.110593,-0.106643 -0.292282,-0.106643 h -0.335729 z m -0.351528,0.268583 v -2.764828 h 0.687257 q 0.359428,0 0.556916,0.181688 0.197487,0.181689 0.197487,0.533217 v 1.335017 q 0,0.351528 -0.197487,0.533217 -0.197488,0.177739 -0.556916,0.181689 z"
         style="font-style:normal;font-variant:normal;font-weight:bold;font-stretch:normal;font-size:3.94975471px;font-family:Homenaje;-inkscape-font-specification:'Homenaje Bold';text-align:start;text-anchor:start;fill:#ffffff;fill-opacity:1;stroke-width:0.26930144"
         id="path3211" />
      <path
         d="m 79.139773,55.158703 v -2.764828 h 1.204675 v 0.268583 h -0.857097 v 0.884745 h 0.695157 v 0.268583 h -0.695157 v 1.074334 h 0.896594 v 0.268583 z"
         style="font-style:normal;font-variant:normal;font-weight:bold;font-stretch:normal;font-size:3.94975471px;font-family:Homenaje;-inkscape-font-specification:'Homenaje Bold';text-align:start;text-anchor:start;fill:#ffffff;fill-opacity:1;stroke-width:0.26930144"
         id="path3213" />
      <path
         d="m 81.176796,52.654558 v 1.030886 h 0.280433 q 0.225136,0 0.347578,-0.15404 0.126393,-0.15799 0.126393,-0.402875 0,-0.473971 -0.473971,-0.473971 z m -0.0079,1.29157 v 1.212575 h -0.339679 v -2.764828 h 0.730705 q 0.710955,0 0.710955,0.734654 0,0.276483 -0.106643,0.48187 -0.106643,0.205387 -0.304131,0.284382 l 0.549016,1.263922 h -0.339679 l -0.537167,-1.212575 z"
         style="font-style:normal;font-variant:normal;font-weight:bold;font-stretch:normal;font-size:3.94975471px;font-family:Homenaje;-inkscape-font-specification:'Homenaje Bold';text-align:start;text-anchor:start;fill:#ffffff;fill-opacity:1;stroke-width:0.26930144"
         id="path3215" />
    </g>
    <g
       aria-label="ALGO"
       transform="scale(1.0163587,0.9839046)"
       style="font-style:normal;font-variant:normal;font-weight:bold;font-stretch:normal;font-size:3.59068608px;line-height:1.25;font-family:Calibri;-inkscape-font-specification:'Calibri Bold';letter-spacing:0px;word-spacing:0px;fill:#ffffff;fill-opacity:1;stroke:none;stroke-width:0.26930144"
       id="text5443-7-5-4">
      <path
         d="m 37.580994,113.97252 h 0.334293 l 0.382049,1.75944 h -0.206105 l -0.123161,-0.51778 h -0.457453 l -0.113107,0.51778 h -0.213646 z m 0.349374,1.07074 -0.180971,-0.90485 h -0.01759 l -0.183484,0.90485 z"
         style="font-style:normal;font-variant:normal;font-weight:bold;font-stretch:normal;font-size:2.51348042px;font-family:Homenaje;-inkscape-font-specification:'Homenaje Bold';stroke-width:0.26930144"
         id="path3218" />
      <path
         d="m 38.529636,115.73196 v -1.75944 h 0.221187 v 1.59355 h 0.515263 v 0.16589 z"
         style="font-style:normal;font-variant:normal;font-weight:bold;font-stretch:normal;font-size:2.51348042px;font-family:Homenaje;-inkscape-font-specification:'Homenaje Bold';stroke-width:0.26930144"
         id="path3220" />
      <path
         d="M 40.331566,115.73196 H 39.88668 q -0.228726,0 -0.354401,-0.11562 -0.125674,-0.11562 -0.125674,-0.33932 v -0.85207 q 0,-0.22119 0.135728,-0.33681 0.135728,-0.11562 0.369482,-0.11562 h 0.369482 v 0.1684 H 39.88668 q -0.11562,0 -0.188511,0.0679 -0.07038,0.0654 -0.07038,0.17594 v 0.93753 q 0,0.11311 0.06786,0.17846 0.06786,0.0653 0.18097,0.0653 h 0.233754 v -0.69121 h -0.226213 v -0.16589 h 0.447399 z"
         style="font-style:normal;font-variant:normal;font-weight:bold;font-stretch:normal;font-size:2.51348042px;font-family:Homenaje;-inkscape-font-specification:'Homenaje Bold';stroke-width:0.26930144"
         id="path3222" />
      <path
         d="m 41.527826,115.29712 q 0,0.21365 -0.123161,0.3343 -0.12316,0.11813 -0.359427,0.11813 -0.233754,0 -0.356915,-0.11813 -0.12316,-0.12065 -0.12316,-0.3343 v -0.88977 q 0,-0.21364 0.12316,-0.33178 0.123161,-0.12064 0.356915,-0.12064 0.236267,0 0.359427,0.12064 0.123161,0.11814 0.123161,0.33178 z m -0.741477,0.0427 q 0,0.11562 0.07289,0.18097 0.07541,0.0628 0.185998,0.0628 0.110593,0 0.185997,-0.0628 0.07541,-0.0653 0.07541,-0.18097 v -0.97523 q 0,-0.11562 -0.07541,-0.17845 -0.0754,-0.0654 -0.185997,-0.0654 -0.110593,0 -0.185998,0.0654 -0.07289,0.0628 -0.07289,0.17845 z"
         style="font-style:normal;font-variant:normal;font-weight:bold;font-stretch:normal;font-size:2.51348042px;font-family:Homenaje;-inkscape-font-specification:'Homenaje Bold';stroke-width:0.26930144"
         id="path3224" />
    </g>
    <g
       transform="scale(1.0163587,0.98390462)"
       style="font-style:normal;font-variant:normal;font-weight:bold;font-stretch:normal;font-size:3.59068608px;line-height:1.25;font-family:'Labtop Secundo Superwide';-inkscape-font-specification:'Labtop Secundo Superwide Bold';text-align:center;letter-spacing:0px;word-spacing:0px;text-anchor:middle;fill:#000000;fill-opacity:1;stroke:none;stroke-width:0.26930144"
       id="text993" />
    <g
       transform="scale(1.0163587,0.98390462)"
       style="font-style:normal;font-variant:normal;font-weight:bold;font-stretch:normal;font-size:3.59068608px;line-height:1.25;font-family:'Labtop Secundo Superwide';-inkscape-font-specification:'Labtop Secundo Superwide Bold';text-align:center;letter-spacing:0px;word-spacing:0px;text-anchor:middle;fill:#ff04ff;fill-opacity:1;stroke:none;stroke-width:0.26930144"
       id="text1267" />
    <g
       transform="scale(1.0163587,0.98390462)"
       style="font-style:normal;font-variant:normal;font-weight:bold;font-stretch:normal;font-size:3.59068608px;line-height:1.25;font-family:'Labtop Secundo Superwide';-inkscape-font-specification:'Labtop Secundo Superwide Bold';text-align:center;letter-spacing:0px;word-spacing:0px;text-anchor:middle;fill:#ffffff;fill-opacity:1;stroke:none;stroke-width:0.26930144"
       id="text1271" />
    <g
       transform="scale(1.0163587,0.98390462)"
       style="font-style:normal;font-variant:normal;font-weight:bold;font-stretch:normal;font-size:3.59068608px;line-height:1.25;font-family:'Labtop Secundo Superwide';-inkscape-font-specification:'Labtop Secundo Superwide Bold';text-align:center;letter-spacing:0px;word-spacing:0px;text-anchor:middle;fill:#000000;fill-opacity:1;stroke:none;stroke-width:0.26930144"
       id="text1275" />
    <g
       aria-label="STEPS"
       transform="scale(1.0163587,0.9839046)"
       style="font-style:normal;font-variant:normal;font-weight:bold;font-stretch:normal;font-size:3.59068608px;line-height:1.25;font-family:Homenaje;-inkscape-font-specification:'Homenaje Bold';letter-spacing:0px;word-spacing:0px;fill:#ffffff;fill-opacity:1;stroke:none;stroke-width:0.26930144"
       id="text5443-7-5-4-3">
      <path
         d="m 45.80582,115.56607 q 0.143269,0 0.206106,-0.0855 0.06535,-0.0855 0.06535,-0.19857 0,-0.1131 -0.04273,-0.19102 -0.04022,-0.0804 -0.103053,-0.12568 -0.06284,-0.0477 -0.135728,-0.10305 -0.07289,-0.0553 -0.135728,-0.10556 -0.06284,-0.0528 -0.105566,-0.14076 -0.04021,-0.088 -0.04021,-0.20108 0,-0.20108 0.120647,-0.32172 0.120647,-0.12065 0.334292,-0.12065 h 0.203592 v 0.16589 H 45.97925 q -0.120647,0 -0.183484,0.0779 -0.06284,0.0779 -0.06284,0.1684 0,0.0905 0.04022,0.15584 0.04273,0.0653 0.105566,0.10808 0.06284,0.0427 0.135728,0.10054 0.0754,0.0578 0.138242,0.11813 0.06284,0.0578 0.103052,0.15835 0.04273,0.10054 0.04273,0.22873 0,0.23626 -0.135728,0.35691 -0.133214,0.12065 -0.366968,0.12065 h -0.263915 v -0.16589 z"
         style="font-style:normal;font-variant:normal;font-weight:bold;font-stretch:normal;font-size:2.51348042px;font-family:Homenaje;-inkscape-font-specification:'Homenaje Bold';stroke-width:0.26930144"
         id="path3231" />
      <path
         d="m 46.762514,115.73196 v -1.59355 h -0.351888 v -0.16589 h 0.924961 v 0.16589 H 46.9837 v 1.59355 z"
         style="font-style:normal;font-variant:normal;font-weight:bold;font-stretch:normal;font-size:2.51348042px;font-family:Homenaje;-inkscape-font-specification:'Homenaje Bold';stroke-width:0.26930144"
         id="path3233" />
      <path
         d="m 47.569851,115.73196 v -1.75944 h 0.766612 v 0.17092 h -0.545425 v 0.56302 h 0.442372 v 0.17091 h -0.442372 v 0.68367 h 0.57056 v 0.17092 z"
         style="font-style:normal;font-variant:normal;font-weight:bold;font-stretch:normal;font-size:2.51348042px;font-family:Homenaje;-inkscape-font-specification:'Homenaje Bold';stroke-width:0.26930144"
         id="path3235" />
      <path
         d="m 48.86614,114.13841 v 0.6535 h 0.160863 q 0.143268,0 0.221186,-0.098 0.08043,-0.098 0.08043,-0.25386 0,-0.30162 -0.301617,-0.30162 z m 0.683666,0.30162 q 0,0.24381 -0.133214,0.38205 -0.130701,0.13572 -0.374509,0.13572 H 48.86614 v 0.77416 h -0.221187 v -1.75944 h 0.444887 q 0.459966,0 0.459966,0.46751 z"
         style="font-style:normal;font-variant:normal;font-weight:bold;font-stretch:normal;font-size:2.51348042px;font-family:Homenaje;-inkscape-font-specification:'Homenaje Bold';stroke-width:0.26930144"
         id="path3237" />
      <path
         d="m 50.027682,115.56607 q 0.143268,0 0.206105,-0.0855 0.06535,-0.0855 0.06535,-0.19857 0,-0.1131 -0.04273,-0.19102 -0.04022,-0.0804 -0.103052,-0.12568 -0.06284,-0.0477 -0.135728,-0.10305 -0.07289,-0.0553 -0.135728,-0.10556 -0.06284,-0.0528 -0.105566,-0.14076 -0.04022,-0.088 -0.04022,-0.20108 0,-0.20108 0.120647,-0.32172 0.120647,-0.12065 0.334293,-0.12065 h 0.203592 v 0.16589 h -0.193538 q -0.120647,0 -0.183484,0.0779 -0.06284,0.0779 -0.06284,0.1684 0,0.0905 0.04021,0.15584 0.04273,0.0653 0.105567,0.10808 0.06284,0.0427 0.135728,0.10054 0.0754,0.0578 0.138241,0.11813 0.06284,0.0578 0.103053,0.15835 0.04273,0.10054 0.04273,0.22873 0,0.23626 -0.135728,0.35691 -0.133215,0.12065 -0.366968,0.12065 h -0.263916 v -0.16589 z"
         style="font-style:normal;font-variant:normal;font-weight:bold;font-stretch:normal;font-size:2.51348042px;font-family:Homenaje;-inkscape-font-specification:'Homenaje Bold';stroke-width:0.26930144"
         id="path3239" />
    </g>
    <g
       aria-label="BEATS"
       transform="scale(1.0163587,0.9839046)"
       style="font-style:normal;font-variant:normal;font-weight:bold;font-stretch:normal;font-size:3.59068608px;line-height:1.25;font-family:Homenaje;-inkscape-font-specification:'Homenaje Bold';letter-spacing:0px;word-spacing:0px;fill:#ffffff;fill-opacity:1;stroke:none;stroke-width:0.26930144"
       id="text5443-7-5-4-7">
      <path
         d="m 54.586486,114.13836 v 0.57056 h 0.15835 q 0.150809,0 0.233753,-0.0754 0.08295,-0.0779 0.08295,-0.2237 0,-0.27146 -0.316698,-0.27146 z m 0.507723,0.65854 q 0.09803,0.0528 0.160863,0.15835 0.06535,0.10556 0.06535,0.21364 0,0.10808 -0.01005,0.17343 -0.01005,0.0653 -0.04524,0.14327 -0.03268,0.0754 -0.093,0.12567 -0.135728,0.12065 -0.417237,0.12065 H 54.3653 v -1.75944 h 0.427292 q 0.233754,0 0.349374,0.10808 0.11562,0.10557 0.11562,0.3343 0,0.12567 -0.04776,0.23124 -0.04524,0.10305 -0.115621,0.15081 z m -0.351887,0.76912 q 0.366968,0 0.366968,-0.35189 0,-0.17845 -0.108079,-0.25637 -0.10808,-0.0779 -0.256375,-0.0779 h -0.15835 v 0.68618 z"
         style="font-style:normal;font-variant:normal;font-weight:bold;font-stretch:normal;font-size:2.51348042px;font-family:Homenaje;-inkscape-font-specification:'Homenaje Bold';stroke-width:0.26930144"
         id="path3242" />
      <path
         d="m 55.587676,115.73191 v -1.75944 h 0.766612 v 0.17092 h -0.545425 v 0.56302 h 0.442372 v 0.17092 h -0.442372 v 0.68366 h 0.57056 v 0.17092 z"
         style="font-style:normal;font-variant:normal;font-weight:bold;font-stretch:normal;font-size:2.51348042px;font-family:Homenaje;-inkscape-font-specification:'Homenaje Bold';stroke-width:0.26930144"
         id="path3244" />
      <path
         d="m 56.926694,113.97247 h 0.334293 l 0.382049,1.75944 H 57.43693 l -0.12316,-0.51778 h -0.457454 l -0.113106,0.51778 h -0.213646 z m 0.349374,1.07075 -0.180971,-0.90486 h -0.01759 l -0.183484,0.90486 z"
         style="font-style:normal;font-variant:normal;font-weight:bold;font-stretch:normal;font-size:2.51348042px;font-family:Homenaje;-inkscape-font-specification:'Homenaje Bold';stroke-width:0.26930144"
         id="path3246" />
      <path
         d="m 57.981099,115.73191 v -1.59355 h -0.351888 v -0.16589 h 0.924961 v 0.16589 h -0.351887 v 1.59355 z"
         style="font-style:normal;font-variant:normal;font-weight:bold;font-stretch:normal;font-size:2.51348042px;font-family:Homenaje;-inkscape-font-specification:'Homenaje Bold';stroke-width:0.26930144"
         id="path3248" />
      <path
         d="m 59.032244,115.56602 q 0.143268,0 0.206105,-0.0855 0.06535,-0.0855 0.06535,-0.19856 0,-0.11311 -0.04273,-0.19103 -0.04022,-0.0804 -0.103053,-0.12567 -0.06284,-0.0478 -0.135728,-0.10305 -0.07289,-0.0553 -0.135728,-0.10557 -0.06284,-0.0528 -0.105566,-0.14075 -0.04022,-0.088 -0.04022,-0.20108 0,-0.20108 0.120647,-0.32173 0.120647,-0.12065 0.334293,-0.12065 h 0.203592 v 0.16589 h -0.193538 q -0.120647,0 -0.183484,0.0779 -0.06284,0.0779 -0.06284,0.16841 0,0.0905 0.04022,0.15583 0.04273,0.0653 0.105566,0.10808 0.06284,0.0427 0.135728,0.10054 0.0754,0.0578 0.138241,0.11813 0.06284,0.0578 0.103053,0.15835 0.04273,0.10054 0.04273,0.22873 0,0.23627 -0.135728,0.35691 -0.133214,0.12065 -0.366968,0.12065 h -0.263915 v -0.16589 z"
         style="font-style:normal;font-variant:normal;font-weight:bold;font-stretch:normal;font-size:2.51348042px;font-family:Homenaje;-inkscape-font-specification:'Homenaje Bold';stroke-width:0.26930144"
         id="path3250" />
    </g>
    <g
       aria-label="PAD"
       transform="scale(1.0163587,0.9839046)"
       style="font-style:normal;font-variant:normal;font-weight:bold;font-stretch:normal;font-size:3.59068608px;line-height:1.25;font-family:Homenaje;-inkscape-font-specification:'Homenaje Bold';letter-spacing:0px;word-spacing:0px;fill:#ffffff;fill-opacity:1;stroke:none;stroke-width:0.26930144"
       id="text5443-7-5-4-6">
      <path
         d="m 73.069542,114.15854 v 0.6535 h 0.160862 q 0.143269,0 0.221187,-0.098 0.08043,-0.098 0.08043,-0.25387 0,-0.30161 -0.301618,-0.30161 z m 0.683666,0.30161 q 0,0.24381 -0.133214,0.38205 -0.130701,0.13573 -0.374509,0.13573 h -0.175943 v 0.77415 h -0.221187 v -1.75943 h 0.444886 q 0.459967,0 0.459967,0.4675 z"
         style="font-style:normal;font-variant:normal;font-weight:bold;font-stretch:normal;font-size:2.51348042px;font-family:Homenaje;-inkscape-font-specification:'Homenaje Bold';stroke-width:0.26930144"
         id="path3253" />
      <path
         d="m 74.251192,113.99265 h 0.334292 l 0.382049,1.75943 h -0.206105 l -0.12316,-0.51777 h -0.457454 l -0.113107,0.51777 h -0.213645 z m 0.349373,1.07074 -0.18097,-0.90485 H 74.402 l -0.183484,0.90485 z"
         style="font-style:normal;font-variant:normal;font-weight:bold;font-stretch:normal;font-size:2.51348042px;font-family:Homenaje;-inkscape-font-specification:'Homenaje Bold';stroke-width:0.26930144"
         id="path3255" />
      <path
         d="m 75.42102,115.58117 h 0.213646 q 0.11562,0 0.185998,-0.0653 0.07289,-0.0679 0.07289,-0.17846 v -0.92999 q 0,-0.11059 -0.07289,-0.17594 -0.07038,-0.0679 -0.185998,-0.0679 H 75.42102 Z m -0.2237,0.17091 v -1.75943 h 0.437346 q 0.228727,0 0.354401,0.11562 0.125674,0.11562 0.125674,0.33932 v 0.84955 q 0,0.2237 -0.125674,0.33932 -0.125674,0.11311 -0.354401,0.11562 z"
         style="font-style:normal;font-variant:normal;font-weight:bold;font-stretch:normal;font-size:2.51348042px;font-family:Homenaje;-inkscape-font-specification:'Homenaje Bold';stroke-width:0.26930144"
         id="path3257" />
    </g>
    <g
       transform="scale(1.0163587,0.98390462)"
       style="font-style:normal;font-variant:normal;font-weight:bold;font-stretch:normal;font-size:3.59068608px;line-height:1.25;font-family:'Labtop Secundo Superwide';-inkscape-font-specification:'Labtop Secundo Superwide Bold';text-align:center;letter-spacing:0px;word-spacing:0px;text-anchor:middle;fill:#000000;fill-opacity:1;stroke:none;stroke-width:0.26930144"
       id="text1475" />
    <path
       style="opacity:0.981;fill:#ffffff;fill-opacity:0;stroke:#1e1e2d;stroke-width:5.39966106;stroke-miterlimit:4;stroke-dasharray:none;stroke-opacity:1"
       d="M 82.717318,80.869003 A 19.789755,19.789753 0 0 1 62.927563,100.65876 19.789755,19.789753 0 0 1 43.137808,80.869003 19.789755,19.789753 0 0 1 62.927563,61.07925 19.789755,19.789753 0 0 1 82.717318,80.869003 Z"
       id="path6799" />
    <g
       aria-label="OFFSET"
       transform="scale(1.0163587,0.9839046)"
       style="font-style:normal;font-variant:normal;font-weight:bold;font-stretch:normal;font-size:3.59068608px;line-height:1.25;font-family:Homenaje;-inkscape-font-specification:'Homenaje Bold';letter-spacing:0px;word-spacing:0px;fill:#ffffff;fill-opacity:1;stroke:none;stroke-width:0.26930147"
       id="text5443-7-5-4-7-4">
      <path
         d="m 63.511531,115.29965 q 0,0.21365 -0.123161,0.33429 -0.12316,0.11814 -0.359427,0.11814 -0.233754,0 -0.356915,-0.11814 -0.12316,-0.12064 -0.12316,-0.33429 v -0.88977 q 0,-0.21365 0.12316,-0.33178 0.123161,-0.12065 0.356915,-0.12065 0.236267,0 0.359427,0.12065 0.123161,0.11813 0.123161,0.33178 z m -0.741477,0.0427 q 0,0.11562 0.07289,0.18097 0.0754,0.0628 0.185998,0.0628 0.110593,0 0.185997,-0.0628 0.07541,-0.0653 0.07541,-0.18097 v -0.97523 q 0,-0.11562 -0.07541,-0.17846 -0.0754,-0.0653 -0.185997,-0.0653 -0.110593,0 -0.185998,0.0653 -0.07289,0.0628 -0.07289,0.17846 z"
         style="font-style:normal;font-variant:normal;font-weight:bold;font-stretch:normal;font-size:2.51348042px;font-family:Homenaje;-inkscape-font-specification:'Homenaje Bold';stroke-width:0.26930147"
         id="path3262" />
      <path
         d="m 63.802466,115.73448 v -1.75943 h 0.741477 v 0.17091 h -0.52029 v 0.60324 h 0.392102 v 0.17091 h -0.392102 v 0.81437 z"
         style="font-style:normal;font-variant:normal;font-weight:bold;font-stretch:normal;font-size:2.51348042px;font-family:Homenaje;-inkscape-font-specification:'Homenaje Bold';stroke-width:0.26930147"
         id="path3264" />
      <path
         d="m 64.779386,115.73448 v -1.75943 h 0.741476 v 0.17091 h -0.52029 v 0.60324 h 0.392103 v 0.17091 h -0.392103 v 0.81437 z"
         style="font-style:normal;font-variant:normal;font-weight:bold;font-stretch:normal;font-size:2.51348042px;font-family:Homenaje;-inkscape-font-specification:'Homenaje Bold';stroke-width:0.26930147"
         id="path3266" />
      <path
         d="m 66.000112,115.56859 q 0.143269,0 0.206106,-0.0855 0.06535,-0.0855 0.06535,-0.19856 0,-0.11311 -0.04273,-0.19103 -0.04022,-0.0804 -0.103053,-0.12567 -0.06284,-0.0478 -0.135728,-0.10305 -0.07289,-0.0553 -0.135728,-0.10557 -0.06284,-0.0528 -0.105566,-0.14075 -0.04021,-0.088 -0.04021,-0.20108 0,-0.20108 0.120647,-0.32173 0.120647,-0.12064 0.334293,-0.12064 h 0.203591 v 0.16589 h -0.193538 q -0.120647,0 -0.183484,0.0779 -0.06284,0.0779 -0.06284,0.16841 0,0.0905 0.04022,0.15583 0.04273,0.0653 0.105566,0.10808 0.06284,0.0427 0.135728,0.10054 0.07541,0.0578 0.138242,0.11813 0.06284,0.0578 0.103052,0.15835 0.04273,0.10054 0.04273,0.22873 0,0.23627 -0.135727,0.35691 -0.133215,0.12065 -0.366969,0.12065 h -0.263915 v -0.16589 z"
         style="font-style:normal;font-variant:normal;font-weight:bold;font-stretch:normal;font-size:2.51348042px;font-family:Homenaje;-inkscape-font-specification:'Homenaje Bold';stroke-width:0.26930147"
         id="path3268" />
      <path
         d="m 66.738133,115.73448 v -1.75943 h 0.766611 v 0.17091 h -0.545425 v 0.56302 h 0.442373 v 0.17092 h -0.442373 v 0.68367 h 0.57056 v 0.17091 z"
         style="font-style:normal;font-variant:normal;font-weight:bold;font-stretch:normal;font-size:2.51348042px;font-family:Homenaje;-inkscape-font-specification:'Homenaje Bold';stroke-width:0.26930147"
         id="path3270" />
      <path
         d="m 68.031908,115.73448 v -1.59354 H 67.68002 v -0.16589 h 0.924961 v 0.16589 h -0.351887 v 1.59354 z"
         style="font-style:normal;font-variant:normal;font-weight:bold;font-stretch:normal;font-size:2.51348042px;font-family:Homenaje;-inkscape-font-specification:'Homenaje Bold';stroke-width:0.26930147"
         id="path3272" />
    </g>
    <g
       aria-label="RATIO"
       transform="scale(1.0163587,0.9839046)"
       style="font-style:normal;font-variant:normal;font-weight:bold;font-stretch:normal;font-size:3.59068608px;line-height:1.25;font-family:Homenaje;-inkscape-font-specification:'Homenaje Bold';letter-spacing:0px;word-spacing:0px;fill:#ffffff;fill-opacity:1;stroke:none;stroke-width:0.26930147"
       id="text5443-7-5-4-6-7">
      <path
         d="m 81.13961,114.14094 v 0.65601 h 0.178457 q 0.143268,0 0.221186,-0.098 0.08043,-0.10054 0.08043,-0.25638 0,-0.30161 -0.301618,-0.30161 z m -0.005,0.8219 v 0.77164 h -0.216159 v -1.75943 h 0.464994 q 0.452426,0 0.452426,0.4675 0,0.17595 -0.06786,0.30665 -0.06786,0.1307 -0.193538,0.18097 l 0.349374,0.80431 h -0.21616 l -0.341833,-0.77164 z"
         style="font-style:normal;font-variant:normal;font-weight:bold;font-stretch:normal;font-size:2.51348042px;font-family:Homenaje;-inkscape-font-specification:'Homenaje Bold';stroke-width:0.26930147"
         id="path3275" />
      <path
         d="m 82.419443,113.97505 h 0.334293 l 0.382049,1.75943 h -0.206106 l -0.12316,-0.51778 h -0.457454 l -0.113106,0.51778 h -0.213646 z m 0.349374,1.07074 -0.180971,-0.90485 h -0.01759 l -0.183484,0.90485 z"
         style="font-style:normal;font-variant:normal;font-weight:bold;font-stretch:normal;font-size:2.51348042px;font-family:Homenaje;-inkscape-font-specification:'Homenaje Bold';stroke-width:0.26930147"
         id="path3277" />
      <path
         d="m 83.473848,115.73448 v -1.59354 h -0.351887 v -0.16589 h 0.92496 v 0.16589 h -0.351887 v 1.59354 z"
         style="font-style:normal;font-variant:normal;font-weight:bold;font-stretch:normal;font-size:2.51348042px;font-family:Homenaje;-inkscape-font-specification:'Homenaje Bold';stroke-width:0.26930147"
         id="path3279" />
      <path
         d="m 84.281186,115.73448 v -1.75943 h 0.221186 v 1.75943 z"
         style="font-style:normal;font-variant:normal;font-weight:bold;font-stretch:normal;font-size:2.51348042px;font-family:Homenaje;-inkscape-font-specification:'Homenaje Bold';stroke-width:0.26930147"
         id="path3281" />
      <path
         d="m 85.757541,115.29965 q 0,0.21365 -0.123161,0.33429 -0.12316,0.11814 -0.359427,0.11814 -0.233754,0 -0.356914,-0.11814 -0.123161,-0.12064 -0.123161,-0.33429 v -0.88977 q 0,-0.21365 0.123161,-0.33178 0.12316,-0.12065 0.356914,-0.12065 0.236267,0 0.359427,0.12065 0.123161,0.11813 0.123161,0.33178 z m -0.741477,0.0427 q 0,0.11562 0.07289,0.18097 0.07541,0.0628 0.185998,0.0628 0.110593,0 0.185997,-0.0628 0.07541,-0.0653 0.07541,-0.18097 v -0.97523 q 0,-0.11562 -0.07541,-0.17846 -0.0754,-0.0653 -0.185997,-0.0653 -0.110593,0 -0.185998,0.0653 -0.07289,0.0628 -0.07289,0.17846 z"
         style="font-style:normal;font-variant:normal;font-weight:bold;font-stretch:normal;font-size:2.51348042px;font-family:Homenaje;-inkscape-font-specification:'Homenaje Bold';stroke-width:0.26930147"
         id="path3283" />
    </g>
    <path
       style="fill:#101015;fill-opacity:1;stroke:#999999;stroke-width:0.15065835;stroke-miterlimit:4;stroke-dasharray:none;stroke-opacity:1"
       d="m 56.388309,105.23302 h 13.07851 v 3.81816 h -13.07851 z"
       id="rect6948-0-1" />
  </g>
</svg>
