<?xml version="1.0" encoding="UTF-8" standalone="no"?>
<svg
   xmlns:dc="http://purl.org/dc/elements/1.1/"
   xmlns:cc="http://creativecommons.org/ns#"
   xmlns:rdf="http://www.w3.org/1999/02/22-rdf-syntax-ns#"
   xmlns:svg="http://www.w3.org/2000/svg"
   xmlns="http://www.w3.org/2000/svg"
   xmlns:xlink="http://www.w3.org/1999/xlink"
   xmlns:sodipodi="http://sodipodi.sourceforge.net/DTD/sodipodi-0.dtd"
   xmlns:inkscape="http://www.inkscape.org/namespaces/inkscape"
   sodipodi:docname="PWAlgorithmicExpander.svg"
   inkscape:version="1.0 (4035a4fb49, 2020-05-01)"
   id="svg11003"
   version="1.1"
   viewBox="0 0 55.5625 100.54167"
   height="380"
   width="210">
  <defs
     id="defs10997">
    <linearGradient
       id="linearGradient4047"
       inkscape:collect="always">
      <stop
         id="stop3387"
         offset="0"
         style="stop-color:#0c1622;stop-opacity:1" />
      <stop
         id="stop3388"
         offset=".3"
         style="stop-color:#161625;stop-opacity:1" />
      <stop
         id="stop3389"
         offset="1"
         style="stop-color:#081f35;stop-opacity:1" />
    </linearGradient>
    <linearGradient
       gradientTransform="matrix(0.58240964,0,0,1.0014499,14.634062,-0.14648349)"
       gradientUnits="userSpaceOnUse"
       y2="50.462322"
       x2="35.219627"
       y1="158.3329"
       x1="35.418064"
       id="linearGradient4049"
       xlink:href="#linearGradient4047"
       inkscape:collect="always" />
  </defs>
  <sodipodi:namedview
     inkscape:document-rotation="0"
     showguides="false"
     units="px"
     inkscape:window-maximized="1"
     inkscape:window-y="-6"
     inkscape:window-x="-6"
     inkscape:window-height="1058"
     inkscape:window-width="1920"
     fit-margin-bottom="0"
     fit-margin-right="0"
     fit-margin-left="0"
     fit-margin-top="0"
     showgrid="false"
     inkscape:current-layer="layer1"
     inkscape:document-units="px"
     inkscape:cy="193.49025"
     inkscape:cx="173.52178"
     inkscape:zoom="1.7100819"
     inkscape:pageshadow="2"
     inkscape:pageopacity="0.0"
     borderopacity="1.0"
     bordercolor="#666666"
     pagecolor="#ffffff"
     id="base" />
  <metadata
     id="metadata11000">
    <rdf:RDF>
      <cc:Work
         rdf:about="">
        <dc:format>image/svg+xml</dc:format>
        <dc:type
           rdf:resource="http://purl.org/dc/dcmitype/StillImage" />
        <dc:title></dc:title>
      </cc:Work>
    </rdf:RDF>
  </metadata>
  <g
     transform="translate(-35.146312,-50.389004)"
     id="layer1"
     inkscape:groupmode="layer"
     inkscape:label="Layer 1">
    <path
       inkscape:export-ydpi="150.22649"
       inkscape:export-xdpi="150.22649"
       inkscape:export-filename="/home/vortico/pics/tmp/LFOs.png"
       style="fill:url(#linearGradient4049);fill-opacity:1;fill-rule:nonzero;stroke:none;stroke-width:0.32718554"
       d="M 35.146312,50.389003 H 90.708813 V 150.93067 H 35.146312 Z m 0,0"
       id="path33493"
       inkscape:connector-curvature="0" />
    <g
       transform="matrix(1.0344827,0,0,1.0014499,-1.2877853,-0.14648349)"
       id="text5097"
       style="font-style:normal;font-weight:normal;font-size:3.52777767px;line-height:1.25;font-family:sans-serif;letter-spacing:0px;word-spacing:0px;fill:#ffffff;fill-opacity:1;stroke:none;stroke-width:0.26458332" />
    <g
       transform="matrix(1.0344827,0,0,1.0014499,-1.2877853,-0.14648349)"
       id="text373"
       style="font-style:normal;font-variant:normal;font-weight:bold;font-stretch:normal;font-size:3.52777767px;line-height:1.25;font-family:Consolas;-inkscape-font-specification:'Consolas Bold';text-align:center;letter-spacing:0px;word-spacing:0px;text-anchor:middle;fill:#ffffff;fill-opacity:1;stroke:none;stroke-width:0.26458332" />
    <g
       transform="matrix(1.0344827,0,0,1.0014499,-1.2877853,-0.14648349)"
       id="flowRoot250"
       style="font-style:normal;font-variant:normal;font-weight:bold;font-stretch:normal;font-size:13.33333302px;line-height:1.25;font-family:Consolas;-inkscape-font-specification:'Consolas Bold';text-align:center;letter-spacing:0px;word-spacing:0px;text-anchor:middle;fill:#ffffff;fill-opacity:1;stroke:none" />
    <g
       transform="matrix(1.0344827,0,0,1.0014499,-1.2877853,-0.14648349)"
       id="flowRoot53665"
       style="font-style:normal;font-variant:normal;font-weight:bold;font-stretch:normal;font-size:13.33333302px;line-height:1.25;font-family:Consolas;-inkscape-font-specification:'Consolas Bold';text-align:center;letter-spacing:0px;word-spacing:0px;text-anchor:middle;fill:#ffffff;fill-opacity:1;stroke:none" />
    <g
       transform="matrix(1.0344827,0,0,1.0014499,-1.2877853,-0.14648349)"
       id="text53994"
       style="font-style:normal;font-variant:normal;font-weight:bold;font-stretch:normal;font-size:3.52777767px;line-height:1.25;font-family:Consolas;-inkscape-font-specification:'Consolas Bold';text-align:center;letter-spacing:0px;word-spacing:0px;text-anchor:middle;fill:#ffffff;fill-opacity:1;stroke:none;stroke-width:0.26458332" />
    <g
       transform="matrix(1.0344827,0,0,1.0014499,-32.692167,-0.14648349)"
       id="text3885-7"
       style="font-style:normal;font-variant:normal;font-weight:bold;font-stretch:normal;font-size:3.52777767px;line-height:1.25;font-family:Consolas;-inkscape-font-specification:'Consolas Bold';text-align:start;letter-spacing:0px;word-spacing:0px;text-anchor:start;fill:#00a3f2;fill-opacity:1;stroke:none;stroke-width:0.26458332"
       aria-label="FROZEN WASTELAND">
      <path
         inkscape:connector-curvature="0"
         id="path7125"
         style="font-style:normal;font-variant:normal;font-weight:normal;font-stretch:normal;font-family:'Bradley Gratis';-inkscape-font-specification:'Bradley Gratis';text-align:start;text-anchor:start;stroke-width:0.26458332"
         d="m 77.98351,150.2604 q 0.119944,-0.11995 0.1905,-0.21167 0.07408,-0.0917 0.112889,-0.16933 0.04233,-0.0776 0.05292,-0.14464 0.01411,-0.0706 0.01411,-0.14817 0,-0.0952 -0.04586,-0.22931 -0.04586,-0.13405 -0.102305,-0.28575 -0.05644,-0.15169 -0.102306,-0.31044 -0.04586,-0.15875 -0.04586,-0.30339 0,-0.0776 0.02469,-0.15169 0.02822,-0.0741 0.06703,-0.14111 0.04233,-0.0706 0.09172,-0.13053 0.04939,-0.0635 0.09878,-0.11289 -0.07055,-0.0141 -0.123472,-0.0212 -0.05292,-0.0106 -0.07761,-0.0106 -0.130528,0 -0.22225,0.0706 -0.08819,0.067 -0.1905,0.16934 0,-0.11995 0.03528,-0.24695 0.03881,-0.13052 0.116416,-0.23636 0.07761,-0.10583 0.194028,-0.17286 0.119945,-0.067 0.282222,-0.067 0.112889,0 0.208139,0.0176 0.09878,0.0141 0.179917,0.0353 0.08114,0.0212 0.148166,0.0388 0.06703,0.0141 0.119945,0.0141 0.08114,0 0.141111,-0.0212 0.0635,-0.0247 0.123472,-0.0847 0,0.0776 -0.03175,0.17639 -0.02822,0.0988 -0.08819,0.1905 -0.05644,0.0882 -0.148167,0.1517 -0.09172,0.06 -0.211667,0.06 -0.05997,0 -0.137583,-0.007 -0.07408,-0.0106 -0.155222,-0.0247 -0.0071,0.0247 -0.01058,0.0459 -0.0035,0.0212 -0.0071,0.0388 -0.0035,0.0212 -0.0035,0.0388 0,0.0776 0.01058,0.1517 0.01411,0.0705 0.0388,0.14463 h 0.712611 l -0.08114,0.23989 q -0.01058,0.0459 -0.01411,0.067 -0.0035,0.0212 -0.01058,0.067 l -0.130528,-0.0917 h -0.363361 q 0.07761,0.17639 0.144639,0.35983 0.06703,0.17992 0.06703,0.38453 0,0.18344 -0.07408,0.34219 -0.07408,0.15522 -0.197555,0.27164 -0.119945,0.11642 -0.278695,0.17992 -0.155222,0.067 -0.321027,0.067 z" />
      <path
         inkscape:connector-curvature="0"
         id="path7127"
         style="font-style:normal;font-variant:normal;font-weight:normal;font-stretch:normal;font-family:'Bradley Gratis';-inkscape-font-specification:'Bradley Gratis';text-align:start;text-anchor:start;stroke-width:0.26458332"
         d="m 80.053599,148.53178 q 0.07055,-0.0423 0.137583,-0.0988 0.07055,-0.0564 0.123472,-0.127 0.05644,-0.0706 0.08819,-0.16228 0.03528,-0.0952 0.03528,-0.21167 0,-0.0988 -0.0388,-0.1658 -0.03528,-0.0706 -0.08467,-0.11289 -0.04939,-0.0423 -0.09878,-0.06 -0.04586,-0.0176 -0.07055,-0.0176 -0.02822,0 -0.05292,0.0106 -0.02117,0.0106 -0.0388,0.0247 z m -0.518584,-0.94191 q -0.112889,-0.0635 -0.112889,-0.23636 0.03175,0.0317 0.112889,0.0564 0.08114,0.0212 0.172861,0.0212 0.04586,0 0.130528,-0.0106 0.08467,-0.0141 0.172861,-0.0282 0.09172,-0.0141 0.172861,-0.0247 0.08467,-0.0141 0.130528,-0.0141 0.116417,0 0.232833,0.0353 0.116417,0.0353 0.215195,0.11995 0.09878,0.0847 0.165805,0.2293 0.07056,0.14112 0.09172,0.35984 l -0.627945,0.4445 q 0.07056,0.0282 0.15875,0.0952 0.08819,0.067 0.165806,0.18697 0.08114,0.11994 0.134055,0.30692 0.05292,0.18344 0.05292,0.45155 0,0.23284 0.02117,0.37747 0.02117,0.14464 0.05292,0.23284 0.03175,0.0882 0.06703,0.13053 0.03881,0.0459 0.07056,0.0776 -0.155223,0 -0.275167,-0.0917 -0.119945,-0.0882 -0.211667,-0.23283 -0.09172,-0.14464 -0.162277,-0.32808 -0.06703,-0.18345 -0.123473,-0.37042 -0.05644,-0.18697 -0.105833,-0.35983 -0.04586,-0.17286 -0.09525,-0.29986 -0.02469,0.0176 -0.04939,0.0353 -0.02117,0.0141 -0.0388,0.0317 v 1.31939 h -0.518584 z" />
      <path
         inkscape:connector-curvature="0"
         id="path7129"
         style="font-style:normal;font-variant:normal;font-weight:normal;font-stretch:normal;font-family:'Bradley Gratis';-inkscape-font-specification:'Bradley Gratis';text-align:start;text-anchor:start;stroke-width:0.26458332"
         d="m 81.941345,149.63951 q 0,0.11994 0.01411,0.18697 0.01764,0.067 0.04233,0.1023 0.02822,0.0318 0.0635,0.0388 0.03528,0.007 0.07055,0.007 0.07056,0 0.116417,-0.0952 0.04586,-0.0988 0.04586,-0.29987 v -1.53105 q 0,-0.15875 -0.01764,-0.25753 -0.01411,-0.1023 -0.04233,-0.15522 -0.02469,-0.0564 -0.05997,-0.0776 -0.03175,-0.0212 -0.0635,-0.0212 -0.06703,0 -0.119945,0.0847 -0.04939,0.0811 -0.04939,0.26105 z m 1.005417,-0.88548 q 0,0.25753 -0.06703,0.508 -0.0635,0.25048 -0.176389,0.44803 -0.109361,0.19756 -0.261055,0.32103 -0.151695,0.11994 -0.321028,0.11994 -0.15875,0 -0.310444,-0.10936 -0.148167,-0.10936 -0.264584,-0.29986 -0.112889,-0.1905 -0.183444,-0.4445 -0.07056,-0.254 -0.07056,-0.54328 0,-0.23636 0.0635,-0.4833 0.06703,-0.25047 0.179917,-0.45156 0.112889,-0.20108 0.264583,-0.32808 0.151695,-0.13053 0.321028,-0.13053 0.148167,0 0.292806,0.10936 0.148166,0.10936 0.264583,0.29986 0.119944,0.18698 0.194028,0.44098 0.07408,0.254 0.07408,0.54327 z" />
      <path
         inkscape:connector-curvature="0"
         id="path7131"
         style="font-style:normal;font-variant:normal;font-weight:normal;font-stretch:normal;font-family:'Bradley Gratis';-inkscape-font-specification:'Bradley Gratis';text-align:start;text-anchor:start;stroke-width:0.26458332"
         d="m 83.100827,150.11223 q 0.04586,-0.27164 0.130528,-0.51153 0.08819,-0.23989 0.194027,-0.45861 0.105834,-0.21872 0.218723,-0.41628 0.116416,-0.20108 0.218722,-0.38805 0.102305,-0.18698 0.179916,-0.36336 0.07761,-0.17992 0.112889,-0.35984 -0.02822,-0.0176 -0.06703,-0.0318 -0.03528,-0.0141 -0.137583,-0.0141 -0.05292,0 -0.09525,0.0282 -0.03881,0.0247 -0.06703,0.0635 -0.02822,0.0353 -0.04586,0.0776 -0.01411,0.0388 -0.01411,0.0635 0,0.0282 0.01058,0.067 0.01411,0.0353 0.02822,0.0706 0.01764,0.0353 0.03528,0.067 0.01764,0.0282 0.03175,0.0423 l -0.430388,0.26811 q -0.08467,-0.0811 -0.144639,-0.19756 -0.05644,-0.11994 -0.05644,-0.23988 0,-0.06 0.03175,-0.14817 0.03175,-0.0882 0.102306,-0.16933 0.07055,-0.0847 0.183444,-0.14112 0.116417,-0.06 0.282222,-0.06 0.130528,0 0.218723,0.0176 0.08819,0.0176 0.155222,0.0423 0.06703,0.0212 0.123472,0.0388 0.05997,0.0176 0.134056,0.0176 0.04586,0 0.09878,-0.007 0.05292,-0.007 0.09878,-0.0212 0.04586,-0.0141 0.08114,-0.0282 0.03881,-0.0176 0.05997,-0.0388 -0.04233,0.22225 -0.134055,0.46214 -0.09172,0.23989 -0.204611,0.47978 -0.109361,0.23988 -0.232834,0.46919 -0.119944,0.22931 -0.22225,0.43039 -0.09878,0.19755 -0.169333,0.35983 -0.06703,0.15875 -0.07408,0.26106 0.141111,0.06 0.239889,0.06 0.0635,0 0.130527,-0.0141 0.06703,-0.0176 0.119945,-0.0529 0.05644,-0.0353 0.09172,-0.0882 0.03528,-0.0565 0.03528,-0.13406 0,-0.0776 -0.01764,-0.127 -0.01411,-0.0529 -0.03881,-0.0847 -0.02469,-0.0353 -0.05644,-0.06 -0.03175,-0.0282 -0.05997,-0.0564 l 0.405694,-0.29986 q 0.141111,0.10583 0.201083,0.22578 0.05997,0.11994 0.05997,0.26105 0,0.067 -0.02117,0.13053 -0.01764,0.06 -0.04586,0.11289 -0.0247,0.0494 -0.05997,0.0917 -0.03175,0.0423 -0.05644,0.067 l 0.05997,0.06 q 0.01764,0.0176 0.03881,0.0529 0.02117,0.0317 0.02117,0.0564 0,0.0282 -0.02469,0.0811 -0.02117,0.0564 -0.08819,0.0988 -0.02469,-0.0318 -0.05644,-0.0565 -0.02822,-0.0212 -0.05997,-0.0388 -0.03175,-0.0176 -0.06703,-0.0176 z" />
      <path
         inkscape:connector-curvature="0"
         id="path7133"
         style="font-style:normal;font-variant:normal;font-weight:normal;font-stretch:normal;font-family:'Bradley Gratis';-inkscape-font-specification:'Bradley Gratis';text-align:start;text-anchor:start;stroke-width:0.26458332"
         d="m 86.607162,147.38526 v 0.381 q -0.0388,-0.0353 -0.102305,-0.0776 -0.05997,-0.0423 -0.130528,-0.0741 -0.06703,-0.0353 -0.134056,-0.0564 -0.06703,-0.0247 -0.112889,-0.0247 -0.08467,0 -0.172861,0.067 -0.08819,0.067 -0.144639,0.17992 -0.05644,0.10936 -0.07408,0.28928 -0.01411,0.17638 -0.01411,0.45508 h 0.903111 l -0.179917,0.40217 q -0.03528,-0.0529 -0.08467,-0.0706 -0.04586,-0.0212 -0.08467,-0.0212 H 85.72169 q 0,0.20109 0.0071,0.39511 0.0071,0.1905 0.04586,0.3422 0.04233,0.15169 0.127,0.24694 0.08467,0.0917 0.243416,0.0917 0.08467,0 0.165806,-0.0317 0.08467,-0.0318 0.155222,-0.0776 0.07056,-0.0494 0.123472,-0.1023 0.05644,-0.0529 0.08819,-0.0952 v 0.508 h -0.47625 q -0.342195,0 -0.553861,-0.11995 -0.211667,-0.12347 -0.331611,-0.32808 -0.116417,-0.20814 -0.15875,-0.47978 -0.03881,-0.27164 -0.03881,-0.56797 0,-0.0741 0.01058,-0.19403 0.01058,-0.12347 0.04586,-0.25752 0.03528,-0.13759 0.102306,-0.27517 0.06703,-0.14111 0.179917,-0.25047 0.116416,-0.11289 0.28575,-0.18345 0.169333,-0.0706 0.409222,-0.0706 z" />
      <path
         inkscape:connector-curvature="0"
         id="path7135"
         style="font-style:normal;font-variant:normal;font-weight:normal;font-stretch:normal;font-family:'Bradley Gratis';-inkscape-font-specification:'Bradley Gratis';text-align:start;text-anchor:start;stroke-width:0.26458332"
         d="m 86.993564,150.11223 v -2.4377 q 0,-0.0988 -0.04233,-0.1658 -0.04233,-0.0706 -0.08467,-0.12347 h 0.684389 v 0.35983 l 0.391583,-0.45508 q 0.179917,0.16227 0.296334,0.32455 0.116416,0.15875 0.183444,0.32103 0.06703,0.15875 0.09172,0.32456 0.02469,0.16227 0.02469,0.33513 0,0.16934 -0.02822,0.32456 -0.02469,0.15169 -0.07408,0.29986 -0.04939,0.14817 -0.119944,0.29986 -0.06703,0.1517 -0.148167,0.3175 h 0.127 q 0.04586,0 0.09525,-0.0318 0.04939,-0.0317 0.09878,-0.0317 v 0.33867 h -0.684389 q 0.09525,-0.19403 0.151695,-0.34925 0.05997,-0.15522 0.09172,-0.29633 0.03175,-0.14112 0.04233,-0.27517 0.01058,-0.13406 0.01058,-0.28575 0,-0.1517 -0.05292,-0.31397 -0.04939,-0.16581 -0.123472,-0.30339 -0.07408,-0.13759 -0.15875,-0.22578 -0.08114,-0.0882 -0.148167,-0.0882 -0.04233,0 -0.06703,0.0212 v 2.11667 z" />
      <path
         inkscape:connector-curvature="0"
         id="path7137"
         style="font-style:normal;font-variant:normal;font-weight:normal;font-stretch:normal;font-family:'Bradley Gratis';-inkscape-font-specification:'Bradley Gratis';text-align:start;text-anchor:start;stroke-width:0.26458332"
         d="m 90.231733,150.22865 q -0.1905,-0.13759 -0.324555,-0.29281 -0.134056,-0.15875 -0.215195,-0.32808 -0.08114,-0.16934 -0.119944,-0.3422 -0.03528,-0.17639 -0.03528,-0.34572 0,-0.16581 0.03528,-0.32808 0.03528,-0.16581 0.09172,-0.32456 0.05997,-0.16228 0.137583,-0.31397 0.07761,-0.15522 0.15875,-0.30339 h -0.02117 q -0.01058,0 -0.0247,0 -0.01058,-0.004 -0.02822,-0.004 -0.05644,0 -0.137583,0.0141 -0.07761,0.0141 -0.151695,0.0706 v -0.34572 h 0.740834 q -0.09172,0.15875 -0.15875,0.32102 -0.0635,0.15875 -0.105834,0.31045 -0.0388,0.14817 -0.05997,0.28222 -0.01764,0.13053 -0.01764,0.23636 0,0.10584 0.02117,0.254 0.02117,0.14817 0.07761,0.30692 0.05997,0.15522 0.15875,0.29633 0.102306,0.14111 0.264583,0.22931 l 0.105834,-0.0776 q -0.0635,-0.11995 -0.09878,-0.22931 -0.03528,-0.11289 -0.05292,-0.21167 -0.01411,-0.0988 -0.01764,-0.17991 -0.0035,-0.0847 -0.0035,-0.1517 0,-0.10936 0.02822,-0.24694 0.02822,-0.13758 0.08114,-0.28575 0.05292,-0.14817 0.127,-0.29986 0.07761,-0.1517 0.172861,-0.29634 -0.134056,0 -0.22225,0.0212 -0.08467,0.0212 -0.144639,0.06 v -0.33866 h 0.762 q -0.0635,0.0882 -0.127,0.20108 -0.05997,0.10936 -0.105833,0.23989 -0.04586,0.127 -0.07408,0.27164 -0.02822,0.14464 -0.02822,0.29633 0,0.25753 0.04586,0.45861 0.04586,0.19756 0.127,0.34925 0.08114,0.1517 0.1905,0.26106 0.109361,0.10936 0.232833,0.18697 v -2.26483 h 0.529167 v 2.12019 q 0,0.0247 -0.03528,0.0706 -0.03528,0.0423 -0.09172,0.0988 -0.05292,0.0565 -0.127,0.12348 -0.07055,0.0635 -0.144639,0.127 -0.176389,0.14816 -0.398639,0.32455 -0.172861,-0.13405 -0.296333,-0.26458 -0.123472,-0.13053 -0.211667,-0.254 z" />
      <path
         inkscape:connector-curvature="0"
         id="path7139"
         style="font-style:normal;font-variant:normal;font-weight:normal;font-stretch:normal;font-family:'Bradley Gratis';-inkscape-font-specification:'Bradley Gratis';text-align:start;text-anchor:start;stroke-width:0.26458332"
         d="m 93.483793,148.41537 v -0.87842 h -0.416278 q -0.0035,0.23636 -0.01411,0.4692 -0.0071,0.2293 -0.01764,0.40922 z m 0.719667,-1.03011 q -0.03881,0.0282 -0.07408,0.0706 -0.03175,0.0423 -0.05644,0.0917 -0.02117,0.0459 -0.03528,0.0917 -0.01411,0.0423 -0.01411,0.0741 v 2.39889 H 93.4838 v -1.32997 h -0.472722 q -0.0035,0.127 -0.03528,0.27869 -0.03175,0.14817 -0.08819,0.29986 -0.05292,0.14817 -0.127,0.28928 -0.07055,0.13758 -0.162277,0.24342 -0.08819,0.10583 -0.1905,0.16933 -0.09878,0.0635 -0.208139,0.0635 -0.07056,0 -0.123472,-0.0423 -0.04939,-0.0423 -0.04939,-0.11995 0,-0.0494 0.03175,-0.0705 0.03175,-0.0247 0.06703,-0.0247 0.03175,0 0.04939,0.0106 0.01764,0.007 0.03175,0.0212 0.01764,0.0106 0.03881,0.0212 0.02117,0.007 0.05997,0.007 0.0635,0 0.102306,-0.0635 0.0388,-0.067 0.0635,-0.17638 0.02469,-0.11289 0.03528,-0.25753 0.01411,-0.14817 0.02117,-0.31045 0.0071,-0.16227 0.01764,-0.32808 0.01058,-0.16933 0.02822,-0.32456 0.02117,-0.18344 0.0635,-0.33513 0.04586,-0.1517 0.09525,-0.26812 0.04939,-0.11641 0.09878,-0.19755 0.04939,-0.0811 0.08467,-0.13053 h -0.07761 q -0.06703,0 -0.123473,0.0212 -0.05644,0.0176 -0.102305,0.0423 -0.04233,0.0212 -0.07761,0.0423 -0.03175,0.0176 -0.05644,0.0176 -0.05997,0 -0.08819,-0.0423 -0.02822,-0.0423 -0.02822,-0.0952 0,-0.0494 0.05292,-0.0917 0.05644,-0.0459 0.155222,-0.0459 z" />
      <path
         inkscape:connector-curvature="0"
         id="path7141"
         style="font-style:normal;font-variant:normal;font-weight:normal;font-stretch:normal;font-family:'Bradley Gratis';-inkscape-font-specification:'Bradley Gratis';text-align:start;text-anchor:start;stroke-width:0.26458332"
         d="m 94.98365,150.2357 q -0.08114,-0.0811 -0.186972,-0.15875 -0.102306,-0.0776 -0.201083,-0.13758 -0.09525,-0.06 -0.169334,-0.10231 -0.07055,-0.0423 -0.08114,-0.0529 0.03528,-0.0423 0.08819,-0.11642 0.05292,-0.0776 0.102305,-0.1517 0.05292,-0.0741 0.09172,-0.13052 0.04233,-0.06 0.05292,-0.0706 0.04939,0.0317 0.134056,0.0882 0.08819,0.0529 0.172861,0.11288 0.08819,0.06 0.15875,0.10937 0.07056,0.0494 0.09172,0.0705 0.04939,-0.0282 0.08114,-0.0741 0.03528,-0.0459 0.03528,-0.14817 0,-0.0882 -0.07408,-0.18697 -0.07056,-0.0988 -0.176389,-0.20814 -0.105834,-0.10936 -0.232834,-0.22931 -0.127,-0.11994 -0.232833,-0.24694 -0.105833,-0.127 -0.179917,-0.25753 -0.07055,-0.13053 -0.07055,-0.26811 0,-0.0988 0.04939,-0.18344 0.05292,-0.0882 0.130527,-0.16228 0.07761,-0.0776 0.169334,-0.13758 0.09525,-0.0635 0.179916,-0.11642 0.08819,-0.0564 0.155223,-0.0988 0.06703,-0.0459 0.09525,-0.0811 0.02117,0.0176 0.09172,0.0882 0.07408,0.067 0.15875,0.14464 0.08467,0.0776 0.15875,0.13758 0.07761,0.06 0.102305,0.06 -0.03528,0.0282 -0.08819,0.0847 -0.04939,0.0529 -0.102306,0.11289 -0.04939,0.06 -0.09172,0.11641 -0.0388,0.0529 -0.05644,0.0811 -0.08114,-0.0353 -0.162278,-0.10583 -0.08114,-0.0706 -0.148167,-0.13758 -0.06703,-0.067 -0.112889,-0.11642 -0.04586,-0.0529 -0.05997,-0.0529 -0.02822,0 -0.04939,0.0317 -0.01764,0.0282 -0.01764,0.067 0,0.0847 0.07408,0.17992 0.07761,0.0953 0.186972,0.20461 0.112889,0.10583 0.243417,0.22578 0.134055,0.11641 0.243416,0.24341 0.112889,0.127 0.186973,0.26459 0.07761,0.13405 0.07761,0.27516 0,0.127 -0.09525,0.26811 -0.09525,0.14111 -0.229306,0.28223 -0.130528,0.13758 -0.268111,0.26458 -0.137583,0.12347 -0.225778,0.21872 z" />
      <path
         inkscape:connector-curvature="0"
         id="path7143"
         style="font-style:normal;font-variant:normal;font-weight:normal;font-stretch:normal;font-family:'Bradley Gratis';-inkscape-font-specification:'Bradley Gratis';text-align:start;text-anchor:start;stroke-width:0.26458332"
         d="m 97.468638,149.63598 q 0,0.13758 -0.05644,0.23989 -0.05644,0.0988 -0.148167,0.16228 -0.08819,0.0635 -0.197556,0.0952 -0.109361,0.0318 -0.215194,0.0318 -0.165806,0 -0.324556,-0.0811 -0.15875,-0.0811 -0.28575,-0.21873 -0.127,-0.14111 -0.204611,-0.32808 -0.07761,-0.1905 -0.07761,-0.40922 0,-0.39158 0.179917,-0.72672 0.179917,-0.33867 0.500944,-0.61384 -0.02822,-0.004 -0.05292,-0.004 -0.02117,-0.004 -0.04586,-0.004 -0.08467,0 -0.179917,0.0282 -0.09525,0.0282 -0.179917,0.0741 -0.08467,0.0423 -0.155222,0.0953 -0.06703,0.0529 -0.102306,0.0988 0.02822,-0.13758 0.105834,-0.27164 0.07761,-0.13405 0.194028,-0.23636 0.116416,-0.1023 0.268111,-0.1658 0.151694,-0.0635 0.331611,-0.0635 0.09172,0 0.194028,0.0282 0.102305,0.0282 0.194027,0.0741 0.09525,0.0423 0.169334,0.0952 0.07408,0.0529 0.112889,0.10231 l -0.289278,0.44097 q -0.176389,-0.17286 -0.381,-0.24695 -0.04586,0.0741 -0.09525,0.17639 -0.04939,0.0988 -0.09172,0.22578 -0.03881,0.127 -0.06703,0.28222 -0.0247,0.1517 -0.0247,0.33161 0,0.16934 0.0247,0.29987 0.02822,0.13052 0.07055,0.22577 0.04233,0.0952 0.09525,0.15875 0.05644,0.0635 0.112889,0.10584 0.134056,0.0952 0.306917,0.10583 0.07055,0 0.162278,-0.0282 0.09525,-0.0317 0.151694,-0.0811 z" />
      <path
         inkscape:connector-curvature="0"
         id="path7145"
         style="font-style:normal;font-variant:normal;font-weight:normal;font-stretch:normal;font-family:'Bradley Gratis';-inkscape-font-specification:'Bradley Gratis';text-align:start;text-anchor:start;stroke-width:0.26458332"
         d="m 99.236882,147.38526 v 0.381 q -0.0388,-0.0353 -0.102305,-0.0776 -0.05997,-0.0423 -0.130528,-0.0741 -0.06703,-0.0353 -0.134055,-0.0564 -0.06703,-0.0247 -0.112889,-0.0247 -0.08467,0 -0.172861,0.067 -0.08819,0.067 -0.144639,0.17992 -0.05644,0.10936 -0.07408,0.28928 -0.01411,0.17638 -0.01411,0.45508 h 0.903111 l -0.179916,0.40217 q -0.03528,-0.0529 -0.08467,-0.0706 -0.04586,-0.0212 -0.08467,-0.0212 h -0.55386 q 0,0.20109 0.0071,0.39511 0.0071,0.1905 0.04586,0.3422 0.04233,0.15169 0.127,0.24694 0.08467,0.0917 0.243417,0.0917 0.08467,0 0.165805,-0.0317 0.08467,-0.0318 0.155222,-0.0776 0.07056,-0.0494 0.123473,-0.1023 0.05644,-0.0529 0.08819,-0.0952 v 0.508 h -0.47625 q -0.342194,0 -0.553861,-0.11995 -0.211667,-0.12347 -0.331611,-0.32808 -0.116417,-0.20814 -0.15875,-0.47978 -0.03881,-0.27164 -0.03881,-0.56797 0,-0.0741 0.01058,-0.19403 0.01058,-0.12347 0.04586,-0.25752 0.03528,-0.13759 0.102305,-0.27517 0.06703,-0.14111 0.179917,-0.25047 0.116417,-0.11289 0.28575,-0.18345 0.169333,-0.0706 0.409222,-0.0706 z" />
      <path
         inkscape:connector-curvature="0"
         id="path7147"
         style="font-style:normal;font-variant:normal;font-weight:normal;font-stretch:normal;font-family:'Bradley Gratis';-inkscape-font-specification:'Bradley Gratis';text-align:start;text-anchor:start;stroke-width:0.26458332"
         d="m 100.51581,148.08023 q -0.0882,-0.21167 -0.15169,-0.35278 -0.0635,-0.14111 -0.0988,-0.14111 -0.0388,0 -0.0529,0.0353 -0.0106,0.0317 -0.0106,0.0564 v 1.91206 q 0,0.0776 -0.0423,0.16228 -0.0423,0.0847 -0.11289,0.14816 0.13053,0 0.23283,-0.0635 0.10231,-0.067 0.21167,-0.14464 0.11289,-0.0811 0.25047,-0.14464 0.13758,-0.067 0.34219,-0.067 v 0.63147 h -1.594552 q 0.04586,-0.067 0.07761,-0.127 0.03528,-0.06 0.05644,-0.11995 0.02117,-0.06 0.03175,-0.127 0.01058,-0.067 0.01058,-0.14816 v -1.66864 q 0,-0.11289 -0.04233,-0.18345 -0.04233,-0.0741 -0.05997,-0.1023 0.01411,-0.004 0.07055,-0.0247 0.05997,-0.0247 0.144639,-0.0564 0.08467,-0.0317 0.186972,-0.067 0.102301,-0.0353 0.201081,-0.0635 0.0988,-0.0317 0.18697,-0.0494 0.0882,-0.0212 0.14464,-0.0212 0.0882,0 0.16581,0.0494 0.0776,0.0494 0.14111,0.12347 0.0635,0.0741 0.10936,0.1658 0.0459,0.0882 0.0741,0.16581 z" />
      <path
         inkscape:connector-curvature="0"
         id="path7149"
         style="font-style:normal;font-variant:normal;font-weight:normal;font-stretch:normal;font-family:'Bradley Gratis';-inkscape-font-specification:'Bradley Gratis';text-align:start;text-anchor:start;stroke-width:0.26458332"
         d="m 102.69598,148.41537 v -0.87842 h -0.41628 q -0.004,0.23636 -0.0141,0.4692 -0.007,0.2293 -0.0176,0.40922 z m 0.71967,-1.03011 q -0.0388,0.0282 -0.0741,0.0706 -0.0318,0.0423 -0.0564,0.0917 -0.0212,0.0459 -0.0353,0.0917 -0.0141,0.0423 -0.0141,0.0741 v 2.39889 H 102.696 v -1.32997 h -0.47272 q -0.004,0.127 -0.0353,0.27869 -0.0318,0.14817 -0.0882,0.29986 -0.0529,0.14817 -0.127,0.28928 -0.0705,0.13758 -0.16227,0.24342 -0.0882,0.10583 -0.1905,0.16933 -0.0988,0.0635 -0.20814,0.0635 -0.0706,0 -0.12347,-0.0423 -0.0494,-0.0423 -0.0494,-0.11995 0,-0.0494 0.0318,-0.0705 0.0318,-0.0247 0.067,-0.0247 0.0318,0 0.0494,0.0106 0.0176,0.007 0.0318,0.0212 0.0176,0.0106 0.0388,0.0212 0.0212,0.007 0.06,0.007 0.0635,0 0.10231,-0.0635 0.0388,-0.067 0.0635,-0.17638 0.0247,-0.11289 0.0353,-0.25753 0.0141,-0.14817 0.0212,-0.31045 0.007,-0.16227 0.0176,-0.32808 0.0106,-0.16933 0.0282,-0.32456 0.0212,-0.18344 0.0635,-0.33513 0.0459,-0.1517 0.0952,-0.26812 0.0494,-0.11641 0.0988,-0.19755 0.0494,-0.0811 0.0847,-0.13053 h -0.0776 q -0.067,0 -0.12348,0.0212 -0.0564,0.0176 -0.1023,0.0423 -0.0423,0.0212 -0.0776,0.0423 -0.0318,0.0176 -0.0564,0.0176 -0.06,0 -0.0882,-0.0423 -0.0282,-0.0423 -0.0282,-0.0952 0,-0.0494 0.0529,-0.0917 0.0564,-0.0459 0.15522,-0.0459 z" />
      <path
         inkscape:connector-curvature="0"
         id="path7151"
         style="font-style:normal;font-variant:normal;font-weight:normal;font-stretch:normal;font-family:'Bradley Gratis';-inkscape-font-specification:'Bradley Gratis';text-align:start;text-anchor:start;stroke-width:0.26458332"
         d="m 103.71606,150.11223 v -2.4377 q 0,-0.0988 -0.0423,-0.1658 -0.0423,-0.0706 -0.0847,-0.12347 h 0.68439 v 0.35983 l 0.39158,-0.45508 q 0.17992,0.16227 0.29633,0.32455 0.11642,0.15875 0.18345,0.32103 0.067,0.15875 0.0917,0.32456 0.0247,0.16227 0.0247,0.33513 0,0.16934 -0.0282,0.32456 -0.0247,0.15169 -0.0741,0.29986 -0.0494,0.14817 -0.11995,0.29986 -0.067,0.1517 -0.14816,0.3175 h 0.127 q 0.0459,0 0.0953,-0.0318 0.0494,-0.0317 0.0988,-0.0317 v 0.33867 h -0.68439 q 0.0952,-0.19403 0.15169,-0.34925 0.06,-0.15522 0.0917,-0.29633 0.0318,-0.14112 0.0423,-0.27517 0.0106,-0.13406 0.0106,-0.28575 0,-0.1517 -0.0529,-0.31397 -0.0494,-0.16581 -0.12347,-0.30339 -0.0741,-0.13759 -0.15875,-0.22578 -0.0811,-0.0882 -0.14817,-0.0882 -0.0423,0 -0.067,0.0212 v 2.11667 z" />
      <path
         inkscape:connector-curvature="0"
         id="path7153"
         style="font-style:normal;font-variant:normal;font-weight:normal;font-stretch:normal;font-family:'Bradley Gratis';-inkscape-font-specification:'Bradley Gratis';text-align:start;text-anchor:start;stroke-width:0.26458332"
         d="m 105.60496,147.6322 q -0.0917,-0.0388 -0.127,-0.0953 -0.0353,-0.0564 -0.0353,-0.10583 0,-0.0423 0.0282,-0.0529 0.0282,0.0176 0.0776,0.0247 0.0494,0.007 0.11289,0.007 0.0318,0 0.0882,-0.0106 0.06,-0.0106 0.13053,-0.0212 0.0706,-0.0106 0.14464,-0.0212 0.0776,-0.0106 0.14464,-0.0106 0.16227,0 0.33161,0.0847 0.16933,0.0811 0.30339,0.254 0.13405,0.16933 0.21872,0.43391 0.0882,0.26106 0.0882,0.62442 0,0.30692 -0.0529,0.52917 -0.0529,0.22225 -0.13406,0.37747 -0.0811,0.15522 -0.17992,0.25047 -0.0988,0.0917 -0.19402,0.14464 -0.0917,0.0494 -0.16934,0.067 -0.0741,0.0176 -0.10936,0.0176 -0.0529,0 -0.11289,-0.0141 -0.06,-0.0141 -0.11994,-0.0317 -0.0565,-0.0176 -0.10936,-0.0318 -0.0494,-0.0141 -0.0847,-0.0141 -0.0388,0 -0.0705,0.0141 -0.0318,0.0106 -0.067,0.0247 -0.0317,0.0106 -0.0706,0.0247 -0.0388,0.0106 -0.0882,0.0106 -0.0176,0 -0.0388,-0.004 -0.0176,-0.004 -0.0353,-0.0106 -0.0176,-0.007 -0.0353,-0.0176 0.0282,-0.0176 0.0564,-0.06 0.0282,-0.0459 0.0529,-0.0952 0.0282,-0.0529 0.0564,-0.11642 z m 0.51858,2.10256 q 0,0.0741 0.0247,0.11641 0.0282,0.0388 0.06,0.0565 0.0388,0.0212 0.0847,0.0247 0.0811,0 0.14111,-0.10936 0.0635,-0.10936 0.0635,-0.27869 v -1.5487 q 0,-0.1658 -0.0318,-0.25753 -0.0318,-0.0917 -0.0741,-0.13405 -0.0423,-0.0423 -0.0847,-0.0494 -0.0423,-0.0106 -0.067,-0.0106 -0.0423,0 -0.0811,0.0564 -0.0353,0.0565 -0.0353,0.14817 z" />
    </g>
    <g
       style="font-style:normal;font-variant:normal;font-weight:bold;font-stretch:normal;font-size:13.3333px;line-height:1.25;font-family:Consolas;-inkscape-font-specification:'Consolas Bold';text-align:center;letter-spacing:0px;word-spacing:0px;text-anchor:middle;fill:#000000;fill-opacity:1;stroke:none"
       id="flowRoot2363"
       transform="matrix(1.0344827,0,0,1.0014499,-1.2877853,-0.14648349)" />
    <g
       style="font-style:normal;font-variant:normal;font-weight:normal;font-stretch:normal;font-size:3.59069px;line-height:1.25;font-family:Quarca;-inkscape-font-specification:Quarca;text-align:start;letter-spacing:0px;word-spacing:0px;text-anchor:start;fill:#dddddd;fill-opacity:1;stroke:none;stroke-width:0.269301"
       id="text3885"
       transform="scale(1.0163587,0.9839046)"
       aria-label="PW - ALGORITHMIC EXPANDER">
      <path
         id="path16101"
         style="font-style:normal;font-variant:normal;font-weight:normal;font-stretch:normal;font-size:3.94975px;font-family:Quarca;-inkscape-font-specification:Quarca;text-align:start;text-anchor:start;fill:#dddddd;fill-opacity:1;stroke-width:0.269301"
         d="m 38.970951,54.005376 h 0.884744 c 0.351528,0 0.533216,-0.177739 0.533216,-0.529267 v -0.592462 c 0,-0.351528 -0.181688,-0.529267 -0.533216,-0.529267 h -1.10988 v 2.804323 h 0.225136 z m 0,-1.437709 h 0.853146 c 0.229086,0 0.335729,0.106643 0.335729,0.359427 v 0.505568 c 0,0.252784 -0.106643,0.359427 -0.335729,0.359427 h -0.853146 z" />
      <path
         id="path16103"
         style="font-style:normal;font-variant:normal;font-weight:normal;font-stretch:normal;font-size:3.94975px;font-family:Quarca;-inkscape-font-specification:Quarca;text-align:start;text-anchor:start;fill:#dddddd;fill-opacity:1;stroke-width:0.269301"
         d="m 41.658694,55.158703 0.505568,-2.271106 c 0.01185,-0.0395 0.0158,-0.102694 0.0158,-0.154041 0.0039,0.05135 0.01185,0.114543 0.0237,0.154041 l 0.509517,2.271106 h 0.252784 l 0.750453,-2.804323 h -0.229086 l -0.592462,2.298755 c -0.01975,0.08295 -0.0395,0.15404 -0.0474,0.233035 -0.0079,-0.07899 -0.02765,-0.15404 -0.04345,-0.236985 L 42.294604,52.35438 H 42.069468 L 41.5639,54.649185 c -0.0158,0.08294 -0.0316,0.16194 -0.0395,0.244885 -0.0158,-0.08295 -0.03555,-0.16589 -0.0553,-0.248835 L 40.880594,52.35438 h -0.233036 l 0.754403,2.804323 z" />
      <path
         id="path16105"
         style="font-style:normal;font-variant:normal;font-weight:normal;font-stretch:normal;font-size:3.94975px;font-family:Quarca;-inkscape-font-specification:Quarca;text-align:start;text-anchor:start;fill:#dddddd;fill-opacity:1;stroke-width:0.269301"
         d="m 46.039769,53.894783 h -1.212573 l -0.0316,0.201437 h 1.212573 z" />
      <path
         id="path16107"
         style="font-style:normal;font-variant:normal;font-weight:normal;font-stretch:normal;font-size:3.94975px;font-family:Quarca;-inkscape-font-specification:Quarca;text-align:start;text-anchor:start;fill:#dddddd;fill-opacity:1;stroke-width:0.269301"
         d="m 47.856777,52.35438 -0.864995,2.804323 h 0.240935 l 0.181688,-0.608262 h 1.129629 l 0.181688,0.608262 h 0.240935 L 48.105612,52.35438 Z m 0.126392,0.300181 0.497669,1.682594 h -1.003237 z" />
      <path
         id="path16109"
         style="font-style:normal;font-variant:normal;font-weight:normal;font-stretch:normal;font-size:3.94975px;font-family:Quarca;-inkscape-font-specification:Quarca;text-align:start;text-anchor:start;fill:#dddddd;fill-opacity:1;stroke-width:0.269301"
         d="m 49.531903,52.35438 h -0.225135 v 2.804323 h 1.437709 l 0.0316,-0.213287 h -1.244172 z" />
      <path
         id="path16111"
         style="font-style:normal;font-variant:normal;font-weight:normal;font-stretch:normal;font-size:3.94975px;font-family:Quarca;-inkscape-font-specification:Quarca;text-align:start;text-anchor:start;fill:#dddddd;fill-opacity:1;stroke-width:0.269301"
         d="m 51.930266,54.017225 h 0.675407 v 0.588513 c 0,0.229085 -0.09479,0.339678 -0.347578,0.339678 h -0.62406 c -0.233035,0 -0.343628,-0.106643 -0.343628,-0.359427 v -1.631247 c 0,-0.268583 0.09084,-0.387075 0.323879,-0.387075 h 0.675407 c 0.233036,0 0.335729,0.106643 0.335729,0.359427 v 0.252784 h 0.225136 v -0.31993 c 0,-0.351527 -0.173789,-0.505568 -0.509518,-0.505568 h -0.801799 c -0.31598,0 -0.47397,0.177739 -0.47397,0.533217 v 1.769488 c 0,0.355477 0.197488,0.501618 0.513468,0.501618 h 0.734653 c 0.391025,0 0.521367,-0.193538 0.521367,-0.533216 v -0.821548 h -0.872895 z" />
      <path
         id="path16113"
         style="font-style:normal;font-variant:normal;font-weight:normal;font-stretch:normal;font-size:3.94975px;font-family:Quarca;-inkscape-font-specification:Quarca;text-align:start;text-anchor:start;fill:#dddddd;fill-opacity:1;stroke-width:0.269301"
         d="m 53.302434,54.613637 c 0,0.363377 0.138241,0.545066 0.541115,0.545066 h 0.750453 c 0.402874,0 0.541116,-0.181689 0.541116,-0.545066 v -1.714191 c 0,-0.363377 -0.138242,-0.545066 -0.541116,-0.545066 h -0.750453 c -0.402874,0 -0.541115,0.181689 -0.541115,0.545066 z m 0.564814,-2.04597 h 0.703055 c 0.252784,0 0.339679,0.118492 0.339679,0.367327 v 1.643096 c 0,0.248834 -0.08689,0.367326 -0.339679,0.367326 h -0.703055 c -0.248834,0 -0.339679,-0.118492 -0.339679,-0.367326 v -1.643096 c 0,-0.248835 0.09085,-0.367327 0.339679,-0.367327 z" />
      <path
         id="path16115"
         style="font-style:normal;font-variant:normal;font-weight:normal;font-stretch:normal;font-size:3.94975px;font-family:Quarca;-inkscape-font-specification:Quarca;text-align:start;text-anchor:start;fill:#dddddd;fill-opacity:1;stroke-width:0.269301"
         d="m 55.647968,55.158703 h 0.225136 v -1.125679 h 0.517417 l 0.786001,1.125679 h 0.264633 l -0.78995,-1.125679 h 0.0553 c 0.375227,0 0.556915,-0.177739 0.556915,-0.533216 v -0.612211 c 0,-0.355478 -0.181688,-0.533217 -0.556915,-0.533217 h -1.058533 z m 0.225136,-2.591036 h 0.7939 c 0.252784,0 0.367327,0.118492 0.367327,0.387075 v 0.47792 c 0,0.272533 -0.114543,0.391025 -0.367327,0.391025 h -0.7939 z" />
      <path
         id="path16117"
         style="font-style:normal;font-variant:normal;font-weight:normal;font-stretch:normal;font-size:3.94975px;font-family:Quarca;-inkscape-font-specification:Quarca;text-align:start;text-anchor:start;fill:#dddddd;fill-opacity:1;stroke-width:0.269301"
         d="M 57.971409,55.158703 V 52.35438 h -0.225136 v 2.804323 z" />
      <path
         id="path16119"
         style="font-style:normal;font-variant:normal;font-weight:normal;font-stretch:normal;font-size:3.94975px;font-family:Quarca;-inkscape-font-specification:Quarca;text-align:start;text-anchor:start;fill:#dddddd;fill-opacity:1;stroke-width:0.269301"
         d="M 59.943938,52.567667 V 52.35438 h -1.662845 v 0.213287 h 0.718855 v 2.591036 h 0.229085 v -2.591036 z" />
      <path
         id="path16121"
         style="font-style:normal;font-variant:normal;font-weight:normal;font-stretch:normal;font-size:3.94975px;font-family:Quarca;-inkscape-font-specification:Quarca;text-align:start;text-anchor:start;fill:#dddddd;fill-opacity:1;stroke-width:0.269301"
         d="M 60.478575,55.158703 V 54.09622 h 1.299467 v 1.062483 h 0.225136 V 52.35438 h -0.225136 v 1.528554 H 60.478575 V 52.35438 h -0.225136 v 2.804323 z" />
      <path
         id="path16123"
         style="font-style:normal;font-variant:normal;font-weight:normal;font-stretch:normal;font-size:3.94975px;font-family:Quarca;-inkscape-font-specification:Quarca;text-align:start;text-anchor:start;fill:#dddddd;fill-opacity:1;stroke-width:0.269301"
         d="m 62.746409,55.158703 v -2.440946 l 0.699106,1.366614 h 0.221186 l 0.703055,-1.366614 v 2.440946 h 0.217237 V 52.35438 H 64.31841 l -0.762302,1.489056 -0.758352,-1.489056 h -0.268583 v 2.804323 z" />
      <path
         id="path16125"
         style="font-style:normal;font-variant:normal;font-weight:normal;font-stretch:normal;font-size:3.94975px;font-family:Quarca;-inkscape-font-specification:Quarca;text-align:start;text-anchor:start;fill:#dddddd;fill-opacity:1;stroke-width:0.269301"
         d="M 65.338617,55.158703 V 52.35438 h -0.225135 v 2.804323 z" />
      <path
         id="path16127"
         style="font-style:normal;font-variant:normal;font-weight:normal;font-stretch:normal;font-size:3.94975px;font-family:Quarca;-inkscape-font-specification:Quarca;text-align:start;text-anchor:start;fill:#dddddd;fill-opacity:1;stroke-width:0.269301"
         d="m 66.418505,54.945416 c -0.248834,0 -0.339679,-0.118492 -0.339679,-0.367326 v -1.643096 c 0,-0.248835 0.09084,-0.367327 0.339679,-0.367327 h 0.639859 c 0.248835,0 0.339679,0.118492 0.339679,0.367327 v 0.256733 h 0.225136 v -0.292281 c 0,-0.363377 -0.138242,-0.545066 -0.541116,-0.545066 h -0.687257 c -0.402874,0 -0.541115,0.181689 -0.541115,0.545066 v 1.714191 c 0,0.363377 0.138241,0.545066 0.541115,0.545066 h 0.687257 c 0.402874,0 0.541116,-0.181689 0.541116,-0.545066 v -0.300181 h -0.225136 v 0.264634 c 0,0.248834 -0.09084,0.367326 -0.339679,0.367326 z" />
      <path
         id="path16129"
         style="font-style:normal;font-variant:normal;font-weight:normal;font-stretch:normal;font-size:3.94975px;font-family:Quarca;-inkscape-font-specification:Quarca;text-align:start;text-anchor:start;fill:#dddddd;fill-opacity:1;stroke-width:0.269301"
         d="m 69.087795,52.567667 h 1.26787 l 0.0316,-0.213287 H 68.86266 v 2.804323 h 1.500905 l 0.0316,-0.213287 h -1.307368 v -0.857095 h 1.062483 l 0.0316,-0.209337 h -1.094081 z" />
      <path
         id="path16131"
         style="font-style:normal;font-variant:normal;font-weight:normal;font-stretch:normal;font-size:3.94975px;font-family:Quarca;-inkscape-font-specification:Quarca;text-align:start;text-anchor:start;fill:#dddddd;fill-opacity:1;stroke-width:0.269301"
         d="M 71.40815,53.661748 70.764341,52.35438 h -0.233035 l 0.691206,1.406111 -0.679357,1.398212 h 0.236985 l 0.62801,-1.275769 0.620111,1.275769 h 0.236985 L 71.593789,53.760491 72.277095,52.35438 H 72.04406 Z" />
      <path
         id="path16133"
         style="font-style:normal;font-variant:normal;font-weight:normal;font-stretch:normal;font-size:3.94975px;font-family:Quarca;-inkscape-font-specification:Quarca;text-align:start;text-anchor:start;fill:#dddddd;fill-opacity:1;stroke-width:0.269301"
         d="m 72.806114,54.005376 h 0.884744 c 0.351528,0 0.533216,-0.177739 0.533216,-0.529267 v -0.592462 c 0,-0.351528 -0.181688,-0.529267 -0.533216,-0.529267 h -1.10988 v 2.804323 h 0.225136 z m 0,-1.437709 h 0.853146 c 0.229086,0 0.335729,0.106643 0.335729,0.359427 v 0.505568 c 0,0.252784 -0.106643,0.359427 -0.335729,0.359427 h -0.853146 z" />
      <path
         id="path16135"
         style="font-style:normal;font-variant:normal;font-weight:normal;font-stretch:normal;font-size:3.94975px;font-family:Quarca;-inkscape-font-specification:Quarca;text-align:start;text-anchor:start;fill:#dddddd;fill-opacity:1;stroke-width:0.269301"
         d="m 75.119311,52.35438 -0.864996,2.804323 h 0.240935 l 0.181689,-0.608262 h 1.129628 l 0.181689,0.608262 H 76.22919 L 75.368145,52.35438 Z m 0.126392,0.300181 0.497668,1.682594 h -1.003236 z" />
      <path
         id="path16137"
         style="font-style:normal;font-variant:normal;font-weight:normal;font-stretch:normal;font-size:3.94975px;font-family:Quarca;-inkscape-font-specification:Quarca;text-align:start;text-anchor:start;fill:#dddddd;fill-opacity:1;stroke-width:0.269301"
         d="m 76.794437,55.158703 v -2.413297 c 0.05925,0.130341 0.110593,0.260683 0.205387,0.422623 l 1.153327,1.990674 h 0.229086 V 52.35438 h -0.229086 v 2.409348 c -0.04345,-0.102694 -0.08294,-0.201437 -0.15799,-0.331779 L 76.794437,52.35438 h -0.225135 v 2.804323 z" />
      <path
         id="path16139"
         style="font-style:normal;font-variant:normal;font-weight:normal;font-stretch:normal;font-size:3.94975px;font-family:Quarca;-inkscape-font-specification:Quarca;text-align:start;text-anchor:start;fill:#dddddd;fill-opacity:1;stroke-width:0.269301"
         d="m 78.914463,55.158703 h 1.098031 c 0.493718,0 0.695156,-0.217236 0.695156,-0.663558 v -1.477207 c 0,-0.446321 -0.201438,-0.663558 -0.695156,-0.663558 h -1.098031 z m 1.086181,-0.213287 h -0.861045 v -2.377749 h 0.861045 c 0.343629,0 0.48187,0.15404 0.48187,0.497668 v 1.382413 c 0,0.343628 -0.138241,0.497668 -0.48187,0.497668 z" />
      <path
         id="path16141"
         style="font-style:normal;font-variant:normal;font-weight:normal;font-stretch:normal;font-size:3.94975px;font-family:Quarca;-inkscape-font-specification:Quarca;text-align:start;text-anchor:start;fill:#dddddd;fill-opacity:1;stroke-width:0.269301"
         d="m 81.446194,52.567667 h 1.267869 l 0.0316,-0.213287 h -1.524603 v 2.804323 h 1.500905 l 0.0316,-0.213287 h -1.307367 v -0.857095 h 1.062482 l 0.0316,-0.209337 h -1.09408 z" />
      <path
         id="path16143"
         style="font-style:normal;font-variant:normal;font-weight:normal;font-stretch:normal;font-size:3.94975px;font-family:Quarca;-inkscape-font-specification:Quarca;text-align:start;text-anchor:start;fill:#dddddd;fill-opacity:1;stroke-width:0.269301"
         d="m 83.118786,55.158703 h 0.225136 v -1.125679 h 0.517417 l 0.786,1.125679 h 0.264633 l -0.78995,-1.125679 h 0.0553 c 0.375226,0 0.556915,-0.177739 0.556915,-0.533216 v -0.612211 c 0,-0.355478 -0.181689,-0.533217 -0.556915,-0.533217 h -1.058533 z m 0.225136,-2.591036 h 0.793899 c 0.252784,0 0.367327,0.118492 0.367327,0.387075 v 0.47792 c 0,0.272533 -0.114543,0.391025 -0.367327,0.391025 h -0.793899 z" />
    </g>
    <g
       style="font-style:normal;font-variant:normal;font-weight:normal;font-stretch:normal;font-size:3.59069px;line-height:1.25;font-family:Quarca;-inkscape-font-specification:Quarca;letter-spacing:0px;word-spacing:0px;fill:#dddddd;fill-opacity:1;stroke:none;stroke-width:0.269301"
       id="text5443-7-5-4"
       transform="scale(1.0163587,0.9839046)"
       aria-label="ALGO">
      <path
         id="path16092"
         style="font-style:normal;font-variant:normal;font-weight:normal;font-stretch:normal;font-size:2.51348px;font-family:Quarca;-inkscape-font-specification:Quarca;fill:#dddddd;fill-opacity:1;stroke-width:0.269301"
         d="m 37.729289,113.94739 -0.550452,1.78457 h 0.153322 l 0.115621,-0.38708 h 0.718855 l 0.11562,0.38708 h 0.153322 l -0.547939,-1.78457 z m 0.08043,0.19102 0.316698,1.07074 h -0.638424 z" />
      <path
         id="path16094"
         style="font-style:normal;font-variant:normal;font-weight:normal;font-stretch:normal;font-size:2.51348px;font-family:Quarca;-inkscape-font-specification:Quarca;fill:#dddddd;fill-opacity:1;stroke-width:0.269301"
         d="m 38.79528,113.94739 h -0.143269 v 1.78457 h 0.914907 l 0.02011,-0.13573 H 38.79528 Z" />
      <path
         id="path16096"
         style="font-style:normal;font-variant:normal;font-weight:normal;font-stretch:normal;font-size:2.51348px;font-family:Quarca;-inkscape-font-specification:Quarca;fill:#dddddd;fill-opacity:1;stroke-width:0.269301"
         d="m 40.321512,115.00556 h 0.429805 v 0.37451 c 0,0.14578 -0.06032,0.21616 -0.221186,0.21616 h -0.39713 c -0.148295,0 -0.218673,-0.0679 -0.218673,-0.22873 v -1.03807 c 0,-0.17091 0.05781,-0.24632 0.206105,-0.24632 h 0.429805 c 0.148296,0 0.213646,0.0679 0.213646,0.22873 v 0.16086 h 0.143269 v -0.20359 c 0,-0.2237 -0.110593,-0.32172 -0.324239,-0.32172 h -0.510237 c -0.201078,0 -0.301617,0.1131 -0.301617,0.33932 v 1.12603 c 0,0.22622 0.125674,0.31922 0.326752,0.31922 h 0.467507 c 0.248835,0 0.33178,-0.12316 0.33178,-0.33932 v -0.52281 H 40.34162 Z" />
      <path
         id="path16098"
         style="font-style:normal;font-variant:normal;font-weight:normal;font-stretch:normal;font-size:2.51348px;font-family:Quarca;-inkscape-font-specification:Quarca;fill:#dddddd;fill-opacity:1;stroke-width:0.269301"
         d="m 41.19471,115.3851 c 0,0.23124 0.08797,0.34686 0.344347,0.34686 h 0.477561 c 0.256375,0 0.344347,-0.11562 0.344347,-0.34686 v -1.09085 c 0,-0.23124 -0.08797,-0.34686 -0.344347,-0.34686 h -0.477561 c -0.256375,0 -0.344347,0.11562 -0.344347,0.34686 z m 0.359428,-1.30199 h 0.4474 c 0.160862,0 0.216159,0.0754 0.216159,0.23376 v 1.0456 c 0,0.15835 -0.0553,0.23376 -0.216159,0.23376 h -0.4474 c -0.158349,0 -0.216159,-0.0754 -0.216159,-0.23376 v -1.0456 c 0,-0.15835 0.05781,-0.23376 0.216159,-0.23376 z" />
    </g>
    <g
       style="font-style:normal;font-variant:normal;font-weight:bold;font-stretch:normal;font-size:3.59069px;line-height:1.25;font-family:'Labtop Secundo Superwide';-inkscape-font-specification:'Labtop Secundo Superwide Bold';text-align:center;letter-spacing:0px;word-spacing:0px;text-anchor:middle;fill:#000000;fill-opacity:1;stroke:none;stroke-width:0.269301"
       id="text993"
       transform="scale(1.0163587,0.98390462)" />
    <g
       style="font-style:normal;font-variant:normal;font-weight:bold;font-stretch:normal;font-size:3.59069px;line-height:1.25;font-family:'Labtop Secundo Superwide';-inkscape-font-specification:'Labtop Secundo Superwide Bold';text-align:center;letter-spacing:0px;word-spacing:0px;text-anchor:middle;fill:#ff04ff;fill-opacity:1;stroke:none;stroke-width:0.269301"
       id="text1267"
       transform="scale(1.0163587,0.98390462)" />
    <g
       style="font-style:normal;font-variant:normal;font-weight:bold;font-stretch:normal;font-size:3.59069px;line-height:1.25;font-family:'Labtop Secundo Superwide';-inkscape-font-specification:'Labtop Secundo Superwide Bold';text-align:center;letter-spacing:0px;word-spacing:0px;text-anchor:middle;fill:#ffffff;fill-opacity:1;stroke:none;stroke-width:0.269301"
       id="text1271"
       transform="scale(1.0163587,0.98390462)" />
    <g
       style="font-style:normal;font-variant:normal;font-weight:bold;font-stretch:normal;font-size:3.59069px;line-height:1.25;font-family:'Labtop Secundo Superwide';-inkscape-font-specification:'Labtop Secundo Superwide Bold';text-align:center;letter-spacing:0px;word-spacing:0px;text-anchor:middle;fill:#000000;fill-opacity:1;stroke:none;stroke-width:0.269301"
       id="text1275"
       transform="scale(1.0163587,0.98390462)" />
    <g
       style="font-style:normal;font-variant:normal;font-weight:normal;font-stretch:normal;font-size:3.59069px;line-height:1.25;font-family:Quarca;-inkscape-font-specification:Quarca;letter-spacing:0px;word-spacing:0px;fill:#dddddd;fill-opacity:1;stroke:none;stroke-width:0.269301"
       id="text5443-7-5-4-3"
       transform="scale(1.0163587,0.9839046)"
       aria-label="STEPS">
      <path
         id="path16077"
         style="font-style:normal;font-variant:normal;font-weight:normal;font-stretch:normal;font-size:2.51348px;font-family:Quarca;-inkscape-font-specification:Quarca;fill:#dddddd;fill-opacity:1;stroke-width:0.269301"
         d="m 46.2683,114.99048 c 0.125674,0.0528 0.15835,0.0955 0.15835,0.21867 v 0.17343 c 0,0.15081 -0.06284,0.21365 -0.206106,0.21365 h -0.379535 c -0.143268,0 -0.208619,-0.0628 -0.208619,-0.21365 v -0.18851 h -0.143268 v 0.2237 c 0,0.20862 0.09802,0.31419 0.329266,0.31419 h 0.442372 c 0.208619,0 0.311672,-0.10557 0.311672,-0.31419 v -0.24632 c 0,-0.17846 -0.06786,-0.24129 -0.251348,-0.32172 l -0.515264,-0.21868 c -0.118133,-0.0503 -0.148295,-0.098 -0.148295,-0.20862 v -0.11059 c 0,-0.17092 0.0553,-0.22873 0.216159,-0.22873 h 0.314185 c 0.143268,0 0.213646,0.0653 0.213646,0.22119 v 0.1684 h 0.145782 v -0.20359 c 0,-0.22621 -0.10808,-0.32172 -0.33932,-0.32172 h -0.371995 c -0.221186,0 -0.321725,0.098 -0.321725,0.32172 v 0.17594 c 0,0.18098 0.06032,0.24633 0.248834,0.32927 z" />
      <path
         id="path16079"
         style="font-style:normal;font-variant:normal;font-weight:normal;font-stretch:normal;font-size:2.51348px;font-family:Quarca;-inkscape-font-specification:Quarca;fill:#dddddd;fill-opacity:1;stroke-width:0.269301"
         d="m 47.775092,114.08311 v -0.13572 h -1.058175 v 0.13572 h 0.457454 v 1.64885 h 0.145782 v -1.64885 z" />
      <path
         id="path16081"
         style="font-style:normal;font-variant:normal;font-weight:normal;font-stretch:normal;font-size:2.51348px;font-family:Quarca;-inkscape-font-specification:Quarca;fill:#dddddd;fill-opacity:1;stroke-width:0.269301"
         d="m 48.115315,114.08311 h 0.806828 l 0.02011,-0.13572 h -0.970203 v 1.78457 h 0.955122 l 0.02011,-0.13573 h -0.831962 v -0.54543 h 0.676127 l 0.02011,-0.13321 h -0.696234 z" />
      <path
         id="path16083"
         style="font-style:normal;font-variant:normal;font-weight:normal;font-stretch:normal;font-size:2.51348px;font-family:Quarca;-inkscape-font-specification:Quarca;fill:#dddddd;fill-opacity:1;stroke-width:0.269301"
         d="m 49.322964,114.99802 h 0.563019 c 0.2237,0 0.33932,-0.11311 0.33932,-0.33681 v -0.37702 c 0,-0.2237 -0.11562,-0.3368 -0.33932,-0.3368 h -0.706287 v 1.78457 h 0.143268 z m 0,-0.91491 h 0.542912 c 0.145781,0 0.213645,0.0679 0.213645,0.22873 v 0.32173 c 0,0.16086 -0.06786,0.22872 -0.213645,0.22872 h -0.542912 z" />
      <path
         id="path16085"
         style="font-style:normal;font-variant:normal;font-weight:normal;font-stretch:normal;font-size:2.51348px;font-family:Quarca;-inkscape-font-specification:Quarca;fill:#dddddd;fill-opacity:1;stroke-width:0.269301"
         d="m 51.211805,114.99048 c 0.125674,0.0528 0.158349,0.0955 0.158349,0.21867 v 0.17343 c 0,0.15081 -0.06284,0.21365 -0.206105,0.21365 h -0.379536 c -0.143268,0 -0.208619,-0.0628 -0.208619,-0.21365 v -0.18851 h -0.143268 v 0.2237 c 0,0.20862 0.09803,0.31419 0.329266,0.31419 h 0.442372 c 0.208619,0 0.311672,-0.10557 0.311672,-0.31419 v -0.24632 c 0,-0.17846 -0.06786,-0.24129 -0.251348,-0.32172 l -0.515263,-0.21868 c -0.118134,-0.0503 -0.148296,-0.098 -0.148296,-0.20862 v -0.11059 c 0,-0.17092 0.0553,-0.22873 0.216159,-0.22873 h 0.314185 c 0.143269,0 0.213646,0.0653 0.213646,0.22119 v 0.1684 h 0.145782 v -0.20359 c 0,-0.22621 -0.10808,-0.32172 -0.33932,-0.32172 h -0.371995 c -0.221186,0 -0.321725,0.098 -0.321725,0.32172 v 0.17594 c 0,0.18098 0.06032,0.24633 0.248834,0.32927 z" />
    </g>
    <g
       style="font-style:normal;font-variant:normal;font-weight:normal;font-stretch:normal;font-size:3.59069px;line-height:1.25;font-family:Quarca;-inkscape-font-specification:Quarca;letter-spacing:0px;word-spacing:0px;fill:#dddddd;fill-opacity:1;stroke:none;stroke-width:0.269301"
       id="text5443-7-5-4-7"
       transform="scale(1.0163587,0.9839046)"
       aria-label="BEATS">
      <path
         id="path16066"
         style="font-style:normal;font-variant:normal;font-weight:normal;font-stretch:normal;font-size:2.51348px;font-family:Quarca;-inkscape-font-specification:Quarca;fill:#dddddd;fill-opacity:1;stroke-width:0.269301"
         d="m 54.350219,115.73191 h 0.698748 c 0.268942,0 0.389589,-0.11562 0.389589,-0.34686 v -0.24381 c 0,-0.2438 -0.130701,-0.33178 -0.291564,-0.34434 0.135728,-0.0276 0.198565,-0.11814 0.198565,-0.28403 v -0.21867 c 0,-0.23124 -0.133214,-0.34686 -0.414724,-0.34686 h -0.580614 z m 0.143269,-0.86464 h 0.477561 c 0.2237,0 0.324239,0.0855 0.324239,0.28151 v 0.20862 c 0,0.16086 -0.08295,0.23878 -0.268943,0.23878 h -0.532857 z m 0,-0.7842 h 0.40467 c 0.208619,0 0.304131,0.0704 0.304131,0.24381 v 0.17594 c 0,0.14327 -0.07792,0.23124 -0.253862,0.23124 h -0.454939 z" />
      <path
         id="path16068"
         style="font-style:normal;font-variant:normal;font-weight:normal;font-stretch:normal;font-size:2.51348px;font-family:Quarca;-inkscape-font-specification:Quarca;fill:#dddddd;fill-opacity:1;stroke-width:0.269301"
         d="m 55.863138,114.08307 h 0.806827 l 0.02011,-0.13573 H 55.71987 v 1.78457 h 0.955122 l 0.02011,-0.13573 h -0.831962 v -0.54542 h 0.676126 l 0.02011,-0.13322 h -0.696234 z" />
      <path
         id="path16070"
         style="font-style:normal;font-variant:normal;font-weight:normal;font-stretch:normal;font-size:2.51348px;font-family:Quarca;-inkscape-font-specification:Quarca;fill:#dddddd;fill-opacity:1;stroke-width:0.269301"
         d="m 57.354809,113.94734 -0.550452,1.78457 h 0.153323 l 0.11562,-0.38708 h 0.718855 l 0.11562,0.38708 h 0.153322 l -0.547938,-1.78457 z m 0.08043,0.19102 0.316698,1.07075 h -0.638424 z" />
      <path
         id="path16072"
         style="font-style:normal;font-variant:normal;font-weight:normal;font-stretch:normal;font-size:2.51348px;font-family:Quarca;-inkscape-font-specification:Quarca;fill:#dddddd;fill-opacity:1;stroke-width:0.269301"
         d="m 59.037859,114.08307 v -0.13573 h -1.058175 v 0.13573 h 0.457454 v 1.64884 h 0.145781 v -1.64884 z" />
      <path
         id="path16074"
         style="font-style:normal;font-variant:normal;font-weight:normal;font-stretch:normal;font-size:2.51348px;font-family:Quarca;-inkscape-font-specification:Quarca;fill:#dddddd;fill-opacity:1;stroke-width:0.269301"
         d="m 59.956183,114.99043 c 0.125674,0.0528 0.158349,0.0955 0.158349,0.21868 v 0.17343 c 0,0.15081 -0.06284,0.21364 -0.206105,0.21364 h -0.379536 c -0.143268,0 -0.208619,-0.0628 -0.208619,-0.21364 v -0.18851 h -0.143268 v 0.2237 c 0,0.20861 0.09803,0.31418 0.329266,0.31418 h 0.442372 c 0.208619,0 0.311672,-0.10557 0.311672,-0.31418 v -0.24633 c 0,-0.17845 -0.06786,-0.24129 -0.251348,-0.32172 l -0.515263,-0.21867 c -0.118134,-0.0503 -0.148296,-0.098 -0.148296,-0.20862 v -0.1106 c 0,-0.17091 0.0553,-0.22872 0.21616,-0.22872 h 0.314185 c 0.143268,0 0.213645,0.0653 0.213645,0.22118 v 0.16841 h 0.145782 v -0.20359 c 0,-0.22622 -0.108079,-0.32173 -0.33932,-0.32173 h -0.371995 c -0.221186,0 -0.321725,0.098 -0.321725,0.32173 v 0.17594 c 0,0.18097 0.06032,0.24632 0.248834,0.32926 z" />
    </g>
    <g
       style="font-style:normal;font-variant:normal;font-weight:normal;font-stretch:normal;font-size:3.59069px;line-height:1.25;font-family:Quarca;-inkscape-font-specification:Quarca;letter-spacing:0px;word-spacing:0px;fill:#dddddd;fill-opacity:1;stroke:none;stroke-width:0.269301"
       id="text5443-7-5-4-6"
       transform="scale(1.0163587,0.9839046)"
       aria-label="PAD">
      <path
         id="path16059"
         style="font-style:normal;font-variant:normal;font-weight:normal;font-stretch:normal;font-size:2.51348px;font-family:Quarca;-inkscape-font-specification:Quarca;fill:#dddddd;fill-opacity:1;stroke-width:0.269301"
         d="m 72.976543,115.01815 h 0.563019 c 0.2237,0 0.33932,-0.11311 0.33932,-0.33681 v -0.37702 c 0,-0.2237 -0.11562,-0.33681 -0.33932,-0.33681 h -0.706288 v 1.78457 h 0.143269 z m 0,-0.91491 h 0.542911 c 0.145782,0 0.213646,0.0679 0.213646,0.22873 v 0.32172 c 0,0.16086 -0.06786,0.22873 -0.213646,0.22873 h -0.542911 z" />
      <path
         id="path16061"
         style="font-style:normal;font-variant:normal;font-weight:normal;font-stretch:normal;font-size:2.51348px;font-family:Quarca;-inkscape-font-specification:Quarca;fill:#dddddd;fill-opacity:1;stroke-width:0.269301"
         d="m 74.448578,113.96751 -0.550452,1.78457 h 0.153322 l 0.11562,-0.38707 h 0.718855 l 0.115621,0.38707 h 0.153322 l -0.547939,-1.78457 z m 0.08043,0.19103 0.316699,1.07074 h -0.638424 z" />
      <path
         id="path16063"
         style="font-style:normal;font-variant:normal;font-weight:normal;font-stretch:normal;font-size:2.51348px;font-family:Quarca;-inkscape-font-specification:Quarca;fill:#dddddd;fill-opacity:1;stroke-width:0.269301"
         d="m 75.3713,115.75208 h 0.698747 c 0.314185,0 0.442373,-0.13824 0.442373,-0.42226 v -0.94004 c 0,-0.28403 -0.128188,-0.42227 -0.442373,-0.42227 H 75.3713 Z m 0.691207,-0.13573 h -0.547939 v -1.51311 h 0.547939 c 0.218673,0 0.306645,0.098 0.306645,0.3167 v 0.87972 c 0,0.21867 -0.08797,0.31669 -0.306645,0.31669 z" />
    </g>
    <g
       style="font-style:normal;font-variant:normal;font-weight:bold;font-stretch:normal;font-size:3.59069px;line-height:1.25;font-family:'Labtop Secundo Superwide';-inkscape-font-specification:'Labtop Secundo Superwide Bold';text-align:center;letter-spacing:0px;word-spacing:0px;text-anchor:middle;fill:#000000;fill-opacity:1;stroke:none;stroke-width:0.269301"
       id="text1475"
       transform="scale(1.0163587,0.98390462)" />
    <path
       d="M 82.717318,80.869003 A 19.789755,19.789753 0 0 1 62.927563,100.65876 19.789755,19.789753 0 0 1 43.137808,80.869003 19.789755,19.789753 0 0 1 62.927563,61.07925 19.789755,19.789753 0 0 1 82.717318,80.869003"
       style="opacity:0.981;fill:#ffffff;fill-opacity:0;stroke:#1e1e2d;stroke-width:5.39966;stroke-miterlimit:4;stroke-dasharray:none;stroke-opacity:1"
       id="path6799" />
    <g
       style="font-style:normal;font-variant:normal;font-weight:normal;font-stretch:normal;font-size:3.59069px;line-height:1.25;font-family:Quarca;-inkscape-font-specification:Quarca;letter-spacing:0px;word-spacing:0px;fill:#dddddd;fill-opacity:1;stroke:none;stroke-width:0.269301"
       id="text5443-7-5-4-7-4"
       transform="scale(1.0163587,0.9839046)"
       aria-label="OFFSET">
      <path
         id="path16044"
         style="font-style:normal;font-variant:normal;font-weight:normal;font-stretch:normal;font-size:2.51348px;font-family:Quarca;-inkscape-font-specification:Quarca;fill:#dddddd;fill-opacity:1;stroke-width:0.269301"
         d="m 62.599138,115.38762 c 0,0.23124 0.08797,0.34686 0.344346,0.34686 h 0.477561 c 0.256375,0 0.344347,-0.11562 0.344347,-0.34686 v -1.09085 c 0,-0.23124 -0.08797,-0.34686 -0.344347,-0.34686 h -0.477561 c -0.256375,0 -0.344346,0.11562 -0.344346,0.34686 z m 0.359427,-1.30198 h 0.4474 c 0.160862,0 0.216159,0.0754 0.216159,0.23375 v 1.04561 c 0,0.15835 -0.0553,0.23375 -0.216159,0.23375 h -0.4474 c -0.158349,0 -0.216159,-0.0754 -0.216159,-0.23375 v -1.04561 c 0,-0.15835 0.05781,-0.23375 0.216159,-0.23375 z" />
      <path
         id="path16046"
         style="font-style:normal;font-variant:normal;font-weight:normal;font-stretch:normal;font-size:2.51348px;font-family:Quarca;-inkscape-font-specification:Quarca;fill:#dddddd;fill-opacity:1;stroke-width:0.269301"
         d="m 64.23502,114.08564 h 0.799287 l 0.02011,-0.13573 h -0.962663 v 1.78457 h 0.143268 v -0.68115 h 0.633397 l 0.02011,-0.13322 H 64.23502 Z" />
      <path
         id="path16048"
         style="font-style:normal;font-variant:normal;font-weight:normal;font-stretch:normal;font-size:2.51348px;font-family:Quarca;-inkscape-font-specification:Quarca;fill:#dddddd;fill-opacity:1;stroke-width:0.269301"
         d="m 65.413214,114.08564 h 0.799287 l 0.02011,-0.13573 h -0.962662 v 1.78457 h 0.143268 v -0.68115 h 0.633397 l 0.02011,-0.13322 h -0.653505 z" />
      <path
         id="path16050"
         style="font-style:normal;font-variant:normal;font-weight:normal;font-stretch:normal;font-size:2.51348px;font-family:Quarca;-inkscape-font-specification:Quarca;fill:#dddddd;fill-opacity:1;stroke-width:0.269301"
         d="m 67.169508,114.99301 c 0.125674,0.0528 0.158349,0.0955 0.158349,0.21867 v 0.17343 c 0,0.15081 -0.06284,0.21364 -0.206105,0.21364 h -0.379536 c -0.143268,0 -0.208618,-0.0628 -0.208618,-0.21364 v -0.18851 h -0.143269 v 0.2237 c 0,0.20862 0.09803,0.31418 0.329266,0.31418 h 0.442373 c 0.208618,0 0.311671,-0.10556 0.311671,-0.31418 v -0.24632 c 0,-0.17846 -0.06786,-0.2413 -0.251348,-0.32173 l -0.515263,-0.21867 c -0.118134,-0.0503 -0.148296,-0.098 -0.148296,-0.20862 v -0.11059 c 0,-0.17092 0.0553,-0.22873 0.21616,-0.22873 h 0.314185 c 0.143268,0 0.213645,0.0653 0.213645,0.22119 v 0.1684 h 0.145782 v -0.20359 c 0,-0.22622 -0.108079,-0.32173 -0.33932,-0.32173 h -0.371995 c -0.221186,0 -0.321725,0.098 -0.321725,0.32173 v 0.17594 c 0,0.18097 0.06032,0.24632 0.248834,0.32927 z" />
      <path
         id="path16052"
         style="font-style:normal;font-variant:normal;font-weight:normal;font-stretch:normal;font-size:2.51348px;font-family:Quarca;-inkscape-font-specification:Quarca;fill:#dddddd;fill-opacity:1;stroke-width:0.269301"
         d="m 67.902148,114.08564 h 0.806827 l 0.02011,-0.13573 H 67.75888 v 1.78457 h 0.955122 l 0.02011,-0.13573 h -0.831962 v -0.54542 h 0.676126 l 0.02011,-0.13322 h -0.696234 z" />
      <path
         id="path16054"
         style="font-style:normal;font-variant:normal;font-weight:normal;font-stretch:normal;font-size:2.51348px;font-family:Quarca;-inkscape-font-specification:Quarca;fill:#dddddd;fill-opacity:1;stroke-width:0.269301"
         d="m 69.883949,114.08564 v -0.13573 h -1.058175 v 0.13573 h 0.457453 v 1.64884 h 0.145782 v -1.64884 z" />
    </g>
    <g
       style="font-style:normal;font-variant:normal;font-weight:normal;font-stretch:normal;font-size:3.59069px;line-height:1.25;font-family:Quarca;-inkscape-font-specification:Quarca;letter-spacing:0px;word-spacing:0px;fill:#dddddd;fill-opacity:1;stroke:none;stroke-width:0.269301"
       id="text5443-7-5-4-6-7"
       transform="scale(1.0163587,0.9839046)"
       aria-label="RATIO">
      <path
         id="path16033"
         style="font-style:normal;font-variant:normal;font-weight:normal;font-stretch:normal;font-size:2.51348px;font-family:Quarca;-inkscape-font-specification:Quarca;fill:#dddddd;fill-opacity:1;stroke-width:0.269301"
         d="m 80.903343,115.73448 h 0.143268 v -0.71634 h 0.329266 l 0.500182,0.71634 h 0.168404 l -0.502696,-0.71634 h 0.03519 c 0.238781,0 0.354401,-0.11311 0.354401,-0.33932 v -0.38959 c 0,-0.22621 -0.11562,-0.33932 -0.354401,-0.33932 h -0.673612 z m 0.143268,-1.64884 h 0.50521 c 0.160862,0 0.233753,0.0754 0.233753,0.24632 v 0.30413 c 0,0.17343 -0.07289,0.24884 -0.233753,0.24884 h -0.50521 z" />
      <path
         id="path16035"
         style="font-style:normal;font-variant:normal;font-weight:normal;font-stretch:normal;font-size:2.51348px;font-family:Quarca;-inkscape-font-specification:Quarca;fill:#dddddd;fill-opacity:1;stroke-width:0.269301"
         d="m 82.665921,113.94991 -0.550453,1.78457 h 0.153323 l 0.11562,-0.38707 h 0.718855 l 0.11562,0.38707 h 0.153322 l -0.547938,-1.78457 z m 0.08043,0.19103 0.316698,1.07074 h -0.638423 z" />
      <path
         id="path16037"
         style="font-style:normal;font-variant:normal;font-weight:normal;font-stretch:normal;font-size:2.51348px;font-family:Quarca;-inkscape-font-specification:Quarca;fill:#dddddd;fill-opacity:1;stroke-width:0.269301"
         d="m 84.34897,114.08564 v -0.13573 h -1.058175 v 0.13573 h 0.457454 v 1.64884 h 0.145781 v -1.64884 z" />
      <path
         id="path16039"
         style="font-style:normal;font-variant:normal;font-weight:normal;font-stretch:normal;font-size:2.51348px;font-family:Quarca;-inkscape-font-specification:Quarca;fill:#dddddd;fill-opacity:1;stroke-width:0.269301"
         d="m 84.689194,115.73448 v -1.78457 h -0.143269 v 1.78457 z" />
      <path
         id="path16041"
         style="font-style:normal;font-variant:normal;font-weight:normal;font-stretch:normal;font-size:2.51348px;font-family:Quarca;-inkscape-font-specification:Quarca;fill:#dddddd;fill-opacity:1;stroke-width:0.269301"
         d="m 85.016967,115.38762 c 0,0.23124 0.08797,0.34686 0.344347,0.34686 h 0.477561 c 0.256375,0 0.344347,-0.11562 0.344347,-0.34686 v -1.09085 c 0,-0.23124 -0.08797,-0.34686 -0.344347,-0.34686 h -0.477561 c -0.256375,0 -0.344347,0.11562 -0.344347,0.34686 z m 0.359428,-1.30198 h 0.447399 c 0.160863,0 0.216159,0.0754 0.216159,0.23375 v 1.04561 c 0,0.15835 -0.0553,0.23375 -0.216159,0.23375 h -0.447399 c -0.15835,0 -0.21616,-0.0754 -0.21616,-0.23375 v -1.04561 c 0,-0.15835 0.05781,-0.23375 0.21616,-0.23375 z" />
    </g>
    <path
       d="m 56.388309,105.23302 h 13.07851 v 3.81816 h -13.07851 z"
       style="fill:#101015;fill-opacity:1;stroke:#999999;stroke-width:0.150658;stroke-miterlimit:4;stroke-dasharray:none;stroke-opacity:1"
       id="rect6948-0-1" />
  </g>
</svg>
