<?xml version="1.0" encoding="UTF-8" standalone="no"?>
<!-- Created with Inkscape (http://www.inkscape.org/) -->

<svg
   xmlns:dc="http://purl.org/dc/elements/1.1/"
   xmlns:cc="http://creativecommons.org/ns#"
   xmlns:rdf="http://www.w3.org/1999/02/22-rdf-syntax-ns#"
   xmlns:svg="http://www.w3.org/2000/svg"
   xmlns="http://www.w3.org/2000/svg"
   xmlns:xlink="http://www.w3.org/1999/xlink"
   xmlns:sodipodi="http://sodipodi.sourceforge.net/DTD/sodipodi-0.dtd"
   xmlns:inkscape="http://www.inkscape.org/namespaces/inkscape"
   width="195"
   height="380"
   viewBox="0 0 51.59375 100.54167"
   version="1.1"
   id="svg11003"
   inkscape:version="0.92.2 (5c3e80d, 2017-08-06)"
   sodipodi:docname="PWGridControlExpander.svg">
  <defs
     id="defs10997">
    <linearGradient
       inkscape:collect="always"
       id="linearGradient4047">
      <stop
         style="stop-color:#202022;stop-opacity:1;"
         offset="0"
         id="stop3387" />
      <stop
         style="stop-color:#202025;stop-opacity:1;"
         offset=".3"
         id="stop3388" />
      <stop
         style="stop-color:#08003e;stop-opacity:1;"
         offset="1"
         id="stop3389" />
    </linearGradient>
    <linearGradient
       inkscape:collect="always"
       xlink:href="#linearGradient4047"
       id="linearGradient4049"
       x1="35.418064"
       y1="158.3329"
       x2="35.219627"
       y2="50.462322"
       gradientUnits="userSpaceOnUse"
       gradientTransform="matrix(0.54080895,0,0,1.0014499,16.099223,-0.14648349)" />
  </defs>
  <sodipodi:namedview
     id="base"
     pagecolor="#ffffff"
     bordercolor="#666666"
     borderopacity="1.0"
     inkscape:pageopacity="0.0"
     inkscape:pageshadow="2"
     inkscape:zoom="5.6568542"
     inkscape:cx="-2.5478135"
     inkscape:cy="228.84559"
     inkscape:document-units="px"
     inkscape:current-layer="layer1"
     showgrid="false"
     fit-margin-top="0"
     fit-margin-left="0"
     fit-margin-right="0"
     fit-margin-bottom="0"
     inkscape:window-width="3840"
     inkscape:window-height="2115"
     inkscape:window-x="-13"
     inkscape:window-y="-13"
     inkscape:window-maximized="1"
     units="px"
     showguides="false" />
  <metadata
     id="metadata11000">
    <rdf:RDF>
      <cc:Work
         rdf:about="">
        <dc:format>image/svg+xml</dc:format>
        <dc:type
           rdf:resource="http://purl.org/dc/dcmitype/StillImage" />
        <dc:title></dc:title>
      </cc:Work>
    </rdf:RDF>
  </metadata>
  <g
     inkscape:label="Layer 1"
     inkscape:groupmode="layer"
     id="layer1"
     transform="translate(-35.146312,-50.389004)">
    <path
       inkscape:connector-curvature="0"
       id="path33493"
       d="M 35.146312,50.389003 H 86.740063 V 150.93067 H 35.146312 Z m 0,0"
       style="fill:url(#linearGradient4049);fill-opacity:1;fill-rule:nonzero;stroke:none;stroke-width:0.31528386"
       inkscape:export-filename="/home/vortico/pics/tmp/LFOs.png"
       inkscape:export-xdpi="150.22649"
       inkscape:export-ydpi="150.22649" />
    <g
       style="font-style:normal;font-weight:normal;font-size:3.52777767px;line-height:1.25;font-family:sans-serif;letter-spacing:0px;word-spacing:0px;fill:#ffffff;fill-opacity:1;stroke:none;stroke-width:0.26458332"
       id="text5097"
       transform="matrix(1.0344827,0,0,1.0014499,-1.2877853,-0.14648349)" />
    <g
       style="font-style:normal;font-variant:normal;font-weight:bold;font-stretch:normal;font-size:3.52777767px;line-height:1.25;font-family:Consolas;-inkscape-font-specification:'Consolas Bold';text-align:center;letter-spacing:0px;word-spacing:0px;text-anchor:middle;fill:#ffffff;fill-opacity:1;stroke:none;stroke-width:0.26458332"
       id="text373"
       transform="matrix(1.0344827,0,0,1.0014499,-1.2877853,-0.14648349)" />
    <g
       style="font-style:normal;font-variant:normal;font-weight:bold;font-stretch:normal;font-size:13.33333302px;line-height:1.25;font-family:Consolas;-inkscape-font-specification:'Consolas Bold';text-align:center;letter-spacing:0px;word-spacing:0px;text-anchor:middle;fill:#ffffff;fill-opacity:1;stroke:none"
       id="flowRoot250"
       transform="matrix(1.0344827,0,0,1.0014499,-1.2877853,-0.14648349)" />
    <g
       style="font-style:normal;font-variant:normal;font-weight:bold;font-stretch:normal;font-size:13.33333302px;line-height:1.25;font-family:Consolas;-inkscape-font-specification:'Consolas Bold';text-align:center;letter-spacing:0px;word-spacing:0px;text-anchor:middle;fill:#ffffff;fill-opacity:1;stroke:none"
       id="flowRoot53665"
       transform="matrix(1.0344827,0,0,1.0014499,-1.2877853,-0.14648349)" />
    <g
       style="font-style:normal;font-variant:normal;font-weight:bold;font-stretch:normal;font-size:3.52777767px;line-height:1.25;font-family:Consolas;-inkscape-font-specification:'Consolas Bold';text-align:center;letter-spacing:0px;word-spacing:0px;text-anchor:middle;fill:#ffffff;fill-opacity:1;stroke:none;stroke-width:0.26458332"
       id="text53994"
       transform="matrix(1.0344827,0,0,1.0014499,-1.2877853,-0.14648349)" />
    <g
       aria-label="FROZEN WASTELAND"
       style="font-style:normal;font-variant:normal;font-weight:bold;font-stretch:normal;font-size:3.52777767px;line-height:1.25;font-family:Consolas;-inkscape-font-specification:'Consolas Bold';text-align:start;letter-spacing:0px;word-spacing:0px;text-anchor:start;fill:#00a3f2;fill-opacity:1;stroke:none;stroke-width:0.26458332"
       id="text3885-7"
       transform="matrix(1.0344827,0,0,1.0014499,-34.941126,-0.14648349)">
      <path
         d="m 77.98351,150.2604 q 0.119944,-0.11995 0.1905,-0.21167 0.07408,-0.0917 0.112889,-0.16933 0.04233,-0.0776 0.05292,-0.14464 0.01411,-0.0706 0.01411,-0.14817 0,-0.0952 -0.04586,-0.22931 -0.04586,-0.13405 -0.102305,-0.28575 -0.05644,-0.15169 -0.102306,-0.31044 -0.04586,-0.15875 -0.04586,-0.30339 0,-0.0776 0.02469,-0.15169 0.02822,-0.0741 0.06703,-0.14111 0.04233,-0.0706 0.09172,-0.13053 0.04939,-0.0635 0.09878,-0.11289 -0.07055,-0.0141 -0.123472,-0.0212 -0.05292,-0.0106 -0.07761,-0.0106 -0.130528,0 -0.22225,0.0706 -0.08819,0.067 -0.1905,0.16934 0,-0.11995 0.03528,-0.24695 0.03881,-0.13052 0.116416,-0.23636 0.07761,-0.10583 0.194028,-0.17286 0.119945,-0.067 0.282222,-0.067 0.112889,0 0.208139,0.0176 0.09878,0.0141 0.179917,0.0353 0.08114,0.0212 0.148166,0.0388 0.06703,0.0141 0.119945,0.0141 0.08114,0 0.141111,-0.0212 0.0635,-0.0247 0.123472,-0.0847 0,0.0776 -0.03175,0.17639 -0.02822,0.0988 -0.08819,0.1905 -0.05644,0.0882 -0.148167,0.1517 -0.09172,0.06 -0.211667,0.06 -0.05997,0 -0.137583,-0.007 -0.07408,-0.0106 -0.155222,-0.0247 -0.0071,0.0247 -0.01058,0.0459 -0.0035,0.0212 -0.0071,0.0388 -0.0035,0.0212 -0.0035,0.0388 0,0.0776 0.01058,0.1517 0.01411,0.0705 0.0388,0.14463 h 0.712611 l -0.08114,0.23989 q -0.01058,0.0459 -0.01411,0.067 -0.0035,0.0212 -0.01058,0.067 l -0.130528,-0.0917 h -0.363361 q 0.07761,0.17639 0.144639,0.35983 0.06703,0.17992 0.06703,0.38453 0,0.18344 -0.07408,0.34219 -0.07408,0.15522 -0.197555,0.27164 -0.119945,0.11642 -0.278695,0.17992 -0.155222,0.067 -0.321027,0.067 z"
         style="font-style:normal;font-variant:normal;font-weight:normal;font-stretch:normal;font-family:'Bradley Gratis';-inkscape-font-specification:'Bradley Gratis';text-align:start;text-anchor:start;stroke-width:0.26458332"
         id="path7125"
         inkscape:connector-curvature="0" />
      <path
         d="m 80.053599,148.53178 q 0.07055,-0.0423 0.137583,-0.0988 0.07055,-0.0564 0.123472,-0.127 0.05644,-0.0706 0.08819,-0.16228 0.03528,-0.0952 0.03528,-0.21167 0,-0.0988 -0.0388,-0.1658 -0.03528,-0.0706 -0.08467,-0.11289 -0.04939,-0.0423 -0.09878,-0.06 -0.04586,-0.0176 -0.07055,-0.0176 -0.02822,0 -0.05292,0.0106 -0.02117,0.0106 -0.0388,0.0247 z m -0.518584,-0.94191 q -0.112889,-0.0635 -0.112889,-0.23636 0.03175,0.0317 0.112889,0.0564 0.08114,0.0212 0.172861,0.0212 0.04586,0 0.130528,-0.0106 0.08467,-0.0141 0.172861,-0.0282 0.09172,-0.0141 0.172861,-0.0247 0.08467,-0.0141 0.130528,-0.0141 0.116417,0 0.232833,0.0353 0.116417,0.0353 0.215195,0.11995 0.09878,0.0847 0.165805,0.2293 0.07056,0.14112 0.09172,0.35984 l -0.627945,0.4445 q 0.07056,0.0282 0.15875,0.0952 0.08819,0.067 0.165806,0.18697 0.08114,0.11994 0.134055,0.30692 0.05292,0.18344 0.05292,0.45155 0,0.23284 0.02117,0.37747 0.02117,0.14464 0.05292,0.23284 0.03175,0.0882 0.06703,0.13053 0.03881,0.0459 0.07056,0.0776 -0.155223,0 -0.275167,-0.0917 -0.119945,-0.0882 -0.211667,-0.23283 -0.09172,-0.14464 -0.162277,-0.32808 -0.06703,-0.18345 -0.123473,-0.37042 -0.05644,-0.18697 -0.105833,-0.35983 -0.04586,-0.17286 -0.09525,-0.29986 -0.02469,0.0176 -0.04939,0.0353 -0.02117,0.0141 -0.0388,0.0317 v 1.31939 h -0.518584 z"
         style="font-style:normal;font-variant:normal;font-weight:normal;font-stretch:normal;font-family:'Bradley Gratis';-inkscape-font-specification:'Bradley Gratis';text-align:start;text-anchor:start;stroke-width:0.26458332"
         id="path7127"
         inkscape:connector-curvature="0" />
      <path
         d="m 81.941345,149.63951 q 0,0.11994 0.01411,0.18697 0.01764,0.067 0.04233,0.1023 0.02822,0.0318 0.0635,0.0388 0.03528,0.007 0.07055,0.007 0.07056,0 0.116417,-0.0952 0.04586,-0.0988 0.04586,-0.29987 v -1.53105 q 0,-0.15875 -0.01764,-0.25753 -0.01411,-0.1023 -0.04233,-0.15522 -0.02469,-0.0564 -0.05997,-0.0776 -0.03175,-0.0212 -0.0635,-0.0212 -0.06703,0 -0.119945,0.0847 -0.04939,0.0811 -0.04939,0.26105 z m 1.005417,-0.88548 q 0,0.25753 -0.06703,0.508 -0.0635,0.25048 -0.176389,0.44803 -0.109361,0.19756 -0.261055,0.32103 -0.151695,0.11994 -0.321028,0.11994 -0.15875,0 -0.310444,-0.10936 -0.148167,-0.10936 -0.264584,-0.29986 -0.112889,-0.1905 -0.183444,-0.4445 -0.07056,-0.254 -0.07056,-0.54328 0,-0.23636 0.0635,-0.4833 0.06703,-0.25047 0.179917,-0.45156 0.112889,-0.20108 0.264583,-0.32808 0.151695,-0.13053 0.321028,-0.13053 0.148167,0 0.292806,0.10936 0.148166,0.10936 0.264583,0.29986 0.119944,0.18698 0.194028,0.44098 0.07408,0.254 0.07408,0.54327 z"
         style="font-style:normal;font-variant:normal;font-weight:normal;font-stretch:normal;font-family:'Bradley Gratis';-inkscape-font-specification:'Bradley Gratis';text-align:start;text-anchor:start;stroke-width:0.26458332"
         id="path7129"
         inkscape:connector-curvature="0" />
      <path
         d="m 83.100827,150.11223 q 0.04586,-0.27164 0.130528,-0.51153 0.08819,-0.23989 0.194027,-0.45861 0.105834,-0.21872 0.218723,-0.41628 0.116416,-0.20108 0.218722,-0.38805 0.102305,-0.18698 0.179916,-0.36336 0.07761,-0.17992 0.112889,-0.35984 -0.02822,-0.0176 -0.06703,-0.0318 -0.03528,-0.0141 -0.137583,-0.0141 -0.05292,0 -0.09525,0.0282 -0.03881,0.0247 -0.06703,0.0635 -0.02822,0.0353 -0.04586,0.0776 -0.01411,0.0388 -0.01411,0.0635 0,0.0282 0.01058,0.067 0.01411,0.0353 0.02822,0.0706 0.01764,0.0353 0.03528,0.067 0.01764,0.0282 0.03175,0.0423 l -0.430388,0.26811 q -0.08467,-0.0811 -0.144639,-0.19756 -0.05644,-0.11994 -0.05644,-0.23988 0,-0.06 0.03175,-0.14817 0.03175,-0.0882 0.102306,-0.16933 0.07055,-0.0847 0.183444,-0.14112 0.116417,-0.06 0.282222,-0.06 0.130528,0 0.218723,0.0176 0.08819,0.0176 0.155222,0.0423 0.06703,0.0212 0.123472,0.0388 0.05997,0.0176 0.134056,0.0176 0.04586,0 0.09878,-0.007 0.05292,-0.007 0.09878,-0.0212 0.04586,-0.0141 0.08114,-0.0282 0.03881,-0.0176 0.05997,-0.0388 -0.04233,0.22225 -0.134055,0.46214 -0.09172,0.23989 -0.204611,0.47978 -0.109361,0.23988 -0.232834,0.46919 -0.119944,0.22931 -0.22225,0.43039 -0.09878,0.19755 -0.169333,0.35983 -0.06703,0.15875 -0.07408,0.26106 0.141111,0.06 0.239889,0.06 0.0635,0 0.130527,-0.0141 0.06703,-0.0176 0.119945,-0.0529 0.05644,-0.0353 0.09172,-0.0882 0.03528,-0.0565 0.03528,-0.13406 0,-0.0776 -0.01764,-0.127 -0.01411,-0.0529 -0.03881,-0.0847 -0.02469,-0.0353 -0.05644,-0.06 -0.03175,-0.0282 -0.05997,-0.0564 l 0.405694,-0.29986 q 0.141111,0.10583 0.201083,0.22578 0.05997,0.11994 0.05997,0.26105 0,0.067 -0.02117,0.13053 -0.01764,0.06 -0.04586,0.11289 -0.0247,0.0494 -0.05997,0.0917 -0.03175,0.0423 -0.05644,0.067 l 0.05997,0.06 q 0.01764,0.0176 0.03881,0.0529 0.02117,0.0317 0.02117,0.0564 0,0.0282 -0.02469,0.0811 -0.02117,0.0564 -0.08819,0.0988 -0.02469,-0.0318 -0.05644,-0.0565 -0.02822,-0.0212 -0.05997,-0.0388 -0.03175,-0.0176 -0.06703,-0.0176 z"
         style="font-style:normal;font-variant:normal;font-weight:normal;font-stretch:normal;font-family:'Bradley Gratis';-inkscape-font-specification:'Bradley Gratis';text-align:start;text-anchor:start;stroke-width:0.26458332"
         id="path7131"
         inkscape:connector-curvature="0" />
      <path
         d="m 86.607162,147.38526 v 0.381 q -0.0388,-0.0353 -0.102305,-0.0776 -0.05997,-0.0423 -0.130528,-0.0741 -0.06703,-0.0353 -0.134056,-0.0564 -0.06703,-0.0247 -0.112889,-0.0247 -0.08467,0 -0.172861,0.067 -0.08819,0.067 -0.144639,0.17992 -0.05644,0.10936 -0.07408,0.28928 -0.01411,0.17638 -0.01411,0.45508 h 0.903111 l -0.179917,0.40217 q -0.03528,-0.0529 -0.08467,-0.0706 -0.04586,-0.0212 -0.08467,-0.0212 H 85.72169 q 0,0.20109 0.0071,0.39511 0.0071,0.1905 0.04586,0.3422 0.04233,0.15169 0.127,0.24694 0.08467,0.0917 0.243416,0.0917 0.08467,0 0.165806,-0.0317 0.08467,-0.0318 0.155222,-0.0776 0.07056,-0.0494 0.123472,-0.1023 0.05644,-0.0529 0.08819,-0.0952 v 0.508 h -0.47625 q -0.342195,0 -0.553861,-0.11995 -0.211667,-0.12347 -0.331611,-0.32808 -0.116417,-0.20814 -0.15875,-0.47978 -0.03881,-0.27164 -0.03881,-0.56797 0,-0.0741 0.01058,-0.19403 0.01058,-0.12347 0.04586,-0.25752 0.03528,-0.13759 0.102306,-0.27517 0.06703,-0.14111 0.179917,-0.25047 0.116416,-0.11289 0.28575,-0.18345 0.169333,-0.0706 0.409222,-0.0706 z"
         style="font-style:normal;font-variant:normal;font-weight:normal;font-stretch:normal;font-family:'Bradley Gratis';-inkscape-font-specification:'Bradley Gratis';text-align:start;text-anchor:start;stroke-width:0.26458332"
         id="path7133"
         inkscape:connector-curvature="0" />
      <path
         d="m 86.993564,150.11223 v -2.4377 q 0,-0.0988 -0.04233,-0.1658 -0.04233,-0.0706 -0.08467,-0.12347 h 0.684389 v 0.35983 l 0.391583,-0.45508 q 0.179917,0.16227 0.296334,0.32455 0.116416,0.15875 0.183444,0.32103 0.06703,0.15875 0.09172,0.32456 0.02469,0.16227 0.02469,0.33513 0,0.16934 -0.02822,0.32456 -0.02469,0.15169 -0.07408,0.29986 -0.04939,0.14817 -0.119944,0.29986 -0.06703,0.1517 -0.148167,0.3175 h 0.127 q 0.04586,0 0.09525,-0.0318 0.04939,-0.0317 0.09878,-0.0317 v 0.33867 h -0.684389 q 0.09525,-0.19403 0.151695,-0.34925 0.05997,-0.15522 0.09172,-0.29633 0.03175,-0.14112 0.04233,-0.27517 0.01058,-0.13406 0.01058,-0.28575 0,-0.1517 -0.05292,-0.31397 -0.04939,-0.16581 -0.123472,-0.30339 -0.07408,-0.13759 -0.15875,-0.22578 -0.08114,-0.0882 -0.148167,-0.0882 -0.04233,0 -0.06703,0.0212 v 2.11667 z"
         style="font-style:normal;font-variant:normal;font-weight:normal;font-stretch:normal;font-family:'Bradley Gratis';-inkscape-font-specification:'Bradley Gratis';text-align:start;text-anchor:start;stroke-width:0.26458332"
         id="path7135"
         inkscape:connector-curvature="0" />
      <path
         d="m 90.231733,150.22865 q -0.1905,-0.13759 -0.324555,-0.29281 -0.134056,-0.15875 -0.215195,-0.32808 -0.08114,-0.16934 -0.119944,-0.3422 -0.03528,-0.17639 -0.03528,-0.34572 0,-0.16581 0.03528,-0.32808 0.03528,-0.16581 0.09172,-0.32456 0.05997,-0.16228 0.137583,-0.31397 0.07761,-0.15522 0.15875,-0.30339 h -0.02117 q -0.01058,0 -0.0247,0 -0.01058,-0.004 -0.02822,-0.004 -0.05644,0 -0.137583,0.0141 -0.07761,0.0141 -0.151695,0.0706 v -0.34572 h 0.740834 q -0.09172,0.15875 -0.15875,0.32102 -0.0635,0.15875 -0.105834,0.31045 -0.0388,0.14817 -0.05997,0.28222 -0.01764,0.13053 -0.01764,0.23636 0,0.10584 0.02117,0.254 0.02117,0.14817 0.07761,0.30692 0.05997,0.15522 0.15875,0.29633 0.102306,0.14111 0.264583,0.22931 l 0.105834,-0.0776 q -0.0635,-0.11995 -0.09878,-0.22931 -0.03528,-0.11289 -0.05292,-0.21167 -0.01411,-0.0988 -0.01764,-0.17991 -0.0035,-0.0847 -0.0035,-0.1517 0,-0.10936 0.02822,-0.24694 0.02822,-0.13758 0.08114,-0.28575 0.05292,-0.14817 0.127,-0.29986 0.07761,-0.1517 0.172861,-0.29634 -0.134056,0 -0.22225,0.0212 -0.08467,0.0212 -0.144639,0.06 v -0.33866 h 0.762 q -0.0635,0.0882 -0.127,0.20108 -0.05997,0.10936 -0.105833,0.23989 -0.04586,0.127 -0.07408,0.27164 -0.02822,0.14464 -0.02822,0.29633 0,0.25753 0.04586,0.45861 0.04586,0.19756 0.127,0.34925 0.08114,0.1517 0.1905,0.26106 0.109361,0.10936 0.232833,0.18697 v -2.26483 h 0.529167 v 2.12019 q 0,0.0247 -0.03528,0.0706 -0.03528,0.0423 -0.09172,0.0988 -0.05292,0.0565 -0.127,0.12348 -0.07055,0.0635 -0.144639,0.127 -0.176389,0.14816 -0.398639,0.32455 -0.172861,-0.13405 -0.296333,-0.26458 -0.123472,-0.13053 -0.211667,-0.254 z"
         style="font-style:normal;font-variant:normal;font-weight:normal;font-stretch:normal;font-family:'Bradley Gratis';-inkscape-font-specification:'Bradley Gratis';text-align:start;text-anchor:start;stroke-width:0.26458332"
         id="path7137"
         inkscape:connector-curvature="0" />
      <path
         d="m 93.483793,148.41537 v -0.87842 h -0.416278 q -0.0035,0.23636 -0.01411,0.4692 -0.0071,0.2293 -0.01764,0.40922 z m 0.719667,-1.03011 q -0.03881,0.0282 -0.07408,0.0706 -0.03175,0.0423 -0.05644,0.0917 -0.02117,0.0459 -0.03528,0.0917 -0.01411,0.0423 -0.01411,0.0741 v 2.39889 H 93.4838 v -1.32997 h -0.472722 q -0.0035,0.127 -0.03528,0.27869 -0.03175,0.14817 -0.08819,0.29986 -0.05292,0.14817 -0.127,0.28928 -0.07055,0.13758 -0.162277,0.24342 -0.08819,0.10583 -0.1905,0.16933 -0.09878,0.0635 -0.208139,0.0635 -0.07056,0 -0.123472,-0.0423 -0.04939,-0.0423 -0.04939,-0.11995 0,-0.0494 0.03175,-0.0705 0.03175,-0.0247 0.06703,-0.0247 0.03175,0 0.04939,0.0106 0.01764,0.007 0.03175,0.0212 0.01764,0.0106 0.03881,0.0212 0.02117,0.007 0.05997,0.007 0.0635,0 0.102306,-0.0635 0.0388,-0.067 0.0635,-0.17638 0.02469,-0.11289 0.03528,-0.25753 0.01411,-0.14817 0.02117,-0.31045 0.0071,-0.16227 0.01764,-0.32808 0.01058,-0.16933 0.02822,-0.32456 0.02117,-0.18344 0.0635,-0.33513 0.04586,-0.1517 0.09525,-0.26812 0.04939,-0.11641 0.09878,-0.19755 0.04939,-0.0811 0.08467,-0.13053 h -0.07761 q -0.06703,0 -0.123473,0.0212 -0.05644,0.0176 -0.102305,0.0423 -0.04233,0.0212 -0.07761,0.0423 -0.03175,0.0176 -0.05644,0.0176 -0.05997,0 -0.08819,-0.0423 -0.02822,-0.0423 -0.02822,-0.0952 0,-0.0494 0.05292,-0.0917 0.05644,-0.0459 0.155222,-0.0459 z"
         style="font-style:normal;font-variant:normal;font-weight:normal;font-stretch:normal;font-family:'Bradley Gratis';-inkscape-font-specification:'Bradley Gratis';text-align:start;text-anchor:start;stroke-width:0.26458332"
         id="path7139"
         inkscape:connector-curvature="0" />
      <path
         d="m 94.98365,150.2357 q -0.08114,-0.0811 -0.186972,-0.15875 -0.102306,-0.0776 -0.201083,-0.13758 -0.09525,-0.06 -0.169334,-0.10231 -0.07055,-0.0423 -0.08114,-0.0529 0.03528,-0.0423 0.08819,-0.11642 0.05292,-0.0776 0.102305,-0.1517 0.05292,-0.0741 0.09172,-0.13052 0.04233,-0.06 0.05292,-0.0706 0.04939,0.0317 0.134056,0.0882 0.08819,0.0529 0.172861,0.11288 0.08819,0.06 0.15875,0.10937 0.07056,0.0494 0.09172,0.0705 0.04939,-0.0282 0.08114,-0.0741 0.03528,-0.0459 0.03528,-0.14817 0,-0.0882 -0.07408,-0.18697 -0.07056,-0.0988 -0.176389,-0.20814 -0.105834,-0.10936 -0.232834,-0.22931 -0.127,-0.11994 -0.232833,-0.24694 -0.105833,-0.127 -0.179917,-0.25753 -0.07055,-0.13053 -0.07055,-0.26811 0,-0.0988 0.04939,-0.18344 0.05292,-0.0882 0.130527,-0.16228 0.07761,-0.0776 0.169334,-0.13758 0.09525,-0.0635 0.179916,-0.11642 0.08819,-0.0564 0.155223,-0.0988 0.06703,-0.0459 0.09525,-0.0811 0.02117,0.0176 0.09172,0.0882 0.07408,0.067 0.15875,0.14464 0.08467,0.0776 0.15875,0.13758 0.07761,0.06 0.102305,0.06 -0.03528,0.0282 -0.08819,0.0847 -0.04939,0.0529 -0.102306,0.11289 -0.04939,0.06 -0.09172,0.11641 -0.0388,0.0529 -0.05644,0.0811 -0.08114,-0.0353 -0.162278,-0.10583 -0.08114,-0.0706 -0.148167,-0.13758 -0.06703,-0.067 -0.112889,-0.11642 -0.04586,-0.0529 -0.05997,-0.0529 -0.02822,0 -0.04939,0.0317 -0.01764,0.0282 -0.01764,0.067 0,0.0847 0.07408,0.17992 0.07761,0.0953 0.186972,0.20461 0.112889,0.10583 0.243417,0.22578 0.134055,0.11641 0.243416,0.24341 0.112889,0.127 0.186973,0.26459 0.07761,0.13405 0.07761,0.27516 0,0.127 -0.09525,0.26811 -0.09525,0.14111 -0.229306,0.28223 -0.130528,0.13758 -0.268111,0.26458 -0.137583,0.12347 -0.225778,0.21872 z"
         style="font-style:normal;font-variant:normal;font-weight:normal;font-stretch:normal;font-family:'Bradley Gratis';-inkscape-font-specification:'Bradley Gratis';text-align:start;text-anchor:start;stroke-width:0.26458332"
         id="path7141"
         inkscape:connector-curvature="0" />
      <path
         d="m 97.468638,149.63598 q 0,0.13758 -0.05644,0.23989 -0.05644,0.0988 -0.148167,0.16228 -0.08819,0.0635 -0.197556,0.0952 -0.109361,0.0318 -0.215194,0.0318 -0.165806,0 -0.324556,-0.0811 -0.15875,-0.0811 -0.28575,-0.21873 -0.127,-0.14111 -0.204611,-0.32808 -0.07761,-0.1905 -0.07761,-0.40922 0,-0.39158 0.179917,-0.72672 0.179917,-0.33867 0.500944,-0.61384 -0.02822,-0.004 -0.05292,-0.004 -0.02117,-0.004 -0.04586,-0.004 -0.08467,0 -0.179917,0.0282 -0.09525,0.0282 -0.179917,0.0741 -0.08467,0.0423 -0.155222,0.0953 -0.06703,0.0529 -0.102306,0.0988 0.02822,-0.13758 0.105834,-0.27164 0.07761,-0.13405 0.194028,-0.23636 0.116416,-0.1023 0.268111,-0.1658 0.151694,-0.0635 0.331611,-0.0635 0.09172,0 0.194028,0.0282 0.102305,0.0282 0.194027,0.0741 0.09525,0.0423 0.169334,0.0952 0.07408,0.0529 0.112889,0.10231 l -0.289278,0.44097 q -0.176389,-0.17286 -0.381,-0.24695 -0.04586,0.0741 -0.09525,0.17639 -0.04939,0.0988 -0.09172,0.22578 -0.03881,0.127 -0.06703,0.28222 -0.0247,0.1517 -0.0247,0.33161 0,0.16934 0.0247,0.29987 0.02822,0.13052 0.07055,0.22577 0.04233,0.0952 0.09525,0.15875 0.05644,0.0635 0.112889,0.10584 0.134056,0.0952 0.306917,0.10583 0.07055,0 0.162278,-0.0282 0.09525,-0.0317 0.151694,-0.0811 z"
         style="font-style:normal;font-variant:normal;font-weight:normal;font-stretch:normal;font-family:'Bradley Gratis';-inkscape-font-specification:'Bradley Gratis';text-align:start;text-anchor:start;stroke-width:0.26458332"
         id="path7143"
         inkscape:connector-curvature="0" />
      <path
         d="m 99.236882,147.38526 v 0.381 q -0.0388,-0.0353 -0.102305,-0.0776 -0.05997,-0.0423 -0.130528,-0.0741 -0.06703,-0.0353 -0.134055,-0.0564 -0.06703,-0.0247 -0.112889,-0.0247 -0.08467,0 -0.172861,0.067 -0.08819,0.067 -0.144639,0.17992 -0.05644,0.10936 -0.07408,0.28928 -0.01411,0.17638 -0.01411,0.45508 h 0.903111 l -0.179916,0.40217 q -0.03528,-0.0529 -0.08467,-0.0706 -0.04586,-0.0212 -0.08467,-0.0212 h -0.55386 q 0,0.20109 0.0071,0.39511 0.0071,0.1905 0.04586,0.3422 0.04233,0.15169 0.127,0.24694 0.08467,0.0917 0.243417,0.0917 0.08467,0 0.165805,-0.0317 0.08467,-0.0318 0.155222,-0.0776 0.07056,-0.0494 0.123473,-0.1023 0.05644,-0.0529 0.08819,-0.0952 v 0.508 h -0.47625 q -0.342194,0 -0.553861,-0.11995 -0.211667,-0.12347 -0.331611,-0.32808 -0.116417,-0.20814 -0.15875,-0.47978 -0.03881,-0.27164 -0.03881,-0.56797 0,-0.0741 0.01058,-0.19403 0.01058,-0.12347 0.04586,-0.25752 0.03528,-0.13759 0.102305,-0.27517 0.06703,-0.14111 0.179917,-0.25047 0.116417,-0.11289 0.28575,-0.18345 0.169333,-0.0706 0.409222,-0.0706 z"
         style="font-style:normal;font-variant:normal;font-weight:normal;font-stretch:normal;font-family:'Bradley Gratis';-inkscape-font-specification:'Bradley Gratis';text-align:start;text-anchor:start;stroke-width:0.26458332"
         id="path7145"
         inkscape:connector-curvature="0" />
      <path
         d="m 100.51581,148.08023 q -0.0882,-0.21167 -0.15169,-0.35278 -0.0635,-0.14111 -0.0988,-0.14111 -0.0388,0 -0.0529,0.0353 -0.0106,0.0317 -0.0106,0.0564 v 1.91206 q 0,0.0776 -0.0423,0.16228 -0.0423,0.0847 -0.11289,0.14816 0.13053,0 0.23283,-0.0635 0.10231,-0.067 0.21167,-0.14464 0.11289,-0.0811 0.25047,-0.14464 0.13758,-0.067 0.34219,-0.067 v 0.63147 h -1.594552 q 0.04586,-0.067 0.07761,-0.127 0.03528,-0.06 0.05644,-0.11995 0.02117,-0.06 0.03175,-0.127 0.01058,-0.067 0.01058,-0.14816 v -1.66864 q 0,-0.11289 -0.04233,-0.18345 -0.04233,-0.0741 -0.05997,-0.1023 0.01411,-0.004 0.07055,-0.0247 0.05997,-0.0247 0.144639,-0.0564 0.08467,-0.0317 0.186972,-0.067 0.102301,-0.0353 0.201081,-0.0635 0.0988,-0.0317 0.18697,-0.0494 0.0882,-0.0212 0.14464,-0.0212 0.0882,0 0.16581,0.0494 0.0776,0.0494 0.14111,0.12347 0.0635,0.0741 0.10936,0.1658 0.0459,0.0882 0.0741,0.16581 z"
         style="font-style:normal;font-variant:normal;font-weight:normal;font-stretch:normal;font-family:'Bradley Gratis';-inkscape-font-specification:'Bradley Gratis';text-align:start;text-anchor:start;stroke-width:0.26458332"
         id="path7147"
         inkscape:connector-curvature="0" />
      <path
         d="m 102.69598,148.41537 v -0.87842 h -0.41628 q -0.004,0.23636 -0.0141,0.4692 -0.007,0.2293 -0.0176,0.40922 z m 0.71967,-1.03011 q -0.0388,0.0282 -0.0741,0.0706 -0.0318,0.0423 -0.0564,0.0917 -0.0212,0.0459 -0.0353,0.0917 -0.0141,0.0423 -0.0141,0.0741 v 2.39889 H 102.696 v -1.32997 h -0.47272 q -0.004,0.127 -0.0353,0.27869 -0.0318,0.14817 -0.0882,0.29986 -0.0529,0.14817 -0.127,0.28928 -0.0705,0.13758 -0.16227,0.24342 -0.0882,0.10583 -0.1905,0.16933 -0.0988,0.0635 -0.20814,0.0635 -0.0706,0 -0.12347,-0.0423 -0.0494,-0.0423 -0.0494,-0.11995 0,-0.0494 0.0318,-0.0705 0.0318,-0.0247 0.067,-0.0247 0.0318,0 0.0494,0.0106 0.0176,0.007 0.0318,0.0212 0.0176,0.0106 0.0388,0.0212 0.0212,0.007 0.06,0.007 0.0635,0 0.10231,-0.0635 0.0388,-0.067 0.0635,-0.17638 0.0247,-0.11289 0.0353,-0.25753 0.0141,-0.14817 0.0212,-0.31045 0.007,-0.16227 0.0176,-0.32808 0.0106,-0.16933 0.0282,-0.32456 0.0212,-0.18344 0.0635,-0.33513 0.0459,-0.1517 0.0952,-0.26812 0.0494,-0.11641 0.0988,-0.19755 0.0494,-0.0811 0.0847,-0.13053 h -0.0776 q -0.067,0 -0.12348,0.0212 -0.0564,0.0176 -0.1023,0.0423 -0.0423,0.0212 -0.0776,0.0423 -0.0318,0.0176 -0.0564,0.0176 -0.06,0 -0.0882,-0.0423 -0.0282,-0.0423 -0.0282,-0.0952 0,-0.0494 0.0529,-0.0917 0.0564,-0.0459 0.15522,-0.0459 z"
         style="font-style:normal;font-variant:normal;font-weight:normal;font-stretch:normal;font-family:'Bradley Gratis';-inkscape-font-specification:'Bradley Gratis';text-align:start;text-anchor:start;stroke-width:0.26458332"
         id="path7149"
         inkscape:connector-curvature="0" />
      <path
         d="m 103.71606,150.11223 v -2.4377 q 0,-0.0988 -0.0423,-0.1658 -0.0423,-0.0706 -0.0847,-0.12347 h 0.68439 v 0.35983 l 0.39158,-0.45508 q 0.17992,0.16227 0.29633,0.32455 0.11642,0.15875 0.18345,0.32103 0.067,0.15875 0.0917,0.32456 0.0247,0.16227 0.0247,0.33513 0,0.16934 -0.0282,0.32456 -0.0247,0.15169 -0.0741,0.29986 -0.0494,0.14817 -0.11995,0.29986 -0.067,0.1517 -0.14816,0.3175 h 0.127 q 0.0459,0 0.0953,-0.0318 0.0494,-0.0317 0.0988,-0.0317 v 0.33867 h -0.68439 q 0.0952,-0.19403 0.15169,-0.34925 0.06,-0.15522 0.0917,-0.29633 0.0318,-0.14112 0.0423,-0.27517 0.0106,-0.13406 0.0106,-0.28575 0,-0.1517 -0.0529,-0.31397 -0.0494,-0.16581 -0.12347,-0.30339 -0.0741,-0.13759 -0.15875,-0.22578 -0.0811,-0.0882 -0.14817,-0.0882 -0.0423,0 -0.067,0.0212 v 2.11667 z"
         style="font-style:normal;font-variant:normal;font-weight:normal;font-stretch:normal;font-family:'Bradley Gratis';-inkscape-font-specification:'Bradley Gratis';text-align:start;text-anchor:start;stroke-width:0.26458332"
         id="path7151"
         inkscape:connector-curvature="0" />
      <path
         d="m 105.60496,147.6322 q -0.0917,-0.0388 -0.127,-0.0953 -0.0353,-0.0564 -0.0353,-0.10583 0,-0.0423 0.0282,-0.0529 0.0282,0.0176 0.0776,0.0247 0.0494,0.007 0.11289,0.007 0.0318,0 0.0882,-0.0106 0.06,-0.0106 0.13053,-0.0212 0.0706,-0.0106 0.14464,-0.0212 0.0776,-0.0106 0.14464,-0.0106 0.16227,0 0.33161,0.0847 0.16933,0.0811 0.30339,0.254 0.13405,0.16933 0.21872,0.43391 0.0882,0.26106 0.0882,0.62442 0,0.30692 -0.0529,0.52917 -0.0529,0.22225 -0.13406,0.37747 -0.0811,0.15522 -0.17992,0.25047 -0.0988,0.0917 -0.19402,0.14464 -0.0917,0.0494 -0.16934,0.067 -0.0741,0.0176 -0.10936,0.0176 -0.0529,0 -0.11289,-0.0141 -0.06,-0.0141 -0.11994,-0.0317 -0.0565,-0.0176 -0.10936,-0.0318 -0.0494,-0.0141 -0.0847,-0.0141 -0.0388,0 -0.0705,0.0141 -0.0318,0.0106 -0.067,0.0247 -0.0317,0.0106 -0.0706,0.0247 -0.0388,0.0106 -0.0882,0.0106 -0.0176,0 -0.0388,-0.004 -0.0176,-0.004 -0.0353,-0.0106 -0.0176,-0.007 -0.0353,-0.0176 0.0282,-0.0176 0.0564,-0.06 0.0282,-0.0459 0.0529,-0.0952 0.0282,-0.0529 0.0564,-0.11642 z m 0.51858,2.10256 q 0,0.0741 0.0247,0.11641 0.0282,0.0388 0.06,0.0565 0.0388,0.0212 0.0847,0.0247 0.0811,0 0.14111,-0.10936 0.0635,-0.10936 0.0635,-0.27869 v -1.5487 q 0,-0.1658 -0.0318,-0.25753 -0.0318,-0.0917 -0.0741,-0.13405 -0.0423,-0.0423 -0.0847,-0.0494 -0.0423,-0.0106 -0.067,-0.0106 -0.0423,0 -0.0811,0.0564 -0.0353,0.0565 -0.0353,0.14817 z"
         style="font-style:normal;font-variant:normal;font-weight:normal;font-stretch:normal;font-family:'Bradley Gratis';-inkscape-font-specification:'Bradley Gratis';text-align:start;text-anchor:start;stroke-width:0.26458332"
         id="path7153"
         inkscape:connector-curvature="0" />
    </g>
    <g
       transform="matrix(1.0344827,0,0,1.0014499,-1.2877853,-0.14648349)"
       style="font-style:normal;font-variant:normal;font-weight:bold;font-stretch:normal;font-size:13.33333302px;line-height:1.25;font-family:Consolas;-inkscape-font-specification:'Consolas Bold';text-align:center;letter-spacing:0px;word-spacing:0px;text-anchor:middle;fill:#000000;fill-opacity:1;stroke:none"
       id="flowRoot2363" />
    <g
       aria-label="PW - GRID CONTROL"
       transform="scale(1.0163587,0.9839046)"
       style="font-style:normal;font-variant:normal;font-weight:bold;font-stretch:normal;font-size:3.59068608px;line-height:1.25;font-family:Consolas;-inkscape-font-specification:'Consolas Bold';text-align:start;letter-spacing:0px;word-spacing:0px;text-anchor:start;fill:#ffffff;fill-opacity:1;stroke:none;stroke-width:0.26930144"
       id="text3885">
      <path
         d="m 47.293622,52.654558 v 1.026937 h 0.252784 q 0.225136,0 0.347578,-0.154041 0.126392,-0.15404 0.126392,-0.398925 0,-0.473971 -0.47397,-0.473971 z m 1.074333,0.473971 q 0,0.383126 -0.209337,0.600363 -0.205387,0.213286 -0.588514,0.213286 h -0.276482 v 1.216525 h -0.347579 v -2.764828 h 0.699107 q 0.722805,0 0.722805,0.734654 z"
         style="font-style:normal;font-variant:normal;font-weight:bold;font-stretch:normal;font-size:3.94975471px;font-family:Homenaje;-inkscape-font-specification:'Homenaje Bold';text-align:start;text-anchor:start;fill:#ffffff;fill-opacity:1;stroke-width:0.26930144"
         id="path2036" />
      <path
         d="m 49.79036,53.11273 h 0.371277 l 0.371277,1.710244 0.466071,-2.429099 h 0.343629 l -0.572715,2.764828 h -0.466071 l -0.32388,-1.654947 -0.31993,1.654947 h -0.466071 l -0.584563,-2.764828 h 0.343628 l 0.470021,2.429099 z"
         style="font-style:normal;font-variant:normal;font-weight:bold;font-stretch:normal;font-size:3.94975471px;font-family:Homenaje;-inkscape-font-specification:'Homenaje Bold';text-align:start;text-anchor:start;fill:#ffffff;fill-opacity:1;stroke-width:0.26930144"
         id="path2038" />
      <path
         d="M 52.116087,54.39245 V 54.131767 H 53.03243 V 54.39245 Z"
         style="font-style:normal;font-variant:normal;font-weight:bold;font-stretch:normal;font-size:3.94975471px;font-family:Homenaje;-inkscape-font-specification:'Homenaje Bold';text-align:start;text-anchor:start;fill:#ffffff;fill-opacity:1;stroke-width:0.26930144"
         id="path2040" />
      <path
         d="m 55.270275,55.158703 h -0.699107 q -0.359428,0 -0.556915,-0.181689 -0.197488,-0.181689 -0.197488,-0.533217 V 53.10483 q 0,-0.347578 0.213287,-0.529267 0.213286,-0.181688 0.580614,-0.181688 h 0.580614 v 0.264633 h -0.620112 q -0.181689,0 -0.296232,0.106643 -0.110593,0.102694 -0.110593,0.276483 v 1.473259 q 0,0.177739 0.106644,0.280432 0.106643,0.102694 0.284382,0.102694 h 0.367327 v -1.086183 h -0.355478 v -0.260683 h 0.703057 z"
         style="font-style:normal;font-variant:normal;font-weight:bold;font-stretch:normal;font-size:3.94975471px;font-family:Homenaje;-inkscape-font-specification:'Homenaje Bold';text-align:start;text-anchor:start;fill:#ffffff;fill-opacity:1;stroke-width:0.26930144"
         id="path2042" />
      <path
         d="m 56.103426,52.654558 v 1.030886 h 0.280433 q 0.225136,0 0.347578,-0.15404 0.126393,-0.15799 0.126393,-0.402875 0,-0.473971 -0.473971,-0.473971 z m -0.0079,1.29157 v 1.212575 h -0.339679 v -2.764828 h 0.730705 q 0.710956,0 0.710956,0.734654 0,0.276483 -0.106644,0.48187 -0.106643,0.205387 -0.304131,0.284382 l 0.549016,1.263922 h -0.339679 l -0.537167,-1.212575 z"
         style="font-style:normal;font-variant:normal;font-weight:bold;font-stretch:normal;font-size:3.94975471px;font-family:Homenaje;-inkscape-font-specification:'Homenaje Bold';text-align:start;text-anchor:start;fill:#ffffff;fill-opacity:1;stroke-width:0.26930144"
         id="path2044" />
      <path
         d="m 57.699867,55.158703 v -2.764828 h 0.347579 v 2.764828 z"
         style="font-style:normal;font-variant:normal;font-weight:bold;font-stretch:normal;font-size:3.94975471px;font-family:Homenaje;-inkscape-font-specification:'Homenaje Bold';text-align:start;text-anchor:start;fill:#ffffff;fill-opacity:1;stroke-width:0.26930144"
         id="path2046" />
      <path
         d="m 58.97317,54.89012 h 0.335729 q 0.181689,0 0.292282,-0.102694 0.114543,-0.106643 0.114543,-0.280433 v -1.461409 q 0,-0.173789 -0.114543,-0.276483 -0.110593,-0.106643 -0.292282,-0.106643 H 58.97317 Z m -0.351528,0.268583 v -2.764828 h 0.687257 q 0.359428,0 0.556915,0.181688 0.197488,0.181689 0.197488,0.533217 v 1.335017 q 0,0.351528 -0.197488,0.533217 -0.197487,0.177739 -0.556915,0.181689 z"
         style="font-style:normal;font-variant:normal;font-weight:bold;font-stretch:normal;font-size:3.94975471px;font-family:Homenaje;-inkscape-font-specification:'Homenaje Bold';text-align:start;text-anchor:start;fill:#ffffff;fill-opacity:1;stroke-width:0.26930144"
         id="path2048" />
      <path
         d="m 62.282508,54.898019 v 0.260684 h -0.529267 q -0.359428,0 -0.556915,-0.181689 -0.197488,-0.181689 -0.197488,-0.533217 V 53.10878 q 0,-0.351528 0.197488,-0.533217 0.197487,-0.181688 0.556915,-0.181688 h 0.529267 v 0.260683 h -0.529267 q -0.181689,0 -0.296231,0.106644 -0.110594,0.102693 -0.110594,0.276483 v 1.477208 q 0,0.173789 0.110594,0.280432 0.114542,0.102694 0.296231,0.102694 z"
         style="font-style:normal;font-variant:normal;font-weight:bold;font-stretch:normal;font-size:3.94975471px;font-family:Homenaje;-inkscape-font-specification:'Homenaje Bold';text-align:start;text-anchor:start;fill:#ffffff;fill-opacity:1;stroke-width:0.26930144"
         id="path2050" />
      <path
         d="m 64.046753,54.475395 q 0,0.335729 -0.193538,0.525318 -0.193538,0.185638 -0.564815,0.185638 -0.367327,0 -0.560865,-0.185638 -0.193538,-0.189589 -0.193538,-0.525318 v -1.398213 q 0,-0.335729 0.193538,-0.521368 0.193538,-0.189588 0.560865,-0.189588 0.371277,0 0.564815,0.189588 0.193538,0.185639 0.193538,0.521368 z m -1.165177,0.06715 q 0,0.181689 0.114542,0.284382 0.118493,0.09874 0.292282,0.09874 0.173789,0 0.292282,-0.09874 0.118493,-0.102693 0.118493,-0.284382 v -1.532505 q 0,-0.181688 -0.118493,-0.280432 -0.118493,-0.102694 -0.292282,-0.102694 -0.173789,0 -0.292282,0.102694 -0.114542,0.09874 -0.114542,0.280432 z"
         style="font-style:normal;font-variant:normal;font-weight:bold;font-stretch:normal;font-size:3.94975471px;font-family:Homenaje;-inkscape-font-specification:'Homenaje Bold';text-align:start;text-anchor:start;fill:#ffffff;fill-opacity:1;stroke-width:0.26930144"
         id="path2052" />
      <path
         d="m 66.048291,55.158703 h -0.497669 l -0.730705,-2.512044 v 2.512044 h -0.347578 v -2.764828 h 0.580614 l 0.64381,2.389601 v -2.389601 h 0.351528 z"
         style="font-style:normal;font-variant:normal;font-weight:bold;font-stretch:normal;font-size:3.94975471px;font-family:Homenaje;-inkscape-font-specification:'Homenaje Bold';text-align:start;text-anchor:start;fill:#ffffff;fill-opacity:1;stroke-width:0.26930144"
         id="path2054" />
      <path
         d="m 66.938159,55.158703 v -2.504145 h -0.552966 v -0.260683 h 1.45351 v 0.260683 h -0.552966 v 2.504145 z"
         style="font-style:normal;font-variant:normal;font-weight:bold;font-stretch:normal;font-size:3.94975471px;font-family:Homenaje;-inkscape-font-specification:'Homenaje Bold';text-align:start;text-anchor:start;fill:#ffffff;fill-opacity:1;stroke-width:0.26930144"
         id="path2056" />
      <path
         d="m 68.554411,52.654558 v 1.030886 h 0.280433 q 0.225136,0 0.347578,-0.15404 0.126393,-0.15799 0.126393,-0.402875 0,-0.473971 -0.473971,-0.473971 z m -0.0079,1.29157 v 1.212575 h -0.339679 v -2.764828 h 0.730705 q 0.710955,0 0.710955,0.734654 0,0.276483 -0.106643,0.48187 -0.106643,0.205387 -0.304131,0.284382 l 0.549016,1.263922 h -0.339679 l -0.537167,-1.212575 z"
         style="font-style:normal;font-variant:normal;font-weight:bold;font-stretch:normal;font-size:3.94975471px;font-family:Homenaje;-inkscape-font-specification:'Homenaje Bold';text-align:start;text-anchor:start;fill:#ffffff;fill-opacity:1;stroke-width:0.26930144"
         id="path2058" />
      <path
         d="m 71.545116,54.475395 q 0,0.335729 -0.193538,0.525318 -0.193538,0.185638 -0.564815,0.185638 -0.367327,0 -0.560865,-0.185638 -0.193538,-0.189589 -0.193538,-0.525318 v -1.398213 q 0,-0.335729 0.193538,-0.521368 0.193538,-0.189588 0.560865,-0.189588 0.371277,0 0.564815,0.189588 0.193538,0.185639 0.193538,0.521368 z m -1.165178,0.06715 q 0,0.181689 0.114543,0.284382 0.118493,0.09874 0.292282,0.09874 0.173789,0 0.292282,-0.09874 0.118492,-0.102693 0.118492,-0.284382 v -1.532505 q 0,-0.181688 -0.118492,-0.280432 -0.118493,-0.102694 -0.292282,-0.102694 -0.173789,0 -0.292282,0.102694 -0.114543,0.09874 -0.114543,0.280432 z"
         style="font-style:normal;font-variant:normal;font-weight:bold;font-stretch:normal;font-size:3.94975471px;font-family:Homenaje;-inkscape-font-specification:'Homenaje Bold';text-align:start;text-anchor:start;fill:#ffffff;fill-opacity:1;stroke-width:0.26930144"
         id="path2060" />
      <path
         d="m 72.0023,55.158703 v -2.764828 h 0.347579 v 2.504144 h 0.8097 v 0.260684 z"
         style="font-style:normal;font-variant:normal;font-weight:bold;font-stretch:normal;font-size:3.94975471px;font-family:Homenaje;-inkscape-font-specification:'Homenaje Bold';text-align:start;text-anchor:start;fill:#ffffff;fill-opacity:1;stroke-width:0.26930144"
         id="path2062" />
    </g>
    <g
       aria-label="X"
       transform="scale(1.0163587,0.9839046)"
       style="font-style:normal;font-variant:normal;font-weight:bold;font-stretch:normal;font-size:3.59068608px;line-height:1.25;font-family:Calibri;-inkscape-font-specification:'Calibri Bold';letter-spacing:0px;word-spacing:0px;fill:#ffffff;fill-opacity:1;stroke:none;stroke-width:0.26930144"
       id="text5443-7-5-4">
      <path
         d="m 38.878131,59.094253 -0.301618,0.703774 h -0.221186 l 0.39713,-0.924961 -0.34686,-0.834475 h 0.221186 l 0.251348,0.605749 0.256375,-0.605749 h 0.221186 l -0.364455,0.834475 0.407184,0.924961 h -0.223699 z"
         style="font-style:normal;font-variant:normal;font-weight:bold;font-stretch:normal;font-size:2.51348042px;font-family:Homenaje;-inkscape-font-specification:'Homenaje Bold';stroke-width:0.26930144"
         id="path2065" />
    </g>
    <g
       transform="scale(1.0163587,0.98390462)"
       style="font-style:normal;font-variant:normal;font-weight:bold;font-stretch:normal;font-size:3.59068608px;line-height:1.25;font-family:'Labtop Secundo Superwide';-inkscape-font-specification:'Labtop Secundo Superwide Bold';text-align:center;letter-spacing:0px;word-spacing:0px;text-anchor:middle;fill:#000000;fill-opacity:1;stroke:none;stroke-width:0.26930144"
       id="text993" />
    <g
       transform="scale(1.0163587,0.98390462)"
       style="font-style:normal;font-variant:normal;font-weight:bold;font-stretch:normal;font-size:3.59068608px;line-height:1.25;font-family:'Labtop Secundo Superwide';-inkscape-font-specification:'Labtop Secundo Superwide Bold';text-align:center;letter-spacing:0px;word-spacing:0px;text-anchor:middle;fill:#ff04ff;fill-opacity:1;stroke:none;stroke-width:0.26930144"
       id="text1267" />
    <g
       transform="scale(1.0163587,0.98390462)"
       style="font-style:normal;font-variant:normal;font-weight:bold;font-stretch:normal;font-size:3.59068608px;line-height:1.25;font-family:'Labtop Secundo Superwide';-inkscape-font-specification:'Labtop Secundo Superwide Bold';text-align:center;letter-spacing:0px;word-spacing:0px;text-anchor:middle;fill:#ffffff;fill-opacity:1;stroke:none;stroke-width:0.26930144"
       id="text1271" />
    <g
       transform="scale(1.0163587,0.98390462)"
       style="font-style:normal;font-variant:normal;font-weight:bold;font-stretch:normal;font-size:3.59068608px;line-height:1.25;font-family:'Labtop Secundo Superwide';-inkscape-font-specification:'Labtop Secundo Superwide Bold';text-align:center;letter-spacing:0px;word-spacing:0px;text-anchor:middle;fill:#000000;fill-opacity:1;stroke:none;stroke-width:0.26930144"
       id="text1275" />
    <g
       aria-label="Y"
       transform="scale(1.0163587,0.9839046)"
       style="font-style:normal;font-variant:normal;font-weight:bold;font-stretch:normal;font-size:3.59068608px;line-height:1.25;font-family:Homenaje;-inkscape-font-specification:'Homenaje Bold';letter-spacing:0px;word-spacing:0px;fill:#ffffff;fill-opacity:1;stroke:none;stroke-width:0.26930144"
       id="text5443-7-5-4-3">
      <path
         d="m 45.439031,59.798035 h -0.221186 v -0.698748 l -0.354401,-1.060689 h 0.221187 l 0.251348,0.831962 0.256375,-0.831962 h 0.221186 l -0.374509,1.060689 z"
         style="font-style:normal;font-variant:normal;font-weight:bold;font-stretch:normal;font-size:2.51348042px;font-family:Homenaje;-inkscape-font-specification:'Homenaje Bold';stroke-width:0.26930144"
         id="path2072" />
    </g>
    <g
       aria-label="PIN Xs"
       transform="scale(1.0163587,0.9839046)"
       style="font-style:normal;font-variant:normal;font-weight:bold;font-stretch:normal;font-size:3.59068608px;line-height:1.25;font-family:Homenaje;-inkscape-font-specification:'Homenaje Bold';letter-spacing:0px;word-spacing:0px;fill:#ffffff;fill-opacity:1;stroke:none;stroke-width:0.26930144"
       id="text5443-7-5-4-7">
      <path
         d="m 39.487651,78.662206 v 0.653505 h 0.160863 q 0.143269,0 0.221186,-0.09803 0.08043,-0.09803 0.08043,-0.253861 0,-0.301618 -0.301618,-0.301618 z m 0.683667,0.301618 q 0,0.243807 -0.133214,0.382049 -0.130701,0.135728 -0.374509,0.135728 h -0.175944 v 0.774152 h -0.221186 v -1.759437 h 0.444886 q 0.459967,0 0.459967,0.467508 z"
         style="font-style:normal;font-variant:normal;font-weight:bold;font-stretch:normal;font-size:2.51348042px;font-family:Homenaje;-inkscape-font-specification:'Homenaje Bold';stroke-width:0.26930144"
         id="path2075" />
      <path
         d="m 40.405386,80.255753 v -1.759437 h 0.221186 v 1.759437 z"
         style="font-style:normal;font-variant:normal;font-weight:bold;font-stretch:normal;font-size:2.51348042px;font-family:Homenaje;-inkscape-font-specification:'Homenaje Bold';stroke-width:0.26930144"
         id="path2077" />
      <path
         d="m 41.977254,80.255753 h -0.316699 l -0.464994,-1.598574 v 1.598574 h -0.221186 v -1.759437 h 0.369482 l 0.409697,1.520656 v -1.520656 h 0.2237 z"
         style="font-style:normal;font-variant:normal;font-weight:bold;font-stretch:normal;font-size:2.51348042px;font-family:Homenaje;-inkscape-font-specification:'Homenaje Bold';stroke-width:0.26930144"
         id="path2079" />
      <path
         d="m 43.117588,79.551978 -0.301617,0.703775 h -0.221186 l 0.397129,-0.924961 -0.34686,-0.834476 h 0.221186 l 0.251348,0.605749 0.256375,-0.605749 h 0.221187 l -0.364455,0.834476 0.407184,0.924961 h -0.2237 z"
         style="font-style:normal;font-variant:normal;font-weight:bold;font-stretch:normal;font-size:2.51348042px;font-family:Homenaje;-inkscape-font-specification:'Homenaje Bold';stroke-width:0.26930144"
         id="path2081" />
      <path
         d="m 44.207457,79.891298 q 0,-0.11562 -0.148295,-0.228727 -0.06032,-0.04524 -0.123161,-0.09551 -0.148295,-0.123161 -0.148295,-0.311672 0,-0.133214 0.08797,-0.218672 0.09049,-0.08797 0.241295,-0.08797 h 0.218672 v 0.150809 h -0.18097 q -0.178457,0 -0.178457,0.168403 0,0.103052 0.148295,0.211132 0.06032,0.04524 0.120647,0.09803 0.06032,0.05027 0.103053,0.135728 0.04273,0.08295 0.04273,0.188511 0,0.178457 -0.09551,0.266429 -0.093,0.08797 -0.263916,0.08797 h -0.243807 v -0.150809 h 0.213646 q 0.206105,0 0.206105,-0.213646 z"
         style="font-style:normal;font-variant:normal;font-weight:bold;font-stretch:normal;font-size:2.51348042px;font-family:Homenaje;-inkscape-font-specification:'Homenaje Bold';stroke-width:0.26930144"
         id="path2083" />
    </g>
    <g
       aria-label="LEVEL"
       transform="scale(1.0163587,0.9839046)"
       style="font-style:normal;font-variant:normal;font-weight:bold;font-stretch:normal;font-size:3.59068608px;line-height:1.25;font-family:Homenaje;-inkscape-font-specification:'Homenaje Bold';letter-spacing:0px;word-spacing:0px;fill:#ffffff;fill-opacity:1;stroke:none;stroke-width:0.26930144"
       id="text5443-7-5-4-6">
      <path
         d="m 43.962893,110.3738 v -1.72861 h 0.217311 v 1.56563 h 0.506236 v 0.16298 z"
         style="font-style:normal;font-variant:normal;font-weight:bold;font-stretch:normal;font-size:2.46944451px;font-family:Homenaje;-inkscape-font-specification:'Homenaje Bold';stroke-width:0.26930144"
         id="path2086" />
      <path
         d="m 44.898581,110.3738 v -1.72861 h 0.75318 v 0.16792 h -0.535869 v 0.55316 h 0.434622 v 0.16792 h -0.434622 v 0.67169 h 0.560564 v 0.16792 z"
         style="font-style:normal;font-variant:normal;font-weight:bold;font-stretch:normal;font-size:2.46944451px;font-family:Homenaje;-inkscape-font-specification:'Homenaje Bold';stroke-width:0.26930144"
         id="path2088" />
      <path
         d="m 46.406755,110.17625 0.340784,-1.53106 h 0.214841 l -0.407458,1.72861 h -0.291394 l -0.414867,-1.72861 h 0.214842 z"
         style="font-style:normal;font-variant:normal;font-weight:bold;font-stretch:normal;font-size:2.46944451px;font-family:Homenaje;-inkscape-font-specification:'Homenaje Bold';stroke-width:0.26930144"
         id="path2090" />
      <path
         d="m 47.218508,110.3738 v -1.72861 h 0.753181 v 0.16792 h -0.53587 v 0.55316 h 0.434622 v 0.16792 h -0.434622 v 0.67169 h 0.560564 v 0.16792 z"
         style="font-style:normal;font-variant:normal;font-weight:bold;font-stretch:normal;font-size:2.46944451px;font-family:Homenaje;-inkscape-font-specification:'Homenaje Bold';stroke-width:0.26930144"
         id="path2092" />
      <path
         d="m 48.274774,110.3738 v -1.72861 h 0.217311 v 1.56563 h 0.506237 v 0.16298 z"
         style="font-style:normal;font-variant:normal;font-weight:bold;font-stretch:normal;font-size:2.46944451px;font-family:Homenaje;-inkscape-font-specification:'Homenaje Bold';stroke-width:0.26930144"
         id="path2094" />
    </g>
    <g
       transform="scale(1.0163587,0.98390462)"
       style="font-style:normal;font-variant:normal;font-weight:bold;font-stretch:normal;font-size:3.59068608px;line-height:1.25;font-family:'Labtop Secundo Superwide';-inkscape-font-specification:'Labtop Secundo Superwide Bold';text-align:center;letter-spacing:0px;word-spacing:0px;text-anchor:middle;fill:#000000;fill-opacity:1;stroke:none;stroke-width:0.26930144"
       id="text1475" />
    <g
       aria-label="DESTINATION"
       transform="scale(1.0163587,0.9839046)"
       style="font-style:normal;font-variant:normal;font-weight:bold;font-stretch:normal;font-size:3.59068608px;line-height:1.25;font-family:Homenaje;-inkscape-font-specification:'Homenaje Bold';letter-spacing:0px;word-spacing:0px;fill:#ffffff;fill-opacity:1;stroke:none;stroke-width:0.26930147"
       id="text5443-7-5-4-7-4">
      <path
         d="m 37.407566,104.80711 h 0.213646 q 0.11562,0 0.185997,-0.0653 0.07289,-0.0679 0.07289,-0.17846 v -0.92998 q 0,-0.1106 -0.07289,-0.17595 -0.07038,-0.0679 -0.185997,-0.0679 h -0.213646 z m -0.2237,0.17092 v -1.75944 h 0.437346 q 0.228726,0 0.3544,0.11562 0.125674,0.11562 0.125674,0.33932 v 0.84956 q 0,0.2237 -0.125674,0.33932 -0.125674,0.1131 -0.3544,0.11562 z"
         style="font-style:normal;font-variant:normal;font-weight:bold;font-stretch:normal;font-size:2.51348042px;font-family:Homenaje;-inkscape-font-specification:'Homenaje Bold';stroke-width:0.26930147"
         id="path2098" />
      <path
         d="m 38.394028,104.97803 v -1.75944 h 0.766612 v 0.17092 h -0.545426 v 0.56302 h 0.442373 v 0.17091 h -0.442373 v 0.68367 h 0.570561 v 0.17092 z"
         style="font-style:normal;font-variant:normal;font-weight:bold;font-stretch:normal;font-size:2.51348042px;font-family:Homenaje;-inkscape-font-specification:'Homenaje Bold';stroke-width:0.26930147"
         id="path2100" />
      <path
         d="m 39.712938,104.81214 q 0.143268,0 0.206105,-0.0855 0.06535,-0.0855 0.06535,-0.19857 0,-0.1131 -0.04273,-0.19102 -0.04022,-0.0804 -0.103052,-0.12567 -0.06284,-0.0478 -0.135728,-0.10306 -0.07289,-0.0553 -0.135728,-0.10556 -0.06284,-0.0528 -0.105566,-0.14076 -0.04022,-0.088 -0.04022,-0.20108 0,-0.20107 0.120647,-0.32172 0.120647,-0.12065 0.334293,-0.12065 h 0.203592 v 0.16589 h -0.193538 q -0.120647,0 -0.183484,0.0779 -0.06284,0.0779 -0.06284,0.1684 0,0.0905 0.04021,0.15584 0.04273,0.0653 0.105567,0.10808 0.06284,0.0427 0.135728,0.10054 0.0754,0.0578 0.138241,0.11813 0.06284,0.0578 0.103053,0.15835 0.04273,0.10054 0.04273,0.22873 0,0.23626 -0.135728,0.35691 -0.133215,0.12065 -0.366968,0.12065 h -0.263916 v -0.16589 z"
         style="font-style:normal;font-variant:normal;font-weight:bold;font-stretch:normal;font-size:2.51348042px;font-family:Homenaje;-inkscape-font-specification:'Homenaje Bold';stroke-width:0.26930147"
         id="path2102" />
      <path
         d="m 40.669631,104.97803 v -1.59355 h -0.351887 v -0.16589 h 0.924961 v 0.16589 h -0.351887 v 1.59355 z"
         style="font-style:normal;font-variant:normal;font-weight:bold;font-stretch:normal;font-size:2.51348042px;font-family:Homenaje;-inkscape-font-specification:'Homenaje Bold';stroke-width:0.26930147"
         id="path2104" />
      <path
         d="m 41.476969,104.97803 v -1.75944 h 0.221186 v 1.75944 z"
         style="font-style:normal;font-variant:normal;font-weight:bold;font-stretch:normal;font-size:2.51348042px;font-family:Homenaje;-inkscape-font-specification:'Homenaje Bold';stroke-width:0.26930147"
         id="path2106" />
      <path
         d="m 43.048837,104.97803 h -0.316699 l -0.464994,-1.59858 v 1.59858 h -0.221186 v -1.75944 h 0.369482 l 0.409697,1.52066 v -1.52066 h 0.2237 z"
         style="font-style:normal;font-variant:normal;font-weight:bold;font-stretch:normal;font-size:2.51348042px;font-family:Homenaje;-inkscape-font-specification:'Homenaje Bold';stroke-width:0.26930147"
         id="path2108" />
      <path
         d="m 43.660359,103.21859 h 0.334293 l 0.382049,1.75944 h -0.206106 l -0.12316,-0.51778 h -0.457454 l -0.113106,0.51778 h -0.213646 z m 0.349374,1.07074 -0.180971,-0.90485 h -0.01759 l -0.183484,0.90485 z"
         style="font-style:normal;font-variant:normal;font-weight:bold;font-stretch:normal;font-size:2.51348042px;font-family:Homenaje;-inkscape-font-specification:'Homenaje Bold';stroke-width:0.26930147"
         id="path2110" />
      <path
         d="m 44.714764,104.97803 v -1.59355 h -0.351888 v -0.16589 h 0.924961 v 0.16589 H 44.93595 v 1.59355 z"
         style="font-style:normal;font-variant:normal;font-weight:bold;font-stretch:normal;font-size:2.51348042px;font-family:Homenaje;-inkscape-font-specification:'Homenaje Bold';stroke-width:0.26930147"
         id="path2112" />
      <path
         d="m 45.522101,104.97803 v -1.75944 h 0.221187 v 1.75944 z"
         style="font-style:normal;font-variant:normal;font-weight:bold;font-stretch:normal;font-size:2.51348042px;font-family:Homenaje;-inkscape-font-specification:'Homenaje Bold';stroke-width:0.26930147"
         id="path2114" />
      <path
         d="m 46.998457,104.5432 q 0,0.21364 -0.123161,0.33429 -0.12316,0.11813 -0.359427,0.11813 -0.233754,0 -0.356914,-0.11813 -0.123161,-0.12065 -0.123161,-0.33429 v -0.88978 q 0,-0.21364 0.123161,-0.33178 0.12316,-0.12064 0.356914,-0.12064 0.236267,0 0.359427,0.12064 0.123161,0.11814 0.123161,0.33178 z m -0.741477,0.0427 q 0,0.11562 0.07289,0.18097 0.07541,0.0628 0.185998,0.0628 0.110593,0 0.185997,-0.0628 0.0754,-0.0654 0.0754,-0.18097 v -0.97523 q 0,-0.11562 -0.0754,-0.17845 -0.0754,-0.0653 -0.185997,-0.0653 -0.110593,0 -0.185998,0.0653 -0.07289,0.0628 -0.07289,0.17845 z"
         style="font-style:normal;font-variant:normal;font-weight:bold;font-stretch:normal;font-size:2.51348042px;font-family:Homenaje;-inkscape-font-specification:'Homenaje Bold';stroke-width:0.26930147"
         id="path2116" />
      <path
         d="m 48.272163,104.97803 h -0.316698 l -0.464994,-1.59858 v 1.59858 h -0.221186 v -1.75944 h 0.369481 l 0.409698,1.52066 v -1.52066 h 0.223699 z"
         style="font-style:normal;font-variant:normal;font-weight:bold;font-stretch:normal;font-size:2.51348042px;font-family:Homenaje;-inkscape-font-specification:'Homenaje Bold';stroke-width:0.26930147"
         id="path2118" />
    </g>
    <path
       style="opacity:0.981;fill:#060e08;fill-opacity:1;stroke:#ffffff;stroke-width:0.26458335;stroke-miterlimit:4;stroke-dasharray:none;stroke-opacity:1"
       d="M 49.830687,57.135567 H 83.96225 V 91.26713 H 49.830687 Z"
       id="rect4936-0-8"
       inkscape:connector-curvature="0" />
    <g
       aria-label="PAN"
       transform="scale(1.0163587,0.9839046)"
       style="font-style:normal;font-variant:normal;font-weight:bold;font-stretch:normal;font-size:3.59068608px;line-height:1.25;font-family:Homenaje;-inkscape-font-specification:'Homenaje Bold';letter-spacing:0px;word-spacing:0px;fill:#ffffff;fill-opacity:1;stroke:none;stroke-width:0.26930147"
       id="text5443-7-5-4-6-8">
      <path
         d="m 44.180204,114.72427 v 0.64206 h 0.158044 q 0.140759,0 0.217311,-0.0963 0.07902,-0.0963 0.07902,-0.24941 0,-0.29634 -0.296334,-0.29634 z m 0.671689,0.29634 q 0,0.23953 -0.130881,0.37535 -0.128411,0.13335 -0.367947,0.13335 h -0.172861 v 0.76059 h -0.217311 v -1.72861 h 0.437091 q 0.451909,0 0.451909,0.45932 z"
         style="font-style:normal;font-variant:normal;font-weight:bold;font-stretch:normal;font-size:2.46944451px;font-family:Homenaje;-inkscape-font-specification:'Homenaje Bold';stroke-width:0.26930147"
         id="path2121" />
      <path
         d="m 45.341151,114.56129 h 0.328437 l 0.375355,1.72861 h -0.202494 l -0.121003,-0.5087 h -0.449439 l -0.111125,0.5087 h -0.209903 z m 0.343253,1.05198 -0.1778,-0.889 h -0.01729 l -0.180269,0.889 z"
         style="font-style:normal;font-variant:normal;font-weight:bold;font-stretch:normal;font-size:2.46944451px;font-family:Homenaje;-inkscape-font-specification:'Homenaje Bold';stroke-width:0.26930147"
         id="path2123" />
      <path
         d="m 47.238727,116.2899 h -0.31115 l -0.456847,-1.57056 v 1.57056 h -0.217312 v -1.72861 h 0.363009 l 0.402519,1.49401 v -1.49401 h 0.219781 z"
         style="font-style:normal;font-variant:normal;font-weight:bold;font-stretch:normal;font-size:2.46944451px;font-family:Homenaje;-inkscape-font-specification:'Homenaje Bold';stroke-width:0.26930147"
         id="path2125" />
    </g>
    <g
       aria-label="Fc"
       transform="scale(1.0163587,0.9839046)"
       style="font-style:normal;font-variant:normal;font-weight:bold;font-stretch:normal;font-size:3.59068608px;line-height:1.25;font-family:Homenaje;-inkscape-font-specification:'Homenaje Bold';letter-spacing:0px;word-spacing:0px;fill:#ffffff;fill-opacity:1;stroke:none;stroke-width:0.26930147"
       id="text5443-7-5-4-6-5">
      <path
         d="m 43.962893,122.20596 v -1.72861 h 0.728486 v 0.16792 h -0.511175 v 0.59267 h 0.385233 v 0.16792 h -0.385233 v 0.8001 z"
         style="font-style:normal;font-variant:normal;font-weight:bold;font-stretch:normal;font-size:2.46944451px;font-family:Homenaje;-inkscape-font-specification:'Homenaje Bold';stroke-width:0.26930147"
         id="path2128" />
      <path
         d="m 45.458566,120.92185 v 0.14817 h -0.26917 q -0.0568,0 -0.09137,0.0395 -0.03457,0.037 -0.03457,0.0963 v 0.71614 q 0,0.0593 0.03457,0.0988 0.03704,0.037 0.09384,0.037 h 0.2667 v 0.14816 h -0.296334 q -0.135819,0 -0.217311,-0.0815 -0.07902,-0.0815 -0.07902,-0.21978 v -0.65687 q 0,-0.15558 0.08149,-0.23954 0.08149,-0.0864 0.237066,-0.0864 z"
         style="font-style:normal;font-variant:normal;font-weight:bold;font-stretch:normal;font-size:2.46944451px;font-family:Homenaje;-inkscape-font-specification:'Homenaje Bold';stroke-width:0.26930147"
         id="path2130" />
    </g>
    <g
       aria-label="Q"
       transform="scale(1.0163587,0.9839046)"
       style="font-style:normal;font-variant:normal;font-weight:bold;font-stretch:normal;font-size:3.59068608px;line-height:1.25;font-family:Homenaje;-inkscape-font-specification:'Homenaje Bold';letter-spacing:0px;word-spacing:0px;fill:#ffffff;fill-opacity:1;stroke:none;stroke-width:0.26930147"
       id="text5443-7-5-4-6-4">
      <path
         d="m 44.858595,127.57107 q 0,0.39017 -0.353131,0.43709 v 0.0494 q 0,0.10619 0.02716,0.14076 0.02963,0.037 0.09384,0.037 h 0.116064 v 0.15558 h -0.145697 q -0.13582,0 -0.214842,-0.0815 -0.07902,-0.0815 -0.07902,-0.21978 v -0.0815 q -0.350661,-0.0469 -0.350661,-0.43709 v -0.87912 q 0,-0.21237 0.111125,-0.32844 0.113594,-0.11606 0.340783,-0.11606 0.229659,0 0.340784,0.11606 0.113594,0.11607 0.113594,0.32844 z m -0.688975,0.042 q 0,0.11607 0.06421,0.1778 0.06421,0.0617 0.170391,0.0617 0.106186,0 0.170392,-0.0617 0.06667,-0.0617 0.06667,-0.1778 v -0.96308 q 0,-0.11606 -0.06667,-0.1778 -0.06421,-0.0617 -0.170392,-0.0617 -0.106186,0 -0.170391,0.0617 -0.06421,0.0617 -0.06421,0.1778 z"
         style="font-style:normal;font-variant:normal;font-weight:bold;font-stretch:normal;font-size:2.46944451px;font-family:Homenaje;-inkscape-font-specification:'Homenaje Bold';stroke-width:0.26930147"
         id="path2133" />
    </g>
    <g
       aria-label="PITCH"
       transform="scale(1.0163587,0.9839046)"
       style="font-style:normal;font-variant:normal;font-weight:bold;font-stretch:normal;font-size:3.59068608px;line-height:1.25;font-family:Homenaje;-inkscape-font-specification:'Homenaje Bold';letter-spacing:0px;word-spacing:0px;fill:#ffffff;fill-opacity:1;stroke:none;stroke-width:0.26930147"
       id="text5443-7-5-4-6-2">
      <path
         d="m 44.180204,132.47244 v 0.64206 h 0.158044 q 0.140759,0 0.217311,-0.0963 0.07902,-0.0963 0.07902,-0.24941 0,-0.29634 -0.296334,-0.29634 z m 0.671689,0.29634 q 0,0.23953 -0.130881,0.37535 -0.128411,0.13335 -0.367947,0.13335 h -0.172861 v 0.76059 h -0.217311 v -1.72861 h 0.437091 q 0.451909,0 0.451909,0.45932 z"
         style="font-style:normal;font-variant:normal;font-weight:bold;font-stretch:normal;font-size:2.46944451px;font-family:Homenaje;-inkscape-font-specification:'Homenaje Bold';stroke-width:0.26930147"
         id="path2136" />
      <path
         d="m 45.08186,134.03807 v -1.72861 h 0.217311 v 1.72861 z"
         style="font-style:normal;font-variant:normal;font-weight:bold;font-stretch:normal;font-size:2.46944451px;font-family:Homenaje;-inkscape-font-specification:'Homenaje Bold';stroke-width:0.26930147"
         id="path2138" />
      <path
         d="m 45.875478,134.03807 v -1.56563 h -0.345723 v -0.16298 h 0.908756 v 0.16298 h -0.345722 v 1.56563 z"
         style="font-style:normal;font-variant:normal;font-weight:bold;font-stretch:normal;font-size:2.46944451px;font-family:Homenaje;-inkscape-font-specification:'Homenaje Bold';stroke-width:0.26930147"
         id="path2140" />
      <path
         d="m 47.397157,133.87509 v 0.16298 h -0.330906 q -0.224719,0 -0.348191,-0.11359 -0.123472,-0.1136 -0.123472,-0.33338 v -0.83467 q 0,-0.21978 0.123472,-0.33338 0.123472,-0.11359 0.348191,-0.11359 h 0.330906 v 0.16298 h -0.330906 q -0.113594,0 -0.185208,0.0667 -0.06914,0.0642 -0.06914,0.17286 v 0.92357 q 0,0.10866 0.06914,0.17533 0.07161,0.0642 0.185208,0.0642 z"
         style="font-style:normal;font-variant:normal;font-weight:bold;font-stretch:normal;font-size:2.46944451px;font-family:Homenaje;-inkscape-font-specification:'Homenaje Bold';stroke-width:0.26930147"
         id="path2142" />
      <path
         d="m 48.337205,133.2034 h -0.491419 v 0.83467 h -0.217312 v -1.72861 h 0.217312 v 0.73096 h 0.491419 v -0.73096 h 0.217311 v 1.72861 h -0.217311 z"
         style="font-style:normal;font-variant:normal;font-weight:bold;font-stretch:normal;font-size:2.46944451px;font-family:Homenaje;-inkscape-font-specification:'Homenaje Bold';stroke-width:0.26930147"
         id="path2144" />
    </g>
    <g
       aria-label="DETUNE"
       transform="scale(1.0163587,0.9839046)"
       style="font-style:normal;font-variant:normal;font-weight:bold;font-stretch:normal;font-size:3.59068608px;line-height:1.25;font-family:Homenaje;-inkscape-font-specification:'Homenaje Bold';letter-spacing:0px;word-spacing:0px;fill:#ffffff;fill-opacity:1;stroke:none;stroke-width:0.26930147"
       id="text5443-7-5-4-6-6">
      <path
         d="m 44.182321,139.76892 h 0.209903 q 0.113594,0 0.182739,-0.0642 0.07161,-0.0667 0.07161,-0.17533 v -0.9137 q 0,-0.10865 -0.07161,-0.17286 -0.06914,-0.0667 -0.182739,-0.0667 h -0.209903 z m -0.219781,0.16792 v -1.72861 h 0.429684 q 0.224719,0 0.348191,0.1136 0.123473,0.11359 0.123473,0.33337 v 0.83467 q 0,0.21978 -0.123473,0.33338 -0.123472,0.11112 -0.348191,0.11359 z"
         style="font-style:normal;font-variant:normal;font-weight:bold;font-stretch:normal;font-size:2.46944451px;font-family:Homenaje;-inkscape-font-specification:'Homenaje Bold';stroke-width:0.26930147"
         id="path2147" />
      <path
         d="m 45.151501,139.93684 v -1.72861 h 0.75318 v 0.16792 h -0.535869 v 0.55316 h 0.434622 v 0.16792 h -0.434622 v 0.67169 h 0.560564 v 0.16792 z"
         style="font-style:normal;font-variant:normal;font-weight:bold;font-stretch:normal;font-size:2.46944451px;font-family:Homenaje;-inkscape-font-specification:'Homenaje Bold';stroke-width:0.26930147"
         id="path2149" />
      <path
         d="m 46.422609,139.93684 v -1.56562 h -0.345722 v -0.16299 h 0.908755 v 0.16299 H 46.63992 v 1.56562 z"
         style="font-style:normal;font-variant:normal;font-weight:bold;font-stretch:normal;font-size:2.46944451px;font-family:Homenaje;-inkscape-font-specification:'Homenaje Bold';stroke-width:0.26930147"
         id="path2151" />
      <path
         d="m 47.141719,138.20823 h 0.217311 v 1.34338 q 0,0.11853 0.0568,0.18027 0.05927,0.0593 0.162983,0.0593 0.103717,0 0.162984,-0.0593 0.05927,-0.0617 0.05927,-0.18027 v -1.34338 h 0.217311 v 1.3014 q 0,0.4445 -0.439561,0.4445 -0.437091,0 -0.437091,-0.4445 z"
         style="font-style:normal;font-variant:normal;font-weight:bold;font-stretch:normal;font-size:2.46944451px;font-family:Homenaje;-inkscape-font-specification:'Homenaje Bold';stroke-width:0.26930147"
         id="path2153" />
      <path
         d="m 49.271383,139.93684 h -0.31115 l -0.456847,-1.57056 v 1.57056 h -0.217311 v -1.72861 h 0.363008 l 0.402519,1.49402 v -1.49402 h 0.219781 z"
         style="font-style:normal;font-variant:normal;font-weight:bold;font-stretch:normal;font-size:2.46944451px;font-family:Homenaje;-inkscape-font-specification:'Homenaje Bold';stroke-width:0.26930147"
         id="path2155" />
      <path
         d="m 49.6129,139.93684 v -1.72861 h 0.75318 v 0.16792 h -0.535869 v 0.55316 h 0.434622 v 0.16792 h -0.434622 v 0.67169 h 0.560564 v 0.16792 z"
         style="font-style:normal;font-variant:normal;font-weight:bold;font-stretch:normal;font-size:2.46944451px;font-family:Homenaje;-inkscape-font-specification:'Homenaje Bold';stroke-width:0.26930147"
         id="path2157" />
    </g>
    <path
       inkscape:connector-curvature="0"
       d="m 42.649419,66.194873 c -0.682855,0 -1.41769,0.203322 -1.41769,0.649775 0,0.39512 0.575641,0.599683 1.181407,0.641506 v 0.36535 l 0.686932,-0.534295 -0.686932,-0.534289 v 0.348102 c -0.543505,-0.04176 -0.826984,-0.219564 -0.826984,-0.286374 0,-0.0759 0.365588,-0.295352 1.063267,-0.295352 0.69768,0 1.063268,0.219448 1.063268,0.295352 0,0.03267 -0.09327,0.130606 -0.370488,0.208991 l -0.04301,0.01209 v 0.364701 l 0.07325,-0.01812 c 0.447932,-0.110816 0.694669,-0.312423 0.694669,-0.567667 0,-0.446452 -0.734835,-0.649774 -1.417691,-0.649774 z"
       id="path24013"
       style="fill:#ffffff;fill-opacity:1;stroke-width:0.05907042" />
  </g>
</svg>
