<?xml version="1.0" encoding="UTF-8" standalone="no"?>
<svg
   xmlns:dc="http://purl.org/dc/elements/1.1/"
   xmlns:cc="http://creativecommons.org/ns#"
   xmlns:rdf="http://www.w3.org/1999/02/22-rdf-syntax-ns#"
   xmlns:svg="http://www.w3.org/2000/svg"
   xmlns="http://www.w3.org/2000/svg"
   xmlns:xlink="http://www.w3.org/1999/xlink"
   xmlns:sodipodi="http://sodipodi.sourceforge.net/DTD/sodipodi-0.dtd"
   xmlns:inkscape="http://www.inkscape.org/namespaces/inkscape"
   sodipodi:docname="PWTapBreakoutExpander.svg"
   inkscape:version="1.0 (4035a4fb49, 2020-05-01)"
   id="svg11003"
   version="1.1"
   viewBox="0 0 31.75 100.54167"
   height="380"
   width="120">
  <defs
     id="defs10997">
    <linearGradient
       id="linearGradient4047"
       inkscape:collect="always">
      <stop
         id="stop3387"
         offset="0"
         style="stop-color:#0c1622;stop-opacity:1" />
      <stop
         id="stop3388"
         offset=".3"
         style="stop-color:#161625;stop-opacity:1" />
      <stop
         id="stop3389"
         offset="1"
         style="stop-color:#081f35;stop-opacity:1" />
    </linearGradient>
    <linearGradient
       gradientTransform="matrix(0.5824096,0,0,1,14.70738,0)"
       gradientUnits="userSpaceOnUse"
       y2="50.462322"
       x2="35.219627"
       y1="158.3329"
       x1="35.418064"
       id="linearGradient4049"
       xlink:href="#linearGradient4047"
       inkscape:collect="always" />
  </defs>
  <sodipodi:namedview
     inkscape:document-rotation="0"
     showguides="false"
     units="px"
     inkscape:window-maximized="1"
     inkscape:window-y="-6"
     inkscape:window-x="-6"
     inkscape:window-height="1058"
     inkscape:window-width="1920"
     fit-margin-bottom="0"
     fit-margin-right="0"
     fit-margin-left="0"
     fit-margin-top="0"
     showgrid="false"
     inkscape:current-layer="layer1"
     inkscape:document-units="px"
     inkscape:cy="195.87134"
     inkscape:cx="110.64932"
     inkscape:zoom="2"
     inkscape:pageshadow="2"
     inkscape:pageopacity="0.0"
     borderopacity="1.0"
     bordercolor="#666666"
     pagecolor="#ffffff"
     id="base" />
  <metadata
     id="metadata11000">
    <rdf:RDF>
      <cc:Work
         rdf:about="">
        <dc:format>image/svg+xml</dc:format>
        <dc:type
           rdf:resource="http://purl.org/dc/dcmitype/StillImage" />
        <dc:title></dc:title>
      </cc:Work>
    </rdf:RDF>
  </metadata>
  <g
     transform="translate(-35.146312,-50.389004)"
     id="layer1"
     inkscape:groupmode="layer"
     inkscape:label="Layer 1">
    <g
       transform="matrix(0.57142858,0,0,1,15.02081,0.07224233)"
       id="g1644">
      <path
         inkscape:connector-curvature="0"
         id="path33493"
         d="m 35.219628,50.462323 h 55.5625 V 150.85843 h -55.5625 z m 0,0"
         style="fill:url(#linearGradient4049);fill-opacity:1;fill-rule:nonzero;stroke:none;stroke-width:0.32694858"
         inkscape:export-filename="/home/vortico/pics/tmp/LFOs.png"
         inkscape:export-xdpi="150.22649"
         inkscape:export-ydpi="150.22649" />
    </g>
    <g
       id="text5097"
       style="font-style:normal;font-weight:normal;font-size:3.52777767px;line-height:1.25;font-family:sans-serif;letter-spacing:0px;word-spacing:0px;fill:#ffffff;fill-opacity:1;stroke:none;stroke-width:0.26458332" />
    <g
       id="text373"
       style="font-style:normal;font-variant:normal;font-weight:bold;font-stretch:normal;font-size:3.52777767px;line-height:1.25;font-family:Consolas;-inkscape-font-specification:'Consolas Bold';text-align:center;letter-spacing:0px;word-spacing:0px;text-anchor:middle;fill:#ffffff;fill-opacity:1;stroke:none;stroke-width:0.26458332" />
    <g
       id="flowRoot250"
       style="font-style:normal;font-variant:normal;font-weight:bold;font-stretch:normal;font-size:13.33333302px;line-height:1.25;font-family:Consolas;-inkscape-font-specification:'Consolas Bold';text-align:center;letter-spacing:0px;word-spacing:0px;text-anchor:middle;fill:#ffffff;fill-opacity:1;stroke:none" />
    <g
       id="text308"
       style="font-style:normal;font-variant:normal;font-weight:bold;font-stretch:normal;font-size:3.52777767px;line-height:1.25;font-family:Consolas;-inkscape-font-specification:'Consolas Bold';text-align:center;letter-spacing:0px;word-spacing:0px;text-anchor:middle;fill:#ffffff;fill-opacity:1;stroke:none;stroke-width:0.26458332"
       aria-label="=+">
      <path
         inkscape:connector-curvature="0"
         id="path4330"
         style="stroke-width:0.26458332"
         d="m 156.8605,47.159573 v -0.334174 h 1.48139 v 0.334174 z m 0,0.678684 v -0.334174 h 1.48139 v 0.334174 z" />
      <path
         inkscape:connector-curvature="0"
         id="path4332"
         style="stroke-width:0.26458332"
         d="m 159.73887,47.507528 v 0.670071 h -0.38757 v -0.670071 h -0.64251 v -0.346232 h 0.64251 V 46.49467 h 0.38757 v 0.666626 h 0.64251 v 0.346232 z" />
    </g>
    <g
       id="flowRoot53665"
       style="font-style:normal;font-variant:normal;font-weight:bold;font-stretch:normal;font-size:13.33333302px;line-height:1.25;font-family:Consolas;-inkscape-font-specification:'Consolas Bold';text-align:center;letter-spacing:0px;word-spacing:0px;text-anchor:middle;fill:#ffffff;fill-opacity:1;stroke:none" />
    <g
       id="text53994"
       style="font-style:normal;font-variant:normal;font-weight:bold;font-stretch:normal;font-size:3.52777767px;line-height:1.25;font-family:Consolas;-inkscape-font-specification:'Consolas Bold';text-align:center;letter-spacing:0px;word-spacing:0px;text-anchor:middle;fill:#ffffff;fill-opacity:1;stroke:none;stroke-width:0.26458332" />
    <g
       style="font-style:normal;font-variant:normal;font-weight:normal;font-stretch:normal;font-size:3.52778px;line-height:1.25;font-family:Quarca;-inkscape-font-specification:Quarca;text-align:start;letter-spacing:0px;word-spacing:0px;text-anchor:start;fill:#dddddd;fill-opacity:1;stroke:none;stroke-width:0.264583"
       id="text3885"
       aria-label="PW TAP BREAKOUT">
      <path
         id="path15250"
         style="font-style:normal;font-variant:normal;font-weight:normal;font-stretch:normal;font-size:3.88056px;font-family:Quarca;-inkscape-font-specification:Quarca;text-align:start;text-anchor:start;fill:#dddddd;fill-opacity:1;stroke-width:0.264583"
         d="m 38.542503,52.540243 h 0.869245 c 0.34537,0 0.523876,-0.174625 0.523876,-0.519995 v -0.582084 c 0,-0.34537 -0.178506,-0.519995 -0.523876,-0.519995 h -1.090437 v 2.755198 h 0.221192 z m 0,-1.412524 h 0.838201 c 0.225072,0 0.329848,0.104775 0.329848,0.353131 v 0.496712 c 0,0.248356 -0.104776,0.353131 -0.329848,0.353131 h -0.838201 z" />
      <path
         id="path15252"
         style="font-style:normal;font-variant:normal;font-weight:normal;font-stretch:normal;font-size:3.88056px;font-family:Quarca;-inkscape-font-specification:Quarca;text-align:start;text-anchor:start;fill:#dddddd;fill-opacity:1;stroke-width:0.264583"
         d="m 41.183163,53.673367 0.496712,-2.231322 c 0.01164,-0.03881 0.01552,-0.100895 0.01552,-0.151342 0.0039,0.05045 0.01164,0.112536 0.02328,0.151342 l 0.500592,2.231322 h 0.248356 l 0.737306,-2.755198 h -0.225072 l -0.582084,2.258486 c -0.0194,0.08149 -0.03881,0.151342 -0.04657,0.228953 -0.0078,-0.07761 -0.02716,-0.151342 -0.04269,-0.232834 l -0.500592,-2.254605 h -0.221192 l -0.496712,2.254605 c -0.01552,0.08149 -0.03104,0.159103 -0.03881,0.240595 -0.01552,-0.08149 -0.03493,-0.162983 -0.05433,-0.244475 L 40.418693,50.918169 H 40.18974 l 0.741187,2.755198 z" />
      <path
         id="path15254"
         style="font-style:normal;font-variant:normal;font-weight:normal;font-stretch:normal;font-size:3.88056px;font-family:Quarca;-inkscape-font-specification:Quarca;text-align:start;text-anchor:start;fill:#dddddd;fill-opacity:1;stroke-width:0.264583"
         d="m 45.687402,51.127719 v -0.20955 h -1.633716 v 0.20955 h 0.706262 v 2.545648 h 0.225073 v -2.545648 z" />
      <path
         id="path15256"
         style="font-style:normal;font-variant:normal;font-weight:normal;font-stretch:normal;font-size:3.88056px;font-family:Quarca;-inkscape-font-specification:Quarca;text-align:start;text-anchor:start;fill:#dddddd;fill-opacity:1;stroke-width:0.264583"
         d="m 46.408641,50.918169 -0.849843,2.755198 h 0.236714 l 0.178506,-0.597607 h 1.10984 l 0.178506,0.597607 h 0.236714 l -0.845962,-2.755198 z m 0.124177,0.294923 0.488951,1.653118 h -0.985662 z" />
      <path
         id="path15258"
         style="font-style:normal;font-variant:normal;font-weight:normal;font-stretch:normal;font-size:3.88056px;font-family:Quarca;-inkscape-font-specification:Quarca;text-align:start;text-anchor:start;fill:#dddddd;fill-opacity:1;stroke-width:0.264583"
         d="m 48.054422,52.540243 h 0.869246 c 0.345369,0 0.523875,-0.174625 0.523875,-0.519995 v -0.582084 c 0,-0.34537 -0.178506,-0.519995 -0.523875,-0.519995 H 47.83323 v 2.755198 h 0.221192 z m 0,-1.412524 h 0.838201 c 0.225072,0 0.329848,0.104775 0.329848,0.353131 v 0.496712 c 0,0.248356 -0.104776,0.353131 -0.329848,0.353131 h -0.838201 z" />
      <path
         id="path15260"
         style="font-style:normal;font-variant:normal;font-weight:normal;font-stretch:normal;font-size:3.88056px;font-family:Quarca;-inkscape-font-specification:Quarca;text-align:start;text-anchor:start;fill:#dddddd;fill-opacity:1;stroke-width:0.264583"
         d="m 50.645121,53.673367 h 1.078795 c 0.41522,0 0.601487,-0.178506 0.601487,-0.535518 v -0.376414 c 0,-0.376414 -0.201789,-0.512234 -0.450145,-0.531637 0.20955,-0.04269 0.306564,-0.182386 0.306564,-0.438503 v -0.337609 c 0,-0.357011 -0.205669,-0.535517 -0.640292,-0.535517 h -0.896409 z m 0.221192,-1.334913 h 0.737306 c 0.34537,0 0.500592,0.131939 0.500592,0.434623 v 0.322086 c 0,0.248356 -0.128058,0.368653 -0.41522,0.368653 h -0.822678 z m 0,-1.210735 h 0.62477 c 0.322086,0 0.469548,0.108656 0.469548,0.376415 v 0.271639 c 0,0.221192 -0.120298,0.357011 -0.391937,0.357011 h -0.702381 z" />
      <path
         id="path15262"
         style="font-style:normal;font-variant:normal;font-weight:normal;font-stretch:normal;font-size:3.88056px;font-family:Quarca;-inkscape-font-specification:Quarca;text-align:start;text-anchor:start;fill:#dddddd;fill-opacity:1;stroke-width:0.264583"
         d="m 52.759723,53.673367 h 0.221192 v -1.10596 h 0.508353 l 0.772232,1.10596 h 0.259997 l -0.776112,-1.10596 h 0.05433 c 0.368653,0 0.547159,-0.174625 0.547159,-0.523876 v -0.601486 c 0,-0.349251 -0.178506,-0.523876 -0.547159,-0.523876 h -1.03999 z m 0.221192,-2.545648 h 0.779992 c 0.248356,0 0.360892,0.116417 0.360892,0.380295 v 0.469548 c 0,0.267758 -0.112536,0.384175 -0.360892,0.384175 h -0.779992 z" />
      <path
         id="path15264"
         style="font-style:normal;font-variant:normal;font-weight:normal;font-stretch:normal;font-size:3.88056px;font-family:Quarca;-inkscape-font-specification:Quarca;text-align:start;text-anchor:start;fill:#dddddd;fill-opacity:1;stroke-width:0.264583"
         d="m 55.042461,51.127719 h 1.24566 l 0.03104,-0.20955 h -1.497896 v 2.755198 h 1.474613 l 0.03104,-0.209551 h -1.284465 v -0.842081 h 1.043871 l 0.03104,-0.20567 h -1.074915 z" />
      <path
         id="path15266"
         style="font-style:normal;font-variant:normal;font-weight:normal;font-stretch:normal;font-size:3.88056px;font-family:Quarca;-inkscape-font-specification:Quarca;text-align:start;text-anchor:start;fill:#dddddd;fill-opacity:1;stroke-width:0.264583"
         d="m 57.345453,50.918169 -0.849843,2.755198 h 0.236715 L 56.91083,53.07576 h 1.10984 l 0.178506,0.597607 h 0.236714 l -0.845962,-2.755198 z m 0.124178,0.294923 0.48895,1.653118 h -0.985662 z" />
      <path
         id="path15268"
         style="font-style:normal;font-variant:normal;font-weight:normal;font-stretch:normal;font-size:3.88056px;font-family:Quarca;-inkscape-font-specification:Quarca;text-align:start;text-anchor:start;fill:#dddddd;fill-opacity:1;stroke-width:0.264583"
         d="m 58.991235,53.673367 v -1.319391 l 1.140885,1.319391 h 0.259998 l -1.191332,-1.377599 1.168048,-1.377599 h -0.244475 l -1.133124,1.31939 v -1.31939 h -0.221191 v 2.755198 z" />
      <path
         id="path15270"
         style="font-style:normal;font-variant:normal;font-weight:normal;font-stretch:normal;font-size:3.88056px;font-family:Quarca;-inkscape-font-specification:Quarca;text-align:start;text-anchor:start;fill:#dddddd;fill-opacity:1;stroke-width:0.264583"
         d="m 60.573533,53.137849 c 0,0.357012 0.13582,0.535518 0.531637,0.535518 h 0.737306 c 0.395817,0 0.531637,-0.178506 0.531637,-0.535518 v -1.684163 c 0,-0.357011 -0.13582,-0.535517 -0.531637,-0.535517 H 61.10517 c -0.395817,0 -0.531637,0.178506 -0.531637,0.535517 z m 0.55492,-2.01013 h 0.69074 c 0.248356,0 0.333728,0.116417 0.333728,0.360892 v 1.614313 c 0,0.244476 -0.08537,0.360892 -0.333728,0.360892 h -0.69074 c -0.244475,0 -0.333728,-0.116416 -0.333728,-0.360892 v -1.614313 c 0,-0.244475 0.08925,-0.360892 0.333728,-0.360892 z" />
      <path
         id="path15272"
         style="font-style:normal;font-variant:normal;font-weight:normal;font-stretch:normal;font-size:3.88056px;font-family:Quarca;-inkscape-font-specification:Quarca;text-align:start;text-anchor:start;fill:#dddddd;fill-opacity:1;stroke-width:0.264583"
         d="m 63.972296,53.463816 h -0.496711 c -0.267759,0 -0.384176,-0.124178 -0.384176,-0.407458 v -2.138189 h -0.221192 v 2.200277 c 0,0.368654 0.170745,0.554921 0.558801,0.554921 h 0.589845 c 0.388056,0 0.558801,-0.186267 0.558801,-0.554921 v -2.200277 h -0.225073 v 2.138189 c 0,0.28328 -0.112536,0.407458 -0.380295,0.407458 z" />
      <path
         id="path15274"
         style="font-style:normal;font-variant:normal;font-weight:normal;font-stretch:normal;font-size:3.88056px;font-family:Quarca;-inkscape-font-specification:Quarca;text-align:start;text-anchor:start;fill:#dddddd;fill-opacity:1;stroke-width:0.264583"
         d="m 66.507516,51.127719 v -0.20955 H 64.8738 v 0.20955 h 0.706262 v 2.545648 h 0.225072 v -2.545648 z" />
    </g>
    <g
       style="font-style:normal;font-variant:normal;font-weight:bold;font-stretch:normal;font-size:13.3333px;line-height:1.25;font-family:Consolas;-inkscape-font-specification:'Consolas Bold';text-align:center;letter-spacing:0px;word-spacing:0px;text-anchor:middle;fill:#000000;fill-opacity:1;stroke:none"
       id="flowRoot1015"
       transform="matrix(0.26458333,0,0,0.26458333,35.146312,50.389004)" />
    <g
       style="font-style:normal;font-variant:normal;font-weight:bold;font-stretch:normal;font-size:13.3333px;line-height:1.25;font-family:Arial;-inkscape-font-specification:'Arial Bold';text-align:center;letter-spacing:0px;word-spacing:0px;text-anchor:middle;fill:#000000;fill-opacity:1;stroke:none"
       id="flowRoot1633" />
    <g
       style="font-style:normal;font-variant:normal;font-weight:normal;font-stretch:normal;font-size:3.52778px;line-height:1.25;font-family:Quarca;-inkscape-font-specification:Quarca;letter-spacing:0px;word-spacing:0px;fill:#dddddd;fill-opacity:1;stroke:none;stroke-width:0.264583"
       id="text5443-0-6-2-2"
       aria-label="1">
      <path
         id="path15245"
         style="font-style:normal;font-variant:normal;font-weight:normal;font-stretch:normal;font-size:2.11667px;font-family:Quarca;-inkscape-font-specification:Quarca;fill:#dddddd;fill-opacity:1;stroke-width:0.264583"
         d="m 37.89163,62.295242 h 0.12065 v -1.502835 h -0.10795 l -0.196851,0.1397 v 0.127 l 0.184151,-0.13335 z" />
    </g>
    <g
       style="font-style:normal;font-variant:normal;font-weight:normal;font-stretch:normal;font-size:3.52778px;line-height:1.25;font-family:Quarca;-inkscape-font-specification:Quarca;letter-spacing:0px;word-spacing:0px;fill:#dddddd;fill-opacity:1;stroke:none;stroke-width:0.264583"
       id="text5443-0-6-2-2-9"
       aria-label="2">
      <path
         id="path15242"
         style="font-style:normal;font-variant:normal;font-weight:normal;font-stretch:normal;font-size:2.11667px;font-family:Quarca;-inkscape-font-specification:Quarca;fill:#dddddd;fill-opacity:1;stroke-width:0.264583"
         d="m 38.109647,67.737194 h -0.484718 v -0.215901 c 0,-0.105833 0.04657,-0.173567 0.135467,-0.213783 l 0.444501,-0.198967 c 0.1143,-0.0508 0.1905,-0.122767 0.1905,-0.273051 v -0.194733 c 0,-0.194734 -0.07408,-0.292101 -0.2921,-0.292101 h -0.302684 c -0.2159,0 -0.292101,0.09737 -0.292101,0.292101 v 0.150283 h 0.122767 v -0.131233 c 0,-0.133351 0.04657,-0.196851 0.182034,-0.196851 h 0.2794 c 0.133351,0 0.179917,0.0635 0.179917,0.196851 v 0.156633 c 0,0.0889 -0.02328,0.148167 -0.110067,0.186267 l -0.446617,0.198967 c -0.122767,0.05503 -0.213784,0.137584 -0.213784,0.304801 v 0.345017 h 0.618068 c 0.218017,0 0.2921,-0.09737 0.2921,-0.292101 v -0.160867 h -0.122766 v 0.141817 c 0,0.133351 -0.04657,0.196851 -0.179917,0.196851 z" />
    </g>
    <g
       style="font-style:normal;font-variant:normal;font-weight:normal;font-stretch:normal;font-size:3.52778px;line-height:1.25;font-family:Quarca;-inkscape-font-specification:Quarca;letter-spacing:0px;word-spacing:0px;fill:#dddddd;fill-opacity:1;stroke:none;stroke-width:0.264583"
       id="text5443-0-6-2-2-3"
       aria-label="7">
      <path
         id="path15239"
         style="font-style:normal;font-variant:normal;font-weight:normal;font-stretch:normal;font-size:2.11667px;font-family:Quarca;-inkscape-font-specification:Quarca;fill:#dddddd;fill-opacity:1;stroke-width:0.264583"
         d="m 37.440779,94.244208 h 0.738718 v 0.201084 c 0,0.07408 -0.0127,0.156634 -0.05503,0.224367 l -0.601134,0.963085 h 0.143934 l 0.567267,-0.912285 c 0.04445,-0.07197 0.06562,-0.154517 0.06562,-0.256117 v -0.334434 h -0.859368 z" />
    </g>
    <g
       style="font-style:normal;font-variant:normal;font-weight:normal;font-stretch:normal;font-size:3.52778px;line-height:1.25;font-family:Quarca;-inkscape-font-specification:Quarca;letter-spacing:0px;word-spacing:0px;fill:#dddddd;fill-opacity:1;stroke:none;stroke-width:0.264583"
       id="text5443-0-6-2-2-3-9"
       aria-label="13">
      <path
         id="path15234"
         style="font-style:normal;font-variant:normal;font-weight:normal;font-stretch:normal;font-size:2.11667px;font-family:Quarca;-inkscape-font-specification:Quarca;fill:#dddddd;fill-opacity:1;stroke-width:0.264583"
         d="m 37.627046,128.97025 h 0.12065 v -1.50284 h -0.10795 l -0.19685,0.1397 v 0.127 l 0.18415,-0.13335 z" />
      <path
         id="path15236"
         style="font-style:normal;font-variant:normal;font-weight:normal;font-stretch:normal;font-size:2.11667px;font-family:Quarca;-inkscape-font-specification:Quarca;fill:#dddddd;fill-opacity:1;stroke-width:0.264583"
         d="m 38.639013,128.85595 h -0.330201 c -0.13335,0 -0.179917,-0.0635 -0.179917,-0.19686 v -0.13546 h -0.122767 v 0.15451 c 0,0.19474 0.0762,0.29211 0.292101,0.29211 h 0.353484 c 0.213783,0 0.289983,-0.0974 0.289983,-0.29211 v -0.27305 c 0,-0.15028 -0.09737,-0.19685 -0.1905,-0.20531 0.06773,-0.0127 0.127,-0.0656 0.127,-0.17569 v -0.27093 c 0,-0.1905 -0.07408,-0.28575 -0.28575,-0.28575 h -0.251884 c -0.2159,0 -0.2921,0.0974 -0.2921,0.2921 v 0.15028 h 0.122767 v -0.13123 c 0,-0.13335 0.04657,-0.19685 0.179917,-0.19685 h 0.224367 c 0.131233,0 0.179916,0.0635 0.179916,0.19685 v 0.2159 c 0,0.0931 -0.04657,0.1524 -0.1524,0.1524 h -0.31115 v 0.1143 h 0.345017 c 0.09313,0 0.182034,0.0466 0.182034,0.1651 v 0.23283 c 0,0.13336 -0.04657,0.19686 -0.179917,0.19686 z" />
    </g>
    <g
       style="font-style:normal;font-variant:normal;font-weight:normal;font-stretch:normal;font-size:3.52778px;line-height:1.25;font-family:Quarca;-inkscape-font-specification:Quarca;letter-spacing:0px;word-spacing:0px;fill:#dddddd;fill-opacity:1;stroke:none;stroke-width:0.264583"
       id="text5443-0-6-2-2-9-1"
       aria-label="3">
      <path
         id="path15231"
         style="font-style:normal;font-variant:normal;font-weight:normal;font-stretch:normal;font-size:2.11667px;font-family:Quarca;-inkscape-font-specification:Quarca;fill:#dddddd;fill-opacity:1;stroke-width:0.264583"
         d="m 38.118113,73.293445 h -0.3302 c -0.13335,0 -0.179917,-0.0635 -0.179917,-0.19685 v -0.135467 h -0.122767 v 0.154517 c 0,0.194734 0.0762,0.2921 0.292101,0.2921 h 0.353483 c 0.213784,0 0.289984,-0.09737 0.289984,-0.2921 v -0.273051 c 0,-0.150283 -0.09737,-0.19685 -0.1905,-0.205316 0.06773,-0.0127 0.127,-0.06562 0.127,-0.175684 V 72.19066 c 0,-0.1905 -0.07408,-0.28575 -0.28575,-0.28575 h -0.251884 c -0.2159,0 -0.292101,0.09737 -0.292101,0.2921 v 0.150284 h 0.122767 V 72.21606 c 0,-0.13335 0.04657,-0.19685 0.179917,-0.19685 h 0.224367 c 0.131234,0 0.179917,0.0635 0.179917,0.19685 v 0.215901 c 0,0.09313 -0.04657,0.1524 -0.1524,0.1524 h -0.31115 v 0.1143 h 0.345017 c 0.09313,0 0.182033,0.04657 0.182033,0.1651 v 0.232834 c 0,0.13335 -0.04657,0.19685 -0.179917,0.19685 z" />
    </g>
    <g
       style="font-style:normal;font-variant:normal;font-weight:normal;font-stretch:normal;font-size:3.52778px;line-height:1.25;font-family:Quarca;-inkscape-font-specification:Quarca;letter-spacing:0px;word-spacing:0px;fill:#dddddd;fill-opacity:1;stroke:none;stroke-width:0.264583"
       id="text5443-0-6-2-2-9-5"
       aria-label="4">
      <path
         id="path15228"
         style="font-style:normal;font-variant:normal;font-weight:normal;font-stretch:normal;font-size:2.11667px;font-family:Quarca;-inkscape-font-specification:Quarca;fill:#dddddd;fill-opacity:1;stroke-width:0.264583"
         d="m 37.468296,78.680363 h 0.687917 v 0.283634 h 0.120651 v -0.283634 h 0.2159 l 0.01693,-0.1143 h -0.232833 v -0.427567 h -0.02752 l -0.09313,0.02328 v 0.404284 h -0.567267 v -0.23495 c 0,-0.0635 0.01905,-0.127001 0.07197,-0.188384 l 0.590551,-0.681568 h -0.148167 l -0.550334,0.630768 c -0.0508,0.05715 -0.08467,0.135467 -0.08467,0.226484 z" />
    </g>
    <g
       style="font-style:normal;font-variant:normal;font-weight:normal;font-stretch:normal;font-size:3.52778px;line-height:1.25;font-family:Quarca;-inkscape-font-specification:Quarca;letter-spacing:0px;word-spacing:0px;fill:#dddddd;fill-opacity:1;stroke:none;stroke-width:0.264583"
       id="text5443-0-6-2-2-9-3"
       aria-label="5">
      <path
         id="path15225"
         style="font-style:normal;font-variant:normal;font-weight:normal;font-stretch:normal;font-size:2.11667px;font-family:Quarca;-inkscape-font-specification:Quarca;fill:#dddddd;fill-opacity:1;stroke-width:0.264583"
         d="m 38.07578,84.391132 h -0.2794 c -0.133351,0 -0.182034,-0.0635 -0.182034,-0.19685 v -0.141817 h -0.12065 v 0.160867 c 0,0.194733 0.07408,0.2921 0.289984,0.2921 h 0.3048 c 0.2159,0 0.289984,-0.09737 0.289984,-0.2921 v -0.340784 c 0,-0.192617 -0.09102,-0.285751 -0.285751,-0.285751 h -0.433917 v -0.4699 h 0.683684 l 0.01693,-0.1143 h -0.823385 v 0.698501 h 0.533401 c 0.131234,0 0.188384,0.06562 0.188384,0.20955 v 0.283634 c 0,0.13335 -0.04868,0.19685 -0.182034,0.19685 z" />
    </g>
    <g
       style="font-style:normal;font-variant:normal;font-weight:normal;font-stretch:normal;font-size:3.52778px;line-height:1.25;font-family:Quarca;-inkscape-font-specification:Quarca;letter-spacing:0px;word-spacing:0px;fill:#dddddd;fill-opacity:1;stroke:none;stroke-width:0.264583"
       id="text5443-0-6-2-2-9-0"
       aria-label="6">
      <path
         id="path15222"
         style="font-style:normal;font-variant:normal;font-weight:normal;font-stretch:normal;font-size:2.11667px;font-family:Quarca;-inkscape-font-specification:Quarca;fill:#dddddd;fill-opacity:1;stroke-width:0.264583"
         d="m 38.452547,89.445733 c 0,-0.177801 -0.08043,-0.264584 -0.256117,-0.264584 h -0.518584 v -0.315384 c 0,-0.135467 0.05292,-0.192617 0.1778,-0.192617 h 0.292101 c 0.135467,0 0.18415,0.05927 0.18415,0.194734 v 0.13335 h 0.12065 v -0.156634 c 0,-0.2159 -0.09525,-0.28575 -0.28575,-0.28575 h -0.323851 c -0.2159,0 -0.287867,0.09525 -0.287867,0.28575 V 89.7844 c 0,0.1778 0.07197,0.277284 0.287867,0.277284 h 0.338667 c 0.190501,0 0.270934,-0.09313 0.270934,-0.277284 z m -0.12065,0.03387 v 0.275168 c 0,0.135466 -0.05292,0.192616 -0.1778,0.192616 h -0.302684 c -0.122767,0 -0.173567,-0.06562 -0.173567,-0.1905 v -0.463551 h 0.484717 c 0.116417,0 0.169334,0.0635 0.169334,0.186267 z" />
    </g>
    <g
       style="font-style:normal;font-variant:normal;font-weight:normal;font-stretch:normal;font-size:3.52778px;line-height:1.25;font-family:Quarca;-inkscape-font-specification:Quarca;letter-spacing:0px;word-spacing:0px;fill:#dddddd;fill-opacity:1;stroke:none;stroke-width:0.264583"
       id="text5443-0-6-2-2-3-0"
       aria-label="8">
      <path
         id="path15219"
         style="font-style:normal;font-variant:normal;font-weight:normal;font-stretch:normal;font-size:2.11667px;font-family:Quarca;-inkscape-font-specification:Quarca;fill:#dddddd;fill-opacity:1;stroke-width:0.264583"
         d="m 37.709596,100.38467 c -0.08255,0.0169 -0.175684,0.0593 -0.175684,0.22436 v 0.27517 c 0,0.19473 0.07408,0.2921 0.289984,0.2921 h 0.359834 c 0.2159,0 0.289983,-0.0974 0.289983,-0.2921 v -0.27517 c 0,-0.1651 -0.0889,-0.20743 -0.160866,-0.22436 0.07408,-0.0233 0.09737,-0.0804 0.09737,-0.18839 v -0.230715 c 0,-0.194734 -0.07408,-0.292101 -0.289983,-0.292101 h -0.232834 c -0.2159,0 -0.289984,0.09737 -0.289984,0.292101 v 0.230715 c 0,0.10795 0.02752,0.1651 0.112184,0.18839 z m 0.459317,0.0614 c 0.09737,0 0.18415,0.0339 0.18415,0.1651 v 0.254 c 0,0.13335 -0.04868,0.19685 -0.182033,0.19685 h -0.334434 c -0.13335,0 -0.182034,-0.0635 -0.182034,-0.19685 v -0.254 c 0,-0.13547 0.0889,-0.1651 0.18415,-0.1651 z m -0.268817,-0.658285 h 0.207434 c 0.13335,0 0.182033,0.0635 0.182033,0.19685 v 0.194735 c 0,0.127 -0.05927,0.1524 -0.192617,0.1524 h -0.18415 c -0.13335,0 -0.194734,-0.0254 -0.194734,-0.1524 v -0.194735 c 0,-0.13335 0.04868,-0.19685 0.182034,-0.19685 z" />
    </g>
    <g
       style="font-style:normal;font-variant:normal;font-weight:normal;font-stretch:normal;font-size:3.52778px;line-height:1.25;font-family:Quarca;-inkscape-font-specification:Quarca;letter-spacing:0px;word-spacing:0px;fill:#dddddd;fill-opacity:1;stroke:none;stroke-width:0.264583"
       id="text5443-0-6-2-2-3-5"
       aria-label="9">
      <path
         id="path15216"
         style="font-style:normal;font-variant:normal;font-weight:normal;font-stretch:normal;font-size:2.11667px;font-family:Quarca;-inkscape-font-specification:Quarca;fill:#dddddd;fill-opacity:1;stroke-width:0.264583"
         d="m 38.069429,106.63094 h -0.258233 c -0.131234,0 -0.177801,-0.0635 -0.177801,-0.19685 v -0.13547 h -0.122766 v 0.15452 c 0,0.19473 0.0762,0.2921 0.2921,0.2921 h 0.279401 c 0.2159,0 0.289983,-0.0974 0.289983,-0.2921 v -0.91864 c 0,-0.19473 -0.07408,-0.2921 -0.289983,-0.2921 h -0.279401 c -0.2159,0 -0.2921,0.0974 -0.2921,0.2921 v 0.25612 c 0,0.18627 0.06773,0.2794 0.2667,0.2794 h 0.474134 v 0.36407 c 0,0.13335 -0.04657,0.19685 -0.182034,0.19685 z m 0,-1.27424 c 0.135467,0 0.182034,0.0635 0.182034,0.19685 v 0.40217 h -0.440267 c -0.131234,0 -0.177801,-0.0635 -0.177801,-0.19897 v -0.2032 c 0,-0.13335 0.04657,-0.19685 0.179917,-0.19685 z" />
    </g>
    <g
       style="font-style:normal;font-variant:normal;font-weight:normal;font-stretch:normal;font-size:3.52778px;line-height:1.25;font-family:Quarca;-inkscape-font-specification:Quarca;letter-spacing:0px;word-spacing:0px;fill:#dddddd;fill-opacity:1;stroke:none;stroke-width:0.264583"
       id="text5443-0-6-2-2-3-6"
       aria-label="12">
      <path
         id="path15211"
         style="font-style:normal;font-variant:normal;font-weight:normal;font-stretch:normal;font-size:2.11667px;font-family:Quarca;-inkscape-font-specification:Quarca;fill:#dddddd;fill-opacity:1;stroke-width:0.264583"
         d="m 37.627046,123.414 h 0.12065 v -1.50283 h -0.10795 l -0.19685,0.1397 v 0.127 l 0.18415,-0.13335 z" />
      <path
         id="path15213"
         style="font-style:normal;font-variant:normal;font-weight:normal;font-stretch:normal;font-size:2.11667px;font-family:Quarca;-inkscape-font-specification:Quarca;fill:#dddddd;fill-opacity:1;stroke-width:0.264583"
         d="m 38.630546,123.2997 h -0.484717 v -0.2159 c 0,-0.10583 0.04657,-0.17357 0.135466,-0.21378 l 0.444501,-0.19897 c 0.1143,-0.0508 0.1905,-0.12277 0.1905,-0.27305 v -0.19473 c 0,-0.19474 -0.07408,-0.2921 -0.2921,-0.2921 h -0.302684 c -0.2159,0 -0.2921,0.0974 -0.2921,0.2921 v 0.15028 h 0.122767 v -0.13123 c 0,-0.13335 0.04657,-0.19685 0.182033,-0.19685 h 0.279401 c 0.13335,0 0.179917,0.0635 0.179917,0.19685 v 0.15663 c 0,0.0889 -0.02328,0.14817 -0.110067,0.18627 l -0.446618,0.19896 c -0.122767,0.055 -0.213783,0.13759 -0.213783,0.3048 v 0.34502 h 0.618067 c 0.218017,0 0.292101,-0.0974 0.292101,-0.2921 v -0.16087 h -0.122767 v 0.14182 c 0,0.13335 -0.04657,0.19685 -0.179917,0.19685 z" />
    </g>
    <g
       style="font-style:normal;font-variant:normal;font-weight:normal;font-stretch:normal;font-size:3.52778px;line-height:1.25;font-family:Quarca;-inkscape-font-specification:Quarca;letter-spacing:0px;word-spacing:0px;fill:#dddddd;fill-opacity:1;stroke:none;stroke-width:0.264583"
       id="text5443-0-6-2-2-3-7"
       aria-label="11">
      <path
         id="path15206"
         style="font-style:normal;font-variant:normal;font-weight:normal;font-stretch:normal;font-size:2.11667px;font-family:Quarca;-inkscape-font-specification:Quarca;fill:#dddddd;fill-opacity:1;stroke-width:0.264583"
         d="m 37.627046,117.85775 h 0.12065 v -1.50284 h -0.10795 l -0.19685,0.1397 v 0.127 l 0.18415,-0.13335 z" />
      <path
         id="path15208"
         style="font-style:normal;font-variant:normal;font-weight:normal;font-stretch:normal;font-size:2.11667px;font-family:Quarca;-inkscape-font-specification:Quarca;fill:#dddddd;fill-opacity:1;stroke-width:0.264583"
         d="m 38.147945,117.85775 h 0.12065 v -1.50284 h -0.10795 l -0.19685,0.1397 v 0.127 l 0.18415,-0.13335 z" />
    </g>
    <g
       style="font-style:normal;font-variant:normal;font-weight:normal;font-stretch:normal;font-size:3.52778px;line-height:1.25;font-family:Quarca;-inkscape-font-specification:Quarca;letter-spacing:0px;word-spacing:0px;fill:#dddddd;fill-opacity:1;stroke:none;stroke-width:0.264583"
       id="text5443-0-6-2-2-3-73"
       aria-label="10">
      <path
         id="path15201"
         style="font-style:normal;font-variant:normal;font-weight:normal;font-stretch:normal;font-size:2.11667px;font-family:Quarca;-inkscape-font-specification:Quarca;fill:#dddddd;fill-opacity:1;stroke-width:0.264583"
         d="m 37.627046,112.28667 h 0.12065 v -1.50284 h -0.10795 l -0.19685,0.1397 v 0.127 l 0.18415,-0.13335 z" />
      <path
         id="path15203"
         style="font-style:normal;font-variant:normal;font-weight:normal;font-stretch:normal;font-size:2.11667px;font-family:Quarca;-inkscape-font-specification:Quarca;fill:#dddddd;fill-opacity:1;stroke-width:0.264583"
         d="m 38.075978,111.99457 c 0,0.19473 0.07408,0.2921 0.292101,0.2921 h 0.345017 c 0.2159,0 0.289984,-0.0974 0.289984,-0.2921 v -0.91864 c 0,-0.19473 -0.07408,-0.2921 -0.289984,-0.2921 h -0.345017 c -0.218017,0 -0.292101,0.0974 -0.292101,0.2921 z m 0.302684,-1.09644 h 0.321734 c 0.13335,0 0.182034,0.0635 0.182034,0.19685 v 0.88054 c 0,0.13335 -0.04868,0.19685 -0.182034,0.19685 h -0.321734 c -0.13335,0 -0.179917,-0.0635 -0.179917,-0.19685 v -0.88054 c 0,-0.13335 0.04657,-0.19685 0.179917,-0.19685 z" />
    </g>
    <g
       style="font-style:normal;font-variant:normal;font-weight:normal;font-stretch:normal;font-size:3.52778px;line-height:1.25;font-family:Quarca;-inkscape-font-specification:Quarca;letter-spacing:0px;word-spacing:0px;fill:#dddddd;fill-opacity:1;stroke:none;stroke-width:0.264583"
       id="text5443-0-6-2-2-3-9-2"
       aria-label="14">
      <path
         id="path15196"
         style="font-style:normal;font-variant:normal;font-weight:normal;font-stretch:normal;font-size:2.11667px;font-family:Quarca;-inkscape-font-specification:Quarca;fill:#dddddd;fill-opacity:1;stroke-width:0.264583"
         d="m 37.627046,134.5265 h 0.12065 v -1.50283 h -0.10795 l -0.19685,0.1397 v 0.127 l 0.18415,-0.13335 z" />
      <path
         id="path15198"
         style="font-style:normal;font-variant:normal;font-weight:normal;font-stretch:normal;font-size:2.11667px;font-family:Quarca;-inkscape-font-specification:Quarca;fill:#dddddd;fill-opacity:1;stroke-width:0.264583"
         d="m 37.989195,134.24287 h 0.687918 v 0.28363 h 0.12065 v -0.28363 h 0.2159 l 0.01693,-0.1143 H 38.797763 V 133.701 h -0.02752 l -0.09313,0.0233 v 0.40428 h -0.567268 v -0.23495 c 0,-0.0635 0.01905,-0.127 0.07197,-0.18838 l 0.590551,-0.68157 h -0.148167 l -0.550334,0.63077 c -0.0508,0.0572 -0.08467,0.13546 -0.08467,0.22648 z" />
    </g>
    <g
       style="font-style:normal;font-variant:normal;font-weight:normal;font-stretch:normal;font-size:3.52778px;line-height:1.25;font-family:Quarca;-inkscape-font-specification:Quarca;letter-spacing:0px;word-spacing:0px;fill:#dddddd;fill-opacity:1;stroke:none;stroke-width:0.264583"
       id="text5443-0-6-2-2-3-9-5"
       aria-label="15 ">
      <path
         id="path15191"
         style="font-style:normal;font-variant:normal;font-weight:normal;font-stretch:normal;font-size:2.11667px;font-family:Quarca;-inkscape-font-specification:Quarca;fill:#dddddd;fill-opacity:1;stroke-width:0.264583"
         d="m 37.627046,140.06793 h 0.12065 v -1.50283 h -0.10795 l -0.19685,0.1397 v 0.127 l 0.18415,-0.13335 z" />
      <path
         id="path15193"
         style="font-style:normal;font-variant:normal;font-weight:normal;font-stretch:normal;font-size:2.11667px;font-family:Quarca;-inkscape-font-specification:Quarca;fill:#dddddd;fill-opacity:1;stroke-width:0.264583"
         d="m 38.596679,139.95363 h -0.2794 c -0.13335,0 -0.182034,-0.0635 -0.182034,-0.19685 v -0.14182 h -0.12065 v 0.16087 c 0,0.19474 0.07408,0.2921 0.289984,0.2921 h 0.3048 c 0.215901,0 0.289984,-0.0974 0.289984,-0.2921 v -0.34078 c 0,-0.19262 -0.09102,-0.28575 -0.28575,-0.28575 h -0.433918 v -0.4699 h 0.683685 l 0.01693,-0.1143 h -0.823385 v 0.6985 h 0.533401 c 0.131234,0 0.188384,0.0656 0.188384,0.20955 v 0.28363 c 0,0.13335 -0.04868,0.19685 -0.182034,0.19685 z" />
    </g>
    <g
       style="font-style:normal;font-variant:normal;font-weight:normal;font-stretch:normal;font-size:3.52778px;line-height:1.25;font-family:Quarca;-inkscape-font-specification:Quarca;letter-spacing:0px;word-spacing:0px;fill:#dddddd;fill-opacity:1;stroke:none;stroke-width:0.264583"
       id="text5443-0-6-2-2-3-9-24"
       aria-label="16">
      <path
         id="path15186"
         style="font-style:normal;font-variant:normal;font-weight:normal;font-stretch:normal;font-size:2.11667px;font-family:Quarca;-inkscape-font-specification:Quarca;fill:#dddddd;fill-opacity:1;stroke-width:0.264583"
         d="m 37.627046,145.62419 h 0.12065 v -1.50283 h -0.10795 l -0.19685,0.1397 v 0.127 l 0.18415,-0.13335 z" />
      <path
         id="path15188"
         style="font-style:normal;font-variant:normal;font-weight:normal;font-stretch:normal;font-size:2.11667px;font-family:Quarca;-inkscape-font-specification:Quarca;fill:#dddddd;fill-opacity:1;stroke-width:0.264583"
         d="m 38.973446,145.00824 c 0,-0.1778 -0.08043,-0.26458 -0.256117,-0.26458 h -0.518584 v -0.31539 c 0,-0.13546 0.05292,-0.19261 0.177801,-0.19261 h 0.2921 c 0.135467,0 0.18415,0.0593 0.18415,0.19473 v 0.13335 h 0.12065 v -0.15663 c 0,-0.2159 -0.09525,-0.28575 -0.28575,-0.28575 h -0.32385 c -0.215901,0 -0.287868,0.0952 -0.287868,0.28575 v 0.9398 c 0,0.1778 0.07197,0.27728 0.287868,0.27728 h 0.338667 c 0.1905,0 0.270933,-0.0931 0.270933,-0.27728 z m -0.12065,0.0339 v 0.27516 c 0,0.13547 -0.05292,0.19262 -0.1778,0.19262 h -0.302684 c -0.122767,0 -0.173567,-0.0656 -0.173567,-0.1905 v -0.46355 h 0.484718 c 0.116417,0 0.169333,0.0635 0.169333,0.18627 z" />
    </g>
    <g
       style="font-style:normal;font-variant:normal;font-weight:normal;font-stretch:normal;font-size:3.52778px;line-height:1.25;font-family:Quarca;-inkscape-font-specification:Quarca;text-align:start;letter-spacing:0px;word-spacing:0px;text-anchor:start;fill:#dddddd;fill-opacity:1;stroke:none;stroke-width:0.264583"
       id="text3885-9"
       aria-label="TAP">
      <path
         id="path15179"
         style="font-style:normal;font-variant:normal;font-weight:normal;font-stretch:normal;font-size:2.82222px;font-family:Quarca;-inkscape-font-specification:Quarca;text-align:start;text-anchor:start;fill:#dddddd;fill-opacity:1;stroke-width:0.264583"
         d="m 37.441634,56.475127 v -0.1524 h -1.188155 v 0.1524 h 0.513644 v 1.851377 h 0.163689 v -1.851377 z" />
      <path
         id="path15181"
         style="font-style:normal;font-variant:normal;font-weight:normal;font-stretch:normal;font-size:2.82222px;font-family:Quarca;-inkscape-font-specification:Quarca;text-align:start;text-anchor:start;fill:#dddddd;fill-opacity:1;stroke-width:0.264583"
         d="m 37.96617,56.322727 -0.618066,2.003777 h 0.172155 l 0.129823,-0.434622 h 0.807154 l 0.129823,0.434622 h 0.172155 L 38.14397,56.322727 Z m 0.09031,0.214489 0.3556,1.202266 h -0.716844 z" />
      <path
         id="path15183"
         style="font-style:normal;font-variant:normal;font-weight:normal;font-stretch:normal;font-size:2.82222px;font-family:Quarca;-inkscape-font-specification:Quarca;text-align:start;text-anchor:start;fill:#dddddd;fill-opacity:1;stroke-width:0.264583"
         d="m 39.1631,57.502415 h 0.632178 c 0.251177,0 0.380999,-0.126999 0.380999,-0.378177 v -0.423333 c 0,-0.251178 -0.129822,-0.378178 -0.380999,-0.378178 h -0.793044 v 2.003777 H 39.1631 Z m 0,-1.027288 h 0.6096 c 0.163689,0 0.239888,0.0762 0.239888,0.256822 v 0.361245 c 0,0.180622 -0.0762,0.256822 -0.239888,0.256822 h -0.6096 z" />
    </g>
    <g
       style="font-style:normal;font-variant:normal;font-weight:normal;font-stretch:normal;font-size:3.52778px;line-height:1.25;font-family:Quarca;-inkscape-font-specification:Quarca;text-align:start;letter-spacing:0px;word-spacing:0px;text-anchor:start;fill:#dddddd;fill-opacity:1;stroke:none;stroke-width:0.264583"
       id="text3885-9-3"
       aria-label="SEND">
      <path
         id="path15170"
         style="font-style:normal;font-variant:normal;font-weight:normal;font-stretch:normal;font-size:2.82222px;font-family:Quarca;-inkscape-font-specification:Quarca;text-align:start;text-anchor:start;fill:#dddddd;fill-opacity:1;stroke-width:0.264583"
         d="m 43.930478,57.493949 c 0.141111,0.05927 0.1778,0.107244 0.1778,0.245533 v 0.194733 c 0,0.169333 -0.07056,0.239889 -0.231423,0.239889 H 43.4507 c -0.160866,0 -0.234244,-0.07056 -0.234244,-0.239889 v -0.211666 h -0.160867 v 0.251177 c 0,0.234245 0.110067,0.352778 0.369711,0.352778 h 0.496711 c 0.234244,0 0.349955,-0.118533 0.349955,-0.352778 v -0.276577 c 0,-0.200378 -0.0762,-0.270933 -0.282222,-0.361244 l -0.578555,-0.245534 c -0.132644,-0.05644 -0.166511,-0.110066 -0.166511,-0.234244 v -0.124178 c 0,-0.191911 0.06209,-0.256822 0.242711,-0.256822 h 0.352778 c 0.160866,0 0.239888,0.07338 0.239888,0.248356 v 0.189088 h 0.163689 v -0.228599 c 0,-0.254 -0.121355,-0.361245 -0.381,-0.361245 h -0.417688 c -0.248356,0 -0.361244,0.110067 -0.361244,0.361245 v 0.197555 c 0,0.2032 0.06773,0.276578 0.279399,0.369711 z" />
      <path
         id="path15172"
         style="font-style:normal;font-variant:normal;font-weight:normal;font-stretch:normal;font-size:2.82222px;font-family:Quarca;-inkscape-font-specification:Quarca;text-align:start;text-anchor:start;fill:#dddddd;fill-opacity:1;stroke-width:0.264583"
         d="m 44.753111,56.475127 h 0.905932 l 0.02258,-0.1524 h -1.089377 v 2.003777 h 1.072444 l 0.02258,-0.1524 h -0.934155 v -0.612422 h 0.759177 l 0.02258,-0.149578 h -0.781755 z" />
      <path
         id="path15174"
         style="font-style:normal;font-variant:normal;font-weight:normal;font-stretch:normal;font-size:2.82222px;font-family:Quarca;-inkscape-font-specification:Quarca;text-align:start;text-anchor:start;fill:#dddddd;fill-opacity:1;stroke-width:0.264583"
         d="m 46.109099,58.326504 v -1.724377 c 0.04233,0.09313 0.07902,0.186267 0.146756,0.301978 l 0.824088,1.422399 h 0.163689 v -2.003777 h -0.163689 v 1.721555 c -0.03104,-0.07338 -0.05927,-0.143933 -0.112889,-0.237067 l -0.857955,-1.484488 h -0.160866 v 2.003777 z" />
      <path
         id="path15176"
         style="font-style:normal;font-variant:normal;font-weight:normal;font-stretch:normal;font-size:2.82222px;font-family:Quarca;-inkscape-font-specification:Quarca;text-align:start;text-anchor:start;fill:#dddddd;fill-opacity:1;stroke-width:0.264583"
         d="m 47.623926,58.326504 h 0.784577 c 0.352778,0 0.496711,-0.155222 0.496711,-0.474133 V 56.79686 c 0,-0.31891 -0.143933,-0.474133 -0.496711,-0.474133 h -0.784577 z m 0.776111,-0.1524 h -0.615244 v -1.698977 h 0.615244 c 0.245533,0 0.34431,0.110067 0.34431,0.3556 v 0.987777 c 0,0.245533 -0.09878,0.3556 -0.34431,0.3556 z" />
    </g>
    <g
       style="font-style:normal;font-variant:normal;font-weight:normal;font-stretch:normal;font-size:3.52778px;line-height:1.25;font-family:Quarca;-inkscape-font-specification:Quarca;text-align:start;letter-spacing:0px;word-spacing:0px;text-anchor:start;fill:#dddddd;fill-opacity:1;stroke:none;stroke-width:0.264583"
       id="text3885-9-3-0"
       aria-label="RETURN">
      <path
         id="path15157"
         style="font-style:normal;font-variant:normal;font-weight:normal;font-stretch:normal;font-size:2.82222px;font-family:Quarca;-inkscape-font-specification:Quarca;text-align:start;text-anchor:start;fill:#dddddd;fill-opacity:1;stroke-width:0.264583"
         d="m 55.766878,58.326504 h 0.160867 v -0.804333 h 0.36971 l 0.561622,0.804333 h 0.189089 l -0.564444,-0.804333 h 0.03951 c 0.268111,0 0.397933,-0.127 0.397933,-0.381 v -0.437444 c 0,-0.254 -0.129822,-0.381 -0.397933,-0.381 h -0.756355 z m 0.160867,-1.851377 h 0.567266 c 0.180622,0 0.262466,0.08467 0.262466,0.276578 v 0.341489 c 0,0.194733 -0.08184,0.279399 -0.262466,0.279399 h -0.567266 z" />
      <path
         id="path15159"
         style="font-style:normal;font-variant:normal;font-weight:normal;font-stretch:normal;font-size:2.82222px;font-family:Quarca;-inkscape-font-specification:Quarca;text-align:start;text-anchor:start;fill:#dddddd;fill-opacity:1;stroke-width:0.264583"
         d="m 57.427049,56.475127 h 0.905933 l 0.02258,-0.1524 h -1.089377 v 2.003777 h 1.072444 l 0.02258,-0.1524 h -0.934155 v -0.612422 h 0.759177 l 0.02258,-0.149578 h -0.781755 z" />
      <path
         id="path15161"
         style="font-style:normal;font-variant:normal;font-weight:normal;font-stretch:normal;font-size:2.82222px;font-family:Quarca;-inkscape-font-specification:Quarca;text-align:start;text-anchor:start;fill:#dddddd;fill-opacity:1;stroke-width:0.264583"
         d="m 59.652281,56.475127 v -0.1524 h -1.188154 v 0.1524 h 0.513644 v 1.851377 h 0.163688 v -1.851377 z" />
      <path
         id="path15163"
         style="font-style:normal;font-variant:normal;font-weight:normal;font-stretch:normal;font-size:2.82222px;font-family:Quarca;-inkscape-font-specification:Quarca;text-align:start;text-anchor:start;fill:#dddddd;fill-opacity:1;stroke-width:0.264583"
         d="m 60.669295,58.174104 h -0.361244 c -0.194734,0 -0.2794,-0.09031 -0.2794,-0.296333 v -1.555044 h -0.160867 v 1.600199 c 0,0.268111 0.124178,0.403578 0.4064,0.403578 h 0.428977 c 0.282222,0 0.4064,-0.135467 0.4064,-0.403578 v -1.600199 h -0.163689 v 1.555044 c 0,0.206022 -0.08184,0.296333 -0.276577,0.296333 z" />
      <path
         id="path15165"
         style="font-style:normal;font-variant:normal;font-weight:normal;font-stretch:normal;font-size:2.82222px;font-family:Quarca;-inkscape-font-specification:Quarca;text-align:start;text-anchor:start;fill:#dddddd;fill-opacity:1;stroke-width:0.264583"
         d="m 61.482976,58.326504 h 0.160866 v -0.804333 h 0.369711 l 0.561622,0.804333 h 0.189089 L 62.19982,57.522171 h 0.03951 c 0.268111,0 0.397933,-0.127 0.397933,-0.381 v -0.437444 c 0,-0.254 -0.129822,-0.381 -0.397933,-0.381 h -0.756355 z m 0.160866,-1.851377 h 0.567267 c 0.180622,0 0.262466,0.08467 0.262466,0.276578 v 0.341489 c 0,0.194733 -0.08184,0.279399 -0.262466,0.279399 h -0.567267 z" />
      <path
         id="path15167"
         style="font-style:normal;font-variant:normal;font-weight:normal;font-stretch:normal;font-size:2.82222px;font-family:Quarca;-inkscape-font-specification:Quarca;text-align:start;text-anchor:start;fill:#dddddd;fill-opacity:1;stroke-width:0.264583"
         d="m 63.143147,58.326504 v -1.724377 c 0.04233,0.09313 0.07902,0.186267 0.146756,0.301978 l 0.824088,1.422399 h 0.163689 v -2.003777 h -0.163689 v 1.721555 c -0.03104,-0.07338 -0.05927,-0.143933 -0.112889,-0.237067 l -0.857955,-1.484488 h -0.160866 v 2.003777 z" />
    </g>
  </g>
</svg>
