<?xml version="1.0" encoding="UTF-8" standalone="no"?>
<svg
   xmlns:dc="http://purl.org/dc/elements/1.1/"
   xmlns:cc="http://creativecommons.org/ns#"
   xmlns:rdf="http://www.w3.org/1999/02/22-rdf-syntax-ns#"
   xmlns:svg="http://www.w3.org/2000/svg"
   xmlns="http://www.w3.org/2000/svg"
   xmlns:xlink="http://www.w3.org/1999/xlink"
   xmlns:sodipodi="http://sodipodi.sourceforge.net/DTD/sodipodi-0.dtd"
   xmlns:inkscape="http://www.inkscape.org/namespaces/inkscape"
   width="225"
   height="380"
   viewBox="0 0 59.53125 100.54167"
   version="1.1"
   id="svg11003"
   inkscape:version="1.0 (4035a4fb49, 2020-05-01)"
   sodipodi:docname="QARGrooveExpander.svg">
  <defs
     id="defs10997">
    <linearGradient
       inkscape:collect="always"
       id="linearGradient4047">
      <stop
         style="stop-color:#0c1622;stop-opacity:1"
         offset="0"
         id="stop3387" />
      <stop
         style="stop-color:#161625;stop-opacity:1"
         offset=".3"
         id="stop3388" />
      <stop
         style="stop-color:#081f35;stop-opacity:1"
         offset="1"
         id="stop3389" />
    </linearGradient>
    <linearGradient
       inkscape:collect="always"
       xlink:href="#linearGradient4047"
       id="linearGradient4049"
       x1="35.418064"
       y1="158.3329"
       x2="35.219627"
       y2="50.462322"
       gradientUnits="userSpaceOnUse"
       gradientTransform="matrix(0.5824096,0,0,1,14.70738,0)" />
  </defs>
  <sodipodi:namedview
     id="base"
     pagecolor="#ffffff"
     bordercolor="#666666"
     borderopacity="1.0"
     inkscape:pageopacity="0.0"
     inkscape:pageshadow="2"
     inkscape:zoom="2"
     inkscape:cx="28.399325"
     inkscape:cy="195.87134"
     inkscape:document-units="px"
     inkscape:current-layer="layer1"
     showgrid="false"
     fit-margin-top="0"
     fit-margin-left="0"
     fit-margin-right="0"
     fit-margin-bottom="0"
     inkscape:window-width="1920"
     inkscape:window-height="1058"
     inkscape:window-x="-6"
     inkscape:window-y="-6"
     inkscape:window-maximized="1"
     units="px"
     showguides="false"
     inkscape:document-rotation="0" />
  <metadata
     id="metadata11000">
    <rdf:RDF>
      <cc:Work
         rdf:about="">
        <dc:format>image/svg+xml</dc:format>
        <dc:type
           rdf:resource="http://purl.org/dc/dcmitype/StillImage" />
        <dc:title></dc:title>
      </cc:Work>
    </rdf:RDF>
  </metadata>
  <g
     inkscape:label="Layer 1"
     inkscape:groupmode="layer"
     id="layer1"
     transform="translate(-35.146312,-50.389004)">
    <g
       id="g1644"
       transform="matrix(1.0714286,0,0,1,-2.5890052,0.07224233)">
      <path
         inkscape:export-ydpi="150.22649"
         inkscape:export-xdpi="150.22649"
         inkscape:export-filename="/home/vortico/pics/tmp/LFOs.png"
         style="fill:url(#linearGradient4049);fill-opacity:1;fill-rule:nonzero;stroke:none;stroke-width:0.32694858"
         d="m 35.219628,50.462323 h 55.5625 V 150.85843 h -55.5625 z m 0,0"
         id="path33493"
         inkscape:connector-curvature="0" />
    </g>
    <g
       style="font-style:normal;font-weight:normal;font-size:3.52777767px;line-height:1.25;font-family:sans-serif;letter-spacing:0px;word-spacing:0px;fill:#ffffff;fill-opacity:1;stroke:none;stroke-width:0.26458332"
       id="text5097" />
    <g
       style="font-style:normal;font-variant:normal;font-weight:bold;font-stretch:normal;font-size:3.52777767px;line-height:1.25;font-family:Consolas;-inkscape-font-specification:'Consolas Bold';text-align:center;letter-spacing:0px;word-spacing:0px;text-anchor:middle;fill:#ffffff;fill-opacity:1;stroke:none;stroke-width:0.26458332"
       id="text373" />
    <g
       style="font-style:normal;font-variant:normal;font-weight:bold;font-stretch:normal;font-size:13.33333302px;line-height:1.25;font-family:Consolas;-inkscape-font-specification:'Consolas Bold';text-align:center;letter-spacing:0px;word-spacing:0px;text-anchor:middle;fill:#ffffff;fill-opacity:1;stroke:none"
       id="flowRoot250" />
    <g
       aria-label="=+"
       style="font-style:normal;font-variant:normal;font-weight:bold;font-stretch:normal;font-size:3.52777767px;line-height:1.25;font-family:Consolas;-inkscape-font-specification:'Consolas Bold';text-align:center;letter-spacing:0px;word-spacing:0px;text-anchor:middle;fill:#ffffff;fill-opacity:1;stroke:none;stroke-width:0.26458332"
       id="text308">
      <path
         d="m 156.8605,47.159573 v -0.334174 h 1.48139 v 0.334174 z m 0,0.678684 v -0.334174 h 1.48139 v 0.334174 z"
         style="stroke-width:0.26458332"
         id="path4330"
         inkscape:connector-curvature="0" />
      <path
         d="m 159.73887,47.507528 v 0.670071 h -0.38757 v -0.670071 h -0.64251 v -0.346232 h 0.64251 V 46.49467 h 0.38757 v 0.666626 h 0.64251 v 0.346232 z"
         style="stroke-width:0.26458332"
         id="path4332"
         inkscape:connector-curvature="0" />
    </g>
    <g
       style="font-style:normal;font-variant:normal;font-weight:bold;font-stretch:normal;font-size:13.33333302px;line-height:1.25;font-family:Consolas;-inkscape-font-specification:'Consolas Bold';text-align:center;letter-spacing:0px;word-spacing:0px;text-anchor:middle;fill:#ffffff;fill-opacity:1;stroke:none"
       id="flowRoot53665" />
    <g
       style="font-style:normal;font-variant:normal;font-weight:bold;font-stretch:normal;font-size:3.52777767px;line-height:1.25;font-family:Consolas;-inkscape-font-specification:'Consolas Bold';text-align:center;letter-spacing:0px;word-spacing:0px;text-anchor:middle;fill:#ffffff;fill-opacity:1;stroke:none;stroke-width:0.26458332"
       id="text53994" />
    <g
       style="font-style:normal;font-variant:normal;font-weight:normal;font-stretch:normal;font-size:3.52778px;line-height:1.25;font-family:Quarca;-inkscape-font-specification:Quarca;text-align:start;letter-spacing:0px;word-spacing:0px;text-anchor:start;fill:#dddddd;fill-opacity:1;stroke:none;stroke-width:0.264583"
       id="text3885"
       aria-label="QAR - GROOVE">
      <path
         id="path17394"
         style="font-style:normal;font-variant:normal;font-weight:normal;font-stretch:normal;font-size:3.88056px;font-family:Quarca;-inkscape-font-specification:Quarca;text-align:start;text-anchor:start;fill:#dddddd;fill-opacity:1;stroke-width:0.264583"
         d="m 53.667148,53.535779 c 0,0.357012 0.135819,0.535518 0.531636,0.535518 h 0.256117 v 0.450145 h 0.20955 v -0.450145 h 0.27164 c 0.395817,0 0.531636,-0.178506 0.531636,-0.535518 v -1.684163 c 0,-0.357011 -0.135819,-0.535517 -0.531636,-0.535517 h -0.737307 c -0.395817,0 -0.531636,0.178506 -0.531636,0.535517 z m 0.55492,0.325967 c -0.244476,0 -0.333729,-0.116416 -0.333729,-0.360892 v -1.614313 c 0,-0.244475 0.08925,-0.360892 0.333729,-0.360892 h 0.690739 c 0.248356,0 0.333728,0.116417 0.333728,0.360892 v 1.614313 c 0,0.244476 -0.08537,0.360892 -0.333728,0.360892 H 54.664451 V 53.47369 h -0.20955 v 0.388056 z" />
      <path
         id="path17396"
         style="font-style:normal;font-variant:normal;font-weight:normal;font-stretch:normal;font-size:3.88056px;font-family:Quarca;-inkscape-font-specification:Quarca;text-align:start;text-anchor:start;fill:#dddddd;fill-opacity:1;stroke-width:0.264583"
         d="m 56.631289,51.316099 -0.849843,2.755198 h 0.236714 l 0.178506,-0.597607 h 1.10984 l 0.178506,0.597607 h 0.236714 l -0.845962,-2.755198 z m 0.124178,0.294923 0.48895,1.653118 h -0.985662 z" />
      <path
         id="path17398"
         style="font-style:normal;font-variant:normal;font-weight:normal;font-stretch:normal;font-size:3.88056px;font-family:Quarca;-inkscape-font-specification:Quarca;text-align:start;text-anchor:start;fill:#dddddd;fill-opacity:1;stroke-width:0.264583"
         d="m 58.055879,54.071297 h 0.221192 v -1.10596 h 0.508353 l 0.772231,1.10596 h 0.259998 l -0.776112,-1.10596 h 0.05433 c 0.368653,0 0.547159,-0.174625 0.547159,-0.523875 v -0.601487 c 0,-0.349251 -0.178506,-0.523876 -0.547159,-0.523876 h -1.03999 z m 0.221192,-2.545648 h 0.779992 c 0.248356,0 0.360892,0.116417 0.360892,0.380295 v 0.469548 c 0,0.267759 -0.112536,0.384175 -0.360892,0.384175 h -0.779992 z" />
      <path
         id="path17400"
         style="font-style:normal;font-variant:normal;font-weight:normal;font-stretch:normal;font-size:3.88056px;font-family:Quarca;-inkscape-font-specification:Quarca;text-align:start;text-anchor:start;fill:#dddddd;fill-opacity:1;stroke-width:0.264583"
         d="m 62.038789,52.829518 h -1.191332 l -0.03104,0.197908 h 1.191332 z" />
      <path
         id="path17402"
         style="font-style:normal;font-variant:normal;font-weight:normal;font-stretch:normal;font-size:3.88056px;font-family:Quarca;-inkscape-font-specification:Quarca;text-align:start;text-anchor:start;fill:#dddddd;fill-opacity:1;stroke-width:0.264583"
         d="m 64.089543,52.949815 h 0.663576 v 0.578203 c 0,0.225073 -0.09313,0.333728 -0.34149,0.333728 h -0.613128 c -0.228953,0 -0.337609,-0.104775 -0.337609,-0.35313 v -1.602672 c 0,-0.263878 0.08925,-0.380295 0.318206,-0.380295 h 0.663576 c 0.228953,0 0.329847,0.104776 0.329847,0.353131 v 0.248356 h 0.221192 v -0.314325 c 0,-0.34537 -0.170744,-0.496712 -0.500592,-0.496712 h -0.787754 c -0.310444,0 -0.465667,0.174625 -0.465667,0.523876 v 1.738491 c 0,0.34925 0.194028,0.492831 0.504473,0.492831 h 0.721784 c 0.384176,0 0.512234,-0.190148 0.512234,-0.523876 v -0.807156 h -0.857604 z" />
      <path
         id="path17404"
         style="font-style:normal;font-variant:normal;font-weight:normal;font-stretch:normal;font-size:3.88056px;font-family:Quarca;-inkscape-font-specification:Quarca;text-align:start;text-anchor:start;fill:#dddddd;fill-opacity:1;stroke-width:0.264583"
         d="m 65.453197,54.071297 h 0.221192 v -1.10596 h 0.508353 l 0.772231,1.10596 h 0.259998 l -0.776112,-1.10596 h 0.05433 c 0.368653,0 0.547159,-0.174625 0.547159,-0.523875 v -0.601487 c 0,-0.349251 -0.178506,-0.523876 -0.547159,-0.523876 h -1.03999 z m 0.221192,-2.545648 h 0.779992 c 0.248356,0 0.360892,0.116417 0.360892,0.380295 v 0.469548 c 0,0.267759 -0.112536,0.384175 -0.360892,0.384175 h -0.779992 z" />
      <path
         id="path17406"
         style="font-style:normal;font-variant:normal;font-weight:normal;font-stretch:normal;font-size:3.88056px;font-family:Quarca;-inkscape-font-specification:Quarca;text-align:start;text-anchor:start;fill:#dddddd;fill-opacity:1;stroke-width:0.264583"
         d="m 67.499222,53.535779 c 0,0.357012 0.135819,0.535518 0.531636,0.535518 h 0.737307 c 0.395817,0 0.531637,-0.178506 0.531637,-0.535518 v -1.684163 c 0,-0.357011 -0.13582,-0.535517 -0.531637,-0.535517 h -0.737307 c -0.395817,0 -0.531636,0.178506 -0.531636,0.535517 z m 0.55492,-2.01013 h 0.690739 c 0.248356,0 0.333729,0.116417 0.333729,0.360892 v 1.614313 c 0,0.244476 -0.08537,0.360892 -0.333729,0.360892 h -0.690739 c -0.244475,0 -0.333728,-0.116416 -0.333728,-0.360892 v -1.614313 c 0,-0.244475 0.08925,-0.360892 0.333728,-0.360892 z" />
      <path
         id="path17408"
         style="font-style:normal;font-variant:normal;font-weight:normal;font-stretch:normal;font-size:3.88056px;font-family:Quarca;-inkscape-font-specification:Quarca;text-align:start;text-anchor:start;fill:#dddddd;fill-opacity:1;stroke-width:0.264583"
         d="m 69.788146,53.535779 c 0,0.357012 0.13582,0.535518 0.531637,0.535518 h 0.737306 c 0.395817,0 0.531637,-0.178506 0.531637,-0.535518 v -1.684163 c 0,-0.357011 -0.13582,-0.535517 -0.531637,-0.535517 h -0.737306 c -0.395817,0 -0.531637,0.178506 -0.531637,0.535517 z m 0.55492,-2.01013 h 0.69074 c 0.248355,0 0.333728,0.116417 0.333728,0.360892 v 1.614313 c 0,0.244476 -0.08537,0.360892 -0.333728,0.360892 h -0.69074 c -0.244475,0 -0.333728,-0.116416 -0.333728,-0.360892 v -1.614313 c 0,-0.244475 0.08925,-0.360892 0.333728,-0.360892 z" />
      <path
         id="path17410"
         style="font-style:normal;font-variant:normal;font-weight:normal;font-stretch:normal;font-size:3.88056px;font-family:Quarca;-inkscape-font-specification:Quarca;text-align:start;text-anchor:start;fill:#dddddd;fill-opacity:1;stroke-width:0.264583"
         d="m 72.965717,54.071297 0.783874,-2.755198 h -0.236715 l -0.644173,2.332217 c -0.01164,0.05433 -0.02328,0.112536 -0.02716,0.162983 -0.0078,-0.05045 -0.01552,-0.108656 -0.03104,-0.162983 l -0.644173,-2.332217 h -0.236714 l 0.787754,2.755198 z" />
      <path
         id="path17412"
         style="font-style:normal;font-variant:normal;font-weight:normal;font-stretch:normal;font-size:3.88056px;font-family:Quarca;-inkscape-font-specification:Quarca;text-align:start;text-anchor:start;fill:#dddddd;fill-opacity:1;stroke-width:0.264583"
         d="m 74.329857,51.525649 h 1.245659 l 0.03105,-0.20955 h -1.497896 v 2.755198 h 1.474612 l 0.03105,-0.209551 h -1.284465 v -0.842081 h 1.04387 l 0.03104,-0.20567 h -1.074915 z" />
    </g>
    <g
       style="font-style:normal;font-variant:normal;font-weight:bold;font-stretch:normal;font-size:13.3333px;line-height:1.25;font-family:Consolas;-inkscape-font-specification:'Consolas Bold';text-align:center;letter-spacing:0px;word-spacing:0px;text-anchor:middle;fill:#000000;fill-opacity:1;stroke:none"
       id="flowRoot1015"
       transform="matrix(0.26458333,0,0,0.26458333,35.146312,50.389004)" />
    <g
       style="font-style:normal;font-variant:normal;font-weight:normal;font-stretch:normal;font-size:3.52778px;line-height:1.25;font-family:Quarca;-inkscape-font-specification:Quarca;letter-spacing:0px;word-spacing:0px;fill:#dddddd;fill-opacity:1;stroke:none;stroke-width:0.264583"
       id="text5443-7-5"
       aria-label="SWING">
      <path
         id="path17382"
         style="font-style:normal;font-variant:normal;font-weight:normal;font-stretch:normal;font-size:2.82222px;font-family:Quarca;-inkscape-font-specification:Quarca;fill:#dddddd;fill-opacity:1;stroke-width:0.264583"
         d="m 61.871361,56.665721 c 0.141111,0.05927 0.1778,0.107244 0.1778,0.245533 v 0.194733 c 0,0.169333 -0.07055,0.239889 -0.231422,0.239889 h -0.426155 c -0.160867,0 -0.234244,-0.07056 -0.234244,-0.239889 v -0.211666 h -0.160867 v 0.251177 c 0,0.234245 0.110067,0.352778 0.369711,0.352778 h 0.496711 c 0.234244,0 0.349955,-0.118533 0.349955,-0.352778 v -0.276577 c 0,-0.200378 -0.0762,-0.270933 -0.282222,-0.361244 l -0.578555,-0.245534 c -0.132645,-0.05644 -0.166511,-0.110066 -0.166511,-0.234244 v -0.124178 c 0,-0.191911 0.06209,-0.256822 0.242711,-0.256822 h 0.352777 c 0.160867,0 0.239889,0.07338 0.239889,0.248356 v 0.189088 h 0.163689 v -0.228599 c 0,-0.254 -0.121356,-0.361245 -0.381,-0.361245 h -0.417689 c -0.248355,0 -0.361244,0.110067 -0.361244,0.361245 v 0.197555 c 0,0.2032 0.06773,0.276578 0.2794,0.369711 z" />
      <path
         id="path17384"
         style="font-style:normal;font-variant:normal;font-weight:normal;font-stretch:normal;font-size:2.82222px;font-family:Quarca;-inkscape-font-specification:Quarca;fill:#dddddd;fill-opacity:1;stroke-width:0.264583"
         d="m 63.104142,57.498276 0.361244,-1.622777 c 0.0085,-0.02822 0.01129,-0.07338 0.01129,-0.110066 0.0028,0.03669 0.0085,0.08184 0.01693,0.110066 l 0.364066,1.622777 h 0.180622 l 0.536222,-2.003777 H 64.41083 l -0.423333,1.642533 c -0.01411,0.05927 -0.02822,0.110066 -0.03387,0.166511 -0.0056,-0.05644 -0.01976,-0.110067 -0.03104,-0.169334 l -0.364066,-1.63971 h -0.160867 l -0.361244,1.63971 c -0.01129,0.05927 -0.02258,0.115711 -0.02822,0.174978 -0.01129,-0.05927 -0.0254,-0.118533 -0.03951,-0.1778 l -0.420511,-1.636888 h -0.166511 l 0.539044,2.003777 z" />
      <path
         id="path17386"
         style="font-style:normal;font-variant:normal;font-weight:normal;font-stretch:normal;font-size:2.82222px;font-family:Quarca;-inkscape-font-specification:Quarca;fill:#dddddd;fill-opacity:1;stroke-width:0.264583"
         d="m 64.998072,57.498276 v -2.003777 h -0.160866 v 2.003777 z" />
      <path
         id="path17388"
         style="font-style:normal;font-variant:normal;font-weight:normal;font-stretch:normal;font-size:2.82222px;font-family:Quarca;-inkscape-font-specification:Quarca;fill:#dddddd;fill-opacity:1;stroke-width:0.264583"
         d="m 65.538263,57.498276 v -1.724377 c 0.04233,0.09313 0.07902,0.186267 0.146755,0.301978 l 0.824089,1.422399 h 0.163689 v -2.003777 h -0.163689 v 1.721555 c -0.03105,-0.07338 -0.05927,-0.143933 -0.112889,-0.237067 l -0.857955,-1.484488 h -0.160866 v 2.003777 z" />
      <path
         id="path17390"
         style="font-style:normal;font-variant:normal;font-weight:normal;font-stretch:normal;font-size:2.82222px;font-family:Quarca;-inkscape-font-specification:Quarca;fill:#dddddd;fill-opacity:1;stroke-width:0.264583"
         d="m 67.659867,56.682654 h 0.482599 v 0.420511 c 0,0.163689 -0.06773,0.242711 -0.248355,0.242711 H 67.4482 c -0.166511,0 -0.245533,-0.0762 -0.245533,-0.256822 v -1.165577 c 0,-0.191911 0.06491,-0.276578 0.231422,-0.276578 h 0.4826 c 0.166511,0 0.239889,0.0762 0.239889,0.256822 v 0.180622 h 0.160866 v -0.228599 c 0,-0.251178 -0.124178,-0.361245 -0.364066,-0.361245 h -0.572911 c -0.225778,0 -0.338666,0.127 -0.338666,0.381 v 1.264355 c 0,0.254 0.141111,0.358422 0.366888,0.358422 h 0.524933 c 0.2794,0 0.372533,-0.138289 0.372533,-0.381 v -0.587022 h -0.62371 z" />
    </g>
    <g
       style="font-style:normal;font-variant:normal;font-weight:normal;font-stretch:normal;font-size:3.52778px;line-height:1.25;font-family:Quarca;-inkscape-font-specification:Quarca;letter-spacing:0px;word-spacing:0px;fill:#dddddd;fill-opacity:1;stroke:none;stroke-width:0.264583"
       id="text5443-7-5-4"
       aria-label="LENGTH">
      <path
         id="path17369"
         style="font-style:normal;font-variant:normal;font-weight:normal;font-stretch:normal;font-size:2.46944px;font-family:Quarca;-inkscape-font-specification:Quarca;fill:#dddddd;fill-opacity:1;stroke-width:0.264583"
         d="m 46.399571,134.06416 h -0.140758 v 1.7533 h 0.898877 l 0.01975,-0.13335 h -0.777874 z" />
      <path
         id="path17371"
         style="font-style:normal;font-variant:normal;font-weight:normal;font-stretch:normal;font-size:2.46944px;font-family:Quarca;-inkscape-font-specification:Quarca;fill:#dddddd;fill-opacity:1;stroke-width:0.264583"
         d="m 47.50889,134.19751 h 0.79269 l 0.01976,-0.13335 h -0.953204 v 1.7533 h 0.938387 l 0.01976,-0.13335 H 47.50889 v -0.53587 h 0.66428 l 0.01976,-0.13088 H 47.50889 Z" />
      <path
         id="path17373"
         style="font-style:normal;font-variant:normal;font-weight:normal;font-stretch:normal;font-size:2.46944px;font-family:Quarca;-inkscape-font-specification:Quarca;fill:#dddddd;fill-opacity:1;stroke-width:0.264583"
         d="m 48.695379,135.81746 v -1.50883 c 0.03704,0.0815 0.06914,0.16298 0.128411,0.26423 l 0.721076,1.2446 h 0.143228 v -1.7533 h -0.143228 v 1.50636 c -0.02716,-0.0642 -0.05186,-0.12595 -0.09878,-0.20744 l -0.75071,-1.29892 h -0.140758 v 1.7533 z" />
      <path
         id="path17375"
         style="font-style:normal;font-variant:normal;font-weight:normal;font-stretch:normal;font-size:2.46944px;font-family:Quarca;-inkscape-font-specification:Quarca;fill:#dddddd;fill-opacity:1;stroke-width:0.264583"
         d="m 50.55178,135.10379 h 0.422275 v 0.36795 c 0,0.14323 -0.05927,0.21237 -0.217311,0.21237 h -0.390172 c -0.145696,0 -0.214841,-0.0667 -0.214841,-0.22472 v -1.01988 c 0,-0.16792 0.0568,-0.242 0.202494,-0.242 H 50.7765 c 0.145696,0 0.209902,0.0667 0.209902,0.22472 v 0.15804 h 0.140758 v -0.20002 c 0,-0.21979 -0.108655,-0.31609 -0.318558,-0.31609 h -0.501296 c -0.197555,0 -0.296333,0.11112 -0.296333,0.33337 v 1.10631 c 0,0.22225 0.123472,0.31362 0.321027,0.31362 h 0.459316 c 0.244475,0 0.325966,-0.121 0.325966,-0.33338 v -0.51364 h -0.545746 z" />
      <path
         id="path17377"
         style="font-style:normal;font-variant:normal;font-weight:normal;font-stretch:normal;font-size:2.46944px;font-family:Quarca;-inkscape-font-specification:Quarca;fill:#dddddd;fill-opacity:1;stroke-width:0.264583"
         d="m 52.320903,134.19751 v -0.13335 h -1.039635 v 0.13335 h 0.449439 v 1.61995 h 0.143227 v -1.61995 z" />
      <path
         id="path17379"
         style="font-style:normal;font-variant:normal;font-weight:normal;font-stretch:normal;font-size:2.46944px;font-family:Quarca;-inkscape-font-specification:Quarca;fill:#dddddd;fill-opacity:1;stroke-width:0.264583"
         d="m 52.655165,135.81746 v -0.66428 h 0.812446 v 0.66428 h 0.140758 v -1.7533 h -0.140758 v 0.95567 h -0.812446 v -0.95567 h -0.140758 v 1.7533 z" />
    </g>
    <g
       aria-label="Frozen Wasteland"
       style="font-style:normal;font-weight:normal;font-size:3.52777767px;line-height:1.25;font-family:sans-serif;letter-spacing:0px;word-spacing:0px;fill:#00a3f2;fill-opacity:1;stroke:none;stroke-width:0.26458332"
       id="text271"
       transform="translate(6.8129991,2.5452323)">
      <g
         aria-label="FROZEN WASTELAND"
         style="font-style:normal;font-variant:normal;font-weight:bold;font-stretch:normal;font-size:3.52777767px;line-height:1.25;font-family:Consolas;-inkscape-font-specification:'Consolas Bold';text-align:start;letter-spacing:0px;word-spacing:0px;text-anchor:start;fill:#00a3f2;fill-opacity:1;stroke:none;stroke-width:0.26458332"
         id="text3885-7"
         transform="translate(3.1750002,0.52916668)">
        <path
           d="m 41.150231,146.65677 q 0.119944,-0.11994 0.1905,-0.21166 0.07408,-0.0917 0.112889,-0.16934 0.04233,-0.0776 0.05292,-0.14464 0.01411,-0.0706 0.01411,-0.14816 0,-0.0952 -0.04586,-0.22931 -0.04586,-0.13405 -0.102306,-0.28575 -0.05644,-0.15169 -0.102306,-0.31044 -0.04586,-0.15875 -0.04586,-0.30339 0,-0.0776 0.0247,-0.1517 0.02822,-0.0741 0.06703,-0.14111 0.04233,-0.0705 0.09172,-0.13053 0.04939,-0.0635 0.09878,-0.11288 -0.07056,-0.0141 -0.123473,-0.0212 -0.05292,-0.0106 -0.07761,-0.0106 -0.130528,0 -0.22225,0.0705 -0.08819,0.067 -0.1905,0.16933 0,-0.11994 0.03528,-0.24694 0.03881,-0.13053 0.116417,-0.23636 0.07761,-0.10583 0.194027,-0.17286 0.119945,-0.067 0.282223,-0.067 0.112889,0 0.208139,0.0176 0.09878,0.0141 0.179916,0.0353 0.08114,0.0212 0.148167,0.0388 0.06703,0.0141 0.119944,0.0141 0.08114,0 0.141111,-0.0212 0.0635,-0.0247 0.123473,-0.0847 0,0.0776 -0.03175,0.17639 -0.02822,0.0988 -0.08819,0.1905 -0.05644,0.0882 -0.148167,0.15169 -0.09172,0.06 -0.211666,0.06 -0.05997,0 -0.137584,-0.007 -0.07408,-0.0106 -0.155222,-0.0247 -0.0071,0.0247 -0.01058,0.0459 -0.0035,0.0212 -0.0071,0.0388 -0.0035,0.0212 -0.0035,0.0388 0,0.0776 0.01058,0.15169 0.01411,0.0706 0.03881,0.14464 h 0.712611 l -0.08114,0.23989 q -0.01058,0.0459 -0.01411,0.067 -0.0035,0.0212 -0.01058,0.067 l -0.130528,-0.0917 h -0.363361 q 0.07761,0.17639 0.144639,0.35984 0.06703,0.17991 0.06703,0.38452 0,0.18345 -0.07408,0.3422 -0.07408,0.15522 -0.197556,0.27164 -0.119944,0.11641 -0.278694,0.17991 -0.155222,0.067 -0.321028,0.067 z"
           style="font-style:normal;font-variant:normal;font-weight:normal;font-stretch:normal;font-family:'Bradley Gratis';-inkscape-font-specification:'Bradley Gratis';text-align:start;text-anchor:start;fill:#00a3f2;fill-opacity:1;stroke-width:0.26458332"
           id="path20360"
           inkscape:connector-curvature="0" />
        <path
           d="m 43.22032,144.92816 q 0.07055,-0.0423 0.137583,-0.0988 0.07056,-0.0564 0.123472,-0.127 0.05645,-0.0705 0.08819,-0.16227 0.03528,-0.0952 0.03528,-0.21167 0,-0.0988 -0.03881,-0.16581 -0.03528,-0.0705 -0.08467,-0.11289 -0.04939,-0.0423 -0.09878,-0.06 -0.04586,-0.0176 -0.07056,-0.0176 -0.02822,0 -0.05292,0.0106 -0.02117,0.0106 -0.0388,0.0247 z m -0.518583,-0.94192 q -0.112889,-0.0635 -0.112889,-0.23636 0.03175,0.0318 0.112889,0.0565 0.08114,0.0212 0.172861,0.0212 0.04586,0 0.130527,-0.0106 0.08467,-0.0141 0.172862,-0.0282 0.09172,-0.0141 0.172861,-0.0247 0.08467,-0.0141 0.130527,-0.0141 0.116417,0 0.232834,0.0353 0.116416,0.0353 0.215194,0.11995 0.09878,0.0847 0.165806,0.2293 0.07056,0.14111 0.09172,0.35983 l -0.627944,0.4445 q 0.07055,0.0282 0.15875,0.0952 0.08819,0.067 0.165805,0.18698 0.08114,0.11994 0.134056,0.30691 0.05292,0.18345 0.05292,0.45156 0,0.23283 0.02117,0.37747 0.02117,0.14464 0.05292,0.23283 0.03175,0.0882 0.06703,0.13053 0.03881,0.0459 0.07056,0.0776 -0.155222,0 -0.275167,-0.0917 -0.119944,-0.0882 -0.211666,-0.23283 -0.09172,-0.14464 -0.162278,-0.32809 -0.06703,-0.18344 -0.123472,-0.37041 -0.05644,-0.18697 -0.105834,-0.35984 -0.04586,-0.17286 -0.09525,-0.29986 -0.02469,0.0176 -0.04939,0.0353 -0.02117,0.0141 -0.0388,0.0318 v 1.31939 h -0.518583 z"
           style="font-style:normal;font-variant:normal;font-weight:normal;font-stretch:normal;font-family:'Bradley Gratis';-inkscape-font-specification:'Bradley Gratis';text-align:start;text-anchor:start;fill:#00a3f2;fill-opacity:1;stroke-width:0.26458332"
           id="path20362"
           inkscape:connector-curvature="0" />
        <path
           d="m 45.108067,146.03588 q 0,0.11995 0.01411,0.18698 0.01764,0.067 0.04233,0.1023 0.02822,0.0317 0.0635,0.0388 0.03528,0.007 0.07056,0.007 0.07055,0 0.116416,-0.0952 0.04586,-0.0988 0.04586,-0.29986 v -1.53105 q 0,-0.15875 -0.01764,-0.25753 -0.01411,-0.10231 -0.04233,-0.15522 -0.02469,-0.0564 -0.05997,-0.0776 -0.03175,-0.0212 -0.0635,-0.0212 -0.06703,0 -0.119944,0.0847 -0.04939,0.0811 -0.04939,0.26106 z m 1.005416,-0.88547 q 0,0.25753 -0.06703,0.508 -0.0635,0.25047 -0.176389,0.44803 -0.109361,0.19755 -0.261056,0.32103 -0.151694,0.11994 -0.321028,0.11994 -0.15875,0 -0.310444,-0.10936 -0.148167,-0.10936 -0.264583,-0.29986 -0.112889,-0.1905 -0.183445,-0.4445 -0.07055,-0.254 -0.07055,-0.54328 0,-0.23636 0.0635,-0.4833 0.06703,-0.25048 0.179916,-0.45156 0.112889,-0.20108 0.264584,-0.32808 0.151694,-0.13053 0.321027,-0.13053 0.148167,0 0.292806,0.10936 0.148167,0.10936 0.264583,0.29986 0.119945,0.18697 0.194028,0.44097 0.07408,0.254 0.07408,0.54328 z"
           style="font-style:normal;font-variant:normal;font-weight:normal;font-stretch:normal;font-family:'Bradley Gratis';-inkscape-font-specification:'Bradley Gratis';text-align:start;text-anchor:start;fill:#00a3f2;fill-opacity:1;stroke-width:0.26458332"
           id="path20364"
           inkscape:connector-curvature="0" />
        <path
           d="m 46.267548,146.50861 q 0.04586,-0.27164 0.130528,-0.51153 0.08819,-0.23989 0.194028,-0.45861 0.105833,-0.21873 0.218722,-0.41628 0.116417,-0.20108 0.218722,-0.38806 0.102306,-0.18697 0.179917,-0.36336 0.07761,-0.17991 0.112889,-0.35983 -0.02822,-0.0176 -0.06703,-0.0318 -0.03528,-0.0141 -0.137583,-0.0141 -0.05292,0 -0.09525,0.0282 -0.03881,0.0247 -0.06703,0.0635 -0.02822,0.0353 -0.04586,0.0776 -0.01411,0.0388 -0.01411,0.0635 0,0.0282 0.01058,0.067 0.01411,0.0353 0.02822,0.0705 0.01764,0.0353 0.03528,0.067 0.01764,0.0282 0.03175,0.0423 l -0.430389,0.26811 q -0.08467,-0.0811 -0.144639,-0.19756 -0.05644,-0.11994 -0.05644,-0.23989 0,-0.06 0.03175,-0.14816 0.03175,-0.0882 0.102305,-0.16934 0.07056,-0.0847 0.183445,-0.14111 0.116416,-0.06 0.282222,-0.06 0.130528,0 0.218722,0.0176 0.08819,0.0176 0.155222,0.0423 0.06703,0.0212 0.123472,0.0388 0.05997,0.0176 0.134056,0.0176 0.04586,0 0.09878,-0.007 0.05292,-0.007 0.09878,-0.0212 0.04586,-0.0141 0.08114,-0.0282 0.03881,-0.0176 0.05997,-0.0388 -0.04233,0.22225 -0.134056,0.46213 -0.09172,0.23989 -0.204611,0.47978 -0.109361,0.23989 -0.232833,0.4692 -0.119945,0.2293 -0.22225,0.43039 -0.09878,0.19755 -0.169334,0.35983 -0.06703,0.15875 -0.07408,0.26105 0.141111,0.06 0.239889,0.06 0.0635,0 0.130528,-0.0141 0.06703,-0.0176 0.119944,-0.0529 0.05644,-0.0353 0.09172,-0.0882 0.03528,-0.0564 0.03528,-0.13405 0,-0.0776 -0.01764,-0.127 -0.01411,-0.0529 -0.03881,-0.0847 -0.0247,-0.0353 -0.05644,-0.06 -0.03175,-0.0282 -0.05997,-0.0564 l 0.405694,-0.29987 q 0.141112,0.10584 0.201084,0.22578 0.05997,0.11995 0.05997,0.26106 0,0.067 -0.02117,0.13053 -0.01764,0.06 -0.04586,0.11288 -0.02469,0.0494 -0.05997,0.0917 -0.03175,0.0423 -0.05644,0.067 l 0.05997,0.06 q 0.01764,0.0176 0.0388,0.0529 0.02117,0.0317 0.02117,0.0564 0,0.0282 -0.02469,0.0811 -0.02117,0.0564 -0.08819,0.0988 -0.02469,-0.0317 -0.05644,-0.0564 -0.02822,-0.0212 -0.05997,-0.0388 -0.03175,-0.0176 -0.06703,-0.0176 z"
           style="font-style:normal;font-variant:normal;font-weight:normal;font-stretch:normal;font-family:'Bradley Gratis';-inkscape-font-specification:'Bradley Gratis';text-align:start;text-anchor:start;fill:#00a3f2;fill-opacity:1;stroke-width:0.26458332"
           id="path20366"
           inkscape:connector-curvature="0" />
        <path
           d="m 49.773884,143.78163 v 0.381 q -0.03881,-0.0353 -0.102306,-0.0776 -0.05997,-0.0423 -0.130528,-0.0741 -0.06703,-0.0353 -0.134055,-0.0565 -0.06703,-0.0247 -0.112889,-0.0247 -0.08467,0 -0.172861,0.067 -0.08819,0.067 -0.144639,0.17991 -0.05644,0.10937 -0.07408,0.28928 -0.01411,0.17639 -0.01411,0.45509 h 0.903111 l -0.179916,0.40216 q -0.03528,-0.0529 -0.08467,-0.0705 -0.04586,-0.0212 -0.08467,-0.0212 H 48.88841 q 0,0.20108 0.0071,0.39511 0.0071,0.1905 0.04586,0.3422 0.04233,0.15169 0.127,0.24694 0.08467,0.0917 0.243417,0.0917 0.08467,0 0.165805,-0.0318 0.08467,-0.0317 0.155222,-0.0776 0.07056,-0.0494 0.123473,-0.1023 0.05644,-0.0529 0.08819,-0.0952 v 0.508 h -0.47625 q -0.342194,0 -0.553861,-0.11995 -0.211667,-0.12347 -0.331611,-0.32808 -0.116417,-0.20814 -0.15875,-0.47978 -0.03881,-0.27164 -0.03881,-0.56797 0,-0.0741 0.01058,-0.19403 0.01058,-0.12347 0.04586,-0.25753 0.03528,-0.13758 0.102305,-0.27516 0.06703,-0.14112 0.179917,-0.25048 0.116417,-0.11289 0.28575,-0.18344 0.169333,-0.0706 0.409222,-0.0706 z"
           style="font-style:normal;font-variant:normal;font-weight:normal;font-stretch:normal;font-family:'Bradley Gratis';-inkscape-font-specification:'Bradley Gratis';text-align:start;text-anchor:start;fill:#00a3f2;fill-opacity:1;stroke-width:0.26458332"
           id="path20368"
           inkscape:connector-curvature="0" />
        <path
           d="m 50.160286,146.50861 v -2.4377 q 0,-0.0988 -0.04233,-0.1658 -0.04233,-0.0706 -0.08467,-0.12348 h 0.684388 v 0.35984 l 0.391584,-0.45509 q 0.179916,0.16228 0.296333,0.32456 0.116417,0.15875 0.183445,0.32103 0.06703,0.15875 0.09172,0.32455 0.02469,0.16228 0.02469,0.33514 0,0.16933 -0.02822,0.32456 -0.02469,0.15169 -0.07408,0.29986 -0.04939,0.14816 -0.119945,0.29986 -0.06703,0.15169 -0.148166,0.3175 h 0.127 q 0.04586,0 0.09525,-0.0317 0.04939,-0.0318 0.09878,-0.0318 v 0.33867 h -0.684389 q 0.09525,-0.19403 0.151695,-0.34925 0.05997,-0.15523 0.09172,-0.29634 0.03175,-0.14111 0.04233,-0.27516 0.01058,-0.13406 0.01058,-0.28575 0,-0.1517 -0.05292,-0.31398 -0.04939,-0.1658 -0.123472,-0.30339 -0.07408,-0.13758 -0.15875,-0.22577 -0.08114,-0.0882 -0.148167,-0.0882 -0.04233,0 -0.06703,0.0212 v 2.11667 z"
           style="font-style:normal;font-variant:normal;font-weight:normal;font-stretch:normal;font-family:'Bradley Gratis';-inkscape-font-specification:'Bradley Gratis';text-align:start;text-anchor:start;fill:#00a3f2;fill-opacity:1;stroke-width:0.26458332"
           id="path20370"
           inkscape:connector-curvature="0" />
        <path
           d="m 53.398455,146.62502 q -0.1905,-0.13758 -0.324556,-0.2928 -0.134055,-0.15875 -0.215194,-0.32809 -0.08114,-0.16933 -0.119945,-0.34219 -0.03528,-0.17639 -0.03528,-0.34572 0,-0.16581 0.03528,-0.32809 0.03528,-0.1658 0.09172,-0.32455 0.05997,-0.16228 0.137584,-0.31397 0.07761,-0.15523 0.15875,-0.30339 h -0.02117 q -0.01058,0 -0.02469,0 -0.01058,-0.004 -0.02822,-0.004 -0.05644,0 -0.137583,0.0141 -0.07761,0.0141 -0.151694,0.0706 v -0.34573 h 0.740833 q -0.09172,0.15875 -0.15875,0.32103 -0.0635,0.15875 -0.105833,0.31045 -0.03881,0.14816 -0.05997,0.28222 -0.01764,0.13053 -0.01764,0.23636 0,0.10583 0.02117,0.254 0.02117,0.14817 0.07761,0.30692 0.05997,0.15522 0.15875,0.29633 0.102306,0.14111 0.264584,0.2293 l 0.105833,-0.0776 q -0.0635,-0.11994 -0.09878,-0.2293 -0.03528,-0.11289 -0.05292,-0.21167 -0.01411,-0.0988 -0.01764,-0.17992 -0.0035,-0.0847 -0.0035,-0.15169 0,-0.10936 0.02822,-0.24694 0.02822,-0.13759 0.08114,-0.28575 0.05292,-0.14817 0.127,-0.29987 0.07761,-0.15169 0.172861,-0.29633 -0.134055,0 -0.22225,0.0212 -0.08467,0.0212 -0.144639,0.06 v -0.33867 h 0.762 q -0.0635,0.0882 -0.127,0.20109 -0.05997,0.10936 -0.105833,0.23989 -0.04586,0.127 -0.07408,0.27163 -0.02822,0.14464 -0.02822,0.29634 0,0.25753 0.04586,0.45861 0.04586,0.19755 0.127,0.34925 0.08114,0.15169 0.1905,0.26105 0.109362,0.10937 0.232834,0.18698 v -2.26484 h 0.529166 v 2.1202 q 0,0.0247 -0.03528,0.0705 -0.03528,0.0423 -0.09172,0.0988 -0.05292,0.0565 -0.127,0.12347 -0.07055,0.0635 -0.144638,0.127 -0.176389,0.14817 -0.398639,0.32456 -0.172861,-0.13406 -0.296334,-0.26458 -0.123472,-0.13053 -0.211666,-0.254 z"
           style="font-style:normal;font-variant:normal;font-weight:normal;font-stretch:normal;font-family:'Bradley Gratis';-inkscape-font-specification:'Bradley Gratis';text-align:start;text-anchor:start;fill:#00a3f2;fill-opacity:1;stroke-width:0.26458332"
           id="path20372"
           inkscape:connector-curvature="0" />
        <path
           d="m 56.650514,144.81174 v -0.87841 h -0.416278 q -0.0035,0.23636 -0.01411,0.46919 -0.0071,0.22931 -0.01764,0.40922 z m 0.719667,-1.03011 q -0.03881,0.0282 -0.07408,0.0706 -0.03175,0.0423 -0.05645,0.0917 -0.02117,0.0459 -0.03528,0.0917 -0.01411,0.0423 -0.01411,0.0741 v 2.39889 h -0.53975 v -1.32998 h -0.472722 q -0.0035,0.127 -0.03528,0.2787 -0.03175,0.14816 -0.08819,0.29986 -0.05292,0.14817 -0.127,0.28928 -0.07056,0.13758 -0.162278,0.24341 -0.08819,0.10584 -0.1905,0.16934 -0.09878,0.0635 -0.208139,0.0635 -0.07055,0 -0.123472,-0.0423 -0.04939,-0.0423 -0.04939,-0.11994 0,-0.0494 0.03175,-0.0706 0.03175,-0.0247 0.06703,-0.0247 0.03175,0 0.04939,0.0106 0.01764,0.007 0.03175,0.0212 0.01764,0.0106 0.03881,0.0212 0.02117,0.007 0.05997,0.007 0.0635,0 0.102305,-0.0635 0.03881,-0.067 0.0635,-0.17639 0.0247,-0.11289 0.03528,-0.25753 0.01411,-0.14816 0.02117,-0.31044 0.0071,-0.16228 0.01764,-0.32808 0.01058,-0.16934 0.02822,-0.32456 0.02117,-0.18344 0.0635,-0.33514 0.04586,-0.15169 0.09525,-0.26811 0.04939,-0.11642 0.09878,-0.19755 0.04939,-0.0811 0.08467,-0.13053 h -0.07761 q -0.06703,0 -0.123472,0.0212 -0.05644,0.0176 -0.102306,0.0423 -0.04233,0.0212 -0.07761,0.0423 -0.03175,0.0176 -0.05644,0.0176 -0.05997,0 -0.08819,-0.0423 -0.02822,-0.0423 -0.02822,-0.0952 0,-0.0494 0.05292,-0.0917 0.05644,-0.0459 0.155222,-0.0459 z"
           style="font-style:normal;font-variant:normal;font-weight:normal;font-stretch:normal;font-family:'Bradley Gratis';-inkscape-font-specification:'Bradley Gratis';text-align:start;text-anchor:start;fill:#00a3f2;fill-opacity:1;stroke-width:0.26458332"
           id="path20374"
           inkscape:connector-curvature="0" />
        <path
           d="m 58.150372,146.63208 q -0.08114,-0.0811 -0.186973,-0.15875 -0.102305,-0.0776 -0.201083,-0.13759 -0.09525,-0.06 -0.169333,-0.1023 -0.07056,-0.0423 -0.08114,-0.0529 0.03528,-0.0423 0.08819,-0.11641 0.05292,-0.0776 0.102306,-0.1517 0.05292,-0.0741 0.09172,-0.13053 0.04233,-0.06 0.05292,-0.0705 0.04939,0.0317 0.134055,0.0882 0.08819,0.0529 0.172861,0.11289 0.08819,0.06 0.15875,0.10936 0.07056,0.0494 0.09172,0.0706 0.04939,-0.0282 0.08114,-0.0741 0.03528,-0.0459 0.03528,-0.14816 0,-0.0882 -0.07408,-0.18697 -0.07056,-0.0988 -0.176389,-0.20814 -0.105833,-0.10936 -0.232833,-0.22931 -0.127,-0.11994 -0.232834,-0.24694 -0.105833,-0.127 -0.179916,-0.25753 -0.07056,-0.13053 -0.07056,-0.26811 0,-0.0988 0.04939,-0.18345 0.05292,-0.0882 0.130528,-0.16227 0.07761,-0.0776 0.169333,-0.13759 0.09525,-0.0635 0.179917,-0.11641 0.08819,-0.0564 0.155222,-0.0988 0.06703,-0.0459 0.09525,-0.0811 0.02117,0.0176 0.09172,0.0882 0.07408,0.067 0.15875,0.14464 0.08467,0.0776 0.15875,0.13759 0.07761,0.06 0.102306,0.06 -0.03528,0.0282 -0.08819,0.0847 -0.04939,0.0529 -0.102305,0.11289 -0.04939,0.06 -0.09172,0.11642 -0.03881,0.0529 -0.05644,0.0811 -0.08114,-0.0353 -0.162278,-0.10583 -0.08114,-0.0706 -0.148166,-0.13759 -0.06703,-0.067 -0.112889,-0.11641 -0.04586,-0.0529 -0.05997,-0.0529 -0.02822,0 -0.04939,0.0317 -0.01764,0.0282 -0.01764,0.067 0,0.0847 0.07408,0.17991 0.07761,0.0952 0.186972,0.20461 0.112889,0.10584 0.243417,0.22578 0.134056,0.11642 0.243417,0.24342 0.112889,0.127 0.186972,0.26458 0.07761,0.13406 0.07761,0.27517 0,0.127 -0.09525,0.26811 -0.09525,0.14111 -0.229306,0.28222 -0.130527,0.13759 -0.268111,0.26459 -0.137583,0.12347 -0.225777,0.21872 z"
           style="font-style:normal;font-variant:normal;font-weight:normal;font-stretch:normal;font-family:'Bradley Gratis';-inkscape-font-specification:'Bradley Gratis';text-align:start;text-anchor:start;fill:#00a3f2;fill-opacity:1;stroke-width:0.26458332"
           id="path20376"
           inkscape:connector-curvature="0" />
        <path
           d="m 60.635359,146.03236 q 0,0.13758 -0.05644,0.23988 -0.05644,0.0988 -0.148167,0.16228 -0.08819,0.0635 -0.197555,0.0953 -0.109361,0.0317 -0.215195,0.0317 -0.165805,0 -0.324555,-0.0811 -0.15875,-0.0811 -0.28575,-0.21872 -0.127,-0.14111 -0.204611,-0.32808 -0.07761,-0.1905 -0.07761,-0.40922 0,-0.39159 0.179916,-0.72673 0.179917,-0.33866 0.500945,-0.61383 -0.02822,-0.004 -0.05292,-0.004 -0.02117,-0.004 -0.04586,-0.004 -0.08467,0 -0.179917,0.0282 -0.09525,0.0282 -0.179916,0.0741 -0.08467,0.0423 -0.155223,0.0952 -0.06703,0.0529 -0.102305,0.0988 0.02822,-0.13759 0.105833,-0.27164 0.07761,-0.13406 0.194028,-0.23636 0.116417,-0.10231 0.268111,-0.16581 0.151694,-0.0635 0.331611,-0.0635 0.09172,0 0.194028,0.0282 0.102305,0.0282 0.194028,0.0741 0.09525,0.0423 0.169333,0.0953 0.07408,0.0529 0.112889,0.1023 l -0.289278,0.44098 q -0.176389,-0.17287 -0.381,-0.24695 -0.04586,0.0741 -0.09525,0.17639 -0.04939,0.0988 -0.09172,0.22578 -0.03881,0.127 -0.06703,0.28222 -0.02469,0.15169 -0.02469,0.33161 0,0.16933 0.02469,0.29986 0.02822,0.13053 0.07056,0.22578 0.04233,0.0952 0.09525,0.15875 0.05644,0.0635 0.112889,0.10583 0.134055,0.0953 0.306916,0.10584 0.07056,0 0.162278,-0.0282 0.09525,-0.0318 0.151694,-0.0811 z"
           style="font-style:normal;font-variant:normal;font-weight:normal;font-stretch:normal;font-family:'Bradley Gratis';-inkscape-font-specification:'Bradley Gratis';text-align:start;text-anchor:start;fill:#00a3f2;fill-opacity:1;stroke-width:0.26458332"
           id="path20378"
           inkscape:connector-curvature="0" />
        <path
           d="m 62.403604,143.78163 v 0.381 q -0.03881,-0.0353 -0.102306,-0.0776 -0.05997,-0.0423 -0.130528,-0.0741 -0.06703,-0.0353 -0.134055,-0.0565 -0.06703,-0.0247 -0.112889,-0.0247 -0.08467,0 -0.172861,0.067 -0.08819,0.067 -0.144639,0.17991 -0.05644,0.10937 -0.07408,0.28928 -0.01411,0.17639 -0.01411,0.45509 h 0.903111 l -0.179917,0.40216 q -0.03528,-0.0529 -0.08467,-0.0705 -0.04586,-0.0212 -0.08467,-0.0212 h -0.553861 q 0,0.20108 0.0071,0.39511 0.0071,0.1905 0.04586,0.3422 0.04233,0.15169 0.127,0.24694 0.08467,0.0917 0.243417,0.0917 0.08467,0 0.165805,-0.0318 0.08467,-0.0317 0.155223,-0.0776 0.07055,-0.0494 0.123472,-0.1023 0.05644,-0.0529 0.08819,-0.0952 v 0.508 h -0.47625 q -0.342194,0 -0.553861,-0.11995 -0.211666,-0.12347 -0.331611,-0.32808 -0.116417,-0.20814 -0.15875,-0.47978 -0.03881,-0.27164 -0.03881,-0.56797 0,-0.0741 0.01058,-0.19403 0.01058,-0.12347 0.04586,-0.25753 0.03528,-0.13758 0.102306,-0.27516 0.06703,-0.14112 0.179916,-0.25048 0.116417,-0.11289 0.28575,-0.18344 0.169334,-0.0706 0.409222,-0.0706 z"
           style="font-style:normal;font-variant:normal;font-weight:normal;font-stretch:normal;font-family:'Bradley Gratis';-inkscape-font-specification:'Bradley Gratis';text-align:start;text-anchor:start;fill:#00a3f2;fill-opacity:1;stroke-width:0.26458332"
           id="path20380"
           inkscape:connector-curvature="0" />
        <path
           d="m 63.682533,144.47661 q -0.08819,-0.21167 -0.151694,-0.35278 -0.0635,-0.14111 -0.09878,-0.14111 -0.03881,0 -0.05292,0.0353 -0.01058,0.0318 -0.01058,0.0565 v 1.91205 q 0,0.0776 -0.04233,0.16228 -0.04233,0.0847 -0.112888,0.14817 0.130527,0 0.232833,-0.0635 0.102305,-0.067 0.211667,-0.14464 0.112888,-0.0811 0.250472,-0.14464 0.137583,-0.067 0.342194,-0.067 v 0.63148 H 62.65595 q 0.04586,-0.067 0.07761,-0.127 0.03528,-0.06 0.05644,-0.11995 0.02117,-0.06 0.03175,-0.127 0.01058,-0.067 0.01058,-0.14817 v -1.66863 q 0,-0.11289 -0.04233,-0.18345 -0.04233,-0.0741 -0.05997,-0.1023 0.01411,-0.004 0.07056,-0.0247 0.05997,-0.0247 0.144639,-0.0564 0.08467,-0.0318 0.186972,-0.067 0.102305,-0.0353 0.201083,-0.0635 0.09878,-0.0317 0.186972,-0.0494 0.08819,-0.0212 0.144639,-0.0212 0.0882,0 0.165806,0.0494 0.07761,0.0494 0.141111,0.12347 0.0635,0.0741 0.109361,0.16581 0.04586,0.0882 0.07408,0.16581 z"
           style="font-style:normal;font-variant:normal;font-weight:normal;font-stretch:normal;font-family:'Bradley Gratis';-inkscape-font-specification:'Bradley Gratis';text-align:start;text-anchor:start;fill:#00a3f2;fill-opacity:1;stroke-width:0.26458332"
           id="path20382"
           inkscape:connector-curvature="0" />
        <path
           d="m 65.8627,144.81174 v -0.87841 h -0.416278 q -0.0035,0.23636 -0.01411,0.46919 -0.0071,0.22931 -0.01764,0.40922 z m 0.719667,-1.03011 q -0.03881,0.0282 -0.07408,0.0706 -0.03175,0.0423 -0.05644,0.0917 -0.02117,0.0459 -0.03528,0.0917 -0.01411,0.0423 -0.01411,0.0741 v 2.39889 H 65.8627 v -1.32998 h -0.472722 q -0.0035,0.127 -0.03528,0.2787 -0.03175,0.14816 -0.08819,0.29986 -0.05292,0.14817 -0.127,0.28928 -0.07056,0.13758 -0.162278,0.24341 -0.08819,0.10584 -0.1905,0.16934 -0.09878,0.0635 -0.208139,0.0635 -0.07056,0 -0.123472,-0.0423 -0.04939,-0.0423 -0.04939,-0.11994 0,-0.0494 0.03175,-0.0706 0.03175,-0.0247 0.06703,-0.0247 0.03175,0 0.04939,0.0106 0.01764,0.007 0.03175,0.0212 0.01764,0.0106 0.0388,0.0212 0.02117,0.007 0.05997,0.007 0.0635,0 0.102306,-0.0635 0.0388,-0.067 0.0635,-0.17639 0.02469,-0.11289 0.03528,-0.25753 0.01411,-0.14816 0.02117,-0.31044 0.0071,-0.16228 0.01764,-0.32808 0.01058,-0.16934 0.02822,-0.32456 0.02117,-0.18344 0.0635,-0.33514 0.04586,-0.15169 0.09525,-0.26811 0.04939,-0.11642 0.09878,-0.19755 0.04939,-0.0811 0.08467,-0.13053 h -0.07761 q -0.06703,0 -0.123472,0.0212 -0.05644,0.0176 -0.102306,0.0423 -0.04233,0.0212 -0.07761,0.0423 -0.03175,0.0176 -0.05645,0.0176 -0.05997,0 -0.08819,-0.0423 -0.02822,-0.0423 -0.02822,-0.0952 0,-0.0494 0.05292,-0.0917 0.05644,-0.0459 0.155223,-0.0459 z"
           style="font-style:normal;font-variant:normal;font-weight:normal;font-stretch:normal;font-family:'Bradley Gratis';-inkscape-font-specification:'Bradley Gratis';text-align:start;text-anchor:start;fill:#00a3f2;fill-opacity:1;stroke-width:0.26458332"
           id="path20384"
           inkscape:connector-curvature="0" />
        <path
           d="m 66.882779,146.50861 v -2.4377 q 0,-0.0988 -0.04233,-0.1658 -0.04233,-0.0706 -0.08467,-0.12348 h 0.684389 v 0.35984 l 0.391583,-0.45509 q 0.179917,0.16228 0.296333,0.32456 0.116417,0.15875 0.183445,0.32103 0.06703,0.15875 0.09172,0.32455 0.02469,0.16228 0.02469,0.33514 0,0.16933 -0.02822,0.32456 -0.02469,0.15169 -0.07408,0.29986 -0.04939,0.14816 -0.119945,0.29986 -0.06703,0.15169 -0.148166,0.3175 h 0.127 q 0.04586,0 0.09525,-0.0317 0.04939,-0.0318 0.09878,-0.0318 v 0.33867 H 67.69417 q 0.09525,-0.19403 0.151694,-0.34925 0.05997,-0.15523 0.09172,-0.29634 0.03175,-0.14111 0.04233,-0.27516 0.01058,-0.13406 0.01058,-0.28575 0,-0.1517 -0.05292,-0.31398 -0.04939,-0.1658 -0.123472,-0.30339 -0.07408,-0.13758 -0.15875,-0.22577 -0.08114,-0.0882 -0.148167,-0.0882 -0.04233,0 -0.06703,0.0212 v 2.11667 z"
           style="font-style:normal;font-variant:normal;font-weight:normal;font-stretch:normal;font-family:'Bradley Gratis';-inkscape-font-specification:'Bradley Gratis';text-align:start;text-anchor:start;fill:#00a3f2;fill-opacity:1;stroke-width:0.26458332"
           id="path20386"
           inkscape:connector-curvature="0" />
        <path
           d="m 68.771683,144.02858 q -0.09172,-0.0388 -0.127,-0.0952 -0.03528,-0.0565 -0.03528,-0.10584 0,-0.0423 0.02822,-0.0529 0.02822,0.0176 0.07761,0.0247 0.04939,0.007 0.112888,0.007 0.03175,0 0.08819,-0.0106 0.05997,-0.0106 0.130528,-0.0212 0.07055,-0.0106 0.144639,-0.0212 0.07761,-0.0106 0.144638,-0.0106 0.162278,0 0.331612,0.0847 0.169333,0.0811 0.303388,0.254 0.134056,0.16934 0.218723,0.43392 0.08819,0.26106 0.08819,0.62442 0,0.30691 -0.05292,0.52916 -0.05292,0.22225 -0.134055,0.37748 -0.08114,0.15522 -0.179917,0.25047 -0.09878,0.0917 -0.194028,0.14464 -0.09172,0.0494 -0.169333,0.067 -0.07408,0.0176 -0.109361,0.0176 -0.05292,0 -0.112889,-0.0141 -0.05997,-0.0141 -0.119944,-0.0318 -0.05645,-0.0176 -0.109361,-0.0317 -0.04939,-0.0141 -0.08467,-0.0141 -0.03881,0 -0.07056,0.0141 -0.03175,0.0106 -0.06703,0.0247 -0.03175,0.0106 -0.07056,0.0247 -0.03881,0.0106 -0.08819,0.0106 -0.01764,0 -0.03881,-0.004 -0.01764,-0.004 -0.03528,-0.0106 -0.01764,-0.007 -0.03528,-0.0176 0.02822,-0.0176 0.05644,-0.06 0.02822,-0.0459 0.05292,-0.0952 0.02822,-0.0529 0.05644,-0.11641 z m 0.518583,2.10255 q 0,0.0741 0.02469,0.11642 0.02822,0.0388 0.05997,0.0564 0.03881,0.0212 0.08467,0.0247 0.08114,0 0.141111,-0.10936 0.0635,-0.10936 0.0635,-0.2787 v -1.54869 q 0,-0.16581 -0.03175,-0.25753 -0.03175,-0.0917 -0.07408,-0.13405 -0.04233,-0.0423 -0.08467,-0.0494 -0.04233,-0.0106 -0.06703,-0.0106 -0.04233,0 -0.08114,0.0564 -0.03528,0.0564 -0.03528,0.14816 z"
           style="font-style:normal;font-variant:normal;font-weight:normal;font-stretch:normal;font-family:'Bradley Gratis';-inkscape-font-specification:'Bradley Gratis';text-align:start;text-anchor:start;fill:#00a3f2;fill-opacity:1;stroke-width:0.26458332"
           id="path20388"
           inkscape:connector-curvature="0" />
      </g>
    </g>
    <g
       style="font-style:normal;font-variant:normal;font-weight:bold;font-stretch:normal;font-size:13.3333px;line-height:1.25;font-family:Arial;-inkscape-font-specification:'Arial Bold';text-align:center;letter-spacing:0px;word-spacing:0px;text-anchor:middle;fill:#000000;fill-opacity:1;stroke:none"
       id="flowRoot1633" />
    <g
       style="font-style:normal;font-variant:normal;font-weight:normal;font-stretch:normal;font-size:3.52778px;line-height:1.25;font-family:Quarca;-inkscape-font-specification:Quarca;letter-spacing:0px;word-spacing:0px;fill:#dddddd;fill-opacity:1;stroke:none;stroke-width:0.264583"
       id="text5443-7-5-4-2"
       aria-label="AMOUNT">
      <path
         id="path17355"
         style="font-style:normal;font-variant:normal;font-weight:normal;font-stretch:normal;font-size:2.46944px;font-family:Quarca;-inkscape-font-specification:Quarca;fill:#dddddd;fill-opacity:1;stroke-width:0.264583"
         d="m 61.087119,134.07884 -0.540808,1.7533 h 0.150636 l 0.113595,-0.3803 h 0.706259 l 0.113595,0.3803 h 0.150635 l -0.538337,-1.7533 z m 0.07902,0.18767 0.311149,1.05198 h -0.627237 z" />
      <path
         id="path17357"
         style="font-style:normal;font-variant:normal;font-weight:normal;font-stretch:normal;font-size:2.46944px;font-family:Quarca;-inkscape-font-specification:Quarca;fill:#dddddd;fill-opacity:1;stroke-width:0.264583"
         d="m 62.129493,135.83214 v -1.52612 l 0.437091,0.85443 h 0.138288 l 0.43956,-0.85443 v 1.52612 h 0.13582 v -1.7533 H 63.11233 l -0.476602,0.93097 -0.474133,-0.93097 h -0.167922 v 1.7533 z" />
      <path
         id="path17359"
         style="font-style:normal;font-variant:normal;font-weight:normal;font-stretch:normal;font-size:2.46944px;font-family:Quarca;-inkscape-font-specification:Quarca;fill:#dddddd;fill-opacity:1;stroke-width:0.264583"
         d="m 63.599543,135.49136 c 0,0.22718 0.08643,0.34078 0.338313,0.34078 h 0.469193 c 0.251883,0 0.338314,-0.1136 0.338314,-0.34078 v -1.07174 c 0,-0.22719 -0.08643,-0.34078 -0.338314,-0.34078 h -0.469193 c -0.251883,0 -0.338313,0.11359 -0.338313,0.34078 z m 0.353129,-1.27917 h 0.439561 c 0.158044,0 0.212372,0.0741 0.212372,0.22965 v 1.02729 c 0,0.15558 -0.05433,0.22966 -0.212372,0.22966 h -0.439561 c -0.155574,0 -0.212371,-0.0741 -0.212371,-0.22966 v -1.02729 c 0,-0.15557 0.0568,-0.22965 0.212371,-0.22965 z" />
      <path
         id="path17361"
         style="font-style:normal;font-variant:normal;font-weight:normal;font-stretch:normal;font-size:2.46944px;font-family:Quarca;-inkscape-font-specification:Quarca;fill:#dddddd;fill-opacity:1;stroke-width:0.264583"
         d="m 65.762386,135.69879 h -0.316088 c -0.170391,0 -0.244475,-0.079 -0.244475,-0.25929 v -1.36066 h -0.140758 v 1.40017 c 0,0.23459 0.108656,0.35313 0.3556,0.35313 h 0.375355 c 0.246944,0 0.355599,-0.11854 0.355599,-0.35313 v -1.40017 h -0.143228 v 1.36066 c 0,0.18027 -0.07161,0.25929 -0.242005,0.25929 z" />
      <path
         id="path17363"
         style="font-style:normal;font-variant:normal;font-weight:normal;font-stretch:normal;font-size:2.46944px;font-family:Quarca;-inkscape-font-specification:Quarca;fill:#dddddd;fill-opacity:1;stroke-width:0.264583"
         d="m 66.615115,135.83214 v -1.50883 c 0.03704,0.0815 0.06914,0.16298 0.128411,0.26423 l 0.721076,1.2446 h 0.143228 v -1.7533 h -0.143228 v 1.50635 c -0.02716,-0.0642 -0.05186,-0.12594 -0.09878,-0.20743 l -0.750709,-1.29892 h -0.140758 v 1.7533 z" />
      <path
         id="path17365"
         style="font-style:normal;font-variant:normal;font-weight:normal;font-stretch:normal;font-size:2.46944px;font-family:Quarca;-inkscape-font-specification:Quarca;fill:#dddddd;fill-opacity:1;stroke-width:0.264583"
         d="m 68.841932,134.21219 v -0.13335 h -1.039634 v 0.13335 h 0.449438 v 1.61995 h 0.143228 v -1.61995 z" />
    </g>
    <g
       style="font-style:normal;font-variant:normal;font-weight:normal;font-stretch:normal;font-size:3.52778px;line-height:1.25;font-family:Quarca;-inkscape-font-specification:Quarca;letter-spacing:0px;word-spacing:0px;fill:#dddddd;fill-opacity:1;stroke:none;stroke-width:0.264583"
       id="text5443-7-5-4-7"
       aria-label="RANDOM">
      <path
         id="path17342"
         style="font-style:normal;font-variant:normal;font-weight:normal;font-stretch:normal;font-size:2.46944px;font-family:Quarca;-inkscape-font-specification:Quarca;fill:#dddddd;fill-opacity:1;stroke-width:0.264583"
         d="m 78.008813,135.83214 h 0.140758 v -0.70379 h 0.323497 l 0.491419,0.70379 h 0.165452 l -0.493888,-0.70379 h 0.03457 c 0.234597,0 0.348191,-0.11113 0.348191,-0.33338 v -0.38276 c 0,-0.22225 -0.113594,-0.33337 -0.348191,-0.33337 h -0.66181 z m 0.140758,-1.61995 h 0.496358 c 0.158044,0 0.229658,0.0741 0.229658,0.242 v 0.2988 c 0,0.17039 -0.07161,0.24448 -0.229658,0.24448 h -0.496358 z" />
      <path
         id="path17344"
         style="font-style:normal;font-variant:normal;font-weight:normal;font-stretch:normal;font-size:2.46944px;font-family:Quarca;-inkscape-font-specification:Quarca;fill:#dddddd;fill-opacity:1;stroke-width:0.264583"
         d="m 79.740508,134.07884 -0.540807,1.7533 h 0.150636 l 0.113594,-0.3803 h 0.70626 l 0.113594,0.3803 h 0.150636 l -0.538338,-1.7533 z m 0.07902,0.18767 0.31115,1.05198 h -0.627238 z" />
      <path
         id="path17346"
         style="font-style:normal;font-variant:normal;font-weight:normal;font-stretch:normal;font-size:2.46944px;font-family:Quarca;-inkscape-font-specification:Quarca;fill:#dddddd;fill-opacity:1;stroke-width:0.264583"
         d="m 80.787821,135.83214 v -1.50883 c 0.03704,0.0815 0.06914,0.16298 0.128411,0.26423 l 0.721076,1.2446 h 0.143228 v -1.7533 h -0.143228 v 1.50635 c -0.02716,-0.0642 -0.05186,-0.12594 -0.09878,-0.20743 l -0.75071,-1.29892 h -0.140758 v 1.7533 z" />
      <path
         id="path17348"
         style="font-style:normal;font-variant:normal;font-weight:normal;font-stretch:normal;font-size:2.46944px;font-family:Quarca;-inkscape-font-specification:Quarca;fill:#dddddd;fill-opacity:1;stroke-width:0.264583"
         d="m 82.113293,135.83214 h 0.686504 c 0.30868,0 0.434621,-0.13582 0.434621,-0.41487 v -0.92357 c 0,-0.27905 -0.125941,-0.41486 -0.434621,-0.41486 h -0.686504 z m 0.679096,-0.13335 h -0.538338 v -1.4866 h 0.538338 c 0.214841,0 0.301271,0.0963 0.301271,0.31114 v 0.86431 c 0,0.21484 -0.08643,0.31115 -0.301271,0.31115 z" />
      <path
         id="path17350"
         style="font-style:normal;font-variant:normal;font-weight:normal;font-stretch:normal;font-size:2.46944px;font-family:Quarca;-inkscape-font-specification:Quarca;fill:#dddddd;fill-opacity:1;stroke-width:0.264583"
         d="m 83.545529,135.49136 c 0,0.22718 0.08643,0.34078 0.338314,0.34078 h 0.469193 c 0.251883,0 0.338313,-0.1136 0.338313,-0.34078 v -1.07174 c 0,-0.22719 -0.08643,-0.34078 -0.338313,-0.34078 h -0.469193 c -0.251883,0 -0.338314,0.11359 -0.338314,0.34078 z m 0.35313,-1.27917 h 0.439561 c 0.158044,0 0.212371,0.0741 0.212371,0.22965 v 1.02729 c 0,0.15558 -0.05433,0.22966 -0.212371,0.22966 h -0.439561 c -0.155575,0 -0.212372,-0.0741 -0.212372,-0.22966 v -1.02729 c 0,-0.15557 0.0568,-0.22965 0.212372,-0.22965 z" />
      <path
         id="path17352"
         style="font-style:normal;font-variant:normal;font-weight:normal;font-stretch:normal;font-size:2.46944px;font-family:Quarca;-inkscape-font-specification:Quarca;fill:#dddddd;fill-opacity:1;stroke-width:0.264583"
         d="m 85.14781,135.83214 v -1.52612 l 0.437091,0.85443 h 0.138289 l 0.43956,-0.85443 v 1.52612 h 0.135819 v -1.7533 h -0.167922 l -0.476602,0.93097 -0.474132,-0.93097 h -0.167922 v 1.7533 z" />
    </g>
    <g
       style="font-style:normal;font-variant:normal;font-weight:normal;font-stretch:normal;font-size:3.52778px;line-height:1.25;font-family:Quarca;-inkscape-font-specification:Quarca;letter-spacing:0px;word-spacing:0px;fill:#dddddd;fill-opacity:1;stroke:none;stroke-width:0.264583"
       id="text5443-7-5-4-8"
       aria-label="GAUSSIAN">
      <path
         id="path17325"
         style="font-style:normal;font-variant:normal;font-weight:normal;font-stretch:normal;font-size:1.76389px;font-family:Quarca;-inkscape-font-specification:Quarca;fill:#dddddd;fill-opacity:1;stroke-width:0.264583"
         d="m 74.955524,144.58772 h 0.301625 v 0.26282 c 0,0.10231 -0.04233,0.1517 -0.155222,0.1517 h -0.278695 c -0.104069,0 -0.153458,-0.0476 -0.153458,-0.16052 v -0.72848 c 0,-0.11995 0.04057,-0.17286 0.144639,-0.17286 h 0.301625 c 0.104069,0 0.149931,0.0476 0.149931,0.16051 v 0.11289 h 0.100541 v -0.14288 c 0,-0.15698 -0.07761,-0.22577 -0.227541,-0.22577 h -0.35807 c -0.141111,0 -0.211667,0.0794 -0.211667,0.23812 v 0.79022 c 0,0.15875 0.08819,0.22402 0.229306,0.22402 h 0.328083 c 0.174625,0 0.232834,-0.0864 0.232834,-0.23813 v -0.36689 h -0.38982 z" />
      <path
         id="path17327"
         style="font-style:normal;font-variant:normal;font-weight:normal;font-stretch:normal;font-size:1.76389px;font-family:Quarca;-inkscape-font-specification:Quarca;fill:#dddddd;fill-opacity:1;stroke-width:0.264583"
         d="m 75.851112,143.84513 -0.386292,1.25236 h 0.107597 l 0.08114,-0.27164 h 0.504472 l 0.08114,0.27164 h 0.107598 l -0.384528,-1.25236 z m 0.05644,0.13405 0.22225,0.75142 h -0.448028 z" />
      <path
         id="path17329"
         style="font-style:normal;font-variant:normal;font-weight:normal;font-stretch:normal;font-size:1.76389px;font-family:Quarca;-inkscape-font-specification:Quarca;fill:#dddddd;fill-opacity:1;stroke-width:0.264583"
         d="m 76.978844,145.00224 h -0.225778 c -0.121709,0 -0.174625,-0.0565 -0.174625,-0.18521 v -0.9719 h -0.100542 v 1.00012 c 0,0.16757 0.07761,0.25224 0.254,0.25224 h 0.268111 c 0.176389,0 0.254,-0.0847 0.254,-0.25224 v -1.00012 h -0.102305 v 0.9719 c 0,0.12876 -0.05115,0.18521 -0.172861,0.18521 z" />
      <path
         id="path17331"
         style="font-style:normal;font-variant:normal;font-weight:normal;font-stretch:normal;font-size:1.76389px;font-family:Quarca;-inkscape-font-specification:Quarca;fill:#dddddd;fill-opacity:1;stroke-width:0.264583"
         d="m 77.993632,144.57714 c 0.08819,0.037 0.111125,0.067 0.111125,0.15346 v 0.12171 c 0,0.10583 -0.0441,0.14993 -0.144639,0.14993 H 77.69377 c -0.100541,0 -0.146403,-0.0441 -0.146403,-0.14993 v -0.13229 h -0.100541 v 0.15698 c 0,0.14641 0.06879,0.22049 0.231069,0.22049 h 0.310445 c 0.146403,0 0.218722,-0.0741 0.218722,-0.22049 v -0.17286 c 0,-0.12524 -0.04762,-0.16933 -0.176389,-0.22578 l -0.361597,-0.15346 c -0.0829,-0.0353 -0.10407,-0.0688 -0.10407,-0.1464 v -0.0776 c 0,-0.11994 0.03881,-0.16051 0.151695,-0.16051 h 0.220486 c 0.100542,0 0.149931,0.0459 0.149931,0.15522 v 0.11818 h 0.102305 v -0.14288 c 0,-0.15875 -0.07585,-0.22577 -0.238125,-0.22577 h -0.261055 c -0.155223,0 -0.225778,0.0688 -0.225778,0.22577 v 0.12348 c 0,0.127 0.04233,0.17286 0.174625,0.23107 z" />
      <path
         id="path17333"
         style="font-style:normal;font-variant:normal;font-weight:normal;font-stretch:normal;font-size:1.76389px;font-family:Quarca;-inkscape-font-specification:Quarca;fill:#dddddd;fill-opacity:1;stroke-width:0.264583"
         d="m 78.913473,144.57714 c 0.08819,0.037 0.111125,0.067 0.111125,0.15346 v 0.12171 c 0,0.10583 -0.0441,0.14993 -0.144639,0.14993 h -0.266347 c -0.100542,0 -0.146403,-0.0441 -0.146403,-0.14993 v -0.13229 h -0.100542 v 0.15698 c 0,0.14641 0.06879,0.22049 0.23107,0.22049 h 0.310444 c 0.146403,0 0.218723,-0.0741 0.218723,-0.22049 v -0.17286 c 0,-0.12524 -0.04762,-0.16933 -0.176389,-0.22578 l -0.361598,-0.15346 c -0.0829,-0.0353 -0.104069,-0.0688 -0.104069,-0.1464 v -0.0776 c 0,-0.11994 0.0388,-0.16051 0.151694,-0.16051 h 0.220486 c 0.100542,0 0.149931,0.0459 0.149931,0.15522 v 0.11818 h 0.102306 v -0.14288 c 0,-0.15875 -0.07585,-0.22577 -0.238125,-0.22577 h -0.261056 c -0.155223,0 -0.225778,0.0688 -0.225778,0.22577 v 0.12348 c 0,0.127 0.04233,0.17286 0.174625,0.23107 z" />
      <path
         id="path17335"
         style="font-style:normal;font-variant:normal;font-weight:normal;font-stretch:normal;font-size:1.76389px;font-family:Quarca;-inkscape-font-specification:Quarca;fill:#dddddd;fill-opacity:1;stroke-width:0.264583"
         d="m 79.427619,145.09749 v -1.25236 h -0.100542 v 1.25236 z" />
      <path
         id="path17337"
         style="font-style:normal;font-variant:normal;font-weight:normal;font-stretch:normal;font-size:1.76389px;font-family:Quarca;-inkscape-font-specification:Quarca;fill:#dddddd;fill-opacity:1;stroke-width:0.264583"
         d="m 79.964558,143.84513 -0.386292,1.25236 h 0.107598 l 0.08114,-0.27164 h 0.504472 l 0.08114,0.27164 h 0.107597 l -0.384528,-1.25236 z m 0.05644,0.13405 0.22225,0.75142 h -0.448028 z" />
      <path
         id="path17339"
         style="font-style:normal;font-variant:normal;font-weight:normal;font-stretch:normal;font-size:1.76389px;font-family:Quarca;-inkscape-font-specification:Quarca;fill:#dddddd;fill-opacity:1;stroke-width:0.264583"
         d="m 80.712641,145.09749 v -1.07774 c 0.02646,0.0582 0.04939,0.11642 0.09172,0.18874 l 0.515056,0.889 h 0.102306 v -1.25236 h -0.102306 v 1.07597 c -0.0194,-0.0459 -0.03704,-0.09 -0.07056,-0.14817 l -0.536222,-0.9278 h -0.100542 v 1.25236 z" />
    </g>
    <g
       style="font-style:normal;font-variant:normal;font-weight:normal;font-stretch:normal;font-size:3.52778px;line-height:1.25;font-family:Quarca;-inkscape-font-specification:Quarca;letter-spacing:0px;word-spacing:0px;fill:#dddddd;fill-opacity:1;stroke:none;stroke-width:0.264583"
       id="text5443-0-6"
       aria-label="BEAT">
      <path
         id="path17316"
         style="font-style:normal;font-variant:normal;font-weight:normal;font-stretch:normal;font-size:2.11667px;font-family:Quarca;-inkscape-font-specification:Quarca;fill:#dddddd;fill-opacity:1;stroke-width:0.264583"
         d="m 38.850477,131.89381 h 0.588434 c 0.226484,0 0.328084,-0.0974 0.328084,-0.2921 v -0.20531 c 0,-0.20532 -0.110067,-0.2794 -0.245534,-0.28999 0.114301,-0.0233 0.167217,-0.0995 0.167217,-0.23918 v -0.18415 c 0,-0.19473 -0.112183,-0.2921 -0.34925,-0.2921 h -0.488951 z m 0.12065,-0.72813 h 0.402167 c 0.188384,0 0.273051,0.072 0.273051,0.23707 v 0.17568 c 0,0.13547 -0.06985,0.20108 -0.226484,0.20108 h -0.448734 z m 0,-0.6604 h 0.340784 c 0.175684,0 0.256117,0.0593 0.256117,0.20532 v 0.14816 c 0,0.12065 -0.06562,0.19474 -0.213784,0.19474 h -0.383117 z" />
      <path
         id="path17318"
         style="font-style:normal;font-variant:normal;font-weight:normal;font-stretch:normal;font-size:2.11667px;font-family:Quarca;-inkscape-font-specification:Quarca;fill:#dddddd;fill-opacity:1;stroke-width:0.264583"
         d="m 40.124547,130.50528 h 0.679451 l 0.01693,-0.1143 h -0.817034 v 1.50283 h 0.804334 l 0.01693,-0.1143 h -0.700618 v -0.45931 h 0.569384 l 0.01693,-0.11219 h -0.586317 z" />
      <path
         id="path17320"
         style="font-style:normal;font-variant:normal;font-weight:normal;font-stretch:normal;font-size:2.11667px;font-family:Quarca;-inkscape-font-specification:Quarca;fill:#dddddd;fill-opacity:1;stroke-width:0.264583"
         d="m 41.380724,130.39098 -0.46355,1.50283 h 0.129117 l 0.09737,-0.32596 h 0.605368 l 0.09737,0.32596 h 0.129117 l -0.461434,-1.50283 z m 0.06773,0.16087 0.2667,0.9017 h -0.537634 z" />
      <path
         id="path17322"
         style="font-style:normal;font-variant:normal;font-weight:normal;font-stretch:normal;font-size:2.11667px;font-family:Quarca;-inkscape-font-specification:Quarca;fill:#dddddd;fill-opacity:1;stroke-width:0.264583"
         d="m 42.798066,130.50528 v -0.1143 h -0.891118 v 0.1143 h 0.385234 v 1.38853 h 0.122767 v -1.38853 z" />
    </g>
    <g
       style="font-style:normal;font-variant:normal;font-weight:normal;font-stretch:normal;font-size:3.52778px;line-height:1.25;font-family:Quarca;-inkscape-font-specification:Quarca;letter-spacing:0px;word-spacing:0px;fill:#dddddd;fill-opacity:1;stroke:none;stroke-width:0.264583"
       id="text5443-0-6-1"
       aria-label="TRACKS">
      <path
         id="path17303"
         style="font-style:normal;font-variant:normal;font-weight:normal;font-stretch:normal;font-size:2.11667px;font-family:Quarca;-inkscape-font-specification:Quarca;fill:#dddddd;fill-opacity:1;stroke-width:0.264583"
         d="m 48.982963,130.49214 v -0.1143 h -0.891118 v 0.1143 h 0.385234 v 1.38854 h 0.122767 v -1.38854 z" />
      <path
         id="path17305"
         style="font-style:normal;font-variant:normal;font-weight:normal;font-stretch:normal;font-size:2.11667px;font-family:Quarca;-inkscape-font-specification:Quarca;fill:#dddddd;fill-opacity:1;stroke-width:0.264583"
         d="m 49.148824,131.88068 h 0.12065 v -0.60325 h 0.277284 l 0.421217,0.60325 h 0.141817 l -0.423334,-0.60325 h 0.02963 c 0.201084,0 0.298451,-0.0953 0.298451,-0.28576 v -0.32808 c 0,-0.1905 -0.09737,-0.28575 -0.298451,-0.28575 h -0.567267 z m 0.12065,-1.38854 h 0.425451 c 0.135467,0 0.19685,0.0635 0.19685,0.20743 v 0.25612 c 0,0.14605 -0.06138,0.20955 -0.19685,0.20955 h -0.425451 z" />
      <path
         id="path17307"
         style="font-style:normal;font-variant:normal;font-weight:normal;font-stretch:normal;font-size:2.11667px;font-family:Quarca;-inkscape-font-specification:Quarca;fill:#dddddd;fill-opacity:1;stroke-width:0.264583"
         d="m 50.633139,130.37784 -0.463551,1.50284 h 0.129117 l 0.09737,-0.32597 h 0.605367 l 0.09737,0.32597 h 0.129117 l -0.461434,-1.50284 z m 0.06773,0.16087 0.2667,0.9017 h -0.537634 z" />
      <path
         id="path17309"
         style="font-style:normal;font-variant:normal;font-weight:normal;font-stretch:normal;font-size:2.11667px;font-family:Quarca;-inkscape-font-specification:Quarca;fill:#dddddd;fill-opacity:1;stroke-width:0.264583"
         d="m 51.704405,131.76638 c -0.13335,0 -0.182034,-0.0635 -0.182034,-0.19685 v -0.88054 c 0,-0.13335 0.04868,-0.19685 0.182034,-0.19685 h 0.342901 c 0.13335,0 0.182033,0.0635 0.182033,0.19685 v 0.13758 h 0.12065 v -0.15663 c 0,-0.19473 -0.07408,-0.2921 -0.289983,-0.2921 h -0.368301 c -0.2159,0 -0.289984,0.0974 -0.289984,0.2921 v 0.91864 c 0,0.19473 0.07408,0.2921 0.289984,0.2921 h 0.368301 c 0.2159,0 0.289983,-0.0974 0.289983,-0.2921 v -0.16087 h -0.12065 v 0.14182 c 0,0.13335 -0.04868,0.19685 -0.182033,0.19685 z" />
      <path
         id="path17311"
         style="font-style:normal;font-variant:normal;font-weight:normal;font-stretch:normal;font-size:2.11667px;font-family:Quarca;-inkscape-font-specification:Quarca;fill:#dddddd;fill-opacity:1;stroke-width:0.264583"
         d="m 52.704929,131.88068 v -0.71967 l 0.622301,0.71967 h 0.141816 l -0.649817,-0.75142 0.637117,-0.75142 h -0.13335 l -0.618067,0.71967 v -0.71967 h -0.120651 v 1.50284 z" />
      <path
         id="path17313"
         style="font-style:normal;font-variant:normal;font-weight:normal;font-stretch:normal;font-size:2.11667px;font-family:Quarca;-inkscape-font-specification:Quarca;fill:#dddddd;fill-opacity:1;stroke-width:0.264583"
         d="m 54.208757,131.25626 c 0.105833,0.0445 0.13335,0.0804 0.13335,0.18415 v 0.14605 c 0,0.127 -0.05292,0.17992 -0.173567,0.17992 h -0.319617 c -0.12065,0 -0.175684,-0.0529 -0.175684,-0.17992 v -0.15875 h -0.12065 v 0.18838 c 0,0.17569 0.08255,0.26459 0.277284,0.26459 h 0.372534 c 0.175683,0 0.262467,-0.0889 0.262467,-0.26459 v -0.20743 c 0,-0.15028 -0.05715,-0.2032 -0.211667,-0.27093 l -0.433918,-0.18416 c -0.09948,-0.0423 -0.124883,-0.0826 -0.124883,-0.17568 v -0.0931 c 0,-0.14394 0.04657,-0.19262 0.182033,-0.19262 h 0.264584 c 0.12065,0 0.179917,0.055 0.179917,0.18627 v 0.14181 h 0.122767 v -0.17145 c 0,-0.1905 -0.09102,-0.27093 -0.28575,-0.27093 h -0.313268 c -0.186267,0 -0.270933,0.0825 -0.270933,0.27093 v 0.14817 c 0,0.1524 0.0508,0.20743 0.20955,0.27729 z" />
    </g>
    <g
       style="font-style:normal;font-variant:normal;font-weight:normal;font-stretch:normal;font-size:3.52778px;line-height:1.25;font-family:Quarca;-inkscape-font-specification:Quarca;letter-spacing:0px;word-spacing:0px;fill:#dddddd;fill-opacity:1;stroke:none;stroke-width:0.264583"
       id="text5443-0-6-2"
       aria-label="L=T">
      <path
         id="path17296"
         style="font-style:normal;font-variant:normal;font-weight:normal;font-stretch:normal;font-size:1.76389px;font-family:Quarca;-inkscape-font-specification:Quarca;fill:#dddddd;fill-opacity:1;stroke-width:0.264583"
         d="m 39.645614,143.34133 h -0.100542 v 1.25236 h 0.642056 l 0.01411,-0.0953 h -0.555625 z" />
      <path
         id="path17298"
         style="font-style:normal;font-variant:normal;font-weight:normal;font-stretch:normal;font-size:1.76389px;font-family:Quarca;-inkscape-font-specification:Quarca;fill:#dddddd;fill-opacity:1;stroke-width:0.264583"
         d="m 40.508542,144.04512 h 0.252236 l 0.0071,-0.0388 h -0.254001 z m 0,0.12171 h 0.252236 l 0.0071,-0.0388 h -0.254001 z" />
      <path
         id="path17300"
         style="font-style:normal;font-variant:normal;font-weight:normal;font-stretch:normal;font-size:1.76389px;font-family:Quarca;-inkscape-font-specification:Quarca;fill:#dddddd;fill-opacity:1;stroke-width:0.264583"
         d="m 41.818423,143.43658 v -0.0952 h -0.742598 v 0.0952 h 0.321028 v 1.15711 h 0.102306 v -1.15711 z" />
    </g>
    <g
       style="font-style:normal;font-variant:normal;font-weight:normal;font-stretch:normal;font-size:3.52778px;line-height:1.25;font-family:Quarca;-inkscape-font-specification:Quarca;letter-spacing:0px;word-spacing:0px;fill:#dddddd;fill-opacity:1;stroke:none;stroke-width:0.264583"
       id="text5443-0-6-2-2"
       aria-label="1">
      <path
         id="path17293"
         style="font-style:normal;font-variant:normal;font-weight:normal;font-stretch:normal;font-size:2.11667px;font-family:Quarca;-inkscape-font-specification:Quarca;fill:#dddddd;fill-opacity:1;stroke-width:0.264583"
         d="m 39.214547,64.676506 h 0.120651 V 63.17367 h -0.10795 l -0.196851,0.139701 v 0.127 l 0.18415,-0.13335 z" />
    </g>
    <g
       style="font-style:normal;font-variant:normal;font-weight:normal;font-stretch:normal;font-size:3.52778px;line-height:1.25;font-family:Quarca;-inkscape-font-specification:Quarca;letter-spacing:0px;word-spacing:0px;fill:#dddddd;fill-opacity:1;stroke:none;stroke-width:0.264583"
       id="text5443-0-6-2-2-9"
       aria-label="2">
      <path
         id="path17290"
         style="font-style:normal;font-variant:normal;font-weight:normal;font-stretch:normal;font-size:2.11667px;font-family:Quarca;-inkscape-font-specification:Quarca;fill:#dddddd;fill-opacity:1;stroke-width:0.264583"
         d="m 39.432565,76.468456 h -0.484718 v -0.2159 c 0,-0.105834 0.04657,-0.173567 0.135467,-0.213784 l 0.444501,-0.198967 c 0.1143,-0.0508 0.1905,-0.122767 0.1905,-0.273051 v -0.194733 c 0,-0.194734 -0.07408,-0.292101 -0.2921,-0.292101 h -0.302684 c -0.2159,0 -0.292101,0.09737 -0.292101,0.292101 v 0.150283 h 0.122767 v -0.131233 c 0,-0.13335 0.04657,-0.19685 0.182034,-0.19685 h 0.2794 c 0.13335,0 0.179917,0.0635 0.179917,0.19685 v 0.156633 c 0,0.0889 -0.02328,0.148167 -0.110067,0.186267 l -0.446617,0.198967 c -0.122767,0.05503 -0.213784,0.137584 -0.213784,0.304801 v 0.345017 h 0.618068 c 0.218017,0 0.2921,-0.09737 0.2921,-0.2921 v -0.160867 h -0.122766 v 0.141817 c 0,0.13335 -0.04657,0.19685 -0.179917,0.19685 z" />
    </g>
    <g
       style="font-style:normal;font-variant:normal;font-weight:normal;font-stretch:normal;font-size:3.52778px;line-height:1.25;font-family:Quarca;-inkscape-font-specification:Quarca;letter-spacing:0px;word-spacing:0px;fill:#dddddd;fill-opacity:1;stroke:none;stroke-width:0.264583"
       id="text5443-0-6-2-2-3"
       aria-label="7">
      <path
         id="path17287"
         style="font-style:normal;font-variant:normal;font-weight:normal;font-stretch:normal;font-size:2.11667px;font-family:Quarca;-inkscape-font-specification:Quarca;fill:#dddddd;fill-opacity:1;stroke-width:0.264583"
         d="m 56.226195,63.287971 h 0.738717 v 0.201083 c 0,0.07408 -0.0127,0.156634 -0.05503,0.224367 l -0.601134,0.963085 h 0.143933 l 0.567268,-0.912285 c 0.04445,-0.07197 0.06562,-0.154517 0.06562,-0.256117 V 63.17367 h -0.859368 z" />
    </g>
    <g
       style="font-style:normal;font-variant:normal;font-weight:normal;font-stretch:normal;font-size:3.52778px;line-height:1.25;font-family:Quarca;-inkscape-font-specification:Quarca;letter-spacing:0px;word-spacing:0px;fill:#dddddd;fill-opacity:1;stroke:none;stroke-width:0.264583"
       id="text5443-0-6-2-2-3-9"
       aria-label="13">
      <path
         id="path17282"
         style="font-style:normal;font-variant:normal;font-weight:normal;font-stretch:normal;font-size:2.11667px;font-family:Quarca;-inkscape-font-specification:Quarca;fill:#dddddd;fill-opacity:1;stroke-width:0.264583"
         d="m 72.816633,64.676506 h 0.12065 V 63.17367 h -0.10795 l -0.196851,0.139701 v 0.127 l 0.184151,-0.13335 z" />
      <path
         id="path17284"
         style="font-style:normal;font-variant:normal;font-weight:normal;font-stretch:normal;font-size:2.11667px;font-family:Quarca;-inkscape-font-specification:Quarca;fill:#dddddd;fill-opacity:1;stroke-width:0.264583"
         d="m 73.828599,64.562206 h -0.3302 c -0.13335,0 -0.179917,-0.0635 -0.179917,-0.19685 v -0.135467 h -0.122767 v 0.154517 c 0,0.194733 0.0762,0.2921 0.2921,0.2921 h 0.353484 c 0.213784,0 0.289984,-0.09737 0.289984,-0.2921 v -0.273051 c 0,-0.150283 -0.09737,-0.19685 -0.1905,-0.205317 0.06773,-0.0127 0.127,-0.06562 0.127,-0.175683 v -0.270934 c 0,-0.1905 -0.07408,-0.285751 -0.28575,-0.285751 h -0.251884 c -0.215901,0 -0.292101,0.09737 -0.292101,0.292101 v 0.150283 h 0.122767 v -0.131233 c 0,-0.13335 0.04657,-0.19685 0.179917,-0.19685 h 0.224367 c 0.131234,0 0.179917,0.0635 0.179917,0.19685 v 0.2159 c 0,0.09313 -0.04657,0.1524 -0.1524,0.1524 h -0.311151 v 0.114301 h 0.345018 c 0.09313,0 0.182033,0.04657 0.182033,0.1651 v 0.232834 c 0,0.13335 -0.04657,0.19685 -0.179917,0.19685 z" />
    </g>
    <g
       style="font-style:normal;font-variant:normal;font-weight:normal;font-stretch:normal;font-size:3.52778px;line-height:1.25;font-family:Quarca;-inkscape-font-specification:Quarca;letter-spacing:0px;word-spacing:0px;fill:#dddddd;fill-opacity:1;stroke:none;stroke-width:0.264583"
       id="text5443-0-6-2-2-9-1"
       aria-label="3">
      <path
         id="path17279"
         style="font-style:normal;font-variant:normal;font-weight:normal;font-stretch:normal;font-size:2.11667px;font-family:Quarca;-inkscape-font-specification:Quarca;fill:#dddddd;fill-opacity:1;stroke-width:0.264583"
         d="m 39.441031,88.374706 h -0.3302 c -0.13335,0 -0.179917,-0.0635 -0.179917,-0.19685 v -0.135467 h -0.122767 v 0.154517 c 0,0.194733 0.0762,0.2921 0.2921,0.2921 h 0.353484 c 0.213784,0 0.289984,-0.09737 0.289984,-0.2921 v -0.273051 c 0,-0.150283 -0.09737,-0.19685 -0.1905,-0.205317 0.06773,-0.0127 0.127,-0.06562 0.127,-0.175683 v -0.270934 c 0,-0.1905 -0.07408,-0.285751 -0.28575,-0.285751 h -0.251884 c -0.2159,0 -0.292101,0.09737 -0.292101,0.292101 v 0.150283 h 0.122767 v -0.131233 c 0,-0.13335 0.04657,-0.19685 0.179917,-0.19685 h 0.224367 c 0.131234,0 0.179917,0.0635 0.179917,0.19685 v 0.2159 c 0,0.09313 -0.04657,0.1524 -0.1524,0.1524 h -0.311151 v 0.114301 h 0.345018 c 0.09313,0 0.182033,0.04657 0.182033,0.1651 v 0.232834 c 0,0.13335 -0.04657,0.19685 -0.179917,0.19685 z" />
    </g>
    <g
       style="font-style:normal;font-variant:normal;font-weight:normal;font-stretch:normal;font-size:3.52778px;line-height:1.25;font-family:Quarca;-inkscape-font-specification:Quarca;letter-spacing:0px;word-spacing:0px;fill:#dddddd;fill-opacity:1;stroke:none;stroke-width:0.264583"
       id="text5443-0-6-2-2-9-5"
       aria-label="4">
      <path
         id="path17276"
         style="font-style:normal;font-variant:normal;font-weight:normal;font-stretch:normal;font-size:2.11667px;font-family:Quarca;-inkscape-font-specification:Quarca;fill:#dddddd;fill-opacity:1;stroke-width:0.264583"
         d="m 38.791214,100.11163 h 0.687917 v 0.28363 h 0.120651 v -0.28363 h 0.2159 l 0.01693,-0.1143 h -0.232833 v -0.427568 h -0.02752 l -0.09313,0.02328 v 0.404284 h -0.567267 v -0.234951 c 0,-0.0635 0.01905,-0.127 0.07197,-0.188383 l 0.590551,-0.681568 h -0.148167 l -0.550335,0.630768 c -0.0508,0.05715 -0.08467,0.135467 -0.08467,0.226483 z" />
    </g>
    <g
       style="font-style:normal;font-variant:normal;font-weight:normal;font-stretch:normal;font-size:3.52778px;line-height:1.25;font-family:Quarca;-inkscape-font-specification:Quarca;letter-spacing:0px;word-spacing:0px;fill:#dddddd;fill-opacity:1;stroke:none;stroke-width:0.264583"
       id="text5443-0-6-2-2-9-3"
       aria-label="5">
      <path
         id="path17273"
         style="font-style:normal;font-variant:normal;font-weight:normal;font-stretch:normal;font-size:2.11667px;font-family:Quarca;-inkscape-font-specification:Quarca;fill:#dddddd;fill-opacity:1;stroke-width:0.264583"
         d="m 39.398698,112.17239 h -0.279401 c -0.13335,0 -0.182033,-0.0635 -0.182033,-0.19685 v -0.14182 h -0.12065 v 0.16087 c 0,0.19473 0.07408,0.2921 0.289983,0.2921 h 0.304801 c 0.2159,0 0.289984,-0.0974 0.289984,-0.2921 v -0.34078 c 0,-0.19262 -0.09102,-0.28575 -0.285751,-0.28575 h -0.433917 v -0.46991 h 0.683684 l 0.01693,-0.1143 h -0.823385 v 0.69851 h 0.533401 c 0.131233,0 0.188384,0.0656 0.188384,0.20955 v 0.28363 c 0,0.13335 -0.04868,0.19685 -0.182034,0.19685 z" />
    </g>
    <g
       style="font-style:normal;font-variant:normal;font-weight:normal;font-stretch:normal;font-size:3.52778px;line-height:1.25;font-family:Quarca;-inkscape-font-specification:Quarca;letter-spacing:0px;word-spacing:0px;fill:#dddddd;fill-opacity:1;stroke:none;stroke-width:0.264583"
       id="text5443-0-6-2-2-9-0"
       aria-label="6">
      <path
         id="path17270"
         style="font-style:normal;font-variant:normal;font-weight:normal;font-stretch:normal;font-size:2.11667px;font-family:Quarca;-inkscape-font-specification:Quarca;fill:#dddddd;fill-opacity:1;stroke-width:0.264583"
         d="m 39.775465,123.59181 c 0,-0.1778 -0.08043,-0.26458 -0.256117,-0.26458 h -0.518584 v -0.31538 c 0,-0.13547 0.05292,-0.19262 0.1778,-0.19262 h 0.292101 c 0.135467,0 0.18415,0.0593 0.18415,0.19473 v 0.13335 h 0.12065 v -0.15663 c 0,-0.2159 -0.09525,-0.28575 -0.28575,-0.28575 h -0.323851 c -0.2159,0 -0.287867,0.0952 -0.287867,0.28575 v 0.9398 c 0,0.1778 0.07197,0.27728 0.287867,0.27728 h 0.338667 c 0.190501,0 0.270934,-0.0931 0.270934,-0.27728 z m -0.12065,0.0339 v 0.27517 c 0,0.13546 -0.05292,0.19261 -0.1778,0.19261 h -0.302684 c -0.122767,0 -0.173567,-0.0656 -0.173567,-0.1905 v -0.46355 h 0.484717 c 0.116417,0 0.169334,0.0635 0.169334,0.18627 z" />
    </g>
    <g
       style="font-style:normal;font-variant:normal;font-weight:normal;font-stretch:normal;font-size:3.52778px;line-height:1.25;font-family:Quarca;-inkscape-font-specification:Quarca;letter-spacing:0px;word-spacing:0px;fill:#dddddd;fill-opacity:1;stroke:none;stroke-width:0.264583"
       id="text5443-0-6-2-2-3-0"
       aria-label="8">
      <path
         id="path17267"
         style="font-style:normal;font-variant:normal;font-weight:normal;font-stretch:normal;font-size:2.11667px;font-family:Quarca;-inkscape-font-specification:Quarca;fill:#dddddd;fill-opacity:1;stroke-width:0.264583"
         d="m 56.497128,75.778419 c -0.08255,0.01693 -0.175683,0.05927 -0.175683,0.224367 v 0.275167 c 0,0.194733 0.07408,0.2921 0.289984,0.2921 h 0.359833 c 0.215901,0 0.289984,-0.09737 0.289984,-0.2921 v -0.275167 c 0,-0.165101 -0.0889,-0.207434 -0.160867,-0.224367 0.07408,-0.02328 0.09737,-0.08043 0.09737,-0.188384 v -0.230717 c 0,-0.194734 -0.07408,-0.292101 -0.289984,-0.292101 h -0.232833 c -0.215901,0 -0.289984,0.09737 -0.289984,0.292101 v 0.230717 c 0,0.10795 0.02752,0.1651 0.112183,0.188384 z m 0.459318,0.06138 c 0.09737,0 0.18415,0.03387 0.18415,0.1651 v 0.254001 c 0,0.13335 -0.04868,0.19685 -0.182034,0.19685 h -0.334433 c -0.133351,0 -0.182034,-0.0635 -0.182034,-0.19685 v -0.254001 c 0,-0.135467 0.0889,-0.1651 0.18415,-0.1651 z m -0.268817,-0.658284 h 0.207433 c 0.133351,0 0.182034,0.0635 0.182034,0.19685 v 0.194734 c 0,0.127 -0.05927,0.1524 -0.192617,0.1524 h -0.18415 c -0.13335,0 -0.194734,-0.0254 -0.194734,-0.1524 v -0.194734 c 0,-0.13335 0.04868,-0.19685 0.182034,-0.19685 z" />
    </g>
    <g
       style="font-style:normal;font-variant:normal;font-weight:normal;font-stretch:normal;font-size:3.52778px;line-height:1.25;font-family:Quarca;-inkscape-font-specification:Quarca;letter-spacing:0px;word-spacing:0px;fill:#dddddd;fill-opacity:1;stroke:none;stroke-width:0.264583"
       id="text5443-0-6-2-2-3-5"
       aria-label="9">
      <path
         id="path17264"
         style="font-style:normal;font-variant:normal;font-weight:normal;font-stretch:normal;font-size:2.11667px;font-family:Quarca;-inkscape-font-specification:Quarca;fill:#dddddd;fill-opacity:1;stroke-width:0.264583"
         d="m 56.856962,88.374706 h -0.258233 c -0.131234,0 -0.177801,-0.0635 -0.177801,-0.19685 v -0.135467 h -0.122767 v 0.154517 c 0,0.194733 0.0762,0.2921 0.292101,0.2921 h 0.2794 c 0.215901,0 0.289984,-0.09737 0.289984,-0.2921 v -0.918635 c 0,-0.194734 -0.07408,-0.292101 -0.289984,-0.292101 h -0.2794 c -0.2159,0 -0.292101,0.09737 -0.292101,0.292101 v 0.256117 c 0,0.186267 0.06773,0.2794 0.266701,0.2794 h 0.474134 v 0.364068 c 0,0.13335 -0.04657,0.19685 -0.182034,0.19685 z m 0,-1.274235 c 0.135467,0 0.182034,0.0635 0.182034,0.19685 v 0.402167 h -0.440267 c -0.131234,0 -0.177801,-0.0635 -0.177801,-0.198967 v -0.2032 c 0,-0.13335 0.04657,-0.19685 0.179917,-0.19685 z" />
    </g>
    <g
       style="font-style:normal;font-variant:normal;font-weight:normal;font-stretch:normal;font-size:3.52778px;line-height:1.25;font-family:Quarca;-inkscape-font-specification:Quarca;letter-spacing:0px;word-spacing:0px;fill:#dddddd;fill-opacity:1;stroke:none;stroke-width:0.264583"
       id="text5443-0-6-2-2-3-6"
       aria-label="12">
      <path
         id="path17259"
         style="font-style:normal;font-variant:normal;font-weight:normal;font-stretch:normal;font-size:2.11667px;font-family:Quarca;-inkscape-font-specification:Quarca;fill:#dddddd;fill-opacity:1;stroke-width:0.264583"
         d="m 55.883294,124.20776 h 0.120651 v -1.50283 h -0.107951 l -0.19685,0.1397 v 0.127 l 0.18415,-0.13335 z" />
      <path
         id="path17261"
         style="font-style:normal;font-variant:normal;font-weight:normal;font-stretch:normal;font-size:2.11667px;font-family:Quarca;-inkscape-font-specification:Quarca;fill:#dddddd;fill-opacity:1;stroke-width:0.264583"
         d="m 56.886794,124.09346 h -0.484717 v -0.2159 c 0,-0.10583 0.04657,-0.17356 0.135467,-0.21378 l 0.444501,-0.19897 c 0.1143,-0.0508 0.1905,-0.12276 0.1905,-0.27305 v -0.19473 c 0,-0.19474 -0.07408,-0.2921 -0.292101,-0.2921 h -0.302683 c -0.215901,0 -0.292101,0.0974 -0.292101,0.2921 v 0.15028 h 0.122767 v -0.13123 c 0,-0.13335 0.04657,-0.19685 0.182034,-0.19685 h 0.2794 c 0.13335,0 0.179917,0.0635 0.179917,0.19685 v 0.15663 c 0,0.0889 -0.02328,0.14817 -0.110067,0.18627 l -0.446617,0.19897 c -0.122767,0.055 -0.213784,0.13758 -0.213784,0.3048 v 0.34501 h 0.618068 c 0.218017,0 0.2921,-0.0974 0.2921,-0.2921 v -0.16086 h -0.122767 v 0.14181 c 0,0.13335 -0.04657,0.19685 -0.179917,0.19685 z" />
    </g>
    <g
       style="font-style:normal;font-variant:normal;font-weight:normal;font-stretch:normal;font-size:3.52778px;line-height:1.25;font-family:Quarca;-inkscape-font-specification:Quarca;letter-spacing:0px;word-spacing:0px;fill:#dddddd;fill-opacity:1;stroke:none;stroke-width:0.264583"
       id="text5443-0-6-2-2-3-7"
       aria-label="11">
      <path
         id="path17254"
         style="font-style:normal;font-variant:normal;font-weight:normal;font-stretch:normal;font-size:2.11667px;font-family:Quarca;-inkscape-font-specification:Quarca;fill:#dddddd;fill-opacity:1;stroke-width:0.264583"
         d="m 55.883294,112.30151 h 0.120651 v -1.50283 h -0.107951 l -0.19685,0.1397 v 0.127 l 0.18415,-0.13335 z" />
      <path
         id="path17256"
         style="font-style:normal;font-variant:normal;font-weight:normal;font-stretch:normal;font-size:2.11667px;font-family:Quarca;-inkscape-font-specification:Quarca;fill:#dddddd;fill-opacity:1;stroke-width:0.264583"
         d="m 56.404194,112.30151 h 0.12065 v -1.50283 h -0.10795 l -0.196851,0.1397 v 0.127 l 0.184151,-0.13335 z" />
    </g>
    <g
       style="font-style:normal;font-variant:normal;font-weight:normal;font-stretch:normal;font-size:3.52778px;line-height:1.25;font-family:Quarca;-inkscape-font-specification:Quarca;letter-spacing:0px;word-spacing:0px;fill:#dddddd;fill-opacity:1;stroke:none;stroke-width:0.264583"
       id="text5443-0-6-2-2-3-73"
       aria-label="10">
      <path
         id="path17249"
         style="font-style:normal;font-variant:normal;font-weight:normal;font-stretch:normal;font-size:2.11667px;font-family:Quarca;-inkscape-font-specification:Quarca;fill:#dddddd;fill-opacity:1;stroke-width:0.264583"
         d="m 55.883294,100.38044 h 0.120651 v -1.502836 h -0.107951 l -0.19685,0.1397 v 0.127001 l 0.18415,-0.133351 z" />
      <path
         id="path17251"
         style="font-style:normal;font-variant:normal;font-weight:normal;font-stretch:normal;font-size:2.11667px;font-family:Quarca;-inkscape-font-specification:Quarca;fill:#dddddd;fill-opacity:1;stroke-width:0.264583"
         d="m 56.332227,100.08834 c 0,0.19473 0.07408,0.2921 0.2921,0.2921 h 0.345018 c 0.2159,0 0.289983,-0.0974 0.289983,-0.2921 v -0.918635 c 0,-0.194734 -0.07408,-0.292101 -0.289983,-0.292101 h -0.345018 c -0.218017,0 -0.2921,0.09737 -0.2921,0.292101 z m 0.302684,-1.096436 h 0.321734 c 0.13335,0 0.182033,0.0635 0.182033,0.196851 v 0.880535 c 0,0.13335 -0.04868,0.19685 -0.182033,0.19685 h -0.321734 c -0.133351,0 -0.179917,-0.0635 -0.179917,-0.19685 v -0.880535 c 0,-0.133351 0.04657,-0.196851 0.179917,-0.196851 z" />
    </g>
    <g
       style="font-style:normal;font-variant:normal;font-weight:normal;font-stretch:normal;font-size:3.52778px;line-height:1.25;font-family:Quarca;-inkscape-font-specification:Quarca;letter-spacing:0px;word-spacing:0px;fill:#dddddd;fill-opacity:1;stroke:none;stroke-width:0.264583"
       id="text5443-0-6-2-2-3-9-2"
       aria-label="14">
      <path
         id="path17244"
         style="font-style:normal;font-variant:normal;font-weight:normal;font-stretch:normal;font-size:2.11667px;font-family:Quarca;-inkscape-font-specification:Quarca;fill:#dddddd;fill-opacity:1;stroke-width:0.264583"
         d="m 72.816633,76.582756 h 0.12065 V 75.07992 h -0.10795 l -0.196851,0.139701 v 0.127 l 0.184151,-0.13335 z" />
      <path
         id="path17246"
         style="font-style:normal;font-variant:normal;font-weight:normal;font-stretch:normal;font-size:2.11667px;font-family:Quarca;-inkscape-font-specification:Quarca;fill:#dddddd;fill-opacity:1;stroke-width:0.264583"
         d="m 73.178782,76.299122 h 0.687917 v 0.283634 h 0.12065 v -0.283634 h 0.215901 l 0.01693,-0.1143 h -0.232834 v -0.427567 h -0.02752 l -0.09313,0.02328 v 0.404284 h -0.567267 v -0.23495 c 0,-0.0635 0.01905,-0.127 0.07197,-0.188384 l 0.59055,-0.681568 h -0.148166 l -0.550335,0.630768 c -0.0508,0.05715 -0.08467,0.135467 -0.08467,0.226484 z" />
    </g>
    <g
       style="font-style:normal;font-variant:normal;font-weight:normal;font-stretch:normal;font-size:3.52778px;line-height:1.25;font-family:Quarca;-inkscape-font-specification:Quarca;letter-spacing:0px;word-spacing:0px;fill:#dddddd;fill-opacity:1;stroke:none;stroke-width:0.264583"
       id="text5443-0-6-2-2-3-9-5"
       aria-label="15 ">
      <path
         id="path17239"
         style="font-style:normal;font-variant:normal;font-weight:normal;font-stretch:normal;font-size:2.11667px;font-family:Quarca;-inkscape-font-specification:Quarca;fill:#dddddd;fill-opacity:1;stroke-width:0.264583"
         d="m 72.816633,88.47419 h 0.12065 v -1.502836 h -0.10795 l -0.196851,0.1397 v 0.127001 l 0.184151,-0.133351 z" />
      <path
         id="path17241"
         style="font-style:normal;font-variant:normal;font-weight:normal;font-stretch:normal;font-size:2.11667px;font-family:Quarca;-inkscape-font-specification:Quarca;fill:#dddddd;fill-opacity:1;stroke-width:0.264583"
         d="m 73.786266,88.35989 h -0.279401 c -0.13335,0 -0.182033,-0.0635 -0.182033,-0.196851 v -0.141817 h -0.12065 v 0.160867 c 0,0.194734 0.07408,0.292101 0.289983,0.292101 h 0.304801 c 0.2159,0 0.289984,-0.09737 0.289984,-0.292101 v -0.340784 c 0,-0.192617 -0.09102,-0.28575 -0.285751,-0.28575 h -0.433917 v -0.469901 h 0.683684 l 0.01693,-0.1143 h -0.823385 v 0.698501 h 0.533401 c 0.131233,0 0.188383,0.06562 0.188383,0.209551 v 0.283633 c 0,0.13335 -0.04868,0.196851 -0.182033,0.196851 z" />
    </g>
    <g
       style="font-style:normal;font-variant:normal;font-weight:normal;font-stretch:normal;font-size:3.52778px;line-height:1.25;font-family:Quarca;-inkscape-font-specification:Quarca;letter-spacing:0px;word-spacing:0px;fill:#dddddd;fill-opacity:1;stroke:none;stroke-width:0.264583"
       id="text5443-0-6-2-2-3-9-24"
       aria-label="16">
      <path
         id="path17234"
         style="font-style:normal;font-variant:normal;font-weight:normal;font-stretch:normal;font-size:2.11667px;font-family:Quarca;-inkscape-font-specification:Quarca;fill:#dddddd;fill-opacity:1;stroke-width:0.264583"
         d="m 72.949003,100.38044 h 0.12065 v -1.502836 h -0.10795 l -0.196851,0.1397 v 0.127001 l 0.184151,-0.133351 z" />
      <path
         id="path17236"
         style="font-style:normal;font-variant:normal;font-weight:normal;font-stretch:normal;font-size:2.11667px;font-family:Quarca;-inkscape-font-specification:Quarca;fill:#dddddd;fill-opacity:1;stroke-width:0.264583"
         d="m 74.295403,99.764489 c 0,-0.1778 -0.08043,-0.264584 -0.256117,-0.264584 h -0.518584 v -0.315384 c 0,-0.135467 0.05292,-0.192617 0.1778,-0.192617 h 0.292101 c 0.135467,0 0.18415,0.05927 0.18415,0.194734 v 0.13335 h 0.12065 v -0.156633 c 0,-0.215901 -0.09525,-0.285751 -0.28575,-0.285751 h -0.323851 c -0.2159,0 -0.287867,0.09525 -0.287867,0.285751 v 0.939805 c 0,0.1778 0.07197,0.27728 0.287867,0.27728 h 0.338667 c 0.190501,0 0.270934,-0.0931 0.270934,-0.27728 z m -0.12065,0.03387 v 0.275164 c 0,0.13547 -0.05292,0.19262 -0.1778,0.19262 h -0.302684 c -0.122767,0 -0.173567,-0.0656 -0.173567,-0.1905 v -0.463551 h 0.484717 c 0.116417,0 0.169334,0.0635 0.169334,0.186267 z" />
    </g>
    <g
       style="font-style:normal;font-variant:normal;font-weight:normal;font-stretch:normal;font-size:3.52778px;line-height:1.25;font-family:Quarca;-inkscape-font-specification:Quarca;letter-spacing:0px;word-spacing:0px;fill:#dddddd;fill-opacity:1;stroke:none;stroke-width:0.264583"
       id="text5443-0-6-2-2-3-9-24-3"
       aria-label="17">
      <path
         id="path17229"
         style="font-style:normal;font-variant:normal;font-weight:normal;font-stretch:normal;font-size:2.11667px;font-family:Quarca;-inkscape-font-specification:Quarca;fill:#dddddd;fill-opacity:1;stroke-width:0.264583"
         d="m 72.816633,112.30151 h 0.12065 v -1.50283 h -0.10795 l -0.196851,0.1397 v 0.127 l 0.184151,-0.13335 z" />
      <path
         id="path17231"
         style="font-style:normal;font-variant:normal;font-weight:normal;font-stretch:normal;font-size:2.11667px;font-family:Quarca;-inkscape-font-specification:Quarca;fill:#dddddd;fill-opacity:1;stroke-width:0.264583"
         d="m 73.151265,110.91298 h 0.738718 v 0.20108 c 0,0.0741 -0.0127,0.15664 -0.05503,0.22437 l -0.601134,0.96308 h 0.143934 l 0.567267,-0.91228 c 0.04445,-0.072 0.06562,-0.15452 0.06562,-0.25612 v -0.33443 h -0.859368 z" />
    </g>
    <g
       style="font-style:normal;font-variant:normal;font-weight:normal;font-stretch:normal;font-size:3.52778px;line-height:1.25;font-family:Quarca;-inkscape-font-specification:Quarca;letter-spacing:0px;word-spacing:0px;fill:#dddddd;fill-opacity:1;stroke:none;stroke-width:0.264583"
       id="text5443-0-6-2-2-3-9-24-8"
       aria-label="18">
      <path
         id="path17224"
         style="font-style:normal;font-variant:normal;font-weight:normal;font-stretch:normal;font-size:2.11667px;font-family:Quarca;-inkscape-font-specification:Quarca;fill:#dddddd;fill-opacity:1;stroke-width:0.264583"
         d="m 72.816633,124.20776 h 0.12065 v -1.50283 h -0.10795 l -0.196851,0.1397 v 0.127 l 0.184151,-0.13335 z" />
      <path
         id="path17226"
         style="font-style:normal;font-variant:normal;font-weight:normal;font-stretch:normal;font-size:2.11667px;font-family:Quarca;-inkscape-font-specification:Quarca;fill:#dddddd;fill-opacity:1;stroke-width:0.264583"
         d="m 73.422199,123.41613 c -0.08255,0.0169 -0.175684,0.0593 -0.175684,0.22437 v 0.27516 c 0,0.19474 0.07408,0.2921 0.289984,0.2921 h 0.359834 c 0.2159,0 0.289983,-0.0974 0.289983,-0.2921 v -0.27516 c 0,-0.1651 -0.0889,-0.20744 -0.160866,-0.22437 0.07408,-0.0233 0.09737,-0.0804 0.09737,-0.18838 v -0.23072 c 0,-0.19474 -0.07408,-0.2921 -0.289983,-0.2921 h -0.232834 c -0.2159,0 -0.289984,0.0974 -0.289984,0.2921 v 0.23072 c 0,0.10795 0.02752,0.1651 0.112184,0.18838 z m 0.459317,0.0614 c 0.09737,0 0.18415,0.0339 0.18415,0.1651 v 0.254 c 0,0.13335 -0.04868,0.19685 -0.182033,0.19685 h -0.334434 c -0.13335,0 -0.182034,-0.0635 -0.182034,-0.19685 v -0.254 c 0,-0.13546 0.0889,-0.1651 0.18415,-0.1651 z m -0.268817,-0.65828 h 0.207434 c 0.13335,0 0.182033,0.0635 0.182033,0.19685 v 0.19473 c 0,0.127 -0.05927,0.1524 -0.192617,0.1524 h -0.18415 c -0.13335,0 -0.194734,-0.0254 -0.194734,-0.1524 v -0.19473 c 0,-0.13335 0.04868,-0.19685 0.182034,-0.19685 z" />
    </g>
  </g>
</svg>
