<?xml version="1.0" encoding="UTF-8" standalone="no"?>
<!-- Created with Inkscape (http://www.inkscape.org/) -->

<svg
   xmlns:dc="http://purl.org/dc/elements/1.1/"
   xmlns:cc="http://creativecommons.org/ns#"
   xmlns:rdf="http://www.w3.org/1999/02/22-rdf-syntax-ns#"
   xmlns:svg="http://www.w3.org/2000/svg"
   xmlns="http://www.w3.org/2000/svg"
   xmlns:xlink="http://www.w3.org/1999/xlink"
   xmlns:sodipodi="http://sodipodi.sourceforge.net/DTD/sodipodi-0.dtd"
   xmlns:inkscape="http://www.inkscape.org/namespaces/inkscape"
   width="225"
   height="380"
   viewBox="0 0 59.53125 100.54167"
   version="1.1"
   id="svg11003"
   inkscape:version="0.92.2 (5c3e80d, 2017-08-06)"
   sodipodi:docname="QARGrooveExpander.svg">
  <defs
     id="defs10997">
    <linearGradient
       inkscape:collect="always"
       id="linearGradient4047">
      <stop
         style="stop-color:#202022;stop-opacity:1;"
         offset="0"
         id="stop3387" />
      <stop
         style="stop-color:#202025;stop-opacity:1;"
         offset=".3"
         id="stop3388" />
      <stop
         style="stop-color:#08003e;stop-opacity:1;"
         offset="1"
         id="stop3389" />
    </linearGradient>
    <linearGradient
       inkscape:collect="always"
       xlink:href="#linearGradient4047"
       id="linearGradient4049"
       x1="35.418064"
       y1="158.3329"
       x2="35.219627"
       y2="50.462322"
       gradientUnits="userSpaceOnUse"
       gradientTransform="matrix(0.5824096,0,0,1,14.70738,0)" />
  </defs>
  <sodipodi:namedview
     id="base"
     pagecolor="#ffffff"
     bordercolor="#666666"
     borderopacity="1.0"
     inkscape:pageopacity="0.0"
     inkscape:pageshadow="2"
     inkscape:zoom="4"
     inkscape:cx="28.399325"
     inkscape:cy="195.87134"
     inkscape:document-units="px"
     inkscape:current-layer="layer1"
     showgrid="false"
     fit-margin-top="0"
     fit-margin-left="0"
     fit-margin-right="0"
     fit-margin-bottom="0"
     inkscape:window-width="3840"
     inkscape:window-height="2115"
     inkscape:window-x="-13"
     inkscape:window-y="-13"
     inkscape:window-maximized="1"
     units="px"
     showguides="false" />
  <metadata
     id="metadata11000">
    <rdf:RDF>
      <cc:Work
         rdf:about="">
        <dc:format>image/svg+xml</dc:format>
        <dc:type
           rdf:resource="http://purl.org/dc/dcmitype/StillImage" />
        <dc:title></dc:title>
      </cc:Work>
    </rdf:RDF>
  </metadata>
  <g
     inkscape:label="Layer 1"
     inkscape:groupmode="layer"
     id="layer1"
     transform="translate(-35.146312,-50.389004)">
    <g
       id="g1644"
       transform="matrix(1.0714286,0,0,1,-2.5890052,0.07224233)">
      <path
         inkscape:export-ydpi="150.22649"
         inkscape:export-xdpi="150.22649"
         inkscape:export-filename="/home/vortico/pics/tmp/LFOs.png"
         style="fill:url(#linearGradient4049);fill-opacity:1;fill-rule:nonzero;stroke:none;stroke-width:0.32694858"
         d="m 35.219628,50.462323 h 55.5625 V 150.85843 h -55.5625 z m 0,0"
         id="path33493"
         inkscape:connector-curvature="0" />
    </g>
    <g
       style="font-style:normal;font-weight:normal;font-size:3.52777767px;line-height:1.25;font-family:sans-serif;letter-spacing:0px;word-spacing:0px;fill:#ffffff;fill-opacity:1;stroke:none;stroke-width:0.26458332"
       id="text5097" />
    <g
       style="font-style:normal;font-variant:normal;font-weight:bold;font-stretch:normal;font-size:3.52777767px;line-height:1.25;font-family:Consolas;-inkscape-font-specification:'Consolas Bold';text-align:center;letter-spacing:0px;word-spacing:0px;text-anchor:middle;fill:#ffffff;fill-opacity:1;stroke:none;stroke-width:0.26458332"
       id="text373" />
    <g
       style="font-style:normal;font-variant:normal;font-weight:bold;font-stretch:normal;font-size:13.33333302px;line-height:1.25;font-family:Consolas;-inkscape-font-specification:'Consolas Bold';text-align:center;letter-spacing:0px;word-spacing:0px;text-anchor:middle;fill:#ffffff;fill-opacity:1;stroke:none"
       id="flowRoot250" />
    <g
       aria-label="=+"
       style="font-style:normal;font-variant:normal;font-weight:bold;font-stretch:normal;font-size:3.52777767px;line-height:1.25;font-family:Consolas;-inkscape-font-specification:'Consolas Bold';text-align:center;letter-spacing:0px;word-spacing:0px;text-anchor:middle;fill:#ffffff;fill-opacity:1;stroke:none;stroke-width:0.26458332"
       id="text308">
      <path
         d="m 156.8605,47.159573 v -0.334174 h 1.48139 v 0.334174 z m 0,0.678684 v -0.334174 h 1.48139 v 0.334174 z"
         style="stroke-width:0.26458332"
         id="path4330"
         inkscape:connector-curvature="0" />
      <path
         d="m 159.73887,47.507528 v 0.670071 h -0.38757 v -0.670071 h -0.64251 v -0.346232 h 0.64251 V 46.49467 h 0.38757 v 0.666626 h 0.64251 v 0.346232 z"
         style="stroke-width:0.26458332"
         id="path4332"
         inkscape:connector-curvature="0" />
    </g>
    <g
       style="font-style:normal;font-variant:normal;font-weight:bold;font-stretch:normal;font-size:13.33333302px;line-height:1.25;font-family:Consolas;-inkscape-font-specification:'Consolas Bold';text-align:center;letter-spacing:0px;word-spacing:0px;text-anchor:middle;fill:#ffffff;fill-opacity:1;stroke:none"
       id="flowRoot53665" />
    <g
       style="font-style:normal;font-variant:normal;font-weight:bold;font-stretch:normal;font-size:3.52777767px;line-height:1.25;font-family:Consolas;-inkscape-font-specification:'Consolas Bold';text-align:center;letter-spacing:0px;word-spacing:0px;text-anchor:middle;fill:#ffffff;fill-opacity:1;stroke:none;stroke-width:0.26458332"
       id="text53994" />
    <g
       aria-label="QAR - GROOVE"
       style="font-style:normal;font-variant:normal;font-weight:bold;font-stretch:normal;font-size:3.52777767px;line-height:1.25;font-family:Homenaje;-inkscape-font-specification:'Homenaje Bold';text-align:start;letter-spacing:0px;word-spacing:0px;text-anchor:start;fill:#ffffff;fill-opacity:1;stroke:none;stroke-width:0.26458332"
       id="text3885">
      <path
         d="m 56.414232,53.407722 q 0,0.613127 -0.55492,0.686858 v 0.07761 q 0,0.166864 0.04269,0.221192 0.04657,0.05821 0.147461,0.05821 h 0.182386 v 0.244475 h -0.228953 q -0.213431,0 -0.337608,-0.128058 -0.124178,-0.128059 -0.124178,-0.34537 V 54.09458 q -0.551039,-0.07373 -0.551039,-0.686858 v -1.381478 q 0,-0.333728 0.174625,-0.516114 0.178505,-0.182386 0.535517,-0.182386 0.360891,0 0.535516,0.182386 0.178506,0.182386 0.178506,0.516114 z m -1.082675,0.06597 q 0,0.182386 0.100894,0.2794 0.100895,0.09701 0.267759,0.09701 0.166864,0 0.267758,-0.09701 0.104775,-0.09701 0.104775,-0.2794 v -1.513417 q 0,-0.182386 -0.104775,-0.2794 -0.100894,-0.09701 -0.267758,-0.09701 -0.166864,0 -0.267759,0.09701 -0.100894,0.09701 -0.100894,0.2794 z"
         style="font-style:normal;font-variant:normal;font-weight:bold;font-stretch:normal;font-size:3.88055563px;font-family:Homenaje;-inkscape-font-specification:'Homenaje Bold';text-align:start;text-anchor:start;stroke-width:0.26458332"
         id="path2855" />
      <path
         d="m 57.27232,51.354908 h 0.516114 l 0.589844,2.716389 h -0.318206 l -0.190147,-0.799395 h -0.706261 l -0.174625,0.799395 h -0.329847 z m 0.539397,1.653116 -0.2794,-1.397 h -0.02716 l -0.283281,1.397 z"
         style="font-style:normal;font-variant:normal;font-weight:bold;font-stretch:normal;font-size:3.88055563px;font-family:Homenaje;-inkscape-font-specification:'Homenaje Bold';text-align:start;text-anchor:start;stroke-width:0.26458332"
         id="path2857" />
      <path
         d="m 59.078415,51.611024 v 1.012825 h 0.27552 q 0.221191,0 0.341489,-0.151341 0.124177,-0.155222 0.124177,-0.395817 0,-0.465667 -0.465666,-0.465667 z m -0.0078,1.268942 v 1.191331 h -0.333728 v -2.716389 h 0.717903 q 0.6985,0 0.6985,0.721783 0,0.271639 -0.104775,0.473428 -0.104775,0.201789 -0.298803,0.2794 l 0.539398,1.241778 h -0.333728 l -0.527756,-1.191331 z"
         style="font-style:normal;font-variant:normal;font-weight:bold;font-stretch:normal;font-size:3.88055563px;font-family:Homenaje;-inkscape-font-specification:'Homenaje Bold';text-align:start;text-anchor:start;stroke-width:0.26458332"
         id="path2859" />
      <path
         d="m 60.966609,53.318469 v -0.256117 h 0.900289 v 0.256117 z"
         style="font-style:normal;font-variant:normal;font-weight:bold;font-stretch:normal;font-size:3.88055563px;font-family:Homenaje;-inkscape-font-specification:'Homenaje Bold';text-align:start;text-anchor:start;stroke-width:0.26458332"
         id="path2861" />
      <path
         d="m 64.065536,54.071297 h -0.686859 q -0.35313,0 -0.547158,-0.178506 -0.194028,-0.178505 -0.194028,-0.523875 v -1.315508 q 0,-0.341489 0.20955,-0.519995 0.20955,-0.178505 0.570442,-0.178505 h 0.570442 v 0.259997 h -0.609248 q -0.178505,0 -0.291041,0.104775 -0.108656,0.100894 -0.108656,0.271639 v 1.447447 q 0,0.174625 0.104775,0.27552 0.104775,0.100894 0.2794,0.100894 h 0.360892 v -1.067153 h -0.34925 v -0.256116 h 0.690739 z"
         style="font-style:normal;font-variant:normal;font-weight:bold;font-stretch:normal;font-size:3.88055563px;font-family:Homenaje;-inkscape-font-specification:'Homenaje Bold';text-align:start;text-anchor:start;stroke-width:0.26458332"
         id="path2863" />
      <path
         d="m 64.884091,51.611024 v 1.012825 h 0.275519 q 0.221192,0 0.341489,-0.151341 0.124178,-0.155222 0.124178,-0.395817 0,-0.465667 -0.465667,-0.465667 z m -0.0078,1.268942 v 1.191331 h -0.333728 v -2.716389 h 0.717903 q 0.6985,0 0.6985,0.721783 0,0.271639 -0.104775,0.473428 -0.104775,0.201789 -0.298803,0.2794 l 0.539397,1.241778 h -0.333728 l -0.527755,-1.191331 z"
         style="font-style:normal;font-variant:normal;font-weight:bold;font-stretch:normal;font-size:3.88055563px;font-family:Homenaje;-inkscape-font-specification:'Homenaje Bold';text-align:start;text-anchor:start;stroke-width:0.26458332"
         id="path2865" />
      <path
         d="m 67.822399,53.399961 q 0,0.329847 -0.190148,0.516113 -0.190147,0.182387 -0.554919,0.182387 -0.360892,0 -0.551039,-0.182387 -0.190147,-0.186266 -0.190147,-0.516113 v -1.373717 q 0,-0.329847 0.190147,-0.512233 0.190147,-0.186267 0.551039,-0.186267 0.364772,0 0.554919,0.186267 0.190148,0.182386 0.190148,0.512233 z m -1.144764,0.06597 q 0,0.178506 0.112536,0.2794 0.116417,0.09701 0.287161,0.09701 0.170744,0 0.287161,-0.09701 0.116417,-0.100894 0.116417,-0.2794 v -1.505656 q 0,-0.178505 -0.116417,-0.275519 -0.116417,-0.100894 -0.287161,-0.100894 -0.170744,0 -0.287161,0.100894 -0.112536,0.09701 -0.112536,0.275519 z"
         style="font-style:normal;font-variant:normal;font-weight:bold;font-stretch:normal;font-size:3.88055563px;font-family:Homenaje;-inkscape-font-specification:'Homenaje Bold';text-align:start;text-anchor:start;stroke-width:0.26458332"
         id="path2867" />
      <path
         d="m 69.641409,53.399961 q 0,0.329847 -0.190147,0.516113 -0.190147,0.182387 -0.554919,0.182387 -0.360892,0 -0.551039,-0.182387 -0.190147,-0.186266 -0.190147,-0.516113 v -1.373717 q 0,-0.329847 0.190147,-0.512233 0.190147,-0.186267 0.551039,-0.186267 0.364772,0 0.554919,0.186267 0.190147,0.182386 0.190147,0.512233 z m -1.144764,0.06597 q 0,0.178506 0.112537,0.2794 0.116416,0.09701 0.287161,0.09701 0.170744,0 0.287161,-0.09701 0.116416,-0.100894 0.116416,-0.2794 v -1.505656 q 0,-0.178505 -0.116416,-0.275519 -0.116417,-0.100894 -0.287161,-0.100894 -0.170745,0 -0.287161,0.100894 -0.112537,0.09701 -0.112537,0.275519 z"
         style="font-style:normal;font-variant:normal;font-weight:bold;font-stretch:normal;font-size:3.88055563px;font-family:Homenaje;-inkscape-font-specification:'Homenaje Bold';text-align:start;text-anchor:start;stroke-width:0.26458332"
         id="path2869" />
      <path
         d="m 70.800725,53.760852 0.535516,-2.405944 h 0.337609 l -0.640292,2.716389 h -0.457906 l -0.651933,-2.716389 h 0.337608 z"
         style="font-style:normal;font-variant:normal;font-weight:bold;font-stretch:normal;font-size:3.88055563px;font-family:Homenaje;-inkscape-font-specification:'Homenaje Bold';text-align:start;text-anchor:start;stroke-width:0.26458332"
         id="path2871" />
      <path
         d="m 72.076337,54.071297 v -2.716389 h 1.18357 v 0.263878 h -0.842081 v 0.869244 h 0.682978 v 0.263878 h -0.682978 v 1.055511 h 0.880886 v 0.263878 z"
         style="font-style:normal;font-variant:normal;font-weight:bold;font-stretch:normal;font-size:3.88055563px;font-family:Homenaje;-inkscape-font-specification:'Homenaje Bold';text-align:start;text-anchor:start;stroke-width:0.26458332"
         id="path2873" />
    </g>
    <g
       transform="matrix(0.26458333,0,0,0.26458333,35.146312,50.389004)"
       style="font-style:normal;font-variant:normal;font-weight:bold;font-stretch:normal;font-size:13.33333302px;line-height:1.25;font-family:Consolas;-inkscape-font-specification:'Consolas Bold';text-align:center;letter-spacing:0px;word-spacing:0px;text-anchor:middle;fill:#000000;fill-opacity:1;stroke:none"
       id="flowRoot1015" />
    <g
       aria-label="SWING"
       style="font-style:normal;font-variant:normal;font-weight:bold;font-stretch:normal;font-size:3.52777767px;line-height:1.25;font-family:Homenaje;-inkscape-font-specification:'Homenaje Bold';letter-spacing:0px;word-spacing:0px;fill:#ffffff;fill-opacity:1;stroke:none;stroke-width:0.26458332"
       id="text5443-7-5">
      <path
         d="m 61.352073,57.312009 q 0.160867,0 0.231422,-0.09596 0.07338,-0.09596 0.07338,-0.222956 0,-0.127 -0.04798,-0.214489 -0.04515,-0.09031 -0.115711,-0.141111 -0.07055,-0.05362 -0.1524,-0.115711 -0.08184,-0.06209 -0.1524,-0.118533 -0.07055,-0.05927 -0.118533,-0.158045 -0.04516,-0.09878 -0.04516,-0.225778 0,-0.225777 0.135467,-0.361244 0.135467,-0.135467 0.375356,-0.135467 h 0.2286 v 0.186267 h -0.217312 q -0.135466,0 -0.206022,0.08749 -0.07055,0.08749 -0.07055,0.189089 0,0.1016 0.04516,0.174977 0.04798,0.07338 0.118534,0.121356 0.07055,0.04798 0.1524,0.112889 0.08467,0.06491 0.155222,0.132644 0.07055,0.06491 0.115711,0.1778 0.04798,0.112889 0.04798,0.256823 0,0.265288 -0.1524,0.400755 -0.149578,0.135467 -0.412045,0.135467 h -0.296333 v -0.186267 z"
         style="font-style:normal;font-variant:normal;font-weight:bold;font-stretch:normal;font-size:2.82222223px;font-family:Homenaje;-inkscape-font-specification:'Homenaje Bold';stroke-width:0.26458332"
         id="path2877" />
      <path
         d="m 62.934282,56.036365 h 0.265288 l 0.265289,1.222022 0.333023,-1.735667 h 0.245533 l -0.409222,1.975556 H 63.30117 l -0.231422,-1.182511 -0.2286,1.182511 H 62.508126 L 62.090437,55.52272 h 0.245533 l 0.335845,1.735667 z"
         style="font-style:normal;font-variant:normal;font-weight:bold;font-stretch:normal;font-size:2.82222223px;font-family:Homenaje;-inkscape-font-specification:'Homenaje Bold';stroke-width:0.26458332"
         id="path2879" />
      <path
         d="M 64.363561,57.498276 V 55.52272 h 0.248355 v 1.975556 z"
         style="font-style:normal;font-variant:normal;font-weight:bold;font-stretch:normal;font-size:2.82222223px;font-family:Homenaje;-inkscape-font-specification:'Homenaje Bold';stroke-width:0.26458332"
         id="path2881" />
      <path
         d="m 66.128508,57.498276 h -0.3556 l -0.522111,-1.794934 v 1.794934 H 65.002441 V 55.52272 h 0.414867 l 0.460022,1.707445 V 55.52272 h 0.251178 z"
         style="font-style:normal;font-variant:normal;font-weight:bold;font-stretch:normal;font-size:2.82222223px;font-family:Homenaje;-inkscape-font-specification:'Homenaje Bold';stroke-width:0.26458332"
         id="path2883" />
      <path
         d="M 67.472723,57.498276 H 66.97319 q -0.256822,0 -0.397933,-0.129822 -0.141112,-0.129823 -0.141112,-0.381 V 56.03072 q 0,-0.248355 0.1524,-0.378178 0.1524,-0.129822 0.414867,-0.129822 h 0.414867 v 0.189089 H 66.97319 q -0.129822,0 -0.211667,0.0762 -0.07902,0.07338 -0.07902,0.197556 v 1.052689 q 0,0.127 0.0762,0.200377 0.0762,0.07338 0.2032,0.07338 h 0.262467 v -0.776111 h -0.254 v -0.186267 h 0.502355 z"
         style="font-style:normal;font-variant:normal;font-weight:bold;font-stretch:normal;font-size:2.82222223px;font-family:Homenaje;-inkscape-font-specification:'Homenaje Bold';stroke-width:0.26458332"
         id="path2885" />
    </g>
    <g
       aria-label="LENGTH"
       style="font-style:normal;font-variant:normal;font-weight:bold;font-stretch:normal;font-size:3.52777767px;line-height:1.25;font-family:Homenaje;-inkscape-font-specification:'Homenaje Bold';letter-spacing:0px;word-spacing:0px;fill:#ffffff;fill-opacity:1;stroke:none;stroke-width:0.26458332"
       id="text5443-7-5-4">
      <path
         d="m 46.523394,135.81746 v -1.72861 h 0.217311 v 1.56563 h 0.506236 v 0.16298 z"
         style="font-style:normal;font-variant:normal;font-weight:bold;font-stretch:normal;font-size:2.46944451px;font-family:Homenaje;-inkscape-font-specification:'Homenaje Bold';stroke-width:0.26458332"
         id="path2888" />
      <path
         d="m 47.459082,135.81746 v -1.72861 h 0.75318 v 0.16792 h -0.535869 v 0.55316 h 0.434622 v 0.16792 h -0.434622 v 0.67169 h 0.560564 v 0.16792 z"
         style="font-style:normal;font-variant:normal;font-weight:bold;font-stretch:normal;font-size:2.46944451px;font-family:Homenaje;-inkscape-font-specification:'Homenaje Bold';stroke-width:0.26458332"
         id="path2890" />
      <path
         d="m 49.480901,135.81746 h -0.31115 l -0.456847,-1.57057 v 1.57057 h -0.217311 v -1.72861 h 0.363008 l 0.402519,1.49401 v -1.49401 h 0.219781 z"
         style="font-style:normal;font-variant:normal;font-weight:bold;font-stretch:normal;font-size:2.46944451px;font-family:Homenaje;-inkscape-font-specification:'Homenaje Bold';stroke-width:0.26458332"
         id="path2892" />
      <path
         d="m 50.65709,135.81746 h -0.437092 q -0.224719,0 -0.348192,-0.1136 -0.123472,-0.11359 -0.123472,-0.33337 v -0.83714 q 0,-0.21731 0.13335,-0.33091 0.13335,-0.11359 0.363008,-0.11359 h 0.363009 v 0.16545 h -0.387703 q -0.113594,0 -0.185208,0.0667 -0.06914,0.0642 -0.06914,0.17286 v 0.9211 q 0,0.11112 0.06667,0.17533 0.06668,0.0642 0.1778,0.0642 h 0.229659 v -0.6791 h -0.22225 v -0.16298 h 0.439561 z"
         style="font-style:normal;font-variant:normal;font-weight:bold;font-stretch:normal;font-size:2.46944451px;font-family:Homenaje;-inkscape-font-specification:'Homenaje Bold';stroke-width:0.26458332"
         id="path2894" />
      <path
         d="m 51.175519,135.81746 v -1.56563 h -0.345723 v -0.16298 h 0.908756 v 0.16298 H 51.39283 v 1.56563 z"
         style="font-style:normal;font-variant:normal;font-weight:bold;font-stretch:normal;font-size:2.46944451px;font-family:Homenaje;-inkscape-font-specification:'Homenaje Bold';stroke-width:0.26458332"
         id="path2896" />
      <path
         d="m 52.677443,134.98279 h -0.49142 v 0.83467 h -0.217311 v -1.72861 h 0.217311 v 0.73095 h 0.49142 v -0.73095 h 0.217311 v 1.72861 h -0.217311 z"
         style="font-style:normal;font-variant:normal;font-weight:bold;font-stretch:normal;font-size:2.46944451px;font-family:Homenaje;-inkscape-font-specification:'Homenaje Bold';stroke-width:0.26458332"
         id="path2898" />
    </g>
    <g
       aria-label="Frozen Wasteland"
       style="font-style:normal;font-weight:normal;font-size:3.52777767px;line-height:1.25;font-family:sans-serif;letter-spacing:0px;word-spacing:0px;fill:#00a3f2;fill-opacity:1;stroke:none;stroke-width:0.26458332"
       id="text271"
       transform="translate(6.8129991,2.5452323)">
      <g
         aria-label="FROZEN WASTELAND"
         style="font-style:normal;font-variant:normal;font-weight:bold;font-stretch:normal;font-size:3.52777767px;line-height:1.25;font-family:Consolas;-inkscape-font-specification:'Consolas Bold';text-align:start;letter-spacing:0px;word-spacing:0px;text-anchor:start;fill:#00a3f2;fill-opacity:1;stroke:none;stroke-width:0.26458332"
         id="text3885-7"
         transform="translate(3.1750002,0.52916668)">
        <path
           d="m 41.150231,146.65677 q 0.119944,-0.11994 0.1905,-0.21166 0.07408,-0.0917 0.112889,-0.16934 0.04233,-0.0776 0.05292,-0.14464 0.01411,-0.0706 0.01411,-0.14816 0,-0.0952 -0.04586,-0.22931 -0.04586,-0.13405 -0.102306,-0.28575 -0.05644,-0.15169 -0.102306,-0.31044 -0.04586,-0.15875 -0.04586,-0.30339 0,-0.0776 0.0247,-0.1517 0.02822,-0.0741 0.06703,-0.14111 0.04233,-0.0705 0.09172,-0.13053 0.04939,-0.0635 0.09878,-0.11288 -0.07056,-0.0141 -0.123473,-0.0212 -0.05292,-0.0106 -0.07761,-0.0106 -0.130528,0 -0.22225,0.0705 -0.08819,0.067 -0.1905,0.16933 0,-0.11994 0.03528,-0.24694 0.03881,-0.13053 0.116417,-0.23636 0.07761,-0.10583 0.194027,-0.17286 0.119945,-0.067 0.282223,-0.067 0.112889,0 0.208139,0.0176 0.09878,0.0141 0.179916,0.0353 0.08114,0.0212 0.148167,0.0388 0.06703,0.0141 0.119944,0.0141 0.08114,0 0.141111,-0.0212 0.0635,-0.0247 0.123473,-0.0847 0,0.0776 -0.03175,0.17639 -0.02822,0.0988 -0.08819,0.1905 -0.05644,0.0882 -0.148167,0.15169 -0.09172,0.06 -0.211666,0.06 -0.05997,0 -0.137584,-0.007 -0.07408,-0.0106 -0.155222,-0.0247 -0.0071,0.0247 -0.01058,0.0459 -0.0035,0.0212 -0.0071,0.0388 -0.0035,0.0212 -0.0035,0.0388 0,0.0776 0.01058,0.15169 0.01411,0.0706 0.03881,0.14464 h 0.712611 l -0.08114,0.23989 q -0.01058,0.0459 -0.01411,0.067 -0.0035,0.0212 -0.01058,0.067 l -0.130528,-0.0917 h -0.363361 q 0.07761,0.17639 0.144639,0.35984 0.06703,0.17991 0.06703,0.38452 0,0.18345 -0.07408,0.3422 -0.07408,0.15522 -0.197556,0.27164 -0.119944,0.11641 -0.278694,0.17991 -0.155222,0.067 -0.321028,0.067 z"
           style="font-style:normal;font-variant:normal;font-weight:normal;font-stretch:normal;font-family:'Bradley Gratis';-inkscape-font-specification:'Bradley Gratis';text-align:start;text-anchor:start;fill:#00a3f2;fill-opacity:1;stroke-width:0.26458332"
           id="path20360"
           inkscape:connector-curvature="0" />
        <path
           d="m 43.22032,144.92816 q 0.07055,-0.0423 0.137583,-0.0988 0.07056,-0.0564 0.123472,-0.127 0.05645,-0.0705 0.08819,-0.16227 0.03528,-0.0952 0.03528,-0.21167 0,-0.0988 -0.03881,-0.16581 -0.03528,-0.0705 -0.08467,-0.11289 -0.04939,-0.0423 -0.09878,-0.06 -0.04586,-0.0176 -0.07056,-0.0176 -0.02822,0 -0.05292,0.0106 -0.02117,0.0106 -0.0388,0.0247 z m -0.518583,-0.94192 q -0.112889,-0.0635 -0.112889,-0.23636 0.03175,0.0318 0.112889,0.0565 0.08114,0.0212 0.172861,0.0212 0.04586,0 0.130527,-0.0106 0.08467,-0.0141 0.172862,-0.0282 0.09172,-0.0141 0.172861,-0.0247 0.08467,-0.0141 0.130527,-0.0141 0.116417,0 0.232834,0.0353 0.116416,0.0353 0.215194,0.11995 0.09878,0.0847 0.165806,0.2293 0.07056,0.14111 0.09172,0.35983 l -0.627944,0.4445 q 0.07055,0.0282 0.15875,0.0952 0.08819,0.067 0.165805,0.18698 0.08114,0.11994 0.134056,0.30691 0.05292,0.18345 0.05292,0.45156 0,0.23283 0.02117,0.37747 0.02117,0.14464 0.05292,0.23283 0.03175,0.0882 0.06703,0.13053 0.03881,0.0459 0.07056,0.0776 -0.155222,0 -0.275167,-0.0917 -0.119944,-0.0882 -0.211666,-0.23283 -0.09172,-0.14464 -0.162278,-0.32809 -0.06703,-0.18344 -0.123472,-0.37041 -0.05644,-0.18697 -0.105834,-0.35984 -0.04586,-0.17286 -0.09525,-0.29986 -0.02469,0.0176 -0.04939,0.0353 -0.02117,0.0141 -0.0388,0.0318 v 1.31939 h -0.518583 z"
           style="font-style:normal;font-variant:normal;font-weight:normal;font-stretch:normal;font-family:'Bradley Gratis';-inkscape-font-specification:'Bradley Gratis';text-align:start;text-anchor:start;fill:#00a3f2;fill-opacity:1;stroke-width:0.26458332"
           id="path20362"
           inkscape:connector-curvature="0" />
        <path
           d="m 45.108067,146.03588 q 0,0.11995 0.01411,0.18698 0.01764,0.067 0.04233,0.1023 0.02822,0.0317 0.0635,0.0388 0.03528,0.007 0.07056,0.007 0.07055,0 0.116416,-0.0952 0.04586,-0.0988 0.04586,-0.29986 v -1.53105 q 0,-0.15875 -0.01764,-0.25753 -0.01411,-0.10231 -0.04233,-0.15522 -0.02469,-0.0564 -0.05997,-0.0776 -0.03175,-0.0212 -0.0635,-0.0212 -0.06703,0 -0.119944,0.0847 -0.04939,0.0811 -0.04939,0.26106 z m 1.005416,-0.88547 q 0,0.25753 -0.06703,0.508 -0.0635,0.25047 -0.176389,0.44803 -0.109361,0.19755 -0.261056,0.32103 -0.151694,0.11994 -0.321028,0.11994 -0.15875,0 -0.310444,-0.10936 -0.148167,-0.10936 -0.264583,-0.29986 -0.112889,-0.1905 -0.183445,-0.4445 -0.07055,-0.254 -0.07055,-0.54328 0,-0.23636 0.0635,-0.4833 0.06703,-0.25048 0.179916,-0.45156 0.112889,-0.20108 0.264584,-0.32808 0.151694,-0.13053 0.321027,-0.13053 0.148167,0 0.292806,0.10936 0.148167,0.10936 0.264583,0.29986 0.119945,0.18697 0.194028,0.44097 0.07408,0.254 0.07408,0.54328 z"
           style="font-style:normal;font-variant:normal;font-weight:normal;font-stretch:normal;font-family:'Bradley Gratis';-inkscape-font-specification:'Bradley Gratis';text-align:start;text-anchor:start;fill:#00a3f2;fill-opacity:1;stroke-width:0.26458332"
           id="path20364"
           inkscape:connector-curvature="0" />
        <path
           d="m 46.267548,146.50861 q 0.04586,-0.27164 0.130528,-0.51153 0.08819,-0.23989 0.194028,-0.45861 0.105833,-0.21873 0.218722,-0.41628 0.116417,-0.20108 0.218722,-0.38806 0.102306,-0.18697 0.179917,-0.36336 0.07761,-0.17991 0.112889,-0.35983 -0.02822,-0.0176 -0.06703,-0.0318 -0.03528,-0.0141 -0.137583,-0.0141 -0.05292,0 -0.09525,0.0282 -0.03881,0.0247 -0.06703,0.0635 -0.02822,0.0353 -0.04586,0.0776 -0.01411,0.0388 -0.01411,0.0635 0,0.0282 0.01058,0.067 0.01411,0.0353 0.02822,0.0705 0.01764,0.0353 0.03528,0.067 0.01764,0.0282 0.03175,0.0423 l -0.430389,0.26811 q -0.08467,-0.0811 -0.144639,-0.19756 -0.05644,-0.11994 -0.05644,-0.23989 0,-0.06 0.03175,-0.14816 0.03175,-0.0882 0.102305,-0.16934 0.07056,-0.0847 0.183445,-0.14111 0.116416,-0.06 0.282222,-0.06 0.130528,0 0.218722,0.0176 0.08819,0.0176 0.155222,0.0423 0.06703,0.0212 0.123472,0.0388 0.05997,0.0176 0.134056,0.0176 0.04586,0 0.09878,-0.007 0.05292,-0.007 0.09878,-0.0212 0.04586,-0.0141 0.08114,-0.0282 0.03881,-0.0176 0.05997,-0.0388 -0.04233,0.22225 -0.134056,0.46213 -0.09172,0.23989 -0.204611,0.47978 -0.109361,0.23989 -0.232833,0.4692 -0.119945,0.2293 -0.22225,0.43039 -0.09878,0.19755 -0.169334,0.35983 -0.06703,0.15875 -0.07408,0.26105 0.141111,0.06 0.239889,0.06 0.0635,0 0.130528,-0.0141 0.06703,-0.0176 0.119944,-0.0529 0.05644,-0.0353 0.09172,-0.0882 0.03528,-0.0564 0.03528,-0.13405 0,-0.0776 -0.01764,-0.127 -0.01411,-0.0529 -0.03881,-0.0847 -0.0247,-0.0353 -0.05644,-0.06 -0.03175,-0.0282 -0.05997,-0.0564 l 0.405694,-0.29987 q 0.141112,0.10584 0.201084,0.22578 0.05997,0.11995 0.05997,0.26106 0,0.067 -0.02117,0.13053 -0.01764,0.06 -0.04586,0.11288 -0.02469,0.0494 -0.05997,0.0917 -0.03175,0.0423 -0.05644,0.067 l 0.05997,0.06 q 0.01764,0.0176 0.0388,0.0529 0.02117,0.0317 0.02117,0.0564 0,0.0282 -0.02469,0.0811 -0.02117,0.0564 -0.08819,0.0988 -0.02469,-0.0317 -0.05644,-0.0564 -0.02822,-0.0212 -0.05997,-0.0388 -0.03175,-0.0176 -0.06703,-0.0176 z"
           style="font-style:normal;font-variant:normal;font-weight:normal;font-stretch:normal;font-family:'Bradley Gratis';-inkscape-font-specification:'Bradley Gratis';text-align:start;text-anchor:start;fill:#00a3f2;fill-opacity:1;stroke-width:0.26458332"
           id="path20366"
           inkscape:connector-curvature="0" />
        <path
           d="m 49.773884,143.78163 v 0.381 q -0.03881,-0.0353 -0.102306,-0.0776 -0.05997,-0.0423 -0.130528,-0.0741 -0.06703,-0.0353 -0.134055,-0.0565 -0.06703,-0.0247 -0.112889,-0.0247 -0.08467,0 -0.172861,0.067 -0.08819,0.067 -0.144639,0.17991 -0.05644,0.10937 -0.07408,0.28928 -0.01411,0.17639 -0.01411,0.45509 h 0.903111 l -0.179916,0.40216 q -0.03528,-0.0529 -0.08467,-0.0705 -0.04586,-0.0212 -0.08467,-0.0212 H 48.88841 q 0,0.20108 0.0071,0.39511 0.0071,0.1905 0.04586,0.3422 0.04233,0.15169 0.127,0.24694 0.08467,0.0917 0.243417,0.0917 0.08467,0 0.165805,-0.0318 0.08467,-0.0317 0.155222,-0.0776 0.07056,-0.0494 0.123473,-0.1023 0.05644,-0.0529 0.08819,-0.0952 v 0.508 h -0.47625 q -0.342194,0 -0.553861,-0.11995 -0.211667,-0.12347 -0.331611,-0.32808 -0.116417,-0.20814 -0.15875,-0.47978 -0.03881,-0.27164 -0.03881,-0.56797 0,-0.0741 0.01058,-0.19403 0.01058,-0.12347 0.04586,-0.25753 0.03528,-0.13758 0.102305,-0.27516 0.06703,-0.14112 0.179917,-0.25048 0.116417,-0.11289 0.28575,-0.18344 0.169333,-0.0706 0.409222,-0.0706 z"
           style="font-style:normal;font-variant:normal;font-weight:normal;font-stretch:normal;font-family:'Bradley Gratis';-inkscape-font-specification:'Bradley Gratis';text-align:start;text-anchor:start;fill:#00a3f2;fill-opacity:1;stroke-width:0.26458332"
           id="path20368"
           inkscape:connector-curvature="0" />
        <path
           d="m 50.160286,146.50861 v -2.4377 q 0,-0.0988 -0.04233,-0.1658 -0.04233,-0.0706 -0.08467,-0.12348 h 0.684388 v 0.35984 l 0.391584,-0.45509 q 0.179916,0.16228 0.296333,0.32456 0.116417,0.15875 0.183445,0.32103 0.06703,0.15875 0.09172,0.32455 0.02469,0.16228 0.02469,0.33514 0,0.16933 -0.02822,0.32456 -0.02469,0.15169 -0.07408,0.29986 -0.04939,0.14816 -0.119945,0.29986 -0.06703,0.15169 -0.148166,0.3175 h 0.127 q 0.04586,0 0.09525,-0.0317 0.04939,-0.0318 0.09878,-0.0318 v 0.33867 h -0.684389 q 0.09525,-0.19403 0.151695,-0.34925 0.05997,-0.15523 0.09172,-0.29634 0.03175,-0.14111 0.04233,-0.27516 0.01058,-0.13406 0.01058,-0.28575 0,-0.1517 -0.05292,-0.31398 -0.04939,-0.1658 -0.123472,-0.30339 -0.07408,-0.13758 -0.15875,-0.22577 -0.08114,-0.0882 -0.148167,-0.0882 -0.04233,0 -0.06703,0.0212 v 2.11667 z"
           style="font-style:normal;font-variant:normal;font-weight:normal;font-stretch:normal;font-family:'Bradley Gratis';-inkscape-font-specification:'Bradley Gratis';text-align:start;text-anchor:start;fill:#00a3f2;fill-opacity:1;stroke-width:0.26458332"
           id="path20370"
           inkscape:connector-curvature="0" />
        <path
           d="m 53.398455,146.62502 q -0.1905,-0.13758 -0.324556,-0.2928 -0.134055,-0.15875 -0.215194,-0.32809 -0.08114,-0.16933 -0.119945,-0.34219 -0.03528,-0.17639 -0.03528,-0.34572 0,-0.16581 0.03528,-0.32809 0.03528,-0.1658 0.09172,-0.32455 0.05997,-0.16228 0.137584,-0.31397 0.07761,-0.15523 0.15875,-0.30339 h -0.02117 q -0.01058,0 -0.02469,0 -0.01058,-0.004 -0.02822,-0.004 -0.05644,0 -0.137583,0.0141 -0.07761,0.0141 -0.151694,0.0706 v -0.34573 h 0.740833 q -0.09172,0.15875 -0.15875,0.32103 -0.0635,0.15875 -0.105833,0.31045 -0.03881,0.14816 -0.05997,0.28222 -0.01764,0.13053 -0.01764,0.23636 0,0.10583 0.02117,0.254 0.02117,0.14817 0.07761,0.30692 0.05997,0.15522 0.15875,0.29633 0.102306,0.14111 0.264584,0.2293 l 0.105833,-0.0776 q -0.0635,-0.11994 -0.09878,-0.2293 -0.03528,-0.11289 -0.05292,-0.21167 -0.01411,-0.0988 -0.01764,-0.17992 -0.0035,-0.0847 -0.0035,-0.15169 0,-0.10936 0.02822,-0.24694 0.02822,-0.13759 0.08114,-0.28575 0.05292,-0.14817 0.127,-0.29987 0.07761,-0.15169 0.172861,-0.29633 -0.134055,0 -0.22225,0.0212 -0.08467,0.0212 -0.144639,0.06 v -0.33867 h 0.762 q -0.0635,0.0882 -0.127,0.20109 -0.05997,0.10936 -0.105833,0.23989 -0.04586,0.127 -0.07408,0.27163 -0.02822,0.14464 -0.02822,0.29634 0,0.25753 0.04586,0.45861 0.04586,0.19755 0.127,0.34925 0.08114,0.15169 0.1905,0.26105 0.109362,0.10937 0.232834,0.18698 v -2.26484 h 0.529166 v 2.1202 q 0,0.0247 -0.03528,0.0705 -0.03528,0.0423 -0.09172,0.0988 -0.05292,0.0565 -0.127,0.12347 -0.07055,0.0635 -0.144638,0.127 -0.176389,0.14817 -0.398639,0.32456 -0.172861,-0.13406 -0.296334,-0.26458 -0.123472,-0.13053 -0.211666,-0.254 z"
           style="font-style:normal;font-variant:normal;font-weight:normal;font-stretch:normal;font-family:'Bradley Gratis';-inkscape-font-specification:'Bradley Gratis';text-align:start;text-anchor:start;fill:#00a3f2;fill-opacity:1;stroke-width:0.26458332"
           id="path20372"
           inkscape:connector-curvature="0" />
        <path
           d="m 56.650514,144.81174 v -0.87841 h -0.416278 q -0.0035,0.23636 -0.01411,0.46919 -0.0071,0.22931 -0.01764,0.40922 z m 0.719667,-1.03011 q -0.03881,0.0282 -0.07408,0.0706 -0.03175,0.0423 -0.05645,0.0917 -0.02117,0.0459 -0.03528,0.0917 -0.01411,0.0423 -0.01411,0.0741 v 2.39889 h -0.53975 v -1.32998 h -0.472722 q -0.0035,0.127 -0.03528,0.2787 -0.03175,0.14816 -0.08819,0.29986 -0.05292,0.14817 -0.127,0.28928 -0.07056,0.13758 -0.162278,0.24341 -0.08819,0.10584 -0.1905,0.16934 -0.09878,0.0635 -0.208139,0.0635 -0.07055,0 -0.123472,-0.0423 -0.04939,-0.0423 -0.04939,-0.11994 0,-0.0494 0.03175,-0.0706 0.03175,-0.0247 0.06703,-0.0247 0.03175,0 0.04939,0.0106 0.01764,0.007 0.03175,0.0212 0.01764,0.0106 0.03881,0.0212 0.02117,0.007 0.05997,0.007 0.0635,0 0.102305,-0.0635 0.03881,-0.067 0.0635,-0.17639 0.0247,-0.11289 0.03528,-0.25753 0.01411,-0.14816 0.02117,-0.31044 0.0071,-0.16228 0.01764,-0.32808 0.01058,-0.16934 0.02822,-0.32456 0.02117,-0.18344 0.0635,-0.33514 0.04586,-0.15169 0.09525,-0.26811 0.04939,-0.11642 0.09878,-0.19755 0.04939,-0.0811 0.08467,-0.13053 h -0.07761 q -0.06703,0 -0.123472,0.0212 -0.05644,0.0176 -0.102306,0.0423 -0.04233,0.0212 -0.07761,0.0423 -0.03175,0.0176 -0.05644,0.0176 -0.05997,0 -0.08819,-0.0423 -0.02822,-0.0423 -0.02822,-0.0952 0,-0.0494 0.05292,-0.0917 0.05644,-0.0459 0.155222,-0.0459 z"
           style="font-style:normal;font-variant:normal;font-weight:normal;font-stretch:normal;font-family:'Bradley Gratis';-inkscape-font-specification:'Bradley Gratis';text-align:start;text-anchor:start;fill:#00a3f2;fill-opacity:1;stroke-width:0.26458332"
           id="path20374"
           inkscape:connector-curvature="0" />
        <path
           d="m 58.150372,146.63208 q -0.08114,-0.0811 -0.186973,-0.15875 -0.102305,-0.0776 -0.201083,-0.13759 -0.09525,-0.06 -0.169333,-0.1023 -0.07056,-0.0423 -0.08114,-0.0529 0.03528,-0.0423 0.08819,-0.11641 0.05292,-0.0776 0.102306,-0.1517 0.05292,-0.0741 0.09172,-0.13053 0.04233,-0.06 0.05292,-0.0705 0.04939,0.0317 0.134055,0.0882 0.08819,0.0529 0.172861,0.11289 0.08819,0.06 0.15875,0.10936 0.07056,0.0494 0.09172,0.0706 0.04939,-0.0282 0.08114,-0.0741 0.03528,-0.0459 0.03528,-0.14816 0,-0.0882 -0.07408,-0.18697 -0.07056,-0.0988 -0.176389,-0.20814 -0.105833,-0.10936 -0.232833,-0.22931 -0.127,-0.11994 -0.232834,-0.24694 -0.105833,-0.127 -0.179916,-0.25753 -0.07056,-0.13053 -0.07056,-0.26811 0,-0.0988 0.04939,-0.18345 0.05292,-0.0882 0.130528,-0.16227 0.07761,-0.0776 0.169333,-0.13759 0.09525,-0.0635 0.179917,-0.11641 0.08819,-0.0564 0.155222,-0.0988 0.06703,-0.0459 0.09525,-0.0811 0.02117,0.0176 0.09172,0.0882 0.07408,0.067 0.15875,0.14464 0.08467,0.0776 0.15875,0.13759 0.07761,0.06 0.102306,0.06 -0.03528,0.0282 -0.08819,0.0847 -0.04939,0.0529 -0.102305,0.11289 -0.04939,0.06 -0.09172,0.11642 -0.03881,0.0529 -0.05644,0.0811 -0.08114,-0.0353 -0.162278,-0.10583 -0.08114,-0.0706 -0.148166,-0.13759 -0.06703,-0.067 -0.112889,-0.11641 -0.04586,-0.0529 -0.05997,-0.0529 -0.02822,0 -0.04939,0.0317 -0.01764,0.0282 -0.01764,0.067 0,0.0847 0.07408,0.17991 0.07761,0.0952 0.186972,0.20461 0.112889,0.10584 0.243417,0.22578 0.134056,0.11642 0.243417,0.24342 0.112889,0.127 0.186972,0.26458 0.07761,0.13406 0.07761,0.27517 0,0.127 -0.09525,0.26811 -0.09525,0.14111 -0.229306,0.28222 -0.130527,0.13759 -0.268111,0.26459 -0.137583,0.12347 -0.225777,0.21872 z"
           style="font-style:normal;font-variant:normal;font-weight:normal;font-stretch:normal;font-family:'Bradley Gratis';-inkscape-font-specification:'Bradley Gratis';text-align:start;text-anchor:start;fill:#00a3f2;fill-opacity:1;stroke-width:0.26458332"
           id="path20376"
           inkscape:connector-curvature="0" />
        <path
           d="m 60.635359,146.03236 q 0,0.13758 -0.05644,0.23988 -0.05644,0.0988 -0.148167,0.16228 -0.08819,0.0635 -0.197555,0.0953 -0.109361,0.0317 -0.215195,0.0317 -0.165805,0 -0.324555,-0.0811 -0.15875,-0.0811 -0.28575,-0.21872 -0.127,-0.14111 -0.204611,-0.32808 -0.07761,-0.1905 -0.07761,-0.40922 0,-0.39159 0.179916,-0.72673 0.179917,-0.33866 0.500945,-0.61383 -0.02822,-0.004 -0.05292,-0.004 -0.02117,-0.004 -0.04586,-0.004 -0.08467,0 -0.179917,0.0282 -0.09525,0.0282 -0.179916,0.0741 -0.08467,0.0423 -0.155223,0.0952 -0.06703,0.0529 -0.102305,0.0988 0.02822,-0.13759 0.105833,-0.27164 0.07761,-0.13406 0.194028,-0.23636 0.116417,-0.10231 0.268111,-0.16581 0.151694,-0.0635 0.331611,-0.0635 0.09172,0 0.194028,0.0282 0.102305,0.0282 0.194028,0.0741 0.09525,0.0423 0.169333,0.0953 0.07408,0.0529 0.112889,0.1023 l -0.289278,0.44098 q -0.176389,-0.17287 -0.381,-0.24695 -0.04586,0.0741 -0.09525,0.17639 -0.04939,0.0988 -0.09172,0.22578 -0.03881,0.127 -0.06703,0.28222 -0.02469,0.15169 -0.02469,0.33161 0,0.16933 0.02469,0.29986 0.02822,0.13053 0.07056,0.22578 0.04233,0.0952 0.09525,0.15875 0.05644,0.0635 0.112889,0.10583 0.134055,0.0953 0.306916,0.10584 0.07056,0 0.162278,-0.0282 0.09525,-0.0318 0.151694,-0.0811 z"
           style="font-style:normal;font-variant:normal;font-weight:normal;font-stretch:normal;font-family:'Bradley Gratis';-inkscape-font-specification:'Bradley Gratis';text-align:start;text-anchor:start;fill:#00a3f2;fill-opacity:1;stroke-width:0.26458332"
           id="path20378"
           inkscape:connector-curvature="0" />
        <path
           d="m 62.403604,143.78163 v 0.381 q -0.03881,-0.0353 -0.102306,-0.0776 -0.05997,-0.0423 -0.130528,-0.0741 -0.06703,-0.0353 -0.134055,-0.0565 -0.06703,-0.0247 -0.112889,-0.0247 -0.08467,0 -0.172861,0.067 -0.08819,0.067 -0.144639,0.17991 -0.05644,0.10937 -0.07408,0.28928 -0.01411,0.17639 -0.01411,0.45509 h 0.903111 l -0.179917,0.40216 q -0.03528,-0.0529 -0.08467,-0.0705 -0.04586,-0.0212 -0.08467,-0.0212 h -0.553861 q 0,0.20108 0.0071,0.39511 0.0071,0.1905 0.04586,0.3422 0.04233,0.15169 0.127,0.24694 0.08467,0.0917 0.243417,0.0917 0.08467,0 0.165805,-0.0318 0.08467,-0.0317 0.155223,-0.0776 0.07055,-0.0494 0.123472,-0.1023 0.05644,-0.0529 0.08819,-0.0952 v 0.508 h -0.47625 q -0.342194,0 -0.553861,-0.11995 -0.211666,-0.12347 -0.331611,-0.32808 -0.116417,-0.20814 -0.15875,-0.47978 -0.03881,-0.27164 -0.03881,-0.56797 0,-0.0741 0.01058,-0.19403 0.01058,-0.12347 0.04586,-0.25753 0.03528,-0.13758 0.102306,-0.27516 0.06703,-0.14112 0.179916,-0.25048 0.116417,-0.11289 0.28575,-0.18344 0.169334,-0.0706 0.409222,-0.0706 z"
           style="font-style:normal;font-variant:normal;font-weight:normal;font-stretch:normal;font-family:'Bradley Gratis';-inkscape-font-specification:'Bradley Gratis';text-align:start;text-anchor:start;fill:#00a3f2;fill-opacity:1;stroke-width:0.26458332"
           id="path20380"
           inkscape:connector-curvature="0" />
        <path
           d="m 63.682533,144.47661 q -0.08819,-0.21167 -0.151694,-0.35278 -0.0635,-0.14111 -0.09878,-0.14111 -0.03881,0 -0.05292,0.0353 -0.01058,0.0318 -0.01058,0.0565 v 1.91205 q 0,0.0776 -0.04233,0.16228 -0.04233,0.0847 -0.112888,0.14817 0.130527,0 0.232833,-0.0635 0.102305,-0.067 0.211667,-0.14464 0.112888,-0.0811 0.250472,-0.14464 0.137583,-0.067 0.342194,-0.067 v 0.63148 H 62.65595 q 0.04586,-0.067 0.07761,-0.127 0.03528,-0.06 0.05644,-0.11995 0.02117,-0.06 0.03175,-0.127 0.01058,-0.067 0.01058,-0.14817 v -1.66863 q 0,-0.11289 -0.04233,-0.18345 -0.04233,-0.0741 -0.05997,-0.1023 0.01411,-0.004 0.07056,-0.0247 0.05997,-0.0247 0.144639,-0.0564 0.08467,-0.0318 0.186972,-0.067 0.102305,-0.0353 0.201083,-0.0635 0.09878,-0.0317 0.186972,-0.0494 0.08819,-0.0212 0.144639,-0.0212 0.0882,0 0.165806,0.0494 0.07761,0.0494 0.141111,0.12347 0.0635,0.0741 0.109361,0.16581 0.04586,0.0882 0.07408,0.16581 z"
           style="font-style:normal;font-variant:normal;font-weight:normal;font-stretch:normal;font-family:'Bradley Gratis';-inkscape-font-specification:'Bradley Gratis';text-align:start;text-anchor:start;fill:#00a3f2;fill-opacity:1;stroke-width:0.26458332"
           id="path20382"
           inkscape:connector-curvature="0" />
        <path
           d="m 65.8627,144.81174 v -0.87841 h -0.416278 q -0.0035,0.23636 -0.01411,0.46919 -0.0071,0.22931 -0.01764,0.40922 z m 0.719667,-1.03011 q -0.03881,0.0282 -0.07408,0.0706 -0.03175,0.0423 -0.05644,0.0917 -0.02117,0.0459 -0.03528,0.0917 -0.01411,0.0423 -0.01411,0.0741 v 2.39889 H 65.8627 v -1.32998 h -0.472722 q -0.0035,0.127 -0.03528,0.2787 -0.03175,0.14816 -0.08819,0.29986 -0.05292,0.14817 -0.127,0.28928 -0.07056,0.13758 -0.162278,0.24341 -0.08819,0.10584 -0.1905,0.16934 -0.09878,0.0635 -0.208139,0.0635 -0.07056,0 -0.123472,-0.0423 -0.04939,-0.0423 -0.04939,-0.11994 0,-0.0494 0.03175,-0.0706 0.03175,-0.0247 0.06703,-0.0247 0.03175,0 0.04939,0.0106 0.01764,0.007 0.03175,0.0212 0.01764,0.0106 0.0388,0.0212 0.02117,0.007 0.05997,0.007 0.0635,0 0.102306,-0.0635 0.0388,-0.067 0.0635,-0.17639 0.02469,-0.11289 0.03528,-0.25753 0.01411,-0.14816 0.02117,-0.31044 0.0071,-0.16228 0.01764,-0.32808 0.01058,-0.16934 0.02822,-0.32456 0.02117,-0.18344 0.0635,-0.33514 0.04586,-0.15169 0.09525,-0.26811 0.04939,-0.11642 0.09878,-0.19755 0.04939,-0.0811 0.08467,-0.13053 h -0.07761 q -0.06703,0 -0.123472,0.0212 -0.05644,0.0176 -0.102306,0.0423 -0.04233,0.0212 -0.07761,0.0423 -0.03175,0.0176 -0.05645,0.0176 -0.05997,0 -0.08819,-0.0423 -0.02822,-0.0423 -0.02822,-0.0952 0,-0.0494 0.05292,-0.0917 0.05644,-0.0459 0.155223,-0.0459 z"
           style="font-style:normal;font-variant:normal;font-weight:normal;font-stretch:normal;font-family:'Bradley Gratis';-inkscape-font-specification:'Bradley Gratis';text-align:start;text-anchor:start;fill:#00a3f2;fill-opacity:1;stroke-width:0.26458332"
           id="path20384"
           inkscape:connector-curvature="0" />
        <path
           d="m 66.882779,146.50861 v -2.4377 q 0,-0.0988 -0.04233,-0.1658 -0.04233,-0.0706 -0.08467,-0.12348 h 0.684389 v 0.35984 l 0.391583,-0.45509 q 0.179917,0.16228 0.296333,0.32456 0.116417,0.15875 0.183445,0.32103 0.06703,0.15875 0.09172,0.32455 0.02469,0.16228 0.02469,0.33514 0,0.16933 -0.02822,0.32456 -0.02469,0.15169 -0.07408,0.29986 -0.04939,0.14816 -0.119945,0.29986 -0.06703,0.15169 -0.148166,0.3175 h 0.127 q 0.04586,0 0.09525,-0.0317 0.04939,-0.0318 0.09878,-0.0318 v 0.33867 H 67.69417 q 0.09525,-0.19403 0.151694,-0.34925 0.05997,-0.15523 0.09172,-0.29634 0.03175,-0.14111 0.04233,-0.27516 0.01058,-0.13406 0.01058,-0.28575 0,-0.1517 -0.05292,-0.31398 -0.04939,-0.1658 -0.123472,-0.30339 -0.07408,-0.13758 -0.15875,-0.22577 -0.08114,-0.0882 -0.148167,-0.0882 -0.04233,0 -0.06703,0.0212 v 2.11667 z"
           style="font-style:normal;font-variant:normal;font-weight:normal;font-stretch:normal;font-family:'Bradley Gratis';-inkscape-font-specification:'Bradley Gratis';text-align:start;text-anchor:start;fill:#00a3f2;fill-opacity:1;stroke-width:0.26458332"
           id="path20386"
           inkscape:connector-curvature="0" />
        <path
           d="m 68.771683,144.02858 q -0.09172,-0.0388 -0.127,-0.0952 -0.03528,-0.0565 -0.03528,-0.10584 0,-0.0423 0.02822,-0.0529 0.02822,0.0176 0.07761,0.0247 0.04939,0.007 0.112888,0.007 0.03175,0 0.08819,-0.0106 0.05997,-0.0106 0.130528,-0.0212 0.07055,-0.0106 0.144639,-0.0212 0.07761,-0.0106 0.144638,-0.0106 0.162278,0 0.331612,0.0847 0.169333,0.0811 0.303388,0.254 0.134056,0.16934 0.218723,0.43392 0.08819,0.26106 0.08819,0.62442 0,0.30691 -0.05292,0.52916 -0.05292,0.22225 -0.134055,0.37748 -0.08114,0.15522 -0.179917,0.25047 -0.09878,0.0917 -0.194028,0.14464 -0.09172,0.0494 -0.169333,0.067 -0.07408,0.0176 -0.109361,0.0176 -0.05292,0 -0.112889,-0.0141 -0.05997,-0.0141 -0.119944,-0.0318 -0.05645,-0.0176 -0.109361,-0.0317 -0.04939,-0.0141 -0.08467,-0.0141 -0.03881,0 -0.07056,0.0141 -0.03175,0.0106 -0.06703,0.0247 -0.03175,0.0106 -0.07056,0.0247 -0.03881,0.0106 -0.08819,0.0106 -0.01764,0 -0.03881,-0.004 -0.01764,-0.004 -0.03528,-0.0106 -0.01764,-0.007 -0.03528,-0.0176 0.02822,-0.0176 0.05644,-0.06 0.02822,-0.0459 0.05292,-0.0952 0.02822,-0.0529 0.05644,-0.11641 z m 0.518583,2.10255 q 0,0.0741 0.02469,0.11642 0.02822,0.0388 0.05997,0.0564 0.03881,0.0212 0.08467,0.0247 0.08114,0 0.141111,-0.10936 0.0635,-0.10936 0.0635,-0.2787 v -1.54869 q 0,-0.16581 -0.03175,-0.25753 -0.03175,-0.0917 -0.07408,-0.13405 -0.04233,-0.0423 -0.08467,-0.0494 -0.04233,-0.0106 -0.06703,-0.0106 -0.04233,0 -0.08114,0.0564 -0.03528,0.0564 -0.03528,0.14816 z"
           style="font-style:normal;font-variant:normal;font-weight:normal;font-stretch:normal;font-family:'Bradley Gratis';-inkscape-font-specification:'Bradley Gratis';text-align:start;text-anchor:start;fill:#00a3f2;fill-opacity:1;stroke-width:0.26458332"
           id="path20388"
           inkscape:connector-curvature="0" />
      </g>
    </g>
    <g
       style="font-style:normal;font-variant:normal;font-weight:bold;font-stretch:normal;font-size:13.33333302px;line-height:1.25;font-family:Arial;-inkscape-font-specification:'Arial Bold';text-align:center;letter-spacing:0px;word-spacing:0px;text-anchor:middle;fill:#000000;fill-opacity:1;stroke:none"
       id="flowRoot1633" />
    <g
       aria-label="AMOUNT"
       style="font-style:normal;font-variant:normal;font-weight:bold;font-stretch:normal;font-size:3.52777767px;line-height:1.25;font-family:Homenaje;-inkscape-font-specification:'Homenaje Bold';letter-spacing:0px;word-spacing:0px;fill:#ffffff;fill-opacity:1;stroke:none;stroke-width:0.26458332"
       id="text5443-7-5-4-2">
      <path
         d="m 61.201066,134.10353 h 0.328436 l 0.375356,1.72861 h -0.202495 l -0.121002,-0.50871 h -0.449439 l -0.111125,0.50871 h -0.209903 z m 0.343253,1.05198 -0.1778,-0.889 h -0.01729 l -0.18027,0.889 z"
         style="font-style:normal;font-variant:normal;font-weight:bold;font-stretch:normal;font-size:2.46944451px;font-family:Homenaje;-inkscape-font-specification:'Homenaje Bold';stroke-width:0.26458332"
         id="path2902" />
      <path
         d="m 62.325705,135.83214 h -0.217311 v -1.72861 h 0.328436 l 0.330906,1.02235 h 0.01729 l 0.338314,-1.02235 h 0.316089 v 1.72861 h -0.217311 v -1.46932 l -0.330906,1.01 h -0.234597 l -0.330906,-1.01247 z"
         style="font-style:normal;font-variant:normal;font-weight:bold;font-stretch:normal;font-size:2.46944451px;font-family:Homenaje;-inkscape-font-specification:'Homenaje Bold';stroke-width:0.26458332"
         id="path2904" />
      <path
         d="m 64.644668,135.40492 q 0,0.20991 -0.121003,0.32844 -0.121002,0.11606 -0.35313,0.11606 -0.229659,0 -0.350661,-0.11606 -0.121003,-0.11853 -0.121003,-0.32844 v -0.87418 q 0,-0.2099 0.121003,-0.32597 0.121002,-0.11853 0.350661,-0.11853 0.232128,0 0.35313,0.11853 0.121003,0.11607 0.121003,0.32597 z m -0.728486,0.042 q 0,0.1136 0.07161,0.1778 0.07408,0.0617 0.182739,0.0617 0.108655,0 0.182739,-0.0617 0.07408,-0.0642 0.07408,-0.1778 v -0.95814 q 0,-0.11359 -0.07408,-0.17533 -0.07408,-0.0642 -0.182739,-0.0642 -0.108656,0 -0.182739,0.0642 -0.07161,0.0617 -0.07161,0.17533 z"
         style="font-style:normal;font-variant:normal;font-weight:bold;font-stretch:normal;font-size:2.46944451px;font-family:Homenaje;-inkscape-font-specification:'Homenaje Bold';stroke-width:0.26458332"
         id="path2906" />
      <path
         d="m 64.856423,134.10353 h 0.217311 v 1.34337 q 0,0.11854 0.0568,0.18027 0.05927,0.0593 0.162984,0.0593 0.103716,0 0.162983,-0.0593 0.05927,-0.0617 0.05927,-0.18027 v -1.34337 h 0.217311 v 1.30139 q 0,0.4445 -0.439561,0.4445 -0.437092,0 -0.437092,-0.4445 z"
         style="font-style:normal;font-variant:normal;font-weight:bold;font-stretch:normal;font-size:2.46944451px;font-family:Homenaje;-inkscape-font-specification:'Homenaje Bold';stroke-width:0.26458332"
         id="path2908" />
      <path
         d="m 66.986088,135.83214 h -0.31115 l -0.456848,-1.57057 v 1.57057 h -0.217311 v -1.72861 h 0.363009 l 0.402519,1.49401 v -1.49401 h 0.219781 z"
         style="font-style:normal;font-variant:normal;font-weight:bold;font-stretch:normal;font-size:2.46944451px;font-family:Homenaje;-inkscape-font-specification:'Homenaje Bold';stroke-width:0.26458332"
         id="path2910" />
      <path
         d="m 67.542446,135.83214 v -1.56563 h -0.345723 v -0.16298 h 0.908756 v 0.16298 h -0.345722 v 1.56563 z"
         style="font-style:normal;font-variant:normal;font-weight:bold;font-stretch:normal;font-size:2.46944451px;font-family:Homenaje;-inkscape-font-specification:'Homenaje Bold';stroke-width:0.26458332"
         id="path2912" />
    </g>
    <g
       aria-label="RANDOM"
       style="font-style:normal;font-variant:normal;font-weight:bold;font-stretch:normal;font-size:3.52777767px;line-height:1.25;font-family:Homenaje;-inkscape-font-specification:'Homenaje Bold';letter-spacing:0px;word-spacing:0px;fill:#ffffff;fill-opacity:1;stroke:none;stroke-width:0.26458332"
       id="text5443-7-5-4-7">
      <path
         d="m 78.490705,134.26651 v 0.64453 h 0.175331 q 0.140758,0 0.217311,-0.0963 0.07902,-0.0988 0.07902,-0.25189 0,-0.29633 -0.296333,-0.29633 z m -0.0049,0.80751 v 0.75812 h -0.212372 v -1.72861 h 0.456847 q 0.4445,0 0.4445,0.45931 0,0.17286 -0.06668,0.30128 -0.06667,0.12841 -0.190147,0.1778 l 0.343253,0.79022 h -0.212373 l -0.335844,-0.75812 z"
         style="font-style:normal;font-variant:normal;font-weight:bold;font-stretch:normal;font-size:2.46944451px;font-family:Homenaje;-inkscape-font-specification:'Homenaje Bold';stroke-width:0.26458332"
         id="path2915" />
      <path
         d="m 79.748115,134.10353 h 0.328436 l 0.375356,1.72861 h -0.202495 l -0.121002,-0.50871 h -0.449439 l -0.111125,0.50871 h -0.209903 z m 0.343253,1.05198 -0.1778,-0.889 h -0.01729 l -0.18027,0.889 z"
         style="font-style:normal;font-variant:normal;font-weight:bold;font-stretch:normal;font-size:2.46944451px;font-family:Homenaje;-inkscape-font-specification:'Homenaje Bold';stroke-width:0.26458332"
         id="path2917" />
      <path
         d="m 81.64569,135.83214 h -0.31115 l -0.456847,-1.57057 v 1.57057 h -0.217311 v -1.72861 h 0.363008 l 0.40252,1.49401 v -1.49401 h 0.21978 z"
         style="font-style:normal;font-variant:normal;font-weight:bold;font-stretch:normal;font-size:2.46944451px;font-family:Homenaje;-inkscape-font-specification:'Homenaje Bold';stroke-width:0.26458332"
         id="path2919" />
      <path
         d="m 82.204518,135.66422 h 0.209903 q 0.113594,0 0.182739,-0.0642 0.07161,-0.0667 0.07161,-0.17533 v -0.91369 q 0,-0.10866 -0.07161,-0.17287 -0.06915,-0.0667 -0.182739,-0.0667 h -0.209903 z m -0.219781,0.16792 v -1.72861 h 0.429684 q 0.224719,0 0.348191,0.11359 0.123473,0.1136 0.123473,0.33338 v 0.83467 q 0,0.21978 -0.123473,0.33337 -0.123472,0.11113 -0.348191,0.1136 z"
         style="font-style:normal;font-variant:normal;font-weight:bold;font-stretch:normal;font-size:2.46944451px;font-family:Homenaje;-inkscape-font-specification:'Homenaje Bold';stroke-width:0.26458332"
         id="path2921" />
      <path
         d="m 84.045412,135.40492 q 0,0.20991 -0.121003,0.32844 -0.121003,0.11606 -0.353131,0.11606 -0.229658,0 -0.350661,-0.11606 -0.121003,-0.11853 -0.121003,-0.32844 v -0.87418 q 0,-0.2099 0.121003,-0.32597 0.121003,-0.11853 0.350661,-0.11853 0.232128,0 0.353131,0.11853 0.121003,0.11607 0.121003,0.32597 z m -0.728487,0.042 q 0,0.1136 0.07161,0.1778 0.07408,0.0617 0.182739,0.0617 0.108656,0 0.182739,-0.0617 0.07408,-0.0642 0.07408,-0.1778 v -0.95814 q 0,-0.11359 -0.07408,-0.17533 -0.07408,-0.0642 -0.182739,-0.0642 -0.108655,0 -0.182739,0.0642 -0.07161,0.0617 -0.07161,0.17533 z"
         style="font-style:normal;font-variant:normal;font-weight:bold;font-stretch:normal;font-size:2.46944451px;font-family:Homenaje;-inkscape-font-specification:'Homenaje Bold';stroke-width:0.26458332"
         id="path2923" />
      <path
         d="m 84.523867,135.83214 h -0.217312 v -1.72861 h 0.328437 l 0.330905,1.02235 h 0.01729 l 0.338314,-1.02235 h 0.316089 v 1.72861 h -0.217311 v -1.46932 l -0.330906,1.01 h -0.234597 l -0.330905,-1.01247 z"
         style="font-style:normal;font-variant:normal;font-weight:bold;font-stretch:normal;font-size:2.46944451px;font-family:Homenaje;-inkscape-font-specification:'Homenaje Bold';stroke-width:0.26458332"
         id="path2925" />
    </g>
    <g
       aria-label="GAUSSIAN"
       style="font-style:normal;font-variant:normal;font-weight:bold;font-stretch:normal;font-size:3.52777767px;line-height:1.25;font-family:Homenaje;-inkscape-font-specification:'Homenaje Bold';letter-spacing:0px;word-spacing:0px;fill:#ffffff;fill-opacity:1;stroke:none;stroke-width:0.26458332"
       id="text5443-7-5-4-8">
      <path
         d="m 75.482923,145.09749 h -0.312208 q -0.160514,0 -0.248708,-0.0811 -0.08819,-0.0811 -0.08819,-0.23813 v -0.59795 q 0,-0.15523 0.09525,-0.23636 0.09525,-0.0811 0.259292,-0.0811 h 0.259292 v 0.11818 h -0.276931 q -0.08114,0 -0.132292,0.0476 -0.04939,0.0459 -0.04939,0.12347 v 0.65793 q 0,0.0794 0.04762,0.12524 0.04762,0.0459 0.127,0.0459 h 0.164041 V 144.496 h -0.15875 v -0.11641 h 0.313972 z"
         style="font-style:normal;font-variant:normal;font-weight:bold;font-stretch:normal;font-size:1.76388896px;font-family:Homenaje;-inkscape-font-specification:'Homenaje Bold';stroke-width:0.26458332"
         id="path2928" />
      <path
         d="m 75.88498,143.86277 h 0.234597 l 0.268111,1.23472 h -0.144639 l -0.08643,-0.36336 h -0.321028 l -0.07937,0.36336 h -0.149931 z m 0.24518,0.75141 -0.127,-0.635 h -0.01235 l -0.128764,0.635 z"
         style="font-style:normal;font-variant:normal;font-weight:bold;font-stretch:normal;font-size:1.76388896px;font-family:Homenaje;-inkscape-font-specification:'Homenaje Bold';stroke-width:0.26458332"
         id="path2930" />
      <path
         d="m 76.497794,143.86277 h 0.155222 v 0.95955 q 0,0.0847 0.04057,0.12877 0.04233,0.0423 0.116417,0.0423 0.07408,0 0.116417,-0.0423 0.04233,-0.0441 0.04233,-0.12877 v -0.95955 h 0.155222 v 0.92957 q 0,0.3175 -0.313972,0.3175 -0.312208,0 -0.312208,-0.3175 z"
         style="font-style:normal;font-variant:normal;font-weight:bold;font-stretch:normal;font-size:1.76388896px;font-family:Homenaje;-inkscape-font-specification:'Homenaje Bold';stroke-width:0.26458332"
         id="path2932" />
      <path
         d="m 77.500399,144.98107 q 0.100542,0 0.144639,-0.06 0.04586,-0.06 0.04586,-0.13935 0,-0.0794 -0.02999,-0.13405 -0.02822,-0.0564 -0.07232,-0.0882 -0.0441,-0.0335 -0.09525,-0.0723 -0.05115,-0.0388 -0.09525,-0.0741 -0.0441,-0.037 -0.07408,-0.0988 -0.02822,-0.0617 -0.02822,-0.14111 0,-0.14111 0.08467,-0.22578 0.08467,-0.0847 0.234597,-0.0847 h 0.142875 v 0.11641 h -0.13582 q -0.08467,0 -0.128764,0.0547 -0.0441,0.0547 -0.0441,0.11818 0,0.0635 0.02822,0.10937 0.02999,0.0459 0.07408,0.0758 0.0441,0.03 0.09525,0.0706 0.05292,0.0406 0.09701,0.0829 0.0441,0.0406 0.07232,0.11113 0.02999,0.0705 0.02999,0.16051 0,0.16581 -0.09525,0.25047 -0.09349,0.0847 -0.257528,0.0847 h -0.185208 v -0.11642 z"
         style="font-style:normal;font-variant:normal;font-weight:bold;font-stretch:normal;font-size:1.76388896px;font-family:Homenaje;-inkscape-font-specification:'Homenaje Bold';stroke-width:0.26458332"
         id="path2934" />
      <path
         d="m 78.189418,144.98107 q 0.100542,0 0.144639,-0.06 0.04586,-0.06 0.04586,-0.13935 0,-0.0794 -0.02999,-0.13405 -0.02822,-0.0564 -0.07232,-0.0882 -0.0441,-0.0335 -0.09525,-0.0723 -0.05115,-0.0388 -0.09525,-0.0741 -0.0441,-0.037 -0.07408,-0.0988 -0.02822,-0.0617 -0.02822,-0.14111 0,-0.14111 0.08467,-0.22578 0.08467,-0.0847 0.234597,-0.0847 h 0.142875 v 0.11641 h -0.135819 q -0.08467,0 -0.128764,0.0547 -0.0441,0.0547 -0.0441,0.11818 0,0.0635 0.02822,0.10937 0.02999,0.0459 0.07408,0.0758 0.0441,0.03 0.09525,0.0706 0.05292,0.0406 0.09701,0.0829 0.0441,0.0406 0.07232,0.11113 0.02999,0.0705 0.02999,0.16051 0,0.16581 -0.09525,0.25047 -0.09349,0.0847 -0.257527,0.0847 h -0.185209 v -0.11642 z"
         style="font-style:normal;font-variant:normal;font-weight:bold;font-stretch:normal;font-size:1.76388896px;font-family:Homenaje;-inkscape-font-specification:'Homenaje Bold';stroke-width:0.26458332"
         id="path2936" />
      <path
         d="m 78.70734,145.09749 v -1.23472 h 0.155222 v 1.23472 z"
         style="font-style:normal;font-variant:normal;font-weight:bold;font-stretch:normal;font-size:1.76388896px;font-family:Homenaje;-inkscape-font-specification:'Homenaje Bold';stroke-width:0.26458332"
         id="path2938" />
      <path
         d="m 79.30596,143.86277 h 0.234597 l 0.268111,1.23472 h -0.144639 l -0.08643,-0.36336 h -0.321028 l -0.07937,0.36336 h -0.149931 z m 0.245181,0.75141 -0.127001,-0.635 h -0.01235 l -0.128764,0.635 z"
         style="font-style:normal;font-variant:normal;font-weight:bold;font-stretch:normal;font-size:1.76388896px;font-family:Homenaje;-inkscape-font-specification:'Homenaje Bold';stroke-width:0.26458332"
         id="path2940" />
      <path
         d="m 80.661371,145.09749 h -0.22225 l -0.326319,-1.12183 v 1.12183 h -0.155223 v -1.23472 h 0.259292 l 0.287514,1.06715 v -1.06715 h 0.156986 z"
         style="font-style:normal;font-variant:normal;font-weight:bold;font-stretch:normal;font-size:1.76388896px;font-family:Homenaje;-inkscape-font-specification:'Homenaje Bold';stroke-width:0.26458332"
         id="path2942" />
    </g>
    <g
       aria-label="BEAT"
       style="font-style:normal;font-variant:normal;font-weight:bold;font-stretch:normal;font-size:3.52777767px;line-height:1.25;font-family:Homenaje;-inkscape-font-specification:'Homenaje Bold';letter-spacing:0px;word-spacing:0px;fill:#ffffff;fill-opacity:1;stroke:none;stroke-width:0.26458332"
       id="text5443-0-6">
      <path
         d="m 39.169038,130.55185 v 0.48048 h 0.13335 q 0.127,0 0.19685,-0.0635 0.06985,-0.0656 0.06985,-0.18838 0,-0.2286 -0.2667,-0.2286 z m 0.427567,0.55456 q 0.08255,0.0444 0.135466,0.13335 0.05503,0.0889 0.05503,0.17992 0,0.091 -0.0085,0.14605 -0.0085,0.055 -0.0381,0.12065 -0.02752,0.0635 -0.07832,0.10583 -0.1143,0.1016 -0.351366,0.1016 h -0.328084 v -1.48166 h 0.359834 q 0.19685,0 0.294216,0.091 0.09737,0.0889 0.09737,0.28152 0,0.10583 -0.04022,0.19473 -0.0381,0.0868 -0.09737,0.127 z m -0.296334,0.6477 q 0.309034,0 0.309034,-0.29633 0,-0.15028 -0.09102,-0.2159 -0.09102,-0.0656 -0.2159,-0.0656 h -0.13335 v 0.57785 z"
         style="font-style:normal;font-variant:normal;font-weight:bold;font-stretch:normal;font-size:2.11666656px;font-family:Homenaje;-inkscape-font-specification:'Homenaje Bold';stroke-width:0.26458332"
         id="path2945" />
      <path
         d="m 40.012166,131.89381 v -1.48166 h 0.645583 v 0.14393 h -0.459316 v 0.47413 h 0.372533 v 0.14394 h -0.372533 v 0.57573 h 0.480483 v 0.14393 z"
         style="font-style:normal;font-variant:normal;font-weight:bold;font-stretch:normal;font-size:2.11666656px;font-family:Homenaje;-inkscape-font-specification:'Homenaje Bold';stroke-width:0.26458332"
         id="path2947" />
      <path
         d="m 41.139787,130.41215 h 0.281517 l 0.321733,1.48166 H 41.56947 l -0.103716,-0.43603 H 41.08052 l -0.09525,0.43603 h -0.179916 z m 0.294217,0.9017 -0.1524,-0.762 h -0.01482 l -0.154517,0.762 z"
         style="font-style:normal;font-variant:normal;font-weight:bold;font-stretch:normal;font-size:2.11666656px;font-family:Homenaje;-inkscape-font-specification:'Homenaje Bold';stroke-width:0.26458332"
         id="path2949" />
      <path
         d="m 42.027729,131.89381 v -1.34196 h -0.296334 v -0.1397 h 0.778934 v 0.1397 h -0.296334 v 1.34196 z"
         style="font-style:normal;font-variant:normal;font-weight:bold;font-stretch:normal;font-size:2.11666656px;font-family:Homenaje;-inkscape-font-specification:'Homenaje Bold';stroke-width:0.26458332"
         id="path2951" />
    </g>
    <g
       aria-label="TRACKS"
       style="font-style:normal;font-variant:normal;font-weight:bold;font-stretch:normal;font-size:3.52777767px;line-height:1.25;font-family:Homenaje;-inkscape-font-specification:'Homenaje Bold';letter-spacing:0px;word-spacing:0px;fill:#ffffff;fill-opacity:1;stroke:none;stroke-width:0.26458332"
       id="text5443-0-6-1">
      <path
         d="m 48.407228,131.88068 v -1.34197 h -0.296333 v -0.1397 h 0.778933 v 0.1397 h -0.296333 v 1.34197 z"
         style="font-style:normal;font-variant:normal;font-weight:bold;font-stretch:normal;font-size:2.11666656px;font-family:Homenaje;-inkscape-font-specification:'Homenaje Bold';stroke-width:0.26458332"
         id="path2954" />
      <path
         d="m 49.273375,130.53871 v 0.55245 h 0.150283 q 0.12065,0 0.186267,-0.0825 0.06773,-0.0847 0.06773,-0.2159 0,-0.254 -0.254,-0.254 z m -0.0042,0.69215 v 0.64982 h -0.182033 v -1.48167 h 0.391583 q 0.381,0 0.381,0.3937 0,0.14817 -0.05715,0.25823 -0.05715,0.11007 -0.162983,0.1524 l 0.294217,0.67734 h -0.182034 l -0.287866,-0.64982 z"
         style="font-style:normal;font-variant:normal;font-weight:bold;font-stretch:normal;font-size:2.11666656px;font-family:Homenaje;-inkscape-font-specification:'Homenaje Bold';stroke-width:0.26458332"
         id="path2956" />
      <path
         d="m 50.351155,130.39901 h 0.281517 l 0.321733,1.48167 h -0.173567 l -0.103716,-0.43604 h -0.385234 l -0.09525,0.43604 h -0.179916 z m 0.294217,0.9017 -0.1524,-0.762 h -0.01482 l -0.154517,0.762 z"
         style="font-style:normal;font-variant:normal;font-weight:bold;font-stretch:normal;font-size:2.11666656px;font-family:Homenaje;-inkscape-font-specification:'Homenaje Bold';stroke-width:0.26458332"
         id="path2958" />
      <path
         d="m 51.774448,131.74098 v 0.1397 h -0.283634 q -0.192616,0 -0.29845,-0.0974 -0.105833,-0.0974 -0.105833,-0.28575 v -0.71543 q 0,-0.18839 0.105833,-0.28575 0.105834,-0.0974 0.29845,-0.0974 h 0.283634 v 0.1397 h -0.283634 q -0.09737,0 -0.15875,0.0571 -0.05927,0.055 -0.05927,0.14817 v 0.79163 q 0,0.0931 0.05927,0.15028 0.06138,0.055 0.15875,0.055 z"
         style="font-style:normal;font-variant:normal;font-weight:bold;font-stretch:normal;font-size:2.11666656px;font-family:Homenaje;-inkscape-font-specification:'Homenaje Bold';stroke-width:0.26458332"
         id="path2960" />
      <path
         d="M 52.152637,131.88068 H 51.97272 v -1.48167 h 0.179917 v 0.6477 l 0.43815,-0.6477 h 0.184149 l -0.431799,0.6604 0.495299,0.82127 h -0.188383 l -0.414866,-0.69004 -0.08255,0.10584 z"
         style="font-style:normal;font-variant:normal;font-weight:bold;font-stretch:normal;font-size:2.11666656px;font-family:Homenaje;-inkscape-font-specification:'Homenaje Bold';stroke-width:0.26458332"
         id="path2962" />
      <path
         d="m 53.203297,131.74098 q 0.12065,0 0.173566,-0.072 0.05503,-0.072 0.05503,-0.16722 0,-0.0952 -0.03598,-0.16086 -0.03387,-0.0677 -0.08678,-0.10584 -0.05292,-0.0402 -0.1143,-0.0868 -0.06138,-0.0466 -0.1143,-0.0889 -0.05292,-0.0445 -0.0889,-0.11853 -0.03387,-0.0741 -0.03387,-0.16934 0,-0.16933 0.1016,-0.27093 0.1016,-0.1016 0.281517,-0.1016 h 0.17145 v 0.1397 h -0.162983 q -0.1016,0 -0.154517,0.0656 -0.05292,0.0656 -0.05292,0.14181 0,0.0762 0.03387,0.13124 0.03598,0.055 0.0889,0.091 0.05292,0.036 0.1143,0.0847 0.0635,0.0487 0.116417,0.0995 0.05292,0.0487 0.08678,0.13335 0.03598,0.0847 0.03598,0.19262 0,0.19897 -0.1143,0.30057 -0.112183,0.1016 -0.309033,0.1016 h -0.22225 v -0.1397 z"
         style="font-style:normal;font-variant:normal;font-weight:bold;font-stretch:normal;font-size:2.11666656px;font-family:Homenaje;-inkscape-font-specification:'Homenaje Bold';stroke-width:0.26458332"
         id="path2964" />
    </g>
    <g
       aria-label="L=T"
       style="font-style:normal;font-variant:normal;font-weight:bold;font-stretch:normal;font-size:3.52777767px;line-height:1.25;font-family:Homenaje;-inkscape-font-specification:'Homenaje Bold';letter-spacing:0px;word-spacing:0px;fill:#ffffff;fill-opacity:1;stroke:none;stroke-width:0.26458332"
       id="text5443-0-6-2">
      <path
         d="m 39.555655,144.59369 v -1.23472 h 0.155222 v 1.1183 h 0.361598 v 0.11642 z"
         style="font-style:normal;font-variant:normal;font-weight:bold;font-stretch:normal;font-size:1.76388896px;font-family:Homenaje;-inkscape-font-specification:'Homenaje Bold';stroke-width:0.26458332"
         id="path2967" />
      <path
         d="m 40.148157,144.19505 v -0.11642 h 0.705555 v 0.11642 z m 0,-0.29633 v -0.11642 h 0.705555 v 0.11642 z"
         style="font-style:normal;font-variant:normal;font-weight:bold;font-stretch:normal;font-size:1.76388896px;font-family:Homenaje;-inkscape-font-specification:'Homenaje Bold';stroke-width:0.26458332"
         id="path2969" />
      <path
         d="m 41.190505,144.59369 v -1.11831 H 40.94356 v -0.11641 h 0.649111 v 0.11641 h -0.246944 v 1.11831 z"
         style="font-style:normal;font-variant:normal;font-weight:bold;font-stretch:normal;font-size:1.76388896px;font-family:Homenaje;-inkscape-font-specification:'Homenaje Bold';stroke-width:0.26458332"
         id="path2971" />
    </g>
    <g
       aria-label="1"
       style="font-style:normal;font-variant:normal;font-weight:bold;font-stretch:normal;font-size:3.52777767px;line-height:1.25;font-family:Homenaje;-inkscape-font-specification:'Homenaje Bold';letter-spacing:0px;word-spacing:0px;fill:#ffffff;fill-opacity:1;stroke:none;stroke-width:0.26458332"
       id="text5443-0-6-2-2">
      <path
         d="m 39.299214,64.676506 v -1.341967 h -0.18415 v -0.1397 h 0.370417 v 1.481667 z"
         style="font-style:normal;font-variant:normal;font-weight:bold;font-stretch:normal;font-size:2.11666679px;font-family:Homenaje;-inkscape-font-specification:'Homenaje Bold';stroke-width:0.26458332"
         id="path2974" />
    </g>
    <g
       aria-label="2"
       style="font-style:normal;font-variant:normal;font-weight:bold;font-stretch:normal;font-size:3.52777767px;line-height:1.25;font-family:Homenaje;-inkscape-font-specification:'Homenaje Bold';letter-spacing:0px;word-spacing:0px;fill:#ffffff;fill-opacity:1;stroke:none;stroke-width:0.26458332"
       id="text5443-0-6-2-2-9">
      <path
         d="M 39.500297,76.582756 H 38.85048 v -0.137583 q 0.31115,-0.5969 0.383117,-0.766234 0.07197,-0.17145 0.07197,-0.283633 0,-0.148167 -0.18415,-0.148167 h -0.205317 v -0.14605 h 0.300567 q 0.154516,0 0.218016,0.09102 0.06562,0.0889 0.06562,0.20955 0,0.118533 -0.04868,0.2413 -0.04657,0.12065 -0.188384,0.378883 -0.1397,0.258234 -0.218016,0.421217 h 0.455083 z"
         style="font-style:normal;font-variant:normal;font-weight:bold;font-stretch:normal;font-size:2.11666679px;font-family:Homenaje;-inkscape-font-specification:'Homenaje Bold';stroke-width:0.26458332"
         id="path2977" />
    </g>
    <g
       aria-label="7"
       style="font-style:normal;font-variant:normal;font-weight:bold;font-stretch:normal;font-size:3.52777767px;line-height:1.25;font-family:Homenaje;-inkscape-font-specification:'Homenaje Bold';letter-spacing:0px;word-spacing:0px;fill:#ffffff;fill-opacity:1;stroke:none;stroke-width:0.26458332"
       id="text5443-0-6-2-2-3">
      <path
         d="m 56.312978,63.334539 v -0.1397 h 0.632883 v 0.1397 l -0.414866,1.341967 h -0.19685 l 0.42545,-1.341967 z"
         style="font-style:normal;font-variant:normal;font-weight:bold;font-stretch:normal;font-size:2.11666679px;font-family:Homenaje;-inkscape-font-specification:'Homenaje Bold';stroke-width:0.26458332"
         id="path2980" />
    </g>
    <g
       aria-label="13"
       style="font-style:normal;font-variant:normal;font-weight:bold;font-stretch:normal;font-size:3.52777767px;line-height:1.25;font-family:Homenaje;-inkscape-font-specification:'Homenaje Bold';letter-spacing:0px;word-spacing:0px;fill:#ffffff;fill-opacity:1;stroke:none;stroke-width:0.26458332"
       id="text5443-0-6-2-2-3-9">
      <path
         d="m 72.901299,64.676506 v -1.341967 h -0.18415 v -0.1397 h 0.370417 v 1.481667 z"
         style="font-style:normal;font-variant:normal;font-weight:bold;font-stretch:normal;font-size:2.11666679px;font-family:Homenaje;-inkscape-font-specification:'Homenaje Bold';stroke-width:0.26458332"
         id="path2983" />
      <path
         d="m 73.3414,64.536806 h 0.211667 q 0.309033,0 0.309033,-0.309033 0,-0.141817 -0.09102,-0.207434 -0.09102,-0.06773 -0.2159,-0.06773 H 73.4049 v -0.1397 h 0.150284 q 0.127,0 0.19685,-0.06562 0.06985,-0.06773 0.06985,-0.1905 0,-0.122766 -0.06773,-0.17145 -0.06562,-0.0508 -0.198966,-0.0508 H 73.3414 v -0.1397 h 0.254 q 0.19685,0 0.294217,0.09102 0.09737,0.0889 0.09737,0.281517 0,0.105833 -0.04022,0.194733 -0.0381,0.08678 -0.09737,0.127 0.08255,0.04445 0.135467,0.13335 0.05503,0.0889 0.05503,0.179917 0,0.09102 -0.0085,0.14605 -0.0085,0.05503 -0.0381,0.12065 -0.02752,0.0635 -0.0762,0.105833 -0.116417,0.1016 -0.353484,0.1016 H 73.3414 Z"
         style="font-style:normal;font-variant:normal;font-weight:bold;font-stretch:normal;font-size:2.11666679px;font-family:Homenaje;-inkscape-font-specification:'Homenaje Bold';stroke-width:0.26458332"
         id="path2985" />
    </g>
    <g
       aria-label="3"
       style="font-style:normal;font-variant:normal;font-weight:bold;font-stretch:normal;font-size:3.52777767px;line-height:1.25;font-family:Homenaje;-inkscape-font-specification:'Homenaje Bold';letter-spacing:0px;word-spacing:0px;fill:#ffffff;fill-opacity:1;stroke:none;stroke-width:0.26458332"
       id="text5443-0-6-2-2-9-1">
      <path
         d="m 38.85048,88.349306 h 0.211667 q 0.309033,0 0.309033,-0.309033 0,-0.141817 -0.09102,-0.207434 -0.09102,-0.06773 -0.2159,-0.06773 H 38.91398 v -0.1397 h 0.150284 q 0.127,0 0.19685,-0.06562 0.06985,-0.06773 0.06985,-0.1905 0,-0.122766 -0.06773,-0.17145 -0.06562,-0.0508 -0.198966,-0.0508 H 38.85048 v -0.1397 h 0.254 q 0.19685,0 0.294217,0.09102 0.09737,0.0889 0.09737,0.281517 0,0.105833 -0.04022,0.194733 -0.0381,0.08678 -0.09737,0.127 0.08255,0.04445 0.135467,0.13335 0.05503,0.0889 0.05503,0.179917 0,0.09102 -0.0085,0.14605 -0.0085,0.05503 -0.0381,0.12065 -0.02752,0.0635 -0.0762,0.105833 -0.116417,0.1016 -0.353484,0.1016 h -0.22225 z"
         style="font-style:normal;font-variant:normal;font-weight:bold;font-stretch:normal;font-size:2.11666679px;font-family:Homenaje;-inkscape-font-specification:'Homenaje Bold';stroke-width:0.26458332"
         id="path2988" />
    </g>
    <g
       aria-label="4"
       style="font-style:normal;font-variant:normal;font-weight:bold;font-stretch:normal;font-size:3.52777767px;line-height:1.25;font-family:Homenaje;-inkscape-font-specification:'Homenaje Bold';letter-spacing:0px;word-spacing:0px;fill:#ffffff;fill-opacity:1;stroke:none;stroke-width:0.26458332"
       id="text5443-0-6-2-2-9-5">
      <path
         d="m 39.343664,99.86398 v -0.810683 h -0.01482 l -0.2921,0.810683 z m 0,0.53128 v -0.39158 H 38.85048 v -0.1397 l 0.372534,-0.950383 h 0.306916 v 0.950383 h 0.1397 v 0.1397 h -0.1397 v 0.39158 z"
         style="font-style:normal;font-variant:normal;font-weight:bold;font-stretch:normal;font-size:2.11666679px;font-family:Homenaje;-inkscape-font-specification:'Homenaje Bold';stroke-width:0.26458332"
         id="path2991" />
    </g>
    <g
       aria-label="5"
       style="font-style:normal;font-variant:normal;font-weight:bold;font-stretch:normal;font-size:3.52777767px;line-height:1.25;font-family:Homenaje;-inkscape-font-specification:'Homenaje Bold';letter-spacing:0px;word-spacing:0px;fill:#ffffff;fill-opacity:1;stroke:none;stroke-width:0.26458332"
       id="text5443-0-6-2-2-9-3">
      <path
         d="m 38.85048,112.03057 h 0.186267 q 0,0.0677 0.05503,0.0995 0.05715,0.0318 0.131234,0.0318 0.0762,0 0.131233,-0.0296 0.05715,-0.0296 0.05715,-0.0995 v -0.35772 q 0,-0.0825 -0.02752,-0.11006 -0.0254,-0.0296 -0.1143,-0.0296 h -0.414866 v -0.73025 h 0.64135 v 0.1397 h -0.4572 v 0.45085 h 0.281516 q 0.14605,0 0.211667,0.0635 0.06562,0.0635 0.06562,0.2032 v 0.36195 q 0,0.13335 -0.110067,0.20532 -0.110067,0.072 -0.264583,0.072 -0.154517,0 -0.264584,-0.0677 -0.10795,-0.0699 -0.10795,-0.2032 z"
         style="font-style:normal;font-variant:normal;font-weight:bold;font-stretch:normal;font-size:2.11666679px;font-family:Homenaje;-inkscape-font-specification:'Homenaje Bold';stroke-width:0.26458332"
         id="path2994" />
    </g>
    <g
       aria-label="6"
       style="font-style:normal;font-variant:normal;font-weight:bold;font-stretch:normal;font-size:3.52777767px;line-height:1.25;font-family:Homenaje;-inkscape-font-specification:'Homenaje Bold';letter-spacing:0px;word-spacing:0px;fill:#ffffff;fill-opacity:1;stroke:none;stroke-width:0.26458332"
       id="text5443-0-6-2-2-9-0">
      <path
         d="m 39.597664,123.60663 v 0.33867 q 0,0.13335 -0.110067,0.20531 -0.110067,0.072 -0.264583,0.072 -0.1524,0 -0.262467,-0.072 -0.10795,-0.0741 -0.10795,-0.20743 V 123.069 q 0,-0.16299 0.09313,-0.25189 0.09313,-0.091 0.26035,-0.091 h 0.287867 v 0.1397 H 39.23148 q -0.09313,0 -0.143933,0.055 -0.0508,0.055 -0.0508,0.1524 v 0.2667 h 0.28575 q 0.141817,0 0.207433,0.0635 0.06773,0.0635 0.06773,0.2032 z m -0.18415,0.34713 v -0.33443 q 0,-0.0804 -0.02752,-0.11007 -0.02752,-0.0296 -0.1143,-0.0296 h -0.23495 v 0.47202 q 0,0.0699 0.05292,0.1016 0.05503,0.0296 0.131233,0.0296 0.07832,0 0.135467,-0.0296 0.05715,-0.0296 0.05715,-0.0995 z"
         style="font-style:normal;font-variant:normal;font-weight:bold;font-stretch:normal;font-size:2.11666679px;font-family:Homenaje;-inkscape-font-specification:'Homenaje Bold';stroke-width:0.26458332"
         id="path2997" />
    </g>
    <g
       aria-label="8"
       style="font-style:normal;font-variant:normal;font-weight:bold;font-stretch:normal;font-size:3.52777767px;line-height:1.25;font-family:Homenaje;-inkscape-font-specification:'Homenaje Bold';letter-spacing:0px;word-spacing:0px;fill:#ffffff;fill-opacity:1;stroke:none;stroke-width:0.26458332"
       id="text5443-0-6-2-2-3-0">
      <path
         d="m 56.340495,75.623903 v -0.27305 q 0,-0.277283 0.345016,-0.277283 0.169334,0 0.256117,0.0762 0.0889,0.0762 0.0889,0.201083 v 0.27305 q 0,0.12065 -0.110067,0.19685 0.127,0.08678 0.127,0.207433 v 0.294217 q 0,0.12065 -0.09313,0.1905 -0.09313,0.06985 -0.268817,0.06985 -0.370416,0 -0.370416,-0.26035 v -0.294217 q 0,-0.124883 0.131233,-0.207433 -0.105833,-0.07408 -0.105833,-0.19685 z m 0.160866,0.429683 v 0.24765 q 0,0.141817 0.179917,0.141817 0.179917,0 0.179917,-0.141817 v -0.24765 q 0,-0.07408 -0.04445,-0.118533 -0.04445,-0.04445 -0.13335,-0.04445 -0.0889,0 -0.135467,0.04657 -0.04657,0.04445 -0.04657,0.116416 z m 0.182034,-0.313266 q 0.160866,0 0.160866,-0.1397 v -0.226484 q 0,-0.129116 -0.06985,-0.150283 -0.03175,-0.01058 -0.10795,-0.01058 -0.0762,0 -0.10795,0.04022 -0.03175,0.04022 -0.03175,0.12065 l 0.0021,0.226484 q 0,0.07408 0.03387,0.10795 0.03387,0.03175 0.12065,0.03175 z"
         style="font-style:normal;font-variant:normal;font-weight:bold;font-stretch:normal;font-size:2.11666679px;font-family:Homenaje;-inkscape-font-specification:'Homenaje Bold';stroke-width:0.26458332"
         id="path3000" />
    </g>
    <g
       aria-label="9"
       style="font-style:normal;font-variant:normal;font-weight:bold;font-stretch:normal;font-size:3.52777767px;line-height:1.25;font-family:Homenaje;-inkscape-font-specification:'Homenaje Bold';letter-spacing:0px;word-spacing:0px;fill:#ffffff;fill-opacity:1;stroke:none;stroke-width:0.26458332"
       id="text5443-0-6-2-2-3-5">
      <path
         d="m 56.878128,88.205373 v -0.338667 h -0.28575 q -0.277283,0 -0.277283,-0.28575 v -0.31115 q 0,-0.13335 0.110066,-0.205317 0.110067,-0.07197 0.262467,-0.07197 0.154517,0 0.264583,0.07408 0.110067,0.07197 0.110067,0.205317 v 0.95885 q 0,0.12065 -0.09313,0.1905 -0.09102,0.06773 -0.2667,0.06773 h -0.281517 v -0.1397 h 0.2794 q 0.1778,0 0.1778,-0.143933 z m -0.376767,-0.944034 v 0.3048 q 0,0.08467 0.02752,0.122767 0.02752,0.03598 0.1143,0.03598 h 0.23495 v -0.461433 q 0,-0.06985 -0.05503,-0.09948 -0.05292,-0.03175 -0.131234,-0.03175 -0.0762,0 -0.13335,0.02963 -0.05715,0.02963 -0.05715,0.09948 z"
         style="font-style:normal;font-variant:normal;font-weight:bold;font-stretch:normal;font-size:2.11666679px;font-family:Homenaje;-inkscape-font-specification:'Homenaje Bold';stroke-width:0.26458332"
         id="path3003" />
    </g>
    <g
       aria-label="12"
       style="font-style:normal;font-variant:normal;font-weight:bold;font-stretch:normal;font-size:3.52777767px;line-height:1.25;font-family:Homenaje;-inkscape-font-specification:'Homenaje Bold';letter-spacing:0px;word-spacing:0px;fill:#ffffff;fill-opacity:1;stroke:none;stroke-width:0.26458332"
       id="text5443-0-6-2-2-3-6">
      <path
         d="m 55.967961,124.20776 v -1.34196 h -0.18415 v -0.1397 h 0.370416 v 1.48166 z"
         style="font-style:normal;font-variant:normal;font-weight:bold;font-stretch:normal;font-size:2.11666679px;font-family:Homenaje;-inkscape-font-specification:'Homenaje Bold';stroke-width:0.26458332"
         id="path3006" />
      <path
         d="m 57.057879,124.20776 h -0.649817 v -0.13758 q 0.31115,-0.5969 0.383117,-0.76623 0.07197,-0.17145 0.07197,-0.28364 0,-0.14816 -0.18415,-0.14816 h -0.205316 v -0.14605 h 0.300566 q 0.154517,0 0.218017,0.091 0.06562,0.0889 0.06562,0.20955 0,0.11854 -0.04868,0.2413 -0.04657,0.12065 -0.188384,0.37889 -0.1397,0.25823 -0.218017,0.42121 h 0.455084 z"
         style="font-style:normal;font-variant:normal;font-weight:bold;font-stretch:normal;font-size:2.11666679px;font-family:Homenaje;-inkscape-font-specification:'Homenaje Bold';stroke-width:0.26458332"
         id="path3008" />
    </g>
    <g
       aria-label="11"
       style="font-style:normal;font-variant:normal;font-weight:bold;font-stretch:normal;font-size:3.52777767px;line-height:1.25;font-family:Homenaje;-inkscape-font-specification:'Homenaje Bold';letter-spacing:0px;word-spacing:0px;fill:#ffffff;fill-opacity:1;stroke:none;stroke-width:0.26458332"
       id="text5443-0-6-2-2-3-7">
      <path
         d="m 55.967961,112.30151 v -1.34196 h -0.18415 v -0.1397 h 0.370416 v 1.48166 z"
         style="font-style:normal;font-variant:normal;font-weight:bold;font-stretch:normal;font-size:2.11666679px;font-family:Homenaje;-inkscape-font-specification:'Homenaje Bold';stroke-width:0.26458332"
         id="path3011" />
      <path
         d="m 56.592212,112.30151 v -1.34196 h -0.18415 v -0.1397 h 0.370417 v 1.48166 z"
         style="font-style:normal;font-variant:normal;font-weight:bold;font-stretch:normal;font-size:2.11666679px;font-family:Homenaje;-inkscape-font-specification:'Homenaje Bold';stroke-width:0.26458332"
         id="path3013" />
    </g>
    <g
       aria-label="10"
       style="font-style:normal;font-variant:normal;font-weight:bold;font-stretch:normal;font-size:3.52777767px;line-height:1.25;font-family:Homenaje;-inkscape-font-specification:'Homenaje Bold';letter-spacing:0px;word-spacing:0px;fill:#ffffff;fill-opacity:1;stroke:none;stroke-width:0.26458332"
       id="text5443-0-6-2-2-3-73">
      <path
         d="m 55.967961,100.38044 v -1.341967 h -0.18415 v -0.1397 h 0.370416 v 1.481667 z"
         style="font-style:normal;font-variant:normal;font-weight:bold;font-stretch:normal;font-size:2.11666679px;font-family:Homenaje;-inkscape-font-specification:'Homenaje Bold';stroke-width:0.26458332"
         id="path3016" />
      <path
         d="m 57.115029,99.125256 v 1.007534 q 0,0.127 -0.09948,0.19473 -0.09737,0.0677 -0.254001,0.0677 -0.156633,0 -0.256116,-0.0677 -0.09737,-0.0677 -0.09737,-0.19473 v -1.007534 q 0,-0.124883 0.09525,-0.182033 0.09737,-0.05927 0.258233,-0.05927 0.160867,0 0.256117,0.05927 0.09737,0.05715 0.09737,0.182033 z m -0.5207,0.03598 v 0.9652 q 0,0.12488 0.167216,0.12488 0.167217,0 0.167217,-0.12488 v -0.9652 q 0,-0.129117 -0.167217,-0.129117 -0.167216,0 -0.167216,0.129117 z"
         style="font-style:normal;font-variant:normal;font-weight:bold;font-stretch:normal;font-size:2.11666679px;font-family:Homenaje;-inkscape-font-specification:'Homenaje Bold';stroke-width:0.26458332"
         id="path3018" />
    </g>
    <g
       aria-label="14"
       style="font-style:normal;font-variant:normal;font-weight:bold;font-stretch:normal;font-size:3.52777767px;line-height:1.25;font-family:Homenaje;-inkscape-font-specification:'Homenaje Bold';letter-spacing:0px;word-spacing:0px;fill:#ffffff;fill-opacity:1;stroke:none;stroke-width:0.26458332"
       id="text5443-0-6-2-2-3-9-2">
      <path
         d="m 72.901299,76.582756 v -1.341967 h -0.18415 v -0.1397 h 0.370417 v 1.481667 z"
         style="font-style:normal;font-variant:normal;font-weight:bold;font-stretch:normal;font-size:2.11666679px;font-family:Homenaje;-inkscape-font-specification:'Homenaje Bold';stroke-width:0.26458332"
         id="path3021" />
      <path
         d="m 73.834584,76.051473 v -0.810684 h -0.01482 l -0.2921,0.810684 z m 0,0.531283 V 76.191173 H 73.3414 v -0.1397 l 0.372534,-0.950384 h 0.306916 v 0.950384 h 0.1397 v 0.1397 h -0.1397 v 0.391583 z"
         style="font-style:normal;font-variant:normal;font-weight:bold;font-stretch:normal;font-size:2.11666679px;font-family:Homenaje;-inkscape-font-specification:'Homenaje Bold';stroke-width:0.26458332"
         id="path3023" />
    </g>
    <g
       aria-label="15 "
       style="font-style:normal;font-variant:normal;font-weight:bold;font-stretch:normal;font-size:3.52777767px;line-height:1.25;font-family:Homenaje;-inkscape-font-specification:'Homenaje Bold';letter-spacing:0px;word-spacing:0px;fill:#ffffff;fill-opacity:1;stroke:none;stroke-width:0.26458332"
       id="text5443-0-6-2-2-3-9-5">
      <path
         d="m 72.901299,88.47419 v -1.341967 h -0.18415 v -0.1397 h 0.370417 v 1.481667 z"
         style="font-style:normal;font-variant:normal;font-weight:bold;font-stretch:normal;font-size:2.11666679px;font-family:Homenaje;-inkscape-font-specification:'Homenaje Bold';stroke-width:0.26458332"
         id="path3026" />
      <path
         d="m 73.3414,88.218073 h 0.186267 q 0,0.06773 0.05503,0.09948 0.05715,0.03175 0.131234,0.03175 0.0762,0 0.131233,-0.02963 0.05715,-0.02963 0.05715,-0.09948 v -0.357717 q 0,-0.08255 -0.02752,-0.110067 -0.0254,-0.02963 -0.1143,-0.02963 h -0.414866 v -0.73025 h 0.64135 v 0.1397 h -0.4572 v 0.45085 H 73.8113 q 0.14605,0 0.211667,0.0635 0.06562,0.0635 0.06562,0.2032 v 0.36195 q 0,0.13335 -0.110067,0.205317 -0.110067,0.07197 -0.264583,0.07197 -0.154517,0 -0.264584,-0.06773 -0.10795,-0.06985 -0.10795,-0.2032 z"
         style="font-style:normal;font-variant:normal;font-weight:bold;font-stretch:normal;font-size:2.11666679px;font-family:Homenaje;-inkscape-font-specification:'Homenaje Bold';stroke-width:0.26458332"
         id="path3028" />
    </g>
    <g
       aria-label="16"
       style="font-style:normal;font-variant:normal;font-weight:bold;font-stretch:normal;font-size:3.52777767px;line-height:1.25;font-family:Homenaje;-inkscape-font-specification:'Homenaje Bold';letter-spacing:0px;word-spacing:0px;fill:#ffffff;fill-opacity:1;stroke:none;stroke-width:0.26458332"
       id="text5443-0-6-2-2-3-9-24">
      <path
         d="m 73.033669,100.38044 v -1.341967 h -0.18415 v -0.1397 h 0.370417 v 1.481667 z"
         style="font-style:normal;font-variant:normal;font-weight:bold;font-stretch:normal;font-size:2.11666679px;font-family:Homenaje;-inkscape-font-specification:'Homenaje Bold';stroke-width:0.26458332"
         id="path3031" />
      <path
         d="m 74.220954,99.779306 v 0.338664 q 0,0.13335 -0.110067,0.20532 -0.110067,0.072 -0.264583,0.072 -0.1524,0 -0.262467,-0.072 -0.10795,-0.0741 -0.10795,-0.20743 v -0.874187 q 0,-0.162983 0.09313,-0.251883 0.09313,-0.09102 0.26035,-0.09102 h 0.287867 v 0.1397 H 73.85477 q -0.09313,0 -0.143933,0.05503 -0.0508,0.05503 -0.0508,0.1524 v 0.2667 h 0.28575 q 0.141817,0 0.207433,0.0635 0.06773,0.0635 0.06773,0.2032 z m -0.18415,0.347134 v -0.334434 q 0,-0.08043 -0.02752,-0.110066 -0.02752,-0.02963 -0.1143,-0.02963 h -0.23495 v 0.472014 q 0,0.0699 0.05292,0.1016 0.05503,0.0296 0.131233,0.0296 0.07832,0 0.135467,-0.0296 0.05715,-0.0296 0.05715,-0.0995 z"
         style="font-style:normal;font-variant:normal;font-weight:bold;font-stretch:normal;font-size:2.11666679px;font-family:Homenaje;-inkscape-font-specification:'Homenaje Bold';stroke-width:0.26458332"
         id="path3033" />
    </g>
    <g
       aria-label="17"
       style="font-style:normal;font-variant:normal;font-weight:bold;font-stretch:normal;font-size:3.52777767px;line-height:1.25;font-family:Homenaje;-inkscape-font-specification:'Homenaje Bold';letter-spacing:0px;word-spacing:0px;fill:#ffffff;fill-opacity:1;stroke:none;stroke-width:0.26458332"
       id="text5443-0-6-2-2-3-9-24-3">
      <path
         d="m 72.901299,112.30151 v -1.34196 h -0.18415 v -0.1397 h 0.370417 v 1.48166 z"
         style="font-style:normal;font-variant:normal;font-weight:bold;font-stretch:normal;font-size:2.11666679px;font-family:Homenaje;-inkscape-font-specification:'Homenaje Bold';stroke-width:0.26458332"
         id="path3036" />
      <path
         d="m 73.3414,110.95955 v -0.1397 h 0.632884 v 0.1397 l -0.414867,1.34196 h -0.19685 l 0.42545,-1.34196 z"
         style="font-style:normal;font-variant:normal;font-weight:bold;font-stretch:normal;font-size:2.11666679px;font-family:Homenaje;-inkscape-font-specification:'Homenaje Bold';stroke-width:0.26458332"
         id="path3038" />
    </g>
    <g
       aria-label="18"
       style="font-style:normal;font-variant:normal;font-weight:bold;font-stretch:normal;font-size:3.52777767px;line-height:1.25;font-family:Homenaje;-inkscape-font-specification:'Homenaje Bold';letter-spacing:0px;word-spacing:0px;fill:#ffffff;fill-opacity:1;stroke:none;stroke-width:0.26458332"
       id="text5443-0-6-2-2-3-9-24-8">
      <path
         d="m 72.901299,124.20776 v -1.34196 h -0.18415 v -0.1397 h 0.370417 v 1.48166 z"
         style="font-style:normal;font-variant:normal;font-weight:bold;font-stretch:normal;font-size:2.11666679px;font-family:Homenaje;-inkscape-font-specification:'Homenaje Bold';stroke-width:0.26458332"
         id="path3041" />
      <path
         d="m 73.368917,123.26161 v -0.27305 q 0,-0.27728 0.345017,-0.27728 0.169333,0 0.256116,0.0762 0.0889,0.0762 0.0889,0.20108 v 0.27305 q 0,0.12065 -0.110066,0.19685 0.127,0.0868 0.127,0.20744 v 0.29421 q 0,0.12065 -0.09313,0.1905 -0.09313,0.0699 -0.268816,0.0699 -0.370417,0 -0.370417,-0.26035 v -0.29421 q 0,-0.12489 0.131233,-0.20744 -0.105833,-0.0741 -0.105833,-0.19685 z m 0.160867,0.42969 v 0.24765 q 0,0.14181 0.179916,0.14181 0.179917,0 0.179917,-0.14181 v -0.24765 q 0,-0.0741 -0.04445,-0.11854 -0.04445,-0.0444 -0.13335,-0.0444 -0.0889,0 -0.135467,0.0466 -0.04657,0.0445 -0.04657,0.11642 z m 0.182033,-0.31327 q 0.160867,0 0.160867,-0.1397 v -0.22648 q 0,-0.12912 -0.06985,-0.15029 -0.03175,-0.0106 -0.10795,-0.0106 -0.0762,0 -0.10795,0.0402 -0.03175,0.0402 -0.03175,0.12065 l 0.0021,0.22648 q 0,0.0741 0.03387,0.10795 0.03387,0.0318 0.12065,0.0318 z"
         style="font-style:normal;font-variant:normal;font-weight:bold;font-stretch:normal;font-size:2.11666679px;font-family:Homenaje;-inkscape-font-specification:'Homenaje Bold';stroke-width:0.26458332"
         id="path3043" />
    </g>
  </g>
</svg>
