<?xml version="1.0" encoding="UTF-8" standalone="no"?>
<svg
   xmlns:dc="http://purl.org/dc/elements/1.1/"
   xmlns:cc="http://creativecommons.org/ns#"
   xmlns:rdf="http://www.w3.org/1999/02/22-rdf-syntax-ns#"
   xmlns:svg="http://www.w3.org/2000/svg"
   xmlns="http://www.w3.org/2000/svg"
   xmlns:xlink="http://www.w3.org/1999/xlink"
   xmlns:sodipodi="http://sodipodi.sourceforge.net/DTD/sodipodi-0.dtd"
   xmlns:inkscape="http://www.inkscape.org/namespaces/inkscape"
   sodipodi:docname="QARIrrationalityExpander.svg"
   inkscape:version="1.0 (4035a4fb49, 2020-05-01)"
   id="svg11003"
   version="1.1"
   viewBox="0 0 27.78125 100.54167"
   height="380"
   width="105">
  <defs
     id="defs10997">
    <linearGradient
       id="linearGradient4047"
       inkscape:collect="always">
      <stop
         id="stop3387"
         offset="0"
         style="stop-color:#0c1622;stop-opacity:1" />
      <stop
         id="stop3388"
         offset=".3"
         style="stop-color:#161625;stop-opacity:1" />
      <stop
         id="stop3389"
         offset="1"
         style="stop-color:#081f35;stop-opacity:1" />
    </linearGradient>
    <linearGradient
       gradientTransform="matrix(0.5824096,0,0,1,14.70738,0)"
       gradientUnits="userSpaceOnUse"
       y2="50.462322"
       x2="35.219627"
       y1="158.3329"
       x1="35.418064"
       id="linearGradient4049"
       xlink:href="#linearGradient4047"
       inkscape:collect="always" />
  </defs>
  <sodipodi:namedview
     inkscape:document-rotation="0"
     showguides="false"
     units="px"
     inkscape:window-maximized="1"
     inkscape:window-y="-6"
     inkscape:window-x="-6"
     inkscape:window-height="1058"
     inkscape:window-width="1920"
     fit-margin-bottom="0"
     fit-margin-right="0"
     fit-margin-left="0"
     fit-margin-top="0"
     showgrid="false"
     inkscape:current-layer="layer1"
     inkscape:document-units="px"
     inkscape:cy="195.87134"
     inkscape:cx="-33.850675"
     inkscape:zoom="2"
     inkscape:pageshadow="2"
     inkscape:pageopacity="0.0"
     borderopacity="1.0"
     bordercolor="#666666"
     pagecolor="#ffffff"
     id="base" />
  <metadata
     id="metadata11000">
    <rdf:RDF>
      <cc:Work
         rdf:about="">
        <dc:format>image/svg+xml</dc:format>
        <dc:type
           rdf:resource="http://purl.org/dc/dcmitype/StillImage" />
        <dc:title></dc:title>
      </cc:Work>
    </rdf:RDF>
  </metadata>
  <g
     transform="translate(-35.146312,-50.389004)"
     id="layer1"
     inkscape:groupmode="layer"
     inkscape:label="Layer 1">
    <g
       transform="matrix(0.50000001,0,0,1.0014499,17.536498,-0.14648283)"
       id="g1644">
      <path
         inkscape:connector-curvature="0"
         id="path33493"
         d="m 35.219628,50.462323 h 55.5625 V 150.85843 h -55.5625 z m 0,0"
         style="fill:url(#linearGradient4049);fill-opacity:1;fill-rule:nonzero;stroke:none;stroke-width:0.32694858"
         inkscape:export-filename="/home/vortico/pics/tmp/LFOs.png"
         inkscape:export-xdpi="150.22649"
         inkscape:export-ydpi="150.22649" />
    </g>
    <g
       id="text5097"
       style="font-style:normal;font-weight:normal;font-size:3.52777767px;line-height:1.25;font-family:sans-serif;letter-spacing:0px;word-spacing:0px;fill:#ffffff;fill-opacity:1;stroke:none;stroke-width:0.26458332" />
    <g
       id="text373"
       style="font-style:normal;font-variant:normal;font-weight:bold;font-stretch:normal;font-size:3.52777767px;line-height:1.25;font-family:Consolas;-inkscape-font-specification:'Consolas Bold';text-align:center;letter-spacing:0px;word-spacing:0px;text-anchor:middle;fill:#ffffff;fill-opacity:1;stroke:none;stroke-width:0.26458332" />
    <g
       id="flowRoot250"
       style="font-style:normal;font-variant:normal;font-weight:bold;font-stretch:normal;font-size:13.33333302px;line-height:1.25;font-family:Consolas;-inkscape-font-specification:'Consolas Bold';text-align:center;letter-spacing:0px;word-spacing:0px;text-anchor:middle;fill:#ffffff;fill-opacity:1;stroke:none" />
    <g
       id="text308"
       style="font-style:normal;font-variant:normal;font-weight:bold;font-stretch:normal;font-size:3.52777767px;line-height:1.25;font-family:Consolas;-inkscape-font-specification:'Consolas Bold';text-align:center;letter-spacing:0px;word-spacing:0px;text-anchor:middle;fill:#ffffff;fill-opacity:1;stroke:none;stroke-width:0.26458332"
       aria-label="=+">
      <path
         inkscape:connector-curvature="0"
         id="path4330"
         style="stroke-width:0.26458332"
         d="m 156.8605,47.159573 v -0.334174 h 1.48139 v 0.334174 z m 0,0.678684 v -0.334174 h 1.48139 v 0.334174 z" />
      <path
         inkscape:connector-curvature="0"
         id="path4332"
         style="stroke-width:0.26458332"
         d="m 159.73887,47.507528 v 0.670071 h -0.38757 v -0.670071 h -0.64251 v -0.346232 h 0.64251 V 46.49467 h 0.38757 v 0.666626 h 0.64251 v 0.346232 z" />
    </g>
    <g
       id="flowRoot53665"
       style="font-style:normal;font-variant:normal;font-weight:bold;font-stretch:normal;font-size:13.33333302px;line-height:1.25;font-family:Consolas;-inkscape-font-specification:'Consolas Bold';text-align:center;letter-spacing:0px;word-spacing:0px;text-anchor:middle;fill:#ffffff;fill-opacity:1;stroke:none" />
    <g
       id="text53994"
       style="font-style:normal;font-variant:normal;font-weight:bold;font-stretch:normal;font-size:3.52777767px;line-height:1.25;font-family:Consolas;-inkscape-font-specification:'Consolas Bold';text-align:center;letter-spacing:0px;word-spacing:0px;text-anchor:middle;fill:#ffffff;fill-opacity:1;stroke:none;stroke-width:0.26458332" />
    <g
       style="font-style:normal;font-variant:normal;font-weight:normal;font-stretch:normal;font-size:3.52778px;line-height:1.25;font-family:Quarca;-inkscape-font-specification:Quarca;text-align:start;letter-spacing:0px;word-spacing:0px;text-anchor:start;fill:#dddddd;fill-opacity:1;stroke:none;stroke-width:0.264583"
       id="text3885"
       aria-label="QAR
IRRATIONAL">
      <path
         id="path13890"
         style="font-style:normal;font-variant:normal;font-weight:normal;font-stretch:normal;font-size:3.88056px;font-family:Quarca;-inkscape-font-specification:Quarca;text-align:center;text-anchor:middle;fill:#dddddd;fill-opacity:1;stroke-width:0.264583"
         d="m 46.194577,53.535779 c 0,0.357012 0.13582,0.535518 0.531637,0.535518 h 0.256117 v 0.450145 h 0.20955 v -0.450145 h 0.27164 c 0.395817,0 0.531636,-0.178506 0.531636,-0.535518 v -1.684163 c 0,-0.357011 -0.135819,-0.535517 -0.531636,-0.535517 h -0.737307 c -0.395817,0 -0.531637,0.178506 -0.531637,0.535517 z m 0.554921,0.325967 c -0.244476,0 -0.333729,-0.116416 -0.333729,-0.360892 v -1.614313 c 0,-0.244475 0.08925,-0.360892 0.333729,-0.360892 h 0.690739 c 0.248356,0 0.333728,0.116417 0.333728,0.360892 v 1.614313 c 0,0.244476 -0.08537,0.360892 -0.333728,0.360892 H 47.191881 V 53.47369 h -0.20955 v 0.388056 z" />
      <path
         id="path13892"
         style="font-style:normal;font-variant:normal;font-weight:normal;font-stretch:normal;font-size:3.88056px;font-family:Quarca;-inkscape-font-specification:Quarca;text-align:center;text-anchor:middle;fill:#dddddd;fill-opacity:1;stroke-width:0.264583"
         d="m 49.158719,51.316099 -0.849843,2.755198 h 0.236714 l 0.178506,-0.597607 h 1.10984 l 0.178506,0.597607 h 0.236714 l -0.845962,-2.755198 z m 0.124178,0.294923 0.48895,1.653118 h -0.985662 z" />
      <path
         id="path13894"
         style="font-style:normal;font-variant:normal;font-weight:normal;font-stretch:normal;font-size:3.88056px;font-family:Quarca;-inkscape-font-specification:Quarca;text-align:center;text-anchor:middle;fill:#dddddd;fill-opacity:1;stroke-width:0.264583"
         d="m 50.583309,54.071297 h 0.221192 v -1.10596 h 0.508353 l 0.772231,1.10596 h 0.259998 l -0.776112,-1.10596 h 0.05433 c 0.368653,0 0.547159,-0.174625 0.547159,-0.523875 v -0.601487 c 0,-0.349251 -0.178506,-0.523876 -0.547159,-0.523876 h -1.03999 z m 0.221192,-2.545648 h 0.779992 c 0.248356,0 0.360892,0.116417 0.360892,0.380295 v 0.469548 c 0,0.267759 -0.112536,0.384175 -0.360892,0.384175 h -0.779992 z" />
      <path
         id="path13896"
         style="font-style:normal;font-variant:normal;font-weight:normal;font-stretch:normal;font-size:3.88056px;font-family:Quarca;-inkscape-font-specification:Quarca;text-align:center;text-anchor:middle;fill:#dddddd;fill-opacity:1;stroke-width:0.264583"
         d="m 40.852987,58.921997 v -2.755198 h -0.221192 v 2.755198 z" />
      <path
         id="path13898"
         style="font-style:normal;font-variant:normal;font-weight:normal;font-stretch:normal;font-size:3.88056px;font-family:Quarca;-inkscape-font-specification:Quarca;text-align:center;text-anchor:middle;fill:#dddddd;fill-opacity:1;stroke-width:0.264583"
         d="m 41.374558,58.921997 h 0.221192 v -1.10596 h 0.508353 l 0.772232,1.10596 h 0.259997 l -0.776112,-1.10596 h 0.05433 c 0.368653,0 0.547159,-0.174625 0.547159,-0.523876 v -0.601486 c 0,-0.349251 -0.178506,-0.523876 -0.547159,-0.523876 h -1.03999 z m 0.221192,-2.545648 h 0.779993 c 0.248355,0 0.360892,0.116417 0.360892,0.380295 v 0.469548 c 0,0.267759 -0.112537,0.384175 -0.360892,0.384175 H 41.59575 Z" />
      <path
         id="path13900"
         style="font-style:normal;font-variant:normal;font-weight:normal;font-stretch:normal;font-size:3.88056px;font-family:Quarca;-inkscape-font-specification:Quarca;text-align:center;text-anchor:middle;fill:#dddddd;fill-opacity:1;stroke-width:0.264583"
         d="m 43.436106,58.921997 h 0.221192 v -1.10596 h 0.508353 l 0.772231,1.10596 h 0.259998 l -0.776112,-1.10596 h 0.05433 c 0.368653,0 0.547159,-0.174625 0.547159,-0.523876 v -0.601486 c 0,-0.349251 -0.178506,-0.523876 -0.547159,-0.523876 h -1.03999 z m 0.221192,-2.545648 h 0.779992 c 0.248356,0 0.360892,0.116417 0.360892,0.380295 v 0.469548 c 0,0.267759 -0.112536,0.384175 -0.360892,0.384175 h -0.779992 z" />
      <path
         id="path13902"
         style="font-style:normal;font-variant:normal;font-weight:normal;font-stretch:normal;font-size:3.88056px;font-family:Quarca;-inkscape-font-specification:Quarca;text-align:center;text-anchor:middle;fill:#dddddd;fill-opacity:1;stroke-width:0.264583"
         d="m 46.157349,56.166799 -0.849843,2.755198 h 0.236714 l 0.178506,-0.597607 h 1.10984 l 0.178506,0.597607 h 0.236714 l -0.845962,-2.755198 z m 0.124177,0.294923 0.488951,1.653118 h -0.985662 z" />
      <path
         id="path13904"
         style="font-style:normal;font-variant:normal;font-weight:normal;font-stretch:normal;font-size:3.88056px;font-family:Quarca;-inkscape-font-specification:Quarca;text-align:center;text-anchor:middle;fill:#dddddd;fill-opacity:1;stroke-width:0.264583"
         d="m 48.755808,56.376349 v -0.20955 h -1.633716 v 0.20955 h 0.706262 v 2.545648 h 0.225073 v -2.545648 z" />
      <path
         id="path13906"
         style="font-style:normal;font-variant:normal;font-weight:normal;font-stretch:normal;font-size:3.88056px;font-family:Quarca;-inkscape-font-specification:Quarca;text-align:center;text-anchor:middle;fill:#dddddd;fill-opacity:1;stroke-width:0.264583"
         d="m 49.281078,58.921997 v -2.755198 h -0.221192 v 2.755198 z" />
      <path
         id="path13908"
         style="font-style:normal;font-variant:normal;font-weight:normal;font-stretch:normal;font-size:3.88056px;font-family:Quarca;-inkscape-font-specification:Quarca;text-align:center;text-anchor:middle;fill:#dddddd;fill-opacity:1;stroke-width:0.264583"
         d="m 49.787127,58.386479 c 0,0.357012 0.13582,0.535518 0.531637,0.535518 h 0.737306 c 0.395817,0 0.531637,-0.178506 0.531637,-0.535518 v -1.684163 c 0,-0.357011 -0.13582,-0.535517 -0.531637,-0.535517 h -0.737306 c -0.395817,0 -0.531637,0.178506 -0.531637,0.535517 z m 0.55492,-2.01013 h 0.69074 c 0.248356,0 0.333728,0.116417 0.333728,0.360892 v 1.614313 c 0,0.244476 -0.08537,0.360892 -0.333728,0.360892 h -0.69074 c -0.244475,0 -0.333728,-0.116416 -0.333728,-0.360892 v -1.614313 c 0,-0.244475 0.08925,-0.360892 0.333728,-0.360892 z" />
      <path
         id="path13910"
         style="font-style:normal;font-variant:normal;font-weight:normal;font-stretch:normal;font-size:3.88056px;font-family:Quarca;-inkscape-font-specification:Quarca;text-align:center;text-anchor:middle;fill:#dddddd;fill-opacity:1;stroke-width:0.264583"
         d="m 52.312766,58.921997 v -2.371023 c 0.05821,0.128059 0.108655,0.256117 0.201789,0.41522 l 1.133123,1.955803 h 0.225073 v -2.755198 h -0.225073 v 2.367142 c -0.04269,-0.100895 -0.08149,-0.197909 -0.155222,-0.325967 l -1.17969,-2.041175 h -0.221192 v 2.755198 z" />
      <path
         id="path13912"
         style="font-style:normal;font-variant:normal;font-weight:normal;font-stretch:normal;font-size:3.88056px;font-family:Quarca;-inkscape-font-specification:Quarca;text-align:center;text-anchor:middle;fill:#dddddd;fill-opacity:1;stroke-width:0.264583"
         d="m 55.055351,56.166799 -0.849843,2.755198 h 0.236714 l 0.178506,-0.597607 h 1.10984 l 0.178506,0.597607 h 0.236714 l -0.845962,-2.755198 z m 0.124178,0.294923 0.48895,1.653118 h -0.985662 z" />
      <path
         id="path13914"
         style="font-style:normal;font-variant:normal;font-weight:normal;font-stretch:normal;font-size:3.88056px;font-family:Quarca;-inkscape-font-specification:Quarca;text-align:center;text-anchor:middle;fill:#dddddd;fill-opacity:1;stroke-width:0.264583"
         d="m 56.701133,56.166799 h -0.221192 v 2.755198 h 1.412524 l 0.03104,-0.209551 h -1.222377 z" />
    </g>
    <g
       style="font-style:normal;font-variant:normal;font-weight:bold;font-stretch:normal;font-size:13.3333px;line-height:1.25;font-family:Consolas;-inkscape-font-specification:'Consolas Bold';text-align:center;letter-spacing:0px;word-spacing:0px;text-anchor:middle;fill:#000000;fill-opacity:1;stroke:none"
       id="flowRoot1015"
       transform="matrix(0.26458333,0,0,0.26458333,35.146312,50.389004)" />
    <g
       style="font-style:normal;font-variant:normal;font-weight:normal;font-stretch:normal;font-size:3.52778px;line-height:1.25;font-family:Quarca;-inkscape-font-specification:Quarca;letter-spacing:0px;word-spacing:0px;fill:#dddddd;fill-opacity:1;stroke:none;stroke-width:0.264583"
       id="text5443-7-5"
       aria-label="START">
      <path
         id="path13878"
         style="font-style:normal;font-variant:normal;font-weight:normal;font-stretch:normal;font-size:2.82222px;font-family:Quarca;-inkscape-font-specification:Quarca;fill:#dddddd;fill-opacity:1;stroke-width:0.264583"
         d="m 46.877583,64.108531 c 0.141111,0.05927 0.1778,0.107244 0.1778,0.245533 v 0.194733 c 0,0.169333 -0.07056,0.239889 -0.231422,0.239889 h -0.426155 c -0.160867,0 -0.234245,-0.07056 -0.234245,-0.239889 v -0.211666 h -0.160866 v 0.251177 c 0,0.234245 0.110066,0.352778 0.369711,0.352778 h 0.49671 c 0.234245,0 0.349956,-0.118533 0.349956,-0.352778 v -0.276577 c 0,-0.200378 -0.0762,-0.270933 -0.282222,-0.361244 l -0.578555,-0.245534 c -0.132645,-0.05644 -0.166511,-0.110066 -0.166511,-0.234244 v -0.124178 c 0,-0.19191 0.06209,-0.256822 0.242711,-0.256822 h 0.352777 c 0.160867,0 0.239889,0.07338 0.239889,0.248356 v 0.189089 h 0.163688 v -0.2286 c 0,-0.254 -0.121355,-0.361244 -0.380999,-0.361244 h -0.417689 c -0.248355,0 -0.361244,0.110066 -0.361244,0.361244 v 0.197555 c 0,0.2032 0.06773,0.276578 0.2794,0.369711 z" />
      <path
         id="path13880"
         style="font-style:normal;font-variant:normal;font-weight:normal;font-stretch:normal;font-size:2.82222px;font-family:Quarca;-inkscape-font-specification:Quarca;fill:#dddddd;fill-opacity:1;stroke-width:0.264583"
         d="M 48.56946,63.089709 V 62.93731 h -1.188155 v 0.152399 h 0.513644 v 1.851377 h 0.163689 v -1.851377 z" />
      <path
         id="path13882"
         style="font-style:normal;font-variant:normal;font-weight:normal;font-stretch:normal;font-size:2.82222px;font-family:Quarca;-inkscape-font-specification:Quarca;fill:#dddddd;fill-opacity:1;stroke-width:0.264583"
         d="m 49.093996,62.93731 -0.618066,2.003776 h 0.172155 l 0.129822,-0.434622 h 0.807155 l 0.129822,0.434622 H 49.88704 L 49.271796,62.93731 Z m 0.09031,0.214488 0.3556,1.202266 h -0.716844 z" />
      <path
         id="path13884"
         style="font-style:normal;font-variant:normal;font-weight:normal;font-stretch:normal;font-size:2.82222px;font-family:Quarca;-inkscape-font-specification:Quarca;fill:#dddddd;fill-opacity:1;stroke-width:0.264583"
         d="m 50.13006,64.941086 h 0.160866 v -0.804333 h 0.369711 l 0.561622,0.804333 h 0.189089 l -0.564444,-0.804333 h 0.03951 c 0.268111,0 0.397933,-0.127 0.397933,-0.381 v -0.437444 c 0,-0.254 -0.129822,-0.380999 -0.397933,-0.380999 H 50.13006 Z m 0.160866,-1.851377 h 0.567266 c 0.180623,0 0.262467,0.08467 0.262467,0.276578 v 0.341489 c 0,0.194733 -0.08184,0.279399 -0.262467,0.279399 h -0.567266 z" />
      <path
         id="path13886"
         style="font-style:normal;font-variant:normal;font-weight:normal;font-stretch:normal;font-size:2.82222px;font-family:Quarca;-inkscape-font-specification:Quarca;fill:#dddddd;fill-opacity:1;stroke-width:0.264583"
         d="M 52.659474,63.089709 V 62.93731 H 51.47132 v 0.152399 h 0.513644 v 1.851377 h 0.163688 v -1.851377 z" />
    </g>
    <g
       style="font-style:normal;font-variant:normal;font-weight:bold;font-stretch:normal;font-size:13.3333px;line-height:1.25;font-family:Arial;-inkscape-font-specification:'Arial Bold';text-align:center;letter-spacing:0px;word-spacing:0px;text-anchor:middle;fill:#000000;fill-opacity:1;stroke:none"
       id="flowRoot1633" />
    <g
       style="font-style:normal;font-variant:normal;font-weight:normal;font-stretch:normal;font-size:3.52778px;line-height:1.25;font-family:Quarca;-inkscape-font-specification:Quarca;letter-spacing:0px;word-spacing:0px;fill:#dddddd;fill-opacity:1;stroke:none;stroke-width:0.264583"
       id="text5443-7-5-4-2"
       aria-label="# STEPS">
      <path
         id="path13864"
         style="font-style:normal;font-variant:normal;font-weight:normal;font-stretch:normal;font-size:2.82222px;font-family:Quarca;-inkscape-font-specification:Quarca;fill:#dddddd;fill-opacity:1;stroke-width:0.264583"
         d="m 44.561246,86.090469 h 0.152399 l 0.259645,-0.578555 h 0.448733 l -0.256822,0.578555 h 0.1524 l 0.259644,-0.578555 H 46.0542 l 0.02258,-0.143933 h -0.437444 l 0.228599,-0.508 h 0.3556 l 0.02258,-0.141111 h -0.316089 l 0.282222,-0.632177 h -0.1524 l -0.282222,0.632177 h -0.451555 l 0.282222,-0.632177 h -0.155222 l -0.282222,0.632177 h -0.434622 l -0.02258,0.141111 h 0.395111 l -0.2286,0.508 H 44.56689 l -0.02258,0.143933 h 0.273756 z m 0.702732,-1.230488 h 0.448733 l -0.225777,0.508 h -0.451555 z" />
      <path
         id="path13866"
         style="font-style:normal;font-variant:normal;font-weight:normal;font-stretch:normal;font-size:2.82222px;font-family:Quarca;-inkscape-font-specification:Quarca;fill:#dddddd;fill-opacity:1;stroke-width:0.264583"
         d="m 47.889701,85.257914 c 0.141111,0.05927 0.1778,0.107245 0.1778,0.245534 v 0.194733 c 0,0.169333 -0.07055,0.239888 -0.231422,0.239888 h -0.426155 c -0.160867,0 -0.234244,-0.07055 -0.234244,-0.239888 v -0.211667 h -0.160867 v 0.251178 c 0,0.234244 0.110067,0.352777 0.369711,0.352777 h 0.496711 c 0.234244,0 0.349955,-0.118533 0.349955,-0.352777 v -0.276578 c 0,-0.200377 -0.0762,-0.270933 -0.282222,-0.361244 l -0.578555,-0.245533 c -0.132644,-0.05644 -0.166511,-0.110067 -0.166511,-0.234244 v -0.124178 c 0,-0.191911 0.06209,-0.256822 0.242711,-0.256822 h 0.352777 c 0.160867,0 0.239889,0.07338 0.239889,0.248355 v 0.189089 h 0.163689 v -0.2286 c 0,-0.254 -0.121356,-0.361244 -0.381,-0.361244 H 47.40428 c -0.248356,0 -0.361245,0.110067 -0.361245,0.361244 v 0.197556 c 0,0.2032 0.06773,0.276577 0.2794,0.369711 z" />
      <path
         id="path13868"
         style="font-style:normal;font-variant:normal;font-weight:normal;font-stretch:normal;font-size:2.82222px;font-family:Quarca;-inkscape-font-specification:Quarca;fill:#dddddd;fill-opacity:1;stroke-width:0.264583"
         d="m 49.581578,84.239093 v -0.1524 h -1.188155 v 0.1524 h 0.513645 v 1.851376 h 0.163688 v -1.851376 z" />
      <path
         id="path13870"
         style="font-style:normal;font-variant:normal;font-weight:normal;font-stretch:normal;font-size:2.82222px;font-family:Quarca;-inkscape-font-specification:Quarca;fill:#dddddd;fill-opacity:1;stroke-width:0.264583"
         d="m 49.963592,84.239093 h 0.905933 l 0.02258,-0.1524 h -1.089377 v 2.003776 h 1.072443 l 0.02258,-0.1524 h -0.934155 v -0.612421 h 0.759177 l 0.02258,-0.149578 h -0.781755 z" />
      <path
         id="path13872"
         style="font-style:normal;font-variant:normal;font-weight:normal;font-stretch:normal;font-size:2.82222px;font-family:Quarca;-inkscape-font-specification:Quarca;fill:#dddddd;fill-opacity:1;stroke-width:0.264583"
         d="m 51.319581,85.266381 h 0.632177 c 0.251178,0 0.381,-0.127 0.381,-0.378177 v -0.423333 c 0,-0.251178 -0.129822,-0.378178 -0.381,-0.378178 h -0.793044 v 2.003776 h 0.160867 z m 0,-1.027288 h 0.609599 c 0.163689,0 0.239889,0.0762 0.239889,0.256822 v 0.361244 c 0,0.180622 -0.0762,0.256822 -0.239889,0.256822 h -0.609599 z" />
      <path
         id="path13874"
         style="font-style:normal;font-variant:normal;font-weight:normal;font-stretch:normal;font-size:2.82222px;font-family:Quarca;-inkscape-font-specification:Quarca;fill:#dddddd;fill-opacity:1;stroke-width:0.264583"
         d="m 53.440435,85.257914 c 0.141111,0.05927 0.1778,0.107245 0.1778,0.245534 v 0.194733 c 0,0.169333 -0.07056,0.239888 -0.231422,0.239888 h -0.426155 c -0.160867,0 -0.234245,-0.07055 -0.234245,-0.239888 v -0.211667 h -0.160866 v 0.251178 c 0,0.234244 0.110066,0.352777 0.369711,0.352777 h 0.49671 c 0.234245,0 0.349956,-0.118533 0.349956,-0.352777 v -0.276578 c 0,-0.200377 -0.0762,-0.270933 -0.282222,-0.361244 l -0.578556,-0.245533 c -0.132644,-0.05644 -0.166511,-0.110067 -0.166511,-0.234244 v -0.124178 c 0,-0.191911 0.06209,-0.256822 0.242711,-0.256822 h 0.352778 c 0.160866,0 0.239889,0.07338 0.239889,0.248355 v 0.189089 h 0.163688 v -0.2286 c 0,-0.254 -0.121355,-0.361244 -0.380999,-0.361244 h -0.417689 c -0.248355,0 -0.361244,0.110067 -0.361244,0.361244 v 0.197556 c 0,0.2032 0.06773,0.276577 0.2794,0.369711 z" />
    </g>
    <g
       style="font-style:normal;font-variant:normal;font-weight:bold;font-stretch:normal;font-size:3.53844px;line-height:1.25;font-family:Consolas;-inkscape-font-specification:'Consolas Bold';text-align:start;letter-spacing:0px;word-spacing:0px;text-anchor:start;fill:#00a3f2;fill-opacity:1;stroke:none;stroke-width:0.265383"
       id="text3885-7"
       transform="scale(1.0030227,0.99698641)"
       aria-label="FW">
      <path
         id="path13859"
         style="font-style:normal;font-variant:normal;font-weight:normal;font-stretch:normal;font-family:'Bradley Gratis';-inkscape-font-specification:'Bradley Gratis';text-align:start;text-anchor:start;fill:#00a3f2;fill-opacity:1;stroke-width:0.265383"
         d="m 47.037178,149.37882 q 0.120307,-0.1203 0.191076,-0.2123 0.07431,-0.092 0.11323,-0.16985 0.04246,-0.0778 0.05308,-0.14507 0.01415,-0.0708 0.01415,-0.14862 0,-0.0955 -0.046,-0.23 -0.046,-0.13446 -0.102615,-0.28661 -0.05662,-0.15215 -0.102615,-0.31138 -0.046,-0.15923 -0.046,-0.30431 0,-0.0778 0.02477,-0.15215 0.02831,-0.0743 0.06723,-0.14154 0.04246,-0.0708 0.092,-0.13092 0.04954,-0.0637 0.09908,-0.11323 -0.07077,-0.0142 -0.123845,-0.0212 -0.05308,-0.0106 -0.07785,-0.0106 -0.130922,0 -0.222922,0.0708 -0.08846,0.0672 -0.191076,0.16985 0,-0.12031 0.03538,-0.24769 0.03892,-0.13093 0.116768,-0.23708 0.07785,-0.10615 0.194614,-0.17338 0.120307,-0.0672 0.283076,-0.0672 0.11323,0 0.208768,0.0177 0.09908,0.0142 0.18046,0.0354 0.08138,0.0212 0.148615,0.0389 0.06723,0.0142 0.120307,0.0142 0.08138,0 0.141537,-0.0212 0.06369,-0.0248 0.123846,-0.0849 0,0.0778 -0.03185,0.17692 -0.02831,0.0991 -0.08846,0.19107 -0.05662,0.0885 -0.148615,0.15216 -0.092,0.0601 -0.212306,0.0601 -0.06015,0 -0.137999,-0.007 -0.07431,-0.0106 -0.155692,-0.0248 -0.0071,0.0248 -0.01062,0.046 -0.0035,0.0212 -0.0071,0.0389 -0.0035,0.0212 -0.0035,0.0389 0,0.0779 0.01062,0.15215 0.01415,0.0708 0.03892,0.14508 h 0.714765 l -0.08138,0.24061 q -0.01062,0.046 -0.01415,0.0672 -0.0035,0.0212 -0.01062,0.0672 l -0.130922,-0.092 h -0.364459 q 0.07785,0.17693 0.145076,0.36092 0.06723,0.18046 0.06723,0.38569 0,0.184 -0.07431,0.34323 -0.07431,0.15569 -0.198153,0.27246 -0.120307,0.11677 -0.279536,0.18046 -0.155692,0.0672 -0.321999,0.0672 z" />
      <path
         id="path13861"
         style="font-style:normal;font-variant:normal;font-weight:normal;font-stretch:normal;font-family:'Bradley Gratis';-inkscape-font-specification:'Bradley Gratis';text-align:start;text-anchor:start;fill:#00a3f2;fill-opacity:1;stroke-width:0.265383"
         d="m 49.170139,149.34698 q -0.191076,-0.138 -0.325536,-0.29369 -0.134461,-0.15923 -0.215845,-0.32908 -0.08138,-0.16984 -0.120307,-0.34323 -0.03538,-0.17692 -0.03538,-0.34676 0,-0.16631 0.03538,-0.32908 0.03538,-0.1663 0.092,-0.32553 0.06015,-0.16277 0.137999,-0.31493 0.07785,-0.15569 0.15923,-0.3043 h -0.02123 q -0.01062,0 -0.02477,0 -0.01061,-0.004 -0.02831,-0.004 -0.05662,0 -0.137999,0.0142 -0.07785,0.0142 -0.152153,0.0708 V 146.495 h 0.743072 q -0.092,0.15923 -0.15923,0.32199 -0.06369,0.15923 -0.106153,0.31139 -0.03892,0.14861 -0.06015,0.28307 -0.01769,0.13092 -0.01769,0.23708 0,0.10615 0.02123,0.25476 0.02123,0.14862 0.07785,0.30785 0.06015,0.15569 0.15923,0.29723 0.102614,0.14154 0.265383,0.23 l 0.106153,-0.0779 q -0.06369,-0.12031 -0.09908,-0.23 -0.03538,-0.11323 -0.05308,-0.2123 -0.01415,-0.0991 -0.01769,-0.18046 -0.0035,-0.0849 -0.0035,-0.15216 0,-0.10969 0.02831,-0.24769 0.02831,-0.138 0.08138,-0.28661 0.05308,-0.14862 0.127384,-0.30077 0.07784,-0.15215 0.173383,-0.29723 -0.13446,0 -0.222921,0.0212 -0.08492,0.0212 -0.145076,0.0602 V 146.495 h 0.764303 q -0.06369,0.0885 -0.127384,0.20169 -0.06015,0.10969 -0.106153,0.24061 -0.046,0.12738 -0.07431,0.27246 -0.02831,0.14508 -0.02831,0.29723 0,0.25831 0.046,0.46 0.046,0.19815 0.127383,0.3503 0.08138,0.15215 0.191076,0.26185 0.109692,0.10969 0.233537,0.18753 V 146.495 h 0.530766 v 2.1266 q 0,0.0248 -0.03538,0.0708 -0.03538,0.0425 -0.092,0.0991 -0.05308,0.0566 -0.127384,0.12385 -0.07077,0.0637 -0.145076,0.12738 -0.176922,0.14862 -0.399843,0.32554 -0.173384,-0.13446 -0.297229,-0.26538 -0.123846,-0.13093 -0.212307,-0.25477 z" />
    </g>
    <g
       style="font-style:normal;font-variant:normal;font-weight:normal;font-stretch:normal;font-size:3.52778px;line-height:1.25;font-family:Quarca;-inkscape-font-specification:Quarca;letter-spacing:0px;word-spacing:0px;fill:#dddddd;fill-opacity:1;stroke:none;stroke-width:0.264583"
       id="text5443-7-5-4-2-0"
       aria-label="TRACKS">
      <path
         id="path13846"
         style="font-style:normal;font-variant:normal;font-weight:normal;font-stretch:normal;font-size:2.82222px;font-family:Quarca;-inkscape-font-specification:Quarca;fill:#dddddd;fill-opacity:1;stroke-width:0.264583"
         d="m 46.495524,136.11463 v -0.1524 H 45.30737 v 0.1524 h 0.513644 v 1.85137 h 0.163688 v -1.85137 z" />
      <path
         id="path13848"
         style="font-style:normal;font-variant:normal;font-weight:normal;font-stretch:normal;font-size:2.82222px;font-family:Quarca;-inkscape-font-specification:Quarca;fill:#dddddd;fill-opacity:1;stroke-width:0.264583"
         d="m 46.716672,137.966 h 0.160866 v -0.80433 h 0.369711 l 0.561622,0.80433 h 0.189089 l -0.564444,-0.80433 h 0.03951 c 0.268111,0 0.397933,-0.127 0.397933,-0.381 v -0.43744 c 0,-0.254 -0.129822,-0.381 -0.397933,-0.381 h -0.756355 z m 0.160866,-1.85137 h 0.567267 c 0.180622,0 0.262466,0.0847 0.262466,0.27657 v 0.34149 c 0,0.19474 -0.08184,0.2794 -0.262466,0.2794 h -0.567267 z" />
      <path
         id="path13850"
         style="font-style:normal;font-variant:normal;font-weight:normal;font-stretch:normal;font-size:2.82222px;font-family:Quarca;-inkscape-font-specification:Quarca;fill:#dddddd;fill-opacity:1;stroke-width:0.264583"
         d="m 48.695754,135.96223 -0.618067,2.00377 h 0.172156 l 0.129822,-0.43462 h 0.807155 l 0.129822,0.43462 h 0.172155 l -0.615244,-2.00377 z m 0.09031,0.21449 0.355599,1.20226 H 48.42482 Z" />
      <path
         id="path13852"
         style="font-style:normal;font-variant:normal;font-weight:normal;font-stretch:normal;font-size:2.82222px;font-family:Quarca;-inkscape-font-specification:Quarca;fill:#dddddd;fill-opacity:1;stroke-width:0.264583"
         d="m 50.124106,137.8136 c -0.1778,0 -0.242711,-0.0847 -0.242711,-0.26246 v -1.17405 c 0,-0.1778 0.06491,-0.26246 0.242711,-0.26246 h 0.457199 c 0.1778,0 0.242711,0.0847 0.242711,0.26246 v 0.18345 h 0.160867 v -0.20885 c 0,-0.25964 -0.09878,-0.38946 -0.386644,-0.38946 h -0.491067 c -0.287866,0 -0.386644,0.12982 -0.386644,0.38946 v 1.22485 c 0,0.25964 0.09878,0.38946 0.386644,0.38946 h 0.491067 c 0.287866,0 0.386644,-0.12982 0.386644,-0.38946 v -0.21449 h -0.160867 v 0.18909 c 0,0.1778 -0.06491,0.26246 -0.242711,0.26246 z" />
      <path
         id="path13854"
         style="font-style:normal;font-variant:normal;font-weight:normal;font-stretch:normal;font-size:2.82222px;font-family:Quarca;-inkscape-font-specification:Quarca;fill:#dddddd;fill-opacity:1;stroke-width:0.264583"
         d="m 51.458134,137.966 v -0.95955 l 0.829733,0.95955 h 0.189088 l -0.866421,-1.00188 0.849488,-1.00189 h -0.1778 l -0.824088,0.95955 v -0.95955 h -0.160867 v 2.00377 z" />
      <path
         id="path13856"
         style="font-style:normal;font-variant:normal;font-weight:normal;font-stretch:normal;font-size:2.82222px;font-family:Quarca;-inkscape-font-specification:Quarca;fill:#dddddd;fill-opacity:1;stroke-width:0.264583"
         d="m 53.463233,137.13345 c 0.141111,0.0593 0.1778,0.10724 0.1778,0.24553 v 0.19473 c 0,0.16934 -0.07056,0.23989 -0.231422,0.23989 h -0.426155 c -0.160867,0 -0.234245,-0.0705 -0.234245,-0.23989 v -0.21166 h -0.160866 v 0.25118 c 0,0.23424 0.110066,0.35277 0.369711,0.35277 h 0.49671 c 0.234245,0 0.349956,-0.11853 0.349956,-0.35277 v -0.27658 c 0,-0.20038 -0.0762,-0.27093 -0.282222,-0.36125 l -0.578555,-0.24553 c -0.132645,-0.0564 -0.166511,-0.11007 -0.166511,-0.23424 v -0.12418 c 0,-0.19191 0.06209,-0.25682 0.24271,-0.25682 h 0.352778 c 0.160867,0 0.239889,0.0734 0.239889,0.24835 v 0.18909 h 0.163688 v -0.2286 c 0,-0.254 -0.121355,-0.36124 -0.380999,-0.36124 h -0.417689 c -0.248355,0 -0.361244,0.11006 -0.361244,0.36124 v 0.19756 c 0,0.2032 0.06773,0.27657 0.2794,0.36971 z" />
    </g>
    <g
       style="font-style:normal;font-variant:normal;font-weight:normal;font-stretch:normal;font-size:3.52777px;line-height:1.25;font-family:Quarca;-inkscape-font-specification:Quarca;letter-spacing:0px;word-spacing:0px;fill:#dddddd;fill-opacity:1;stroke:none;stroke-width:0.264583"
       id="text5443-7-5-4-2-8"
       aria-label="RATIO">
      <path
         id="path13835"
         style="font-style:normal;font-variant:normal;font-weight:normal;font-stretch:normal;font-size:2.82223px;font-family:Quarca;-inkscape-font-specification:Quarca;fill:#dddddd;fill-opacity:1;stroke-width:0.264583"
         d="m 46.178763,107.13322 h 0.160867 v -0.80434 h 0.369712 l 0.561624,0.80434 h 0.189089 l -0.564446,-0.80434 h 0.03951 c 0.268112,0 0.397934,-0.127 0.397934,-0.381 v -0.43745 c 0,-0.254 -0.129822,-0.381 -0.397934,-0.381 h -0.756358 z m 0.160867,-1.85139 h 0.567268 c 0.180623,0 0.262468,0.0847 0.262468,0.27658 v 0.34149 c 0,0.19474 -0.08184,0.2794 -0.262468,0.2794 H 46.33963 Z" />
      <path
         id="path13837"
         style="font-style:normal;font-variant:normal;font-weight:normal;font-stretch:normal;font-size:2.82223px;font-family:Quarca;-inkscape-font-specification:Quarca;fill:#dddddd;fill-opacity:1;stroke-width:0.264583"
         d="m 48.157852,105.12943 -0.618068,2.00379 h 0.172156 l 0.129822,-0.43463 h 0.807158 l 0.129823,0.43463 h 0.172156 l -0.615247,-2.00379 z m 0.09031,0.21449 0.355601,1.20227 h -0.716846 z" />
      <path
         id="path13839"
         style="font-style:normal;font-variant:normal;font-weight:normal;font-stretch:normal;font-size:2.82223px;font-family:Quarca;-inkscape-font-specification:Quarca;fill:#dddddd;fill-opacity:1;stroke-width:0.264583"
         d="m 50.047644,105.28183 v -0.1524 h -1.188159 v 0.1524 h 0.513646 v 1.85139 h 0.163689 v -1.85139 z" />
      <path
         id="path13841"
         style="font-style:normal;font-variant:normal;font-weight:normal;font-stretch:normal;font-size:2.82223px;font-family:Quarca;-inkscape-font-specification:Quarca;fill:#dddddd;fill-opacity:1;stroke-width:0.264583"
         d="m 50.429659,107.13322 v -2.00379 h -0.160867 v 2.00379 z" />
      <path
         id="path13843"
         style="font-style:normal;font-variant:normal;font-weight:normal;font-stretch:normal;font-size:2.82223px;font-family:Quarca;-inkscape-font-specification:Quarca;fill:#dddddd;fill-opacity:1;stroke-width:0.264583"
         d="m 50.797695,106.74375 c 0,0.25964 0.09878,0.38947 0.386646,0.38947 h 0.536224 c 0.287867,0 0.386645,-0.12983 0.386645,-0.38947 v -1.22485 c 0,-0.25964 -0.09878,-0.38947 -0.386645,-0.38947 h -0.536224 c -0.287867,0 -0.386646,0.12983 -0.386646,0.38947 z m 0.403579,-1.46192 h 0.502357 c 0.180623,0 0.242712,0.0847 0.242712,0.26247 v 1.17405 c 0,0.1778 -0.06209,0.26247 -0.242712,0.26247 h -0.502357 c -0.1778,0 -0.242711,-0.0847 -0.242711,-0.26247 v -1.17405 c 0,-0.1778 0.06491,-0.26247 0.242711,-0.26247 z" />
    </g>
    <g
       transform="translate(0.13233107,-4.8814781)"
       aria-label="BEAT"
       style="font-style:normal;font-variant:normal;font-weight:bold;font-stretch:normal;font-size:3.52778px;line-height:1.25;font-family:Quarca;-inkscape-font-specification:'Quarca';letter-spacing:0px;word-spacing:0px;fill:#dddddd;fill-opacity:1;stroke:none;stroke-width:0.264583;"
       id="text5443-0-6">
      <path
         d="m 39.169038,130.55185 v 0.48048 h 0.13335 q 0.127,0 0.19685,-0.0635 0.06985,-0.0656 0.06985,-0.18838 0,-0.2286 -0.2667,-0.2286 z m 0.427567,0.55456 q 0.08255,0.0444 0.135466,0.13335 0.05503,0.0889 0.05503,0.17992 0,0.091 -0.0085,0.14605 -0.0085,0.055 -0.0381,0.12065 -0.02752,0.0635 -0.07832,0.10583 -0.1143,0.1016 -0.351366,0.1016 h -0.328084 v -1.48166 h 0.359834 q 0.19685,0 0.294216,0.091 0.09737,0.0889 0.09737,0.28152 0,0.10583 -0.04022,0.19473 -0.0381,0.0868 -0.09737,0.127 z m -0.296334,0.6477 q 0.309034,0 0.309034,-0.29633 0,-0.15028 -0.09102,-0.2159 -0.09102,-0.0656 -0.2159,-0.0656 h -0.13335 v 0.57785 z"
         style="font-style:normal;font-variant:normal;font-weight:bold;font-stretch:normal;font-size:2.11667px;font-family:Quarca;-inkscape-font-specification:'Quarca';stroke-width:0.264583;fill:#dddddd;fill-opacity:1;"
         id="path2945" />
      <path
         d="m 40.012166,131.89381 v -1.48166 h 0.645583 v 0.14393 h -0.459316 v 0.47413 h 0.372533 v 0.14394 h -0.372533 v 0.57573 h 0.480483 v 0.14393 z"
         style="font-style:normal;font-variant:normal;font-weight:bold;font-stretch:normal;font-size:2.11667px;font-family:Quarca;-inkscape-font-specification:'Quarca';stroke-width:0.264583;fill:#dddddd;fill-opacity:1;"
         id="path2947" />
      <path
         d="m 41.139787,130.41215 h 0.281517 l 0.321733,1.48166 H 41.56947 l -0.103716,-0.43603 H 41.08052 l -0.09525,0.43603 h -0.179916 z m 0.294217,0.9017 -0.1524,-0.762 h -0.01482 l -0.154517,0.762 z"
         style="font-style:normal;font-variant:normal;font-weight:bold;font-stretch:normal;font-size:2.11667px;font-family:Quarca;-inkscape-font-specification:'Quarca';stroke-width:0.264583;fill:#dddddd;fill-opacity:1;"
         id="path2949" />
      <path
         d="m 42.027729,131.89381 v -1.34196 h -0.296334 v -0.1397 h 0.778934 v 0.1397 h -0.296334 v 1.34196 z"
         style="font-style:normal;font-variant:normal;font-weight:bold;font-stretch:normal;font-size:2.11667px;font-family:Quarca;-inkscape-font-specification:'Quarca';stroke-width:0.264583;fill:#dddddd;fill-opacity:1;"
         id="path2951" />
    </g>
    <g
       style="font-style:normal;font-variant:normal;font-weight:normal;font-stretch:normal;font-size:3.52777px;line-height:1.25;font-family:Quarca;-inkscape-font-specification:Quarca;letter-spacing:0px;word-spacing:0px;fill:#dddddd;fill-opacity:1;stroke:none;stroke-width:0.264583"
       id="text5443-7-5-4-2-0-8"
       aria-label="ENABLED">
      <path
         id="path13820"
         style="font-style:normal;font-variant:normal;font-weight:normal;font-stretch:normal;font-size:2.82223px;font-family:Quarca;-inkscape-font-specification:Quarca;fill:#dddddd;fill-opacity:1;stroke-width:0.264583"
         d="m 51.08289,124.79945 h 0.905935 l 0.02258,-0.1524 h -1.089381 v 2.00378 h 1.072448 l 0.02258,-0.1524 H 51.08289 v -0.61242 h 0.759179 l 0.02258,-0.14958 H 51.08289 Z" />
      <path
         id="path13822"
         style="font-style:normal;font-variant:normal;font-weight:normal;font-stretch:normal;font-size:2.82223px;font-family:Quarca;-inkscape-font-specification:Quarca;fill:#dddddd;fill-opacity:1;stroke-width:0.264583"
         d="m 52.438883,126.65083 v -1.72438 c 0.04233,0.0931 0.07902,0.18627 0.146756,0.30198 l 0.824091,1.4224 h 0.163689 v -2.00378 H 53.40973 v 1.72156 c -0.03104,-0.0734 -0.05927,-0.14393 -0.112889,-0.23707 l -0.857958,-1.48449 h -0.160867 v 2.00378 z" />
      <path
         id="path13824"
         style="font-style:normal;font-variant:normal;font-weight:normal;font-stretch:normal;font-size:2.82223px;font-family:Quarca;-inkscape-font-specification:Quarca;fill:#dddddd;fill-opacity:1;stroke-width:0.264583"
         d="m 54.433494,124.64705 -0.618068,2.00378 h 0.172156 l 0.129822,-0.43462 h 0.807158 l 0.129823,0.43462 h 0.172156 l -0.615246,-2.00378 z m 0.09031,0.21449 0.355601,1.20227 H 54.16256 Z" />
      <path
         id="path13826"
         style="font-style:normal;font-variant:normal;font-weight:normal;font-stretch:normal;font-size:2.82223px;font-family:Quarca;-inkscape-font-specification:Quarca;fill:#dddddd;fill-opacity:1;stroke-width:0.264583"
         d="m 55.469561,126.65083 h 0.78458 c 0.301979,0 0.437446,-0.12982 0.437446,-0.38946 v -0.27376 c 0,-0.27376 -0.146756,-0.37254 -0.327379,-0.38665 0.152401,-0.031 0.222956,-0.13264 0.222956,-0.31891 v -0.24553 c 0,-0.25965 -0.149578,-0.38947 -0.465668,-0.38947 h -0.651935 z m 0.160867,-0.97084 h 0.536224 c 0.251179,0 0.364068,0.096 0.364068,0.31609 v 0.23424 c 0,0.18062 -0.09313,0.26811 -0.301979,0.26811 h -0.598313 z m 0,-0.88054 h 0.454379 c 0.234245,0 0.34149,0.079 0.34149,0.27376 v 0.19755 c 0,0.16087 -0.08749,0.25965 -0.285045,0.25965 h -0.510824 z" />
      <path
         id="path13828"
         style="font-style:normal;font-variant:normal;font-weight:normal;font-stretch:normal;font-size:2.82223px;font-family:Quarca;-inkscape-font-specification:Quarca;fill:#dddddd;fill-opacity:1;stroke-width:0.264583"
         d="m 57.168324,124.64705 h -0.160868 v 2.00378 h 1.027292 l 0.02258,-0.1524 h -0.889002 z" />
      <path
         id="path13830"
         style="font-style:normal;font-variant:normal;font-weight:normal;font-stretch:normal;font-size:2.82223px;font-family:Quarca;-inkscape-font-specification:Quarca;fill:#dddddd;fill-opacity:1;stroke-width:0.264583"
         d="m 58.436122,124.79945 h 0.905936 l 0.02258,-0.1524 h -1.089381 v 2.00378 h 1.072447 l 0.02258,-0.1524 h -0.934158 v -0.61242 h 0.75918 l 0.02258,-0.14958 h -0.781758 z" />
      <path
         id="path13832"
         style="font-style:normal;font-variant:normal;font-weight:normal;font-stretch:normal;font-size:2.82223px;font-family:Quarca;-inkscape-font-specification:Quarca;fill:#dddddd;fill-opacity:1;stroke-width:0.264583"
         d="m 59.631248,126.65083 h 0.78458 c 0.352779,0 0.496713,-0.15522 0.496713,-0.47413 v -1.05552 c 0,-0.31891 -0.143934,-0.47413 -0.496713,-0.47413 h -0.78458 z m 0.776113,-0.1524 h -0.615246 v -1.69898 h 0.615246 c 0.245534,0 0.344312,0.11007 0.344312,0.3556 v 0.98778 c 0,0.24554 -0.09878,0.3556 -0.344312,0.3556 z" />
    </g>
    <path
       id="rect6948-0-8-7"
       style="fill:#101015;fill-opacity:1;stroke:#999999;stroke-width:0.175204;stroke-miterlimit:4;stroke-dasharray:none;stroke-opacity:1"
       d="m 52.696414,67.40994 h 7.762297 v 5.116464 h -7.762297 z" />
    <path
       d="m 52.696414,88.576607 h 7.762297 v 5.116464 h -7.762297 z"
       style="fill:#101015;fill-opacity:1;stroke:#999999;stroke-width:0.175204;stroke-miterlimit:4;stroke-dasharray:none;stroke-opacity:1"
       id="rect6948-0-8-7-9" />
    <path
       d="m 52.696414,109.74327 h 7.762297 v 5.11647 h -7.762297 z"
       style="fill:#101015;fill-opacity:1;stroke:#999999;stroke-width:0.175204;stroke-miterlimit:4;stroke-dasharray:none;stroke-opacity:1"
       id="rect6948-0-8-7-2" />
  </g>
</svg>
