<?xml version="1.0" encoding="UTF-8" standalone="no"?>
<svg
   xmlns:dc="http://purl.org/dc/elements/1.1/"
   xmlns:cc="http://creativecommons.org/ns#"
   xmlns:rdf="http://www.w3.org/1999/02/22-rdf-syntax-ns#"
   xmlns:svg="http://www.w3.org/2000/svg"
   xmlns="http://www.w3.org/2000/svg"
   xmlns:xlink="http://www.w3.org/1999/xlink"
   xmlns:sodipodi="http://sodipodi.sourceforge.net/DTD/sodipodi-0.dtd"
   xmlns:inkscape="http://www.inkscape.org/namespaces/inkscape"
   width="105"
   height="380"
   viewBox="0 0 27.78125 100.54167"
   version="1.1"
   id="svg11003"
   inkscape:version="1.0 (4035a4fb49, 2020-05-01)"
   sodipodi:docname="QARWarpedSpaceExpander.svg">
  <defs
     id="defs10997">
    <rect
       id="rect8048"
       height="15.875"
       width="46.169792"
       y="123.94317"
       x="26.679645" />
    <rect
       id="rect8042"
       height="8.8635418"
       width="34.528126"
       y="132.67442"
       x="30.912979" />
    <linearGradient
       inkscape:collect="always"
       id="linearGradient4047">
      <stop
         id="stop3387"
         offset="0"
         style="stop-color:#0c1622;stop-opacity:1" />
      <stop
         id="stop3388"
         offset=".3"
         style="stop-color:#161625;stop-opacity:1" />
      <stop
         id="stop3389"
         offset="1"
         style="stop-color:#081f35;stop-opacity:1" />
    </linearGradient>
    <linearGradient
       inkscape:collect="always"
       xlink:href="#linearGradient4047"
       id="linearGradient4049"
       x1="35.418064"
       y1="158.3329"
       x2="35.219627"
       y2="50.462322"
       gradientUnits="userSpaceOnUse"
       gradientTransform="matrix(0.5824096,0,0,1,14.70738,0)" />
  </defs>
  <sodipodi:namedview
     id="base"
     pagecolor="#ffffff"
     bordercolor="#666666"
     borderopacity="1.0"
     inkscape:pageopacity="0.0"
     inkscape:pageshadow="2"
     inkscape:zoom="2"
     inkscape:cx="-33.850675"
     inkscape:cy="195.87134"
     inkscape:document-units="px"
     inkscape:current-layer="layer1"
     showgrid="false"
     fit-margin-top="0"
     fit-margin-left="0"
     fit-margin-right="0"
     fit-margin-bottom="0"
     inkscape:window-width="1920"
     inkscape:window-height="1058"
     inkscape:window-x="-6"
     inkscape:window-y="-6"
     inkscape:window-maximized="1"
     units="px"
     showguides="false"
     inkscape:document-rotation="0" />
  <metadata
     id="metadata11000">
    <rdf:RDF>
      <cc:Work
         rdf:about="">
        <dc:format>image/svg+xml</dc:format>
        <dc:type
           rdf:resource="http://purl.org/dc/dcmitype/StillImage" />
        <dc:title></dc:title>
      </cc:Work>
    </rdf:RDF>
  </metadata>
  <g
     inkscape:label="Layer 1"
     inkscape:groupmode="layer"
     id="layer1"
     transform="translate(-35.146312,-50.389004)">
    <g
       id="g1644"
       transform="matrix(0.50000001,0,0,1.0014499,17.536498,-0.14648283)">
      <path
         inkscape:export-ydpi="150.22649"
         inkscape:export-xdpi="150.22649"
         inkscape:export-filename="/home/vortico/pics/tmp/LFOs.png"
         style="fill:url(#linearGradient4049);fill-opacity:1;fill-rule:nonzero;stroke:none;stroke-width:0.32694858"
         d="m 35.219628,50.462323 h 55.5625 V 150.85843 h -55.5625 z m 0,0"
         id="path33493"
         inkscape:connector-curvature="0" />
    </g>
    <g
       style="font-style:normal;font-weight:normal;font-size:3.52777767px;line-height:1.25;font-family:sans-serif;letter-spacing:0px;word-spacing:0px;fill:#ffffff;fill-opacity:1;stroke:none;stroke-width:0.26458332"
       id="text5097" />
    <g
       style="font-style:normal;font-variant:normal;font-weight:bold;font-stretch:normal;font-size:3.52777767px;line-height:1.25;font-family:Consolas;-inkscape-font-specification:'Consolas Bold';text-align:center;letter-spacing:0px;word-spacing:0px;text-anchor:middle;fill:#ffffff;fill-opacity:1;stroke:none;stroke-width:0.26458332"
       id="text373" />
    <g
       style="font-style:normal;font-variant:normal;font-weight:bold;font-stretch:normal;font-size:13.33333302px;line-height:1.25;font-family:Consolas;-inkscape-font-specification:'Consolas Bold';text-align:center;letter-spacing:0px;word-spacing:0px;text-anchor:middle;fill:#ffffff;fill-opacity:1;stroke:none"
       id="flowRoot250" />
    <g
       aria-label="=+"
       style="font-style:normal;font-variant:normal;font-weight:bold;font-stretch:normal;font-size:3.52777767px;line-height:1.25;font-family:Consolas;-inkscape-font-specification:'Consolas Bold';text-align:center;letter-spacing:0px;word-spacing:0px;text-anchor:middle;fill:#ffffff;fill-opacity:1;stroke:none;stroke-width:0.26458332"
       id="text308">
      <path
         d="m 156.8605,47.159573 v -0.334174 h 1.48139 v 0.334174 z m 0,0.678684 v -0.334174 h 1.48139 v 0.334174 z"
         style="stroke-width:0.26458332"
         id="path4330"
         inkscape:connector-curvature="0" />
      <path
         d="m 159.73887,47.507528 v 0.670071 h -0.38757 v -0.670071 h -0.64251 v -0.346232 h 0.64251 V 46.49467 h 0.38757 v 0.666626 h 0.64251 v 0.346232 z"
         style="stroke-width:0.26458332"
         id="path4332"
         inkscape:connector-curvature="0" />
    </g>
    <g
       style="font-style:normal;font-variant:normal;font-weight:bold;font-stretch:normal;font-size:13.33333302px;line-height:1.25;font-family:Consolas;-inkscape-font-specification:'Consolas Bold';text-align:center;letter-spacing:0px;word-spacing:0px;text-anchor:middle;fill:#ffffff;fill-opacity:1;stroke:none"
       id="flowRoot53665" />
    <g
       style="font-style:normal;font-variant:normal;font-weight:bold;font-stretch:normal;font-size:3.52777767px;line-height:1.25;font-family:Consolas;-inkscape-font-specification:'Consolas Bold';text-align:center;letter-spacing:0px;word-spacing:0px;text-anchor:middle;fill:#ffffff;fill-opacity:1;stroke:none;stroke-width:0.26458332"
       id="text53994" />
    <g
       style="font-style:normal;font-variant:normal;font-weight:normal;font-stretch:normal;font-size:3.52778px;line-height:1.25;font-family:Quarca;-inkscape-font-specification:Quarca;text-align:start;letter-spacing:0px;word-spacing:0px;text-anchor:start;fill:#dddddd;fill-opacity:1;stroke:none;stroke-width:0.264583"
       id="text3885"
       aria-label="QAR
WARPED SPACE">
      <path
         id="path8128"
         style="font-style:normal;font-variant:normal;font-weight:normal;font-stretch:normal;font-size:3.88056px;font-family:Quarca;-inkscape-font-specification:Quarca;text-align:center;text-anchor:middle;fill:#dddddd;fill-opacity:1;stroke-width:0.264583"
         d="m 46.194577,53.535779 c 0,0.357012 0.13582,0.535518 0.531637,0.535518 h 0.256117 v 0.450145 h 0.20955 v -0.450145 h 0.27164 c 0.395817,0 0.531636,-0.178506 0.531636,-0.535518 v -1.684163 c 0,-0.357011 -0.135819,-0.535517 -0.531636,-0.535517 h -0.737307 c -0.395817,0 -0.531637,0.178506 -0.531637,0.535517 z m 0.554921,0.325967 c -0.244476,0 -0.333729,-0.116416 -0.333729,-0.360892 v -1.614313 c 0,-0.244475 0.08925,-0.360892 0.333729,-0.360892 h 0.690739 c 0.248356,0 0.333728,0.116417 0.333728,0.360892 v 1.614313 c 0,0.244476 -0.08537,0.360892 -0.333728,0.360892 H 47.191881 V 53.47369 h -0.20955 v 0.388056 z" />
      <path
         id="path8130"
         style="font-style:normal;font-variant:normal;font-weight:normal;font-stretch:normal;font-size:3.88056px;font-family:Quarca;-inkscape-font-specification:Quarca;text-align:center;text-anchor:middle;fill:#dddddd;fill-opacity:1;stroke-width:0.264583"
         d="m 49.158719,51.316099 -0.849843,2.755198 h 0.236714 l 0.178506,-0.597607 h 1.10984 l 0.178506,0.597607 h 0.236714 l -0.845962,-2.755198 z m 0.124178,0.294923 0.48895,1.653118 h -0.985662 z" />
      <path
         id="path8132"
         style="font-style:normal;font-variant:normal;font-weight:normal;font-stretch:normal;font-size:3.88056px;font-family:Quarca;-inkscape-font-specification:Quarca;text-align:center;text-anchor:middle;fill:#dddddd;fill-opacity:1;stroke-width:0.264583"
         d="m 50.583309,54.071297 h 0.221192 v -1.10596 h 0.508353 l 0.772231,1.10596 h 0.259998 l -0.776112,-1.10596 h 0.05433 c 0.368653,0 0.547159,-0.174625 0.547159,-0.523875 v -0.601487 c 0,-0.349251 -0.178506,-0.523876 -0.547159,-0.523876 h -1.03999 z m 0.221192,-2.545648 h 0.779992 c 0.248356,0 0.360892,0.116417 0.360892,0.380295 v 0.469548 c 0,0.267759 -0.112536,0.384175 -0.360892,0.384175 h -0.779992 z" />
      <path
         id="path8134"
         style="font-style:normal;font-variant:normal;font-weight:normal;font-stretch:normal;font-size:3.88056px;font-family:Quarca;-inkscape-font-specification:Quarca;text-align:center;text-anchor:middle;fill:#dddddd;fill-opacity:1;stroke-width:0.264583"
         d="m 38.22988,58.921997 0.496711,-2.231322 c 0.01164,-0.03881 0.01552,-0.100895 0.01552,-0.151342 0.0039,0.05045 0.01164,0.112536 0.02328,0.151342 l 0.500592,2.231322 h 0.248356 l 0.737307,-2.755198 h -0.225073 l -0.582084,2.258486 c -0.0194,0.08149 -0.03881,0.151342 -0.04657,0.228953 -0.0078,-0.07761 -0.02716,-0.151342 -0.04269,-0.232834 L 38.85465,56.166799 h -0.221192 l -0.496712,2.254605 c -0.01552,0.08149 -0.03104,0.159103 -0.03881,0.240595 -0.01552,-0.08149 -0.03493,-0.162983 -0.05433,-0.244475 l -0.578204,-2.250725 h -0.228953 l 0.741187,2.755198 z" />
      <path
         id="path8136"
         style="font-style:normal;font-variant:normal;font-weight:normal;font-stretch:normal;font-size:3.88056px;font-family:Quarca;-inkscape-font-specification:Quarca;text-align:center;text-anchor:middle;fill:#dddddd;fill-opacity:1;stroke-width:0.264583"
         d="m 41.075482,56.166799 -0.849842,2.755198 h 0.236714 L 40.640859,58.32439 H 41.7507 l 0.178505,0.597607 h 0.236715 l -0.845963,-2.755198 z m 0.124178,0.294923 0.488951,1.653118 h -0.985663 z" />
      <path
         id="path8138"
         style="font-style:normal;font-variant:normal;font-weight:normal;font-stretch:normal;font-size:3.88056px;font-family:Quarca;-inkscape-font-specification:Quarca;text-align:center;text-anchor:middle;fill:#dddddd;fill-opacity:1;stroke-width:0.264583"
         d="m 42.500072,58.921997 h 0.221192 v -1.10596 h 0.508353 l 0.772232,1.10596 h 0.259997 l -0.776112,-1.10596 h 0.05433 c 0.368653,0 0.547159,-0.174625 0.547159,-0.523876 v -0.601486 c 0,-0.349251 -0.178506,-0.523876 -0.547159,-0.523876 h -1.03999 z m 0.221192,-2.545648 h 0.779993 c 0.248355,0 0.360892,0.116417 0.360892,0.380295 v 0.469548 c 0,0.267759 -0.112537,0.384175 -0.360892,0.384175 h -0.779993 z" />
      <path
         id="path8140"
         style="font-style:normal;font-variant:normal;font-weight:normal;font-stretch:normal;font-size:3.88056px;font-family:Quarca;-inkscape-font-specification:Quarca;text-align:center;text-anchor:middle;fill:#dddddd;fill-opacity:1;stroke-width:0.264583"
         d="m 44.782812,57.788873 h 0.869245 c 0.34537,0 0.523876,-0.174625 0.523876,-0.519995 v -0.582084 c 0,-0.34537 -0.178506,-0.519995 -0.523876,-0.519995 H 44.56162 v 2.755198 h 0.221192 z m 0,-1.412524 h 0.838201 c 0.225072,0 0.329847,0.104775 0.329847,0.353131 v 0.496712 c 0,0.248356 -0.104775,0.353131 -0.329847,0.353131 h -0.838201 z" />
      <path
         id="path8142"
         style="font-style:normal;font-variant:normal;font-weight:normal;font-stretch:normal;font-size:3.88056px;font-family:Quarca;-inkscape-font-specification:Quarca;text-align:center;text-anchor:middle;fill:#dddddd;fill-opacity:1;stroke-width:0.264583"
         d="m 46.806463,56.376349 h 1.24566 l 0.03104,-0.20955 h -1.497896 v 2.755198 h 1.474613 l 0.03104,-0.209551 h -1.284465 v -0.842081 h 1.04387 l 0.03104,-0.20567 h -1.074915 z" />
      <path
         id="path8144"
         style="font-style:normal;font-variant:normal;font-weight:normal;font-stretch:normal;font-size:3.88056px;font-family:Quarca;-inkscape-font-specification:Quarca;text-align:center;text-anchor:middle;fill:#dddddd;fill-opacity:1;stroke-width:0.264583"
         d="m 48.449759,58.921997 h 1.078795 c 0.48507,0 0.682979,-0.213431 0.682979,-0.651934 v -1.45133 c 0,-0.438503 -0.197909,-0.651934 -0.682979,-0.651934 h -1.078795 z m 1.067154,-0.209551 H 48.67095 v -2.336097 h 0.845963 c 0.337608,0 0.473428,0.151342 0.473428,0.488951 v 1.358196 c 0,0.337609 -0.13582,0.48895 -0.473428,0.48895 z" />
      <path
         id="path8146"
         style="font-style:normal;font-variant:normal;font-weight:normal;font-stretch:normal;font-size:3.88056px;font-family:Quarca;-inkscape-font-specification:Quarca;text-align:center;text-anchor:middle;fill:#dddddd;fill-opacity:1;stroke-width:0.264583"
         d="m 52.617905,57.777231 c 0.194028,0.08149 0.244475,0.147462 0.244475,0.337609 v 0.267759 c 0,0.232833 -0.09701,0.329847 -0.318206,0.329847 h -0.585965 c -0.221192,0 -0.322086,-0.09701 -0.322086,-0.329847 v -0.291042 h -0.221192 v 0.34537 c 0,0.322086 0.151342,0.48507 0.508353,0.48507 h 0.682979 c 0.322086,0 0.481189,-0.162984 0.481189,-0.48507 v -0.380295 c 0,-0.27552 -0.104775,-0.372534 -0.388056,-0.496712 L 51.903881,57.222311 C 51.721495,57.1447 51.674928,57.07097 51.674928,56.900225 V 56.72948 c 0,-0.263878 0.08537,-0.353131 0.333729,-0.353131 h 0.48507 c 0.221192,0 0.329847,0.100895 0.329847,0.34149 v 0.259997 h 0.225073 v -0.314325 c 0,-0.349251 -0.166864,-0.496712 -0.523876,-0.496712 h -0.574323 c -0.341489,0 -0.496711,0.151342 -0.496711,0.496712 v 0.271639 c 0,0.2794 0.09313,0.380295 0.384175,0.508353 z" />
      <path
         id="path8148"
         style="font-style:normal;font-variant:normal;font-weight:normal;font-stretch:normal;font-size:3.88056px;font-family:Quarca;-inkscape-font-specification:Quarca;text-align:center;text-anchor:middle;fill:#dddddd;fill-opacity:1;stroke-width:0.264583"
         d="m 53.749027,57.788873 h 0.869245 c 0.34537,0 0.523876,-0.174625 0.523876,-0.519995 v -0.582084 c 0,-0.34537 -0.178506,-0.519995 -0.523876,-0.519995 h -1.090437 v 2.755198 h 0.221192 z m 0,-1.412524 h 0.838201 c 0.225072,0 0.329847,0.104775 0.329847,0.353131 v 0.496712 c 0,0.248356 -0.104775,0.353131 -0.329847,0.353131 h -0.838201 z" />
      <path
         id="path8150"
         style="font-style:normal;font-variant:normal;font-weight:normal;font-stretch:normal;font-size:3.88056px;font-family:Quarca;-inkscape-font-specification:Quarca;text-align:center;text-anchor:middle;fill:#dddddd;fill-opacity:1;stroke-width:0.264583"
         d="m 56.021701,56.166799 -0.849842,2.755198 h 0.236714 l 0.178506,-0.597607 h 1.10984 l 0.178506,0.597607 h 0.236714 l -0.845962,-2.755198 z m 0.124178,0.294923 0.488951,1.653118 h -0.985662 z" />
      <path
         id="path8152"
         style="font-style:normal;font-variant:normal;font-weight:normal;font-stretch:normal;font-size:3.88056px;font-family:Quarca;-inkscape-font-specification:Quarca;text-align:center;text-anchor:middle;fill:#dddddd;fill-opacity:1;stroke-width:0.264583"
         d="m 57.98569,58.712446 c -0.244475,0 -0.333728,-0.116416 -0.333728,-0.360892 v -1.614313 c 0,-0.244475 0.08925,-0.360892 0.333728,-0.360892 h 0.628651 c 0.244475,0 0.333728,0.116417 0.333728,0.360892 v 0.252237 h 0.221192 v -0.287162 c 0,-0.357011 -0.13582,-0.535517 -0.531637,-0.535517 h -0.675218 c -0.395817,0 -0.531636,0.178506 -0.531636,0.535517 v 1.684163 c 0,0.357012 0.135819,0.535518 0.531636,0.535518 h 0.675218 c 0.395817,0 0.531637,-0.178506 0.531637,-0.535518 v -0.294922 h -0.221192 v 0.259997 c 0,0.244476 -0.08925,0.360892 -0.333728,0.360892 z" />
      <path
         id="path8154"
         style="font-style:normal;font-variant:normal;font-weight:normal;font-stretch:normal;font-size:3.88056px;font-family:Quarca;-inkscape-font-specification:Quarca;text-align:center;text-anchor:middle;fill:#dddddd;fill-opacity:1;stroke-width:0.264583"
         d="m 59.819982,56.376349 h 1.24566 l 0.03104,-0.20955 H 59.59879 v 2.755198 h 1.474613 l 0.03104,-0.209551 h -1.284465 v -0.842081 h 1.043871 l 0.03104,-0.20567 h -1.074915 z" />
    </g>
    <g
       style="font-style:normal;font-variant:normal;font-weight:bold;font-stretch:normal;font-size:13.3333px;line-height:1.25;font-family:Consolas;-inkscape-font-specification:'Consolas Bold';text-align:center;letter-spacing:0px;word-spacing:0px;text-anchor:middle;fill:#000000;fill-opacity:1;stroke:none"
       id="flowRoot1015"
       transform="matrix(0.26458333,0,0,0.26458333,35.146312,50.389004)" />
    <g
       style="font-style:normal;font-variant:normal;font-weight:normal;font-stretch:normal;font-size:3.52778px;line-height:1.25;font-family:Quarca;-inkscape-font-specification:Quarca;letter-spacing:0px;word-spacing:0px;fill:#dddddd;fill-opacity:1;stroke:none;stroke-width:0.264583"
       id="text5443-7-5"
       aria-label="WARP">
      <path
         id="path8118"
         style="font-style:normal;font-variant:normal;font-weight:normal;font-stretch:normal;font-size:2.82222px;font-family:Quarca;-inkscape-font-specification:Quarca;fill:#dddddd;fill-opacity:1;stroke-width:0.264583"
         d="m 46.677205,64.941086 0.361245,-1.622777 c 0.0085,-0.02822 0.01129,-0.07338 0.01129,-0.110066 0.0028,0.03669 0.0085,0.08184 0.01693,0.110066 l 0.364066,1.622777 h 0.180622 l 0.536222,-2.003776 h -0.163689 l -0.423333,1.642532 c -0.01411,0.05927 -0.02822,0.110066 -0.03387,0.166511 -0.0056,-0.05644 -0.01976,-0.110067 -0.03104,-0.169334 L 47.131583,62.93731 h -0.160867 l -0.361244,1.639709 c -0.01129,0.05927 -0.02258,0.115711 -0.02822,0.174978 -0.01129,-0.05927 -0.0254,-0.118533 -0.03951,-0.1778 L 46.121228,62.93731 h -0.166511 l 0.539044,2.003776 z" />
      <path
         id="path8120"
         style="font-style:normal;font-variant:normal;font-weight:normal;font-stretch:normal;font-size:2.82222px;font-family:Quarca;-inkscape-font-specification:Quarca;fill:#dddddd;fill-opacity:1;stroke-width:0.264583"
         d="m 48.746731,62.93731 -0.618067,2.003776 h 0.172156 l 0.129822,-0.434622 h 0.807155 l 0.129822,0.434622 h 0.172155 L 48.92453,62.93731 Z m 0.09031,0.214488 0.355599,1.202266 h -0.716844 z" />
      <path
         id="path8122"
         style="font-style:normal;font-variant:normal;font-weight:normal;font-stretch:normal;font-size:2.82222px;font-family:Quarca;-inkscape-font-specification:Quarca;fill:#dddddd;fill-opacity:1;stroke-width:0.264583"
         d="m 49.782794,64.941086 h 0.160866 v -0.804333 h 0.369711 l 0.561622,0.804333 h 0.189089 l -0.564444,-0.804333 h 0.03951 c 0.268111,0 0.397933,-0.127 0.397933,-0.381 v -0.437444 c 0,-0.254 -0.129822,-0.380999 -0.397933,-0.380999 h -0.756355 z m 0.160866,-1.851377 h 0.567267 c 0.180622,0 0.262466,0.08467 0.262466,0.276578 v 0.341489 c 0,0.194733 -0.08184,0.279399 -0.262466,0.279399 H 49.94366 Z" />
      <path
         id="path8124"
         style="font-style:normal;font-variant:normal;font-weight:normal;font-stretch:normal;font-size:2.82222px;font-family:Quarca;-inkscape-font-specification:Quarca;fill:#dddddd;fill-opacity:1;stroke-width:0.264583"
         d="m 51.442965,64.116998 h 0.632178 c 0.251177,0 0.380999,-0.127 0.380999,-0.378178 v -0.423333 c 0,-0.251178 -0.129822,-0.378177 -0.380999,-0.378177 h -0.793044 v 2.003776 h 0.160866 z m 0,-1.027289 h 0.6096 c 0.163689,0 0.239888,0.0762 0.239888,0.256822 v 0.361245 c 0,0.180622 -0.0762,0.256822 -0.239888,0.256822 h -0.6096 z" />
    </g>
    <g
       style="font-style:normal;font-variant:normal;font-weight:bold;font-stretch:normal;font-size:13.3333px;line-height:1.25;font-family:Arial;-inkscape-font-specification:'Arial Bold';text-align:center;letter-spacing:0px;word-spacing:0px;text-anchor:middle;fill:#000000;fill-opacity:1;stroke:none"
       id="flowRoot1633" />
    <g
       style="font-style:normal;font-variant:normal;font-weight:normal;font-stretch:normal;font-size:3.52778px;line-height:1.25;font-family:Quarca;-inkscape-font-specification:Quarca;letter-spacing:0px;word-spacing:0px;fill:#dddddd;fill-opacity:1;stroke:none;stroke-width:0.264583"
       id="text5443-7-5-4-2"
       aria-label="POSITION">
      <path
         id="path8100"
         style="font-style:normal;font-variant:normal;font-weight:normal;font-stretch:normal;font-size:2.82222px;font-family:Quarca;-inkscape-font-specification:Quarca;fill:#dddddd;fill-opacity:1;stroke-width:0.264583"
         d="m 44.815245,85.426896 h 0.632178 c 0.251177,0 0.380999,-0.127 0.380999,-0.378178 v -0.423333 c 0,-0.251177 -0.129822,-0.378177 -0.380999,-0.378177 h -0.793044 v 2.003776 h 0.160866 z m 0,-1.027288 h 0.6096 c 0.163689,0 0.239889,0.0762 0.239889,0.256822 v 0.361244 c 0,0.180622 -0.0762,0.256822 -0.239889,0.256822 h -0.6096 z" />
      <path
         id="path8102"
         style="font-style:normal;font-variant:normal;font-weight:normal;font-stretch:normal;font-size:2.82222px;font-family:Quarca;-inkscape-font-specification:Quarca;fill:#dddddd;fill-opacity:1;stroke-width:0.264583"
         d="m 46.114834,85.861518 c 0,0.259644 0.09878,0.389466 0.386644,0.389466 H 47.0377 c 0.287866,0 0.386644,-0.129822 0.386644,-0.389466 v -1.224844 c 0,-0.259644 -0.09878,-0.389466 -0.386644,-0.389466 h -0.536222 c -0.287867,0 -0.386644,0.129822 -0.386644,0.389466 z m 0.403577,-1.46191 h 0.502355 c 0.180622,0 0.242711,0.08467 0.242711,0.262466 v 1.174044 c 0,0.1778 -0.06209,0.262466 -0.242711,0.262466 h -0.502355 c -0.1778,0 -0.242711,-0.08467 -0.242711,-0.262466 v -1.174044 c 0,-0.1778 0.06491,-0.262466 0.242711,-0.262466 z" />
      <path
         id="path8104"
         style="font-style:normal;font-variant:normal;font-weight:normal;font-stretch:normal;font-size:2.82222px;font-family:Quarca;-inkscape-font-specification:Quarca;fill:#dddddd;fill-opacity:1;stroke-width:0.264583"
         d="m 48.600769,85.418429 c 0.141111,0.05927 0.177799,0.107245 0.177799,0.245533 v 0.194734 c 0,0.169333 -0.07055,0.239888 -0.231422,0.239888 h -0.426155 c -0.160866,0 -0.234244,-0.07055 -0.234244,-0.239888 V 85.647029 H 47.72588 v 0.251178 c 0,0.234244 0.110067,0.352777 0.369711,0.352777 h 0.496711 c 0.234244,0 0.349955,-0.118533 0.349955,-0.352777 v -0.276578 c 0,-0.200378 -0.0762,-0.270933 -0.282222,-0.361244 L 48.08148,85.014852 c -0.132644,-0.05645 -0.166511,-0.110067 -0.166511,-0.234244 V 84.65643 c 0,-0.191911 0.06209,-0.256822 0.242711,-0.256822 h 0.352778 c 0.160866,0 0.239888,0.07338 0.239888,0.248355 v 0.189089 h 0.163689 v -0.2286 c 0,-0.254 -0.121355,-0.361244 -0.381,-0.361244 h -0.417688 c -0.248356,0 -0.361244,0.110067 -0.361244,0.361244 v 0.197556 c 0,0.203199 0.06773,0.276577 0.279399,0.36971 z" />
      <path
         id="path8106"
         style="font-style:normal;font-variant:normal;font-weight:normal;font-stretch:normal;font-size:2.82222px;font-family:Quarca;-inkscape-font-specification:Quarca;fill:#dddddd;fill-opacity:1;stroke-width:0.264583"
         d="m 49.423402,86.250984 v -2.003776 h -0.160867 v 2.003776 z" />
      <path
         id="path8108"
         style="font-style:normal;font-variant:normal;font-weight:normal;font-stretch:normal;font-size:2.82222px;font-family:Quarca;-inkscape-font-specification:Quarca;fill:#dddddd;fill-opacity:1;stroke-width:0.264583"
         d="m 50.832836,84.399608 v -0.1524 h -1.188155 v 0.1524 h 0.513644 v 1.851376 h 0.163689 v -1.851376 z" />
      <path
         id="path8110"
         style="font-style:normal;font-variant:normal;font-weight:normal;font-stretch:normal;font-size:2.82222px;font-family:Quarca;-inkscape-font-specification:Quarca;fill:#dddddd;fill-opacity:1;stroke-width:0.264583"
         d="m 51.21485,86.250984 v -2.003776 h -0.160866 v 2.003776 z" />
      <path
         id="path8112"
         style="font-style:normal;font-variant:normal;font-weight:normal;font-stretch:normal;font-size:2.82222px;font-family:Quarca;-inkscape-font-specification:Quarca;fill:#dddddd;fill-opacity:1;stroke-width:0.264583"
         d="m 51.582885,85.861518 c 0,0.259644 0.09878,0.389466 0.386645,0.389466 h 0.536221 c 0.287867,0 0.386645,-0.129822 0.386645,-0.389466 v -1.224844 c 0,-0.259644 -0.09878,-0.389466 -0.386645,-0.389466 H 51.96953 c -0.287867,0 -0.386645,0.129822 -0.386645,0.389466 z m 0.403578,-1.46191 h 0.502355 c 0.180622,0 0.242711,0.08467 0.242711,0.262466 v 1.174044 c 0,0.1778 -0.06209,0.262466 -0.242711,0.262466 h -0.502355 c -0.1778,0 -0.242711,-0.08467 -0.242711,-0.262466 v -1.174044 c 0,-0.1778 0.06491,-0.262466 0.242711,-0.262466 z" />
      <path
         id="path8114"
         style="font-style:normal;font-variant:normal;font-weight:normal;font-stretch:normal;font-size:2.82222px;font-family:Quarca;-inkscape-font-specification:Quarca;fill:#dddddd;fill-opacity:1;stroke-width:0.264583"
         d="m 53.41971,86.250984 v -1.724376 c 0.04233,0.09313 0.07902,0.186266 0.146755,0.301977 l 0.824089,1.422399 h 0.163688 v -2.003776 h -0.163688 v 1.721554 c -0.03104,-0.07338 -0.05927,-0.143933 -0.112889,-0.237066 L 53.41971,84.247208 h -0.160867 v 2.003776 z" />
    </g>
    <g
       style="font-style:normal;font-variant:normal;font-weight:bold;font-stretch:normal;font-size:3.53844px;line-height:1.25;font-family:Consolas;-inkscape-font-specification:'Consolas Bold';text-align:start;letter-spacing:0px;word-spacing:0px;text-anchor:start;fill:#00a3f2;fill-opacity:1;stroke:none;stroke-width:0.265383"
       id="text3885-7"
       transform="scale(1.0030227,0.99698641)"
       aria-label="FW">
      <path
         id="path8095"
         style="font-style:normal;font-variant:normal;font-weight:normal;font-stretch:normal;font-family:'Bradley Gratis';-inkscape-font-specification:'Bradley Gratis';text-align:start;text-anchor:start;fill:#00a3f2;fill-opacity:1;stroke-width:0.265383"
         d="m 47.037178,149.37882 q 0.120307,-0.1203 0.191076,-0.2123 0.07431,-0.092 0.11323,-0.16985 0.04246,-0.0778 0.05308,-0.14507 0.01415,-0.0708 0.01415,-0.14862 0,-0.0955 -0.046,-0.23 -0.046,-0.13446 -0.102615,-0.28661 -0.05662,-0.15215 -0.102615,-0.31138 -0.046,-0.15923 -0.046,-0.30431 0,-0.0778 0.02477,-0.15215 0.02831,-0.0743 0.06723,-0.14154 0.04246,-0.0708 0.092,-0.13092 0.04954,-0.0637 0.09908,-0.11323 -0.07077,-0.0142 -0.123845,-0.0212 -0.05308,-0.0106 -0.07785,-0.0106 -0.130922,0 -0.222922,0.0708 -0.08846,0.0672 -0.191076,0.16985 0,-0.12031 0.03538,-0.24769 0.03892,-0.13093 0.116768,-0.23708 0.07785,-0.10615 0.194614,-0.17338 0.120307,-0.0672 0.283076,-0.0672 0.11323,0 0.208768,0.0177 0.09908,0.0142 0.18046,0.0354 0.08138,0.0212 0.148615,0.0389 0.06723,0.0142 0.120307,0.0142 0.08138,0 0.141537,-0.0212 0.06369,-0.0248 0.123846,-0.0849 0,0.0778 -0.03185,0.17692 -0.02831,0.0991 -0.08846,0.19107 -0.05662,0.0885 -0.148615,0.15216 -0.092,0.0601 -0.212306,0.0601 -0.06015,0 -0.137999,-0.007 -0.07431,-0.0106 -0.155692,-0.0248 -0.0071,0.0248 -0.01062,0.046 -0.0035,0.0212 -0.0071,0.0389 -0.0035,0.0212 -0.0035,0.0389 0,0.0779 0.01062,0.15215 0.01415,0.0708 0.03892,0.14508 h 0.714765 l -0.08138,0.24061 q -0.01062,0.046 -0.01415,0.0672 -0.0035,0.0212 -0.01062,0.0672 l -0.130922,-0.092 h -0.364459 q 0.07785,0.17693 0.145076,0.36092 0.06723,0.18046 0.06723,0.38569 0,0.184 -0.07431,0.34323 -0.07431,0.15569 -0.198153,0.27246 -0.120307,0.11677 -0.279536,0.18046 -0.155692,0.0672 -0.321999,0.0672 z" />
      <path
         id="path8097"
         style="font-style:normal;font-variant:normal;font-weight:normal;font-stretch:normal;font-family:'Bradley Gratis';-inkscape-font-specification:'Bradley Gratis';text-align:start;text-anchor:start;fill:#00a3f2;fill-opacity:1;stroke-width:0.265383"
         d="m 49.170139,149.34698 q -0.191076,-0.138 -0.325536,-0.29369 -0.134461,-0.15923 -0.215845,-0.32908 -0.08138,-0.16984 -0.120307,-0.34323 -0.03538,-0.17692 -0.03538,-0.34676 0,-0.16631 0.03538,-0.32908 0.03538,-0.1663 0.092,-0.32553 0.06015,-0.16277 0.137999,-0.31493 0.07785,-0.15569 0.15923,-0.3043 h -0.02123 q -0.01062,0 -0.02477,0 -0.01061,-0.004 -0.02831,-0.004 -0.05662,0 -0.137999,0.0142 -0.07785,0.0142 -0.152153,0.0708 V 146.495 h 0.743072 q -0.092,0.15923 -0.15923,0.32199 -0.06369,0.15923 -0.106153,0.31139 -0.03892,0.14861 -0.06015,0.28307 -0.01769,0.13092 -0.01769,0.23708 0,0.10615 0.02123,0.25476 0.02123,0.14862 0.07785,0.30785 0.06015,0.15569 0.15923,0.29723 0.102614,0.14154 0.265383,0.23 l 0.106153,-0.0779 q -0.06369,-0.12031 -0.09908,-0.23 -0.03538,-0.11323 -0.05308,-0.2123 -0.01415,-0.0991 -0.01769,-0.18046 -0.0035,-0.0849 -0.0035,-0.15216 0,-0.10969 0.02831,-0.24769 0.02831,-0.138 0.08138,-0.28661 0.05308,-0.14862 0.127384,-0.30077 0.07784,-0.15215 0.173383,-0.29723 -0.13446,0 -0.222921,0.0212 -0.08492,0.0212 -0.145076,0.0602 V 146.495 h 0.764303 q -0.06369,0.0885 -0.127384,0.20169 -0.06015,0.10969 -0.106153,0.24061 -0.046,0.12738 -0.07431,0.27246 -0.02831,0.14508 -0.02831,0.29723 0,0.25831 0.046,0.46 0.046,0.19815 0.127383,0.3503 0.08138,0.15215 0.191076,0.26185 0.109692,0.10969 0.233537,0.18753 V 146.495 h 0.530766 v 2.1266 q 0,0.0248 -0.03538,0.0708 -0.03538,0.0425 -0.092,0.0991 -0.05308,0.0566 -0.127384,0.12385 -0.07077,0.0637 -0.145076,0.12738 -0.176922,0.14862 -0.399843,0.32554 -0.173384,-0.13446 -0.297229,-0.26538 -0.123846,-0.13093 -0.212307,-0.25477 z" />
    </g>
    <g
       style="font-style:normal;font-variant:normal;font-weight:normal;font-stretch:normal;font-size:3.52778px;line-height:1.25;font-family:Quarca;-inkscape-font-specification:Quarca;letter-spacing:0px;word-spacing:0px;fill:#dddddd;fill-opacity:1;stroke:none;stroke-width:0.264583"
       id="text5443-7-5-4-2-0"
       aria-label="TRACKS">
      <path
         id="path8082"
         style="font-style:normal;font-variant:normal;font-weight:normal;font-stretch:normal;font-size:2.82222px;font-family:Quarca;-inkscape-font-specification:Quarca;fill:#dddddd;fill-opacity:1;stroke-width:0.264583"
         d="m 46.495524,136.11463 v -0.1524 H 45.30737 v 0.1524 h 0.513644 v 1.85137 h 0.163688 v -1.85137 z" />
      <path
         id="path8084"
         style="font-style:normal;font-variant:normal;font-weight:normal;font-stretch:normal;font-size:2.82222px;font-family:Quarca;-inkscape-font-specification:Quarca;fill:#dddddd;fill-opacity:1;stroke-width:0.264583"
         d="m 46.716672,137.966 h 0.160866 v -0.80433 h 0.369711 l 0.561622,0.80433 h 0.189089 l -0.564444,-0.80433 h 0.03951 c 0.268111,0 0.397933,-0.127 0.397933,-0.381 v -0.43744 c 0,-0.254 -0.129822,-0.381 -0.397933,-0.381 h -0.756355 z m 0.160866,-1.85137 h 0.567267 c 0.180622,0 0.262466,0.0847 0.262466,0.27657 v 0.34149 c 0,0.19474 -0.08184,0.2794 -0.262466,0.2794 h -0.567267 z" />
      <path
         id="path8086"
         style="font-style:normal;font-variant:normal;font-weight:normal;font-stretch:normal;font-size:2.82222px;font-family:Quarca;-inkscape-font-specification:Quarca;fill:#dddddd;fill-opacity:1;stroke-width:0.264583"
         d="m 48.695754,135.96223 -0.618067,2.00377 h 0.172156 l 0.129822,-0.43462 h 0.807155 l 0.129822,0.43462 h 0.172155 l -0.615244,-2.00377 z m 0.09031,0.21449 0.355599,1.20226 H 48.42482 Z" />
      <path
         id="path8088"
         style="font-style:normal;font-variant:normal;font-weight:normal;font-stretch:normal;font-size:2.82222px;font-family:Quarca;-inkscape-font-specification:Quarca;fill:#dddddd;fill-opacity:1;stroke-width:0.264583"
         d="m 50.124106,137.8136 c -0.1778,0 -0.242711,-0.0847 -0.242711,-0.26246 v -1.17405 c 0,-0.1778 0.06491,-0.26246 0.242711,-0.26246 h 0.457199 c 0.1778,0 0.242711,0.0847 0.242711,0.26246 v 0.18345 h 0.160867 v -0.20885 c 0,-0.25964 -0.09878,-0.38946 -0.386644,-0.38946 h -0.491067 c -0.287866,0 -0.386644,0.12982 -0.386644,0.38946 v 1.22485 c 0,0.25964 0.09878,0.38946 0.386644,0.38946 h 0.491067 c 0.287866,0 0.386644,-0.12982 0.386644,-0.38946 v -0.21449 h -0.160867 v 0.18909 c 0,0.1778 -0.06491,0.26246 -0.242711,0.26246 z" />
      <path
         id="path8090"
         style="font-style:normal;font-variant:normal;font-weight:normal;font-stretch:normal;font-size:2.82222px;font-family:Quarca;-inkscape-font-specification:Quarca;fill:#dddddd;fill-opacity:1;stroke-width:0.264583"
         d="m 51.458134,137.966 v -0.95955 l 0.829733,0.95955 h 0.189088 l -0.866421,-1.00188 0.849488,-1.00189 h -0.1778 l -0.824088,0.95955 v -0.95955 h -0.160867 v 2.00377 z" />
      <path
         id="path8092"
         style="font-style:normal;font-variant:normal;font-weight:normal;font-stretch:normal;font-size:2.82222px;font-family:Quarca;-inkscape-font-specification:Quarca;fill:#dddddd;fill-opacity:1;stroke-width:0.264583"
         d="m 53.463233,137.13345 c 0.141111,0.0593 0.1778,0.10724 0.1778,0.24553 v 0.19473 c 0,0.16934 -0.07056,0.23989 -0.231422,0.23989 h -0.426155 c -0.160867,0 -0.234245,-0.0705 -0.234245,-0.23989 v -0.21166 h -0.160866 v 0.25118 c 0,0.23424 0.110066,0.35277 0.369711,0.35277 h 0.49671 c 0.234245,0 0.349956,-0.11853 0.349956,-0.35277 v -0.27658 c 0,-0.20038 -0.0762,-0.27093 -0.282222,-0.36125 l -0.578555,-0.24553 c -0.132645,-0.0564 -0.166511,-0.11007 -0.166511,-0.23424 v -0.12418 c 0,-0.19191 0.06209,-0.25682 0.24271,-0.25682 h 0.352778 c 0.160867,0 0.239889,0.0734 0.239889,0.24835 v 0.18909 h 0.163688 v -0.2286 c 0,-0.254 -0.121355,-0.36124 -0.380999,-0.36124 h -0.417689 c -0.248355,0 -0.361244,0.11006 -0.361244,0.36124 v 0.19756 c 0,0.2032 0.06773,0.27657 0.2794,0.36971 z" />
    </g>
    <g
       style="font-style:normal;font-variant:normal;font-weight:normal;font-stretch:normal;font-size:3.52777px;line-height:1.25;font-family:Quarca;-inkscape-font-specification:Quarca;letter-spacing:0px;word-spacing:0px;fill:#dddddd;fill-opacity:1;stroke:none;stroke-width:0.264583"
       id="text5443-7-5-4-2-4"
       aria-label="LENGTH">
      <path
         id="path8069"
         style="font-style:normal;font-variant:normal;font-weight:normal;font-stretch:normal;font-size:2.82223px;font-family:Quarca;-inkscape-font-specification:Quarca;fill:#dddddd;fill-opacity:1;stroke-width:0.264583"
         d="m 45.542851,105.14929 h -0.160868 v 2.00378 h 1.027292 l 0.02258,-0.1524 h -0.889002 z" />
      <path
         id="path8071"
         style="font-style:normal;font-variant:normal;font-weight:normal;font-stretch:normal;font-size:2.82223px;font-family:Quarca;-inkscape-font-specification:Quarca;fill:#dddddd;fill-opacity:1;stroke-width:0.264583"
         d="m 46.810649,105.30169 h 0.905936 l 0.02258,-0.1524 h -1.089381 v 2.00378 h 1.072447 l 0.02258,-0.1524 h -0.934158 v -0.61243 h 0.75918 l 0.02258,-0.14957 h -0.781758 z" />
      <path
         id="path8073"
         style="font-style:normal;font-variant:normal;font-weight:normal;font-stretch:normal;font-size:2.82223px;font-family:Quarca;-inkscape-font-specification:Quarca;fill:#dddddd;fill-opacity:1;stroke-width:0.264583"
         d="m 48.166643,107.15307 v -1.72438 c 0.04233,0.0931 0.07902,0.18626 0.146756,0.30197 l 0.824091,1.42241 h 0.163689 v -2.00378 H 49.13749 v 1.72156 c -0.03104,-0.0734 -0.05927,-0.14394 -0.112889,-0.23707 l -0.857958,-1.48449 h -0.160867 v 2.00378 z" />
      <path
         id="path8075"
         style="font-style:normal;font-variant:normal;font-weight:normal;font-stretch:normal;font-size:2.82223px;font-family:Quarca;-inkscape-font-specification:Quarca;fill:#dddddd;fill-opacity:1;stroke-width:0.264583"
         d="m 50.288254,106.33744 h 0.482601 v 0.42052 c 0,0.16369 -0.06773,0.24271 -0.248356,0.24271 h -0.445912 c -0.166512,0 -0.245534,-0.0762 -0.245534,-0.25682 v -1.16559 c 0,-0.19191 0.06491,-0.27657 0.231422,-0.27657 h 0.482602 c 0.166511,0 0.239889,0.0762 0.239889,0.25682 v 0.18062 h 0.160867 v -0.2286 c 0,-0.25118 -0.124178,-0.36124 -0.364067,-0.36124 h -0.572913 c -0.225778,0 -0.338668,0.127 -0.338668,0.381 v 1.26436 c 0,0.254 0.141112,0.35842 0.36689,0.35842 h 0.524935 c 0.279401,0 0.372534,-0.13829 0.372534,-0.381 v -0.58703 h -0.623712 z" />
      <path
         id="path8077"
         style="font-style:normal;font-variant:normal;font-weight:normal;font-stretch:normal;font-size:2.82223px;font-family:Quarca;-inkscape-font-specification:Quarca;fill:#dddddd;fill-opacity:1;stroke-width:0.264583"
         d="m 52.310117,105.30169 v -0.1524 h -1.188159 v 0.1524 h 0.513646 v 1.85138 h 0.16369 v -1.85138 z" />
      <path
         id="path8079"
         style="font-style:normal;font-variant:normal;font-weight:normal;font-stretch:normal;font-size:2.82223px;font-family:Quarca;-inkscape-font-specification:Quarca;fill:#dddddd;fill-opacity:1;stroke-width:0.264583"
         d="m 52.692132,107.15307 v -0.75918 h 0.928514 v 0.75918 h 0.160867 v -2.00378 h -0.160867 v 1.0922 h -0.928514 v -1.0922 h -0.160867 v 2.00378 z" />
    </g>
    <g
       style="font-style:normal;font-variant:normal;font-weight:normal;font-stretch:normal;font-size:3.52777px;line-height:1.25;font-family:Quarca;-inkscape-font-specification:Quarca;letter-spacing:0px;word-spacing:0px;fill:#dddddd;fill-opacity:1;stroke:none;stroke-width:0.264583"
       id="text5443-7-5-4-2-0-8"
       aria-label="ENABLED">
      <path
         id="path8054"
         style="font-style:normal;font-variant:normal;font-weight:normal;font-stretch:normal;font-size:2.82223px;font-family:Quarca;-inkscape-font-specification:Quarca;fill:#dddddd;fill-opacity:1;stroke-width:0.264583"
         d="m 51.165245,124.8611 h 0.905936 l 0.02258,-0.1524 h -1.089381 v 2.00379 h 1.072447 l 0.02258,-0.1524 h -0.934158 v -0.61243 h 0.75918 l 0.02258,-0.14958 h -0.781758 z" />
      <path
         id="path8056"
         style="font-style:normal;font-variant:normal;font-weight:normal;font-stretch:normal;font-size:2.82223px;font-family:Quarca;-inkscape-font-specification:Quarca;fill:#dddddd;fill-opacity:1;stroke-width:0.264583"
         d="m 52.521238,126.71249 v -1.72439 c 0.04233,0.0931 0.07902,0.18627 0.146756,0.30198 l 0.824092,1.42241 h 0.163689 v -2.00379 h -0.163689 v 1.72156 c -0.03104,-0.0734 -0.05927,-0.14393 -0.11289,-0.23706 l -0.857958,-1.4845 h -0.160867 v 2.00379 z" />
      <path
         id="path8058"
         style="font-style:normal;font-variant:normal;font-weight:normal;font-stretch:normal;font-size:2.82223px;font-family:Quarca;-inkscape-font-specification:Quarca;fill:#dddddd;fill-opacity:1;stroke-width:0.264583"
         d="m 54.51585,124.7087 -0.618069,2.00379 h 0.172156 l 0.129823,-0.43463 h 0.807158 l 0.129822,0.43463 h 0.172156 L 54.69365,124.7087 Z m 0.09031,0.21449 0.355601,1.20227 h -0.716847 z" />
      <path
         id="path8060"
         style="font-style:normal;font-variant:normal;font-weight:normal;font-stretch:normal;font-size:2.82223px;font-family:Quarca;-inkscape-font-specification:Quarca;fill:#dddddd;fill-opacity:1;stroke-width:0.264583"
         d="m 55.551917,126.71249 h 0.78458 c 0.301978,0 0.437445,-0.12983 0.437445,-0.38947 v -0.27376 c 0,-0.27375 -0.146756,-0.37253 -0.327378,-0.38664 0.1524,-0.0311 0.222956,-0.13265 0.222956,-0.31892 v -0.24553 c 0,-0.25964 -0.149578,-0.38947 -0.465668,-0.38947 h -0.651935 z m 0.160867,-0.97085 h 0.536224 c 0.251178,0 0.364067,0.096 0.364067,0.31609 v 0.23424 c 0,0.18063 -0.09313,0.26812 -0.301978,0.26812 h -0.598313 z m 0,-0.88054 h 0.454379 c 0.234245,0 0.34149,0.079 0.34149,0.27376 v 0.19756 c 0,0.16086 -0.08749,0.25964 -0.285046,0.25964 h -0.510823 z" />
      <path
         id="path8062"
         style="font-style:normal;font-variant:normal;font-weight:normal;font-stretch:normal;font-size:2.82223px;font-family:Quarca;-inkscape-font-specification:Quarca;fill:#dddddd;fill-opacity:1;stroke-width:0.264583"
         d="m 57.250679,124.7087 h -0.160867 v 2.00379 h 1.027292 l 0.02258,-0.1524 h -0.889003 z" />
      <path
         id="path8064"
         style="font-style:normal;font-variant:normal;font-weight:normal;font-stretch:normal;font-size:2.82223px;font-family:Quarca;-inkscape-font-specification:Quarca;fill:#dddddd;fill-opacity:1;stroke-width:0.264583"
         d="m 58.518477,124.8611 h 0.905936 l 0.02258,-0.1524 H 58.35761 v 2.00379 h 1.072448 l 0.02258,-0.1524 h -0.934159 v -0.61243 h 0.75918 l 0.02258,-0.14958 h -0.781758 z" />
      <path
         id="path8066"
         style="font-style:normal;font-variant:normal;font-weight:normal;font-stretch:normal;font-size:2.82223px;font-family:Quarca;-inkscape-font-specification:Quarca;fill:#dddddd;fill-opacity:1;stroke-width:0.264583"
         d="m 59.713604,126.71249 h 0.78458 c 0.352778,0 0.496712,-0.15523 0.496712,-0.47414 v -1.05551 c 0,-0.31891 -0.143934,-0.47414 -0.496712,-0.47414 h -0.78458 z m 0.776113,-0.1524 h -0.615246 v -1.69899 h 0.615246 c 0.245534,0 0.344312,0.11007 0.344312,0.3556 v 0.98778 c 0,0.24554 -0.09878,0.35561 -0.344312,0.35561 z" />
    </g>
    <path
       id="rect6948-0-8-7"
       style="fill:#101015;fill-opacity:1;stroke:#999999;stroke-width:0.132306;stroke-miterlimit:4;stroke-dasharray:none;stroke-opacity:1"
       d="m 52.674965,67.388978 h 9.128111 v 5.15936 h -9.128111 z" />
    <path
       d="m 52.674964,88.577679 h 9.127141 v 5.159363 h -9.127141 z"
       style="fill:#101015;fill-opacity:1;stroke:#999999;stroke-width:0.132304;stroke-miterlimit:4;stroke-dasharray:none;stroke-opacity:1"
       id="rect6948-0-8-7-9" />
    <path
       d="m 52.674964,109.73784 h 9.127141 v 5.15936 h -9.127141 z"
       style="fill:#101015;fill-opacity:1;stroke:#999999;stroke-width:0.132304;stroke-miterlimit:4;stroke-dasharray:none;stroke-opacity:1"
       id="rect6948-0-8-7-2" />
    <g
       style="font-style:normal;font-variant:normal;font-weight:bold;font-stretch:normal;font-size:3.52778px;line-height:1.25;font-family:Arial;-inkscape-font-specification:'Arial Bold';text-align:center;letter-spacing:0px;word-spacing:0px;text-anchor:middle;white-space:pre;shape-inside:url(#rect8042);fill:#000000;fill-opacity:1;stroke:none"
       id="text8040" />
    <g
       style="font-style:normal;font-variant:normal;font-weight:bold;font-stretch:normal;font-size:3.52778px;line-height:1.25;font-family:Arial;-inkscape-font-specification:'Arial Bold';text-align:center;letter-spacing:0px;word-spacing:0px;text-anchor:middle;white-space:pre;shape-inside:url(#rect8048);fill:#000000;fill-opacity:1;stroke:none"
       id="text8046" />
  </g>
</svg>
