<?xml version="1.0" encoding="UTF-8" standalone="no"?>
<svg
   xmlns:dc="http://purl.org/dc/elements/1.1/"
   xmlns:cc="http://creativecommons.org/ns#"
   xmlns:rdf="http://www.w3.org/1999/02/22-rdf-syntax-ns#"
   xmlns:svg="http://www.w3.org/2000/svg"
   xmlns="http://www.w3.org/2000/svg"
   xmlns:xlink="http://www.w3.org/1999/xlink"
   xmlns:sodipodi="http://sodipodi.sourceforge.net/DTD/sodipodi-0.dtd"
   xmlns:inkscape="http://www.inkscape.org/namespaces/inkscape"
   sodipodi:docname="QARWarpedSpaceExpander.svg"
   inkscape:version="1.0 (4035a4fb49, 2020-05-01)"
   id="svg11003"
   version="1.1"
   viewBox="0 0 27.78125 100.54167"
   height="380"
   width="105">
  <defs
     id="defs10997">
    <linearGradient
       id="linearGradient4047"
       inkscape:collect="always">
      <stop
         id="stop3387"
         offset="0"
         style="stop-color:#202022;stop-opacity:1;" />
      <stop
         id="stop3388"
         offset=".3"
         style="stop-color:#202025;stop-opacity:1;" />
      <stop
         id="stop3389"
         offset="1"
         style="stop-color:#08003e;stop-opacity:1;" />
    </linearGradient>
    <linearGradient
       gradientTransform="matrix(0.5824096,0,0,1,14.70738,0)"
       gradientUnits="userSpaceOnUse"
       y2="50.462322"
       x2="35.219627"
       y1="158.3329"
       x1="35.418064"
       id="linearGradient4049"
       xlink:href="#linearGradient4047"
       inkscape:collect="always" />
  </defs>
  <sodipodi:namedview
     inkscape:document-rotation="0"
     showguides="false"
     units="px"
     inkscape:window-maximized="1"
     inkscape:window-y="-6"
     inkscape:window-x="-6"
     inkscape:window-height="1058"
     inkscape:window-width="1920"
     fit-margin-bottom="0"
     fit-margin-right="0"
     fit-margin-left="0"
     fit-margin-top="0"
     showgrid="false"
     inkscape:current-layer="layer1"
     inkscape:document-units="px"
     inkscape:cy="195.87134"
     inkscape:cx="-33.850675"
     inkscape:zoom="2"
     inkscape:pageshadow="2"
     inkscape:pageopacity="0.0"
     borderopacity="1.0"
     bordercolor="#666666"
     pagecolor="#ffffff"
     id="base" />
  <metadata
     id="metadata11000">
    <rdf:RDF>
      <cc:Work
         rdf:about="">
        <dc:format>image/svg+xml</dc:format>
        <dc:type
           rdf:resource="http://purl.org/dc/dcmitype/StillImage" />
        <dc:title></dc:title>
      </cc:Work>
    </rdf:RDF>
  </metadata>
  <g
     transform="translate(-35.146312,-50.389004)"
     id="layer1"
     inkscape:groupmode="layer"
     inkscape:label="Layer 1">
    <g
       transform="matrix(0.50000001,0,0,1.0014499,17.536498,-0.14648283)"
       id="g1644">
      <path
         inkscape:connector-curvature="0"
         id="path33493"
         d="m 35.219628,50.462323 h 55.5625 V 150.85843 h -55.5625 z m 0,0"
         style="fill:url(#linearGradient4049);fill-opacity:1;fill-rule:nonzero;stroke:none;stroke-width:0.32694858"
         inkscape:export-filename="/home/vortico/pics/tmp/LFOs.png"
         inkscape:export-xdpi="150.22649"
         inkscape:export-ydpi="150.22649" />
    </g>
    <g
       id="text5097"
       style="font-style:normal;font-weight:normal;font-size:3.52777767px;line-height:1.25;font-family:sans-serif;letter-spacing:0px;word-spacing:0px;fill:#ffffff;fill-opacity:1;stroke:none;stroke-width:0.26458332" />
    <g
       id="text373"
       style="font-style:normal;font-variant:normal;font-weight:bold;font-stretch:normal;font-size:3.52777767px;line-height:1.25;font-family:Consolas;-inkscape-font-specification:'Consolas Bold';text-align:center;letter-spacing:0px;word-spacing:0px;text-anchor:middle;fill:#ffffff;fill-opacity:1;stroke:none;stroke-width:0.26458332" />
    <g
       id="flowRoot250"
       style="font-style:normal;font-variant:normal;font-weight:bold;font-stretch:normal;font-size:13.33333302px;line-height:1.25;font-family:Consolas;-inkscape-font-specification:'Consolas Bold';text-align:center;letter-spacing:0px;word-spacing:0px;text-anchor:middle;fill:#ffffff;fill-opacity:1;stroke:none" />
    <g
       id="text308"
       style="font-style:normal;font-variant:normal;font-weight:bold;font-stretch:normal;font-size:3.52777767px;line-height:1.25;font-family:Consolas;-inkscape-font-specification:'Consolas Bold';text-align:center;letter-spacing:0px;word-spacing:0px;text-anchor:middle;fill:#ffffff;fill-opacity:1;stroke:none;stroke-width:0.26458332"
       aria-label="=+">
      <path
         inkscape:connector-curvature="0"
         id="path4330"
         style="stroke-width:0.26458332"
         d="m 156.8605,47.159573 v -0.334174 h 1.48139 v 0.334174 z m 0,0.678684 v -0.334174 h 1.48139 v 0.334174 z" />
      <path
         inkscape:connector-curvature="0"
         id="path4332"
         style="stroke-width:0.26458332"
         d="m 159.73887,47.507528 v 0.670071 h -0.38757 v -0.670071 h -0.64251 v -0.346232 h 0.64251 V 46.49467 h 0.38757 v 0.666626 h 0.64251 v 0.346232 z" />
    </g>
    <g
       id="flowRoot53665"
       style="font-style:normal;font-variant:normal;font-weight:bold;font-stretch:normal;font-size:13.33333302px;line-height:1.25;font-family:Consolas;-inkscape-font-specification:'Consolas Bold';text-align:center;letter-spacing:0px;word-spacing:0px;text-anchor:middle;fill:#ffffff;fill-opacity:1;stroke:none" />
    <g
       id="text53994"
       style="font-style:normal;font-variant:normal;font-weight:bold;font-stretch:normal;font-size:3.52777767px;line-height:1.25;font-family:Consolas;-inkscape-font-specification:'Consolas Bold';text-align:center;letter-spacing:0px;word-spacing:0px;text-anchor:middle;fill:#ffffff;fill-opacity:1;stroke:none;stroke-width:0.26458332" />
    <g
       style="font-style:normal;font-variant:normal;font-weight:bold;font-stretch:normal;font-size:3.52778px;line-height:1.25;font-family:Homenaje;-inkscape-font-specification:'Homenaje Bold';text-align:start;letter-spacing:0px;word-spacing:0px;text-anchor:start;fill:#ffffff;fill-opacity:1;stroke:none;stroke-width:0.264583"
       id="text3885"
       aria-label="QAR
WARPED SPACE">
      <path
         id="path10130"
         style="font-style:normal;font-variant:normal;font-weight:bold;font-stretch:normal;font-size:3.88056px;font-family:Homenaje;-inkscape-font-specification:'Homenaje Bold';text-align:center;text-anchor:middle;stroke-width:0.264583"
         d="m 47.988306,53.407721 q 0,0.613128 -0.55492,0.686859 v 0.07761 q 0,0.166864 0.04269,0.221192 0.04657,0.05821 0.147461,0.05821 h 0.182386 v 0.244475 h -0.228953 q -0.213431,0 -0.337608,-0.128059 Q 47.11518,54.43995 47.11518,54.222639 V 54.09458 q -0.55104,-0.07373 -0.55104,-0.686859 v -1.381479 q 0,-0.333729 0.174625,-0.516115 0.178506,-0.182386 0.535518,-0.182386 0.360892,0 0.535517,0.182386 0.178506,0.182386 0.178506,0.516115 z m -1.082677,0.06597 q 0,0.182387 0.100895,0.279401 0.100895,0.09701 0.267759,0.09701 0.166864,0 0.267758,-0.09701 0.104775,-0.09701 0.104775,-0.279401 v -1.513418 q 0,-0.182386 -0.104775,-0.2794 -0.100894,-0.09701 -0.267758,-0.09701 -0.166864,0 -0.267759,0.09701 -0.100895,0.09701 -0.100895,0.2794 z" />
      <path
         id="path10132"
         style="font-style:normal;font-variant:normal;font-weight:bold;font-stretch:normal;font-size:3.88056px;font-family:Homenaje;-inkscape-font-specification:'Homenaje Bold';text-align:center;text-anchor:middle;stroke-width:0.264583"
         d="m 48.846394,51.354905 h 0.516115 l 0.589845,2.716392 h -0.318206 l -0.190147,-0.799396 h -0.706262 l -0.174625,0.799396 h -0.329848 z m 0.539398,1.653118 -0.2794,-1.397001 h -0.02716 l -0.283281,1.397001 z" />
      <path
         id="path10134"
         style="font-style:normal;font-variant:normal;font-weight:bold;font-stretch:normal;font-size:3.88056px;font-family:Homenaje;-inkscape-font-specification:'Homenaje Bold';text-align:center;text-anchor:middle;stroke-width:0.264583"
         d="m 50.652492,51.611022 v 1.012826 h 0.27552 q 0.221192,0 0.341489,-0.151342 0.124178,-0.155222 0.124178,-0.395817 0,-0.465667 -0.465667,-0.465667 z m -0.0078,1.268943 v 1.191332 h -0.333728 v -2.716392 h 0.717903 q 0.698501,0 0.698501,0.721784 0,0.271639 -0.104775,0.473428 -0.104775,0.201789 -0.298803,0.279401 l 0.539398,1.241779 h -0.333729 l -0.527756,-1.191332 z" />
      <path
         id="path10136"
         style="font-style:normal;font-variant:normal;font-weight:bold;font-stretch:normal;font-size:3.88056px;font-family:Homenaje;-inkscape-font-specification:'Homenaje Bold';text-align:center;text-anchor:middle;stroke-width:0.264583"
         d="m 40.110921,56.911867 h 0.364772 l 0.364773,1.680282 0.457906,-2.386544 h 0.337609 l -0.562682,2.716392 h -0.457906 l -0.318206,-1.625955 -0.314325,1.625955 h -0.457906 l -0.574323,-2.716392 h 0.337609 l 0.461787,2.386544 z" />
      <path
         id="path10138"
         style="font-style:normal;font-variant:normal;font-weight:bold;font-stretch:normal;font-size:3.88056px;font-family:Homenaje;-inkscape-font-specification:'Homenaje Bold';text-align:center;text-anchor:middle;stroke-width:0.264583"
         d="m 42.271422,56.205605 h 0.516115 l 0.589845,2.716392 h -0.318206 l -0.190148,-0.799396 h -0.706261 l -0.174626,0.799396 h -0.329847 z m 0.539398,1.653118 -0.2794,-1.397001 h -0.02716 l -0.283281,1.397001 z" />
      <path
         id="path10140"
         style="font-style:normal;font-variant:normal;font-weight:bold;font-stretch:normal;font-size:3.88056px;font-family:Homenaje;-inkscape-font-specification:'Homenaje Bold';text-align:center;text-anchor:middle;stroke-width:0.264583"
         d="m 44.07752,56.461722 v 1.012826 h 0.27552 q 0.221192,0 0.341489,-0.151342 0.124178,-0.155222 0.124178,-0.395817 0,-0.465667 -0.465667,-0.465667 z m -0.0078,1.268943 v 1.191332 h -0.333728 v -2.716392 h 0.717903 q 0.698501,0 0.698501,0.721784 0,0.271639 -0.104775,0.473428 -0.104775,0.201789 -0.298803,0.2794 l 0.539398,1.24178 H 44.954526 L 44.42677,57.730665 Z" />
      <path
         id="path10142"
         style="font-style:normal;font-variant:normal;font-weight:bold;font-stretch:normal;font-size:3.88056px;font-family:Homenaje;-inkscape-font-specification:'Homenaje Bold';text-align:center;text-anchor:middle;stroke-width:0.264583"
         d="m 45.987483,56.461722 v 1.008945 h 0.248355 q 0.221192,0 0.34149,-0.151342 0.124178,-0.151341 0.124178,-0.391936 0,-0.465667 -0.465668,-0.465667 z m 1.055512,0.465667 q 0,0.376414 -0.20567,0.589845 -0.201789,0.20955 -0.578203,0.20955 h -0.271639 v 1.195213 h -0.34149 v -2.716392 h 0.686859 q 0.710143,0 0.710143,0.721784 z" />
      <path
         id="path10144"
         style="font-style:normal;font-variant:normal;font-weight:bold;font-stretch:normal;font-size:3.88056px;font-family:Homenaje;-inkscape-font-specification:'Homenaje Bold';text-align:center;text-anchor:middle;stroke-width:0.264583"
         d="m 47.404372,58.921997 v -2.716392 h 1.183571 v 0.263878 h -0.842081 v 0.869245 h 0.682978 v 0.263878 h -0.682978 v 1.055513 h 0.880887 v 0.263878 z" />
      <path
         id="path10146"
         style="font-style:normal;font-variant:normal;font-weight:bold;font-stretch:normal;font-size:3.88056px;font-family:Homenaje;-inkscape-font-specification:'Homenaje Bold';text-align:center;text-anchor:middle;stroke-width:0.264583"
         d="m 49.405711,58.658119 h 0.329847 q 0.178506,0 0.287162,-0.100895 0.112536,-0.104775 0.112536,-0.27552 v -1.435807 q 0,-0.170745 -0.112536,-0.271639 -0.108656,-0.104775 -0.287162,-0.104775 h -0.329847 z m -0.34537,0.263878 v -2.716392 h 0.675217 q 0.353131,0 0.547159,0.178505 0.194028,0.178506 0.194028,0.523876 v 1.311629 q 0,0.34537 -0.194028,0.523876 -0.194028,0.174625 -0.547159,0.178506 z" />
      <path
         id="path10148"
         style="font-style:normal;font-variant:normal;font-weight:bold;font-stretch:normal;font-size:3.88056px;font-family:Homenaje;-inkscape-font-specification:'Homenaje Bold';text-align:center;text-anchor:middle;stroke-width:0.264583"
         d="m 51.888723,58.66588 q 0.221192,0 0.318206,-0.131939 0.100895,-0.131939 0.100895,-0.306565 0,-0.174625 -0.06597,-0.294922 -0.06209,-0.124178 -0.159103,-0.194028 -0.09701,-0.07373 -0.20955,-0.159103 -0.112536,-0.08537 -0.20955,-0.162984 -0.09701,-0.08149 -0.162984,-0.217311 -0.06209,-0.13582 -0.06209,-0.310445 0,-0.310445 0.186266,-0.496711 0.186267,-0.186267 0.516115,-0.186267 h 0.314325 v 0.256117 h -0.298803 q -0.186267,0 -0.283281,0.120297 -0.09701,0.120297 -0.09701,0.259997 0,0.139701 0.06209,0.240595 0.06597,0.100895 0.162984,0.166864 0.09701,0.06597 0.20955,0.155223 0.116417,0.08925 0.213431,0.182386 0.09701,0.08925 0.159103,0.244475 0.06597,0.155223 0.06597,0.353131 0,0.364773 -0.20955,0.55104 -0.20567,0.186267 -0.566562,0.186267 H 51.465742 V 58.66588 Z" />
      <path
         id="path10150"
         style="font-style:normal;font-variant:normal;font-weight:bold;font-stretch:normal;font-size:3.88056px;font-family:Homenaje;-inkscape-font-specification:'Homenaje Bold';text-align:center;text-anchor:middle;stroke-width:0.264583"
         d="m 53.369642,56.461722 v 1.008945 h 0.248356 q 0.221192,0 0.341489,-0.151342 0.124178,-0.151341 0.124178,-0.391936 0,-0.465667 -0.465667,-0.465667 z m 1.055512,0.465667 q 0,0.376414 -0.20567,0.589845 -0.201789,0.20955 -0.578203,0.20955 h -0.271639 v 1.195213 h -0.341489 v -2.716392 h 0.686859 q 0.710142,0 0.710142,0.721784 z" />
      <path
         id="path10152"
         style="font-style:normal;font-variant:normal;font-weight:bold;font-stretch:normal;font-size:3.88056px;font-family:Homenaje;-inkscape-font-specification:'Homenaje Bold';text-align:center;text-anchor:middle;stroke-width:0.264583"
         d="m 55.19399,56.205605 h 0.516115 l 0.589845,2.716392 h -0.318206 l -0.190147,-0.799396 h -0.706262 l -0.174626,0.799396 h -0.329847 z m 0.539398,1.653118 -0.2794,-1.397001 h -0.02716 l -0.283281,1.397001 z" />
      <path
         id="path10154"
         style="font-style:normal;font-variant:normal;font-weight:bold;font-stretch:normal;font-size:3.88056px;font-family:Homenaje;-inkscape-font-specification:'Homenaje Bold';text-align:center;text-anchor:middle;stroke-width:0.264583"
         d="m 57.803364,58.66588 v 0.256117 h -0.519995 q -0.353131,0 -0.547159,-0.178506 -0.194028,-0.178506 -0.194028,-0.523876 v -1.311629 q 0,-0.34537 0.194028,-0.523876 0.194028,-0.178505 0.547159,-0.178505 h 0.519995 v 0.256117 h -0.519995 q -0.178506,0 -0.291042,0.104775 -0.108656,0.100894 -0.108656,0.271639 v 1.451329 q 0,0.170745 0.108656,0.27552 0.112536,0.100895 0.291042,0.100895 z" />
      <path
         id="path10156"
         style="font-style:normal;font-variant:normal;font-weight:bold;font-stretch:normal;font-size:3.88056px;font-family:Homenaje;-inkscape-font-specification:'Homenaje Bold';text-align:center;text-anchor:middle;stroke-width:0.264583"
         d="m 58.166864,58.921997 v -2.716392 h 1.18357 v 0.263878 h -0.842081 v 0.869245 h 0.682978 v 0.263878 h -0.682978 v 1.055513 h 0.880887 v 0.263878 z" />
    </g>
    <g
       style="font-style:normal;font-variant:normal;font-weight:bold;font-stretch:normal;font-size:13.3333px;line-height:1.25;font-family:Consolas;-inkscape-font-specification:'Consolas Bold';text-align:center;letter-spacing:0px;word-spacing:0px;text-anchor:middle;fill:#000000;fill-opacity:1;stroke:none"
       id="flowRoot1015"
       transform="matrix(0.26458333,0,0,0.26458333,35.146312,50.389004)" />
    <g
       style="font-style:normal;font-variant:normal;font-weight:bold;font-stretch:normal;font-size:3.52778px;line-height:1.25;font-family:Homenaje;-inkscape-font-specification:'Homenaje Bold';letter-spacing:0px;word-spacing:0px;fill:#ffffff;fill-opacity:1;stroke:none;stroke-width:0.264583"
       id="text5443-7-5"
       aria-label="WARP">
      <path
         id="path10120"
         style="font-style:normal;font-variant:normal;font-weight:bold;font-stretch:normal;font-size:2.82222px;font-family:Homenaje;-inkscape-font-specification:'Homenaje Bold';stroke-width:0.264583"
         d="m 46.838072,63.479176 h 0.265289 l 0.265288,1.222021 0.333022,-1.735665 h 0.245533 l -0.409221,1.975554 h -0.333022 l -0.231422,-1.18251 -0.2286,1.18251 h -0.333022 l -0.417689,-1.975554 h 0.245533 l 0.335845,1.735665 z" />
      <path
         id="path10122"
         style="font-style:normal;font-variant:normal;font-weight:bold;font-stretch:normal;font-size:2.82222px;font-family:Homenaje;-inkscape-font-specification:'Homenaje Bold';stroke-width:0.264583"
         d="m 48.409343,62.965532 h 0.375355 l 0.428978,1.975554 h -0.231422 l -0.138289,-0.581378 h -0.513644 l -0.127,0.581378 h -0.239889 z m 0.392289,1.202266 -0.2032,-1.016 h -0.01976 l -0.206022,1.016 z" />
      <path
         id="path10124"
         style="font-style:normal;font-variant:normal;font-weight:bold;font-stretch:normal;font-size:2.82222px;font-family:Homenaje;-inkscape-font-specification:'Homenaje Bold';stroke-width:0.264583"
         d="m 49.722866,63.151798 v 0.7366 h 0.200378 q 0.160866,0 0.248355,-0.110067 0.09031,-0.112889 0.09031,-0.287866 0,-0.338667 -0.338666,-0.338667 z m -0.0056,0.922866 v 0.866422 h -0.242711 v -1.975554 h 0.52211 q 0.508,0 0.508,0.524933 0,0.197555 -0.0762,0.344311 -0.0762,0.146755 -0.217311,0.203199 l 0.392289,0.903111 h -0.242711 l -0.383822,-0.866422 z" />
      <path
         id="path10126"
         style="font-style:normal;font-variant:normal;font-weight:bold;font-stretch:normal;font-size:2.82222px;font-family:Homenaje;-inkscape-font-specification:'Homenaje Bold';stroke-width:0.264583"
         d="m 51.111927,63.151798 v 0.733778 h 0.180622 q 0.160867,0 0.248356,-0.110067 0.09031,-0.110067 0.09031,-0.285044 0,-0.338667 -0.338667,-0.338667 z m 0.767644,0.338667 q 0,0.273755 -0.149578,0.428977 -0.146755,0.1524 -0.42051,0.1524 h -0.197556 v 0.869244 h -0.248355 v -1.975554 h 0.499533 q 0.516466,0 0.516466,0.524933 z" />
    </g>
    <g
       style="font-style:normal;font-variant:normal;font-weight:bold;font-stretch:normal;font-size:13.3333px;line-height:1.25;font-family:Arial;-inkscape-font-specification:'Arial Bold';text-align:center;letter-spacing:0px;word-spacing:0px;text-anchor:middle;fill:#000000;fill-opacity:1;stroke:none"
       id="flowRoot1633" />
    <g
       style="font-style:normal;font-variant:normal;font-weight:bold;font-stretch:normal;font-size:3.52778px;line-height:1.25;font-family:Homenaje;-inkscape-font-specification:'Homenaje Bold';letter-spacing:0px;word-spacing:0px;fill:#ffffff;fill-opacity:1;stroke:none;stroke-width:0.264583"
       id="text5443-7-5-4-2"
       aria-label="POSITION">
      <path
         id="path10102"
         style="font-style:normal;font-variant:normal;font-weight:bold;font-stretch:normal;font-size:2.82222px;font-family:Homenaje;-inkscape-font-specification:'Homenaje Bold';stroke-width:0.264583"
         d="m 44.919668,84.461697 v 0.733777 h 0.180622 q 0.160866,0 0.248355,-0.110067 0.09031,-0.110066 0.09031,-0.285044 0,-0.338666 -0.338666,-0.338666 z m 0.767643,0.338666 q 0,0.273755 -0.149577,0.428978 -0.146756,0.152399 -0.420511,0.152399 h -0.197555 v 0.869244 H 44.671312 V 84.27543 h 0.499533 q 0.516466,0 0.516466,0.524933 z" />
      <path
         id="path10104"
         style="font-style:normal;font-variant:normal;font-weight:bold;font-stretch:normal;font-size:2.82222px;font-family:Homenaje;-inkscape-font-specification:'Homenaje Bold';stroke-width:0.264583"
         d="m 46.946374,85.76274 q 0,0.239889 -0.138288,0.375355 -0.138289,0.132645 -0.403578,0.132645 -0.262466,0 -0.400755,-0.132645 -0.138289,-0.135466 -0.138289,-0.375355 v -0.999066 q 0,-0.239889 0.138289,-0.372533 0.138289,-0.135466 0.400755,-0.135466 0.265289,0 0.403578,0.135466 0.138288,0.132644 0.138288,0.372533 z m -0.832555,0.04798 q 0,0.129822 0.08185,0.2032 0.08467,0.07055 0.208844,0.07055 0.124178,0 0.208844,-0.07055 0.08467,-0.07338 0.08467,-0.2032 v -1.095022 q 0,-0.129822 -0.08467,-0.200377 -0.08467,-0.07338 -0.208844,-0.07338 -0.124178,0 -0.208844,0.07338 -0.08185,0.07055 -0.08185,0.200377 z" />
      <path
         id="path10106"
         style="font-style:normal;font-variant:normal;font-weight:bold;font-stretch:normal;font-size:2.82222px;font-family:Homenaje;-inkscape-font-specification:'Homenaje Bold';stroke-width:0.264583"
         d="m 47.546802,86.064718 q 0.160866,0 0.231422,-0.09596 0.07338,-0.09596 0.07338,-0.222955 0,-0.127 -0.04798,-0.214489 -0.04516,-0.09031 -0.115711,-0.141111 -0.07056,-0.05362 -0.1524,-0.115711 -0.08185,-0.06209 -0.1524,-0.118533 -0.07056,-0.05927 -0.118533,-0.158045 -0.04516,-0.09878 -0.04516,-0.225777 0,-0.225778 0.135467,-0.361244 0.135466,-0.135467 0.375355,-0.135467 h 0.2286 v 0.186267 h -0.217311 q -0.135467,0 -0.206022,0.08749 -0.07056,0.08749 -0.07056,0.189089 0,0.1016 0.04516,0.174978 0.04798,0.07338 0.118533,0.121355 0.07056,0.04798 0.1524,0.112889 0.08467,0.06491 0.155222,0.132644 0.07056,0.06491 0.115711,0.1778 0.04798,0.112889 0.04798,0.256822 0,0.265289 -0.1524,0.400756 -0.149578,0.135466 -0.412044,0.135466 H 47.23918 v -0.186266 z" />
      <path
         id="path10108"
         style="font-style:normal;font-variant:normal;font-weight:bold;font-stretch:normal;font-size:2.82222px;font-family:Homenaje;-inkscape-font-specification:'Homenaje Bold';stroke-width:0.264583"
         d="M 48.375476,86.250984 V 84.27543 h 0.248356 v 1.975554 z" />
      <path
         id="path10110"
         style="font-style:normal;font-variant:normal;font-weight:bold;font-stretch:normal;font-size:2.82222px;font-family:Homenaje;-inkscape-font-specification:'Homenaje Bold';stroke-width:0.264583"
         d="M 49.282467,86.250984 V 84.461697 H 48.887356 V 84.27543 h 1.038577 v 0.186267 h -0.395111 v 1.789287 z" />
      <path
         id="path10112"
         style="font-style:normal;font-variant:normal;font-weight:bold;font-stretch:normal;font-size:2.82222px;font-family:Homenaje;-inkscape-font-specification:'Homenaje Bold';stroke-width:0.264583"
         d="M 50.188973,86.250984 V 84.27543 h 0.248355 v 1.975554 z" />
      <path
         id="path10114"
         style="font-style:normal;font-variant:normal;font-weight:bold;font-stretch:normal;font-size:2.82222px;font-family:Homenaje;-inkscape-font-specification:'Homenaje Bold';stroke-width:0.264583"
         d="m 51.846674,85.76274 q 0,0.239889 -0.138288,0.375355 -0.138289,0.132645 -0.403578,0.132645 -0.262466,0 -0.400755,-0.132645 -0.138289,-0.135466 -0.138289,-0.375355 v -0.999066 q 0,-0.239889 0.138289,-0.372533 0.138289,-0.135466 0.400755,-0.135466 0.265289,0 0.403578,0.135466 0.138288,0.132644 0.138288,0.372533 z m -0.832554,0.04798 q 0,0.129822 0.08184,0.2032 0.08467,0.07055 0.208844,0.07055 0.124178,0 0.208844,-0.07055 0.08467,-0.07338 0.08467,-0.2032 v -1.095022 q 0,-0.129822 -0.08467,-0.200377 -0.08467,-0.07338 -0.208844,-0.07338 -0.124177,0 -0.208844,0.07338 -0.08184,0.07055 -0.08184,0.200377 z" />
      <path
         id="path10116"
         style="font-style:normal;font-variant:normal;font-weight:bold;font-stretch:normal;font-size:2.82222px;font-family:Homenaje;-inkscape-font-specification:'Homenaje Bold';stroke-width:0.264583"
         d="m 53.276834,86.250984 h -0.355599 l -0.522111,-1.794932 v 1.794932 H 52.150769 V 84.27543 h 0.414866 l 0.460022,1.707443 V 84.27543 h 0.251177 z" />
    </g>
    <g
       style="font-style:normal;font-variant:normal;font-weight:bold;font-stretch:normal;font-size:3.53844px;line-height:1.25;font-family:Consolas;-inkscape-font-specification:'Consolas Bold';text-align:start;letter-spacing:0px;word-spacing:0px;text-anchor:start;fill:#00a3f2;fill-opacity:1;stroke:none;stroke-width:0.265383"
       id="text3885-7"
       transform="scale(1.0030227,0.99698641)"
       aria-label="FW">
      <path
         id="path10097"
         style="font-style:normal;font-variant:normal;font-weight:normal;font-stretch:normal;font-family:'Bradley Gratis';-inkscape-font-specification:'Bradley Gratis';text-align:start;text-anchor:start;fill:#00a3f2;fill-opacity:1;stroke-width:0.265383"
         d="m 47.037178,149.37882 q 0.120307,-0.1203 0.191076,-0.2123 0.07431,-0.092 0.11323,-0.16985 0.04246,-0.0778 0.05308,-0.14507 0.01415,-0.0708 0.01415,-0.14862 0,-0.0955 -0.046,-0.23 -0.046,-0.13446 -0.102615,-0.28661 -0.05662,-0.15215 -0.102615,-0.31138 -0.046,-0.15923 -0.046,-0.30431 0,-0.0778 0.02477,-0.15215 0.02831,-0.0743 0.06723,-0.14154 0.04246,-0.0708 0.092,-0.13092 0.04954,-0.0637 0.09908,-0.11323 -0.07077,-0.0142 -0.123845,-0.0212 -0.05308,-0.0106 -0.07785,-0.0106 -0.130922,0 -0.222922,0.0708 -0.08846,0.0672 -0.191076,0.16985 0,-0.12031 0.03538,-0.24769 0.03892,-0.13093 0.116768,-0.23708 0.07785,-0.10615 0.194614,-0.17338 0.120307,-0.0672 0.283076,-0.0672 0.11323,0 0.208768,0.0177 0.09908,0.0142 0.18046,0.0354 0.08138,0.0212 0.148615,0.0389 0.06723,0.0142 0.120307,0.0142 0.08138,0 0.141537,-0.0212 0.06369,-0.0248 0.123846,-0.0849 0,0.0778 -0.03185,0.17692 -0.02831,0.0991 -0.08846,0.19107 -0.05662,0.0885 -0.148615,0.15216 -0.092,0.0601 -0.212306,0.0601 -0.06015,0 -0.137999,-0.007 -0.07431,-0.0106 -0.155692,-0.0248 -0.0071,0.0248 -0.01062,0.046 -0.0035,0.0212 -0.0071,0.0389 -0.0035,0.0212 -0.0035,0.0389 0,0.0779 0.01062,0.15215 0.01415,0.0708 0.03892,0.14508 h 0.714765 l -0.08138,0.24061 q -0.01062,0.046 -0.01415,0.0672 -0.0035,0.0212 -0.01062,0.0672 l -0.130922,-0.092 h -0.364459 q 0.07785,0.17693 0.145076,0.36092 0.06723,0.18046 0.06723,0.38569 0,0.184 -0.07431,0.34323 -0.07431,0.15569 -0.198153,0.27246 -0.120307,0.11677 -0.279536,0.18046 -0.155692,0.0672 -0.321999,0.0672 z" />
      <path
         id="path10099"
         style="font-style:normal;font-variant:normal;font-weight:normal;font-stretch:normal;font-family:'Bradley Gratis';-inkscape-font-specification:'Bradley Gratis';text-align:start;text-anchor:start;fill:#00a3f2;fill-opacity:1;stroke-width:0.265383"
         d="m 49.170139,149.34698 q -0.191076,-0.138 -0.325536,-0.29369 -0.134461,-0.15923 -0.215845,-0.32908 -0.08138,-0.16984 -0.120307,-0.34323 -0.03538,-0.17692 -0.03538,-0.34676 0,-0.16631 0.03538,-0.32908 0.03538,-0.1663 0.092,-0.32553 0.06015,-0.16277 0.137999,-0.31493 0.07785,-0.15569 0.15923,-0.3043 h -0.02123 q -0.01062,0 -0.02477,0 -0.01061,-0.004 -0.02831,-0.004 -0.05662,0 -0.137999,0.0142 -0.07785,0.0142 -0.152153,0.0708 V 146.495 h 0.743072 q -0.092,0.15923 -0.15923,0.32199 -0.06369,0.15923 -0.106153,0.31139 -0.03892,0.14861 -0.06015,0.28307 -0.01769,0.13092 -0.01769,0.23708 0,0.10615 0.02123,0.25476 0.02123,0.14862 0.07785,0.30785 0.06015,0.15569 0.15923,0.29723 0.102614,0.14154 0.265383,0.23 l 0.106153,-0.0779 q -0.06369,-0.12031 -0.09908,-0.23 -0.03538,-0.11323 -0.05308,-0.2123 -0.01415,-0.0991 -0.01769,-0.18046 -0.0035,-0.0849 -0.0035,-0.15216 0,-0.10969 0.02831,-0.24769 0.02831,-0.138 0.08138,-0.28661 0.05308,-0.14862 0.127384,-0.30077 0.07784,-0.15215 0.173383,-0.29723 -0.13446,0 -0.222921,0.0212 -0.08492,0.0212 -0.145076,0.0602 V 146.495 h 0.764303 q -0.06369,0.0885 -0.127384,0.20169 -0.06015,0.10969 -0.106153,0.24061 -0.046,0.12738 -0.07431,0.27246 -0.02831,0.14508 -0.02831,0.29723 0,0.25831 0.046,0.46 0.046,0.19815 0.127383,0.3503 0.08138,0.15215 0.191076,0.26185 0.109692,0.10969 0.233537,0.18753 V 146.495 h 0.530766 v 2.1266 q 0,0.0248 -0.03538,0.0708 -0.03538,0.0425 -0.092,0.0991 -0.05308,0.0566 -0.127384,0.12385 -0.07077,0.0637 -0.145076,0.12738 -0.176922,0.14862 -0.399843,0.32554 -0.173384,-0.13446 -0.297229,-0.26538 -0.123846,-0.13093 -0.212307,-0.25477 z" />
    </g>
    <g
       style="font-style:normal;font-variant:normal;font-weight:bold;font-stretch:normal;font-size:3.52778px;line-height:1.25;font-family:Homenaje;-inkscape-font-specification:'Homenaje Bold';letter-spacing:0px;word-spacing:0px;fill:#ffffff;fill-opacity:1;stroke:none;stroke-width:0.264583"
       id="text5443-7-5-4-2-0"
       aria-label="TRACKS">
      <path
         id="path10084"
         style="font-style:normal;font-variant:normal;font-weight:bold;font-stretch:normal;font-size:2.82222px;font-family:Homenaje;-inkscape-font-specification:'Homenaje Bold';stroke-width:0.264583"
         d="m 45.72788,137.966 v -1.78928 h -0.39511 v -0.18627 h 1.038577 v 0.18627 h -0.395111 v 1.78928 z" />
      <path
         id="path10086"
         style="font-style:normal;font-variant:normal;font-weight:bold;font-stretch:normal;font-size:2.82222px;font-family:Homenaje;-inkscape-font-specification:'Homenaje Bold';stroke-width:0.264583"
         d="m 46.882742,136.17672 v 0.7366 h 0.200377 q 0.160867,0 0.248356,-0.11007 0.09031,-0.11289 0.09031,-0.28787 0,-0.33866 -0.338667,-0.33866 z m -0.0056,0.92286 v 0.86642 h -0.242711 v -1.97555 h 0.522111 q 0.508,0 0.508,0.52493 0,0.19756 -0.0762,0.34431 -0.0762,0.14676 -0.217311,0.2032 l 0.392288,0.90311 h -0.242711 l -0.383821,-0.86642 z" />
      <path
         id="path10088"
         style="font-style:normal;font-variant:normal;font-weight:bold;font-stretch:normal;font-size:2.82222px;font-family:Homenaje;-inkscape-font-specification:'Homenaje Bold';stroke-width:0.264583"
         d="m 48.319781,135.99045 h 0.375355 l 0.428978,1.97555 h -0.231422 l -0.138289,-0.58137 h -0.513644 l -0.127,0.58137 H 47.87387 Z m 0.392288,1.20227 -0.203199,-1.016 h -0.01976 l -0.206022,1.016 z" />
      <path
         id="path10090"
         style="font-style:normal;font-variant:normal;font-weight:bold;font-stretch:normal;font-size:2.82222px;font-family:Homenaje;-inkscape-font-specification:'Homenaje Bold';stroke-width:0.264583"
         d="m 50.217503,137.77974 v 0.18626 h -0.378177 q -0.256822,0 -0.397933,-0.12982 -0.141111,-0.12982 -0.141111,-0.381 v -0.95391 q 0,-0.25118 0.141111,-0.381 0.141111,-0.12982 0.397933,-0.12982 h 0.378177 v 0.18627 h -0.378177 q -0.129822,0 -0.211667,0.0762 -0.07902,0.0734 -0.07902,0.19755 v 1.05551 q 0,0.12418 0.07902,0.20038 0.08185,0.0734 0.211667,0.0734 z" />
      <path
         id="path10092"
         style="font-style:normal;font-variant:normal;font-weight:bold;font-stretch:normal;font-size:2.82222px;font-family:Homenaje;-inkscape-font-specification:'Homenaje Bold';stroke-width:0.264583"
         d="m 50.721755,137.966 h -0.239889 v -1.97555 h 0.239889 v 0.8636 l 0.584199,-0.8636 h 0.245534 l -0.575733,0.88053 0.660399,1.09502 h -0.251177 l -0.553156,-0.92004 -0.110066,0.14111 z" />
      <path
         id="path10094"
         style="font-style:normal;font-variant:normal;font-weight:bold;font-stretch:normal;font-size:2.82222px;font-family:Homenaje;-inkscape-font-specification:'Homenaje Bold';stroke-width:0.264583"
         d="m 52.122634,137.77974 q 0.160867,0 0.231423,-0.096 0.07338,-0.096 0.07338,-0.22295 0,-0.127 -0.04798,-0.21449 -0.04516,-0.0903 -0.115712,-0.14111 -0.07055,-0.0536 -0.152399,-0.11571 -0.08184,-0.0621 -0.1524,-0.11854 -0.07056,-0.0593 -0.118534,-0.15804 -0.04516,-0.0988 -0.04516,-0.22578 0,-0.22578 0.135467,-0.36124 0.135466,-0.13547 0.375355,-0.13547 h 0.2286 v 0.18627 h -0.217311 q -0.135467,0 -0.206022,0.0875 -0.07056,0.0875 -0.07056,0.18909 0,0.1016 0.04516,0.17498 0.04798,0.0734 0.118533,0.12136 0.07055,0.048 0.1524,0.11289 0.08467,0.0649 0.155222,0.13264 0.07055,0.0649 0.115711,0.1778 0.04798,0.11289 0.04798,0.25682 0,0.26529 -0.1524,0.40076 -0.149578,0.13546 -0.412044,0.13546 h -0.296333 v -0.18626 z" />
    </g>
    <g
       style="font-style:normal;font-variant:normal;font-weight:bold;font-stretch:normal;font-size:3.52777px;line-height:1.25;font-family:Homenaje;-inkscape-font-specification:'Homenaje Bold';letter-spacing:0px;word-spacing:0px;fill:#ffffff;fill-opacity:1;stroke:none;stroke-width:0.264583"
       id="text5443-7-5-4-2-4"
       aria-label="LENGTH">
      <path
         id="path10071"
         style="font-style:normal;font-variant:normal;font-weight:bold;font-stretch:normal;font-size:2.82223px;font-family:Homenaje;-inkscape-font-specification:'Homenaje Bold';stroke-width:0.264583"
         d="m 45.398917,107.15307 v -1.97556 h 0.248356 v 1.78929 h 0.578557 v 0.18627 z" />
      <path
         id="path10073"
         style="font-style:normal;font-variant:normal;font-weight:bold;font-stretch:normal;font-size:2.82223px;font-family:Homenaje;-inkscape-font-specification:'Homenaje Bold';stroke-width:0.264583"
         d="m 46.468277,107.15307 v -1.97556 h 0.860781 v 0.19191 h -0.612424 v 0.63218 h 0.496712 v 0.19191 h -0.496712 v 0.76765 h 0.640646 v 0.19191 z" />
      <path
         id="path10075"
         style="font-style:normal;font-variant:normal;font-weight:bold;font-stretch:normal;font-size:2.82223px;font-family:Homenaje;-inkscape-font-specification:'Homenaje Bold';stroke-width:0.264583"
         d="m 48.778934,107.15307 h -0.355601 l -0.522112,-1.79494 v 1.79494 h -0.248357 v -1.97556 h 0.414868 l 0.460024,1.70745 v -1.70745 h 0.251178 z" />
      <path
         id="path10077"
         style="font-style:normal;font-variant:normal;font-weight:bold;font-stretch:normal;font-size:2.82223px;font-family:Homenaje;-inkscape-font-specification:'Homenaje Bold';stroke-width:0.264583"
         d="m 50.123154,107.15307 h -0.499535 q -0.256823,0 -0.397935,-0.12982 -0.141111,-0.12983 -0.141111,-0.38101 v -0.95673 q 0,-0.24836 0.1524,-0.37818 0.152401,-0.12982 0.414868,-0.12982 h 0.414868 v 0.18909 h -0.44309 q -0.129823,0 -0.211667,0.0762 -0.07902,0.0734 -0.07902,0.19755 v 1.0527 q 0,0.127 0.0762,0.20037 0.0762,0.0734 0.203201,0.0734 h 0.262467 v -0.77611 h -0.254 v -0.18627 h 0.502357 z" />
      <path
         id="path10079"
         style="font-style:normal;font-variant:normal;font-weight:bold;font-stretch:normal;font-size:2.82223px;font-family:Homenaje;-inkscape-font-specification:'Homenaje Bold';stroke-width:0.264583"
         d="m 50.715645,107.15307 v -1.7893 h -0.395112 v -0.18626 h 1.038581 v 0.18626 h -0.395112 v 1.7893 z" />
      <path
         id="path10081"
         style="font-style:normal;font-variant:normal;font-weight:bold;font-stretch:normal;font-size:2.82223px;font-family:Homenaje;-inkscape-font-specification:'Homenaje Bold';stroke-width:0.264583"
         d="m 52.432135,106.19915 h -0.561624 v 0.95392 h -0.248356 v -1.97556 h 0.248356 v 0.83538 h 0.561624 v -0.83538 h 0.248356 v 1.97556 h -0.248356 z" />
    </g>
    <g
       style="font-style:normal;font-variant:normal;font-weight:bold;font-stretch:normal;font-size:3.52777px;line-height:1.25;font-family:Homenaje;-inkscape-font-specification:'Homenaje Bold';letter-spacing:0px;word-spacing:0px;fill:#ffffff;fill-opacity:1;stroke:none;stroke-width:0.264583"
       id="text5443-7-5-4-2-0-8"
       aria-label="ENABLED">
      <path
         id="path10056"
         style="font-style:normal;font-variant:normal;font-weight:bold;font-stretch:normal;font-size:2.82223px;font-family:Homenaje;-inkscape-font-specification:'Homenaje Bold';stroke-width:0.264583"
         d="m 51.021311,126.71249 v -1.97556 h 0.860781 v 0.19191 h -0.612424 v 0.63218 h 0.496712 v 0.19191 h -0.496712 v 0.76764 h 0.640646 v 0.19192 z" />
      <path
         id="path10058"
         style="font-style:normal;font-variant:normal;font-weight:bold;font-stretch:normal;font-size:2.82223px;font-family:Homenaje;-inkscape-font-specification:'Homenaje Bold';stroke-width:0.264583"
         d="m 53.331968,126.71249 h -0.355601 l -0.522112,-1.79494 v 1.79494 h -0.248357 v -1.97556 h 0.414868 l 0.460024,1.70744 v -1.70744 h 0.251178 z" />
      <path
         id="path10060"
         style="font-style:normal;font-variant:normal;font-weight:bold;font-stretch:normal;font-size:2.82223px;font-family:Homenaje;-inkscape-font-specification:'Homenaje Bold';stroke-width:0.264583"
         d="m 54.018608,124.73693 h 0.375357 l 0.428979,1.97556 h -0.231423 l -0.13829,-0.58138 h -0.513645 l -0.127001,0.58138 h -0.239889 z m 0.39229,1.20227 -0.203201,-1.01601 h -0.01976 l -0.206023,1.01601 z" />
      <path
         id="path10062"
         style="font-style:normal;font-variant:normal;font-weight:bold;font-stretch:normal;font-size:2.82223px;font-family:Homenaje;-inkscape-font-specification:'Homenaje Bold';stroke-width:0.264583"
         d="m 55.332136,124.92319 v 0.64065 h 0.1778 q 0.169334,0 0.262468,-0.0847 0.09313,-0.0875 0.09313,-0.25118 0,-0.3048 -0.355601,-0.3048 z m 0.57009,0.73943 q 0.110067,0.0593 0.180623,0.1778 0.07338,0.11853 0.07338,0.23989 0,0.12135 -0.01129,0.19473 -0.01129,0.0734 -0.0508,0.16087 -0.03669,0.0847 -0.104423,0.14111 -0.1524,0.13547 -0.46849,0.13547 h -0.437446 v -1.97556 h 0.47978 q 0.262467,0 0.392289,0.12135 0.129823,0.11853 0.129823,0.37536 0,0.14111 -0.05362,0.25964 -0.0508,0.11571 -0.129823,0.16934 z m -0.395112,0.8636 q 0.412046,0 0.412046,-0.39511 0,-0.20038 -0.121356,-0.28787 -0.121356,-0.0875 -0.287868,-0.0875 h -0.1778 v 0.77047 z" />
      <path
         id="path10064"
         style="font-style:normal;font-variant:normal;font-weight:bold;font-stretch:normal;font-size:2.82223px;font-family:Homenaje;-inkscape-font-specification:'Homenaje Bold';stroke-width:0.264583"
         d="m 56.456309,126.71249 v -1.97556 h 0.248356 v 1.78929 h 0.578557 v 0.18627 z" />
      <path
         id="path10066"
         style="font-style:normal;font-variant:normal;font-weight:bold;font-stretch:normal;font-size:2.82223px;font-family:Homenaje;-inkscape-font-specification:'Homenaje Bold';stroke-width:0.264583"
         d="m 57.52567,126.71249 v -1.97556 h 0.86078 v 0.19191 h -0.612424 v 0.63218 h 0.496712 v 0.19191 h -0.496712 v 0.76764 h 0.640646 v 0.19192 z" />
      <path
         id="path10068"
         style="font-style:normal;font-variant:normal;font-weight:bold;font-stretch:normal;font-size:2.82223px;font-family:Homenaje;-inkscape-font-specification:'Homenaje Bold';stroke-width:0.264583"
         d="m 58.981191,126.52057 h 0.239889 q 0.129823,0 0.208845,-0.0734 0.08185,-0.0762 0.08185,-0.20038 v -1.04423 q 0,-0.12417 -0.08185,-0.19755 -0.07902,-0.0762 -0.208845,-0.0762 h -0.239889 z m -0.251179,0.19192 v -1.97556 h 0.491068 q 0.256823,0 0.397935,0.12982 0.141111,0.12982 0.141111,0.381 v 0.95391 q 0,0.25118 -0.141111,0.381 -0.141112,0.127 -0.397935,0.12983 z" />
    </g>
    <path
       d="m 52.674965,67.388978 h 9.128111 v 5.15936 h -9.128111 z"
       style="fill:#101015;fill-opacity:1;stroke:#999999;stroke-width:0.132306;stroke-miterlimit:4;stroke-dasharray:none;stroke-opacity:1"
       id="rect6948-0-8-7" />
    <path
       id="rect6948-0-8-7-9"
       style="fill:#101015;fill-opacity:1;stroke:#999999;stroke-width:0.132304;stroke-miterlimit:4;stroke-dasharray:none;stroke-opacity:1"
       d="m 52.674964,88.577679 h 9.127141 v 5.159363 h -9.127141 z" />
    <path
       id="rect6948-0-8-7-2"
       style="fill:#101015;fill-opacity:1;stroke:#999999;stroke-width:0.132304;stroke-miterlimit:4;stroke-dasharray:none;stroke-opacity:1"
       d="m 52.674964,109.73784 h 9.127141 v 5.15936 h -9.127141 z" />
  </g>
</svg>
