<?xml version="1.0" encoding="UTF-8" standalone="no"?>
<!-- Created with Inkscape (http://www.inkscape.org/) -->

<svg
   xmlns:dc="http://purl.org/dc/elements/1.1/"
   xmlns:cc="http://creativecommons.org/ns#"
   xmlns:rdf="http://www.w3.org/1999/02/22-rdf-syntax-ns#"
   xmlns:svg="http://www.w3.org/2000/svg"
   xmlns="http://www.w3.org/2000/svg"
   xmlns:xlink="http://www.w3.org/1999/xlink"
   xmlns:sodipodi="http://sodipodi.sourceforge.net/DTD/sodipodi-0.dtd"
   xmlns:inkscape="http://www.inkscape.org/namespaces/inkscape"
   width="105"
   height="380"
   viewBox="0 0 27.78125 100.54167"
   version="1.1"
   id="svg11003"
   inkscape:version="0.92.2 (5c3e80d, 2017-08-06)"
   sodipodi:docname="QARWarpedSpaceExpander.svg">
  <defs
     id="defs10997">
    <linearGradient
       inkscape:collect="always"
       id="linearGradient4047">
      <stop
         style="stop-color:#202022;stop-opacity:1;"
         offset="0"
         id="stop3387" />
      <stop
         style="stop-color:#202025;stop-opacity:1;"
         offset=".3"
         id="stop3388" />
      <stop
         style="stop-color:#08006f;stop-opacity:1;"
         offset="1"
         id="stop3389" />
    </linearGradient>
    <linearGradient
       inkscape:collect="always"
       xlink:href="#linearGradient4047"
       id="linearGradient4049"
       x1="35.418064"
       y1="158.3329"
       x2="35.219627"
       y2="50.462322"
       gradientUnits="userSpaceOnUse"
       gradientTransform="matrix(0.5824096,0,0,1,14.70738,0)" />
  </defs>
  <sodipodi:namedview
     id="base"
     pagecolor="#ffffff"
     bordercolor="#666666"
     borderopacity="1.0"
     inkscape:pageopacity="0.0"
     inkscape:pageshadow="2"
     inkscape:zoom="4"
     inkscape:cx="-33.850675"
     inkscape:cy="195.87134"
     inkscape:document-units="px"
     inkscape:current-layer="layer1"
     showgrid="false"
     fit-margin-top="0"
     fit-margin-left="0"
     fit-margin-right="0"
     fit-margin-bottom="0"
     inkscape:window-width="3840"
     inkscape:window-height="2115"
     inkscape:window-x="-13"
     inkscape:window-y="-13"
     inkscape:window-maximized="1"
     units="px"
     showguides="false" />
  <metadata
     id="metadata11000">
    <rdf:RDF>
      <cc:Work
         rdf:about="">
        <dc:format>image/svg+xml</dc:format>
        <dc:type
           rdf:resource="http://purl.org/dc/dcmitype/StillImage" />
        <dc:title></dc:title>
      </cc:Work>
    </rdf:RDF>
  </metadata>
  <g
     inkscape:label="Layer 1"
     inkscape:groupmode="layer"
     id="layer1"
     transform="translate(-35.146312,-50.389004)">
    <g
       id="g1644"
       transform="matrix(0.50000001,0,0,1.0014499,17.536498,-0.14648283)">
      <path
         inkscape:export-ydpi="150.22649"
         inkscape:export-xdpi="150.22649"
         inkscape:export-filename="/home/vortico/pics/tmp/LFOs.png"
         style="fill:url(#linearGradient4049);fill-opacity:1;fill-rule:nonzero;stroke:none;stroke-width:0.32694858"
         d="m 35.219628,50.462323 h 55.5625 V 150.85843 h -55.5625 z m 0,0"
         id="path33493"
         inkscape:connector-curvature="0" />
    </g>
    <g
       style="font-style:normal;font-weight:normal;font-size:3.52777767px;line-height:1.25;font-family:sans-serif;letter-spacing:0px;word-spacing:0px;fill:#ffffff;fill-opacity:1;stroke:none;stroke-width:0.26458332"
       id="text5097" />
    <g
       style="font-style:normal;font-variant:normal;font-weight:bold;font-stretch:normal;font-size:3.52777767px;line-height:1.25;font-family:Consolas;-inkscape-font-specification:'Consolas Bold';text-align:center;letter-spacing:0px;word-spacing:0px;text-anchor:middle;fill:#ffffff;fill-opacity:1;stroke:none;stroke-width:0.26458332"
       id="text373" />
    <g
       style="font-style:normal;font-variant:normal;font-weight:bold;font-stretch:normal;font-size:13.33333302px;line-height:1.25;font-family:Consolas;-inkscape-font-specification:'Consolas Bold';text-align:center;letter-spacing:0px;word-spacing:0px;text-anchor:middle;fill:#ffffff;fill-opacity:1;stroke:none"
       id="flowRoot250" />
    <g
       aria-label="=+"
       style="font-style:normal;font-variant:normal;font-weight:bold;font-stretch:normal;font-size:3.52777767px;line-height:1.25;font-family:Consolas;-inkscape-font-specification:'Consolas Bold';text-align:center;letter-spacing:0px;word-spacing:0px;text-anchor:middle;fill:#ffffff;fill-opacity:1;stroke:none;stroke-width:0.26458332"
       id="text308">
      <path
         d="m 156.8605,47.159573 v -0.334174 h 1.48139 v 0.334174 z m 0,0.678684 v -0.334174 h 1.48139 v 0.334174 z"
         style="stroke-width:0.26458332"
         id="path4330"
         inkscape:connector-curvature="0" />
      <path
         d="m 159.73887,47.507528 v 0.670071 h -0.38757 v -0.670071 h -0.64251 v -0.346232 h 0.64251 V 46.49467 h 0.38757 v 0.666626 h 0.64251 v 0.346232 z"
         style="stroke-width:0.26458332"
         id="path4332"
         inkscape:connector-curvature="0" />
    </g>
    <g
       style="font-style:normal;font-variant:normal;font-weight:bold;font-stretch:normal;font-size:13.33333302px;line-height:1.25;font-family:Consolas;-inkscape-font-specification:'Consolas Bold';text-align:center;letter-spacing:0px;word-spacing:0px;text-anchor:middle;fill:#ffffff;fill-opacity:1;stroke:none"
       id="flowRoot53665" />
    <g
       style="font-style:normal;font-variant:normal;font-weight:bold;font-stretch:normal;font-size:3.52777767px;line-height:1.25;font-family:Consolas;-inkscape-font-specification:'Consolas Bold';text-align:center;letter-spacing:0px;word-spacing:0px;text-anchor:middle;fill:#ffffff;fill-opacity:1;stroke:none;stroke-width:0.26458332"
       id="text53994" />
    <g
       aria-label="QAR
WARPED SPACE"
       style="font-style:normal;font-variant:normal;font-weight:bold;font-stretch:normal;font-size:3.52777767px;line-height:1.25;font-family:Homenaje;-inkscape-font-specification:'Homenaje Bold';text-align:start;letter-spacing:0px;word-spacing:0px;text-anchor:start;fill:#ffffff;fill-opacity:1;stroke:none;stroke-width:0.26458332"
       id="text3885">
      <path
         d="m 47.988307,53.407722 q 0,0.613127 -0.55492,0.686858 v 0.07761 q 0,0.166864 0.04269,0.221192 0.04657,0.05821 0.147461,0.05821 h 0.182386 v 0.244475 h -0.228953 q -0.213431,0 -0.337608,-0.128058 -0.124178,-0.128059 -0.124178,-0.34537 V 54.09458 q -0.551039,-0.07373 -0.551039,-0.686858 v -1.381478 q 0,-0.333728 0.174625,-0.516114 0.178506,-0.182386 0.535517,-0.182386 0.360891,0 0.535516,0.182386 0.178506,0.182386 0.178506,0.516114 z m -1.082675,0.06597 q 0,0.182386 0.100894,0.2794 0.100895,0.09701 0.267759,0.09701 0.166864,0 0.267758,-0.09701 0.104775,-0.09701 0.104775,-0.2794 v -1.513417 q 0,-0.182386 -0.104775,-0.2794 -0.100894,-0.09701 -0.267758,-0.09701 -0.166864,0 -0.267759,0.09701 -0.100894,0.09701 -0.100894,0.2794 z"
         style="font-style:normal;font-variant:normal;font-weight:bold;font-stretch:normal;font-size:3.88055563px;font-family:Homenaje;-inkscape-font-specification:'Homenaje Bold';text-align:center;text-anchor:middle;stroke-width:0.26458332"
         id="path870" />
      <path
         d="m 48.846395,51.354908 h 0.516114 l 0.589844,2.716389 H 49.634148 L 49.444,53.271902 h -0.706261 l -0.174625,0.799395 h -0.329847 z m 0.539397,1.653116 -0.2794,-1.397 h -0.02716 l -0.28328,1.397 z"
         style="font-style:normal;font-variant:normal;font-weight:bold;font-stretch:normal;font-size:3.88055563px;font-family:Homenaje;-inkscape-font-specification:'Homenaje Bold';text-align:center;text-anchor:middle;stroke-width:0.26458332"
         id="path872" />
      <path
         d="m 50.65249,51.611024 v 1.012825 h 0.27552 q 0.221191,0 0.341489,-0.151341 0.124177,-0.155222 0.124177,-0.395817 0,-0.465667 -0.465666,-0.465667 z m -0.0078,1.268942 v 1.191331 h -0.333728 v -2.716389 h 0.717903 q 0.6985,0 0.6985,0.721783 0,0.271639 -0.104775,0.473428 -0.104775,0.201789 -0.298803,0.2794 l 0.539398,1.241778 H 51.529496 L 51.00174,52.879966 Z"
         style="font-style:normal;font-variant:normal;font-weight:bold;font-stretch:normal;font-size:3.88055563px;font-family:Homenaje;-inkscape-font-specification:'Homenaje Bold';text-align:center;text-anchor:middle;stroke-width:0.26458332"
         id="path874" />
      <path
         d="m 40.110931,56.911863 h 0.364772 l 0.364772,1.680281 0.457906,-2.386542 h 0.337608 l -0.562681,2.716389 h -0.457905 l -0.318206,-1.625953 -0.314325,1.625953 h -0.457905 l -0.574323,-2.716389 h 0.337609 l 0.461786,2.386542 z"
         style="font-style:normal;font-variant:normal;font-weight:bold;font-stretch:normal;font-size:3.88055563px;font-family:Homenaje;-inkscape-font-specification:'Homenaje Bold';text-align:center;text-anchor:middle;stroke-width:0.26458332"
         id="path876" />
      <path
         d="m 42.27143,56.205602 h 0.516114 l 0.589844,2.716389 h -0.318205 l -0.190148,-0.799394 h -0.706261 l -0.174625,0.799394 h -0.329847 z m 0.539397,1.653117 -0.2794,-1.397 h -0.02716 l -0.28328,1.397 z"
         style="font-style:normal;font-variant:normal;font-weight:bold;font-stretch:normal;font-size:3.88055563px;font-family:Homenaje;-inkscape-font-specification:'Homenaje Bold';text-align:center;text-anchor:middle;stroke-width:0.26458332"
         id="path878" />
      <path
         d="m 44.077525,56.461719 v 1.012825 h 0.27552 q 0.221192,0 0.341489,-0.151342 0.124178,-0.155222 0.124178,-0.395816 0,-0.465667 -0.465667,-0.465667 z m -0.0078,1.268942 v 1.19133 h -0.333727 v -2.716389 h 0.717902 q 0.6985,0 0.6985,0.721784 0,0.271639 -0.104775,0.473427 -0.104775,0.201789 -0.298802,0.2794 l 0.539397,1.241778 h -0.333728 l -0.527755,-1.19133 z"
         style="font-style:normal;font-variant:normal;font-weight:bold;font-stretch:normal;font-size:3.88055563px;font-family:Homenaje;-inkscape-font-specification:'Homenaje Bold';text-align:center;text-anchor:middle;stroke-width:0.26458332"
         id="path880" />
      <path
         d="m 45.987486,56.461719 v 1.008944 h 0.248356 q 0.221191,0 0.341489,-0.151341 0.124177,-0.151342 0.124177,-0.391936 0,-0.465667 -0.465666,-0.465667 z m 1.055511,0.465667 q 0,0.376414 -0.205669,0.589844 -0.201789,0.20955 -0.578203,0.20955 h -0.271639 v 1.195211 h -0.341489 v -2.716389 h 0.686859 q 0.710141,0 0.710141,0.721784 z"
         style="font-style:normal;font-variant:normal;font-weight:bold;font-stretch:normal;font-size:3.88055563px;font-family:Homenaje;-inkscape-font-specification:'Homenaje Bold';text-align:center;text-anchor:middle;stroke-width:0.26458332"
         id="path882" />
      <path
         d="m 47.404374,58.921991 v -2.716389 h 1.183569 v 0.263878 h -0.84208 v 0.869245 h 0.682978 v 0.263877 h -0.682978 v 1.055511 h 0.880886 v 0.263878 z"
         style="font-style:normal;font-variant:normal;font-weight:bold;font-stretch:normal;font-size:3.88055563px;font-family:Homenaje;-inkscape-font-specification:'Homenaje Bold';text-align:center;text-anchor:middle;stroke-width:0.26458332"
         id="path884" />
      <path
         d="m 49.40571,58.658113 h 0.329847 q 0.178506,0 0.287161,-0.100894 0.112537,-0.104775 0.112537,-0.275519 v -1.435806 q 0,-0.170744 -0.112537,-0.271639 Q 49.914063,56.46948 49.735557,56.46948 H 49.40571 Z m -0.345369,0.263878 v -2.716389 h 0.675216 q 0.353131,0 0.547159,0.178506 0.194027,0.178505 0.194027,0.523875 v 1.311628 q 0,0.345369 -0.194027,0.523875 -0.194028,0.174625 -0.547159,0.178505 z"
         style="font-style:normal;font-variant:normal;font-weight:bold;font-stretch:normal;font-size:3.88055563px;font-family:Homenaje;-inkscape-font-specification:'Homenaje Bold';text-align:center;text-anchor:middle;stroke-width:0.26458332"
         id="path886" />
      <path
         d="m 51.88872,58.665875 q 0.221192,0 0.318205,-0.131939 0.100895,-0.131939 0.100895,-0.306564 0,-0.174625 -0.06597,-0.294922 -0.06209,-0.124178 -0.159102,-0.194028 -0.09701,-0.07373 -0.20955,-0.159103 -0.112536,-0.08537 -0.20955,-0.162983 -0.09701,-0.08149 -0.162984,-0.217311 -0.06209,-0.13582 -0.06209,-0.310445 0,-0.310444 0.186267,-0.496711 0.186267,-0.186267 0.516114,-0.186267 h 0.314325 v 0.256117 h -0.298803 q -0.186266,0 -0.28328,0.120297 -0.09701,0.120297 -0.09701,0.259997 0,0.1397 0.06209,0.240595 0.06597,0.100894 0.162983,0.166864 0.09701,0.06597 0.20955,0.155222 0.116417,0.08925 0.213431,0.182386 0.09701,0.08925 0.159102,0.244475 0.06597,0.155222 0.06597,0.353131 0,0.364772 -0.20955,0.551039 -0.20567,0.186266 -0.566561,0.186266 h -0.407459 v -0.256116 z"
         style="font-style:normal;font-variant:normal;font-weight:bold;font-stretch:normal;font-size:3.88055563px;font-family:Homenaje;-inkscape-font-specification:'Homenaje Bold';text-align:center;text-anchor:middle;stroke-width:0.26458332"
         id="path888" />
      <path
         d="m 53.369637,56.461719 v 1.008944 h 0.248356 q 0.221192,0 0.341489,-0.151341 0.124178,-0.151342 0.124178,-0.391936 0,-0.465667 -0.465667,-0.465667 z m 1.055511,0.465667 q 0,0.376414 -0.205669,0.589844 -0.201789,0.20955 -0.578203,0.20955 h -0.271639 v 1.195211 h -0.341489 v -2.716389 h 0.686859 q 0.710141,0 0.710141,0.721784 z"
         style="font-style:normal;font-variant:normal;font-weight:bold;font-stretch:normal;font-size:3.88055563px;font-family:Homenaje;-inkscape-font-specification:'Homenaje Bold';text-align:center;text-anchor:middle;stroke-width:0.26458332"
         id="path890" />
      <path
         d="m 55.193983,56.205602 h 0.516114 l 0.589844,2.716389 h -0.318205 l -0.190147,-0.799394 h -0.706262 l -0.174625,0.799394 h -0.329847 z m 0.539397,1.653117 -0.2794,-1.397 h -0.02716 l -0.28328,1.397 z"
         style="font-style:normal;font-variant:normal;font-weight:bold;font-stretch:normal;font-size:3.88055563px;font-family:Homenaje;-inkscape-font-specification:'Homenaje Bold';text-align:center;text-anchor:middle;stroke-width:0.26458332"
         id="path892" />
      <path
         d="m 57.803353,58.665875 v 0.256116 h -0.519994 q -0.353131,0 -0.547159,-0.178505 -0.194027,-0.178506 -0.194027,-0.523875 v -1.311628 q 0,-0.34537 0.194027,-0.523875 0.194028,-0.178506 0.547159,-0.178506 h 0.519994 v 0.256117 h -0.519994 q -0.178506,0 -0.291042,0.104775 -0.108656,0.100894 -0.108656,0.271639 v 1.451328 q 0,0.170744 0.108656,0.275519 0.112536,0.100895 0.291042,0.100895 z"
         style="font-style:normal;font-variant:normal;font-weight:bold;font-stretch:normal;font-size:3.88055563px;font-family:Homenaje;-inkscape-font-specification:'Homenaje Bold';text-align:center;text-anchor:middle;stroke-width:0.26458332"
         id="path894" />
      <path
         d="m 58.166852,58.921991 v -2.716389 h 1.183569 v 0.263878 h -0.84208 v 0.869245 h 0.682978 v 0.263877 h -0.682978 v 1.055511 h 0.880886 v 0.263878 z"
         style="font-style:normal;font-variant:normal;font-weight:bold;font-stretch:normal;font-size:3.88055563px;font-family:Homenaje;-inkscape-font-specification:'Homenaje Bold';text-align:center;text-anchor:middle;stroke-width:0.26458332"
         id="path896" />
    </g>
    <g
       transform="matrix(0.26458333,0,0,0.26458333,35.146312,50.389004)"
       style="font-style:normal;font-variant:normal;font-weight:bold;font-stretch:normal;font-size:13.33333302px;line-height:1.25;font-family:Consolas;-inkscape-font-specification:'Consolas Bold';text-align:center;letter-spacing:0px;word-spacing:0px;text-anchor:middle;fill:#000000;fill-opacity:1;stroke:none"
       id="flowRoot1015" />
    <g
       aria-label="WARP"
       style="font-style:normal;font-variant:normal;font-weight:bold;font-stretch:normal;font-size:3.52777767px;line-height:1.25;font-family:Homenaje;-inkscape-font-specification:'Homenaje Bold';letter-spacing:0px;word-spacing:0px;fill:#ffffff;fill-opacity:1;stroke:none;stroke-width:0.26458332"
       id="text5443-7-5">
      <path
         d="m 46.838073,63.479175 h 0.265289 l 0.265288,1.222022 0.333023,-1.735667 h 0.245533 l -0.409222,1.975556 h -0.333022 l -0.231423,-1.182511 -0.2286,1.182511 H 46.411917 L 45.994228,62.96553 h 0.245534 l 0.335844,1.735667 z"
         style="font-style:normal;font-variant:normal;font-weight:bold;font-stretch:normal;font-size:2.82222223px;font-family:Homenaje;-inkscape-font-specification:'Homenaje Bold';stroke-width:0.26458332"
         id="path900" />
      <path
         d="M 48.409345,62.96553 H 48.7847 l 0.428978,1.975556 h -0.231422 l -0.138289,-0.581378 h -0.513644 l -0.127,0.581378 h -0.239889 z m 0.392289,1.202267 -0.2032,-1.016 h -0.01976 l -0.206022,1.016 z"
         style="font-style:normal;font-variant:normal;font-weight:bold;font-stretch:normal;font-size:2.82222223px;font-family:Homenaje;-inkscape-font-specification:'Homenaje Bold';stroke-width:0.26458332"
         id="path902" />
      <path
         d="m 49.722869,63.151797 v 0.7366 h 0.200378 q 0.160866,0 0.248355,-0.110067 0.09031,-0.112889 0.09031,-0.287866 0,-0.338667 -0.338666,-0.338667 z m -0.0056,0.922867 v 0.866422 H 49.474513 V 62.96553 h 0.522111 q 0.508,0 0.508,0.524934 0,0.197555 -0.0762,0.344311 -0.0762,0.146755 -0.217311,0.2032 l 0.392289,0.903111 h -0.242711 l -0.383822,-0.866422 z"
         style="font-style:normal;font-variant:normal;font-weight:bold;font-stretch:normal;font-size:2.82222223px;font-family:Homenaje;-inkscape-font-specification:'Homenaje Bold';stroke-width:0.26458332"
         id="path904" />
      <path
         d="m 51.111931,63.151797 v 0.733778 h 0.180623 q 0.160866,0 0.248355,-0.110067 0.09031,-0.110067 0.09031,-0.285044 0,-0.338667 -0.338666,-0.338667 z m 0.767645,0.338667 q 0,0.273755 -0.149578,0.428977 -0.146755,0.1524 -0.420511,0.1524 h -0.197556 v 0.869245 H 50.863576 V 62.96553 h 0.499533 q 0.516467,0 0.516467,0.524934 z"
         style="font-style:normal;font-variant:normal;font-weight:bold;font-stretch:normal;font-size:2.82222223px;font-family:Homenaje;-inkscape-font-specification:'Homenaje Bold';stroke-width:0.26458332"
         id="path906" />
    </g>
    <g
       style="font-style:normal;font-variant:normal;font-weight:bold;font-stretch:normal;font-size:13.33333302px;line-height:1.25;font-family:Arial;-inkscape-font-specification:'Arial Bold';text-align:center;letter-spacing:0px;word-spacing:0px;text-anchor:middle;fill:#000000;fill-opacity:1;stroke:none"
       id="flowRoot1633" />
    <g
       aria-label="POSITION"
       style="font-style:normal;font-variant:normal;font-weight:bold;font-stretch:normal;font-size:3.52777767px;line-height:1.25;font-family:Homenaje;-inkscape-font-specification:'Homenaje Bold';letter-spacing:0px;word-spacing:0px;fill:#ffffff;fill-opacity:1;stroke:none;stroke-width:0.26458332"
       id="text5443-7-5-4-2">
      <path
         d="m 44.919668,89.592845 v 0.733777 h 0.180622 q 0.160867,0 0.248356,-0.110066 0.09031,-0.110067 0.09031,-0.285045 0,-0.338666 -0.338667,-0.338666 z m 0.767644,0.338666 q 0,0.273756 -0.149577,0.428978 -0.146756,0.1524 -0.420512,0.1524 h -0.197555 v 0.869244 h -0.248356 v -1.975555 h 0.499534 q 0.516466,0 0.516466,0.524933 z"
         style="font-style:normal;font-variant:normal;font-weight:bold;font-stretch:normal;font-size:2.82222223px;font-family:Homenaje;-inkscape-font-specification:'Homenaje Bold';stroke-width:0.26458332"
         id="path910" />
      <path
         d="m 46.946376,90.893889 q 0,0.239889 -0.138289,0.375356 -0.138289,0.132644 -0.403577,0.132644 -0.262467,0 -0.400756,-0.132644 -0.138289,-0.135467 -0.138289,-0.375356 v -0.999067 q 0,-0.239889 0.138289,-0.372533 0.138289,-0.135467 0.400756,-0.135467 0.265288,0 0.403577,0.135467 0.138289,0.132644 0.138289,0.372533 z m -0.832555,0.04798 q 0,0.129822 0.08184,0.2032 0.08467,0.07055 0.208845,0.07055 0.124177,0 0.208844,-0.07055 0.08467,-0.07338 0.08467,-0.2032 v -1.095022 q 0,-0.129823 -0.08467,-0.200378 -0.08467,-0.07338 -0.208844,-0.07338 -0.124178,0 -0.208845,0.07338 -0.08184,0.07055 -0.08184,0.200378 z"
         style="font-style:normal;font-variant:normal;font-weight:bold;font-stretch:normal;font-size:2.82222223px;font-family:Homenaje;-inkscape-font-specification:'Homenaje Bold';stroke-width:0.26458332"
         id="path912" />
      <path
         d="m 47.546804,91.195867 q 0.160867,0 0.231422,-0.09596 0.07338,-0.09596 0.07338,-0.222955 0,-0.127 -0.04798,-0.214489 -0.04516,-0.09031 -0.115711,-0.141111 -0.07056,-0.05362 -0.1524,-0.115711 -0.08184,-0.06209 -0.1524,-0.118534 -0.07056,-0.05927 -0.118533,-0.158044 -0.04516,-0.09878 -0.04516,-0.225778 0,-0.225778 0.135467,-0.361244 0.135466,-0.135467 0.375355,-0.135467 h 0.2286 v 0.186267 h -0.217311 q -0.135466,0 -0.206022,0.08749 -0.07056,0.08749 -0.07056,0.189089 0,0.1016 0.04516,0.174978 0.04798,0.07338 0.118533,0.121356 0.07056,0.04798 0.1524,0.112889 0.08467,0.06491 0.155223,0.132644 0.07055,0.06491 0.115711,0.1778 0.04798,0.112889 0.04798,0.256822 0,0.265289 -0.1524,0.400756 -0.149577,0.135466 -0.412044,0.135466 h -0.296333 v -0.186266 z"
         style="font-style:normal;font-variant:normal;font-weight:bold;font-stretch:normal;font-size:2.82222223px;font-family:Homenaje;-inkscape-font-specification:'Homenaje Bold';stroke-width:0.26458332"
         id="path914" />
      <path
         d="m 48.375479,91.382133 v -1.975555 h 0.248355 v 1.975555 z"
         style="font-style:normal;font-variant:normal;font-weight:bold;font-stretch:normal;font-size:2.82222223px;font-family:Homenaje;-inkscape-font-specification:'Homenaje Bold';stroke-width:0.26458332"
         id="path916" />
      <path
         d="m 49.282471,91.382133 v -1.789288 h -0.395112 v -0.186267 h 1.038578 v 0.186267 h -0.395111 v 1.789288 z"
         style="font-style:normal;font-variant:normal;font-weight:bold;font-stretch:normal;font-size:2.82222223px;font-family:Homenaje;-inkscape-font-specification:'Homenaje Bold';stroke-width:0.26458332"
         id="path918" />
      <path
         d="m 50.188977,91.382133 v -1.975555 h 0.248356 v 1.975555 z"
         style="font-style:normal;font-variant:normal;font-weight:bold;font-stretch:normal;font-size:2.82222223px;font-family:Homenaje;-inkscape-font-specification:'Homenaje Bold';stroke-width:0.26458332"
         id="path920" />
      <path
         d="m 51.84668,90.893889 q 0,0.239889 -0.138289,0.375356 -0.138289,0.132644 -0.403578,0.132644 -0.262467,0 -0.400756,-0.132644 -0.138288,-0.135467 -0.138288,-0.375356 v -0.999067 q 0,-0.239889 0.138288,-0.372533 0.138289,-0.135467 0.400756,-0.135467 0.265289,0 0.403578,0.135467 0.138289,0.132644 0.138289,0.372533 z m -0.832556,0.04798 q 0,0.129822 0.08184,0.2032 0.08467,0.07055 0.208844,0.07055 0.124178,0 0.208844,-0.07055 0.08467,-0.07338 0.08467,-0.2032 v -1.095022 q 0,-0.129823 -0.08467,-0.200378 -0.08467,-0.07338 -0.208844,-0.07338 -0.124178,0 -0.208844,0.07338 -0.08184,0.07055 -0.08184,0.200378 z"
         style="font-style:normal;font-variant:normal;font-weight:bold;font-stretch:normal;font-size:2.82222223px;font-family:Homenaje;-inkscape-font-specification:'Homenaje Bold';stroke-width:0.26458332"
         id="path922" />
      <path
         d="m 53.276841,91.382133 h -0.3556 L 52.39913,89.5872 v 1.794933 h -0.248356 v -1.975555 h 0.414867 l 0.460022,1.707444 v -1.707444 h 0.251178 z"
         style="font-style:normal;font-variant:normal;font-weight:bold;font-stretch:normal;font-size:2.82222223px;font-family:Homenaje;-inkscape-font-specification:'Homenaje Bold';stroke-width:0.26458332"
         id="path924" />
    </g>
    <g
       aria-label="FW"
       transform="scale(1.0030227,0.99698641)"
       style="font-style:normal;font-variant:normal;font-weight:bold;font-stretch:normal;font-size:3.53844142px;line-height:1.25;font-family:Consolas;-inkscape-font-specification:'Consolas Bold';text-align:start;letter-spacing:0px;word-spacing:0px;text-anchor:start;fill:#00a3f2;fill-opacity:1;stroke:none;stroke-width:0.26538306"
       id="text3885-7">
      <path
         d="m 47.037179,149.37882 q 0.120307,-0.1203 0.191075,-0.2123 0.07431,-0.092 0.113231,-0.16985 0.04246,-0.0778 0.05308,-0.14507 0.01415,-0.0708 0.01415,-0.14862 0,-0.0955 -0.046,-0.23 -0.046,-0.13446 -0.102615,-0.28661 -0.05662,-0.15215 -0.102614,-0.31138 -0.046,-0.15923 -0.046,-0.30431 0,-0.0779 0.02477,-0.15215 0.02831,-0.0743 0.06723,-0.14154 0.04246,-0.0708 0.092,-0.13092 0.04954,-0.0637 0.09908,-0.11323 -0.07077,-0.0142 -0.123845,-0.0212 -0.05308,-0.0106 -0.07785,-0.0106 -0.130922,0 -0.222922,0.0708 -0.08846,0.0672 -0.191076,0.16985 0,-0.12031 0.03538,-0.2477 0.03892,-0.13092 0.116768,-0.23707 0.07785,-0.10615 0.194615,-0.17338 0.120307,-0.0672 0.283075,-0.0672 0.11323,0 0.208768,0.0177 0.09908,0.0142 0.18046,0.0354 0.08139,0.0212 0.148615,0.0389 0.06723,0.0142 0.120307,0.0142 0.08138,0 0.141538,-0.0212 0.06369,-0.0248 0.123845,-0.0849 0,0.0778 -0.03185,0.17693 -0.02831,0.0991 -0.08846,0.19107 -0.05662,0.0885 -0.148614,0.15216 -0.092,0.0601 -0.212307,0.0601 -0.06015,0 -0.137999,-0.007 -0.07431,-0.0106 -0.155692,-0.0248 -0.0071,0.0248 -0.01062,0.046 -0.0035,0.0212 -0.0071,0.0389 -0.0035,0.0212 -0.0035,0.0389 0,0.0778 0.01062,0.15215 0.01415,0.0708 0.03892,0.14508 h 0.714765 l -0.08138,0.24061 q -0.01062,0.046 -0.01415,0.0672 -0.0035,0.0212 -0.01062,0.0672 l -0.130922,-0.092 h -0.36446 q 0.07785,0.17693 0.145076,0.36092 0.06723,0.18046 0.06723,0.38569 0,0.184 -0.07431,0.34323 -0.07431,0.15569 -0.198152,0.27246 -0.120307,0.11677 -0.279537,0.18046 -0.155692,0.0672 -0.321998,0.0672 z"
         style="font-style:normal;font-variant:normal;font-weight:normal;font-stretch:normal;font-family:'Bradley Gratis';-inkscape-font-specification:'Bradley Gratis';text-align:start;text-anchor:start;fill:#00a3f2;fill-opacity:1;stroke-width:0.26538306"
         id="path927" />
      <path
         d="m 49.17014,149.34698 q -0.191076,-0.138 -0.325537,-0.29369 -0.13446,-0.15923 -0.215845,-0.32908 -0.08138,-0.16984 -0.120307,-0.34323 -0.03538,-0.17692 -0.03538,-0.34676 0,-0.16631 0.03538,-0.32908 0.03538,-0.16631 0.092,-0.32554 0.06015,-0.16276 0.137999,-0.31492 0.07785,-0.15569 0.15923,-0.3043 h -0.02123 q -0.01062,0 -0.02477,0 -0.01062,-0.004 -0.02831,-0.004 -0.05661,0 -0.137999,0.0142 -0.07785,0.0142 -0.152153,0.0708 v -0.34677 h 0.743072 q -0.092,0.15923 -0.15923,0.322 -0.06369,0.15923 -0.106153,0.31139 -0.03892,0.14861 -0.06015,0.28307 -0.01769,0.13092 -0.01769,0.23708 0,0.10615 0.02123,0.25476 0.02123,0.14862 0.07785,0.30785 0.06015,0.15569 0.15923,0.29723 0.102614,0.14153 0.265383,0.23 l 0.106153,-0.0779 q -0.06369,-0.12031 -0.09908,-0.23 -0.03538,-0.11323 -0.05308,-0.2123 -0.01415,-0.0991 -0.01769,-0.18047 -0.0035,-0.0849 -0.0035,-0.15215 0,-0.10969 0.02831,-0.24769 0.02831,-0.138 0.08138,-0.28661 0.05308,-0.14862 0.127384,-0.30077 0.07785,-0.15215 0.173384,-0.29723 -0.134461,0 -0.222922,0.0212 -0.08492,0.0212 -0.145076,0.0601 v -0.33969 h 0.764303 q -0.06369,0.0885 -0.127384,0.2017 -0.06015,0.10969 -0.106153,0.24061 -0.046,0.12738 -0.07431,0.27246 -0.02831,0.14508 -0.02831,0.29723 0,0.2583 0.046,0.46 0.046,0.19815 0.127384,0.3503 0.08138,0.15215 0.191076,0.26185 0.109691,0.10969 0.233537,0.18753 v -2.27168 h 0.530766 v 2.12661 q 0,0.0248 -0.03539,0.0708 -0.03538,0.0425 -0.092,0.0991 -0.05308,0.0566 -0.127384,0.12385 -0.07077,0.0637 -0.145076,0.12738 -0.176922,0.14862 -0.399844,0.32554 -0.173383,-0.13446 -0.297229,-0.26538 -0.123845,-0.13093 -0.212306,-0.25477 z"
         style="font-style:normal;font-variant:normal;font-weight:normal;font-stretch:normal;font-family:'Bradley Gratis';-inkscape-font-specification:'Bradley Gratis';text-align:start;text-anchor:start;fill:#00a3f2;fill-opacity:1;stroke-width:0.26538306"
         id="path929" />
    </g>
    <g
       aria-label="TRACKS"
       style="font-style:normal;font-variant:normal;font-weight:bold;font-stretch:normal;font-size:3.52777767px;line-height:1.25;font-family:Homenaje;-inkscape-font-specification:'Homenaje Bold';letter-spacing:0px;word-spacing:0px;fill:#ffffff;fill-opacity:1;stroke:none;stroke-width:0.26458332"
       id="text5443-7-5-4-2-0">
      <path
         d="m 45.727881,128.70567 v -1.78929 H 45.33277 v -0.18626 h 1.038578 v 0.18626 h -0.395112 v 1.78929 z"
         style="font-style:normal;font-variant:normal;font-weight:bold;font-stretch:normal;font-size:2.82222247px;font-family:Homenaje;-inkscape-font-specification:'Homenaje Bold';stroke-width:0.26458332"
         id="path932" />
      <path
         d="m 46.882743,126.91638 v 0.7366 h 0.200378 q 0.160867,0 0.248355,-0.11006 0.09031,-0.11289 0.09031,-0.28787 0,-0.33867 -0.338667,-0.33867 z m -0.0056,0.92287 v 0.86642 h -0.242712 v -1.97555 h 0.522112 q 0.508,0 0.508,0.52493 0,0.19756 -0.0762,0.34431 -0.0762,0.14676 -0.217311,0.2032 l 0.392288,0.90311 h -0.242711 l -0.383822,-0.86642 z"
         style="font-style:normal;font-variant:normal;font-weight:bold;font-stretch:normal;font-size:2.82222247px;font-family:Homenaje;-inkscape-font-specification:'Homenaje Bold';stroke-width:0.26458332"
         id="path934" />
      <path
         d="m 48.319783,126.73012 h 0.375356 l 0.428978,1.97555 h -0.231422 l -0.138289,-0.58137 h -0.513645 l -0.127,0.58137 h -0.239889 z m 0.392289,1.20226 -0.2032,-1.016 h -0.01975 l -0.206022,1.016 z"
         style="font-style:normal;font-variant:normal;font-weight:bold;font-stretch:normal;font-size:2.82222247px;font-family:Homenaje;-inkscape-font-specification:'Homenaje Bold';stroke-width:0.26458332"
         id="path936" />
      <path
         d="m 50.217508,128.51941 v 0.18626 H 49.83933 q -0.256822,0 -0.397934,-0.12982 -0.141111,-0.12982 -0.141111,-0.381 v -0.95391 q 0,-0.25118 0.141111,-0.381 0.141112,-0.12982 0.397934,-0.12982 h 0.378178 v 0.18626 H 49.83933 q -0.129822,0 -0.211667,0.0762 -0.07902,0.0734 -0.07902,0.19756 v 1.05551 q 0,0.12418 0.07902,0.20038 0.08185,0.0734 0.211667,0.0734 z"
         style="font-style:normal;font-variant:normal;font-weight:bold;font-stretch:normal;font-size:2.82222247px;font-family:Homenaje;-inkscape-font-specification:'Homenaje Bold';stroke-width:0.26458332"
         id="path938" />
      <path
         d="m 50.72176,128.70567 h -0.239889 v -1.97555 h 0.239889 v 0.8636 l 0.5842,-0.8636 h 0.245533 l -0.575733,0.88053 0.6604,1.09502 h -0.251178 l -0.553156,-0.92004 -0.110066,0.14111 z"
         style="font-style:normal;font-variant:normal;font-weight:bold;font-stretch:normal;font-size:2.82222247px;font-family:Homenaje;-inkscape-font-specification:'Homenaje Bold';stroke-width:0.26458332"
         id="path940" />
      <path
         d="m 52.12264,128.51941 q 0.160867,0 0.231422,-0.096 0.07338,-0.096 0.07338,-0.22295 0,-0.127 -0.04798,-0.21449 -0.04515,-0.0903 -0.115711,-0.14111 -0.07055,-0.0536 -0.1524,-0.11572 -0.08184,-0.0621 -0.1524,-0.11853 -0.07055,-0.0593 -0.118533,-0.15804 -0.04516,-0.0988 -0.04516,-0.22578 0,-0.22578 0.135467,-0.36125 0.135467,-0.13546 0.375356,-0.13546 h 0.2286 v 0.18626 h -0.217312 q -0.135466,0 -0.206022,0.0875 -0.07055,0.0875 -0.07055,0.18909 0,0.1016 0.04516,0.17498 0.04798,0.0734 0.118534,0.12136 0.07055,0.048 0.1524,0.11288 0.08467,0.0649 0.155222,0.13265 0.07055,0.0649 0.115711,0.1778 0.04798,0.11289 0.04798,0.25682 0,0.26529 -0.1524,0.40076 -0.149578,0.13546 -0.412045,0.13546 h -0.296333 v -0.18626 z"
         style="font-style:normal;font-variant:normal;font-weight:bold;font-stretch:normal;font-size:2.82222247px;font-family:Homenaje;-inkscape-font-specification:'Homenaje Bold';stroke-width:0.26458332"
         id="path942" />
    </g>
  </g>
</svg>
