<?xml version="1.0" encoding="UTF-8" standalone="no"?>
<!-- Created with Inkscape (http://www.inkscape.org/) -->

<svg
   xmlns:dc="http://purl.org/dc/elements/1.1/"
   xmlns:cc="http://creativecommons.org/ns#"
   xmlns:rdf="http://www.w3.org/1999/02/22-rdf-syntax-ns#"
   xmlns:svg="http://www.w3.org/2000/svg"
   xmlns="http://www.w3.org/2000/svg"
   xmlns:xlink="http://www.w3.org/1999/xlink"
   xmlns:sodipodi="http://sodipodi.sourceforge.net/DTD/sodipodi-0.dtd"
   xmlns:inkscape="http://www.inkscape.org/namespaces/inkscape"
   width="90"
   height="380"
   viewBox="0 0 23.812501 100.54167"
   version="1.1"
   id="svg11003"
   inkscape:version="0.92.2 (5c3e80d, 2017-08-06)"
   sodipodi:docname="QuantussyCell.svg">
  <defs
     id="defs10997">
    <linearGradient
       inkscape:collect="always"
       id="linearGradient2777">
      <stop
         style="stop-color:#202022;stop-opacity:1;"
         offset="0"
         id="stop3387" />
      <stop
         style="stop-color:#202025;stop-opacity:1;"
         offset=".3"
         id="stop3388" />
      <stop
         style="stop-color:#08003e;stop-opacity:1;"
         offset="1"
         id="stop3389" />
    </linearGradient>
    <linearGradient
       inkscape:collect="always"
       xlink:href="#linearGradient2777"
       id="linearGradient2779"
       x1="35.219627"
       y1="150.85843"
       x2="35.219627"
       y2="50.462322"
       gradientUnits="userSpaceOnUse"
       gradientTransform="matrix(0.60080194,0,0,1,14.059606,0)" />
  </defs>
  <sodipodi:namedview
     id="base"
     pagecolor="#ffffff"
     bordercolor="#666666"
     borderopacity="1.0"
     inkscape:pageopacity="0.0"
     inkscape:pageshadow="2"
     inkscape:zoom="5.656854"
     inkscape:cx="-158.14095"
     inkscape:cy="231.02465"
     inkscape:document-units="px"
     inkscape:current-layer="layer1"
     showgrid="false"
     fit-margin-top="0"
     fit-margin-left="0"
     fit-margin-right="0"
     fit-margin-bottom="0"
     inkscape:window-width="3840"
     inkscape:window-height="2115"
     inkscape:window-x="-13"
     inkscape:window-y="-13"
     inkscape:window-maximized="1"
     units="px"
     showguides="false" />
  <metadata
     id="metadata11000">
    <rdf:RDF>
      <cc:Work
         rdf:about="">
        <dc:format>image/svg+xml</dc:format>
        <dc:type
           rdf:resource="http://purl.org/dc/dcmitype/StillImage" />
        <dc:title></dc:title>
      </cc:Work>
    </rdf:RDF>
  </metadata>
  <g
     inkscape:label="Layer 1"
     inkscape:groupmode="layer"
     id="layer1"
     transform="translate(-35.146312,-50.389004)">
    <path
       inkscape:connector-curvature="0"
       id="path33493"
       d="M 35.219628,50.462323 H 59.012515 V 150.85843 H 35.219628 Z m 0,0"
       style="fill:url(#linearGradient2779);fill-opacity:1;fill-rule:nonzero;stroke:none;stroke-width:0.21394993"
       inkscape:export-filename="/home/vortico/pics/tmp/LFOs.png"
       inkscape:export-xdpi="150.22649"
       inkscape:export-ydpi="150.22649" />
    <g
       style="font-style:normal;font-weight:normal;font-size:3.52777767px;line-height:1.25;font-family:sans-serif;letter-spacing:0px;word-spacing:0px;fill:#000000;fill-opacity:1;stroke:none;stroke-width:0.26458332"
       id="text5097" />
    <g
       aria-label="FROZEN WASTELAND"
       style="font-style:normal;font-variant:normal;font-weight:bold;font-stretch:normal;font-size:3.52777767px;line-height:1.25;font-family:Consolas;-inkscape-font-specification:'Consolas Bold';text-align:center;letter-spacing:0px;word-spacing:0px;writing-mode:lr-tb;text-anchor:middle;fill:#00a3f2;fill-opacity:1;stroke:none;stroke-width:0.26458332"
       id="text3885-7">
      <path
         d="m 42.009813,142.323 q 0.119945,-0.11994 0.1905,-0.21166 0.07408,-0.0917 0.112889,-0.16934 0.04233,-0.0776 0.05292,-0.14464 0.01411,-0.0705 0.01411,-0.14816 0,-0.0953 -0.04586,-0.22931 -0.04586,-0.13405 -0.102306,-0.28575 -0.05644,-0.15169 -0.102305,-0.31044 -0.04586,-0.15875 -0.04586,-0.30339 0,-0.0776 0.02469,-0.1517 0.02822,-0.0741 0.06703,-0.14111 0.04233,-0.0705 0.09172,-0.13053 0.04939,-0.0635 0.09878,-0.11288 -0.07056,-0.0141 -0.123472,-0.0212 -0.05292,-0.0106 -0.07761,-0.0106 -0.130528,0 -0.22225,0.0705 -0.08819,0.067 -0.1905,0.16933 0,-0.11994 0.03528,-0.24694 0.03881,-0.13053 0.116417,-0.23636 0.07761,-0.10583 0.194028,-0.17286 0.119944,-0.067 0.282222,-0.067 0.112889,0 0.208139,0.0176 0.09878,0.0141 0.179917,0.0353 0.08114,0.0212 0.148166,0.0388 0.06703,0.0141 0.119945,0.0141 0.08114,0 0.141111,-0.0212 0.0635,-0.0247 0.123472,-0.0847 0,0.0776 -0.03175,0.17639 -0.02822,0.0988 -0.08819,0.1905 -0.05644,0.0882 -0.148167,0.15169 -0.09172,0.06 -0.211667,0.06 -0.05997,0 -0.137583,-0.007 -0.07408,-0.0106 -0.155222,-0.0247 -0.0071,0.0247 -0.01058,0.0459 -0.0035,0.0212 -0.0071,0.0388 -0.0035,0.0212 -0.0035,0.0388 0,0.0776 0.01058,0.15169 0.01411,0.0706 0.03881,0.14464 h 0.712611 l -0.08114,0.23989 q -0.01058,0.0459 -0.01411,0.067 -0.0035,0.0212 -0.01058,0.067 l -0.130528,-0.0917 h -0.363361 q 0.07761,0.17639 0.144639,0.35984 0.06703,0.17991 0.06703,0.38452 0,0.18345 -0.07408,0.3422 -0.07408,0.15522 -0.197555,0.27164 -0.119945,0.11641 -0.278695,0.17991 -0.155222,0.067 -0.321028,0.067 z"
         style="font-style:normal;font-variant:normal;font-weight:normal;font-stretch:normal;font-family:'Bradley Gratis';-inkscape-font-specification:'Bradley Gratis';text-align:center;writing-mode:lr-tb;text-anchor:middle;stroke-width:0.26458332"
         id="path23194" />
      <path
         d="m 44.079902,140.59439 q 0.07056,-0.0423 0.137584,-0.0988 0.07055,-0.0564 0.123472,-0.127 0.05644,-0.0705 0.08819,-0.16227 0.03528,-0.0953 0.03528,-0.21167 0,-0.0988 -0.03881,-0.16581 -0.03528,-0.0705 -0.08467,-0.11289 -0.04939,-0.0423 -0.09878,-0.06 -0.04586,-0.0176 -0.07055,-0.0176 -0.02822,0 -0.05292,0.0106 -0.02117,0.0106 -0.03881,0.0247 z m -0.518583,-0.94192 q -0.112889,-0.0635 -0.112889,-0.23636 0.03175,0.0317 0.112889,0.0564 0.08114,0.0212 0.172861,0.0212 0.04586,0 0.130528,-0.0106 0.08467,-0.0141 0.172861,-0.0282 0.09172,-0.0141 0.172861,-0.0247 0.08467,-0.0141 0.130528,-0.0141 0.116417,0 0.232833,0.0353 0.116417,0.0353 0.215195,0.11995 0.09878,0.0847 0.165805,0.2293 0.07056,0.14111 0.09172,0.35983 l -0.627944,0.4445 q 0.07056,0.0282 0.15875,0.0952 0.08819,0.067 0.165805,0.18698 0.08114,0.11994 0.134056,0.30691 0.05292,0.18345 0.05292,0.45156 0,0.23283 0.02117,0.37747 0.02117,0.14464 0.05292,0.23283 0.03175,0.0882 0.06703,0.13053 0.03881,0.0459 0.07055,0.0776 -0.155222,0 -0.275166,-0.0917 -0.119945,-0.0882 -0.211667,-0.23283 -0.09172,-0.14464 -0.162278,-0.32809 -0.06703,-0.18344 -0.123472,-0.37041 -0.05644,-0.18697 -0.105833,-0.35984 -0.04586,-0.17286 -0.09525,-0.29986 -0.0247,0.0176 -0.04939,0.0353 -0.02117,0.0141 -0.03881,0.0317 v 1.31939 h -0.518583 z"
         style="font-style:normal;font-variant:normal;font-weight:normal;font-stretch:normal;font-family:'Bradley Gratis';-inkscape-font-specification:'Bradley Gratis';text-align:center;writing-mode:lr-tb;text-anchor:middle;stroke-width:0.26458332"
         id="path23196" />
      <path
         d="m 45.967649,141.70211 q 0,0.11995 0.01411,0.18698 0.01764,0.067 0.04233,0.1023 0.02822,0.0318 0.0635,0.0388 0.03528,0.007 0.07055,0.007 0.07056,0 0.116417,-0.0952 0.04586,-0.0988 0.04586,-0.29986 v -1.53105 q 0,-0.15875 -0.01764,-0.25753 -0.01411,-0.10231 -0.04233,-0.15522 -0.0247,-0.0565 -0.05997,-0.0776 -0.03175,-0.0212 -0.0635,-0.0212 -0.06703,0 -0.119945,0.0847 -0.04939,0.0811 -0.04939,0.26106 z m 1.005417,-0.88547 q 0,0.25753 -0.06703,0.508 -0.0635,0.25047 -0.176389,0.44803 -0.109361,0.19755 -0.261055,0.32103 -0.151695,0.11994 -0.321028,0.11994 -0.15875,0 -0.310445,-0.10936 -0.148166,-0.10936 -0.264583,-0.29986 -0.112889,-0.1905 -0.183444,-0.4445 -0.07056,-0.254 -0.07056,-0.54328 0,-0.23636 0.0635,-0.4833 0.06703,-0.25048 0.179917,-0.45156 0.112889,-0.20108 0.264583,-0.32808 0.151695,-0.13053 0.321028,-0.13053 0.148167,0 0.292805,0.10936 0.148167,0.10936 0.264584,0.29986 0.119944,0.18697 0.194027,0.44097 0.07408,0.254 0.07408,0.54328 z"
         style="font-style:normal;font-variant:normal;font-weight:normal;font-stretch:normal;font-family:'Bradley Gratis';-inkscape-font-specification:'Bradley Gratis';text-align:center;writing-mode:lr-tb;text-anchor:middle;stroke-width:0.26458332"
         id="path23198" />
      <path
         d="m 47.127131,142.17484 q 0.04586,-0.27164 0.130527,-0.51153 0.08819,-0.23989 0.194028,-0.45861 0.105833,-0.21873 0.218722,-0.41628 0.116417,-0.20108 0.218722,-0.38806 0.102306,-0.18697 0.179917,-0.36336 0.07761,-0.17991 0.112889,-0.35983 -0.02822,-0.0176 -0.06703,-0.0317 -0.03528,-0.0141 -0.137583,-0.0141 -0.05292,0 -0.09525,0.0282 -0.03881,0.0247 -0.06703,0.0635 -0.02822,0.0353 -0.04586,0.0776 -0.01411,0.0388 -0.01411,0.0635 0,0.0282 0.01058,0.067 0.01411,0.0353 0.02822,0.0705 0.01764,0.0353 0.03528,0.067 0.01764,0.0282 0.03175,0.0423 l -0.430389,0.26811 q -0.08467,-0.0811 -0.144638,-0.19756 -0.05645,-0.11994 -0.05645,-0.23989 0,-0.06 0.03175,-0.14816 0.03175,-0.0882 0.102306,-0.16934 0.07055,-0.0847 0.183444,-0.14111 0.116417,-0.06 0.282222,-0.06 0.130528,0 0.218722,0.0176 0.08819,0.0176 0.155223,0.0423 0.06703,0.0212 0.123472,0.0388 0.05997,0.0176 0.134055,0.0176 0.04586,0 0.09878,-0.007 0.05292,-0.007 0.09878,-0.0212 0.04586,-0.0141 0.08114,-0.0282 0.0388,-0.0176 0.05997,-0.0388 -0.04233,0.22225 -0.134055,0.46213 -0.09172,0.23989 -0.204612,0.47978 -0.109361,0.23989 -0.232833,0.4692 -0.119944,0.2293 -0.22225,0.43039 -0.09878,0.19755 -0.169333,0.35983 -0.06703,0.15875 -0.07408,0.26105 0.141112,0.06 0.239889,0.06 0.0635,0 0.130528,-0.0141 0.06703,-0.0176 0.119945,-0.0529 0.05644,-0.0353 0.09172,-0.0882 0.03528,-0.0564 0.03528,-0.13405 0,-0.0776 -0.01764,-0.127 -0.01411,-0.0529 -0.03881,-0.0847 -0.02469,-0.0353 -0.05644,-0.06 -0.03175,-0.0282 -0.05997,-0.0564 l 0.405695,-0.29987 q 0.141111,0.10584 0.201083,0.22578 0.05997,0.11995 0.05997,0.26106 0,0.067 -0.02117,0.13053 -0.01764,0.06 -0.04586,0.11288 -0.0247,0.0494 -0.05997,0.0917 -0.03175,0.0423 -0.05644,0.067 l 0.05997,0.06 q 0.01764,0.0176 0.03881,0.0529 0.02117,0.0318 0.02117,0.0565 0,0.0282 -0.02469,0.0811 -0.02117,0.0564 -0.08819,0.0988 -0.0247,-0.0318 -0.05645,-0.0564 -0.02822,-0.0212 -0.05997,-0.0388 -0.03175,-0.0176 -0.06703,-0.0176 z"
         style="font-style:normal;font-variant:normal;font-weight:normal;font-stretch:normal;font-family:'Bradley Gratis';-inkscape-font-specification:'Bradley Gratis';text-align:center;writing-mode:lr-tb;text-anchor:middle;stroke-width:0.26458332"
         id="path23200" />
      <path
         d="m 50.633466,139.44786 v 0.381 q -0.03881,-0.0353 -0.102306,-0.0776 -0.05997,-0.0423 -0.130527,-0.0741 -0.06703,-0.0353 -0.134056,-0.0564 -0.06703,-0.0247 -0.112889,-0.0247 -0.08467,0 -0.172861,0.067 -0.08819,0.067 -0.144639,0.17991 -0.05644,0.10937 -0.07408,0.28928 -0.01411,0.17639 -0.01411,0.45509 h 0.903111 l -0.179917,0.40216 q -0.03528,-0.0529 -0.08467,-0.0705 -0.04586,-0.0212 -0.08467,-0.0212 h -0.553861 q 0,0.20108 0.0071,0.39511 0.0071,0.1905 0.04586,0.3422 0.04233,0.15169 0.127,0.24694 0.08467,0.0917 0.243417,0.0917 0.08467,0 0.165806,-0.0317 0.08467,-0.0318 0.155222,-0.0776 0.07055,-0.0494 0.123472,-0.1023 0.05644,-0.0529 0.08819,-0.0952 v 0.508 h -0.47625 q -0.342195,0 -0.553862,-0.11995 -0.211666,-0.12347 -0.331611,-0.32808 -0.116416,-0.20814 -0.15875,-0.47978 -0.0388,-0.27164 -0.0388,-0.56797 0,-0.0741 0.01058,-0.19403 0.01058,-0.12347 0.04586,-0.25753 0.03528,-0.13758 0.102306,-0.27516 0.06703,-0.14112 0.179916,-0.25048 0.116417,-0.11289 0.28575,-0.18344 0.169334,-0.0706 0.409223,-0.0706 z"
         style="font-style:normal;font-variant:normal;font-weight:normal;font-stretch:normal;font-family:'Bradley Gratis';-inkscape-font-specification:'Bradley Gratis';text-align:center;writing-mode:lr-tb;text-anchor:middle;stroke-width:0.26458332"
         id="path23202" />
      <path
         d="m 51.019868,142.17484 v -2.4377 q 0,-0.0988 -0.04233,-0.1658 -0.04233,-0.0706 -0.08467,-0.12348 h 0.684389 v 0.35984 l 0.391583,-0.45509 q 0.179917,0.16228 0.296333,0.32456 0.116417,0.15875 0.183445,0.32103 0.06703,0.15875 0.09172,0.32455 0.0247,0.16228 0.0247,0.33514 0,0.16933 -0.02822,0.32456 -0.02469,0.15169 -0.07408,0.29986 -0.04939,0.14816 -0.119944,0.29986 -0.06703,0.15169 -0.148167,0.3175 h 0.127 q 0.04586,0 0.09525,-0.0317 0.04939,-0.0317 0.09878,-0.0317 v 0.33867 h -0.684389 q 0.09525,-0.19403 0.151694,-0.34925 0.05997,-0.15523 0.09172,-0.29634 0.03175,-0.14111 0.04233,-0.27516 0.01058,-0.13406 0.01058,-0.28575 0,-0.1517 -0.05292,-0.31398 -0.04939,-0.1658 -0.123473,-0.30339 -0.07408,-0.13758 -0.15875,-0.22577 -0.08114,-0.0882 -0.148166,-0.0882 -0.04233,0 -0.06703,0.0212 v 2.11667 z"
         style="font-style:normal;font-variant:normal;font-weight:normal;font-stretch:normal;font-family:'Bradley Gratis';-inkscape-font-specification:'Bradley Gratis';text-align:center;writing-mode:lr-tb;text-anchor:middle;stroke-width:0.26458332"
         id="path23204" />
      <path
         d="m 39.092727,147.08143 q -0.1905,-0.13758 -0.324555,-0.29281 -0.134056,-0.15875 -0.215195,-0.32808 -0.08114,-0.16933 -0.119944,-0.34219 -0.03528,-0.17639 -0.03528,-0.34573 0,-0.1658 0.03528,-0.32808 0.03528,-0.1658 0.09172,-0.32455 0.05997,-0.16228 0.137583,-0.31398 0.07761,-0.15522 0.15875,-0.30339 h -0.02117 q -0.01058,0 -0.0247,0 -0.01058,-0.004 -0.02822,-0.004 -0.05645,0 -0.137583,0.0141 -0.07761,0.0141 -0.151695,0.0706 v -0.34572 h 0.740833 q -0.09172,0.15875 -0.15875,0.32103 -0.0635,0.15875 -0.105833,0.31044 -0.0388,0.14817 -0.05997,0.28223 -0.01764,0.13052 -0.01764,0.23636 0,0.10583 0.02117,0.254 0.02117,0.14816 0.07761,0.30691 0.05997,0.15523 0.15875,0.29634 0.102305,0.14111 0.264583,0.2293 l 0.105833,-0.0776 q -0.0635,-0.11994 -0.09878,-0.2293 -0.03528,-0.11289 -0.05292,-0.21167 -0.01411,-0.0988 -0.01764,-0.17992 -0.0035,-0.0847 -0.0035,-0.15169 0,-0.10936 0.02822,-0.24695 0.02822,-0.13758 0.08114,-0.28575 0.05292,-0.14816 0.127,-0.29986 0.07761,-0.15169 0.172862,-0.29633 -0.134056,0 -0.22225,0.0212 -0.08467,0.0212 -0.144639,0.06 v -0.33867 h 0.762 q -0.0635,0.0882 -0.127,0.20108 -0.05997,0.10937 -0.105834,0.23989 -0.04586,0.127 -0.07408,0.27164 -0.02822,0.14464 -0.02822,0.29634 0,0.25752 0.04586,0.45861 0.04586,0.19755 0.127,0.34925 0.08114,0.15169 0.1905,0.26105 0.109361,0.10936 0.232833,0.18697 v -2.26483 h 0.529167 v 2.1202 q 0,0.0247 -0.03528,0.0705 -0.03528,0.0423 -0.09172,0.0988 -0.05292,0.0564 -0.127,0.12347 -0.07056,0.0635 -0.144639,0.127 -0.176389,0.14817 -0.398639,0.32456 -0.172861,-0.13406 -0.296333,-0.26459 -0.123472,-0.13052 -0.211667,-0.254 z"
         style="font-style:normal;font-variant:normal;font-weight:normal;font-stretch:normal;font-family:'Bradley Gratis';-inkscape-font-specification:'Bradley Gratis';text-align:center;writing-mode:lr-tb;text-anchor:middle;stroke-width:0.26458332"
         id="path23206" />
      <path
         d="m 42.344787,145.26815 v -0.87841 h -0.416278 q -0.0035,0.23636 -0.01411,0.46919 -0.0071,0.22931 -0.01764,0.40922 z m 0.719667,-1.03011 q -0.03881,0.0282 -0.07408,0.0706 -0.03175,0.0423 -0.05644,0.0917 -0.02117,0.0459 -0.03528,0.0917 -0.01411,0.0423 -0.01411,0.0741 v 2.39889 h -0.53975 v -1.32997 h -0.472722 q -0.0035,0.127 -0.03528,0.2787 -0.03175,0.14816 -0.08819,0.29986 -0.05292,0.14816 -0.127,0.28927 -0.07055,0.13759 -0.162277,0.24342 -0.08819,0.10583 -0.1905,0.16933 -0.09878,0.0635 -0.208139,0.0635 -0.07056,0 -0.123472,-0.0423 -0.04939,-0.0423 -0.04939,-0.11994 0,-0.0494 0.03175,-0.0706 0.03175,-0.0247 0.06703,-0.0247 0.03175,0 0.04939,0.0106 0.01764,0.007 0.03175,0.0212 0.01764,0.0106 0.03881,0.0212 0.02117,0.007 0.05997,0.007 0.0635,0 0.102306,-0.0635 0.03881,-0.067 0.0635,-0.17639 0.02469,-0.11289 0.03528,-0.25753 0.01411,-0.14816 0.02117,-0.31044 0.0071,-0.16228 0.01764,-0.32809 0.01058,-0.16933 0.02822,-0.32455 0.02117,-0.18345 0.0635,-0.33514 0.04586,-0.15169 0.09525,-0.26811 0.04939,-0.11642 0.09878,-0.19756 0.04939,-0.0811 0.08467,-0.13052 h -0.07761 q -0.06703,0 -0.123473,0.0212 -0.05644,0.0176 -0.102305,0.0423 -0.04233,0.0212 -0.07761,0.0423 -0.03175,0.0176 -0.05644,0.0176 -0.05997,0 -0.08819,-0.0423 -0.02822,-0.0423 -0.02822,-0.0952 0,-0.0494 0.05292,-0.0917 0.05645,-0.0459 0.155222,-0.0459 z"
         style="font-style:normal;font-variant:normal;font-weight:normal;font-stretch:normal;font-family:'Bradley Gratis';-inkscape-font-specification:'Bradley Gratis';text-align:center;writing-mode:lr-tb;text-anchor:middle;stroke-width:0.26458332"
         id="path23208" />
      <path
         d="m 43.844644,147.08849 q -0.08114,-0.0811 -0.186972,-0.15875 -0.102306,-0.0776 -0.201084,-0.13759 -0.09525,-0.06 -0.169333,-0.1023 -0.07055,-0.0423 -0.08114,-0.0529 0.03528,-0.0423 0.08819,-0.11642 0.05292,-0.0776 0.102305,-0.15169 0.05292,-0.0741 0.09172,-0.13053 0.04233,-0.06 0.05292,-0.0705 0.04939,0.0317 0.134056,0.0882 0.08819,0.0529 0.172861,0.11289 0.08819,0.06 0.15875,0.10936 0.07055,0.0494 0.09172,0.0706 0.04939,-0.0282 0.08114,-0.0741 0.03528,-0.0459 0.03528,-0.14816 0,-0.0882 -0.07408,-0.18698 -0.07055,-0.0988 -0.176389,-0.20814 -0.105833,-0.10936 -0.232833,-0.2293 -0.127,-0.11995 -0.232833,-0.24695 -0.105834,-0.127 -0.179917,-0.25752 -0.07055,-0.13053 -0.07055,-0.26811 0,-0.0988 0.04939,-0.18345 0.05292,-0.0882 0.130528,-0.16228 0.07761,-0.0776 0.169334,-0.13758 0.09525,-0.0635 0.179916,-0.11642 0.08819,-0.0564 0.155222,-0.0988 0.06703,-0.0459 0.09525,-0.0811 0.02117,0.0176 0.09172,0.0882 0.07408,0.067 0.15875,0.14464 0.08467,0.0776 0.15875,0.13758 0.07761,0.06 0.102305,0.06 -0.03528,0.0282 -0.08819,0.0847 -0.04939,0.0529 -0.102306,0.11289 -0.04939,0.06 -0.09172,0.11642 -0.03881,0.0529 -0.05644,0.0811 -0.08114,-0.0353 -0.162278,-0.10584 -0.08114,-0.0705 -0.148167,-0.13758 -0.06703,-0.067 -0.112889,-0.11642 -0.04586,-0.0529 -0.05997,-0.0529 -0.02822,0 -0.04939,0.0317 -0.01764,0.0282 -0.01764,0.067 0,0.0847 0.07408,0.17992 0.07761,0.0953 0.186972,0.20461 0.112889,0.10584 0.243416,0.22578 0.134056,0.11642 0.243417,0.24342 0.112889,0.127 0.186972,0.26458 0.07761,0.13406 0.07761,0.27517 0,0.127 -0.09525,0.26811 -0.09525,0.14111 -0.229305,0.28222 -0.130528,0.13758 -0.268111,0.26458 -0.137584,0.12348 -0.225778,0.21873 z"
         style="font-style:normal;font-variant:normal;font-weight:normal;font-stretch:normal;font-family:'Bradley Gratis';-inkscape-font-specification:'Bradley Gratis';text-align:center;writing-mode:lr-tb;text-anchor:middle;stroke-width:0.26458332"
         id="path23210" />
      <path
         d="m 46.329632,146.48876 q 0,0.13759 -0.05644,0.23989 -0.05644,0.0988 -0.148167,0.16228 -0.08819,0.0635 -0.197555,0.0952 -0.109361,0.0318 -0.215195,0.0318 -0.165805,0 -0.324555,-0.0811 -0.15875,-0.0811 -0.28575,-0.21872 -0.127,-0.14111 -0.204611,-0.32808 -0.07761,-0.1905 -0.07761,-0.40923 0,-0.39158 0.179917,-0.72672 0.179917,-0.33867 0.500945,-0.61383 -0.02822,-0.004 -0.05292,-0.004 -0.02117,-0.004 -0.04586,-0.004 -0.08467,0 -0.179917,0.0282 -0.09525,0.0282 -0.179917,0.0741 -0.08467,0.0423 -0.155222,0.0953 -0.06703,0.0529 -0.102305,0.0988 0.02822,-0.13759 0.105833,-0.27164 0.07761,-0.13406 0.194028,-0.23636 0.116416,-0.10231 0.268111,-0.16581 0.151694,-0.0635 0.331611,-0.0635 0.09172,0 0.194028,0.0282 0.102305,0.0282 0.194028,0.0741 0.09525,0.0423 0.169333,0.0952 0.07408,0.0529 0.112889,0.1023 l -0.289278,0.44097 q -0.176389,-0.17286 -0.381,-0.24694 -0.04586,0.0741 -0.09525,0.17639 -0.04939,0.0988 -0.09172,0.22578 -0.03881,0.127 -0.06703,0.28222 -0.02469,0.15169 -0.02469,0.33161 0,0.16933 0.02469,0.29986 0.02822,0.13053 0.07056,0.22578 0.04233,0.0952 0.09525,0.15875 0.05644,0.0635 0.112888,0.10583 0.134056,0.0952 0.306917,0.10583 0.07056,0 0.162278,-0.0282 0.09525,-0.0317 0.151694,-0.0811 z"
         style="font-style:normal;font-variant:normal;font-weight:normal;font-stretch:normal;font-family:'Bradley Gratis';-inkscape-font-specification:'Bradley Gratis';text-align:center;writing-mode:lr-tb;text-anchor:middle;stroke-width:0.26458332"
         id="path23212" />
      <path
         d="m 48.097876,144.23804 v 0.381 q -0.0388,-0.0353 -0.102305,-0.0776 -0.05997,-0.0423 -0.130528,-0.0741 -0.06703,-0.0353 -0.134056,-0.0565 -0.06703,-0.0247 -0.112889,-0.0247 -0.08467,0 -0.172861,0.067 -0.08819,0.067 -0.144639,0.17991 -0.05644,0.10936 -0.07408,0.28928 -0.01411,0.17639 -0.01411,0.45508 h 0.903111 l -0.179917,0.40217 q -0.03528,-0.0529 -0.08467,-0.0706 -0.04586,-0.0212 -0.08467,-0.0212 h -0.553861 q 0,0.20108 0.0071,0.39511 0.0071,0.1905 0.04586,0.34219 0.04233,0.1517 0.127,0.24695 0.08467,0.0917 0.243416,0.0917 0.08467,0 0.165806,-0.0317 0.08467,-0.0317 0.155222,-0.0776 0.07056,-0.0494 0.123472,-0.10231 0.05645,-0.0529 0.0882,-0.0952 v 0.508 h -0.47625 q -0.342195,0 -0.553861,-0.11994 -0.211667,-0.12347 -0.331611,-0.32808 -0.116417,-0.20814 -0.15875,-0.47978 -0.03881,-0.27164 -0.03881,-0.56797 0,-0.0741 0.01058,-0.19403 0.01058,-0.12347 0.04586,-0.25753 0.03528,-0.13758 0.102306,-0.27517 0.06703,-0.14111 0.179917,-0.25047 0.116416,-0.11289 0.28575,-0.18344 0.169333,-0.0706 0.409222,-0.0706 z"
         style="font-style:normal;font-variant:normal;font-weight:normal;font-stretch:normal;font-family:'Bradley Gratis';-inkscape-font-specification:'Bradley Gratis';text-align:center;writing-mode:lr-tb;text-anchor:middle;stroke-width:0.26458332"
         id="path23214" />
      <path
         d="m 49.376805,144.93301 q -0.08819,-0.21166 -0.151694,-0.35277 -0.0635,-0.14112 -0.09878,-0.14112 -0.03881,0 -0.05292,0.0353 -0.01058,0.0317 -0.01058,0.0564 v 1.91205 q 0,0.0776 -0.04233,0.16228 -0.04233,0.0847 -0.112889,0.14817 0.130528,0 0.232833,-0.0635 0.102306,-0.067 0.211667,-0.14464 0.112889,-0.0811 0.250472,-0.14464 0.137584,-0.067 0.342195,-0.067 v 0.63147 h -1.594556 q 0.04586,-0.067 0.07761,-0.127 0.03528,-0.06 0.05645,-0.11994 0.02117,-0.06 0.03175,-0.127 0.01058,-0.067 0.01058,-0.14817 v -1.66864 q 0,-0.11289 -0.04233,-0.18344 -0.04233,-0.0741 -0.05997,-0.10231 0.01411,-0.004 0.07056,-0.0247 0.05997,-0.0247 0.144639,-0.0565 0.08467,-0.0317 0.186972,-0.067 0.102306,-0.0353 0.201083,-0.0635 0.09878,-0.0317 0.186973,-0.0494 0.08819,-0.0212 0.144639,-0.0212 0.08819,0 0.165805,0.0494 0.07761,0.0494 0.141111,0.12347 0.0635,0.0741 0.109361,0.16581 0.04586,0.0882 0.07408,0.1658 z"
         style="font-style:normal;font-variant:normal;font-weight:normal;font-stretch:normal;font-family:'Bradley Gratis';-inkscape-font-specification:'Bradley Gratis';text-align:center;writing-mode:lr-tb;text-anchor:middle;stroke-width:0.26458332"
         id="path23216" />
      <path
         d="m 51.556973,145.26815 v -0.87841 h -0.416278 q -0.0035,0.23636 -0.01411,0.46919 -0.0071,0.22931 -0.01764,0.40922 z m 0.719666,-1.03011 q -0.03881,0.0282 -0.07408,0.0706 -0.03175,0.0423 -0.05645,0.0917 -0.02117,0.0459 -0.03528,0.0917 -0.01411,0.0423 -0.01411,0.0741 v 2.39889 h -0.53975 v -1.32997 H 51.08425 q -0.0035,0.127 -0.03528,0.2787 -0.03175,0.14816 -0.08819,0.29986 -0.05292,0.14816 -0.127,0.28927 -0.07055,0.13759 -0.162278,0.24342 -0.08819,0.10583 -0.1905,0.16933 -0.09878,0.0635 -0.208139,0.0635 -0.07055,0 -0.123472,-0.0423 Q 50.1,146.89446 50.1,146.81685 q 0,-0.0494 0.03175,-0.0706 0.03175,-0.0247 0.06703,-0.0247 0.03175,0 0.04939,0.0106 0.01764,0.007 0.03175,0.0212 0.01764,0.0106 0.03881,0.0212 0.02117,0.007 0.05997,0.007 0.0635,0 0.102305,-0.0635 0.03881,-0.067 0.0635,-0.17639 0.0247,-0.11289 0.03528,-0.25753 0.01411,-0.14816 0.02117,-0.31044 0.0071,-0.16228 0.01764,-0.32809 0.01058,-0.16933 0.02822,-0.32455 0.02117,-0.18345 0.0635,-0.33514 0.04586,-0.15169 0.09525,-0.26811 0.04939,-0.11642 0.09878,-0.19756 0.04939,-0.0811 0.08467,-0.13052 h -0.07761 q -0.06703,0 -0.123472,0.0212 -0.05644,0.0176 -0.102306,0.0423 -0.04233,0.0212 -0.07761,0.0423 -0.03175,0.0176 -0.05644,0.0176 -0.05997,0 -0.08819,-0.0423 -0.02822,-0.0423 -0.02822,-0.0952 0,-0.0494 0.05292,-0.0917 0.05644,-0.0459 0.155222,-0.0459 z"
         style="font-style:normal;font-variant:normal;font-weight:normal;font-stretch:normal;font-family:'Bradley Gratis';-inkscape-font-specification:'Bradley Gratis';text-align:center;writing-mode:lr-tb;text-anchor:middle;stroke-width:0.26458332"
         id="path23218" />
      <path
         d="m 52.577051,146.96501 v -2.43769 q 0,-0.0988 -0.04233,-0.16581 -0.04233,-0.0705 -0.08467,-0.12347 h 0.684389 v 0.35983 l 0.391583,-0.45508 q 0.179917,0.16228 0.296334,0.32456 0.116416,0.15875 0.183444,0.32102 0.06703,0.15875 0.09172,0.32456 0.02469,0.16228 0.02469,0.33514 0,0.16933 -0.02822,0.32455 -0.02469,0.1517 -0.07408,0.29987 -0.04939,0.14816 -0.119944,0.29986 -0.06703,0.15169 -0.148167,0.3175 h 0.127 q 0.04586,0 0.09525,-0.0318 0.04939,-0.0317 0.09878,-0.0317 v 0.33866 H 53.38844 q 0.09525,-0.19402 0.151694,-0.34925 0.05997,-0.15522 0.09172,-0.29633 0.03175,-0.14111 0.04233,-0.27517 0.01058,-0.13405 0.01058,-0.28575 0,-0.15169 -0.05292,-0.31397 -0.04939,-0.1658 -0.123473,-0.30339 -0.07408,-0.13758 -0.15875,-0.22578 -0.08114,-0.0882 -0.148166,-0.0882 -0.04233,0 -0.06703,0.0212 v 2.11666 z"
         style="font-style:normal;font-variant:normal;font-weight:normal;font-stretch:normal;font-family:'Bradley Gratis';-inkscape-font-specification:'Bradley Gratis';text-align:center;writing-mode:lr-tb;text-anchor:middle;stroke-width:0.26458332"
         id="path23220" />
      <path
         d="m 54.465955,144.48499 q -0.09172,-0.0388 -0.127,-0.0953 -0.03528,-0.0564 -0.03528,-0.10584 0,-0.0423 0.02822,-0.0529 0.02822,0.0176 0.07761,0.0247 0.04939,0.007 0.112889,0.007 0.03175,0 0.08819,-0.0106 0.05997,-0.0106 0.130528,-0.0212 0.07056,-0.0106 0.144639,-0.0212 0.07761,-0.0106 0.144639,-0.0106 0.162278,0 0.331611,0.0847 0.169333,0.0811 0.303389,0.254 0.134055,0.16934 0.218722,0.43392 0.08819,0.26105 0.08819,0.62442 0,0.30691 -0.05292,0.52916 -0.05292,0.22225 -0.134056,0.37747 -0.08114,0.15523 -0.179916,0.25048 -0.09878,0.0917 -0.194028,0.14464 -0.09172,0.0494 -0.169333,0.067 -0.07408,0.0176 -0.109362,0.0176 -0.05292,0 -0.112888,-0.0141 -0.05997,-0.0141 -0.119945,-0.0317 -0.05644,-0.0176 -0.109361,-0.0317 -0.04939,-0.0141 -0.08467,-0.0141 -0.0388,0 -0.07055,0.0141 -0.03175,0.0106 -0.06703,0.0247 -0.03175,0.0106 -0.07056,0.0247 -0.03881,0.0106 -0.08819,0.0106 -0.01764,0 -0.03881,-0.004 -0.01764,-0.004 -0.03528,-0.0106 -0.01764,-0.007 -0.03528,-0.0176 0.02822,-0.0176 0.05644,-0.06 0.02822,-0.0459 0.05292,-0.0952 0.02822,-0.0529 0.05644,-0.11642 z m 0.518584,2.10255 q 0,0.0741 0.02469,0.11642 0.02822,0.0388 0.05997,0.0564 0.03881,0.0212 0.08467,0.0247 0.08114,0 0.141111,-0.10936 0.0635,-0.10937 0.0635,-0.2787 v -1.54869 q 0,-0.16581 -0.03175,-0.25753 -0.03175,-0.0917 -0.07408,-0.13406 -0.04233,-0.0423 -0.08467,-0.0494 -0.04233,-0.0106 -0.06703,-0.0106 -0.04233,0 -0.08114,0.0564 -0.03528,0.0564 -0.03528,0.14816 z"
         style="font-style:normal;font-variant:normal;font-weight:normal;font-stretch:normal;font-family:'Bradley Gratis';-inkscape-font-specification:'Bradley Gratis';text-align:center;writing-mode:lr-tb;text-anchor:middle;stroke-width:0.26458332"
         id="path23222" />
    </g>
    <path
       style="fill:none;stroke:#000000;stroke-width:0.26458332px;stroke-linecap:butt;stroke-linejoin:miter;stroke-opacity:1"
       d="m 68.655363,121.04327 c 0,0 0,0 0,0 z"
       id="path22517"
       inkscape:connector-curvature="0" />
    <path
       style="fill:none;stroke:#ffffff;stroke-width:0.13229169;stroke-linecap:butt;stroke-linejoin:miter;stroke-miterlimit:4;stroke-dasharray:none;stroke-opacity:1"
       d="m 41.496312,128.3584 h 0.760677 v -1.02526 h 0.628386 v 1.0418 h 0.396875"
       id="path872"
       inkscape:connector-curvature="0" />
    <path
       style="fill:none;stroke:#ffffff;stroke-width:0.13229169;stroke-linecap:butt;stroke-linejoin:miter;stroke-miterlimit:4;stroke-dasharray:none;stroke-opacity:1"
       d="m 51.079228,116.39999 0.529168,-0.95911 0.578776,0.89297"
       id="path870"
       inkscape:connector-curvature="0"
       sodipodi:nodetypes="ccc" />
    <g
       id="g346"
       transform="matrix(0.12402883,0,0,0.12402883,40.710782,111.25012)"
       style="stroke:#ffffff;stroke-width:1.06662023;stroke-miterlimit:4;stroke-dasharray:none;stroke-opacity:1">
      <!-- <text font-size="6pt" letter-spacing="2px" transform="translate(6.5 40)">SIN</text> -->
      <g
         id="g344"
         transform="translate(9,33.5)"
         style="stroke:#ffffff;stroke-width:1.06662023;stroke-miterlimit:4;stroke-dasharray:none;stroke-opacity:1">
        <!-- <rect width="12" height="8" fill="none" stroke-width="1" stroke="#0f0" /> -->
        <path
           style="fill:none;stroke:#ffffff;stroke-width:1.06662023;stroke-miterlimit:4;stroke-dasharray:none;stroke-opacity:1"
           inkscape:connector-curvature="0"
           id="path340"
           d="M 0,4 A 3,4.5 0 0 1 6,4" />
        <path
           style="fill:none;stroke:#ffffff;stroke-width:1.06662023;stroke-miterlimit:4;stroke-dasharray:none;stroke-opacity:1"
           inkscape:connector-curvature="0"
           id="path342"
           d="m 6,4 a 3,4.5 0 0 0 6,0" />
      </g>
    </g>
    <g
       transform="matrix(0.12417689,0,0,0.12417689,49.940412,123.19723)"
       id="g318"
       style="stroke:#ffffff;stroke-width:1.06534851;stroke-miterlimit:4;stroke-dasharray:none;stroke-opacity:1">
      <g
         transform="translate(9,33.5)"
         id="g316"
         style="stroke:#ffffff;stroke-width:1.06534851;stroke-miterlimit:4;stroke-dasharray:none;stroke-opacity:1">
        <path
           inkscape:connector-curvature="0"
           id="polyline314"
           d="M 0,8 12,0 v 8"
           style="fill:none;stroke:#ffffff;stroke-width:1.06534851;stroke-miterlimit:4;stroke-dasharray:none;stroke-opacity:1" />
      </g>
    </g>
    <g
       aria-label="CASTLE IN"
       style="font-style:normal;font-variant:normal;font-weight:bold;font-stretch:normal;font-size:3.52777767px;line-height:1.25;font-family:Consolas;-inkscape-font-specification:'Consolas Bold';text-align:center;letter-spacing:0px;word-spacing:0px;text-anchor:middle;fill:#ffffff;fill-opacity:1;stroke:none;stroke-width:0.26458332"
       id="text7715">
      <path
         d="m 43.471867,77.983991 v 0.186267 H 43.09369 q -0.256823,0 -0.397934,-0.129823 -0.141111,-0.129822 -0.141111,-0.381 v -0.953911 q 0,-0.251178 0.141111,-0.381 0.141111,-0.129822 0.397934,-0.129822 h 0.378177 v 0.186267 H 43.09369 q -0.129823,0 -0.211667,0.0762 -0.07902,0.07338 -0.07902,0.197555 v 1.055511 q 0,0.124178 0.07902,0.200378 0.08184,0.07338 0.211667,0.07338 z"
         style="font-style:normal;font-variant:normal;font-weight:bold;font-stretch:normal;font-size:2.82222223px;font-family:Homenaje;-inkscape-font-specification:'Homenaje Bold';fill:#ffffff;fill-opacity:1;stroke-width:0.26458332"
         id="path9161" />
      <path
         d="m 44.032564,76.194702 h 0.375355 l 0.428978,1.975556 H 44.605475 L 44.467186,77.58888 h -0.513645 l -0.127,0.581378 h -0.239888 z m 0.392289,1.202267 -0.2032,-1.016 h -0.01976 l -0.206022,1.016 z"
         style="font-style:normal;font-variant:normal;font-weight:bold;font-stretch:normal;font-size:2.82222223px;font-family:Homenaje;-inkscape-font-specification:'Homenaje Bold';fill:#ffffff;fill-opacity:1;stroke-width:0.26458332"
         id="path9163" />
      <path
         d="m 45.371488,77.983991 q 0.160866,0 0.231422,-0.09596 0.07338,-0.09596 0.07338,-0.222955 0,-0.127 -0.04798,-0.214489 -0.04516,-0.09031 -0.115711,-0.141111 -0.07056,-0.05362 -0.1524,-0.115711 -0.08185,-0.06209 -0.1524,-0.118534 -0.07056,-0.05927 -0.118534,-0.158044 -0.04515,-0.09878 -0.04515,-0.225778 0,-0.225778 0.135467,-0.361244 0.135466,-0.135467 0.375355,-0.135467 h 0.2286 v 0.186267 h -0.217311 q -0.135467,0 -0.206022,0.08749 -0.07056,0.08749 -0.07056,0.189088 0,0.1016 0.04516,0.174978 0.04798,0.07338 0.118533,0.121356 0.07056,0.04798 0.1524,0.112889 0.08467,0.06491 0.155222,0.132644 0.07056,0.06491 0.115711,0.1778 0.04798,0.112889 0.04798,0.256822 0,0.265289 -0.1524,0.400756 -0.149578,0.135467 -0.412044,0.135467 h -0.296334 v -0.186267 z"
         style="font-style:normal;font-variant:normal;font-weight:bold;font-stretch:normal;font-size:2.82222223px;font-family:Homenaje;-inkscape-font-specification:'Homenaje Bold';fill:#ffffff;fill-opacity:1;stroke-width:0.26458332"
         id="path9165" />
      <path
         d="m 46.445696,78.170258 v -1.789289 h -0.395111 v -0.186267 h 1.038578 v 0.186267 h -0.395112 v 1.789289 z"
         style="font-style:normal;font-variant:normal;font-weight:bold;font-stretch:normal;font-size:2.82222223px;font-family:Homenaje;-inkscape-font-specification:'Homenaje Bold';fill:#ffffff;fill-opacity:1;stroke-width:0.26458332"
         id="path9167" />
      <path
         d="m 47.352203,78.170258 v -1.975556 h 0.248355 v 1.789289 h 0.578556 v 0.186267 z"
         style="font-style:normal;font-variant:normal;font-weight:bold;font-stretch:normal;font-size:2.82222223px;font-family:Homenaje;-inkscape-font-specification:'Homenaje Bold';fill:#ffffff;fill-opacity:1;stroke-width:0.26458332"
         id="path9169" />
      <path
         d="m 48.42156,78.170258 v -1.975556 h 0.860778 v 0.191911 h -0.612422 v 0.632178 h 0.496711 v 0.191911 h -0.496711 v 0.767644 h 0.640644 v 0.191912 z"
         style="font-style:normal;font-variant:normal;font-weight:bold;font-stretch:normal;font-size:2.82222223px;font-family:Homenaje;-inkscape-font-specification:'Homenaje Bold';fill:#ffffff;fill-opacity:1;stroke-width:0.26458332"
         id="path9171" />
      <path
         d="m 50.053157,78.170258 v -1.975556 h 0.248356 v 1.975556 z"
         style="font-style:normal;font-variant:normal;font-weight:bold;font-stretch:normal;font-size:2.82222223px;font-family:Homenaje;-inkscape-font-specification:'Homenaje Bold';fill:#ffffff;fill-opacity:1;stroke-width:0.26458332"
         id="path9173" />
      <path
         d="m 51.818105,78.170258 h -0.3556 l -0.522111,-1.794934 v 1.794934 h -0.248356 v -1.975556 h 0.414867 l 0.460022,1.707444 v -1.707444 h 0.251178 z"
         style="font-style:normal;font-variant:normal;font-weight:bold;font-stretch:normal;font-size:2.82222223px;font-family:Homenaje;-inkscape-font-specification:'Homenaje Bold';fill:#ffffff;fill-opacity:1;stroke-width:0.26458332"
         id="path9175" />
    </g>
    <g
       aria-label="CASTLE OUT"
       style="font-style:normal;font-variant:normal;font-weight:bold;font-stretch:normal;font-size:3.52777767px;line-height:1.25;font-family:Consolas;-inkscape-font-specification:'Consolas Bold';text-align:center;letter-spacing:0px;word-spacing:0px;text-anchor:middle;fill:#ffffff;fill-opacity:1;stroke:none;stroke-width:0.26458332"
       id="text7715-3">
      <path
         d="m 42.942701,90.135068 v 0.186267 h -0.378178 q -0.256822,0 -0.397933,-0.129822 -0.141111,-0.129823 -0.141111,-0.381 v -0.953911 q 0,-0.251178 0.141111,-0.381001 0.141111,-0.129822 0.397933,-0.129822 h 0.378178 v 0.186267 h -0.378178 q -0.129822,0 -0.211667,0.0762 -0.07902,0.07338 -0.07902,0.197555 v 1.055512 q 0,0.124177 0.07902,0.200377 0.08184,0.07338 0.211667,0.07338 z"
         style="font-style:normal;font-variant:normal;font-weight:bold;font-stretch:normal;font-size:2.82222223px;font-family:Homenaje;-inkscape-font-specification:'Homenaje Bold';fill:#ffffff;fill-opacity:1;stroke-width:0.26458332"
         id="path9178" />
      <path
         d="m 43.503397,88.345779 h 0.375356 l 0.428977,1.975556 h -0.231422 l -0.138289,-0.581378 h -0.513644 l -0.127,0.581378 h -0.239889 z m 0.392289,1.202267 -0.2032,-1.016 h -0.01976 l -0.206022,1.016 z"
         style="font-style:normal;font-variant:normal;font-weight:bold;font-stretch:normal;font-size:2.82222223px;font-family:Homenaje;-inkscape-font-specification:'Homenaje Bold';fill:#ffffff;fill-opacity:1;stroke-width:0.26458332"
         id="path9180" />
      <path
         d="m 44.842321,90.135068 q 0.160867,0 0.231422,-0.09596 0.07338,-0.09596 0.07338,-0.222956 0,-0.127 -0.04798,-0.214489 -0.04516,-0.09031 -0.115711,-0.141111 -0.07055,-0.05362 -0.1524,-0.115711 -0.08184,-0.06209 -0.1524,-0.118533 -0.07055,-0.05927 -0.118533,-0.158045 -0.04516,-0.09878 -0.04516,-0.225778 0,-0.225777 0.135467,-0.361244 0.135467,-0.135467 0.375356,-0.135467 h 0.2286 v 0.186267 h -0.217312 q -0.135466,0 -0.206022,0.08749 -0.07055,0.08749 -0.07055,0.189089 0,0.1016 0.04516,0.174978 0.04798,0.07338 0.118534,0.121355 0.07055,0.04798 0.1524,0.112889 0.08467,0.06491 0.155222,0.132644 0.07055,0.06491 0.115711,0.1778 0.04798,0.112889 0.04798,0.256823 0,0.265289 -0.1524,0.400755 -0.149578,0.135467 -0.412045,0.135467 h -0.296333 v -0.186267 z"
         style="font-style:normal;font-variant:normal;font-weight:bold;font-stretch:normal;font-size:2.82222223px;font-family:Homenaje;-inkscape-font-specification:'Homenaje Bold';fill:#ffffff;fill-opacity:1;stroke-width:0.26458332"
         id="path9182" />
      <path
         d="m 45.916529,90.321335 v -1.789289 h -0.395111 v -0.186267 h 1.038578 v 0.186267 h -0.395111 v 1.789289 z"
         style="font-style:normal;font-variant:normal;font-weight:bold;font-stretch:normal;font-size:2.82222223px;font-family:Homenaje;-inkscape-font-specification:'Homenaje Bold';fill:#ffffff;fill-opacity:1;stroke-width:0.26458332"
         id="path9184" />
      <path
         d="m 46.823036,90.321335 v -1.975556 h 0.248355 v 1.789289 h 0.578556 v 0.186267 z"
         style="font-style:normal;font-variant:normal;font-weight:bold;font-stretch:normal;font-size:2.82222223px;font-family:Homenaje;-inkscape-font-specification:'Homenaje Bold';fill:#ffffff;fill-opacity:1;stroke-width:0.26458332"
         id="path9186" />
      <path
         d="m 47.892394,90.321335 v -1.975556 h 0.860778 v 0.191911 h -0.612423 v 0.632178 h 0.496711 v 0.191911 h -0.496711 v 0.767645 h 0.640645 v 0.191911 z"
         style="font-style:normal;font-variant:normal;font-weight:bold;font-stretch:normal;font-size:2.82222223px;font-family:Homenaje;-inkscape-font-specification:'Homenaje Bold';fill:#ffffff;fill-opacity:1;stroke-width:0.26458332"
         id="path9188" />
      <path
         d="m 50.520235,89.83309 q 0,0.239889 -0.138289,0.375356 -0.138288,0.132644 -0.403577,0.132644 -0.262467,0 -0.400756,-0.132644 -0.138289,-0.135467 -0.138289,-0.375356 v -0.999066 q 0,-0.239889 0.138289,-0.372534 0.138289,-0.135466 0.400756,-0.135466 0.265289,0 0.403577,0.135466 0.138289,0.132645 0.138289,0.372534 z m -0.832555,0.04798 q 0,0.129822 0.08184,0.2032 0.08467,0.07056 0.208845,0.07056 0.124177,0 0.208844,-0.07056 0.08467,-0.07338 0.08467,-0.2032 v -1.095022 q 0,-0.129822 -0.08467,-0.200378 -0.08467,-0.07338 -0.208844,-0.07338 -0.124178,0 -0.208845,0.07338 -0.08184,0.07056 -0.08184,0.200378 z"
         style="font-style:normal;font-variant:normal;font-weight:bold;font-stretch:normal;font-size:2.82222223px;font-family:Homenaje;-inkscape-font-specification:'Homenaje Bold';fill:#ffffff;fill-opacity:1;stroke-width:0.26458332"
         id="path9190" />
      <path
         d="m 50.762241,88.345779 h 0.248355 v 1.535289 q 0,0.135467 0.06491,0.206022 0.06773,0.06773 0.186267,0.06773 0.118533,0 0.186267,-0.06773 0.06773,-0.07055 0.06773,-0.206022 v -1.535289 h 0.248356 v 1.487311 q 0,0.508 -0.502356,0.508 -0.499533,0 -0.499533,-0.508 z"
         style="font-style:normal;font-variant:normal;font-weight:bold;font-stretch:normal;font-size:2.82222223px;font-family:Homenaje;-inkscape-font-specification:'Homenaje Bold';fill:#ffffff;fill-opacity:1;stroke-width:0.26458332"
         id="path9192" />
      <path
         d="m 52.338187,90.321335 v -1.789289 h -0.395111 v -0.186267 h 1.038578 v 0.186267 h -0.395111 v 1.789289 z"
         style="font-style:normal;font-variant:normal;font-weight:bold;font-stretch:normal;font-size:2.82222223px;font-family:Homenaje;-inkscape-font-specification:'Homenaje Bold';fill:#ffffff;fill-opacity:1;stroke-width:0.26458332"
         id="path9194" />
    </g>
    <g
       aria-label="CV IN"
       style="font-style:normal;font-variant:normal;font-weight:bold;font-stretch:normal;font-size:3.52777767px;line-height:1.25;font-family:Consolas;-inkscape-font-specification:'Consolas Bold';text-align:center;letter-spacing:0px;word-spacing:0px;text-anchor:middle;fill:#ffffff;fill-opacity:1;stroke:none;stroke-width:0.26458332"
       id="text7715-6">
      <path
         d="m 49.821868,103.11941 v 0.18626 H 49.44369 q -0.256822,0 -0.397933,-0.12982 -0.141111,-0.12982 -0.141111,-0.381 v -0.95391 q 0,-0.25118 0.141111,-0.381 0.141111,-0.12982 0.397933,-0.12982 h 0.378178 v 0.18626 H 49.44369 q -0.129822,0 -0.211666,0.0762 -0.07902,0.0734 -0.07902,0.19756 v 1.05551 q 0,0.12418 0.07902,0.20038 0.08184,0.0734 0.211666,0.0734 z"
         style="font-style:normal;font-variant:normal;font-weight:bold;font-stretch:normal;font-size:2.82222223px;font-family:Homenaje;-inkscape-font-specification:'Homenaje Bold';fill:#ffffff;fill-opacity:1;stroke-width:0.26458332"
         id="path9197" />
      <path
         d="m 50.602698,103.07989 0.389466,-1.74977 h 0.245534 l -0.465667,1.97555 h -0.333022 l -0.474134,-1.97555 h 0.245534 z"
         style="font-style:normal;font-variant:normal;font-weight:bold;font-stretch:normal;font-size:2.82222223px;font-family:Homenaje;-inkscape-font-specification:'Homenaje Bold';fill:#ffffff;fill-opacity:1;stroke-width:0.26458332"
         id="path9199" />
      <path
         d="m 51.954851,103.30567 v -1.97555 h 0.248355 v 1.97555 z"
         style="font-style:normal;font-variant:normal;font-weight:bold;font-stretch:normal;font-size:2.82222223px;font-family:Homenaje;-inkscape-font-specification:'Homenaje Bold';fill:#ffffff;fill-opacity:1;stroke-width:0.26458332"
         id="path9201" />
      <path
         d="m 53.719798,103.30567 h -0.3556 l -0.522111,-1.79493 v 1.79493 h -0.248356 v -1.97555 h 0.414867 l 0.460022,1.70744 v -1.70744 h 0.251178 z"
         style="font-style:normal;font-variant:normal;font-weight:bold;font-stretch:normal;font-size:2.82222223px;font-family:Homenaje;-inkscape-font-specification:'Homenaje Bold';fill:#ffffff;fill-opacity:1;stroke-width:0.26458332"
         id="path9203" />
    </g>
    <g
       aria-label="BASE FREQ"
       style="font-style:normal;font-variant:normal;font-weight:bold;font-stretch:normal;font-size:3.52777767px;line-height:1.25;font-family:Consolas;-inkscape-font-specification:'Consolas Bold';text-align:center;letter-spacing:0px;word-spacing:0px;text-anchor:middle;fill:#ffffff;fill-opacity:1;stroke:none;stroke-width:0.26458332"
       id="text7715-60">
      <path
         d="m 42.009252,62.432841 v 0.640644 h 0.1778 q 0.169334,0 0.262467,-0.08467 0.09313,-0.08749 0.09313,-0.251178 0,-0.3048 -0.3556,-0.3048 z m 0.570089,0.739422 q 0.110067,0.05927 0.180622,0.1778 0.07338,0.118533 0.07338,0.239889 0,0.121356 -0.01129,0.194733 -0.01129,0.07338 -0.0508,0.160867 -0.03669,0.08467 -0.104422,0.141111 -0.1524,0.135467 -0.468489,0.135467 h -0.437444 v -1.975556 h 0.479778 q 0.262466,0 0.392288,0.121356 0.129823,0.118533 0.129823,0.375355 0,0.141111 -0.05362,0.259645 -0.0508,0.115711 -0.129822,0.169333 z m -0.395111,0.8636 q 0.412045,0 0.412045,-0.395111 0,-0.200378 -0.121356,-0.287867 -0.121356,-0.08749 -0.287867,-0.08749 h -0.1778 v 0.770467 z"
         style="font-style:normal;font-variant:normal;font-weight:bold;font-stretch:normal;font-size:2.82222223px;font-family:Homenaje;-inkscape-font-specification:'Homenaje Bold';fill:#ffffff;fill-opacity:1;stroke-width:0.26458332"
         id="path9206" />
      <path
         d="m 43.429756,62.246574 h 0.375356 l 0.428978,1.975556 h -0.231423 l -0.138289,-0.581378 h -0.513644 l -0.127,0.581378 h -0.239889 z m 0.392289,1.202267 -0.2032,-1.016 h -0.01976 l -0.206023,1.016 z"
         style="font-style:normal;font-variant:normal;font-weight:bold;font-stretch:normal;font-size:2.82222223px;font-family:Homenaje;-inkscape-font-specification:'Homenaje Bold';fill:#ffffff;fill-opacity:1;stroke-width:0.26458332"
         id="path9208" />
      <path
         d="m 44.76868,64.035863 q 0.160867,0 0.231422,-0.09596 0.07338,-0.09596 0.07338,-0.222956 0,-0.127 -0.04798,-0.214489 -0.04516,-0.09031 -0.115711,-0.141111 -0.07055,-0.05362 -0.1524,-0.115711 -0.08184,-0.06209 -0.1524,-0.118533 -0.07055,-0.05927 -0.118533,-0.158045 -0.04516,-0.09878 -0.04516,-0.225778 0,-0.225777 0.135467,-0.361244 0.135467,-0.135467 0.375356,-0.135467 h 0.2286 v 0.186267 h -0.217311 q -0.135467,0 -0.206023,0.08749 -0.07055,0.08749 -0.07055,0.189089 0,0.1016 0.04516,0.174977 0.04798,0.07338 0.118534,0.121356 0.07056,0.04798 0.1524,0.112889 0.08467,0.06491 0.155222,0.132644 0.07055,0.06491 0.115711,0.1778 0.04798,0.112889 0.04798,0.256823 0,0.265288 -0.1524,0.400755 -0.149578,0.135467 -0.412045,0.135467 h -0.296333 v -0.186267 z"
         style="font-style:normal;font-variant:normal;font-weight:bold;font-stretch:normal;font-size:2.82222223px;font-family:Homenaje;-inkscape-font-specification:'Homenaje Bold';fill:#ffffff;fill-opacity:1;stroke-width:0.26458332"
         id="path9210" />
      <path
         d="m 45.597355,64.22213 v -1.975556 h 0.860778 v 0.191911 h -0.612422 v 0.632178 h 0.496711 v 0.191911 h -0.496711 v 0.767645 h 0.640644 v 0.191911 z"
         style="font-style:normal;font-variant:normal;font-weight:bold;font-stretch:normal;font-size:2.82222223px;font-family:Homenaje;-inkscape-font-specification:'Homenaje Bold';fill:#ffffff;fill-opacity:1;stroke-width:0.26458332"
         id="path9212" />
      <path
         d="m 47.228953,64.22213 v -1.975556 h 0.832555 v 0.191911 h -0.5842 v 0.677334 h 0.440267 v 0.191911 h -0.440267 v 0.9144 z"
         style="font-style:normal;font-variant:normal;font-weight:bold;font-stretch:normal;font-size:2.82222223px;font-family:Homenaje;-inkscape-font-specification:'Homenaje Bold';fill:#ffffff;fill-opacity:1;stroke-width:0.26458332"
         id="path9214" />
      <path
         d="m 48.574226,62.432841 v 0.7366 h 0.200378 q 0.160867,0 0.248356,-0.110067 0.09031,-0.112889 0.09031,-0.287866 0,-0.338667 -0.338667,-0.338667 z m -0.0056,0.922867 v 0.866422 h -0.242711 v -1.975556 h 0.522111 q 0.508,0 0.508,0.524934 0,0.197555 -0.0762,0.344311 -0.0762,0.146755 -0.217311,0.2032 l 0.392289,0.903111 h -0.242712 l -0.383822,-0.866422 z"
         style="font-style:normal;font-variant:normal;font-weight:bold;font-stretch:normal;font-size:2.82222223px;font-family:Homenaje;-inkscape-font-specification:'Homenaje Bold';fill:#ffffff;fill-opacity:1;stroke-width:0.26458332"
         id="path9216" />
      <path
         d="m 49.714934,64.22213 v -1.975556 h 0.860777 v 0.191911 h -0.612422 v 0.632178 H 50.46 v 0.191911 h -0.496711 v 0.767645 h 0.640645 v 0.191911 z"
         style="font-style:normal;font-variant:normal;font-weight:bold;font-stretch:normal;font-size:2.82222223px;font-family:Homenaje;-inkscape-font-specification:'Homenaje Bold';fill:#ffffff;fill-opacity:1;stroke-width:0.26458332"
         id="path9218" />
      <path
         d="m 51.873183,63.73953 q 0,0.445911 -0.403577,0.499533 v 0.05644 q 0,0.121355 0.03104,0.160866 0.03387,0.04233 0.107244,0.04233 h 0.132645 v 0.1778 h -0.166511 q -0.155222,0 -0.245534,-0.09313 -0.09031,-0.09313 -0.09031,-0.251178 v -0.09313 q -0.400755,-0.05362 -0.400755,-0.499533 v -1.004711 q 0,-0.242711 0.127,-0.375356 0.129822,-0.132644 0.389466,-0.132644 0.262467,0 0.389467,0.132644 0.129822,0.132645 0.129822,0.375356 z m -0.7874,0.04798 q 0,0.132644 0.07338,0.2032 0.07338,0.07055 0.194733,0.07055 0.121356,0 0.194734,-0.07055 0.0762,-0.07056 0.0762,-0.2032 v -1.100667 q 0,-0.132645 -0.0762,-0.2032 -0.07338,-0.07056 -0.194734,-0.07056 -0.121355,0 -0.194733,0.07056 -0.07338,0.07055 -0.07338,0.2032 z"
         style="font-style:normal;font-variant:normal;font-weight:bold;font-stretch:normal;font-size:2.82222223px;font-family:Homenaje;-inkscape-font-specification:'Homenaje Bold';fill:#ffffff;fill-opacity:1;stroke-width:0.26458332"
         id="path9220" />
    </g>
    <g
       aria-label="QUANTUSSY"
       style="font-style:normal;font-variant:normal;font-weight:bold;font-stretch:normal;font-size:3.52777767px;line-height:1.25;font-family:Consolas;-inkscape-font-specification:'Consolas Bold';text-align:center;letter-spacing:0px;word-spacing:0px;text-anchor:middle;fill:#ffffff;fill-opacity:1;stroke:none;stroke-width:0.26458332"
       id="text7715-60-0">
      <path
         d="m 41.332977,53.397273 q 0,0.613128 -0.55492,0.686859 v 0.07761 q 0,0.166864 0.04269,0.221191 0.04657,0.05821 0.147462,0.05821 h 0.182386 v 0.244475 h -0.228953 q -0.213431,0 -0.337608,-0.128059 -0.124178,-0.128058 -0.124178,-0.345369 v -0.128058 q -0.551039,-0.07373 -0.551039,-0.686859 v -1.381478 q 0,-0.333727 0.174625,-0.516113 0.178505,-0.182387 0.535517,-0.182387 0.360891,0 0.535516,0.182387 0.178506,0.182386 0.178506,0.516113 z m -1.082675,0.06597 q 0,0.182386 0.100894,0.2794 0.100895,0.09701 0.267759,0.09701 0.166863,0 0.267758,-0.09701 0.104775,-0.09701 0.104775,-0.2794 v -1.513417 q 0,-0.182386 -0.104775,-0.2794 -0.100895,-0.09701 -0.267758,-0.09701 -0.166864,0 -0.267759,0.09701 -0.100894,0.09701 -0.100894,0.2794 z"
         style="font-style:normal;font-variant:normal;font-weight:bold;font-stretch:normal;font-size:3.88055563px;font-family:Homenaje;-inkscape-font-specification:'Homenaje Bold';fill:#ffffff;fill-opacity:1;stroke-width:0.26458332"
         id="path9223" />
      <path
         d="m 41.66719,51.344459 h 0.341488 v 2.111023 q 0,0.186266 0.08925,0.28328 0.09313,0.09313 0.256117,0.09313 0.162983,0 0.256117,-0.09313 0.09313,-0.09701 0.09313,-0.28328 v -2.111023 h 0.341489 v 2.045053 q 0,0.6985 -0.690739,0.6985 -0.686858,0 -0.686858,-0.6985 z"
         style="font-style:normal;font-variant:normal;font-weight:bold;font-stretch:normal;font-size:3.88055563px;font-family:Homenaje;-inkscape-font-specification:'Homenaje Bold';fill:#ffffff;fill-opacity:1;stroke-width:0.26458332"
         id="path9225" />
      <path
         d="m 43.903966,51.344459 h 0.516114 l 0.589844,2.716389 h -0.318205 l -0.190147,-0.799394 h -0.706261 l -0.174625,0.799394 h -0.329848 z m 0.539397,1.653117 -0.2794,-1.397 h -0.02716 l -0.28328,1.397 z"
         style="font-style:normal;font-variant:normal;font-weight:bold;font-stretch:normal;font-size:3.88055563px;font-family:Homenaje;-inkscape-font-specification:'Homenaje Bold';fill:#ffffff;fill-opacity:1;stroke-width:0.26458332"
         id="path9227" />
      <path
         d="m 46.88587,54.060848 h -0.48895 l -0.717903,-2.468033 v 2.468033 h -0.341489 v -2.716389 h 0.570442 l 0.632531,2.347736 v -2.347736 h 0.345369 z"
         style="font-style:normal;font-variant:normal;font-weight:bold;font-stretch:normal;font-size:3.88055563px;font-family:Homenaje;-inkscape-font-specification:'Homenaje Bold';fill:#ffffff;fill-opacity:1;stroke-width:0.26458332"
         id="path9229" />
      <path
         d="m 47.760147,54.060848 v -2.460272 h -0.543278 v -0.256117 h 1.428045 v 0.256117 h -0.543278 v 2.460272 z"
         style="font-style:normal;font-variant:normal;font-weight:bold;font-stretch:normal;font-size:3.88055563px;font-family:Homenaje;-inkscape-font-specification:'Homenaje Bold';fill:#ffffff;fill-opacity:1;stroke-width:0.26458332"
         id="path9231" />
      <path
         d="m 48.890177,51.344459 h 0.341489 v 2.111023 q 0,0.186266 0.08925,0.28328 0.09313,0.09313 0.256116,0.09313 0.162984,0 0.256117,-0.09313 0.09313,-0.09701 0.09313,-0.28328 v -2.111023 h 0.341489 v 2.045053 q 0,0.6985 -0.690739,0.6985 -0.686858,0 -0.686858,-0.6985 z"
         style="font-style:normal;font-variant:normal;font-weight:bold;font-stretch:normal;font-size:3.88055563px;font-family:Homenaje;-inkscape-font-specification:'Homenaje Bold';fill:#ffffff;fill-opacity:1;stroke-width:0.26458332"
         id="path9233" />
      <path
         d="m 51.095909,53.804732 q 0.221191,0 0.318205,-0.131939 0.100895,-0.131939 0.100895,-0.306564 0,-0.174625 -0.06597,-0.294922 -0.06209,-0.124178 -0.159102,-0.194028 -0.09701,-0.07373 -0.20955,-0.159103 -0.112537,-0.08537 -0.20955,-0.162983 -0.09701,-0.08149 -0.162984,-0.217311 -0.06209,-0.13582 -0.06209,-0.310445 0,-0.310444 0.186267,-0.496711 0.186267,-0.186267 0.516114,-0.186267 h 0.314325 v 0.256117 h -0.298803 q -0.186267,0 -0.28328,0.120297 -0.09701,0.120297 -0.09701,0.259997 0,0.1397 0.06209,0.240595 0.06597,0.100894 0.162983,0.166864 0.09701,0.06597 0.20955,0.155222 0.116417,0.08925 0.21343,0.182386 0.09701,0.08925 0.159103,0.244475 0.06597,0.155222 0.06597,0.353131 0,0.364772 -0.20955,0.551039 -0.20567,0.186266 -0.566561,0.186266 h -0.407459 v -0.256116 z"
         style="font-style:normal;font-variant:normal;font-weight:bold;font-stretch:normal;font-size:3.88055563px;font-family:Homenaje;-inkscape-font-specification:'Homenaje Bold';fill:#ffffff;fill-opacity:1;stroke-width:0.26458332"
         id="path9235" />
      <path
         d="m 52.611751,53.804732 q 0.221192,0 0.318206,-0.131939 0.100894,-0.131939 0.100894,-0.306564 0,-0.174625 -0.06597,-0.294922 -0.06209,-0.124178 -0.159103,-0.194028 -0.09701,-0.07373 -0.20955,-0.159103 -0.112536,-0.08537 -0.20955,-0.162983 -0.09701,-0.08149 -0.162983,-0.217311 -0.06209,-0.13582 -0.06209,-0.310445 0,-0.310444 0.186266,-0.496711 0.186267,-0.186267 0.516114,-0.186267 h 0.314325 v 0.256117 H 52.87951 q -0.186267,0 -0.283281,0.120297 -0.09701,0.120297 -0.09701,0.259997 0,0.1397 0.06209,0.240595 0.06597,0.100894 0.162983,0.166864 0.09701,0.06597 0.20955,0.155222 0.116417,0.08925 0.213431,0.182386 0.09701,0.08925 0.159103,0.244475 0.06597,0.155222 0.06597,0.353131 0,0.364772 -0.20955,0.551039 -0.205669,0.186266 -0.566561,0.186266 h -0.407458 v -0.256116 z"
         style="font-style:normal;font-variant:normal;font-weight:bold;font-stretch:normal;font-size:3.88055563px;font-family:Homenaje;-inkscape-font-specification:'Homenaje Bold';fill:#ffffff;fill-opacity:1;stroke-width:0.26458332"
         id="path9237" />
      <path
         d="m 54.329383,54.060848 h -0.341489 v -1.078794 l -0.547159,-1.637595 h 0.341489 l 0.388056,1.284464 0.395816,-1.284464 h 0.341489 l -0.578202,1.637595 z"
         style="font-style:normal;font-variant:normal;font-weight:bold;font-stretch:normal;font-size:3.88055563px;font-family:Homenaje;-inkscape-font-specification:'Homenaje Bold';fill:#ffffff;fill-opacity:1;stroke-width:0.26458332"
         id="path9239" />
    </g>
    <g
       aria-label="CELL
"
       style="font-style:normal;font-variant:normal;font-weight:bold;font-stretch:normal;font-size:3.52777767px;line-height:1.25;font-family:Consolas;-inkscape-font-specification:'Consolas Bold';text-align:center;letter-spacing:0px;word-spacing:0px;text-anchor:middle;fill:#ffffff;fill-opacity:1;stroke:none;stroke-width:0.26458332"
       id="text7715-60-0-3">
      <path
         d="m 45.882068,57.54122 v 0.256117 h -0.519994 q -0.353131,0 -0.547158,-0.178506 -0.194028,-0.178506 -0.194028,-0.523875 v -1.311628 q 0,-0.345369 0.194028,-0.523875 0.194027,-0.178505 0.547158,-0.178505 h 0.519994 v 0.256116 h -0.519994 q -0.178506,0 -0.291042,0.104775 -0.108655,0.100895 -0.108655,0.271639 v 1.451328 q 0,0.170744 0.108655,0.275519 0.112536,0.100895 0.291042,0.100895 z"
         style="font-style:normal;font-variant:normal;font-weight:bold;font-stretch:normal;font-size:3.88055563px;font-family:Homenaje;-inkscape-font-specification:'Homenaje Bold';fill:#ffffff;fill-opacity:1;stroke-width:0.26458332"
         id="path9242" />
      <path
         d="m 46.245567,57.797337 v -2.716389 h 1.18357 v 0.263877 h -0.842081 v 0.869245 h 0.682978 v 0.263878 h -0.682978 v 1.055511 h 0.880886 v 0.263878 z"
         style="font-style:normal;font-variant:normal;font-weight:bold;font-stretch:normal;font-size:3.88055563px;font-family:Homenaje;-inkscape-font-specification:'Homenaje Bold';fill:#ffffff;fill-opacity:1;stroke-width:0.26458332"
         id="path9244" />
      <path
         d="m 47.905414,57.797337 v -2.716389 h 0.341489 v 2.460272 h 0.795514 v 0.256117 z"
         style="font-style:normal;font-variant:normal;font-weight:bold;font-stretch:normal;font-size:3.88055563px;font-family:Homenaje;-inkscape-font-specification:'Homenaje Bold';fill:#ffffff;fill-opacity:1;stroke-width:0.26458332"
         id="path9246" />
      <path
         d="m 49.375781,57.797337 v -2.716389 h 0.341489 v 2.460272 h 0.795514 v 0.256117 z"
         style="font-style:normal;font-variant:normal;font-weight:bold;font-stretch:normal;font-size:3.88055563px;font-family:Homenaje;-inkscape-font-specification:'Homenaje Bold';fill:#ffffff;fill-opacity:1;stroke-width:0.26458332"
         id="path9248" />
    </g>
  </g>
</svg>
