<?xml version="1.0" encoding="UTF-8" standalone="no"?>
<svg
   xmlns:dc="http://purl.org/dc/elements/1.1/"
   xmlns:cc="http://creativecommons.org/ns#"
   xmlns:rdf="http://www.w3.org/1999/02/22-rdf-syntax-ns#"
   xmlns:svg="http://www.w3.org/2000/svg"
   xmlns="http://www.w3.org/2000/svg"
   xmlns:xlink="http://www.w3.org/1999/xlink"
   xmlns:sodipodi="http://sodipodi.sourceforge.net/DTD/sodipodi-0.dtd"
   xmlns:inkscape="http://www.inkscape.org/namespaces/inkscape"
   sodipodi:docname="QuantussyCell.svg"
   inkscape:version="1.0 (4035a4fb49, 2020-05-01)"
   id="svg11003"
   version="1.1"
   viewBox="0 0 23.812501 100.54167"
   height="380"
   width="90">
  <defs
     id="defs10997">
    <linearGradient
       id="linearGradient2777"
       inkscape:collect="always">
      <stop
         id="stop3387"
         offset="0"
         style="stop-color:#0c1622;stop-opacity:1" />
      <stop
         id="stop3388"
         offset=".3"
         style="stop-color:#161625;stop-opacity:1" />
      <stop
         id="stop3389"
         offset="1"
         style="stop-color:#081f35;stop-opacity:1" />
    </linearGradient>
    <linearGradient
       gradientTransform="matrix(0.60080194,0,0,1,14.059606,0)"
       gradientUnits="userSpaceOnUse"
       y2="50.462322"
       x2="35.219627"
       y1="150.85843"
       x1="35.219627"
       id="linearGradient2779"
       xlink:href="#linearGradient2777"
       inkscape:collect="always" />
  </defs>
  <sodipodi:namedview
     inkscape:document-rotation="0"
     showguides="false"
     units="px"
     inkscape:window-maximized="1"
     inkscape:window-y="-6"
     inkscape:window-x="-6"
     inkscape:window-height="1058"
     inkscape:window-width="1920"
     fit-margin-bottom="0"
     fit-margin-right="0"
     fit-margin-left="0"
     fit-margin-top="0"
     showgrid="false"
     inkscape:current-layer="layer1"
     inkscape:document-units="px"
     inkscape:cy="218.91319"
     inkscape:cx="34.306461"
     inkscape:zoom="2.828427"
     inkscape:pageshadow="2"
     inkscape:pageopacity="0.0"
     borderopacity="1.0"
     bordercolor="#666666"
     pagecolor="#ffffff"
     id="base" />
  <metadata
     id="metadata11000">
    <rdf:RDF>
      <cc:Work
         rdf:about="">
        <dc:format>image/svg+xml</dc:format>
        <dc:type
           rdf:resource="http://purl.org/dc/dcmitype/StillImage" />
        <dc:title></dc:title>
      </cc:Work>
    </rdf:RDF>
  </metadata>
  <g
     transform="translate(-35.146312,-50.389004)"
     id="layer1"
     inkscape:groupmode="layer"
     inkscape:label="Layer 1">
    <path
       inkscape:export-ydpi="150.22649"
       inkscape:export-xdpi="150.22649"
       inkscape:export-filename="/home/vortico/pics/tmp/LFOs.png"
       style="fill:url(#linearGradient2779);fill-opacity:1;fill-rule:nonzero;stroke:none;stroke-width:0.21394993"
       d="M 35.219628,50.462323 H 59.012515 V 150.85843 H 35.219628 Z m 0,0"
       id="path33493"
       inkscape:connector-curvature="0" />
    <g
       id="text5097"
       style="font-style:normal;font-weight:normal;font-size:3.52777767px;line-height:1.25;font-family:sans-serif;letter-spacing:0px;word-spacing:0px;fill:#000000;fill-opacity:1;stroke:none;stroke-width:0.26458332" />
    <g
       id="text3885-7"
       style="font-style:normal;font-variant:normal;font-weight:bold;font-stretch:normal;font-size:3.52777767px;line-height:1.25;font-family:Consolas;-inkscape-font-specification:'Consolas Bold';text-align:center;letter-spacing:0px;word-spacing:0px;writing-mode:lr-tb;text-anchor:middle;fill:#00a3f2;fill-opacity:1;stroke:none;stroke-width:0.26458332"
       aria-label="FROZEN WASTELAND">
      <path
         id="path23194"
         style="font-style:normal;font-variant:normal;font-weight:normal;font-stretch:normal;font-family:'Bradley Gratis';-inkscape-font-specification:'Bradley Gratis';text-align:center;writing-mode:lr-tb;text-anchor:middle;stroke-width:0.26458332"
         d="m 42.009813,142.323 q 0.119945,-0.11994 0.1905,-0.21166 0.07408,-0.0917 0.112889,-0.16934 0.04233,-0.0776 0.05292,-0.14464 0.01411,-0.0705 0.01411,-0.14816 0,-0.0953 -0.04586,-0.22931 -0.04586,-0.13405 -0.102306,-0.28575 -0.05644,-0.15169 -0.102305,-0.31044 -0.04586,-0.15875 -0.04586,-0.30339 0,-0.0776 0.02469,-0.1517 0.02822,-0.0741 0.06703,-0.14111 0.04233,-0.0705 0.09172,-0.13053 0.04939,-0.0635 0.09878,-0.11288 -0.07056,-0.0141 -0.123472,-0.0212 -0.05292,-0.0106 -0.07761,-0.0106 -0.130528,0 -0.22225,0.0705 -0.08819,0.067 -0.1905,0.16933 0,-0.11994 0.03528,-0.24694 0.03881,-0.13053 0.116417,-0.23636 0.07761,-0.10583 0.194028,-0.17286 0.119944,-0.067 0.282222,-0.067 0.112889,0 0.208139,0.0176 0.09878,0.0141 0.179917,0.0353 0.08114,0.0212 0.148166,0.0388 0.06703,0.0141 0.119945,0.0141 0.08114,0 0.141111,-0.0212 0.0635,-0.0247 0.123472,-0.0847 0,0.0776 -0.03175,0.17639 -0.02822,0.0988 -0.08819,0.1905 -0.05644,0.0882 -0.148167,0.15169 -0.09172,0.06 -0.211667,0.06 -0.05997,0 -0.137583,-0.007 -0.07408,-0.0106 -0.155222,-0.0247 -0.0071,0.0247 -0.01058,0.0459 -0.0035,0.0212 -0.0071,0.0388 -0.0035,0.0212 -0.0035,0.0388 0,0.0776 0.01058,0.15169 0.01411,0.0706 0.03881,0.14464 h 0.712611 l -0.08114,0.23989 q -0.01058,0.0459 -0.01411,0.067 -0.0035,0.0212 -0.01058,0.067 l -0.130528,-0.0917 h -0.363361 q 0.07761,0.17639 0.144639,0.35984 0.06703,0.17991 0.06703,0.38452 0,0.18345 -0.07408,0.3422 -0.07408,0.15522 -0.197555,0.27164 -0.119945,0.11641 -0.278695,0.17991 -0.155222,0.067 -0.321028,0.067 z" />
      <path
         id="path23196"
         style="font-style:normal;font-variant:normal;font-weight:normal;font-stretch:normal;font-family:'Bradley Gratis';-inkscape-font-specification:'Bradley Gratis';text-align:center;writing-mode:lr-tb;text-anchor:middle;stroke-width:0.26458332"
         d="m 44.079902,140.59439 q 0.07056,-0.0423 0.137584,-0.0988 0.07055,-0.0564 0.123472,-0.127 0.05644,-0.0705 0.08819,-0.16227 0.03528,-0.0953 0.03528,-0.21167 0,-0.0988 -0.03881,-0.16581 -0.03528,-0.0705 -0.08467,-0.11289 -0.04939,-0.0423 -0.09878,-0.06 -0.04586,-0.0176 -0.07055,-0.0176 -0.02822,0 -0.05292,0.0106 -0.02117,0.0106 -0.03881,0.0247 z m -0.518583,-0.94192 q -0.112889,-0.0635 -0.112889,-0.23636 0.03175,0.0317 0.112889,0.0564 0.08114,0.0212 0.172861,0.0212 0.04586,0 0.130528,-0.0106 0.08467,-0.0141 0.172861,-0.0282 0.09172,-0.0141 0.172861,-0.0247 0.08467,-0.0141 0.130528,-0.0141 0.116417,0 0.232833,0.0353 0.116417,0.0353 0.215195,0.11995 0.09878,0.0847 0.165805,0.2293 0.07056,0.14111 0.09172,0.35983 l -0.627944,0.4445 q 0.07056,0.0282 0.15875,0.0952 0.08819,0.067 0.165805,0.18698 0.08114,0.11994 0.134056,0.30691 0.05292,0.18345 0.05292,0.45156 0,0.23283 0.02117,0.37747 0.02117,0.14464 0.05292,0.23283 0.03175,0.0882 0.06703,0.13053 0.03881,0.0459 0.07055,0.0776 -0.155222,0 -0.275166,-0.0917 -0.119945,-0.0882 -0.211667,-0.23283 -0.09172,-0.14464 -0.162278,-0.32809 -0.06703,-0.18344 -0.123472,-0.37041 -0.05644,-0.18697 -0.105833,-0.35984 -0.04586,-0.17286 -0.09525,-0.29986 -0.0247,0.0176 -0.04939,0.0353 -0.02117,0.0141 -0.03881,0.0317 v 1.31939 h -0.518583 z" />
      <path
         id="path23198"
         style="font-style:normal;font-variant:normal;font-weight:normal;font-stretch:normal;font-family:'Bradley Gratis';-inkscape-font-specification:'Bradley Gratis';text-align:center;writing-mode:lr-tb;text-anchor:middle;stroke-width:0.26458332"
         d="m 45.967649,141.70211 q 0,0.11995 0.01411,0.18698 0.01764,0.067 0.04233,0.1023 0.02822,0.0318 0.0635,0.0388 0.03528,0.007 0.07055,0.007 0.07056,0 0.116417,-0.0952 0.04586,-0.0988 0.04586,-0.29986 v -1.53105 q 0,-0.15875 -0.01764,-0.25753 -0.01411,-0.10231 -0.04233,-0.15522 -0.0247,-0.0565 -0.05997,-0.0776 -0.03175,-0.0212 -0.0635,-0.0212 -0.06703,0 -0.119945,0.0847 -0.04939,0.0811 -0.04939,0.26106 z m 1.005417,-0.88547 q 0,0.25753 -0.06703,0.508 -0.0635,0.25047 -0.176389,0.44803 -0.109361,0.19755 -0.261055,0.32103 -0.151695,0.11994 -0.321028,0.11994 -0.15875,0 -0.310445,-0.10936 -0.148166,-0.10936 -0.264583,-0.29986 -0.112889,-0.1905 -0.183444,-0.4445 -0.07056,-0.254 -0.07056,-0.54328 0,-0.23636 0.0635,-0.4833 0.06703,-0.25048 0.179917,-0.45156 0.112889,-0.20108 0.264583,-0.32808 0.151695,-0.13053 0.321028,-0.13053 0.148167,0 0.292805,0.10936 0.148167,0.10936 0.264584,0.29986 0.119944,0.18697 0.194027,0.44097 0.07408,0.254 0.07408,0.54328 z" />
      <path
         id="path23200"
         style="font-style:normal;font-variant:normal;font-weight:normal;font-stretch:normal;font-family:'Bradley Gratis';-inkscape-font-specification:'Bradley Gratis';text-align:center;writing-mode:lr-tb;text-anchor:middle;stroke-width:0.26458332"
         d="m 47.127131,142.17484 q 0.04586,-0.27164 0.130527,-0.51153 0.08819,-0.23989 0.194028,-0.45861 0.105833,-0.21873 0.218722,-0.41628 0.116417,-0.20108 0.218722,-0.38806 0.102306,-0.18697 0.179917,-0.36336 0.07761,-0.17991 0.112889,-0.35983 -0.02822,-0.0176 -0.06703,-0.0317 -0.03528,-0.0141 -0.137583,-0.0141 -0.05292,0 -0.09525,0.0282 -0.03881,0.0247 -0.06703,0.0635 -0.02822,0.0353 -0.04586,0.0776 -0.01411,0.0388 -0.01411,0.0635 0,0.0282 0.01058,0.067 0.01411,0.0353 0.02822,0.0705 0.01764,0.0353 0.03528,0.067 0.01764,0.0282 0.03175,0.0423 l -0.430389,0.26811 q -0.08467,-0.0811 -0.144638,-0.19756 -0.05645,-0.11994 -0.05645,-0.23989 0,-0.06 0.03175,-0.14816 0.03175,-0.0882 0.102306,-0.16934 0.07055,-0.0847 0.183444,-0.14111 0.116417,-0.06 0.282222,-0.06 0.130528,0 0.218722,0.0176 0.08819,0.0176 0.155223,0.0423 0.06703,0.0212 0.123472,0.0388 0.05997,0.0176 0.134055,0.0176 0.04586,0 0.09878,-0.007 0.05292,-0.007 0.09878,-0.0212 0.04586,-0.0141 0.08114,-0.0282 0.0388,-0.0176 0.05997,-0.0388 -0.04233,0.22225 -0.134055,0.46213 -0.09172,0.23989 -0.204612,0.47978 -0.109361,0.23989 -0.232833,0.4692 -0.119944,0.2293 -0.22225,0.43039 -0.09878,0.19755 -0.169333,0.35983 -0.06703,0.15875 -0.07408,0.26105 0.141112,0.06 0.239889,0.06 0.0635,0 0.130528,-0.0141 0.06703,-0.0176 0.119945,-0.0529 0.05644,-0.0353 0.09172,-0.0882 0.03528,-0.0564 0.03528,-0.13405 0,-0.0776 -0.01764,-0.127 -0.01411,-0.0529 -0.03881,-0.0847 -0.02469,-0.0353 -0.05644,-0.06 -0.03175,-0.0282 -0.05997,-0.0564 l 0.405695,-0.29987 q 0.141111,0.10584 0.201083,0.22578 0.05997,0.11995 0.05997,0.26106 0,0.067 -0.02117,0.13053 -0.01764,0.06 -0.04586,0.11288 -0.0247,0.0494 -0.05997,0.0917 -0.03175,0.0423 -0.05644,0.067 l 0.05997,0.06 q 0.01764,0.0176 0.03881,0.0529 0.02117,0.0318 0.02117,0.0565 0,0.0282 -0.02469,0.0811 -0.02117,0.0564 -0.08819,0.0988 -0.0247,-0.0318 -0.05645,-0.0564 -0.02822,-0.0212 -0.05997,-0.0388 -0.03175,-0.0176 -0.06703,-0.0176 z" />
      <path
         id="path23202"
         style="font-style:normal;font-variant:normal;font-weight:normal;font-stretch:normal;font-family:'Bradley Gratis';-inkscape-font-specification:'Bradley Gratis';text-align:center;writing-mode:lr-tb;text-anchor:middle;stroke-width:0.26458332"
         d="m 50.633466,139.44786 v 0.381 q -0.03881,-0.0353 -0.102306,-0.0776 -0.05997,-0.0423 -0.130527,-0.0741 -0.06703,-0.0353 -0.134056,-0.0564 -0.06703,-0.0247 -0.112889,-0.0247 -0.08467,0 -0.172861,0.067 -0.08819,0.067 -0.144639,0.17991 -0.05644,0.10937 -0.07408,0.28928 -0.01411,0.17639 -0.01411,0.45509 h 0.903111 l -0.179917,0.40216 q -0.03528,-0.0529 -0.08467,-0.0705 -0.04586,-0.0212 -0.08467,-0.0212 h -0.553861 q 0,0.20108 0.0071,0.39511 0.0071,0.1905 0.04586,0.3422 0.04233,0.15169 0.127,0.24694 0.08467,0.0917 0.243417,0.0917 0.08467,0 0.165806,-0.0317 0.08467,-0.0318 0.155222,-0.0776 0.07055,-0.0494 0.123472,-0.1023 0.05644,-0.0529 0.08819,-0.0952 v 0.508 h -0.47625 q -0.342195,0 -0.553862,-0.11995 -0.211666,-0.12347 -0.331611,-0.32808 -0.116416,-0.20814 -0.15875,-0.47978 -0.0388,-0.27164 -0.0388,-0.56797 0,-0.0741 0.01058,-0.19403 0.01058,-0.12347 0.04586,-0.25753 0.03528,-0.13758 0.102306,-0.27516 0.06703,-0.14112 0.179916,-0.25048 0.116417,-0.11289 0.28575,-0.18344 0.169334,-0.0706 0.409223,-0.0706 z" />
      <path
         id="path23204"
         style="font-style:normal;font-variant:normal;font-weight:normal;font-stretch:normal;font-family:'Bradley Gratis';-inkscape-font-specification:'Bradley Gratis';text-align:center;writing-mode:lr-tb;text-anchor:middle;stroke-width:0.26458332"
         d="m 51.019868,142.17484 v -2.4377 q 0,-0.0988 -0.04233,-0.1658 -0.04233,-0.0706 -0.08467,-0.12348 h 0.684389 v 0.35984 l 0.391583,-0.45509 q 0.179917,0.16228 0.296333,0.32456 0.116417,0.15875 0.183445,0.32103 0.06703,0.15875 0.09172,0.32455 0.0247,0.16228 0.0247,0.33514 0,0.16933 -0.02822,0.32456 -0.02469,0.15169 -0.07408,0.29986 -0.04939,0.14816 -0.119944,0.29986 -0.06703,0.15169 -0.148167,0.3175 h 0.127 q 0.04586,0 0.09525,-0.0317 0.04939,-0.0317 0.09878,-0.0317 v 0.33867 h -0.684389 q 0.09525,-0.19403 0.151694,-0.34925 0.05997,-0.15523 0.09172,-0.29634 0.03175,-0.14111 0.04233,-0.27516 0.01058,-0.13406 0.01058,-0.28575 0,-0.1517 -0.05292,-0.31398 -0.04939,-0.1658 -0.123473,-0.30339 -0.07408,-0.13758 -0.15875,-0.22577 -0.08114,-0.0882 -0.148166,-0.0882 -0.04233,0 -0.06703,0.0212 v 2.11667 z" />
      <path
         id="path23206"
         style="font-style:normal;font-variant:normal;font-weight:normal;font-stretch:normal;font-family:'Bradley Gratis';-inkscape-font-specification:'Bradley Gratis';text-align:center;writing-mode:lr-tb;text-anchor:middle;stroke-width:0.26458332"
         d="m 39.092727,147.08143 q -0.1905,-0.13758 -0.324555,-0.29281 -0.134056,-0.15875 -0.215195,-0.32808 -0.08114,-0.16933 -0.119944,-0.34219 -0.03528,-0.17639 -0.03528,-0.34573 0,-0.1658 0.03528,-0.32808 0.03528,-0.1658 0.09172,-0.32455 0.05997,-0.16228 0.137583,-0.31398 0.07761,-0.15522 0.15875,-0.30339 h -0.02117 q -0.01058,0 -0.0247,0 -0.01058,-0.004 -0.02822,-0.004 -0.05645,0 -0.137583,0.0141 -0.07761,0.0141 -0.151695,0.0706 v -0.34572 h 0.740833 q -0.09172,0.15875 -0.15875,0.32103 -0.0635,0.15875 -0.105833,0.31044 -0.0388,0.14817 -0.05997,0.28223 -0.01764,0.13052 -0.01764,0.23636 0,0.10583 0.02117,0.254 0.02117,0.14816 0.07761,0.30691 0.05997,0.15523 0.15875,0.29634 0.102305,0.14111 0.264583,0.2293 l 0.105833,-0.0776 q -0.0635,-0.11994 -0.09878,-0.2293 -0.03528,-0.11289 -0.05292,-0.21167 -0.01411,-0.0988 -0.01764,-0.17992 -0.0035,-0.0847 -0.0035,-0.15169 0,-0.10936 0.02822,-0.24695 0.02822,-0.13758 0.08114,-0.28575 0.05292,-0.14816 0.127,-0.29986 0.07761,-0.15169 0.172862,-0.29633 -0.134056,0 -0.22225,0.0212 -0.08467,0.0212 -0.144639,0.06 v -0.33867 h 0.762 q -0.0635,0.0882 -0.127,0.20108 -0.05997,0.10937 -0.105834,0.23989 -0.04586,0.127 -0.07408,0.27164 -0.02822,0.14464 -0.02822,0.29634 0,0.25752 0.04586,0.45861 0.04586,0.19755 0.127,0.34925 0.08114,0.15169 0.1905,0.26105 0.109361,0.10936 0.232833,0.18697 v -2.26483 h 0.529167 v 2.1202 q 0,0.0247 -0.03528,0.0705 -0.03528,0.0423 -0.09172,0.0988 -0.05292,0.0564 -0.127,0.12347 -0.07056,0.0635 -0.144639,0.127 -0.176389,0.14817 -0.398639,0.32456 -0.172861,-0.13406 -0.296333,-0.26459 -0.123472,-0.13052 -0.211667,-0.254 z" />
      <path
         id="path23208"
         style="font-style:normal;font-variant:normal;font-weight:normal;font-stretch:normal;font-family:'Bradley Gratis';-inkscape-font-specification:'Bradley Gratis';text-align:center;writing-mode:lr-tb;text-anchor:middle;stroke-width:0.26458332"
         d="m 42.344787,145.26815 v -0.87841 h -0.416278 q -0.0035,0.23636 -0.01411,0.46919 -0.0071,0.22931 -0.01764,0.40922 z m 0.719667,-1.03011 q -0.03881,0.0282 -0.07408,0.0706 -0.03175,0.0423 -0.05644,0.0917 -0.02117,0.0459 -0.03528,0.0917 -0.01411,0.0423 -0.01411,0.0741 v 2.39889 h -0.53975 v -1.32997 h -0.472722 q -0.0035,0.127 -0.03528,0.2787 -0.03175,0.14816 -0.08819,0.29986 -0.05292,0.14816 -0.127,0.28927 -0.07055,0.13759 -0.162277,0.24342 -0.08819,0.10583 -0.1905,0.16933 -0.09878,0.0635 -0.208139,0.0635 -0.07056,0 -0.123472,-0.0423 -0.04939,-0.0423 -0.04939,-0.11994 0,-0.0494 0.03175,-0.0706 0.03175,-0.0247 0.06703,-0.0247 0.03175,0 0.04939,0.0106 0.01764,0.007 0.03175,0.0212 0.01764,0.0106 0.03881,0.0212 0.02117,0.007 0.05997,0.007 0.0635,0 0.102306,-0.0635 0.03881,-0.067 0.0635,-0.17639 0.02469,-0.11289 0.03528,-0.25753 0.01411,-0.14816 0.02117,-0.31044 0.0071,-0.16228 0.01764,-0.32809 0.01058,-0.16933 0.02822,-0.32455 0.02117,-0.18345 0.0635,-0.33514 0.04586,-0.15169 0.09525,-0.26811 0.04939,-0.11642 0.09878,-0.19756 0.04939,-0.0811 0.08467,-0.13052 h -0.07761 q -0.06703,0 -0.123473,0.0212 -0.05644,0.0176 -0.102305,0.0423 -0.04233,0.0212 -0.07761,0.0423 -0.03175,0.0176 -0.05644,0.0176 -0.05997,0 -0.08819,-0.0423 -0.02822,-0.0423 -0.02822,-0.0952 0,-0.0494 0.05292,-0.0917 0.05645,-0.0459 0.155222,-0.0459 z" />
      <path
         id="path23210"
         style="font-style:normal;font-variant:normal;font-weight:normal;font-stretch:normal;font-family:'Bradley Gratis';-inkscape-font-specification:'Bradley Gratis';text-align:center;writing-mode:lr-tb;text-anchor:middle;stroke-width:0.26458332"
         d="m 43.844644,147.08849 q -0.08114,-0.0811 -0.186972,-0.15875 -0.102306,-0.0776 -0.201084,-0.13759 -0.09525,-0.06 -0.169333,-0.1023 -0.07055,-0.0423 -0.08114,-0.0529 0.03528,-0.0423 0.08819,-0.11642 0.05292,-0.0776 0.102305,-0.15169 0.05292,-0.0741 0.09172,-0.13053 0.04233,-0.06 0.05292,-0.0705 0.04939,0.0317 0.134056,0.0882 0.08819,0.0529 0.172861,0.11289 0.08819,0.06 0.15875,0.10936 0.07055,0.0494 0.09172,0.0706 0.04939,-0.0282 0.08114,-0.0741 0.03528,-0.0459 0.03528,-0.14816 0,-0.0882 -0.07408,-0.18698 -0.07055,-0.0988 -0.176389,-0.20814 -0.105833,-0.10936 -0.232833,-0.2293 -0.127,-0.11995 -0.232833,-0.24695 -0.105834,-0.127 -0.179917,-0.25752 -0.07055,-0.13053 -0.07055,-0.26811 0,-0.0988 0.04939,-0.18345 0.05292,-0.0882 0.130528,-0.16228 0.07761,-0.0776 0.169334,-0.13758 0.09525,-0.0635 0.179916,-0.11642 0.08819,-0.0564 0.155222,-0.0988 0.06703,-0.0459 0.09525,-0.0811 0.02117,0.0176 0.09172,0.0882 0.07408,0.067 0.15875,0.14464 0.08467,0.0776 0.15875,0.13758 0.07761,0.06 0.102305,0.06 -0.03528,0.0282 -0.08819,0.0847 -0.04939,0.0529 -0.102306,0.11289 -0.04939,0.06 -0.09172,0.11642 -0.03881,0.0529 -0.05644,0.0811 -0.08114,-0.0353 -0.162278,-0.10584 -0.08114,-0.0705 -0.148167,-0.13758 -0.06703,-0.067 -0.112889,-0.11642 -0.04586,-0.0529 -0.05997,-0.0529 -0.02822,0 -0.04939,0.0317 -0.01764,0.0282 -0.01764,0.067 0,0.0847 0.07408,0.17992 0.07761,0.0953 0.186972,0.20461 0.112889,0.10584 0.243416,0.22578 0.134056,0.11642 0.243417,0.24342 0.112889,0.127 0.186972,0.26458 0.07761,0.13406 0.07761,0.27517 0,0.127 -0.09525,0.26811 -0.09525,0.14111 -0.229305,0.28222 -0.130528,0.13758 -0.268111,0.26458 -0.137584,0.12348 -0.225778,0.21873 z" />
      <path
         id="path23212"
         style="font-style:normal;font-variant:normal;font-weight:normal;font-stretch:normal;font-family:'Bradley Gratis';-inkscape-font-specification:'Bradley Gratis';text-align:center;writing-mode:lr-tb;text-anchor:middle;stroke-width:0.26458332"
         d="m 46.329632,146.48876 q 0,0.13759 -0.05644,0.23989 -0.05644,0.0988 -0.148167,0.16228 -0.08819,0.0635 -0.197555,0.0952 -0.109361,0.0318 -0.215195,0.0318 -0.165805,0 -0.324555,-0.0811 -0.15875,-0.0811 -0.28575,-0.21872 -0.127,-0.14111 -0.204611,-0.32808 -0.07761,-0.1905 -0.07761,-0.40923 0,-0.39158 0.179917,-0.72672 0.179917,-0.33867 0.500945,-0.61383 -0.02822,-0.004 -0.05292,-0.004 -0.02117,-0.004 -0.04586,-0.004 -0.08467,0 -0.179917,0.0282 -0.09525,0.0282 -0.179917,0.0741 -0.08467,0.0423 -0.155222,0.0953 -0.06703,0.0529 -0.102305,0.0988 0.02822,-0.13759 0.105833,-0.27164 0.07761,-0.13406 0.194028,-0.23636 0.116416,-0.10231 0.268111,-0.16581 0.151694,-0.0635 0.331611,-0.0635 0.09172,0 0.194028,0.0282 0.102305,0.0282 0.194028,0.0741 0.09525,0.0423 0.169333,0.0952 0.07408,0.0529 0.112889,0.1023 l -0.289278,0.44097 q -0.176389,-0.17286 -0.381,-0.24694 -0.04586,0.0741 -0.09525,0.17639 -0.04939,0.0988 -0.09172,0.22578 -0.03881,0.127 -0.06703,0.28222 -0.02469,0.15169 -0.02469,0.33161 0,0.16933 0.02469,0.29986 0.02822,0.13053 0.07056,0.22578 0.04233,0.0952 0.09525,0.15875 0.05644,0.0635 0.112888,0.10583 0.134056,0.0952 0.306917,0.10583 0.07056,0 0.162278,-0.0282 0.09525,-0.0317 0.151694,-0.0811 z" />
      <path
         id="path23214"
         style="font-style:normal;font-variant:normal;font-weight:normal;font-stretch:normal;font-family:'Bradley Gratis';-inkscape-font-specification:'Bradley Gratis';text-align:center;writing-mode:lr-tb;text-anchor:middle;stroke-width:0.26458332"
         d="m 48.097876,144.23804 v 0.381 q -0.0388,-0.0353 -0.102305,-0.0776 -0.05997,-0.0423 -0.130528,-0.0741 -0.06703,-0.0353 -0.134056,-0.0565 -0.06703,-0.0247 -0.112889,-0.0247 -0.08467,0 -0.172861,0.067 -0.08819,0.067 -0.144639,0.17991 -0.05644,0.10936 -0.07408,0.28928 -0.01411,0.17639 -0.01411,0.45508 h 0.903111 l -0.179917,0.40217 q -0.03528,-0.0529 -0.08467,-0.0706 -0.04586,-0.0212 -0.08467,-0.0212 h -0.553861 q 0,0.20108 0.0071,0.39511 0.0071,0.1905 0.04586,0.34219 0.04233,0.1517 0.127,0.24695 0.08467,0.0917 0.243416,0.0917 0.08467,0 0.165806,-0.0317 0.08467,-0.0317 0.155222,-0.0776 0.07056,-0.0494 0.123472,-0.10231 0.05645,-0.0529 0.0882,-0.0952 v 0.508 h -0.47625 q -0.342195,0 -0.553861,-0.11994 -0.211667,-0.12347 -0.331611,-0.32808 -0.116417,-0.20814 -0.15875,-0.47978 -0.03881,-0.27164 -0.03881,-0.56797 0,-0.0741 0.01058,-0.19403 0.01058,-0.12347 0.04586,-0.25753 0.03528,-0.13758 0.102306,-0.27517 0.06703,-0.14111 0.179917,-0.25047 0.116416,-0.11289 0.28575,-0.18344 0.169333,-0.0706 0.409222,-0.0706 z" />
      <path
         id="path23216"
         style="font-style:normal;font-variant:normal;font-weight:normal;font-stretch:normal;font-family:'Bradley Gratis';-inkscape-font-specification:'Bradley Gratis';text-align:center;writing-mode:lr-tb;text-anchor:middle;stroke-width:0.26458332"
         d="m 49.376805,144.93301 q -0.08819,-0.21166 -0.151694,-0.35277 -0.0635,-0.14112 -0.09878,-0.14112 -0.03881,0 -0.05292,0.0353 -0.01058,0.0317 -0.01058,0.0564 v 1.91205 q 0,0.0776 -0.04233,0.16228 -0.04233,0.0847 -0.112889,0.14817 0.130528,0 0.232833,-0.0635 0.102306,-0.067 0.211667,-0.14464 0.112889,-0.0811 0.250472,-0.14464 0.137584,-0.067 0.342195,-0.067 v 0.63147 h -1.594556 q 0.04586,-0.067 0.07761,-0.127 0.03528,-0.06 0.05645,-0.11994 0.02117,-0.06 0.03175,-0.127 0.01058,-0.067 0.01058,-0.14817 v -1.66864 q 0,-0.11289 -0.04233,-0.18344 -0.04233,-0.0741 -0.05997,-0.10231 0.01411,-0.004 0.07056,-0.0247 0.05997,-0.0247 0.144639,-0.0565 0.08467,-0.0317 0.186972,-0.067 0.102306,-0.0353 0.201083,-0.0635 0.09878,-0.0317 0.186973,-0.0494 0.08819,-0.0212 0.144639,-0.0212 0.08819,0 0.165805,0.0494 0.07761,0.0494 0.141111,0.12347 0.0635,0.0741 0.109361,0.16581 0.04586,0.0882 0.07408,0.1658 z" />
      <path
         id="path23218"
         style="font-style:normal;font-variant:normal;font-weight:normal;font-stretch:normal;font-family:'Bradley Gratis';-inkscape-font-specification:'Bradley Gratis';text-align:center;writing-mode:lr-tb;text-anchor:middle;stroke-width:0.26458332"
         d="m 51.556973,145.26815 v -0.87841 h -0.416278 q -0.0035,0.23636 -0.01411,0.46919 -0.0071,0.22931 -0.01764,0.40922 z m 0.719666,-1.03011 q -0.03881,0.0282 -0.07408,0.0706 -0.03175,0.0423 -0.05645,0.0917 -0.02117,0.0459 -0.03528,0.0917 -0.01411,0.0423 -0.01411,0.0741 v 2.39889 h -0.53975 v -1.32997 H 51.08425 q -0.0035,0.127 -0.03528,0.2787 -0.03175,0.14816 -0.08819,0.29986 -0.05292,0.14816 -0.127,0.28927 -0.07055,0.13759 -0.162278,0.24342 -0.08819,0.10583 -0.1905,0.16933 -0.09878,0.0635 -0.208139,0.0635 -0.07055,0 -0.123472,-0.0423 Q 50.1,146.89446 50.1,146.81685 q 0,-0.0494 0.03175,-0.0706 0.03175,-0.0247 0.06703,-0.0247 0.03175,0 0.04939,0.0106 0.01764,0.007 0.03175,0.0212 0.01764,0.0106 0.03881,0.0212 0.02117,0.007 0.05997,0.007 0.0635,0 0.102305,-0.0635 0.03881,-0.067 0.0635,-0.17639 0.0247,-0.11289 0.03528,-0.25753 0.01411,-0.14816 0.02117,-0.31044 0.0071,-0.16228 0.01764,-0.32809 0.01058,-0.16933 0.02822,-0.32455 0.02117,-0.18345 0.0635,-0.33514 0.04586,-0.15169 0.09525,-0.26811 0.04939,-0.11642 0.09878,-0.19756 0.04939,-0.0811 0.08467,-0.13052 h -0.07761 q -0.06703,0 -0.123472,0.0212 -0.05644,0.0176 -0.102306,0.0423 -0.04233,0.0212 -0.07761,0.0423 -0.03175,0.0176 -0.05644,0.0176 -0.05997,0 -0.08819,-0.0423 -0.02822,-0.0423 -0.02822,-0.0952 0,-0.0494 0.05292,-0.0917 0.05644,-0.0459 0.155222,-0.0459 z" />
      <path
         id="path23220"
         style="font-style:normal;font-variant:normal;font-weight:normal;font-stretch:normal;font-family:'Bradley Gratis';-inkscape-font-specification:'Bradley Gratis';text-align:center;writing-mode:lr-tb;text-anchor:middle;stroke-width:0.26458332"
         d="m 52.577051,146.96501 v -2.43769 q 0,-0.0988 -0.04233,-0.16581 -0.04233,-0.0705 -0.08467,-0.12347 h 0.684389 v 0.35983 l 0.391583,-0.45508 q 0.179917,0.16228 0.296334,0.32456 0.116416,0.15875 0.183444,0.32102 0.06703,0.15875 0.09172,0.32456 0.02469,0.16228 0.02469,0.33514 0,0.16933 -0.02822,0.32455 -0.02469,0.1517 -0.07408,0.29987 -0.04939,0.14816 -0.119944,0.29986 -0.06703,0.15169 -0.148167,0.3175 h 0.127 q 0.04586,0 0.09525,-0.0318 0.04939,-0.0317 0.09878,-0.0317 v 0.33866 H 53.38844 q 0.09525,-0.19402 0.151694,-0.34925 0.05997,-0.15522 0.09172,-0.29633 0.03175,-0.14111 0.04233,-0.27517 0.01058,-0.13405 0.01058,-0.28575 0,-0.15169 -0.05292,-0.31397 -0.04939,-0.1658 -0.123473,-0.30339 -0.07408,-0.13758 -0.15875,-0.22578 -0.08114,-0.0882 -0.148166,-0.0882 -0.04233,0 -0.06703,0.0212 v 2.11666 z" />
      <path
         id="path23222"
         style="font-style:normal;font-variant:normal;font-weight:normal;font-stretch:normal;font-family:'Bradley Gratis';-inkscape-font-specification:'Bradley Gratis';text-align:center;writing-mode:lr-tb;text-anchor:middle;stroke-width:0.26458332"
         d="m 54.465955,144.48499 q -0.09172,-0.0388 -0.127,-0.0953 -0.03528,-0.0564 -0.03528,-0.10584 0,-0.0423 0.02822,-0.0529 0.02822,0.0176 0.07761,0.0247 0.04939,0.007 0.112889,0.007 0.03175,0 0.08819,-0.0106 0.05997,-0.0106 0.130528,-0.0212 0.07056,-0.0106 0.144639,-0.0212 0.07761,-0.0106 0.144639,-0.0106 0.162278,0 0.331611,0.0847 0.169333,0.0811 0.303389,0.254 0.134055,0.16934 0.218722,0.43392 0.08819,0.26105 0.08819,0.62442 0,0.30691 -0.05292,0.52916 -0.05292,0.22225 -0.134056,0.37747 -0.08114,0.15523 -0.179916,0.25048 -0.09878,0.0917 -0.194028,0.14464 -0.09172,0.0494 -0.169333,0.067 -0.07408,0.0176 -0.109362,0.0176 -0.05292,0 -0.112888,-0.0141 -0.05997,-0.0141 -0.119945,-0.0317 -0.05644,-0.0176 -0.109361,-0.0317 -0.04939,-0.0141 -0.08467,-0.0141 -0.0388,0 -0.07055,0.0141 -0.03175,0.0106 -0.06703,0.0247 -0.03175,0.0106 -0.07056,0.0247 -0.03881,0.0106 -0.08819,0.0106 -0.01764,0 -0.03881,-0.004 -0.01764,-0.004 -0.03528,-0.0106 -0.01764,-0.007 -0.03528,-0.0176 0.02822,-0.0176 0.05644,-0.06 0.02822,-0.0459 0.05292,-0.0952 0.02822,-0.0529 0.05644,-0.11642 z m 0.518584,2.10255 q 0,0.0741 0.02469,0.11642 0.02822,0.0388 0.05997,0.0564 0.03881,0.0212 0.08467,0.0247 0.08114,0 0.141111,-0.10936 0.0635,-0.10937 0.0635,-0.2787 v -1.54869 q 0,-0.16581 -0.03175,-0.25753 -0.03175,-0.0917 -0.07408,-0.13406 -0.04233,-0.0423 -0.08467,-0.0494 -0.04233,-0.0106 -0.06703,-0.0106 -0.04233,0 -0.08114,0.0564 -0.03528,0.0564 -0.03528,0.14816 z" />
    </g>
    <path
       inkscape:connector-curvature="0"
       id="path22517"
       d="m 68.655363,121.04327 c 0,0 0,0 0,0 z"
       style="fill:none;stroke:#000000;stroke-width:0.26458332px;stroke-linecap:butt;stroke-linejoin:miter;stroke-opacity:1" />
    <path
       d="m 38.585896,126.7213 h 7.937499 v 8.46666 h -7.937499 z"
       style="opacity:0.981;fill:#0e365d;fill-opacity:1;stroke:#000000;stroke-width:0.264583;stroke-miterlimit:4;stroke-dasharray:none;stroke-opacity:1"
       id="rect22843-2" />
    <path
       inkscape:connector-curvature="0"
       id="path872"
       d="m 41.496312,128.3584 h 0.760677 v -1.02526 h 0.628386 v 1.0418 h 0.396875"
       style="fill:none;stroke:#ffffff;stroke-width:0.13229169;stroke-linecap:butt;stroke-linejoin:miter;stroke-miterlimit:4;stroke-dasharray:none;stroke-opacity:1" />
    <path
       d="m 47.71402,114.41817 h 7.937499 v 8.46666 H 47.71402 Z"
       style="opacity:0.981;fill:#0e365d;fill-opacity:1;stroke:#000000;stroke-width:0.264583;stroke-miterlimit:4;stroke-dasharray:none;stroke-opacity:1"
       id="rect22843-3" />
    <path
       sodipodi:nodetypes="ccc"
       inkscape:connector-curvature="0"
       id="path870"
       d="m 51.079228,116.39999 0.529168,-0.95911 0.578776,0.89297"
       style="fill:none;stroke:#ffffff;stroke-width:0.13229169;stroke-linecap:butt;stroke-linejoin:miter;stroke-miterlimit:4;stroke-dasharray:none;stroke-opacity:1" />
    <path
       d="m 38.585896,114.41817 h 7.937499 v 8.46666 h -7.937499 z"
       style="opacity:0.981;fill:#0e365d;fill-opacity:1;stroke:#000000;stroke-width:0.264583;stroke-miterlimit:4;stroke-dasharray:none;stroke-opacity:1"
       id="rect22843" />
    <g
       style="stroke:#ffffff;stroke-width:1.06662023;stroke-miterlimit:4;stroke-dasharray:none;stroke-opacity:1"
       transform="matrix(0.12402883,0,0,0.12402883,40.710782,111.25012)"
       id="g346">
      <!-- <text font-size="6pt" letter-spacing="2px" transform="translate(6.5 40)">SIN</text> -->
      <g
         style="stroke:#ffffff;stroke-width:1.06662023;stroke-miterlimit:4;stroke-dasharray:none;stroke-opacity:1"
         transform="translate(9,33.5)"
         id="g344">
        <!-- <rect width="12" height="8" fill="none" stroke-width="1" stroke="#0f0" /> -->
        <path
           d="M 0,4 A 3,4.5 0 0 1 6,4"
           id="path340"
           inkscape:connector-curvature="0"
           style="fill:none;stroke:#ffffff;stroke-width:1.06662023;stroke-miterlimit:4;stroke-dasharray:none;stroke-opacity:1" />
        <path
           d="m 6,4 a 3,4.5 0 0 0 6,0"
           id="path342"
           inkscape:connector-curvature="0"
           style="fill:none;stroke:#ffffff;stroke-width:1.06662023;stroke-miterlimit:4;stroke-dasharray:none;stroke-opacity:1" />
      </g>
    </g>
    <path
       d="m 47.71402,126.7213 h 7.937499 v 8.46666 H 47.71402 Z"
       style="opacity:0.981;fill:#0e365d;fill-opacity:1;stroke:#000000;stroke-width:0.264583;stroke-miterlimit:4;stroke-dasharray:none;stroke-opacity:1"
       id="rect22843-2-4" />
    <g
       style="stroke:#ffffff;stroke-width:1.06534851;stroke-miterlimit:4;stroke-dasharray:none;stroke-opacity:1"
       id="g318"
       transform="matrix(0.12417689,0,0,0.12417689,49.940412,123.19723)">
      <g
         style="stroke:#ffffff;stroke-width:1.06534851;stroke-miterlimit:4;stroke-dasharray:none;stroke-opacity:1"
         id="g316"
         transform="translate(9,33.5)">
        <path
           style="fill:none;stroke:#ffffff;stroke-width:1.06534851;stroke-miterlimit:4;stroke-dasharray:none;stroke-opacity:1"
           d="M 0,8 12,0 v 8"
           id="polyline314"
           inkscape:connector-curvature="0" />
      </g>
    </g>
    <g
       style="font-style:normal;font-variant:normal;font-weight:bold;font-stretch:normal;font-size:3.52778px;line-height:1.25;font-family:Consolas;-inkscape-font-specification:'Consolas Bold';text-align:center;letter-spacing:0px;word-spacing:0px;text-anchor:middle;fill:#dddddd;fill-opacity:1;stroke:none;stroke-width:0.264583"
       id="text7715"
       aria-label="IN">
      <path
         id="path15748"
         style="font-style:normal;font-variant:normal;font-weight:normal;font-stretch:normal;font-size:2.82222px;font-family:Quarca;-inkscape-font-specification:Quarca;fill:#dddddd;fill-opacity:1;stroke-width:0.264583"
         d="m 39.051511,90.199974 v -2.003776 h -0.160866 v 2.003776 z" />
      <path
         id="path15750"
         style="font-style:normal;font-variant:normal;font-weight:normal;font-stretch:normal;font-size:2.82222px;font-family:Quarca;-inkscape-font-specification:Quarca;fill:#dddddd;fill-opacity:1;stroke-width:0.264583"
         d="m 39.591702,90.199974 v -1.724376 c 0.04233,0.09313 0.07902,0.186266 0.146755,0.301977 l 0.824089,1.422399 h 0.163688 v -2.003776 h -0.163688 v 1.721554 c -0.03104,-0.07338 -0.05927,-0.143933 -0.112889,-0.237066 l -0.857955,-1.484488 h -0.160867 v 2.003776 z" />
    </g>
    <g
       style="font-style:normal;font-variant:normal;font-weight:bold;font-stretch:normal;font-size:3.52778px;line-height:1.25;font-family:Consolas;-inkscape-font-specification:'Consolas Bold';text-align:center;letter-spacing:0px;word-spacing:0px;text-anchor:middle;fill:#dddddd;fill-opacity:1;stroke:none;stroke-width:0.264583"
       id="text7715-3"
       aria-label="CASTLE">
      <path
         id="path15735"
         style="font-style:normal;font-variant:normal;font-weight:normal;font-stretch:normal;font-size:2.82222px;font-family:Quarca;-inkscape-font-specification:Quarca;fill:#dddddd;fill-opacity:1;stroke-width:0.264583"
         d="m 43.334375,89.110601 c -0.1778,0 -0.242711,-0.08467 -0.242711,-0.262467 v -1.174043 c 0,-0.1778 0.06491,-0.262467 0.242711,-0.262467 h 0.457199 c 0.1778,0 0.242711,0.08467 0.242711,0.262467 v 0.183444 h 0.160867 v -0.208844 c 0,-0.259645 -0.09878,-0.389467 -0.386644,-0.389467 h -0.491067 c -0.287866,0 -0.386644,0.129822 -0.386644,0.389467 v 1.224843 c 0,0.259644 0.09878,0.389466 0.386644,0.389466 h 0.491067 c 0.287866,0 0.386644,-0.129822 0.386644,-0.389466 v -0.214489 h -0.160867 v 0.189089 c 0,0.1778 -0.06491,0.262467 -0.242711,0.262467 z" />
      <path
         id="path15737"
         style="font-style:normal;font-variant:normal;font-weight:normal;font-stretch:normal;font-size:2.82222px;font-family:Quarca;-inkscape-font-specification:Quarca;fill:#dddddd;fill-opacity:1;stroke-width:0.264583"
         d="M 44.965265,87.259224 44.347199,89.263 h 0.172155 l 0.129822,-0.434621 h 0.807155 L 45.586153,89.263 h 0.172156 l -0.615244,-2.003776 z m 0.09031,0.214489 0.3556,1.202266 h -0.716844 z" />
      <path
         id="path15739"
         style="font-style:normal;font-variant:normal;font-weight:normal;font-stretch:normal;font-size:2.82222px;font-family:Quarca;-inkscape-font-specification:Quarca;fill:#dddddd;fill-opacity:1;stroke-width:0.264583"
         d="m 46.783745,88.430446 c 0.141111,0.05927 0.1778,0.107244 0.1778,0.245533 v 0.194733 c 0,0.169333 -0.07056,0.239889 -0.231422,0.239889 h -0.426155 c -0.160867,0 -0.234245,-0.07056 -0.234245,-0.239889 v -0.211667 h -0.160866 v 0.251178 c 0,0.234244 0.110066,0.352777 0.369711,0.352777 h 0.49671 c 0.234245,0 0.349956,-0.118533 0.349956,-0.352777 v -0.276578 c 0,-0.200377 -0.0762,-0.270933 -0.282222,-0.361244 l -0.578556,-0.245533 c -0.132644,-0.05644 -0.166511,-0.110066 -0.166511,-0.234244 v -0.124178 c 0,-0.191911 0.06209,-0.256822 0.242711,-0.256822 h 0.352778 c 0.160866,0 0.239889,0.07338 0.239889,0.248355 v 0.189089 h 0.163688 v -0.2286 c 0,-0.253999 -0.121355,-0.361244 -0.380999,-0.361244 h -0.417689 c -0.248355,0 -0.361244,0.110067 -0.361244,0.361244 v 0.197556 c 0,0.2032 0.06773,0.276577 0.2794,0.369711 z" />
      <path
         id="path15741"
         style="font-style:normal;font-variant:normal;font-weight:normal;font-stretch:normal;font-size:2.82222px;font-family:Quarca;-inkscape-font-specification:Quarca;fill:#dddddd;fill-opacity:1;stroke-width:0.264583"
         d="m 48.475622,87.411624 v -0.1524 h -1.188155 v 0.1524 h 0.513644 V 89.263 H 47.9648 v -1.851376 z" />
      <path
         id="path15743"
         style="font-style:normal;font-variant:normal;font-weight:normal;font-stretch:normal;font-size:2.82222px;font-family:Quarca;-inkscape-font-specification:Quarca;fill:#dddddd;fill-opacity:1;stroke-width:0.264583"
         d="M 48.857636,87.259224 H 48.69677 V 89.263 h 1.027288 l 0.02258,-0.152399 h -0.888999 z" />
      <path
         id="path15745"
         style="font-style:normal;font-variant:normal;font-weight:normal;font-stretch:normal;font-size:2.82222px;font-family:Quarca;-inkscape-font-specification:Quarca;fill:#dddddd;fill-opacity:1;stroke-width:0.264583"
         d="m 50.12543,87.411624 h 0.905932 l 0.02258,-0.1524 H 49.964563 V 89.263 h 1.072444 l 0.02258,-0.152399 H 50.12543 v -0.612422 h 0.759177 l 0.02258,-0.149578 H 50.12543 Z" />
    </g>
    <g
       style="font-style:normal;font-variant:normal;font-weight:bold;font-stretch:normal;font-size:3.52778px;line-height:1.25;font-family:Consolas;-inkscape-font-specification:'Consolas Bold';text-align:center;letter-spacing:0px;word-spacing:0px;text-anchor:middle;fill:#dddddd;fill-opacity:1;stroke:none;stroke-width:0.264583"
       id="text7715-6"
       aria-label="CV IN">
      <path
         id="path15726"
         style="font-style:normal;font-variant:normal;font-weight:normal;font-stretch:normal;font-size:2.82222px;font-family:Quarca;-inkscape-font-specification:Quarca;fill:#dddddd;fill-opacity:1;stroke-width:0.264583"
         d="m 49.055989,103.15327 c -0.1778,0 -0.242711,-0.0847 -0.242711,-0.26246 v -1.17405 c 0,-0.1778 0.06491,-0.26246 0.242711,-0.26246 h 0.4572 c 0.1778,0 0.242711,0.0847 0.242711,0.26246 v 0.18345 h 0.160866 v -0.20885 c 0,-0.25964 -0.09878,-0.38946 -0.386644,-0.38946 h -0.491066 c -0.287867,0 -0.386644,0.12982 -0.386644,0.38946 v 1.22485 c 0,0.25964 0.09878,0.38946 0.386644,0.38946 h 0.491066 c 0.287867,0 0.386644,-0.12982 0.386644,-0.38946 v -0.21449 H 49.7559 v 0.18909 c 0,0.1778 -0.06491,0.26246 -0.242711,0.26246 z" />
      <path
         id="path15728"
         style="font-style:normal;font-variant:normal;font-weight:normal;font-stretch:normal;font-size:2.82222px;font-family:Quarca;-inkscape-font-specification:Quarca;fill:#dddddd;fill-opacity:1;stroke-width:0.264583"
         d="m 50.86415,103.30567 0.570089,-2.00377 h -0.172156 l -0.468488,1.69615 c -0.0085,0.0395 -0.01693,0.0818 -0.01976,0.11853 -0.0056,-0.0367 -0.01129,-0.079 -0.02258,-0.11853 l -0.468488,-1.69615 h -0.172156 l 0.572911,2.00377 z" />
      <path
         id="path15730"
         style="font-style:normal;font-variant:normal;font-weight:normal;font-stretch:normal;font-size:2.82222px;font-family:Quarca;-inkscape-font-specification:Quarca;fill:#dddddd;fill-opacity:1;stroke-width:0.264583"
         d="m 52.34683,103.30567 v -2.00377 h -0.160866 v 2.00377 z" />
      <path
         id="path15732"
         style="font-style:normal;font-variant:normal;font-weight:normal;font-stretch:normal;font-size:2.82222px;font-family:Quarca;-inkscape-font-specification:Quarca;fill:#dddddd;fill-opacity:1;stroke-width:0.264583"
         d="m 52.887021,103.30567 v -1.72437 c 0.04233,0.0931 0.07902,0.18626 0.146755,0.30197 l 0.824089,1.4224 h 0.163688 v -2.00377 h -0.163688 v 1.72155 c -0.03104,-0.0734 -0.05927,-0.14393 -0.112889,-0.23707 l -0.857955,-1.48448 h -0.160867 v 2.00377 z" />
    </g>
    <g
       style="font-style:normal;font-variant:normal;font-weight:bold;font-stretch:normal;font-size:3.52778px;line-height:1.25;font-family:Consolas;-inkscape-font-specification:'Consolas Bold';text-align:center;letter-spacing:0px;word-spacing:0px;text-anchor:middle;fill:#dddddd;fill-opacity:1;stroke:none;stroke-width:0.264583"
       id="text7715-60"
       aria-label="BASE FREQ">
      <path
         id="path15709"
         style="font-style:normal;font-variant:normal;font-weight:normal;font-stretch:normal;font-size:2.82222px;font-family:Quarca;-inkscape-font-specification:Quarca;fill:#dddddd;fill-opacity:1;stroke-width:0.264583"
         d="m 40.845487,64.22213 h 0.784577 c 0.301978,0 0.437444,-0.129822 0.437444,-0.389467 v -0.273755 c 0,-0.273755 -0.146755,-0.372533 -0.327377,-0.386644 0.1524,-0.03104 0.222955,-0.132644 0.222955,-0.318911 V 62.60782 c 0,-0.259644 -0.149577,-0.389466 -0.465666,-0.389466 h -0.651933 z m 0.160867,-0.970844 h 0.536221 c 0.251178,0 0.364067,0.09596 0.364067,0.316089 v 0.234244 c 0,0.180622 -0.09313,0.268111 -0.301978,0.268111 h -0.59831 z m 0,-0.880533 h 0.454377 c 0.234244,0 0.341489,0.07902 0.341489,0.273756 v 0.197555 c 0,0.160867 -0.08749,0.259644 -0.285045,0.259644 h -0.510821 z" />
      <path
         id="path15711"
         style="font-style:normal;font-variant:normal;font-weight:normal;font-stretch:normal;font-size:2.82222px;font-family:Quarca;-inkscape-font-specification:Quarca;fill:#dddddd;fill-opacity:1;stroke-width:0.264583"
         d="m 42.830081,62.218354 -0.618066,2.003776 h 0.172155 l 0.129822,-0.434622 h 0.807155 l 0.129822,0.434622 h 0.172156 l -0.615244,-2.003776 z m 0.09031,0.214488 0.3556,1.202266 h -0.716844 z" />
      <path
         id="path15713"
         style="font-style:normal;font-variant:normal;font-weight:normal;font-stretch:normal;font-size:2.82222px;font-family:Quarca;-inkscape-font-specification:Quarca;fill:#dddddd;fill-opacity:1;stroke-width:0.264583"
         d="m 44.648561,63.389575 c 0.141111,0.05927 0.1778,0.107244 0.1778,0.245533 v 0.194733 c 0,0.169333 -0.07056,0.239889 -0.231422,0.239889 h -0.426155 c -0.160867,0 -0.234245,-0.07056 -0.234245,-0.239889 v -0.211666 h -0.160866 v 0.251177 c 0,0.234245 0.110066,0.352778 0.369711,0.352778 h 0.49671 c 0.234245,0 0.349956,-0.118533 0.349956,-0.352778 v -0.276577 c 0,-0.200378 -0.0762,-0.270933 -0.282222,-0.361244 l -0.578555,-0.245534 c -0.132645,-0.05644 -0.166511,-0.110066 -0.166511,-0.234244 v -0.124178 c 0,-0.19191 0.06209,-0.256822 0.242711,-0.256822 h 0.352777 c 0.160867,0 0.239889,0.07338 0.239889,0.248356 v 0.189089 h 0.163688 v -0.2286 c 0,-0.254 -0.121355,-0.361244 -0.380999,-0.361244 h -0.417689 c -0.248355,0 -0.361244,0.110066 -0.361244,0.361244 v 0.197555 c 0,0.2032 0.06773,0.276578 0.2794,0.369711 z" />
      <path
         id="path15715"
         style="font-style:normal;font-variant:normal;font-weight:normal;font-stretch:normal;font-size:2.82222px;font-family:Quarca;-inkscape-font-specification:Quarca;fill:#dddddd;fill-opacity:1;stroke-width:0.264583"
         d="m 45.471194,62.370753 h 0.905933 l 0.02258,-0.152399 h -1.089377 v 2.003776 h 1.072444 l 0.02258,-0.1524 h -0.934155 v -0.612422 h 0.759177 l 0.02258,-0.149577 h -0.781755 z" />
      <path
         id="path15717"
         style="font-style:normal;font-variant:normal;font-weight:normal;font-stretch:normal;font-size:2.82222px;font-family:Quarca;-inkscape-font-specification:Quarca;fill:#dddddd;fill-opacity:1;stroke-width:0.264583"
         d="m 47.400446,62.370753 h 0.897466 l 0.02258,-0.152399 h -1.08091 v 2.003776 h 0.160866 v -0.764822 h 0.7112 l 0.02258,-0.149577 h -0.733777 z" />
      <path
         id="path15719"
         style="font-style:normal;font-variant:normal;font-weight:normal;font-stretch:normal;font-size:2.82222px;font-family:Quarca;-inkscape-font-specification:Quarca;fill:#dddddd;fill-opacity:1;stroke-width:0.264583"
         d="m 48.562495,64.22213 h 0.160867 v -0.804333 h 0.369711 l 0.561621,0.804333 h 0.189089 l -0.564444,-0.804333 h 0.03951 c 0.268111,0 0.397933,-0.127 0.397933,-0.381 v -0.437444 c 0,-0.254 -0.129822,-0.380999 -0.397933,-0.380999 h -0.756355 z m 0.160867,-1.851377 h 0.567266 c 0.180622,0 0.262466,0.08467 0.262466,0.276578 v 0.341489 c 0,0.194733 -0.08184,0.279399 -0.262466,0.279399 h -0.567266 z" />
      <path
         id="path15721"
         style="font-style:normal;font-variant:normal;font-weight:normal;font-stretch:normal;font-size:2.82222px;font-family:Quarca;-inkscape-font-specification:Quarca;fill:#dddddd;fill-opacity:1;stroke-width:0.264583"
         d="m 50.222666,62.370753 h 0.905933 l 0.02258,-0.152399 h -1.089377 v 2.003776 h 1.072444 l 0.02258,-0.1524 h -0.934155 v -0.612422 h 0.759177 l 0.02258,-0.149577 h -0.781755 z" />
      <path
         id="path15723"
         style="font-style:normal;font-variant:normal;font-weight:normal;font-stretch:normal;font-size:2.82222px;font-family:Quarca;-inkscape-font-specification:Quarca;fill:#dddddd;fill-opacity:1;stroke-width:0.264583"
         d="m 51.406499,63.832663 c 0,0.259645 0.09878,0.389467 0.386644,0.389467 h 0.186267 v 0.327377 h 0.1524 V 64.22213 h 0.197555 c 0.287867,0 0.386644,-0.129822 0.386644,-0.389467 V 62.60782 c 0,-0.259644 -0.09878,-0.389466 -0.386644,-0.389466 h -0.536222 c -0.287866,0 -0.386644,0.129822 -0.386644,0.389466 z m 0.403578,0.237067 c -0.1778,0 -0.242711,-0.08467 -0.242711,-0.262467 V 62.63322 c 0,-0.1778 0.06491,-0.262467 0.242711,-0.262467 h 0.502355 c 0.180622,0 0.242711,0.08467 0.242711,0.262467 v 1.174043 c 0,0.1778 -0.06209,0.262467 -0.242711,0.262467 H 52.13181 v -0.282222 h -0.1524 v 0.282222 z" />
    </g>
    <g
       style="font-style:normal;font-variant:normal;font-weight:bold;font-stretch:normal;font-size:3.52778px;line-height:1.25;font-family:Consolas;-inkscape-font-specification:'Consolas Bold';text-align:center;letter-spacing:0px;word-spacing:0px;text-anchor:middle;fill:#dddddd;fill-opacity:1;stroke:none;stroke-width:0.264583"
       id="text7715-60-0"
       aria-label="QUANTUSSY">
      <path
         id="path15690"
         style="font-style:normal;font-variant:normal;font-weight:normal;font-stretch:normal;font-size:3.88056px;font-family:Quarca;-inkscape-font-specification:Quarca;fill:#dddddd;fill-opacity:1;stroke-width:0.264583"
         d="m 38.152245,53.525331 c 0,0.357011 0.13582,0.535517 0.531637,0.535517 h 0.256117 v 0.450145 h 0.20955 v -0.450145 h 0.271639 c 0.395817,0 0.531637,-0.178506 0.531637,-0.535517 v -1.684163 c 0,-0.357012 -0.13582,-0.535517 -0.531637,-0.535517 h -0.737306 c -0.395817,0 -0.531637,0.178505 -0.531637,0.535517 z m 0.55492,0.325967 c -0.244475,0 -0.333728,-0.116417 -0.333728,-0.360892 v -1.614313 c 0,-0.244475 0.08925,-0.360892 0.333728,-0.360892 h 0.69074 c 0.248356,0 0.333728,0.116417 0.333728,0.360892 v 1.614313 c 0,0.244475 -0.08537,0.360892 -0.333728,0.360892 h -0.248356 v -0.388056 h -0.20955 v 0.388056 z" />
      <path
         id="path15692"
         style="font-style:normal;font-variant:normal;font-weight:normal;font-stretch:normal;font-size:3.88056px;font-family:Quarca;-inkscape-font-specification:Quarca;fill:#dddddd;fill-opacity:1;stroke-width:0.264583"
         d="m 41.551009,53.851298 h -0.496712 c -0.267758,0 -0.384175,-0.124178 -0.384175,-0.407459 V 51.305651 H 40.44893 v 2.200277 c 0,0.368653 0.170745,0.55492 0.558801,0.55492 h 0.589845 c 0.388056,0 0.5588,-0.186267 0.5588,-0.55492 v -2.200277 h -0.225072 v 2.138188 c 0,0.283281 -0.112536,0.407459 -0.380295,0.407459 z" />
      <path
         id="path15694"
         style="font-style:normal;font-variant:normal;font-weight:normal;font-stretch:normal;font-size:3.88056px;font-family:Quarca;-inkscape-font-specification:Quarca;fill:#dddddd;fill-opacity:1;stroke-width:0.264583"
         d="m 43.299201,51.305651 -0.849842,2.755197 h 0.236714 l 0.178506,-0.597606 h 1.10984 l 0.178505,0.597606 h 0.236715 l -0.845962,-2.755197 z m 0.124178,0.294922 0.488951,1.653119 h -0.985663 z" />
      <path
         id="path15696"
         style="font-style:normal;font-variant:normal;font-weight:normal;font-stretch:normal;font-size:3.88056px;font-family:Quarca;-inkscape-font-specification:Quarca;fill:#dddddd;fill-opacity:1;stroke-width:0.264583"
         d="m 44.944983,54.060848 v -2.371022 c 0.05821,0.128059 0.108656,0.256117 0.201789,0.41522 l 1.133124,1.955802 h 0.225072 v -2.755197 h -0.225072 v 2.367141 c -0.04269,-0.100894 -0.08149,-0.197908 -0.155223,-0.325967 l -1.17969,-2.041174 h -0.221192 v 2.755197 z" />
      <path
         id="path15698"
         style="font-style:normal;font-variant:normal;font-weight:normal;font-stretch:normal;font-size:3.88056px;font-family:Quarca;-inkscape-font-specification:Quarca;fill:#dddddd;fill-opacity:1;stroke-width:0.264583"
         d="m 48.444278,51.515201 v -0.20955 h -1.633716 v 0.20955 h 0.706262 v 2.545647 h 0.225073 v -2.545647 z" />
      <path
         id="path15700"
         style="font-style:normal;font-variant:normal;font-weight:normal;font-stretch:normal;font-size:3.88056px;font-family:Quarca;-inkscape-font-specification:Quarca;fill:#dddddd;fill-opacity:1;stroke-width:0.264583"
         d="m 49.842674,53.851298 h -0.496711 c -0.267759,0 -0.384176,-0.124178 -0.384176,-0.407459 v -2.138188 h -0.221192 v 2.200277 c 0,0.368653 0.170745,0.55492 0.558801,0.55492 h 0.589845 c 0.388056,0 0.558801,-0.186267 0.558801,-0.55492 v -2.200277 h -0.225073 v 2.138188 c 0,0.283281 -0.112536,0.407459 -0.380295,0.407459 z" />
      <path
         id="path15702"
         style="font-style:normal;font-variant:normal;font-weight:normal;font-stretch:normal;font-size:3.88056px;font-family:Quarca;-inkscape-font-specification:Quarca;fill:#dddddd;fill-opacity:1;stroke-width:0.264583"
         d="m 52.075209,52.916083 c 0.194028,0.08149 0.244475,0.147461 0.244475,0.337609 v 0.267758 c 0,0.232834 -0.09701,0.329848 -0.318206,0.329848 h -0.585964 c -0.221192,0 -0.322087,-0.09701 -0.322087,-0.329848 v -0.291042 h -0.221191 v 0.34537 c 0,0.322087 0.151341,0.48507 0.508353,0.48507 h 0.682978 c 0.322087,0 0.48119,-0.162983 0.48119,-0.48507 v -0.380295 c 0,-0.275519 -0.104775,-0.372533 -0.388056,-0.496711 L 51.361186,52.361163 C 51.1788,52.283552 51.132233,52.209821 51.132233,52.039077 v -0.170745 c 0,-0.263878 0.08537,-0.353131 0.333728,-0.353131 h 0.48507 c 0.221192,0 0.329848,0.100894 0.329848,0.341489 v 0.259998 h 0.225072 v -0.314326 c 0,-0.34925 -0.166864,-0.496711 -0.523875,-0.496711 h -0.574323 c -0.341489,0 -0.496712,0.151342 -0.496712,0.496711 v 0.27164 c 0,0.2794 0.09313,0.380294 0.384176,0.508353 z" />
      <path
         id="path15704"
         style="font-style:normal;font-variant:normal;font-weight:normal;font-stretch:normal;font-size:3.88056px;font-family:Quarca;-inkscape-font-specification:Quarca;fill:#dddddd;fill-opacity:1;stroke-width:0.264583"
         d="m 54.09886,52.916083 c 0.194028,0.08149 0.244476,0.147461 0.244476,0.337609 v 0.267758 c 0,0.232834 -0.09701,0.329848 -0.318206,0.329848 h -0.585965 c -0.221192,0 -0.322086,-0.09701 -0.322086,-0.329848 v -0.291042 h -0.221192 v 0.34537 c 0,0.322087 0.151342,0.48507 0.508353,0.48507 h 0.682979 c 0.322086,0 0.481189,-0.162983 0.481189,-0.48507 v -0.380295 c 0,-0.275519 -0.104775,-0.372533 -0.388056,-0.496711 l -0.795515,-0.337609 c -0.182386,-0.07761 -0.228953,-0.151342 -0.228953,-0.322086 v -0.170745 c 0,-0.263878 0.08537,-0.353131 0.333728,-0.353131 h 0.48507 c 0.221192,0 0.329848,0.100894 0.329848,0.341489 v 0.259998 h 0.225072 v -0.314326 c 0,-0.34925 -0.166864,-0.496711 -0.523875,-0.496711 h -0.574323 c -0.341489,0 -0.496712,0.151342 -0.496712,0.496711 v 0.27164 c 0,0.2794 0.09313,0.380294 0.384176,0.508353 z" />
      <path
         id="path15706"
         style="font-style:normal;font-variant:normal;font-weight:normal;font-stretch:normal;font-size:3.88056px;font-family:Quarca;-inkscape-font-specification:Quarca;fill:#dddddd;fill-opacity:1;stroke-width:0.264583"
         d="m 55.7943,54.060848 v -1.140884 l 0.814918,-1.614313 h -0.232834 l -0.613128,1.222376 c -0.06597,0.128059 -0.06985,0.155222 -0.08149,0.20567 -0.01164,-0.05045 -0.02328,-0.07761 -0.08537,-0.20955 l -0.617009,-1.218496 h -0.232834 l 0.822679,1.618193 v 1.137004 z" />
    </g>
    <g
       style="font-style:normal;font-variant:normal;font-weight:bold;font-stretch:normal;font-size:3.52778px;line-height:1.25;font-family:Consolas;-inkscape-font-specification:'Consolas Bold';text-align:center;letter-spacing:0px;word-spacing:0px;text-anchor:middle;fill:#dddddd;fill-opacity:1;stroke:none;stroke-width:0.264583"
       id="text7715-60-0-3"
       aria-label="CELL
">
      <path
         id="path15681"
         style="font-style:normal;font-variant:normal;font-weight:normal;font-stretch:normal;font-size:3.88056px;font-family:Quarca;-inkscape-font-specification:Quarca;fill:#dddddd;fill-opacity:1;stroke-width:0.264583"
         d="m 44.556128,57.587786 c -0.244475,0 -0.333728,-0.116416 -0.333728,-0.360892 v -1.614313 c 0,-0.244475 0.08925,-0.360892 0.333728,-0.360892 h 0.628651 c 0.244475,0 0.333728,0.116417 0.333728,0.360892 v 0.252237 h 0.221192 v -0.287162 c 0,-0.357011 -0.13582,-0.535517 -0.531637,-0.535517 h -0.675217 c -0.395818,0 -0.531637,0.178506 -0.531637,0.535517 v 1.684163 c 0,0.357012 0.135819,0.535518 0.531637,0.535518 h 0.675217 c 0.395817,0 0.531637,-0.178506 0.531637,-0.535518 v -0.294922 h -0.221192 v 0.259997 c 0,0.244476 -0.08925,0.360892 -0.333728,0.360892 z" />
      <path
         id="path15683"
         style="font-style:normal;font-variant:normal;font-weight:normal;font-stretch:normal;font-size:3.88056px;font-family:Quarca;-inkscape-font-specification:Quarca;fill:#dddddd;fill-opacity:1;stroke-width:0.264583"
         d="m 46.39042,55.251689 h 1.24566 l 0.03104,-0.20955 h -1.497896 v 2.755198 h 1.474613 l 0.03104,-0.209551 H 46.39042 v -0.842081 h 1.043871 l 0.03104,-0.20567 H 46.39042 Z" />
      <path
         id="path15685"
         style="font-style:normal;font-variant:normal;font-weight:normal;font-stretch:normal;font-size:3.88056px;font-family:Quarca;-inkscape-font-specification:Quarca;fill:#dddddd;fill-opacity:1;stroke-width:0.264583"
         d="m 48.254908,55.042139 h -0.221192 v 2.755198 h 1.412524 l 0.03104,-0.209551 h -1.222376 z" />
      <path
         id="path15687"
         style="font-style:normal;font-variant:normal;font-weight:normal;font-stretch:normal;font-size:3.88056px;font-family:Quarca;-inkscape-font-specification:Quarca;fill:#dddddd;fill-opacity:1;stroke-width:0.264583"
         d="m 49.998128,55.042139 h -0.221192 v 2.755198 h 1.412524 l 0.03105,-0.209551 h -1.222377 z" />
    </g>
    <g
       style="font-style:normal;font-variant:normal;font-weight:bold;font-stretch:normal;font-size:3.52777px;line-height:1.25;font-family:Consolas;-inkscape-font-specification:'Consolas Bold';text-align:center;letter-spacing:0px;word-spacing:0px;text-anchor:middle;fill:#dddddd;fill-opacity:1;stroke:none;stroke-width:0.264583"
       id="text7715-9"
       aria-label="OUT">
      <path
         id="path15674"
         style="font-style:normal;font-variant:normal;font-weight:normal;font-stretch:normal;font-size:2.82223px;font-family:Quarca;-inkscape-font-specification:Quarca;fill:#dddddd;fill-opacity:1;stroke-width:0.264583"
         d="m 52.375646,89.830274 c 0,0.259645 0.09878,0.389468 0.386645,0.389468 h 0.536224 c 0.287868,0 0.386646,-0.129823 0.386646,-0.389468 v -1.224848 c 0,-0.259645 -0.09878,-0.389468 -0.386646,-0.389468 h -0.536224 c -0.287867,0 -0.386645,0.129823 -0.386645,0.389468 z m 0.403579,-1.461915 h 0.502357 c 0.180622,0 0.242711,0.08467 0.242711,0.262467 v 1.174048 c 0,0.1778 -0.06209,0.262467 -0.242711,0.262467 h -0.502357 c -0.177801,0 -0.242712,-0.08467 -0.242712,-0.262467 v -1.174048 c 0,-0.1778 0.06491,-0.262467 0.242712,-0.262467 z" />
      <path
         id="path15676"
         style="font-style:normal;font-variant:normal;font-weight:normal;font-stretch:normal;font-size:2.82223px;font-family:Quarca;-inkscape-font-specification:Quarca;fill:#dddddd;fill-opacity:1;stroke-width:0.264583"
         d="m 54.847478,90.067341 h -0.361245 c -0.194734,0 -0.279401,-0.09031 -0.279401,-0.296334 v -1.555049 h -0.160867 v 1.600205 c 0,0.268112 0.124178,0.403579 0.406401,0.403579 h 0.428979 c 0.282223,0 0.406401,-0.135467 0.406401,-0.403579 v -1.600205 h -0.163689 v 1.555049 c 0,0.206023 -0.08185,0.296334 -0.276579,0.296334 z" />
      <path
         id="path15678"
         style="font-style:normal;font-variant:normal;font-weight:normal;font-stretch:normal;font-size:2.82223px;font-family:Quarca;-inkscape-font-specification:Quarca;fill:#dddddd;fill-opacity:1;stroke-width:0.264583"
         d="m 56.691277,88.368359 v -0.152401 h -1.188159 v 0.152401 h 0.513646 v 1.851383 h 0.163689 v -1.851383 z" />
    </g>
    <g
       style="font-style:normal;font-variant:normal;font-weight:bold;font-stretch:normal;font-size:3.52777px;line-height:1.25;font-family:Consolas;-inkscape-font-specification:'Consolas Bold';text-align:center;letter-spacing:0px;word-spacing:0px;text-anchor:middle;fill:#dddddd;fill-opacity:1;stroke:none;stroke-width:0.264583"
       id="text7715-9-6"
       aria-label="LO">
      <path
         id="path15669"
         style="font-style:normal;font-variant:normal;font-weight:normal;font-stretch:normal;font-size:2.11667px;font-family:Quarca;-inkscape-font-specification:Quarca;fill:#dddddd;fill-opacity:1;stroke-width:0.264583"
         d="m 38.508448,72.078486 h -0.12065 v 1.502836 h 0.770468 l 0.01693,-0.1143 h -0.666751 z" />
      <path
         id="path15671"
         style="font-style:normal;font-variant:normal;font-weight:normal;font-stretch:normal;font-size:2.11667px;font-family:Quarca;-inkscape-font-specification:Quarca;fill:#dddddd;fill-opacity:1;stroke-width:0.264583"
         d="m 39.330179,73.289221 c 0,0.194734 0.07408,0.292101 0.289984,0.292101 h 0.402167 c 0.215901,0 0.289984,-0.09737 0.289984,-0.292101 v -0.918634 c 0,-0.194734 -0.07408,-0.292101 -0.289984,-0.292101 h -0.402167 c -0.2159,0 -0.289984,0.09737 -0.289984,0.292101 z m 0.302684,-1.096435 h 0.376767 c 0.135467,0 0.182034,0.0635 0.182034,0.196851 v 0.880534 c 0,0.13335 -0.04657,0.196851 -0.182034,0.196851 h -0.376767 c -0.13335,0 -0.182034,-0.0635 -0.182034,-0.196851 v -0.880534 c 0,-0.133351 0.04868,-0.196851 0.182034,-0.196851 z" />
    </g>
    <g
       style="font-style:normal;font-variant:normal;font-weight:bold;font-stretch:normal;font-size:3.52777px;line-height:1.25;font-family:Consolas;-inkscape-font-specification:'Consolas Bold';text-align:center;letter-spacing:0px;word-spacing:0px;text-anchor:middle;fill:#dddddd;fill-opacity:1;stroke:none;stroke-width:0.264583"
       id="text7715-9-6-5"
       aria-label="HI">
      <path
         id="path15664"
         style="font-style:normal;font-variant:normal;font-weight:normal;font-stretch:normal;font-size:2.11667px;font-family:Quarca;-inkscape-font-specification:Quarca;fill:#dddddd;fill-opacity:1;stroke-width:0.264583"
         d="m 53.530961,73.566505 v -0.569384 h 0.696384 v 0.569384 h 0.120651 V 72.06367 h -0.120651 v 0.819151 H 53.530961 V 72.06367 h -0.12065 v 1.502835 z" />
      <path
         id="path15666"
         style="font-style:normal;font-variant:normal;font-weight:normal;font-stretch:normal;font-size:2.11667px;font-family:Quarca;-inkscape-font-specification:Quarca;fill:#dddddd;fill-opacity:1;stroke-width:0.264583"
         d="M 54.750527,73.566505 V 72.06367 h -0.120651 v 1.502835 z" />
    </g>
  </g>
</svg>
