<?xml version="1.0" encoding="UTF-8" standalone="no"?>
<!-- Created with Inkscape (http://www.inkscape.org/) -->

<svg
   xmlns:dc="http://purl.org/dc/elements/1.1/"
   xmlns:cc="http://creativecommons.org/ns#"
   xmlns:rdf="http://www.w3.org/1999/02/22-rdf-syntax-ns#"
   xmlns:svg="http://www.w3.org/2000/svg"
   xmlns="http://www.w3.org/2000/svg"
   xmlns:xlink="http://www.w3.org/1999/xlink"
   xmlns:sodipodi="http://sodipodi.sourceforge.net/DTD/sodipodi-0.dtd"
   xmlns:inkscape="http://www.inkscape.org/namespaces/inkscape"
   width="195"
   height="380"
   viewBox="0 0 51.593751 100.54167"
   version="1.1"
   id="svg11003"
   inkscape:version="0.92.2 (5c3e80d, 2017-08-06)"
   sodipodi:docname="RouletteLFO.svg">
  <defs
     id="defs10997">
    <linearGradient
       inkscape:collect="always"
       id="linearGradient4682">
      <stop
         style="stop-color:#000002;stop-opacity:1;"
         offset="0"
         id="stop3387" />
      <stop
         style="stop-color:#000005;stop-opacity:1;"
         offset=".3"
         id="stop3388" />
      <stop
         style="stop-color:#08008f;stop-opacity:1;"
         offset="1"
         id="stop3389" />
    </linearGradient>
    <linearGradient
       inkscape:collect="always"
       xlink:href="#linearGradient4682"
       id="linearGradient4684"
       x1="35.219627"
       y1="150.85843"
       x2="35.23983"
       y2="96.163956"
       gradientUnits="userSpaceOnUse" />
  </defs>
  <sodipodi:namedview
     id="base"
     pagecolor="#ffffff"
     bordercolor="#666666"
     borderopacity="1.0"
     inkscape:pageopacity="0.0"
     inkscape:pageshadow="2"
     inkscape:zoom="5.6568542"
     inkscape:cx="-73.618652"
     inkscape:cy="231.70074"
     inkscape:document-units="mm"
     inkscape:current-layer="layer1"
     showgrid="false"
     fit-margin-top="0"
     fit-margin-left="0"
     fit-margin-right="0"
     fit-margin-bottom="0"
     inkscape:window-width="3840"
     inkscape:window-height="2115"
     inkscape:window-x="-13"
     inkscape:window-y="-13"
     inkscape:window-maximized="1"
     units="px" />
  <metadata
     id="metadata11000">
    <rdf:RDF>
      <cc:Work
         rdf:about="">
        <dc:format>image/svg+xml</dc:format>
        <dc:type
           rdf:resource="http://purl.org/dc/dcmitype/StillImage" />
        <dc:title></dc:title>
      </cc:Work>
    </rdf:RDF>
  </metadata>
  <g
     inkscape:label="Layer 1"
     inkscape:groupmode="layer"
     id="layer1"
     transform="translate(-35.146312,-50.389004)">
    <path
       inkscape:connector-curvature="0"
       id="path33493"
       d="M 35.219628,50.462323 H 86.654867 V 150.85843 H 35.219628 Z m 0,0"
       style="fill:url(#linearGradient4684);fill-opacity:1;fill-rule:nonzero;stroke:none;stroke-width:0.3145712"
       inkscape:export-filename="/home/vortico/pics/tmp/LFOs.png"
       inkscape:export-xdpi="150.22649"
       inkscape:export-ydpi="150.22649" />
    <g
       style="font-style:normal;font-weight:normal;font-size:3.52777767px;line-height:1.25;font-family:sans-serif;letter-spacing:0px;word-spacing:0px;fill:#ffffff;fill-opacity:1;stroke:none;stroke-width:0.26458332"
       id="text5097" />
    <g
       aria-label="ROULETTE LFO"
       style="font-style:normal;font-weight:normal;font-size:3.52777767px;line-height:1.25;font-family:sans-serif;text-align:center;letter-spacing:0px;word-spacing:0px;text-anchor:middle;fill:#ffffff;fill-opacity:1;stroke:none;stroke-width:0.26458332"
       id="text136">
      <path
         d="m 51.067998,54.219322 q 0,0.02084 -0.0076,0.036 -0.0076,0.01326 -0.036,0.02274 -0.02842,0.0095 -0.08337,0.01326 -0.05495,0.0038 -0.149689,0.0038 -0.07958,0 -0.126952,-0.0038 -0.04737,-0.0038 -0.07579,-0.01326 -0.02653,-0.01137 -0.0379,-0.02653 -0.01137,-0.01705 -0.01895,-0.03979 l -0.219797,-0.547598 q -0.03979,-0.09284 -0.07769,-0.164847 -0.0379,-0.072 -0.08527,-0.119373 -0.04548,-0.04927 -0.106109,-0.0739 -0.06063,-0.02463 -0.140215,-0.02463 h -0.155374 v 0.934138 q 0,0.01895 -0.01326,0.03411 -0.01137,0.01516 -0.03979,0.02463 -0.02842,0.0095 -0.07579,0.01516 -0.04737,0.0057 -0.121267,0.0057 -0.072,0 -0.121268,-0.0057 -0.04737,-0.0057 -0.07579,-0.01516 -0.02842,-0.0095 -0.03979,-0.02463 -0.01137,-0.01516 -0.01137,-0.03411 v -2.226393 q 0,-0.08337 0.04169,-0.119373 0.04358,-0.0379 0.106109,-0.0379 h 0.634759 q 0.09664,0 0.159164,0.0038 0.06253,0.0038 0.113688,0.0095 0.147794,0.02084 0.265272,0.072 0.119373,0.05116 0.200849,0.134531 0.08337,0.08148 0.126952,0.195165 0.04358,0.111793 0.04358,0.257693 0,0.123162 -0.03221,0.225482 -0.03032,0.100424 -0.09095,0.180006 -0.06063,0.07958 -0.149689,0.138321 -0.08906,0.05874 -0.202744,0.09474 0.05495,0.02653 0.102319,0.06442 0.04926,0.0379 0.09095,0.09285 0.04358,0.05306 0.08148,0.123162 0.0379,0.06821 0.0739,0.155374 l 0.206533,0.483175 q 0.02842,0.072 0.0379,0.106109 0.0095,0.03221 0.0095,0.05116 z M 50.42566,52.555685 q 0,-0.121267 -0.05495,-0.204639 -0.05495,-0.08337 -0.180006,-0.117478 -0.0379,-0.0095 -0.08716,-0.01516 -0.04737,-0.0057 -0.132637,-0.0057 h -0.223586 v 0.695392 h 0.253903 q 0.106109,0 0.185691,-0.02463 0.07958,-0.02653 0.132636,-0.072 0.05306,-0.04737 0.07958,-0.111793 0.02653,-0.06442 0.02653,-0.144005 z"
         style="font-style:normal;font-variant:normal;font-weight:bold;font-stretch:normal;font-size:3.88055563px;font-family:Calibri;-inkscape-font-specification:'Calibri Bold';stroke-width:0.26458332"
         id="path5820" />
      <path
         d="m 53.599454,53.029386 q 0,0.305063 -0.07579,0.545703 -0.07579,0.24064 -0.225481,0.409277 -0.14969,0.166743 -0.371382,0.255798 -0.219797,0.08716 -0.509701,0.08716 -0.286116,0 -0.500228,-0.0739 -0.212218,-0.07579 -0.354328,-0.229271 -0.142111,-0.153479 -0.214113,-0.390329 -0.07011,-0.236851 -0.07011,-0.560862 0,-0.297484 0.07579,-0.534334 0.07579,-0.238745 0.225482,-0.405488 0.149689,-0.166743 0.369486,-0.255798 0.221692,-0.08906 0.513492,-0.08906 0.278536,0 0.490754,0.0739 0.214112,0.0739 0.356223,0.227376 0.144005,0.153479 0.216007,0.388435 0.0739,0.233061 0.0739,0.551388 z m -0.522965,0.02653 q 0,-0.19327 -0.03032,-0.350539 -0.03032,-0.159163 -0.104214,-0.270956 -0.072,-0.113689 -0.19327,-0.174322 -0.121267,-0.06253 -0.303168,-0.06253 -0.183796,0 -0.306958,0.07011 -0.123163,0.06821 -0.198955,0.183796 -0.07579,0.115583 -0.108003,0.270957 -0.03032,0.153479 -0.03032,0.325906 0,0.200849 0.03032,0.361907 0.03032,0.159163 0.102319,0.272851 0.072,0.113689 0.19327,0.174322 0.121267,0.05874 0.305063,0.05874 0.183796,0 0.306958,-0.06821 0.123162,-0.06821 0.198954,-0.18569 0.07579,-0.117478 0.106109,-0.272852 0.03221,-0.157269 0.03221,-0.333485 z"
         style="font-style:normal;font-variant:normal;font-weight:bold;font-stretch:normal;font-size:3.88055563px;font-family:Calibri;-inkscape-font-specification:'Calibri Bold';stroke-width:0.26458332"
         id="path5822" />
      <path
         d="m 56.017223,53.37045 q 0,0.225481 -0.06632,0.403593 -0.06632,0.178111 -0.195165,0.301274 -0.128847,0.123162 -0.318327,0.187585 -0.18948,0.06442 -0.435804,0.06442 -0.231166,0 -0.414962,-0.05684 -0.183796,-0.05874 -0.310748,-0.176216 -0.126952,-0.117478 -0.195165,-0.2918 -0.06632,-0.176217 -0.06632,-0.411172 v -1.49121 q 0,-0.01895 0.01137,-0.03411 0.01137,-0.01516 0.03979,-0.02463 0.03032,-0.0095 0.07769,-0.01516 0.04737,-0.0057 0.121267,-0.0057 0.072,0 0.119373,0.0057 0.04737,0.0057 0.07579,0.01516 0.02842,0.0095 0.03979,0.02463 0.01326,0.01516 0.01326,0.03411 v 1.447629 q 0,0.1459 0.036,0.253904 0.036,0.106109 0.102319,0.176217 0.06821,0.07011 0.161058,0.106108 0.09474,0.03411 0.210323,0.03411 0.117478,0 0.210323,-0.036 0.09285,-0.036 0.157269,-0.104214 0.06442,-0.07011 0.09853,-0.170533 0.036,-0.102319 0.036,-0.231166 v -1.476051 q 0,-0.01895 0.01137,-0.03411 0.01137,-0.01516 0.03979,-0.02463 0.02842,-0.0095 0.07579,-0.01516 0.04927,-0.0057 0.121267,-0.0057 0.072,0 0.117478,0.0057 0.04737,0.0057 0.07579,0.01516 0.02842,0.0095 0.03979,0.02463 0.01137,0.01516 0.01137,0.03411 z"
         style="font-style:normal;font-variant:normal;font-weight:bold;font-stretch:normal;font-size:3.88055563px;font-family:Calibri;-inkscape-font-specification:'Calibri Bold';stroke-width:0.26458332"
         id="path5824" />
      <path
         d="m 57.894972,54.075317 q 0,0.05684 -0.0057,0.09663 -0.0038,0.0379 -0.01326,0.06442 -0.0095,0.02463 -0.02463,0.036 -0.01326,0.01137 -0.03221,0.01137 h -1.123618 q -0.06253,0 -0.106109,-0.036 -0.04169,-0.0379 -0.04169,-0.121268 v -2.226393 q 0,-0.01895 0.01137,-0.03411 0.01326,-0.01516 0.04169,-0.02463 0.02842,-0.0095 0.07579,-0.01516 0.04926,-0.0057 0.121267,-0.0057 0.0739,0 0.121267,0.0057 0.04737,0.0057 0.07579,0.01516 0.02842,0.0095 0.03979,0.02463 0.01326,0.01516 0.01326,0.03411 v 1.97249 h 0.771185 q 0.01895,0 0.03221,0.01137 0.01516,0.0095 0.02463,0.03411 0.0095,0.02274 0.01326,0.06253 0.0057,0.0379 0.0057,0.09474 z"
         style="font-style:normal;font-variant:normal;font-weight:bold;font-stretch:normal;font-size:3.88055563px;font-family:Calibri;-inkscape-font-specification:'Calibri Bold';stroke-width:0.26458332"
         id="path5826" />
      <path
         d="m 59.645769,54.08858 q 0,0.05495 -0.0057,0.09284 -0.0038,0.036 -0.01326,0.05874 -0.0095,0.02274 -0.02463,0.03411 -0.01326,0.0095 -0.03032,0.0095 H 58.34025 q -0.06253,0 -0.106109,-0.036 -0.04169,-0.0379 -0.04169,-0.121268 v -2.137337 q 0,-0.08337 0.04169,-0.119373 0.04358,-0.0379 0.106109,-0.0379 h 1.224043 q 0.01705,0 0.03032,0.0095 0.01326,0.0095 0.02274,0.03411 0.0095,0.02274 0.01326,0.06063 0.0057,0.036 0.0057,0.09285 0,0.05305 -0.0057,0.09095 -0.0038,0.036 -0.01326,0.05874 -0.0095,0.02274 -0.02274,0.03411 -0.01326,0.0095 -0.03032,0.0095 h -0.875399 v 0.598757 h 0.740868 q 0.01705,0 0.03032,0.01137 0.01516,0.0095 0.02463,0.03221 0.0095,0.02084 0.01326,0.05874 0.0057,0.036 0.0057,0.08906 0,0.05495 -0.0057,0.09095 -0.0038,0.036 -0.01326,0.05874 -0.0095,0.02084 -0.02463,0.03032 -0.01326,0.0095 -0.03032,0.0095 h -0.740868 v 0.691602 h 0.882978 q 0.01705,0 0.03032,0.01137 0.01516,0.0095 0.02463,0.03221 0.0095,0.02274 0.01326,0.06063 0.0057,0.036 0.0057,0.09095 z"
         style="font-style:normal;font-variant:normal;font-weight:bold;font-stretch:normal;font-size:3.88055563px;font-family:Calibri;-inkscape-font-specification:'Calibri Bold';stroke-width:0.26458332"
         id="path5828" />
      <path
         d="m 61.718683,52.036509 q 0,0.05495 -0.0057,0.09474 -0.0038,0.0379 -0.01326,0.06253 -0.0095,0.02274 -0.02463,0.03411 -0.01326,0.01137 -0.03032,0.01137 H 61.03087 v 1.976279 q 0,0.01895 -0.01326,0.03411 -0.01137,0.01516 -0.03979,0.02463 -0.02842,0.0095 -0.07769,0.01516 -0.04737,0.0057 -0.119372,0.0057 -0.072,0 -0.121268,-0.0057 -0.04737,-0.0057 -0.07579,-0.01516 -0.02842,-0.0095 -0.04169,-0.02463 -0.01137,-0.01516 -0.01137,-0.03411 v -1.976279 h -0.613916 q -0.01895,0 -0.03221,-0.01137 -0.01326,-0.01137 -0.02274,-0.03411 -0.0095,-0.02463 -0.01516,-0.06253 -0.0038,-0.03979 -0.0038,-0.09474 0,-0.05684 0.0038,-0.09663 0.0057,-0.03979 0.01516,-0.06253 0.0095,-0.02463 0.02274,-0.03411 0.01326,-0.01137 0.03221,-0.01137 h 1.72806 q 0.01705,0 0.03032,0.01137 0.01516,0.0095 0.02463,0.03411 0.0095,0.02274 0.01326,0.06253 0.0057,0.03979 0.0057,0.09663 z"
         style="font-style:normal;font-variant:normal;font-weight:bold;font-stretch:normal;font-size:3.88055563px;font-family:Calibri;-inkscape-font-specification:'Calibri Bold';stroke-width:0.26458332"
         id="path5830" />
      <path
         d="m 63.689278,52.036509 q 0,0.05495 -0.0057,0.09474 -0.0038,0.0379 -0.01326,0.06253 -0.0095,0.02274 -0.02463,0.03411 -0.01326,0.01137 -0.03032,0.01137 h -0.613916 v 1.976279 q 0,0.01895 -0.01326,0.03411 -0.01137,0.01516 -0.03979,0.02463 -0.02842,0.0095 -0.07769,0.01516 -0.04737,0.0057 -0.119373,0.0057 -0.072,0 -0.121267,-0.0057 -0.04737,-0.0057 -0.07579,-0.01516 -0.02842,-0.0095 -0.04169,-0.02463 -0.01137,-0.01516 -0.01137,-0.03411 v -1.976279 h -0.613916 q -0.01895,0 -0.03221,-0.01137 -0.01326,-0.01137 -0.02274,-0.03411 -0.0095,-0.02463 -0.01516,-0.06253 -0.0038,-0.03979 -0.0038,-0.09474 0,-0.05684 0.0038,-0.09663 0.0057,-0.03979 0.01516,-0.06253 0.0095,-0.02463 0.02274,-0.03411 0.01326,-0.01137 0.03221,-0.01137 h 1.72806 q 0.01705,0 0.03032,0.01137 0.01516,0.0095 0.02463,0.03411 0.0095,0.02274 0.01326,0.06253 0.0057,0.03979 0.0057,0.09663 z"
         style="font-style:normal;font-variant:normal;font-weight:bold;font-stretch:normal;font-size:3.88055563px;font-family:Calibri;-inkscape-font-specification:'Calibri Bold';stroke-width:0.26458332"
         id="path5832" />
      <path
         d="m 65.436286,54.08858 q 0,0.05495 -0.0057,0.09284 -0.0038,0.036 -0.01326,0.05874 -0.0095,0.02274 -0.02463,0.03411 -0.01326,0.0095 -0.03032,0.0095 h -1.231622 q -0.06253,0 -0.106109,-0.036 -0.04169,-0.0379 -0.04169,-0.121268 v -2.137337 q 0,-0.08337 0.04169,-0.119373 0.04358,-0.0379 0.106109,-0.0379 h 1.224043 q 0.01705,0 0.03032,0.0095 0.01326,0.0095 0.02274,0.03411 0.0095,0.02274 0.01326,0.06063 0.0057,0.036 0.0057,0.09285 0,0.05305 -0.0057,0.09095 -0.0038,0.036 -0.01326,0.05874 -0.0095,0.02274 -0.02274,0.03411 -0.01326,0.0095 -0.03032,0.0095 h -0.875399 v 0.598757 h 0.740868 q 0.01705,0 0.03032,0.01137 0.01516,0.0095 0.02463,0.03221 0.0095,0.02084 0.01326,0.05874 0.0057,0.036 0.0057,0.08906 0,0.05495 -0.0057,0.09095 -0.0038,0.036 -0.01326,0.05874 -0.0095,0.02084 -0.02463,0.03032 -0.01326,0.0095 -0.03032,0.0095 h -0.740868 v 0.691602 h 0.882978 q 0.01705,0 0.03032,0.01137 0.01516,0.0095 0.02463,0.03221 0.0095,0.02274 0.01326,0.06063 0.0057,0.036 0.0057,0.09095 z"
         style="font-style:normal;font-variant:normal;font-weight:bold;font-stretch:normal;font-size:3.88055563px;font-family:Calibri;-inkscape-font-specification:'Calibri Bold';stroke-width:0.26458332"
         id="path5834" />
      <path
         d="m 68.104169,54.075317 q 0,0.05684 -0.0057,0.09663 -0.0038,0.0379 -0.01326,0.06442 -0.0095,0.02463 -0.02463,0.036 -0.01326,0.01137 -0.03221,0.01137 h -1.123618 q -0.06253,0 -0.106109,-0.036 -0.04169,-0.0379 -0.04169,-0.121268 v -2.226393 q 0,-0.01895 0.01137,-0.03411 0.01326,-0.01516 0.04169,-0.02463 0.02842,-0.0095 0.07579,-0.01516 0.04926,-0.0057 0.121267,-0.0057 0.0739,0 0.121268,0.0057 0.04737,0.0057 0.07579,0.01516 0.02842,0.0095 0.03979,0.02463 0.01326,0.01516 0.01326,0.03411 v 1.97249 h 0.771185 q 0.01895,0 0.03221,0.01137 0.01516,0.0095 0.02463,0.03411 0.0095,0.02274 0.01326,0.06253 0.0057,0.0379 0.0057,0.09474 z"
         style="font-style:normal;font-variant:normal;font-weight:bold;font-stretch:normal;font-size:3.88055563px;font-family:Calibri;-inkscape-font-specification:'Calibri Bold';stroke-width:0.26458332"
         id="path5836" />
      <path
         d="m 69.777279,52.036509 q 0,0.05684 -0.0057,0.09663 -0.0038,0.0379 -0.01516,0.06063 -0.0095,0.02274 -0.02274,0.03411 -0.01326,0.01137 -0.03032,0.01137 H 68.90188 v 0.659391 h 0.752236 q 0.01705,0 0.03032,0.0095 0.01326,0.0095 0.02274,0.03221 0.01137,0.02274 0.01516,0.06063 0.0057,0.0379 0.0057,0.09474 0,0.05684 -0.0057,0.09474 -0.0038,0.0379 -0.01516,0.06253 -0.0095,0.02463 -0.02274,0.036 -0.01326,0.0095 -0.03032,0.0095 H 68.90188 v 0.913295 q 0,0.02084 -0.01137,0.036 -0.01137,0.01516 -0.04169,0.02653 -0.02842,0.0095 -0.07579,0.01516 -0.04737,0.0057 -0.121267,0.0057 -0.072,0 -0.121268,-0.0057 -0.04737,-0.0057 -0.07579,-0.01516 -0.02842,-0.01137 -0.04169,-0.02653 -0.01137,-0.01516 -0.01137,-0.036 v -2.222603 q 0,-0.08337 0.04169,-0.119373 0.04358,-0.0379 0.106108,-0.0379 h 1.153935 q 0.01705,0 0.03032,0.01137 0.01326,0.0095 0.02274,0.03411 0.01137,0.02274 0.01516,0.06253 0.0057,0.03979 0.0057,0.09663 z"
         style="font-style:normal;font-variant:normal;font-weight:bold;font-stretch:normal;font-size:3.88055563px;font-family:Calibri;-inkscape-font-specification:'Calibri Bold';stroke-width:0.26458332"
         id="path5838" />
      <path
         d="m 72.357999,53.029386 q 0,0.305063 -0.07579,0.545703 -0.07579,0.24064 -0.225481,0.409277 -0.14969,0.166743 -0.371382,0.255798 -0.219797,0.08716 -0.509701,0.08716 -0.286116,0 -0.500228,-0.0739 -0.212218,-0.07579 -0.354328,-0.229271 -0.142111,-0.153479 -0.214113,-0.390329 -0.07011,-0.236851 -0.07011,-0.560862 0,-0.297484 0.07579,-0.534334 0.07579,-0.238745 0.225482,-0.405488 0.149689,-0.166743 0.369486,-0.255798 0.221692,-0.08906 0.513492,-0.08906 0.278536,0 0.490754,0.0739 0.214112,0.0739 0.356223,0.227376 0.144005,0.153479 0.216007,0.388435 0.0739,0.233061 0.0739,0.551388 z m -0.522965,0.02653 q 0,-0.19327 -0.03032,-0.350539 -0.03032,-0.159163 -0.104214,-0.270956 -0.072,-0.113689 -0.19327,-0.174322 -0.121267,-0.06253 -0.303168,-0.06253 -0.183796,0 -0.306958,0.07011 -0.123163,0.06821 -0.198955,0.183796 -0.07579,0.115583 -0.108003,0.270957 -0.03032,0.153479 -0.03032,0.325906 0,0.200849 0.03032,0.361907 0.03032,0.159163 0.102319,0.272851 0.072,0.113689 0.19327,0.174322 0.121267,0.05874 0.305063,0.05874 0.183796,0 0.306958,-0.06821 0.123162,-0.06821 0.198954,-0.18569 0.07579,-0.117478 0.106109,-0.272852 0.03221,-0.157269 0.03221,-0.333485 z"
         style="font-style:normal;font-variant:normal;font-weight:bold;font-stretch:normal;font-size:3.88055563px;font-family:Calibri;-inkscape-font-specification:'Calibri Bold';stroke-width:0.26458332"
         id="path5840" />
    </g>
    <g
       aria-label="Rx"
       style="font-style:normal;font-variant:normal;font-weight:bold;font-stretch:normal;font-size:3.52777767px;line-height:1.25;font-family:Consolas;-inkscape-font-specification:'Consolas Bold';text-align:center;letter-spacing:0px;word-spacing:0px;text-anchor:middle;fill:#ffffff;fill-opacity:1;stroke:none;stroke-width:0.26458332"
       id="text299">
      <path
         d="m 39.908811,99.016951 q 0,0.01516 -0.0055,0.02618 -0.0055,0.0096 -0.02618,0.01654 -0.02067,0.0069 -0.06063,0.0096 -0.03996,0.0028 -0.108865,0.0028 -0.05788,0 -0.09233,-0.0028 -0.03445,-0.0028 -0.05512,-0.0096 -0.01929,-0.0083 -0.02756,-0.01929 -0.0083,-0.0124 -0.01378,-0.02894 l -0.159853,-0.398253 q -0.02894,-0.06752 -0.0565,-0.119889 -0.02756,-0.05237 -0.06201,-0.08682 -0.03307,-0.03583 -0.07717,-0.05374 -0.0441,-0.01792 -0.101975,-0.01792 h -0.112999 v 0.679373 q 0,0.01378 -0.0096,0.02481 -0.0083,0.01102 -0.02894,0.01791 -0.02067,0.0069 -0.05512,0.01102 -0.03445,0.0041 -0.08819,0.0041 -0.05237,0 -0.08819,-0.0041 -0.03445,-0.0041 -0.05512,-0.01102 -0.02067,-0.0069 -0.02894,-0.01791 -0.0083,-0.01102 -0.0083,-0.02481 V 97.395 q 0,-0.06063 0.03032,-0.08682 0.03169,-0.02756 0.07717,-0.02756 h 0.461642 q 0.07028,0 0.115756,0.0028 0.04547,0.0028 0.08268,0.0069 0.107487,0.01516 0.192925,0.05237 0.08682,0.03721 0.146072,0.09784 0.06063,0.05925 0.09233,0.141938 0.03169,0.0813 0.03169,0.187413 0,0.08957 -0.02343,0.163986 -0.02205,0.07304 -0.06615,0.130914 -0.0441,0.05788 -0.108865,0.100597 -0.06477,0.04272 -0.14745,0.0689 0.03996,0.01929 0.07441,0.04685 0.03583,0.02756 0.06615,0.06752 0.0317,0.03858 0.05926,0.08957 0.02756,0.04961 0.05374,0.112999 l 0.150206,0.3514 q 0.02067,0.05237 0.02756,0.07717 0.0069,0.02343 0.0069,0.03721 z m -0.467155,-1.209917 q 0,-0.08819 -0.03996,-0.148828 -0.03996,-0.06063 -0.130913,-0.08544 -0.02756,-0.0069 -0.06339,-0.01102 -0.03445,-0.0041 -0.09646,-0.0041 h -0.162608 v 0.50574 h 0.184657 q 0.07717,0 0.135048,-0.01792 0.05788,-0.01929 0.09646,-0.05236 0.03858,-0.03445 0.05788,-0.0813 0.01929,-0.04685 0.01929,-0.104731 z"
         style="font-style:normal;font-variant:normal;font-weight:bold;font-stretch:normal;font-size:2.82222223px;font-family:Calibri;-inkscape-font-specification:'Calibri Bold';stroke-width:0.26458332"
         id="path5843" />
      <path
         d="m 41.220704,98.992147 q 0.01102,0.02343 0.0096,0.03858 0,0.01516 -0.01929,0.0248 -0.01929,0.0096 -0.05925,0.0124 -0.03996,0.0041 -0.106109,0.0041 -0.06201,0 -0.100597,-0.0028 -0.03721,-0.0014 -0.05926,-0.0069 -0.02067,-0.0069 -0.03169,-0.01516 -0.0096,-0.0096 -0.01516,-0.02343 l -0.227376,-0.436839 -0.227376,0.436839 q -0.0055,0.01378 -0.01516,0.02343 -0.0096,0.0083 -0.03032,0.01516 -0.01929,0.0055 -0.05512,0.0069 -0.03583,0.0028 -0.09371,0.0028 -0.06063,0 -0.09646,-0.0041 -0.03583,-0.0028 -0.05237,-0.0124 -0.01654,-0.0096 -0.01792,-0.0248 0,-0.01516 0.0124,-0.03858 l 0.340375,-0.604959 -0.314192,-0.567752 q -0.0124,-0.02481 -0.01378,-0.04134 0,-0.01791 0.01792,-0.02756 0.01791,-0.0096 0.0565,-0.01378 0.03996,-0.0041 0.107487,-0.0041 0.06063,0 0.09646,0.0028 0.03721,0.0014 0.05788,0.0055 0.02067,0.0041 0.03032,0.01378 0.0096,0.0083 0.01654,0.02205 l 0.219108,0.410655 0.21773,-0.410655 q 0.0041,-0.01102 0.0124,-0.01929 0.0083,-0.0083 0.02618,-0.01378 0.01791,-0.0055 0.04823,-0.0083 0.03169,-0.0028 0.08544,-0.0028 0.06063,0 0.09646,0.0028 0.03721,0.0028 0.05237,0.0124 0.01654,0.0096 0.01516,0.02756 0,0.01654 -0.01516,0.0441 l -0.305925,0.558106 z"
         style="font-style:normal;font-variant:normal;font-weight:bold;font-stretch:normal;font-size:2.82222223px;font-family:Calibri;-inkscape-font-specification:'Calibri Bold';stroke-width:0.26458332"
         id="path5845" />
    </g>
    <g
       aria-label="r"
       style="font-style:normal;font-variant:normal;font-weight:bold;font-stretch:normal;font-size:3.52777767px;line-height:1.25;font-family:Consolas;-inkscape-font-specification:'Consolas Bold';text-align:center;letter-spacing:0px;word-spacing:0px;text-anchor:middle;fill:#ffffff;fill-opacity:1;stroke:none;stroke-width:0.26458332"
       id="text303">
      <path
         d="m 61.600513,97.902118 q 0,0.04961 -0.0028,0.08131 -0.0028,0.03169 -0.0083,0.04961 -0.0055,0.01791 -0.01516,0.02481 -0.0083,0.0069 -0.02205,0.0069 -0.01102,0 -0.02481,-0.0041 -0.01378,-0.0055 -0.03169,-0.01102 -0.01654,-0.0055 -0.03721,-0.0096 -0.02067,-0.0055 -0.04548,-0.0055 -0.02894,0 -0.05788,0.0124 -0.02894,0.01103 -0.06063,0.03583 -0.03032,0.02481 -0.06477,0.06615 -0.03307,0.04134 -0.07166,0.101975 v 0.766189 q 0,0.01378 -0.0083,0.02481 -0.0083,0.0096 -0.02894,0.01654 -0.01929,0.0069 -0.05237,0.0096 -0.03307,0.0041 -0.08406,0.0041 -0.05099,0 -0.08406,-0.0041 -0.03307,-0.0028 -0.05374,-0.0096 -0.01929,-0.0069 -0.02756,-0.01654 -0.0083,-0.01102 -0.0083,-0.02481 v -1.22921 q 0,-0.01378 0.0069,-0.02343 0.0069,-0.01102 0.02481,-0.01792 0.01791,-0.0069 0.04547,-0.0096 0.02894,-0.0041 0.07166,-0.0041 0.0441,0 0.07304,0.0041 0.02894,0.0028 0.0441,0.0096 0.01654,0.0069 0.02343,0.01792 0.0069,0.0096 0.0069,0.02343 v 0.152962 q 0.04823,-0.0689 0.09095,-0.112999 0.04272,-0.04547 0.0813,-0.07166 0.03859,-0.02618 0.07717,-0.03583 0.03858,-0.01102 0.07717,-0.01102 0.01791,0 0.03858,0.0028 0.02067,0.0014 0.04272,0.0069 0.02205,0.0041 0.03858,0.01103 0.01654,0.0055 0.02343,0.0124 0.0083,0.0069 0.01102,0.01516 0.0041,0.0083 0.0069,0.02343 0.0028,0.01378 0.0041,0.04272 0.0014,0.02894 0.0014,0.07855 z"
         style="font-style:normal;font-variant:normal;font-weight:bold;font-stretch:normal;font-size:2.82222223px;font-family:Calibri;-inkscape-font-specification:'Calibri Bold';stroke-width:0.26458332"
         id="path5848" />
    </g>
    <g
       aria-label="D"
       style="font-style:normal;font-variant:normal;font-weight:bold;font-stretch:normal;font-size:3.52777767px;line-height:1.25;font-family:Consolas;-inkscape-font-specification:'Consolas Bold';text-align:center;letter-spacing:0px;word-spacing:0px;text-anchor:middle;fill:#ffffff;fill-opacity:1;stroke:none;stroke-width:0.26458332"
       id="text307">
      <path
         d="m 71.121373,98.154385 q 0,0.245291 -0.06477,0.420302 -0.06339,0.173633 -0.183279,0.283876 -0.11989,0.110243 -0.292144,0.162608 -0.170877,0.05099 -0.4079,0.05099 h -0.425814 q -0.04547,0 -0.07717,-0.02618 -0.03032,-0.02756 -0.03032,-0.08819 v -1.554427 q 0,-0.06063 0.03032,-0.08682 0.03169,-0.02756 0.07717,-0.02756 h 0.457509 q 0.238401,0 0.403765,0.0565 0.166743,0.05512 0.279742,0.165365 0.114377,0.108865 0.173633,0.270095 0.05926,0.16123 0.05926,0.373448 z m -0.374826,0.0124 q 0,-0.12678 -0.03032,-0.235645 -0.02894,-0.108865 -0.09508,-0.188791 -0.06477,-0.07993 -0.168121,-0.124023 -0.101975,-0.04548 -0.268717,-0.04548 h -0.18328 v 1.212674 h 0.188792 q 0.148828,0 0.250803,-0.03858 0.101974,-0.03858 0.169498,-0.115755 0.0689,-0.07855 0.101975,-0.194304 0.03445,-0.115755 0.03445,-0.270095 z"
         style="font-style:normal;font-variant:normal;font-weight:bold;font-stretch:normal;font-size:2.82222223px;font-family:Calibri;-inkscape-font-specification:'Calibri Bold';stroke-width:0.26458332"
         id="path5851" />
    </g>
    <g
       aria-label="F"
       style="font-style:normal;font-variant:normal;font-weight:bold;font-stretch:normal;font-size:3.52777767px;line-height:1.25;font-family:Consolas;-inkscape-font-specification:'Consolas Bold';text-align:center;letter-spacing:0px;word-spacing:0px;text-anchor:middle;fill:#ffffff;fill-opacity:1;stroke:none;stroke-width:0.26458332"
       id="text299-1">
      <path
         d="m 82.193924,97.429451 q 0,0.04134 -0.0041,0.07028 -0.0028,0.02756 -0.01102,0.0441 -0.0069,0.01654 -0.01654,0.02481 -0.0096,0.0083 -0.02205,0.0083 H 81.55727 v 0.479558 h 0.547082 q 0.0124,0 0.02205,0.0069 0.0096,0.0069 0.01654,0.02343 0.0083,0.01654 0.01102,0.0441 0.0041,0.02756 0.0041,0.0689 0,0.04134 -0.0041,0.0689 -0.0028,0.02756 -0.01102,0.04548 -0.0069,0.01791 -0.01654,0.02618 -0.0096,0.0069 -0.02205,0.0069 H 81.55727 v 0.664214 q 0,0.01516 -0.0083,0.02618 -0.0083,0.01102 -0.03032,0.01929 -0.02067,0.0069 -0.05512,0.01102 -0.03445,0.0041 -0.08819,0.0041 -0.05237,0 -0.08819,-0.0041 -0.03445,-0.0041 -0.05512,-0.01102 -0.02067,-0.0083 -0.03032,-0.01929 -0.0083,-0.01102 -0.0083,-0.02618 V 97.395 q 0,-0.06063 0.03032,-0.08682 0.03169,-0.02756 0.07717,-0.02756 h 0.839226 q 0.0124,0 0.02205,0.0083 0.0096,0.0069 0.01654,0.0248 0.0083,0.01654 0.01102,0.04548 0.0041,0.02894 0.0041,0.07028 z"
         style="font-style:normal;font-variant:normal;font-weight:bold;font-stretch:normal;font-size:2.82222223px;font-family:Calibri;-inkscape-font-specification:'Calibri Bold';stroke-width:0.26458332"
         id="path5854" />
    </g>
    <g
       aria-label="X"
       style="font-style:normal;font-variant:normal;font-weight:bold;font-stretch:normal;font-size:3.52777767px;line-height:1.25;font-family:Consolas;-inkscape-font-specification:'Consolas Bold';text-align:center;letter-spacing:0px;word-spacing:0px;text-anchor:middle;fill:#ffffff;fill-opacity:1;stroke:none;stroke-width:0.26458332"
       id="text365">
      <path
         d="m 45.795453,138.0498 q 0.03101,0.0603 0.03962,0.0965 0.01034,0.0362 -0.01034,0.0551 -0.02067,0.0189 -0.07579,0.0241 -0.0534,0.005 -0.149861,0.005 -0.08096,0 -0.127469,-0.003 -0.04651,-0.003 -0.07407,-0.0103 -0.02584,-0.009 -0.0379,-0.0224 -0.01206,-0.0138 -0.02067,-0.0344 l -0.418579,-0.80443 -0.416857,0.80443 q -0.01034,0.0207 -0.02239,0.0344 -0.01206,0.0138 -0.03962,0.0224 -0.02584,0.007 -0.07407,0.0103 -0.04651,0.003 -0.124024,0.003 -0.08957,0 -0.139526,-0.005 -0.04823,-0.005 -0.06546,-0.0241 -0.01723,-0.0189 -0.0069,-0.0551 0.01033,-0.0362 0.04306,-0.0965 l 0.53399,-0.97323 -0.496094,-0.91468 q -0.03101,-0.062 -0.04306,-0.0982 -0.01033,-0.0379 0.0086,-0.0551 0.02067,-0.0189 0.07407,-0.0224 0.0534,-0.005 0.151585,-0.005 0.08096,0 0.127468,0.003 0.04823,0.003 0.07579,0.0121 0.02756,0.007 0.0379,0.0207 0.01206,0.0138 0.02239,0.0344 l 0.391019,0.73725 0.380683,-0.73725 q 0.01034,-0.0207 0.02067,-0.0344 0.01206,-0.0138 0.03617,-0.0207 0.02584,-0.009 0.0689,-0.0121 0.04479,-0.003 0.122301,-0.003 0.08613,0 0.136081,0.005 0.04995,0.003 0.0689,0.0224 0.01895,0.0189 0.0086,0.0551 -0.0086,0.0362 -0.0379,0.0982 l -0.496094,0.90951 z"
         style="font-style:normal;font-variant:normal;font-weight:bold;font-stretch:normal;font-size:3.52777767px;font-family:Calibri;-inkscape-font-specification:'Calibri Bold';stroke-width:0.26458332"
         id="path5857" />
    </g>
    <g
       aria-label="Y"
       style="font-style:normal;font-variant:normal;font-weight:bold;font-stretch:normal;font-size:3.52777767px;line-height:1.25;font-family:Consolas;-inkscape-font-specification:'Consolas Bold';text-align:center;letter-spacing:0px;word-spacing:0px;text-anchor:middle;fill:#ffffff;fill-opacity:1;stroke:none;stroke-width:0.26458332"
       id="text369">
      <path
         d="m 62.295057,137.37457 v 0.78376 q 0,0.0172 -0.01206,0.031 -0.01033,0.0138 -0.03617,0.0224 -0.02584,0.009 -0.07062,0.0138 -0.04306,0.005 -0.108521,0.005 -0.06718,0 -0.110243,-0.005 -0.04306,-0.005 -0.07062,-0.0138 -0.02584,-0.009 -0.03617,-0.0224 -0.01033,-0.0138 -0.01033,-0.031 v -0.78376 l -0.609782,-1.2144 q -0.03273,-0.0637 -0.04306,-0.0982 -0.0086,-0.0362 0.01034,-0.0534 0.02067,-0.0189 0.07407,-0.0224 0.0534,-0.005 0.148139,-0.005 0.07924,0 0.125746,0.003 0.04823,0.003 0.07579,0.0138 0.02756,0.009 0.03962,0.0241 0.01378,0.0155 0.02584,0.0396 l 0.248047,0.54777 q 0.03617,0.0792 0.07062,0.16709 0.03617,0.0879 0.07235,0.18431 h 0.0034 q 0.03273,-0.093 0.06718,-0.18086 0.03445,-0.0879 0.06718,-0.16709 l 0.244602,-0.54433 q 0.0086,-0.0276 0.02067,-0.0431 0.01378,-0.0172 0.03962,-0.0276 0.02584,-0.0103 0.07062,-0.0138 0.04479,-0.003 0.118856,-0.003 0.09819,0 0.151584,0.005 0.05512,0.003 0.07407,0.0224 0.02067,0.0172 0.01034,0.0534 -0.01034,0.0362 -0.04134,0.0982 z"
         style="font-style:normal;font-variant:normal;font-weight:bold;font-stretch:normal;font-size:3.52777767px;font-family:Calibri;-inkscape-font-specification:'Calibri Bold';stroke-width:0.26458332"
         id="path5860" />
    </g>
    <g
       style="font-style:normal;font-variant:normal;font-weight:bold;font-stretch:normal;font-size:3.52777767px;line-height:1.25;font-family:Consolas;-inkscape-font-specification:'Consolas Bold';text-align:center;letter-spacing:0px;word-spacing:0px;text-anchor:middle;fill:#ffffff;fill-opacity:1;stroke:none;stroke-width:0.26458332"
       id="text373" />
    <path
       style="fill:#cce6f1;fill-opacity:1;stroke-width:0.26458332"
       d="m 35.193085,60.660389 h 15.10741 v 6.26747 h -15.10741 z"
       id="rect5490" />
    <path
       style="fill:#cce6f1;fill-opacity:1;stroke-width:0.26458332"
       d="M 35.239857,59.210449 H 74.622021 V 77.685455 H 35.239857 Z"
       id="rect264" />
    <g
       style="font-style:normal;font-variant:normal;font-weight:bold;font-stretch:normal;font-size:13.33333302px;line-height:1.25;font-family:Consolas;-inkscape-font-specification:'Consolas Bold';text-align:center;letter-spacing:0px;word-spacing:0px;text-anchor:middle;fill:#000000;fill-opacity:1;stroke:none"
       id="flowRoot250" />
    <path
       inkscape:connector-curvature="0"
       id="path38411"
       d="M 86.911315,96.163954 H 35.23983 V 59.205875 h 51.671485 z m 0,0"
       style="fill:#1e282b;fill-opacity:1;fill-rule:nonzero;stroke:none;stroke-width:0.27602378" />
    <path
       inkscape:connector-curvature="0"
       id="path5509"
       d="M 35.239857,63.118735 H 86.911288"
       style="clip-rule:nonzero;fill:none;stroke:#ffffff;stroke-width:0.26458332;stroke-linecap:butt;stroke-linejoin:miter;stroke-miterlimit:10;stroke-dasharray:none;stroke-opacity:0.25098039" />
    <path
       inkscape:connector-curvature="0"
       id="path5503"
       d="M 35.239857,70.402095 H 86.911288"
       style="clip-rule:nonzero;fill:none;stroke:#ffffff;stroke-width:0.26458332;stroke-linecap:butt;stroke-linejoin:miter;stroke-miterlimit:10;stroke-dasharray:none;stroke-opacity:0.25098039" />
    <path
       inkscape:connector-curvature="0"
       id="path5497"
       d="M 35.239857,84.967745 H 86.911288"
       style="clip-rule:nonzero;fill:none;stroke:#ffffff;stroke-width:0.26458332;stroke-linecap:butt;stroke-linejoin:miter;stroke-miterlimit:10;stroke-dasharray:none;stroke-opacity:0.25098039" />
    <path
       inkscape:connector-curvature="0"
       id="path5491"
       d="M 35.239857,92.251106 H 86.911288"
       style="clip-rule:nonzero;fill:none;stroke:#ffffff;stroke-width:0.26458332;stroke-linecap:butt;stroke-linejoin:miter;stroke-miterlimit:10;stroke-dasharray:none;stroke-opacity:0.25098039" />
    <path
       inkscape:connector-curvature="0"
       id="path5305"
       d="M 35.239857,77.685455 H 86.911288"
       style="clip-rule:nonzero;fill:none;stroke:#ffffff;stroke-width:0.26458332;stroke-linecap:butt;stroke-linejoin:miter;stroke-miterlimit:10;stroke-dasharray:none;stroke-opacity:0.25098039" />
    <path
       inkscape:connector-curvature="0"
       id="path4803"
       d="M 61.076128,63.118735 V 92.253254"
       style="clip-rule:nonzero;fill:none;stroke:#ffffff;stroke-width:0.26458332;stroke-linecap:butt;stroke-linejoin:miter;stroke-miterlimit:10;stroke-dasharray:none;stroke-opacity:0.25098039" />
    <path
       inkscape:connector-curvature="0"
       id="path4797"
       d="M 69.687839,63.118735 V 92.253254"
       style="clip-rule:nonzero;fill:none;stroke:#ffffff;stroke-width:0.26458332;stroke-linecap:butt;stroke-linejoin:miter;stroke-miterlimit:10;stroke-dasharray:none;stroke-opacity:0.25098039" />
    <path
       inkscape:connector-curvature="0"
       id="path4791"
       d="M 52.464364,63.118735 V 92.253254"
       style="clip-rule:nonzero;fill:none;stroke:#ffffff;stroke-width:0.26458332;stroke-linecap:butt;stroke-linejoin:miter;stroke-miterlimit:10;stroke-dasharray:none;stroke-opacity:0.25098039" />
    <path
       inkscape:connector-curvature="0"
       id="path4785"
       d="M 43.852653,63.118735 V 92.253254"
       style="clip-rule:nonzero;fill:none;stroke:#ffffff;stroke-width:0.26458332;stroke-linecap:butt;stroke-linejoin:miter;stroke-miterlimit:10;stroke-dasharray:none;stroke-opacity:0.25098039" />
    <path
       inkscape:connector-curvature="0"
       id="path4779"
       d="M 78.300635,63.118735 V 92.253254"
       style="clip-rule:nonzero;fill:none;stroke:#ffffff;stroke-width:0.26458332;stroke-linecap:butt;stroke-linejoin:miter;stroke-miterlimit:10;stroke-dasharray:none;stroke-opacity:0.25098039" />
    <g
       aria-label="FROZEN WASTELAND"
       style="font-style:normal;font-variant:normal;font-weight:bold;font-stretch:normal;font-size:3.52777767px;line-height:1.25;font-family:Consolas;-inkscape-font-specification:'Consolas Bold';text-align:start;letter-spacing:0px;word-spacing:0px;text-anchor:start;fill:#00a3f2;fill-opacity:1;stroke:none;stroke-width:0.26458332"
       id="text3885-7">
      <path
         d="m 46.838776,150.2604 q 0.119945,-0.11995 0.1905,-0.21167 0.07408,-0.0917 0.112889,-0.16933 0.04233,-0.0776 0.05292,-0.14464 0.01411,-0.0706 0.01411,-0.14817 0,-0.0952 -0.04586,-0.22931 -0.04586,-0.13405 -0.102306,-0.28575 -0.05644,-0.15169 -0.102305,-0.31044 -0.04586,-0.15875 -0.04586,-0.30339 0,-0.0776 0.02469,-0.15169 0.02822,-0.0741 0.06703,-0.14111 0.04233,-0.0706 0.09172,-0.13053 0.04939,-0.0635 0.09878,-0.11289 -0.07056,-0.0141 -0.123472,-0.0212 -0.05292,-0.0106 -0.07761,-0.0106 -0.130527,0 -0.22225,0.0706 -0.08819,0.067 -0.1905,0.16934 0,-0.11995 0.03528,-0.24695 0.03881,-0.13052 0.116417,-0.23636 0.07761,-0.10583 0.194028,-0.17286 0.119944,-0.067 0.282222,-0.067 0.112889,0 0.208139,0.0176 0.09878,0.0141 0.179916,0.0353 0.08114,0.0212 0.148167,0.0388 0.06703,0.0141 0.119944,0.0141 0.08114,0 0.141112,-0.0212 0.0635,-0.0247 0.123472,-0.0847 0,0.0776 -0.03175,0.17639 -0.02822,0.0988 -0.08819,0.1905 -0.05644,0.0882 -0.148166,0.1517 -0.09172,0.06 -0.211667,0.06 -0.05997,0 -0.137583,-0.007 -0.07408,-0.0106 -0.155222,-0.0247 -0.0071,0.0247 -0.01058,0.0459 -0.0035,0.0212 -0.0071,0.0388 -0.0035,0.0212 -0.0035,0.0388 0,0.0776 0.01058,0.1517 0.01411,0.0705 0.03881,0.14463 h 0.712611 l -0.08114,0.23989 q -0.01058,0.0459 -0.01411,0.067 -0.0035,0.0212 -0.01058,0.067 l -0.130527,-0.0917 h -0.363361 q 0.07761,0.17639 0.144639,0.35983 0.06703,0.17992 0.06703,0.38453 0,0.18344 -0.07408,0.34219 -0.07408,0.15522 -0.197556,0.27164 -0.119944,0.11642 -0.278694,0.17992 -0.155222,0.067 -0.321028,0.067 z"
         style="font-style:normal;font-variant:normal;font-weight:normal;font-stretch:normal;font-family:'Bradley Gratis';-inkscape-font-specification:'Bradley Gratis';text-align:start;text-anchor:start;stroke-width:0.26458332"
         id="path5867" />
      <path
         d="m 48.908865,148.53178 q 0.07056,-0.0423 0.137583,-0.0988 0.07056,-0.0564 0.123473,-0.127 0.05644,-0.0706 0.08819,-0.16228 0.03528,-0.0952 0.03528,-0.21167 0,-0.0988 -0.03881,-0.1658 -0.03528,-0.0706 -0.08467,-0.11289 -0.04939,-0.0423 -0.09878,-0.06 -0.04586,-0.0176 -0.07056,-0.0176 -0.02822,0 -0.05292,0.0106 -0.02117,0.0106 -0.03881,0.0247 z m -0.518583,-0.94191 q -0.112889,-0.0635 -0.112889,-0.23636 0.03175,0.0317 0.112889,0.0564 0.08114,0.0212 0.172861,0.0212 0.04586,0 0.130528,-0.0106 0.08467,-0.0141 0.172861,-0.0282 0.09172,-0.0141 0.172861,-0.0247 0.08467,-0.0141 0.130528,-0.0141 0.116416,0 0.232833,0.0353 0.116417,0.0353 0.215194,0.11995 0.09878,0.0847 0.165806,0.2293 0.07056,0.14112 0.09172,0.35984 l -0.627944,0.4445 q 0.07055,0.0282 0.15875,0.0952 0.08819,0.067 0.165805,0.18697 0.08114,0.11994 0.134056,0.30692 0.05292,0.18344 0.05292,0.45155 0,0.23284 0.02117,0.37747 0.02117,0.14464 0.05292,0.23284 0.03175,0.0882 0.06703,0.13053 0.0388,0.0459 0.07055,0.0776 -0.155222,0 -0.275166,-0.0917 -0.119945,-0.0882 -0.211667,-0.23283 -0.09172,-0.14464 -0.162278,-0.32808 -0.06703,-0.18345 -0.123472,-0.37042 -0.05645,-0.18697 -0.105833,-0.35983 -0.04586,-0.17286 -0.09525,-0.29986 -0.02469,0.0176 -0.04939,0.0353 -0.02117,0.0141 -0.03881,0.0317 v 1.31939 h -0.518583 z"
         style="font-style:normal;font-variant:normal;font-weight:normal;font-stretch:normal;font-family:'Bradley Gratis';-inkscape-font-specification:'Bradley Gratis';text-align:start;text-anchor:start;stroke-width:0.26458332"
         id="path5869" />
      <path
         d="m 50.796612,149.63951 q 0,0.11994 0.01411,0.18697 0.01764,0.067 0.04233,0.1023 0.02822,0.0318 0.0635,0.0388 0.03528,0.007 0.07056,0.007 0.07056,0 0.116417,-0.0952 0.04586,-0.0988 0.04586,-0.29987 v -1.53105 q 0,-0.15875 -0.01764,-0.25753 -0.01411,-0.1023 -0.04233,-0.15522 -0.0247,-0.0564 -0.05997,-0.0776 -0.03175,-0.0212 -0.0635,-0.0212 -0.06703,0 -0.119944,0.0847 -0.04939,0.0811 -0.04939,0.26105 z m 1.005417,-0.88548 q 0,0.25753 -0.06703,0.508 -0.0635,0.25048 -0.176389,0.44803 -0.109361,0.19756 -0.261056,0.32103 -0.151694,0.11994 -0.321027,0.11994 -0.15875,0 -0.310445,-0.10936 -0.148166,-0.10936 -0.264583,-0.29986 -0.112889,-0.1905 -0.183445,-0.4445 -0.07055,-0.254 -0.07055,-0.54328 0,-0.23636 0.0635,-0.4833 0.06703,-0.25047 0.179917,-0.45156 0.112888,-0.20108 0.264583,-0.32808 0.151694,-0.13053 0.321028,-0.13053 0.148166,0 0.292805,0.10936 0.148167,0.10936 0.264584,0.29986 0.119944,0.18698 0.194027,0.44098 0.07408,0.254 0.07408,0.54327 z"
         style="font-style:normal;font-variant:normal;font-weight:normal;font-stretch:normal;font-family:'Bradley Gratis';-inkscape-font-specification:'Bradley Gratis';text-align:start;text-anchor:start;stroke-width:0.26458332"
         id="path5871" />
      <path
         d="m 51.956093,150.11223 q 0.04586,-0.27164 0.130528,-0.51153 0.08819,-0.23989 0.194028,-0.45861 0.105833,-0.21872 0.218722,-0.41628 0.116417,-0.20108 0.218722,-0.38805 0.102306,-0.18698 0.179917,-0.36336 0.07761,-0.17992 0.112889,-0.35984 -0.02822,-0.0176 -0.06703,-0.0318 -0.03528,-0.0141 -0.137583,-0.0141 -0.05292,0 -0.09525,0.0282 -0.03881,0.0247 -0.06703,0.0635 -0.02822,0.0353 -0.04586,0.0776 -0.01411,0.0388 -0.01411,0.0635 0,0.0282 0.01058,0.067 0.01411,0.0353 0.02822,0.0706 0.01764,0.0353 0.03528,0.067 0.01764,0.0282 0.03175,0.0423 l -0.430389,0.26811 q -0.08467,-0.0811 -0.144639,-0.19756 -0.05644,-0.11994 -0.05644,-0.23988 0,-0.06 0.03175,-0.14817 0.03175,-0.0882 0.102305,-0.16933 0.07056,-0.0847 0.183445,-0.14112 0.116417,-0.06 0.282222,-0.06 0.130528,0 0.218722,0.0176 0.08819,0.0176 0.155223,0.0423 0.06703,0.0212 0.123472,0.0388 0.05997,0.0176 0.134055,0.0176 0.04586,0 0.09878,-0.007 0.05292,-0.007 0.09878,-0.0212 0.04586,-0.0141 0.08114,-0.0282 0.0388,-0.0176 0.05997,-0.0388 -0.04233,0.22225 -0.134056,0.46214 -0.09172,0.23989 -0.204611,0.47978 -0.109361,0.23988 -0.232833,0.46919 -0.119944,0.22931 -0.22225,0.43039 -0.09878,0.19755 -0.169333,0.35983 -0.06703,0.15875 -0.07408,0.26106 0.141111,0.06 0.239889,0.06 0.0635,0 0.130528,-0.0141 0.06703,-0.0176 0.119944,-0.0529 0.05644,-0.0353 0.09172,-0.0882 0.03528,-0.0565 0.03528,-0.13406 0,-0.0776 -0.01764,-0.127 -0.01411,-0.0529 -0.03881,-0.0847 -0.02469,-0.0353 -0.05644,-0.06 -0.03175,-0.0282 -0.05997,-0.0564 l 0.405695,-0.29986 q 0.141111,0.10583 0.201083,0.22578 0.05997,0.11994 0.05997,0.26105 0,0.067 -0.02117,0.13053 -0.01764,0.06 -0.04586,0.11289 -0.02469,0.0494 -0.05997,0.0917 -0.03175,0.0423 -0.05644,0.067 l 0.05997,0.06 q 0.01764,0.0176 0.03881,0.0529 0.02117,0.0317 0.02117,0.0564 0,0.0282 -0.02469,0.0811 -0.02117,0.0564 -0.08819,0.0988 -0.02469,-0.0318 -0.05644,-0.0565 -0.02822,-0.0212 -0.05997,-0.0388 -0.03175,-0.0176 -0.06703,-0.0176 z"
         style="font-style:normal;font-variant:normal;font-weight:normal;font-stretch:normal;font-family:'Bradley Gratis';-inkscape-font-specification:'Bradley Gratis';text-align:start;text-anchor:start;stroke-width:0.26458332"
         id="path5873" />
      <path
         d="m 55.462429,147.38526 v 0.381 q -0.03881,-0.0353 -0.102306,-0.0776 -0.05997,-0.0423 -0.130528,-0.0741 -0.06703,-0.0353 -0.134055,-0.0564 -0.06703,-0.0247 -0.112889,-0.0247 -0.08467,0 -0.172861,0.067 -0.08819,0.067 -0.144639,0.17992 -0.05644,0.10936 -0.07408,0.28928 -0.01411,0.17638 -0.01411,0.45508 h 0.903111 l -0.179917,0.40217 q -0.03528,-0.0529 -0.08467,-0.0706 -0.04586,-0.0212 -0.08467,-0.0212 h -0.553861 q 0,0.20109 0.0071,0.39511 0.0071,0.1905 0.04586,0.3422 0.04233,0.15169 0.127,0.24694 0.08467,0.0917 0.243417,0.0917 0.08467,0 0.165805,-0.0317 0.08467,-0.0318 0.155223,-0.0776 0.07055,-0.0494 0.123472,-0.1023 0.05644,-0.0529 0.08819,-0.0952 v 0.508 h -0.47625 q -0.342194,0 -0.553861,-0.11995 -0.211666,-0.12347 -0.331611,-0.32808 -0.116417,-0.20814 -0.15875,-0.47978 -0.03881,-0.27164 -0.03881,-0.56797 0,-0.0741 0.01058,-0.19403 0.01058,-0.12347 0.04586,-0.25752 0.03528,-0.13759 0.102306,-0.27517 0.06703,-0.14111 0.179916,-0.25047 0.116417,-0.11289 0.28575,-0.18345 0.169334,-0.0706 0.409222,-0.0706 z"
         style="font-style:normal;font-variant:normal;font-weight:normal;font-stretch:normal;font-family:'Bradley Gratis';-inkscape-font-specification:'Bradley Gratis';text-align:start;text-anchor:start;stroke-width:0.26458332"
         id="path5875" />
      <path
         d="m 55.848831,150.11223 v -2.4377 q 0,-0.0988 -0.04233,-0.1658 -0.04233,-0.0706 -0.08467,-0.12347 h 0.684389 v 0.35983 l 0.391583,-0.45508 q 0.179917,0.16227 0.296333,0.32455 0.116417,0.15875 0.183445,0.32103 0.06703,0.15875 0.09172,0.32456 0.02469,0.16227 0.02469,0.33513 0,0.16934 -0.02822,0.32456 -0.02469,0.15169 -0.07408,0.29986 -0.04939,0.14817 -0.119945,0.29986 -0.06703,0.1517 -0.148166,0.3175 h 0.127 q 0.04586,0 0.09525,-0.0318 0.04939,-0.0317 0.09878,-0.0317 v 0.33867 H 56.66022 q 0.09525,-0.19403 0.151694,-0.34925 0.05997,-0.15522 0.09172,-0.29633 0.03175,-0.14112 0.04233,-0.27517 0.01058,-0.13406 0.01058,-0.28575 0,-0.1517 -0.05292,-0.31397 -0.04939,-0.16581 -0.123472,-0.30339 -0.07408,-0.13759 -0.15875,-0.22578 -0.08114,-0.0882 -0.148167,-0.0882 -0.04233,0 -0.06703,0.0212 v 2.11667 z"
         style="font-style:normal;font-variant:normal;font-weight:normal;font-stretch:normal;font-family:'Bradley Gratis';-inkscape-font-specification:'Bradley Gratis';text-align:start;text-anchor:start;stroke-width:0.26458332"
         id="path5877" />
      <path
         d="m 59.087,150.22865 q -0.1905,-0.13759 -0.324556,-0.29281 -0.134055,-0.15875 -0.215194,-0.32808 -0.08114,-0.16934 -0.119945,-0.3422 -0.03528,-0.17639 -0.03528,-0.34572 0,-0.16581 0.03528,-0.32808 0.03528,-0.16581 0.09172,-0.32456 0.05997,-0.16228 0.137583,-0.31397 0.07761,-0.15522 0.15875,-0.30339 h -0.02117 q -0.01058,0 -0.02469,0 -0.01058,-0.004 -0.02822,-0.004 -0.05645,0 -0.137584,0.0141 -0.07761,0.0141 -0.151694,0.0706 v -0.34572 h 0.740833 q -0.09172,0.15875 -0.15875,0.32102 -0.0635,0.15875 -0.105833,0.31045 -0.03881,0.14817 -0.05997,0.28222 -0.01764,0.13053 -0.01764,0.23636 0,0.10584 0.02117,0.254 0.02117,0.14817 0.07761,0.30692 0.05997,0.15522 0.15875,0.29633 0.102305,0.14111 0.264583,0.22931 l 0.105833,-0.0776 q -0.0635,-0.11995 -0.09878,-0.22931 -0.03528,-0.11289 -0.05292,-0.21167 -0.01411,-0.0988 -0.01764,-0.17991 -0.0035,-0.0847 -0.0035,-0.1517 0,-0.10936 0.02822,-0.24694 0.02822,-0.13758 0.08114,-0.28575 0.05292,-0.14817 0.127,-0.29986 0.07761,-0.1517 0.172861,-0.29634 -0.134055,0 -0.22225,0.0212 -0.08467,0.0212 -0.144639,0.06 v -0.33866 h 0.762 q -0.0635,0.0882 -0.127,0.20108 -0.05997,0.10936 -0.105833,0.23989 -0.04586,0.127 -0.07408,0.27164 -0.02822,0.14464 -0.02822,0.29633 0,0.25753 0.04586,0.45861 0.04586,0.19756 0.127,0.34925 0.08114,0.1517 0.1905,0.26106 0.109361,0.10936 0.232833,0.18697 v -2.26483 h 0.529167 v 2.12019 q 0,0.0247 -0.03528,0.0706 -0.03528,0.0423 -0.09172,0.0988 -0.05292,0.0565 -0.127,0.12348 -0.07056,0.0635 -0.144639,0.127 -0.176389,0.14816 -0.398639,0.32455 -0.172861,-0.13405 -0.296333,-0.26458 -0.123473,-0.13053 -0.211667,-0.254 z"
         style="font-style:normal;font-variant:normal;font-weight:normal;font-stretch:normal;font-family:'Bradley Gratis';-inkscape-font-specification:'Bradley Gratis';text-align:start;text-anchor:start;stroke-width:0.26458332"
         id="path5879" />
      <path
         d="m 62.339059,148.41537 v -0.87842 h -0.416277 q -0.0035,0.23636 -0.01411,0.4692 -0.0071,0.2293 -0.01764,0.40922 z m 0.719667,-1.03011 q -0.03881,0.0282 -0.07408,0.0706 -0.03175,0.0423 -0.05644,0.0917 -0.02117,0.0459 -0.03528,0.0917 -0.01411,0.0423 -0.01411,0.0741 v 2.39889 h -0.53975 v -1.32997 h -0.472722 q -0.0035,0.127 -0.03528,0.27869 -0.03175,0.14817 -0.08819,0.29986 -0.05292,0.14817 -0.127,0.28928 -0.07055,0.13758 -0.162278,0.24342 -0.08819,0.10583 -0.1905,0.16933 -0.09878,0.0635 -0.208139,0.0635 -0.07056,0 -0.123472,-0.0423 -0.04939,-0.0423 -0.04939,-0.11995 0,-0.0494 0.03175,-0.0705 0.03175,-0.0247 0.06703,-0.0247 0.03175,0 0.04939,0.0106 0.01764,0.007 0.03175,0.0212 0.01764,0.0106 0.03881,0.0212 0.02117,0.007 0.05997,0.007 0.0635,0 0.102305,-0.0635 0.03881,-0.067 0.0635,-0.17638 0.02469,-0.11289 0.03528,-0.25753 0.01411,-0.14817 0.02117,-0.31045 0.0071,-0.16227 0.01764,-0.32808 0.01058,-0.16933 0.02822,-0.32456 0.02117,-0.18344 0.0635,-0.33513 0.04586,-0.1517 0.09525,-0.26812 0.04939,-0.11641 0.09878,-0.19755 0.04939,-0.0811 0.08467,-0.13053 h -0.07761 q -0.06703,0 -0.123472,0.0212 -0.05644,0.0176 -0.102306,0.0423 -0.04233,0.0212 -0.07761,0.0423 -0.03175,0.0176 -0.05644,0.0176 -0.05997,0 -0.08819,-0.0423 -0.02822,-0.0423 -0.02822,-0.0952 0,-0.0494 0.05292,-0.0917 0.05644,-0.0459 0.155222,-0.0459 z"
         style="font-style:normal;font-variant:normal;font-weight:normal;font-stretch:normal;font-family:'Bradley Gratis';-inkscape-font-specification:'Bradley Gratis';text-align:start;text-anchor:start;stroke-width:0.26458332"
         id="path5881" />
      <path
         d="m 63.838917,150.2357 q -0.08114,-0.0811 -0.186972,-0.15875 -0.102306,-0.0776 -0.201084,-0.13758 -0.09525,-0.06 -0.169333,-0.10231 -0.07056,-0.0423 -0.08114,-0.0529 0.03528,-0.0423 0.08819,-0.11642 0.05292,-0.0776 0.102306,-0.1517 0.05292,-0.0741 0.09172,-0.13052 0.04233,-0.06 0.05292,-0.0706 0.04939,0.0317 0.134055,0.0882 0.08819,0.0529 0.172862,0.11288 0.08819,0.06 0.15875,0.10937 0.07055,0.0494 0.09172,0.0705 0.04939,-0.0282 0.08114,-0.0741 0.03528,-0.0459 0.03528,-0.14817 0,-0.0882 -0.07408,-0.18697 -0.07055,-0.0988 -0.176389,-0.20814 -0.105833,-0.10936 -0.232833,-0.22931 -0.127,-0.11994 -0.232833,-0.24694 -0.105834,-0.127 -0.179917,-0.25753 -0.07056,-0.13053 -0.07056,-0.26811 0,-0.0988 0.04939,-0.18344 0.05292,-0.0882 0.130528,-0.16228 0.07761,-0.0776 0.169333,-0.13758 0.09525,-0.0635 0.179917,-0.11642 0.08819,-0.0564 0.155222,-0.0988 0.06703,-0.0459 0.09525,-0.0811 0.02117,0.0176 0.09172,0.0882 0.07408,0.067 0.15875,0.14464 0.08467,0.0776 0.15875,0.13758 0.07761,0.06 0.102306,0.06 -0.03528,0.0282 -0.08819,0.0847 -0.04939,0.0529 -0.102306,0.11289 -0.04939,0.06 -0.09172,0.11641 -0.03881,0.0529 -0.05644,0.0811 -0.08114,-0.0353 -0.162277,-0.10583 -0.08114,-0.0706 -0.148167,-0.13758 -0.06703,-0.067 -0.112889,-0.11642 -0.04586,-0.0529 -0.05997,-0.0529 -0.02822,0 -0.04939,0.0317 -0.01764,0.0282 -0.01764,0.067 0,0.0847 0.07408,0.17992 0.07761,0.0953 0.186973,0.20461 0.112888,0.10583 0.243416,0.22578 0.134056,0.11641 0.243417,0.24341 0.112889,0.127 0.186972,0.26459 0.07761,0.13405 0.07761,0.27516 0,0.127 -0.09525,0.26811 -0.09525,0.14111 -0.229305,0.28223 -0.130528,0.13758 -0.268111,0.26458 -0.137584,0.12347 -0.225778,0.21872 z"
         style="font-style:normal;font-variant:normal;font-weight:normal;font-stretch:normal;font-family:'Bradley Gratis';-inkscape-font-specification:'Bradley Gratis';text-align:start;text-anchor:start;stroke-width:0.26458332"
         id="path5883" />
      <path
         d="m 66.323905,149.63598 q 0,0.13758 -0.05644,0.23989 -0.05644,0.0988 -0.148166,0.16228 -0.08819,0.0635 -0.197556,0.0952 -0.109361,0.0318 -0.215194,0.0318 -0.165806,0 -0.324556,-0.0811 -0.15875,-0.0811 -0.28575,-0.21873 -0.127,-0.14111 -0.204611,-0.32808 -0.07761,-0.1905 -0.07761,-0.40922 0,-0.39158 0.179916,-0.72672 0.179917,-0.33867 0.500945,-0.61384 -0.02822,-0.004 -0.05292,-0.004 -0.02117,-0.004 -0.04586,-0.004 -0.08467,0 -0.179917,0.0282 -0.09525,0.0282 -0.179916,0.0741 -0.08467,0.0423 -0.155222,0.0953 -0.06703,0.0529 -0.102306,0.0988 0.02822,-0.13758 0.105833,-0.27164 0.07761,-0.13405 0.194028,-0.23636 0.116417,-0.1023 0.268111,-0.1658 0.151695,-0.0635 0.331611,-0.0635 0.09172,0 0.194028,0.0282 0.102306,0.0282 0.194028,0.0741 0.09525,0.0423 0.169333,0.0952 0.07408,0.0529 0.112889,0.10231 l -0.289278,0.44097 q -0.176389,-0.17286 -0.381,-0.24695 -0.04586,0.0741 -0.09525,0.17639 -0.04939,0.0988 -0.09172,0.22578 -0.0388,0.127 -0.06703,0.28222 -0.02469,0.1517 -0.02469,0.33161 0,0.16934 0.02469,0.29987 0.02822,0.13052 0.07056,0.22577 0.04233,0.0952 0.09525,0.15875 0.05644,0.0635 0.112889,0.10584 0.134055,0.0952 0.306916,0.10583 0.07056,0 0.162278,-0.0282 0.09525,-0.0317 0.151695,-0.0811 z"
         style="font-style:normal;font-variant:normal;font-weight:normal;font-stretch:normal;font-family:'Bradley Gratis';-inkscape-font-specification:'Bradley Gratis';text-align:start;text-anchor:start;stroke-width:0.26458332"
         id="path5885" />
      <path
         d="m 68.092149,147.38526 v 0.381 q -0.03881,-0.0353 -0.102306,-0.0776 -0.05997,-0.0423 -0.130527,-0.0741 -0.06703,-0.0353 -0.134056,-0.0564 -0.06703,-0.0247 -0.112889,-0.0247 -0.08467,0 -0.172861,0.067 -0.08819,0.067 -0.144639,0.17992 -0.05644,0.10936 -0.07408,0.28928 -0.01411,0.17638 -0.01411,0.45508 h 0.903111 l -0.179917,0.40217 q -0.03528,-0.0529 -0.08467,-0.0706 -0.04586,-0.0212 -0.08467,-0.0212 h -0.553861 q 0,0.20109 0.0071,0.39511 0.0071,0.1905 0.04586,0.3422 0.04233,0.15169 0.127,0.24694 0.08467,0.0917 0.243417,0.0917 0.08467,0 0.165806,-0.0317 0.08467,-0.0318 0.155222,-0.0776 0.07055,-0.0494 0.123472,-0.1023 0.05644,-0.0529 0.08819,-0.0952 v 0.508 h -0.47625 q -0.342195,0 -0.553862,-0.11995 -0.211666,-0.12347 -0.331611,-0.32808 -0.116416,-0.20814 -0.15875,-0.47978 -0.03881,-0.27164 -0.03881,-0.56797 0,-0.0741 0.01058,-0.19403 0.01058,-0.12347 0.04586,-0.25752 0.03528,-0.13759 0.102306,-0.27517 0.06703,-0.14111 0.179916,-0.25047 0.116417,-0.11289 0.28575,-0.18345 0.169334,-0.0706 0.409223,-0.0706 z"
         style="font-style:normal;font-variant:normal;font-weight:normal;font-stretch:normal;font-family:'Bradley Gratis';-inkscape-font-specification:'Bradley Gratis';text-align:start;text-anchor:start;stroke-width:0.26458332"
         id="path5887" />
      <path
         d="m 69.371078,148.08023 q -0.08819,-0.21167 -0.151694,-0.35278 -0.0635,-0.14111 -0.09878,-0.14111 -0.03881,0 -0.05292,0.0353 -0.01058,0.0317 -0.01058,0.0564 v 1.91206 q 0,0.0776 -0.04233,0.16228 -0.04233,0.0847 -0.112889,0.14816 0.130528,0 0.232833,-0.0635 0.102306,-0.067 0.211667,-0.14464 0.112889,-0.0811 0.250472,-0.14464 0.137583,-0.067 0.342194,-0.067 v 0.63147 h -1.594555 q 0.04586,-0.067 0.07761,-0.127 0.03528,-0.06 0.05644,-0.11995 0.02117,-0.06 0.03175,-0.127 0.01058,-0.067 0.01058,-0.14816 v -1.66864 q 0,-0.11289 -0.04233,-0.18345 -0.04233,-0.0741 -0.05997,-0.1023 0.01411,-0.004 0.07056,-0.0247 0.05997,-0.0247 0.144639,-0.0564 0.08467,-0.0317 0.186972,-0.067 0.102305,-0.0353 0.201083,-0.0635 0.09878,-0.0317 0.186972,-0.0494 0.08819,-0.0212 0.144639,-0.0212 0.08819,0 0.165806,0.0494 0.07761,0.0494 0.141111,0.12347 0.0635,0.0741 0.109361,0.1658 0.04586,0.0882 0.07408,0.16581 z"
         style="font-style:normal;font-variant:normal;font-weight:normal;font-stretch:normal;font-family:'Bradley Gratis';-inkscape-font-specification:'Bradley Gratis';text-align:start;text-anchor:start;stroke-width:0.26458332"
         id="path5889" />
      <path
         d="m 71.551245,148.41537 v -0.87842 h -0.416277 q -0.0035,0.23636 -0.01411,0.4692 -0.0071,0.2293 -0.01764,0.40922 z m 0.719667,-1.03011 q -0.03881,0.0282 -0.07408,0.0706 -0.03175,0.0423 -0.05644,0.0917 -0.02117,0.0459 -0.03528,0.0917 -0.01411,0.0423 -0.01411,0.0741 v 2.39889 h -0.53975 v -1.32997 h -0.472722 q -0.0035,0.127 -0.03528,0.27869 -0.03175,0.14817 -0.08819,0.29986 -0.05292,0.14817 -0.127,0.28928 -0.07056,0.13758 -0.162278,0.24342 -0.08819,0.10583 -0.1905,0.16933 -0.09878,0.0635 -0.208139,0.0635 -0.07055,0 -0.123472,-0.0423 -0.04939,-0.0423 -0.04939,-0.11995 0,-0.0494 0.03175,-0.0705 0.03175,-0.0247 0.06703,-0.0247 0.03175,0 0.04939,0.0106 0.01764,0.007 0.03175,0.0212 0.01764,0.0106 0.0388,0.0212 0.02117,0.007 0.05997,0.007 0.0635,0 0.102305,-0.0635 0.03881,-0.067 0.0635,-0.17638 0.02469,-0.11289 0.03528,-0.25753 0.01411,-0.14817 0.02117,-0.31045 0.0071,-0.16227 0.01764,-0.32808 0.01058,-0.16933 0.02822,-0.32456 0.02117,-0.18344 0.0635,-0.33513 0.04586,-0.1517 0.09525,-0.26812 0.04939,-0.11641 0.09878,-0.19755 0.04939,-0.0811 0.08467,-0.13053 h -0.07761 q -0.06703,0 -0.123472,0.0212 -0.05644,0.0176 -0.102306,0.0423 -0.04233,0.0212 -0.07761,0.0423 -0.03175,0.0176 -0.05644,0.0176 -0.05997,0 -0.08819,-0.0423 -0.02822,-0.0423 -0.02822,-0.0952 0,-0.0494 0.05292,-0.0917 0.05644,-0.0459 0.155222,-0.0459 z"
         style="font-style:normal;font-variant:normal;font-weight:normal;font-stretch:normal;font-family:'Bradley Gratis';-inkscape-font-specification:'Bradley Gratis';text-align:start;text-anchor:start;stroke-width:0.26458332"
         id="path5891" />
      <path
         d="m 72.571324,150.11223 v -2.4377 q 0,-0.0988 -0.04233,-0.1658 -0.04233,-0.0706 -0.08467,-0.12347 h 0.684389 v 0.35983 l 0.391583,-0.45508 q 0.179917,0.16227 0.296333,0.32455 0.116417,0.15875 0.183445,0.32103 0.06703,0.15875 0.09172,0.32456 0.02469,0.16227 0.02469,0.33513 0,0.16934 -0.02822,0.32456 -0.02469,0.15169 -0.07408,0.29986 -0.04939,0.14817 -0.119944,0.29986 -0.06703,0.1517 -0.148167,0.3175 h 0.127 q 0.04586,0 0.09525,-0.0318 0.04939,-0.0317 0.09878,-0.0317 v 0.33867 h -0.684389 q 0.09525,-0.19403 0.151694,-0.34925 0.05997,-0.15522 0.09172,-0.29633 0.03175,-0.14112 0.04233,-0.27517 0.01058,-0.13406 0.01058,-0.28575 0,-0.1517 -0.05292,-0.31397 -0.04939,-0.16581 -0.123472,-0.30339 -0.07408,-0.13759 -0.15875,-0.22578 -0.08114,-0.0882 -0.148166,-0.0882 -0.04233,0 -0.06703,0.0212 v 2.11667 z"
         style="font-style:normal;font-variant:normal;font-weight:normal;font-stretch:normal;font-family:'Bradley Gratis';-inkscape-font-specification:'Bradley Gratis';text-align:start;text-anchor:start;stroke-width:0.26458332"
         id="path5893" />
      <path
         d="m 74.460228,147.6322 q -0.09172,-0.0388 -0.127,-0.0953 -0.03528,-0.0564 -0.03528,-0.10583 0,-0.0423 0.02822,-0.0529 0.02822,0.0176 0.07761,0.0247 0.04939,0.007 0.112889,0.007 0.03175,0 0.08819,-0.0106 0.05997,-0.0106 0.130528,-0.0212 0.07055,-0.0106 0.144639,-0.0212 0.07761,-0.0106 0.144639,-0.0106 0.162277,0 0.331611,0.0847 0.169333,0.0811 0.303389,0.254 0.134055,0.16933 0.218722,0.43391 0.08819,0.26106 0.08819,0.62442 0,0.30692 -0.05292,0.52917 -0.05292,0.22225 -0.134056,0.37747 -0.08114,0.15522 -0.179917,0.25047 -0.09878,0.0917 -0.194027,0.14464 -0.09172,0.0494 -0.169334,0.067 -0.07408,0.0176 -0.109361,0.0176 -0.05292,0 -0.112889,-0.0141 -0.05997,-0.0141 -0.119944,-0.0317 -0.05644,-0.0176 -0.109361,-0.0318 -0.04939,-0.0141 -0.08467,-0.0141 -0.03881,0 -0.07055,0.0141 -0.03175,0.0106 -0.06703,0.0247 -0.03175,0.0106 -0.07056,0.0247 -0.0388,0.0106 -0.08819,0.0106 -0.01764,0 -0.03881,-0.004 -0.01764,-0.004 -0.03528,-0.0106 -0.01764,-0.007 -0.03528,-0.0176 0.02822,-0.0176 0.05644,-0.06 0.02822,-0.0459 0.05292,-0.0952 0.02822,-0.0529 0.05644,-0.11642 z m 0.518584,2.10256 q 0,0.0741 0.02469,0.11641 0.02822,0.0388 0.05997,0.0565 0.03881,0.0212 0.08467,0.0247 0.08114,0 0.141111,-0.10936 0.0635,-0.10936 0.0635,-0.27869 v -1.5487 q 0,-0.1658 -0.03175,-0.25753 -0.03175,-0.0917 -0.07408,-0.13405 -0.04233,-0.0423 -0.08467,-0.0494 -0.04233,-0.0106 -0.06703,-0.0106 -0.04233,0 -0.08114,0.0564 -0.03528,0.0565 -0.03528,0.14817 z"
         style="font-style:normal;font-variant:normal;font-weight:normal;font-stretch:normal;font-family:'Bradley Gratis';-inkscape-font-specification:'Bradley Gratis';text-align:start;text-anchor:start;stroke-width:0.26458332"
         id="path5895" />
    </g>
    <g
       style="font-style:normal;font-variant:normal;font-weight:bold;font-stretch:normal;font-size:3.52777767px;line-height:1.25;font-family:Consolas;-inkscape-font-specification:'Consolas Bold';text-align:center;letter-spacing:0px;word-spacing:0px;text-anchor:middle;fill:#ffffff;fill-opacity:1;stroke:none;stroke-width:0.26458332"
       id="text6637" />
    <g
       aria-label="INSIDE"
       style="font-style:normal;font-variant:normal;font-weight:bold;font-stretch:normal;font-size:3.52777767px;line-height:1.25;font-family:Consolas;-inkscape-font-specification:'Consolas Bold';text-align:center;letter-spacing:0px;word-spacing:0px;text-anchor:middle;fill:#ffffff;fill-opacity:1;stroke:none;stroke-width:0.26458332"
       id="text6641">
      <path
         d="m 40.942335,127.14987 v -0.27699 h 1.13826 v 0.27699 H 41.68372 v 1.24437 h 0.396875 v 0.27974 h -1.13826 v -0.27974 h 0.396875 v -1.24437 z"
         style="font-size:2.82222223px;stroke-width:0.26458332"
         id="path5899" />
      <path
         d="m 43.309805,128.67398 -0.482314,-1.07487 -0.09922,-0.23151 v 0.7469 0.55948 h -0.308681 v -1.8011 h 0.416168 l 0.491959,1.08176 0.08682,0.21084 v -0.79512 -0.49748 h 0.30868 v 1.8011 z"
         style="font-size:2.82222223px;stroke-width:0.26458332"
         id="path5901" />
      <path
         d="m 45.250083,128.12966 q 0,0.14745 -0.05512,0.25631 -0.05374,0.10887 -0.151584,0.18052 -0.09784,0.0703 -0.232889,0.10473 -0.135047,0.0345 -0.2949,0.0345 -0.141938,0 -0.274229,-0.0165 -0.132292,-0.0165 -0.261828,-0.0551 v -0.33487 q 0.06339,0.0221 0.132292,0.0413 0.0689,0.0193 0.137804,0.0345 0.07028,0.0138 0.139182,0.022 0.0689,0.008 0.133669,0.008 0.09646,0 0.163987,-0.0165 0.06752,-0.0165 0.110243,-0.0455 0.04272,-0.0289 0.06201,-0.0689 0.01929,-0.04 0.01929,-0.0882 0,-0.0661 -0.03858,-0.11025 -0.03721,-0.0455 -0.09922,-0.0799 -0.06201,-0.0345 -0.141938,-0.062 -0.07855,-0.0276 -0.16123,-0.0593 -0.0813,-0.0317 -0.16123,-0.0717 -0.07855,-0.04 -0.14056,-0.0992 -0.06201,-0.0593 -0.100597,-0.14056 -0.03721,-0.0827 -0.03721,-0.19844 0,-0.1061 0.03859,-0.20119 0.03858,-0.0951 0.121267,-0.16536 0.08268,-0.0717 0.212218,-0.113 0.129536,-0.0427 0.312815,-0.0427 0.05374,0 0.111621,0.006 0.05926,0.004 0.115755,0.0124 0.05788,0.007 0.110243,0.0179 0.05374,0.01 0.09784,0.0207 v 0.31006 q -0.0441,-0.0165 -0.09646,-0.0303 -0.05236,-0.0138 -0.108865,-0.0234 -0.05512,-0.011 -0.111621,-0.0165 -0.0565,-0.006 -0.107487,-0.006 -0.08957,0 -0.151584,0.0152 -0.06201,0.0138 -0.101975,0.04 -0.03996,0.0248 -0.05788,0.062 -0.01791,0.0372 -0.01791,0.0827 0,0.0565 0.03721,0.0978 0.03858,0.04 0.100597,0.073 0.06339,0.0317 0.141938,0.0606 0.07993,0.0276 0.162608,0.0606 0.08406,0.0317 0.162609,0.073 0.07993,0.0413 0.141938,0.1006 0.06339,0.0593 0.100596,0.14056 0.03859,0.0799 0.03859,0.19017 z"
         style="font-size:2.82222223px;stroke-width:0.26458332"
         id="path5903" />
      <path
         d="m 45.605616,127.14987 v -0.27699 h 1.13826 v 0.27699 h -0.396875 v 1.24437 h 0.396875 v 0.27974 h -1.13826 v -0.27974 h 0.396875 v -1.24437 z"
         style="font-size:2.82222223px;stroke-width:0.26458332"
         id="path5905" />
      <path
         d="m 48.431973,127.7507 q 0,0.20946 -0.05237,0.38033 -0.05099,0.17088 -0.16123,0.29215 -0.108865,0.11989 -0.279742,0.18603 -0.170877,0.0648 -0.409277,0.0648 h -0.457509 v -1.8011 h 0.533301 q 0.206706,0 0.361046,0.0524 0.155718,0.051 0.259071,0.15847 0.103353,0.10749 0.15434,0.27286 0.05237,0.16536 0.05237,0.39412 z m -0.363802,0.022 q 0,-0.14607 -0.02343,-0.26045 -0.02343,-0.11437 -0.07993,-0.19292 -0.05512,-0.0799 -0.148828,-0.12127 -0.09371,-0.0413 -0.232889,-0.0413 h -0.172254 v 1.23334 h 0.148828 q 0.249425,0 0.37896,-0.14882 0.129536,-0.14883 0.129536,-0.46854 z"
         style="font-size:2.82222223px;stroke-width:0.26458332"
         id="path5907" />
      <path
         d="m 48.761324,128.67398 v -1.8011 h 1.084516 v 0.28664 h -0.740006 v 0.44786 h 0.705555 v 0.27974 h -0.705555 v 0.50023 h 0.740006 v 0.28663 z"
         style="font-size:2.82222223px;stroke-width:0.26458332"
         id="path5909" />
    </g>
    <g
       aria-label="OUTSIDE"
       style="font-style:normal;font-variant:normal;font-weight:bold;font-stretch:normal;font-size:3.52777767px;line-height:1.25;font-family:Consolas;-inkscape-font-specification:'Consolas Bold';text-align:center;letter-spacing:0px;word-spacing:0px;text-anchor:middle;fill:#ffffff;fill-opacity:1;stroke:none;stroke-width:0.26458332"
       id="text6641-2">
      <path
         d="m 41.463921,118.77001 q 0,0.24529 -0.05788,0.42306 -0.0565,0.17777 -0.157096,0.29214 -0.09922,0.11438 -0.234266,0.1695 -0.13367,0.0551 -0.286632,0.0551 -0.355534,0 -0.534679,-0.23564 -0.179145,-0.23702 -0.179145,-0.68764 0,-0.24529 0.0565,-0.42306 0.05788,-0.17777 0.157097,-0.29214 0.100597,-0.11438 0.234266,-0.1695 0.135048,-0.0551 0.28801,-0.0551 0.355534,0 0.534679,0.23564 0.179145,0.23565 0.179145,0.68764 z m -0.35829,0.0165 q 0,-0.31971 -0.08544,-0.4768 -0.08544,-0.1571 -0.28112,-0.1571 -0.09784,0 -0.166743,0.0413 -0.0689,0.04 -0.114377,0.11851 -0.0441,0.0786 -0.06477,0.19431 -0.02067,0.11437 -0.02067,0.2632 0,0.31971 0.08544,0.4768 0.08682,0.1571 0.28112,0.1571 0.09784,0 0.166743,-0.04 0.07028,-0.0414 0.114377,-0.11989 0.0441,-0.0786 0.06477,-0.19293 0.02067,-0.11575 0.02067,-0.26458 z"
         style="font-size:2.82222223px;stroke-width:0.26458332"
         id="path5912" />
      <path
         d="m 42.949446,119.0153 q 0,0.17226 -0.04685,0.30317 -0.04548,0.12954 -0.132292,0.21635 -0.08544,0.0868 -0.209461,0.13092 -0.124024,0.0441 -0.278364,0.0441 -0.173633,0 -0.297656,-0.0441 -0.124024,-0.0441 -0.201194,-0.12678 -0.07717,-0.0827 -0.111621,-0.2012 -0.03445,-0.11851 -0.03445,-0.26596 v -1.19476 h 0.338997 v 1.17409 q 0,0.091 0.01516,0.16123 0.01654,0.0703 0.05512,0.11989 0.03996,0.0482 0.09922,0.073 0.05926,0.0248 0.148828,0.0248 0.08406,0 0.141938,-0.0207 0.05788,-0.022 0.09646,-0.0689 0.03858,-0.0482 0.05788,-0.12265 0.01929,-0.0744 0.01929,-0.18052 v -1.16031 h 0.338997 z"
         style="font-size:2.82222223px;stroke-width:0.26458332"
         id="path5914" />
      <path
         d="m 44.02156,118.15954 v 1.5186 h -0.347266 v -1.5186 h -0.493337 v -0.2825 h 1.333941 v 0.2825 z"
         style="font-size:2.82222223px;stroke-width:0.26458332"
         id="path5916" />
      <path
         d="m 46.032118,119.13381 q 0,0.14745 -0.05512,0.25632 -0.05374,0.10886 -0.151584,0.18052 -0.09784,0.0703 -0.232888,0.10473 -0.135048,0.0344 -0.2949,0.0344 -0.141938,0 -0.27423,-0.0165 -0.132292,-0.0165 -0.261827,-0.0551 v -0.33487 q 0.06339,0.0221 0.132291,0.0413 0.0689,0.0193 0.137804,0.0344 0.07028,0.0138 0.139182,0.0221 0.0689,0.008 0.13367,0.008 0.09646,0 0.163986,-0.0165 0.06752,-0.0165 0.110243,-0.0455 0.04272,-0.0289 0.06201,-0.0689 0.01929,-0.04 0.01929,-0.0882 0,-0.0661 -0.03859,-0.11024 -0.03721,-0.0455 -0.09922,-0.0799 -0.06201,-0.0345 -0.141938,-0.062 -0.07855,-0.0276 -0.161231,-0.0593 -0.0813,-0.0317 -0.16123,-0.0717 -0.07855,-0.04 -0.14056,-0.0992 -0.06201,-0.0593 -0.100597,-0.14056 -0.03721,-0.0827 -0.03721,-0.19844 0,-0.10611 0.03859,-0.20119 0.03858,-0.0951 0.121268,-0.16537 0.08268,-0.0717 0.212217,-0.11299 0.129536,-0.0427 0.312815,-0.0427 0.05374,0 0.111621,0.006 0.05926,0.004 0.115755,0.0124 0.05788,0.007 0.110244,0.0179 0.05374,0.01 0.09784,0.0207 v 0.31005 q -0.0441,-0.0165 -0.09646,-0.0303 -0.05237,-0.0138 -0.108865,-0.0234 -0.05512,-0.011 -0.111622,-0.0165 -0.0565,-0.006 -0.107487,-0.006 -0.08957,0 -0.151584,0.0152 -0.06201,0.0138 -0.101975,0.04 -0.03996,0.0248 -0.05788,0.062 -0.01791,0.0372 -0.01791,0.0827 0,0.0565 0.03721,0.0978 0.03859,0.04 0.100597,0.073 0.06339,0.0317 0.141938,0.0606 0.07993,0.0276 0.162609,0.0606 0.08406,0.0317 0.162608,0.073 0.07993,0.0413 0.141938,0.10059 0.06339,0.0593 0.100597,0.14056 0.03858,0.0799 0.03858,0.19017 z"
         style="font-size:2.82222223px;stroke-width:0.26458332"
         id="path5918" />
      <path
         d="m 46.387652,118.15403 v -0.27699 h 1.138259 v 0.27699 h -0.396875 v 1.24437 h 0.396875 v 0.27974 h -1.138259 v -0.27974 h 0.396875 v -1.24437 z"
         style="font-size:2.82222223px;stroke-width:0.26458332"
         id="path5920" />
      <path
         d="m 49.214008,118.75485 q 0,0.20946 -0.05237,0.38034 -0.05099,0.17088 -0.161231,0.29215 -0.108865,0.11989 -0.279741,0.18603 -0.170877,0.0648 -0.409278,0.0648 h -0.457508 v -1.8011 h 0.5333 q 0.206706,0 0.361046,0.0524 0.155719,0.051 0.259071,0.15847 0.103353,0.10749 0.154341,0.27285 0.05237,0.16537 0.05237,0.39412 z m -0.363802,0.022 q 0,-0.14607 -0.02343,-0.26045 -0.02343,-0.11437 -0.07993,-0.19292 -0.05512,-0.0799 -0.148828,-0.12127 -0.09371,-0.0413 -0.232888,-0.0413 h -0.172255 v 1.23334 h 0.148828 q 0.249425,0 0.378961,-0.14883 0.129535,-0.14882 0.129535,-0.46853 z"
         style="font-size:2.82222223px;stroke-width:0.26458332"
         id="path5922" />
      <path
         d="m 49.543359,119.67814 v -1.8011 h 1.084516 v 0.28663 h -0.740006 v 0.44787 h 0.705556 v 0.27974 h -0.705556 v 0.50023 h 0.740006 v 0.28663 z"
         style="font-size:2.82222223px;stroke-width:0.26458332"
         id="path5924" />
    </g>
    <g
       aria-label="D=r"
       style="font-style:normal;font-variant:normal;font-weight:bold;font-stretch:normal;font-size:3.52777767px;line-height:1.25;font-family:Consolas;-inkscape-font-specification:'Consolas Bold';text-align:center;letter-spacing:0px;word-spacing:0px;text-anchor:middle;fill:#ffffff;fill-opacity:1;stroke:none;stroke-width:0.26458332"
       id="text6663">
      <path
         d="m 77.684981,118.78656 q 0,0.20946 -0.05236,0.38034 -0.05099,0.17088 -0.161231,0.29214 -0.108865,0.11989 -0.279742,0.18604 -0.170876,0.0648 -0.409277,0.0648 h -0.457509 v -1.8011 h 0.533301 q 0.206706,0 0.361046,0.0524 0.155719,0.051 0.259071,0.15847 0.103353,0.10749 0.154341,0.27285 0.05236,0.16537 0.05236,0.39412 z m -0.363802,0.0221 q 0,-0.14607 -0.02343,-0.26045 -0.02343,-0.11438 -0.07993,-0.19293 -0.05512,-0.0799 -0.148828,-0.12126 -0.09371,-0.0413 -0.232888,-0.0413 h -0.172255 v 1.23334 h 0.148828 q 0.249425,0 0.37896,-0.14883 0.129536,-0.14883 0.129536,-0.46853 z"
         style="font-size:2.82222223px;stroke-width:0.26458332"
         id="path5927" />
      <path
         d="m 77.944052,118.81963 v -0.26734 h 1.185113 v 0.26734 z m 0,0.54295 v -0.26734 h 1.185113 v 0.26734 z"
         style="font-size:2.82222223px;stroke-width:0.26458332"
         id="path5929" />
      <path
         d="m 80.407985,118.85408 q 0.0028,-0.0785 -0.0083,-0.13366 -0.0096,-0.0551 -0.03307,-0.091 -0.02205,-0.0358 -0.05512,-0.0524 -0.03307,-0.0165 -0.07579,-0.0165 -0.07441,0 -0.15434,0.062 -0.07855,0.0606 -0.173633,0.2012 v 0.88608 h -0.34451 v -1.40009 h 0.304547 l 0.0124,0.20395 q 0.03445,-0.0537 0.07717,-0.0965 0.0441,-0.0427 0.09646,-0.073 0.05374,-0.0317 0.118511,-0.0482 0.06477,-0.0165 0.141938,-0.0165 0.106109,0 0.187413,0.0372 0.08268,0.0358 0.137804,0.10749 0.0565,0.0717 0.08268,0.18052 0.02756,0.10749 0.02343,0.24942 z"
         style="font-size:2.82222223px;stroke-width:0.26458332"
         id="path5931" />
    </g>
    <g
       aria-label="D"
       style="font-style:normal;font-variant:normal;font-weight:bold;font-stretch:normal;font-size:2.82222223px;line-height:1.25;font-family:Consolas;-inkscape-font-specification:'Consolas Bold';text-align:center;letter-spacing:0px;word-spacing:0px;text-anchor:middle;fill:#ffffff;fill-opacity:1;stroke:none;stroke-width:0.26458332"
       id="text6667">
      <path
         d="m 78.937734,127.78239 q 0,0.20946 -0.05237,0.38034 -0.05099,0.17087 -0.161231,0.29214 -0.108865,0.11989 -0.279741,0.18604 -0.170877,0.0648 -0.409278,0.0648 h -0.457508 v -1.80109 h 0.5333 q 0.206706,0 0.361046,0.0524 0.155719,0.051 0.259072,0.15848 0.103352,0.10748 0.15434,0.27285 0.05237,0.16536 0.05237,0.39412 z m -0.363802,0.022 q 0,-0.14608 -0.02343,-0.26045 -0.02343,-0.11438 -0.07993,-0.19293 -0.05512,-0.0799 -0.148828,-0.12127 -0.09371,-0.0413 -0.232888,-0.0413 h -0.172255 v 1.23335 h 0.148828 q 0.249425,0 0.378961,-0.14883 0.129535,-0.14883 0.129535,-0.46853 z"
         style="stroke-width:0.26458332"
         id="path5934" />
    </g>
    <g
       aria-label="Ry=Rx"
       style="font-style:normal;font-variant:normal;font-weight:bold;font-stretch:normal;font-size:3.52777767px;line-height:1.25;font-family:Consolas;-inkscape-font-specification:'Consolas Bold';text-align:center;letter-spacing:0px;word-spacing:0px;text-anchor:middle;fill:#ffffff;fill-opacity:1;stroke:none;stroke-width:0.26458332"
       id="text6663-6">
      <path
         d="m 59.602357,119.39565 -0.253559,-0.57877 q -0.03583,-0.0827 -0.100597,-0.12403 -0.06339,-0.0427 -0.150206,-0.0427 h -0.06477 v 0.74552 H 58.69423 v -1.80109 h 0.525032 q 0.148829,0 0.270096,0.0262 0.121267,0.0248 0.206706,0.0841 0.08544,0.0593 0.130913,0.15434 0.04685,0.0951 0.04685,0.23289 0,0.0992 -0.02894,0.17639 -0.02894,0.0772 -0.0813,0.13367 -0.05237,0.0551 -0.125402,0.0896 -0.07166,0.0345 -0.157096,0.0482 0.06615,0.0138 0.121267,0.0758 0.05512,0.0606 0.110243,0.17639 l 0.28801,0.60358 z m -0.08406,-1.27055 q 0,-0.13229 -0.08406,-0.19017 -0.08406,-0.0579 -0.252181,-0.0579 h -0.148828 v 0.5085 h 0.137804 q 0.07855,0 0.141938,-0.0165 0.06477,-0.0165 0.110243,-0.0496 0.04548,-0.0331 0.07028,-0.0813 0.0248,-0.0496 0.0248,-0.113 z"
         style="font-size:2.82222223px;stroke-width:0.26458332"
         id="path5937" />
      <path
         d="m 61.104419,119.24269 q -0.07304,0.1819 -0.152962,0.31833 -0.07855,0.1378 -0.173633,0.22875 -0.09509,0.0923 -0.212218,0.13781 -0.115755,0.0468 -0.260449,0.0468 -0.03445,0 -0.07579,-0.004 -0.03996,-0.003 -0.08268,-0.01 v -0.28526 q 0.01654,0.003 0.03721,0.006 0.02205,0.004 0.04547,0.006 0.02343,0.003 0.04685,0.004 0.0248,0.001 0.04548,0.001 0.05788,0 0.107487,-0.022 0.04961,-0.0221 0.09095,-0.062 0.04272,-0.0386 0.07717,-0.0937 0.03445,-0.0537 0.06063,-0.11851 l -0.555349,-1.40008 h 0.374826 l 0.290766,0.79375 0.08682,0.25631 0.08544,-0.24529 0.293522,-0.80477 H 61.595 Z"
         style="font-size:2.82222223px;stroke-width:0.26458332"
         id="path5939" />
      <path
         d="m 61.808596,118.50544 v -0.26734 h 1.185113 v 0.26734 z m 0,0.54295 v -0.26734 h 1.185113 v 0.26734 z"
         style="font-size:2.82222223px;stroke-width:0.26458332"
         id="path5941" />
      <path
         d="m 64.265638,119.39565 -0.253559,-0.57877 q -0.03583,-0.0827 -0.100596,-0.12403 -0.06339,-0.0427 -0.150206,-0.0427 h -0.06477 v 0.74552 h -0.338998 v -1.80109 h 0.525033 q 0.148828,0 0.270095,0.0262 0.121268,0.0248 0.206706,0.0841 0.08544,0.0593 0.130914,0.15434 0.04685,0.0951 0.04685,0.23289 0,0.0992 -0.02894,0.17639 -0.02894,0.0772 -0.0813,0.13367 -0.05236,0.0551 -0.125402,0.0896 -0.07166,0.0345 -0.157096,0.0482 0.06615,0.0138 0.121267,0.0758 0.05512,0.0606 0.110244,0.17639 l 0.28801,0.60358 z m -0.08406,-1.27055 q 0,-0.13229 -0.08406,-0.19017 -0.08406,-0.0579 -0.252181,-0.0579 h -0.148828 v 0.5085 h 0.137804 q 0.07855,0 0.141937,-0.0165 0.06477,-0.0165 0.110244,-0.0496 0.04547,-0.0331 0.07028,-0.0813 0.02481,-0.0496 0.02481,-0.113 z"
         style="font-size:2.82222223px;stroke-width:0.26458332"
         id="path5943" />
      <path
         d="m 65.826956,119.39565 -0.319705,-0.47129 -0.321083,0.47129 h -0.406521 l 0.525032,-0.70555 -0.497471,-0.69453 h 0.409277 l 0.314193,0.46026 0.310058,-0.46026 h 0.377583 l -0.482314,0.69177 0.508496,0.70831 z"
         style="font-size:2.82222223px;stroke-width:0.26458332"
         id="path5945" />
    </g>
    <g
       aria-label="Ry"
       style="font-style:normal;font-variant:normal;font-weight:bold;font-stretch:normal;font-size:2.82222223px;line-height:1.25;font-family:Consolas;-inkscape-font-specification:'Consolas Bold';text-align:center;letter-spacing:0px;word-spacing:0px;text-anchor:middle;fill:#ffffff;fill-opacity:1;stroke:none;stroke-width:0.26458332"
       id="text6667-0">
      <path
         d="m 61.794376,128.39148 -0.253559,-0.57878 q -0.03583,-0.0827 -0.100597,-0.12402 -0.06339,-0.0427 -0.150206,-0.0427 h -0.06477 v 0.74552 h -0.338997 v -1.8011 h 0.525032 q 0.148828,0 0.270096,0.0262 0.121267,0.0248 0.206706,0.0841 0.08544,0.0592 0.130913,0.15434 0.04685,0.0951 0.04685,0.23289 0,0.0992 -0.02894,0.17638 -0.02894,0.0772 -0.08131,0.13367 -0.05237,0.0551 -0.125401,0.0896 -0.07166,0.0345 -0.157096,0.0482 0.06615,0.0138 0.121267,0.0758 0.05512,0.0606 0.110243,0.17639 l 0.28801,0.60358 z m -0.08406,-1.27055 q 0,-0.13229 -0.08406,-0.19017 -0.08406,-0.0579 -0.252181,-0.0579 h -0.148828 v 0.5085 h 0.137804 q 0.07855,0 0.141938,-0.0165 0.06477,-0.0165 0.110243,-0.0496 0.04547,-0.0331 0.07028,-0.0813 0.02481,-0.0496 0.02481,-0.113 z"
         style="stroke-width:0.26458332"
         id="path5948" />
      <path
         d="m 63.296438,128.23852 q -0.07304,0.1819 -0.152963,0.31832 -0.07855,0.13781 -0.173632,0.22876 -0.09508,0.0923 -0.212218,0.1378 -0.115756,0.0469 -0.26045,0.0469 -0.03445,0 -0.07579,-0.004 -0.03996,-0.003 -0.08268,-0.01 v -0.28526 q 0.01654,0.003 0.03721,0.006 0.02205,0.004 0.04547,0.006 0.02343,0.003 0.04685,0.004 0.0248,0.001 0.04547,0.001 0.05788,0 0.107487,-0.0221 0.04961,-0.022 0.09095,-0.062 0.04272,-0.0386 0.07717,-0.0937 0.03445,-0.0537 0.06063,-0.11851 l -0.555349,-1.40009 h 0.374826 l 0.290766,0.79375 0.08682,0.25632 0.08544,-0.24529 0.293522,-0.80478 h 0.361046 z"
         style="stroke-width:0.26458332"
         id="path5950" />
    </g>
    <g
       aria-label="X+Y"
       style="font-style:normal;font-variant:normal;font-weight:bold;font-stretch:normal;font-size:3.52777767px;line-height:1.25;font-family:Consolas;-inkscape-font-specification:'Consolas Bold';text-align:center;letter-spacing:0px;word-spacing:0px;text-anchor:middle;fill:#ffffff;fill-opacity:1;stroke:none;stroke-width:0.26458332"
       id="text369-2">
      <path
         d="m 77.226247,138.0498 q 0.03101,0.0603 0.03962,0.0965 0.01033,0.0362 -0.01034,0.0551 -0.02067,0.0189 -0.07579,0.0241 -0.0534,0.005 -0.149861,0.005 -0.08096,0 -0.127469,-0.003 -0.04651,-0.003 -0.07407,-0.0103 -0.02584,-0.009 -0.0379,-0.0224 -0.01206,-0.0138 -0.02067,-0.0344 l -0.418579,-0.80443 -0.416857,0.80443 q -0.01033,0.0207 -0.02239,0.0344 -0.01206,0.0138 -0.03962,0.0224 -0.02584,0.007 -0.07407,0.0103 -0.04651,0.003 -0.124023,0.003 -0.08957,0 -0.139527,-0.005 -0.04823,-0.005 -0.06546,-0.0241 -0.01723,-0.0189 -0.0069,-0.0551 0.01034,-0.0362 0.04306,-0.0965 l 0.53399,-0.97323 -0.496094,-0.91468 q -0.03101,-0.062 -0.04306,-0.0982 -0.01033,-0.0379 0.0086,-0.0551 0.02067,-0.0189 0.07407,-0.0224 0.0534,-0.005 0.151584,-0.005 0.08096,0 0.127468,0.003 0.04823,0.003 0.07579,0.0121 0.02756,0.007 0.0379,0.0207 0.01206,0.0138 0.02239,0.0344 l 0.391018,0.73725 0.380683,-0.73725 q 0.01033,-0.0207 0.02067,-0.0344 0.01206,-0.0138 0.03617,-0.0207 0.02584,-0.009 0.0689,-0.0121 0.04479,-0.003 0.122301,-0.003 0.08613,0 0.136081,0.005 0.04995,0.003 0.0689,0.0224 0.01895,0.0189 0.0086,0.0551 -0.0086,0.0362 -0.0379,0.0982 l -0.496094,0.90951 z"
         style="font-style:normal;font-variant:normal;font-weight:bold;font-stretch:normal;font-size:3.52777767px;font-family:Calibri;-inkscape-font-specification:'Calibri Bold';stroke-width:0.26458332"
         id="path5953" />
      <path
         d="m 79.005639,137.22987 q 0,0.0482 -0.0052,0.081 -0.0052,0.0327 -0.0155,0.0534 -0.01033,0.019 -0.02411,0.0276 -0.01378,0.009 -0.02928,0.009 h -0.535712 v 0.58395 q 0,0.0172 -0.0086,0.031 -0.0086,0.0121 -0.02928,0.0224 -0.02067,0.009 -0.05512,0.0138 -0.03445,0.005 -0.08613,0.005 -0.05168,0 -0.08613,-0.005 -0.03445,-0.005 -0.05512,-0.0138 -0.02067,-0.0103 -0.03101,-0.0224 -0.0086,-0.0138 -0.0086,-0.031 v -0.58395 h -0.53399 q -0.0155,0 -0.02928,-0.009 -0.01206,-0.009 -0.02239,-0.0276 -0.01033,-0.0207 -0.01722,-0.0534 -0.0052,-0.0327 -0.0052,-0.081 0,-0.0465 0.0052,-0.0792 0.0052,-0.0344 0.01378,-0.0534 0.01034,-0.0207 0.02239,-0.0293 0.01206,-0.009 0.02756,-0.009 h 0.539158 v -0.58222 q 0,-0.0172 0.0086,-0.031 0.01034,-0.0155 0.03101,-0.0241 0.02067,-0.0103 0.05512,-0.0155 0.03445,-0.005 0.08613,-0.005 0.05168,0 0.08613,0.005 0.03445,0.005 0.05512,0.0155 0.02067,0.009 0.02928,0.0241 0.0086,0.0138 0.0086,0.031 v 0.58222 h 0.54088 q 0.01378,0 0.02584,0.009 0.01378,0.009 0.02239,0.0293 0.01034,0.0189 0.0155,0.0534 0.0052,0.0327 0.0052,0.0792 z"
         style="font-style:normal;font-variant:normal;font-weight:bold;font-stretch:normal;font-size:3.52777767px;font-family:Calibri;-inkscape-font-specification:'Calibri Bold';stroke-width:0.26458332"
         id="path5955" />
      <path
         d="m 80.238983,137.37457 v 0.78376 q 0,0.0172 -0.01206,0.031 -0.01033,0.0138 -0.03617,0.0224 -0.02584,0.009 -0.07063,0.0138 -0.04306,0.005 -0.10852,0.005 -0.06718,0 -0.110243,-0.005 -0.04306,-0.005 -0.07063,-0.0138 -0.02584,-0.009 -0.03617,-0.0224 -0.01033,-0.0138 -0.01033,-0.031 v -0.78376 l -0.609782,-1.2144 q -0.03273,-0.0637 -0.04306,-0.0982 -0.0086,-0.0362 0.01034,-0.0534 0.02067,-0.0189 0.07407,-0.0224 0.0534,-0.005 0.148139,-0.005 0.07924,0 0.125746,0.003 0.04823,0.003 0.07579,0.0138 0.02756,0.009 0.03962,0.0241 0.01378,0.0155 0.02584,0.0396 l 0.248047,0.54777 q 0.03617,0.0792 0.07062,0.16709 0.03617,0.0879 0.07235,0.18431 h 0.0034 q 0.03273,-0.093 0.06718,-0.18086 0.03445,-0.0879 0.06718,-0.16709 l 0.244602,-0.54433 q 0.0086,-0.0276 0.02067,-0.0431 0.01378,-0.0172 0.03962,-0.0276 0.02584,-0.0103 0.07062,-0.0138 0.04479,-0.003 0.118856,-0.003 0.09819,0 0.151584,0.005 0.05512,0.003 0.07407,0.0224 0.02067,0.0172 0.01033,0.0534 -0.01033,0.0362 -0.04134,0.0982 z"
         style="font-style:normal;font-variant:normal;font-weight:bold;font-stretch:normal;font-size:3.52777767px;font-family:Calibri;-inkscape-font-specification:'Calibri Bold';stroke-width:0.26458332"
         id="path5957" />
    </g>
    <g
       aria-label="Ry"
       style="font-style:normal;font-variant:normal;font-weight:bold;font-stretch:normal;font-size:3.52777767px;line-height:1.25;font-family:Consolas;-inkscape-font-specification:'Consolas Bold';text-align:center;letter-spacing:0px;word-spacing:0px;text-anchor:middle;fill:#ffffff;fill-opacity:1;stroke:none;stroke-width:0.26458332"
       id="text299-6">
      <path
         d="m 49.169228,98.965499 q 0,0.01516 -0.0055,0.02618 -0.0055,0.0096 -0.02618,0.01654 -0.02067,0.0069 -0.06063,0.0096 -0.03996,0.0028 -0.108865,0.0028 -0.05788,0 -0.09233,-0.0028 -0.03445,-0.0028 -0.05512,-0.0096 -0.01929,-0.0083 -0.02756,-0.01929 -0.0083,-0.0124 -0.01378,-0.02894 L 48.61939,98.561733 q -0.02894,-0.06752 -0.0565,-0.119889 -0.02756,-0.05237 -0.06201,-0.08682 -0.03307,-0.03583 -0.07717,-0.05374 -0.0441,-0.01791 -0.101975,-0.01791 h -0.112999 v 0.679373 q 0,0.01378 -0.0096,0.0248 -0.0083,0.01102 -0.02894,0.01791 -0.02067,0.0069 -0.05512,0.01102 -0.03445,0.0041 -0.08819,0.0041 -0.05237,0 -0.08819,-0.0041 -0.03445,-0.0041 -0.05512,-0.01102 -0.02067,-0.0069 -0.02894,-0.01791 -0.0083,-0.01102 -0.0083,-0.0248 v -1.619195 q 0,-0.06063 0.03032,-0.08682 0.0317,-0.02756 0.07717,-0.02756 h 0.461643 q 0.07028,0 0.115755,0.0028 0.04547,0.0028 0.08268,0.0069 0.107487,0.01516 0.192925,0.05237 0.08682,0.03721 0.146073,0.09784 0.06063,0.05926 0.09233,0.141938 0.03169,0.0813 0.03169,0.187413 0,0.08957 -0.02343,0.163987 -0.02205,0.07304 -0.06615,0.130913 -0.0441,0.05788 -0.108865,0.100597 -0.06477,0.04272 -0.14745,0.0689 0.03996,0.01929 0.07441,0.04685 0.03583,0.02756 0.06615,0.06752 0.03169,0.03858 0.05926,0.08957 0.02756,0.04961 0.05374,0.112999 l 0.150207,0.3514 q 0.02067,0.05236 0.02756,0.07717 0.0069,0.02343 0.0069,0.03721 z m -0.467155,-1.209918 q 0,-0.08819 -0.03996,-0.148828 -0.03996,-0.06063 -0.130913,-0.08544 -0.02756,-0.0069 -0.06339,-0.01103 -0.03445,-0.0041 -0.09646,-0.0041 h -0.162608 v 0.50574 h 0.184657 q 0.07717,0 0.135048,-0.01791 0.05788,-0.01929 0.09646,-0.05237 0.03859,-0.03445 0.05788,-0.0813 0.01929,-0.04685 0.01929,-0.104731 z"
         style="font-style:normal;font-variant:normal;font-weight:bold;font-stretch:normal;font-size:2.82222223px;font-family:Calibri;-inkscape-font-specification:'Calibri Bold';stroke-width:0.26458332"
         id="path5960" />
      <path
         d="m 50.098025,99.012352 -0.148828,0.43546 q -0.0124,0.03445 -0.06752,0.04961 -0.05512,0.01516 -0.16123,0.01516 -0.05512,0 -0.0882,-0.0055 -0.03307,-0.0041 -0.04961,-0.01516 -0.01654,-0.01102 -0.01791,-0.02756 -0.0014,-0.01654 0.0083,-0.03996 l 0.163986,-0.412033 q -0.01791,-0.0083 -0.03307,-0.02481 -0.01378,-0.01791 -0.02067,-0.03721 l -0.423058,-1.129991 q -0.01791,-0.04823 -0.01791,-0.07304 0,-0.02618 0.01654,-0.03996 0.01654,-0.01516 0.05512,-0.02067 0.03996,-0.0055 0.10473,-0.0055 0.05926,0 0.09371,0.0028 0.03445,0.0014 0.05374,0.0096 0.01929,0.0083 0.02894,0.02618 0.0096,0.01654 0.01929,0.04823 l 0.289388,0.822689 h 0.0041 l 0.264583,-0.839225 q 0.0083,-0.03583 0.02067,-0.04685 0.01378,-0.0124 0.0441,-0.01792 0.03032,-0.0055 0.106109,-0.0055 0.05926,0 0.09784,0.0055 0.03996,0.0055 0.05788,0.02067 0.01929,0.01516 0.01929,0.04134 0,0.02481 -0.01102,0.05926 z"
         style="font-style:normal;font-variant:normal;font-weight:bold;font-stretch:normal;font-size:2.82222223px;font-family:Calibri;-inkscape-font-specification:'Calibri Bold';stroke-width:0.26458332"
         id="path5962" />
    </g>
  </g>
</svg>
