<?xml version="1.0" encoding="UTF-8" standalone="no"?>
<svg
   xmlns:dc="http://purl.org/dc/elements/1.1/"
   xmlns:cc="http://creativecommons.org/ns#"
   xmlns:rdf="http://www.w3.org/1999/02/22-rdf-syntax-ns#"
   xmlns:svg="http://www.w3.org/2000/svg"
   xmlns="http://www.w3.org/2000/svg"
   xmlns:xlink="http://www.w3.org/1999/xlink"
   xmlns:sodipodi="http://sodipodi.sourceforge.net/DTD/sodipodi-0.dtd"
   xmlns:inkscape="http://www.inkscape.org/namespaces/inkscape"
   sodipodi:docname="RouletteLFO.svg"
   inkscape:version="1.0 (4035a4fb49, 2020-05-01)"
   id="svg11003"
   version="1.1"
   viewBox="0 0 51.593751 100.54167"
   height="380"
   width="195">
  <defs
     id="defs10997">
    <linearGradient
       id="linearGradient4682"
       inkscape:collect="always">
      <stop
         id="stop3387"
         offset="0"
         style="stop-color:#0c1622;stop-opacity:1" />
      <stop
         id="stop3388"
         offset=".3"
         style="stop-color:#161625;stop-opacity:1" />
      <stop
         id="stop3389"
         offset="1"
         style="stop-color:#081f35;stop-opacity:1" />
    </linearGradient>
    <linearGradient
       gradientTransform="matrix(1.0030818,0,0,1.0014499,-0.18185533,-0.14648782)"
       gradientUnits="userSpaceOnUse"
       y2="50.462322"
       x2="35.219627"
       y1="158.3329"
       x1="35.418064"
       id="linearGradient4684"
       xlink:href="#linearGradient4682"
       inkscape:collect="always" />
  </defs>
  <sodipodi:namedview
     inkscape:document-rotation="0"
     units="px"
     inkscape:window-maximized="1"
     inkscape:window-y="-6"
     inkscape:window-x="-6"
     inkscape:window-height="1058"
     inkscape:window-width="1920"
     fit-margin-bottom="0"
     fit-margin-right="0"
     fit-margin-left="0"
     fit-margin-top="0"
     showgrid="false"
     inkscape:current-layer="layer1"
     inkscape:document-units="px"
     inkscape:cy="307.55636"
     inkscape:cx="172.91822"
     inkscape:zoom="2.8284271"
     inkscape:pageshadow="2"
     inkscape:pageopacity="0.0"
     borderopacity="1.0"
     bordercolor="#666666"
     pagecolor="#ffffff"
     id="base" />
  <metadata
     id="metadata11000">
    <rdf:RDF>
      <cc:Work
         rdf:about="">
        <dc:format>image/svg+xml</dc:format>
        <dc:type
           rdf:resource="http://purl.org/dc/dcmitype/StillImage" />
        <dc:title></dc:title>
      </cc:Work>
    </rdf:RDF>
  </metadata>
  <g
     transform="translate(-35.146312,-50.389004)"
     id="layer1"
     inkscape:groupmode="layer"
     inkscape:label="Layer 1">
    <path
       inkscape:export-ydpi="150.22649"
       inkscape:export-xdpi="150.22649"
       inkscape:export-filename="/home/vortico/pics/tmp/LFOs.png"
       style="fill:url(#linearGradient4684);fill-opacity:1;fill-rule:nonzero;stroke:none;stroke-width:0.31528386"
       d="M 35.146312,50.389001 H 86.740063 V 150.93067 H 35.146312 Z m 0,0"
       id="path33493"
       inkscape:connector-curvature="0" />
    <g
       style="font-style:normal;font-weight:normal;font-size:3.52778px;line-height:1.25;font-family:sans-serif;letter-spacing:0px;word-spacing:0px;fill:#ffffff;fill-opacity:1;stroke:none;stroke-width:0.264583"
       id="text5097" />
    <g
       style="font-style:normal;font-variant:normal;font-weight:normal;font-stretch:normal;font-size:3.52778px;line-height:1.25;font-family:Quarca;-inkscape-font-specification:Quarca;text-align:center;letter-spacing:0px;word-spacing:0px;text-anchor:middle;fill:#dddddd;fill-opacity:1;stroke:none;stroke-width:0.264583"
       id="text136"
       aria-label="ROULETTE LFO">
      <path
         id="path17910"
         style="font-style:normal;font-variant:normal;font-weight:normal;font-stretch:normal;font-size:3.88056px;font-family:Quarca;-inkscape-font-specification:Quarca;fill:#dddddd;fill-opacity:1;stroke-width:0.264583"
         d="m 49.946672,54.283745 h 0.221192 v -1.10596 h 0.508354 l 0.772231,1.10596 h 0.259998 l -0.776112,-1.10596 h 0.05433 c 0.368654,0 0.547159,-0.174625 0.547159,-0.523875 v -0.601487 c 0,-0.349251 -0.178505,-0.523876 -0.547159,-0.523876 h -1.03999 z m 0.221192,-2.545647 h 0.779993 c 0.248356,0 0.360892,0.116416 0.360892,0.380294 v 0.469548 c 0,0.267759 -0.112536,0.384176 -0.360892,0.384176 h -0.779993 z" />
      <path
         id="path17912"
         style="font-style:normal;font-variant:normal;font-weight:normal;font-stretch:normal;font-size:3.88056px;font-family:Quarca;-inkscape-font-specification:Quarca;fill:#dddddd;fill-opacity:1;stroke-width:0.264583"
         d="m 51.992698,53.748228 c 0,0.357011 0.135819,0.535517 0.531636,0.535517 h 0.737307 c 0.395817,0 0.531636,-0.178506 0.531636,-0.535517 v -1.684163 c 0,-0.357012 -0.135819,-0.535518 -0.531636,-0.535518 h -0.737307 c -0.395817,0 -0.531636,0.178506 -0.531636,0.535518 z m 0.55492,-2.01013 h 0.690739 c 0.248356,0 0.333729,0.116416 0.333729,0.360892 v 1.614313 c 0,0.244475 -0.08537,0.360892 -0.333729,0.360892 h -0.690739 c -0.244476,0 -0.333728,-0.116417 -0.333728,-0.360892 V 52.09899 c 0,-0.244476 0.08925,-0.360892 0.333728,-0.360892 z" />
      <path
         id="path17914"
         style="font-style:normal;font-variant:normal;font-weight:normal;font-stretch:normal;font-size:3.88056px;font-family:Quarca;-inkscape-font-specification:Quarca;fill:#dddddd;fill-opacity:1;stroke-width:0.264583"
         d="M 55.391462,54.074195 H 54.89475 c -0.267759,0 -0.384175,-0.124178 -0.384175,-0.407459 v -2.138189 h -0.221192 v 2.200278 c 0,0.368653 0.170744,0.55492 0.5588,0.55492 h 0.589845 c 0.388056,0 0.558801,-0.186267 0.558801,-0.55492 v -2.200278 h -0.225072 v 2.138189 c 0,0.283281 -0.112537,0.407459 -0.380295,0.407459 z" />
      <path
         id="path17916"
         style="font-style:normal;font-variant:normal;font-weight:normal;font-stretch:normal;font-size:3.88056px;font-family:Quarca;-inkscape-font-specification:Quarca;fill:#dddddd;fill-opacity:1;stroke-width:0.264583"
         d="m 56.731468,51.528547 h -0.221192 v 2.755198 H 57.9228 l 0.03104,-0.20955 h -1.222376 z" />
      <path
         id="path17918"
         style="font-style:normal;font-variant:normal;font-weight:normal;font-stretch:normal;font-size:3.88056px;font-family:Quarca;-inkscape-font-specification:Quarca;fill:#dddddd;fill-opacity:1;stroke-width:0.264583"
         d="m 58.474688,51.738098 h 1.24566 l 0.03104,-0.209551 h -1.497896 v 2.755198 h 1.474613 l 0.03104,-0.20955 h -1.284465 v -0.842082 h 1.043871 l 0.03104,-0.20567 h -1.074915 z" />
      <path
         id="path17920"
         style="font-style:normal;font-variant:normal;font-weight:normal;font-stretch:normal;font-size:3.88056px;font-family:Quarca;-inkscape-font-specification:Quarca;fill:#dddddd;fill-opacity:1;stroke-width:0.264583"
         d="m 61.534388,51.738098 v -0.209551 h -1.633716 v 0.209551 h 0.706262 v 2.545647 h 0.225073 v -2.545647 z" />
      <path
         id="path17922"
         style="font-style:normal;font-variant:normal;font-weight:normal;font-stretch:normal;font-size:3.88056px;font-family:Quarca;-inkscape-font-specification:Quarca;fill:#dddddd;fill-opacity:1;stroke-width:0.264583"
         d="m 63.254871,51.738098 v -0.209551 h -1.633716 v 0.209551 h 0.706262 v 2.545647 h 0.225073 v -2.545647 z" />
      <path
         id="path17924"
         style="font-style:normal;font-variant:normal;font-weight:normal;font-stretch:normal;font-size:3.88056px;font-family:Quarca;-inkscape-font-specification:Quarca;fill:#dddddd;fill-opacity:1;stroke-width:0.264583"
         d="m 63.780141,51.738098 h 1.24566 l 0.03104,-0.209551 h -1.497897 v 2.755198 h 1.474613 l 0.03104,-0.20955 h -1.284466 v -0.842082 h 1.043871 l 0.03104,-0.20567 h -1.074915 z" />
      <path
         id="path17926"
         style="font-style:normal;font-variant:normal;font-weight:normal;font-stretch:normal;font-size:3.88056px;font-family:Quarca;-inkscape-font-specification:Quarca;fill:#dddddd;fill-opacity:1;stroke-width:0.264583"
         d="m 66.432867,51.528547 h -0.221191 v 2.755198 h 1.412523 l 0.03104,-0.20955 h -1.222377 z" />
      <path
         id="path17928"
         style="font-style:normal;font-variant:normal;font-weight:normal;font-stretch:normal;font-size:3.88056px;font-family:Quarca;-inkscape-font-specification:Quarca;fill:#dddddd;fill-opacity:1;stroke-width:0.264583"
         d="m 68.176089,51.738098 h 1.234018 l 0.03104,-0.209551 h -1.486254 v 2.755198 h 0.221192 v -1.051632 h 0.977901 l 0.03104,-0.20567 h -1.008945 z" />
      <path
         id="path17930"
         style="font-style:normal;font-variant:normal;font-weight:normal;font-stretch:normal;font-size:3.88056px;font-family:Quarca;-inkscape-font-specification:Quarca;fill:#dddddd;fill-opacity:1;stroke-width:0.264583"
         d="m 69.758386,53.748228 c 0,0.357011 0.13582,0.535517 0.531637,0.535517 h 0.737306 c 0.395818,0 0.531637,-0.178506 0.531637,-0.535517 v -1.684163 c 0,-0.357012 -0.135819,-0.535518 -0.531637,-0.535518 h -0.737306 c -0.395817,0 -0.531637,0.178506 -0.531637,0.535518 z m 0.55492,-2.01013 h 0.69074 c 0.248356,0 0.333728,0.116416 0.333728,0.360892 v 1.614313 c 0,0.244475 -0.08537,0.360892 -0.333728,0.360892 h -0.69074 c -0.244475,0 -0.333728,-0.116417 -0.333728,-0.360892 V 52.09899 c 0,-0.244476 0.08925,-0.360892 0.333728,-0.360892 z" />
    </g>
    <g
       style="font-style:normal;font-variant:normal;font-weight:normal;font-stretch:normal;font-size:3.52778px;line-height:1.25;font-family:Quarca;-inkscape-font-specification:Quarca;text-align:center;letter-spacing:0px;word-spacing:0px;text-anchor:middle;fill:#dddddd;fill-opacity:1;stroke:none;stroke-width:0.264583"
       id="text299"
       aria-label="RATIO">
      <path
         id="path17899"
         style="font-style:normal;font-variant:normal;font-weight:normal;font-stretch:normal;font-size:2.82222px;font-family:Quarca;-inkscape-font-specification:Quarca;fill:#dddddd;fill-opacity:1;stroke-width:0.264583"
         d="m 38.03704,94.025497 h 0.160866 v -0.804332 h 0.369711 l 0.561622,0.804332 h 0.189089 l -0.564444,-0.804332 h 0.03951 c 0.268111,0 0.397933,-0.127 0.397933,-0.381 v -0.437444 c 0,-0.254 -0.129822,-0.381 -0.397933,-0.381 H 38.03704 Z m 0.160866,-1.851376 h 0.567267 c 0.180622,0 0.262466,0.08467 0.262466,0.276578 v 0.341488 c 0,0.194733 -0.08184,0.2794 -0.262466,0.2794 h -0.567267 z" />
      <path
         id="path17901"
         style="font-style:normal;font-variant:normal;font-weight:normal;font-stretch:normal;font-size:2.82222px;font-family:Quarca;-inkscape-font-specification:Quarca;fill:#dddddd;fill-opacity:1;stroke-width:0.264583"
         d="m 40.016122,92.021721 -0.618066,2.003776 h 0.172155 l 0.129822,-0.434621 h 0.807155 l 0.129822,0.434621 h 0.172156 l -0.615244,-2.003776 z m 0.09031,0.214489 0.3556,1.202266 h -0.716844 z" />
      <path
         id="path17903"
         style="font-style:normal;font-variant:normal;font-weight:normal;font-stretch:normal;font-size:2.82222px;font-family:Quarca;-inkscape-font-specification:Quarca;fill:#dddddd;fill-opacity:1;stroke-width:0.264583"
         d="m 41.905907,92.174121 v -0.1524 h -1.188155 v 0.1524 h 0.513644 v 1.851376 h 0.163689 v -1.851376 z" />
      <path
         id="path17905"
         style="font-style:normal;font-variant:normal;font-weight:normal;font-stretch:normal;font-size:2.82222px;font-family:Quarca;-inkscape-font-specification:Quarca;fill:#dddddd;fill-opacity:1;stroke-width:0.264583"
         d="m 42.287921,94.025497 v -2.003776 h -0.160867 v 2.003776 z" />
      <path
         id="path17907"
         style="font-style:normal;font-variant:normal;font-weight:normal;font-stretch:normal;font-size:2.82222px;font-family:Quarca;-inkscape-font-specification:Quarca;fill:#dddddd;fill-opacity:1;stroke-width:0.264583"
         d="m 42.655956,93.636031 c 0,0.259644 0.09878,0.389466 0.386644,0.389466 h 0.536222 c 0.287867,0 0.386644,-0.129822 0.386644,-0.389466 v -1.224843 c 0,-0.259645 -0.09878,-0.389467 -0.386644,-0.389467 H 43.0426 c -0.287866,0 -0.386644,0.129822 -0.386644,0.389467 z m 0.403578,-1.46191 h 0.502355 c 0.180622,0 0.242711,0.08467 0.242711,0.262467 v 1.174043 c 0,0.1778 -0.06209,0.262467 -0.242711,0.262467 h -0.502355 c -0.1778,0 -0.242711,-0.08467 -0.242711,-0.262467 v -1.174043 c 0,-0.1778 0.06491,-0.262467 0.242711,-0.262467 z" />
    </g>
    <g
       style="font-style:normal;font-variant:normal;font-weight:normal;font-stretch:normal;font-size:3.52778px;line-height:1.25;font-family:Quarca;-inkscape-font-specification:Quarca;text-align:center;letter-spacing:0px;word-spacing:0px;text-anchor:middle;fill:#dddddd;fill-opacity:1;stroke:none;stroke-width:0.264583"
       id="text303"
       aria-label="eF">
      <path
         id="path17894"
         style="font-style:normal;font-variant:normal;font-weight:normal;font-stretch:normal;font-size:2.82222px;font-family:Quarca;-inkscape-font-specification:Quarca;fill:#dddddd;fill-opacity:1;stroke-width:0.264583"
         d="m 50.405736,93.890031 c -0.180622,0 -0.237066,-0.09031 -0.237066,-0.256822 v -0.237067 h 0.437444 c 0.307622,0 0.375355,-0.1016 0.375355,-0.318911 v -0.158044 c 0,-0.251177 -0.1016,-0.335844 -0.397933,-0.335844 h -0.166511 c -0.299155,0 -0.403578,0.08467 -0.403578,0.335844 v 0.725311 c 0,0.270933 0.104423,0.380999 0.395111,0.380999 h 0.180622 c 0.3048,0 0.397933,-0.112888 0.397933,-0.383821 v -0.0508 h -0.146755 v 0.0508 c 0,0.16651 -0.06209,0.248355 -0.234244,0.248355 z m 0.2032,-1.171221 c 0.172155,0 0.225777,0.07055 0.225777,0.206022 v 0.143933 c 0,0.129822 -0.05362,0.191911 -0.237066,0.191911 H 50.16867 v -0.333022 c 0,-0.138289 0.05362,-0.208844 0.222955,-0.208844 z" />
      <path
         id="path17896"
         style="font-style:normal;font-variant:normal;font-weight:normal;font-stretch:normal;font-size:2.82222px;font-family:Quarca;-inkscape-font-specification:Quarca;fill:#dddddd;fill-opacity:1;stroke-width:0.264583"
         d="m 51.464818,92.174121 h 0.897466 l 0.02258,-0.1524 h -1.08091 v 2.003776 h 0.160866 v -0.764821 h 0.7112 l 0.02258,-0.149578 h -0.733777 z" />
    </g>
    <g
       style="font-style:normal;font-variant:normal;font-weight:normal;font-stretch:normal;font-size:3.52778px;line-height:1.25;font-family:Quarca;-inkscape-font-specification:Quarca;text-align:center;letter-spacing:0px;word-spacing:0px;text-anchor:middle;fill:#dddddd;fill-opacity:1;stroke:none;stroke-width:0.264583"
       id="text307"
       aria-label="D">
      <path
         id="path17891"
         style="font-style:normal;font-variant:normal;font-weight:normal;font-stretch:normal;font-size:2.82222px;font-family:Quarca;-inkscape-font-specification:Quarca;fill:#dddddd;fill-opacity:1;stroke-width:0.264583"
         d="m 70.440294,94.033852 h 0.784577 c 0.352778,0 0.496711,-0.155222 0.496711,-0.474133 v -1.055511 c 0,-0.318911 -0.143933,-0.474133 -0.496711,-0.474133 h -0.784577 z m 0.776111,-0.1524 h -0.615244 v -1.698977 h 0.615244 c 0.245533,0 0.344311,0.110067 0.344311,0.3556 v 0.987777 c 0,0.245533 -0.09878,0.3556 -0.344311,0.3556 z" />
    </g>
    <g
       style="font-style:normal;font-variant:normal;font-weight:normal;font-stretch:normal;font-size:3.52778px;line-height:1.25;font-family:Quarca;-inkscape-font-specification:Quarca;text-align:center;letter-spacing:0px;word-spacing:0px;text-anchor:middle;fill:#dddddd;fill-opacity:1;stroke:none;stroke-width:0.264583"
       id="text299-1"
       aria-label="FREQ">
      <path
         id="path17882"
         style="font-style:normal;font-variant:normal;font-weight:normal;font-stretch:normal;font-size:2.82222px;font-family:Quarca;-inkscape-font-specification:Quarca;fill:#dddddd;fill-opacity:1;stroke-width:0.264583"
         d="m 77.981869,92.174121 h 0.897466 l 0.02258,-0.1524 h -1.080911 v 2.003776 h 0.160867 v -0.764821 h 0.711199 l 0.02258,-0.149578 h -0.733777 z" />
      <path
         id="path17884"
         style="font-style:normal;font-variant:normal;font-weight:normal;font-stretch:normal;font-size:2.82222px;font-family:Quarca;-inkscape-font-specification:Quarca;fill:#dddddd;fill-opacity:1;stroke-width:0.264583"
         d="m 79.143918,94.025497 h 0.160867 v -0.804332 h 0.36971 l 0.561622,0.804332 h 0.189089 l -0.564444,-0.804332 h 0.03951 c 0.268111,0 0.397933,-0.127 0.397933,-0.381 v -0.437444 c 0,-0.254 -0.129822,-0.381 -0.397933,-0.381 h -0.756355 z m 0.160867,-1.851376 h 0.567266 c 0.180622,0 0.262466,0.08467 0.262466,0.276578 v 0.341488 c 0,0.194733 -0.08184,0.2794 -0.262466,0.2794 h -0.567266 z" />
      <path
         id="path17886"
         style="font-style:normal;font-variant:normal;font-weight:normal;font-stretch:normal;font-size:2.82222px;font-family:Quarca;-inkscape-font-specification:Quarca;fill:#dddddd;fill-opacity:1;stroke-width:0.264583"
         d="m 80.804089,92.174121 h 0.905933 l 0.02258,-0.1524 h -1.089377 v 2.003776 h 1.072444 l 0.02258,-0.152399 h -0.934155 v -0.612422 h 0.759177 l 0.02258,-0.149578 h -0.781755 z" />
      <path
         id="path17888"
         style="font-style:normal;font-variant:normal;font-weight:normal;font-stretch:normal;font-size:2.82222px;font-family:Quarca;-inkscape-font-specification:Quarca;fill:#dddddd;fill-opacity:1;stroke-width:0.264583"
         d="m 81.987922,93.636031 c 0,0.259644 0.09878,0.389466 0.386644,0.389466 h 0.186266 v 0.327378 h 0.1524 v -0.327378 h 0.197556 c 0.287866,0 0.386644,-0.129822 0.386644,-0.389466 v -1.224843 c 0,-0.259645 -0.09878,-0.389467 -0.386644,-0.389467 h -0.536222 c -0.287866,0 -0.386644,0.129822 -0.386644,0.389467 z m 0.403577,0.237067 c -0.1778,0 -0.242711,-0.08467 -0.242711,-0.262467 v -1.174043 c 0,-0.1778 0.06491,-0.262467 0.242711,-0.262467 h 0.502355 c 0.180623,0 0.242711,0.08467 0.242711,0.262467 v 1.174043 c 0,0.1778 -0.06209,0.262467 -0.242711,0.262467 h -0.180622 v -0.282222 h -0.1524 v 0.282222 z" />
    </g>
    <path
       d="m 63.45673,136.24629 h 7.937499 v 8.46667 H 63.45673 Z"
       style="opacity:0.981;fill:#0e365d;fill-opacity:1;stroke:#000000;stroke-width:0.264583;stroke-miterlimit:4;stroke-dasharray:none;stroke-opacity:1"
       id="rect22843" />
    <g
       style="font-style:normal;font-variant:normal;font-weight:bold;font-stretch:normal;font-size:3.52778px;line-height:1.25;font-family:Quarca;-inkscape-font-specification:Quarca;text-align:center;letter-spacing:0px;word-spacing:0px;text-anchor:middle;fill:#dddddd;fill-opacity:1;stroke:none;stroke-width:0.264583"
       id="text365"
       aria-label="X">
      <path
         id="path17878"
         style="font-style:normal;font-variant:normal;font-weight:normal;font-stretch:normal;font-size:2.82222px;font-family:Quarca;-inkscape-font-specification:Quarca;fill:#dddddd;fill-opacity:1;stroke-width:0.264583"
         d="m 67.482868,137.95481 -0.460022,-0.93416 h -0.166511 l 0.493889,1.00471 -0.485422,0.99907 h 0.169333 l 0.448733,-0.91158 0.443089,0.91158 h 0.169333 l -0.479777,-0.99907 0.488244,-1.00471 h -0.166511 z" />
    </g>
    <path
       d="m 73.907768,136.24629 h 7.937499 v 8.46667 h -7.937499 z"
       style="opacity:0.981;fill:#0e365d;fill-opacity:1;stroke:#000000;stroke-width:0.264583;stroke-miterlimit:4;stroke-dasharray:none;stroke-opacity:1"
       id="rect22843-2" />
    <g
       style="font-style:normal;font-variant:normal;font-weight:bold;font-stretch:normal;font-size:3.52778px;line-height:1.25;font-family:Quarca;-inkscape-font-specification:Quarca;text-align:center;letter-spacing:0px;word-spacing:0px;text-anchor:middle;fill:#dddddd;fill-opacity:1;stroke:none;stroke-width:0.264583"
       id="text369"
       aria-label="Y">
      <path
         id="path17874"
         style="font-style:normal;font-variant:normal;font-weight:normal;font-stretch:normal;font-size:2.82222px;font-family:Quarca;-inkscape-font-specification:Quarca;fill:#dddddd;fill-opacity:1;stroke-width:0.264583"
         d="m 78.083381,139.02443 v -0.82973 l 0.592666,-1.17405 h -0.169333 l -0.445911,0.889 c -0.04798,0.0931 -0.0508,0.11289 -0.05927,0.14958 -0.0085,-0.0367 -0.01693,-0.0564 -0.06209,-0.1524 l -0.448733,-0.88618 h -0.169333 l 0.598311,1.17687 v 0.82691 z" />
    </g>
    <g
       style="font-style:normal;font-variant:normal;font-weight:bold;font-stretch:normal;font-size:3.52778px;line-height:1.25;font-family:Consolas;-inkscape-font-specification:'Consolas Bold';text-align:center;letter-spacing:0px;word-spacing:0px;text-anchor:middle;fill:#ffffff;fill-opacity:1;stroke:none;stroke-width:0.264583"
       id="text373" />
    <g
       style="font-style:normal;font-variant:normal;font-weight:bold;font-stretch:normal;font-size:13.3333px;line-height:1.25;font-family:Consolas;-inkscape-font-specification:'Consolas Bold';text-align:center;letter-spacing:0px;word-spacing:0px;text-anchor:middle;fill:#000000;fill-opacity:1;stroke:none"
       id="flowRoot250" />
    <path
       style="fill:#1e282b;fill-opacity:1;fill-rule:nonzero;stroke:none;stroke-width:0.26781562"
       d="M 86.911315,90.85903 H 35.23983 V 56.066321 h 51.671485 z m 0,0"
       id="path38411"
       inkscape:connector-curvature="0" />
    <path
       style="clip-rule:nonzero;fill:none;stroke:#ffffff;stroke-width:0.26458332;stroke-linecap:butt;stroke-linejoin:miter;stroke-miterlimit:10;stroke-dasharray:none;stroke-opacity:0.25098039"
       d="M 35.239857,56.330904 H 86.911288"
       id="path5509"
       inkscape:connector-curvature="0" />
    <path
       style="clip-rule:nonzero;fill:none;stroke:#ffffff;stroke-width:0.26458332;stroke-linecap:butt;stroke-linejoin:miter;stroke-miterlimit:10;stroke-dasharray:none;stroke-opacity:0.25098039"
       d="M 35.239857,64.929862 H 86.911288"
       id="path5503"
       inkscape:connector-curvature="0" />
    <path
       style="clip-rule:nonzero;fill:none;stroke:#ffffff;stroke-width:0.26458332;stroke-linecap:butt;stroke-linejoin:miter;stroke-miterlimit:10;stroke-dasharray:none;stroke-opacity:0.25098039"
       d="M 35.239857,82.127779 H 86.911288"
       id="path5497"
       inkscape:connector-curvature="0" />
    <path
       style="clip-rule:nonzero;fill:none;stroke:#ffffff;stroke-width:0.26458332;stroke-linecap:butt;stroke-linejoin:miter;stroke-miterlimit:10;stroke-dasharray:none;stroke-opacity:0.25098039"
       d="M 35.239857,90.726738 H 86.911288"
       id="path5491"
       inkscape:connector-curvature="0" />
    <path
       style="clip-rule:nonzero;fill:none;stroke:#ffffff;stroke-width:0.26458332;stroke-linecap:butt;stroke-linejoin:miter;stroke-miterlimit:10;stroke-dasharray:none;stroke-opacity:0.25098039"
       d="M 35.239857,73.528821 H 86.911288"
       id="path5305"
       inkscape:connector-curvature="0" />
    <path
       style="clip-rule:nonzero;fill:none;stroke:#ffffff;stroke-width:0.28748253;stroke-linecap:butt;stroke-linejoin:miter;stroke-miterlimit:10;stroke-dasharray:none;stroke-opacity:0.25098039"
       d="M 61.075479,56.463196 V 90.85903"
       id="path4803"
       inkscape:connector-curvature="0" />
    <path
       style="clip-rule:nonzero;fill:none;stroke:#ffffff;stroke-width:0.28748253;stroke-linecap:butt;stroke-linejoin:miter;stroke-miterlimit:10;stroke-dasharray:none;stroke-opacity:0.25098039"
       d="M 69.674438,56.463196 V 90.85903"
       id="path4797"
       inkscape:connector-curvature="0" />
    <path
       style="clip-rule:nonzero;fill:none;stroke:#ffffff;stroke-width:0.28748253;stroke-linecap:butt;stroke-linejoin:miter;stroke-miterlimit:10;stroke-dasharray:none;stroke-opacity:0.25098039"
       d="M 52.476521,56.463196 V 90.85903"
       id="path4791"
       inkscape:connector-curvature="0" />
    <path
       style="clip-rule:nonzero;fill:none;stroke:#ffffff;stroke-width:0.28748253;stroke-linecap:butt;stroke-linejoin:miter;stroke-miterlimit:10;stroke-dasharray:none;stroke-opacity:0.25098039"
       d="M 43.877562,56.463196 V 90.85903"
       id="path4785"
       inkscape:connector-curvature="0" />
    <path
       style="clip-rule:nonzero;fill:none;stroke:#ffffff;stroke-width:0.28748253;stroke-linecap:butt;stroke-linejoin:miter;stroke-miterlimit:10;stroke-dasharray:none;stroke-opacity:0.25098039"
       d="M 78.273396,56.463196 V 90.85903"
       id="path4779"
       inkscape:connector-curvature="0" />
    <g
       style="font-style:normal;font-variant:normal;font-weight:bold;font-stretch:normal;font-size:3.52778px;line-height:1.25;font-family:Consolas;-inkscape-font-specification:'Consolas Bold';text-align:start;letter-spacing:0px;word-spacing:0px;text-anchor:start;fill:#00a3f2;fill-opacity:1;stroke:none;stroke-width:0.264583"
       id="text3885-7"
       aria-label="FROZEN WASTELAND">
      <path
         id="path17841"
         style="font-style:normal;font-variant:normal;font-weight:normal;font-stretch:normal;font-family:'Bradley Gratis';-inkscape-font-specification:'Bradley Gratis';text-align:start;text-anchor:start;stroke-width:0.264583"
         d="m 46.838776,150.2604 q 0.119945,-0.11995 0.190501,-0.21167 0.07408,-0.0917 0.112888,-0.16934 0.04233,-0.0776 0.05292,-0.14463 0.01411,-0.0706 0.01411,-0.14817 0,-0.0952 -0.04586,-0.22931 -0.04586,-0.13405 -0.102305,-0.28575 -0.05645,-0.15169 -0.102306,-0.31044 -0.04586,-0.15875 -0.04586,-0.30339 0,-0.0776 0.02469,-0.15169 0.02822,-0.0741 0.06703,-0.14112 0.04233,-0.0706 0.09172,-0.13052 0.04939,-0.0635 0.09878,-0.11289 -0.07055,-0.0141 -0.123472,-0.0212 -0.05292,-0.0106 -0.07761,-0.0106 -0.130528,0 -0.22225,0.0706 -0.08819,0.067 -0.190501,0.16934 0,-0.11995 0.03528,-0.24695 0.03881,-0.13053 0.116417,-0.23636 0.07761,-0.10583 0.194028,-0.17286 0.119944,-0.067 0.282222,-0.067 0.112889,0 0.208139,0.0176 0.09878,0.0141 0.179917,0.0353 0.08114,0.0212 0.148167,0.0388 0.06703,0.0141 0.119944,0.0141 0.08114,0 0.141112,-0.0212 0.0635,-0.0247 0.123472,-0.0847 0,0.0776 -0.03175,0.17639 -0.02822,0.0988 -0.08819,0.1905 -0.05644,0.0882 -0.148166,0.15169 -0.09172,0.06 -0.211667,0.06 -0.05997,0 -0.137584,-0.007 -0.07408,-0.0106 -0.155222,-0.0247 -0.0071,0.0247 -0.01058,0.0459 -0.0035,0.0212 -0.0071,0.0388 -0.0035,0.0212 -0.0035,0.0388 0,0.0776 0.01058,0.15169 0.01411,0.0706 0.0388,0.14464 h 0.712612 l -0.08114,0.23989 q -0.01058,0.0459 -0.01411,0.067 -0.0035,0.0212 -0.01058,0.067 l -0.130527,-0.0917 h -0.363362 q 0.07761,0.17638 0.144639,0.35983 0.06703,0.17992 0.06703,0.38453 0,0.18344 -0.07408,0.34219 -0.07408,0.15522 -0.197556,0.27164 -0.119945,0.11642 -0.278695,0.17992 -0.155222,0.067 -0.321028,0.067 z" />
      <path
         id="path17843"
         style="font-style:normal;font-variant:normal;font-weight:normal;font-stretch:normal;font-family:'Bradley Gratis';-inkscape-font-specification:'Bradley Gratis';text-align:start;text-anchor:start;stroke-width:0.264583"
         d="m 48.908867,148.53178 q 0.07055,-0.0423 0.137583,-0.0988 0.07056,-0.0564 0.123472,-0.127 0.05645,-0.0706 0.08819,-0.16228 0.03528,-0.0952 0.03528,-0.21167 0,-0.0988 -0.03881,-0.16581 -0.03528,-0.0706 -0.08467,-0.11288 -0.04939,-0.0423 -0.09878,-0.06 -0.04586,-0.0176 -0.07056,-0.0176 -0.02822,0 -0.05292,0.0106 -0.02117,0.0106 -0.0388,0.0247 z m -0.518584,-0.94191 q -0.112889,-0.0635 -0.112889,-0.23637 0.03175,0.0318 0.112889,0.0565 0.08114,0.0212 0.172861,0.0212 0.04586,0 0.130528,-0.0106 0.08467,-0.0141 0.172861,-0.0282 0.09172,-0.0141 0.172862,-0.0247 0.08467,-0.0141 0.130527,-0.0141 0.116417,0 0.232834,0.0353 0.116417,0.0353 0.215194,0.11995 0.09878,0.0847 0.165806,0.2293 0.07056,0.14111 0.09172,0.35984 l -0.627944,0.4445 q 0.07055,0.0282 0.15875,0.0952 0.08819,0.067 0.165805,0.18697 0.08114,0.11994 0.134056,0.30692 0.05292,0.18344 0.05292,0.45155 0,0.23283 0.02117,0.37747 0.02117,0.14464 0.05292,0.23284 0.03175,0.0882 0.06703,0.13053 0.0388,0.0459 0.07055,0.0776 -0.155222,0 -0.275166,-0.0917 -0.119945,-0.0882 -0.211667,-0.23283 -0.09172,-0.14464 -0.162278,-0.32808 -0.06703,-0.18345 -0.123472,-0.37042 -0.05644,-0.18697 -0.105834,-0.35983 -0.04586,-0.17286 -0.09525,-0.29986 -0.02469,0.0176 -0.04939,0.0353 -0.02117,0.0141 -0.0388,0.0317 v 1.31939 h -0.518584 z" />
      <path
         id="path17845"
         style="font-style:normal;font-variant:normal;font-weight:normal;font-stretch:normal;font-family:'Bradley Gratis';-inkscape-font-specification:'Bradley Gratis';text-align:start;text-anchor:start;stroke-width:0.264583"
         d="m 50.796615,149.63951 q 0,0.11994 0.01411,0.18697 0.01764,0.067 0.04233,0.1023 0.02822,0.0318 0.0635,0.0388 0.03528,0.007 0.07056,0.007 0.07056,0 0.116417,-0.0952 0.04586,-0.0988 0.04586,-0.29986 v -1.53105 q 0,-0.15875 -0.01764,-0.25753 -0.01411,-0.10231 -0.04233,-0.15522 -0.0247,-0.0564 -0.05997,-0.0776 -0.03175,-0.0212 -0.0635,-0.0212 -0.06703,0 -0.119944,0.0847 -0.04939,0.0811 -0.04939,0.26105 z m 1.005417,-0.88548 q 0,0.25753 -0.06703,0.508 -0.0635,0.25048 -0.176389,0.44803 -0.109361,0.19756 -0.261055,0.32103 -0.151695,0.11994 -0.321028,0.11994 -0.15875,0 -0.310445,-0.10936 -0.148167,-0.10936 -0.264584,-0.29986 -0.112888,-0.1905 -0.183444,-0.4445 -0.07056,-0.254 -0.07056,-0.54328 0,-0.23636 0.0635,-0.4833 0.06703,-0.25048 0.179917,-0.45156 0.112889,-0.20108 0.264584,-0.32808 0.151694,-0.13053 0.321028,-0.13053 0.148166,0 0.292805,0.10936 0.148167,0.10936 0.264584,0.29986 0.119944,0.18697 0.194028,0.44097 0.07408,0.25401 0.07408,0.54328 z" />
      <path
         id="path17847"
         style="font-style:normal;font-variant:normal;font-weight:normal;font-stretch:normal;font-family:'Bradley Gratis';-inkscape-font-specification:'Bradley Gratis';text-align:start;text-anchor:start;stroke-width:0.264583"
         d="m 51.956097,150.11223 q 0.04586,-0.27164 0.130528,-0.51153 0.08819,-0.23989 0.194027,-0.45861 0.105834,-0.21872 0.218723,-0.41628 0.116417,-0.20108 0.218722,-0.38805 0.102306,-0.18698 0.179917,-0.36337 0.07761,-0.17991 0.112889,-0.35983 -0.02822,-0.0176 -0.06703,-0.0318 -0.03528,-0.0141 -0.137583,-0.0141 -0.05292,0 -0.09525,0.0282 -0.03881,0.0247 -0.06703,0.0635 -0.02822,0.0353 -0.04586,0.0776 -0.01411,0.0388 -0.01411,0.0635 0,0.0282 0.01058,0.067 0.01411,0.0353 0.02822,0.0706 0.01764,0.0353 0.03528,0.067 0.01764,0.0282 0.03175,0.0423 l -0.430389,0.26811 q -0.08467,-0.0811 -0.144639,-0.19756 -0.05644,-0.11994 -0.05644,-0.23989 0,-0.06 0.03175,-0.14816 0.03175,-0.0882 0.102306,-0.16934 0.07056,-0.0847 0.183445,-0.14111 0.116416,-0.06 0.282222,-0.06 0.130528,0 0.218722,0.0176 0.08819,0.0176 0.155223,0.0423 0.06703,0.0212 0.123472,0.0388 0.05997,0.0176 0.134056,0.0176 0.04586,0 0.09878,-0.007 0.05292,-0.007 0.09878,-0.0212 0.04586,-0.0141 0.08114,-0.0282 0.03881,-0.0176 0.05997,-0.0388 -0.04233,0.22225 -0.134055,0.46214 -0.09172,0.23988 -0.204611,0.47977 -0.109362,0.23989 -0.232834,0.4692 -0.119944,0.2293 -0.22225,0.43039 -0.09878,0.19755 -0.169334,0.35983 -0.06703,0.15875 -0.07408,0.26106 0.141111,0.06 0.239889,0.06 0.0635,0 0.130528,-0.0141 0.06703,-0.0176 0.119945,-0.0529 0.05644,-0.0353 0.09172,-0.0882 0.03528,-0.0565 0.03528,-0.13406 0,-0.0776 -0.01764,-0.127 -0.01411,-0.0529 -0.03881,-0.0847 -0.02469,-0.0353 -0.05644,-0.06 -0.03175,-0.0282 -0.05997,-0.0564 l 0.405695,-0.29986 q 0.141111,0.10583 0.201084,0.22577 0.05997,0.11995 0.05997,0.26106 0,0.067 -0.02117,0.13053 -0.01764,0.06 -0.04586,0.11289 -0.02469,0.0494 -0.05997,0.0917 -0.03175,0.0423 -0.05644,0.067 l 0.05997,0.06 q 0.01764,0.0176 0.0388,0.0529 0.02117,0.0317 0.02117,0.0564 0,0.0282 -0.0247,0.0811 -0.02117,0.0564 -0.08819,0.0988 -0.0247,-0.0318 -0.05645,-0.0565 -0.02822,-0.0212 -0.05997,-0.0388 -0.03175,-0.0176 -0.06703,-0.0176 z" />
      <path
         id="path17849"
         style="font-style:normal;font-variant:normal;font-weight:normal;font-stretch:normal;font-family:'Bradley Gratis';-inkscape-font-specification:'Bradley Gratis';text-align:start;text-anchor:start;stroke-width:0.264583"
         d="m 55.462435,147.38525 v 0.381 q -0.03881,-0.0353 -0.102306,-0.0776 -0.05997,-0.0423 -0.130528,-0.0741 -0.06703,-0.0353 -0.134055,-0.0564 -0.06703,-0.0247 -0.112889,-0.0247 -0.08467,0 -0.172862,0.067 -0.08819,0.067 -0.144639,0.17992 -0.05644,0.10936 -0.07408,0.28927 -0.01411,0.17639 -0.01411,0.45509 h 0.903112 l -0.179917,0.40216 q -0.03528,-0.0529 -0.08467,-0.0705 -0.04586,-0.0212 -0.08467,-0.0212 h -0.553861 q 0,0.20109 0.0071,0.39511 0.0071,0.1905 0.04586,0.3422 0.04233,0.15169 0.127,0.24694 0.08467,0.0917 0.243416,0.0917 0.08467,0 0.165806,-0.0317 0.08467,-0.0317 0.155222,-0.0776 0.07056,-0.0494 0.123473,-0.1023 0.05644,-0.0529 0.08819,-0.0952 v 0.508 h -0.47625 q -0.342195,0 -0.553862,-0.11995 -0.211666,-0.12347 -0.331611,-0.32808 -0.116417,-0.20814 -0.15875,-0.47978 -0.03881,-0.27164 -0.03881,-0.56797 0,-0.0741 0.01058,-0.19403 0.01058,-0.12347 0.04586,-0.25753 0.03528,-0.13758 0.102306,-0.27516 0.06703,-0.14111 0.179916,-0.25048 0.116417,-0.11288 0.285751,-0.18344 0.169333,-0.0706 0.409222,-0.0706 z" />
      <path
         id="path17851"
         style="font-style:normal;font-variant:normal;font-weight:normal;font-stretch:normal;font-family:'Bradley Gratis';-inkscape-font-specification:'Bradley Gratis';text-align:start;text-anchor:start;stroke-width:0.264583"
         d="m 55.848837,150.11223 v -2.4377 q 0,-0.0988 -0.04233,-0.1658 -0.04233,-0.0706 -0.08467,-0.12348 h 0.684389 v 0.35984 L 56.797809,147.29 q 0.179917,0.16228 0.296334,0.32456 0.116417,0.15875 0.183445,0.32103 0.06703,0.15875 0.09172,0.32455 0.02469,0.16228 0.02469,0.33514 0,0.16934 -0.02822,0.32456 -0.02469,0.15169 -0.07408,0.29986 -0.04939,0.14817 -0.119945,0.29986 -0.06703,0.1517 -0.148167,0.3175 h 0.127 q 0.04586,0 0.09525,-0.0318 0.04939,-0.0317 0.09878,-0.0317 v 0.33867 h -0.684389 q 0.09525,-0.19403 0.151695,-0.34925 0.05997,-0.15522 0.09172,-0.29634 0.03175,-0.14111 0.04233,-0.27516 0.01058,-0.13406 0.01058,-0.28575 0,-0.1517 -0.05292,-0.31397 -0.04939,-0.16581 -0.123472,-0.30339 -0.07408,-0.13759 -0.158751,-0.22578 -0.08114,-0.0882 -0.148166,-0.0882 -0.04233,0 -0.06703,0.0212 v 2.11667 z" />
      <path
         id="path17853"
         style="font-style:normal;font-variant:normal;font-weight:normal;font-stretch:normal;font-family:'Bradley Gratis';-inkscape-font-specification:'Bradley Gratis';text-align:start;text-anchor:start;stroke-width:0.264583"
         d="m 59.087008,150.22865 q -0.1905,-0.13759 -0.324556,-0.29281 -0.134055,-0.15875 -0.215194,-0.32808 -0.08114,-0.16934 -0.119945,-0.3422 -0.03528,-0.17639 -0.03528,-0.34572 0,-0.16581 0.03528,-0.32808 0.03528,-0.16581 0.09172,-0.32456 0.05997,-0.16228 0.137584,-0.31397 0.07761,-0.15523 0.15875,-0.30339 h -0.02117 q -0.01058,0 -0.02469,0 -0.01058,-0.004 -0.02822,-0.004 -0.05645,0 -0.137584,0.0141 -0.07761,0.0141 -0.151694,0.0706 v -0.34573 h 0.740833 q -0.09172,0.15875 -0.15875,0.32103 -0.0635,0.15875 -0.105833,0.31045 -0.03881,0.14816 -0.05997,0.28222 -0.01764,0.13053 -0.01764,0.23636 0,0.10583 0.02117,0.254 0.02117,0.14817 0.07761,0.30692 0.05997,0.15522 0.15875,0.29633 0.102305,0.14111 0.264583,0.22931 l 0.105834,-0.0776 q -0.0635,-0.11995 -0.09878,-0.22931 -0.03528,-0.11289 -0.05292,-0.21167 -0.01411,-0.0988 -0.01764,-0.17991 -0.0035,-0.0847 -0.0035,-0.1517 0,-0.10936 0.02822,-0.24694 0.02822,-0.13759 0.08114,-0.28575 0.05292,-0.14817 0.127,-0.29986 0.07761,-0.1517 0.172861,-0.29634 -0.134056,0 -0.22225,0.0212 -0.08467,0.0212 -0.144639,0.06 v -0.33867 h 0.762 q -0.0635,0.0882 -0.127,0.20109 -0.05997,0.10936 -0.105833,0.23989 -0.04586,0.127 -0.07408,0.27164 -0.02822,0.14463 -0.02822,0.29633 0,0.25753 0.04586,0.45861 0.04586,0.19756 0.127,0.34925 0.08114,0.1517 0.190501,0.26106 0.109361,0.10936 0.232833,0.18697 v -2.26484 h 0.529167 v 2.1202 q 0,0.0247 -0.03528,0.0706 -0.03528,0.0423 -0.09172,0.0988 -0.05292,0.0565 -0.127,0.12348 -0.07056,0.0635 -0.144639,0.127 -0.176389,0.14816 -0.398639,0.32455 -0.172861,-0.13405 -0.296334,-0.26458 -0.123472,-0.13053 -0.211667,-0.254 z" />
      <path
         id="path17855"
         style="font-style:normal;font-variant:normal;font-weight:normal;font-stretch:normal;font-family:'Bradley Gratis';-inkscape-font-specification:'Bradley Gratis';text-align:start;text-anchor:start;stroke-width:0.264583"
         d="m 62.340281,148.41537 v -0.87842 h -0.416278 q -0.0035,0.23636 -0.01411,0.46919 -0.0071,0.22931 -0.01764,0.40923 z m 0.719667,-1.03012 q -0.0388,0.0282 -0.07408,0.0706 -0.03175,0.0423 -0.05644,0.0917 -0.02117,0.0459 -0.03528,0.0917 -0.01411,0.0423 -0.01411,0.0741 v 2.39889 h -0.539751 v -1.32997 h -0.472722 q -0.0035,0.127 -0.03528,0.27869 -0.03175,0.14817 -0.08819,0.29986 -0.05292,0.14817 -0.127,0.28928 -0.07055,0.13758 -0.162278,0.24342 -0.08819,0.10583 -0.1905,0.16933 -0.09878,0.0635 -0.208139,0.0635 -0.07055,0 -0.123472,-0.0423 -0.04939,-0.0423 -0.04939,-0.11995 0,-0.0494 0.03175,-0.0705 0.03175,-0.0247 0.06703,-0.0247 0.03175,0 0.04939,0.0106 0.01764,0.007 0.03175,0.0212 0.01764,0.0106 0.0388,0.0212 0.02117,0.007 0.05997,0.007 0.0635,0 0.102305,-0.0635 0.03881,-0.067 0.0635,-0.17639 0.0247,-0.11288 0.03528,-0.25752 0.01411,-0.14817 0.02117,-0.31045 0.0071,-0.16228 0.01764,-0.32808 0.01058,-0.16933 0.02822,-0.32456 0.02117,-0.18344 0.0635,-0.33514 0.04586,-0.15169 0.09525,-0.26811 0.04939,-0.11641 0.09878,-0.19755 0.04939,-0.0811 0.08467,-0.13053 h -0.07761 q -0.06703,0 -0.123472,0.0212 -0.05644,0.0176 -0.102305,0.0423 -0.04233,0.0212 -0.07761,0.0423 -0.03175,0.0176 -0.05644,0.0176 -0.05997,0 -0.0882,-0.0423 -0.02822,-0.0423 -0.02822,-0.0952 0,-0.0494 0.05292,-0.0917 0.05644,-0.0459 0.155222,-0.0459 z" />
      <path
         id="path17857"
         style="font-style:normal;font-variant:normal;font-weight:normal;font-stretch:normal;font-family:'Bradley Gratis';-inkscape-font-specification:'Bradley Gratis';text-align:start;text-anchor:start;stroke-width:0.264583"
         d="m 63.838929,150.2357 q -0.08114,-0.0811 -0.186973,-0.15875 -0.102305,-0.0776 -0.201083,-0.13758 -0.09525,-0.06 -0.169334,-0.10231 -0.07055,-0.0423 -0.08114,-0.0529 0.03528,-0.0423 0.08819,-0.11641 0.05292,-0.0776 0.102306,-0.1517 0.05292,-0.0741 0.09172,-0.13052 0.04233,-0.06 0.05292,-0.0706 0.04939,0.0317 0.134055,0.0882 0.08819,0.0529 0.172861,0.11289 0.08819,0.06 0.158751,0.10936 0.07056,0.0494 0.09172,0.0706 0.04939,-0.0282 0.08114,-0.0741 0.03528,-0.0459 0.03528,-0.14817 0,-0.0882 -0.07408,-0.18697 -0.07055,-0.0988 -0.176389,-0.20814 -0.105833,-0.10936 -0.232833,-0.22931 -0.127,-0.11994 -0.232834,-0.24694 -0.105833,-0.127 -0.179917,-0.25753 -0.07055,-0.13053 -0.07055,-0.26811 0,-0.0988 0.04939,-0.18345 0.05292,-0.0882 0.130528,-0.16227 0.07761,-0.0776 0.169333,-0.13759 0.09525,-0.0635 0.179917,-0.11641 0.08819,-0.0564 0.155222,-0.0988 0.06703,-0.0459 0.09525,-0.0811 0.02117,0.0176 0.09172,0.0882 0.07408,0.067 0.15875,0.14464 0.08467,0.0776 0.15875,0.13759 0.07761,0.06 0.102305,0.06 -0.03528,0.0282 -0.08819,0.0847 -0.04939,0.0529 -0.102306,0.11288 -0.04939,0.06 -0.09172,0.11642 -0.03881,0.0529 -0.05644,0.0811 -0.08114,-0.0353 -0.162278,-0.10583 -0.08114,-0.0706 -0.148167,-0.13759 -0.06703,-0.067 -0.112889,-0.11641 -0.04586,-0.0529 -0.05997,-0.0529 -0.02822,0 -0.04939,0.0317 -0.01764,0.0282 -0.01764,0.067 0,0.0847 0.07408,0.17991 0.07761,0.0953 0.186973,0.20462 0.112888,0.10583 0.243416,0.22577 0.134056,0.11642 0.243417,0.24342 0.112889,0.127 0.186973,0.26458 0.07761,0.13406 0.07761,0.27517 0,0.127 -0.09525,0.26811 -0.09525,0.14111 -0.229306,0.28222 -0.130528,0.13759 -0.268111,0.26459 -0.137584,0.12347 -0.225778,0.21872 z" />
      <path
         id="path17859"
         style="font-style:normal;font-variant:normal;font-weight:normal;font-stretch:normal;font-family:'Bradley Gratis';-inkscape-font-specification:'Bradley Gratis';text-align:start;text-anchor:start;stroke-width:0.264583"
         d="m 66.323919,149.63598 q 0,0.13758 -0.05644,0.23989 -0.05645,0.0988 -0.148167,0.16228 -0.08819,0.0635 -0.197556,0.0952 -0.109361,0.0318 -0.215194,0.0318 -0.165806,0 -0.324556,-0.0811 -0.15875,-0.0811 -0.28575,-0.21873 -0.127,-0.14111 -0.204612,-0.32808 -0.07761,-0.1905 -0.07761,-0.40922 0,-0.39159 0.179917,-0.72672 0.179917,-0.33867 0.500945,-0.61384 -0.02822,-0.004 -0.05292,-0.004 -0.02117,-0.004 -0.04586,-0.004 -0.08467,0 -0.179917,0.0282 -0.09525,0.0282 -0.179917,0.0741 -0.08467,0.0423 -0.155222,0.0953 -0.06703,0.0529 -0.102306,0.0988 0.02822,-0.13758 0.105834,-0.27164 0.07761,-0.13406 0.194028,-0.23636 0.116416,-0.10231 0.268111,-0.16581 0.151695,-0.0635 0.331611,-0.0635 0.09172,0 0.194028,0.0282 0.102306,0.0282 0.194028,0.0741 0.09525,0.0423 0.169334,0.0952 0.07408,0.0529 0.112889,0.1023 l -0.289278,0.44098 q -0.176389,-0.17286 -0.381001,-0.24695 -0.04586,0.0741 -0.09525,0.17639 -0.04939,0.0988 -0.09172,0.22578 -0.03881,0.127 -0.06703,0.28222 -0.02469,0.1517 -0.02469,0.33161 0,0.16934 0.02469,0.29986 0.02822,0.13053 0.07056,0.22578 0.04233,0.0952 0.09525,0.15875 0.05644,0.0635 0.112889,0.10584 0.134055,0.0952 0.306917,0.10583 0.07055,0 0.162278,-0.0282 0.09525,-0.0317 0.151694,-0.0811 z" />
      <path
         id="path17861"
         style="font-style:normal;font-variant:normal;font-weight:normal;font-stretch:normal;font-family:'Bradley Gratis';-inkscape-font-specification:'Bradley Gratis';text-align:start;text-anchor:start;stroke-width:0.264583"
         d="m 68.092163,147.38525 v 0.381 q -0.0388,-0.0353 -0.102305,-0.0776 -0.05997,-0.0423 -0.130528,-0.0741 -0.06703,-0.0353 -0.134056,-0.0564 -0.06703,-0.0247 -0.112889,-0.0247 -0.08467,0 -0.172861,0.067 -0.08819,0.067 -0.144639,0.17992 -0.05644,0.10936 -0.07408,0.28927 -0.01411,0.17639 -0.01411,0.45509 h 0.903111 l -0.179916,0.40216 q -0.03528,-0.0529 -0.08467,-0.0705 -0.04586,-0.0212 -0.08467,-0.0212 h -0.553861 q 0,0.20109 0.0071,0.39511 0.0071,0.1905 0.04586,0.3422 0.04233,0.15169 0.127,0.24694 0.08467,0.0917 0.243417,0.0917 0.08467,0 0.165806,-0.0317 0.08467,-0.0317 0.155222,-0.0776 0.07056,-0.0494 0.123473,-0.1023 0.05644,-0.0529 0.08819,-0.0952 v 0.508 h -0.47625 q -0.342195,0 -0.553862,-0.11995 -0.211667,-0.12347 -0.331611,-0.32808 -0.116417,-0.20814 -0.15875,-0.47978 -0.03881,-0.27164 -0.03881,-0.56797 0,-0.0741 0.01058,-0.19403 0.01058,-0.12347 0.04586,-0.25753 0.03528,-0.13758 0.102305,-0.27516 0.06703,-0.14111 0.179917,-0.25048 0.116417,-0.11288 0.28575,-0.18344 0.169334,-0.0706 0.409223,-0.0706 z" />
      <path
         id="path17863"
         style="font-style:normal;font-variant:normal;font-weight:normal;font-stretch:normal;font-family:'Bradley Gratis';-inkscape-font-specification:'Bradley Gratis';text-align:start;text-anchor:start;stroke-width:0.264583"
         d="m 69.371092,148.08023 q -0.08819,-0.21167 -0.151694,-0.35278 -0.0635,-0.14111 -0.09878,-0.14111 -0.03881,0 -0.05292,0.0353 -0.01058,0.0317 -0.01058,0.0564 v 1.91206 q 0,0.0776 -0.04233,0.16227 -0.04233,0.0847 -0.112889,0.14817 0.130527,0 0.232833,-0.0635 0.102306,-0.067 0.211667,-0.14464 0.112889,-0.0811 0.250472,-0.14464 0.137584,-0.067 0.342195,-0.067 v 0.63147 h -1.594557 q 0.04586,-0.067 0.07761,-0.127 0.03528,-0.06 0.05644,-0.11995 0.02117,-0.06 0.03175,-0.127 0.01058,-0.067 0.01058,-0.14816 v -1.66864 q 0,-0.11289 -0.04233,-0.18345 -0.04233,-0.0741 -0.05997,-0.1023 0.01411,-0.004 0.07055,-0.0247 0.05997,-0.0247 0.144639,-0.0564 0.08467,-0.0317 0.186973,-0.067 0.102305,-0.0353 0.201083,-0.0635 0.09878,-0.0317 0.186972,-0.0494 0.08819,-0.0212 0.144639,-0.0212 0.08819,0 0.165806,0.0494 0.07761,0.0494 0.141111,0.12348 0.0635,0.0741 0.109362,0.1658 0.04586,0.0882 0.07408,0.16581 z" />
      <path
         id="path17865"
         style="font-style:normal;font-variant:normal;font-weight:normal;font-stretch:normal;font-family:'Bradley Gratis';-inkscape-font-specification:'Bradley Gratis';text-align:start;text-anchor:start;stroke-width:0.264583"
         d="m 71.551262,148.41537 v -0.87842 h -0.416278 q -0.0035,0.23636 -0.01411,0.46919 -0.0071,0.22931 -0.01764,0.40923 z m 0.719667,-1.03012 q -0.03881,0.0282 -0.07408,0.0706 -0.03175,0.0423 -0.05644,0.0917 -0.02117,0.0459 -0.03528,0.0917 -0.01411,0.0423 -0.01411,0.0741 v 2.39889 h -0.53975 v -1.32997 h -0.472723 q -0.0035,0.127 -0.03528,0.27869 -0.03175,0.14817 -0.08819,0.29986 -0.05292,0.14817 -0.127,0.28928 -0.07056,0.13758 -0.162278,0.24342 -0.08819,0.10583 -0.1905,0.16933 -0.09878,0.0635 -0.208139,0.0635 -0.07056,0 -0.123473,-0.0423 -0.04939,-0.0423 -0.04939,-0.11995 0,-0.0494 0.03175,-0.0705 0.03175,-0.0247 0.06703,-0.0247 0.03175,0 0.04939,0.0106 0.01764,0.007 0.03175,0.0212 0.01764,0.0106 0.03881,0.0212 0.02117,0.007 0.05997,0.007 0.0635,0 0.102306,-0.0635 0.0388,-0.067 0.0635,-0.17639 0.02469,-0.11288 0.03528,-0.25752 0.01411,-0.14817 0.02117,-0.31045 0.0071,-0.16228 0.01764,-0.32808 0.01058,-0.16933 0.02822,-0.32456 0.02117,-0.18344 0.0635,-0.33514 0.04586,-0.15169 0.09525,-0.26811 0.04939,-0.11641 0.09878,-0.19755 0.04939,-0.0811 0.08467,-0.13053 h -0.07761 q -0.06703,0 -0.123472,0.0212 -0.05644,0.0176 -0.102306,0.0423 -0.04233,0.0212 -0.07761,0.0423 -0.03175,0.0176 -0.05644,0.0176 -0.05997,0 -0.08819,-0.0423 -0.02822,-0.0423 -0.02822,-0.0952 0,-0.0494 0.05292,-0.0917 0.05644,-0.0459 0.155223,-0.0459 z" />
      <path
         id="path17867"
         style="font-style:normal;font-variant:normal;font-weight:normal;font-stretch:normal;font-family:'Bradley Gratis';-inkscape-font-specification:'Bradley Gratis';text-align:start;text-anchor:start;stroke-width:0.264583"
         d="m 72.571341,150.11223 v -2.4377 q 0,-0.0988 -0.04233,-0.1658 -0.04233,-0.0706 -0.08467,-0.12348 h 0.68439 v 0.35984 L 73.520314,147.29 q 0.179917,0.16228 0.296334,0.32456 0.116416,0.15875 0.183444,0.32103 0.06703,0.15875 0.09172,0.32455 0.02469,0.16228 0.02469,0.33514 0,0.16934 -0.02822,0.32456 -0.02469,0.15169 -0.07408,0.29986 -0.04939,0.14817 -0.119944,0.29986 -0.06703,0.1517 -0.148167,0.3175 h 0.127 q 0.04586,0 0.09525,-0.0318 0.04939,-0.0317 0.09878,-0.0317 v 0.33867 h -0.684389 q 0.09525,-0.19403 0.151694,-0.34925 0.05997,-0.15522 0.09172,-0.29634 0.03175,-0.14111 0.04233,-0.27516 0.01058,-0.13406 0.01058,-0.28575 0,-0.1517 -0.05292,-0.31397 -0.04939,-0.16581 -0.123472,-0.30339 -0.07408,-0.13759 -0.15875,-0.22578 -0.08114,-0.0882 -0.148167,-0.0882 -0.04233,0 -0.06703,0.0212 v 2.11667 z" />
      <path
         id="path17869"
         style="font-style:normal;font-variant:normal;font-weight:normal;font-stretch:normal;font-family:'Bradley Gratis';-inkscape-font-specification:'Bradley Gratis';text-align:start;text-anchor:start;stroke-width:0.264583"
         d="m 74.460247,147.6322 q -0.09172,-0.0388 -0.127,-0.0953 -0.03528,-0.0564 -0.03528,-0.10583 0,-0.0423 0.02822,-0.0529 0.02822,0.0176 0.07761,0.0247 0.04939,0.007 0.112889,0.007 0.03175,0 0.08819,-0.0106 0.05997,-0.0106 0.130528,-0.0212 0.07056,-0.0106 0.144639,-0.0212 0.07761,-0.0106 0.144639,-0.0106 0.162278,0 0.331612,0.0847 0.169333,0.0811 0.303389,0.254 0.134055,0.16933 0.218722,0.43391 0.08819,0.26106 0.08819,0.62442 0,0.30692 -0.05292,0.52917 -0.05292,0.22225 -0.134056,0.37747 -0.08114,0.15522 -0.179917,0.25047 -0.09878,0.0917 -0.194027,0.14464 -0.09172,0.0494 -0.169334,0.067 -0.07408,0.0176 -0.109361,0.0176 -0.05292,0 -0.112889,-0.0141 -0.05997,-0.0141 -0.119945,-0.0317 -0.05644,-0.0176 -0.109361,-0.0318 -0.04939,-0.0141 -0.08467,-0.0141 -0.03881,0 -0.07056,0.0141 -0.03175,0.0106 -0.06703,0.0247 -0.03175,0.0106 -0.07055,0.0247 -0.03881,0.0106 -0.08819,0.0106 -0.01764,0 -0.03881,-0.004 -0.01764,-0.004 -0.03528,-0.0106 -0.01764,-0.007 -0.03528,-0.0176 0.02822,-0.0176 0.05644,-0.06 0.02822,-0.0459 0.05292,-0.0952 0.02822,-0.0529 0.05644,-0.11642 z m 0.518584,2.10256 q 0,0.0741 0.02469,0.11641 0.02822,0.0388 0.05997,0.0565 0.03881,0.0212 0.08467,0.0247 0.08114,0 0.141111,-0.10936 0.0635,-0.10936 0.0635,-0.27869 v -1.5487 q 0,-0.16581 -0.03175,-0.25753 -0.03175,-0.0917 -0.07408,-0.13405 -0.04233,-0.0423 -0.08467,-0.0494 -0.04233,-0.0106 -0.06703,-0.0106 -0.04233,0 -0.08114,0.0564 -0.03528,0.0564 -0.03528,0.14817 z" />
    </g>
    <g
       style="font-style:normal;font-variant:normal;font-weight:bold;font-stretch:normal;font-size:3.52778px;line-height:1.25;font-family:Consolas;-inkscape-font-specification:'Consolas Bold';text-align:center;letter-spacing:0px;word-spacing:0px;text-anchor:middle;fill:#ffffff;fill-opacity:1;stroke:none;stroke-width:0.264583"
       id="text6637" />
    <g
       style="font-style:normal;font-variant:normal;font-weight:normal;font-stretch:normal;font-size:3.52778px;line-height:1.25;font-family:Quarca;-inkscape-font-specification:Quarca;text-align:center;letter-spacing:0px;word-spacing:0px;text-anchor:middle;fill:#dddddd;fill-opacity:1;stroke:none;stroke-width:0.264583"
       id="text6641"
       aria-label="INSIDE">
      <path
         id="path17827"
         style="font-style:normal;font-variant:normal;font-weight:normal;font-stretch:normal;font-size:2.82222px;font-family:Quarca;-inkscape-font-specification:Quarca;fill:#dddddd;fill-opacity:1;stroke-width:0.264583"
         d="m 38.428726,145.10973 v -2.00378 H 38.26786 v 2.00378 z" />
      <path
         id="path17829"
         style="font-style:normal;font-variant:normal;font-weight:normal;font-stretch:normal;font-size:2.82222px;font-family:Quarca;-inkscape-font-specification:Quarca;fill:#dddddd;fill-opacity:1;stroke-width:0.264583"
         d="m 38.968917,145.10973 v -1.72438 c 0.04233,0.0931 0.07902,0.18627 0.146755,0.30198 l 0.824088,1.4224 h 0.163689 v -2.00378 H 39.93976 v 1.72155 c -0.03104,-0.0734 -0.05927,-0.14393 -0.112888,-0.23706 l -0.857955,-1.48449 H 38.80805 v 2.00378 z" />
      <path
         id="path17831"
         style="font-style:normal;font-variant:normal;font-weight:normal;font-stretch:normal;font-size:2.82222px;font-family:Quarca;-inkscape-font-specification:Quarca;fill:#dddddd;fill-opacity:1;stroke-width:0.264583"
         d="m 41.29372,144.27717 c 0.141111,0.0593 0.1778,0.10725 0.1778,0.24553 v 0.19474 c 0,0.16933 -0.07055,0.23989 -0.231422,0.23989 h -0.426155 c -0.160867,0 -0.234244,-0.0706 -0.234244,-0.23989 v -0.21167 h -0.160867 v 0.25118 c 0,0.23424 0.110067,0.35278 0.369711,0.35278 h 0.496711 c 0.234244,0 0.349955,-0.11854 0.349955,-0.35278 v -0.27658 c 0,-0.20038 -0.0762,-0.27093 -0.282222,-0.36124 l -0.578555,-0.24554 c -0.132644,-0.0564 -0.166511,-0.11006 -0.166511,-0.23424 v -0.12418 c 0,-0.19191 0.06209,-0.25682 0.242711,-0.25682 h 0.352777 c 0.160867,0 0.239889,0.0734 0.239889,0.24835 v 0.18909 h 0.163689 v -0.2286 c 0,-0.254 -0.121356,-0.36124 -0.381,-0.36124 h -0.417688 c -0.248356,0 -0.361245,0.11007 -0.361245,0.36124 v 0.19756 c 0,0.2032 0.06773,0.27658 0.2794,0.36971 z" />
      <path
         id="path17833"
         style="font-style:normal;font-variant:normal;font-weight:normal;font-stretch:normal;font-size:2.82222px;font-family:Quarca;-inkscape-font-specification:Quarca;fill:#dddddd;fill-opacity:1;stroke-width:0.264583"
         d="m 42.116353,145.10973 v -2.00378 h -0.160866 v 2.00378 z" />
      <path
         id="path17835"
         style="font-style:normal;font-variant:normal;font-weight:normal;font-stretch:normal;font-size:2.82222px;font-family:Quarca;-inkscape-font-specification:Quarca;fill:#dddddd;fill-opacity:1;stroke-width:0.264583"
         d="m 42.495678,145.10973 h 0.784577 c 0.352777,0 0.49671,-0.15523 0.49671,-0.47414 v -1.05551 c 0,-0.31891 -0.143933,-0.47413 -0.49671,-0.47413 h -0.784577 z m 0.77611,-0.1524 h -0.615244 v -1.69898 h 0.615244 c 0.245533,0 0.344311,0.11007 0.344311,0.3556 v 0.98778 c 0,0.24553 -0.09878,0.3556 -0.344311,0.3556 z" />
      <path
         id="path17837"
         style="font-style:normal;font-variant:normal;font-weight:normal;font-stretch:normal;font-size:2.82222px;font-family:Quarca;-inkscape-font-specification:Quarca;fill:#dddddd;fill-opacity:1;stroke-width:0.264583"
         d="m 44.304676,143.25835 h 0.905933 l 0.02258,-0.1524 H 44.14381 v 2.00378 h 1.072444 l 0.02258,-0.1524 h -0.934155 v -0.61243 h 0.759178 l 0.02258,-0.14957 h -0.781755 z" />
    </g>
    <g
       style="font-style:normal;font-variant:normal;font-weight:normal;font-stretch:normal;font-size:3.52778px;line-height:1.25;font-family:Quarca;-inkscape-font-specification:Quarca;text-align:center;letter-spacing:0px;word-spacing:0px;text-anchor:middle;fill:#dddddd;fill-opacity:1;stroke:none;stroke-width:0.264583"
       id="text6641-2"
       aria-label="OUTSIDE">
      <path
         id="path17812"
         style="font-style:normal;font-variant:normal;font-weight:normal;font-stretch:normal;font-size:2.82222px;font-family:Quarca;-inkscape-font-specification:Quarca;fill:#dddddd;fill-opacity:1;stroke-width:0.264583"
         d="m 37.106597,135.72443 c 0,0.25964 0.09878,0.38946 0.386644,0.38946 h 0.536222 c 0.287867,0 0.386644,-0.12982 0.386644,-0.38946 v -1.22485 c 0,-0.25964 -0.09878,-0.38946 -0.386644,-0.38946 h -0.536222 c -0.287866,0 -0.386644,0.12982 -0.386644,0.38946 z m 0.403578,-1.46191 h 0.502355 c 0.180622,0 0.242711,0.0847 0.242711,0.26246 v 1.17405 c 0,0.1778 -0.06209,0.26246 -0.242711,0.26246 h -0.502355 c -0.1778,0 -0.242711,-0.0847 -0.242711,-0.26246 v -1.17405 c 0,-0.1778 0.06491,-0.26246 0.242711,-0.26246 z" />
      <path
         id="path17814"
         style="font-style:normal;font-variant:normal;font-weight:normal;font-stretch:normal;font-size:2.82222px;font-family:Quarca;-inkscape-font-specification:Quarca;fill:#dddddd;fill-opacity:1;stroke-width:0.264583"
         d="m 39.578421,135.96149 h -0.361244 c -0.194733,0 -0.2794,-0.0903 -0.2794,-0.29633 v -1.55504 h -0.160866 v 1.60019 c 0,0.26812 0.124177,0.40358 0.406399,0.40358 h 0.428978 c 0.282222,0 0.4064,-0.13546 0.4064,-0.40358 v -1.60019 h -0.163689 v 1.55504 c 0,0.20602 -0.08185,0.29633 -0.276578,0.29633 z" />
      <path
         id="path17816"
         style="font-style:normal;font-variant:normal;font-weight:normal;font-stretch:normal;font-size:2.82222px;font-family:Quarca;-inkscape-font-specification:Quarca;fill:#dddddd;fill-opacity:1;stroke-width:0.264583"
         d="m 41.422213,134.26252 v -0.1524 h -1.188155 v 0.1524 h 0.513644 v 1.85137 h 0.163689 v -1.85137 z" />
      <path
         id="path17818"
         style="font-style:normal;font-variant:normal;font-weight:normal;font-stretch:normal;font-size:2.82222px;font-family:Quarca;-inkscape-font-specification:Quarca;fill:#dddddd;fill-opacity:1;stroke-width:0.264583"
         d="m 42.453337,135.28134 c 0.141111,0.0593 0.1778,0.10724 0.1778,0.24553 v 0.19473 c 0,0.16934 -0.07056,0.23989 -0.231422,0.23989 H 41.97356 c -0.160867,0 -0.234244,-0.0705 -0.234244,-0.23989 v -0.21166 h -0.160867 v 0.25117 c 0,0.23425 0.110067,0.35278 0.369711,0.35278 h 0.496711 c 0.234244,0 0.349955,-0.11853 0.349955,-0.35278 v -0.27657 c 0,-0.20038 -0.0762,-0.27094 -0.282222,-0.36125 l -0.578555,-0.24553 c -0.132644,-0.0564 -0.166511,-0.11007 -0.166511,-0.23425 v -0.12417 c 0,-0.19191 0.06209,-0.25682 0.242711,-0.25682 h 0.352777 c 0.160867,0 0.239889,0.0734 0.239889,0.24835 v 0.18909 h 0.163689 v -0.2286 c 0,-0.254 -0.121356,-0.36124 -0.381,-0.36124 h -0.417688 c -0.248356,0 -0.361245,0.11006 -0.361245,0.36124 v 0.19755 c 0,0.2032 0.06773,0.27658 0.2794,0.36972 z" />
      <path
         id="path17820"
         style="font-style:normal;font-variant:normal;font-weight:normal;font-stretch:normal;font-size:2.82222px;font-family:Quarca;-inkscape-font-specification:Quarca;fill:#dddddd;fill-opacity:1;stroke-width:0.264583"
         d="m 43.27597,136.11389 v -2.00377 h -0.160866 v 2.00377 z" />
      <path
         id="path17822"
         style="font-style:normal;font-variant:normal;font-weight:normal;font-stretch:normal;font-size:2.82222px;font-family:Quarca;-inkscape-font-specification:Quarca;fill:#dddddd;fill-opacity:1;stroke-width:0.264583"
         d="m 43.655295,136.11389 h 0.784577 c 0.352777,0 0.49671,-0.15522 0.49671,-0.47413 v -1.05551 c 0,-0.31891 -0.143933,-0.47413 -0.49671,-0.47413 h -0.784577 z m 0.77611,-0.1524 h -0.615244 v -1.69897 h 0.615244 c 0.245533,0 0.344311,0.11006 0.344311,0.35559 v 0.98778 c 0,0.24554 -0.09878,0.3556 -0.344311,0.3556 z" />
      <path
         id="path17824"
         style="font-style:normal;font-variant:normal;font-weight:normal;font-stretch:normal;font-size:2.82222px;font-family:Quarca;-inkscape-font-specification:Quarca;fill:#dddddd;fill-opacity:1;stroke-width:0.264583"
         d="m 45.464294,134.26252 h 0.905933 l 0.02258,-0.1524 h -1.089377 v 2.00377 h 1.072444 l 0.02258,-0.1524 h -0.934155 v -0.61242 h 0.759177 l 0.02258,-0.14958 h -0.781755 z" />
    </g>
    <g
       style="font-style:normal;font-variant:normal;font-weight:normal;font-stretch:normal;font-size:3.52778px;line-height:1.25;font-family:Quarca;-inkscape-font-specification:Quarca;text-align:center;letter-spacing:0px;word-spacing:0px;text-anchor:middle;fill:#dddddd;fill-opacity:1;stroke:none;stroke-width:0.264583"
       id="text299-6"
       aria-label="eG">
      <path
         id="path17807"
         style="font-style:normal;font-variant:normal;font-weight:normal;font-stretch:normal;font-size:2.82222px;font-family:Quarca;-inkscape-font-specification:Quarca;fill:#dddddd;fill-opacity:1;stroke-width:0.264583"
         d="m 60.159492,93.838578 c -0.180622,0 -0.237067,-0.09031 -0.237067,-0.256822 V 93.34469 h 0.437445 c 0.307622,0 0.375355,-0.1016 0.375355,-0.318911 v -0.158044 c 0,-0.251178 -0.1016,-0.335845 -0.397933,-0.335845 h -0.166511 c -0.299156,0 -0.403578,0.08467 -0.403578,0.335845 v 0.72531 c 0,0.270933 0.104422,0.381 0.395111,0.381 h 0.180622 c 0.3048,0 0.397933,-0.112889 0.397933,-0.383822 v -0.0508 h -0.146755 v 0.0508 c 0,0.166511 -0.06209,0.248355 -0.234244,0.248355 z m 0.2032,-1.171221 c 0.172155,0 0.225777,0.07055 0.225777,0.206022 v 0.143933 c 0,0.129822 -0.05362,0.191911 -0.237066,0.191911 h -0.428978 v -0.333022 c 0,-0.138289 0.05362,-0.208844 0.222956,-0.208844 z" />
      <path
         id="path17809"
         style="font-style:normal;font-variant:normal;font-weight:normal;font-stretch:normal;font-size:2.82222px;font-family:Quarca;-inkscape-font-specification:Quarca;fill:#dddddd;fill-opacity:1;stroke-width:0.264583"
         d="m 61.664485,93.158423 h 0.482599 v 0.420511 c 0,0.163689 -0.06773,0.242711 -0.248355,0.242711 h -0.445911 c -0.166511,0 -0.245533,-0.0762 -0.245533,-0.256822 v -1.165577 c 0,-0.191911 0.06491,-0.276578 0.231422,-0.276578 h 0.4826 c 0.166511,0 0.239889,0.0762 0.239889,0.256822 v 0.180623 h 0.160866 v -0.2286 c 0,-0.251178 -0.124178,-0.361244 -0.364066,-0.361244 h -0.572911 c -0.225778,0 -0.338666,0.126999 -0.338666,0.380999 v 1.264355 c 0,0.254 0.141111,0.358422 0.366888,0.358422 h 0.524933 c 0.2794,0 0.372533,-0.138289 0.372533,-0.381 v -0.587022 h -0.62371 z" />
    </g>
    <g
       style="font-style:normal;font-variant:normal;font-weight:normal;font-stretch:normal;font-size:3.52778px;line-height:1.25;font-family:Quarca;-inkscape-font-specification:Quarca;text-align:center;letter-spacing:0px;word-spacing:0px;text-anchor:middle;fill:#dddddd;fill-opacity:1;stroke:none;stroke-width:0.264583"
       id="text6641-2-6"
       aria-label="UNI">
      <path
         id="path17800"
         style="font-style:normal;font-variant:normal;font-weight:normal;font-stretch:normal;font-size:2.82222px;font-family:Quarca;-inkscape-font-specification:Quarca;fill:#dddddd;fill-opacity:1;stroke-width:0.264583"
         d="m 52.847603,136.20632 h -0.361244 c -0.194733,0 -0.2794,-0.0903 -0.2794,-0.29633 v -1.55505 h -0.160866 v 1.6002 c 0,0.26811 0.124177,0.40358 0.406399,0.40358 h 0.428978 c 0.282222,0 0.406399,-0.13547 0.406399,-0.40358 v -1.6002 h -0.163688 v 1.55505 c 0,0.20602 -0.08185,0.29633 -0.276578,0.29633 z" />
      <path
         id="path17802"
         style="font-style:normal;font-variant:normal;font-weight:normal;font-stretch:normal;font-size:2.82222px;font-family:Quarca;-inkscape-font-specification:Quarca;fill:#dddddd;fill-opacity:1;stroke-width:0.264583"
         d="m 53.822151,136.35872 v -1.72438 c 0.04233,0.0931 0.07902,0.18627 0.146755,0.30198 l 0.824089,1.4224 h 0.163688 v -2.00378 h -0.163688 v 1.72156 c -0.03104,-0.0734 -0.05927,-0.14394 -0.112889,-0.23707 l -0.857955,-1.48449 h -0.160867 v 2.00378 z" />
      <path
         id="path17804"
         style="font-style:normal;font-variant:normal;font-weight:normal;font-stretch:normal;font-size:2.82222px;font-family:Quarca;-inkscape-font-specification:Quarca;fill:#dddddd;fill-opacity:1;stroke-width:0.264583"
         d="m 55.497844,136.35872 v -2.00378 h -0.160866 v 2.00378 z" />
    </g>
    <g
       style="font-style:normal;font-variant:normal;font-weight:normal;font-stretch:normal;font-size:3.52778px;line-height:1.25;font-family:Quarca;-inkscape-font-specification:Quarca;text-align:center;letter-spacing:0px;word-spacing:0px;text-anchor:middle;fill:#dddddd;fill-opacity:1;stroke:none;stroke-width:0.264583"
       id="text6641-2-6-2"
       aria-label="BI">
      <path
         id="path17795"
         style="font-style:normal;font-variant:normal;font-weight:normal;font-stretch:normal;font-size:2.82222px;font-family:Quarca;-inkscape-font-specification:Quarca;fill:#dddddd;fill-opacity:1;stroke-width:0.264583"
         d="m 52.945379,145.10973 h 0.784577 c 0.301978,0 0.437444,-0.12983 0.437444,-0.38947 v -0.27376 c 0,-0.27375 -0.146755,-0.37253 -0.327377,-0.38664 0.152399,-0.031 0.222955,-0.13264 0.222955,-0.31891 v -0.24553 c 0,-0.25965 -0.149578,-0.38947 -0.465666,-0.38947 h -0.651933 z m 0.160866,-0.97085 h 0.536222 c 0.251178,0 0.364067,0.096 0.364067,0.31609 v 0.23425 c 0,0.18062 -0.09313,0.26811 -0.301978,0.26811 h -0.598311 z m 0,-0.88053 h 0.454378 c 0.234244,0 0.341488,0.079 0.341488,0.27375 v 0.19756 c 0,0.16087 -0.08749,0.25964 -0.285044,0.25964 h -0.510822 z" />
      <path
         id="path17797"
         style="font-style:normal;font-variant:normal;font-weight:normal;font-stretch:normal;font-size:2.82222px;font-family:Quarca;-inkscape-font-specification:Quarca;fill:#dddddd;fill-opacity:1;stroke-width:0.264583"
         d="m 54.644135,145.10973 v -2.00378 h -0.160867 v 2.00378 z" />
    </g>
    <g
       style="font-style:normal;font-variant:normal;font-weight:normal;font-stretch:normal;font-size:3.52778px;line-height:1.25;font-family:Quarca;-inkscape-font-specification:Quarca;text-align:center;letter-spacing:0px;word-spacing:0px;text-anchor:middle;fill:#dddddd;fill-opacity:1;stroke:none;stroke-width:0.264583"
       id="text303-3"
       aria-label="F">
      <path
         id="path17790"
         style="font-style:normal;font-variant:normal;font-weight:normal;font-stretch:normal;font-family:Quarca;-inkscape-font-specification:Quarca;fill:#dddddd;fill-opacity:1"
         d="m 51.233529,114.11086 q 0,0.26183 -0.03169,0.43684 -0.03169,0.17364 -0.0813,0.28939 -0.07993,0.18604 -0.22462,0.28112 -0.144694,0.0937 -0.354156,0.0937 -0.209462,0 -0.354156,-0.0937 -0.144693,-0.0951 -0.22462,-0.28112 -0.05099,-0.11575 -0.08268,-0.28939 -0.03032,-0.17501 -0.03032,-0.43684 0,-0.23977 0.03032,-0.4203 0.03169,-0.1819 0.08406,-0.29627 0.07855,-0.17915 0.223242,-0.27423 0.146072,-0.0951 0.354156,-0.0951 0.208084,0 0.352777,0.0951 0.146072,0.0951 0.224621,0.27423 0.05099,0.11575 0.08268,0.29627 0.03169,0.18053 0.03169,0.4203 z m -0.260449,-0.12402 q -0.0055,-0.19706 -0.03996,-0.34451 -0.03307,-0.14745 -0.07717,-0.22186 -0.0565,-0.0965 -0.130913,-0.13505 -0.07441,-0.04 -0.183279,-0.04 -0.108865,0 -0.183279,0.04 -0.07441,0.0386 -0.130913,0.13505 -0.04685,0.0758 -0.07993,0.22324 -0.03169,0.14607 -0.03721,0.34313 z m 0,0.22187 h -0.862652 q 0,0.19568 0.03169,0.35691 0.03169,0.15985 0.0813,0.24529 0.05512,0.0951 0.132292,0.1378 0.07717,0.0427 0.186035,0.0427 0.108865,0 0.186035,-0.0427 0.07717,-0.0427 0.132292,-0.1378 0.04961,-0.0854 0.0813,-0.24529 0.0317,-0.16123 0.0317,-0.35691 z" />
      <path
         id="path17792"
         style="font-style:normal;font-variant:normal;font-weight:normal;font-stretch:normal;font-size:2.82222px;font-family:Quarca;-inkscape-font-specification:Quarca;fill:#dddddd;fill-opacity:1;stroke-width:0.264583"
         d="m 51.775031,113.31782 h 0.897466 l 0.02258,-0.1524 h -1.08091 v 2.00378 h 0.160866 v -0.76482 h 0.7112 l 0.02258,-0.14958 h -0.733777 z" />
    </g>
    <g
       style="font-style:normal;font-variant:normal;font-weight:bold;font-stretch:normal;font-size:3.52778px;line-height:1.25;font-family:Arial;-inkscape-font-specification:'Arial Bold';text-align:center;letter-spacing:0px;word-spacing:0px;text-anchor:middle;fill:#000000;fill-opacity:1;stroke:none;stroke-width:0.264583"
       id="text2398" />
    <g
       style="font-style:normal;font-variant:normal;font-weight:normal;font-stretch:normal;font-size:3.52778px;line-height:1.25;font-family:Quarca;-inkscape-font-specification:Quarca;text-align:center;letter-spacing:0px;word-spacing:0px;text-anchor:middle;fill:#dddddd;fill-opacity:1;stroke:none;stroke-width:0.264583"
       id="text303-3-7"
       aria-label="G">
      <path
         id="path17784"
         style="font-style:normal;font-variant:normal;font-weight:normal;font-stretch:normal;font-family:Quarca;-inkscape-font-specification:Quarca;fill:#dddddd;fill-opacity:1;stroke-width:0.264583"
         d="m 60.88531,114.11086 q 0,0.26183 -0.03169,0.43684 -0.03169,0.17364 -0.0813,0.28939 -0.07993,0.18604 -0.22462,0.28112 -0.144694,0.0937 -0.354156,0.0937 -0.209461,0 -0.354155,-0.0937 -0.144694,-0.0951 -0.22462,-0.28112 -0.05099,-0.11575 -0.08268,-0.28939 -0.03032,-0.17501 -0.03032,-0.43684 0,-0.23977 0.03032,-0.4203 0.03169,-0.1819 0.08406,-0.29627 0.07855,-0.17915 0.223242,-0.27423 0.146072,-0.0951 0.354155,-0.0951 0.208084,0 0.352778,0.0951 0.146072,0.0951 0.22462,0.27423 0.05099,0.11575 0.08268,0.29627 0.03169,0.18053 0.03169,0.4203 z m -0.260449,-0.12402 q -0.0055,-0.19706 -0.03996,-0.34451 -0.03307,-0.14745 -0.07717,-0.22186 -0.0565,-0.0965 -0.130914,-0.13505 -0.07441,-0.04 -0.183279,-0.04 -0.108865,0 -0.183279,0.04 -0.07441,0.0386 -0.130913,0.13505 -0.04685,0.0758 -0.07993,0.22324 -0.03169,0.14607 -0.03721,0.34313 z m 0,0.22187 H 59.76221 q 0,0.19568 0.03169,0.35691 0.03169,0.15985 0.0813,0.24529 0.05512,0.0951 0.132291,0.1378 0.07717,0.0427 0.186035,0.0427 0.108865,0 0.186035,-0.0427 0.07717,-0.0427 0.132292,-0.1378 0.04961,-0.0854 0.0813,-0.24529 0.0317,-0.16123 0.0317,-0.35691 z" />
      <path
         id="path17786"
         style="font-style:normal;font-variant:normal;font-weight:normal;font-stretch:normal;font-family:Quarca;-inkscape-font-specification:Quarca;fill:#dddddd;fill-opacity:1;stroke-width:0.264583"
         d="m 61.872723,114.35358 h 0.4826 v 0.42051 c 0,0.16369 -0.06773,0.24271 -0.248356,0.24271 h -0.44591 c -0.166511,0 -0.245533,-0.0762 -0.245533,-0.25682 v -1.16558 c 0,-0.19191 0.06491,-0.27658 0.231422,-0.27658 h 0.482599 c 0.166511,0 0.239889,0.0762 0.239889,0.25682 v 0.18062 h 0.160867 v -0.2286 c 0,-0.25117 -0.124178,-0.36124 -0.364067,-0.36124 h -0.572911 c -0.225777,0 -0.338666,0.127 -0.338666,0.381 v 1.26436 c 0,0.25399 0.141111,0.35842 0.366889,0.35842 h 0.524933 c 0.279399,0 0.372533,-0.13829 0.372533,-0.381 v -0.58702 h -0.623711 z" />
    </g>
    <g
       style="font-style:normal;font-variant:normal;font-weight:normal;font-stretch:normal;font-size:3.52778px;line-height:1.25;font-family:Quarca;-inkscape-font-specification:Quarca;text-align:center;letter-spacing:0px;word-spacing:0px;text-anchor:middle;fill:#dddddd;fill-opacity:1;stroke:none;stroke-width:0.264583"
       id="text303-3-8"
       aria-label="XAMP">
      <path
         id="path17775"
         style="font-style:normal;font-variant:normal;font-weight:normal;font-stretch:normal;font-size:2.82222px;font-family:Quarca;-inkscape-font-specification:Quarca;fill:#dddddd;fill-opacity:1;stroke-width:0.264583"
         d="m 69.215062,114.1423 -0.460022,-0.93415 h -0.166511 l 0.493889,1.00471 -0.485422,0.99906 h 0.169333 l 0.448733,-0.91158 0.443089,0.91158 h 0.169333 l -0.479778,-0.99906 0.488245,-1.00471 H 69.66944 Z" />
      <path
         id="path17777"
         style="font-style:normal;font-variant:normal;font-weight:normal;font-stretch:normal;font-size:2.11667px;font-family:Quarca;-inkscape-font-specification:Quarca;fill:#dddddd;fill-opacity:1"
         d="m 70.365647,113.70909 -0.463551,1.50283 h 0.129117 l 0.09737,-0.32597 h 0.605368 l 0.09737,0.32597 h 0.129117 l -0.461434,-1.50283 z m 0.06773,0.16086 0.2667,0.9017 h -0.537634 z" />
      <path
         id="path17779"
         style="font-style:normal;font-variant:normal;font-weight:normal;font-stretch:normal;font-size:2.11667px;font-family:Quarca;-inkscape-font-specification:Quarca;fill:#dddddd;fill-opacity:1"
         d="m 71.259113,115.21192 v -1.3081 l 0.374651,0.73237 h 0.118533 l 0.376768,-0.73237 v 1.3081 h 0.116417 v -1.50283 h -0.143934 l -0.408517,0.79798 -0.406401,-0.79798 h -0.143934 v 1.50283 z" />
      <path
         id="path17781"
         style="font-style:normal;font-variant:normal;font-weight:normal;font-stretch:normal;font-size:2.11667px;font-family:Quarca;-inkscape-font-specification:Quarca;fill:#dddddd;fill-opacity:1"
         d="m 72.648277,114.59385 h 0.474134 c 0.188384,0 0.285751,-0.0953 0.285751,-0.28363 v -0.3175 c 0,-0.18838 -0.09737,-0.28363 -0.285751,-0.28363 h -0.594784 v 1.50283 h 0.12065 z m 0,-0.77046 h 0.457201 c 0.122767,0 0.179917,0.0571 0.179917,0.19261 v 0.27094 c 0,0.13546 -0.05715,0.19261 -0.179917,0.19261 h -0.457201 z" />
    </g>
    <g
       style="font-style:normal;font-variant:normal;font-weight:normal;font-stretch:normal;font-size:3.52778px;line-height:1.25;font-family:Quarca;-inkscape-font-specification:Quarca;text-align:center;letter-spacing:0px;word-spacing:0px;text-anchor:middle;fill:#dddddd;fill-opacity:1;stroke:none;stroke-width:0.264583"
       id="text303-3-8-0"
       aria-label="YAMP">
      <path
         id="path17766"
         style="font-style:normal;font-variant:normal;font-weight:normal;font-stretch:normal;font-size:2.82222px;font-family:Quarca;-inkscape-font-specification:Quarca;fill:#dddddd;fill-opacity:1"
         d="m 78.492653,115.21192 v -0.82973 l 0.592666,-1.17404 h -0.169333 l -0.445911,0.88899 c -0.04798,0.0931 -0.0508,0.11289 -0.05927,0.14958 -0.0085,-0.0367 -0.01693,-0.0564 -0.06209,-0.1524 l -0.448733,-0.88617 h -0.169333 l 0.598311,1.17686 v 0.82691 z" />
      <path
         id="path17768"
         style="font-style:normal;font-variant:normal;font-weight:normal;font-stretch:normal;font-size:2.11667px;font-family:Quarca;-inkscape-font-specification:Quarca;fill:#dddddd;fill-opacity:1;stroke-width:0.264583"
         d="m 79.639533,113.70909 -0.46355,1.50283 H 79.3051 l 0.09737,-0.32597 h 0.605368 l 0.09737,0.32597 h 0.129117 l -0.461434,-1.50283 z m 0.06773,0.16086 0.2667,0.9017 h -0.537634 z" />
      <path
         id="path17770"
         style="font-style:normal;font-variant:normal;font-weight:normal;font-stretch:normal;font-size:2.11667px;font-family:Quarca;-inkscape-font-specification:Quarca;fill:#dddddd;fill-opacity:1;stroke-width:0.264583"
         d="m 80.533,115.21192 v -1.3081 l 0.37465,0.73237 h 0.118534 l 0.376767,-0.73237 v 1.3081 h 0.116417 v -1.50283 h -0.143934 l -0.408517,0.79798 -0.4064,-0.79798 h -0.143934 v 1.50283 z" />
      <path
         id="path17772"
         style="font-style:normal;font-variant:normal;font-weight:normal;font-stretch:normal;font-size:2.11667px;font-family:Quarca;-inkscape-font-specification:Quarca;fill:#dddddd;fill-opacity:1;stroke-width:0.264583"
         d="m 81.922164,114.59385 h 0.474134 c 0.188383,0 0.28575,-0.0953 0.28575,-0.28363 v -0.3175 c 0,-0.18838 -0.09737,-0.28363 -0.28575,-0.28363 h -0.594785 v 1.50283 h 0.120651 z m 0,-0.77046 h 0.4572 c 0.122767,0 0.179917,0.0571 0.179917,0.19261 v 0.27094 c 0,0.13546 -0.05715,0.19261 -0.179917,0.19261 h -0.4572 z" />
    </g>
  </g>
</svg>
