<?xml version="1.0" encoding="UTF-8" standalone="no"?>
<!-- Generator: Adobe Illustrator 18.1.1, SVG Export Plug-In . SVG Version: 6.00 Build 0)  -->

<svg
   xmlns:dc="http://purl.org/dc/elements/1.1/"
   xmlns:cc="http://creativecommons.org/ns#"
   xmlns:rdf="http://www.w3.org/1999/02/22-rdf-syntax-ns#"
   xmlns:svg="http://www.w3.org/2000/svg"
   xmlns="http://www.w3.org/2000/svg"
   xmlns:xlink="http://www.w3.org/1999/xlink"
   xmlns:sodipodi="http://sodipodi.sourceforge.net/DTD/sodipodi-0.dtd"
   xmlns:inkscape="http://www.inkscape.org/namespaces/inkscape"
   version="1.1"
   id="svg4541"
   inkscape:version="0.92.2 (5c3e80d, 2017-08-06)"
   sodipodi:docname="SeedsOfChange.svg"
   x="0px"
   y="0px"
   viewBox="283.5 206 120 380"
   enable-background="new 283.5 206 90 380"
   xml:space="preserve"
   width="120"
   height="380"><metadata
     id="metadata1113"><rdf:RDF><cc:Work
         rdf:about=""><dc:format>image/svg+xml</dc:format><dc:type
           rdf:resource="http://purl.org/dc/dcmitype/StillImage" /><dc:title></dc:title></cc:Work></rdf:RDF></metadata><defs
     id="defs1111"><linearGradient
       inkscape:collect="always"
       xlink:href="#linearGradient4047"
       id="linearGradient4049"
       x1="35.418064"
       y1="158.3329"
       x2="35.219627"
       y2="50.462322"
       gradientUnits="userSpaceOnUse"
       gradientTransform="matrix(1.2578475,0,0,3.7850074,239.1991,14.999728)" /><linearGradient
       inkscape:collect="always"
       id="linearGradient4047"><stop
         style="stop-color:#202022;stop-opacity:1;"
         offset="0"
         id="stop3387" /><stop
         style="stop-color:#202025;stop-opacity:1;"
         offset=".3"
         id="stop3388" /><stop
         style="stop-color:#08003e;stop-opacity:1;"
         offset="1"
         id="stop3389" /></linearGradient></defs><path
     inkscape:connector-curvature="0"
     id="path33493"
     d="m 283.5,206 h 120 v 380 h -120 z m 0,0"
     style="fill:url(#linearGradient4049);fill-opacity:1;fill-rule:nonzero;stroke:none;stroke-width:0.93478662"
     inkscape:export-filename="/home/vortico/pics/tmp/LFOs.png"
     inkscape:export-xdpi="150.22649"
     inkscape:export-ydpi="150.22649" /><sodipodi:namedview
     inkscape:snap-bbox-edge-midpoints="true"
     inkscape:pageopacity="0"
     inkscape:snap-others="true"
     inkscape:snap-object-midpoints="true"
     inkscape:snap-text-baseline="false"
     inkscape:snap-midpoints="true"
     inkscape:snap-nodes="true"
     inkscape:snap-global="true"
     inkscape:snap-smooth-nodes="true"
     inkscape:object-paths="false"
     inkscape:snap-bbox="true"
     inkscape:bbox-nodes="true"
     inkscape:current-layer="svg4541"
     inkscape:window-maximized="1"
     inkscape:window-y="-13"
     inkscape:window-x="-13"
     inkscape:window-height="2115"
     inkscape:window-width="3840"
     inkscape:pageshadow="2"
     units="px"
     inkscape:cy="188.87583"
     guidetolerance="10"
     gridtolerance="10"
     inkscape:cx="15.55618"
     showgrid="false"
     id="namedview10"
     pagecolor="#ffffff"
     objecttolerance="10"
     borderopacity="1"
     bordercolor="#666666"
     inkscape:zoom="5.656854" /><g
     id="g3774"
     display="none"
     style="display:none"><path
       id="path3762"
       inkscape:connector-curvature="0"
       display="inline"
       d="m 306.6,109.8 -78.2,52.1"
       style="display:inline;fill:none;stroke:#000000;stroke-width:0.26460001" /><path
       id="path3764"
       inkscape:connector-curvature="0"
       display="inline"
       d="m 306.6,109.8 -26.1,52.1"
       style="display:inline;fill:none;stroke:#000000;stroke-width:0.26460001" /><path
       id="path3766"
       inkscape:connector-curvature="0"
       display="inline"
       d="m 306.6,109.8 26.1,52.1"
       style="display:inline;fill:none;stroke:#000000;stroke-width:0.26460001" /><path
       id="path3768"
       inkscape:connector-curvature="0"
       display="inline"
       d="m 306.6,109.8 78.2,52.1"
       style="display:inline;fill:none;stroke:#000000;stroke-width:0.26460001" /></g><g
     id="g3755"
     display="none"
     style="display:none"><path
       id="path3749"
       sodipodi:nodetypes="cccc"
       inkscape:connector-curvature="0"
       display="inline"
       d="m 332.7,137.3 v -27.5 h 52.5 v 27.5"
       style="display:inline;fill:none;stroke:#000000;stroke-width:0.26460001" /><path
       id="path3740"
       sodipodi:nodetypes="cccc"
       inkscape:connector-curvature="0"
       display="inline"
       d="M 228.5,137.3 V 109.8 H 281 v 27.5"
       style="display:inline;fill:none;stroke:#000000;stroke-width:0.26460001" /></g><g
     id="layer1"
     inkscape:label="Pins"
     display="none"
     style="display:none"><g
       id="g3088"
       transform="matrix(0.27191367,0,0,-0.27191367,-65.704999,518.54402)"
       display="inline"
       style="display:inline"><path
         id="path4639"
         inkscape:connector-curvature="0"
         d="m 1369.3,1412.6 c -49.8,0 -90.5,40.6 -90.5,90.5 0,49.9 40.6,90.5 90.5,90.5 49.8,0 90.5,-40.6 90.5,-90.5 0,-49.9 -40.5,-90.5 -90.5,-90.5"
         style="fill:#e7e7e7;stroke:#909290;stroke-width:0.97299999" /><path
         id="path4647"
         inkscape:connector-curvature="0"
         d="m 1369.3,1438 c -35.8,0 -65.2,29.2 -65.2,65.2 0,35.8 29.2,65.2 65.2,65.2 35.8,0 65.2,-29.2 65.2,-65.2 0,-36 -29.2,-65.2 -65.2,-65.2"
         style="fill:#e7e7e7;stroke:#909290;stroke-width:0.97299999" /><path
         id="path4655"
         inkscape:connector-curvature="0"
         d="m 1409.5,1503.1 c 0,-22.1 -17.9,-40.2 -40.2,-40.2 -22.1,0 -40.2,17.9 -40.2,40.2 0,22.3 17.9,40.2 40.2,40.2 22.3,0 40.2,-17.9 40.2,-40.2"
         style="stroke:#909290;stroke-width:0.97299999" /></g><g
       id="g3778"
       transform="matrix(0.27191367,0,0,-0.27191367,-75.626874,525.1586)"
       display="inline"
       style="display:inline"><path
         id="path3772"
         inkscape:connector-curvature="0"
         d="m 1118.4,1245.3 c -49.8,0 -90.5,40.6 -90.5,90.5 0,49.8 40.6,90.5 90.5,90.5 49.8,0 90.5,-40.6 90.5,-90.5 -0.1,-49.8 -40.5,-90.5 -90.5,-90.5"
         style="fill:#e7e7e7;stroke:#909290;stroke-width:0.97299999" /><path
         id="path3774"
         inkscape:connector-curvature="0"
         d="m 1118.4,1270.6 c -35.8,0 -65.2,29.2 -65.2,65.2 0,35.8 29.2,65.2 65.2,65.2 35.8,0 65.2,-29.2 65.2,-65.2 0,-35.9 -29.2,-65.2 -65.2,-65.2"
         style="fill:#e7e7e7;stroke:#909290;stroke-width:0.97299999" /><path
         id="path3776"
         inkscape:connector-curvature="0"
         d="m 1158.6,1335.8 c 0,-22.1 -17.9,-40.2 -40.2,-40.2 -22.1,0 -40.2,17.9 -40.2,40.2 0,22.3 17.9,40.2 40.2,40.2 22.3,0 40.2,-17.9 40.2,-40.2"
         style="stroke:#909290;stroke-width:0.97299999" /></g><g
       id="g3786"
       transform="matrix(0.27191367,0,0,-0.27191367,-69.01229,525.1586)"
       display="inline"
       style="display:inline"><path
         id="path3780"
         inkscape:connector-curvature="0"
         d="m 1285.6,1245.3 c -49.8,0 -90.5,40.6 -90.5,90.5 0,49.8 40.6,90.5 90.5,90.5 49.8,0 90.5,-40.6 90.5,-90.5 0,-49.8 -40.5,-90.5 -90.5,-90.5"
         style="fill:#e7e7e7;stroke:#909290;stroke-width:0.97299999" /><path
         id="path3782"
         inkscape:connector-curvature="0"
         d="m 1285.6,1270.6 c -35.8,0 -65.2,29.2 -65.2,65.2 0,35.8 29.2,65.2 65.2,65.2 35.8,0 65.2,-29.2 65.2,-65.2 0.1,-35.9 -29.1,-65.2 -65.2,-65.2"
         style="fill:#e7e7e7;stroke:#909290;stroke-width:0.97299999" /><path
         id="path3784"
         inkscape:connector-curvature="0"
         d="m 1325.8,1335.8 c 0,-22.1 -17.9,-40.2 -40.2,-40.2 -22.1,0 -40.2,17.9 -40.2,40.2 0,22.3 17.9,40.2 40.2,40.2 22.3,0 40.2,-17.9 40.2,-40.2"
         style="stroke:#909290;stroke-width:0.97299999" /></g><g
       id="g3794"
       transform="matrix(0.27191367,0,0,-0.27191367,-62.397707,525.1586)"
       display="inline"
       style="display:inline"><path
         id="path3788"
         inkscape:connector-curvature="0"
         d="m 1453.1,1245.3 c -49.8,0 -90.5,40.6 -90.5,90.5 0,49.8 40.6,90.5 90.5,90.5 49.8,0 90.5,-40.6 90.5,-90.5 0,-49.8 -40.7,-90.5 -90.5,-90.5"
         style="fill:#e7e7e7;stroke:#909290;stroke-width:0.97299999" /><path
         id="path3790"
         inkscape:connector-curvature="0"
         d="m 1453.1,1270.6 c -35.8,0 -65.2,29.2 -65.2,65.2 0,35.8 29.2,65.2 65.2,65.2 35.8,0 65.2,-29.2 65.2,-65.2 -0.2,-35.9 -29.4,-65.2 -65.2,-65.2"
         style="fill:#e7e7e7;stroke:#909290;stroke-width:0.97299999" /><path
         id="path3792"
         inkscape:connector-curvature="0"
         d="m 1493.1,1335.8 c 0,-22.1 -17.9,-40.2 -40.2,-40.2 -22.1,0 -40.2,17.9 -40.2,40.2 0,22.3 17.9,40.2 40.2,40.2 22.3,0 40.2,-17.9 40.2,-40.2"
         style="stroke:#909290;stroke-width:0.97299999" /></g><g
       id="g3802"
       transform="matrix(0.27191367,0,0,-0.27191367,-55.783123,525.1586)"
       display="inline"
       style="display:inline"><path
         id="path3796"
         inkscape:connector-curvature="0"
         d="m 1620.4,1245.3 c -49.8,0 -90.5,40.6 -90.5,90.5 0,49.8 40.6,90.5 90.5,90.5 49.8,0 90.5,-40.6 90.5,-90.5 -0.1,-49.8 -40.7,-90.5 -90.5,-90.5"
         style="fill:#e7e7e7;stroke:#909290;stroke-width:0.97299999" /><path
         id="path3798"
         inkscape:connector-curvature="0"
         d="m 1620.4,1270.6 c -35.8,0 -65.2,29.2 -65.2,65.2 0,35.8 29.2,65.2 65.2,65.2 35.8,0 65.2,-29.2 65.2,-65.2 -0.2,-35.9 -29.4,-65.2 -65.2,-65.2"
         style="fill:#e7e7e7;stroke:#909290;stroke-width:0.97299999" /><path
         id="path3800"
         inkscape:connector-curvature="0"
         d="m 1660.6,1335.8 c 0,-22.1 -17.9,-40.2 -40.2,-40.2 -22.1,0 -40.2,17.9 -40.2,40.2 0,22.3 17.9,40.2 40.2,40.2 22.1,0 40.2,-17.9 40.2,-40.2"
         style="stroke:#909290;stroke-width:0.97299999" /></g></g><g
     aria-label="SEEDS OF CHANGE"
     style="font-style:normal;font-variant:normal;font-weight:bold;font-stretch:normal;font-size:13.33333302px;line-height:1.25;font-family:Homenaje;-inkscape-font-specification:'Homenaje Bold';text-align:start;letter-spacing:0px;word-spacing:0px;text-anchor:start;fill:#ffffff;fill-opacity:1;stroke:none;stroke-width:0.99999994"
     id="text3885"><path
       d="m 304.07189,217.67067 q 0.836,0 1.20266,-0.49866 0.38134,-0.49867 0.38134,-1.15867 0,-0.66 -0.24934,-1.11467 -0.23466,-0.46933 -0.60133,-0.73333 -0.36667,-0.27867 -0.792,-0.60133 -0.42533,-0.32267 -0.792,-0.616 -0.36667,-0.308 -0.616,-0.82134 -0.23467,-0.51333 -0.23467,-1.17333 0,-1.17333 0.704,-1.87733 0.704,-0.70401 1.95067,-0.70401 h 1.188 v 0.96801 h -1.12933 q -0.704,0 -1.07067,0.45466 -0.36667,0.45467 -0.36667,0.98267 0,0.528 0.23467,0.90933 0.24933,0.38134 0.616,0.63067 0.36667,0.24933 0.792,0.58667 0.44,0.33733 0.80667,0.68933 0.36666,0.33733 0.60133,0.924 0.24933,0.58667 0.24933,1.33467 0,1.37866 -0.792,2.08266 -0.77733,0.704 -2.14133,0.704 h -1.54 v -0.968 z"
       style="font-style:normal;font-variant:normal;font-weight:bold;font-stretch:normal;font-size:14.66666698px;font-family:Homenaje;-inkscape-font-specification:'Homenaje Bold';text-align:start;text-anchor:start;stroke-width:0.99999994"
       id="path1234" /><path
       d="M 308.37839,218.63867 V 208.372 h 4.47333 v 0.99734 h -3.18267 v 3.28533 h 2.58134 v 0.99734 h -2.58134 v 3.98933 h 3.32934 v 0.99733 z"
       style="font-style:normal;font-variant:normal;font-weight:bold;font-stretch:normal;font-size:14.66666698px;font-family:Homenaje;-inkscape-font-specification:'Homenaje Bold';text-align:start;text-anchor:start;stroke-width:0.99999994"
       id="path1236" /><path
       d="M 314.65182,218.63867 V 208.372 h 4.47334 v 0.99734 h -3.18267 v 3.28533 h 2.58133 v 0.99734 h -2.58133 v 3.98933 h 3.32933 v 0.99733 z"
       style="font-style:normal;font-variant:normal;font-weight:bold;font-stretch:normal;font-size:14.66666698px;font-family:Homenaje;-inkscape-font-specification:'Homenaje Bold';text-align:start;text-anchor:start;stroke-width:0.99999994"
       id="path1238" /><path
       d="m 322.21593,217.64134 h 1.24667 q 0.67466,0 1.08533,-0.38133 0.42533,-0.396 0.42533,-1.04134 v -5.42666 q 0,-0.64534 -0.42533,-1.02667 -0.41067,-0.396 -1.08533,-0.396 h -1.24667 z m -1.30533,0.99733 V 208.372 h 2.552 q 1.33466,0 2.068,0.67467 0.73333,0.67467 0.73333,1.98 v 4.95734 q 0,1.30533 -0.73333,1.98 -0.73334,0.66 -2.068,0.67466 z"
       style="font-style:normal;font-variant:normal;font-weight:bold;font-stretch:normal;font-size:14.66666698px;font-family:Homenaje;-inkscape-font-specification:'Homenaje Bold';text-align:start;text-anchor:start;stroke-width:0.99999994"
       id="path1240" /><path
       d="m 329.3948,217.67067 q 0.836,0 1.20267,-0.49866 0.38133,-0.49867 0.38133,-1.15867 0,-0.66 -0.24933,-1.11467 -0.23467,-0.46933 -0.60133,-0.73333 -0.36667,-0.27867 -0.792,-0.60133 -0.42534,-0.32267 -0.792,-0.616 -0.36667,-0.308 -0.616,-0.82134 -0.23467,-0.51333 -0.23467,-1.17333 0,-1.17333 0.704,-1.87733 0.704,-0.70401 1.95067,-0.70401 h 1.188 v 0.96801 h -1.12934 q -0.704,0 -1.07066,0.45466 -0.36667,0.45467 -0.36667,0.98267 0,0.528 0.23467,0.90933 0.24933,0.38134 0.616,0.63067 0.36666,0.24933 0.792,0.58667 0.44,0.33733 0.80666,0.68933 0.36667,0.33733 0.60134,0.924 0.24933,0.58667 0.24933,1.33467 0,1.37866 -0.792,2.08266 -0.77733,0.704 -2.14133,0.704 h -1.54 v -0.968 z"
       style="font-style:normal;font-variant:normal;font-weight:bold;font-stretch:normal;font-size:14.66666698px;font-family:Homenaje;-inkscape-font-specification:'Homenaje Bold';text-align:start;text-anchor:start;stroke-width:0.99999994"
       id="path1242" /><path
       d="m 339.94836,216.56267 q 0,1.02 -0.588,1.596 -0.588,0.564 -1.716,0.564 -1.116,0 -1.704,-0.564 -0.588,-0.576 -0.588,-1.596 v -4.248 q 0,-1.02 0.588,-1.584 0.588,-0.576 1.704,-0.576 1.128,0 1.716,0.576 0.588,0.564 0.588,1.584 z m -3.54,0.204 q 0,0.552 0.348,0.864 0.36,0.3 0.888,0.3 0.528,0 0.888,-0.3 0.36,-0.312 0.36,-0.864 v -4.656 q 0,-0.552 -0.36,-0.852 -0.36,-0.312 -0.888,-0.312 -0.528,0 -0.888,0.312 -0.348,0.3 -0.348,0.852 z"
       style="font-size:12px"
       id="path1244" /><path
       d="m 341.33736,218.63867 v -8.4 h 3.54 v 0.816 h -2.484 v 2.88 h 1.872 v 0.816 h -1.872 v 3.888 z"
       style="font-size:12px"
       id="path1246" /><path
       d="m 352.72849,217.67067 v 0.968 h -1.96533 q -1.33467,0 -2.068,-0.67466 -0.73334,-0.67467 -0.73334,-1.98 v -4.95734 q 0,-1.30533 0.73334,-1.98 0.73333,-0.67467 2.068,-0.67467 h 1.96533 v 0.96801 h -1.96533 q -0.67467,0 -1.1,0.396 -0.41067,0.38133 -0.41067,1.02666 v 5.48534 q 0,0.64533 0.41067,1.04133 0.42533,0.38133 1.1,0.38133 z"
       style="font-style:normal;font-variant:normal;font-weight:bold;font-stretch:normal;font-size:14.66666698px;font-family:Homenaje;-inkscape-font-specification:'Homenaje Bold';text-align:start;text-anchor:start;stroke-width:0.99999994"
       id="path1248" /><path
       d="m 358.31168,213.68134 h -2.91867 v 4.95733 h -1.29067 V 208.372 h 1.29067 v 4.34134 h 2.91867 V 208.372 h 1.29066 v 10.26667 h -1.29066 z"
       style="font-style:normal;font-variant:normal;font-weight:bold;font-stretch:normal;font-size:14.66666698px;font-family:Homenaje;-inkscape-font-specification:'Homenaje Bold';text-align:start;text-anchor:start;stroke-width:0.99999994"
       id="path1250" /><path
       d="m 363.29078,208.372 h 1.95067 l 2.22933,10.26667 h -1.20267 l -0.71866,-3.02133 h -2.66934 l -0.66,3.02133 h -1.24666 z m 2.03867,6.24801 -1.056,-5.28 h -0.10267 l -1.07067,5.28 z"
       style="font-style:normal;font-variant:normal;font-weight:bold;font-stretch:normal;font-size:14.66666698px;font-family:Homenaje;-inkscape-font-specification:'Homenaje Bold';text-align:start;text-anchor:start;stroke-width:0.99999994"
       id="path1252" /><path
       d="m 374.56097,218.63867 h -1.848 l -2.71333,-9.328 v 9.328 h -1.29067 V 208.372 h 2.156 l 2.39067,8.87334 V 208.372 h 1.30533 z"
       style="font-style:normal;font-variant:normal;font-weight:bold;font-stretch:normal;font-size:14.66666698px;font-family:Homenaje;-inkscape-font-specification:'Homenaje Bold';text-align:start;text-anchor:start;stroke-width:0.99999994"
       id="path1254" /><path
       d="m 381.54666,218.63867 h -2.596 q -1.33467,0 -2.068,-0.67466 -0.73333,-0.67467 -0.73333,-1.98 v -4.972 q 0,-1.29067 0.792,-1.96534 0.792,-0.67467 2.156,-0.67467 h 2.156 v 0.98267 h -2.30267 q -0.67467,0 -1.1,0.396 -0.41067,0.38134 -0.41067,1.02667 v 5.47067 q 0,0.66 0.396,1.04133 0.396,0.38133 1.056,0.38133 h 1.364 v -4.03333 h -1.32 v -0.968 h 2.61067 z"
       style="font-style:normal;font-variant:normal;font-weight:bold;font-stretch:normal;font-size:14.66666698px;font-family:Homenaje;-inkscape-font-specification:'Homenaje Bold';text-align:start;text-anchor:start;stroke-width:0.99999994"
       id="path1256" /><path
       d="M 383.34974,218.63867 V 208.372 h 4.47334 v 0.99734 h -3.18267 v 3.28533 h 2.58133 v 0.99734 h -2.58133 v 3.98933 h 3.32933 v 0.99733 z"
       style="font-style:normal;font-variant:normal;font-weight:bold;font-stretch:normal;font-size:14.66666698px;font-family:Homenaje;-inkscape-font-specification:'Homenaje Bold';text-align:start;text-anchor:start;stroke-width:0.99999994"
       id="path1258" /></g><g
     aria-label="RESEED"
     style="font-style:normal;font-variant:normal;font-weight:bold;font-stretch:normal;font-size:8px;line-height:1.25;font-family:Homenaje;-inkscape-font-specification:'Homenaje Bold';letter-spacing:0px;word-spacing:0px;fill:#ffffff;fill-opacity:1;stroke:none;stroke-width:0.99999994"
     id="text5443-7-5"><path
       d="m 372.30225,290.928 v 2.088 h 0.568 q 0.456,0 0.704,-0.312 0.256,-0.32 0.256,-0.816 0,-0.96 -0.96,-0.96 z m -0.016,2.616 V 296 h -0.688 v -5.6 h 1.48 q 1.44,0 1.44,1.488 0,0.56 -0.216,0.976 -0.216,0.416 -0.616,0.576 l 1.112,2.56 h -0.688 l -1.088,-2.456 z"
       style="font-style:normal;font-variant:normal;font-weight:bold;font-stretch:normal;font-size:8px;font-family:Homenaje;-inkscape-font-specification:'Homenaje Bold';stroke-width:0.99999994"
       id="path1261" /><path
       d="m 375.53575,296 v -5.6 h 2.44 v 0.544 h -1.736 v 1.792 h 1.408 v 0.544 h -1.408 v 2.176 h 1.816 V 296 Z"
       style="font-style:normal;font-variant:normal;font-weight:bold;font-stretch:normal;font-size:8px;font-family:Homenaje;-inkscape-font-specification:'Homenaje Bold';stroke-width:0.99999994"
       id="path1263" /><path
       d="m 379.73363,295.472 q 0.456,0 0.656,-0.272 0.208,-0.272 0.208,-0.632 0,-0.36 -0.136,-0.608 -0.128,-0.256 -0.328,-0.4 -0.2,-0.152 -0.432,-0.328 -0.232,-0.176 -0.432,-0.336 -0.2,-0.168 -0.336,-0.448 -0.128,-0.28 -0.128,-0.64 0,-0.64 0.384,-1.024 0.384,-0.384 1.064,-0.384 h 0.648 v 0.528 h -0.616 q -0.384,0 -0.584,0.248 -0.2,0.248 -0.2,0.536 0,0.288 0.128,0.496 0.136,0.208 0.336,0.344 0.2,0.136 0.432,0.32 0.24,0.184 0.44,0.376 0.2,0.184 0.328,0.504 0.136,0.32 0.136,0.728 0,0.752 -0.432,1.136 -0.424,0.384 -1.168,0.384 h -0.84 v -0.528 z"
       style="font-style:normal;font-variant:normal;font-weight:bold;font-stretch:normal;font-size:8px;font-family:Homenaje;-inkscape-font-specification:'Homenaje Bold';stroke-width:0.99999994"
       id="path1265" /><path
       d="m 382.08263,296 v -5.6 h 2.44 v 0.544 h -1.736 v 1.792 h 1.408 v 0.544 h -1.408 v 2.176 h 1.816 V 296 Z"
       style="font-style:normal;font-variant:normal;font-weight:bold;font-stretch:normal;font-size:8px;font-family:Homenaje;-inkscape-font-specification:'Homenaje Bold';stroke-width:0.99999994"
       id="path1267" /><path
       d="m 385.5045,296 v -5.6 h 2.44 v 0.544 h -1.736 v 1.792 h 1.408 v 0.544 h -1.408 v 2.176 h 1.816 V 296 Z"
       style="font-style:normal;font-variant:normal;font-weight:bold;font-stretch:normal;font-size:8px;font-family:Homenaje;-inkscape-font-specification:'Homenaje Bold';stroke-width:0.99999994"
       id="path1269" /><path
       d="m 389.63038,295.456 h 0.68 q 0.368,0 0.592,-0.208 0.232,-0.216 0.232,-0.568 v -2.96 q 0,-0.352 -0.232,-0.56 -0.224,-0.216 -0.592,-0.216 h -0.68 z m -0.712,0.544 v -5.6 h 1.392 q 0.728,0 1.128,0.368 0.4,0.368 0.4,1.08 v 2.704 q 0,0.712 -0.4,1.08 -0.4,0.36 -1.128,0.368 z"
       style="font-style:normal;font-variant:normal;font-weight:bold;font-stretch:normal;font-size:8px;font-family:Homenaje;-inkscape-font-specification:'Homenaje Bold';stroke-width:0.99999994"
       id="path1271" /></g><g
     aria-label="CLOCK"
     style="font-style:normal;font-variant:normal;font-weight:bold;font-stretch:normal;font-size:8px;line-height:1.25;font-family:Homenaje;-inkscape-font-specification:'Homenaje Bold';letter-spacing:0px;word-spacing:0px;fill:#ffffff;fill-opacity:1;stroke:none;stroke-width:0.99999994"
     id="text5443-7-5-4"><path
       d="m 291.10001,266.416 v 0.528 h -1.072 q -0.728,0 -1.128,-0.368 -0.4,-0.368 -0.4,-1.08 v -2.704 q 0,-0.712 0.4,-1.08 0.4,-0.368 1.128,-0.368 h 1.072 v 0.528 h -1.072 q -0.368,0 -0.6,0.216 -0.224,0.208 -0.224,0.56 v 2.992 q 0,0.352 0.224,0.568 0.232,0.208 0.6,0.208 z"
       style="font-style:normal;font-variant:normal;font-weight:bold;font-stretch:normal;font-size:8px;font-family:Homenaje;-inkscape-font-specification:'Homenaje Bold';stroke-width:0.99999994"
       id="path1274" /><path
       d="m 291.84938,266.944 v -5.6 h 0.704 v 5.072 h 1.64 v 0.528 z"
       style="font-style:normal;font-variant:normal;font-weight:bold;font-stretch:normal;font-size:8px;font-family:Homenaje;-inkscape-font-specification:'Homenaje Bold';stroke-width:0.99999994"
       id="path1276" /><path
       d="m 297.70463,265.56 q 0,0.68 -0.392,1.064 -0.392,0.376 -1.144,0.376 -0.744,0 -1.136,-0.376 -0.392,-0.384 -0.392,-1.064 v -2.832 q 0,-0.68 0.392,-1.056 0.392,-0.384 1.136,-0.384 0.752,0 1.144,0.384 0.392,0.376 0.392,1.056 z m -2.36,0.136 q 0,0.368 0.232,0.576 0.24,0.2 0.592,0.2 0.352,0 0.592,-0.2 0.24,-0.208 0.24,-0.576 v -3.104 q 0,-0.368 -0.24,-0.568 -0.24,-0.208 -0.592,-0.208 -0.352,0 -0.592,0.208 -0.232,0.2 -0.232,0.568 z"
       style="font-style:normal;font-variant:normal;font-weight:bold;font-stretch:normal;font-size:8px;font-family:Homenaje;-inkscape-font-specification:'Homenaje Bold';stroke-width:0.99999994"
       id="path1278" /><path
       d="m 300.99063,266.416 v 0.528 h -1.072 q -0.728,0 -1.128,-0.368 -0.4,-0.368 -0.4,-1.08 v -2.704 q 0,-0.712 0.4,-1.08 0.4,-0.368 1.128,-0.368 h 1.072 v 0.528 h -1.072 q -0.368,0 -0.6,0.216 -0.224,0.208 -0.224,0.56 v 2.992 q 0,0.352 0.224,0.568 0.232,0.208 0.6,0.208 z"
       style="font-style:normal;font-variant:normal;font-weight:bold;font-stretch:normal;font-size:8px;font-family:Homenaje;-inkscape-font-specification:'Homenaje Bold';stroke-width:0.99999994"
       id="path1280" /><path
       d="m 302.42001,266.944 h -0.68 v -5.6 h 0.68 v 2.448 l 1.656,-2.448 h 0.696 l -1.632,2.496 1.872,3.104 h -0.712 l -1.568,-2.608 -0.312,0.4 z"
       style="font-style:normal;font-variant:normal;font-weight:bold;font-stretch:normal;font-size:8px;font-family:Homenaje;-inkscape-font-specification:'Homenaje Bold';stroke-width:0.99999994"
       id="path1282" /></g><g
     aria-label="Frozen Wasteland"
     style="font-style:normal;font-weight:normal;font-size:3.52777767px;line-height:1.25;font-family:sans-serif;letter-spacing:0px;word-spacing:0px;fill:#00a3f2;fill-opacity:1;stroke:none;stroke-width:0.26458332"
     id="text271"
     transform="matrix(3.337627,0,0,3.337627,163.31385,93.043232)"><g
       aria-label="FROZEN WASTELAND"
       style="font-style:normal;font-variant:normal;font-weight:bold;font-stretch:normal;font-size:3.52777767px;line-height:1.25;font-family:Consolas;-inkscape-font-specification:'Consolas Bold';text-align:start;letter-spacing:0px;word-spacing:0px;text-anchor:start;fill:#00a3f2;fill-opacity:1;stroke:none;stroke-width:0.26458332"
       id="text3885-7"
       transform="translate(-1.5875001)"><path
         d="m 41.150231,146.65677 q 0.119944,-0.11994 0.1905,-0.21166 0.07408,-0.0917 0.112889,-0.16934 0.04233,-0.0776 0.05292,-0.14464 0.01411,-0.0706 0.01411,-0.14816 0,-0.0952 -0.04586,-0.22931 -0.04586,-0.13405 -0.102306,-0.28575 -0.05644,-0.15169 -0.102306,-0.31044 -0.04586,-0.15875 -0.04586,-0.30339 0,-0.0776 0.0247,-0.1517 0.02822,-0.0741 0.06703,-0.14111 0.04233,-0.0705 0.09172,-0.13053 0.04939,-0.0635 0.09878,-0.11288 -0.07056,-0.0141 -0.123473,-0.0212 -0.05292,-0.0106 -0.07761,-0.0106 -0.130528,0 -0.22225,0.0705 -0.08819,0.067 -0.1905,0.16933 0,-0.11994 0.03528,-0.24694 0.03881,-0.13053 0.116417,-0.23636 0.07761,-0.10583 0.194027,-0.17286 0.119945,-0.067 0.282223,-0.067 0.112889,0 0.208139,0.0176 0.09878,0.0141 0.179916,0.0353 0.08114,0.0212 0.148167,0.0388 0.06703,0.0141 0.119944,0.0141 0.08114,0 0.141111,-0.0212 0.0635,-0.0247 0.123473,-0.0847 0,0.0776 -0.03175,0.17639 -0.02822,0.0988 -0.08819,0.1905 -0.05644,0.0882 -0.148167,0.15169 -0.09172,0.06 -0.211666,0.06 -0.05997,0 -0.137584,-0.007 -0.07408,-0.0106 -0.155222,-0.0247 -0.0071,0.0247 -0.01058,0.0459 -0.0035,0.0212 -0.0071,0.0388 -0.0035,0.0212 -0.0035,0.0388 0,0.0776 0.01058,0.15169 0.01411,0.0706 0.03881,0.14464 h 0.712611 l -0.08114,0.23989 q -0.01058,0.0459 -0.01411,0.067 -0.0035,0.0212 -0.01058,0.067 l -0.130528,-0.0917 h -0.363361 q 0.07761,0.17639 0.144639,0.35984 0.06703,0.17991 0.06703,0.38452 0,0.18345 -0.07408,0.3422 -0.07408,0.15522 -0.197556,0.27164 -0.119944,0.11641 -0.278694,0.17991 -0.155222,0.067 -0.321028,0.067 z"
         style="font-style:normal;font-variant:normal;font-weight:normal;font-stretch:normal;font-family:'Bradley Gratis';-inkscape-font-specification:'Bradley Gratis';text-align:start;text-anchor:start;fill:#00a3f2;fill-opacity:1;stroke-width:0.26458332"
         id="path20360"
         inkscape:connector-curvature="0" /><path
         d="m 43.22032,144.92816 q 0.07055,-0.0423 0.137583,-0.0988 0.07056,-0.0564 0.123472,-0.127 0.05645,-0.0705 0.08819,-0.16227 0.03528,-0.0952 0.03528,-0.21167 0,-0.0988 -0.03881,-0.16581 -0.03528,-0.0705 -0.08467,-0.11289 -0.04939,-0.0423 -0.09878,-0.06 -0.04586,-0.0176 -0.07056,-0.0176 -0.02822,0 -0.05292,0.0106 -0.02117,0.0106 -0.0388,0.0247 z m -0.518583,-0.94192 q -0.112889,-0.0635 -0.112889,-0.23636 0.03175,0.0318 0.112889,0.0565 0.08114,0.0212 0.172861,0.0212 0.04586,0 0.130527,-0.0106 0.08467,-0.0141 0.172862,-0.0282 0.09172,-0.0141 0.172861,-0.0247 0.08467,-0.0141 0.130527,-0.0141 0.116417,0 0.232834,0.0353 0.116416,0.0353 0.215194,0.11995 0.09878,0.0847 0.165806,0.2293 0.07056,0.14111 0.09172,0.35983 l -0.627944,0.4445 q 0.07055,0.0282 0.15875,0.0952 0.08819,0.067 0.165805,0.18698 0.08114,0.11994 0.134056,0.30691 0.05292,0.18345 0.05292,0.45156 0,0.23283 0.02117,0.37747 0.02117,0.14464 0.05292,0.23283 0.03175,0.0882 0.06703,0.13053 0.03881,0.0459 0.07056,0.0776 -0.155222,0 -0.275167,-0.0917 -0.119944,-0.0882 -0.211666,-0.23283 -0.09172,-0.14464 -0.162278,-0.32809 -0.06703,-0.18344 -0.123472,-0.37041 -0.05644,-0.18697 -0.105834,-0.35984 -0.04586,-0.17286 -0.09525,-0.29986 -0.02469,0.0176 -0.04939,0.0353 -0.02117,0.0141 -0.0388,0.0318 v 1.31939 h -0.518583 z"
         style="font-style:normal;font-variant:normal;font-weight:normal;font-stretch:normal;font-family:'Bradley Gratis';-inkscape-font-specification:'Bradley Gratis';text-align:start;text-anchor:start;fill:#00a3f2;fill-opacity:1;stroke-width:0.26458332"
         id="path20362"
         inkscape:connector-curvature="0" /><path
         d="m 45.108067,146.03588 q 0,0.11995 0.01411,0.18698 0.01764,0.067 0.04233,0.1023 0.02822,0.0317 0.0635,0.0388 0.03528,0.007 0.07056,0.007 0.07055,0 0.116416,-0.0952 0.04586,-0.0988 0.04586,-0.29986 v -1.53105 q 0,-0.15875 -0.01764,-0.25753 -0.01411,-0.10231 -0.04233,-0.15522 -0.02469,-0.0564 -0.05997,-0.0776 -0.03175,-0.0212 -0.0635,-0.0212 -0.06703,0 -0.119944,0.0847 -0.04939,0.0811 -0.04939,0.26106 z m 1.005416,-0.88547 q 0,0.25753 -0.06703,0.508 -0.0635,0.25047 -0.176389,0.44803 -0.109361,0.19755 -0.261056,0.32103 -0.151694,0.11994 -0.321028,0.11994 -0.15875,0 -0.310444,-0.10936 -0.148167,-0.10936 -0.264583,-0.29986 -0.112889,-0.1905 -0.183445,-0.4445 -0.07055,-0.254 -0.07055,-0.54328 0,-0.23636 0.0635,-0.4833 0.06703,-0.25048 0.179916,-0.45156 0.112889,-0.20108 0.264584,-0.32808 0.151694,-0.13053 0.321027,-0.13053 0.148167,0 0.292806,0.10936 0.148167,0.10936 0.264583,0.29986 0.119945,0.18697 0.194028,0.44097 0.07408,0.254 0.07408,0.54328 z"
         style="font-style:normal;font-variant:normal;font-weight:normal;font-stretch:normal;font-family:'Bradley Gratis';-inkscape-font-specification:'Bradley Gratis';text-align:start;text-anchor:start;fill:#00a3f2;fill-opacity:1;stroke-width:0.26458332"
         id="path20364"
         inkscape:connector-curvature="0" /><path
         d="m 46.267548,146.50861 q 0.04586,-0.27164 0.130528,-0.51153 0.08819,-0.23989 0.194028,-0.45861 0.105833,-0.21873 0.218722,-0.41628 0.116417,-0.20108 0.218722,-0.38806 0.102306,-0.18697 0.179917,-0.36336 0.07761,-0.17991 0.112889,-0.35983 -0.02822,-0.0176 -0.06703,-0.0318 -0.03528,-0.0141 -0.137583,-0.0141 -0.05292,0 -0.09525,0.0282 -0.03881,0.0247 -0.06703,0.0635 -0.02822,0.0353 -0.04586,0.0776 -0.01411,0.0388 -0.01411,0.0635 0,0.0282 0.01058,0.067 0.01411,0.0353 0.02822,0.0705 0.01764,0.0353 0.03528,0.067 0.01764,0.0282 0.03175,0.0423 l -0.430389,0.26811 q -0.08467,-0.0811 -0.144639,-0.19756 -0.05644,-0.11994 -0.05644,-0.23989 0,-0.06 0.03175,-0.14816 0.03175,-0.0882 0.102305,-0.16934 0.07056,-0.0847 0.183445,-0.14111 0.116416,-0.06 0.282222,-0.06 0.130528,0 0.218722,0.0176 0.08819,0.0176 0.155222,0.0423 0.06703,0.0212 0.123472,0.0388 0.05997,0.0176 0.134056,0.0176 0.04586,0 0.09878,-0.007 0.05292,-0.007 0.09878,-0.0212 0.04586,-0.0141 0.08114,-0.0282 0.03881,-0.0176 0.05997,-0.0388 -0.04233,0.22225 -0.134056,0.46213 -0.09172,0.23989 -0.204611,0.47978 -0.109361,0.23989 -0.232833,0.4692 -0.119945,0.2293 -0.22225,0.43039 -0.09878,0.19755 -0.169334,0.35983 -0.06703,0.15875 -0.07408,0.26105 0.141111,0.06 0.239889,0.06 0.0635,0 0.130528,-0.0141 0.06703,-0.0176 0.119944,-0.0529 0.05644,-0.0353 0.09172,-0.0882 0.03528,-0.0564 0.03528,-0.13405 0,-0.0776 -0.01764,-0.127 -0.01411,-0.0529 -0.03881,-0.0847 -0.0247,-0.0353 -0.05644,-0.06 -0.03175,-0.0282 -0.05997,-0.0564 l 0.405694,-0.29987 q 0.141112,0.10584 0.201084,0.22578 0.05997,0.11995 0.05997,0.26106 0,0.067 -0.02117,0.13053 -0.01764,0.06 -0.04586,0.11288 -0.02469,0.0494 -0.05997,0.0917 -0.03175,0.0423 -0.05644,0.067 l 0.05997,0.06 q 0.01764,0.0176 0.0388,0.0529 0.02117,0.0317 0.02117,0.0564 0,0.0282 -0.02469,0.0811 -0.02117,0.0564 -0.08819,0.0988 -0.02469,-0.0317 -0.05644,-0.0564 -0.02822,-0.0212 -0.05997,-0.0388 -0.03175,-0.0176 -0.06703,-0.0176 z"
         style="font-style:normal;font-variant:normal;font-weight:normal;font-stretch:normal;font-family:'Bradley Gratis';-inkscape-font-specification:'Bradley Gratis';text-align:start;text-anchor:start;fill:#00a3f2;fill-opacity:1;stroke-width:0.26458332"
         id="path20366"
         inkscape:connector-curvature="0" /><path
         d="m 49.773884,143.78163 v 0.381 q -0.03881,-0.0353 -0.102306,-0.0776 -0.05997,-0.0423 -0.130528,-0.0741 -0.06703,-0.0353 -0.134055,-0.0565 -0.06703,-0.0247 -0.112889,-0.0247 -0.08467,0 -0.172861,0.067 -0.08819,0.067 -0.144639,0.17991 -0.05644,0.10937 -0.07408,0.28928 -0.01411,0.17639 -0.01411,0.45509 h 0.903111 l -0.179916,0.40216 q -0.03528,-0.0529 -0.08467,-0.0705 -0.04586,-0.0212 -0.08467,-0.0212 H 48.88841 q 0,0.20108 0.0071,0.39511 0.0071,0.1905 0.04586,0.3422 0.04233,0.15169 0.127,0.24694 0.08467,0.0917 0.243417,0.0917 0.08467,0 0.165805,-0.0318 0.08467,-0.0317 0.155222,-0.0776 0.07056,-0.0494 0.123473,-0.1023 0.05644,-0.0529 0.08819,-0.0952 v 0.508 h -0.47625 q -0.342194,0 -0.553861,-0.11995 -0.211667,-0.12347 -0.331611,-0.32808 -0.116417,-0.20814 -0.15875,-0.47978 -0.03881,-0.27164 -0.03881,-0.56797 0,-0.0741 0.01058,-0.19403 0.01058,-0.12347 0.04586,-0.25753 0.03528,-0.13758 0.102305,-0.27516 0.06703,-0.14112 0.179917,-0.25048 0.116417,-0.11289 0.28575,-0.18344 0.169333,-0.0706 0.409222,-0.0706 z"
         style="font-style:normal;font-variant:normal;font-weight:normal;font-stretch:normal;font-family:'Bradley Gratis';-inkscape-font-specification:'Bradley Gratis';text-align:start;text-anchor:start;fill:#00a3f2;fill-opacity:1;stroke-width:0.26458332"
         id="path20368"
         inkscape:connector-curvature="0" /><path
         d="m 50.160286,146.50861 v -2.4377 q 0,-0.0988 -0.04233,-0.1658 -0.04233,-0.0706 -0.08467,-0.12348 h 0.684388 v 0.35984 l 0.391584,-0.45509 q 0.179916,0.16228 0.296333,0.32456 0.116417,0.15875 0.183445,0.32103 0.06703,0.15875 0.09172,0.32455 0.02469,0.16228 0.02469,0.33514 0,0.16933 -0.02822,0.32456 -0.02469,0.15169 -0.07408,0.29986 -0.04939,0.14816 -0.119945,0.29986 -0.06703,0.15169 -0.148166,0.3175 h 0.127 q 0.04586,0 0.09525,-0.0317 0.04939,-0.0318 0.09878,-0.0318 v 0.33867 h -0.684389 q 0.09525,-0.19403 0.151695,-0.34925 0.05997,-0.15523 0.09172,-0.29634 0.03175,-0.14111 0.04233,-0.27516 0.01058,-0.13406 0.01058,-0.28575 0,-0.1517 -0.05292,-0.31398 -0.04939,-0.1658 -0.123472,-0.30339 -0.07408,-0.13758 -0.15875,-0.22577 -0.08114,-0.0882 -0.148167,-0.0882 -0.04233,0 -0.06703,0.0212 v 2.11667 z"
         style="font-style:normal;font-variant:normal;font-weight:normal;font-stretch:normal;font-family:'Bradley Gratis';-inkscape-font-specification:'Bradley Gratis';text-align:start;text-anchor:start;fill:#00a3f2;fill-opacity:1;stroke-width:0.26458332"
         id="path20370"
         inkscape:connector-curvature="0" /><path
         d="m 53.398455,146.62502 q -0.1905,-0.13758 -0.324556,-0.2928 -0.134055,-0.15875 -0.215194,-0.32809 -0.08114,-0.16933 -0.119945,-0.34219 -0.03528,-0.17639 -0.03528,-0.34572 0,-0.16581 0.03528,-0.32809 0.03528,-0.1658 0.09172,-0.32455 0.05997,-0.16228 0.137584,-0.31397 0.07761,-0.15523 0.15875,-0.30339 h -0.02117 q -0.01058,0 -0.02469,0 -0.01058,-0.004 -0.02822,-0.004 -0.05644,0 -0.137583,0.0141 -0.07761,0.0141 -0.151694,0.0706 v -0.34573 h 0.740833 q -0.09172,0.15875 -0.15875,0.32103 -0.0635,0.15875 -0.105833,0.31045 -0.03881,0.14816 -0.05997,0.28222 -0.01764,0.13053 -0.01764,0.23636 0,0.10583 0.02117,0.254 0.02117,0.14817 0.07761,0.30692 0.05997,0.15522 0.15875,0.29633 0.102306,0.14111 0.264584,0.2293 l 0.105833,-0.0776 q -0.0635,-0.11994 -0.09878,-0.2293 -0.03528,-0.11289 -0.05292,-0.21167 -0.01411,-0.0988 -0.01764,-0.17992 -0.0035,-0.0847 -0.0035,-0.15169 0,-0.10936 0.02822,-0.24694 0.02822,-0.13759 0.08114,-0.28575 0.05292,-0.14817 0.127,-0.29987 0.07761,-0.15169 0.172861,-0.29633 -0.134055,0 -0.22225,0.0212 -0.08467,0.0212 -0.144639,0.06 v -0.33867 h 0.762 q -0.0635,0.0882 -0.127,0.20109 -0.05997,0.10936 -0.105833,0.23989 -0.04586,0.127 -0.07408,0.27163 -0.02822,0.14464 -0.02822,0.29634 0,0.25753 0.04586,0.45861 0.04586,0.19755 0.127,0.34925 0.08114,0.15169 0.1905,0.26105 0.109362,0.10937 0.232834,0.18698 v -2.26484 h 0.529166 v 2.1202 q 0,0.0247 -0.03528,0.0705 -0.03528,0.0423 -0.09172,0.0988 -0.05292,0.0565 -0.127,0.12347 -0.07055,0.0635 -0.144638,0.127 -0.176389,0.14817 -0.398639,0.32456 -0.172861,-0.13406 -0.296334,-0.26458 -0.123472,-0.13053 -0.211666,-0.254 z"
         style="font-style:normal;font-variant:normal;font-weight:normal;font-stretch:normal;font-family:'Bradley Gratis';-inkscape-font-specification:'Bradley Gratis';text-align:start;text-anchor:start;fill:#00a3f2;fill-opacity:1;stroke-width:0.26458332"
         id="path20372"
         inkscape:connector-curvature="0" /><path
         d="m 56.650514,144.81174 v -0.87841 h -0.416278 q -0.0035,0.23636 -0.01411,0.46919 -0.0071,0.22931 -0.01764,0.40922 z m 0.719667,-1.03011 q -0.03881,0.0282 -0.07408,0.0706 -0.03175,0.0423 -0.05645,0.0917 -0.02117,0.0459 -0.03528,0.0917 -0.01411,0.0423 -0.01411,0.0741 v 2.39889 h -0.53975 v -1.32998 h -0.472722 q -0.0035,0.127 -0.03528,0.2787 -0.03175,0.14816 -0.08819,0.29986 -0.05292,0.14817 -0.127,0.28928 -0.07056,0.13758 -0.162278,0.24341 -0.08819,0.10584 -0.1905,0.16934 -0.09878,0.0635 -0.208139,0.0635 -0.07055,0 -0.123472,-0.0423 -0.04939,-0.0423 -0.04939,-0.11994 0,-0.0494 0.03175,-0.0706 0.03175,-0.0247 0.06703,-0.0247 0.03175,0 0.04939,0.0106 0.01764,0.007 0.03175,0.0212 0.01764,0.0106 0.03881,0.0212 0.02117,0.007 0.05997,0.007 0.0635,0 0.102305,-0.0635 0.03881,-0.067 0.0635,-0.17639 0.0247,-0.11289 0.03528,-0.25753 0.01411,-0.14816 0.02117,-0.31044 0.0071,-0.16228 0.01764,-0.32808 0.01058,-0.16934 0.02822,-0.32456 0.02117,-0.18344 0.0635,-0.33514 0.04586,-0.15169 0.09525,-0.26811 0.04939,-0.11642 0.09878,-0.19755 0.04939,-0.0811 0.08467,-0.13053 h -0.07761 q -0.06703,0 -0.123472,0.0212 -0.05644,0.0176 -0.102306,0.0423 -0.04233,0.0212 -0.07761,0.0423 -0.03175,0.0176 -0.05644,0.0176 -0.05997,0 -0.08819,-0.0423 -0.02822,-0.0423 -0.02822,-0.0952 0,-0.0494 0.05292,-0.0917 0.05644,-0.0459 0.155222,-0.0459 z"
         style="font-style:normal;font-variant:normal;font-weight:normal;font-stretch:normal;font-family:'Bradley Gratis';-inkscape-font-specification:'Bradley Gratis';text-align:start;text-anchor:start;fill:#00a3f2;fill-opacity:1;stroke-width:0.26458332"
         id="path20374"
         inkscape:connector-curvature="0" /><path
         d="m 58.150372,146.63208 q -0.08114,-0.0811 -0.186973,-0.15875 -0.102305,-0.0776 -0.201083,-0.13759 -0.09525,-0.06 -0.169333,-0.1023 -0.07056,-0.0423 -0.08114,-0.0529 0.03528,-0.0423 0.08819,-0.11641 0.05292,-0.0776 0.102306,-0.1517 0.05292,-0.0741 0.09172,-0.13053 0.04233,-0.06 0.05292,-0.0705 0.04939,0.0317 0.134055,0.0882 0.08819,0.0529 0.172861,0.11289 0.08819,0.06 0.15875,0.10936 0.07056,0.0494 0.09172,0.0706 0.04939,-0.0282 0.08114,-0.0741 0.03528,-0.0459 0.03528,-0.14816 0,-0.0882 -0.07408,-0.18697 -0.07056,-0.0988 -0.176389,-0.20814 -0.105833,-0.10936 -0.232833,-0.22931 -0.127,-0.11994 -0.232834,-0.24694 -0.105833,-0.127 -0.179916,-0.25753 -0.07056,-0.13053 -0.07056,-0.26811 0,-0.0988 0.04939,-0.18345 0.05292,-0.0882 0.130528,-0.16227 0.07761,-0.0776 0.169333,-0.13759 0.09525,-0.0635 0.179917,-0.11641 0.08819,-0.0564 0.155222,-0.0988 0.06703,-0.0459 0.09525,-0.0811 0.02117,0.0176 0.09172,0.0882 0.07408,0.067 0.15875,0.14464 0.08467,0.0776 0.15875,0.13759 0.07761,0.06 0.102306,0.06 -0.03528,0.0282 -0.08819,0.0847 -0.04939,0.0529 -0.102305,0.11289 -0.04939,0.06 -0.09172,0.11642 -0.03881,0.0529 -0.05644,0.0811 -0.08114,-0.0353 -0.162278,-0.10583 -0.08114,-0.0706 -0.148166,-0.13759 -0.06703,-0.067 -0.112889,-0.11641 -0.04586,-0.0529 -0.05997,-0.0529 -0.02822,0 -0.04939,0.0317 -0.01764,0.0282 -0.01764,0.067 0,0.0847 0.07408,0.17991 0.07761,0.0952 0.186972,0.20461 0.112889,0.10584 0.243417,0.22578 0.134056,0.11642 0.243417,0.24342 0.112889,0.127 0.186972,0.26458 0.07761,0.13406 0.07761,0.27517 0,0.127 -0.09525,0.26811 -0.09525,0.14111 -0.229306,0.28222 -0.130527,0.13759 -0.268111,0.26459 -0.137583,0.12347 -0.225777,0.21872 z"
         style="font-style:normal;font-variant:normal;font-weight:normal;font-stretch:normal;font-family:'Bradley Gratis';-inkscape-font-specification:'Bradley Gratis';text-align:start;text-anchor:start;fill:#00a3f2;fill-opacity:1;stroke-width:0.26458332"
         id="path20376"
         inkscape:connector-curvature="0" /><path
         d="m 60.635359,146.03236 q 0,0.13758 -0.05644,0.23988 -0.05644,0.0988 -0.148167,0.16228 -0.08819,0.0635 -0.197555,0.0953 -0.109361,0.0317 -0.215195,0.0317 -0.165805,0 -0.324555,-0.0811 -0.15875,-0.0811 -0.28575,-0.21872 -0.127,-0.14111 -0.204611,-0.32808 -0.07761,-0.1905 -0.07761,-0.40922 0,-0.39159 0.179916,-0.72673 0.179917,-0.33866 0.500945,-0.61383 -0.02822,-0.004 -0.05292,-0.004 -0.02117,-0.004 -0.04586,-0.004 -0.08467,0 -0.179917,0.0282 -0.09525,0.0282 -0.179916,0.0741 -0.08467,0.0423 -0.155223,0.0952 -0.06703,0.0529 -0.102305,0.0988 0.02822,-0.13759 0.105833,-0.27164 0.07761,-0.13406 0.194028,-0.23636 0.116417,-0.10231 0.268111,-0.16581 0.151694,-0.0635 0.331611,-0.0635 0.09172,0 0.194028,0.0282 0.102305,0.0282 0.194028,0.0741 0.09525,0.0423 0.169333,0.0953 0.07408,0.0529 0.112889,0.1023 l -0.289278,0.44098 q -0.176389,-0.17287 -0.381,-0.24695 -0.04586,0.0741 -0.09525,0.17639 -0.04939,0.0988 -0.09172,0.22578 -0.03881,0.127 -0.06703,0.28222 -0.02469,0.15169 -0.02469,0.33161 0,0.16933 0.02469,0.29986 0.02822,0.13053 0.07056,0.22578 0.04233,0.0952 0.09525,0.15875 0.05644,0.0635 0.112889,0.10583 0.134055,0.0953 0.306916,0.10584 0.07056,0 0.162278,-0.0282 0.09525,-0.0318 0.151694,-0.0811 z"
         style="font-style:normal;font-variant:normal;font-weight:normal;font-stretch:normal;font-family:'Bradley Gratis';-inkscape-font-specification:'Bradley Gratis';text-align:start;text-anchor:start;fill:#00a3f2;fill-opacity:1;stroke-width:0.26458332"
         id="path20378"
         inkscape:connector-curvature="0" /><path
         d="m 62.403604,143.78163 v 0.381 q -0.03881,-0.0353 -0.102306,-0.0776 -0.05997,-0.0423 -0.130528,-0.0741 -0.06703,-0.0353 -0.134055,-0.0565 -0.06703,-0.0247 -0.112889,-0.0247 -0.08467,0 -0.172861,0.067 -0.08819,0.067 -0.144639,0.17991 -0.05644,0.10937 -0.07408,0.28928 -0.01411,0.17639 -0.01411,0.45509 h 0.903111 l -0.179917,0.40216 q -0.03528,-0.0529 -0.08467,-0.0705 -0.04586,-0.0212 -0.08467,-0.0212 h -0.553861 q 0,0.20108 0.0071,0.39511 0.0071,0.1905 0.04586,0.3422 0.04233,0.15169 0.127,0.24694 0.08467,0.0917 0.243417,0.0917 0.08467,0 0.165805,-0.0318 0.08467,-0.0317 0.155223,-0.0776 0.07055,-0.0494 0.123472,-0.1023 0.05644,-0.0529 0.08819,-0.0952 v 0.508 h -0.47625 q -0.342194,0 -0.553861,-0.11995 -0.211666,-0.12347 -0.331611,-0.32808 -0.116417,-0.20814 -0.15875,-0.47978 -0.03881,-0.27164 -0.03881,-0.56797 0,-0.0741 0.01058,-0.19403 0.01058,-0.12347 0.04586,-0.25753 0.03528,-0.13758 0.102306,-0.27516 0.06703,-0.14112 0.179916,-0.25048 0.116417,-0.11289 0.28575,-0.18344 0.169334,-0.0706 0.409222,-0.0706 z"
         style="font-style:normal;font-variant:normal;font-weight:normal;font-stretch:normal;font-family:'Bradley Gratis';-inkscape-font-specification:'Bradley Gratis';text-align:start;text-anchor:start;fill:#00a3f2;fill-opacity:1;stroke-width:0.26458332"
         id="path20380"
         inkscape:connector-curvature="0" /><path
         d="m 63.682533,144.47661 q -0.08819,-0.21167 -0.151694,-0.35278 -0.0635,-0.14111 -0.09878,-0.14111 -0.03881,0 -0.05292,0.0353 -0.01058,0.0318 -0.01058,0.0565 v 1.91205 q 0,0.0776 -0.04233,0.16228 -0.04233,0.0847 -0.112888,0.14817 0.130527,0 0.232833,-0.0635 0.102305,-0.067 0.211667,-0.14464 0.112888,-0.0811 0.250472,-0.14464 0.137583,-0.067 0.342194,-0.067 v 0.63148 H 62.65595 q 0.04586,-0.067 0.07761,-0.127 0.03528,-0.06 0.05644,-0.11995 0.02117,-0.06 0.03175,-0.127 0.01058,-0.067 0.01058,-0.14817 v -1.66863 q 0,-0.11289 -0.04233,-0.18345 -0.04233,-0.0741 -0.05997,-0.1023 0.01411,-0.004 0.07056,-0.0247 0.05997,-0.0247 0.144639,-0.0564 0.08467,-0.0318 0.186972,-0.067 0.102305,-0.0353 0.201083,-0.0635 0.09878,-0.0317 0.186972,-0.0494 0.08819,-0.0212 0.144639,-0.0212 0.0882,0 0.165806,0.0494 0.07761,0.0494 0.141111,0.12347 0.0635,0.0741 0.109361,0.16581 0.04586,0.0882 0.07408,0.16581 z"
         style="font-style:normal;font-variant:normal;font-weight:normal;font-stretch:normal;font-family:'Bradley Gratis';-inkscape-font-specification:'Bradley Gratis';text-align:start;text-anchor:start;fill:#00a3f2;fill-opacity:1;stroke-width:0.26458332"
         id="path20382"
         inkscape:connector-curvature="0" /><path
         d="m 65.8627,144.81174 v -0.87841 h -0.416278 q -0.0035,0.23636 -0.01411,0.46919 -0.0071,0.22931 -0.01764,0.40922 z m 0.719667,-1.03011 q -0.03881,0.0282 -0.07408,0.0706 -0.03175,0.0423 -0.05644,0.0917 -0.02117,0.0459 -0.03528,0.0917 -0.01411,0.0423 -0.01411,0.0741 v 2.39889 H 65.8627 v -1.32998 h -0.472722 q -0.0035,0.127 -0.03528,0.2787 -0.03175,0.14816 -0.08819,0.29986 -0.05292,0.14817 -0.127,0.28928 -0.07056,0.13758 -0.162278,0.24341 -0.08819,0.10584 -0.1905,0.16934 -0.09878,0.0635 -0.208139,0.0635 -0.07056,0 -0.123472,-0.0423 -0.04939,-0.0423 -0.04939,-0.11994 0,-0.0494 0.03175,-0.0706 0.03175,-0.0247 0.06703,-0.0247 0.03175,0 0.04939,0.0106 0.01764,0.007 0.03175,0.0212 0.01764,0.0106 0.0388,0.0212 0.02117,0.007 0.05997,0.007 0.0635,0 0.102306,-0.0635 0.0388,-0.067 0.0635,-0.17639 0.02469,-0.11289 0.03528,-0.25753 0.01411,-0.14816 0.02117,-0.31044 0.0071,-0.16228 0.01764,-0.32808 0.01058,-0.16934 0.02822,-0.32456 0.02117,-0.18344 0.0635,-0.33514 0.04586,-0.15169 0.09525,-0.26811 0.04939,-0.11642 0.09878,-0.19755 0.04939,-0.0811 0.08467,-0.13053 h -0.07761 q -0.06703,0 -0.123472,0.0212 -0.05644,0.0176 -0.102306,0.0423 -0.04233,0.0212 -0.07761,0.0423 -0.03175,0.0176 -0.05645,0.0176 -0.05997,0 -0.08819,-0.0423 -0.02822,-0.0423 -0.02822,-0.0952 0,-0.0494 0.05292,-0.0917 0.05644,-0.0459 0.155223,-0.0459 z"
         style="font-style:normal;font-variant:normal;font-weight:normal;font-stretch:normal;font-family:'Bradley Gratis';-inkscape-font-specification:'Bradley Gratis';text-align:start;text-anchor:start;fill:#00a3f2;fill-opacity:1;stroke-width:0.26458332"
         id="path20384"
         inkscape:connector-curvature="0" /><path
         d="m 66.882779,146.50861 v -2.4377 q 0,-0.0988 -0.04233,-0.1658 -0.04233,-0.0706 -0.08467,-0.12348 h 0.684389 v 0.35984 l 0.391583,-0.45509 q 0.179917,0.16228 0.296333,0.32456 0.116417,0.15875 0.183445,0.32103 0.06703,0.15875 0.09172,0.32455 0.02469,0.16228 0.02469,0.33514 0,0.16933 -0.02822,0.32456 -0.02469,0.15169 -0.07408,0.29986 -0.04939,0.14816 -0.119945,0.29986 -0.06703,0.15169 -0.148166,0.3175 h 0.127 q 0.04586,0 0.09525,-0.0317 0.04939,-0.0318 0.09878,-0.0318 v 0.33867 H 67.69417 q 0.09525,-0.19403 0.151694,-0.34925 0.05997,-0.15523 0.09172,-0.29634 0.03175,-0.14111 0.04233,-0.27516 0.01058,-0.13406 0.01058,-0.28575 0,-0.1517 -0.05292,-0.31398 -0.04939,-0.1658 -0.123472,-0.30339 -0.07408,-0.13758 -0.15875,-0.22577 -0.08114,-0.0882 -0.148167,-0.0882 -0.04233,0 -0.06703,0.0212 v 2.11667 z"
         style="font-style:normal;font-variant:normal;font-weight:normal;font-stretch:normal;font-family:'Bradley Gratis';-inkscape-font-specification:'Bradley Gratis';text-align:start;text-anchor:start;fill:#00a3f2;fill-opacity:1;stroke-width:0.26458332"
         id="path20386"
         inkscape:connector-curvature="0" /><path
         d="m 68.771683,144.02858 q -0.09172,-0.0388 -0.127,-0.0952 -0.03528,-0.0565 -0.03528,-0.10584 0,-0.0423 0.02822,-0.0529 0.02822,0.0176 0.07761,0.0247 0.04939,0.007 0.112888,0.007 0.03175,0 0.08819,-0.0106 0.05997,-0.0106 0.130528,-0.0212 0.07055,-0.0106 0.144639,-0.0212 0.07761,-0.0106 0.144638,-0.0106 0.162278,0 0.331612,0.0847 0.169333,0.0811 0.303388,0.254 0.134056,0.16934 0.218723,0.43392 0.08819,0.26106 0.08819,0.62442 0,0.30691 -0.05292,0.52916 -0.05292,0.22225 -0.134055,0.37748 -0.08114,0.15522 -0.179917,0.25047 -0.09878,0.0917 -0.194028,0.14464 -0.09172,0.0494 -0.169333,0.067 -0.07408,0.0176 -0.109361,0.0176 -0.05292,0 -0.112889,-0.0141 -0.05997,-0.0141 -0.119944,-0.0318 -0.05645,-0.0176 -0.109361,-0.0317 -0.04939,-0.0141 -0.08467,-0.0141 -0.03881,0 -0.07056,0.0141 -0.03175,0.0106 -0.06703,0.0247 -0.03175,0.0106 -0.07056,0.0247 -0.03881,0.0106 -0.08819,0.0106 -0.01764,0 -0.03881,-0.004 -0.01764,-0.004 -0.03528,-0.0106 -0.01764,-0.007 -0.03528,-0.0176 0.02822,-0.0176 0.05644,-0.06 0.02822,-0.0459 0.05292,-0.0952 0.02822,-0.0529 0.05644,-0.11641 z m 0.518583,2.10255 q 0,0.0741 0.02469,0.11642 0.02822,0.0388 0.05997,0.0564 0.03881,0.0212 0.08467,0.0247 0.08114,0 0.141111,-0.10936 0.0635,-0.10936 0.0635,-0.2787 v -1.54869 q 0,-0.16581 -0.03175,-0.25753 -0.03175,-0.0917 -0.07408,-0.13405 -0.04233,-0.0423 -0.08467,-0.0494 -0.04233,-0.0106 -0.06703,-0.0106 -0.04233,0 -0.08114,0.0564 -0.03528,0.0564 -0.03528,0.14816 z"
         style="font-style:normal;font-variant:normal;font-weight:normal;font-stretch:normal;font-family:'Bradley Gratis';-inkscape-font-specification:'Bradley Gratis';text-align:start;text-anchor:start;fill:#00a3f2;fill-opacity:1;stroke-width:0.26458332"
         id="path20388"
         inkscape:connector-curvature="0" /></g></g><g
     aria-label="GATE"
     style="font-style:normal;font-variant:normal;font-weight:bold;font-stretch:normal;font-size:8px;line-height:1.25;font-family:Homenaje;-inkscape-font-specification:'Homenaje Bold';letter-spacing:0px;word-spacing:0px;fill:#ffffff;fill-opacity:1;stroke:none;stroke-width:0.99999994"
     id="text5443-7-5-4-0"><path
       d="m 385.44401,468 h -1.416 q -0.728,0 -1.128,-0.368 -0.4,-0.368 -0.4,-1.08 v -2.712 q 0,-0.704 0.432,-1.072 0.432,-0.368 1.176,-0.368 h 1.176 v 0.536 h -1.256 q -0.368,0 -0.6,0.216 -0.224,0.208 -0.224,0.56 v 2.984 q 0,0.36 0.216,0.568 0.216,0.208 0.576,0.208 h 0.744 v -2.2 h -0.72 v -0.528 h 1.424 z"
       style="font-style:normal;font-variant:normal;font-weight:bold;font-stretch:normal;font-size:8px;font-family:Homenaje;-inkscape-font-specification:'Homenaje Bold';stroke-width:0.99999994"
       id="path1285" /><path
       d="m 387.26751,462.4 h 1.064 l 1.216,5.6 h -0.656 l -0.392,-1.648 h -1.456 l -0.36,1.648 h -0.68 z m 1.112,3.408 -0.576,-2.88 h -0.056 l -0.584,2.88 z"
       style="font-style:normal;font-variant:normal;font-weight:bold;font-stretch:normal;font-size:8px;font-family:Homenaje;-inkscape-font-specification:'Homenaje Bold';stroke-width:0.99999994"
       id="path1287" /><path
       d="m 390.62351,468 v -5.072 h -1.12 V 462.4 h 2.944 v 0.528 h -1.12 V 468 Z"
       style="font-style:normal;font-variant:normal;font-weight:bold;font-stretch:normal;font-size:8px;font-family:Homenaje;-inkscape-font-specification:'Homenaje Bold';stroke-width:0.99999994"
       id="path1289" /><path
       d="m 393.19313,468 v -5.6 h 2.44 v 0.544 h -1.736 v 1.792 h 1.408 v 0.544 h -1.408 v 2.176 h 1.816 V 468 Z"
       style="font-style:normal;font-variant:normal;font-weight:bold;font-stretch:normal;font-size:8px;font-family:Homenaje;-inkscape-font-specification:'Homenaje Bold';stroke-width:0.99999994"
       id="path1291" /></g><g
     aria-label="GAUSSIAN"
     style="font-style:normal;font-variant:normal;font-weight:bold;font-stretch:normal;font-size:8px;line-height:1.25;font-family:Homenaje;-inkscape-font-specification:'Homenaje Bold';letter-spacing:0px;word-spacing:0px;fill:#ffffff;fill-opacity:1;stroke:none;stroke-width:0.99999994"
     id="text5443-7-5-4-4"><path
       d="m 294.44401,295.944 h -1.416 q -0.728,0 -1.128,-0.368 -0.4,-0.368 -0.4,-1.08 v -2.712 q 0,-0.704 0.432,-1.072 0.432,-0.368 1.176,-0.368 h 1.176 v 0.536 h -1.256 q -0.368,0 -0.6,0.216 -0.224,0.208 -0.224,0.56 v 2.984 q 0,0.36 0.216,0.568 0.216,0.208 0.576,0.208 h 0.744 v -2.2 h -0.72 v -0.528 h 1.424 z"
       style="font-style:normal;font-variant:normal;font-weight:bold;font-stretch:normal;font-size:8px;font-family:Homenaje;-inkscape-font-specification:'Homenaje Bold';stroke-width:0.99999994"
       id="path1294" /><path
       d="m 296.26751,290.344 h 1.064 l 1.216,5.6 h -0.656 l -0.392,-1.648 h -1.456 l -0.36,1.648 h -0.68 z m 1.112,3.408 -0.576,-2.88 h -0.056 l -0.584,2.88 z"
       style="font-style:normal;font-variant:normal;font-weight:bold;font-stretch:normal;font-size:8px;font-family:Homenaje;-inkscape-font-specification:'Homenaje Bold';stroke-width:0.99999994"
       id="path1296" /><path
       d="m 299.04688,290.344 h 0.704 v 4.352 q 0,0.384 0.184,0.584 0.192,0.192 0.528,0.192 0.336,0 0.528,-0.192 0.192,-0.2 0.192,-0.584 v -4.352 h 0.704 v 4.216 q 0,1.44 -1.424,1.44 -1.416,0 -1.416,-1.44 z"
       style="font-style:normal;font-variant:normal;font-weight:bold;font-stretch:normal;font-size:8px;font-family:Homenaje;-inkscape-font-specification:'Homenaje Bold';stroke-width:0.99999994"
       id="path1298" /><path
       d="m 303.59413,295.416 q 0.456,0 0.656,-0.272 0.208,-0.272 0.208,-0.632 0,-0.36 -0.136,-0.608 -0.128,-0.256 -0.328,-0.4 -0.2,-0.152 -0.432,-0.328 -0.232,-0.176 -0.432,-0.336 -0.2,-0.168 -0.336,-0.448 -0.128,-0.28 -0.128,-0.64 0,-0.64 0.384,-1.024 0.384,-0.384 1.064,-0.384 h 0.648 v 0.528 h -0.616 q -0.384,0 -0.584,0.248 -0.2,0.248 -0.2,0.536 0,0.288 0.128,0.496 0.136,0.208 0.336,0.344 0.2,0.136 0.432,0.32 0.24,0.184 0.44,0.376 0.2,0.184 0.328,0.504 0.136,0.32 0.136,0.728 0,0.752 -0.432,1.136 -0.424,0.384 -1.168,0.384 h -0.84 v -0.528 z"
       style="font-style:normal;font-variant:normal;font-weight:bold;font-stretch:normal;font-size:8px;font-family:Homenaje;-inkscape-font-specification:'Homenaje Bold';stroke-width:0.99999994"
       id="path1300" /><path
       d="m 306.71913,295.416 q 0.456,0 0.656,-0.272 0.208,-0.272 0.208,-0.632 0,-0.36 -0.136,-0.608 -0.128,-0.256 -0.328,-0.4 -0.2,-0.152 -0.432,-0.328 -0.232,-0.176 -0.432,-0.336 -0.2,-0.168 -0.336,-0.448 -0.128,-0.28 -0.128,-0.64 0,-0.64 0.384,-1.024 0.384,-0.384 1.064,-0.384 h 0.648 v 0.528 h -0.616 q -0.384,0 -0.584,0.248 -0.2,0.248 -0.2,0.536 0,0.288 0.128,0.496 0.136,0.208 0.336,0.344 0.2,0.136 0.432,0.32 0.24,0.184 0.44,0.376 0.2,0.184 0.328,0.504 0.136,0.32 0.136,0.728 0,0.752 -0.432,1.136 -0.424,0.384 -1.168,0.384 h -0.84 v -0.528 z"
       style="font-style:normal;font-variant:normal;font-weight:bold;font-stretch:normal;font-size:8px;font-family:Homenaje;-inkscape-font-specification:'Homenaje Bold';stroke-width:0.99999994"
       id="path1302" /><path
       d="m 309.06813,295.944 v -5.6 h 0.704 v 5.6 z"
       style="font-style:normal;font-variant:normal;font-weight:bold;font-stretch:normal;font-size:8px;font-family:Homenaje;-inkscape-font-specification:'Homenaje Bold';stroke-width:0.99999994"
       id="path1304" /><path
       d="m 311.78313,290.344 h 1.064 l 1.216,5.6 h -0.656 l -0.392,-1.648 h -1.456 l -0.36,1.648 h -0.68 z m 1.112,3.408 -0.576,-2.88 h -0.056 l -0.584,2.88 z"
       style="font-style:normal;font-variant:normal;font-weight:bold;font-stretch:normal;font-size:8px;font-family:Homenaje;-inkscape-font-specification:'Homenaje Bold';stroke-width:0.99999994"
       id="path1306" /><path
       d="m 317.93051,295.944 h -1.008 l -1.48,-5.088 v 5.088 h -0.704 v -5.6 h 1.176 l 1.304,4.84 v -4.84 h 0.712 z"
       style="font-style:normal;font-variant:normal;font-weight:bold;font-stretch:normal;font-size:8px;font-family:Homenaje;-inkscape-font-specification:'Homenaje Bold';stroke-width:0.99999994"
       id="path1308" /></g><g
     aria-label="CV OUT"
     style="font-style:normal;font-variant:normal;font-weight:bold;font-stretch:normal;font-size:8px;line-height:1.25;font-family:Homenaje;-inkscape-font-specification:'Homenaje Bold';letter-spacing:0px;word-spacing:0px;fill:#ffffff;fill-opacity:1;stroke:none;stroke-width:0.99999994"
     id="text5443-7-5-4-4-7"><path
       d="m 382.10001,328.416 v 0.528 h -1.072 q -0.728,0 -1.128,-0.368 -0.4,-0.368 -0.4,-1.08 v -2.704 q 0,-0.712 0.4,-1.08 0.4,-0.368 1.128,-0.368 h 1.072 v 0.528 h -1.072 q -0.368,0 -0.6,0.216 -0.224,0.208 -0.224,0.56 v 2.992 q 0,0.352 0.224,0.568 0.232,0.208 0.6,0.208 z"
       style="font-style:normal;font-variant:normal;font-weight:bold;font-stretch:normal;font-size:8px;font-family:Homenaje;-inkscape-font-specification:'Homenaje Bold';stroke-width:0.99999994"
       id="path1311" /><path
       d="m 384.31338,328.304 1.104,-4.96 h 0.696 l -1.32,5.6 h -0.944 l -1.344,-5.6 h 0.696 z"
       style="font-style:normal;font-variant:normal;font-weight:bold;font-stretch:normal;font-size:8px;font-family:Homenaje;-inkscape-font-specification:'Homenaje Bold';stroke-width:0.99999994"
       id="path1313" /><path
       d="m 390.97026,327.56 q 0,0.68 -0.392,1.064 -0.392,0.376 -1.144,0.376 -0.744,0 -1.136,-0.376 -0.392,-0.384 -0.392,-1.064 v -2.832 q 0,-0.68 0.392,-1.056 0.392,-0.384 1.136,-0.384 0.752,0 1.144,0.384 0.392,0.376 0.392,1.056 z m -2.36,0.136 q 0,0.368 0.232,0.576 0.24,0.2 0.592,0.2 0.352,0 0.592,-0.2 0.24,-0.208 0.24,-0.576 v -3.104 q 0,-0.368 -0.24,-0.568 -0.24,-0.208 -0.592,-0.208 -0.352,0 -0.592,0.208 -0.232,0.2 -0.232,0.568 z"
       style="font-style:normal;font-variant:normal;font-weight:bold;font-stretch:normal;font-size:8px;font-family:Homenaje;-inkscape-font-specification:'Homenaje Bold';stroke-width:0.99999994"
       id="path1315" /><path
       d="m 391.65626,323.344 h 0.704 v 4.352 q 0,0.384 0.184,0.584 0.192,0.192 0.528,0.192 0.336,0 0.528,-0.192 0.192,-0.2 0.192,-0.584 v -4.352 h 0.704 v 4.216 q 0,1.44 -1.424,1.44 -1.416,0 -1.416,-1.44 z"
       style="font-style:normal;font-variant:normal;font-weight:bold;font-stretch:normal;font-size:8px;font-family:Homenaje;-inkscape-font-specification:'Homenaje Bold';stroke-width:0.99999994"
       id="path1317" /><path
       d="m 396.12351,328.944 v -5.072 h -1.12 v -0.528 h 2.944 v 0.528 h -1.12 v 5.072 z"
       style="font-style:normal;font-variant:normal;font-weight:bold;font-stretch:normal;font-size:8px;font-family:Homenaje;-inkscape-font-specification:'Homenaje Bold';stroke-width:0.99999994"
       id="path1319" /></g><g
     aria-label="PROBABILITY"
     style="font-style:normal;font-variant:normal;font-weight:bold;font-stretch:normal;font-size:8px;line-height:1.25;font-family:Homenaje;-inkscape-font-specification:'Homenaje Bold';letter-spacing:0px;word-spacing:0px;fill:#ffffff;fill-opacity:1;stroke:none;stroke-width:0.99999994"
     id="text5443-7-5-4-4-7-9"><path
       d="m 292.20399,462.872 v 2.08 h 0.512 q 0.456,0 0.704,-0.312 0.256,-0.312 0.256,-0.808 0,-0.96 -0.96,-0.96 z m 2.176,0.96 q 0,0.776 -0.424,1.216 -0.416,0.432 -1.192,0.432 h -0.56 v 2.464 h -0.704 v -5.6 h 1.416 q 1.464,0 1.464,1.488 z"
       style="font-style:normal;font-variant:normal;font-weight:bold;font-stretch:normal;font-size:8px;font-family:Homenaje;-inkscape-font-specification:'Homenaje Bold';stroke-width:0.99999994"
       id="path1322" /><path
       d="m 295.82899,462.872 v 2.088 h 0.568 q 0.456,0 0.704,-0.312 0.256,-0.32 0.256,-0.816 0,-0.96 -0.96,-0.96 z m -0.016,2.616 v 2.456 h -0.688 v -5.6 h 1.48 q 1.44,0 1.44,1.488 0,0.56 -0.216,0.976 -0.216,0.416 -0.616,0.576 l 1.112,2.56 h -0.688 l -1.088,-2.456 z"
       style="font-style:normal;font-variant:normal;font-weight:bold;font-stretch:normal;font-size:8px;font-family:Homenaje;-inkscape-font-specification:'Homenaje Bold';stroke-width:0.99999994"
       id="path1324" /><path
       d="m 301.88649,466.56 q 0,0.68 -0.392,1.064 -0.392,0.376 -1.144,0.376 -0.744,0 -1.136,-0.376 -0.392,-0.384 -0.392,-1.064 v -2.832 q 0,-0.68 0.392,-1.056 0.392,-0.384 1.136,-0.384 0.752,0 1.144,0.384 0.392,0.376 0.392,1.056 z m -2.36,0.136 q 0,0.368 0.232,0.576 0.24,0.2 0.592,0.2 0.352,0 0.592,-0.2 0.24,-0.208 0.24,-0.576 v -3.104 q 0,-0.368 -0.24,-0.568 -0.24,-0.208 -0.592,-0.208 -0.352,0 -0.592,0.208 -0.232,0.2 -0.232,0.568 z"
       style="font-style:normal;font-variant:normal;font-weight:bold;font-stretch:normal;font-size:8px;font-family:Homenaje;-inkscape-font-specification:'Homenaje Bold';stroke-width:0.99999994"
       id="path1326" /><path
       d="m 303.51649,462.872 v 1.816 h 0.504 q 0.48,0 0.744,-0.24 0.264,-0.248 0.264,-0.712 0,-0.864 -1.008,-0.864 z m 1.616,2.096 q 0.312,0.168 0.512,0.504 0.208,0.336 0.208,0.68 0,0.344 -0.032,0.552 -0.032,0.208 -0.144,0.456 -0.104,0.24 -0.296,0.4 -0.432,0.384 -1.328,0.384 h -1.24 v -5.6 h 1.36 q 0.744,0 1.112,0.344 0.368,0.336 0.368,1.064 0,0.4 -0.152,0.736 -0.144,0.328 -0.368,0.48 z m -1.12,2.448 q 1.168,0 1.168,-1.12 0,-0.568 -0.344,-0.816 -0.344,-0.248 -0.816,-0.248 h -0.504 v 2.184 z"
       style="font-style:normal;font-variant:normal;font-weight:bold;font-stretch:normal;font-size:8px;font-family:Homenaje;-inkscape-font-specification:'Homenaje Bold';stroke-width:0.99999994"
       id="path1328" /><path
       d="m 307.54311,462.344 h 1.064 l 1.216,5.6 h -0.656 l -0.392,-1.648 h -1.456 l -0.36,1.648 h -0.68 z m 1.112,3.408 -0.576,-2.88 h -0.056 l -0.584,2.88 z"
       style="font-style:normal;font-variant:normal;font-weight:bold;font-stretch:normal;font-size:8px;font-family:Homenaje;-inkscape-font-specification:'Homenaje Bold';stroke-width:0.99999994"
       id="path1330" /><path
       d="m 311.26649,462.872 v 1.816 h 0.504 q 0.48,0 0.744,-0.24 0.264,-0.248 0.264,-0.712 0,-0.864 -1.008,-0.864 z m 1.616,2.096 q 0.312,0.168 0.512,0.504 0.208,0.336 0.208,0.68 0,0.344 -0.032,0.552 -0.032,0.208 -0.144,0.456 -0.104,0.24 -0.296,0.4 -0.432,0.384 -1.328,0.384 h -1.24 v -5.6 h 1.36 q 0.744,0 1.112,0.344 0.368,0.336 0.368,1.064 0,0.4 -0.152,0.736 -0.144,0.328 -0.368,0.48 z m -1.12,2.448 q 1.168,0 1.168,-1.12 0,-0.568 -0.344,-0.816 -0.344,-0.248 -0.816,-0.248 h -0.504 v 2.184 z"
       style="font-style:normal;font-variant:normal;font-weight:bold;font-stretch:normal;font-size:8px;font-family:Homenaje;-inkscape-font-specification:'Homenaje Bold';stroke-width:0.99999994"
       id="path1332" /><path
       d="m 314.45311,467.944 v -5.6 h 0.704 v 5.6 z"
       style="font-style:normal;font-variant:normal;font-weight:bold;font-stretch:normal;font-size:8px;font-family:Homenaje;-inkscape-font-specification:'Homenaje Bold';stroke-width:0.99999994"
       id="path1334" /><path
       d="m 316.32811,467.944 v -5.6 h 0.704 v 5.072 h 1.64 v 0.528 z"
       style="font-style:normal;font-variant:normal;font-weight:bold;font-stretch:normal;font-size:8px;font-family:Homenaje;-inkscape-font-specification:'Homenaje Bold';stroke-width:0.99999994"
       id="path1336" /><path
       d="m 319.35936,467.944 v -5.6 h 0.704 v 5.6 z"
       style="font-style:normal;font-variant:normal;font-weight:bold;font-stretch:normal;font-size:8px;font-family:Homenaje;-inkscape-font-specification:'Homenaje Bold';stroke-width:0.99999994"
       id="path1338" /><path
       d="m 321.93036,467.944 v -5.072 h -1.12 v -0.528 h 2.944 v 0.528 h -1.12 v 5.072 z"
       style="font-style:normal;font-variant:normal;font-weight:bold;font-stretch:normal;font-size:8px;font-family:Homenaje;-inkscape-font-specification:'Homenaje Bold';stroke-width:0.99999994"
       id="path1340" /><path
       d="m 325.69199,467.944 h -0.704 v -2.224 l -1.128,-3.376 h 0.704 l 0.8,2.648 0.816,-2.648 h 0.704 l -1.192,3.376 z"
       style="font-style:normal;font-variant:normal;font-weight:bold;font-stretch:normal;font-size:8px;font-family:Homenaje;-inkscape-font-specification:'Homenaje Bold';stroke-width:0.99999994"
       id="path1342" /></g><g
     aria-label="MULTIPLY"
     style="font-style:normal;font-variant:normal;font-weight:bold;font-stretch:normal;font-size:8px;line-height:1.25;font-family:Homenaje;-inkscape-font-specification:'Homenaje Bold';letter-spacing:0px;word-spacing:0px;fill:#ffffff;fill-opacity:1;stroke:none;stroke-width:0.99999994"
     id="text5443-7-5-4-4-7-7"><path
       d="M 295.204,328.944 H 294.5 v -5.6 h 1.064 l 1.072,3.312 h 0.056 l 1.096,-3.312 h 1.024 v 5.6 h -0.704 v -4.76 l -1.072,3.272 h -0.76 l -1.072,-3.28 z"
       style="font-style:normal;font-variant:normal;font-weight:bold;font-stretch:normal;font-size:8px;font-family:Homenaje;-inkscape-font-specification:'Homenaje Bold';stroke-width:0.99999994"
       id="path1345" /><path
       d="m 299.6525,323.344 h 0.704 v 4.352 q 0,0.384 0.184,0.584 0.192,0.192 0.528,0.192 0.336,0 0.528,-0.192 0.192,-0.2 0.192,-0.584 v -4.352 h 0.704 v 4.216 q 0,1.44 -1.424,1.44 -1.416,0 -1.416,-1.44 z"
       style="font-style:normal;font-variant:normal;font-weight:bold;font-stretch:normal;font-size:8px;font-family:Homenaje;-inkscape-font-specification:'Homenaje Bold';stroke-width:0.99999994"
       id="path1347" /><path
       d="m 303.42375,328.944 v -5.6 h 0.704 v 5.072 h 1.64 v 0.528 z"
       style="font-style:normal;font-variant:normal;font-weight:bold;font-stretch:normal;font-size:8px;font-family:Homenaje;-inkscape-font-specification:'Homenaje Bold';stroke-width:0.99999994"
       id="path1349" /><path
       d="m 306.79163,328.944 v -5.072 h -1.12 v -0.528 h 2.944 v 0.528 h -1.12 v 5.072 z"
       style="font-style:normal;font-variant:normal;font-weight:bold;font-stretch:normal;font-size:8px;font-family:Homenaje;-inkscape-font-specification:'Homenaje Bold';stroke-width:0.99999994"
       id="path1351" /><path
       d="m 309.36125,328.944 v -5.6 h 0.704 v 5.6 z"
       style="font-style:normal;font-variant:normal;font-weight:bold;font-stretch:normal;font-size:8px;font-family:Homenaje;-inkscape-font-specification:'Homenaje Bold';stroke-width:0.99999994"
       id="path1353" /><path
       d="m 311.94025,323.872 v 2.08 h 0.512 q 0.456,0 0.704,-0.312 0.256,-0.312 0.256,-0.808 0,-0.96 -0.96,-0.96 z m 2.176,0.96 q 0,0.776 -0.424,1.216 -0.416,0.432 -1.192,0.432 h -0.56 v 2.464 h -0.704 v -5.6 h 1.416 q 1.464,0 1.464,1.488 z"
       style="font-style:normal;font-variant:normal;font-weight:bold;font-stretch:normal;font-size:8px;font-family:Homenaje;-inkscape-font-specification:'Homenaje Bold';stroke-width:0.99999994"
       id="path1355" /><path
       d="m 314.86125,328.944 v -5.6 h 0.704 v 5.072 h 1.64 v 0.528 z"
       style="font-style:normal;font-variant:normal;font-weight:bold;font-stretch:normal;font-size:8px;font-family:Homenaje;-inkscape-font-specification:'Homenaje Bold';stroke-width:0.99999994"
       id="path1357" /><path
       d="m 318.56888,328.944 h -0.704 v -2.224 l -1.128,-3.376 h 0.704 l 0.8,2.648 0.816,-2.648 h 0.704 l -1.192,3.376 z"
       style="font-style:normal;font-variant:normal;font-weight:bold;font-stretch:normal;font-size:8px;font-family:Homenaje;-inkscape-font-specification:'Homenaje Bold';stroke-width:0.99999994"
       id="path1359" /></g><g
     style="font-style:normal;font-variant:normal;font-weight:bold;font-stretch:normal;font-size:8px;line-height:1.25;font-family:Arial;-inkscape-font-specification:'Arial Bold';text-align:center;letter-spacing:0px;word-spacing:0px;text-anchor:middle;fill:#000000;fill-opacity:1;stroke:none"
     id="flowRoot2224" /><g
     aria-label="OFFSET"
     style="font-style:normal;font-variant:normal;font-weight:bold;font-stretch:normal;font-size:8px;line-height:1.25;font-family:Homenaje;-inkscape-font-specification:'Homenaje Bold';letter-spacing:0px;word-spacing:0px;fill:#ffffff;fill-opacity:1;stroke:none;stroke-width:0.99999994"
     id="text5443-7-5-4-4-7-7-7"><path
       d="m 346.56401,327.56 q 0,0.68 -0.392,1.064 -0.392,0.376 -1.144,0.376 -0.744,0 -1.136,-0.376 -0.392,-0.384 -0.392,-1.064 v -2.832 q 0,-0.68 0.392,-1.056 0.392,-0.384 1.136,-0.384 0.752,0 1.144,0.384 0.392,0.376 0.392,1.056 z m -2.36,0.136 q 0,0.368 0.232,0.576 0.24,0.2 0.592,0.2 0.352,0 0.592,-0.2 0.24,-0.208 0.24,-0.576 v -3.104 q 0,-0.368 -0.24,-0.568 -0.24,-0.208 -0.592,-0.208 -0.352,0 -0.592,0.208 -0.232,0.2 -0.232,0.568 z"
       style="font-style:normal;font-variant:normal;font-weight:bold;font-stretch:normal;font-size:8px;font-family:Homenaje;-inkscape-font-specification:'Homenaje Bold';stroke-width:0.99999994"
       id="path1363" /><path
       d="m 347.49001,328.944 v -5.6 h 2.36 v 0.544 h -1.656 v 1.92 h 1.248 v 0.544 h -1.248 v 2.592 z"
       style="font-style:normal;font-variant:normal;font-weight:bold;font-stretch:normal;font-size:8px;font-family:Homenaje;-inkscape-font-specification:'Homenaje Bold';stroke-width:0.99999994"
       id="path1365" /><path
       d="m 350.59938,328.944 v -5.6 h 2.36 v 0.544 h -1.656 v 1.92 h 1.248 v 0.544 h -1.248 v 2.592 z"
       style="font-style:normal;font-variant:normal;font-weight:bold;font-stretch:normal;font-size:8px;font-family:Homenaje;-inkscape-font-specification:'Homenaje Bold';stroke-width:0.99999994"
       id="path1367" /><path
       d="m 354.48476,328.416 q 0.456,0 0.656,-0.272 0.208,-0.272 0.208,-0.632 0,-0.36 -0.136,-0.608 -0.128,-0.256 -0.328,-0.4 -0.2,-0.152 -0.432,-0.328 -0.232,-0.176 -0.432,-0.336 -0.2,-0.168 -0.336,-0.448 -0.128,-0.28 -0.128,-0.64 0,-0.64 0.384,-1.024 0.384,-0.384 1.064,-0.384 h 0.648 v 0.528 h -0.616 q -0.384,0 -0.584,0.248 -0.2,0.248 -0.2,0.536 0,0.288 0.128,0.496 0.136,0.208 0.336,0.344 0.2,0.136 0.432,0.32 0.24,0.184 0.44,0.376 0.2,0.184 0.328,0.504 0.136,0.32 0.136,0.728 0,0.752 -0.432,1.136 -0.424,0.384 -1.168,0.384 h -0.84 v -0.528 z"
       style="font-style:normal;font-variant:normal;font-weight:bold;font-stretch:normal;font-size:8px;font-family:Homenaje;-inkscape-font-specification:'Homenaje Bold';stroke-width:0.99999994"
       id="path1369" /><path
       d="m 356.83376,328.944 v -5.6 h 2.44 v 0.544 h -1.736 v 1.792 h 1.408 v 0.544 h -1.408 v 2.176 h 1.816 v 0.544 z"
       style="font-style:normal;font-variant:normal;font-weight:bold;font-stretch:normal;font-size:8px;font-family:Homenaje;-inkscape-font-specification:'Homenaje Bold';stroke-width:0.99999994"
       id="path1371" /><path
       d="m 360.95163,328.944 v -5.072 h -1.12 v -0.528 h 2.944 v 0.528 h -1.12 v 5.072 z"
       style="font-style:normal;font-variant:normal;font-weight:bold;font-stretch:normal;font-size:8px;font-family:Homenaje;-inkscape-font-specification:'Homenaje Bold';stroke-width:0.99999994"
       id="path1373" /></g><g
     aria-label="SEED"
     style="font-style:normal;font-variant:normal;font-weight:bold;font-stretch:normal;font-size:8px;line-height:1.25;font-family:Homenaje;-inkscape-font-specification:'Homenaje Bold';letter-spacing:0px;word-spacing:0px;fill:#ffffff;fill-opacity:1;stroke:none;stroke-width:0.99999994"
     id="text5443-7-5-4-06"><path
       d="m 290.42799,235.472 q 0.456,0 0.656,-0.272 0.208,-0.272 0.208,-0.632 0,-0.36 -0.136,-0.608 -0.128,-0.256 -0.328,-0.4 -0.2,-0.152 -0.432,-0.328 -0.232,-0.176 -0.432,-0.336 -0.2,-0.168 -0.336,-0.448 -0.128,-0.28 -0.128,-0.64 0,-0.64 0.384,-1.024 0.384,-0.384 1.064,-0.384 h 0.648 v 0.528 h -0.616 q -0.384,0 -0.584,0.248 -0.2,0.248 -0.2,0.536 0,0.288 0.128,0.496 0.136,0.208 0.336,0.344 0.2,0.136 0.432,0.32 0.24,0.184 0.44,0.376 0.2,0.184 0.328,0.504 0.136,0.32 0.136,0.728 0,0.752 -0.432,1.136 -0.424,0.384 -1.168,0.384 h -0.84 v -0.528 z"
       style="font-style:normal;font-variant:normal;font-weight:bold;font-stretch:normal;font-size:8px;font-family:Homenaje;-inkscape-font-specification:'Homenaje Bold';stroke-width:0.99999994"
       id="path1376" /><path
       d="m 292.77699,236 v -5.6 h 2.44 v 0.544 h -1.736 v 1.792 h 1.408 v 0.544 h -1.408 v 2.176 h 1.816 V 236 Z"
       style="font-style:normal;font-variant:normal;font-weight:bold;font-stretch:normal;font-size:8px;font-family:Homenaje;-inkscape-font-specification:'Homenaje Bold';stroke-width:0.99999994"
       id="path1378" /><path
       d="m 296.19887,236 v -5.6 h 2.44 v 0.544 h -1.736 v 1.792 h 1.408 v 0.544 h -1.408 v 2.176 h 1.816 V 236 Z"
       style="font-style:normal;font-variant:normal;font-weight:bold;font-stretch:normal;font-size:8px;font-family:Homenaje;-inkscape-font-specification:'Homenaje Bold';stroke-width:0.99999994"
       id="path1380" /><path
       d="m 300.32474,235.456 h 0.68 q 0.368,0 0.592,-0.208 0.232,-0.216 0.232,-0.568 v -2.96 q 0,-0.352 -0.232,-0.56 -0.224,-0.216 -0.592,-0.216 h -0.68 z m -0.712,0.544 v -5.6 h 1.392 q 0.728,0 1.128,0.368 0.4,0.368 0.4,1.08 v 2.704 q 0,0.712 -0.4,1.08 -0.4,0.36 -1.128,0.368 z"
       style="font-style:normal;font-variant:normal;font-weight:bold;font-stretch:normal;font-size:8px;font-family:Homenaje;-inkscape-font-specification:'Homenaje Bold';stroke-width:0.99999994"
       id="path1382" /></g><g
     id="g1411"
     transform="translate(6,-38.2612)"><path
       id="rect4735-3-2"
       d="m 331.5,272.2612 h 44 v 22 h -44 z"
       style="fill:#b1b1b1;fill-opacity:1;stroke-width:0.4688884"
       inkscape:connector-curvature="0" /><path
       id="rect4735-7"
       d="m 332.5,273.2612 h 42 v 20 h -42 z"
       style="fill:#323232;fill-opacity:1;stroke-width:0.4367888"
       inkscape:connector-curvature="0" /></g><g
     aria-label="MODE"
     style="font-style:normal;font-variant:normal;font-weight:bold;font-stretch:normal;font-size:8px;line-height:1.25;font-family:Homenaje;-inkscape-font-specification:'Homenaje Bold';letter-spacing:0px;word-spacing:0px;fill:#ffffff;fill-opacity:1;stroke:none;stroke-width:0.99999994"
     id="text5443-7-5-4-0-7"
     transform="translate(-1)"><path
       d="M 361.204,467.944 H 360.5 v -5.6 h 1.064 l 1.072,3.312 h 0.056 l 1.096,-3.312 h 1.024 v 5.6 h -0.704 v -4.76 l -1.072,3.272 h -0.76 l -1.072,-3.28 z"
       style="font-style:normal;font-variant:normal;font-weight:bold;font-stretch:normal;font-size:8px;font-family:Homenaje;-inkscape-font-specification:'Homenaje Bold';stroke-width:0.99999994"
       id="path1385"
       inkscape:connector-curvature="0" /><path
       d="m 368.7165,466.56 q 0,0.68 -0.392,1.064 -0.392,0.376 -1.144,0.376 -0.744,0 -1.136,-0.376 -0.392,-0.384 -0.392,-1.064 v -2.832 q 0,-0.68 0.392,-1.056 0.392,-0.384 1.136,-0.384 0.752,0 1.144,0.384 0.392,0.376 0.392,1.056 z m -2.36,0.136 q 0,0.368 0.232,0.576 0.24,0.2 0.592,0.2 0.352,0 0.592,-0.2 0.24,-0.208 0.24,-0.576 v -3.104 q 0,-0.368 -0.24,-0.568 -0.24,-0.208 -0.592,-0.208 -0.352,0 -0.592,0.208 -0.232,0.2 -0.232,0.568 z"
       style="font-style:normal;font-variant:normal;font-weight:bold;font-stretch:normal;font-size:8px;font-family:Homenaje;-inkscape-font-specification:'Homenaje Bold';stroke-width:0.99999994"
       id="path1387"
       inkscape:connector-curvature="0" /><path
       d="m 370.3465,467.4 h 0.68 q 0.368,0 0.592,-0.208 0.232,-0.216 0.232,-0.568 v -2.96 q 0,-0.352 -0.232,-0.56 -0.224,-0.216 -0.592,-0.216 h -0.68 z m -0.712,0.544 v -5.6 h 1.392 q 0.728,0 1.128,0.368 0.4,0.368 0.4,1.08 v 2.704 q 0,0.712 -0.4,1.08 -0.4,0.36 -1.128,0.368 z"
       style="font-style:normal;font-variant:normal;font-weight:bold;font-stretch:normal;font-size:8px;font-family:Homenaje;-inkscape-font-specification:'Homenaje Bold';stroke-width:0.99999994"
       id="path1389"
       inkscape:connector-curvature="0" /><path
       d="m 373.48625,467.944 v -5.6 h 2.44 v 0.544 h -1.736 v 1.792 h 1.408 v 0.544 h -1.408 v 2.176 h 1.816 v 0.544 z"
       style="font-style:normal;font-variant:normal;font-weight:bold;font-stretch:normal;font-size:8px;font-family:Homenaje;-inkscape-font-specification:'Homenaje Bold';stroke-width:0.99999994"
       id="path1391"
       inkscape:connector-curvature="0" /></g></svg>