<?xml version="1.0" encoding="UTF-8" standalone="no"?>
<!-- Generator: Adobe Illustrator 18.1.1, SVG Export Plug-In . SVG Version: 6.00 Build 0)  -->

<svg
   xmlns:dc="http://purl.org/dc/elements/1.1/"
   xmlns:cc="http://creativecommons.org/ns#"
   xmlns:rdf="http://www.w3.org/1999/02/22-rdf-syntax-ns#"
   xmlns:svg="http://www.w3.org/2000/svg"
   xmlns="http://www.w3.org/2000/svg"
   xmlns:xlink="http://www.w3.org/1999/xlink"
   xmlns:sodipodi="http://sodipodi.sourceforge.net/DTD/sodipodi-0.dtd"
   xmlns:inkscape="http://www.inkscape.org/namespaces/inkscape"
   version="1.1"
   id="svg4541"
   inkscape:version="0.92.2 (5c3e80d, 2017-08-06)"
   sodipodi:docname="SeedsOfChangeGateExpander.svg"
   x="0px"
   y="0px"
   viewBox="283.5 206 105 380"
   enable-background="new 283.5 206 90 380"
   xml:space="preserve"
   width="105"
   height="380"><metadata
     id="metadata1113"><rdf:RDF><cc:Work
         rdf:about=""><dc:format>image/svg+xml</dc:format><dc:type
           rdf:resource="http://purl.org/dc/dcmitype/StillImage" /><dc:title></dc:title></cc:Work></rdf:RDF></metadata><defs
     id="defs1111"><linearGradient
       inkscape:collect="always"
       xlink:href="#linearGradient4047"
       id="linearGradient4049"
       x1="35.418064"
       y1="158.3329"
       x2="35.219627"
       y2="50.462322"
       gradientUnits="userSpaceOnUse"
       gradientTransform="matrix(1.1006166,0,0,3.7850074,244.73672,14.999728)" /><linearGradient
       inkscape:collect="always"
       id="linearGradient4047"><stop
         style="stop-color:#202022;stop-opacity:1;"
         offset="0"
         id="stop3387" /><stop
         style="stop-color:#202025;stop-opacity:1;"
         offset=".3"
         id="stop3388" /><stop
         style="stop-color:#08006f;stop-opacity:1;"
         offset="1"
         id="stop3389" /></linearGradient></defs><path
     inkscape:connector-curvature="0"
     id="path33493"
     d="m 283.5,206 h 105 v 380 h -105 z m 0,0"
     style="fill:url(#linearGradient4049);fill-opacity:1;fill-rule:nonzero;stroke:none;stroke-width:0.87441283"
     inkscape:export-filename="/home/vortico/pics/tmp/LFOs.png"
     inkscape:export-xdpi="150.22649"
     inkscape:export-ydpi="150.22649" /><sodipodi:namedview
     inkscape:snap-bbox-edge-midpoints="true"
     inkscape:pageopacity="0"
     inkscape:snap-others="true"
     inkscape:snap-object-midpoints="true"
     inkscape:snap-text-baseline="false"
     inkscape:snap-midpoints="true"
     inkscape:snap-nodes="true"
     inkscape:snap-global="true"
     inkscape:snap-smooth-nodes="true"
     inkscape:object-paths="false"
     inkscape:snap-bbox="true"
     inkscape:bbox-nodes="true"
     inkscape:current-layer="svg4541"
     inkscape:window-maximized="1"
     inkscape:window-y="-13"
     inkscape:window-x="-13"
     inkscape:window-height="2115"
     inkscape:window-width="3840"
     inkscape:pageshadow="2"
     units="px"
     inkscape:cy="255.69742"
     guidetolerance="10"
     gridtolerance="10"
     inkscape:cx="-34.294846"
     showgrid="false"
     id="namedview10"
     pagecolor="#ffffff"
     objecttolerance="10"
     borderopacity="1"
     bordercolor="#666666"
     inkscape:zoom="5.656854" /><g
     id="g3774"
     display="none"
     style="display:none"><path
       id="path3762"
       inkscape:connector-curvature="0"
       display="inline"
       d="m 306.6,109.8 -78.2,52.1"
       style="display:inline;fill:none;stroke:#000000;stroke-width:0.26460001" /><path
       id="path3764"
       inkscape:connector-curvature="0"
       display="inline"
       d="m 306.6,109.8 -26.1,52.1"
       style="display:inline;fill:none;stroke:#000000;stroke-width:0.26460001" /><path
       id="path3766"
       inkscape:connector-curvature="0"
       display="inline"
       d="m 306.6,109.8 26.1,52.1"
       style="display:inline;fill:none;stroke:#000000;stroke-width:0.26460001" /><path
       id="path3768"
       inkscape:connector-curvature="0"
       display="inline"
       d="m 306.6,109.8 78.2,52.1"
       style="display:inline;fill:none;stroke:#000000;stroke-width:0.26460001" /></g><g
     id="g3755"
     display="none"
     style="display:none"><path
       id="path3749"
       sodipodi:nodetypes="cccc"
       inkscape:connector-curvature="0"
       display="inline"
       d="m 332.7,137.3 v -27.5 h 52.5 v 27.5"
       style="display:inline;fill:none;stroke:#000000;stroke-width:0.26460001" /><path
       id="path3740"
       sodipodi:nodetypes="cccc"
       inkscape:connector-curvature="0"
       display="inline"
       d="M 228.5,137.3 V 109.8 H 281 v 27.5"
       style="display:inline;fill:none;stroke:#000000;stroke-width:0.26460001" /></g><g
     id="layer1"
     inkscape:label="Pins"
     display="none"
     style="display:none"><g
       id="g3088"
       transform="matrix(0.27191367,0,0,-0.27191367,-65.704999,518.54402)"
       display="inline"
       style="display:inline"><path
         id="path4639"
         inkscape:connector-curvature="0"
         d="m 1369.3,1412.6 c -49.8,0 -90.5,40.6 -90.5,90.5 0,49.9 40.6,90.5 90.5,90.5 49.8,0 90.5,-40.6 90.5,-90.5 0,-49.9 -40.5,-90.5 -90.5,-90.5"
         style="fill:#e7e7e7;stroke:#909290;stroke-width:0.97299999" /><path
         id="path4647"
         inkscape:connector-curvature="0"
         d="m 1369.3,1438 c -35.8,0 -65.2,29.2 -65.2,65.2 0,35.8 29.2,65.2 65.2,65.2 35.8,0 65.2,-29.2 65.2,-65.2 0,-36 -29.2,-65.2 -65.2,-65.2"
         style="fill:#e7e7e7;stroke:#909290;stroke-width:0.97299999" /><path
         id="path4655"
         inkscape:connector-curvature="0"
         d="m 1409.5,1503.1 c 0,-22.1 -17.9,-40.2 -40.2,-40.2 -22.1,0 -40.2,17.9 -40.2,40.2 0,22.3 17.9,40.2 40.2,40.2 22.3,0 40.2,-17.9 40.2,-40.2"
         style="stroke:#909290;stroke-width:0.97299999" /></g><g
       id="g3778"
       transform="matrix(0.27191367,0,0,-0.27191367,-75.626874,525.1586)"
       display="inline"
       style="display:inline"><path
         id="path3772"
         inkscape:connector-curvature="0"
         d="m 1118.4,1245.3 c -49.8,0 -90.5,40.6 -90.5,90.5 0,49.8 40.6,90.5 90.5,90.5 49.8,0 90.5,-40.6 90.5,-90.5 -0.1,-49.8 -40.5,-90.5 -90.5,-90.5"
         style="fill:#e7e7e7;stroke:#909290;stroke-width:0.97299999" /><path
         id="path3774"
         inkscape:connector-curvature="0"
         d="m 1118.4,1270.6 c -35.8,0 -65.2,29.2 -65.2,65.2 0,35.8 29.2,65.2 65.2,65.2 35.8,0 65.2,-29.2 65.2,-65.2 0,-35.9 -29.2,-65.2 -65.2,-65.2"
         style="fill:#e7e7e7;stroke:#909290;stroke-width:0.97299999" /><path
         id="path3776"
         inkscape:connector-curvature="0"
         d="m 1158.6,1335.8 c 0,-22.1 -17.9,-40.2 -40.2,-40.2 -22.1,0 -40.2,17.9 -40.2,40.2 0,22.3 17.9,40.2 40.2,40.2 22.3,0 40.2,-17.9 40.2,-40.2"
         style="stroke:#909290;stroke-width:0.97299999" /></g><g
       id="g3786"
       transform="matrix(0.27191367,0,0,-0.27191367,-69.01229,525.1586)"
       display="inline"
       style="display:inline"><path
         id="path3780"
         inkscape:connector-curvature="0"
         d="m 1285.6,1245.3 c -49.8,0 -90.5,40.6 -90.5,90.5 0,49.8 40.6,90.5 90.5,90.5 49.8,0 90.5,-40.6 90.5,-90.5 0,-49.8 -40.5,-90.5 -90.5,-90.5"
         style="fill:#e7e7e7;stroke:#909290;stroke-width:0.97299999" /><path
         id="path3782"
         inkscape:connector-curvature="0"
         d="m 1285.6,1270.6 c -35.8,0 -65.2,29.2 -65.2,65.2 0,35.8 29.2,65.2 65.2,65.2 35.8,0 65.2,-29.2 65.2,-65.2 0.1,-35.9 -29.1,-65.2 -65.2,-65.2"
         style="fill:#e7e7e7;stroke:#909290;stroke-width:0.97299999" /><path
         id="path3784"
         inkscape:connector-curvature="0"
         d="m 1325.8,1335.8 c 0,-22.1 -17.9,-40.2 -40.2,-40.2 -22.1,0 -40.2,17.9 -40.2,40.2 0,22.3 17.9,40.2 40.2,40.2 22.3,0 40.2,-17.9 40.2,-40.2"
         style="stroke:#909290;stroke-width:0.97299999" /></g><g
       id="g3794"
       transform="matrix(0.27191367,0,0,-0.27191367,-62.397707,525.1586)"
       display="inline"
       style="display:inline"><path
         id="path3788"
         inkscape:connector-curvature="0"
         d="m 1453.1,1245.3 c -49.8,0 -90.5,40.6 -90.5,90.5 0,49.8 40.6,90.5 90.5,90.5 49.8,0 90.5,-40.6 90.5,-90.5 0,-49.8 -40.7,-90.5 -90.5,-90.5"
         style="fill:#e7e7e7;stroke:#909290;stroke-width:0.97299999" /><path
         id="path3790"
         inkscape:connector-curvature="0"
         d="m 1453.1,1270.6 c -35.8,0 -65.2,29.2 -65.2,65.2 0,35.8 29.2,65.2 65.2,65.2 35.8,0 65.2,-29.2 65.2,-65.2 -0.2,-35.9 -29.4,-65.2 -65.2,-65.2"
         style="fill:#e7e7e7;stroke:#909290;stroke-width:0.97299999" /><path
         id="path3792"
         inkscape:connector-curvature="0"
         d="m 1493.1,1335.8 c 0,-22.1 -17.9,-40.2 -40.2,-40.2 -22.1,0 -40.2,17.9 -40.2,40.2 0,22.3 17.9,40.2 40.2,40.2 22.3,0 40.2,-17.9 40.2,-40.2"
         style="stroke:#909290;stroke-width:0.97299999" /></g><g
       id="g3802"
       transform="matrix(0.27191367,0,0,-0.27191367,-55.783123,525.1586)"
       display="inline"
       style="display:inline"><path
         id="path3796"
         inkscape:connector-curvature="0"
         d="m 1620.4,1245.3 c -49.8,0 -90.5,40.6 -90.5,90.5 0,49.8 40.6,90.5 90.5,90.5 49.8,0 90.5,-40.6 90.5,-90.5 -0.1,-49.8 -40.7,-90.5 -90.5,-90.5"
         style="fill:#e7e7e7;stroke:#909290;stroke-width:0.97299999" /><path
         id="path3798"
         inkscape:connector-curvature="0"
         d="m 1620.4,1270.6 c -35.8,0 -65.2,29.2 -65.2,65.2 0,35.8 29.2,65.2 65.2,65.2 35.8,0 65.2,-29.2 65.2,-65.2 -0.2,-35.9 -29.4,-65.2 -65.2,-65.2"
         style="fill:#e7e7e7;stroke:#909290;stroke-width:0.97299999" /><path
         id="path3800"
         inkscape:connector-curvature="0"
         d="m 1660.6,1335.8 c 0,-22.1 -17.9,-40.2 -40.2,-40.2 -22.1,0 -40.2,17.9 -40.2,40.2 0,22.3 17.9,40.2 40.2,40.2 22.1,0 40.2,-17.9 40.2,-40.2"
         style="stroke:#909290;stroke-width:0.97299999" /></g></g><g
     aria-label="SEEDS OF CHANGE"
     style="font-style:normal;font-variant:normal;font-weight:bold;font-stretch:normal;font-size:13.33333302px;line-height:1.25;font-family:Homenaje;-inkscape-font-specification:'Homenaje Bold';text-align:start;letter-spacing:0px;word-spacing:0px;text-anchor:start;fill:#ffffff;fill-opacity:1;stroke:none;stroke-width:0.99999994"
     id="text3885"><path
       d="m 294.90132,217.67067 q 0.836,0 1.20267,-0.49866 0.38133,-0.49867 0.38133,-1.15867 0,-0.66 -0.24933,-1.11467 -0.23467,-0.46933 -0.60133,-0.73333 -0.36667,-0.27867 -0.792,-0.60133 -0.42534,-0.32267 -0.792,-0.616 -0.36667,-0.308 -0.616,-0.82134 -0.23467,-0.51333 -0.23467,-1.17333 0,-1.17333 0.704,-1.87733 0.704,-0.70401 1.95067,-0.70401 h 1.188 v 0.96801 h -1.12934 q -0.704,0 -1.07066,0.45466 -0.36667,0.45467 -0.36667,0.98267 0,0.528 0.23467,0.90933 0.24933,0.38134 0.616,0.63067 0.36666,0.24933 0.792,0.58667 0.44,0.33733 0.80666,0.68933 0.36667,0.33733 0.60134,0.924 0.24933,0.58667 0.24933,1.33467 0,1.37866 -0.792,2.08266 -0.77733,0.704 -2.14133,0.704 h -1.54 v -0.968 z"
       style="font-style:normal;font-variant:normal;font-weight:bold;font-stretch:normal;font-size:14.66666698px;font-family:Homenaje;-inkscape-font-specification:'Homenaje Bold';text-align:start;text-anchor:start;stroke-width:0.99999994"
       id="path941" /><path
       d="M 299.20782,218.63867 V 208.372 h 4.47334 v 0.99734 h -3.18267 v 3.28533 h 2.58133 v 0.99734 h -2.58133 v 3.98933 h 3.32933 v 0.99733 z"
       style="font-style:normal;font-variant:normal;font-weight:bold;font-stretch:normal;font-size:14.66666698px;font-family:Homenaje;-inkscape-font-specification:'Homenaje Bold';text-align:start;text-anchor:start;stroke-width:0.99999994"
       id="path943" /><path
       d="M 305.48126,218.63867 V 208.372 h 4.47333 v 0.99734 h -3.18266 v 3.28533 h 2.58133 v 0.99734 h -2.58133 v 3.98933 h 3.32933 v 0.99733 z"
       style="font-style:normal;font-variant:normal;font-weight:bold;font-stretch:normal;font-size:14.66666698px;font-family:Homenaje;-inkscape-font-specification:'Homenaje Bold';text-align:start;text-anchor:start;stroke-width:0.99999994"
       id="path945" /><path
       d="m 313.04537,217.64134 h 1.24666 q 0.67467,0 1.08534,-0.38133 0.42533,-0.396 0.42533,-1.04134 v -5.42666 q 0,-0.64534 -0.42533,-1.02667 -0.41067,-0.396 -1.08534,-0.396 h -1.24666 z m -1.30534,0.99733 V 208.372 h 2.552 q 1.33467,0 2.068,0.67467 0.73334,0.67467 0.73334,1.98 v 4.95734 q 0,1.30533 -0.73334,1.98 -0.73333,0.66 -2.068,0.67466 z"
       style="font-style:normal;font-variant:normal;font-weight:bold;font-stretch:normal;font-size:14.66666698px;font-family:Homenaje;-inkscape-font-specification:'Homenaje Bold';text-align:start;text-anchor:start;stroke-width:0.99999994"
       id="path947" /><path
       d="m 320.22424,217.67067 q 0.836,0 1.20267,-0.49866 0.38133,-0.49867 0.38133,-1.15867 0,-0.66 -0.24933,-1.11467 -0.23467,-0.46933 -0.60134,-0.73333 -0.36666,-0.27867 -0.792,-0.60133 -0.42533,-0.32267 -0.792,-0.616 -0.36666,-0.308 -0.616,-0.82134 -0.23466,-0.51333 -0.23466,-1.17333 0,-1.17333 0.704,-1.87733 0.704,-0.70401 1.95066,-0.70401 h 1.188 v 0.96801 h -1.12933 q -0.704,0 -1.07067,0.45466 -0.36666,0.45467 -0.36666,0.98267 0,0.528 0.23466,0.90933 0.24934,0.38134 0.616,0.63067 0.36667,0.24933 0.792,0.58667 0.44,0.33733 0.80667,0.68933 0.36667,0.33733 0.60133,0.924 0.24934,0.58667 0.24934,1.33467 0,1.37866 -0.792,2.08266 -0.77734,0.704 -2.14134,0.704 h -1.54 v -0.968 z"
       style="font-style:normal;font-variant:normal;font-weight:bold;font-stretch:normal;font-size:14.66666698px;font-family:Homenaje;-inkscape-font-specification:'Homenaje Bold';text-align:start;text-anchor:start;stroke-width:0.99999994"
       id="path949" /><path
       d="m 330.7778,216.56267 q 0,1.02 -0.588,1.596 -0.588,0.564 -1.716,0.564 -1.116,0 -1.704,-0.564 -0.588,-0.576 -0.588,-1.596 v -4.248 q 0,-1.02 0.588,-1.584 0.588,-0.576 1.704,-0.576 1.128,0 1.716,0.576 0.588,0.564 0.588,1.584 z m -3.54,0.204 q 0,0.552 0.348,0.864 0.36,0.3 0.888,0.3 0.528,0 0.888,-0.3 0.36,-0.312 0.36,-0.864 v -4.656 q 0,-0.552 -0.36,-0.852 -0.36,-0.312 -0.888,-0.312 -0.528,0 -0.888,0.312 -0.348,0.3 -0.348,0.852 z"
       style="font-size:12px"
       id="path951" /><path
       d="m 332.1668,218.63867 v -8.4 h 3.54 v 0.816 h -2.484 v 2.88 h 1.872 v 0.816 h -1.872 v 3.888 z"
       style="font-size:12px"
       id="path953" /><path
       d="m 343.55793,217.67067 v 0.968 h -1.96533 q -1.33467,0 -2.06801,-0.67466 -0.73333,-0.67467 -0.73333,-1.98 v -4.95734 q 0,-1.30533 0.73333,-1.98 0.73334,-0.67467 2.06801,-0.67467 h 1.96533 v 0.96801 h -1.96533 q -0.67467,0 -1.10001,0.396 -0.41066,0.38133 -0.41066,1.02666 v 5.48534 q 0,0.64533 0.41066,1.04133 0.42534,0.38133 1.10001,0.38133 z"
       style="font-style:normal;font-variant:normal;font-weight:bold;font-stretch:normal;font-size:14.66666698px;font-family:Homenaje;-inkscape-font-specification:'Homenaje Bold';text-align:start;text-anchor:start;stroke-width:0.99999994"
       id="path955" /><path
       d="m 349.14111,213.68134 h -2.91866 v 4.95733 h -1.29067 V 208.372 h 1.29067 v 4.34134 h 2.91866 V 208.372 h 1.29067 v 10.26667 h -1.29067 z"
       style="font-style:normal;font-variant:normal;font-weight:bold;font-stretch:normal;font-size:14.66666698px;font-family:Homenaje;-inkscape-font-specification:'Homenaje Bold';text-align:start;text-anchor:start;stroke-width:0.99999994"
       id="path957" /><path
       d="m 354.12022,208.372 h 1.95067 l 2.22933,10.26667 h -1.20267 l -0.71866,-3.02133 h -2.66934 l -0.66,3.02133 h -1.24666 z m 2.03867,6.24801 -1.056,-5.28 h -0.10267 l -1.07067,5.28 z"
       style="font-style:normal;font-variant:normal;font-weight:bold;font-stretch:normal;font-size:14.66666698px;font-family:Homenaje;-inkscape-font-specification:'Homenaje Bold';text-align:start;text-anchor:start;stroke-width:0.99999994"
       id="path959" /><path
       d="m 365.39041,218.63867 h -1.848 l -2.71333,-9.328 v 9.328 h -1.29067 V 208.372 h 2.156 l 2.39067,8.87334 V 208.372 h 1.30533 z"
       style="font-style:normal;font-variant:normal;font-weight:bold;font-stretch:normal;font-size:14.66666698px;font-family:Homenaje;-inkscape-font-specification:'Homenaje Bold';text-align:start;text-anchor:start;stroke-width:0.99999994"
       id="path961" /><path
       d="m 372.3761,218.63867 h -2.596 q -1.33467,0 -2.068,-0.67466 -0.73333,-0.67467 -0.73333,-1.98 v -4.972 q 0,-1.29067 0.792,-1.96534 0.792,-0.67467 2.156,-0.67467 h 2.156 v 0.98267 h -2.30267 q -0.67467,0 -1.1,0.396 -0.41067,0.38134 -0.41067,1.02667 v 5.47067 q 0,0.66 0.396,1.04133 0.396,0.38133 1.056,0.38133 h 1.364 v -4.03333 h -1.32 v -0.968 h 2.61067 z"
       style="font-style:normal;font-variant:normal;font-weight:bold;font-stretch:normal;font-size:14.66666698px;font-family:Homenaje;-inkscape-font-specification:'Homenaje Bold';text-align:start;text-anchor:start;stroke-width:0.99999994"
       id="path963" /><path
       d="M 374.17918,218.63867 V 208.372 h 4.47333 v 0.99734 h -3.18266 v 3.28533 h 2.58133 v 0.99734 h -2.58133 v 3.98933 h 3.32933 v 0.99733 z"
       style="font-style:normal;font-variant:normal;font-weight:bold;font-stretch:normal;font-size:14.66666698px;font-family:Homenaje;-inkscape-font-specification:'Homenaje Bold';text-align:start;text-anchor:start;stroke-width:0.99999994"
       id="path965" /></g><g
     aria-label="GATE"
     style="font-style:normal;font-variant:normal;font-weight:bold;font-stretch:normal;font-size:8px;line-height:1.25;font-family:Homenaje;-inkscape-font-specification:'Homenaje Bold';letter-spacing:0px;word-spacing:0px;fill:#ffffff;fill-opacity:1;stroke:none;stroke-width:0.99999994"
     id="text5443-7-5-4-0"><path
       d="m 367.44401,247 h -1.416 q -0.728,0 -1.128,-0.368 -0.4,-0.368 -0.4,-1.08 v -2.712 q 0,-0.704 0.432,-1.072 0.432,-0.368 1.176,-0.368 h 1.176 v 0.536 h -1.256 q -0.368,0 -0.6,0.216 -0.224,0.208 -0.224,0.56 v 2.984 q 0,0.36 0.216,0.568 0.216,0.208 0.576,0.208 h 0.744 v -2.2 h -0.72 v -0.528 h 1.424 z"
       style="font-style:normal;font-variant:normal;font-weight:bold;font-stretch:normal;font-size:8px;font-family:Homenaje;-inkscape-font-specification:'Homenaje Bold';stroke-width:0.99999994"
       id="path968" /><path
       d="m 369.26751,241.4 h 1.064 l 1.216,5.6 h -0.656 l -0.392,-1.648 h -1.456 l -0.36,1.648 h -0.68 z m 1.112,3.408 -0.576,-2.88 h -0.056 l -0.584,2.88 z"
       style="font-style:normal;font-variant:normal;font-weight:bold;font-stretch:normal;font-size:8px;font-family:Homenaje;-inkscape-font-specification:'Homenaje Bold';stroke-width:0.99999994"
       id="path970" /><path
       d="m 372.62351,247 v -5.072 h -1.12 V 241.4 h 2.944 v 0.528 h -1.12 V 247 Z"
       style="font-style:normal;font-variant:normal;font-weight:bold;font-stretch:normal;font-size:8px;font-family:Homenaje;-inkscape-font-specification:'Homenaje Bold';stroke-width:0.99999994"
       id="path972" /><path
       d="m 375.19313,247 v -5.6 h 2.44 v 0.544 h -1.736 v 1.792 h 1.408 v 0.544 h -1.408 v 2.176 h 1.816 V 247 Z"
       style="font-style:normal;font-variant:normal;font-weight:bold;font-stretch:normal;font-size:8px;font-family:Homenaje;-inkscape-font-specification:'Homenaje Bold';stroke-width:0.99999994"
       id="path974" /></g><g
     aria-label="PROBABILITY"
     style="font-style:normal;font-variant:normal;font-weight:bold;font-stretch:normal;font-size:8px;line-height:1.25;font-family:Homenaje;-inkscape-font-specification:'Homenaje Bold';letter-spacing:0px;word-spacing:0px;fill:#ffffff;fill-opacity:1;stroke:none;stroke-width:0.99999994"
     id="text5443-7-5-4-4-7-9"><path
       d="m 292.20399,241.872 v 2.08 h 0.512 q 0.456,0 0.704,-0.312 0.256,-0.312 0.256,-0.808 0,-0.96 -0.96,-0.96 z m 2.176,0.96 q 0,0.776 -0.424,1.216 -0.416,0.432 -1.192,0.432 h -0.56 v 2.464 h -0.704 v -5.6 h 1.416 q 1.464,0 1.464,1.488 z"
       style="font-style:normal;font-variant:normal;font-weight:bold;font-stretch:normal;font-size:8px;font-family:Homenaje;-inkscape-font-specification:'Homenaje Bold';stroke-width:0.99999994"
       id="path977" /><path
       d="m 295.82899,241.872 v 2.088 h 0.568 q 0.456,0 0.704,-0.312 0.256,-0.32 0.256,-0.816 0,-0.96 -0.96,-0.96 z m -0.016,2.616 v 2.456 h -0.688 v -5.6 h 1.48 q 1.44,0 1.44,1.488 0,0.56 -0.216,0.976 -0.216,0.416 -0.616,0.576 l 1.112,2.56 h -0.688 l -1.088,-2.456 z"
       style="font-style:normal;font-variant:normal;font-weight:bold;font-stretch:normal;font-size:8px;font-family:Homenaje;-inkscape-font-specification:'Homenaje Bold';stroke-width:0.99999994"
       id="path979" /><path
       d="m 301.88649,245.56 q 0,0.68 -0.392,1.064 -0.392,0.376 -1.144,0.376 -0.744,0 -1.136,-0.376 -0.392,-0.384 -0.392,-1.064 v -2.832 q 0,-0.68 0.392,-1.056 0.392,-0.384 1.136,-0.384 0.752,0 1.144,0.384 0.392,0.376 0.392,1.056 z m -2.36,0.136 q 0,0.368 0.232,0.576 0.24,0.2 0.592,0.2 0.352,0 0.592,-0.2 0.24,-0.208 0.24,-0.576 v -3.104 q 0,-0.368 -0.24,-0.568 -0.24,-0.208 -0.592,-0.208 -0.352,0 -0.592,0.208 -0.232,0.2 -0.232,0.568 z"
       style="font-style:normal;font-variant:normal;font-weight:bold;font-stretch:normal;font-size:8px;font-family:Homenaje;-inkscape-font-specification:'Homenaje Bold';stroke-width:0.99999994"
       id="path981" /><path
       d="m 303.51649,241.872 v 1.816 h 0.504 q 0.48,0 0.744,-0.24 0.264,-0.248 0.264,-0.712 0,-0.864 -1.008,-0.864 z m 1.616,2.096 q 0.312,0.168 0.512,0.504 0.208,0.336 0.208,0.68 0,0.344 -0.032,0.552 -0.032,0.208 -0.144,0.456 -0.104,0.24 -0.296,0.4 -0.432,0.384 -1.328,0.384 h -1.24 v -5.6 h 1.36 q 0.744,0 1.112,0.344 0.368,0.336 0.368,1.064 0,0.4 -0.152,0.736 -0.144,0.328 -0.368,0.48 z m -1.12,2.448 q 1.168,0 1.168,-1.12 0,-0.568 -0.344,-0.816 -0.344,-0.248 -0.816,-0.248 h -0.504 v 2.184 z"
       style="font-style:normal;font-variant:normal;font-weight:bold;font-stretch:normal;font-size:8px;font-family:Homenaje;-inkscape-font-specification:'Homenaje Bold';stroke-width:0.99999994"
       id="path983" /><path
       d="m 307.54311,241.344 h 1.064 l 1.216,5.6 h -0.656 l -0.392,-1.648 h -1.456 l -0.36,1.648 h -0.68 z m 1.112,3.408 -0.576,-2.88 h -0.056 l -0.584,2.88 z"
       style="font-style:normal;font-variant:normal;font-weight:bold;font-stretch:normal;font-size:8px;font-family:Homenaje;-inkscape-font-specification:'Homenaje Bold';stroke-width:0.99999994"
       id="path985" /><path
       d="m 311.26649,241.872 v 1.816 h 0.504 q 0.48,0 0.744,-0.24 0.264,-0.248 0.264,-0.712 0,-0.864 -1.008,-0.864 z m 1.616,2.096 q 0.312,0.168 0.512,0.504 0.208,0.336 0.208,0.68 0,0.344 -0.032,0.552 -0.032,0.208 -0.144,0.456 -0.104,0.24 -0.296,0.4 -0.432,0.384 -1.328,0.384 h -1.24 v -5.6 h 1.36 q 0.744,0 1.112,0.344 0.368,0.336 0.368,1.064 0,0.4 -0.152,0.736 -0.144,0.328 -0.368,0.48 z m -1.12,2.448 q 1.168,0 1.168,-1.12 0,-0.568 -0.344,-0.816 -0.344,-0.248 -0.816,-0.248 h -0.504 v 2.184 z"
       style="font-style:normal;font-variant:normal;font-weight:bold;font-stretch:normal;font-size:8px;font-family:Homenaje;-inkscape-font-specification:'Homenaje Bold';stroke-width:0.99999994"
       id="path987" /><path
       d="m 314.45311,246.944 v -5.6 h 0.704 v 5.6 z"
       style="font-style:normal;font-variant:normal;font-weight:bold;font-stretch:normal;font-size:8px;font-family:Homenaje;-inkscape-font-specification:'Homenaje Bold';stroke-width:0.99999994"
       id="path989" /><path
       d="m 316.32811,246.944 v -5.6 h 0.704 v 5.072 h 1.64 v 0.528 z"
       style="font-style:normal;font-variant:normal;font-weight:bold;font-stretch:normal;font-size:8px;font-family:Homenaje;-inkscape-font-specification:'Homenaje Bold';stroke-width:0.99999994"
       id="path991" /><path
       d="m 319.35936,246.944 v -5.6 h 0.704 v 5.6 z"
       style="font-style:normal;font-variant:normal;font-weight:bold;font-stretch:normal;font-size:8px;font-family:Homenaje;-inkscape-font-specification:'Homenaje Bold';stroke-width:0.99999994"
       id="path993" /><path
       d="m 321.93036,246.944 v -5.072 h -1.12 v -0.528 h 2.944 v 0.528 h -1.12 v 5.072 z"
       style="font-style:normal;font-variant:normal;font-weight:bold;font-stretch:normal;font-size:8px;font-family:Homenaje;-inkscape-font-specification:'Homenaje Bold';stroke-width:0.99999994"
       id="path995" /><path
       d="m 325.69199,246.944 h -0.704 v -2.224 l -1.128,-3.376 h 0.704 l 0.8,2.648 0.816,-2.648 h 0.704 l -1.192,3.376 z"
       style="font-style:normal;font-variant:normal;font-weight:bold;font-stretch:normal;font-size:8px;font-family:Homenaje;-inkscape-font-specification:'Homenaje Bold';stroke-width:0.99999994"
       id="path997" /></g><g
     style="font-style:normal;font-variant:normal;font-weight:bold;font-stretch:normal;font-size:8px;line-height:1.25;font-family:Arial;-inkscape-font-specification:'Arial Bold';text-align:center;letter-spacing:0px;word-spacing:0px;text-anchor:middle;fill:#000000;fill-opacity:1;stroke:none"
     id="flowRoot2224" /><g
     aria-label="GATE EXPANDER"
     style="font-style:normal;font-variant:normal;font-weight:bold;font-stretch:normal;font-size:13.33333302px;line-height:1.25;font-family:Homenaje;-inkscape-font-specification:'Homenaje Bold';text-align:start;letter-spacing:0px;word-spacing:0px;text-anchor:start;fill:#ffffff;fill-opacity:1;stroke:none;stroke-width:0.99999994"
     id="text3885-4"><path
       d="m 306.91601,230.2966 h -2.124 q -1.092,0 -1.692,-0.552 -0.6,-0.552 -0.6,-1.62 v -4.068 q 0,-1.056 0.648,-1.608 0.648,-0.552 1.764,-0.552 h 1.764 v 0.804 h -1.884 q -0.552,0 -0.9,0.324 -0.336,0.312 -0.336,0.84 v 4.476 q 0,0.54 0.324,0.852 0.324,0.312 0.864,0.312 h 1.116 v -3.3 h -1.08 v -0.792 h 2.136 z"
       style="font-style:normal;font-variant:normal;font-weight:bold;font-stretch:normal;font-size:12px;font-family:Homenaje;-inkscape-font-specification:'Homenaje Bold';text-align:start;text-anchor:start;stroke-width:0.99999994"
       id="path1001" /><path
       d="m 309.65126,221.8966 h 1.596 l 1.824,8.4 h -0.984 l -0.588,-2.472 h -2.184 l -0.54,2.472 h -1.02 z m 1.668,5.112 -0.864,-4.32 h -0.084 l -0.876,4.32 z"
       style="font-style:normal;font-variant:normal;font-weight:bold;font-stretch:normal;font-size:12px;font-family:Homenaje;-inkscape-font-specification:'Homenaje Bold';text-align:start;text-anchor:start;stroke-width:0.99999994"
       id="path1003" /><path
       d="m 314.68526,230.2966 v -7.608 h -1.68 v -0.792 h 4.416 v 0.792 h -1.68 v 7.608 z"
       style="font-style:normal;font-variant:normal;font-weight:bold;font-stretch:normal;font-size:12px;font-family:Homenaje;-inkscape-font-specification:'Homenaje Bold';text-align:start;text-anchor:start;stroke-width:0.99999994"
       id="path1005" /><path
       d="m 318.5397,230.2966 v -8.4 h 3.66 v 0.816 h -2.604 v 2.688 h 2.112 v 0.816 h -2.112 v 3.264 h 2.724 v 0.816 z"
       style="font-style:normal;font-variant:normal;font-weight:bold;font-stretch:normal;font-size:12px;font-family:Homenaje;-inkscape-font-specification:'Homenaje Bold';text-align:start;text-anchor:start;stroke-width:0.99999994"
       id="path1007" /><path
       d="m 325.4772,230.2966 v -8.4 h 3.66 v 0.816 h -2.604 v 2.688 h 2.112 v 0.816 h -2.112 v 3.264 h 2.724 v 0.816 z"
       style="font-style:normal;font-variant:normal;font-weight:bold;font-stretch:normal;font-size:12px;font-family:Homenaje;-inkscape-font-specification:'Homenaje Bold';text-align:start;text-anchor:start;stroke-width:0.99999994"
       id="path1009" /><path
       d="m 332.59001,226.9366 -1.44,3.36 h -1.056 l 1.896,-4.416 -1.656,-3.984 h 1.056 l 1.2,2.892 1.224,-2.892 h 1.056 l -1.74,3.984 1.944,4.416 h -1.068 z"
       style="font-style:normal;font-variant:normal;font-weight:bold;font-stretch:normal;font-size:12px;font-family:Homenaje;-inkscape-font-specification:'Homenaje Bold';text-align:start;text-anchor:start;stroke-width:0.99999994"
       id="path1011" /><path
       d="m 337.36132,222.6886 v 3.12 h 0.768 q 0.684,0 1.056,-0.468 0.384,-0.468 0.384,-1.212 0,-1.44 -1.44,-1.44 z m 3.264,1.44 q 0,1.164 -0.636,1.824 -0.624,0.648 -1.788,0.648 h -0.84 v 3.696 h -1.056 v -8.4 h 2.124 q 2.196,0 2.196,2.232 z"
       style="font-style:normal;font-variant:normal;font-weight:bold;font-stretch:normal;font-size:12px;font-family:Homenaje;-inkscape-font-specification:'Homenaje Bold';text-align:start;text-anchor:start;stroke-width:0.99999994"
       id="path1013" /><path
       d="m 343.00282,221.8966 h 1.596 l 1.824,8.4 h -0.984 l -0.588,-2.472 h -2.184 l -0.54,2.472 h -1.02 z m 1.668,5.112 -0.864,-4.32 h -0.084 l -0.876,4.32 z"
       style="font-style:normal;font-variant:normal;font-weight:bold;font-stretch:normal;font-size:12px;font-family:Homenaje;-inkscape-font-specification:'Homenaje Bold';text-align:start;text-anchor:start;stroke-width:0.99999994"
       id="path1015" /><path
       d="m 352.22388,230.2966 h -1.512 l -2.22,-7.632 v 7.632 h -1.056 v -8.4 h 1.764 l 1.956,7.26 v -7.26 h 1.068 z"
       style="font-style:normal;font-variant:normal;font-weight:bold;font-stretch:normal;font-size:12px;font-family:Homenaje;-inkscape-font-specification:'Homenaje Bold';text-align:start;text-anchor:start;stroke-width:0.99999994"
       id="path1017" /><path
       d="m 354.93945,229.4806 h 1.02 q 0.552,0 0.888,-0.312 0.348,-0.324 0.348,-0.852 v -4.44 q 0,-0.528 -0.348,-0.84 -0.336,-0.324 -0.888,-0.324 h -1.02 z m -1.068,0.816 v -8.4 h 2.088 q 1.092,0 1.692,0.552 0.6,0.552 0.6,1.62 v 4.056 q 0,1.068 -0.6,1.62 -0.6,0.54 -1.692,0.552 z"
       style="font-style:normal;font-variant:normal;font-weight:bold;font-stretch:normal;font-size:12px;font-family:Homenaje;-inkscape-font-specification:'Homenaje Bold';text-align:start;text-anchor:start;stroke-width:0.99999994"
       id="path1019" /><path
       d="m 359.64907,230.2966 v -8.4 h 3.66 v 0.816 h -2.604 v 2.688 h 2.112 v 0.816 h -2.112 v 3.264 h 2.724 v 0.816 z"
       style="font-style:normal;font-variant:normal;font-weight:bold;font-stretch:normal;font-size:12px;font-family:Homenaje;-inkscape-font-specification:'Homenaje Bold';text-align:start;text-anchor:start;stroke-width:0.99999994"
       id="path1021" /><path
       d="m 365.83788,222.6886 v 3.132 h 0.852 q 0.684,0 1.056,-0.468 0.384,-0.48 0.384,-1.224 0,-1.44 -1.44,-1.44 z m -0.024,3.924 v 3.684 h -1.032 v -8.4 h 2.22 q 2.16,0 2.16,2.232 0,0.84 -0.324,1.464 -0.324,0.624 -0.924,0.864 l 1.668,3.84 h -1.032 l -1.632,-3.684 z"
       style="font-style:normal;font-variant:normal;font-weight:bold;font-stretch:normal;font-size:12px;font-family:Homenaje;-inkscape-font-specification:'Homenaje Bold';text-align:start;text-anchor:start;stroke-width:0.99999994"
       id="path1023" /></g><g
     aria-label="FW"
     transform="scale(1.0030227,0.99698641)"
     style="font-style:normal;font-variant:normal;font-weight:bold;font-stretch:normal;font-size:13.37363625px;line-height:1.25;font-family:Consolas;-inkscape-font-specification:'Consolas Bold';text-align:start;letter-spacing:0px;word-spacing:0px;text-anchor:start;fill:#00a3f2;fill-opacity:1;stroke:none;stroke-width:1.00302255"
     id="text3885-7"><path
       d="m 328.00775,584.76225 q 0.45471,-0.4547 0.72218,-0.80241 0.28084,-0.34772 0.42795,-0.64194 0.16049,-0.29422 0.20061,-0.54832 0.0535,-0.26747 0.0535,-0.56169 0,-0.36109 -0.17385,-0.86929 -0.17386,-0.50819 -0.38784,-1.08326 -0.21398,-0.57507 -0.38783,-1.17688 -0.17386,-0.60181 -0.17386,-1.15013 0,-0.29422 0.0936,-0.57507 0.10699,-0.28085 0.2541,-0.53495 0.16049,-0.26747 0.34772,-0.49482 0.18723,-0.24073 0.37446,-0.42796 -0.26747,-0.0535 -0.46808,-0.0802 -0.2006,-0.0401 -0.29422,-0.0401 -0.49482,0 -0.84254,0.26747 -0.33434,0.2541 -0.72217,0.64194 0,-0.45471 0.13373,-0.93616 0.14711,-0.49482 0.44133,-0.89603 0.29422,-0.40121 0.73555,-0.65531 0.45471,-0.2541 1.06989,-0.2541 0.42796,0 0.78905,0.0669 0.37446,0.0535 0.68205,0.13374 0.3076,0.0802 0.5617,0.14711 0.2541,0.0535 0.4547,0.0535 0.30759,0 0.53495,-0.0802 0.24072,-0.0936 0.46807,-0.32097 0,0.29422 -0.12036,0.66868 -0.10699,0.37447 -0.33434,0.72218 -0.21398,0.33434 -0.56169,0.57507 -0.34772,0.22735 -0.80242,0.22735 -0.22735,0 -0.52157,-0.0267 -0.28085,-0.0401 -0.58844,-0.0936 -0.0267,0.0936 -0.0401,0.17385 -0.0134,0.0802 -0.0267,0.14711 -0.0134,0.0802 -0.0134,0.14711 0,0.29422 0.0401,0.57507 0.0535,0.26747 0.14711,0.54832 h 2.70147 l -0.30759,0.90941 q -0.0401,0.17385 -0.0535,0.2541 -0.0134,0.0802 -0.0401,0.25409 l -0.49482,-0.34771 h -1.37749 q 0.29422,0.66868 0.54832,1.36411 0.2541,0.68206 0.2541,1.45773 0,0.69543 -0.28085,1.29724 -0.28084,0.58844 -0.74892,1.02977 -0.4547,0.44133 -1.05652,0.68206 -0.58844,0.25409 -1.217,0.25409 z"
       style="font-style:normal;font-variant:normal;font-weight:normal;font-stretch:normal;font-family:'Bradley Gratis';-inkscape-font-specification:'Bradley Gratis';text-align:start;text-anchor:start;fill:#00a3f2;fill-opacity:1;stroke-width:1.00302255"
       id="path1026" /><path
       d="m 336.06934,584.64189 q -0.72218,-0.52157 -1.23038,-1.11001 -0.50819,-0.60181 -0.81579,-1.24375 -0.30759,-0.64193 -0.4547,-1.29724 -0.13374,-0.66868 -0.13374,-1.31062 0,-0.62856 0.13374,-1.24375 0.13373,-0.62856 0.34771,-1.23037 0.22735,-0.61519 0.52157,-1.19025 0.29422,-0.58844 0.60182,-1.15014 h -0.0802 q -0.0401,0 -0.0936,0 -0.0401,-0.0134 -0.10699,-0.0134 -0.21398,0 -0.52157,0.0535 -0.29422,0.0535 -0.57507,0.26748 v -1.31062 h 2.80847 q -0.34772,0.60181 -0.60182,1.217 -0.24072,0.60182 -0.40121,1.17688 -0.14711,0.56169 -0.22735,1.06989 -0.0669,0.49483 -0.0669,0.89604 0,0.40121 0.0803,0.9629 0.0802,0.56169 0.29422,1.1635 0.22735,0.58844 0.60181,1.12339 0.38783,0.53495 1.00302,0.86929 l 0.40121,-0.29422 q -0.24072,-0.45471 -0.37446,-0.86929 -0.13374,-0.42796 -0.20061,-0.80242 -0.0535,-0.37446 -0.0669,-0.68205 -0.0134,-0.32097 -0.0134,-0.57507 0,-0.41458 0.10699,-0.93615 0.10699,-0.52158 0.3076,-1.08327 0.2006,-0.56169 0.48145,-1.13676 0.29422,-0.57506 0.6553,-1.12338 -0.50819,0 -0.84253,0.0802 -0.32097,0.0802 -0.54832,0.22735 v -1.28387 h 2.8887 q -0.24072,0.33434 -0.48145,0.7623 -0.22735,0.41458 -0.40121,0.90941 -0.17386,0.48145 -0.28084,1.02977 -0.10699,0.54831 -0.10699,1.12338 0,0.97628 0.17385,1.73857 0.17386,0.74893 0.48145,1.32399 0.3076,0.57507 0.72218,0.98965 0.41458,0.41459 0.88266,0.70881 v -8.58588 h 2.00605 v 8.03756 q 0,0.0936 -0.13374,0.26747 -0.13374,0.16048 -0.34771,0.37446 -0.20061,0.21398 -0.48146,0.46808 -0.26747,0.24072 -0.54831,0.48145 -0.66869,0.56169 -1.51123,1.23037 -0.6553,-0.50819 -1.12338,-1.00302 -0.46808,-0.49482 -0.80242,-0.9629 z"
       style="font-style:normal;font-variant:normal;font-weight:normal;font-stretch:normal;font-family:'Bradley Gratis';-inkscape-font-specification:'Bradley Gratis';text-align:start;text-anchor:start;fill:#00a3f2;fill-opacity:1;stroke-width:1.00302255"
       id="path1028" /></g><g
     aria-label="MODE"
     style="font-style:normal;font-variant:normal;font-weight:bold;font-stretch:normal;font-size:8px;line-height:1.25;font-family:Homenaje;-inkscape-font-specification:'Homenaje Bold';letter-spacing:0px;word-spacing:0px;fill:#ffffff;fill-opacity:1;stroke:none;stroke-width:0.99999994"
     id="text5443-7-5-4-0-8"><path
       d="M 344.204,246.944 H 343.5 v -5.6 h 1.064 l 1.072,3.312 h 0.056 l 1.096,-3.312 h 1.024 v 5.6 h -0.704 v -4.76 l -1.072,3.272 h -0.76 l -1.072,-3.28 z"
       style="font-style:normal;font-variant:normal;font-weight:bold;font-stretch:normal;font-size:8px;font-family:Homenaje;-inkscape-font-specification:'Homenaje Bold';stroke-width:0.99999994"
       id="path1031" /><path
       d="m 351.7165,245.56 q 0,0.68 -0.392,1.064 -0.392,0.376 -1.144,0.376 -0.744,0 -1.136,-0.376 -0.392,-0.384 -0.392,-1.064 v -2.832 q 0,-0.68 0.392,-1.056 0.392,-0.384 1.136,-0.384 0.752,0 1.144,0.384 0.392,0.376 0.392,1.056 z m -2.36,0.136 q 0,0.368 0.232,0.576 0.24,0.2 0.592,0.2 0.352,0 0.592,-0.2 0.24,-0.208 0.24,-0.576 v -3.104 q 0,-0.368 -0.24,-0.568 -0.24,-0.208 -0.592,-0.208 -0.352,0 -0.592,0.208 -0.232,0.2 -0.232,0.568 z"
       style="font-style:normal;font-variant:normal;font-weight:bold;font-stretch:normal;font-size:8px;font-family:Homenaje;-inkscape-font-specification:'Homenaje Bold';stroke-width:0.99999994"
       id="path1033" /><path
       d="m 353.3465,246.4 h 0.68 q 0.368,0 0.592,-0.208 0.232,-0.216 0.232,-0.568 v -2.96 q 0,-0.352 -0.232,-0.56 -0.224,-0.216 -0.592,-0.216 h -0.68 z m -0.712,0.544 v -5.6 h 1.392 q 0.728,0 1.128,0.368 0.4,0.368 0.4,1.08 v 2.704 q 0,0.712 -0.4,1.08 -0.4,0.36 -1.128,0.368 z"
       style="font-style:normal;font-variant:normal;font-weight:bold;font-stretch:normal;font-size:8px;font-family:Homenaje;-inkscape-font-specification:'Homenaje Bold';stroke-width:0.99999994"
       id="path1035" /><path
       d="m 356.48625,246.944 v -5.6 h 2.44 v 0.544 h -1.736 v 1.792 h 1.408 v 0.544 h -1.408 v 2.176 h 1.816 v 0.544 z"
       style="font-style:normal;font-variant:normal;font-weight:bold;font-stretch:normal;font-size:8px;font-family:Homenaje;-inkscape-font-specification:'Homenaje Bold';stroke-width:0.99999994"
       id="path1037" /></g></svg>