<?xml version="1.0" encoding="UTF-8" standalone="no"?>
<svg
   xmlns:dc="http://purl.org/dc/elements/1.1/"
   xmlns:cc="http://creativecommons.org/ns#"
   xmlns:rdf="http://www.w3.org/1999/02/22-rdf-syntax-ns#"
   xmlns:svg="http://www.w3.org/2000/svg"
   xmlns="http://www.w3.org/2000/svg"
   xmlns:xlink="http://www.w3.org/1999/xlink"
   xmlns:sodipodi="http://sodipodi.sourceforge.net/DTD/sodipodi-0.dtd"
   xmlns:inkscape="http://www.inkscape.org/namespaces/inkscape"
   height="380"
   width="120"
   xml:space="preserve"
   enable-background="new 283.5 206 90 380"
   viewBox="283.5 206 120 380"
   y="0px"
   x="0px"
   sodipodi:docname="SeedsOfChangeCVExpander.svg"
   inkscape:version="1.0 (4035a4fb49, 2020-05-01)"
   id="svg4541"
   version="1.1"><metadata
   id="metadata1113"><rdf:RDF><cc:Work
       rdf:about=""><dc:format>image/svg+xml</dc:format><dc:type
         rdf:resource="http://purl.org/dc/dcmitype/StillImage" /><dc:title></dc:title></cc:Work></rdf:RDF></metadata><defs
   id="defs1111"><linearGradient
   gradientTransform="matrix(1.2578475,0,0,3.7850074,239.1991,14.999728)"
   gradientUnits="userSpaceOnUse"
   y2="50.462322"
   x2="35.219627"
   y1="158.3329"
   x1="35.418064"
   id="linearGradient4049"
   xlink:href="#linearGradient4047"
   inkscape:collect="always" /><linearGradient
   id="linearGradient4047"
   inkscape:collect="always">
      <stop
   style="stop-color:#0c1622;stop-opacity:1"
   offset="0"
   id="stop3387" />
      <stop
   style="stop-color:#161625;stop-opacity:1"
   offset=".3"
   id="stop3388" />
      <stop
   style="stop-color:#081f35;stop-opacity:1"
   offset="1"
   id="stop3389" />
        </linearGradient>
         </defs><path
   inkscape:export-ydpi="150.22649"
   inkscape:export-xdpi="150.22649"
   inkscape:export-filename="/home/vortico/pics/tmp/LFOs.png"
   style="fill:url(#linearGradient4049);fill-opacity:1;fill-rule:nonzero;stroke:none;stroke-width:0.93478662"
   d="m 283.5,206 h 120 v 380 h -120 z m 0,0"
   id="path33493"
   inkscape:connector-curvature="0" /><sodipodi:namedview
   inkscape:document-rotation="0"
   inkscape:zoom="2.828427"
   bordercolor="#666666"
   borderopacity="1"
   objecttolerance="10"
   pagecolor="#ffffff"
   id="namedview10"
   showgrid="false"
   inkscape:cx="24.218236"
   gridtolerance="10"
   guidetolerance="10"
   inkscape:cy="75.738738"
   units="px"
   inkscape:pageshadow="2"
   inkscape:window-width="1920"
   inkscape:window-height="1058"
   inkscape:window-x="-6"
   inkscape:window-y="-6"
   inkscape:window-maximized="1"
   inkscape:current-layer="svg4541"
   inkscape:bbox-nodes="true"
   inkscape:snap-bbox="true"
   inkscape:object-paths="false"
   inkscape:snap-smooth-nodes="true"
   inkscape:snap-global="true"
   inkscape:snap-nodes="true"
   inkscape:snap-midpoints="true"
   inkscape:snap-text-baseline="false"
   inkscape:snap-object-midpoints="true"
   inkscape:snap-others="true"
   inkscape:pageopacity="0"
   inkscape:snap-bbox-edge-midpoints="true" /><g
   style="display:none"
   display="none"
   id="g3774"><path
     style="display:inline;fill:none;stroke:#000000;stroke-width:0.26460001"
     d="m 306.6,109.8 -78.2,52.1"
     display="inline"
     inkscape:connector-curvature="0"
     id="path3762" /><path
     style="display:inline;fill:none;stroke:#000000;stroke-width:0.26460001"
     d="m 306.6,109.8 -26.1,52.1"
     display="inline"
     inkscape:connector-curvature="0"
     id="path3764" /><path
     style="display:inline;fill:none;stroke:#000000;stroke-width:0.26460001"
     d="m 306.6,109.8 26.1,52.1"
     display="inline"
     inkscape:connector-curvature="0"
     id="path3766" /><path
     style="display:inline;fill:none;stroke:#000000;stroke-width:0.26460001"
     d="m 306.6,109.8 78.2,52.1"
     display="inline"
     inkscape:connector-curvature="0"
     id="path3768" /></g><g
   style="display:none"
   display="none"
   id="g3755"><path
     style="display:inline;fill:none;stroke:#000000;stroke-width:0.26460001"
     d="m 332.7,137.3 v -27.5 h 52.5 v 27.5"
     display="inline"
     inkscape:connector-curvature="0"
     sodipodi:nodetypes="cccc"
     id="path3749" /><path
     style="display:inline;fill:none;stroke:#000000;stroke-width:0.26460001"
     d="M 228.5,137.3 V 109.8 H 281 v 27.5"
     display="inline"
     inkscape:connector-curvature="0"
     sodipodi:nodetypes="cccc"
     id="path3740" /></g><g
   style="display:none"
   display="none"
   inkscape:label="Pins"
   id="layer1"><g
     style="display:inline"
     display="inline"
     transform="matrix(0.27191367,0,0,-0.27191367,-65.704999,518.54402)"
     id="g3088"><path
       style="fill:#e7e7e7;stroke:#909290;stroke-width:0.97299999"
       d="m 1369.3,1412.6 c -49.8,0 -90.5,40.6 -90.5,90.5 0,49.9 40.6,90.5 90.5,90.5 49.8,0 90.5,-40.6 90.5,-90.5 0,-49.9 -40.5,-90.5 -90.5,-90.5"
       inkscape:connector-curvature="0"
       id="path4639" /><path
       style="fill:#e7e7e7;stroke:#909290;stroke-width:0.97299999"
       d="m 1369.3,1438 c -35.8,0 -65.2,29.2 -65.2,65.2 0,35.8 29.2,65.2 65.2,65.2 35.8,0 65.2,-29.2 65.2,-65.2 0,-36 -29.2,-65.2 -65.2,-65.2"
       inkscape:connector-curvature="0"
       id="path4647" /><path
       style="stroke:#909290;stroke-width:0.97299999"
       d="m 1409.5,1503.1 c 0,-22.1 -17.9,-40.2 -40.2,-40.2 -22.1,0 -40.2,17.9 -40.2,40.2 0,22.3 17.9,40.2 40.2,40.2 22.3,0 40.2,-17.9 40.2,-40.2"
       inkscape:connector-curvature="0"
       id="path4655" /></g><g
     style="display:inline"
     display="inline"
     transform="matrix(0.27191367,0,0,-0.27191367,-75.626874,525.1586)"
     id="g3778"><path
       style="fill:#e7e7e7;stroke:#909290;stroke-width:0.97299999"
       d="m 1118.4,1245.3 c -49.8,0 -90.5,40.6 -90.5,90.5 0,49.8 40.6,90.5 90.5,90.5 49.8,0 90.5,-40.6 90.5,-90.5 -0.1,-49.8 -40.5,-90.5 -90.5,-90.5"
       inkscape:connector-curvature="0"
       id="path3772" /><path
       style="fill:#e7e7e7;stroke:#909290;stroke-width:0.97299999"
       d="m 1118.4,1270.6 c -35.8,0 -65.2,29.2 -65.2,65.2 0,35.8 29.2,65.2 65.2,65.2 35.8,0 65.2,-29.2 65.2,-65.2 0,-35.9 -29.2,-65.2 -65.2,-65.2"
       inkscape:connector-curvature="0"
       id="path3774" /><path
       style="stroke:#909290;stroke-width:0.97299999"
       d="m 1158.6,1335.8 c 0,-22.1 -17.9,-40.2 -40.2,-40.2 -22.1,0 -40.2,17.9 -40.2,40.2 0,22.3 17.9,40.2 40.2,40.2 22.3,0 40.2,-17.9 40.2,-40.2"
       inkscape:connector-curvature="0"
       id="path3776" /></g><g
     style="display:inline"
     display="inline"
     transform="matrix(0.27191367,0,0,-0.27191367,-69.01229,525.1586)"
     id="g3786"><path
       style="fill:#e7e7e7;stroke:#909290;stroke-width:0.97299999"
       d="m 1285.6,1245.3 c -49.8,0 -90.5,40.6 -90.5,90.5 0,49.8 40.6,90.5 90.5,90.5 49.8,0 90.5,-40.6 90.5,-90.5 0,-49.8 -40.5,-90.5 -90.5,-90.5"
       inkscape:connector-curvature="0"
       id="path3780" /><path
       style="fill:#e7e7e7;stroke:#909290;stroke-width:0.97299999"
       d="m 1285.6,1270.6 c -35.8,0 -65.2,29.2 -65.2,65.2 0,35.8 29.2,65.2 65.2,65.2 35.8,0 65.2,-29.2 65.2,-65.2 0.1,-35.9 -29.1,-65.2 -65.2,-65.2"
       inkscape:connector-curvature="0"
       id="path3782" /><path
       style="stroke:#909290;stroke-width:0.97299999"
       d="m 1325.8,1335.8 c 0,-22.1 -17.9,-40.2 -40.2,-40.2 -22.1,0 -40.2,17.9 -40.2,40.2 0,22.3 17.9,40.2 40.2,40.2 22.3,0 40.2,-17.9 40.2,-40.2"
       inkscape:connector-curvature="0"
       id="path3784" /></g><g
     style="display:inline"
     display="inline"
     transform="matrix(0.27191367,0,0,-0.27191367,-62.397707,525.1586)"
     id="g3794"><path
       style="fill:#e7e7e7;stroke:#909290;stroke-width:0.97299999"
       d="m 1453.1,1245.3 c -49.8,0 -90.5,40.6 -90.5,90.5 0,49.8 40.6,90.5 90.5,90.5 49.8,0 90.5,-40.6 90.5,-90.5 0,-49.8 -40.7,-90.5 -90.5,-90.5"
       inkscape:connector-curvature="0"
       id="path3788" /><path
       style="fill:#e7e7e7;stroke:#909290;stroke-width:0.97299999"
       d="m 1453.1,1270.6 c -35.8,0 -65.2,29.2 -65.2,65.2 0,35.8 29.2,65.2 65.2,65.2 35.8,0 65.2,-29.2 65.2,-65.2 -0.2,-35.9 -29.4,-65.2 -65.2,-65.2"
       inkscape:connector-curvature="0"
       id="path3790" /><path
       style="stroke:#909290;stroke-width:0.97299999"
       d="m 1493.1,1335.8 c 0,-22.1 -17.9,-40.2 -40.2,-40.2 -22.1,0 -40.2,17.9 -40.2,40.2 0,22.3 17.9,40.2 40.2,40.2 22.3,0 40.2,-17.9 40.2,-40.2"
       inkscape:connector-curvature="0"
       id="path3792" /></g><g
     style="display:inline"
     display="inline"
     transform="matrix(0.27191367,0,0,-0.27191367,-55.783123,525.1586)"
     id="g3802"><path
       style="fill:#e7e7e7;stroke:#909290;stroke-width:0.97299999"
       d="m 1620.4,1245.3 c -49.8,0 -90.5,40.6 -90.5,90.5 0,49.8 40.6,90.5 90.5,90.5 49.8,0 90.5,-40.6 90.5,-90.5 -0.1,-49.8 -40.7,-90.5 -90.5,-90.5"
       inkscape:connector-curvature="0"
       id="path3796" /><path
       style="fill:#e7e7e7;stroke:#909290;stroke-width:0.97299999"
       d="m 1620.4,1270.6 c -35.8,0 -65.2,29.2 -65.2,65.2 0,35.8 29.2,65.2 65.2,65.2 35.8,0 65.2,-29.2 65.2,-65.2 -0.2,-35.9 -29.4,-65.2 -65.2,-65.2"
       inkscape:connector-curvature="0"
       id="path3798" /><path
       style="stroke:#909290;stroke-width:0.97299999"
       d="m 1660.6,1335.8 c 0,-22.1 -17.9,-40.2 -40.2,-40.2 -22.1,0 -40.2,17.9 -40.2,40.2 0,22.3 17.9,40.2 40.2,40.2 22.1,0 40.2,-17.9 40.2,-40.2"
       inkscape:connector-curvature="0"
       id="path3800" /></g></g><g
   style="font-style:normal;font-variant:normal;font-weight:normal;font-stretch:normal;font-size:13.3333px;line-height:1.25;font-family:Quarca;-inkscape-font-specification:Quarca;text-align:start;letter-spacing:0px;word-spacing:0px;text-anchor:start;fill:#dddddd;fill-opacity:1;stroke:none;stroke-width:1"
   id="text3885"
   aria-label="SoC"><path
     id="path23451"
     style="font-style:normal;font-variant:normal;font-weight:normal;font-stretch:normal;font-size:14.6667px;font-family:Quarca;-inkscape-font-specification:Quarca;text-align:start;text-anchor:start;fill:#dddddd;fill-opacity:1;stroke-width:1"
     d="m 306.04669,214.312 c 0.73333,0.308 0.924,0.55733 0.924,1.276 v 1.012 c 0,0.88 -0.36667,1.24667 -1.20267,1.24667 h -2.21467 c -0.836,0 -1.21734,-0.36667 -1.21734,-1.24667 v -1.1 h -0.836 v 1.30533 c 0,1.21734 0.572,1.83334 1.92134,1.83334 h 2.58134 c 1.21733,0 1.81867,-0.616 1.81867,-1.83334 V 215.368 c 0,-1.04134 -0.396,-1.40801 -1.46667,-1.87734 l -3.00668,-1.276 c -0.68933,-0.29334 -0.86533,-0.572 -0.86533,-1.21734 v -0.64533 c 0,-0.99734 0.32267,-1.33467 1.26134,-1.33467 h 1.83333 c 0.836,0 1.24667,0.38133 1.24667,1.29067 v 0.98266 h 0.85067 v -1.188 c 0,-1.32 -0.63067,-1.87734 -1.98,-1.87734 h -2.17068 c -1.29066,0 -1.87733,0.57201 -1.87733,1.87734 v 1.02667 c 0,1.056 0.352,1.43734 1.452,1.92134 z" /><path
     id="path23453"
     style="font-style:normal;font-variant:normal;font-weight:normal;font-stretch:normal;font-size:14.6667px;font-family:Quarca;-inkscape-font-specification:Quarca;text-align:start;text-anchor:start;fill:#dddddd;fill-opacity:1;stroke-width:1"
     d="m 311.26047,211.14399 c -1.39334,0 -1.92134,0.66 -1.92134,1.98 v 3.63734 c 0,1.24667 0.58667,1.87734 1.92134,1.87734 h 1.39334 c 1.32,0 1.90667,-0.63067 1.90667,-1.87734 v -3.63734 c 0,-1.32 -0.51334,-1.98 -1.92134,-1.98 z m 1.29067,0.71867 c 0.89467,0 1.21734,0.42533 1.21734,1.33467 V 216.6 c 0,0.968 -0.38134,1.32 -1.21734,1.32 h -1.20267 c -0.836,0 -1.20267,-0.352 -1.20267,-1.32 v -3.40267 c 0,-0.90934 0.308,-1.33467 1.20267,-1.33467 z" /><path
     id="path23455"
     style="font-style:normal;font-variant:normal;font-weight:normal;font-stretch:normal;font-size:14.6667px;font-family:Quarca;-inkscape-font-specification:Quarca;text-align:start;text-anchor:start;fill:#dddddd;fill-opacity:1;stroke-width:1"
     d="m 318.42813,217.84667 c -0.924,0 -1.26133,-0.44 -1.26133,-1.364 v -6.10135 c 0,-0.924 0.33733,-1.364 1.26133,-1.364 h 2.37601 c 0.924,0 1.26133,0.44 1.26133,1.364 v 0.95334 h 0.83601 v -1.08534 c 0,-1.34934 -0.51334,-2.02401 -2.00934,-2.02401 h -2.55201 c -1.496,0 -2.00934,0.67467 -2.00934,2.02401 v 6.36535 c 0,1.34933 0.51334,2.024 2.00934,2.024 h 2.55201 c 1.496,0 2.00934,-0.67467 2.00934,-2.024 V 215.5 h -0.83601 v 0.98267 c 0,0.924 -0.33733,1.364 -1.26133,1.364 z" /></g>
<g
   transform="matrix(3.337627,0,0,3.337627,163.31385,93.043232)"
   id="text271"
   style="font-style:normal;font-weight:normal;font-size:3.52777767px;line-height:1.25;font-family:sans-serif;letter-spacing:0px;word-spacing:0px;fill:#00a3f2;fill-opacity:1;stroke:none;stroke-width:0.26458332"
   aria-label="Frozen Wasteland"><g
     transform="translate(-1.5875001)"
     id="text3885-7"
     style="font-style:normal;font-variant:normal;font-weight:bold;font-stretch:normal;font-size:3.52777767px;line-height:1.25;font-family:Consolas;-inkscape-font-specification:'Consolas Bold';text-align:start;letter-spacing:0px;word-spacing:0px;text-anchor:start;fill:#00a3f2;fill-opacity:1;stroke:none;stroke-width:0.26458332"
     aria-label="FROZEN WASTELAND"><path
       inkscape:connector-curvature="0"
       id="path20360"
       style="font-style:normal;font-variant:normal;font-weight:normal;font-stretch:normal;font-family:'Bradley Gratis';-inkscape-font-specification:'Bradley Gratis';text-align:start;text-anchor:start;fill:#00a3f2;fill-opacity:1;stroke-width:0.26458332"
       d="m 41.150231,146.65677 q 0.119944,-0.11994 0.1905,-0.21166 0.07408,-0.0917 0.112889,-0.16934 0.04233,-0.0776 0.05292,-0.14464 0.01411,-0.0706 0.01411,-0.14816 0,-0.0952 -0.04586,-0.22931 -0.04586,-0.13405 -0.102306,-0.28575 -0.05644,-0.15169 -0.102306,-0.31044 -0.04586,-0.15875 -0.04586,-0.30339 0,-0.0776 0.0247,-0.1517 0.02822,-0.0741 0.06703,-0.14111 0.04233,-0.0705 0.09172,-0.13053 0.04939,-0.0635 0.09878,-0.11288 -0.07056,-0.0141 -0.123473,-0.0212 -0.05292,-0.0106 -0.07761,-0.0106 -0.130528,0 -0.22225,0.0705 -0.08819,0.067 -0.1905,0.16933 0,-0.11994 0.03528,-0.24694 0.03881,-0.13053 0.116417,-0.23636 0.07761,-0.10583 0.194027,-0.17286 0.119945,-0.067 0.282223,-0.067 0.112889,0 0.208139,0.0176 0.09878,0.0141 0.179916,0.0353 0.08114,0.0212 0.148167,0.0388 0.06703,0.0141 0.119944,0.0141 0.08114,0 0.141111,-0.0212 0.0635,-0.0247 0.123473,-0.0847 0,0.0776 -0.03175,0.17639 -0.02822,0.0988 -0.08819,0.1905 -0.05644,0.0882 -0.148167,0.15169 -0.09172,0.06 -0.211666,0.06 -0.05997,0 -0.137584,-0.007 -0.07408,-0.0106 -0.155222,-0.0247 -0.0071,0.0247 -0.01058,0.0459 -0.0035,0.0212 -0.0071,0.0388 -0.0035,0.0212 -0.0035,0.0388 0,0.0776 0.01058,0.15169 0.01411,0.0706 0.03881,0.14464 h 0.712611 l -0.08114,0.23989 q -0.01058,0.0459 -0.01411,0.067 -0.0035,0.0212 -0.01058,0.067 l -0.130528,-0.0917 h -0.363361 q 0.07761,0.17639 0.144639,0.35984 0.06703,0.17991 0.06703,0.38452 0,0.18345 -0.07408,0.3422 -0.07408,0.15522 -0.197556,0.27164 -0.119944,0.11641 -0.278694,0.17991 -0.155222,0.067 -0.321028,0.067 z" /><path
       inkscape:connector-curvature="0"
       id="path20362"
       style="font-style:normal;font-variant:normal;font-weight:normal;font-stretch:normal;font-family:'Bradley Gratis';-inkscape-font-specification:'Bradley Gratis';text-align:start;text-anchor:start;fill:#00a3f2;fill-opacity:1;stroke-width:0.26458332"
       d="m 43.22032,144.92816 q 0.07055,-0.0423 0.137583,-0.0988 0.07056,-0.0564 0.123472,-0.127 0.05645,-0.0705 0.08819,-0.16227 0.03528,-0.0952 0.03528,-0.21167 0,-0.0988 -0.03881,-0.16581 -0.03528,-0.0705 -0.08467,-0.11289 -0.04939,-0.0423 -0.09878,-0.06 -0.04586,-0.0176 -0.07056,-0.0176 -0.02822,0 -0.05292,0.0106 -0.02117,0.0106 -0.0388,0.0247 z m -0.518583,-0.94192 q -0.112889,-0.0635 -0.112889,-0.23636 0.03175,0.0318 0.112889,0.0565 0.08114,0.0212 0.172861,0.0212 0.04586,0 0.130527,-0.0106 0.08467,-0.0141 0.172862,-0.0282 0.09172,-0.0141 0.172861,-0.0247 0.08467,-0.0141 0.130527,-0.0141 0.116417,0 0.232834,0.0353 0.116416,0.0353 0.215194,0.11995 0.09878,0.0847 0.165806,0.2293 0.07056,0.14111 0.09172,0.35983 l -0.627944,0.4445 q 0.07055,0.0282 0.15875,0.0952 0.08819,0.067 0.165805,0.18698 0.08114,0.11994 0.134056,0.30691 0.05292,0.18345 0.05292,0.45156 0,0.23283 0.02117,0.37747 0.02117,0.14464 0.05292,0.23283 0.03175,0.0882 0.06703,0.13053 0.03881,0.0459 0.07056,0.0776 -0.155222,0 -0.275167,-0.0917 -0.119944,-0.0882 -0.211666,-0.23283 -0.09172,-0.14464 -0.162278,-0.32809 -0.06703,-0.18344 -0.123472,-0.37041 -0.05644,-0.18697 -0.105834,-0.35984 -0.04586,-0.17286 -0.09525,-0.29986 -0.02469,0.0176 -0.04939,0.0353 -0.02117,0.0141 -0.0388,0.0318 v 1.31939 h -0.518583 z" /><path
       inkscape:connector-curvature="0"
       id="path20364"
       style="font-style:normal;font-variant:normal;font-weight:normal;font-stretch:normal;font-family:'Bradley Gratis';-inkscape-font-specification:'Bradley Gratis';text-align:start;text-anchor:start;fill:#00a3f2;fill-opacity:1;stroke-width:0.26458332"
       d="m 45.108067,146.03588 q 0,0.11995 0.01411,0.18698 0.01764,0.067 0.04233,0.1023 0.02822,0.0317 0.0635,0.0388 0.03528,0.007 0.07056,0.007 0.07055,0 0.116416,-0.0952 0.04586,-0.0988 0.04586,-0.29986 v -1.53105 q 0,-0.15875 -0.01764,-0.25753 -0.01411,-0.10231 -0.04233,-0.15522 -0.02469,-0.0564 -0.05997,-0.0776 -0.03175,-0.0212 -0.0635,-0.0212 -0.06703,0 -0.119944,0.0847 -0.04939,0.0811 -0.04939,0.26106 z m 1.005416,-0.88547 q 0,0.25753 -0.06703,0.508 -0.0635,0.25047 -0.176389,0.44803 -0.109361,0.19755 -0.261056,0.32103 -0.151694,0.11994 -0.321028,0.11994 -0.15875,0 -0.310444,-0.10936 -0.148167,-0.10936 -0.264583,-0.29986 -0.112889,-0.1905 -0.183445,-0.4445 -0.07055,-0.254 -0.07055,-0.54328 0,-0.23636 0.0635,-0.4833 0.06703,-0.25048 0.179916,-0.45156 0.112889,-0.20108 0.264584,-0.32808 0.151694,-0.13053 0.321027,-0.13053 0.148167,0 0.292806,0.10936 0.148167,0.10936 0.264583,0.29986 0.119945,0.18697 0.194028,0.44097 0.07408,0.254 0.07408,0.54328 z" /><path
       inkscape:connector-curvature="0"
       id="path20366"
       style="font-style:normal;font-variant:normal;font-weight:normal;font-stretch:normal;font-family:'Bradley Gratis';-inkscape-font-specification:'Bradley Gratis';text-align:start;text-anchor:start;fill:#00a3f2;fill-opacity:1;stroke-width:0.26458332"
       d="m 46.267548,146.50861 q 0.04586,-0.27164 0.130528,-0.51153 0.08819,-0.23989 0.194028,-0.45861 0.105833,-0.21873 0.218722,-0.41628 0.116417,-0.20108 0.218722,-0.38806 0.102306,-0.18697 0.179917,-0.36336 0.07761,-0.17991 0.112889,-0.35983 -0.02822,-0.0176 -0.06703,-0.0318 -0.03528,-0.0141 -0.137583,-0.0141 -0.05292,0 -0.09525,0.0282 -0.03881,0.0247 -0.06703,0.0635 -0.02822,0.0353 -0.04586,0.0776 -0.01411,0.0388 -0.01411,0.0635 0,0.0282 0.01058,0.067 0.01411,0.0353 0.02822,0.0705 0.01764,0.0353 0.03528,0.067 0.01764,0.0282 0.03175,0.0423 l -0.430389,0.26811 q -0.08467,-0.0811 -0.144639,-0.19756 -0.05644,-0.11994 -0.05644,-0.23989 0,-0.06 0.03175,-0.14816 0.03175,-0.0882 0.102305,-0.16934 0.07056,-0.0847 0.183445,-0.14111 0.116416,-0.06 0.282222,-0.06 0.130528,0 0.218722,0.0176 0.08819,0.0176 0.155222,0.0423 0.06703,0.0212 0.123472,0.0388 0.05997,0.0176 0.134056,0.0176 0.04586,0 0.09878,-0.007 0.05292,-0.007 0.09878,-0.0212 0.04586,-0.0141 0.08114,-0.0282 0.03881,-0.0176 0.05997,-0.0388 -0.04233,0.22225 -0.134056,0.46213 -0.09172,0.23989 -0.204611,0.47978 -0.109361,0.23989 -0.232833,0.4692 -0.119945,0.2293 -0.22225,0.43039 -0.09878,0.19755 -0.169334,0.35983 -0.06703,0.15875 -0.07408,0.26105 0.141111,0.06 0.239889,0.06 0.0635,0 0.130528,-0.0141 0.06703,-0.0176 0.119944,-0.0529 0.05644,-0.0353 0.09172,-0.0882 0.03528,-0.0564 0.03528,-0.13405 0,-0.0776 -0.01764,-0.127 -0.01411,-0.0529 -0.03881,-0.0847 -0.0247,-0.0353 -0.05644,-0.06 -0.03175,-0.0282 -0.05997,-0.0564 l 0.405694,-0.29987 q 0.141112,0.10584 0.201084,0.22578 0.05997,0.11995 0.05997,0.26106 0,0.067 -0.02117,0.13053 -0.01764,0.06 -0.04586,0.11288 -0.02469,0.0494 -0.05997,0.0917 -0.03175,0.0423 -0.05644,0.067 l 0.05997,0.06 q 0.01764,0.0176 0.0388,0.0529 0.02117,0.0317 0.02117,0.0564 0,0.0282 -0.02469,0.0811 -0.02117,0.0564 -0.08819,0.0988 -0.02469,-0.0317 -0.05644,-0.0564 -0.02822,-0.0212 -0.05997,-0.0388 -0.03175,-0.0176 -0.06703,-0.0176 z" /><path
       inkscape:connector-curvature="0"
       id="path20368"
       style="font-style:normal;font-variant:normal;font-weight:normal;font-stretch:normal;font-family:'Bradley Gratis';-inkscape-font-specification:'Bradley Gratis';text-align:start;text-anchor:start;fill:#00a3f2;fill-opacity:1;stroke-width:0.26458332"
       d="m 49.773884,143.78163 v 0.381 q -0.03881,-0.0353 -0.102306,-0.0776 -0.05997,-0.0423 -0.130528,-0.0741 -0.06703,-0.0353 -0.134055,-0.0565 -0.06703,-0.0247 -0.112889,-0.0247 -0.08467,0 -0.172861,0.067 -0.08819,0.067 -0.144639,0.17991 -0.05644,0.10937 -0.07408,0.28928 -0.01411,0.17639 -0.01411,0.45509 h 0.903111 l -0.179916,0.40216 q -0.03528,-0.0529 -0.08467,-0.0705 -0.04586,-0.0212 -0.08467,-0.0212 H 48.88841 q 0,0.20108 0.0071,0.39511 0.0071,0.1905 0.04586,0.3422 0.04233,0.15169 0.127,0.24694 0.08467,0.0917 0.243417,0.0917 0.08467,0 0.165805,-0.0318 0.08467,-0.0317 0.155222,-0.0776 0.07056,-0.0494 0.123473,-0.1023 0.05644,-0.0529 0.08819,-0.0952 v 0.508 h -0.47625 q -0.342194,0 -0.553861,-0.11995 -0.211667,-0.12347 -0.331611,-0.32808 -0.116417,-0.20814 -0.15875,-0.47978 -0.03881,-0.27164 -0.03881,-0.56797 0,-0.0741 0.01058,-0.19403 0.01058,-0.12347 0.04586,-0.25753 0.03528,-0.13758 0.102305,-0.27516 0.06703,-0.14112 0.179917,-0.25048 0.116417,-0.11289 0.28575,-0.18344 0.169333,-0.0706 0.409222,-0.0706 z" /><path
       inkscape:connector-curvature="0"
       id="path20370"
       style="font-style:normal;font-variant:normal;font-weight:normal;font-stretch:normal;font-family:'Bradley Gratis';-inkscape-font-specification:'Bradley Gratis';text-align:start;text-anchor:start;fill:#00a3f2;fill-opacity:1;stroke-width:0.26458332"
       d="m 50.160286,146.50861 v -2.4377 q 0,-0.0988 -0.04233,-0.1658 -0.04233,-0.0706 -0.08467,-0.12348 h 0.684388 v 0.35984 l 0.391584,-0.45509 q 0.179916,0.16228 0.296333,0.32456 0.116417,0.15875 0.183445,0.32103 0.06703,0.15875 0.09172,0.32455 0.02469,0.16228 0.02469,0.33514 0,0.16933 -0.02822,0.32456 -0.02469,0.15169 -0.07408,0.29986 -0.04939,0.14816 -0.119945,0.29986 -0.06703,0.15169 -0.148166,0.3175 h 0.127 q 0.04586,0 0.09525,-0.0317 0.04939,-0.0318 0.09878,-0.0318 v 0.33867 h -0.684389 q 0.09525,-0.19403 0.151695,-0.34925 0.05997,-0.15523 0.09172,-0.29634 0.03175,-0.14111 0.04233,-0.27516 0.01058,-0.13406 0.01058,-0.28575 0,-0.1517 -0.05292,-0.31398 -0.04939,-0.1658 -0.123472,-0.30339 -0.07408,-0.13758 -0.15875,-0.22577 -0.08114,-0.0882 -0.148167,-0.0882 -0.04233,0 -0.06703,0.0212 v 2.11667 z" /><path
       inkscape:connector-curvature="0"
       id="path20372"
       style="font-style:normal;font-variant:normal;font-weight:normal;font-stretch:normal;font-family:'Bradley Gratis';-inkscape-font-specification:'Bradley Gratis';text-align:start;text-anchor:start;fill:#00a3f2;fill-opacity:1;stroke-width:0.26458332"
       d="m 53.398455,146.62502 q -0.1905,-0.13758 -0.324556,-0.2928 -0.134055,-0.15875 -0.215194,-0.32809 -0.08114,-0.16933 -0.119945,-0.34219 -0.03528,-0.17639 -0.03528,-0.34572 0,-0.16581 0.03528,-0.32809 0.03528,-0.1658 0.09172,-0.32455 0.05997,-0.16228 0.137584,-0.31397 0.07761,-0.15523 0.15875,-0.30339 h -0.02117 q -0.01058,0 -0.02469,0 -0.01058,-0.004 -0.02822,-0.004 -0.05644,0 -0.137583,0.0141 -0.07761,0.0141 -0.151694,0.0706 v -0.34573 h 0.740833 q -0.09172,0.15875 -0.15875,0.32103 -0.0635,0.15875 -0.105833,0.31045 -0.03881,0.14816 -0.05997,0.28222 -0.01764,0.13053 -0.01764,0.23636 0,0.10583 0.02117,0.254 0.02117,0.14817 0.07761,0.30692 0.05997,0.15522 0.15875,0.29633 0.102306,0.14111 0.264584,0.2293 l 0.105833,-0.0776 q -0.0635,-0.11994 -0.09878,-0.2293 -0.03528,-0.11289 -0.05292,-0.21167 -0.01411,-0.0988 -0.01764,-0.17992 -0.0035,-0.0847 -0.0035,-0.15169 0,-0.10936 0.02822,-0.24694 0.02822,-0.13759 0.08114,-0.28575 0.05292,-0.14817 0.127,-0.29987 0.07761,-0.15169 0.172861,-0.29633 -0.134055,0 -0.22225,0.0212 -0.08467,0.0212 -0.144639,0.06 v -0.33867 h 0.762 q -0.0635,0.0882 -0.127,0.20109 -0.05997,0.10936 -0.105833,0.23989 -0.04586,0.127 -0.07408,0.27163 -0.02822,0.14464 -0.02822,0.29634 0,0.25753 0.04586,0.45861 0.04586,0.19755 0.127,0.34925 0.08114,0.15169 0.1905,0.26105 0.109362,0.10937 0.232834,0.18698 v -2.26484 h 0.529166 v 2.1202 q 0,0.0247 -0.03528,0.0705 -0.03528,0.0423 -0.09172,0.0988 -0.05292,0.0565 -0.127,0.12347 -0.07055,0.0635 -0.144638,0.127 -0.176389,0.14817 -0.398639,0.32456 -0.172861,-0.13406 -0.296334,-0.26458 -0.123472,-0.13053 -0.211666,-0.254 z" /><path
       inkscape:connector-curvature="0"
       id="path20374"
       style="font-style:normal;font-variant:normal;font-weight:normal;font-stretch:normal;font-family:'Bradley Gratis';-inkscape-font-specification:'Bradley Gratis';text-align:start;text-anchor:start;fill:#00a3f2;fill-opacity:1;stroke-width:0.26458332"
       d="m 56.650514,144.81174 v -0.87841 h -0.416278 q -0.0035,0.23636 -0.01411,0.46919 -0.0071,0.22931 -0.01764,0.40922 z m 0.719667,-1.03011 q -0.03881,0.0282 -0.07408,0.0706 -0.03175,0.0423 -0.05645,0.0917 -0.02117,0.0459 -0.03528,0.0917 -0.01411,0.0423 -0.01411,0.0741 v 2.39889 h -0.53975 v -1.32998 h -0.472722 q -0.0035,0.127 -0.03528,0.2787 -0.03175,0.14816 -0.08819,0.29986 -0.05292,0.14817 -0.127,0.28928 -0.07056,0.13758 -0.162278,0.24341 -0.08819,0.10584 -0.1905,0.16934 -0.09878,0.0635 -0.208139,0.0635 -0.07055,0 -0.123472,-0.0423 -0.04939,-0.0423 -0.04939,-0.11994 0,-0.0494 0.03175,-0.0706 0.03175,-0.0247 0.06703,-0.0247 0.03175,0 0.04939,0.0106 0.01764,0.007 0.03175,0.0212 0.01764,0.0106 0.03881,0.0212 0.02117,0.007 0.05997,0.007 0.0635,0 0.102305,-0.0635 0.03881,-0.067 0.0635,-0.17639 0.0247,-0.11289 0.03528,-0.25753 0.01411,-0.14816 0.02117,-0.31044 0.0071,-0.16228 0.01764,-0.32808 0.01058,-0.16934 0.02822,-0.32456 0.02117,-0.18344 0.0635,-0.33514 0.04586,-0.15169 0.09525,-0.26811 0.04939,-0.11642 0.09878,-0.19755 0.04939,-0.0811 0.08467,-0.13053 h -0.07761 q -0.06703,0 -0.123472,0.0212 -0.05644,0.0176 -0.102306,0.0423 -0.04233,0.0212 -0.07761,0.0423 -0.03175,0.0176 -0.05644,0.0176 -0.05997,0 -0.08819,-0.0423 -0.02822,-0.0423 -0.02822,-0.0952 0,-0.0494 0.05292,-0.0917 0.05644,-0.0459 0.155222,-0.0459 z" /><path
       inkscape:connector-curvature="0"
       id="path20376"
       style="font-style:normal;font-variant:normal;font-weight:normal;font-stretch:normal;font-family:'Bradley Gratis';-inkscape-font-specification:'Bradley Gratis';text-align:start;text-anchor:start;fill:#00a3f2;fill-opacity:1;stroke-width:0.26458332"
       d="m 58.150372,146.63208 q -0.08114,-0.0811 -0.186973,-0.15875 -0.102305,-0.0776 -0.201083,-0.13759 -0.09525,-0.06 -0.169333,-0.1023 -0.07056,-0.0423 -0.08114,-0.0529 0.03528,-0.0423 0.08819,-0.11641 0.05292,-0.0776 0.102306,-0.1517 0.05292,-0.0741 0.09172,-0.13053 0.04233,-0.06 0.05292,-0.0705 0.04939,0.0317 0.134055,0.0882 0.08819,0.0529 0.172861,0.11289 0.08819,0.06 0.15875,0.10936 0.07056,0.0494 0.09172,0.0706 0.04939,-0.0282 0.08114,-0.0741 0.03528,-0.0459 0.03528,-0.14816 0,-0.0882 -0.07408,-0.18697 -0.07056,-0.0988 -0.176389,-0.20814 -0.105833,-0.10936 -0.232833,-0.22931 -0.127,-0.11994 -0.232834,-0.24694 -0.105833,-0.127 -0.179916,-0.25753 -0.07056,-0.13053 -0.07056,-0.26811 0,-0.0988 0.04939,-0.18345 0.05292,-0.0882 0.130528,-0.16227 0.07761,-0.0776 0.169333,-0.13759 0.09525,-0.0635 0.179917,-0.11641 0.08819,-0.0564 0.155222,-0.0988 0.06703,-0.0459 0.09525,-0.0811 0.02117,0.0176 0.09172,0.0882 0.07408,0.067 0.15875,0.14464 0.08467,0.0776 0.15875,0.13759 0.07761,0.06 0.102306,0.06 -0.03528,0.0282 -0.08819,0.0847 -0.04939,0.0529 -0.102305,0.11289 -0.04939,0.06 -0.09172,0.11642 -0.03881,0.0529 -0.05644,0.0811 -0.08114,-0.0353 -0.162278,-0.10583 -0.08114,-0.0706 -0.148166,-0.13759 -0.06703,-0.067 -0.112889,-0.11641 -0.04586,-0.0529 -0.05997,-0.0529 -0.02822,0 -0.04939,0.0317 -0.01764,0.0282 -0.01764,0.067 0,0.0847 0.07408,0.17991 0.07761,0.0952 0.186972,0.20461 0.112889,0.10584 0.243417,0.22578 0.134056,0.11642 0.243417,0.24342 0.112889,0.127 0.186972,0.26458 0.07761,0.13406 0.07761,0.27517 0,0.127 -0.09525,0.26811 -0.09525,0.14111 -0.229306,0.28222 -0.130527,0.13759 -0.268111,0.26459 -0.137583,0.12347 -0.225777,0.21872 z" /><path
       inkscape:connector-curvature="0"
       id="path20378"
       style="font-style:normal;font-variant:normal;font-weight:normal;font-stretch:normal;font-family:'Bradley Gratis';-inkscape-font-specification:'Bradley Gratis';text-align:start;text-anchor:start;fill:#00a3f2;fill-opacity:1;stroke-width:0.26458332"
       d="m 60.635359,146.03236 q 0,0.13758 -0.05644,0.23988 -0.05644,0.0988 -0.148167,0.16228 -0.08819,0.0635 -0.197555,0.0953 -0.109361,0.0317 -0.215195,0.0317 -0.165805,0 -0.324555,-0.0811 -0.15875,-0.0811 -0.28575,-0.21872 -0.127,-0.14111 -0.204611,-0.32808 -0.07761,-0.1905 -0.07761,-0.40922 0,-0.39159 0.179916,-0.72673 0.179917,-0.33866 0.500945,-0.61383 -0.02822,-0.004 -0.05292,-0.004 -0.02117,-0.004 -0.04586,-0.004 -0.08467,0 -0.179917,0.0282 -0.09525,0.0282 -0.179916,0.0741 -0.08467,0.0423 -0.155223,0.0952 -0.06703,0.0529 -0.102305,0.0988 0.02822,-0.13759 0.105833,-0.27164 0.07761,-0.13406 0.194028,-0.23636 0.116417,-0.10231 0.268111,-0.16581 0.151694,-0.0635 0.331611,-0.0635 0.09172,0 0.194028,0.0282 0.102305,0.0282 0.194028,0.0741 0.09525,0.0423 0.169333,0.0953 0.07408,0.0529 0.112889,0.1023 l -0.289278,0.44098 q -0.176389,-0.17287 -0.381,-0.24695 -0.04586,0.0741 -0.09525,0.17639 -0.04939,0.0988 -0.09172,0.22578 -0.03881,0.127 -0.06703,0.28222 -0.02469,0.15169 -0.02469,0.33161 0,0.16933 0.02469,0.29986 0.02822,0.13053 0.07056,0.22578 0.04233,0.0952 0.09525,0.15875 0.05644,0.0635 0.112889,0.10583 0.134055,0.0953 0.306916,0.10584 0.07056,0 0.162278,-0.0282 0.09525,-0.0318 0.151694,-0.0811 z" /><path
       inkscape:connector-curvature="0"
       id="path20380"
       style="font-style:normal;font-variant:normal;font-weight:normal;font-stretch:normal;font-family:'Bradley Gratis';-inkscape-font-specification:'Bradley Gratis';text-align:start;text-anchor:start;fill:#00a3f2;fill-opacity:1;stroke-width:0.26458332"
       d="m 62.403604,143.78163 v 0.381 q -0.03881,-0.0353 -0.102306,-0.0776 -0.05997,-0.0423 -0.130528,-0.0741 -0.06703,-0.0353 -0.134055,-0.0565 -0.06703,-0.0247 -0.112889,-0.0247 -0.08467,0 -0.172861,0.067 -0.08819,0.067 -0.144639,0.17991 -0.05644,0.10937 -0.07408,0.28928 -0.01411,0.17639 -0.01411,0.45509 h 0.903111 l -0.179917,0.40216 q -0.03528,-0.0529 -0.08467,-0.0705 -0.04586,-0.0212 -0.08467,-0.0212 h -0.553861 q 0,0.20108 0.0071,0.39511 0.0071,0.1905 0.04586,0.3422 0.04233,0.15169 0.127,0.24694 0.08467,0.0917 0.243417,0.0917 0.08467,0 0.165805,-0.0318 0.08467,-0.0317 0.155223,-0.0776 0.07055,-0.0494 0.123472,-0.1023 0.05644,-0.0529 0.08819,-0.0952 v 0.508 h -0.47625 q -0.342194,0 -0.553861,-0.11995 -0.211666,-0.12347 -0.331611,-0.32808 -0.116417,-0.20814 -0.15875,-0.47978 -0.03881,-0.27164 -0.03881,-0.56797 0,-0.0741 0.01058,-0.19403 0.01058,-0.12347 0.04586,-0.25753 0.03528,-0.13758 0.102306,-0.27516 0.06703,-0.14112 0.179916,-0.25048 0.116417,-0.11289 0.28575,-0.18344 0.169334,-0.0706 0.409222,-0.0706 z" /><path
       inkscape:connector-curvature="0"
       id="path20382"
       style="font-style:normal;font-variant:normal;font-weight:normal;font-stretch:normal;font-family:'Bradley Gratis';-inkscape-font-specification:'Bradley Gratis';text-align:start;text-anchor:start;fill:#00a3f2;fill-opacity:1;stroke-width:0.26458332"
       d="m 63.682533,144.47661 q -0.08819,-0.21167 -0.151694,-0.35278 -0.0635,-0.14111 -0.09878,-0.14111 -0.03881,0 -0.05292,0.0353 -0.01058,0.0318 -0.01058,0.0565 v 1.91205 q 0,0.0776 -0.04233,0.16228 -0.04233,0.0847 -0.112888,0.14817 0.130527,0 0.232833,-0.0635 0.102305,-0.067 0.211667,-0.14464 0.112888,-0.0811 0.250472,-0.14464 0.137583,-0.067 0.342194,-0.067 v 0.63148 H 62.65595 q 0.04586,-0.067 0.07761,-0.127 0.03528,-0.06 0.05644,-0.11995 0.02117,-0.06 0.03175,-0.127 0.01058,-0.067 0.01058,-0.14817 v -1.66863 q 0,-0.11289 -0.04233,-0.18345 -0.04233,-0.0741 -0.05997,-0.1023 0.01411,-0.004 0.07056,-0.0247 0.05997,-0.0247 0.144639,-0.0564 0.08467,-0.0318 0.186972,-0.067 0.102305,-0.0353 0.201083,-0.0635 0.09878,-0.0317 0.186972,-0.0494 0.08819,-0.0212 0.144639,-0.0212 0.0882,0 0.165806,0.0494 0.07761,0.0494 0.141111,0.12347 0.0635,0.0741 0.109361,0.16581 0.04586,0.0882 0.07408,0.16581 z" /><path
       inkscape:connector-curvature="0"
       id="path20384"
       style="font-style:normal;font-variant:normal;font-weight:normal;font-stretch:normal;font-family:'Bradley Gratis';-inkscape-font-specification:'Bradley Gratis';text-align:start;text-anchor:start;fill:#00a3f2;fill-opacity:1;stroke-width:0.26458332"
       d="m 65.8627,144.81174 v -0.87841 h -0.416278 q -0.0035,0.23636 -0.01411,0.46919 -0.0071,0.22931 -0.01764,0.40922 z m 0.719667,-1.03011 q -0.03881,0.0282 -0.07408,0.0706 -0.03175,0.0423 -0.05644,0.0917 -0.02117,0.0459 -0.03528,0.0917 -0.01411,0.0423 -0.01411,0.0741 v 2.39889 H 65.8627 v -1.32998 h -0.472722 q -0.0035,0.127 -0.03528,0.2787 -0.03175,0.14816 -0.08819,0.29986 -0.05292,0.14817 -0.127,0.28928 -0.07056,0.13758 -0.162278,0.24341 -0.08819,0.10584 -0.1905,0.16934 -0.09878,0.0635 -0.208139,0.0635 -0.07056,0 -0.123472,-0.0423 -0.04939,-0.0423 -0.04939,-0.11994 0,-0.0494 0.03175,-0.0706 0.03175,-0.0247 0.06703,-0.0247 0.03175,0 0.04939,0.0106 0.01764,0.007 0.03175,0.0212 0.01764,0.0106 0.0388,0.0212 0.02117,0.007 0.05997,0.007 0.0635,0 0.102306,-0.0635 0.0388,-0.067 0.0635,-0.17639 0.02469,-0.11289 0.03528,-0.25753 0.01411,-0.14816 0.02117,-0.31044 0.0071,-0.16228 0.01764,-0.32808 0.01058,-0.16934 0.02822,-0.32456 0.02117,-0.18344 0.0635,-0.33514 0.04586,-0.15169 0.09525,-0.26811 0.04939,-0.11642 0.09878,-0.19755 0.04939,-0.0811 0.08467,-0.13053 h -0.07761 q -0.06703,0 -0.123472,0.0212 -0.05644,0.0176 -0.102306,0.0423 -0.04233,0.0212 -0.07761,0.0423 -0.03175,0.0176 -0.05645,0.0176 -0.05997,0 -0.08819,-0.0423 -0.02822,-0.0423 -0.02822,-0.0952 0,-0.0494 0.05292,-0.0917 0.05644,-0.0459 0.155223,-0.0459 z" /><path
       inkscape:connector-curvature="0"
       id="path20386"
       style="font-style:normal;font-variant:normal;font-weight:normal;font-stretch:normal;font-family:'Bradley Gratis';-inkscape-font-specification:'Bradley Gratis';text-align:start;text-anchor:start;fill:#00a3f2;fill-opacity:1;stroke-width:0.26458332"
       d="m 66.882779,146.50861 v -2.4377 q 0,-0.0988 -0.04233,-0.1658 -0.04233,-0.0706 -0.08467,-0.12348 h 0.684389 v 0.35984 l 0.391583,-0.45509 q 0.179917,0.16228 0.296333,0.32456 0.116417,0.15875 0.183445,0.32103 0.06703,0.15875 0.09172,0.32455 0.02469,0.16228 0.02469,0.33514 0,0.16933 -0.02822,0.32456 -0.02469,0.15169 -0.07408,0.29986 -0.04939,0.14816 -0.119945,0.29986 -0.06703,0.15169 -0.148166,0.3175 h 0.127 q 0.04586,0 0.09525,-0.0317 0.04939,-0.0318 0.09878,-0.0318 v 0.33867 H 67.69417 q 0.09525,-0.19403 0.151694,-0.34925 0.05997,-0.15523 0.09172,-0.29634 0.03175,-0.14111 0.04233,-0.27516 0.01058,-0.13406 0.01058,-0.28575 0,-0.1517 -0.05292,-0.31398 -0.04939,-0.1658 -0.123472,-0.30339 -0.07408,-0.13758 -0.15875,-0.22577 -0.08114,-0.0882 -0.148167,-0.0882 -0.04233,0 -0.06703,0.0212 v 2.11667 z" /><path
       inkscape:connector-curvature="0"
       id="path20388"
       style="font-style:normal;font-variant:normal;font-weight:normal;font-stretch:normal;font-family:'Bradley Gratis';-inkscape-font-specification:'Bradley Gratis';text-align:start;text-anchor:start;fill:#00a3f2;fill-opacity:1;stroke-width:0.26458332"
       d="m 68.771683,144.02858 q -0.09172,-0.0388 -0.127,-0.0952 -0.03528,-0.0565 -0.03528,-0.10584 0,-0.0423 0.02822,-0.0529 0.02822,0.0176 0.07761,0.0247 0.04939,0.007 0.112888,0.007 0.03175,0 0.08819,-0.0106 0.05997,-0.0106 0.130528,-0.0212 0.07055,-0.0106 0.144639,-0.0212 0.07761,-0.0106 0.144638,-0.0106 0.162278,0 0.331612,0.0847 0.169333,0.0811 0.303388,0.254 0.134056,0.16934 0.218723,0.43392 0.08819,0.26106 0.08819,0.62442 0,0.30691 -0.05292,0.52916 -0.05292,0.22225 -0.134055,0.37748 -0.08114,0.15522 -0.179917,0.25047 -0.09878,0.0917 -0.194028,0.14464 -0.09172,0.0494 -0.169333,0.067 -0.07408,0.0176 -0.109361,0.0176 -0.05292,0 -0.112889,-0.0141 -0.05997,-0.0141 -0.119944,-0.0318 -0.05645,-0.0176 -0.109361,-0.0317 -0.04939,-0.0141 -0.08467,-0.0141 -0.03881,0 -0.07056,0.0141 -0.03175,0.0106 -0.06703,0.0247 -0.03175,0.0106 -0.07056,0.0247 -0.03881,0.0106 -0.08819,0.0106 -0.01764,0 -0.03881,-0.004 -0.01764,-0.004 -0.03528,-0.0106 -0.01764,-0.007 -0.03528,-0.0176 0.02822,-0.0176 0.05644,-0.06 0.02822,-0.0459 0.05292,-0.0952 0.02822,-0.0529 0.05644,-0.11641 z m 0.518583,2.10255 q 0,0.0741 0.02469,0.11642 0.02822,0.0388 0.05997,0.0564 0.03881,0.0212 0.08467,0.0247 0.08114,0 0.141111,-0.10936 0.0635,-0.10936 0.0635,-0.2787 v -1.54869 q 0,-0.16581 -0.03175,-0.25753 -0.03175,-0.0917 -0.07408,-0.13405 -0.04233,-0.0423 -0.08467,-0.0494 -0.04233,-0.0106 -0.06703,-0.0106 -0.04233,0 -0.08114,0.0564 -0.03528,0.0564 -0.03528,0.14816 z" /></g></g><g
   style="font-style:normal;font-variant:normal;font-weight:normal;font-stretch:normal;font-size:8px;line-height:1.25;font-family:Quarca;-inkscape-font-specification:Quarca;letter-spacing:0px;word-spacing:0px;fill:#dddddd;fill-opacity:1;stroke:none;stroke-width:1"
   id="text5443-7-5-4-4-7"
   aria-label="CV OUT"><path
     id="path23440"
     style="font-style:normal;font-variant:normal;font-weight:normal;font-stretch:normal;font-size:8px;font-family:Quarca;-inkscape-font-specification:Quarca;fill:#dddddd;fill-opacity:1;stroke-width:1"
     d="m 380.644,228.512 c -0.504,0 -0.688,-0.24 -0.688,-0.744 v -3.328 c 0,-0.504 0.184,-0.744 0.688,-0.744 h 1.296 c 0.504,0 0.688,0.24 0.688,0.744 v 0.52 h 0.456 v -0.592 c 0,-0.736 -0.28,-1.104 -1.096,-1.104 h -1.392 c -0.816,0 -1.096,0.368 -1.096,1.104 v 3.472 c 0,0.736 0.28,1.104 1.096,1.104 h 1.392 c 0.816,0 1.096,-0.368 1.096,-1.104 v -0.608 h -0.456 v 0.536 c 0,0.504 -0.184,0.744 -0.688,0.744 z" /><path
     id="path23442"
     style="font-style:normal;font-variant:normal;font-weight:normal;font-stretch:normal;font-size:8px;font-family:Quarca;-inkscape-font-specification:Quarca;fill:#dddddd;fill-opacity:1;stroke-width:1"
     d="m 385.7695,228.944 1.616,-5.68 h -0.488 l -1.328,4.808 c -0.024,0.112 -0.048,0.232 -0.056,0.336 -0.016,-0.104 -0.032,-0.224 -0.064,-0.336 l -1.328,-4.808 h -0.488 l 1.624,5.68 z" /><path
     id="path23444"
     style="font-style:normal;font-variant:normal;font-weight:normal;font-stretch:normal;font-size:8px;font-family:Quarca;-inkscape-font-specification:Quarca;fill:#dddddd;fill-opacity:1;stroke-width:1"
     d="m 389.48438,227.84 c 0,0.736 0.28,1.104 1.096,1.104 h 1.52 c 0.816,0 1.096,-0.368 1.096,-1.104 v -3.472 c 0,-0.736 -0.28,-1.104 -1.096,-1.104 h -1.52 c -0.816,0 -1.096,0.368 -1.096,1.104 z m 1.144,-4.144 h 1.424 c 0.512,0 0.688,0.24 0.688,0.744 v 3.328 c 0,0.504 -0.176,0.744 -0.688,0.744 h -1.424 c -0.504,0 -0.688,-0.24 -0.688,-0.744 v -3.328 c 0,-0.504 0.184,-0.744 0.688,-0.744 z" /><path
     id="path23446"
     style="font-style:normal;font-variant:normal;font-weight:normal;font-stretch:normal;font-size:8px;font-family:Quarca;-inkscape-font-specification:Quarca;fill:#dddddd;fill-opacity:1;stroke-width:1"
     d="m 396.49113,228.512 h -1.024 c -0.552,0 -0.792,-0.256 -0.792,-0.84 v -4.408 h -0.456 v 4.536 c 0,0.76 0.352,1.144 1.152,1.144 h 1.216 c 0.8,0 1.152,-0.384 1.152,-1.144 v -4.536 h -0.464 v 4.408 c 0,0.584 -0.232,0.84 -0.784,0.84 z" /><path
     id="path23448"
     style="font-style:normal;font-variant:normal;font-weight:normal;font-stretch:normal;font-size:8px;font-family:Quarca;-inkscape-font-specification:Quarca;fill:#dddddd;fill-opacity:1;stroke-width:1"
     d="m 401.71763,223.696 v -0.432 h -3.368 v 0.432 h 1.456 v 5.248 h 0.464 v -5.248 z" /></g>
<g
   style="font-style:normal;font-variant:normal;font-weight:normal;font-stretch:normal;font-size:8px;line-height:1.25;font-family:Quarca;-inkscape-font-specification:Quarca;letter-spacing:0px;word-spacing:0px;fill:#dddddd;fill-opacity:1;stroke:none;stroke-width:1"
   id="text5443-7-5-4-4-7-7"
   aria-label="MULTIPLY"><path
     id="path23423"
     style="font-style:normal;font-variant:normal;font-weight:normal;font-stretch:normal;font-size:8px;font-family:Quarca;-inkscape-font-specification:Quarca;fill:#dddddd;fill-opacity:1;stroke-width:1"
     d="M 294.93999,228.944 V 224 l 1.416,2.768 h 0.448 l 1.424,-2.768 v 4.944 h 0.44 v -5.68 h -0.544 l -1.544,3.016 -1.536,-3.016 h -0.544 v 5.68 z" /><path
     id="path23425"
     style="font-style:normal;font-variant:normal;font-weight:normal;font-stretch:normal;font-size:8px;font-family:Quarca;-inkscape-font-specification:Quarca;fill:#dddddd;fill-opacity:1;stroke-width:1"
     d="m 301.99036,228.512 h -1.024 c -0.552,0 -0.792,-0.256 -0.792,-0.84 v -4.408 h -0.456 v 4.536 c 0,0.76 0.352,1.144 1.152,1.144 h 1.216 c 0.8,0 1.152,-0.384 1.152,-1.144 v -4.536 h -0.464 v 4.408 c 0,0.584 -0.232,0.84 -0.784,0.84 z" /><path
     id="path23427"
     style="font-style:normal;font-variant:normal;font-weight:normal;font-stretch:normal;font-size:8px;font-family:Quarca;-inkscape-font-specification:Quarca;fill:#dddddd;fill-opacity:1;stroke-width:1"
     d="m 304.75286,223.264 h -0.456 v 5.68 h 2.912 l 0.064,-0.432 h -2.52 z" /><path
     id="path23429"
     style="font-style:normal;font-variant:normal;font-weight:normal;font-stretch:normal;font-size:8px;font-family:Quarca;-inkscape-font-specification:Quarca;fill:#dddddd;fill-opacity:1;stroke-width:1"
     d="m 310.10749,223.696 v -0.432 h -3.368 v 0.432 h 1.456 v 5.248 h 0.464 v -5.248 z" /><path
     id="path23431"
     style="font-style:normal;font-variant:normal;font-weight:normal;font-stretch:normal;font-size:8px;font-family:Quarca;-inkscape-font-specification:Quarca;fill:#dddddd;fill-opacity:1;stroke-width:1"
     d="m 311.19036,228.944 v -5.68 h -0.456 v 5.68 z" /><path
     id="path23433"
     style="font-style:normal;font-variant:normal;font-weight:normal;font-stretch:normal;font-size:8px;font-family:Quarca;-inkscape-font-specification:Quarca;fill:#dddddd;fill-opacity:1;stroke-width:1"
     d="m 312.72161,226.608 h 1.792 c 0.712,0 1.08,-0.36 1.08,-1.072 v -1.2 c 0,-0.712 -0.368,-1.072 -1.08,-1.072 h -2.248 v 5.68 h 0.456 z m 0,-2.912 h 1.728 c 0.464,0 0.68,0.216 0.68,0.728 v 1.024 c 0,0.512 -0.216,0.728 -0.68,0.728 h -1.728 z" /><path
     id="path23435"
     style="font-style:normal;font-variant:normal;font-weight:normal;font-stretch:normal;font-size:8px;font-family:Quarca;-inkscape-font-specification:Quarca;fill:#dddddd;fill-opacity:1;stroke-width:1"
     d="m 316.89349,223.264 h -0.456 v 5.68 h 2.912 l 0.064,-0.432 h -2.52 z" /><path
     id="path23437"
     style="font-style:normal;font-variant:normal;font-weight:normal;font-stretch:normal;font-size:8px;font-family:Quarca;-inkscape-font-specification:Quarca;fill:#dddddd;fill-opacity:1;stroke-width:1"
     d="m 320.99436,228.944 v -2.352 l 1.68,-3.328 h -0.48 l -1.264,2.52 c -0.136,0.264 -0.144,0.32 -0.168,0.424 -0.024,-0.104 -0.048,-0.16 -0.176,-0.432 l -1.272,-2.512 h -0.48 l 1.696,3.336 v 2.344 z" /></g>
<g
   style="font-style:normal;font-variant:normal;font-weight:bold;font-stretch:normal;font-size:8px;line-height:1.25;font-family:Arial;-inkscape-font-specification:'Arial Bold';text-align:center;letter-spacing:0px;word-spacing:0px;text-anchor:middle;fill:#000000;fill-opacity:1;stroke:none"
   id="flowRoot2224" /><g
   style="font-style:normal;font-variant:normal;font-weight:normal;font-stretch:normal;font-size:8px;line-height:1.25;font-family:Quarca;-inkscape-font-specification:Quarca;letter-spacing:0px;word-spacing:0px;fill:#dddddd;fill-opacity:1;stroke:none;stroke-width:1"
   id="text5443-7-5-4-4-7-7-7"
   aria-label="OFFSET"><path
     id="path23409"
     style="font-style:normal;font-variant:normal;font-weight:normal;font-stretch:normal;font-size:8px;font-family:Quarca;-inkscape-font-specification:Quarca;fill:#dddddd;fill-opacity:1;stroke-width:1"
     d="m 343.5,227.84 c 0,0.736 0.28,1.104 1.096,1.104 h 1.52 c 0.816,0 1.096,-0.368 1.096,-1.104 v -3.472 c 0,-0.736 -0.28,-1.104 -1.096,-1.104 h -1.52 c -0.816,0 -1.096,0.368 -1.096,1.104 z m 1.144,-4.144 h 1.424 c 0.512,0 0.688,0.24 0.688,0.744 v 3.328 c 0,0.504 -0.176,0.744 -0.688,0.744 h -1.424 c -0.504,0 -0.688,-0.24 -0.688,-0.744 v -3.328 c 0,-0.504 0.184,-0.744 0.688,-0.744 z" /><path
     id="path23411"
     style="font-style:normal;font-variant:normal;font-weight:normal;font-stretch:normal;font-size:8px;font-family:Quarca;-inkscape-font-specification:Quarca;fill:#dddddd;fill-opacity:1;stroke-width:1"
     d="m 348.70675,223.696 h 2.544 l 0.064,-0.432 h -3.064 v 5.68 h 0.456 v -2.168 h 2.016 l 0.064,-0.424 h -2.08 z" /><path
     id="path23413"
     style="font-style:normal;font-variant:normal;font-weight:normal;font-stretch:normal;font-size:8px;font-family:Quarca;-inkscape-font-specification:Quarca;fill:#dddddd;fill-opacity:1;stroke-width:1"
     d="m 352.45675,223.696 h 2.544 l 0.064,-0.432 h -3.064 v 5.68 h 0.456 v -2.168 h 2.016 l 0.064,-0.424 h -2.08 z" /><path
     id="path23415"
     style="font-style:normal;font-variant:normal;font-weight:normal;font-stretch:normal;font-size:8px;font-family:Quarca;-inkscape-font-specification:Quarca;fill:#dddddd;fill-opacity:1;stroke-width:1"
     d="m 358.04675,226.584 c 0.4,0.168 0.504,0.304 0.504,0.696 v 0.552 c 0,0.48 -0.2,0.68 -0.656,0.68 h -1.208 c -0.456,0 -0.664,-0.2 -0.664,-0.68 v -0.6 h -0.456 v 0.712 c 0,0.664 0.312,1 1.048,1 h 1.408 c 0.664,0 0.992,-0.336 0.992,-1 v -0.784 c 0,-0.568 -0.216,-0.768 -0.8,-1.024 l -1.64,-0.696 c -0.376,-0.16 -0.472,-0.312 -0.472,-0.664 v -0.352 c 0,-0.544 0.176,-0.728 0.688,-0.728 h 1 c 0.456,0 0.68,0.208 0.68,0.704 v 0.536 h 0.464 v -0.648 c 0,-0.72 -0.344,-1.024 -1.08,-1.024 h -1.184 c -0.704,0 -1.024,0.312 -1.024,1.024 v 0.56 c 0,0.576 0.192,0.784 0.792,1.048 z" /><path
     id="path23417"
     style="font-style:normal;font-variant:normal;font-weight:normal;font-stretch:normal;font-size:8px;font-family:Quarca;-inkscape-font-specification:Quarca;fill:#dddddd;fill-opacity:1;stroke-width:1"
     d="m 360.37863,223.696 h 2.568 l 0.064,-0.432 h -3.088 v 5.68 h 3.04 l 0.064,-0.432 h -2.648 v -1.736 h 2.152 l 0.064,-0.424 h -2.216 z" /><path
     id="path23419"
     style="font-style:normal;font-variant:normal;font-weight:normal;font-stretch:normal;font-size:8px;font-family:Quarca;-inkscape-font-specification:Quarca;fill:#dddddd;fill-opacity:1;stroke-width:1"
     d="m 366.68638,223.696 v -0.432 h -3.368 v 0.432 h 1.456 v 5.248 h 0.464 v -5.248 z" /></g>
<g
   style="font-style:normal;font-variant:normal;font-weight:normal;font-stretch:normal;font-size:13.3333px;line-height:1.25;font-family:Quarca;-inkscape-font-specification:Quarca;text-align:start;letter-spacing:0px;word-spacing:0px;text-anchor:start;fill:#dddddd;fill-opacity:1;stroke:none;stroke-width:1"
   id="text3885-4"
   aria-label="CV EXPANDER"><path
     id="path23388"
     style="font-style:normal;font-variant:normal;font-weight:normal;font-stretch:normal;font-size:12px;font-family:Quarca;-inkscape-font-specification:Quarca;text-align:start;text-anchor:start;fill:#dddddd;fill-opacity:1;stroke-width:1"
     d="m 329.21599,217.81886 c -0.756,0 -1.032,-0.36 -1.032,-1.116 v -4.992 c 0,-0.756 0.276,-1.116 1.032,-1.116 h 1.944 c 0.756,0 1.032,0.36 1.032,1.116 v 0.78 h 0.684 v -0.888 c 0,-1.104 -0.42,-1.656 -1.644,-1.656 h -2.088 c -1.224,0 -1.644,0.552 -1.644,1.656 v 5.208 c 0,1.104 0.42,1.656 1.644,1.656 h 2.088 c 1.224,0 1.644,-0.552 1.644,-1.656 v -0.912 h -0.684 v 0.804 c 0,0.756 -0.276,1.116 -1.032,1.116 z" /><path
     id="path23390"
     style="font-style:normal;font-variant:normal;font-weight:normal;font-stretch:normal;font-size:12px;font-family:Quarca;-inkscape-font-specification:Quarca;text-align:start;text-anchor:start;fill:#dddddd;fill-opacity:1;stroke-width:1"
     d="m 336.90424,218.46686 2.424,-8.52 h -0.732 l -1.992,7.212 c -0.036,0.168 -0.072,0.348 -0.084,0.504 -0.024,-0.156 -0.048,-0.336 -0.096,-0.504 l -1.992,-7.212 h -0.732 l 2.436,8.52 z" /><path
     id="path23392"
     style="font-style:normal;font-variant:normal;font-weight:normal;font-stretch:normal;font-size:12px;font-family:Quarca;-inkscape-font-specification:Quarca;text-align:start;text-anchor:start;fill:#dddddd;fill-opacity:1;stroke-width:1"
     d="m 343.20855,210.59486 h 3.852 l 0.096,-0.648 h -4.632 v 8.52 h 4.56 l 0.096,-0.648 h -3.972 v -2.604 h 3.228 l 0.096,-0.636 h -3.324 z" /><path
     id="path23394"
     style="font-style:normal;font-variant:normal;font-weight:normal;font-stretch:normal;font-size:12px;font-family:Quarca;-inkscape-font-specification:Quarca;text-align:start;text-anchor:start;fill:#dddddd;fill-opacity:1;stroke-width:1"
     d="m 350.25818,213.91886 -1.956,-3.972 h -0.708 l 2.1,4.272 -2.064,4.248 h 0.72 l 1.908,-3.876 1.884,3.876 h 0.72 l -2.04,-4.248 2.076,-4.272 h -0.708 z" /><path
     id="path23396"
     style="font-style:normal;font-variant:normal;font-weight:normal;font-stretch:normal;font-size:12px;font-family:Quarca;-inkscape-font-specification:Quarca;text-align:start;text-anchor:start;fill:#dddddd;fill-opacity:1;stroke-width:1"
     d="m 354.50543,214.96286 h 2.688 c 1.068,0 1.62,-0.54 1.62,-1.608 v -1.8 c 0,-1.068 -0.552,-1.608 -1.62,-1.608 h -3.372 v 8.52 h 0.684 z m 0,-4.368 h 2.592 c 0.696,0 1.02,0.324 1.02,1.092 v 1.536 c 0,0.768 -0.324,1.092 -1.02,1.092 h -2.592 z" /><path
     id="path23398"
     style="font-style:normal;font-variant:normal;font-weight:normal;font-stretch:normal;font-size:12px;font-family:Quarca;-inkscape-font-specification:Quarca;text-align:start;text-anchor:start;fill:#dddddd;fill-opacity:1;stroke-width:1"
     d="m 361.5333,209.94686 -2.628,8.52 h 0.732 l 0.552,-1.848 h 3.432 l 0.552,1.848 h 0.732 l -2.616,-8.52 z m 0.384,0.912 1.512,5.112 h -3.048 z" /><path
     id="path23400"
     style="font-style:normal;font-variant:normal;font-weight:normal;font-stretch:normal;font-size:12px;font-family:Quarca;-inkscape-font-specification:Quarca;text-align:start;text-anchor:start;fill:#dddddd;fill-opacity:1;stroke-width:1"
     d="m 366.62261,218.46686 v -7.332 c 0.18,0.396 0.336,0.792 0.624,1.284 l 3.504,6.048 h 0.696 v -8.52 h -0.696 v 7.32 c -0.132,-0.312 -0.252,-0.612 -0.48,-1.008 l -3.648,-6.312 h -0.684 v 8.52 z" /><path
     id="path23402"
     style="font-style:normal;font-variant:normal;font-weight:normal;font-stretch:normal;font-size:12px;font-family:Quarca;-inkscape-font-specification:Quarca;text-align:start;text-anchor:start;fill:#dddddd;fill-opacity:1;stroke-width:1"
     d="m 373.06361,218.46686 h 3.336 c 1.5,0 2.112,-0.66 2.112,-2.016 v -4.488 c 0,-1.356 -0.612,-2.016 -2.112,-2.016 h -3.336 z m 3.3,-0.648 h -2.616 v -7.224 h 2.616 c 1.044,0 1.464,0.468 1.464,1.512 v 4.2 c 0,1.044 -0.42,1.512 -1.464,1.512 z" /><path
     id="path23404"
     style="font-style:normal;font-variant:normal;font-weight:normal;font-stretch:normal;font-size:12px;font-family:Quarca;-inkscape-font-specification:Quarca;text-align:start;text-anchor:start;fill:#dddddd;fill-opacity:1;stroke-width:1"
     d="m 380.75543,210.59486 h 3.852 l 0.096,-0.648 h -4.632 v 8.52 h 4.56 l 0.096,-0.648 h -3.972 v -2.604 h 3.228 l 0.096,-0.636 h -3.324 z" /><path
     id="path23406"
     style="font-style:normal;font-variant:normal;font-weight:normal;font-stretch:normal;font-size:12px;font-family:Quarca;-inkscape-font-specification:Quarca;text-align:start;text-anchor:start;fill:#dddddd;fill-opacity:1;stroke-width:1"
     d="m 385.83705,218.46686 h 0.684 v -3.42 h 1.572 l 2.388,3.42 h 0.804 l -2.4,-3.42 h 0.168 c 1.14,0 1.692,-0.54 1.692,-1.62 v -1.86 c 0,-1.08 -0.552,-1.62 -1.692,-1.62 h -3.216 z m 0.684,-7.872 h 2.412 c 0.768,0 1.116,0.36 1.116,1.176 v 1.452 c 0,0.828 -0.348,1.188 -1.116,1.188 h -2.412 z" /></g>
</svg>
