<?xml version="1.0" encoding="UTF-8" standalone="no"?>
<svg
   xmlns:dc="http://purl.org/dc/elements/1.1/"
   xmlns:cc="http://creativecommons.org/ns#"
   xmlns:rdf="http://www.w3.org/1999/02/22-rdf-syntax-ns#"
   xmlns:svg="http://www.w3.org/2000/svg"
   xmlns="http://www.w3.org/2000/svg"
   xmlns:xlink="http://www.w3.org/1999/xlink"
   xmlns:sodipodi="http://sodipodi.sourceforge.net/DTD/sodipodi-0.dtd"
   xmlns:inkscape="http://www.inkscape.org/namespaces/inkscape"
   version="1.1"
   id="svg4541"
   inkscape:version="1.0 (4035a4fb49, 2020-05-01)"
   sodipodi:docname="SeedsOfChangeGateExpander.svg"
   x="0px"
   y="0px"
   viewBox="283.5 206 105 380"
   enable-background="new 283.5 206 90 380"
   xml:space="preserve"
   width="105"
   height="380"><metadata
   id="metadata1113"><rdf:RDF><cc:Work
       rdf:about=""><dc:format>image/svg+xml</dc:format><dc:type
         rdf:resource="http://purl.org/dc/dcmitype/StillImage" /><dc:title></dc:title></cc:Work></rdf:RDF></metadata><defs
   id="defs1111"><linearGradient
   inkscape:collect="always"
   xlink:href="#linearGradient4047"
   id="linearGradient4049"
   x1="35.418064"
   y1="158.3329"
   x2="35.219627"
   y2="50.462322"
   gradientUnits="userSpaceOnUse"
   gradientTransform="matrix(1.1006166,0,0,3.7850074,244.73672,14.999728)" /><linearGradient
   inkscape:collect="always"
   id="linearGradient4047">
             <stop
   style="stop-color:#0c1622;stop-opacity:1"
   offset="0"
   id="stop3387" />
      <stop
   style="stop-color:#161625;stop-opacity:1"
   offset=".3"
   id="stop3388" />
      <stop
   style="stop-color:#081f35;stop-opacity:1"
   offset="1"
   id="stop3389" />
    </linearGradient>
         </defs>
      <path
   inkscape:connector-curvature="0"
   id="path33493"
   d="m 283.5,206 h 105 v 380 h -105 z m 0,0"
   style="fill:url(#linearGradient4049);fill-opacity:1;fill-rule:nonzero;stroke:none;stroke-width:0.87441283"
   inkscape:export-filename="/home/vortico/pics/tmp/LFOs.png"
   inkscape:export-xdpi="150.22649"
   inkscape:export-ydpi="150.22649" /><sodipodi:namedview
   inkscape:snap-bbox-edge-midpoints="true"
   inkscape:pageopacity="0"
   inkscape:snap-others="true"
   inkscape:snap-object-midpoints="true"
   inkscape:snap-text-baseline="false"
   inkscape:snap-midpoints="true"
   inkscape:snap-nodes="true"
   inkscape:snap-global="true"
   inkscape:snap-smooth-nodes="true"
   inkscape:object-paths="false"
   inkscape:snap-bbox="true"
   inkscape:bbox-nodes="true"
   inkscape:current-layer="svg4541"
   inkscape:window-maximized="1"
   inkscape:window-y="-6"
   inkscape:window-x="-6"
   inkscape:window-height="1058"
   inkscape:window-width="1920"
   inkscape:pageshadow="2"
   units="px"
   inkscape:cy="175.69742"
   guidetolerance="10"
   gridtolerance="10"
   inkscape:cx="-34.294846"
   showgrid="false"
   id="namedview10"
   pagecolor="#ffffff"
   objecttolerance="10"
   borderopacity="1"
   bordercolor="#666666"
   inkscape:zoom="1.9999999"
   inkscape:document-rotation="0" /><g
   id="g3774"
   display="none"
   style="display:none"><path
     id="path3762"
     inkscape:connector-curvature="0"
     display="inline"
     d="m 306.6,109.8 -78.2,52.1"
     style="display:inline;fill:none;stroke:#000000;stroke-width:0.26460001" /><path
     id="path3764"
     inkscape:connector-curvature="0"
     display="inline"
     d="m 306.6,109.8 -26.1,52.1"
     style="display:inline;fill:none;stroke:#000000;stroke-width:0.26460001" /><path
     id="path3766"
     inkscape:connector-curvature="0"
     display="inline"
     d="m 306.6,109.8 26.1,52.1"
     style="display:inline;fill:none;stroke:#000000;stroke-width:0.26460001" /><path
     id="path3768"
     inkscape:connector-curvature="0"
     display="inline"
     d="m 306.6,109.8 78.2,52.1"
     style="display:inline;fill:none;stroke:#000000;stroke-width:0.26460001" /></g><g
   id="g3755"
   display="none"
   style="display:none"><path
     id="path3749"
     sodipodi:nodetypes="cccc"
     inkscape:connector-curvature="0"
     display="inline"
     d="m 332.7,137.3 v -27.5 h 52.5 v 27.5"
     style="display:inline;fill:none;stroke:#000000;stroke-width:0.26460001" /><path
     id="path3740"
     sodipodi:nodetypes="cccc"
     inkscape:connector-curvature="0"
     display="inline"
     d="M 228.5,137.3 V 109.8 H 281 v 27.5"
     style="display:inline;fill:none;stroke:#000000;stroke-width:0.26460001" /></g><g
   id="layer1"
   inkscape:label="Pins"
   display="none"
   style="display:none"><g
     id="g3088"
     transform="matrix(0.27191367,0,0,-0.27191367,-65.704999,518.54402)"
     display="inline"
     style="display:inline"><path
       id="path4639"
       inkscape:connector-curvature="0"
       d="m 1369.3,1412.6 c -49.8,0 -90.5,40.6 -90.5,90.5 0,49.9 40.6,90.5 90.5,90.5 49.8,0 90.5,-40.6 90.5,-90.5 0,-49.9 -40.5,-90.5 -90.5,-90.5"
       style="fill:#e7e7e7;stroke:#909290;stroke-width:0.97299999" /><path
       id="path4647"
       inkscape:connector-curvature="0"
       d="m 1369.3,1438 c -35.8,0 -65.2,29.2 -65.2,65.2 0,35.8 29.2,65.2 65.2,65.2 35.8,0 65.2,-29.2 65.2,-65.2 0,-36 -29.2,-65.2 -65.2,-65.2"
       style="fill:#e7e7e7;stroke:#909290;stroke-width:0.97299999" /><path
       id="path4655"
       inkscape:connector-curvature="0"
       d="m 1409.5,1503.1 c 0,-22.1 -17.9,-40.2 -40.2,-40.2 -22.1,0 -40.2,17.9 -40.2,40.2 0,22.3 17.9,40.2 40.2,40.2 22.3,0 40.2,-17.9 40.2,-40.2"
       style="stroke:#909290;stroke-width:0.97299999" /></g><g
     id="g3778"
     transform="matrix(0.27191367,0,0,-0.27191367,-75.626874,525.1586)"
     display="inline"
     style="display:inline"><path
       id="path3772"
       inkscape:connector-curvature="0"
       d="m 1118.4,1245.3 c -49.8,0 -90.5,40.6 -90.5,90.5 0,49.8 40.6,90.5 90.5,90.5 49.8,0 90.5,-40.6 90.5,-90.5 -0.1,-49.8 -40.5,-90.5 -90.5,-90.5"
       style="fill:#e7e7e7;stroke:#909290;stroke-width:0.97299999" /><path
       id="path3774"
       inkscape:connector-curvature="0"
       d="m 1118.4,1270.6 c -35.8,0 -65.2,29.2 -65.2,65.2 0,35.8 29.2,65.2 65.2,65.2 35.8,0 65.2,-29.2 65.2,-65.2 0,-35.9 -29.2,-65.2 -65.2,-65.2"
       style="fill:#e7e7e7;stroke:#909290;stroke-width:0.97299999" /><path
       id="path3776"
       inkscape:connector-curvature="0"
       d="m 1158.6,1335.8 c 0,-22.1 -17.9,-40.2 -40.2,-40.2 -22.1,0 -40.2,17.9 -40.2,40.2 0,22.3 17.9,40.2 40.2,40.2 22.3,0 40.2,-17.9 40.2,-40.2"
       style="stroke:#909290;stroke-width:0.97299999" /></g><g
     id="g3786"
     transform="matrix(0.27191367,0,0,-0.27191367,-69.01229,525.1586)"
     display="inline"
     style="display:inline"><path
       id="path3780"
       inkscape:connector-curvature="0"
       d="m 1285.6,1245.3 c -49.8,0 -90.5,40.6 -90.5,90.5 0,49.8 40.6,90.5 90.5,90.5 49.8,0 90.5,-40.6 90.5,-90.5 0,-49.8 -40.5,-90.5 -90.5,-90.5"
       style="fill:#e7e7e7;stroke:#909290;stroke-width:0.97299999" /><path
       id="path3782"
       inkscape:connector-curvature="0"
       d="m 1285.6,1270.6 c -35.8,0 -65.2,29.2 -65.2,65.2 0,35.8 29.2,65.2 65.2,65.2 35.8,0 65.2,-29.2 65.2,-65.2 0.1,-35.9 -29.1,-65.2 -65.2,-65.2"
       style="fill:#e7e7e7;stroke:#909290;stroke-width:0.97299999" /><path
       id="path3784"
       inkscape:connector-curvature="0"
       d="m 1325.8,1335.8 c 0,-22.1 -17.9,-40.2 -40.2,-40.2 -22.1,0 -40.2,17.9 -40.2,40.2 0,22.3 17.9,40.2 40.2,40.2 22.3,0 40.2,-17.9 40.2,-40.2"
       style="stroke:#909290;stroke-width:0.97299999" /></g><g
     id="g3794"
     transform="matrix(0.27191367,0,0,-0.27191367,-62.397707,525.1586)"
     display="inline"
     style="display:inline"><path
       id="path3788"
       inkscape:connector-curvature="0"
       d="m 1453.1,1245.3 c -49.8,0 -90.5,40.6 -90.5,90.5 0,49.8 40.6,90.5 90.5,90.5 49.8,0 90.5,-40.6 90.5,-90.5 0,-49.8 -40.7,-90.5 -90.5,-90.5"
       style="fill:#e7e7e7;stroke:#909290;stroke-width:0.97299999" /><path
       id="path3790"
       inkscape:connector-curvature="0"
       d="m 1453.1,1270.6 c -35.8,0 -65.2,29.2 -65.2,65.2 0,35.8 29.2,65.2 65.2,65.2 35.8,0 65.2,-29.2 65.2,-65.2 -0.2,-35.9 -29.4,-65.2 -65.2,-65.2"
       style="fill:#e7e7e7;stroke:#909290;stroke-width:0.97299999" /><path
       id="path3792"
       inkscape:connector-curvature="0"
       d="m 1493.1,1335.8 c 0,-22.1 -17.9,-40.2 -40.2,-40.2 -22.1,0 -40.2,17.9 -40.2,40.2 0,22.3 17.9,40.2 40.2,40.2 22.3,0 40.2,-17.9 40.2,-40.2"
       style="stroke:#909290;stroke-width:0.97299999" /></g><g
     id="g3802"
     transform="matrix(0.27191367,0,0,-0.27191367,-55.783123,525.1586)"
     display="inline"
     style="display:inline"><path
       id="path3796"
       inkscape:connector-curvature="0"
       d="m 1620.4,1245.3 c -49.8,0 -90.5,40.6 -90.5,90.5 0,49.8 40.6,90.5 90.5,90.5 49.8,0 90.5,-40.6 90.5,-90.5 -0.1,-49.8 -40.7,-90.5 -90.5,-90.5"
       style="fill:#e7e7e7;stroke:#909290;stroke-width:0.97299999" /><path
       id="path3798"
       inkscape:connector-curvature="0"
       d="m 1620.4,1270.6 c -35.8,0 -65.2,29.2 -65.2,65.2 0,35.8 29.2,65.2 65.2,65.2 35.8,0 65.2,-29.2 65.2,-65.2 -0.2,-35.9 -29.4,-65.2 -65.2,-65.2"
       style="fill:#e7e7e7;stroke:#909290;stroke-width:0.97299999" /><path
       id="path3800"
       inkscape:connector-curvature="0"
       d="m 1660.6,1335.8 c 0,-22.1 -17.9,-40.2 -40.2,-40.2 -22.1,0 -40.2,17.9 -40.2,40.2 0,22.3 17.9,40.2 40.2,40.2 22.1,0 40.2,-17.9 40.2,-40.2"
       style="stroke:#909290;stroke-width:0.97299999" /></g></g><g
   style="font-style:normal;font-variant:normal;font-weight:normal;font-stretch:normal;font-size:13.3333px;line-height:1.25;font-family:Quarca;-inkscape-font-specification:Quarca;text-align:start;letter-spacing:0px;word-spacing:0px;text-anchor:start;fill:#dddddd;fill-opacity:1;stroke:none;stroke-width:1"
   id="text3885"
   aria-label="SoC"><path
     id="path18585"
     style="font-style:normal;font-variant:normal;font-weight:normal;font-stretch:normal;font-size:14.6667px;font-family:Quarca;-inkscape-font-specification:Quarca;text-align:start;text-anchor:start;fill:#dddddd;fill-opacity:1;stroke-width:1"
     d="m 330.04669,214.312 c 0.73333,0.308 0.924,0.55733 0.924,1.276 v 1.012 c 0,0.88 -0.36667,1.24667 -1.20267,1.24667 h -2.21467 c -0.836,0 -1.21734,-0.36667 -1.21734,-1.24667 v -1.1 h -0.836 v 1.30533 c 0,1.21734 0.572,1.83334 1.92134,1.83334 h 2.58134 c 1.21733,0 1.81867,-0.616 1.81867,-1.83334 V 215.368 c 0,-1.04134 -0.396,-1.40801 -1.46667,-1.87734 l -3.00668,-1.276 c -0.68933,-0.29334 -0.86533,-0.572 -0.86533,-1.21734 v -0.64533 c 0,-0.99734 0.32267,-1.33467 1.26134,-1.33467 h 1.83333 c 0.836,0 1.24667,0.38133 1.24667,1.29067 v 0.98266 h 0.85067 v -1.188 c 0,-1.32 -0.63067,-1.87734 -1.98,-1.87734 h -2.17068 c -1.29066,0 -1.87733,0.57201 -1.87733,1.87734 v 1.02667 c 0,1.056 0.352,1.43734 1.452,1.92134 z" /><path
     id="path18587"
     style="font-style:normal;font-variant:normal;font-weight:normal;font-stretch:normal;font-size:14.6667px;font-family:Quarca;-inkscape-font-specification:Quarca;text-align:start;text-anchor:start;fill:#dddddd;fill-opacity:1;stroke-width:1"
     d="m 335.26047,211.14399 c -1.39334,0 -1.92134,0.66 -1.92134,1.98 v 3.63734 c 0,1.24667 0.58667,1.87734 1.92134,1.87734 h 1.39334 c 1.32,0 1.90667,-0.63067 1.90667,-1.87734 v -3.63734 c 0,-1.32 -0.51334,-1.98 -1.92134,-1.98 z m 1.29067,0.71867 c 0.89467,0 1.21734,0.42533 1.21734,1.33467 V 216.6 c 0,0.968 -0.38134,1.32 -1.21734,1.32 h -1.20267 c -0.836,0 -1.20267,-0.352 -1.20267,-1.32 v -3.40267 c 0,-0.90934 0.308,-1.33467 1.20267,-1.33467 z" /><path
     id="path18589"
     style="font-style:normal;font-variant:normal;font-weight:normal;font-stretch:normal;font-size:14.6667px;font-family:Quarca;-inkscape-font-specification:Quarca;text-align:start;text-anchor:start;fill:#dddddd;fill-opacity:1;stroke-width:1"
     d="m 342.42813,217.84667 c -0.924,0 -1.26133,-0.44 -1.26133,-1.364 v -6.10135 c 0,-0.924 0.33733,-1.364 1.26133,-1.364 h 2.37601 c 0.924,0 1.26133,0.44 1.26133,1.364 v 0.95334 h 0.83601 v -1.08534 c 0,-1.34934 -0.51334,-2.02401 -2.00934,-2.02401 h -2.55201 c -1.496,0 -2.00934,0.67467 -2.00934,2.02401 v 6.36535 c 0,1.34933 0.51334,2.024 2.00934,2.024 h 2.55201 c 1.496,0 2.00934,-0.67467 2.00934,-2.024 V 215.5 h -0.83601 v 0.98267 c 0,0.924 -0.33733,1.364 -1.26133,1.364 z" /></g>
<g
   style="font-style:normal;font-variant:normal;font-weight:normal;font-stretch:normal;font-size:8px;line-height:1.25;font-family:Quarca;-inkscape-font-specification:Quarca;letter-spacing:0px;word-spacing:0px;fill:#dddddd;fill-opacity:1;stroke:none;stroke-width:1"
   id="text5443-7-5-4-0"
   aria-label="GATE"><path
     id="path18576"
     style="font-style:normal;font-variant:normal;font-weight:normal;font-stretch:normal;font-size:8px;font-family:Quarca;-inkscape-font-specification:Quarca;fill:#dddddd;fill-opacity:1;stroke-width:1"
     d="m 366.41201,244.688 h 1.368 v 1.192 c 0,0.464 -0.192,0.688 -0.704,0.688 h -1.264 c -0.472,0 -0.696,-0.216 -0.696,-0.728 v -3.304 c 0,-0.544 0.184,-0.784 0.656,-0.784 h 1.368 c 0.472,0 0.68,0.216 0.68,0.728 v 0.512 h 0.456 v -0.648 c 0,-0.712 -0.352,-1.024 -1.032,-1.024 h -1.624 c -0.64,0 -0.96,0.36 -0.96,1.08 v 3.584 c 0,0.72 0.4,1.016 1.04,1.016 h 1.488 c 0.792,0 1.056,-0.392 1.056,-1.08 v -1.664 h -1.768 z" /><path
     id="path18578"
     style="font-style:normal;font-variant:normal;font-weight:normal;font-stretch:normal;font-size:8px;font-family:Quarca;-inkscape-font-specification:Quarca;fill:#dddddd;fill-opacity:1;stroke-width:1"
     d="m 370.47388,241.32 -1.752,5.68 h 0.488 l 0.368,-1.232 h 2.288 l 0.368,1.232 h 0.488 l -1.744,-5.68 z m 0.256,0.608 1.008,3.408 h -2.032 z" /><path
     id="path18580"
     style="font-style:normal;font-variant:normal;font-weight:normal;font-stretch:normal;font-size:8px;font-family:Quarca;-inkscape-font-specification:Quarca;fill:#dddddd;fill-opacity:1;stroke-width:1"
     d="m 375.83076,241.752 v -0.432 h -3.368 v 0.432 h 1.456 V 247 h 0.464 v -5.248 z" /><path
     id="path18582"
     style="font-style:normal;font-variant:normal;font-weight:normal;font-stretch:normal;font-size:8px;font-family:Quarca;-inkscape-font-specification:Quarca;fill:#dddddd;fill-opacity:1;stroke-width:1"
     d="m 376.91363,241.752 h 2.568 l 0.064,-0.432 h -3.088 V 247 h 3.04 l 0.064,-0.432 h -2.648 v -1.736 h 2.152 l 0.064,-0.424 h -2.216 z" /></g>
<g
   style="font-style:normal;font-variant:normal;font-weight:normal;font-stretch:normal;font-size:8px;line-height:1.25;font-family:Quarca;-inkscape-font-specification:Quarca;letter-spacing:0px;word-spacing:0px;fill:#dddddd;fill-opacity:1;stroke:none;stroke-width:1"
   id="text5443-7-5-4-4-7-9"
   aria-label="PROBABILITY"><path
     id="path18553"
     style="font-style:normal;font-variant:normal;font-weight:normal;font-stretch:normal;font-size:8px;font-family:Quarca;-inkscape-font-specification:Quarca;fill:#dddddd;fill-opacity:1;stroke-width:1"
     d="m 291.90799,244.608 h 1.792 c 0.712,0 1.08,-0.36 1.08,-1.072 v -1.2 c 0,-0.712 -0.368,-1.072 -1.08,-1.072 h -2.248 v 5.68 h 0.456 z m 0,-2.912 h 1.728 c 0.464,0 0.68,0.216 0.68,0.728 v 1.024 c 0,0.512 -0.216,0.728 -0.68,0.728 h -1.728 z" /><path
     id="path18555"
     style="font-style:normal;font-variant:normal;font-weight:normal;font-stretch:normal;font-size:8px;font-family:Quarca;-inkscape-font-specification:Quarca;fill:#dddddd;fill-opacity:1;stroke-width:1"
     d="m 295.62386,246.944 h 0.456 v -2.28 h 1.048 l 1.592,2.28 h 0.536 l -1.6,-2.28 h 0.112 c 0.76,0 1.128,-0.36 1.128,-1.08 v -1.24 c 0,-0.72 -0.368,-1.08 -1.128,-1.08 h -2.144 z m 0.456,-5.248 h 1.608 c 0.512,0 0.744,0.24 0.744,0.784 v 0.968 c 0,0.552 -0.232,0.792 -0.744,0.792 h -1.608 z" /><path
     id="path18557"
     style="font-style:normal;font-variant:normal;font-weight:normal;font-stretch:normal;font-size:8px;font-family:Quarca;-inkscape-font-specification:Quarca;fill:#dddddd;fill-opacity:1;stroke-width:1"
     d="m 299.84186,245.84 c 0,0.736 0.28,1.104 1.096,1.104 h 1.52 c 0.816,0 1.096,-0.368 1.096,-1.104 v -3.472 c 0,-0.736 -0.28,-1.104 -1.096,-1.104 h -1.52 c -0.816,0 -1.096,0.368 -1.096,1.104 z m 1.144,-4.144 h 1.424 c 0.512,0 0.688,0.24 0.688,0.744 v 3.328 c 0,0.504 -0.176,0.744 -0.688,0.744 h -1.424 c -0.504,0 -0.688,-0.24 -0.688,-0.744 v -3.328 c 0,-0.504 0.184,-0.744 0.688,-0.744 z" /><path
     id="path18559"
     style="font-style:normal;font-variant:normal;font-weight:normal;font-stretch:normal;font-size:8px;font-family:Quarca;-inkscape-font-specification:Quarca;fill:#dddddd;fill-opacity:1;stroke-width:1"
     d="m 304.59261,246.944 h 2.224 c 0.856,0 1.24,-0.368 1.24,-1.104 v -0.776 c 0,-0.776 -0.416,-1.056 -0.928,-1.096 0.432,-0.088 0.632,-0.376 0.632,-0.904 v -0.696 c 0,-0.736 -0.424,-1.104 -1.32,-1.104 h -1.848 z m 0.456,-2.752 h 1.52 c 0.712,0 1.032,0.272 1.032,0.896 v 0.664 c 0,0.512 -0.264,0.76 -0.856,0.76 h -1.696 z m 0,-2.496 h 1.288 c 0.664,0 0.968,0.224 0.968,0.776 v 0.56 c 0,0.456 -0.248,0.736 -0.808,0.736 h -1.448 z" /><path
     id="path18561"
     style="font-style:normal;font-variant:normal;font-weight:normal;font-stretch:normal;font-size:8px;font-family:Quarca;-inkscape-font-specification:Quarca;fill:#dddddd;fill-opacity:1;stroke-width:1"
     d="m 310.21824,241.264 -1.752,5.68 h 0.488 l 0.368,-1.232 h 2.288 l 0.368,1.232 h 0.488 l -1.744,-5.68 z m 0.256,0.608 1.008,3.408 h -2.032 z" /><path
     id="path18563"
     style="font-style:normal;font-variant:normal;font-weight:normal;font-stretch:normal;font-size:8px;font-family:Quarca;-inkscape-font-specification:Quarca;fill:#dddddd;fill-opacity:1;stroke-width:1"
     d="m 313.15511,246.944 h 2.224 c 0.856,0 1.24,-0.368 1.24,-1.104 v -0.776 c 0,-0.776 -0.416,-1.056 -0.928,-1.096 0.432,-0.088 0.632,-0.376 0.632,-0.904 v -0.696 c 0,-0.736 -0.424,-1.104 -1.32,-1.104 h -1.848 z m 0.456,-2.752 h 1.52 c 0.712,0 1.032,0.272 1.032,0.896 v 0.664 c 0,0.512 -0.264,0.76 -0.856,0.76 h -1.696 z m 0,-2.496 h 1.288 c 0.664,0 0.968,0.224 0.968,0.776 v 0.56 c 0,0.456 -0.248,0.736 -0.808,0.736 h -1.448 z" /><path
     id="path18565"
     style="font-style:normal;font-variant:normal;font-weight:normal;font-stretch:normal;font-size:8px;font-family:Quarca;-inkscape-font-specification:Quarca;fill:#dddddd;fill-opacity:1;stroke-width:1"
     d="m 317.97049,246.944 v -5.68 h -0.456 v 5.68 z" /><path
     id="path18567"
     style="font-style:normal;font-variant:normal;font-weight:normal;font-stretch:normal;font-size:8px;font-family:Quarca;-inkscape-font-specification:Quarca;fill:#dddddd;fill-opacity:1;stroke-width:1"
     d="m 319.50174,241.264 h -0.456 v 5.68 h 2.912 l 0.064,-0.432 h -2.52 z" /><path
     id="path18569"
     style="font-style:normal;font-variant:normal;font-weight:normal;font-stretch:normal;font-size:8px;font-family:Quarca;-inkscape-font-specification:Quarca;fill:#dddddd;fill-opacity:1;stroke-width:1"
     d="m 323.09549,246.944 v -5.68 h -0.456 v 5.68 z" /><path
     id="path18571"
     style="font-style:normal;font-variant:normal;font-weight:normal;font-stretch:normal;font-size:8px;font-family:Quarca;-inkscape-font-specification:Quarca;fill:#dddddd;fill-opacity:1;stroke-width:1"
     d="m 327.09074,241.696 v -0.432 h -3.368 v 0.432 h 1.456 v 5.248 h 0.464 v -5.248 z" /><path
     id="path18573"
     style="font-style:normal;font-variant:normal;font-weight:normal;font-stretch:normal;font-size:8px;font-family:Quarca;-inkscape-font-specification:Quarca;fill:#dddddd;fill-opacity:1;stroke-width:1"
     d="m 329.47761,246.944 v -2.352 l 1.68,-3.328 h -0.48 l -1.264,2.52 c -0.136,0.264 -0.144,0.32 -0.168,0.424 -0.024,-0.104 -0.048,-0.16 -0.176,-0.432 l -1.272,-2.512 h -0.48 l 1.696,3.336 v 2.344 z" /></g>
<g
   style="font-style:normal;font-variant:normal;font-weight:bold;font-stretch:normal;font-size:8px;line-height:1.25;font-family:Arial;-inkscape-font-specification:'Arial Bold';text-align:center;letter-spacing:0px;word-spacing:0px;text-anchor:middle;fill:#000000;fill-opacity:1;stroke:none"
   id="flowRoot2224" /><g
   style="font-style:normal;font-variant:normal;font-weight:normal;font-stretch:normal;font-size:13.3333px;line-height:1.25;font-family:Quarca;-inkscape-font-specification:Quarca;text-align:start;letter-spacing:0px;word-spacing:0px;text-anchor:start;fill:#dddddd;fill-opacity:1;stroke:none;stroke-width:1"
   id="text3885-4"
   aria-label="GATE EXPANDER"><path
     id="path18527"
     style="font-style:normal;font-variant:normal;font-weight:normal;font-stretch:normal;font-size:12px;font-family:Quarca;-inkscape-font-specification:Quarca;text-align:start;text-anchor:start;fill:#dddddd;fill-opacity:1;stroke-width:1"
     d="m 301.12799,226.8286 h 2.052 v 1.788 c 0,0.696 -0.288,1.032 -1.056,1.032 h -1.896 c -0.708,0 -1.044,-0.324 -1.044,-1.092 v -4.956 c 0,-0.816 0.276,-1.176 0.984,-1.176 h 2.052 c 0.708,0 1.02,0.324 1.02,1.092 v 0.768 h 0.684 v -0.972 c 0,-1.068 -0.528,-1.536 -1.548,-1.536 h -2.436 c -0.96,0 -1.44,0.54 -1.44,1.62 v 5.376 c 0,1.08 0.6,1.524 1.56,1.524 h 2.232 c 1.188,0 1.584,-0.588 1.584,-1.62 v -2.496 h -2.652 z" /><path
     id="path18529"
     style="font-style:normal;font-variant:normal;font-weight:normal;font-stretch:normal;font-size:12px;font-family:Quarca;-inkscape-font-specification:Quarca;text-align:start;text-anchor:start;fill:#dddddd;fill-opacity:1;stroke-width:1"
     d="m 307.2208,221.7766 -2.628,8.52 h 0.732 l 0.552,-1.848 h 3.432 l 0.552,1.848 h 0.732 l -2.616,-8.52 z m 0.384,0.912 1.512,5.112 h -3.048 z" /><path
     id="path18531"
     style="font-style:normal;font-variant:normal;font-weight:normal;font-stretch:normal;font-size:12px;font-family:Quarca;-inkscape-font-specification:Quarca;text-align:start;text-anchor:start;fill:#dddddd;fill-opacity:1;stroke-width:1"
     d="m 315.25611,222.4246 v -0.648 h -5.052 v 0.648 h 2.184 v 7.872 h 0.696 v -7.872 z" /><path
     id="path18533"
     style="font-style:normal;font-variant:normal;font-weight:normal;font-stretch:normal;font-size:12px;font-family:Quarca;-inkscape-font-specification:Quarca;text-align:start;text-anchor:start;fill:#dddddd;fill-opacity:1;stroke-width:1"
     d="m 316.88043,222.4246 h 3.852 l 0.096,-0.648 h -4.632 v 8.52 h 4.56 l 0.096,-0.648 h -3.972 v -2.604 h 3.228 l 0.096,-0.636 h -3.324 z" /><path
     id="path18535"
     style="font-style:normal;font-variant:normal;font-weight:normal;font-stretch:normal;font-size:12px;font-family:Quarca;-inkscape-font-specification:Quarca;text-align:start;text-anchor:start;fill:#dddddd;fill-opacity:1;stroke-width:1"
     d="m 325.08355,222.4246 h 3.852 l 0.096,-0.648 h -4.632 v 8.52 h 4.56 l 0.096,-0.648 h -3.972 v -2.604 h 3.228 l 0.096,-0.636 h -3.324 z" /><path
     id="path18537"
     style="font-style:normal;font-variant:normal;font-weight:normal;font-stretch:normal;font-size:12px;font-family:Quarca;-inkscape-font-specification:Quarca;text-align:start;text-anchor:start;fill:#dddddd;fill-opacity:1;stroke-width:1"
     d="m 332.13318,225.7486 -1.956,-3.972 h -0.708 l 2.1,4.272 -2.064,4.248 h 0.72 l 1.908,-3.876 1.884,3.876 h 0.72 l -2.04,-4.248 2.076,-4.272 h -0.708 z" /><path
     id="path18539"
     style="font-style:normal;font-variant:normal;font-weight:normal;font-stretch:normal;font-size:12px;font-family:Quarca;-inkscape-font-specification:Quarca;text-align:start;text-anchor:start;fill:#dddddd;fill-opacity:1;stroke-width:1"
     d="m 336.38043,226.7926 h 2.688 c 1.068,0 1.62,-0.54 1.62,-1.608 v -1.8 c 0,-1.068 -0.552,-1.608 -1.62,-1.608 h -3.372 v 8.52 h 0.684 z m 0,-4.368 h 2.592 c 0.696,0 1.02,0.324 1.02,1.092 v 1.536 c 0,0.768 -0.324,1.092 -1.02,1.092 h -2.592 z" /><path
     id="path18541"
     style="font-style:normal;font-variant:normal;font-weight:normal;font-stretch:normal;font-size:12px;font-family:Quarca;-inkscape-font-specification:Quarca;text-align:start;text-anchor:start;fill:#dddddd;fill-opacity:1;stroke-width:1"
     d="m 343.4083,221.7766 -2.628,8.52 h 0.732 l 0.552,-1.848 h 3.432 l 0.552,1.848 h 0.732 l -2.616,-8.52 z m 0.384,0.912 1.512,5.112 h -3.048 z" /><path
     id="path18543"
     style="font-style:normal;font-variant:normal;font-weight:normal;font-stretch:normal;font-size:12px;font-family:Quarca;-inkscape-font-specification:Quarca;text-align:start;text-anchor:start;fill:#dddddd;fill-opacity:1;stroke-width:1"
     d="m 348.49761,230.2966 v -7.332 c 0.18,0.396 0.336,0.792 0.624,1.284 l 3.504,6.048 h 0.696 v -8.52 h -0.696 v 7.32 c -0.132,-0.312 -0.252,-0.612 -0.48,-1.008 l -3.648,-6.312 h -0.684 v 8.52 z" /><path
     id="path18545"
     style="font-style:normal;font-variant:normal;font-weight:normal;font-stretch:normal;font-size:12px;font-family:Quarca;-inkscape-font-specification:Quarca;text-align:start;text-anchor:start;fill:#dddddd;fill-opacity:1;stroke-width:1"
     d="m 354.93861,230.2966 h 3.336 c 1.5,0 2.112,-0.66 2.112,-2.016 v -4.488 c 0,-1.356 -0.612,-2.016 -2.112,-2.016 h -3.336 z m 3.3,-0.648 h -2.616 v -7.224 h 2.616 c 1.044,0 1.464,0.468 1.464,1.512 v 4.2 c 0,1.044 -0.42,1.512 -1.464,1.512 z" /><path
     id="path18547"
     style="font-style:normal;font-variant:normal;font-weight:normal;font-stretch:normal;font-size:12px;font-family:Quarca;-inkscape-font-specification:Quarca;text-align:start;text-anchor:start;fill:#dddddd;fill-opacity:1;stroke-width:1"
     d="m 362.63043,222.4246 h 3.852 l 0.096,-0.648 h -4.632 v 8.52 h 4.56 l 0.096,-0.648 h -3.972 v -2.604 h 3.228 l 0.096,-0.636 h -3.324 z" /><path
     id="path18549"
     style="font-style:normal;font-variant:normal;font-weight:normal;font-stretch:normal;font-size:12px;font-family:Quarca;-inkscape-font-specification:Quarca;text-align:start;text-anchor:start;fill:#dddddd;fill-opacity:1;stroke-width:1"
     d="m 367.71205,230.2966 h 0.684 v -3.42 h 1.572 l 2.388,3.42 h 0.804 l -2.4,-3.42 h 0.168 c 1.14,0 1.692,-0.54 1.692,-1.62 v -1.86 c 0,-1.08 -0.552,-1.62 -1.692,-1.62 h -3.216 z m 0.684,-7.872 h 2.412 c 0.768,0 1.116,0.36 1.116,1.176 v 1.452 c 0,0.828 -0.348,1.188 -1.116,1.188 h -2.412 z" /></g>
<g
   style="font-style:normal;font-variant:normal;font-weight:bold;font-stretch:normal;font-size:13.3736px;line-height:1.25;font-family:Consolas;-inkscape-font-specification:'Consolas Bold';text-align:start;letter-spacing:0px;word-spacing:0px;text-anchor:start;fill:#00a3f2;fill-opacity:1;stroke:none;stroke-width:1.00302"
   id="text3885-7"
   transform="scale(1.0030227,0.99698641)"
   aria-label="FW"><path
     id="path18522"
     style="font-style:normal;font-variant:normal;font-weight:normal;font-stretch:normal;font-family:'Bradley Gratis';-inkscape-font-specification:'Bradley Gratis';text-align:start;text-anchor:start;fill:#00a3f2;fill-opacity:1;stroke-width:1.00302"
     d="m 328.00775,584.76225 q 0.4547,-0.4547 0.72217,-0.80241 0.28085,-0.34772 0.42796,-0.64194 0.16048,-0.29422 0.2006,-0.54831 0.0535,-0.26748 0.0535,-0.56169 0,-0.36109 -0.17386,-0.86929 -0.17386,-0.5082 -0.38783,-1.08326 -0.21398,-0.57507 -0.38784,-1.17688 -0.17386,-0.60181 -0.17386,-1.15013 0,-0.29422 0.0936,-0.57506 0.10699,-0.28085 0.2541,-0.53495 0.16048,-0.26747 0.34771,-0.49482 0.18723,-0.24072 0.37446,-0.42795 -0.26747,-0.0535 -0.46807,-0.0803 -0.20061,-0.0401 -0.29422,-0.0401 -0.49483,0 -0.84254,0.26748 -0.33434,0.25409 -0.72217,0.64193 0,-0.4547 0.13373,-0.93615 0.14711,-0.49483 0.44133,-0.89603 0.29422,-0.40121 0.73555,-0.65531 0.4547,-0.2541 1.06989,-0.2541 0.42795,0 0.78904,0.0669 0.37446,0.0535 0.68205,0.13373 0.3076,0.0802 0.56169,0.14711 0.2541,0.0535 0.45471,0.0535 0.30759,0 0.53494,-0.0802 0.24072,-0.0936 0.46808,-0.32097 0,0.29422 -0.12037,0.66868 -0.10699,0.37446 -0.33434,0.72217 -0.21397,0.33434 -0.56169,0.57507 -0.34771,0.22735 -0.80241,0.22735 -0.22735,0 -0.52157,-0.0268 -0.28085,-0.0401 -0.58844,-0.0936 -0.0268,0.0936 -0.0401,0.17386 -0.0134,0.0802 -0.0268,0.1471 -0.0134,0.0803 -0.0134,0.14711 0,0.29422 0.0401,0.57507 0.0535,0.26747 0.14711,0.54832 h 2.70146 l -0.30759,0.9094 q -0.0401,0.17386 -0.0535,0.2541 -0.0134,0.0802 -0.0401,0.2541 l -0.49483,-0.34772 h -1.37748 q 0.29422,0.66868 0.54832,1.36411 0.2541,0.68206 0.2541,1.45772 0,0.69543 -0.28085,1.29724 -0.28084,0.58844 -0.74892,1.02977 -0.4547,0.44133 -1.05651,0.68205 -0.58844,0.2541 -1.217,0.2541 z" /><path
     id="path18524"
     style="font-style:normal;font-variant:normal;font-weight:normal;font-stretch:normal;font-family:'Bradley Gratis';-inkscape-font-specification:'Bradley Gratis';text-align:start;text-anchor:start;fill:#00a3f2;fill-opacity:1;stroke-width:1.00302"
     d="m 336.06931,584.64189 q -0.72217,-0.52157 -1.23037,-1.11001 -0.5082,-0.60181 -0.81579,-1.24374 -0.30759,-0.64194 -0.4547,-1.29724 -0.13374,-0.66868 -0.13374,-1.31062 0,-0.62855 0.13374,-1.24374 0.13374,-0.62856 0.34771,-1.23037 0.22735,-0.61519 0.52157,-1.19025 0.29422,-0.58844 0.60182,-1.15013 h -0.0803 q -0.0401,0 -0.0936,0 -0.0401,-0.0134 -0.10699,-0.0134 -0.21398,0 -0.52157,0.0535 -0.29422,0.0535 -0.57507,0.26747 v -1.31061 h 2.80846 q -0.34771,0.60181 -0.60181,1.217 -0.24073,0.60181 -0.40121,1.17687 -0.14711,0.56169 -0.22735,1.06989 -0.0669,0.49482 -0.0669,0.89603 0,0.40121 0.0802,0.9629 0.0802,0.56169 0.29422,1.1635 0.22735,0.58844 0.60181,1.12339 0.38784,0.53494 1.00302,0.86928 l 0.40121,-0.29422 q -0.24072,-0.4547 -0.37446,-0.86928 -0.13373,-0.42796 -0.2006,-0.80242 -0.0535,-0.37446 -0.0669,-0.68205 -0.0134,-0.32097 -0.0134,-0.57507 0,-0.41458 0.10698,-0.93615 0.10699,-0.52157 0.3076,-1.08326 0.2006,-0.56169 0.48145,-1.13676 0.29422,-0.57506 0.6553,-1.12338 -0.50819,0 -0.84253,0.0802 -0.32097,0.0802 -0.54832,0.22735 v -1.28386 h 2.8887 q -0.24073,0.33434 -0.48145,0.76229 -0.22735,0.41459 -0.40121,0.90941 -0.17386,0.48145 -0.28085,1.02977 -0.10699,0.54831 -0.10699,1.12338 0,0.97627 0.17386,1.73857 0.17386,0.74892 0.48145,1.32398 0.30759,0.57507 0.72218,0.98965 0.41458,0.41458 0.88265,0.7088 v -8.58585 h 2.00604 v 8.03753 q 0,0.0936 -0.13373,0.26747 -0.13374,0.16049 -0.34772,0.37447 -0.2006,0.21397 -0.48145,0.46807 -0.26747,0.24073 -0.54831,0.48145 -0.66868,0.56169 -1.51122,1.23037 -0.65531,-0.50819 -1.12338,-1.00302 -0.46808,-0.49482 -0.80242,-0.9629 z" /></g>
<g
   style="font-style:normal;font-variant:normal;font-weight:normal;font-stretch:normal;font-size:8px;line-height:1.25;font-family:Quarca;-inkscape-font-specification:Quarca;letter-spacing:0px;word-spacing:0px;fill:#dddddd;fill-opacity:1;stroke:none;stroke-width:1"
   id="text5443-7-5-4-0-8"
   aria-label="MODE"><path
     id="path18513"
     style="font-style:normal;font-variant:normal;font-weight:normal;font-stretch:normal;font-size:8px;font-family:Quarca;-inkscape-font-specification:Quarca;fill:#dddddd;fill-opacity:1;stroke-width:1"
     d="M 343.972,246.944 V 242 l 1.416,2.768 h 0.448 L 347.26,242 v 4.944 h 0.44 v -5.68 h -0.544 l -1.544,3.016 -1.536,-3.016 h -0.544 v 5.68 z" /><path
     id="path18515"
     style="font-style:normal;font-variant:normal;font-weight:normal;font-stretch:normal;font-size:8px;font-family:Quarca;-inkscape-font-specification:Quarca;fill:#dddddd;fill-opacity:1;stroke-width:1"
     d="m 348.73438,245.84 c 0,0.736 0.28,1.104 1.096,1.104 h 1.52 c 0.816,0 1.096,-0.368 1.096,-1.104 v -3.472 c 0,-0.736 -0.28,-1.104 -1.096,-1.104 h -1.52 c -0.816,0 -1.096,0.368 -1.096,1.104 z m 1.144,-4.144 h 1.424 c 0.512,0 0.688,0.24 0.688,0.744 v 3.328 c 0,0.504 -0.176,0.744 -0.688,0.744 h -1.424 c -0.504,0 -0.688,-0.24 -0.688,-0.744 v -3.328 c 0,-0.504 0.184,-0.744 0.688,-0.744 z" /><path
     id="path18517"
     style="font-style:normal;font-variant:normal;font-weight:normal;font-stretch:normal;font-size:8px;font-family:Quarca;-inkscape-font-specification:Quarca;fill:#dddddd;fill-opacity:1;stroke-width:1"
     d="m 353.48513,246.944 h 2.224 c 1,0 1.408,-0.44 1.408,-1.344 v -2.992 c 0,-0.904 -0.408,-1.344 -1.408,-1.344 h -2.224 z m 2.2,-0.432 h -1.744 v -4.816 h 1.744 c 0.696,0 0.976,0.312 0.976,1.008 v 2.8 c 0,0.696 -0.28,1.008 -0.976,1.008 z" /><path
     id="path18519"
     style="font-style:normal;font-variant:normal;font-weight:normal;font-stretch:normal;font-size:8px;font-family:Quarca;-inkscape-font-specification:Quarca;fill:#dddddd;fill-opacity:1;stroke-width:1"
     d="m 358.613,241.696 h 2.568 l 0.064,-0.432 h -3.088 v 5.68 h 3.04 l 0.064,-0.432 h -2.648 v -1.736 h 2.152 l 0.064,-0.424 h -2.216 z" /></g>
</svg>
