<?xml version="1.0" encoding="UTF-8" standalone="no"?>
<svg
   xmlns:dc="http://purl.org/dc/elements/1.1/"
   xmlns:cc="http://creativecommons.org/ns#"
   xmlns:rdf="http://www.w3.org/1999/02/22-rdf-syntax-ns#"
   xmlns:svg="http://www.w3.org/2000/svg"
   xmlns="http://www.w3.org/2000/svg"
   xmlns:xlink="http://www.w3.org/1999/xlink"
   xmlns:sodipodi="http://sodipodi.sourceforge.net/DTD/sodipodi-0.dtd"
   xmlns:inkscape="http://www.inkscape.org/namespaces/inkscape"
   width="185"
   height="380"
   viewBox="0 0 48.947917 100.54167"
   version="1.1"
   id="svg11003"
   inkscape:version="1.0 (4035a4fb49, 2020-05-01)"
   sodipodi:docname="SeriouslySlowLFO.svg">
  <defs
     id="defs10997">
    <rect
       x="26.811937"
       y="87.562963"
       width="38.893751"
       height="41.671876"
       id="rect7244" />
    <linearGradient
       inkscape:collect="always"
       id="linearGradient3391">
      <stop
         style="stop-color:#0c1622;stop-opacity:1"
         offset="0"
         id="stop3387" />
      <stop
         style="stop-color:#161625;stop-opacity:1"
         offset=".3"
         id="stop3388" />
      <stop
         style="stop-color:#081f35;stop-opacity:1"
         offset="1"
         id="stop3389" />
    </linearGradient>
    <linearGradient
       inkscape:collect="always"
       xlink:href="#linearGradient3391"
       id="linearGradient3393"
       x1="35.219627"
       y1="150.85843"
       x2="35.219627"
       y2="50.462322"
       gradientUnits="userSpaceOnUse"
       gradientTransform="matrix(1.2359998,0,0,1,-8.3118249,0)" />
  </defs>
  <sodipodi:namedview
     id="base"
     pagecolor="#000000"
     bordercolor="#666666"
     borderopacity="1.0"
     inkscape:pageopacity="0.0"
     inkscape:pageshadow="2"
     inkscape:zoom="2"
     inkscape:cx="29.453"
     inkscape:cy="205.79805"
     inkscape:document-units="px"
     inkscape:current-layer="layer1"
     showgrid="false"
     fit-margin-top="0"
     fit-margin-left="0"
     fit-margin-right="0"
     fit-margin-bottom="0"
     inkscape:window-width="1920"
     inkscape:window-height="1058"
     inkscape:window-x="-6"
     inkscape:window-y="-6"
     inkscape:window-maximized="1"
     units="px"
     inkscape:pagecheckerboard="true"
     inkscape:document-rotation="0" />
  <metadata
     id="metadata11000">
    <rdf:RDF>
      <cc:Work
         rdf:about="">
        <dc:format>image/svg+xml</dc:format>
        <dc:type
           rdf:resource="http://purl.org/dc/dcmitype/StillImage" />
        <dc:title></dc:title>
      </cc:Work>
    </rdf:RDF>
  </metadata>
  <g
     inkscape:label="Layer 1"
     inkscape:groupmode="layer"
     id="layer1"
     transform="translate(-35.146312,-50.389004)">
    <path
       inkscape:connector-curvature="0"
       id="path33493"
       d="M 35.219628,50.462323 H 84.167545 V 150.85843 H 35.219628 Z m 0,0"
       style="fill:url(#linearGradient3393);fill-opacity:1;fill-rule:nonzero;stroke:none;stroke-width:0.30687088"
       inkscape:export-filename="/home/vortico/pics/tmp/LFOs.png"
       inkscape:export-xdpi="150.22649"
       inkscape:export-ydpi="150.22649" />
    <g
       aria-label="Frozen Wasteland"
       style="font-style:normal;font-weight:normal;font-size:3.52777767px;line-height:1.25;font-family:sans-serif;letter-spacing:0px;word-spacing:0px;fill:#00a3f2;fill-opacity:1;stroke:none;stroke-width:0.26458332"
       id="text271"
       transform="translate(4.0431923,3.6036203)">
      <g
         aria-label="FROZEN WASTELAND"
         style="font-style:normal;font-variant:normal;font-weight:bold;font-stretch:normal;font-size:3.52777767px;line-height:1.25;font-family:Consolas;-inkscape-font-specification:'Consolas Bold';text-align:start;letter-spacing:0px;word-spacing:0px;text-anchor:start;fill:#00a3f2;fill-opacity:1;stroke:none;stroke-width:0.26458332"
         id="text3885-7">
        <path
           d="m 41.150231,146.65677 q 0.119944,-0.11994 0.1905,-0.21166 0.07408,-0.0917 0.112889,-0.16934 0.04233,-0.0776 0.05292,-0.14464 0.01411,-0.0706 0.01411,-0.14816 0,-0.0952 -0.04586,-0.22931 -0.04586,-0.13405 -0.102306,-0.28575 -0.05644,-0.15169 -0.102306,-0.31044 -0.04586,-0.15875 -0.04586,-0.30339 0,-0.0776 0.0247,-0.1517 0.02822,-0.0741 0.06703,-0.14111 0.04233,-0.0705 0.09172,-0.13053 0.04939,-0.0635 0.09878,-0.11288 -0.07056,-0.0141 -0.123473,-0.0212 -0.05292,-0.0106 -0.07761,-0.0106 -0.130528,0 -0.22225,0.0705 -0.08819,0.067 -0.1905,0.16933 0,-0.11994 0.03528,-0.24694 0.03881,-0.13053 0.116417,-0.23636 0.07761,-0.10583 0.194027,-0.17286 0.119945,-0.067 0.282223,-0.067 0.112889,0 0.208139,0.0176 0.09878,0.0141 0.179916,0.0353 0.08114,0.0212 0.148167,0.0388 0.06703,0.0141 0.119944,0.0141 0.08114,0 0.141111,-0.0212 0.0635,-0.0247 0.123473,-0.0847 0,0.0776 -0.03175,0.17639 -0.02822,0.0988 -0.08819,0.1905 -0.05644,0.0882 -0.148167,0.15169 -0.09172,0.06 -0.211666,0.06 -0.05997,0 -0.137584,-0.007 -0.07408,-0.0106 -0.155222,-0.0247 -0.0071,0.0247 -0.01058,0.0459 -0.0035,0.0212 -0.0071,0.0388 -0.0035,0.0212 -0.0035,0.0388 0,0.0776 0.01058,0.15169 0.01411,0.0706 0.03881,0.14464 h 0.712611 l -0.08114,0.23989 q -0.01058,0.0459 -0.01411,0.067 -0.0035,0.0212 -0.01058,0.067 l -0.130528,-0.0917 h -0.363361 q 0.07761,0.17639 0.144639,0.35984 0.06703,0.17991 0.06703,0.38452 0,0.18345 -0.07408,0.3422 -0.07408,0.15522 -0.197556,0.27164 -0.119944,0.11641 -0.278694,0.17991 -0.155222,0.067 -0.321028,0.067 z"
           style="font-style:normal;font-variant:normal;font-weight:normal;font-stretch:normal;font-family:'Bradley Gratis';-inkscape-font-specification:'Bradley Gratis';text-align:start;text-anchor:start;fill:#00a3f2;fill-opacity:1;stroke-width:0.26458332"
           id="path20360"
           inkscape:connector-curvature="0" />
        <path
           d="m 43.22032,144.92816 q 0.07055,-0.0423 0.137583,-0.0988 0.07056,-0.0564 0.123472,-0.127 0.05645,-0.0705 0.08819,-0.16227 0.03528,-0.0952 0.03528,-0.21167 0,-0.0988 -0.03881,-0.16581 -0.03528,-0.0705 -0.08467,-0.11289 -0.04939,-0.0423 -0.09878,-0.06 -0.04586,-0.0176 -0.07056,-0.0176 -0.02822,0 -0.05292,0.0106 -0.02117,0.0106 -0.0388,0.0247 z m -0.518583,-0.94192 q -0.112889,-0.0635 -0.112889,-0.23636 0.03175,0.0318 0.112889,0.0565 0.08114,0.0212 0.172861,0.0212 0.04586,0 0.130527,-0.0106 0.08467,-0.0141 0.172862,-0.0282 0.09172,-0.0141 0.172861,-0.0247 0.08467,-0.0141 0.130527,-0.0141 0.116417,0 0.232834,0.0353 0.116416,0.0353 0.215194,0.11995 0.09878,0.0847 0.165806,0.2293 0.07056,0.14111 0.09172,0.35983 l -0.627944,0.4445 q 0.07055,0.0282 0.15875,0.0952 0.08819,0.067 0.165805,0.18698 0.08114,0.11994 0.134056,0.30691 0.05292,0.18345 0.05292,0.45156 0,0.23283 0.02117,0.37747 0.02117,0.14464 0.05292,0.23283 0.03175,0.0882 0.06703,0.13053 0.03881,0.0459 0.07056,0.0776 -0.155222,0 -0.275167,-0.0917 -0.119944,-0.0882 -0.211666,-0.23283 -0.09172,-0.14464 -0.162278,-0.32809 -0.06703,-0.18344 -0.123472,-0.37041 -0.05644,-0.18697 -0.105834,-0.35984 -0.04586,-0.17286 -0.09525,-0.29986 -0.02469,0.0176 -0.04939,0.0353 -0.02117,0.0141 -0.0388,0.0318 v 1.31939 h -0.518583 z"
           style="font-style:normal;font-variant:normal;font-weight:normal;font-stretch:normal;font-family:'Bradley Gratis';-inkscape-font-specification:'Bradley Gratis';text-align:start;text-anchor:start;fill:#00a3f2;fill-opacity:1;stroke-width:0.26458332"
           id="path20362"
           inkscape:connector-curvature="0" />
        <path
           d="m 45.108067,146.03588 q 0,0.11995 0.01411,0.18698 0.01764,0.067 0.04233,0.1023 0.02822,0.0317 0.0635,0.0388 0.03528,0.007 0.07056,0.007 0.07055,0 0.116416,-0.0952 0.04586,-0.0988 0.04586,-0.29986 v -1.53105 q 0,-0.15875 -0.01764,-0.25753 -0.01411,-0.10231 -0.04233,-0.15522 -0.02469,-0.0564 -0.05997,-0.0776 -0.03175,-0.0212 -0.0635,-0.0212 -0.06703,0 -0.119944,0.0847 -0.04939,0.0811 -0.04939,0.26106 z m 1.005416,-0.88547 q 0,0.25753 -0.06703,0.508 -0.0635,0.25047 -0.176389,0.44803 -0.109361,0.19755 -0.261056,0.32103 -0.151694,0.11994 -0.321028,0.11994 -0.15875,0 -0.310444,-0.10936 -0.148167,-0.10936 -0.264583,-0.29986 -0.112889,-0.1905 -0.183445,-0.4445 -0.07055,-0.254 -0.07055,-0.54328 0,-0.23636 0.0635,-0.4833 0.06703,-0.25048 0.179916,-0.45156 0.112889,-0.20108 0.264584,-0.32808 0.151694,-0.13053 0.321027,-0.13053 0.148167,0 0.292806,0.10936 0.148167,0.10936 0.264583,0.29986 0.119945,0.18697 0.194028,0.44097 0.07408,0.254 0.07408,0.54328 z"
           style="font-style:normal;font-variant:normal;font-weight:normal;font-stretch:normal;font-family:'Bradley Gratis';-inkscape-font-specification:'Bradley Gratis';text-align:start;text-anchor:start;fill:#00a3f2;fill-opacity:1;stroke-width:0.26458332"
           id="path20364"
           inkscape:connector-curvature="0" />
        <path
           d="m 46.267548,146.50861 q 0.04586,-0.27164 0.130528,-0.51153 0.08819,-0.23989 0.194028,-0.45861 0.105833,-0.21873 0.218722,-0.41628 0.116417,-0.20108 0.218722,-0.38806 0.102306,-0.18697 0.179917,-0.36336 0.07761,-0.17991 0.112889,-0.35983 -0.02822,-0.0176 -0.06703,-0.0318 -0.03528,-0.0141 -0.137583,-0.0141 -0.05292,0 -0.09525,0.0282 -0.03881,0.0247 -0.06703,0.0635 -0.02822,0.0353 -0.04586,0.0776 -0.01411,0.0388 -0.01411,0.0635 0,0.0282 0.01058,0.067 0.01411,0.0353 0.02822,0.0705 0.01764,0.0353 0.03528,0.067 0.01764,0.0282 0.03175,0.0423 l -0.430389,0.26811 q -0.08467,-0.0811 -0.144639,-0.19756 -0.05644,-0.11994 -0.05644,-0.23989 0,-0.06 0.03175,-0.14816 0.03175,-0.0882 0.102305,-0.16934 0.07056,-0.0847 0.183445,-0.14111 0.116416,-0.06 0.282222,-0.06 0.130528,0 0.218722,0.0176 0.08819,0.0176 0.155222,0.0423 0.06703,0.0212 0.123472,0.0388 0.05997,0.0176 0.134056,0.0176 0.04586,0 0.09878,-0.007 0.05292,-0.007 0.09878,-0.0212 0.04586,-0.0141 0.08114,-0.0282 0.03881,-0.0176 0.05997,-0.0388 -0.04233,0.22225 -0.134056,0.46213 -0.09172,0.23989 -0.204611,0.47978 -0.109361,0.23989 -0.232833,0.4692 -0.119945,0.2293 -0.22225,0.43039 -0.09878,0.19755 -0.169334,0.35983 -0.06703,0.15875 -0.07408,0.26105 0.141111,0.06 0.239889,0.06 0.0635,0 0.130528,-0.0141 0.06703,-0.0176 0.119944,-0.0529 0.05644,-0.0353 0.09172,-0.0882 0.03528,-0.0564 0.03528,-0.13405 0,-0.0776 -0.01764,-0.127 -0.01411,-0.0529 -0.03881,-0.0847 -0.0247,-0.0353 -0.05644,-0.06 -0.03175,-0.0282 -0.05997,-0.0564 l 0.405694,-0.29987 q 0.141112,0.10584 0.201084,0.22578 0.05997,0.11995 0.05997,0.26106 0,0.067 -0.02117,0.13053 -0.01764,0.06 -0.04586,0.11288 -0.02469,0.0494 -0.05997,0.0917 -0.03175,0.0423 -0.05644,0.067 l 0.05997,0.06 q 0.01764,0.0176 0.0388,0.0529 0.02117,0.0317 0.02117,0.0564 0,0.0282 -0.02469,0.0811 -0.02117,0.0564 -0.08819,0.0988 -0.02469,-0.0317 -0.05644,-0.0564 -0.02822,-0.0212 -0.05997,-0.0388 -0.03175,-0.0176 -0.06703,-0.0176 z"
           style="font-style:normal;font-variant:normal;font-weight:normal;font-stretch:normal;font-family:'Bradley Gratis';-inkscape-font-specification:'Bradley Gratis';text-align:start;text-anchor:start;fill:#00a3f2;fill-opacity:1;stroke-width:0.26458332"
           id="path20366"
           inkscape:connector-curvature="0" />
        <path
           d="m 49.773884,143.78163 v 0.381 q -0.03881,-0.0353 -0.102306,-0.0776 -0.05997,-0.0423 -0.130528,-0.0741 -0.06703,-0.0353 -0.134055,-0.0565 -0.06703,-0.0247 -0.112889,-0.0247 -0.08467,0 -0.172861,0.067 -0.08819,0.067 -0.144639,0.17991 -0.05644,0.10937 -0.07408,0.28928 -0.01411,0.17639 -0.01411,0.45509 h 0.903111 l -0.179916,0.40216 q -0.03528,-0.0529 -0.08467,-0.0705 -0.04586,-0.0212 -0.08467,-0.0212 H 48.88841 q 0,0.20108 0.0071,0.39511 0.0071,0.1905 0.04586,0.3422 0.04233,0.15169 0.127,0.24694 0.08467,0.0917 0.243417,0.0917 0.08467,0 0.165805,-0.0318 0.08467,-0.0317 0.155222,-0.0776 0.07056,-0.0494 0.123473,-0.1023 0.05644,-0.0529 0.08819,-0.0952 v 0.508 h -0.47625 q -0.342194,0 -0.553861,-0.11995 -0.211667,-0.12347 -0.331611,-0.32808 -0.116417,-0.20814 -0.15875,-0.47978 -0.03881,-0.27164 -0.03881,-0.56797 0,-0.0741 0.01058,-0.19403 0.01058,-0.12347 0.04586,-0.25753 0.03528,-0.13758 0.102305,-0.27516 0.06703,-0.14112 0.179917,-0.25048 0.116417,-0.11289 0.28575,-0.18344 0.169333,-0.0706 0.409222,-0.0706 z"
           style="font-style:normal;font-variant:normal;font-weight:normal;font-stretch:normal;font-family:'Bradley Gratis';-inkscape-font-specification:'Bradley Gratis';text-align:start;text-anchor:start;fill:#00a3f2;fill-opacity:1;stroke-width:0.26458332"
           id="path20368"
           inkscape:connector-curvature="0" />
        <path
           d="m 50.160286,146.50861 v -2.4377 q 0,-0.0988 -0.04233,-0.1658 -0.04233,-0.0706 -0.08467,-0.12348 h 0.684388 v 0.35984 l 0.391584,-0.45509 q 0.179916,0.16228 0.296333,0.32456 0.116417,0.15875 0.183445,0.32103 0.06703,0.15875 0.09172,0.32455 0.02469,0.16228 0.02469,0.33514 0,0.16933 -0.02822,0.32456 -0.02469,0.15169 -0.07408,0.29986 -0.04939,0.14816 -0.119945,0.29986 -0.06703,0.15169 -0.148166,0.3175 h 0.127 q 0.04586,0 0.09525,-0.0317 0.04939,-0.0318 0.09878,-0.0318 v 0.33867 h -0.684389 q 0.09525,-0.19403 0.151695,-0.34925 0.05997,-0.15523 0.09172,-0.29634 0.03175,-0.14111 0.04233,-0.27516 0.01058,-0.13406 0.01058,-0.28575 0,-0.1517 -0.05292,-0.31398 -0.04939,-0.1658 -0.123472,-0.30339 -0.07408,-0.13758 -0.15875,-0.22577 -0.08114,-0.0882 -0.148167,-0.0882 -0.04233,0 -0.06703,0.0212 v 2.11667 z"
           style="font-style:normal;font-variant:normal;font-weight:normal;font-stretch:normal;font-family:'Bradley Gratis';-inkscape-font-specification:'Bradley Gratis';text-align:start;text-anchor:start;fill:#00a3f2;fill-opacity:1;stroke-width:0.26458332"
           id="path20370"
           inkscape:connector-curvature="0" />
        <path
           d="m 53.398455,146.62502 q -0.1905,-0.13758 -0.324556,-0.2928 -0.134055,-0.15875 -0.215194,-0.32809 -0.08114,-0.16933 -0.119945,-0.34219 -0.03528,-0.17639 -0.03528,-0.34572 0,-0.16581 0.03528,-0.32809 0.03528,-0.1658 0.09172,-0.32455 0.05997,-0.16228 0.137584,-0.31397 0.07761,-0.15523 0.15875,-0.30339 h -0.02117 q -0.01058,0 -0.02469,0 -0.01058,-0.004 -0.02822,-0.004 -0.05644,0 -0.137583,0.0141 -0.07761,0.0141 -0.151694,0.0706 v -0.34573 h 0.740833 q -0.09172,0.15875 -0.15875,0.32103 -0.0635,0.15875 -0.105833,0.31045 -0.03881,0.14816 -0.05997,0.28222 -0.01764,0.13053 -0.01764,0.23636 0,0.10583 0.02117,0.254 0.02117,0.14817 0.07761,0.30692 0.05997,0.15522 0.15875,0.29633 0.102306,0.14111 0.264584,0.2293 l 0.105833,-0.0776 q -0.0635,-0.11994 -0.09878,-0.2293 -0.03528,-0.11289 -0.05292,-0.21167 -0.01411,-0.0988 -0.01764,-0.17992 -0.0035,-0.0847 -0.0035,-0.15169 0,-0.10936 0.02822,-0.24694 0.02822,-0.13759 0.08114,-0.28575 0.05292,-0.14817 0.127,-0.29987 0.07761,-0.15169 0.172861,-0.29633 -0.134055,0 -0.22225,0.0212 -0.08467,0.0212 -0.144639,0.06 v -0.33867 h 0.762 q -0.0635,0.0882 -0.127,0.20109 -0.05997,0.10936 -0.105833,0.23989 -0.04586,0.127 -0.07408,0.27163 -0.02822,0.14464 -0.02822,0.29634 0,0.25753 0.04586,0.45861 0.04586,0.19755 0.127,0.34925 0.08114,0.15169 0.1905,0.26105 0.109362,0.10937 0.232834,0.18698 v -2.26484 h 0.529166 v 2.1202 q 0,0.0247 -0.03528,0.0705 -0.03528,0.0423 -0.09172,0.0988 -0.05292,0.0565 -0.127,0.12347 -0.07055,0.0635 -0.144638,0.127 -0.176389,0.14817 -0.398639,0.32456 -0.172861,-0.13406 -0.296334,-0.26458 -0.123472,-0.13053 -0.211666,-0.254 z"
           style="font-style:normal;font-variant:normal;font-weight:normal;font-stretch:normal;font-family:'Bradley Gratis';-inkscape-font-specification:'Bradley Gratis';text-align:start;text-anchor:start;fill:#00a3f2;fill-opacity:1;stroke-width:0.26458332"
           id="path20372"
           inkscape:connector-curvature="0" />
        <path
           d="m 56.650514,144.81174 v -0.87841 h -0.416278 q -0.0035,0.23636 -0.01411,0.46919 -0.0071,0.22931 -0.01764,0.40922 z m 0.719667,-1.03011 q -0.03881,0.0282 -0.07408,0.0706 -0.03175,0.0423 -0.05645,0.0917 -0.02117,0.0459 -0.03528,0.0917 -0.01411,0.0423 -0.01411,0.0741 v 2.39889 h -0.53975 v -1.32998 h -0.472722 q -0.0035,0.127 -0.03528,0.2787 -0.03175,0.14816 -0.08819,0.29986 -0.05292,0.14817 -0.127,0.28928 -0.07056,0.13758 -0.162278,0.24341 -0.08819,0.10584 -0.1905,0.16934 -0.09878,0.0635 -0.208139,0.0635 -0.07055,0 -0.123472,-0.0423 -0.04939,-0.0423 -0.04939,-0.11994 0,-0.0494 0.03175,-0.0706 0.03175,-0.0247 0.06703,-0.0247 0.03175,0 0.04939,0.0106 0.01764,0.007 0.03175,0.0212 0.01764,0.0106 0.03881,0.0212 0.02117,0.007 0.05997,0.007 0.0635,0 0.102305,-0.0635 0.03881,-0.067 0.0635,-0.17639 0.0247,-0.11289 0.03528,-0.25753 0.01411,-0.14816 0.02117,-0.31044 0.0071,-0.16228 0.01764,-0.32808 0.01058,-0.16934 0.02822,-0.32456 0.02117,-0.18344 0.0635,-0.33514 0.04586,-0.15169 0.09525,-0.26811 0.04939,-0.11642 0.09878,-0.19755 0.04939,-0.0811 0.08467,-0.13053 h -0.07761 q -0.06703,0 -0.123472,0.0212 -0.05644,0.0176 -0.102306,0.0423 -0.04233,0.0212 -0.07761,0.0423 -0.03175,0.0176 -0.05644,0.0176 -0.05997,0 -0.08819,-0.0423 -0.02822,-0.0423 -0.02822,-0.0952 0,-0.0494 0.05292,-0.0917 0.05644,-0.0459 0.155222,-0.0459 z"
           style="font-style:normal;font-variant:normal;font-weight:normal;font-stretch:normal;font-family:'Bradley Gratis';-inkscape-font-specification:'Bradley Gratis';text-align:start;text-anchor:start;fill:#00a3f2;fill-opacity:1;stroke-width:0.26458332"
           id="path20374"
           inkscape:connector-curvature="0" />
        <path
           d="m 58.150372,146.63208 q -0.08114,-0.0811 -0.186973,-0.15875 -0.102305,-0.0776 -0.201083,-0.13759 -0.09525,-0.06 -0.169333,-0.1023 -0.07056,-0.0423 -0.08114,-0.0529 0.03528,-0.0423 0.08819,-0.11641 0.05292,-0.0776 0.102306,-0.1517 0.05292,-0.0741 0.09172,-0.13053 0.04233,-0.06 0.05292,-0.0705 0.04939,0.0317 0.134055,0.0882 0.08819,0.0529 0.172861,0.11289 0.08819,0.06 0.15875,0.10936 0.07056,0.0494 0.09172,0.0706 0.04939,-0.0282 0.08114,-0.0741 0.03528,-0.0459 0.03528,-0.14816 0,-0.0882 -0.07408,-0.18697 -0.07056,-0.0988 -0.176389,-0.20814 -0.105833,-0.10936 -0.232833,-0.22931 -0.127,-0.11994 -0.232834,-0.24694 -0.105833,-0.127 -0.179916,-0.25753 -0.07056,-0.13053 -0.07056,-0.26811 0,-0.0988 0.04939,-0.18345 0.05292,-0.0882 0.130528,-0.16227 0.07761,-0.0776 0.169333,-0.13759 0.09525,-0.0635 0.179917,-0.11641 0.08819,-0.0564 0.155222,-0.0988 0.06703,-0.0459 0.09525,-0.0811 0.02117,0.0176 0.09172,0.0882 0.07408,0.067 0.15875,0.14464 0.08467,0.0776 0.15875,0.13759 0.07761,0.06 0.102306,0.06 -0.03528,0.0282 -0.08819,0.0847 -0.04939,0.0529 -0.102305,0.11289 -0.04939,0.06 -0.09172,0.11642 -0.03881,0.0529 -0.05644,0.0811 -0.08114,-0.0353 -0.162278,-0.10583 -0.08114,-0.0706 -0.148166,-0.13759 -0.06703,-0.067 -0.112889,-0.11641 -0.04586,-0.0529 -0.05997,-0.0529 -0.02822,0 -0.04939,0.0317 -0.01764,0.0282 -0.01764,0.067 0,0.0847 0.07408,0.17991 0.07761,0.0952 0.186972,0.20461 0.112889,0.10584 0.243417,0.22578 0.134056,0.11642 0.243417,0.24342 0.112889,0.127 0.186972,0.26458 0.07761,0.13406 0.07761,0.27517 0,0.127 -0.09525,0.26811 -0.09525,0.14111 -0.229306,0.28222 -0.130527,0.13759 -0.268111,0.26459 -0.137583,0.12347 -0.225777,0.21872 z"
           style="font-style:normal;font-variant:normal;font-weight:normal;font-stretch:normal;font-family:'Bradley Gratis';-inkscape-font-specification:'Bradley Gratis';text-align:start;text-anchor:start;fill:#00a3f2;fill-opacity:1;stroke-width:0.26458332"
           id="path20376"
           inkscape:connector-curvature="0" />
        <path
           d="m 60.635359,146.03236 q 0,0.13758 -0.05644,0.23988 -0.05644,0.0988 -0.148167,0.16228 -0.08819,0.0635 -0.197555,0.0953 -0.109361,0.0317 -0.215195,0.0317 -0.165805,0 -0.324555,-0.0811 -0.15875,-0.0811 -0.28575,-0.21872 -0.127,-0.14111 -0.204611,-0.32808 -0.07761,-0.1905 -0.07761,-0.40922 0,-0.39159 0.179916,-0.72673 0.179917,-0.33866 0.500945,-0.61383 -0.02822,-0.004 -0.05292,-0.004 -0.02117,-0.004 -0.04586,-0.004 -0.08467,0 -0.179917,0.0282 -0.09525,0.0282 -0.179916,0.0741 -0.08467,0.0423 -0.155223,0.0952 -0.06703,0.0529 -0.102305,0.0988 0.02822,-0.13759 0.105833,-0.27164 0.07761,-0.13406 0.194028,-0.23636 0.116417,-0.10231 0.268111,-0.16581 0.151694,-0.0635 0.331611,-0.0635 0.09172,0 0.194028,0.0282 0.102305,0.0282 0.194028,0.0741 0.09525,0.0423 0.169333,0.0953 0.07408,0.0529 0.112889,0.1023 l -0.289278,0.44098 q -0.176389,-0.17287 -0.381,-0.24695 -0.04586,0.0741 -0.09525,0.17639 -0.04939,0.0988 -0.09172,0.22578 -0.03881,0.127 -0.06703,0.28222 -0.02469,0.15169 -0.02469,0.33161 0,0.16933 0.02469,0.29986 0.02822,0.13053 0.07056,0.22578 0.04233,0.0952 0.09525,0.15875 0.05644,0.0635 0.112889,0.10583 0.134055,0.0953 0.306916,0.10584 0.07056,0 0.162278,-0.0282 0.09525,-0.0318 0.151694,-0.0811 z"
           style="font-style:normal;font-variant:normal;font-weight:normal;font-stretch:normal;font-family:'Bradley Gratis';-inkscape-font-specification:'Bradley Gratis';text-align:start;text-anchor:start;fill:#00a3f2;fill-opacity:1;stroke-width:0.26458332"
           id="path20378"
           inkscape:connector-curvature="0" />
        <path
           d="m 62.403604,143.78163 v 0.381 q -0.03881,-0.0353 -0.102306,-0.0776 -0.05997,-0.0423 -0.130528,-0.0741 -0.06703,-0.0353 -0.134055,-0.0565 -0.06703,-0.0247 -0.112889,-0.0247 -0.08467,0 -0.172861,0.067 -0.08819,0.067 -0.144639,0.17991 -0.05644,0.10937 -0.07408,0.28928 -0.01411,0.17639 -0.01411,0.45509 h 0.903111 l -0.179917,0.40216 q -0.03528,-0.0529 -0.08467,-0.0705 -0.04586,-0.0212 -0.08467,-0.0212 h -0.553861 q 0,0.20108 0.0071,0.39511 0.0071,0.1905 0.04586,0.3422 0.04233,0.15169 0.127,0.24694 0.08467,0.0917 0.243417,0.0917 0.08467,0 0.165805,-0.0318 0.08467,-0.0317 0.155223,-0.0776 0.07055,-0.0494 0.123472,-0.1023 0.05644,-0.0529 0.08819,-0.0952 v 0.508 h -0.47625 q -0.342194,0 -0.553861,-0.11995 -0.211666,-0.12347 -0.331611,-0.32808 -0.116417,-0.20814 -0.15875,-0.47978 -0.03881,-0.27164 -0.03881,-0.56797 0,-0.0741 0.01058,-0.19403 0.01058,-0.12347 0.04586,-0.25753 0.03528,-0.13758 0.102306,-0.27516 0.06703,-0.14112 0.179916,-0.25048 0.116417,-0.11289 0.28575,-0.18344 0.169334,-0.0706 0.409222,-0.0706 z"
           style="font-style:normal;font-variant:normal;font-weight:normal;font-stretch:normal;font-family:'Bradley Gratis';-inkscape-font-specification:'Bradley Gratis';text-align:start;text-anchor:start;fill:#00a3f2;fill-opacity:1;stroke-width:0.26458332"
           id="path20380"
           inkscape:connector-curvature="0" />
        <path
           d="m 63.682533,144.47661 q -0.08819,-0.21167 -0.151694,-0.35278 -0.0635,-0.14111 -0.09878,-0.14111 -0.03881,0 -0.05292,0.0353 -0.01058,0.0318 -0.01058,0.0565 v 1.91205 q 0,0.0776 -0.04233,0.16228 -0.04233,0.0847 -0.112888,0.14817 0.130527,0 0.232833,-0.0635 0.102305,-0.067 0.211667,-0.14464 0.112888,-0.0811 0.250472,-0.14464 0.137583,-0.067 0.342194,-0.067 v 0.63148 H 62.65595 q 0.04586,-0.067 0.07761,-0.127 0.03528,-0.06 0.05644,-0.11995 0.02117,-0.06 0.03175,-0.127 0.01058,-0.067 0.01058,-0.14817 v -1.66863 q 0,-0.11289 -0.04233,-0.18345 -0.04233,-0.0741 -0.05997,-0.1023 0.01411,-0.004 0.07056,-0.0247 0.05997,-0.0247 0.144639,-0.0564 0.08467,-0.0318 0.186972,-0.067 0.102305,-0.0353 0.201083,-0.0635 0.09878,-0.0317 0.186972,-0.0494 0.08819,-0.0212 0.144639,-0.0212 0.0882,0 0.165806,0.0494 0.07761,0.0494 0.141111,0.12347 0.0635,0.0741 0.109361,0.16581 0.04586,0.0882 0.07408,0.16581 z"
           style="font-style:normal;font-variant:normal;font-weight:normal;font-stretch:normal;font-family:'Bradley Gratis';-inkscape-font-specification:'Bradley Gratis';text-align:start;text-anchor:start;fill:#00a3f2;fill-opacity:1;stroke-width:0.26458332"
           id="path20382"
           inkscape:connector-curvature="0" />
        <path
           d="m 65.8627,144.81174 v -0.87841 h -0.416278 q -0.0035,0.23636 -0.01411,0.46919 -0.0071,0.22931 -0.01764,0.40922 z m 0.719667,-1.03011 q -0.03881,0.0282 -0.07408,0.0706 -0.03175,0.0423 -0.05644,0.0917 -0.02117,0.0459 -0.03528,0.0917 -0.01411,0.0423 -0.01411,0.0741 v 2.39889 H 65.8627 v -1.32998 h -0.472722 q -0.0035,0.127 -0.03528,0.2787 -0.03175,0.14816 -0.08819,0.29986 -0.05292,0.14817 -0.127,0.28928 -0.07056,0.13758 -0.162278,0.24341 -0.08819,0.10584 -0.1905,0.16934 -0.09878,0.0635 -0.208139,0.0635 -0.07056,0 -0.123472,-0.0423 -0.04939,-0.0423 -0.04939,-0.11994 0,-0.0494 0.03175,-0.0706 0.03175,-0.0247 0.06703,-0.0247 0.03175,0 0.04939,0.0106 0.01764,0.007 0.03175,0.0212 0.01764,0.0106 0.0388,0.0212 0.02117,0.007 0.05997,0.007 0.0635,0 0.102306,-0.0635 0.0388,-0.067 0.0635,-0.17639 0.02469,-0.11289 0.03528,-0.25753 0.01411,-0.14816 0.02117,-0.31044 0.0071,-0.16228 0.01764,-0.32808 0.01058,-0.16934 0.02822,-0.32456 0.02117,-0.18344 0.0635,-0.33514 0.04586,-0.15169 0.09525,-0.26811 0.04939,-0.11642 0.09878,-0.19755 0.04939,-0.0811 0.08467,-0.13053 h -0.07761 q -0.06703,0 -0.123472,0.0212 -0.05644,0.0176 -0.102306,0.0423 -0.04233,0.0212 -0.07761,0.0423 -0.03175,0.0176 -0.05645,0.0176 -0.05997,0 -0.08819,-0.0423 -0.02822,-0.0423 -0.02822,-0.0952 0,-0.0494 0.05292,-0.0917 0.05644,-0.0459 0.155223,-0.0459 z"
           style="font-style:normal;font-variant:normal;font-weight:normal;font-stretch:normal;font-family:'Bradley Gratis';-inkscape-font-specification:'Bradley Gratis';text-align:start;text-anchor:start;fill:#00a3f2;fill-opacity:1;stroke-width:0.26458332"
           id="path20384"
           inkscape:connector-curvature="0" />
        <path
           d="m 66.882779,146.50861 v -2.4377 q 0,-0.0988 -0.04233,-0.1658 -0.04233,-0.0706 -0.08467,-0.12348 h 0.684389 v 0.35984 l 0.391583,-0.45509 q 0.179917,0.16228 0.296333,0.32456 0.116417,0.15875 0.183445,0.32103 0.06703,0.15875 0.09172,0.32455 0.02469,0.16228 0.02469,0.33514 0,0.16933 -0.02822,0.32456 -0.02469,0.15169 -0.07408,0.29986 -0.04939,0.14816 -0.119945,0.29986 -0.06703,0.15169 -0.148166,0.3175 h 0.127 q 0.04586,0 0.09525,-0.0317 0.04939,-0.0318 0.09878,-0.0318 v 0.33867 H 67.69417 q 0.09525,-0.19403 0.151694,-0.34925 0.05997,-0.15523 0.09172,-0.29634 0.03175,-0.14111 0.04233,-0.27516 0.01058,-0.13406 0.01058,-0.28575 0,-0.1517 -0.05292,-0.31398 -0.04939,-0.1658 -0.123472,-0.30339 -0.07408,-0.13758 -0.15875,-0.22577 -0.08114,-0.0882 -0.148167,-0.0882 -0.04233,0 -0.06703,0.0212 v 2.11667 z"
           style="font-style:normal;font-variant:normal;font-weight:normal;font-stretch:normal;font-family:'Bradley Gratis';-inkscape-font-specification:'Bradley Gratis';text-align:start;text-anchor:start;fill:#00a3f2;fill-opacity:1;stroke-width:0.26458332"
           id="path20386"
           inkscape:connector-curvature="0" />
        <path
           d="m 68.771683,144.02858 q -0.09172,-0.0388 -0.127,-0.0952 -0.03528,-0.0565 -0.03528,-0.10584 0,-0.0423 0.02822,-0.0529 0.02822,0.0176 0.07761,0.0247 0.04939,0.007 0.112888,0.007 0.03175,0 0.08819,-0.0106 0.05997,-0.0106 0.130528,-0.0212 0.07055,-0.0106 0.144639,-0.0212 0.07761,-0.0106 0.144638,-0.0106 0.162278,0 0.331612,0.0847 0.169333,0.0811 0.303388,0.254 0.134056,0.16934 0.218723,0.43392 0.08819,0.26106 0.08819,0.62442 0,0.30691 -0.05292,0.52916 -0.05292,0.22225 -0.134055,0.37748 -0.08114,0.15522 -0.179917,0.25047 -0.09878,0.0917 -0.194028,0.14464 -0.09172,0.0494 -0.169333,0.067 -0.07408,0.0176 -0.109361,0.0176 -0.05292,0 -0.112889,-0.0141 -0.05997,-0.0141 -0.119944,-0.0318 -0.05645,-0.0176 -0.109361,-0.0317 -0.04939,-0.0141 -0.08467,-0.0141 -0.03881,0 -0.07056,0.0141 -0.03175,0.0106 -0.06703,0.0247 -0.03175,0.0106 -0.07056,0.0247 -0.03881,0.0106 -0.08819,0.0106 -0.01764,0 -0.03881,-0.004 -0.01764,-0.004 -0.03528,-0.0106 -0.01764,-0.007 -0.03528,-0.0176 0.02822,-0.0176 0.05644,-0.06 0.02822,-0.0459 0.05292,-0.0952 0.02822,-0.0529 0.05644,-0.11641 z m 0.518583,2.10255 q 0,0.0741 0.02469,0.11642 0.02822,0.0388 0.05997,0.0564 0.03881,0.0212 0.08467,0.0247 0.08114,0 0.141111,-0.10936 0.0635,-0.10936 0.0635,-0.2787 v -1.54869 q 0,-0.16581 -0.03175,-0.25753 -0.03175,-0.0917 -0.07408,-0.13405 -0.04233,-0.0423 -0.08467,-0.0494 -0.04233,-0.0106 -0.06703,-0.0106 -0.04233,0 -0.08114,0.0564 -0.03528,0.0564 -0.03528,0.14816 z"
           style="font-style:normal;font-variant:normal;font-weight:normal;font-stretch:normal;font-family:'Bradley Gratis';-inkscape-font-specification:'Bradley Gratis';text-align:start;text-anchor:start;fill:#00a3f2;fill-opacity:1;stroke-width:0.26458332"
           id="path20388"
           inkscape:connector-curvature="0" />
      </g>
    </g>
    <g
       style="font-style:normal;font-weight:normal;font-size:3.52777767px;line-height:1.25;font-family:sans-serif;letter-spacing:0px;word-spacing:0px;fill:#e0e0ff;fill-opacity:1;stroke:none;stroke-width:0.26458332"
       id="text5097" />
    <path
       style="fill:#999999;fill-opacity:1;stroke-width:0.2581985"
       d="M 46.787982,58.789525 H 72.38642 V 70.563483 H 46.787982 Z"
       id="rect6948"
       inkscape:connector-curvature="0" />
    <path
       style="fill:#323232;fill-opacity:1;stroke-width:0.23209724"
       d="m 47.714018,59.715566 h 23.746354 v 9.988021 H 47.714018 Z"
       id="rect4735"
       inkscape:connector-curvature="0" />
    <path
       style="fill:#323232;fill-opacity:1;stroke-width:0.24152298"
       d="M 82.83747,101.78432 A 10.31875,10.31875 0 0 1 72.51872,112.10307 10.31875,10.31875 0 0 1 62.199969,101.78432 10.31875,10.31875 0 0 1 72.51872,91.465567 10.31875,10.31875 0 0 1 82.83747,101.78432 Z"
       id="path6731"
       inkscape:connector-curvature="0" />
    <g
       style="font-style:normal;font-variant:normal;font-weight:normal;font-stretch:normal;font-size:3.52778px;line-height:1.25;font-family:Quarca;-inkscape-font-specification:Quarca;letter-spacing:0px;word-spacing:0px;fill:#dddddd;fill-opacity:1;stroke:none;stroke-width:0.264583"
       id="text5443-7-3"
       aria-label="PHASE">
      <path
         id="path3796"
         style="font-style:normal;font-variant:normal;font-weight:normal;font-stretch:normal;font-size:2.82222px;font-family:Quarca;-inkscape-font-specification:Quarca;fill:#dddddd;fill-opacity:1;stroke-width:0.264583"
         d="m 55.4014,91.866555 h 0.632178 c 0.251177,0 0.380999,-0.127 0.380999,-0.378177 v -0.423333 c 0,-0.251178 -0.129822,-0.378178 -0.380999,-0.378178 h -0.793044 v 2.003776 H 55.4014 Z m 0,-1.027288 h 0.6096 c 0.163689,0 0.239889,0.0762 0.239889,0.256822 v 0.361244 c 0,0.180622 -0.0762,0.256822 -0.239889,0.256822 h -0.6096 z" />
      <path
         id="path3798"
         style="font-style:normal;font-variant:normal;font-weight:normal;font-stretch:normal;font-size:2.82222px;font-family:Quarca;-inkscape-font-specification:Quarca;fill:#dddddd;fill-opacity:1;stroke-width:0.264583"
         d="m 56.873144,92.690643 v -0.759177 h 0.92851 v 0.759177 h 0.160867 v -2.003776 h -0.160867 v 1.092199 h -0.92851 v -1.092199 h -0.160867 v 2.003776 z" />
      <path
         id="path3800"
         style="font-style:normal;font-variant:normal;font-weight:normal;font-stretch:normal;font-size:2.82222px;font-family:Quarca;-inkscape-font-specification:Quarca;fill:#dddddd;fill-opacity:1;stroke-width:0.264583"
         d="m 58.818139,90.686867 -0.618067,2.003776 h 0.172156 l 0.129822,-0.434622 h 0.807155 l 0.129822,0.434622 h 0.172155 l -0.615244,-2.003776 z m 0.09031,0.214489 0.355599,1.202266 h -0.716844 z" />
      <path
         id="path3802"
         style="font-style:normal;font-variant:normal;font-weight:normal;font-stretch:normal;font-size:2.82222px;font-family:Quarca;-inkscape-font-specification:Quarca;fill:#dddddd;fill-opacity:1;stroke-width:0.264583"
         d="m 60.636619,91.858088 c 0.141111,0.05927 0.1778,0.107245 0.1778,0.245534 v 0.194733 c 0,0.169333 -0.07056,0.239888 -0.231423,0.239888 h -0.426155 c -0.160866,0 -0.234244,-0.07055 -0.234244,-0.239888 V 92.086688 H 59.76173 v 0.251178 c 0,0.234244 0.110067,0.352777 0.369711,0.352777 h 0.496711 c 0.234244,0 0.349955,-0.118533 0.349955,-0.352777 v -0.276578 c 0,-0.200377 -0.0762,-0.270933 -0.282222,-0.361244 L 60.11733,91.454511 c -0.132644,-0.05644 -0.166511,-0.110067 -0.166511,-0.234244 v -0.124178 c 0,-0.191911 0.06209,-0.256822 0.242711,-0.256822 h 0.352778 c 0.160866,0 0.239888,0.07338 0.239888,0.248355 v 0.189089 h 0.163689 v -0.2286 c 0,-0.254 -0.121355,-0.361244 -0.381,-0.361244 h -0.417688 c -0.248356,0 -0.361244,0.110067 -0.361244,0.361244 v 0.197556 c 0,0.203199 0.06773,0.276577 0.279399,0.36971 z" />
      <path
         id="path3804"
         style="font-style:normal;font-variant:normal;font-weight:normal;font-stretch:normal;font-size:2.82222px;font-family:Quarca;-inkscape-font-specification:Quarca;fill:#dddddd;fill-opacity:1;stroke-width:0.264583"
         d="m 61.459252,90.839267 h 0.905932 l 0.02258,-0.1524 h -1.089377 v 2.003776 h 1.072444 l 0.02258,-0.1524 h -0.934154 v -0.612421 h 0.759177 l 0.02258,-0.149578 h -0.781755 z" />
    </g>
    <g
       style="font-style:normal;font-variant:normal;font-weight:normal;font-stretch:normal;font-size:3.52778px;line-height:1.25;font-family:Quarca;-inkscape-font-specification:Quarca;letter-spacing:0px;word-spacing:0px;fill:#dddddd;fill-opacity:1;stroke:none;stroke-width:0.264583"
       id="text5443-0-4-9-8"
       aria-label="90°">
      <path
         id="path3789"
         style="font-style:normal;font-variant:normal;font-weight:normal;font-stretch:normal;font-size:2.11667px;font-family:Quarca;-inkscape-font-specification:Quarca;fill:#dddddd;fill-opacity:1;stroke-width:0.264583"
         d="m 51.620859,98.480983 h -0.258233 c -0.131234,0 -0.177801,-0.0635 -0.177801,-0.19685 v -0.135467 h -0.122767 v 0.154517 c 0,0.194734 0.0762,0.292101 0.292101,0.292101 h 0.2794 c 0.215901,0 0.289984,-0.09737 0.289984,-0.292101 v -0.918635 c 0,-0.194733 -0.07408,-0.2921 -0.289984,-0.2921 h -0.2794 c -0.215901,0 -0.292101,0.09737 -0.292101,0.2921 v 0.256117 c 0,0.186267 0.06773,0.279401 0.266701,0.279401 h 0.474134 v 0.364067 c 0,0.13335 -0.04657,0.19685 -0.182034,0.19685 z m 0,-1.274235 c 0.135467,0 0.182034,0.0635 0.182034,0.19685 v 0.402168 h -0.440267 c -0.131234,0 -0.177801,-0.0635 -0.177801,-0.198967 v -0.203201 c 0,-0.13335 0.04657,-0.19685 0.179917,-0.19685 z" />
      <path
         id="path3791"
         style="font-style:normal;font-variant:normal;font-weight:normal;font-stretch:normal;font-size:2.11667px;font-family:Quarca;-inkscape-font-specification:Quarca;fill:#dddddd;fill-opacity:1;stroke-width:0.264583"
         d="m 52.233007,98.303183 c 0,0.194734 0.07408,0.292101 0.2921,0.292101 h 0.345017 c 0.215901,0 0.289984,-0.09737 0.289984,-0.292101 v -0.918635 c 0,-0.194733 -0.07408,-0.2921 -0.289984,-0.2921 h -0.345017 c -0.218017,0 -0.2921,0.09737 -0.2921,0.2921 z m 0.302684,-1.096435 h 0.321733 c 0.133351,0 0.182034,0.0635 0.182034,0.19685 v 0.880535 c 0,0.13335 -0.04868,0.19685 -0.182034,0.19685 h -0.321733 c -0.133351,0 -0.179917,-0.0635 -0.179917,-0.19685 v -0.880535 c 0,-0.13335 0.04657,-0.19685 0.179917,-0.19685 z" />
      <path
         id="path3793"
         style="font-style:normal;font-variant:normal;font-weight:normal;font-stretch:normal;font-size:2.11667px;font-family:Quarca;-inkscape-font-specification:Quarca;fill:#dddddd;fill-opacity:1;stroke-width:0.264583"
         d="m 53.581193,96.999314 c -0.127,0 -0.169333,0.0381 -0.169333,0.156634 v 0.1016 c 0,0.118534 0.04445,0.156634 0.17145,0.156634 h 0.06773 c 0.127,0 0.169334,-0.0381 0.169334,-0.156634 v -0.1016 c 0,-0.118534 -0.04445,-0.156634 -0.169334,-0.156634 z m 0.06562,0.342901 h -0.04868 c -0.07408,0 -0.110066,-0.01905 -0.110066,-0.08043 v -0.110066 c 0,-0.05715 0.03598,-0.08043 0.09737,-0.08043 h 0.04868 c 0.07408,0 0.110067,0.01905 0.110067,0.08043 v 0.110066 c 0,0.05503 -0.02963,0.08043 -0.09737,0.08043 z" />
    </g>
    <path
       d="M 41.092606,131.65829 H 77.88335 v 11.63885 H 41.092606 Z"
       style="opacity:0.981;fill:#0e365d;fill-opacity:1;stroke:#000000;stroke-width:0.267406;stroke-miterlimit:4;stroke-dasharray:none;stroke-opacity:1"
       id="rect22843" />
    <path
       style="fill:none;stroke:#ffffff;stroke-width:0.1322917;stroke-linecap:butt;stroke-linejoin:miter;stroke-miterlimit:4;stroke-dasharray:none;stroke-opacity:1"
       d="m 72.164429,133.78308 h 0.760677 v -1.02526 h 0.628385 v 1.0418 h 0.396875"
       id="path872"
       inkscape:connector-curvature="0" />
    <path
       style="fill:none;stroke:#ffffff;stroke-width:0.1322917;stroke-linecap:butt;stroke-linejoin:miter;stroke-miterlimit:4;stroke-dasharray:none;stroke-opacity:1"
       d="m 54.208977,133.96538 0.529167,-0.95911 0.578776,0.89297"
       id="path870"
       inkscape:connector-curvature="0"
       sodipodi:nodetypes="ccc" />
    <g
       id="g346"
       transform="matrix(0.12402883,0,0,0.12402883,43.885782,128.72197)"
       style="stroke:#ffffff;stroke-width:1.06662023;stroke-miterlimit:4;stroke-dasharray:none;stroke-opacity:1">
      <!-- <text font-size="6pt" letter-spacing="2px" transform="translate(6.5 40)">SIN</text> -->
      <g
         id="g344"
         transform="translate(9,33.5)"
         style="stroke:#ffffff;stroke-width:1.06662023;stroke-miterlimit:4;stroke-dasharray:none;stroke-opacity:1">
        <!-- <rect width="12" height="8" fill="none" stroke-width="1" stroke="#0f0" /> -->
        <path
           style="fill:none;stroke:#ffffff;stroke-width:1.06662023;stroke-miterlimit:4;stroke-dasharray:none;stroke-opacity:1"
           inkscape:connector-curvature="0"
           id="path340"
           d="M 0,4 A 3,4.5 0 0 1 6,4" />
        <path
           style="fill:none;stroke:#ffffff;stroke-width:1.06662023;stroke-miterlimit:4;stroke-dasharray:none;stroke-opacity:1"
           inkscape:connector-curvature="0"
           id="path342"
           d="m 6,4 a 3,4.5 0 0 0 6,0" />
      </g>
    </g>
    <g
       transform="matrix(0.12417689,0,0,0.12417689,62.330576,128.78895)"
       id="g318"
       style="stroke:#ffffff;stroke-width:1.06534851;stroke-miterlimit:4;stroke-dasharray:none;stroke-opacity:1">
      <g
         transform="translate(9,33.5)"
         id="g316"
         style="stroke:#ffffff;stroke-width:1.06534851;stroke-miterlimit:4;stroke-dasharray:none;stroke-opacity:1">
        <path
           inkscape:connector-curvature="0"
           id="polyline314"
           d="M 0,8 12,0 v 8"
           style="fill:none;stroke:#ffffff;stroke-width:1.06534851;stroke-miterlimit:4;stroke-dasharray:none;stroke-opacity:1" />
      </g>
    </g>
    <g
       style="font-style:normal;font-variant:normal;font-weight:normal;font-stretch:normal;font-size:3.52778px;line-height:1.25;font-family:Quarca;-inkscape-font-specification:Quarca;letter-spacing:0px;word-spacing:0px;fill:#dddddd;fill-opacity:1;stroke:none;stroke-width:0.264583"
       id="text4978"
       aria-label="RESET">
      <path
         id="path3777"
         style="font-style:normal;font-variant:normal;font-weight:normal;font-stretch:normal;font-size:2.82222px;font-family:Quarca;-inkscape-font-specification:Quarca;fill:#dddddd;fill-opacity:1;stroke-width:0.264583"
         d="m 59.444235,121.53934 h 0.160866 V 120.735 h 0.369711 l 0.561622,0.80434 h 0.189089 L 60.161079,120.735 h 0.03951 c 0.268111,0 0.397933,-0.127 0.397933,-0.381 v -0.43744 c 0,-0.254 -0.129822,-0.381 -0.397933,-0.381 h -0.756355 z m 0.160866,-1.85138 h 0.567267 c 0.180622,0 0.262466,0.0847 0.262466,0.27658 v 0.34149 c 0,0.19473 -0.08184,0.2794 -0.262466,0.2794 h -0.567267 z" />
      <path
         id="path3779"
         style="font-style:normal;font-variant:normal;font-weight:normal;font-stretch:normal;font-size:2.82222px;font-family:Quarca;-inkscape-font-specification:Quarca;fill:#dddddd;fill-opacity:1;stroke-width:0.264583"
         d="m 61.104406,119.68796 h 0.905932 l 0.02258,-0.1524 h -1.089377 v 2.00378 h 1.072444 l 0.02258,-0.1524 h -0.934155 v -0.61242 h 0.759177 l 0.02258,-0.14958 h -0.781755 z" />
      <path
         id="path3781"
         style="font-style:normal;font-variant:normal;font-weight:normal;font-stretch:normal;font-size:2.82222px;font-family:Quarca;-inkscape-font-specification:Quarca;fill:#dddddd;fill-opacity:1;stroke-width:0.264583"
         d="m 63.109505,120.70678 c 0.141111,0.0593 0.1778,0.10725 0.1778,0.24554 v 0.19473 c 0,0.16933 -0.07056,0.23989 -0.231422,0.23989 h -0.426156 c -0.160866,0 -0.234244,-0.0706 -0.234244,-0.23989 v -0.21167 h -0.160866 v 0.25118 c 0,0.23424 0.110066,0.35278 0.36971,0.35278 h 0.496711 c 0.234244,0 0.349955,-0.11854 0.349955,-0.35278 v -0.27658 c 0,-0.20038 -0.0762,-0.27093 -0.282222,-0.36124 l -0.578555,-0.24554 c -0.132644,-0.0564 -0.166511,-0.11006 -0.166511,-0.23424 v -0.12418 c 0,-0.19191 0.06209,-0.25682 0.242711,-0.25682 h 0.352778 c 0.160866,0 0.239888,0.0734 0.239888,0.24836 v 0.18908 h 0.163689 v -0.22859 c 0,-0.254 -0.121355,-0.36125 -0.381,-0.36125 h -0.417688 c -0.248355,0 -0.361244,0.11007 -0.361244,0.36125 v 0.19755 c 0,0.2032 0.06773,0.27658 0.279399,0.36971 z" />
      <path
         id="path3783"
         style="font-style:normal;font-variant:normal;font-weight:normal;font-stretch:normal;font-size:2.82222px;font-family:Quarca;-inkscape-font-specification:Quarca;fill:#dddddd;fill-opacity:1;stroke-width:0.264583"
         d="m 63.932138,119.68796 h 0.905933 l 0.02258,-0.1524 h -1.089377 v 2.00378 h 1.072443 l 0.02258,-0.1524 h -0.934155 v -0.61242 h 0.759177 l 0.02258,-0.14958 h -0.781755 z" />
      <path
         id="path3785"
         style="font-style:normal;font-variant:normal;font-weight:normal;font-stretch:normal;font-size:2.82222px;font-family:Quarca;-inkscape-font-specification:Quarca;fill:#dddddd;fill-opacity:1;stroke-width:0.264583"
         d="m 66.15737,119.68796 v -0.1524 h -1.188154 v 0.1524 h 0.513644 v 1.85138 h 0.163689 v -1.85138 z" />
    </g>
    <g
       style="font-style:normal;font-variant:normal;font-weight:normal;font-stretch:normal;font-size:3.52778px;line-height:1.25;font-family:Quarca;-inkscape-font-specification:Quarca;letter-spacing:0px;word-spacing:0px;fill:#dddddd;fill-opacity:1;stroke:none;stroke-width:0.264583"
       id="text5443-0-6-4"
       aria-label="BI">
      <path
         id="path3772"
         style="font-style:normal;font-variant:normal;font-weight:normal;font-stretch:normal;font-size:2.11667px;font-family:Quarca;-inkscape-font-specification:Quarca;fill:#dddddd;fill-opacity:1;stroke-width:0.264583"
         d="m 51.525076,128.1765 h 0.588434 c 0.226484,0 0.328084,-0.0974 0.328084,-0.2921 v -0.20532 c 0,-0.20532 -0.110067,-0.2794 -0.245534,-0.28998 0.1143,-0.0233 0.167217,-0.0995 0.167217,-0.23919 v -0.18415 c 0,-0.19473 -0.112184,-0.2921 -0.349251,-0.2921 h -0.48895 z m 0.12065,-0.72814 h 0.402167 c 0.188384,0 0.273051,0.072 0.273051,0.23707 v 0.17568 c 0,0.13547 -0.06985,0.20109 -0.226484,0.20109 h -0.448734 z m 0,-0.6604 h 0.340784 c 0.175683,0 0.256117,0.0593 0.256117,0.20532 v 0.14817 c 0,0.12065 -0.06562,0.19473 -0.213784,0.19473 h -0.383117 z" />
      <path
         id="path3774"
         style="font-style:normal;font-variant:normal;font-weight:normal;font-stretch:normal;font-size:2.11667px;font-family:Quarca;-inkscape-font-specification:Quarca;fill:#dddddd;fill-opacity:1;stroke-width:0.264583"
         d="m 52.799146,128.1765 v -1.50284 h -0.120651 v 1.50284 z" />
    </g>
    <g
       style="font-style:normal;font-variant:normal;font-weight:normal;font-stretch:normal;font-size:3.52778px;line-height:1.25;font-family:Quarca;-inkscape-font-specification:Quarca;letter-spacing:0px;word-spacing:0px;fill:#dddddd;fill-opacity:1;stroke:none;stroke-width:0.264583"
       id="text5443-0-4-9-0"
       aria-label="UNI">
      <path
         id="path3765"
         style="font-style:normal;font-variant:normal;font-weight:normal;font-stretch:normal;font-size:2.11667px;font-family:Quarca;-inkscape-font-specification:Quarca;fill:#dddddd;fill-opacity:1;stroke-width:0.264583"
         d="m 51.622446,119.84319 h -0.270934 c -0.14605,0 -0.20955,-0.0677 -0.20955,-0.22225 v -1.16629 h -0.12065 v 1.20016 c 0,0.20108 0.09313,0.30268 0.3048,0.30268 h 0.321734 c 0.211667,0 0.3048,-0.1016 0.3048,-0.30268 v -1.20016 h -0.122767 v 1.16629 c 0,0.15452 -0.06138,0.22225 -0.207433,0.22225 z" />
      <path
         id="path3767"
         style="font-style:normal;font-variant:normal;font-weight:normal;font-stretch:normal;font-size:2.11667px;font-family:Quarca;-inkscape-font-specification:Quarca;fill:#dddddd;fill-opacity:1;stroke-width:0.264583"
         d="m 52.353358,119.95749 v -1.29329 c 0.03175,0.0699 0.05927,0.1397 0.110067,0.22649 l 0.618068,1.0668 h 0.122767 v -1.50284 h -0.122767 v 1.29117 c -0.02328,-0.055 -0.04445,-0.10795 -0.08467,-0.1778 l -0.643468,-1.11337 h -0.12065 v 1.50284 z" />
      <path
         id="path3769"
         style="font-style:normal;font-variant:normal;font-weight:normal;font-stretch:normal;font-size:2.11667px;font-family:Quarca;-inkscape-font-specification:Quarca;fill:#dddddd;fill-opacity:1;stroke-width:0.264583"
         d="m 53.610131,119.95749 v -1.50284 h -0.12065 v 1.50284 z" />
    </g>
    <g
       style="font-style:normal;font-variant:normal;font-weight:normal;font-stretch:normal;font-size:3.52778px;line-height:1.25;font-family:Quarca;-inkscape-font-specification:Quarca;text-align:start;letter-spacing:0px;word-spacing:0px;text-anchor:start;fill:#dddddd;fill-opacity:1;stroke:none;stroke-width:0.264583"
       id="text3885"
       aria-label="SERIOUSLY SLOW LFO">
      <path
         id="path3732"
         style="font-style:normal;font-variant:normal;font-weight:normal;font-stretch:normal;font-size:3.88056px;font-family:Quarca;-inkscape-font-specification:Quarca;text-align:start;text-anchor:start;fill:#dddddd;fill-opacity:1;stroke-width:0.264583"
         d="m 44.419079,53.181945 c 0.194028,0.08149 0.244475,0.147461 0.244475,0.337608 v 0.267759 c 0,0.232834 -0.09701,0.329848 -0.318206,0.329848 h -0.585964 c -0.221192,0 -0.322087,-0.09701 -0.322087,-0.329848 V 53.49627 h -0.221192 v 0.34537 c 0,0.322086 0.151342,0.48507 0.508354,0.48507 h 0.682978 c 0.322087,0 0.48119,-0.162984 0.48119,-0.48507 v -0.380295 c 0,-0.27552 -0.104776,-0.372534 -0.388056,-0.496712 l -0.795515,-0.337608 c -0.182387,-0.07761 -0.228953,-0.151342 -0.228953,-0.322087 v -0.170745 c 0,-0.263878 0.08537,-0.353131 0.333728,-0.353131 h 0.48507 c 0.221192,0 0.329847,0.100895 0.329847,0.34149 v 0.259997 h 0.225073 v -0.314325 c 0,-0.349251 -0.166864,-0.496712 -0.523876,-0.496712 h -0.574323 c -0.341489,0 -0.496711,0.151342 -0.496711,0.496712 v 0.271639 c 0,0.2794 0.09313,0.380295 0.384175,0.508353 z" />
      <path
         id="path3734"
         style="font-style:normal;font-variant:normal;font-weight:normal;font-stretch:normal;font-size:3.88056px;font-family:Quarca;-inkscape-font-specification:Quarca;text-align:start;text-anchor:start;fill:#dddddd;fill-opacity:1;stroke-width:0.264583"
         d="m 45.550201,51.781062 h 1.24566 l 0.03104,-0.20955 h -1.497897 v 2.755198 h 1.474613 l 0.03105,-0.20955 h -1.284466 v -0.842082 h 1.043871 l 0.03104,-0.20567 h -1.074915 z" />
      <path
         id="path3736"
         style="font-style:normal;font-variant:normal;font-weight:normal;font-stretch:normal;font-size:3.88056px;font-family:Quarca;-inkscape-font-specification:Quarca;text-align:start;text-anchor:start;fill:#dddddd;fill-opacity:1;stroke-width:0.264583"
         d="m 47.193497,54.32671 h 0.221192 v -1.10596 h 0.508354 l 0.772231,1.10596 h 0.259998 L 48.17916,53.22075 h 0.05433 c 0.368654,0 0.547159,-0.174625 0.547159,-0.523875 v -0.601487 c 0,-0.349251 -0.178505,-0.523876 -0.547159,-0.523876 h -1.03999 z m 0.221192,-2.545648 h 0.779993 c 0.248356,0 0.360892,0.116417 0.360892,0.380295 v 0.469548 c 0,0.267759 -0.112536,0.384175 -0.360892,0.384175 h -0.779993 z" />
      <path
         id="path3738"
         style="font-style:normal;font-variant:normal;font-weight:normal;font-stretch:normal;font-size:3.88056px;font-family:Quarca;-inkscape-font-specification:Quarca;text-align:start;text-anchor:start;fill:#dddddd;fill-opacity:1;stroke-width:0.264583"
         d="M 49.476237,54.32671 V 51.571512 H 49.255045 V 54.32671 Z" />
      <path
         id="path3740"
         style="font-style:normal;font-variant:normal;font-weight:normal;font-stretch:normal;font-size:3.88056px;font-family:Quarca;-inkscape-font-specification:Quarca;text-align:start;text-anchor:start;fill:#dddddd;fill-opacity:1;stroke-width:0.264583"
         d="m 49.982286,53.791192 c 0,0.357012 0.135819,0.535518 0.531637,0.535518 h 0.737306 c 0.395817,0 0.531637,-0.178506 0.531637,-0.535518 v -1.684163 c 0,-0.357011 -0.13582,-0.535517 -0.531637,-0.535517 h -0.737306 c -0.395818,0 -0.531637,0.178506 -0.531637,0.535517 z m 0.55492,-2.01013 h 0.69074 c 0.248355,0 0.333728,0.116417 0.333728,0.360893 v 1.614312 c 0,0.244476 -0.08537,0.360893 -0.333728,0.360893 h -0.69074 c -0.244475,0 -0.333728,-0.116417 -0.333728,-0.360893 v -1.614312 c 0,-0.244476 0.08925,-0.360893 0.333728,-0.360893 z" />
      <path
         id="path3742"
         style="font-style:normal;font-variant:normal;font-weight:normal;font-stretch:normal;font-size:3.88056px;font-family:Quarca;-inkscape-font-specification:Quarca;text-align:start;text-anchor:start;fill:#dddddd;fill-opacity:1;stroke-width:0.264583"
         d="m 53.38105,54.11716 h -0.496712 c -0.267759,0 -0.384175,-0.124178 -0.384175,-0.407459 v -2.138189 h -0.221192 v 2.200278 c 0,0.368653 0.170744,0.55492 0.5588,0.55492 h 0.589845 c 0.388056,0 0.558801,-0.186267 0.558801,-0.55492 v -2.200278 h -0.225072 v 2.138189 c 0,0.283281 -0.112537,0.407459 -0.380295,0.407459 z" />
      <path
         id="path3744"
         style="font-style:normal;font-variant:normal;font-weight:normal;font-stretch:normal;font-size:3.88056px;font-family:Quarca;-inkscape-font-specification:Quarca;text-align:start;text-anchor:start;fill:#dddddd;fill-opacity:1;stroke-width:0.264583"
         d="m 55.613584,53.181945 c 0.194028,0.08149 0.244476,0.147461 0.244476,0.337608 v 0.267759 c 0,0.232834 -0.09701,0.329848 -0.318206,0.329848 h -0.585965 c -0.221192,0 -0.322086,-0.09701 -0.322086,-0.329848 V 53.49627 h -0.221192 v 0.34537 c 0,0.322086 0.151342,0.48507 0.508353,0.48507 h 0.682979 c 0.322086,0 0.481189,-0.162984 0.481189,-0.48507 v -0.380295 c 0,-0.27552 -0.104775,-0.372534 -0.388056,-0.496712 l -0.795515,-0.337608 c -0.182386,-0.07761 -0.228953,-0.151342 -0.228953,-0.322087 v -0.170745 c 0,-0.263878 0.08537,-0.353131 0.333729,-0.353131 h 0.48507 c 0.221191,0 0.329847,0.100895 0.329847,0.34149 v 0.259997 h 0.225073 v -0.314325 c 0,-0.349251 -0.166864,-0.496712 -0.523876,-0.496712 h -0.574323 c -0.341489,0 -0.496712,0.151342 -0.496712,0.496712 v 0.271639 c 0,0.2794 0.09313,0.380295 0.384176,0.508353 z" />
      <path
         id="path3746"
         style="font-style:normal;font-variant:normal;font-weight:normal;font-stretch:normal;font-size:3.88056px;font-family:Quarca;-inkscape-font-specification:Quarca;text-align:start;text-anchor:start;fill:#dddddd;fill-opacity:1;stroke-width:0.264583"
         d="m 56.744707,51.571512 h -0.221192 v 2.755198 h 1.412524 l 0.03104,-0.20955 h -1.222376 z" />
      <path
         id="path3748"
         style="font-style:normal;font-variant:normal;font-weight:normal;font-stretch:normal;font-size:3.88056px;font-family:Quarca;-inkscape-font-specification:Quarca;text-align:start;text-anchor:start;fill:#dddddd;fill-opacity:1;stroke-width:0.264583"
         d="m 58.733919,54.32671 v -1.140885 l 0.814918,-1.614313 h -0.232834 l -0.613129,1.222377 c -0.06597,0.128058 -0.06985,0.155222 -0.08149,0.205669 -0.01164,-0.05045 -0.02328,-0.07761 -0.08537,-0.20955 l -0.617009,-1.218496 h -0.232833 l 0.822678,1.618194 v 1.137004 z" />
      <path
         id="path3750"
         style="font-style:normal;font-variant:normal;font-weight:normal;font-stretch:normal;font-size:3.88056px;font-family:Quarca;-inkscape-font-specification:Quarca;text-align:start;text-anchor:start;fill:#dddddd;fill-opacity:1;stroke-width:0.264583"
         d="m 61.78307,53.181945 c 0.194028,0.08149 0.244475,0.147461 0.244475,0.337608 v 0.267759 c 0,0.232834 -0.09701,0.329848 -0.318206,0.329848 h -0.585965 c -0.221192,0 -0.322086,-0.09701 -0.322086,-0.329848 V 53.49627 h -0.221192 v 0.34537 c 0,0.322086 0.151342,0.48507 0.508353,0.48507 h 0.682979 c 0.322086,0 0.481189,-0.162984 0.481189,-0.48507 v -0.380295 c 0,-0.27552 -0.104775,-0.372534 -0.388056,-0.496712 l -0.795514,-0.337608 c -0.182387,-0.07761 -0.228953,-0.151342 -0.228953,-0.322087 v -0.170745 c 0,-0.263878 0.08537,-0.353131 0.333728,-0.353131 h 0.48507 c 0.221192,0 0.329847,0.100895 0.329847,0.34149 v 0.259997 h 0.225073 v -0.314325 c 0,-0.349251 -0.166864,-0.496712 -0.523876,-0.496712 h -0.574323 c -0.341489,0 -0.496711,0.151342 -0.496711,0.496712 v 0.271639 c 0,0.2794 0.09313,0.380295 0.384175,0.508353 z" />
      <path
         id="path3752"
         style="font-style:normal;font-variant:normal;font-weight:normal;font-stretch:normal;font-size:3.88056px;font-family:Quarca;-inkscape-font-specification:Quarca;text-align:start;text-anchor:start;fill:#dddddd;fill-opacity:1;stroke-width:0.264583"
         d="M 62.914192,51.571512 H 62.693 v 2.755198 h 1.412524 l 0.03104,-0.20955 h -1.222376 z" />
      <path
         id="path3754"
         style="font-style:normal;font-variant:normal;font-weight:normal;font-stretch:normal;font-size:3.88056px;font-family:Quarca;-inkscape-font-specification:Quarca;text-align:start;text-anchor:start;fill:#dddddd;fill-opacity:1;stroke-width:0.264583"
         d="m 64.420697,53.791192 c 0,0.357012 0.13582,0.535518 0.531637,0.535518 h 0.737306 c 0.395817,0 0.531637,-0.178506 0.531637,-0.535518 v -1.684163 c 0,-0.357011 -0.13582,-0.535517 -0.531637,-0.535517 h -0.737306 c -0.395817,0 -0.531637,0.178506 -0.531637,0.535517 z m 0.55492,-2.01013 h 0.69074 c 0.248356,0 0.333728,0.116417 0.333728,0.360893 v 1.614312 c 0,0.244476 -0.08537,0.360893 -0.333728,0.360893 h -0.69074 c -0.244475,0 -0.333728,-0.116417 -0.333728,-0.360893 v -1.614312 c 0,-0.244476 0.08925,-0.360893 0.333728,-0.360893 z" />
      <path
         id="path3756"
         style="font-style:normal;font-variant:normal;font-weight:normal;font-stretch:normal;font-size:3.88056px;font-family:Quarca;-inkscape-font-specification:Quarca;text-align:start;text-anchor:start;fill:#dddddd;fill-opacity:1;stroke-width:0.264583"
         d="m 67.563344,54.32671 0.496711,-2.231322 c 0.01164,-0.03881 0.01552,-0.100895 0.01552,-0.151342 0.0039,0.05045 0.01164,0.112536 0.02328,0.151342 l 0.500592,2.231322 h 0.248356 l 0.737306,-2.755198 h -0.225072 l -0.582084,2.258486 c -0.0194,0.08149 -0.03881,0.151342 -0.04657,0.228953 -0.0078,-0.07761 -0.02716,-0.151342 -0.04269,-0.232833 l -0.500592,-2.254606 h -0.221192 l -0.496712,2.254606 c -0.01552,0.08149 -0.03104,0.159102 -0.0388,0.240594 -0.01552,-0.08149 -0.03493,-0.162983 -0.05433,-0.244475 L 66.798873,51.571512 H 66.56992 l 0.741187,2.755198 z" />
      <path
         id="path3758"
         style="font-style:normal;font-variant:normal;font-weight:normal;font-stretch:normal;font-size:3.88056px;font-family:Quarca;-inkscape-font-specification:Quarca;text-align:start;text-anchor:start;fill:#dddddd;fill-opacity:1;stroke-width:0.264583"
         d="M 70.955742,51.571512 H 70.73455 v 2.755198 h 1.412523 l 0.03104,-0.20955 h -1.222376 z" />
      <path
         id="path3760"
         style="font-style:normal;font-variant:normal;font-weight:normal;font-stretch:normal;font-size:3.88056px;font-family:Quarca;-inkscape-font-specification:Quarca;text-align:start;text-anchor:start;fill:#dddddd;fill-opacity:1;stroke-width:0.264583"
         d="m 72.698963,51.781062 h 1.234018 l 0.03104,-0.20955 h -1.486254 v 2.755198 h 0.221192 v -1.051632 h 0.977901 l 0.03104,-0.20567 h -1.008945 z" />
      <path
         id="path3762"
         style="font-style:normal;font-variant:normal;font-weight:normal;font-stretch:normal;font-size:3.88056px;font-family:Quarca;-inkscape-font-specification:Quarca;text-align:start;text-anchor:start;fill:#dddddd;fill-opacity:1;stroke-width:0.264583"
         d="m 74.28126,53.791192 c 0,0.357012 0.13582,0.535518 0.531637,0.535518 h 0.737306 c 0.395818,0 0.531637,-0.178506 0.531637,-0.535518 v -1.684163 c 0,-0.357011 -0.135819,-0.535517 -0.531637,-0.535517 h -0.737306 c -0.395817,0 -0.531637,0.178506 -0.531637,0.535517 z m 0.55492,-2.01013 h 0.69074 c 0.248356,0 0.333728,0.116417 0.333728,0.360893 v 1.614312 c 0,0.244476 -0.08537,0.360893 -0.333728,0.360893 h -0.69074 c -0.244475,0 -0.333728,-0.116417 -0.333728,-0.360893 v -1.614312 c 0,-0.244476 0.08925,-0.360893 0.333728,-0.360893 z" />
    </g>
    <g
       style="font-style:normal;font-variant:normal;font-weight:normal;font-stretch:normal;font-size:3.52778px;line-height:1.25;font-family:Quarca;-inkscape-font-specification:Quarca;letter-spacing:0px;word-spacing:0px;fill:#dddddd;fill-opacity:1;stroke:none;stroke-width:0.264583"
       id="text5443"
       aria-label="DURATION">
      <path
         id="path3715"
         style="font-style:normal;font-variant:normal;font-weight:normal;font-stretch:normal;font-size:2.82222px;font-family:Quarca;-inkscape-font-specification:Quarca;fill:#dddddd;fill-opacity:1;stroke-width:0.264583"
         d="m 55.240534,58.303925 h 0.784577 c 0.352777,0 0.496711,-0.155223 0.496711,-0.474133 v -1.055511 c 0,-0.318911 -0.143934,-0.474133 -0.496711,-0.474133 h -0.784577 z m 0.77611,-0.1524 H 55.4014 v -1.698977 h 0.615244 c 0.245533,0 0.344311,0.110067 0.344311,0.3556 v 0.987777 c 0,0.245533 -0.09878,0.3556 -0.344311,0.3556 z" />
      <path
         id="path3717"
         style="font-style:normal;font-variant:normal;font-weight:normal;font-stretch:normal;font-size:2.82222px;font-family:Quarca;-inkscape-font-specification:Quarca;fill:#dddddd;fill-opacity:1;stroke-width:0.264583"
         d="m 57.684532,58.151525 h -0.361244 c -0.194733,0 -0.2794,-0.09031 -0.2794,-0.296333 v -1.555044 h -0.160866 v 1.600199 c 0,0.268111 0.124177,0.403578 0.406399,0.403578 h 0.428978 c 0.282222,0 0.4064,-0.135467 0.4064,-0.403578 V 56.300148 H 57.96111 v 1.555044 c 0,0.206022 -0.08185,0.296333 -0.276578,0.296333 z" />
      <path
         id="path3719"
         style="font-style:normal;font-variant:normal;font-weight:normal;font-stretch:normal;font-size:2.82222px;font-family:Quarca;-inkscape-font-specification:Quarca;fill:#dddddd;fill-opacity:1;stroke-width:0.264583"
         d="m 58.498214,58.303925 h 0.160866 v -0.804333 h 0.369711 l 0.561622,0.804333 h 0.189089 l -0.564444,-0.804333 h 0.03951 c 0.268111,0 0.397933,-0.127 0.397933,-0.381 v -0.437444 c 0,-0.254 -0.129822,-0.381 -0.397933,-0.381 h -0.756355 z m 0.160866,-1.851377 h 0.567266 c 0.180623,0 0.262467,0.08467 0.262467,0.276578 v 0.341488 c 0,0.194734 -0.08184,0.2794 -0.262467,0.2794 H 58.65908 Z" />
      <path
         id="path3721"
         style="font-style:normal;font-variant:normal;font-weight:normal;font-stretch:normal;font-size:2.82222px;font-family:Quarca;-inkscape-font-specification:Quarca;fill:#dddddd;fill-opacity:1;stroke-width:0.264583"
         d="m 60.477295,56.300148 -0.618066,2.003777 h 0.172156 l 0.129822,-0.434622 h 0.807155 l 0.129822,0.434622 h 0.172155 l -0.615244,-2.003777 z m 0.09031,0.214489 0.3556,1.202266 h -0.716844 z" />
      <path
         id="path3723"
         style="font-style:normal;font-variant:normal;font-weight:normal;font-stretch:normal;font-size:2.82222px;font-family:Quarca;-inkscape-font-specification:Quarca;fill:#dddddd;fill-opacity:1;stroke-width:0.264583"
         d="m 62.367081,56.452548 v -0.1524 h -1.188155 v 0.1524 h 0.513644 v 1.851377 h 0.163689 v -1.851377 z" />
      <path
         id="path3725"
         style="font-style:normal;font-variant:normal;font-weight:normal;font-stretch:normal;font-size:2.82222px;font-family:Quarca;-inkscape-font-specification:Quarca;fill:#dddddd;fill-opacity:1;stroke-width:0.264583"
         d="m 62.749095,58.303925 v -2.003777 h -0.160867 v 2.003777 z" />
      <path
         id="path3727"
         style="font-style:normal;font-variant:normal;font-weight:normal;font-stretch:normal;font-size:2.82222px;font-family:Quarca;-inkscape-font-specification:Quarca;fill:#dddddd;fill-opacity:1;stroke-width:0.264583"
         d="m 63.117129,57.914458 c 0,0.259644 0.09878,0.389467 0.386645,0.389467 h 0.536221 c 0.287867,0 0.386645,-0.129823 0.386645,-0.389467 v -1.224843 c 0,-0.259645 -0.09878,-0.389467 -0.386645,-0.389467 h -0.536221 c -0.287867,0 -0.386645,0.129822 -0.386645,0.389467 z m 0.403578,-1.46191 h 0.502355 c 0.180622,0 0.242711,0.08467 0.242711,0.262467 v 1.174043 c 0,0.1778 -0.06209,0.262467 -0.242711,0.262467 h -0.502355 c -0.1778,0 -0.242711,-0.08467 -0.242711,-0.262467 v -1.174043 c 0,-0.1778 0.06491,-0.262467 0.242711,-0.262467 z" />
      <path
         id="path3729"
         style="font-style:normal;font-variant:normal;font-weight:normal;font-stretch:normal;font-size:2.82222px;font-family:Quarca;-inkscape-font-specification:Quarca;fill:#dddddd;fill-opacity:1;stroke-width:0.264583"
         d="m 64.953953,58.303925 v -1.724377 c 0.04233,0.09313 0.07902,0.186267 0.146756,0.301978 l 0.824088,1.422399 h 0.163689 v -2.003777 h -0.163689 v 1.721555 c -0.03104,-0.07338 -0.05927,-0.143934 -0.112889,-0.237067 l -0.857955,-1.484488 h -0.160866 v 2.003777 z" />
    </g>
    <g
       style="font-style:normal;font-variant:normal;font-weight:normal;font-stretch:normal;font-size:3.52778px;line-height:1.25;font-family:Quarca;-inkscape-font-specification:Quarca;letter-spacing:0px;word-spacing:0px;fill:#dddddd;fill-opacity:1;stroke:none;stroke-width:0.264583"
       id="text5443-7-3-2"
       aria-label="TIME BASE">
      <path
         id="path3698"
         style="font-style:normal;font-variant:normal;font-weight:normal;font-stretch:normal;font-size:2.82222px;font-family:Quarca;-inkscape-font-specification:Quarca;fill:#dddddd;fill-opacity:1;stroke-width:0.264583"
         d="m 37.913501,90.848384 v -0.1524 h -1.188155 v 0.1524 h 0.513644 v 1.851376 h 0.163689 v -1.851376 z" />
      <path
         id="path3700"
         style="font-style:normal;font-variant:normal;font-weight:normal;font-stretch:normal;font-size:2.82222px;font-family:Quarca;-inkscape-font-specification:Quarca;fill:#dddddd;fill-opacity:1;stroke-width:0.264583"
         d="M 38.295515,92.69976 V 90.695984 H 38.134648 V 92.69976 Z" />
      <path
         id="path3702"
         style="font-style:normal;font-variant:normal;font-weight:normal;font-stretch:normal;font-size:2.82222px;font-family:Quarca;-inkscape-font-specification:Quarca;fill:#dddddd;fill-opacity:1;stroke-width:0.264583"
         d="m 38.830061,92.69976 v -1.744132 l 0.499533,0.976489 h 0.158044 l 0.502355,-0.976489 v 1.744132 h 0.155222 v -2.003776 h -0.191911 l -0.544688,1.063977 -0.541866,-1.063977 h -0.191911 v 2.003776 z" />
      <path
         id="path3704"
         style="font-style:normal;font-variant:normal;font-weight:normal;font-stretch:normal;font-size:2.82222px;font-family:Quarca;-inkscape-font-specification:Quarca;fill:#dddddd;fill-opacity:1;stroke-width:0.264583"
         d="m 40.682275,90.848384 h 0.905933 l 0.02258,-0.1524 h -1.089377 v 2.003776 h 1.072444 l 0.02258,-0.152399 h -0.934155 v -0.612422 h 0.759177 l 0.02258,-0.149578 h -0.781755 z" />
      <path
         id="path3706"
         style="font-style:normal;font-variant:normal;font-weight:normal;font-stretch:normal;font-size:2.82222px;font-family:Quarca;-inkscape-font-specification:Quarca;fill:#dddddd;fill-opacity:1;stroke-width:0.264583"
         d="m 42.450661,92.69976 h 0.784577 c 0.301977,0 0.437444,-0.129822 0.437444,-0.389466 v -0.273755 c 0,-0.273756 -0.146756,-0.372533 -0.327378,-0.386644 0.1524,-0.03105 0.222956,-0.132645 0.222956,-0.318911 v -0.245533 c 0,-0.259645 -0.149578,-0.389467 -0.465667,-0.389467 h -0.651932 z m 0.160866,-0.970843 h 0.536222 c 0.251178,0 0.364066,0.09596 0.364066,0.316088 v 0.234245 c 0,0.180622 -0.09313,0.268111 -0.301977,0.268111 h -0.598311 z m 0,-0.880533 h 0.454378 c 0.234244,0 0.341488,0.07902 0.341488,0.273755 v 0.197556 c 0,0.160866 -0.08749,0.259644 -0.285044,0.259644 h -0.510822 z" />
      <path
         id="path3708"
         style="font-style:normal;font-variant:normal;font-weight:normal;font-stretch:normal;font-size:2.82222px;font-family:Quarca;-inkscape-font-specification:Quarca;fill:#dddddd;fill-opacity:1;stroke-width:0.264583"
         d="m 44.435255,90.695984 -0.618067,2.003776 h 0.172156 l 0.129822,-0.434621 h 0.807155 l 0.129822,0.434621 h 0.172155 l -0.615244,-2.003776 z m 0.09031,0.214489 0.355599,1.202266 h -0.716844 z" />
      <path
         id="path3710"
         style="font-style:normal;font-variant:normal;font-weight:normal;font-stretch:normal;font-size:2.82222px;font-family:Quarca;-inkscape-font-specification:Quarca;fill:#dddddd;fill-opacity:1;stroke-width:0.264583"
         d="m 46.253734,91.867206 c 0.141111,0.05927 0.1778,0.107244 0.1778,0.245533 v 0.194733 c 0,0.169333 -0.07055,0.239889 -0.231422,0.239889 h -0.426155 c -0.160867,0 -0.234245,-0.07056 -0.234245,-0.239889 v -0.211667 h -0.160866 v 0.251178 c 0,0.234244 0.110067,0.352777 0.369711,0.352777 h 0.49671 c 0.234245,0 0.349956,-0.118533 0.349956,-0.352777 v -0.276578 c 0,-0.200377 -0.0762,-0.270933 -0.282222,-0.361244 l -0.578555,-0.245533 c -0.132645,-0.05644 -0.166511,-0.110067 -0.166511,-0.234244 v -0.124178 c 0,-0.191911 0.06209,-0.256822 0.242711,-0.256822 h 0.352777 c 0.160867,0 0.239889,0.07338 0.239889,0.248355 v 0.189089 h 0.163689 v -0.2286 c 0,-0.253999 -0.121356,-0.361244 -0.381,-0.361244 h -0.417689 c -0.248355,0 -0.361244,0.110067 -0.361244,0.361244 v 0.197556 c 0,0.2032 0.06773,0.276577 0.2794,0.369711 z" />
      <path
         id="path3712"
         style="font-style:normal;font-variant:normal;font-weight:normal;font-stretch:normal;font-size:2.82222px;font-family:Quarca;-inkscape-font-specification:Quarca;fill:#dddddd;fill-opacity:1;stroke-width:0.264583"
         d="M 47.076367,90.848384 H 47.9823 l 0.02258,-0.1524 h -1.089377 v 2.003776 h 1.072443 l 0.02258,-0.152399 h -0.934155 v -0.612422 h 0.759177 l 0.02258,-0.149578 h -0.781755 z" />
    </g>
    <g
       style="font-style:normal;font-variant:normal;font-weight:normal;font-stretch:normal;font-size:3.52778px;line-height:1.25;font-family:Quarca;-inkscape-font-specification:Quarca;letter-spacing:0px;word-spacing:0px;fill:#dddddd;fill-opacity:1;stroke:none;stroke-width:0.264583"
       id="text5443-7-3-2-5"
       aria-label="MINUTES">
      <path
         id="path3683"
         style="font-style:normal;font-variant:normal;font-weight:normal;font-stretch:normal;font-size:2.11667px;font-family:Quarca;-inkscape-font-specification:Quarca;fill:#dddddd;fill-opacity:1;stroke-width:0.264583"
         d="m 41.614847,97.13559 v -1.308102 l 0.37465,0.732367 h 0.118534 l 0.376767,-0.732367 v 1.308102 h 0.116417 v -1.502836 h -0.143933 l -0.408518,0.797985 -0.4064,-0.797985 H 41.49843 v 1.502836 z" />
      <path
         id="path3685"
         style="font-style:normal;font-variant:normal;font-weight:normal;font-stretch:normal;font-size:2.11667px;font-family:Quarca;-inkscape-font-specification:Quarca;fill:#dddddd;fill-opacity:1;stroke-width:0.264583"
         d="m 43.004011,97.13559 v -1.502836 h -0.12065 v 1.502836 z" />
      <path
         id="path3687"
         style="font-style:normal;font-variant:normal;font-weight:normal;font-stretch:normal;font-size:2.11667px;font-family:Quarca;-inkscape-font-specification:Quarca;fill:#dddddd;fill-opacity:1;stroke-width:0.264583"
         d="m 43.409155,97.13559 v -1.293286 c 0.03175,0.06985 0.05927,0.139701 0.110066,0.226484 l 0.618068,1.066802 h 0.122767 v -1.502836 h -0.122767 v 1.291169 c -0.02328,-0.05503 -0.04445,-0.107951 -0.08467,-0.177801 l -0.643467,-1.113368 h -0.120651 v 1.502836 z" />
      <path
         id="path3689"
         style="font-style:normal;font-variant:normal;font-weight:normal;font-stretch:normal;font-size:2.11667px;font-family:Quarca;-inkscape-font-specification:Quarca;fill:#dddddd;fill-opacity:1;stroke-width:0.264583"
         d="m 45.142178,97.021289 h -0.270934 c -0.14605,0 -0.20955,-0.06773 -0.20955,-0.22225 v -1.166285 h -0.12065 v 1.200152 c 0,0.201083 0.09313,0.302684 0.3048,0.302684 h 0.321734 c 0.211667,0 0.304801,-0.101601 0.304801,-0.302684 v -1.200152 h -0.122767 v 1.166285 c 0,0.154517 -0.06138,0.22225 -0.207434,0.22225 z" />
      <path
         id="path3691"
         style="font-style:normal;font-variant:normal;font-weight:normal;font-stretch:normal;font-size:2.11667px;font-family:Quarca;-inkscape-font-specification:Quarca;fill:#dddddd;fill-opacity:1;stroke-width:0.264583"
         d="m 46.525025,95.747054 v -0.1143 h -0.891118 v 0.1143 h 0.385234 v 1.388536 h 0.122767 v -1.388536 z" />
      <path
         id="path3693"
         style="font-style:normal;font-variant:normal;font-weight:normal;font-stretch:normal;font-size:2.11667px;font-family:Quarca;-inkscape-font-specification:Quarca;fill:#dddddd;fill-opacity:1;stroke-width:0.264583"
         d="m 46.811536,95.747054 h 0.679451 l 0.01693,-0.1143 h -0.817034 v 1.502836 h 0.804334 l 0.01693,-0.114301 h -0.700618 v -0.459317 h 0.569384 l 0.01693,-0.112183 h -0.586318 z" />
      <path
         id="path3695"
         style="font-style:normal;font-variant:normal;font-weight:normal;font-stretch:normal;font-size:2.11667px;font-family:Quarca;-inkscape-font-specification:Quarca;fill:#dddddd;fill-opacity:1;stroke-width:0.264583"
         d="m 48.315364,96.511172 c 0.105834,0.04445 0.13335,0.08043 0.13335,0.18415 v 0.14605 c 0,0.127001 -0.05292,0.179917 -0.173567,0.179917 H 47.95553 c -0.12065,0 -0.175683,-0.05292 -0.175683,-0.179917 v -0.15875 h -0.120651 v 0.188384 c 0,0.175683 0.08255,0.264584 0.277284,0.264584 h 0.372534 c 0.175684,0 0.262467,-0.0889 0.262467,-0.264584 v -0.207434 c 0,-0.150283 -0.05715,-0.2032 -0.211667,-0.270934 l -0.433917,-0.18415 c -0.09948,-0.04233 -0.124884,-0.08255 -0.124884,-0.175683 v -0.09313 c 0,-0.143933 0.04657,-0.192617 0.182034,-0.192617 h 0.264584 c 0.12065,0 0.179917,0.05503 0.179917,0.186267 v 0.141817 h 0.122766 v -0.17145 c 0,-0.190501 -0.09102,-0.270934 -0.28575,-0.270934 h -0.313267 c -0.186267,0 -0.270934,0.08255 -0.270934,0.270934 v 0.148167 c 0,0.1524 0.0508,0.207433 0.20955,0.277283 z" />
    </g>
    <g
       style="font-style:normal;font-variant:normal;font-weight:normal;font-stretch:normal;font-size:3.52778px;line-height:1.25;font-family:Quarca;-inkscape-font-specification:Quarca;letter-spacing:0px;word-spacing:0px;fill:#dddddd;fill-opacity:1;stroke:none;stroke-width:0.264583"
       id="text5443-7-3-2-5-3"
       aria-label="HOURS">
      <path
         id="path3672"
         style="font-style:normal;font-variant:normal;font-weight:normal;font-stretch:normal;font-size:2.11667px;font-family:Quarca;-inkscape-font-specification:Quarca;fill:#dddddd;fill-opacity:1;stroke-width:0.264583"
         d="m 41.616963,102.44208 v -0.56939 h 0.696384 v 0.56939 h 0.120651 v -1.50284 h -0.120651 v 0.81915 h -0.696384 v -0.81915 h -0.12065 v 1.50284 z" />
      <path
         id="path3674"
         style="font-style:normal;font-variant:normal;font-weight:normal;font-stretch:normal;font-size:2.11667px;font-family:Quarca;-inkscape-font-specification:Quarca;fill:#dddddd;fill-opacity:1;stroke-width:0.264583"
         d="m 42.707412,102.14998 c 0,0.19473 0.07408,0.2921 0.289984,0.2921 h 0.402167 c 0.2159,0 0.289984,-0.0974 0.289984,-0.2921 v -0.91864 c 0,-0.19473 -0.07408,-0.2921 -0.289984,-0.2921 h -0.402167 c -0.215901,0 -0.289984,0.0974 -0.289984,0.2921 z m 0.302684,-1.09644 h 0.376767 c 0.135467,0 0.182033,0.0635 0.182033,0.19685 v 0.88054 c 0,0.13335 -0.04657,0.19685 -0.182033,0.19685 h -0.376767 c -0.133351,0 -0.182034,-0.0635 -0.182034,-0.19685 v -0.88054 c 0,-0.13335 0.04868,-0.19685 0.182034,-0.19685 z" />
      <path
         id="path3676"
         style="font-style:normal;font-variant:normal;font-weight:normal;font-stretch:normal;font-size:2.11667px;font-family:Quarca;-inkscape-font-specification:Quarca;fill:#dddddd;fill-opacity:1;stroke-width:0.264583"
         d="M 44.561284,102.32778 H 44.29035 c -0.14605,0 -0.20955,-0.0677 -0.20955,-0.22225 v -1.16629 h -0.12065 v 1.20015 c 0,0.20109 0.09313,0.30269 0.3048,0.30269 h 0.321734 c 0.211667,0 0.3048,-0.1016 0.3048,-0.30269 v -1.20015 h -0.122767 v 1.16629 c 0,0.15451 -0.06138,0.22225 -0.207433,0.22225 z" />
      <path
         id="path3678"
         style="font-style:normal;font-variant:normal;font-weight:normal;font-stretch:normal;font-size:2.11667px;font-family:Quarca;-inkscape-font-specification:Quarca;fill:#dddddd;fill-opacity:1;stroke-width:0.264583"
         d="m 45.171546,102.44208 h 0.12065 v -0.60325 h 0.277284 l 0.421217,0.60325 h 0.141817 l -0.423334,-0.60325 h 0.02963 c 0.201083,0 0.29845,-0.0953 0.29845,-0.28575 v -0.32809 c 0,-0.1905 -0.09737,-0.28575 -0.29845,-0.28575 h -0.567268 z m 0.12065,-1.38854 h 0.425451 c 0.135467,0 0.19685,0.0635 0.19685,0.20744 v 0.25611 c 0,0.14605 -0.06138,0.20955 -0.19685,0.20955 h -0.425451 z" />
      <path
         id="path3680"
         style="font-style:normal;font-variant:normal;font-weight:normal;font-stretch:normal;font-size:2.11667px;font-family:Quarca;-inkscape-font-specification:Quarca;fill:#dddddd;fill-opacity:1;stroke-width:0.264583"
         d="m 46.903511,101.81766 c 0.105834,0.0444 0.13335,0.0804 0.13335,0.18415 v 0.14605 c 0,0.127 -0.05292,0.17992 -0.173566,0.17992 h -0.319618 c -0.12065,0 -0.175683,-0.0529 -0.175683,-0.17992 v -0.15875 h -0.12065 v 0.18838 c 0,0.17569 0.08255,0.26459 0.277283,0.26459 h 0.372534 c 0.175684,0 0.262467,-0.0889 0.262467,-0.26459 v -0.20743 c 0,-0.15028 -0.05715,-0.2032 -0.211667,-0.27093 l -0.433917,-0.18415 c -0.09948,-0.0423 -0.124884,-0.0825 -0.124884,-0.17569 v -0.0931 c 0,-0.14393 0.04657,-0.19262 0.182034,-0.19262 h 0.264584 c 0.12065,0 0.179917,0.055 0.179917,0.18627 v 0.14182 h 0.122767 v -0.17145 c 0,-0.1905 -0.09102,-0.27094 -0.285751,-0.27094 h -0.313267 c -0.186267,0 -0.270934,0.0825 -0.270934,0.27094 v 0.14816 c 0,0.1524 0.0508,0.20744 0.209551,0.27729 z" />
    </g>
    <g
       style="font-style:normal;font-variant:normal;font-weight:normal;font-stretch:normal;font-size:3.52778px;line-height:1.25;font-family:Quarca;-inkscape-font-specification:Quarca;letter-spacing:0px;word-spacing:0px;fill:#dddddd;fill-opacity:1;stroke:none;stroke-width:0.264583"
       id="text5443-7-3-2-5-9"
       aria-label="DAYS">
      <path
         id="path3663"
         style="font-style:normal;font-variant:normal;font-weight:normal;font-stretch:normal;font-size:2.11667px;font-family:Quarca;-inkscape-font-specification:Quarca;fill:#dddddd;fill-opacity:1;stroke-width:0.264583"
         d="m 41.504778,107.71892 h 0.588434 c 0.264584,0 0.372534,-0.11642 0.372534,-0.3556 v -0.79164 c 0,-0.23918 -0.10795,-0.3556 -0.372534,-0.3556 h -0.588434 z m 0.582084,-0.1143 h -0.461434 v -1.27424 h 0.461434 c 0.18415,0 0.258234,0.0825 0.258234,0.2667 v 0.74084 c 0,0.18415 -0.07408,0.2667 -0.258234,0.2667 z" />
      <path
         id="path3665"
         style="font-style:normal;font-variant:normal;font-weight:normal;font-stretch:normal;font-size:2.11667px;font-family:Quarca;-inkscape-font-specification:Quarca;fill:#dddddd;fill-opacity:1;stroke-width:0.264583"
         d="m 43.080043,106.21608 -0.463551,1.50284 h 0.129117 l 0.09737,-0.32597 h 0.605368 l 0.09737,0.32597 h 0.129116 l -0.461434,-1.50284 z m 0.06773,0.16087 0.2667,0.9017 h -0.537634 z" />
      <path
         id="path3667"
         style="font-style:normal;font-variant:normal;font-weight:normal;font-stretch:normal;font-size:2.11667px;font-family:Quarca;-inkscape-font-specification:Quarca;fill:#dddddd;fill-opacity:1;stroke-width:0.264583"
         d="m 44.173932,107.71892 v -0.6223 l 0.4445,-0.88054 h -0.127 l -0.334434,0.66675 c -0.03598,0.0699 -0.0381,0.0847 -0.04445,0.11219 -0.0063,-0.0275 -0.0127,-0.0423 -0.04657,-0.1143 l -0.33655,-0.66464 h -0.127 l 0.448734,0.88265 v 0.62019 z" />
      <path
         id="path3669"
         style="font-style:normal;font-variant:normal;font-weight:normal;font-stretch:normal;font-size:2.11667px;font-family:Quarca;-inkscape-font-specification:Quarca;fill:#dddddd;fill-opacity:1;stroke-width:0.264583"
         d="m 45.378217,107.0945 c 0.105834,0.0444 0.133351,0.0804 0.133351,0.18415 v 0.14605 c 0,0.127 -0.05292,0.17992 -0.173567,0.17992 h -0.319617 c -0.120651,0 -0.175684,-0.0529 -0.175684,-0.17992 v -0.15875 h -0.12065 v 0.18838 c 0,0.17569 0.08255,0.26459 0.277283,0.26459 h 0.372534 c 0.175684,0 0.262467,-0.0889 0.262467,-0.26459 v -0.20743 c 0,-0.15028 -0.05715,-0.2032 -0.211667,-0.27093 l -0.433917,-0.18415 c -0.09948,-0.0423 -0.124883,-0.0825 -0.124883,-0.17569 v -0.0931 c 0,-0.14393 0.04657,-0.19262 0.182033,-0.19262 h 0.264584 c 0.12065,0 0.179917,0.055 0.179917,0.18627 v 0.14182 h 0.122767 v -0.17145 c 0,-0.1905 -0.09102,-0.27094 -0.285751,-0.27094 H 45.01415 c -0.186267,0 -0.270934,0.0825 -0.270934,0.27094 v 0.14816 c 0,0.1524 0.0508,0.20744 0.209551,0.27729 z" />
    </g>
    <g
       style="font-style:normal;font-variant:normal;font-weight:normal;font-stretch:normal;font-size:3.52778px;line-height:1.25;font-family:Quarca;-inkscape-font-specification:Quarca;letter-spacing:0px;word-spacing:0px;fill:#dddddd;fill-opacity:1;stroke:none;stroke-width:0.264583"
       id="text5443-7-3-2-5-5"
       aria-label="WEEKS">
      <path
         id="path3652"
         style="font-style:normal;font-variant:normal;font-weight:normal;font-stretch:normal;font-size:2.11667px;font-family:Quarca;-inkscape-font-specification:Quarca;fill:#dddddd;fill-opacity:1;stroke-width:0.264583"
         d="m 42.05511,113.01059 0.270934,-1.21709 c 0.0063,-0.0212 0.0085,-0.055 0.0085,-0.0825 0.0021,0.0275 0.0063,0.0614 0.0127,0.0825 l 0.27305,1.21709 h 0.135467 l 0.402167,-1.50284 h -0.122766 l -0.317501,1.23191 c -0.01058,0.0444 -0.02117,0.0825 -0.0254,0.12488 -0.0042,-0.0423 -0.01482,-0.0826 -0.02328,-0.127 l -0.273051,-1.22979 h -0.12065 l -0.270934,1.22979 c -0.0085,0.0444 -0.01693,0.0868 -0.02117,0.13123 -0.0085,-0.0444 -0.01905,-0.0889 -0.02963,-0.13335 l -0.315384,-1.22767 h -0.124883 l 0.404284,1.50284 z" />
      <path
         id="path3654"
         style="font-style:normal;font-variant:normal;font-weight:normal;font-stretch:normal;font-size:2.11667px;font-family:Quarca;-inkscape-font-specification:Quarca;fill:#dddddd;fill-opacity:1;stroke-width:0.264583"
         d="m 43.475561,111.62205 h 0.679451 l 0.01693,-0.1143 h -0.817035 v 1.50284 h 0.804335 l 0.01693,-0.1143 h -0.700618 v -0.45932 h 0.569385 l 0.01693,-0.11218 h -0.586318 z" />
      <path
         id="path3656"
         style="font-style:normal;font-variant:normal;font-weight:normal;font-stretch:normal;font-size:2.11667px;font-family:Quarca;-inkscape-font-specification:Quarca;fill:#dddddd;fill-opacity:1;stroke-width:0.264583"
         d="m 44.492555,111.62205 h 0.679451 l 0.01693,-0.1143 h -0.817034 v 1.50284 h 0.804334 l 0.01693,-0.1143 h -0.700618 v -0.45932 h 0.569384 l 0.01693,-0.11218 h -0.586318 z" />
      <path
         id="path3658"
         style="font-style:normal;font-variant:normal;font-weight:normal;font-stretch:normal;font-size:2.11667px;font-family:Quarca;-inkscape-font-specification:Quarca;fill:#dddddd;fill-opacity:1;stroke-width:0.264583"
         d="m 45.509549,113.01059 v -0.71967 l 0.622301,0.71967 h 0.141817 l -0.649818,-0.75142 0.637118,-0.75142 h -0.133351 l -0.618067,0.71967 v -0.71967 h -0.12065 v 1.50284 z" />
      <path
         id="path3660"
         style="font-style:normal;font-variant:normal;font-weight:normal;font-stretch:normal;font-size:2.11667px;font-family:Quarca;-inkscape-font-specification:Quarca;fill:#dddddd;fill-opacity:1;stroke-width:0.264583"
         d="m 47.013376,112.38617 c 0.105834,0.0444 0.133351,0.0804 0.133351,0.18415 v 0.14605 c 0,0.127 -0.05292,0.17992 -0.173567,0.17992 h -0.319617 c -0.120651,0 -0.175684,-0.0529 -0.175684,-0.17992 v -0.15875 h -0.12065 v 0.18839 c 0,0.17568 0.08255,0.26458 0.277284,0.26458 h 0.372533 c 0.175684,0 0.262467,-0.0889 0.262467,-0.26458 v -0.20744 c 0,-0.15028 -0.05715,-0.2032 -0.211667,-0.27093 l -0.433917,-0.18415 c -0.09948,-0.0423 -0.124883,-0.0825 -0.124883,-0.17569 v -0.0931 c 0,-0.14393 0.04657,-0.19262 0.182033,-0.19262 h 0.264584 c 0.12065,0 0.179917,0.055 0.179917,0.18627 v 0.14182 h 0.122767 v -0.17145 c 0,-0.1905 -0.09102,-0.27094 -0.285751,-0.27094 h -0.313267 c -0.186267,0 -0.270934,0.0825 -0.270934,0.27094 v 0.14816 c 0,0.1524 0.0508,0.20744 0.209551,0.27729 z" />
    </g>
    <g
       style="font-style:normal;font-variant:normal;font-weight:normal;font-stretch:normal;font-size:3.52778px;line-height:1.25;font-family:Quarca;-inkscape-font-specification:Quarca;letter-spacing:0px;word-spacing:0px;fill:#dddddd;fill-opacity:1;stroke:none;stroke-width:0.264583"
       id="text5443-7-3-2-5-8"
       aria-label="MONTHS">
      <path
         id="path3639"
         style="font-style:normal;font-variant:normal;font-weight:normal;font-stretch:normal;font-size:2.11667px;font-family:Quarca;-inkscape-font-specification:Quarca;fill:#dddddd;fill-opacity:1;stroke-width:0.264583"
         d="m 41.614847,118.31708 v -1.3081 l 0.37465,0.73236 h 0.118534 l 0.376767,-0.73236 v 1.3081 h 0.116417 v -1.50284 h -0.143933 l -0.408518,0.79799 -0.4064,-0.79799 H 41.49843 v 1.50284 z" />
      <path
         id="path3641"
         style="font-style:normal;font-variant:normal;font-weight:normal;font-stretch:normal;font-size:2.11667px;font-family:Quarca;-inkscape-font-specification:Quarca;fill:#dddddd;fill-opacity:1;stroke-width:0.264583"
         d="m 42.874894,118.02498 c 0,0.19473 0.07408,0.2921 0.289984,0.2921 h 0.402167 c 0.2159,0 0.289984,-0.0974 0.289984,-0.2921 v -0.91864 c 0,-0.19473 -0.07408,-0.2921 -0.289984,-0.2921 h -0.402167 c -0.215901,0 -0.289984,0.0974 -0.289984,0.2921 z m 0.302684,-1.09644 h 0.376767 c 0.135467,0 0.182034,0.0635 0.182034,0.19685 v 0.88054 c 0,0.13335 -0.04657,0.19685 -0.182034,0.19685 h -0.376767 c -0.133351,0 -0.182034,-0.0635 -0.182034,-0.19685 v -0.88054 c 0,-0.13335 0.04868,-0.19685 0.182034,-0.19685 z" />
      <path
         id="path3643"
         style="font-style:normal;font-variant:normal;font-weight:normal;font-stretch:normal;font-size:2.11667px;font-family:Quarca;-inkscape-font-specification:Quarca;fill:#dddddd;fill-opacity:1;stroke-width:0.264583"
         d="m 44.252515,118.31708 v -1.29329 c 0.03175,0.0698 0.05927,0.1397 0.110067,0.22649 l 0.618068,1.0668 h 0.122767 v -1.50284 H 44.98065 v 1.29117 c -0.02328,-0.055 -0.04445,-0.10795 -0.08467,-0.1778 l -0.643468,-1.11337 h -0.12065 v 1.50284 z" />
      <path
         id="path3645"
         style="font-style:normal;font-variant:normal;font-weight:normal;font-stretch:normal;font-size:2.11667px;font-family:Quarca;-inkscape-font-specification:Quarca;fill:#dddddd;fill-opacity:1;stroke-width:0.264583"
         d="m 46.161222,116.92854 v -0.1143 h -0.891118 v 0.1143 h 0.385234 v 1.38854 h 0.122767 v -1.38854 z" />
      <path
         id="path3647"
         style="font-style:normal;font-variant:normal;font-weight:normal;font-stretch:normal;font-size:2.11667px;font-family:Quarca;-inkscape-font-specification:Quarca;fill:#dddddd;fill-opacity:1;stroke-width:0.264583"
         d="m 46.447734,118.31708 v -0.56939 h 0.696384 v 0.56939 h 0.12065 v -1.50284 h -0.12065 v 0.81915 h -0.696384 v -0.81915 h -0.120651 v 1.50284 z" />
      <path
         id="path3649"
         style="font-style:normal;font-variant:normal;font-weight:normal;font-stretch:normal;font-size:2.11667px;font-family:Quarca;-inkscape-font-specification:Quarca;fill:#dddddd;fill-opacity:1;stroke-width:0.264583"
         d="m 48.154133,117.69266 c 0.105834,0.0444 0.13335,0.0804 0.13335,0.18415 v 0.14605 c 0,0.127 -0.05292,0.17992 -0.173567,0.17992 h -0.319617 c -0.12065,0 -0.175683,-0.0529 -0.175683,-0.17992 v -0.15875 h -0.120651 v 0.18838 c 0,0.17569 0.08255,0.26459 0.277284,0.26459 h 0.372534 c 0.175684,0 0.262467,-0.0889 0.262467,-0.26459 v -0.20743 c 0,-0.15028 -0.05715,-0.2032 -0.211667,-0.27093 l -0.433917,-0.18415 c -0.09948,-0.0423 -0.124884,-0.0825 -0.124884,-0.17569 v -0.0931 c 0,-0.14393 0.04657,-0.19262 0.182034,-0.19262 H 48.0864 c 0.12065,0 0.179917,0.055 0.179917,0.18627 v 0.14182 h 0.122766 v -0.17145 c 0,-0.1905 -0.09102,-0.27094 -0.28575,-0.27094 h -0.313267 c -0.186267,0 -0.270934,0.0825 -0.270934,0.27094 v 0.14816 c 0,0.1524 0.0508,0.20744 0.20955,0.27729 z" />
    </g>
    <g
       style="font-style:normal;font-variant:normal;font-weight:bold;font-stretch:normal;font-size:3.52778px;line-height:1.25;font-family:Arial;-inkscape-font-specification:'Arial Bold';text-align:center;letter-spacing:0px;word-spacing:0px;white-space:pre;shape-inside:url(#rect7244);fill:#000000;fill-opacity:1;stroke:none"
       id="text7242" />
  </g>
</svg>
