<?xml version="1.0" encoding="UTF-8" standalone="no"?>
<!-- Created with Inkscape (http://www.inkscape.org/) -->

<svg
   xmlns:dc="http://purl.org/dc/elements/1.1/"
   xmlns:cc="http://creativecommons.org/ns#"
   xmlns:rdf="http://www.w3.org/1999/02/22-rdf-syntax-ns#"
   xmlns:svg="http://www.w3.org/2000/svg"
   xmlns="http://www.w3.org/2000/svg"
   xmlns:xlink="http://www.w3.org/1999/xlink"
   xmlns:sodipodi="http://sodipodi.sourceforge.net/DTD/sodipodi-0.dtd"
   xmlns:inkscape="http://www.inkscape.org/namespaces/inkscape"
   width="185"
   height="380"
   viewBox="0 0 48.947917 100.54167"
   version="1.1"
   id="svg11003"
   inkscape:version="0.92.2 (5c3e80d, 2017-08-06)"
   sodipodi:docname="SeriouslySlowLFO.svg">
  <defs
     id="defs10997">
    <linearGradient
       inkscape:collect="always"
       id="linearGradient3391">
      <stop
         style="stop-color:#202022;stop-opacity:1;"
         offset="0"
         id="stop3387" />
      <stop
         style="stop-color:#202025;stop-opacity:1;"
         offset=".3"
         id="stop3388" />
      <stop
         style="stop-color:#08006f;stop-opacity:1;"
         offset="1"
         id="stop3389" />
    </linearGradient>
    <linearGradient
       inkscape:collect="always"
       xlink:href="#linearGradient3391"
       id="linearGradient3393"
       x1="35.219627"
       y1="150.85843"
       x2="35.219627"
       y2="50.462322"
       gradientUnits="userSpaceOnUse"
       gradientTransform="matrix(1.2359998,0,0,1,-8.3118249,0)" />
  </defs>
  <sodipodi:namedview
     id="base"
     pagecolor="#000000"
     bordercolor="#666666"
     borderopacity="1.0"
     inkscape:pageopacity="0.0"
     inkscape:pageshadow="2"
     inkscape:zoom="4"
     inkscape:cx="-30.547"
     inkscape:cy="185.79805"
     inkscape:document-units="px"
     inkscape:current-layer="layer1"
     showgrid="false"
     fit-margin-top="0"
     fit-margin-left="0"
     fit-margin-right="0"
     fit-margin-bottom="0"
     inkscape:window-width="3840"
     inkscape:window-height="2115"
     inkscape:window-x="-13"
     inkscape:window-y="-13"
     inkscape:window-maximized="1"
     units="px"
     inkscape:pagecheckerboard="true" />
  <metadata
     id="metadata11000">
    <rdf:RDF>
      <cc:Work
         rdf:about="">
        <dc:format>image/svg+xml</dc:format>
        <dc:type
           rdf:resource="http://purl.org/dc/dcmitype/StillImage" />
        <dc:title></dc:title>
      </cc:Work>
    </rdf:RDF>
  </metadata>
  <g
     inkscape:label="Layer 1"
     inkscape:groupmode="layer"
     id="layer1"
     transform="translate(-35.146312,-50.389004)">
    <path
       inkscape:connector-curvature="0"
       id="path33493"
       d="M 35.219628,50.462323 H 84.167545 V 150.85843 H 35.219628 Z m 0,0"
       style="fill:url(#linearGradient3393);fill-opacity:1;fill-rule:nonzero;stroke:none;stroke-width:0.30687088"
       inkscape:export-filename="/home/vortico/pics/tmp/LFOs.png"
       inkscape:export-xdpi="150.22649"
       inkscape:export-ydpi="150.22649" />
    <g
       aria-label="Frozen Wasteland"
       style="font-style:normal;font-weight:normal;font-size:3.52777767px;line-height:1.25;font-family:sans-serif;letter-spacing:0px;word-spacing:0px;fill:#00a3f2;fill-opacity:1;stroke:none;stroke-width:0.26458332"
       id="text271"
       transform="translate(4.0431923,3.6036203)">
      <g
         aria-label="FROZEN WASTELAND"
         style="font-style:normal;font-variant:normal;font-weight:bold;font-stretch:normal;font-size:3.52777767px;line-height:1.25;font-family:Consolas;-inkscape-font-specification:'Consolas Bold';text-align:start;letter-spacing:0px;word-spacing:0px;text-anchor:start;fill:#00a3f2;fill-opacity:1;stroke:none;stroke-width:0.26458332"
         id="text3885-7">
        <path
           d="m 41.150231,146.65677 q 0.119944,-0.11994 0.1905,-0.21166 0.07408,-0.0917 0.112889,-0.16934 0.04233,-0.0776 0.05292,-0.14464 0.01411,-0.0706 0.01411,-0.14816 0,-0.0952 -0.04586,-0.22931 -0.04586,-0.13405 -0.102306,-0.28575 -0.05644,-0.15169 -0.102306,-0.31044 -0.04586,-0.15875 -0.04586,-0.30339 0,-0.0776 0.0247,-0.1517 0.02822,-0.0741 0.06703,-0.14111 0.04233,-0.0705 0.09172,-0.13053 0.04939,-0.0635 0.09878,-0.11288 -0.07056,-0.0141 -0.123473,-0.0212 -0.05292,-0.0106 -0.07761,-0.0106 -0.130528,0 -0.22225,0.0705 -0.08819,0.067 -0.1905,0.16933 0,-0.11994 0.03528,-0.24694 0.03881,-0.13053 0.116417,-0.23636 0.07761,-0.10583 0.194027,-0.17286 0.119945,-0.067 0.282223,-0.067 0.112889,0 0.208139,0.0176 0.09878,0.0141 0.179916,0.0353 0.08114,0.0212 0.148167,0.0388 0.06703,0.0141 0.119944,0.0141 0.08114,0 0.141111,-0.0212 0.0635,-0.0247 0.123473,-0.0847 0,0.0776 -0.03175,0.17639 -0.02822,0.0988 -0.08819,0.1905 -0.05644,0.0882 -0.148167,0.15169 -0.09172,0.06 -0.211666,0.06 -0.05997,0 -0.137584,-0.007 -0.07408,-0.0106 -0.155222,-0.0247 -0.0071,0.0247 -0.01058,0.0459 -0.0035,0.0212 -0.0071,0.0388 -0.0035,0.0212 -0.0035,0.0388 0,0.0776 0.01058,0.15169 0.01411,0.0706 0.03881,0.14464 h 0.712611 l -0.08114,0.23989 q -0.01058,0.0459 -0.01411,0.067 -0.0035,0.0212 -0.01058,0.067 l -0.130528,-0.0917 h -0.363361 q 0.07761,0.17639 0.144639,0.35984 0.06703,0.17991 0.06703,0.38452 0,0.18345 -0.07408,0.3422 -0.07408,0.15522 -0.197556,0.27164 -0.119944,0.11641 -0.278694,0.17991 -0.155222,0.067 -0.321028,0.067 z"
           style="font-style:normal;font-variant:normal;font-weight:normal;font-stretch:normal;font-family:'Bradley Gratis';-inkscape-font-specification:'Bradley Gratis';text-align:start;text-anchor:start;fill:#00a3f2;fill-opacity:1;stroke-width:0.26458332"
           id="path20360"
           inkscape:connector-curvature="0" />
        <path
           d="m 43.22032,144.92816 q 0.07055,-0.0423 0.137583,-0.0988 0.07056,-0.0564 0.123472,-0.127 0.05645,-0.0705 0.08819,-0.16227 0.03528,-0.0952 0.03528,-0.21167 0,-0.0988 -0.03881,-0.16581 -0.03528,-0.0705 -0.08467,-0.11289 -0.04939,-0.0423 -0.09878,-0.06 -0.04586,-0.0176 -0.07056,-0.0176 -0.02822,0 -0.05292,0.0106 -0.02117,0.0106 -0.0388,0.0247 z m -0.518583,-0.94192 q -0.112889,-0.0635 -0.112889,-0.23636 0.03175,0.0318 0.112889,0.0565 0.08114,0.0212 0.172861,0.0212 0.04586,0 0.130527,-0.0106 0.08467,-0.0141 0.172862,-0.0282 0.09172,-0.0141 0.172861,-0.0247 0.08467,-0.0141 0.130527,-0.0141 0.116417,0 0.232834,0.0353 0.116416,0.0353 0.215194,0.11995 0.09878,0.0847 0.165806,0.2293 0.07056,0.14111 0.09172,0.35983 l -0.627944,0.4445 q 0.07055,0.0282 0.15875,0.0952 0.08819,0.067 0.165805,0.18698 0.08114,0.11994 0.134056,0.30691 0.05292,0.18345 0.05292,0.45156 0,0.23283 0.02117,0.37747 0.02117,0.14464 0.05292,0.23283 0.03175,0.0882 0.06703,0.13053 0.03881,0.0459 0.07056,0.0776 -0.155222,0 -0.275167,-0.0917 -0.119944,-0.0882 -0.211666,-0.23283 -0.09172,-0.14464 -0.162278,-0.32809 -0.06703,-0.18344 -0.123472,-0.37041 -0.05644,-0.18697 -0.105834,-0.35984 -0.04586,-0.17286 -0.09525,-0.29986 -0.02469,0.0176 -0.04939,0.0353 -0.02117,0.0141 -0.0388,0.0318 v 1.31939 h -0.518583 z"
           style="font-style:normal;font-variant:normal;font-weight:normal;font-stretch:normal;font-family:'Bradley Gratis';-inkscape-font-specification:'Bradley Gratis';text-align:start;text-anchor:start;fill:#00a3f2;fill-opacity:1;stroke-width:0.26458332"
           id="path20362"
           inkscape:connector-curvature="0" />
        <path
           d="m 45.108067,146.03588 q 0,0.11995 0.01411,0.18698 0.01764,0.067 0.04233,0.1023 0.02822,0.0317 0.0635,0.0388 0.03528,0.007 0.07056,0.007 0.07055,0 0.116416,-0.0952 0.04586,-0.0988 0.04586,-0.29986 v -1.53105 q 0,-0.15875 -0.01764,-0.25753 -0.01411,-0.10231 -0.04233,-0.15522 -0.02469,-0.0564 -0.05997,-0.0776 -0.03175,-0.0212 -0.0635,-0.0212 -0.06703,0 -0.119944,0.0847 -0.04939,0.0811 -0.04939,0.26106 z m 1.005416,-0.88547 q 0,0.25753 -0.06703,0.508 -0.0635,0.25047 -0.176389,0.44803 -0.109361,0.19755 -0.261056,0.32103 -0.151694,0.11994 -0.321028,0.11994 -0.15875,0 -0.310444,-0.10936 -0.148167,-0.10936 -0.264583,-0.29986 -0.112889,-0.1905 -0.183445,-0.4445 -0.07055,-0.254 -0.07055,-0.54328 0,-0.23636 0.0635,-0.4833 0.06703,-0.25048 0.179916,-0.45156 0.112889,-0.20108 0.264584,-0.32808 0.151694,-0.13053 0.321027,-0.13053 0.148167,0 0.292806,0.10936 0.148167,0.10936 0.264583,0.29986 0.119945,0.18697 0.194028,0.44097 0.07408,0.254 0.07408,0.54328 z"
           style="font-style:normal;font-variant:normal;font-weight:normal;font-stretch:normal;font-family:'Bradley Gratis';-inkscape-font-specification:'Bradley Gratis';text-align:start;text-anchor:start;fill:#00a3f2;fill-opacity:1;stroke-width:0.26458332"
           id="path20364"
           inkscape:connector-curvature="0" />
        <path
           d="m 46.267548,146.50861 q 0.04586,-0.27164 0.130528,-0.51153 0.08819,-0.23989 0.194028,-0.45861 0.105833,-0.21873 0.218722,-0.41628 0.116417,-0.20108 0.218722,-0.38806 0.102306,-0.18697 0.179917,-0.36336 0.07761,-0.17991 0.112889,-0.35983 -0.02822,-0.0176 -0.06703,-0.0318 -0.03528,-0.0141 -0.137583,-0.0141 -0.05292,0 -0.09525,0.0282 -0.03881,0.0247 -0.06703,0.0635 -0.02822,0.0353 -0.04586,0.0776 -0.01411,0.0388 -0.01411,0.0635 0,0.0282 0.01058,0.067 0.01411,0.0353 0.02822,0.0705 0.01764,0.0353 0.03528,0.067 0.01764,0.0282 0.03175,0.0423 l -0.430389,0.26811 q -0.08467,-0.0811 -0.144639,-0.19756 -0.05644,-0.11994 -0.05644,-0.23989 0,-0.06 0.03175,-0.14816 0.03175,-0.0882 0.102305,-0.16934 0.07056,-0.0847 0.183445,-0.14111 0.116416,-0.06 0.282222,-0.06 0.130528,0 0.218722,0.0176 0.08819,0.0176 0.155222,0.0423 0.06703,0.0212 0.123472,0.0388 0.05997,0.0176 0.134056,0.0176 0.04586,0 0.09878,-0.007 0.05292,-0.007 0.09878,-0.0212 0.04586,-0.0141 0.08114,-0.0282 0.03881,-0.0176 0.05997,-0.0388 -0.04233,0.22225 -0.134056,0.46213 -0.09172,0.23989 -0.204611,0.47978 -0.109361,0.23989 -0.232833,0.4692 -0.119945,0.2293 -0.22225,0.43039 -0.09878,0.19755 -0.169334,0.35983 -0.06703,0.15875 -0.07408,0.26105 0.141111,0.06 0.239889,0.06 0.0635,0 0.130528,-0.0141 0.06703,-0.0176 0.119944,-0.0529 0.05644,-0.0353 0.09172,-0.0882 0.03528,-0.0564 0.03528,-0.13405 0,-0.0776 -0.01764,-0.127 -0.01411,-0.0529 -0.03881,-0.0847 -0.0247,-0.0353 -0.05644,-0.06 -0.03175,-0.0282 -0.05997,-0.0564 l 0.405694,-0.29987 q 0.141112,0.10584 0.201084,0.22578 0.05997,0.11995 0.05997,0.26106 0,0.067 -0.02117,0.13053 -0.01764,0.06 -0.04586,0.11288 -0.02469,0.0494 -0.05997,0.0917 -0.03175,0.0423 -0.05644,0.067 l 0.05997,0.06 q 0.01764,0.0176 0.0388,0.0529 0.02117,0.0317 0.02117,0.0564 0,0.0282 -0.02469,0.0811 -0.02117,0.0564 -0.08819,0.0988 -0.02469,-0.0317 -0.05644,-0.0564 -0.02822,-0.0212 -0.05997,-0.0388 -0.03175,-0.0176 -0.06703,-0.0176 z"
           style="font-style:normal;font-variant:normal;font-weight:normal;font-stretch:normal;font-family:'Bradley Gratis';-inkscape-font-specification:'Bradley Gratis';text-align:start;text-anchor:start;fill:#00a3f2;fill-opacity:1;stroke-width:0.26458332"
           id="path20366"
           inkscape:connector-curvature="0" />
        <path
           d="m 49.773884,143.78163 v 0.381 q -0.03881,-0.0353 -0.102306,-0.0776 -0.05997,-0.0423 -0.130528,-0.0741 -0.06703,-0.0353 -0.134055,-0.0565 -0.06703,-0.0247 -0.112889,-0.0247 -0.08467,0 -0.172861,0.067 -0.08819,0.067 -0.144639,0.17991 -0.05644,0.10937 -0.07408,0.28928 -0.01411,0.17639 -0.01411,0.45509 h 0.903111 l -0.179916,0.40216 q -0.03528,-0.0529 -0.08467,-0.0705 -0.04586,-0.0212 -0.08467,-0.0212 H 48.88841 q 0,0.20108 0.0071,0.39511 0.0071,0.1905 0.04586,0.3422 0.04233,0.15169 0.127,0.24694 0.08467,0.0917 0.243417,0.0917 0.08467,0 0.165805,-0.0318 0.08467,-0.0317 0.155222,-0.0776 0.07056,-0.0494 0.123473,-0.1023 0.05644,-0.0529 0.08819,-0.0952 v 0.508 h -0.47625 q -0.342194,0 -0.553861,-0.11995 -0.211667,-0.12347 -0.331611,-0.32808 -0.116417,-0.20814 -0.15875,-0.47978 -0.03881,-0.27164 -0.03881,-0.56797 0,-0.0741 0.01058,-0.19403 0.01058,-0.12347 0.04586,-0.25753 0.03528,-0.13758 0.102305,-0.27516 0.06703,-0.14112 0.179917,-0.25048 0.116417,-0.11289 0.28575,-0.18344 0.169333,-0.0706 0.409222,-0.0706 z"
           style="font-style:normal;font-variant:normal;font-weight:normal;font-stretch:normal;font-family:'Bradley Gratis';-inkscape-font-specification:'Bradley Gratis';text-align:start;text-anchor:start;fill:#00a3f2;fill-opacity:1;stroke-width:0.26458332"
           id="path20368"
           inkscape:connector-curvature="0" />
        <path
           d="m 50.160286,146.50861 v -2.4377 q 0,-0.0988 -0.04233,-0.1658 -0.04233,-0.0706 -0.08467,-0.12348 h 0.684388 v 0.35984 l 0.391584,-0.45509 q 0.179916,0.16228 0.296333,0.32456 0.116417,0.15875 0.183445,0.32103 0.06703,0.15875 0.09172,0.32455 0.02469,0.16228 0.02469,0.33514 0,0.16933 -0.02822,0.32456 -0.02469,0.15169 -0.07408,0.29986 -0.04939,0.14816 -0.119945,0.29986 -0.06703,0.15169 -0.148166,0.3175 h 0.127 q 0.04586,0 0.09525,-0.0317 0.04939,-0.0318 0.09878,-0.0318 v 0.33867 h -0.684389 q 0.09525,-0.19403 0.151695,-0.34925 0.05997,-0.15523 0.09172,-0.29634 0.03175,-0.14111 0.04233,-0.27516 0.01058,-0.13406 0.01058,-0.28575 0,-0.1517 -0.05292,-0.31398 -0.04939,-0.1658 -0.123472,-0.30339 -0.07408,-0.13758 -0.15875,-0.22577 -0.08114,-0.0882 -0.148167,-0.0882 -0.04233,0 -0.06703,0.0212 v 2.11667 z"
           style="font-style:normal;font-variant:normal;font-weight:normal;font-stretch:normal;font-family:'Bradley Gratis';-inkscape-font-specification:'Bradley Gratis';text-align:start;text-anchor:start;fill:#00a3f2;fill-opacity:1;stroke-width:0.26458332"
           id="path20370"
           inkscape:connector-curvature="0" />
        <path
           d="m 53.398455,146.62502 q -0.1905,-0.13758 -0.324556,-0.2928 -0.134055,-0.15875 -0.215194,-0.32809 -0.08114,-0.16933 -0.119945,-0.34219 -0.03528,-0.17639 -0.03528,-0.34572 0,-0.16581 0.03528,-0.32809 0.03528,-0.1658 0.09172,-0.32455 0.05997,-0.16228 0.137584,-0.31397 0.07761,-0.15523 0.15875,-0.30339 h -0.02117 q -0.01058,0 -0.02469,0 -0.01058,-0.004 -0.02822,-0.004 -0.05644,0 -0.137583,0.0141 -0.07761,0.0141 -0.151694,0.0706 v -0.34573 h 0.740833 q -0.09172,0.15875 -0.15875,0.32103 -0.0635,0.15875 -0.105833,0.31045 -0.03881,0.14816 -0.05997,0.28222 -0.01764,0.13053 -0.01764,0.23636 0,0.10583 0.02117,0.254 0.02117,0.14817 0.07761,0.30692 0.05997,0.15522 0.15875,0.29633 0.102306,0.14111 0.264584,0.2293 l 0.105833,-0.0776 q -0.0635,-0.11994 -0.09878,-0.2293 -0.03528,-0.11289 -0.05292,-0.21167 -0.01411,-0.0988 -0.01764,-0.17992 -0.0035,-0.0847 -0.0035,-0.15169 0,-0.10936 0.02822,-0.24694 0.02822,-0.13759 0.08114,-0.28575 0.05292,-0.14817 0.127,-0.29987 0.07761,-0.15169 0.172861,-0.29633 -0.134055,0 -0.22225,0.0212 -0.08467,0.0212 -0.144639,0.06 v -0.33867 h 0.762 q -0.0635,0.0882 -0.127,0.20109 -0.05997,0.10936 -0.105833,0.23989 -0.04586,0.127 -0.07408,0.27163 -0.02822,0.14464 -0.02822,0.29634 0,0.25753 0.04586,0.45861 0.04586,0.19755 0.127,0.34925 0.08114,0.15169 0.1905,0.26105 0.109362,0.10937 0.232834,0.18698 v -2.26484 h 0.529166 v 2.1202 q 0,0.0247 -0.03528,0.0705 -0.03528,0.0423 -0.09172,0.0988 -0.05292,0.0565 -0.127,0.12347 -0.07055,0.0635 -0.144638,0.127 -0.176389,0.14817 -0.398639,0.32456 -0.172861,-0.13406 -0.296334,-0.26458 -0.123472,-0.13053 -0.211666,-0.254 z"
           style="font-style:normal;font-variant:normal;font-weight:normal;font-stretch:normal;font-family:'Bradley Gratis';-inkscape-font-specification:'Bradley Gratis';text-align:start;text-anchor:start;fill:#00a3f2;fill-opacity:1;stroke-width:0.26458332"
           id="path20372"
           inkscape:connector-curvature="0" />
        <path
           d="m 56.650514,144.81174 v -0.87841 h -0.416278 q -0.0035,0.23636 -0.01411,0.46919 -0.0071,0.22931 -0.01764,0.40922 z m 0.719667,-1.03011 q -0.03881,0.0282 -0.07408,0.0706 -0.03175,0.0423 -0.05645,0.0917 -0.02117,0.0459 -0.03528,0.0917 -0.01411,0.0423 -0.01411,0.0741 v 2.39889 h -0.53975 v -1.32998 h -0.472722 q -0.0035,0.127 -0.03528,0.2787 -0.03175,0.14816 -0.08819,0.29986 -0.05292,0.14817 -0.127,0.28928 -0.07056,0.13758 -0.162278,0.24341 -0.08819,0.10584 -0.1905,0.16934 -0.09878,0.0635 -0.208139,0.0635 -0.07055,0 -0.123472,-0.0423 -0.04939,-0.0423 -0.04939,-0.11994 0,-0.0494 0.03175,-0.0706 0.03175,-0.0247 0.06703,-0.0247 0.03175,0 0.04939,0.0106 0.01764,0.007 0.03175,0.0212 0.01764,0.0106 0.03881,0.0212 0.02117,0.007 0.05997,0.007 0.0635,0 0.102305,-0.0635 0.03881,-0.067 0.0635,-0.17639 0.0247,-0.11289 0.03528,-0.25753 0.01411,-0.14816 0.02117,-0.31044 0.0071,-0.16228 0.01764,-0.32808 0.01058,-0.16934 0.02822,-0.32456 0.02117,-0.18344 0.0635,-0.33514 0.04586,-0.15169 0.09525,-0.26811 0.04939,-0.11642 0.09878,-0.19755 0.04939,-0.0811 0.08467,-0.13053 h -0.07761 q -0.06703,0 -0.123472,0.0212 -0.05644,0.0176 -0.102306,0.0423 -0.04233,0.0212 -0.07761,0.0423 -0.03175,0.0176 -0.05644,0.0176 -0.05997,0 -0.08819,-0.0423 -0.02822,-0.0423 -0.02822,-0.0952 0,-0.0494 0.05292,-0.0917 0.05644,-0.0459 0.155222,-0.0459 z"
           style="font-style:normal;font-variant:normal;font-weight:normal;font-stretch:normal;font-family:'Bradley Gratis';-inkscape-font-specification:'Bradley Gratis';text-align:start;text-anchor:start;fill:#00a3f2;fill-opacity:1;stroke-width:0.26458332"
           id="path20374"
           inkscape:connector-curvature="0" />
        <path
           d="m 58.150372,146.63208 q -0.08114,-0.0811 -0.186973,-0.15875 -0.102305,-0.0776 -0.201083,-0.13759 -0.09525,-0.06 -0.169333,-0.1023 -0.07056,-0.0423 -0.08114,-0.0529 0.03528,-0.0423 0.08819,-0.11641 0.05292,-0.0776 0.102306,-0.1517 0.05292,-0.0741 0.09172,-0.13053 0.04233,-0.06 0.05292,-0.0705 0.04939,0.0317 0.134055,0.0882 0.08819,0.0529 0.172861,0.11289 0.08819,0.06 0.15875,0.10936 0.07056,0.0494 0.09172,0.0706 0.04939,-0.0282 0.08114,-0.0741 0.03528,-0.0459 0.03528,-0.14816 0,-0.0882 -0.07408,-0.18697 -0.07056,-0.0988 -0.176389,-0.20814 -0.105833,-0.10936 -0.232833,-0.22931 -0.127,-0.11994 -0.232834,-0.24694 -0.105833,-0.127 -0.179916,-0.25753 -0.07056,-0.13053 -0.07056,-0.26811 0,-0.0988 0.04939,-0.18345 0.05292,-0.0882 0.130528,-0.16227 0.07761,-0.0776 0.169333,-0.13759 0.09525,-0.0635 0.179917,-0.11641 0.08819,-0.0564 0.155222,-0.0988 0.06703,-0.0459 0.09525,-0.0811 0.02117,0.0176 0.09172,0.0882 0.07408,0.067 0.15875,0.14464 0.08467,0.0776 0.15875,0.13759 0.07761,0.06 0.102306,0.06 -0.03528,0.0282 -0.08819,0.0847 -0.04939,0.0529 -0.102305,0.11289 -0.04939,0.06 -0.09172,0.11642 -0.03881,0.0529 -0.05644,0.0811 -0.08114,-0.0353 -0.162278,-0.10583 -0.08114,-0.0706 -0.148166,-0.13759 -0.06703,-0.067 -0.112889,-0.11641 -0.04586,-0.0529 -0.05997,-0.0529 -0.02822,0 -0.04939,0.0317 -0.01764,0.0282 -0.01764,0.067 0,0.0847 0.07408,0.17991 0.07761,0.0952 0.186972,0.20461 0.112889,0.10584 0.243417,0.22578 0.134056,0.11642 0.243417,0.24342 0.112889,0.127 0.186972,0.26458 0.07761,0.13406 0.07761,0.27517 0,0.127 -0.09525,0.26811 -0.09525,0.14111 -0.229306,0.28222 -0.130527,0.13759 -0.268111,0.26459 -0.137583,0.12347 -0.225777,0.21872 z"
           style="font-style:normal;font-variant:normal;font-weight:normal;font-stretch:normal;font-family:'Bradley Gratis';-inkscape-font-specification:'Bradley Gratis';text-align:start;text-anchor:start;fill:#00a3f2;fill-opacity:1;stroke-width:0.26458332"
           id="path20376"
           inkscape:connector-curvature="0" />
        <path
           d="m 60.635359,146.03236 q 0,0.13758 -0.05644,0.23988 -0.05644,0.0988 -0.148167,0.16228 -0.08819,0.0635 -0.197555,0.0953 -0.109361,0.0317 -0.215195,0.0317 -0.165805,0 -0.324555,-0.0811 -0.15875,-0.0811 -0.28575,-0.21872 -0.127,-0.14111 -0.204611,-0.32808 -0.07761,-0.1905 -0.07761,-0.40922 0,-0.39159 0.179916,-0.72673 0.179917,-0.33866 0.500945,-0.61383 -0.02822,-0.004 -0.05292,-0.004 -0.02117,-0.004 -0.04586,-0.004 -0.08467,0 -0.179917,0.0282 -0.09525,0.0282 -0.179916,0.0741 -0.08467,0.0423 -0.155223,0.0952 -0.06703,0.0529 -0.102305,0.0988 0.02822,-0.13759 0.105833,-0.27164 0.07761,-0.13406 0.194028,-0.23636 0.116417,-0.10231 0.268111,-0.16581 0.151694,-0.0635 0.331611,-0.0635 0.09172,0 0.194028,0.0282 0.102305,0.0282 0.194028,0.0741 0.09525,0.0423 0.169333,0.0953 0.07408,0.0529 0.112889,0.1023 l -0.289278,0.44098 q -0.176389,-0.17287 -0.381,-0.24695 -0.04586,0.0741 -0.09525,0.17639 -0.04939,0.0988 -0.09172,0.22578 -0.03881,0.127 -0.06703,0.28222 -0.02469,0.15169 -0.02469,0.33161 0,0.16933 0.02469,0.29986 0.02822,0.13053 0.07056,0.22578 0.04233,0.0952 0.09525,0.15875 0.05644,0.0635 0.112889,0.10583 0.134055,0.0953 0.306916,0.10584 0.07056,0 0.162278,-0.0282 0.09525,-0.0318 0.151694,-0.0811 z"
           style="font-style:normal;font-variant:normal;font-weight:normal;font-stretch:normal;font-family:'Bradley Gratis';-inkscape-font-specification:'Bradley Gratis';text-align:start;text-anchor:start;fill:#00a3f2;fill-opacity:1;stroke-width:0.26458332"
           id="path20378"
           inkscape:connector-curvature="0" />
        <path
           d="m 62.403604,143.78163 v 0.381 q -0.03881,-0.0353 -0.102306,-0.0776 -0.05997,-0.0423 -0.130528,-0.0741 -0.06703,-0.0353 -0.134055,-0.0565 -0.06703,-0.0247 -0.112889,-0.0247 -0.08467,0 -0.172861,0.067 -0.08819,0.067 -0.144639,0.17991 -0.05644,0.10937 -0.07408,0.28928 -0.01411,0.17639 -0.01411,0.45509 h 0.903111 l -0.179917,0.40216 q -0.03528,-0.0529 -0.08467,-0.0705 -0.04586,-0.0212 -0.08467,-0.0212 h -0.553861 q 0,0.20108 0.0071,0.39511 0.0071,0.1905 0.04586,0.3422 0.04233,0.15169 0.127,0.24694 0.08467,0.0917 0.243417,0.0917 0.08467,0 0.165805,-0.0318 0.08467,-0.0317 0.155223,-0.0776 0.07055,-0.0494 0.123472,-0.1023 0.05644,-0.0529 0.08819,-0.0952 v 0.508 h -0.47625 q -0.342194,0 -0.553861,-0.11995 -0.211666,-0.12347 -0.331611,-0.32808 -0.116417,-0.20814 -0.15875,-0.47978 -0.03881,-0.27164 -0.03881,-0.56797 0,-0.0741 0.01058,-0.19403 0.01058,-0.12347 0.04586,-0.25753 0.03528,-0.13758 0.102306,-0.27516 0.06703,-0.14112 0.179916,-0.25048 0.116417,-0.11289 0.28575,-0.18344 0.169334,-0.0706 0.409222,-0.0706 z"
           style="font-style:normal;font-variant:normal;font-weight:normal;font-stretch:normal;font-family:'Bradley Gratis';-inkscape-font-specification:'Bradley Gratis';text-align:start;text-anchor:start;fill:#00a3f2;fill-opacity:1;stroke-width:0.26458332"
           id="path20380"
           inkscape:connector-curvature="0" />
        <path
           d="m 63.682533,144.47661 q -0.08819,-0.21167 -0.151694,-0.35278 -0.0635,-0.14111 -0.09878,-0.14111 -0.03881,0 -0.05292,0.0353 -0.01058,0.0318 -0.01058,0.0565 v 1.91205 q 0,0.0776 -0.04233,0.16228 -0.04233,0.0847 -0.112888,0.14817 0.130527,0 0.232833,-0.0635 0.102305,-0.067 0.211667,-0.14464 0.112888,-0.0811 0.250472,-0.14464 0.137583,-0.067 0.342194,-0.067 v 0.63148 H 62.65595 q 0.04586,-0.067 0.07761,-0.127 0.03528,-0.06 0.05644,-0.11995 0.02117,-0.06 0.03175,-0.127 0.01058,-0.067 0.01058,-0.14817 v -1.66863 q 0,-0.11289 -0.04233,-0.18345 -0.04233,-0.0741 -0.05997,-0.1023 0.01411,-0.004 0.07056,-0.0247 0.05997,-0.0247 0.144639,-0.0564 0.08467,-0.0318 0.186972,-0.067 0.102305,-0.0353 0.201083,-0.0635 0.09878,-0.0317 0.186972,-0.0494 0.08819,-0.0212 0.144639,-0.0212 0.0882,0 0.165806,0.0494 0.07761,0.0494 0.141111,0.12347 0.0635,0.0741 0.109361,0.16581 0.04586,0.0882 0.07408,0.16581 z"
           style="font-style:normal;font-variant:normal;font-weight:normal;font-stretch:normal;font-family:'Bradley Gratis';-inkscape-font-specification:'Bradley Gratis';text-align:start;text-anchor:start;fill:#00a3f2;fill-opacity:1;stroke-width:0.26458332"
           id="path20382"
           inkscape:connector-curvature="0" />
        <path
           d="m 65.8627,144.81174 v -0.87841 h -0.416278 q -0.0035,0.23636 -0.01411,0.46919 -0.0071,0.22931 -0.01764,0.40922 z m 0.719667,-1.03011 q -0.03881,0.0282 -0.07408,0.0706 -0.03175,0.0423 -0.05644,0.0917 -0.02117,0.0459 -0.03528,0.0917 -0.01411,0.0423 -0.01411,0.0741 v 2.39889 H 65.8627 v -1.32998 h -0.472722 q -0.0035,0.127 -0.03528,0.2787 -0.03175,0.14816 -0.08819,0.29986 -0.05292,0.14817 -0.127,0.28928 -0.07056,0.13758 -0.162278,0.24341 -0.08819,0.10584 -0.1905,0.16934 -0.09878,0.0635 -0.208139,0.0635 -0.07056,0 -0.123472,-0.0423 -0.04939,-0.0423 -0.04939,-0.11994 0,-0.0494 0.03175,-0.0706 0.03175,-0.0247 0.06703,-0.0247 0.03175,0 0.04939,0.0106 0.01764,0.007 0.03175,0.0212 0.01764,0.0106 0.0388,0.0212 0.02117,0.007 0.05997,0.007 0.0635,0 0.102306,-0.0635 0.0388,-0.067 0.0635,-0.17639 0.02469,-0.11289 0.03528,-0.25753 0.01411,-0.14816 0.02117,-0.31044 0.0071,-0.16228 0.01764,-0.32808 0.01058,-0.16934 0.02822,-0.32456 0.02117,-0.18344 0.0635,-0.33514 0.04586,-0.15169 0.09525,-0.26811 0.04939,-0.11642 0.09878,-0.19755 0.04939,-0.0811 0.08467,-0.13053 h -0.07761 q -0.06703,0 -0.123472,0.0212 -0.05644,0.0176 -0.102306,0.0423 -0.04233,0.0212 -0.07761,0.0423 -0.03175,0.0176 -0.05645,0.0176 -0.05997,0 -0.08819,-0.0423 -0.02822,-0.0423 -0.02822,-0.0952 0,-0.0494 0.05292,-0.0917 0.05644,-0.0459 0.155223,-0.0459 z"
           style="font-style:normal;font-variant:normal;font-weight:normal;font-stretch:normal;font-family:'Bradley Gratis';-inkscape-font-specification:'Bradley Gratis';text-align:start;text-anchor:start;fill:#00a3f2;fill-opacity:1;stroke-width:0.26458332"
           id="path20384"
           inkscape:connector-curvature="0" />
        <path
           d="m 66.882779,146.50861 v -2.4377 q 0,-0.0988 -0.04233,-0.1658 -0.04233,-0.0706 -0.08467,-0.12348 h 0.684389 v 0.35984 l 0.391583,-0.45509 q 0.179917,0.16228 0.296333,0.32456 0.116417,0.15875 0.183445,0.32103 0.06703,0.15875 0.09172,0.32455 0.02469,0.16228 0.02469,0.33514 0,0.16933 -0.02822,0.32456 -0.02469,0.15169 -0.07408,0.29986 -0.04939,0.14816 -0.119945,0.29986 -0.06703,0.15169 -0.148166,0.3175 h 0.127 q 0.04586,0 0.09525,-0.0317 0.04939,-0.0318 0.09878,-0.0318 v 0.33867 H 67.69417 q 0.09525,-0.19403 0.151694,-0.34925 0.05997,-0.15523 0.09172,-0.29634 0.03175,-0.14111 0.04233,-0.27516 0.01058,-0.13406 0.01058,-0.28575 0,-0.1517 -0.05292,-0.31398 -0.04939,-0.1658 -0.123472,-0.30339 -0.07408,-0.13758 -0.15875,-0.22577 -0.08114,-0.0882 -0.148167,-0.0882 -0.04233,0 -0.06703,0.0212 v 2.11667 z"
           style="font-style:normal;font-variant:normal;font-weight:normal;font-stretch:normal;font-family:'Bradley Gratis';-inkscape-font-specification:'Bradley Gratis';text-align:start;text-anchor:start;fill:#00a3f2;fill-opacity:1;stroke-width:0.26458332"
           id="path20386"
           inkscape:connector-curvature="0" />
        <path
           d="m 68.771683,144.02858 q -0.09172,-0.0388 -0.127,-0.0952 -0.03528,-0.0565 -0.03528,-0.10584 0,-0.0423 0.02822,-0.0529 0.02822,0.0176 0.07761,0.0247 0.04939,0.007 0.112888,0.007 0.03175,0 0.08819,-0.0106 0.05997,-0.0106 0.130528,-0.0212 0.07055,-0.0106 0.144639,-0.0212 0.07761,-0.0106 0.144638,-0.0106 0.162278,0 0.331612,0.0847 0.169333,0.0811 0.303388,0.254 0.134056,0.16934 0.218723,0.43392 0.08819,0.26106 0.08819,0.62442 0,0.30691 -0.05292,0.52916 -0.05292,0.22225 -0.134055,0.37748 -0.08114,0.15522 -0.179917,0.25047 -0.09878,0.0917 -0.194028,0.14464 -0.09172,0.0494 -0.169333,0.067 -0.07408,0.0176 -0.109361,0.0176 -0.05292,0 -0.112889,-0.0141 -0.05997,-0.0141 -0.119944,-0.0318 -0.05645,-0.0176 -0.109361,-0.0317 -0.04939,-0.0141 -0.08467,-0.0141 -0.03881,0 -0.07056,0.0141 -0.03175,0.0106 -0.06703,0.0247 -0.03175,0.0106 -0.07056,0.0247 -0.03881,0.0106 -0.08819,0.0106 -0.01764,0 -0.03881,-0.004 -0.01764,-0.004 -0.03528,-0.0106 -0.01764,-0.007 -0.03528,-0.0176 0.02822,-0.0176 0.05644,-0.06 0.02822,-0.0459 0.05292,-0.0952 0.02822,-0.0529 0.05644,-0.11641 z m 0.518583,2.10255 q 0,0.0741 0.02469,0.11642 0.02822,0.0388 0.05997,0.0564 0.03881,0.0212 0.08467,0.0247 0.08114,0 0.141111,-0.10936 0.0635,-0.10936 0.0635,-0.2787 v -1.54869 q 0,-0.16581 -0.03175,-0.25753 -0.03175,-0.0917 -0.07408,-0.13405 -0.04233,-0.0423 -0.08467,-0.0494 -0.04233,-0.0106 -0.06703,-0.0106 -0.04233,0 -0.08114,0.0564 -0.03528,0.0564 -0.03528,0.14816 z"
           style="font-style:normal;font-variant:normal;font-weight:normal;font-stretch:normal;font-family:'Bradley Gratis';-inkscape-font-specification:'Bradley Gratis';text-align:start;text-anchor:start;fill:#00a3f2;fill-opacity:1;stroke-width:0.26458332"
           id="path20388"
           inkscape:connector-curvature="0" />
      </g>
    </g>
    <g
       style="font-style:normal;font-weight:normal;font-size:3.52777767px;line-height:1.25;font-family:sans-serif;letter-spacing:0px;word-spacing:0px;fill:#e0e0ff;fill-opacity:1;stroke:none;stroke-width:0.26458332"
       id="text5097" />
    <path
       style="fill:#999999;fill-opacity:1;stroke-width:0.2581985"
       d="M 46.787982,58.789525 H 72.38642 V 70.563483 H 46.787982 Z"
       id="rect6948"
       inkscape:connector-curvature="0" />
    <path
       style="fill:#323232;fill-opacity:1;stroke-width:0.23209724"
       d="m 47.714018,59.715566 h 23.746354 v 9.988021 H 47.714018 Z"
       id="rect4735"
       inkscape:connector-curvature="0" />
    <path
       style="fill:#323232;fill-opacity:1;stroke-width:0.24152298"
       d="M 82.83747,101.78432 A 10.31875,10.31875 0 0 1 72.51872,112.10307 10.31875,10.31875 0 0 1 62.199969,101.78432 10.31875,10.31875 0 0 1 72.51872,91.465567 10.31875,10.31875 0 0 1 82.83747,101.78432 Z"
       id="path6731"
       inkscape:connector-curvature="0" />
    <g
       aria-label="PHASE"
       style="font-style:normal;font-variant:normal;font-weight:bold;font-stretch:normal;font-size:3.52777767px;line-height:1.25;font-family:Homenaje;-inkscape-font-specification:'Homenaje Bold';letter-spacing:0px;word-spacing:0px;fill:#ffffff;fill-opacity:1;stroke:none;stroke-width:0.26458332"
       id="text5443-7-3">
      <path
         d="m 55.505823,90.901354 v 0.733778 h 0.180622 q 0.160867,0 0.248356,-0.110066 0.09031,-0.110067 0.09031,-0.285045 0,-0.338667 -0.338667,-0.338667 z m 0.767644,0.338667 q 0,0.273756 -0.149578,0.428978 -0.146755,0.1524 -0.420511,0.1524 h -0.197555 v 0.869244 h -0.248356 v -1.975555 h 0.499534 q 0.516466,0 0.516466,0.524933 z"
         style="font-style:normal;font-variant:normal;font-weight:bold;font-stretch:normal;font-size:2.82222223px;font-family:Homenaje;-inkscape-font-specification:'Homenaje Bold';stroke-width:0.26458332"
         id="path10905" />
      <path
         d="m 57.346264,91.736732 h -0.561622 v 0.953911 h -0.248355 v -1.975555 h 0.248355 v 0.835378 h 0.561622 v -0.835378 h 0.248356 v 1.975555 h -0.248356 z"
         style="font-style:normal;font-variant:normal;font-weight:bold;font-stretch:normal;font-size:2.82222223px;font-family:Homenaje;-inkscape-font-specification:'Homenaje Bold';stroke-width:0.26458332"
         id="path10907" />
      <path
         d="m 58.304365,90.715088 h 0.375355 l 0.428978,1.975555 h -0.231422 l -0.138289,-0.581377 h -0.513645 l -0.127,0.581377 h -0.239888 z m 0.392289,1.202266 -0.2032,-1.016 h -0.01976 l -0.206022,1.016 z"
         style="font-style:normal;font-variant:normal;font-weight:bold;font-stretch:normal;font-size:2.82222223px;font-family:Homenaje;-inkscape-font-specification:'Homenaje Bold';stroke-width:0.26458332"
         id="path10909" />
      <path
         d="m 59.643289,92.504377 q 0.160866,0 0.231422,-0.09596 0.07338,-0.09596 0.07338,-0.222955 0,-0.127 -0.04798,-0.214489 -0.04516,-0.09031 -0.115711,-0.141111 -0.07056,-0.05362 -0.1524,-0.115712 -0.08185,-0.06209 -0.1524,-0.118533 -0.07056,-0.05927 -0.118534,-0.158044 -0.04516,-0.09878 -0.04516,-0.225778 0,-0.225778 0.135466,-0.361245 0.135467,-0.135466 0.375356,-0.135466 h 0.2286 v 0.186266 h -0.217311 q -0.135467,0 -0.206022,0.08749 -0.07056,0.08749 -0.07056,0.189089 0,0.1016 0.04516,0.174978 0.04798,0.07338 0.118533,0.121356 0.07056,0.04798 0.1524,0.112888 0.08467,0.06491 0.155222,0.132645 0.07056,0.06491 0.115711,0.1778 0.04798,0.112889 0.04798,0.256822 0,0.265289 -0.1524,0.400756 -0.149578,0.135466 -0.412044,0.135466 h -0.296334 v -0.186266 z"
         style="font-style:normal;font-variant:normal;font-weight:bold;font-stretch:normal;font-size:2.82222223px;font-family:Homenaje;-inkscape-font-specification:'Homenaje Bold';stroke-width:0.26458332"
         id="path10911" />
      <path
         d="m 60.471964,92.690643 v -1.975555 h 0.860778 v 0.191911 h -0.612423 v 0.632178 h 0.496712 v 0.191911 h -0.496712 v 0.767644 h 0.640645 v 0.191911 z"
         style="font-style:normal;font-variant:normal;font-weight:bold;font-stretch:normal;font-size:2.82222223px;font-family:Homenaje;-inkscape-font-specification:'Homenaje Bold';stroke-width:0.26458332"
         id="path10913" />
    </g>
    <g
       aria-label="90°"
       style="font-style:normal;font-variant:normal;font-weight:bold;font-stretch:normal;font-size:3.52777767px;line-height:1.25;font-family:Homenaje;-inkscape-font-specification:'Homenaje Bold';letter-spacing:0px;word-spacing:0px;fill:#ffffff;fill-opacity:1;stroke:none;stroke-width:0.26458332"
       id="text5443-0-4-9-8">
      <path
         d="m 51.642025,98.31165 v -0.338666 h -0.28575 q -0.277283,0 -0.277283,-0.28575 v -0.31115 q 0,-0.13335 0.110066,-0.205317 0.110067,-0.07197 0.262467,-0.07197 0.154517,0 0.264583,0.07408 0.110067,0.07197 0.110067,0.205316 v 0.95885 q 0,0.12065 -0.09313,0.1905 -0.09102,0.06773 -0.2667,0.06773 h -0.281517 v -0.1397 h 0.2794 q 0.1778,0 0.1778,-0.143934 z m -0.376767,-0.944033 v 0.3048 q 0,0.08467 0.02752,0.122767 0.02752,0.03598 0.1143,0.03598 h 0.23495 v -0.461433 q 0,-0.06985 -0.05503,-0.09948 -0.05292,-0.03175 -0.131234,-0.03175 -0.0762,0 -0.13335,0.02963 -0.05715,0.02963 -0.05715,0.09948 z"
         style="font-style:normal;font-variant:normal;font-weight:bold;font-stretch:normal;font-size:2.11666656px;font-family:Homenaje;-inkscape-font-specification:'Homenaje Bold';stroke-width:0.26458332"
         id="path10916" />
      <path
         d="m 52.792565,97.3401 v 1.007534 q 0,0.127 -0.09948,0.194733 -0.09737,0.06773 -0.254,0.06773 -0.156633,0 -0.256117,-0.06773 -0.09737,-0.06773 -0.09737,-0.194733 V 97.3401 q 0,-0.124883 0.09525,-0.182033 0.09737,-0.05927 0.258233,-0.05927 0.160867,0 0.256117,0.05927 0.09737,0.05715 0.09737,0.182033 z m -0.5207,0.03598 v 0.9652 q 0,0.124883 0.167217,0.124883 0.167217,0 0.167217,-0.124883 v -0.9652 q 0,-0.129117 -0.167217,-0.129117 -0.167217,0 -0.167217,0.129117 z"
         style="font-style:normal;font-variant:normal;font-weight:bold;font-stretch:normal;font-size:2.11666656px;font-family:Homenaje;-inkscape-font-specification:'Homenaje Bold';stroke-width:0.26458332"
         id="path10918" />
      <path
         d="m 53.590813,97.6322 q 0,0.0762 -0.06985,0.118534 -0.06773,0.04022 -0.162983,0.04022 -0.09525,0 -0.1651,-0.04022 -0.06773,-0.04233 -0.06773,-0.118534 v -0.38735 q 0,-0.07408 0.06562,-0.110066 0.06773,-0.03598 0.167217,-0.03598 0.09948,0 0.1651,0.03598 0.06773,0.03598 0.06773,0.110066 z M 53.23733,97.266017 v 0.359833 q 0,0.07408 0.12065,0.07408 0.12065,0 0.12065,-0.07408 v -0.359833 q 0,-0.0762 -0.12065,-0.0762 -0.12065,0 -0.12065,0.0762 z"
         style="font-style:normal;font-variant:normal;font-weight:bold;font-stretch:normal;font-size:2.11666656px;font-family:Homenaje;-inkscape-font-specification:'Homenaje Bold';stroke-width:0.26458332"
         id="path10920" />
    </g>
    <path
       style="fill:none;stroke:#ffffff;stroke-width:0.1322917;stroke-linecap:butt;stroke-linejoin:miter;stroke-miterlimit:4;stroke-dasharray:none;stroke-opacity:1"
       d="m 72.164429,133.78308 h 0.760677 v -1.02526 h 0.628385 v 1.0418 h 0.396875"
       id="path872"
       inkscape:connector-curvature="0" />
    <path
       style="fill:none;stroke:#ffffff;stroke-width:0.1322917;stroke-linecap:butt;stroke-linejoin:miter;stroke-miterlimit:4;stroke-dasharray:none;stroke-opacity:1"
       d="m 54.208977,133.96538 0.529167,-0.95911 0.578776,0.89297"
       id="path870"
       inkscape:connector-curvature="0"
       sodipodi:nodetypes="ccc" />
    <g
       id="g346"
       transform="matrix(0.12402883,0,0,0.12402883,43.885782,128.72197)"
       style="stroke:#ffffff;stroke-width:1.06662023;stroke-miterlimit:4;stroke-dasharray:none;stroke-opacity:1">
      <!-- <text font-size="6pt" letter-spacing="2px" transform="translate(6.5 40)">SIN</text> -->
      <g
         id="g344"
         transform="translate(9,33.5)"
         style="stroke:#ffffff;stroke-width:1.06662023;stroke-miterlimit:4;stroke-dasharray:none;stroke-opacity:1">
        <!-- <rect width="12" height="8" fill="none" stroke-width="1" stroke="#0f0" /> -->
        <path
           style="fill:none;stroke:#ffffff;stroke-width:1.06662023;stroke-miterlimit:4;stroke-dasharray:none;stroke-opacity:1"
           inkscape:connector-curvature="0"
           id="path340"
           d="M 0,4 A 3,4.5 0 0 1 6,4" />
        <path
           style="fill:none;stroke:#ffffff;stroke-width:1.06662023;stroke-miterlimit:4;stroke-dasharray:none;stroke-opacity:1"
           inkscape:connector-curvature="0"
           id="path342"
           d="m 6,4 a 3,4.5 0 0 0 6,0" />
      </g>
    </g>
    <g
       transform="matrix(0.12417689,0,0,0.12417689,62.330576,128.78895)"
       id="g318"
       style="stroke:#ffffff;stroke-width:1.06534851;stroke-miterlimit:4;stroke-dasharray:none;stroke-opacity:1">
      <g
         transform="translate(9,33.5)"
         id="g316"
         style="stroke:#ffffff;stroke-width:1.06534851;stroke-miterlimit:4;stroke-dasharray:none;stroke-opacity:1">
        <path
           inkscape:connector-curvature="0"
           id="polyline314"
           d="M 0,8 12,0 v 8"
           style="fill:none;stroke:#ffffff;stroke-width:1.06534851;stroke-miterlimit:4;stroke-dasharray:none;stroke-opacity:1" />
      </g>
    </g>
    <g
       aria-label="RESET"
       style="font-style:normal;font-variant:normal;font-weight:bold;font-stretch:normal;font-size:3.52777767px;line-height:1.25;font-family:Homenaje;-inkscape-font-specification:'Homenaje Bold';letter-spacing:0px;word-spacing:0px;fill:#ffffff;fill-opacity:1;stroke:none;stroke-width:0.26458332"
       id="text4978">
      <path
         d="m 57.110258,119.75005 v 0.7366 h 0.200378 q 0.160866,0 0.248355,-0.11007 0.09031,-0.11289 0.09031,-0.28787 0,-0.33866 -0.338666,-0.33866 z m -0.0056,0.92286 v 0.86643 h -0.242711 v -1.97556 h 0.522111 q 0.508,0 0.508,0.52493 0,0.19756 -0.0762,0.34432 -0.0762,0.14675 -0.217311,0.2032 l 0.392289,0.90311 H 57.74808 l -0.383822,-0.86643 z"
         style="font-style:normal;font-variant:normal;font-weight:bold;font-stretch:normal;font-size:2.82222223px;font-family:Homenaje;-inkscape-font-specification:'Homenaje Bold';stroke-width:0.26458332"
         id="path10923" />
      <path
         d="m 58.250965,121.53934 v -1.97556 h 0.860778 v 0.19191 H 58.49932 v 0.63218 h 0.496711 v 0.19191 H 58.49932 v 0.76765 h 0.640645 v 0.19191 z"
         style="font-style:normal;font-variant:normal;font-weight:bold;font-stretch:normal;font-size:2.82222223px;font-family:Homenaje;-inkscape-font-specification:'Homenaje Bold';stroke-width:0.26458332"
         id="path10925" />
      <path
         d="m 59.731882,121.35307 q 0.160866,0 0.231422,-0.096 0.07338,-0.096 0.07338,-0.22295 0,-0.127 -0.04798,-0.21449 -0.04516,-0.0903 -0.115711,-0.14111 -0.07056,-0.0536 -0.1524,-0.11571 -0.08185,-0.0621 -0.1524,-0.11854 -0.07056,-0.0593 -0.118534,-0.15804 -0.04515,-0.0988 -0.04515,-0.22578 0,-0.22578 0.135466,-0.36124 0.135467,-0.13547 0.375356,-0.13547 h 0.2286 v 0.18627 h -0.217311 q -0.135467,0 -0.206022,0.0875 -0.07056,0.0875 -0.07056,0.18909 0,0.1016 0.04516,0.17497 0.04798,0.0734 0.118533,0.12136 0.07056,0.048 0.1524,0.11289 0.08467,0.0649 0.155222,0.13264 0.07056,0.0649 0.115711,0.1778 0.04798,0.11289 0.04798,0.25682 0,0.26529 -0.1524,0.40076 -0.149578,0.13547 -0.412044,0.13547 h -0.296334 v -0.18627 z"
         style="font-style:normal;font-variant:normal;font-weight:bold;font-stretch:normal;font-size:2.82222223px;font-family:Homenaje;-inkscape-font-specification:'Homenaje Bold';stroke-width:0.26458332"
         id="path10927" />
      <path
         d="m 60.560557,121.53934 v -1.97556 h 0.860778 v 0.19191 h -0.612423 v 0.63218 h 0.496712 v 0.19191 h -0.496712 v 0.76765 h 0.640645 v 0.19191 z"
         style="font-style:normal;font-variant:normal;font-weight:bold;font-stretch:normal;font-size:2.82222223px;font-family:Homenaje;-inkscape-font-specification:'Homenaje Bold';stroke-width:0.26458332"
         id="path10929" />
      <path
         d="m 62.013252,121.53934 v -1.78929 H 61.61814 v -0.18627 h 1.038578 v 0.18627 h -0.395111 v 1.78929 z"
         style="font-style:normal;font-variant:normal;font-weight:bold;font-stretch:normal;font-size:2.82222223px;font-family:Homenaje;-inkscape-font-specification:'Homenaje Bold';stroke-width:0.26458332"
         id="path10931" />
    </g>
    <g
       aria-label="BI"
       style="font-style:normal;font-variant:normal;font-weight:bold;font-stretch:normal;font-size:3.52777767px;line-height:1.25;font-family:Homenaje;-inkscape-font-specification:'Homenaje Bold';letter-spacing:0px;word-spacing:0px;fill:#ffffff;fill-opacity:1;stroke:none;stroke-width:0.26458332"
       id="text5443-0-6-4">
      <path
         d="m 49.124776,126.83453 v 0.48049 h 0.13335 q 0.127,0 0.19685,-0.0635 0.06985,-0.0656 0.06985,-0.18839 0,-0.2286 -0.2667,-0.2286 z m 0.427567,0.55457 q 0.08255,0.0444 0.135466,0.13335 0.05503,0.0889 0.05503,0.17992 0,0.091 -0.0085,0.14605 -0.0085,0.055 -0.0381,0.12065 -0.02752,0.0635 -0.07832,0.10583 -0.1143,0.1016 -0.351366,0.1016 h -0.328084 v -1.48167 h 0.359834 q 0.19685,0 0.294216,0.091 0.09737,0.0889 0.09737,0.28152 0,0.10583 -0.04022,0.19473 -0.0381,0.0868 -0.09737,0.127 z m -0.296334,0.6477 q 0.309034,0 0.309034,-0.29633 0,-0.15029 -0.09102,-0.2159 -0.09102,-0.0656 -0.2159,-0.0656 h -0.13335 v 0.57785 z"
         style="font-style:normal;font-variant:normal;font-weight:bold;font-stretch:normal;font-size:2.11666656px;font-family:Homenaje;-inkscape-font-specification:'Homenaje Bold';stroke-width:0.26458332"
         id="path10934" />
      <path
         d="m 49.967904,128.1765 v -1.48167 h 0.186267 v 1.48167 z"
         style="font-style:normal;font-variant:normal;font-weight:bold;font-stretch:normal;font-size:2.11666656px;font-family:Homenaje;-inkscape-font-specification:'Homenaje Bold';stroke-width:0.26458332"
         id="path10936" />
    </g>
    <g
       aria-label="UNI"
       style="font-style:normal;font-variant:normal;font-weight:bold;font-stretch:normal;font-size:3.52777767px;line-height:1.25;font-family:Homenaje;-inkscape-font-specification:'Homenaje Bold';letter-spacing:0px;word-spacing:0px;fill:#ffffff;fill-opacity:1;stroke:none;stroke-width:0.26458332"
       id="text5443-0-4-9-0">
      <path
         d="m 48.375479,118.47582 h 0.186266 v 1.15147 q 0,0.1016 0.04868,0.15452 0.0508,0.0508 0.1397,0.0508 0.0889,0 0.1397,-0.0508 0.0508,-0.0529 0.0508,-0.15452 v -1.15147 h 0.186266 v 1.11549 q 0,0.381 -0.376766,0.381 -0.37465,0 -0.37465,-0.381 z"
         style="font-style:normal;font-variant:normal;font-weight:bold;font-stretch:normal;font-size:2.11666656px;font-family:Homenaje;-inkscape-font-specification:'Homenaje Bold';stroke-width:0.26458332"
         id="path10939" />
      <path
         d="m 50.200905,119.95749 h -0.2667 l -0.391583,-1.3462 v 1.3462 h -0.186267 v -1.48167 h 0.31115 l 0.345017,1.28059 v -1.28059 h 0.188383 z"
         style="font-style:normal;font-variant:normal;font-weight:bold;font-stretch:normal;font-size:2.11666656px;font-family:Homenaje;-inkscape-font-specification:'Homenaje Bold';stroke-width:0.26458332"
         id="path10941" />
      <path
         d="m 50.493633,119.95749 v -1.48167 H 50.6799 v 1.48167 z"
         style="font-style:normal;font-variant:normal;font-weight:bold;font-stretch:normal;font-size:2.11666656px;font-family:Homenaje;-inkscape-font-specification:'Homenaje Bold';stroke-width:0.26458332"
         id="path10943" />
    </g>
    <g
       aria-label="SERIOUSLY SLOW LFO"
       style="font-style:normal;font-variant:normal;font-weight:bold;font-stretch:normal;font-size:3.52777767px;line-height:1.25;font-family:Homenaje;-inkscape-font-specification:'Homenaje Bold';text-align:start;letter-spacing:0px;word-spacing:0px;text-anchor:start;fill:#ffffff;fill-opacity:1;stroke:none;stroke-width:0.26458332"
       id="text3885">
      <path
         d="m 47.320808,54.070593 q 0.221192,0 0.318206,-0.131939 0.100894,-0.131939 0.100894,-0.306564 0,-0.174625 -0.06597,-0.294922 -0.06209,-0.124178 -0.159103,-0.194028 -0.09701,-0.07373 -0.20955,-0.159103 -0.112536,-0.08537 -0.20955,-0.162983 -0.09701,-0.08149 -0.162983,-0.217311 -0.06209,-0.135819 -0.06209,-0.310444 0,-0.310445 0.186266,-0.496712 0.186267,-0.186266 0.516114,-0.186266 h 0.314325 v 0.256116 h -0.298802 q -0.186267,0 -0.283281,0.120298 -0.09701,0.120297 -0.09701,0.259997 0,0.1397 0.06209,0.240594 0.06597,0.100895 0.162983,0.166864 0.09701,0.06597 0.20955,0.155222 0.116417,0.08925 0.213431,0.182387 0.09701,0.08925 0.159103,0.244475 0.06597,0.155222 0.06597,0.35313 0,0.364772 -0.20955,0.551039 -0.205669,0.186267 -0.566561,0.186267 h -0.407458 v -0.256117 z"
         style="font-style:normal;font-variant:normal;font-weight:bold;font-stretch:normal;font-size:3.88055563px;font-family:Homenaje;-inkscape-font-specification:'Homenaje Bold';text-align:start;text-anchor:start;stroke-width:0.26458332"
         id="path10946" />
      <path
         d="m 48.460236,54.32671 v -2.716389 h 1.18357 v 0.263878 h -0.842081 v 0.869244 h 0.682978 v 0.263878 h -0.682978 v 1.055511 h 0.880886 v 0.263878 z"
         style="font-style:normal;font-variant:normal;font-weight:bold;font-stretch:normal;font-size:3.88055563px;font-family:Homenaje;-inkscape-font-specification:'Homenaje Bold';text-align:start;text-anchor:start;stroke-width:0.26458332"
         id="path10948" />
      <path
         d="m 50.461572,51.866437 v 1.012825 h 0.27552 q 0.221192,0 0.341489,-0.151341 0.124178,-0.155222 0.124178,-0.395817 0,-0.465667 -0.465667,-0.465667 z m -0.0078,1.268942 v 1.191331 h -0.333727 v -2.716389 h 0.717902 q 0.6985,0 0.6985,0.721783 0,0.271639 -0.104775,0.473428 -0.104775,0.201789 -0.298802,0.2794 l 0.539397,1.241778 h -0.333728 l -0.527756,-1.191331 z"
         style="font-style:normal;font-variant:normal;font-weight:bold;font-stretch:normal;font-size:3.88055563px;font-family:Homenaje;-inkscape-font-specification:'Homenaje Bold';text-align:start;text-anchor:start;stroke-width:0.26458332"
         id="path10950" />
      <path
         d="m 52.030044,54.32671 v -2.716389 h 0.341489 v 2.716389 z"
         style="font-style:normal;font-variant:normal;font-weight:bold;font-stretch:normal;font-size:3.88055563px;font-family:Homenaje;-inkscape-font-specification:'Homenaje Bold';text-align:start;text-anchor:start;stroke-width:0.26458332"
         id="path10952" />
      <path
         d="m 54.309386,53.655374 q 0,0.329847 -0.190147,0.516114 -0.190148,0.182386 -0.55492,0.182386 -0.360892,0 -0.551039,-0.182386 -0.190147,-0.186267 -0.190147,-0.516114 v -1.373717 q 0,-0.329847 0.190147,-0.512233 0.190147,-0.186267 0.551039,-0.186267 0.364772,0 0.55492,0.186267 0.190147,0.182386 0.190147,0.512233 z m -1.144764,0.06597 q 0,0.178506 0.112536,0.2794 0.116417,0.09701 0.287161,0.09701 0.170745,0 0.287161,-0.09701 0.116417,-0.100894 0.116417,-0.2794 v -1.505656 q 0,-0.178505 -0.116417,-0.275519 -0.116416,-0.100894 -0.287161,-0.100894 -0.170744,0 -0.287161,0.100894 -0.112536,0.09701 -0.112536,0.275519 z"
         style="font-style:normal;font-variant:normal;font-weight:bold;font-stretch:normal;font-size:3.88055563px;font-family:Homenaje;-inkscape-font-specification:'Homenaje Bold';text-align:start;text-anchor:start;stroke-width:0.26458332"
         id="path10954" />
      <path
         d="m 54.642144,51.610321 h 0.341489 v 2.111022 q 0,0.186267 0.08925,0.283281 0.09313,0.09313 0.256117,0.09313 0.162983,0 0.256117,-0.09313 0.09313,-0.09701 0.09313,-0.283281 v -2.111022 h 0.341489 v 2.045053 q 0,0.6985 -0.690739,0.6985 -0.686858,0 -0.686858,-0.6985 z"
         style="font-style:normal;font-variant:normal;font-weight:bold;font-stretch:normal;font-size:3.88055563px;font-family:Homenaje;-inkscape-font-specification:'Homenaje Bold';text-align:start;text-anchor:start;stroke-width:0.26458332"
         id="path10956" />
      <path
         d="m 56.847875,54.070593 q 0.221192,0 0.318206,-0.131939 0.100894,-0.131939 0.100894,-0.306564 0,-0.174625 -0.06597,-0.294922 -0.06209,-0.124178 -0.159103,-0.194028 -0.09701,-0.07373 -0.20955,-0.159103 -0.112536,-0.08537 -0.20955,-0.162983 -0.09701,-0.08149 -0.162983,-0.217311 -0.06209,-0.135819 -0.06209,-0.310444 0,-0.310445 0.186267,-0.496712 0.186266,-0.186266 0.516113,-0.186266 h 0.314326 v 0.256116 h -0.298803 q -0.186267,0 -0.283281,0.120298 -0.09701,0.120297 -0.09701,0.259997 0,0.1397 0.06209,0.240594 0.06597,0.100895 0.162983,0.166864 0.09701,0.06597 0.20955,0.155222 0.116417,0.08925 0.213431,0.182387 0.09701,0.08925 0.159103,0.244475 0.06597,0.155222 0.06597,0.35313 0,0.364772 -0.20955,0.551039 -0.205669,0.186267 -0.566561,0.186267 h -0.407458 v -0.256117 z"
         style="font-style:normal;font-variant:normal;font-weight:bold;font-stretch:normal;font-size:3.88055563px;font-family:Homenaje;-inkscape-font-specification:'Homenaje Bold';text-align:start;text-anchor:start;stroke-width:0.26458332"
         id="path10958" />
      <path
         d="m 57.987304,54.32671 v -2.716389 h 0.341489 v 2.460272 h 0.795514 v 0.256117 z"
         style="font-style:normal;font-variant:normal;font-weight:bold;font-stretch:normal;font-size:3.88055563px;font-family:Homenaje;-inkscape-font-specification:'Homenaje Bold';text-align:start;text-anchor:start;stroke-width:0.26458332"
         id="path10960" />
      <path
         d="m 59.78576,54.32671 h -0.341489 v -1.078795 l -0.547159,-1.637594 h 0.341489 l 0.388056,1.284464 0.395817,-1.284464 h 0.341488 l -0.578202,1.637594 z"
         style="font-style:normal;font-variant:normal;font-weight:bold;font-stretch:normal;font-size:3.88055563px;font-family:Homenaje;-inkscape-font-specification:'Homenaje Bold';text-align:start;text-anchor:start;stroke-width:0.26458332"
         id="path10962" />
      <path
         d="m 61.546985,54.070593 q 0.221192,0 0.318206,-0.131939 0.100894,-0.131939 0.100894,-0.306564 0,-0.174625 -0.06597,-0.294922 -0.06209,-0.124178 -0.159103,-0.194028 -0.09701,-0.07373 -0.20955,-0.159103 -0.112536,-0.08537 -0.20955,-0.162983 -0.09701,-0.08149 -0.162983,-0.217311 -0.06209,-0.135819 -0.06209,-0.310444 0,-0.310445 0.186267,-0.496712 0.186266,-0.186266 0.516114,-0.186266 h 0.314325 v 0.256116 h -0.298803 q -0.186267,0 -0.283281,0.120298 -0.09701,0.120297 -0.09701,0.259997 0,0.1397 0.06209,0.240594 0.06597,0.100895 0.162984,0.166864 0.09701,0.06597 0.20955,0.155222 0.116416,0.08925 0.21343,0.182387 0.09701,0.08925 0.159103,0.244475 0.06597,0.155222 0.06597,0.35313 0,0.364772 -0.20955,0.551039 -0.205669,0.186267 -0.566561,0.186267 h -0.407458 v -0.256117 z"
         style="font-style:normal;font-variant:normal;font-weight:bold;font-stretch:normal;font-size:3.88055563px;font-family:Homenaje;-inkscape-font-specification:'Homenaje Bold';text-align:start;text-anchor:start;stroke-width:0.26458332"
         id="path10964" />
      <path
         d="m 62.686414,54.32671 v -2.716389 h 0.341489 v 2.460272 h 0.795514 v 0.256117 z"
         style="font-style:normal;font-variant:normal;font-weight:bold;font-stretch:normal;font-size:3.88055563px;font-family:Homenaje;-inkscape-font-specification:'Homenaje Bold';text-align:start;text-anchor:start;stroke-width:0.26458332"
         id="path10966" />
      <path
         d="m 65.526618,53.655374 q 0,0.329847 -0.190148,0.516114 -0.190147,0.182386 -0.554919,0.182386 -0.360892,0 -0.551039,-0.182386 -0.190147,-0.186267 -0.190147,-0.516114 v -1.373717 q 0,-0.329847 0.190147,-0.512233 0.190147,-0.186267 0.551039,-0.186267 0.364772,0 0.554919,0.186267 0.190148,0.182386 0.190148,0.512233 z m -1.144764,0.06597 q 0,0.178506 0.112536,0.2794 0.116416,0.09701 0.287161,0.09701 0.170744,0 0.287161,-0.09701 0.116417,-0.100894 0.116417,-0.2794 v -1.505656 q 0,-0.178505 -0.116417,-0.275519 -0.116417,-0.100894 -0.287161,-0.100894 -0.170745,0 -0.287161,0.100894 -0.112536,0.09701 -0.112536,0.275519 z"
         style="font-style:normal;font-variant:normal;font-weight:bold;font-stretch:normal;font-size:3.88055563px;font-family:Homenaje;-inkscape-font-specification:'Homenaje Bold';text-align:start;text-anchor:start;stroke-width:0.26458332"
         id="path10968" />
      <path
         d="m 67.0119,52.316582 h 0.364772 l 0.364772,1.680281 0.457906,-2.386542 h 0.337608 l -0.562681,2.716389 h -0.457905 l -0.318206,-1.625953 -0.314325,1.625953 h -0.457905 l -0.574323,-2.716389 h 0.337609 l 0.461786,2.386542 z"
         style="font-style:normal;font-variant:normal;font-weight:bold;font-stretch:normal;font-size:3.88055563px;font-family:Homenaje;-inkscape-font-specification:'Homenaje Bold';text-align:start;text-anchor:start;stroke-width:0.26458332"
         id="path10970" />
      <path
         d="m 69.560758,54.32671 v -2.716389 h 0.341489 v 2.460272 h 0.795514 v 0.256117 z"
         style="font-style:normal;font-variant:normal;font-weight:bold;font-stretch:normal;font-size:3.88055563px;font-family:Homenaje;-inkscape-font-specification:'Homenaje Bold';text-align:start;text-anchor:start;stroke-width:0.26458332"
         id="path10972" />
      <path
         d="m 71.031125,54.32671 v -2.716389 h 1.144764 v 0.263878 h -0.803275 v 0.931333 h 0.605367 v 0.263878 h -0.605367 v 1.2573 z"
         style="font-style:normal;font-variant:normal;font-weight:bold;font-stretch:normal;font-size:3.88055563px;font-family:Homenaje;-inkscape-font-specification:'Homenaje Bold';text-align:start;text-anchor:start;stroke-width:0.26458332"
         id="path10974" />
      <path
         d="m 73.909224,53.655374 q 0,0.329847 -0.190147,0.516114 -0.190147,0.182386 -0.55492,0.182386 -0.360891,0 -0.551039,-0.182386 -0.190147,-0.186267 -0.190147,-0.516114 v -1.373717 q 0,-0.329847 0.190147,-0.512233 0.190148,-0.186267 0.551039,-0.186267 0.364773,0 0.55492,0.186267 0.190147,0.182386 0.190147,0.512233 z m -1.144764,0.06597 q 0,0.178506 0.112536,0.2794 0.116417,0.09701 0.287161,0.09701 0.170745,0 0.287161,-0.09701 0.116417,-0.100894 0.116417,-0.2794 v -1.505656 q 0,-0.178505 -0.116417,-0.275519 -0.116416,-0.100894 -0.287161,-0.100894 -0.170744,0 -0.287161,0.100894 -0.112536,0.09701 -0.112536,0.275519 z"
         style="font-style:normal;font-variant:normal;font-weight:bold;font-stretch:normal;font-size:3.88055563px;font-family:Homenaje;-inkscape-font-specification:'Homenaje Bold';text-align:start;text-anchor:start;stroke-width:0.26458332"
         id="path10976" />
    </g>
    <g
       aria-label="DURATION"
       style="font-style:normal;font-variant:normal;font-weight:bold;font-stretch:normal;font-size:3.52777767px;line-height:1.25;font-family:Homenaje;-inkscape-font-specification:'Homenaje Bold';letter-spacing:0px;word-spacing:0px;fill:#ffffff;fill-opacity:1;stroke:none;stroke-width:0.26458332"
       id="text5443">
      <path
         d="m 55.505823,58.112013 h 0.239889 q 0.129822,0 0.208844,-0.07338 0.08185,-0.0762 0.08185,-0.200378 v -1.044222 q 0,-0.124178 -0.08185,-0.197556 -0.07902,-0.0762 -0.208844,-0.0762 h -0.239889 z m -0.251178,0.191912 v -1.975556 h 0.491067 q 0.256822,0 0.397933,0.129822 0.141111,0.129822 0.141111,0.381 v 0.953911 q 0,0.251178 -0.141111,0.381 -0.141111,0.127 -0.397933,0.129823 z"
         style="font-style:normal;font-variant:normal;font-weight:bold;font-stretch:normal;font-size:2.82222223px;font-family:Homenaje;-inkscape-font-specification:'Homenaje Bold';stroke-width:0.26458332"
         id="path10979" />
      <path
         d="m 56.52879,56.328369 h 0.248356 v 1.535289 q 0,0.135467 0.06491,0.206022 0.06773,0.06773 0.186266,0.06773 0.118534,0 0.186267,-0.06773 0.06773,-0.07055 0.06773,-0.206022 v -1.535289 h 0.248356 v 1.487311 q 0,0.508 -0.502356,0.508 -0.499533,0 -0.499533,-0.508 z"
         style="font-style:normal;font-variant:normal;font-weight:bold;font-stretch:normal;font-size:2.82222223px;font-family:Homenaje;-inkscape-font-specification:'Homenaje Bold';stroke-width:0.26458332"
         id="path10981" />
      <path
         d="m 58.107559,56.514636 v 0.7366 h 0.200378 q 0.160866,0 0.248355,-0.110067 0.09031,-0.112889 0.09031,-0.287867 0,-0.338666 -0.338666,-0.338666 z m -0.0056,0.922866 v 0.866423 h -0.242711 v -1.975556 h 0.522111 q 0.508,0 0.508,0.524933 0,0.197556 -0.0762,0.344311 -0.0762,0.146756 -0.217311,0.2032 l 0.392289,0.903112 h -0.242711 l -0.383822,-0.866423 z"
         style="font-style:normal;font-variant:normal;font-weight:bold;font-stretch:normal;font-size:2.82222223px;font-family:Homenaje;-inkscape-font-specification:'Homenaje Bold';stroke-width:0.26458332"
         id="path10983" />
      <path
         d="m 59.544599,56.328369 h 0.375356 l 0.428977,1.975556 H 60.11751 l -0.138289,-0.581378 h -0.513644 l -0.127,0.581378 h -0.239889 z m 0.392289,1.202267 -0.2032,-1.016 h -0.01976 l -0.206022,1.016 z"
         style="font-style:normal;font-variant:normal;font-weight:bold;font-stretch:normal;font-size:2.82222223px;font-family:Homenaje;-inkscape-font-specification:'Homenaje Bold';stroke-width:0.26458332"
         id="path10985" />
      <path
         d="m 60.728522,58.303925 v -1.789289 h -0.395111 v -0.186267 h 1.038577 v 0.186267 h -0.395111 v 1.789289 z"
         style="font-style:normal;font-variant:normal;font-weight:bold;font-stretch:normal;font-size:2.82222223px;font-family:Homenaje;-inkscape-font-specification:'Homenaje Bold';stroke-width:0.26458332"
         id="path10987" />
      <path
         d="m 61.635028,58.303925 v -1.975556 h 0.248355 v 1.975556 z"
         style="font-style:normal;font-variant:normal;font-weight:bold;font-stretch:normal;font-size:2.82222223px;font-family:Homenaje;-inkscape-font-specification:'Homenaje Bold';stroke-width:0.26458332"
         id="path10989" />
      <path
         d="m 63.292731,57.81568 q 0,0.239889 -0.138289,0.375356 -0.138289,0.132644 -0.403578,0.132644 -0.262467,0 -0.400755,-0.132644 Q 62.21182,58.055569 62.21182,57.81568 v -0.999067 q 0,-0.239888 0.138289,-0.372533 0.138288,-0.135467 0.400755,-0.135467 0.265289,0 0.403578,0.135467 0.138289,0.132645 0.138289,0.372533 z m -0.832556,0.04798 q 0,0.129822 0.08185,0.2032 0.08467,0.07055 0.208844,0.07055 0.124178,0 0.208845,-0.07055 0.08467,-0.07338 0.08467,-0.2032 v -1.095022 q 0,-0.129823 -0.08467,-0.200378 -0.08467,-0.07338 -0.208845,-0.07338 -0.124178,0 -0.208844,0.07338 -0.08185,0.07055 -0.08185,0.200378 z"
         style="font-style:normal;font-variant:normal;font-weight:bold;font-stretch:normal;font-size:2.82222223px;font-family:Homenaje;-inkscape-font-specification:'Homenaje Bold';stroke-width:0.26458332"
         id="path10991" />
      <path
         d="m 64.722892,58.303925 h -0.3556 l -0.522111,-1.794934 v 1.794934 h -0.248356 v -1.975556 h 0.414867 l 0.460022,1.707444 v -1.707444 h 0.251178 z"
         style="font-style:normal;font-variant:normal;font-weight:bold;font-stretch:normal;font-size:2.82222223px;font-family:Homenaje;-inkscape-font-specification:'Homenaje Bold';stroke-width:0.26458332"
         id="path10993" />
    </g>
    <g
       aria-label="TIME BASE"
       style="font-style:normal;font-variant:normal;font-weight:bold;font-stretch:normal;font-size:3.52777767px;line-height:1.25;font-family:Homenaje;-inkscape-font-specification:'Homenaje Bold';letter-spacing:0px;word-spacing:0px;fill:#ffffff;fill-opacity:1;stroke:none;stroke-width:0.26458332"
       id="text5443-7-3-2">
      <path
         d="m 37.145857,92.69976 v -1.789288 h -0.395111 v -0.186267 h 1.038578 v 0.186267 h -0.395111 v 1.789288 z"
         style="font-style:normal;font-variant:normal;font-weight:bold;font-stretch:normal;font-size:2.82222223px;font-family:Homenaje;-inkscape-font-specification:'Homenaje Bold';stroke-width:0.26458332"
         id="path10996" />
      <path
         d="m 38.052364,92.69976 v -1.975555 h 0.248355 v 1.975555 z"
         style="font-style:normal;font-variant:normal;font-weight:bold;font-stretch:normal;font-size:2.82222223px;font-family:Homenaje;-inkscape-font-specification:'Homenaje Bold';stroke-width:0.26458332"
         id="path10998" />
      <path
         d="M 38.933955,92.69976 H 38.6856 v -1.975555 h 0.375355 l 0.378178,1.1684 h 0.01976 l 0.386644,-1.1684 h 0.361245 v 1.975555 h -0.248356 v -1.679222 l -0.378178,1.154289 h -0.268111 l -0.378178,-1.157111 z"
         style="font-style:normal;font-variant:normal;font-weight:bold;font-stretch:normal;font-size:2.82222223px;font-family:Homenaje;-inkscape-font-specification:'Homenaje Bold';stroke-width:0.26458332"
         id="path11000" />
      <path
         d="m 40.587954,92.69976 v -1.975555 h 0.860778 v 0.191911 H 40.83631 v 0.632178 h 0.496711 v 0.191911 H 40.83631 v 0.767644 h 0.640644 v 0.191911 z"
         style="font-style:normal;font-variant:normal;font-weight:bold;font-stretch:normal;font-size:2.82222223px;font-family:Homenaje;-inkscape-font-specification:'Homenaje Bold';stroke-width:0.26458332"
         id="path11002" />
      <path
         d="m 42.467907,90.910472 v 0.640644 h 0.1778 q 0.169333,0 0.262466,-0.08467 0.09313,-0.08749 0.09313,-0.251177 0,-0.3048 -0.3556,-0.3048 z m 0.570088,0.739422 q 0.110067,0.05927 0.180623,0.1778 0.07338,0.118533 0.07338,0.239889 0,0.121355 -0.01129,0.194733 -0.01129,0.07338 -0.0508,0.160867 -0.03669,0.08467 -0.104423,0.141111 -0.1524,0.135466 -0.468489,0.135466 h -0.437444 v -1.975555 h 0.479778 q 0.262466,0 0.392289,0.121355 0.129822,0.118534 0.129822,0.375356 0,0.141111 -0.05362,0.259644 -0.0508,0.115712 -0.129823,0.169334 z m -0.395111,0.8636 q 0.412045,0 0.412045,-0.395111 0,-0.200378 -0.121356,-0.287867 -0.121355,-0.08749 -0.287866,-0.08749 h -0.1778 v 0.770467 z"
         style="font-style:normal;font-variant:normal;font-weight:bold;font-stretch:normal;font-size:2.82222223px;font-family:Homenaje;-inkscape-font-specification:'Homenaje Bold';stroke-width:0.26458332"
         id="path11004" />
      <path
         d="m 43.888411,90.724205 h 0.375355 l 0.428978,1.975555 h -0.231422 l -0.138289,-0.581377 h -0.513645 l -0.127,0.581377 h -0.239889 z m 0.392288,1.202267 -0.2032,-1.016 h -0.01976 l -0.206022,1.016 z"
         style="font-style:normal;font-variant:normal;font-weight:bold;font-stretch:normal;font-size:2.82222223px;font-family:Homenaje;-inkscape-font-specification:'Homenaje Bold';stroke-width:0.26458332"
         id="path11006" />
      <path
         d="m 45.227334,92.513494 q 0.160867,0 0.231423,-0.09596 0.07338,-0.09595 0.07338,-0.222955 0,-0.127 -0.04798,-0.214489 -0.04516,-0.09031 -0.115711,-0.141111 -0.07056,-0.05362 -0.1524,-0.115711 -0.08185,-0.06209 -0.1524,-0.118534 -0.07056,-0.05927 -0.118534,-0.158044 -0.04516,-0.09878 -0.04516,-0.225778 0,-0.225778 0.135466,-0.361244 0.135467,-0.135467 0.375356,-0.135467 h 0.2286 v 0.186267 h -0.217311 q -0.135467,0 -0.206022,0.08749 -0.07056,0.08749 -0.07056,0.189089 0,0.1016 0.04516,0.174978 0.04798,0.07338 0.118533,0.121356 0.07055,0.04798 0.1524,0.112889 0.08467,0.06491 0.155222,0.132644 0.07056,0.06491 0.115711,0.1778 0.04798,0.112889 0.04798,0.256822 0,0.265289 -0.1524,0.400756 -0.149578,0.135466 -0.412044,0.135466 h -0.296334 v -0.186266 z"
         style="font-style:normal;font-variant:normal;font-weight:bold;font-stretch:normal;font-size:2.82222223px;font-family:Homenaje;-inkscape-font-specification:'Homenaje Bold';stroke-width:0.26458332"
         id="path11008" />
      <path
         d="m 46.056009,92.69976 v -1.975555 h 0.860778 v 0.191911 h -0.612422 v 0.632178 h 0.496711 v 0.191911 h -0.496711 v 0.767644 h 0.640644 v 0.191911 z"
         style="font-style:normal;font-variant:normal;font-weight:bold;font-stretch:normal;font-size:2.82222223px;font-family:Homenaje;-inkscape-font-specification:'Homenaje Bold';stroke-width:0.26458332"
         id="path11010" />
    </g>
    <g
       aria-label="MINUTES"
       style="font-style:normal;font-variant:normal;font-weight:bold;font-stretch:normal;font-size:3.52777767px;line-height:1.25;font-family:Homenaje;-inkscape-font-specification:'Homenaje Bold';letter-spacing:0px;word-spacing:0px;fill:#ffffff;fill-opacity:1;stroke:none;stroke-width:0.26458332"
       id="text5443-7-3-2-5">
      <path
         d="m 40.36178,96.938736 h -0.186266 v -1.481667 h 0.281516 l 0.283634,0.8763 h 0.01482 l 0.289984,-0.8763 h 0.270933 v 1.481667 H 41.13013 v -1.259417 l -0.283633,0.865717 H 40.645414 L 40.36178,95.677203 Z"
         style="font-style:normal;font-variant:normal;font-weight:bold;font-stretch:normal;font-size:2.11666656px;font-family:Homenaje;-inkscape-font-specification:'Homenaje Bold';stroke-width:0.26458332"
         id="path11013" />
      <path
         d="m 41.602279,96.938736 v -1.481667 h 0.186267 v 1.481667 z"
         style="font-style:normal;font-variant:normal;font-weight:bold;font-stretch:normal;font-size:2.11666656px;font-family:Homenaje;-inkscape-font-specification:'Homenaje Bold';stroke-width:0.26458332"
         id="path11015" />
      <path
         d="m 42.92599,96.938736 h -0.2667 l -0.391584,-1.3462 v 1.3462 H 42.08144 v -1.481667 h 0.31115 l 0.345016,1.280584 v -1.280584 h 0.188384 z"
         style="font-style:normal;font-variant:normal;font-weight:bold;font-stretch:normal;font-size:2.11666656px;font-family:Homenaje;-inkscape-font-specification:'Homenaje Bold';stroke-width:0.26458332"
         id="path11017" />
      <path
         d="m 43.155218,95.457069 h 0.186267 v 1.151467 q 0,0.1016 0.04868,0.154517 0.0508,0.0508 0.1397,0.0508 0.0889,0 0.1397,-0.0508 0.0508,-0.05292 0.0508,-0.154517 v -1.151467 h 0.186267 v 1.115484 q 0,0.381 -0.376767,0.381 -0.37465,0 -0.37465,-0.381 z"
         style="font-style:normal;font-variant:normal;font-weight:bold;font-stretch:normal;font-size:2.11666656px;font-family:Homenaje;-inkscape-font-specification:'Homenaje Bold';stroke-width:0.26458332"
         id="path11019" />
      <path
         d="m 44.337178,96.938736 v -1.341967 h -0.296333 v -0.1397 h 0.778933 v 0.1397 h -0.296333 v 1.341967 z"
         style="font-style:normal;font-variant:normal;font-weight:bold;font-stretch:normal;font-size:2.11666656px;font-family:Homenaje;-inkscape-font-specification:'Homenaje Bold';stroke-width:0.26458332"
         id="path11021" />
      <path
         d="m 45.017058,96.938736 v -1.481667 h 0.645583 v 0.143934 h -0.459316 v 0.474133 h 0.372533 v 0.143933 h -0.372533 v 0.575734 h 0.480483 v 0.143933 z"
         style="font-style:normal;font-variant:normal;font-weight:bold;font-stretch:normal;font-size:2.11666656px;font-family:Homenaje;-inkscape-font-specification:'Homenaje Bold';stroke-width:0.26458332"
         id="path11023" />
      <path
         d="m 46.127746,96.799036 q 0.12065,0 0.173566,-0.07197 0.05503,-0.07197 0.05503,-0.167216 0,-0.09525 -0.03598,-0.160867 -0.03387,-0.06773 -0.08678,-0.105833 -0.05292,-0.04022 -0.1143,-0.08678 -0.06138,-0.04657 -0.1143,-0.0889 -0.05292,-0.04445 -0.0889,-0.118533 -0.03387,-0.07408 -0.03387,-0.169333 0,-0.169334 0.1016,-0.270934 0.1016,-0.1016 0.281517,-0.1016 h 0.17145 v 0.1397 h -0.162983 q -0.1016,0 -0.154517,0.06562 -0.05292,0.06562 -0.05292,0.141817 0,0.0762 0.03387,0.131233 0.03598,0.05503 0.0889,0.09102 0.05292,0.03598 0.1143,0.08467 0.0635,0.04868 0.116417,0.09948 0.05292,0.04868 0.08678,0.13335 0.03598,0.08467 0.03598,0.192616 0,0.198967 -0.1143,0.300567 -0.112183,0.1016 -0.309033,0.1016 h -0.22225 v -0.1397 z"
         style="font-style:normal;font-variant:normal;font-weight:bold;font-stretch:normal;font-size:2.11666656px;font-family:Homenaje;-inkscape-font-specification:'Homenaje Bold';stroke-width:0.26458332"
         id="path11025" />
    </g>
    <g
       aria-label="HOURS"
       style="font-style:normal;font-variant:normal;font-weight:bold;font-stretch:normal;font-size:3.52777767px;line-height:1.25;font-family:Homenaje;-inkscape-font-specification:'Homenaje Bold';letter-spacing:0px;word-spacing:0px;fill:#ffffff;fill-opacity:1;stroke:none;stroke-width:0.26458332"
       id="text5443-7-3-2-5-3">
      <path
         d="M 40.802047,100.19206 H 40.38083 v 0.71543 h -0.186267 v -1.481663 h 0.186267 v 0.626533 h 0.421217 v -0.626533 h 0.186266 v 1.481663 h -0.186266 z"
         style="font-style:normal;font-variant:normal;font-weight:bold;font-stretch:normal;font-size:2.11666656px;font-family:Homenaje;-inkscape-font-specification:'Homenaje Bold';stroke-width:0.26458332"
         id="path11028" />
      <path
         d="m 42.045555,100.54131 q 0,0.17992 -0.103716,0.28152 -0.103717,0.0995 -0.302684,0.0995 -0.19685,0 -0.300566,-0.0995 -0.103717,-0.1016 -0.103717,-0.28152 v -0.7493 q 0,-0.179916 0.103717,-0.2794 0.103716,-0.1016 0.300566,-0.1016 0.198967,0 0.302684,0.1016 0.103716,0.09948 0.103716,0.2794 z m -0.624416,0.036 q 0,0.0974 0.06138,0.1524 0.0635,0.0529 0.156633,0.0529 0.09313,0 0.156634,-0.0529 0.0635,-0.055 0.0635,-0.1524 v -0.821263 q 0,-0.09737 -0.0635,-0.150283 -0.0635,-0.05503 -0.156634,-0.05503 -0.09313,0 -0.156633,0.05503 -0.06138,0.05292 -0.06138,0.150283 z"
         style="font-style:normal;font-variant:normal;font-weight:bold;font-stretch:normal;font-size:2.11666656px;font-family:Homenaje;-inkscape-font-specification:'Homenaje Bold';stroke-width:0.26458332"
         id="path11030" />
      <path
         d="m 42.227059,99.425827 h 0.186267 v 1.151463 q 0,0.1016 0.04868,0.15452 0.0508,0.0508 0.1397,0.0508 0.0889,0 0.1397,-0.0508 0.0508,-0.0529 0.0508,-0.15452 v -1.151463 h 0.186267 v 1.115483 q 0,0.381 -0.376767,0.381 -0.37465,0 -0.37465,-0.381 z"
         style="font-style:normal;font-variant:normal;font-weight:bold;font-stretch:normal;font-size:2.11666656px;font-family:Homenaje;-inkscape-font-specification:'Homenaje Bold';stroke-width:0.26458332"
         id="path11032" />
      <path
         d="m 43.411136,99.565527 v 0.552453 h 0.150283 q 0.12065,0 0.186267,-0.0825 0.06773,-0.08467 0.06773,-0.215903 0,-0.254 -0.254,-0.254 z m -0.0042,0.692153 v 0.64981 h -0.182034 v -1.481663 h 0.391584 q 0.381,0 0.381,0.3937 0,0.148167 -0.05715,0.258233 -0.05715,0.11007 -0.162984,0.1524 l 0.294217,0.67733 h -0.182033 l -0.287867,-0.64981 z"
         style="font-style:normal;font-variant:normal;font-weight:bold;font-stretch:normal;font-size:2.11666656px;font-family:Homenaje;-inkscape-font-specification:'Homenaje Bold';stroke-width:0.26458332"
         id="path11034" />
      <path
         d="m 44.471983,100.76779 q 0.12065,0 0.173566,-0.072 0.05503,-0.072 0.05503,-0.16722 0,-0.0953 -0.03598,-0.16087 -0.03387,-0.0677 -0.08678,-0.10583 -0.05292,-0.0402 -0.1143,-0.0868 -0.06138,-0.0466 -0.1143,-0.0889 -0.05292,-0.0444 -0.0889,-0.118536 -0.03387,-0.07408 -0.03387,-0.169334 0,-0.169333 0.1016,-0.270933 0.1016,-0.1016 0.281517,-0.1016 h 0.17145 v 0.1397 h -0.162983 q -0.1016,0 -0.154517,0.06562 -0.05292,0.06562 -0.05292,0.141816 0,0.0762 0.03387,0.131234 0.03598,0.05503 0.0889,0.09102 0.05292,0.03598 0.1143,0.08467 0.0635,0.0487 0.116417,0.0995 0.05292,0.0487 0.08678,0.13335 0.03598,0.0847 0.03598,0.19262 0,0.19896 -0.1143,0.30056 -0.112183,0.1016 -0.309033,0.1016 h -0.22225 v -0.1397 z"
         style="font-style:normal;font-variant:normal;font-weight:bold;font-stretch:normal;font-size:2.11666656px;font-family:Homenaje;-inkscape-font-specification:'Homenaje Bold';stroke-width:0.26458332"
         id="path11036" />
    </g>
    <g
       aria-label="DAYS"
       style="font-style:normal;font-variant:normal;font-weight:bold;font-stretch:normal;font-size:3.52777767px;line-height:1.25;font-family:Homenaje;-inkscape-font-specification:'Homenaje Bold';letter-spacing:0px;word-spacing:0px;fill:#ffffff;fill-opacity:1;stroke:none;stroke-width:0.26458332"
       id="text5443-7-3-2-5-9">
      <path
         d="m 40.389295,104.73231 h 0.179916 q 0.09737,0 0.156634,-0.055 0.06138,-0.0571 0.06138,-0.15029 v -0.78316 q 0,-0.0931 -0.06138,-0.14817 -0.05927,-0.0571 -0.156634,-0.0571 h -0.179916 z m -0.188384,0.14393 v -1.48166 h 0.3683 q 0.192617,0 0.29845,0.0974 0.105834,0.0974 0.105834,0.28575 v 0.71544 q 0,0.18838 -0.105834,0.28575 -0.105833,0.0952 -0.29845,0.0974 z"
         style="font-style:normal;font-variant:normal;font-weight:bold;font-stretch:normal;font-size:2.11666656px;font-family:Homenaje;-inkscape-font-specification:'Homenaje Bold';stroke-width:0.26458332"
         id="path11039" />
      <path
         d="m 41.44227,103.39458 h 0.281517 l 0.321733,1.48166 h -0.173566 l -0.103717,-0.43603 h -0.385233 l -0.09525,0.43603 h -0.179917 z m 0.294217,0.9017 -0.1524,-0.762 h -0.01482 l -0.154516,0.762 z"
         style="font-style:normal;font-variant:normal;font-weight:bold;font-stretch:normal;font-size:2.11666656px;font-family:Homenaje;-inkscape-font-specification:'Homenaje Bold';stroke-width:0.26458332"
         id="path11041" />
      <path
         d="m 42.440775,104.87624 h -0.186267 v -0.58843 l -0.29845,-0.89323 h 0.186267 l 0.211666,0.70061 0.2159,-0.70061 h 0.186267 l -0.315383,0.89323 z"
         style="font-style:normal;font-variant:normal;font-weight:bold;font-stretch:normal;font-size:2.11666656px;font-family:Homenaje;-inkscape-font-specification:'Homenaje Bold';stroke-width:0.26458332"
         id="path11043" />
      <path
         d="m 43.083117,104.73654 q 0.12065,0 0.173567,-0.072 0.05503,-0.072 0.05503,-0.16722 0,-0.0953 -0.03598,-0.16087 -0.03387,-0.0677 -0.08678,-0.10583 -0.05292,-0.0402 -0.1143,-0.0868 -0.06138,-0.0466 -0.1143,-0.0889 -0.05292,-0.0444 -0.0889,-0.11854 -0.03387,-0.0741 -0.03387,-0.16933 0,-0.16933 0.1016,-0.27093 0.1016,-0.1016 0.281516,-0.1016 h 0.17145 v 0.1397 h -0.162983 q -0.1016,0 -0.154517,0.0656 -0.05292,0.0656 -0.05292,0.14182 0,0.0762 0.03387,0.13123 0.03598,0.055 0.0889,0.091 0.05292,0.036 0.1143,0.0847 0.0635,0.0487 0.116417,0.0995 0.05292,0.0487 0.08678,0.13335 0.03598,0.0847 0.03598,0.19262 0,0.19896 -0.1143,0.30056 -0.112183,0.1016 -0.309033,0.1016 H 42.8524 v -0.1397 z"
         style="font-style:normal;font-variant:normal;font-weight:bold;font-stretch:normal;font-size:2.11666656px;font-family:Homenaje;-inkscape-font-specification:'Homenaje Bold';stroke-width:0.26458332"
         id="path11045" />
    </g>
    <g
       aria-label="WEEKS"
       style="font-style:normal;font-variant:normal;font-weight:bold;font-stretch:normal;font-size:3.52777767px;line-height:1.25;font-family:Homenaje;-inkscape-font-specification:'Homenaje Bold';letter-spacing:0px;word-spacing:0px;fill:#ffffff;fill-opacity:1;stroke:none;stroke-width:0.26458332"
       id="text5443-7-3-2-5-5">
      <path
         d="m 40.86131,107.74856 h 0.198967 l 0.198966,0.91652 0.249767,-1.30175 h 0.18415 l -0.306917,1.48166 h -0.249766 l -0.173567,-0.88688 -0.17145,0.88688 h -0.249766 l -0.313267,-1.48166 h 0.18415 l 0.251883,1.30175 z"
         style="font-style:normal;font-variant:normal;font-weight:bold;font-stretch:normal;font-size:2.11666656px;font-family:Homenaje;-inkscape-font-specification:'Homenaje Bold';stroke-width:0.26458332"
         id="path11048" />
      <path
         d="m 41.933269,108.84499 v -1.48166 h 0.645584 v 0.14393 h -0.459317 v 0.47413 h 0.372533 v 0.14394 h -0.372533 v 0.57573 h 0.480483 v 0.14393 z"
         style="font-style:normal;font-variant:normal;font-weight:bold;font-stretch:normal;font-size:2.11666656px;font-family:Homenaje;-inkscape-font-specification:'Homenaje Bold';stroke-width:0.26458332"
         id="path11050" />
      <path
         d="m 42.838641,108.84499 v -1.48166 h 0.645583 v 0.14393 h -0.459317 v 0.47413 h 0.372534 v 0.14394 h -0.372534 v 0.57573 h 0.480484 v 0.14393 z"
         style="font-style:normal;font-variant:normal;font-weight:bold;font-stretch:normal;font-size:2.11666656px;font-family:Homenaje;-inkscape-font-specification:'Homenaje Bold';stroke-width:0.26458332"
         id="path11052" />
      <path
         d="m 43.923928,108.84499 h -0.179916 v -1.48166 h 0.179916 v 0.6477 l 0.43815,-0.6477 h 0.18415 l -0.4318,0.6604 0.4953,0.82126 h -0.188383 l -0.414867,-0.69003 -0.08255,0.10583 z"
         style="font-style:normal;font-variant:normal;font-weight:bold;font-stretch:normal;font-size:2.11666656px;font-family:Homenaje;-inkscape-font-specification:'Homenaje Bold';stroke-width:0.26458332"
         id="path11054" />
      <path
         d="m 44.974588,108.70529 q 0.12065,0 0.173567,-0.072 0.05503,-0.072 0.05503,-0.16722 0,-0.0953 -0.03598,-0.16087 -0.03387,-0.0677 -0.08678,-0.10583 -0.05292,-0.0402 -0.1143,-0.0868 -0.06138,-0.0466 -0.1143,-0.0889 -0.05292,-0.0444 -0.0889,-0.11854 -0.03387,-0.0741 -0.03387,-0.16933 0,-0.16933 0.1016,-0.27093 0.1016,-0.1016 0.281517,-0.1016 h 0.17145 v 0.1397 h -0.162984 q -0.1016,0 -0.154516,0.0656 -0.05292,0.0656 -0.05292,0.14182 0,0.0762 0.03387,0.13123 0.03598,0.055 0.0889,0.091 0.05292,0.036 0.1143,0.0847 0.0635,0.0487 0.116416,0.0995 0.05292,0.0487 0.08678,0.13335 0.03598,0.0847 0.03598,0.19262 0,0.19896 -0.1143,0.30056 -0.112183,0.1016 -0.309033,0.1016 h -0.22225 v -0.1397 z"
         style="font-style:normal;font-variant:normal;font-weight:bold;font-stretch:normal;font-size:2.11666656px;font-family:Homenaje;-inkscape-font-specification:'Homenaje Bold';stroke-width:0.26458332"
         id="path11056" />
    </g>
    <g
       aria-label="MONTHS"
       style="font-style:normal;font-variant:normal;font-weight:bold;font-stretch:normal;font-size:3.52777767px;line-height:1.25;font-family:Homenaje;-inkscape-font-specification:'Homenaje Bold';letter-spacing:0px;word-spacing:0px;fill:#ffffff;fill-opacity:1;stroke:none;stroke-width:0.26458332"
       id="text5443-7-3-2-5-8">
      <path
         d="m 40.36178,112.81374 h -0.186266 v -1.48166 h 0.281516 l 0.283634,0.8763 h 0.01482 l 0.289984,-0.8763 h 0.270933 v 1.48166 H 41.13013 v -1.25941 l -0.283633,0.86571 h -0.201083 l -0.283634,-0.86783 z"
         style="font-style:normal;font-variant:normal;font-weight:bold;font-stretch:normal;font-size:2.11666656px;font-family:Homenaje;-inkscape-font-specification:'Homenaje Bold';stroke-width:0.26458332"
         id="path11059" />
      <path
         d="m 42.349463,112.44756 q 0,0.17992 -0.103717,0.28152 -0.103717,0.0995 -0.302683,0.0995 -0.19685,0 -0.300567,-0.0995 -0.103717,-0.1016 -0.103717,-0.28152 v -0.7493 q 0,-0.17992 0.103717,-0.2794 0.103717,-0.1016 0.300567,-0.1016 0.198966,0 0.302683,0.1016 0.103717,0.0995 0.103717,0.2794 z m -0.624417,0.036 q 0,0.0974 0.06138,0.1524 0.0635,0.0529 0.156634,0.0529 0.09313,0 0.156633,-0.0529 0.0635,-0.055 0.0635,-0.1524 v -0.82126 q 0,-0.0974 -0.0635,-0.15029 -0.0635,-0.055 -0.156633,-0.055 -0.09313,0 -0.156634,0.055 -0.06138,0.0529 -0.06138,0.15029 z"
         style="font-style:normal;font-variant:normal;font-weight:bold;font-stretch:normal;font-size:2.11666656px;font-family:Homenaje;-inkscape-font-specification:'Homenaje Bold';stroke-width:0.26458332"
         id="path11061" />
      <path
         d="m 43.422084,112.81374 h -0.2667 l -0.391584,-1.3462 v 1.3462 h -0.186266 v -1.48166 h 0.31115 l 0.345016,1.28058 v -1.28058 h 0.188384 z"
         style="font-style:normal;font-variant:normal;font-weight:bold;font-stretch:normal;font-size:2.11666656px;font-family:Homenaje;-inkscape-font-specification:'Homenaje Bold';stroke-width:0.26458332"
         id="path11063" />
      <path
         d="m 43.898962,112.81374 v -1.34196 h -0.296334 v -0.1397 h 0.778934 v 0.1397 h -0.296334 v 1.34196 z"
         style="font-style:normal;font-variant:normal;font-weight:bold;font-stretch:normal;font-size:2.11666656px;font-family:Homenaje;-inkscape-font-specification:'Homenaje Bold';stroke-width:0.26458332"
         id="path11065" />
      <path
         d="m 45.186325,112.09831 h -0.421217 v 0.71543 h -0.186266 v -1.48166 h 0.186266 v 0.62653 h 0.421217 v -0.62653 h 0.186267 v 1.48166 h -0.186267 z"
         style="font-style:normal;font-variant:normal;font-weight:bold;font-stretch:normal;font-size:2.11666656px;font-family:Homenaje;-inkscape-font-specification:'Homenaje Bold';stroke-width:0.26458332"
         id="path11067" />
      <path
         d="m 45.887967,112.67404 q 0.12065,0 0.173566,-0.072 0.05503,-0.072 0.05503,-0.16722 0,-0.0953 -0.03598,-0.16087 -0.03387,-0.0677 -0.08678,-0.10583 -0.05292,-0.0402 -0.1143,-0.0868 -0.06138,-0.0466 -0.1143,-0.0889 -0.05292,-0.0444 -0.0889,-0.11854 -0.03387,-0.0741 -0.03387,-0.16933 0,-0.16933 0.1016,-0.27093 0.1016,-0.1016 0.281517,-0.1016 H 46.197 v 0.1397 h -0.162983 q -0.1016,0 -0.154517,0.0656 -0.05292,0.0656 -0.05292,0.14182 0,0.0762 0.03387,0.13123 0.03598,0.055 0.0889,0.091 0.05292,0.036 0.1143,0.0847 0.0635,0.0487 0.116417,0.0995 0.05292,0.0487 0.08678,0.13335 0.03598,0.0847 0.03598,0.19262 0,0.19896 -0.1143,0.30056 -0.112183,0.1016 -0.309033,0.1016 h -0.22225 v -0.1397 z"
         style="font-style:normal;font-variant:normal;font-weight:bold;font-stretch:normal;font-size:2.11666656px;font-family:Homenaje;-inkscape-font-specification:'Homenaje Bold';stroke-width:0.26458332"
         id="path11069" />
    </g>
  </g>
</svg>
