<?xml version="1.0" encoding="UTF-8" standalone="no"?>
<!-- Created with Inkscape (http://www.inkscape.org/) -->

<svg
   xmlns:dc="http://purl.org/dc/elements/1.1/"
   xmlns:cc="http://creativecommons.org/ns#"
   xmlns:rdf="http://www.w3.org/1999/02/22-rdf-syntax-ns#"
   xmlns:svg="http://www.w3.org/2000/svg"
   xmlns="http://www.w3.org/2000/svg"
   xmlns:xlink="http://www.w3.org/1999/xlink"
   xmlns:sodipodi="http://sodipodi.sourceforge.net/DTD/sodipodi-0.dtd"
   xmlns:inkscape="http://www.inkscape.org/namespaces/inkscape"
   width="105"
   height="380"
   viewBox="0 0 27.781251 100.54167"
   version="1.1"
   id="svg11003"
   inkscape:version="0.92.2 (5c3e80d, 2017-08-06)"
   sodipodi:docname="StringTheory.svg">
  <defs
     id="defs10997">
    <linearGradient
       inkscape:collect="always"
       id="linearGradient2777">
      <stop
         style="stop-color:#202022;stop-opacity:1;"
         offset="0"
         id="stop3387" />
      <stop
         style="stop-color:#202025;stop-opacity:1;"
         offset=".3"
         id="stop3388" />
      <stop
         style="stop-color:#08006f;stop-opacity:1;"
         offset="1"
         id="stop3389" />
    </linearGradient>
    <linearGradient
       inkscape:collect="always"
       xlink:href="#linearGradient2777"
       id="linearGradient2779"
       x1="35.219627"
       y1="150.85843"
       x2="35.219627"
       y2="50.462322"
       gradientUnits="userSpaceOnUse"
       gradientTransform="matrix(0.70151341,0,0,1.0014499,10.439269,-0.14648975)" />
  </defs>
  <sodipodi:namedview
     id="base"
     pagecolor="#ffffff"
     bordercolor="#666666"
     borderopacity="1.0"
     inkscape:pageopacity="0.0"
     inkscape:pageshadow="2"
     inkscape:zoom="5.656854"
     inkscape:cx="33.661773"
     inkscape:cy="224.30715"
     inkscape:document-units="px"
     inkscape:current-layer="layer1"
     showgrid="false"
     fit-margin-top="0"
     fit-margin-left="0"
     fit-margin-right="0"
     fit-margin-bottom="0"
     inkscape:window-width="3840"
     inkscape:window-height="2115"
     inkscape:window-x="-13"
     inkscape:window-y="-13"
     inkscape:window-maximized="1"
     units="px"
     showguides="false" />
  <metadata
     id="metadata11000">
    <rdf:RDF>
      <cc:Work
         rdf:about="">
        <dc:format>image/svg+xml</dc:format>
        <dc:type
           rdf:resource="http://purl.org/dc/dcmitype/StillImage" />
        <dc:title></dc:title>
      </cc:Work>
    </rdf:RDF>
  </metadata>
  <g
     inkscape:label="Layer 1"
     inkscape:groupmode="layer"
     id="layer1"
     transform="translate(-35.146312,-50.389004)">
    <path
       inkscape:connector-curvature="0"
       id="path33493"
       d="M 35.146312,50.389 H 62.927563 V 150.93067 H 35.146312 Z m 0,0"
       style="fill:url(#linearGradient2779);fill-opacity:1;fill-rule:nonzero;stroke:none;stroke-width:0.23135512"
       inkscape:export-filename="/home/vortico/pics/tmp/LFOs.png"
       inkscape:export-xdpi="150.22649"
       inkscape:export-ydpi="150.22649" />
    <g
       style="font-style:normal;font-weight:normal;font-size:3.52777767px;line-height:1.25;font-family:sans-serif;letter-spacing:0px;word-spacing:0px;fill:#000000;fill-opacity:1;stroke:none;stroke-width:0.26458332"
       id="text5097" />
    <path
       style="fill:none;stroke:#000000;stroke-width:0.26458332px;stroke-linecap:butt;stroke-linejoin:miter;stroke-opacity:1"
       d="m 68.655363,121.04327 c 0,0 0,0 0,0 z"
       id="path22517"
       inkscape:connector-curvature="0" />
    <g
       aria-label="FEEDBACK"
       style="font-style:normal;font-variant:normal;font-weight:bold;font-stretch:normal;font-size:3.52777767px;line-height:1.25;font-family:Consolas;-inkscape-font-specification:'Consolas Bold';text-align:center;letter-spacing:0px;word-spacing:0px;text-anchor:middle;fill:#ffffff;fill-opacity:1;stroke:none;stroke-width:0.26458332"
       id="text7715">
      <path
         d="m 36.570426,77.376503 v -1.975556 h 0.832556 v 0.191912 h -0.5842 v 0.677333 h 0.440266 v 0.191911 h -0.440266 v 0.9144 z"
         style="font-style:normal;font-variant:normal;font-weight:bold;font-stretch:normal;font-size:2.82222223px;font-family:Homenaje;-inkscape-font-specification:'Homenaje Bold';fill:#ffffff;fill-opacity:1;stroke-width:0.26458332"
         id="path8065" />
      <path
         d="m 37.667345,77.376503 v -1.975556 h 0.860777 v 0.191912 H 37.9157 v 0.632177 h 0.496711 v 0.191911 H 37.9157 v 0.767645 h 0.640645 v 0.191911 z"
         style="font-style:normal;font-variant:normal;font-weight:bold;font-stretch:normal;font-size:2.82222223px;font-family:Homenaje;-inkscape-font-specification:'Homenaje Bold';fill:#ffffff;fill-opacity:1;stroke-width:0.26458332"
         id="path8067" />
      <path
         d="m 38.874506,77.376503 v -1.975556 h 0.860778 v 0.191912 h -0.612422 v 0.632177 h 0.496711 v 0.191911 h -0.496711 v 0.767645 h 0.640644 v 0.191911 z"
         style="font-style:normal;font-variant:normal;font-weight:bold;font-stretch:normal;font-size:2.82222223px;font-family:Homenaje;-inkscape-font-specification:'Homenaje Bold';fill:#ffffff;fill-opacity:1;stroke-width:0.26458332"
         id="path8069" />
      <path
         d="m 40.330023,77.184592 h 0.239889 q 0.129822,0 0.208844,-0.07338 0.08185,-0.0762 0.08185,-0.200378 v -1.044222 q 0,-0.124178 -0.08185,-0.197555 -0.07902,-0.0762 -0.208844,-0.0762 h -0.239889 z m -0.251178,0.191911 v -1.975556 h 0.491067 q 0.256822,0 0.397933,0.129823 0.141111,0.129822 0.141111,0.381 v 0.953911 q 0,0.251178 -0.141111,0.381 -0.141111,0.127 -0.397933,0.129822 z"
         style="font-style:normal;font-variant:normal;font-weight:bold;font-stretch:normal;font-size:2.82222223px;font-family:Homenaje;-inkscape-font-specification:'Homenaje Bold';fill:#ffffff;fill-opacity:1;stroke-width:0.26458332"
         id="path8071" />
      <path
         d="m 41.686013,75.587214 v 0.640645 h 0.1778 q 0.169333,0 0.262466,-0.08467 0.09313,-0.08749 0.09313,-0.251178 0,-0.3048 -0.3556,-0.3048 z m 0.570088,0.739422 q 0.110067,0.05927 0.180623,0.1778 0.07338,0.118534 0.07338,0.239889 0,0.121356 -0.01129,0.194734 -0.01129,0.07338 -0.0508,0.160866 -0.03669,0.08467 -0.104423,0.141111 -0.1524,0.135467 -0.468489,0.135467 h -0.437444 v -1.975556 h 0.479778 q 0.262466,0 0.392289,0.121356 0.129822,0.118533 0.129822,0.375356 0,0.141111 -0.05362,0.259644 -0.0508,0.115711 -0.129823,0.169333 z m -0.395111,0.8636 q 0.412045,0 0.412045,-0.395111 0,-0.200378 -0.121356,-0.287866 -0.121355,-0.08749 -0.287866,-0.08749 h -0.1778 v 0.770466 z"
         style="font-style:normal;font-variant:normal;font-weight:bold;font-stretch:normal;font-size:2.82222223px;font-family:Homenaje;-inkscape-font-specification:'Homenaje Bold';fill:#ffffff;fill-opacity:1;stroke-width:0.26458332"
         id="path8073" />
      <path
         d="m 43.106516,75.400947 h 0.375356 l 0.428978,1.975556 h -0.231422 l -0.138289,-0.581378 h -0.513645 l -0.127,0.581378 h -0.239889 z m 0.392289,1.202267 -0.2032,-1.016 h -0.01976 l -0.206022,1.016 z"
         style="font-style:normal;font-variant:normal;font-weight:bold;font-stretch:normal;font-size:2.82222223px;font-family:Homenaje;-inkscape-font-specification:'Homenaje Bold';fill:#ffffff;fill-opacity:1;stroke-width:0.26458332"
         id="path8075" />
      <path
         d="m 45.00424,77.190236 v 0.186267 h -0.378177 q -0.256823,0 -0.397934,-0.129822 -0.141111,-0.129822 -0.141111,-0.381 V 75.91177 q 0,-0.251178 0.141111,-0.381 0.141111,-0.129823 0.397934,-0.129823 h 0.378177 v 0.186267 h -0.378177 q -0.129823,0 -0.211667,0.0762 -0.07902,0.07338 -0.07902,0.197556 v 1.055511 q 0,0.124178 0.07902,0.200378 0.08184,0.07338 0.211667,0.07338 z"
         style="font-style:normal;font-variant:normal;font-weight:bold;font-stretch:normal;font-size:2.82222223px;font-family:Homenaje;-inkscape-font-specification:'Homenaje Bold';fill:#ffffff;fill-opacity:1;stroke-width:0.26458332"
         id="path8077" />
      <path
         d="m 45.508492,77.376503 h -0.239889 v -1.975556 h 0.239889 v 0.8636 l 0.5842,-0.8636 h 0.245534 l -0.575734,0.880534 0.6604,1.095022 h -0.251177 l -0.553156,-0.920044 -0.110067,0.141111 z"
         style="font-style:normal;font-variant:normal;font-weight:bold;font-stretch:normal;font-size:2.82222223px;font-family:Homenaje;-inkscape-font-specification:'Homenaje Bold';fill:#ffffff;fill-opacity:1;stroke-width:0.26458332"
         id="path8079" />
    </g>
    <g
       aria-label="OUT"
       style="font-style:normal;font-variant:normal;font-weight:bold;font-stretch:normal;font-size:3.52777767px;line-height:1.25;font-family:Consolas;-inkscape-font-specification:'Consolas Bold';text-align:center;letter-spacing:0px;word-spacing:0px;text-anchor:middle;fill:#ffffff;fill-opacity:1;stroke:none;stroke-width:0.26458332"
       id="text7715-3">
      <path
         d="m 58.984043,138.781 q 0,0.23989 -0.138289,0.37535 -0.138289,0.13265 -0.403578,0.13265 -0.262466,0 -0.400755,-0.13265 -0.138289,-0.13546 -0.138289,-0.37535 v -0.99907 q 0,-0.23989 0.138289,-0.37253 0.138289,-0.13547 0.400755,-0.13547 0.265289,0 0.403578,0.13547 0.138289,0.13264 0.138289,0.37253 z m -0.832555,0.048 q 0,0.12983 0.08184,0.2032 0.08467,0.0706 0.208844,0.0706 0.124178,0 0.208845,-0.0706 0.08467,-0.0734 0.08467,-0.2032 v -1.09502 q 0,-0.12982 -0.08467,-0.20038 -0.08467,-0.0734 -0.208845,-0.0734 -0.124177,0 -0.208844,0.0734 -0.08184,0.0706 -0.08184,0.20038 z"
         style="font-style:normal;font-variant:normal;font-weight:bold;font-stretch:normal;font-size:2.82222223px;font-family:Homenaje;-inkscape-font-specification:'Homenaje Bold';fill:#ffffff;fill-opacity:1;stroke-width:0.26458332"
         id="path8082" />
      <path
         d="m 59.226049,137.29369 h 0.248355 v 1.53528 q 0,0.13547 0.06491,0.20603 0.06773,0.0677 0.186267,0.0677 0.118533,0 0.186267,-0.0677 0.06773,-0.0706 0.06773,-0.20603 v -1.53528 h 0.248355 v 1.48731 q 0,0.508 -0.502355,0.508 -0.499533,0 -0.499533,-0.508 z"
         style="font-style:normal;font-variant:normal;font-weight:bold;font-stretch:normal;font-size:2.82222223px;font-family:Homenaje;-inkscape-font-specification:'Homenaje Bold';fill:#ffffff;fill-opacity:1;stroke-width:0.26458332"
         id="path8084" />
      <path
         d="m 60.801995,139.26924 v -1.78929 h -0.395111 v -0.18626 h 1.038578 v 0.18626 h -0.395111 v 1.78929 z"
         style="font-style:normal;font-variant:normal;font-weight:bold;font-stretch:normal;font-size:2.82222223px;font-family:Homenaje;-inkscape-font-specification:'Homenaje Bold';fill:#ffffff;fill-opacity:1;stroke-width:0.26458332"
         id="path8086" />
    </g>
    <g
       aria-label="FILTER"
       style="font-style:normal;font-variant:normal;font-weight:bold;font-stretch:normal;font-size:3.52777767px;line-height:1.25;font-family:Consolas;-inkscape-font-specification:'Consolas Bold';text-align:center;letter-spacing:0px;word-spacing:0px;text-anchor:middle;fill:#ffffff;fill-opacity:1;stroke:none;stroke-width:0.26458332"
       id="text7715-6">
      <path
         d="m 44.620928,109.37134 v -1.97556 h 0.832555 v 0.19191 h -0.5842 v 0.67734 h 0.440267 v 0.19191 h -0.440267 v 0.9144 z"
         style="font-style:normal;font-variant:normal;font-weight:bold;font-stretch:normal;font-size:2.82222223px;font-family:Homenaje;-inkscape-font-specification:'Homenaje Bold';fill:#ffffff;fill-opacity:1;stroke-width:0.26458332"
         id="path8089" />
      <path
         d="m 45.717846,109.37134 v -1.97556 h 0.248356 v 1.97556 z"
         style="font-style:normal;font-variant:normal;font-weight:bold;font-stretch:normal;font-size:2.82222223px;font-family:Homenaje;-inkscape-font-specification:'Homenaje Bold';fill:#ffffff;fill-opacity:1;stroke-width:0.26458332"
         id="path8091" />
      <path
         d="m 46.379305,109.37134 v -1.97556 h 0.248355 v 1.78929 h 0.578556 v 0.18627 z"
         style="font-style:normal;font-variant:normal;font-weight:bold;font-stretch:normal;font-size:2.82222223px;font-family:Homenaje;-inkscape-font-specification:'Homenaje Bold';fill:#ffffff;fill-opacity:1;stroke-width:0.26458332"
         id="path8093" />
      <path
         d="m 47.567416,109.37134 v -1.78929 h -0.395111 v -0.18627 h 1.038578 v 0.18627 h -0.395111 v 1.78929 z"
         style="font-style:normal;font-variant:normal;font-weight:bold;font-stretch:normal;font-size:2.82222223px;font-family:Homenaje;-inkscape-font-specification:'Homenaje Bold';fill:#ffffff;fill-opacity:1;stroke-width:0.26458332"
         id="path8095" />
      <path
         d="m 48.473923,109.37134 v -1.97556 H 49.3347 v 0.19191 h -0.612422 v 0.63218 h 0.496711 v 0.19191 h -0.496711 v 0.76765 h 0.640645 v 0.19191 z"
         style="font-style:normal;font-variant:normal;font-weight:bold;font-stretch:normal;font-size:2.82222223px;font-family:Homenaje;-inkscape-font-specification:'Homenaje Bold';fill:#ffffff;fill-opacity:1;stroke-width:0.26458332"
         id="path8097" />
      <path
         d="m 49.92944,107.58205 v 0.7366 h 0.200377 q 0.160867,0 0.248356,-0.11007 0.09031,-0.11289 0.09031,-0.28786 0,-0.33867 -0.338667,-0.33867 z m -0.0056,0.92287 v 0.86642 h -0.242711 v -1.97556 h 0.522111 q 0.508,0 0.508,0.52494 0,0.19755 -0.0762,0.34431 -0.0762,0.14675 -0.217311,0.2032 l 0.392289,0.90311 h -0.242711 l -0.383822,-0.86642 z"
         style="font-style:normal;font-variant:normal;font-weight:bold;font-stretch:normal;font-size:2.82222223px;font-family:Homenaje;-inkscape-font-specification:'Homenaje Bold';fill:#ffffff;fill-opacity:1;stroke-width:0.26458332"
         id="path8099" />
    </g>
    <g
       aria-label="DELAY TIME"
       style="font-style:normal;font-variant:normal;font-weight:bold;font-stretch:normal;font-size:3.52777767px;line-height:1.25;font-family:Consolas;-inkscape-font-specification:'Consolas Bold';text-align:center;letter-spacing:0px;word-spacing:0px;text-anchor:middle;fill:#ffffff;fill-opacity:1;stroke:none;stroke-width:0.26458332"
       id="text7715-60">
      <path
         d="m 43.764875,57.83092 h 0.239889 q 0.129822,0 0.208844,-0.07338 0.08185,-0.0762 0.08185,-0.200378 v -1.044222 q 0,-0.124178 -0.08185,-0.197555 -0.07902,-0.0762 -0.208844,-0.0762 h -0.239889 z m -0.251178,0.191911 v -1.975556 h 0.491067 q 0.256822,0 0.397933,0.129823 0.141111,0.129822 0.141111,0.381 v 0.953911 q 0,0.251178 -0.141111,0.381 -0.141111,0.127 -0.397933,0.129822 z"
         style="font-style:normal;font-variant:normal;font-weight:bold;font-stretch:normal;font-size:2.82222223px;font-family:Homenaje;-inkscape-font-specification:'Homenaje Bold';fill:#ffffff;fill-opacity:1;stroke-width:0.26458332"
         id="path8102" />
      <path
         d="m 44.872509,58.022831 v -1.975556 h 0.860778 v 0.191912 h -0.612422 v 0.632177 h 0.496711 v 0.191911 h -0.496711 v 0.767645 h 0.640644 v 0.191911 z"
         style="font-style:normal;font-variant:normal;font-weight:bold;font-stretch:normal;font-size:2.82222223px;font-family:Homenaje;-inkscape-font-specification:'Homenaje Bold';fill:#ffffff;fill-opacity:1;stroke-width:0.26458332"
         id="path8104" />
      <path
         d="m 46.07967,58.022831 v -1.975556 h 0.248356 v 1.789289 h 0.578555 v 0.186267 z"
         style="font-style:normal;font-variant:normal;font-weight:bold;font-stretch:normal;font-size:2.82222223px;font-family:Homenaje;-inkscape-font-specification:'Homenaje Bold';fill:#ffffff;fill-opacity:1;stroke-width:0.26458332"
         id="path8106" />
      <path
         d="m 47.445362,56.047275 h 0.375355 l 0.428978,1.975556 h -0.231422 l -0.138289,-0.581378 h -0.513645 l -0.127,0.581378 H 46.99945 Z m 0.392288,1.202267 -0.2032,-1.016 h -0.01976 l -0.206022,1.016 z"
         style="font-style:normal;font-variant:normal;font-weight:bold;font-stretch:normal;font-size:2.82222223px;font-family:Homenaje;-inkscape-font-specification:'Homenaje Bold';fill:#ffffff;fill-opacity:1;stroke-width:0.26458332"
         id="path8108" />
      <path
         d="m 48.776701,58.022831 h -0.248356 v -0.784578 l -0.397933,-1.190978 h 0.248355 l 0.282223,0.934156 0.287866,-0.934156 h 0.248356 l -0.420511,1.190978 z"
         style="font-style:normal;font-variant:normal;font-weight:bold;font-stretch:normal;font-size:2.82222223px;font-family:Homenaje;-inkscape-font-specification:'Homenaje Bold';fill:#ffffff;fill-opacity:1;stroke-width:0.26458332"
         id="path8110" />
      <path
         d="m 50.029371,58.022831 v -1.789289 h -0.395112 v -0.186267 h 1.038578 v 0.186267 h -0.395111 v 1.789289 z"
         style="font-style:normal;font-variant:normal;font-weight:bold;font-stretch:normal;font-size:2.82222223px;font-family:Homenaje;-inkscape-font-specification:'Homenaje Bold';fill:#ffffff;fill-opacity:1;stroke-width:0.26458332"
         id="path8112" />
      <path
         d="m 50.935877,58.022831 v -1.975556 h 0.248356 v 1.975556 z"
         style="font-style:normal;font-variant:normal;font-weight:bold;font-stretch:normal;font-size:2.82222223px;font-family:Homenaje;-inkscape-font-specification:'Homenaje Bold';fill:#ffffff;fill-opacity:1;stroke-width:0.26458332"
         id="path8114" />
      <path
         d="m 51.817469,58.022831 h -0.248355 v -1.975556 h 0.375355 l 0.378178,1.1684 h 0.01975 l 0.386645,-1.1684 h 0.361244 v 1.975556 h -0.248355 v -1.679222 l -0.378178,1.154289 h -0.268111 l -0.378178,-1.157111 z"
         style="font-style:normal;font-variant:normal;font-weight:bold;font-stretch:normal;font-size:2.82222223px;font-family:Homenaje;-inkscape-font-specification:'Homenaje Bold';fill:#ffffff;fill-opacity:1;stroke-width:0.26458332"
         id="path8116" />
      <path
         d="m 53.471467,58.022831 v -1.975556 h 0.860778 v 0.191912 h -0.612422 v 0.632177 h 0.496711 v 0.191911 h -0.496711 v 0.767645 h 0.640644 v 0.191911 z"
         style="font-style:normal;font-variant:normal;font-weight:bold;font-stretch:normal;font-size:2.82222223px;font-family:Homenaje;-inkscape-font-specification:'Homenaje Bold';fill:#ffffff;fill-opacity:1;stroke-width:0.26458332"
         id="path8118" />
    </g>
    <g
       aria-label="STRING THEORY"
       style="font-style:normal;font-variant:normal;font-weight:bold;font-stretch:normal;font-size:3.52777767px;line-height:1.25;font-family:Consolas;-inkscape-font-specification:'Consolas Bold';text-align:center;letter-spacing:0px;word-spacing:0px;text-anchor:middle;fill:#ffffff;fill-opacity:1;stroke:none;stroke-width:0.26458332"
       id="text7715-60-0">
      <path
         d="m 39.710215,53.804732 q 0.221191,0 0.318205,-0.131939 0.100895,-0.131939 0.100895,-0.306564 0,-0.174625 -0.06597,-0.294922 -0.06209,-0.124178 -0.159102,-0.194028 -0.09701,-0.07373 -0.20955,-0.159103 -0.112537,-0.08537 -0.20955,-0.162983 -0.09701,-0.08149 -0.162984,-0.217311 -0.06209,-0.13582 -0.06209,-0.310445 0,-0.310444 0.186267,-0.496711 0.186267,-0.186267 0.516114,-0.186267 h 0.314325 v 0.256117 h -0.298803 q -0.186267,0 -0.28328,0.120297 -0.09701,0.120297 -0.09701,0.259997 0,0.1397 0.06209,0.240595 0.06597,0.100894 0.162983,0.166864 0.09701,0.06597 0.20955,0.155222 0.116417,0.08925 0.21343,0.182386 0.09701,0.08925 0.159103,0.244475 0.06597,0.155222 0.06597,0.353131 0,0.364772 -0.20955,0.551039 -0.20567,0.186266 -0.566561,0.186266 h -0.407459 v -0.256116 z"
         style="font-style:normal;font-variant:normal;font-weight:bold;font-stretch:normal;font-size:3.88055563px;font-family:Homenaje;-inkscape-font-specification:'Homenaje Bold';fill:#ffffff;fill-opacity:1;stroke-width:0.26458332"
         id="path8121" />
      <path
         d="m 41.187251,54.060848 v -2.460272 h -0.543278 v -0.256117 h 1.428045 v 0.256117 H 41.52874 v 2.460272 z"
         style="font-style:normal;font-variant:normal;font-weight:bold;font-stretch:normal;font-size:3.88055563px;font-family:Homenaje;-inkscape-font-specification:'Homenaje Bold';fill:#ffffff;fill-opacity:1;stroke-width:0.26458332"
         id="path8123" />
      <path
         d="m 42.775187,51.600576 v 1.012825 h 0.275519 q 0.221192,0 0.341489,-0.151342 0.124178,-0.155222 0.124178,-0.395816 0,-0.465667 -0.465667,-0.465667 z m -0.0078,1.268942 v 1.19133 h -0.333728 v -2.716389 h 0.717903 q 0.6985,0 0.6985,0.721784 0,0.271639 -0.104775,0.473427 -0.104775,0.201789 -0.298803,0.2794 l 0.539397,1.241778 h -0.333728 l -0.527755,-1.19133 z"
         style="font-style:normal;font-variant:normal;font-weight:bold;font-stretch:normal;font-size:3.88055563px;font-family:Homenaje;-inkscape-font-specification:'Homenaje Bold';fill:#ffffff;fill-opacity:1;stroke-width:0.26458332"
         id="path8125" />
      <path
         d="m 44.343659,54.060848 v -2.716389 h 0.341489 v 2.716389 z"
         style="font-style:normal;font-variant:normal;font-weight:bold;font-stretch:normal;font-size:3.88055563px;font-family:Homenaje;-inkscape-font-specification:'Homenaje Bold';fill:#ffffff;fill-opacity:1;stroke-width:0.26458332"
         id="path8127" />
      <path
         d="m 46.770461,54.060848 h -0.48895 l -0.717903,-2.468033 v 2.468033 h -0.341489 v -2.716389 h 0.570442 l 0.632531,2.347736 v -2.347736 h 0.345369 z"
         style="font-style:normal;font-variant:normal;font-weight:bold;font-stretch:normal;font-size:3.88055563px;font-family:Homenaje;-inkscape-font-specification:'Homenaje Bold';fill:#ffffff;fill-opacity:1;stroke-width:0.26458332"
         id="path8129" />
      <path
         d="M 48.618758,54.060848 H 47.9319 q -0.353131,0 -0.547158,-0.178505 -0.194028,-0.178506 -0.194028,-0.523875 v -1.315509 q 0,-0.341489 0.20955,-0.519994 0.20955,-0.178506 0.570441,-0.178506 h 0.570442 v 0.259998 H 47.9319 q -0.178506,0 -0.291042,0.104775 -0.108655,0.100894 -0.108655,0.271638 v 1.447448 q 0,0.174625 0.104775,0.275519 0.104775,0.100895 0.2794,0.100895 h 0.360891 v -1.067153 h -0.34925 v -0.256117 h 0.690739 z"
         style="font-style:normal;font-variant:normal;font-weight:bold;font-stretch:normal;font-size:3.88055563px;font-family:Homenaje;-inkscape-font-specification:'Homenaje Bold';fill:#ffffff;fill-opacity:1;stroke-width:0.26458332"
         id="path8131" />
      <path
         d="m 50.017031,54.060848 v -2.460272 h -0.543278 v -0.256117 h 1.428045 v 0.256117 H 50.35852 v 2.460272 z"
         style="font-style:normal;font-variant:normal;font-weight:bold;font-stretch:normal;font-size:3.88055563px;font-family:Homenaje;-inkscape-font-specification:'Homenaje Bold';fill:#ffffff;fill-opacity:1;stroke-width:0.26458332"
         id="path8133" />
      <path
         d="m 52.377197,52.74922 h -0.77223 v 1.311628 h -0.341489 v -2.716389 h 0.341489 v 1.148645 h 0.77223 v -1.148645 h 0.341489 v 2.716389 h -0.341489 z"
         style="font-style:normal;font-variant:normal;font-weight:bold;font-stretch:normal;font-size:3.88055563px;font-family:Homenaje;-inkscape-font-specification:'Homenaje Bold';fill:#ffffff;fill-opacity:1;stroke-width:0.26458332"
         id="path8135" />
      <path
         d="m 53.287127,54.060848 v -2.716389 h 1.18357 v 0.263878 h -0.842081 v 0.869245 h 0.682978 v 0.263877 h -0.682978 v 1.055511 h 0.880886 v 0.263878 z"
         style="font-style:normal;font-variant:normal;font-weight:bold;font-stretch:normal;font-size:3.88055563px;font-family:Homenaje;-inkscape-font-specification:'Homenaje Bold';fill:#ffffff;fill-opacity:1;stroke-width:0.26458332"
         id="path8137" />
      <path
         d="m 56.31681,53.389512 q 0,0.329847 -0.190147,0.516114 -0.190147,0.182386 -0.554919,0.182386 -0.360892,0 -0.551039,-0.182386 -0.190147,-0.186267 -0.190147,-0.516114 v -1.373717 q 0,-0.329847 0.190147,-0.512233 0.190147,-0.186267 0.551039,-0.186267 0.364772,0 0.554919,0.186267 0.190147,0.182386 0.190147,0.512233 z m -1.144763,0.06597 q 0,0.178505 0.112536,0.2794 0.116416,0.09701 0.287161,0.09701 0.170744,0 0.287161,-0.09701 0.116417,-0.100895 0.116417,-0.2794 v -1.505656 q 0,-0.178506 -0.116417,-0.275519 -0.116417,-0.100895 -0.287161,-0.100895 -0.170745,0 -0.287161,0.100895 -0.112536,0.09701 -0.112536,0.275519 z"
         style="font-style:normal;font-variant:normal;font-weight:bold;font-stretch:normal;font-size:3.88055563px;font-family:Homenaje;-inkscape-font-specification:'Homenaje Bold';fill:#ffffff;fill-opacity:1;stroke-width:0.26458332"
         id="path8139" />
      <path
         d="m 57.107474,51.600576 v 1.012825 h 0.275519 q 0.221192,0 0.341489,-0.151342 0.124178,-0.155222 0.124178,-0.395816 0,-0.465667 -0.465667,-0.465667 z m -0.0078,1.268942 v 1.19133 h -0.333728 v -2.716389 h 0.717903 q 0.6985,0 0.6985,0.721784 0,0.271639 -0.104775,0.473427 -0.104775,0.201789 -0.298803,0.2794 l 0.539397,1.241778 H 57.98448 l -0.527756,-1.19133 z"
         style="font-style:normal;font-variant:normal;font-weight:bold;font-stretch:normal;font-size:3.88055563px;font-family:Homenaje;-inkscape-font-specification:'Homenaje Bold';fill:#ffffff;fill-opacity:1;stroke-width:0.26458332"
         id="path8141" />
      <path
         d="M 59.254148,54.060848 H 58.912659 V 52.982054 L 58.3655,51.344459 h 0.341489 l 0.388056,1.284464 0.395817,-1.284464 h 0.341488 l -0.578202,1.637595 z"
         style="font-style:normal;font-variant:normal;font-weight:bold;font-stretch:normal;font-size:3.88055563px;font-family:Homenaje;-inkscape-font-specification:'Homenaje Bold';fill:#ffffff;fill-opacity:1;stroke-width:0.26458332"
         id="path8143" />
    </g>
    <g
       aria-label="SEND"
       style="font-style:normal;font-variant:normal;font-weight:bold;font-stretch:normal;font-size:3.52777767px;line-height:1.25;font-family:Consolas;-inkscape-font-specification:'Consolas Bold';text-align:center;letter-spacing:0px;word-spacing:0px;text-anchor:middle;fill:#ffffff;fill-opacity:1;stroke:none;stroke-width:0.26458332"
       id="text7715-3-0">
      <path
         d="m 48.969433,76.972223 q 0.12065,0 0.173566,-0.07197 0.05503,-0.07197 0.05503,-0.167217 0,-0.09525 -0.03598,-0.160867 -0.03387,-0.06773 -0.08678,-0.105833 -0.05292,-0.04022 -0.1143,-0.08678 -0.06138,-0.04657 -0.1143,-0.0889 -0.05292,-0.04445 -0.0889,-0.118534 -0.03387,-0.07408 -0.03387,-0.169333 0,-0.169334 0.1016,-0.270934 0.1016,-0.1016 0.281517,-0.1016 h 0.17145 v 0.1397 h -0.162983 q -0.1016,0 -0.154517,0.06562 -0.05292,0.06562 -0.05292,0.141817 0,0.0762 0.03387,0.131233 0.03598,0.05503 0.0889,0.09102 0.05292,0.03598 0.1143,0.08467 0.0635,0.04868 0.116417,0.09948 0.05292,0.04868 0.08678,0.13335 0.03598,0.08467 0.03598,0.192617 0,0.198966 -0.1143,0.300566 -0.112183,0.1016 -0.309033,0.1016 h -0.22225 v -0.1397 z"
         style="font-style:normal;font-variant:normal;font-weight:bold;font-stretch:normal;font-size:2.11666679px;font-family:Homenaje;-inkscape-font-specification:'Homenaje Bold';fill:#ffffff;fill-opacity:1;stroke-width:0.26458332"
         id="path8146" />
      <path
         d="m 49.590939,77.111923 v -1.481667 h 0.645583 v 0.143934 h -0.459316 v 0.474133 h 0.372533 v 0.143934 h -0.372533 v 0.575733 h 0.480483 v 0.143933 z"
         style="font-style:normal;font-variant:normal;font-weight:bold;font-stretch:normal;font-size:2.11666679px;font-family:Homenaje;-inkscape-font-specification:'Homenaje Bold';fill:#ffffff;fill-opacity:1;stroke-width:0.26458332"
         id="path8148" />
      <path
         d="m 51.323927,77.111923 h -0.2667 l -0.391584,-1.3462 v 1.3462 h -0.186266 v -1.481667 h 0.31115 l 0.345016,1.280584 v -1.280584 h 0.188384 z"
         style="font-style:normal;font-variant:normal;font-weight:bold;font-stretch:normal;font-size:2.11666679px;font-family:Homenaje;-inkscape-font-specification:'Homenaje Bold';fill:#ffffff;fill-opacity:1;stroke-width:0.26458332"
         id="path8150" />
      <path
         d="m 51.802922,76.96799 h 0.179917 q 0.09737,0 0.156633,-0.05503 0.06138,-0.05715 0.06138,-0.150284 v -0.783167 q 0,-0.09313 -0.06138,-0.148166 -0.05927,-0.05715 -0.156633,-0.05715 h -0.179917 z m -0.188384,0.143933 v -1.481667 h 0.368301 q 0.192616,0 0.29845,0.09737 0.105833,0.09737 0.105833,0.28575 v 0.715434 q 0,0.188383 -0.105833,0.28575 -0.105834,0.09525 -0.29845,0.09737 z"
         style="font-style:normal;font-variant:normal;font-weight:bold;font-stretch:normal;font-size:2.11666679px;font-family:Homenaje;-inkscape-font-specification:'Homenaje Bold';fill:#ffffff;fill-opacity:1;stroke-width:0.26458332"
         id="path8152" />
    </g>
    <g
       aria-label="RETURN"
       style="font-style:normal;font-variant:normal;font-weight:bold;font-stretch:normal;font-size:3.52777767px;line-height:1.25;font-family:Consolas;-inkscape-font-specification:'Consolas Bold';text-align:center;letter-spacing:0px;word-spacing:0px;text-anchor:middle;fill:#ffffff;fill-opacity:1;stroke:none;stroke-width:0.26458332"
       id="text7715-3-0-5">
      <path
         d="m 55.868831,75.730444 v 0.55245 h 0.150283 q 0.12065,0 0.186267,-0.08255 0.06773,-0.08467 0.06773,-0.2159 0,-0.254 -0.254,-0.254 z m -0.0042,0.69215 v 0.649817 h -0.182034 v -1.481667 h 0.391584 q 0.381,0 0.381,0.3937 0,0.148167 -0.05715,0.258233 -0.05715,0.110067 -0.162984,0.1524 l 0.294217,0.677334 h -0.182033 l -0.287867,-0.649817 z"
         style="font-style:normal;font-variant:normal;font-weight:bold;font-stretch:normal;font-size:2.11666679px;font-family:Homenaje;-inkscape-font-specification:'Homenaje Bold';fill:#ffffff;fill-opacity:1;stroke-width:0.26458332"
         id="path8155" />
      <path
         d="m 56.724361,77.072411 v -1.481667 h 0.645583 v 0.143933 h -0.459316 v 0.474134 h 0.372533 v 0.143933 h -0.372533 v 0.575733 h 0.480483 v 0.143934 z"
         style="font-style:normal;font-variant:normal;font-weight:bold;font-stretch:normal;font-size:2.11666679px;font-family:Homenaje;-inkscape-font-specification:'Homenaje Bold';fill:#ffffff;fill-opacity:1;stroke-width:0.26458332"
         id="path8157" />
      <path
         d="m 57.813882,77.072411 v -1.341967 h -0.296333 v -0.1397 h 0.778933 v 0.1397 h -0.296333 v 1.341967 z"
         style="font-style:normal;font-variant:normal;font-weight:bold;font-stretch:normal;font-size:2.11666679px;font-family:Homenaje;-inkscape-font-specification:'Homenaje Bold';fill:#ffffff;fill-opacity:1;stroke-width:0.26458332"
         id="path8159" />
      <path
         d="m 58.430262,75.590744 h 0.186267 v 1.151467 q 0,0.1016 0.04868,0.154516 0.0508,0.0508 0.1397,0.0508 0.0889,0 0.1397,-0.0508 0.0508,-0.05292 0.0508,-0.154516 v -1.151467 h 0.186267 v 1.115483 q 0,0.381 -0.376767,0.381 -0.37465,0 -0.37465,-0.381 z"
         style="font-style:normal;font-variant:normal;font-weight:bold;font-stretch:normal;font-size:2.11666679px;font-family:Homenaje;-inkscape-font-specification:'Homenaje Bold';fill:#ffffff;fill-opacity:1;stroke-width:0.26458332"
         id="path8161" />
      <path
         d="m 59.614339,75.730444 v 0.55245 h 0.150283 q 0.12065,0 0.186267,-0.08255 0.06773,-0.08467 0.06773,-0.2159 0,-0.254 -0.254,-0.254 z m -0.0042,0.69215 v 0.649817 h -0.182033 v -1.481667 h 0.391583 q 0.381001,0 0.381001,0.3937 0,0.148167 -0.05715,0.258233 -0.05715,0.110067 -0.162984,0.1524 l 0.294217,0.677334 h -0.182033 l -0.287867,-0.649817 z"
         style="font-style:normal;font-variant:normal;font-weight:bold;font-stretch:normal;font-size:2.11666679px;font-family:Homenaje;-inkscape-font-specification:'Homenaje Bold';fill:#ffffff;fill-opacity:1;stroke-width:0.26458332"
         id="path8163" />
      <path
         d="m 61.297486,77.072411 h -0.2667 l -0.391584,-1.3462 v 1.3462 h -0.186266 v -1.481667 h 0.31115 l 0.345016,1.280583 v -1.280583 h 0.188384 z"
         style="font-style:normal;font-variant:normal;font-weight:bold;font-stretch:normal;font-size:2.11666679px;font-family:Homenaje;-inkscape-font-specification:'Homenaje Bold';fill:#ffffff;fill-opacity:1;stroke-width:0.26458332"
         id="path8165" />
    </g>
    <g
       aria-label="EXT. IN"
       style="font-style:normal;font-variant:normal;font-weight:bold;font-stretch:normal;font-size:3.52777767px;line-height:1.25;font-family:Consolas;-inkscape-font-specification:'Consolas Bold';text-align:center;letter-spacing:0px;word-spacing:0px;text-anchor:middle;fill:#ffffff;fill-opacity:1;stroke:none;stroke-width:0.26458332"
       id="text7715-3-8">
      <path
         d="m 47.581738,139.289 v -1.97555 h 0.860778 v 0.19191 h -0.612422 v 0.63217 h 0.496711 v 0.19192 h -0.496711 v 0.76764 h 0.640644 v 0.19191 z"
         style="font-style:normal;font-variant:normal;font-weight:bold;font-stretch:normal;font-size:2.82222223px;font-family:Homenaje;-inkscape-font-specification:'Homenaje Bold';fill:#ffffff;fill-opacity:1;stroke-width:0.26458332"
         id="path8168" />
      <path
         d="m 49.254566,138.49878 -0.338667,0.79022 h -0.248355 l 0.445911,-1.03858 -0.389467,-0.93697 h 0.248356 l 0.282222,0.68015 0.287867,-0.68015 h 0.248355 l -0.409222,0.93697 0.4572,1.03858 h -0.251178 z"
         style="font-style:normal;font-variant:normal;font-weight:bold;font-stretch:normal;font-size:2.82222223px;font-family:Homenaje;-inkscape-font-specification:'Homenaje Bold';fill:#ffffff;fill-opacity:1;stroke-width:0.26458332"
         id="path8170" />
      <path
         d="m 50.373886,139.289 v -1.78929 h -0.395111 v -0.18626 h 1.038578 v 0.18626 h -0.395111 v 1.78929 z"
         style="font-style:normal;font-variant:normal;font-weight:bold;font-stretch:normal;font-size:2.82222223px;font-family:Homenaje;-inkscape-font-specification:'Homenaje Bold';fill:#ffffff;fill-opacity:1;stroke-width:0.26458332"
         id="path8172" />
      <path
         d="m 51.190081,139.289 v -0.29069 h 0.225778 v 0.29069 z"
         style="font-style:normal;font-variant:normal;font-weight:bold;font-stretch:normal;font-size:2.82222223px;font-family:Homenaje;-inkscape-font-specification:'Homenaje Bold';fill:#ffffff;fill-opacity:1;stroke-width:0.26458332"
         id="path8174" />
      <path
         d="m 52.19541,139.289 v -1.97555 h 0.248355 v 1.97555 z"
         style="font-style:normal;font-variant:normal;font-weight:bold;font-stretch:normal;font-size:2.82222223px;font-family:Homenaje;-inkscape-font-specification:'Homenaje Bold';fill:#ffffff;fill-opacity:1;stroke-width:0.26458332"
         id="path8176" />
      <path
         d="m 53.960357,139.289 h -0.3556 l -0.522111,-1.79493 v 1.79493 h -0.248355 v -1.97555 h 0.414866 l 0.460022,1.70744 v -1.70744 h 0.251178 z"
         style="font-style:normal;font-variant:normal;font-weight:bold;font-stretch:normal;font-size:2.82222223px;font-family:Homenaje;-inkscape-font-specification:'Homenaje Bold';fill:#ffffff;fill-opacity:1;stroke-width:0.26458332"
         id="path8178" />
    </g>
    <g
       aria-label="COARSE"
       style="font-style:normal;font-variant:normal;font-weight:bold;font-stretch:normal;font-size:3.52777767px;line-height:1.25;font-family:Consolas;-inkscape-font-specification:'Consolas Bold';text-align:center;letter-spacing:0px;word-spacing:0px;text-anchor:middle;fill:#ffffff;fill-opacity:1;stroke:none;stroke-width:0.26458332"
       id="text7715-3-0-8">
      <path
         d="m 37.421713,60.15056 v 0.1397 H 37.13808 q -0.192617,0 -0.29845,-0.09737 -0.105833,-0.09737 -0.105833,-0.28575 V 59.19171 q 0,-0.188383 0.105833,-0.28575 0.105833,-0.09737 0.29845,-0.09737 h 0.283633 v 0.1397 H 37.13808 q -0.09737,0 -0.15875,0.05715 -0.05927,0.05503 -0.05927,0.148166 v 0.791634 q 0,0.09313 0.05927,0.150283 0.06138,0.05503 0.15875,0.05503 z"
         style="font-style:normal;font-variant:normal;font-weight:bold;font-stretch:normal;font-size:2.11666679px;font-family:Homenaje;-inkscape-font-specification:'Homenaje Bold';fill:#ffffff;fill-opacity:1;stroke-width:0.26458332"
         id="path8181" />
      <path
         d="m 38.367169,59.924077 q 0,0.179917 -0.103717,0.281517 -0.103717,0.09948 -0.302683,0.09948 -0.19685,0 -0.300567,-0.09948 -0.103717,-0.1016 -0.103717,-0.281517 v -0.7493 q 0,-0.179917 0.103717,-0.2794 0.103717,-0.1016 0.300567,-0.1016 0.198966,0 0.302683,0.1016 0.103717,0.09948 0.103717,0.2794 z m -0.624417,0.03598 q 0,0.09737 0.06138,0.1524 0.0635,0.05292 0.156634,0.05292 0.09313,0 0.156633,-0.05292 0.0635,-0.05503 0.0635,-0.1524 v -0.821266 q 0,-0.09737 -0.0635,-0.150284 -0.0635,-0.05503 -0.156633,-0.05503 -0.09313,0 -0.156634,0.05503 -0.06138,0.05292 -0.06138,0.150284 z"
         style="font-style:normal;font-variant:normal;font-weight:bold;font-stretch:normal;font-size:2.11666679px;font-family:Homenaje;-inkscape-font-specification:'Homenaje Bold';fill:#ffffff;fill-opacity:1;stroke-width:0.26458332"
         id="path8183" />
      <path
         d="m 38.834423,58.808594 h 0.281517 l 0.321733,1.481666 H 39.264106 L 39.16039,59.854227 h -0.385234 l -0.09525,0.436033 H 38.49999 Z m 0.294217,0.9017 -0.1524,-0.762 h -0.01482 l -0.154517,0.762 z"
         style="font-style:normal;font-variant:normal;font-weight:bold;font-stretch:normal;font-size:2.11666679px;font-family:Homenaje;-inkscape-font-specification:'Homenaje Bold';fill:#ffffff;fill-opacity:1;stroke-width:0.26458332"
         id="path8185" />
      <path
         d="m 39.819566,58.948294 v 0.55245 h 0.150283 q 0.12065,0 0.186267,-0.08255 0.06773,-0.08467 0.06773,-0.2159 0,-0.254 -0.254,-0.254 z m -0.0042,0.69215 v 0.649816 h -0.182034 v -1.481666 h 0.391584 q 0.381,0 0.381,0.3937 0,0.148166 -0.05715,0.258233 -0.05715,0.110067 -0.162984,0.1524 l 0.294217,0.677333 h -0.182033 l -0.287867,-0.649816 z"
         style="font-style:normal;font-variant:normal;font-weight:bold;font-stretch:normal;font-size:2.11666679px;font-family:Homenaje;-inkscape-font-specification:'Homenaje Bold';fill:#ffffff;fill-opacity:1;stroke-width:0.26458332"
         id="path8187" />
      <path
         d="m 40.880413,60.15056 q 0.12065,0 0.173567,-0.07197 0.05503,-0.07197 0.05503,-0.167217 0,-0.09525 -0.03598,-0.160867 -0.03387,-0.06773 -0.08678,-0.105833 -0.05292,-0.04022 -0.1143,-0.08678 -0.06138,-0.04657 -0.1143,-0.0889 -0.05292,-0.04445 -0.0889,-0.118534 -0.03387,-0.07408 -0.03387,-0.169333 0,-0.169333 0.1016,-0.270933 0.1016,-0.1016 0.281516,-0.1016 h 0.17145 v 0.1397 h -0.162983 q -0.1016,0 -0.154517,0.06562 -0.05292,0.06562 -0.05292,0.141817 0,0.0762 0.03387,0.131233 0.03598,0.05503 0.0889,0.09102 0.05292,0.03598 0.1143,0.08467 0.0635,0.04868 0.116417,0.09948 0.05292,0.04868 0.08678,0.13335 0.03598,0.08467 0.03598,0.192617 0,0.198966 -0.1143,0.300566 -0.112184,0.1016 -0.309034,0.1016 h -0.22225 v -0.1397 z"
         style="font-style:normal;font-variant:normal;font-weight:bold;font-stretch:normal;font-size:2.11666679px;font-family:Homenaje;-inkscape-font-specification:'Homenaje Bold';fill:#ffffff;fill-opacity:1;stroke-width:0.26458332"
         id="path8189" />
      <path
         d="m 41.501919,60.29026 v -1.481666 h 0.645584 v 0.143933 h -0.459317 v 0.474133 h 0.372533 v 0.143934 h -0.372533 v 0.575733 h 0.480483 v 0.143933 z"
         style="font-style:normal;font-variant:normal;font-weight:bold;font-stretch:normal;font-size:2.11666679px;font-family:Homenaje;-inkscape-font-specification:'Homenaje Bold';fill:#ffffff;fill-opacity:1;stroke-width:0.26458332"
         id="path8191" />
    </g>
    <g
       aria-label="FINE "
       style="font-style:normal;font-variant:normal;font-weight:bold;font-stretch:normal;font-size:3.52777767px;line-height:1.25;font-family:Consolas;-inkscape-font-specification:'Consolas Bold';text-align:center;letter-spacing:0px;word-spacing:0px;text-anchor:middle;fill:#ffffff;fill-opacity:1;stroke:none;stroke-width:0.26458332"
       id="text7715-3-0-8-0">
      <path
         d="m 47.31714,60.443161 v -1.481667 h 0.624417 v 0.143934 h -0.43815 v 0.508 h 0.3302 v 0.143933 h -0.3302 v 0.6858 z"
         style="font-style:normal;font-variant:normal;font-weight:bold;font-stretch:normal;font-size:2.11666679px;font-family:Homenaje;-inkscape-font-specification:'Homenaje Bold';fill:#ffffff;fill-opacity:1;stroke-width:0.26458332"
         id="path8194" />
      <path
         d="m 48.139829,60.443161 v -1.481667 h 0.186267 v 1.481667 z"
         style="font-style:normal;font-variant:normal;font-weight:bold;font-stretch:normal;font-size:2.11666679px;font-family:Homenaje;-inkscape-font-specification:'Homenaje Bold';fill:#ffffff;fill-opacity:1;stroke-width:0.26458332"
         id="path8196" />
      <path
         d="m 49.46354,60.443161 h -0.2667 l -0.391584,-1.3462 v 1.3462 H 48.61899 v -1.481667 h 0.31115 l 0.345016,1.280584 v -1.280584 h 0.188384 z"
         style="font-style:normal;font-variant:normal;font-weight:bold;font-stretch:normal;font-size:2.11666679px;font-family:Homenaje;-inkscape-font-specification:'Homenaje Bold';fill:#ffffff;fill-opacity:1;stroke-width:0.26458332"
         id="path8198" />
      <path
         d="m 49.756268,60.443161 v -1.481667 h 0.645583 v 0.143934 h -0.459316 v 0.474133 h 0.372533 v 0.143933 h -0.372533 v 0.575734 h 0.480483 v 0.143933 z"
         style="font-style:normal;font-variant:normal;font-weight:bold;font-stretch:normal;font-size:2.11666679px;font-family:Homenaje;-inkscape-font-specification:'Homenaje Bold';fill:#ffffff;fill-opacity:1;stroke-width:0.26458332"
         id="path8200" />
    </g>
    <g
       aria-label="PLUCK"
       style="font-style:normal;font-variant:normal;font-weight:bold;font-stretch:normal;font-size:3.52777767px;line-height:1.25;font-family:Consolas;-inkscape-font-specification:'Consolas Bold';text-align:center;letter-spacing:0px;word-spacing:0px;text-anchor:middle;fill:#ffffff;fill-opacity:1;stroke:none;stroke-width:0.26458332"
       id="text7715-6-1">
      <path
         d="m 38.495095,128.48413 v 0.73378 h 0.180622 q 0.160867,0 0.248356,-0.11007 0.09031,-0.11006 0.09031,-0.28504 0,-0.33867 -0.338667,-0.33867 z m 0.767644,0.33867 q 0,0.27376 -0.149578,0.42898 -0.146755,0.1524 -0.420511,0.1524 h -0.197555 v 0.86924 h -0.248356 v -1.97555 h 0.499534 q 0.516466,0 0.516466,0.52493 z"
         style="font-style:normal;font-variant:normal;font-weight:bold;font-stretch:normal;font-size:2.82222223px;font-family:Homenaje;-inkscape-font-specification:'Homenaje Bold';fill:#ffffff;fill-opacity:1;stroke-width:0.26458332"
         id="path8203" />
      <path
         d="m 39.525559,130.27342 v -1.97555 h 0.248355 v 1.78929 h 0.578556 v 0.18626 z"
         style="font-style:normal;font-variant:normal;font-weight:bold;font-stretch:normal;font-size:2.82222223px;font-family:Homenaje;-inkscape-font-specification:'Homenaje Bold';fill:#ffffff;fill-opacity:1;stroke-width:0.26458332"
         id="path8205" />
      <path
         d="m 40.510249,128.29787 h 0.248356 v 1.53529 q 0,0.13546 0.06491,0.20602 0.06773,0.0677 0.186267,0.0677 0.118533,0 0.186266,-0.0677 0.06773,-0.0706 0.06773,-0.20602 v -1.53529 h 0.248355 v 1.48731 q 0,0.508 -0.502355,0.508 -0.499534,0 -0.499534,-0.508 z"
         style="font-style:normal;font-variant:normal;font-weight:bold;font-stretch:normal;font-size:2.82222223px;font-family:Homenaje;-inkscape-font-specification:'Homenaje Bold';fill:#ffffff;fill-opacity:1;stroke-width:0.26458332"
         id="path8207" />
      <path
         d="m 42.673218,130.08716 v 0.18626 h -0.378177 q -0.256823,0 -0.397934,-0.12982 -0.141111,-0.12982 -0.141111,-0.381 v -0.95391 q 0,-0.25118 0.141111,-0.381 0.141111,-0.12982 0.397934,-0.12982 h 0.378177 v 0.18626 h -0.378177 q -0.129823,0 -0.211667,0.0762 -0.07902,0.0734 -0.07902,0.19756 v 1.05551 q 0,0.12418 0.07902,0.20038 0.08184,0.0734 0.211667,0.0734 z"
         style="font-style:normal;font-variant:normal;font-weight:bold;font-stretch:normal;font-size:2.82222223px;font-family:Homenaje;-inkscape-font-specification:'Homenaje Bold';fill:#ffffff;fill-opacity:1;stroke-width:0.26458332"
         id="path8209" />
      <path
         d="m 43.17747,130.27342 h -0.239889 v -1.97555 h 0.239889 v 0.8636 l 0.5842,-0.8636 h 0.245534 l -0.575734,0.88053 0.6604,1.09502 h -0.251178 l -0.553155,-0.92004 -0.110067,0.14111 z"
         style="font-style:normal;font-variant:normal;font-weight:bold;font-stretch:normal;font-size:2.82222223px;font-family:Homenaje;-inkscape-font-specification:'Homenaje Bold';fill:#ffffff;fill-opacity:1;stroke-width:0.26458332"
         id="path8211" />
    </g>
    <g
       aria-label="V/OCT"
       style="font-style:normal;font-variant:normal;font-weight:bold;font-stretch:normal;font-size:3.52777767px;line-height:1.25;font-family:Consolas;-inkscape-font-specification:'Consolas Bold';text-align:center;letter-spacing:0px;word-spacing:0px;text-anchor:middle;fill:#ffffff;fill-opacity:1;stroke:none;stroke-width:0.26458332"
       id="text7715-3-0-8-3">
      <path
         d="m 38.256422,139.10478 0.2921,-1.31234 h 0.18415 l -0.34925,1.48167 h -0.249766 l -0.3556,-1.48167 h 0.18415 z"
         style="font-style:normal;font-variant:normal;font-weight:bold;font-stretch:normal;font-size:2.11666679px;font-family:Homenaje;-inkscape-font-specification:'Homenaje Bold';fill:#ffffff;fill-opacity:1;stroke-width:0.26458332"
         id="path8214" />
      <path
         d="m 39.026294,139.27411 h -0.18415 l 0.579967,-1.48167 h 0.173566 z"
         style="font-style:normal;font-variant:normal;font-weight:bold;font-stretch:normal;font-size:2.11666679px;font-family:Homenaje;-inkscape-font-specification:'Homenaje Bold';fill:#ffffff;fill-opacity:1;stroke-width:0.26458332"
         id="path8216" />
      <path
         d="m 40.542753,138.90793 q 0,0.17991 -0.103716,0.28151 -0.103717,0.0995 -0.302684,0.0995 -0.19685,0 -0.300566,-0.0995 -0.103717,-0.1016 -0.103717,-0.28151 v -0.7493 q 0,-0.17992 0.103717,-0.2794 0.103716,-0.1016 0.300566,-0.1016 0.198967,0 0.302684,0.1016 0.103716,0.0995 0.103716,0.2794 z m -0.624416,0.036 q 0,0.0974 0.06138,0.1524 0.0635,0.0529 0.156633,0.0529 0.09313,0 0.156634,-0.0529 0.0635,-0.055 0.0635,-0.1524 v -0.82127 q 0,-0.0974 -0.0635,-0.15028 -0.0635,-0.055 -0.156634,-0.055 -0.09313,0 -0.156633,0.055 -0.06138,0.0529 -0.06138,0.15028 z"
         style="font-style:normal;font-variant:normal;font-weight:bold;font-stretch:normal;font-size:2.11666679px;font-family:Homenaje;-inkscape-font-specification:'Homenaje Bold';fill:#ffffff;fill-opacity:1;stroke-width:0.26458332"
         id="path8218" />
      <path
         d="m 41.412174,139.13441 v 0.1397 h -0.283633 q -0.192617,0 -0.29845,-0.0974 -0.105834,-0.0974 -0.105834,-0.28575 v -0.71543 q 0,-0.18838 0.105834,-0.28575 0.105833,-0.0974 0.29845,-0.0974 h 0.283633 v 0.1397 h -0.283633 q -0.09737,0 -0.15875,0.0572 -0.05927,0.055 -0.05927,0.14817 v 0.79163 q 0,0.0931 0.05927,0.15029 0.06138,0.055 0.15875,0.055 z"
         style="font-style:normal;font-variant:normal;font-weight:bold;font-stretch:normal;font-size:2.11666679px;font-family:Homenaje;-inkscape-font-specification:'Homenaje Bold';fill:#ffffff;fill-opacity:1;stroke-width:0.26458332"
         id="path8220" />
      <path
         d="m 41.794596,139.27411 v -1.34197 h -0.296333 v -0.1397 h 0.778933 v 0.1397 h -0.296333 v 1.34197 z"
         style="font-style:normal;font-variant:normal;font-weight:bold;font-stretch:normal;font-size:2.11666679px;font-family:Homenaje;-inkscape-font-specification:'Homenaje Bold';fill:#ffffff;fill-opacity:1;stroke-width:0.26458332"
         id="path8222" />
    </g>
    <g
       aria-label="SAMPLES"
       style="font-style:normal;font-variant:normal;font-weight:bold;font-stretch:normal;font-size:3.52777767px;line-height:1.25;font-family:Consolas;-inkscape-font-specification:'Consolas Bold';text-align:center;letter-spacing:0px;word-spacing:0px;text-anchor:middle;fill:#ffffff;fill-opacity:1;stroke:none;stroke-width:0.26458332"
       id="text7715-3-0-8-0-6">
      <path
         d="m 55.29296,60.210527 q 0.12065,0 0.173567,-0.07197 0.05503,-0.07197 0.05503,-0.167217 0,-0.09525 -0.03598,-0.160867 -0.03387,-0.06773 -0.08678,-0.105833 -0.05292,-0.04022 -0.1143,-0.08678 -0.06138,-0.04657 -0.1143,-0.0889 -0.05292,-0.04445 -0.0889,-0.118534 -0.03387,-0.07408 -0.03387,-0.169333 0,-0.169333 0.1016,-0.270933 0.1016,-0.1016 0.281516,-0.1016 h 0.17145 v 0.1397 H 55.43901 q -0.1016,0 -0.154517,0.06562 -0.05292,0.06562 -0.05292,0.141817 0,0.0762 0.03387,0.131233 0.03598,0.05503 0.0889,0.09102 0.05292,0.03598 0.1143,0.08467 0.0635,0.04868 0.116417,0.09948 0.05292,0.04868 0.08678,0.13335 0.03598,0.08467 0.03598,0.192617 0,0.198966 -0.1143,0.300566 -0.112184,0.1016 -0.309034,0.1016 h -0.22225 v -0.1397 z"
         style="font-style:normal;font-variant:normal;font-weight:bold;font-stretch:normal;font-size:2.11666679px;font-family:Homenaje;-inkscape-font-specification:'Homenaje Bold';fill:#ffffff;fill-opacity:1;stroke-width:0.26458332"
         id="path8225" />
      <path
         d="m 56.136716,58.868561 h 0.281517 l 0.321733,1.481666 H 56.5664 L 56.462683,59.914194 H 56.07745 l -0.09525,0.436033 h -0.179917 z m 0.294217,0.9017 -0.1524,-0.762 h -0.01482 l -0.154516,0.762 z"
         style="font-style:normal;font-variant:normal;font-weight:bold;font-stretch:normal;font-size:2.11666679px;font-family:Homenaje;-inkscape-font-specification:'Homenaje Bold';fill:#ffffff;fill-opacity:1;stroke-width:0.26458332"
         id="path8227" />
      <path
         d="m 57.100693,60.350227 h -0.186267 v -1.481666 h 0.281517 l 0.283633,0.8763 h 0.01482 l 0.289983,-0.8763 h 0.270933 v 1.481666 h -0.186266 v -1.259416 l -0.283634,0.865716 h -0.201083 l -0.283633,-0.867833 z"
         style="font-style:normal;font-variant:normal;font-weight:bold;font-stretch:normal;font-size:2.11666679px;font-family:Homenaje;-inkscape-font-specification:'Homenaje Bold';fill:#ffffff;fill-opacity:1;stroke-width:0.26458332"
         id="path8229" />
      <path
         d="m 58.527458,59.008261 v 0.550333 h 0.135467 q 0.12065,0 0.186267,-0.08255 0.06773,-0.08255 0.06773,-0.213783 0,-0.254 -0.254,-0.254 z m 0.575734,0.254 q 0,0.205316 -0.112184,0.321733 -0.110066,0.1143 -0.315383,0.1143 h -0.148167 v 0.651933 h -0.186266 v -1.481666 h 0.37465 q 0.38735,0 0.38735,0.3937 z"
         style="font-style:normal;font-variant:normal;font-weight:bold;font-stretch:normal;font-size:2.11666679px;font-family:Homenaje;-inkscape-font-specification:'Homenaje Bold';fill:#ffffff;fill-opacity:1;stroke-width:0.26458332"
         id="path8231" />
      <path
         d="m 59.300306,60.350227 v -1.481666 h 0.186267 v 1.341966 h 0.433917 v 0.1397 z"
         style="font-style:normal;font-variant:normal;font-weight:bold;font-stretch:normal;font-size:2.11666679px;font-family:Homenaje;-inkscape-font-specification:'Homenaje Bold';fill:#ffffff;fill-opacity:1;stroke-width:0.26458332"
         id="path8233" />
      <path
         d="m 60.102325,60.350227 v -1.481666 h 0.645583 v 0.143933 h -0.459317 v 0.474133 h 0.372534 v 0.143934 h -0.372534 v 0.575733 h 0.480484 v 0.143933 z"
         style="font-style:normal;font-variant:normal;font-weight:bold;font-stretch:normal;font-size:2.11666679px;font-family:Homenaje;-inkscape-font-specification:'Homenaje Bold';fill:#ffffff;fill-opacity:1;stroke-width:0.26458332"
         id="path8235" />
      <path
         d="m 61.213013,60.210527 q 0.12065,0 0.173566,-0.07197 0.05503,-0.07197 0.05503,-0.167217 0,-0.09525 -0.03598,-0.160867 -0.03387,-0.06773 -0.08678,-0.105833 -0.05292,-0.04022 -0.1143,-0.08678 -0.06138,-0.04657 -0.1143,-0.0889 -0.05292,-0.04445 -0.0889,-0.118534 -0.03387,-0.07408 -0.03387,-0.169333 0,-0.169333 0.1016,-0.270933 0.1016,-0.1016 0.281517,-0.1016 h 0.17145 v 0.1397 h -0.162983 q -0.1016,0 -0.154517,0.06562 -0.05292,0.06562 -0.05292,0.141817 0,0.0762 0.03387,0.131233 0.03598,0.05503 0.0889,0.09102 0.05292,0.03598 0.1143,0.08467 0.0635,0.04868 0.116417,0.09948 0.05292,0.04868 0.08678,0.13335 0.03598,0.08467 0.03598,0.192617 0,0.198966 -0.1143,0.300566 -0.112183,0.1016 -0.309033,0.1016 h -0.22225 v -0.1397 z"
         style="font-style:normal;font-variant:normal;font-weight:bold;font-stretch:normal;font-size:2.11666679px;font-family:Homenaje;-inkscape-font-specification:'Homenaje Bold';fill:#ffffff;fill-opacity:1;stroke-width:0.26458332"
         id="path8237" />
    </g>
    <g
       aria-label="Frozen Wasteland"
       style="font-style:normal;font-weight:normal;font-size:3.52777767px;line-height:1.25;font-family:sans-serif;letter-spacing:0px;word-spacing:0px;fill:#00a3f2;fill-opacity:1;stroke:none;stroke-width:0.26458332"
       id="text271"
       transform="matrix(0.74779482,0,0,0.74779482,10.783587,40.618569)">
      <g
         aria-label="FROZEN WASTELAND"
         style="font-style:normal;font-variant:normal;font-weight:bold;font-stretch:normal;font-size:3.52777767px;line-height:1.25;font-family:Consolas;-inkscape-font-specification:'Consolas Bold';text-align:start;letter-spacing:0px;word-spacing:0px;text-anchor:start;fill:#00a3f2;fill-opacity:1;stroke:none;stroke-width:0.26458332"
         id="text3885-7"
         transform="translate(-1.5875001)">
        <path
           d="m 41.150231,146.65677 q 0.119944,-0.11994 0.1905,-0.21166 0.07408,-0.0917 0.112889,-0.16934 0.04233,-0.0776 0.05292,-0.14464 0.01411,-0.0706 0.01411,-0.14816 0,-0.0952 -0.04586,-0.22931 -0.04586,-0.13405 -0.102306,-0.28575 -0.05644,-0.15169 -0.102306,-0.31044 -0.04586,-0.15875 -0.04586,-0.30339 0,-0.0776 0.0247,-0.1517 0.02822,-0.0741 0.06703,-0.14111 0.04233,-0.0705 0.09172,-0.13053 0.04939,-0.0635 0.09878,-0.11288 -0.07056,-0.0141 -0.123473,-0.0212 -0.05292,-0.0106 -0.07761,-0.0106 -0.130528,0 -0.22225,0.0705 -0.08819,0.067 -0.1905,0.16933 0,-0.11994 0.03528,-0.24694 0.03881,-0.13053 0.116417,-0.23636 0.07761,-0.10583 0.194027,-0.17286 0.119945,-0.067 0.282223,-0.067 0.112889,0 0.208139,0.0176 0.09878,0.0141 0.179916,0.0353 0.08114,0.0212 0.148167,0.0388 0.06703,0.0141 0.119944,0.0141 0.08114,0 0.141111,-0.0212 0.0635,-0.0247 0.123473,-0.0847 0,0.0776 -0.03175,0.17639 -0.02822,0.0988 -0.08819,0.1905 -0.05644,0.0882 -0.148167,0.15169 -0.09172,0.06 -0.211666,0.06 -0.05997,0 -0.137584,-0.007 -0.07408,-0.0106 -0.155222,-0.0247 -0.0071,0.0247 -0.01058,0.0459 -0.0035,0.0212 -0.0071,0.0388 -0.0035,0.0212 -0.0035,0.0388 0,0.0776 0.01058,0.15169 0.01411,0.0706 0.03881,0.14464 h 0.712611 l -0.08114,0.23989 q -0.01058,0.0459 -0.01411,0.067 -0.0035,0.0212 -0.01058,0.067 l -0.130528,-0.0917 h -0.363361 q 0.07761,0.17639 0.144639,0.35984 0.06703,0.17991 0.06703,0.38452 0,0.18345 -0.07408,0.3422 -0.07408,0.15522 -0.197556,0.27164 -0.119944,0.11641 -0.278694,0.17991 -0.155222,0.067 -0.321028,0.067 z"
           style="font-style:normal;font-variant:normal;font-weight:normal;font-stretch:normal;font-family:'Bradley Gratis';-inkscape-font-specification:'Bradley Gratis';text-align:start;text-anchor:start;fill:#00a3f2;fill-opacity:1;stroke-width:0.26458332"
           id="path20360"
           inkscape:connector-curvature="0" />
        <path
           d="m 43.22032,144.92816 q 0.07055,-0.0423 0.137583,-0.0988 0.07056,-0.0564 0.123472,-0.127 0.05645,-0.0705 0.08819,-0.16227 0.03528,-0.0952 0.03528,-0.21167 0,-0.0988 -0.03881,-0.16581 -0.03528,-0.0705 -0.08467,-0.11289 -0.04939,-0.0423 -0.09878,-0.06 -0.04586,-0.0176 -0.07056,-0.0176 -0.02822,0 -0.05292,0.0106 -0.02117,0.0106 -0.0388,0.0247 z m -0.518583,-0.94192 q -0.112889,-0.0635 -0.112889,-0.23636 0.03175,0.0318 0.112889,0.0565 0.08114,0.0212 0.172861,0.0212 0.04586,0 0.130527,-0.0106 0.08467,-0.0141 0.172862,-0.0282 0.09172,-0.0141 0.172861,-0.0247 0.08467,-0.0141 0.130527,-0.0141 0.116417,0 0.232834,0.0353 0.116416,0.0353 0.215194,0.11995 0.09878,0.0847 0.165806,0.2293 0.07056,0.14111 0.09172,0.35983 l -0.627944,0.4445 q 0.07055,0.0282 0.15875,0.0952 0.08819,0.067 0.165805,0.18698 0.08114,0.11994 0.134056,0.30691 0.05292,0.18345 0.05292,0.45156 0,0.23283 0.02117,0.37747 0.02117,0.14464 0.05292,0.23283 0.03175,0.0882 0.06703,0.13053 0.03881,0.0459 0.07056,0.0776 -0.155222,0 -0.275167,-0.0917 -0.119944,-0.0882 -0.211666,-0.23283 -0.09172,-0.14464 -0.162278,-0.32809 -0.06703,-0.18344 -0.123472,-0.37041 -0.05644,-0.18697 -0.105834,-0.35984 -0.04586,-0.17286 -0.09525,-0.29986 -0.02469,0.0176 -0.04939,0.0353 -0.02117,0.0141 -0.0388,0.0318 v 1.31939 h -0.518583 z"
           style="font-style:normal;font-variant:normal;font-weight:normal;font-stretch:normal;font-family:'Bradley Gratis';-inkscape-font-specification:'Bradley Gratis';text-align:start;text-anchor:start;fill:#00a3f2;fill-opacity:1;stroke-width:0.26458332"
           id="path20362"
           inkscape:connector-curvature="0" />
        <path
           d="m 45.108067,146.03588 q 0,0.11995 0.01411,0.18698 0.01764,0.067 0.04233,0.1023 0.02822,0.0317 0.0635,0.0388 0.03528,0.007 0.07056,0.007 0.07055,0 0.116416,-0.0952 0.04586,-0.0988 0.04586,-0.29986 v -1.53105 q 0,-0.15875 -0.01764,-0.25753 -0.01411,-0.10231 -0.04233,-0.15522 -0.02469,-0.0564 -0.05997,-0.0776 -0.03175,-0.0212 -0.0635,-0.0212 -0.06703,0 -0.119944,0.0847 -0.04939,0.0811 -0.04939,0.26106 z m 1.005416,-0.88547 q 0,0.25753 -0.06703,0.508 -0.0635,0.25047 -0.176389,0.44803 -0.109361,0.19755 -0.261056,0.32103 -0.151694,0.11994 -0.321028,0.11994 -0.15875,0 -0.310444,-0.10936 -0.148167,-0.10936 -0.264583,-0.29986 -0.112889,-0.1905 -0.183445,-0.4445 -0.07055,-0.254 -0.07055,-0.54328 0,-0.23636 0.0635,-0.4833 0.06703,-0.25048 0.179916,-0.45156 0.112889,-0.20108 0.264584,-0.32808 0.151694,-0.13053 0.321027,-0.13053 0.148167,0 0.292806,0.10936 0.148167,0.10936 0.264583,0.29986 0.119945,0.18697 0.194028,0.44097 0.07408,0.254 0.07408,0.54328 z"
           style="font-style:normal;font-variant:normal;font-weight:normal;font-stretch:normal;font-family:'Bradley Gratis';-inkscape-font-specification:'Bradley Gratis';text-align:start;text-anchor:start;fill:#00a3f2;fill-opacity:1;stroke-width:0.26458332"
           id="path20364"
           inkscape:connector-curvature="0" />
        <path
           d="m 46.267548,146.50861 q 0.04586,-0.27164 0.130528,-0.51153 0.08819,-0.23989 0.194028,-0.45861 0.105833,-0.21873 0.218722,-0.41628 0.116417,-0.20108 0.218722,-0.38806 0.102306,-0.18697 0.179917,-0.36336 0.07761,-0.17991 0.112889,-0.35983 -0.02822,-0.0176 -0.06703,-0.0318 -0.03528,-0.0141 -0.137583,-0.0141 -0.05292,0 -0.09525,0.0282 -0.03881,0.0247 -0.06703,0.0635 -0.02822,0.0353 -0.04586,0.0776 -0.01411,0.0388 -0.01411,0.0635 0,0.0282 0.01058,0.067 0.01411,0.0353 0.02822,0.0705 0.01764,0.0353 0.03528,0.067 0.01764,0.0282 0.03175,0.0423 l -0.430389,0.26811 q -0.08467,-0.0811 -0.144639,-0.19756 -0.05644,-0.11994 -0.05644,-0.23989 0,-0.06 0.03175,-0.14816 0.03175,-0.0882 0.102305,-0.16934 0.07056,-0.0847 0.183445,-0.14111 0.116416,-0.06 0.282222,-0.06 0.130528,0 0.218722,0.0176 0.08819,0.0176 0.155222,0.0423 0.06703,0.0212 0.123472,0.0388 0.05997,0.0176 0.134056,0.0176 0.04586,0 0.09878,-0.007 0.05292,-0.007 0.09878,-0.0212 0.04586,-0.0141 0.08114,-0.0282 0.03881,-0.0176 0.05997,-0.0388 -0.04233,0.22225 -0.134056,0.46213 -0.09172,0.23989 -0.204611,0.47978 -0.109361,0.23989 -0.232833,0.4692 -0.119945,0.2293 -0.22225,0.43039 -0.09878,0.19755 -0.169334,0.35983 -0.06703,0.15875 -0.07408,0.26105 0.141111,0.06 0.239889,0.06 0.0635,0 0.130528,-0.0141 0.06703,-0.0176 0.119944,-0.0529 0.05644,-0.0353 0.09172,-0.0882 0.03528,-0.0564 0.03528,-0.13405 0,-0.0776 -0.01764,-0.127 -0.01411,-0.0529 -0.03881,-0.0847 -0.0247,-0.0353 -0.05644,-0.06 -0.03175,-0.0282 -0.05997,-0.0564 l 0.405694,-0.29987 q 0.141112,0.10584 0.201084,0.22578 0.05997,0.11995 0.05997,0.26106 0,0.067 -0.02117,0.13053 -0.01764,0.06 -0.04586,0.11288 -0.02469,0.0494 -0.05997,0.0917 -0.03175,0.0423 -0.05644,0.067 l 0.05997,0.06 q 0.01764,0.0176 0.0388,0.0529 0.02117,0.0317 0.02117,0.0564 0,0.0282 -0.02469,0.0811 -0.02117,0.0564 -0.08819,0.0988 -0.02469,-0.0317 -0.05644,-0.0564 -0.02822,-0.0212 -0.05997,-0.0388 -0.03175,-0.0176 -0.06703,-0.0176 z"
           style="font-style:normal;font-variant:normal;font-weight:normal;font-stretch:normal;font-family:'Bradley Gratis';-inkscape-font-specification:'Bradley Gratis';text-align:start;text-anchor:start;fill:#00a3f2;fill-opacity:1;stroke-width:0.26458332"
           id="path20366"
           inkscape:connector-curvature="0" />
        <path
           d="m 49.773884,143.78163 v 0.381 q -0.03881,-0.0353 -0.102306,-0.0776 -0.05997,-0.0423 -0.130528,-0.0741 -0.06703,-0.0353 -0.134055,-0.0565 -0.06703,-0.0247 -0.112889,-0.0247 -0.08467,0 -0.172861,0.067 -0.08819,0.067 -0.144639,0.17991 -0.05644,0.10937 -0.07408,0.28928 -0.01411,0.17639 -0.01411,0.45509 h 0.903111 l -0.179916,0.40216 q -0.03528,-0.0529 -0.08467,-0.0705 -0.04586,-0.0212 -0.08467,-0.0212 H 48.88841 q 0,0.20108 0.0071,0.39511 0.0071,0.1905 0.04586,0.3422 0.04233,0.15169 0.127,0.24694 0.08467,0.0917 0.243417,0.0917 0.08467,0 0.165805,-0.0318 0.08467,-0.0317 0.155222,-0.0776 0.07056,-0.0494 0.123473,-0.1023 0.05644,-0.0529 0.08819,-0.0952 v 0.508 h -0.47625 q -0.342194,0 -0.553861,-0.11995 -0.211667,-0.12347 -0.331611,-0.32808 -0.116417,-0.20814 -0.15875,-0.47978 -0.03881,-0.27164 -0.03881,-0.56797 0,-0.0741 0.01058,-0.19403 0.01058,-0.12347 0.04586,-0.25753 0.03528,-0.13758 0.102305,-0.27516 0.06703,-0.14112 0.179917,-0.25048 0.116417,-0.11289 0.28575,-0.18344 0.169333,-0.0706 0.409222,-0.0706 z"
           style="font-style:normal;font-variant:normal;font-weight:normal;font-stretch:normal;font-family:'Bradley Gratis';-inkscape-font-specification:'Bradley Gratis';text-align:start;text-anchor:start;fill:#00a3f2;fill-opacity:1;stroke-width:0.26458332"
           id="path20368"
           inkscape:connector-curvature="0" />
        <path
           d="m 50.160286,146.50861 v -2.4377 q 0,-0.0988 -0.04233,-0.1658 -0.04233,-0.0706 -0.08467,-0.12348 h 0.684388 v 0.35984 l 0.391584,-0.45509 q 0.179916,0.16228 0.296333,0.32456 0.116417,0.15875 0.183445,0.32103 0.06703,0.15875 0.09172,0.32455 0.02469,0.16228 0.02469,0.33514 0,0.16933 -0.02822,0.32456 -0.02469,0.15169 -0.07408,0.29986 -0.04939,0.14816 -0.119945,0.29986 -0.06703,0.15169 -0.148166,0.3175 h 0.127 q 0.04586,0 0.09525,-0.0317 0.04939,-0.0318 0.09878,-0.0318 v 0.33867 h -0.684389 q 0.09525,-0.19403 0.151695,-0.34925 0.05997,-0.15523 0.09172,-0.29634 0.03175,-0.14111 0.04233,-0.27516 0.01058,-0.13406 0.01058,-0.28575 0,-0.1517 -0.05292,-0.31398 -0.04939,-0.1658 -0.123472,-0.30339 -0.07408,-0.13758 -0.15875,-0.22577 -0.08114,-0.0882 -0.148167,-0.0882 -0.04233,0 -0.06703,0.0212 v 2.11667 z"
           style="font-style:normal;font-variant:normal;font-weight:normal;font-stretch:normal;font-family:'Bradley Gratis';-inkscape-font-specification:'Bradley Gratis';text-align:start;text-anchor:start;fill:#00a3f2;fill-opacity:1;stroke-width:0.26458332"
           id="path20370"
           inkscape:connector-curvature="0" />
        <path
           d="m 53.398455,146.62502 q -0.1905,-0.13758 -0.324556,-0.2928 -0.134055,-0.15875 -0.215194,-0.32809 -0.08114,-0.16933 -0.119945,-0.34219 -0.03528,-0.17639 -0.03528,-0.34572 0,-0.16581 0.03528,-0.32809 0.03528,-0.1658 0.09172,-0.32455 0.05997,-0.16228 0.137584,-0.31397 0.07761,-0.15523 0.15875,-0.30339 h -0.02117 q -0.01058,0 -0.02469,0 -0.01058,-0.004 -0.02822,-0.004 -0.05644,0 -0.137583,0.0141 -0.07761,0.0141 -0.151694,0.0706 v -0.34573 h 0.740833 q -0.09172,0.15875 -0.15875,0.32103 -0.0635,0.15875 -0.105833,0.31045 -0.03881,0.14816 -0.05997,0.28222 -0.01764,0.13053 -0.01764,0.23636 0,0.10583 0.02117,0.254 0.02117,0.14817 0.07761,0.30692 0.05997,0.15522 0.15875,0.29633 0.102306,0.14111 0.264584,0.2293 l 0.105833,-0.0776 q -0.0635,-0.11994 -0.09878,-0.2293 -0.03528,-0.11289 -0.05292,-0.21167 -0.01411,-0.0988 -0.01764,-0.17992 -0.0035,-0.0847 -0.0035,-0.15169 0,-0.10936 0.02822,-0.24694 0.02822,-0.13759 0.08114,-0.28575 0.05292,-0.14817 0.127,-0.29987 0.07761,-0.15169 0.172861,-0.29633 -0.134055,0 -0.22225,0.0212 -0.08467,0.0212 -0.144639,0.06 v -0.33867 h 0.762 q -0.0635,0.0882 -0.127,0.20109 -0.05997,0.10936 -0.105833,0.23989 -0.04586,0.127 -0.07408,0.27163 -0.02822,0.14464 -0.02822,0.29634 0,0.25753 0.04586,0.45861 0.04586,0.19755 0.127,0.34925 0.08114,0.15169 0.1905,0.26105 0.109362,0.10937 0.232834,0.18698 v -2.26484 h 0.529166 v 2.1202 q 0,0.0247 -0.03528,0.0705 -0.03528,0.0423 -0.09172,0.0988 -0.05292,0.0565 -0.127,0.12347 -0.07055,0.0635 -0.144638,0.127 -0.176389,0.14817 -0.398639,0.32456 -0.172861,-0.13406 -0.296334,-0.26458 -0.123472,-0.13053 -0.211666,-0.254 z"
           style="font-style:normal;font-variant:normal;font-weight:normal;font-stretch:normal;font-family:'Bradley Gratis';-inkscape-font-specification:'Bradley Gratis';text-align:start;text-anchor:start;fill:#00a3f2;fill-opacity:1;stroke-width:0.26458332"
           id="path20372"
           inkscape:connector-curvature="0" />
        <path
           d="m 56.650514,144.81174 v -0.87841 h -0.416278 q -0.0035,0.23636 -0.01411,0.46919 -0.0071,0.22931 -0.01764,0.40922 z m 0.719667,-1.03011 q -0.03881,0.0282 -0.07408,0.0706 -0.03175,0.0423 -0.05645,0.0917 -0.02117,0.0459 -0.03528,0.0917 -0.01411,0.0423 -0.01411,0.0741 v 2.39889 h -0.53975 v -1.32998 h -0.472722 q -0.0035,0.127 -0.03528,0.2787 -0.03175,0.14816 -0.08819,0.29986 -0.05292,0.14817 -0.127,0.28928 -0.07056,0.13758 -0.162278,0.24341 -0.08819,0.10584 -0.1905,0.16934 -0.09878,0.0635 -0.208139,0.0635 -0.07055,0 -0.123472,-0.0423 -0.04939,-0.0423 -0.04939,-0.11994 0,-0.0494 0.03175,-0.0706 0.03175,-0.0247 0.06703,-0.0247 0.03175,0 0.04939,0.0106 0.01764,0.007 0.03175,0.0212 0.01764,0.0106 0.03881,0.0212 0.02117,0.007 0.05997,0.007 0.0635,0 0.102305,-0.0635 0.03881,-0.067 0.0635,-0.17639 0.0247,-0.11289 0.03528,-0.25753 0.01411,-0.14816 0.02117,-0.31044 0.0071,-0.16228 0.01764,-0.32808 0.01058,-0.16934 0.02822,-0.32456 0.02117,-0.18344 0.0635,-0.33514 0.04586,-0.15169 0.09525,-0.26811 0.04939,-0.11642 0.09878,-0.19755 0.04939,-0.0811 0.08467,-0.13053 h -0.07761 q -0.06703,0 -0.123472,0.0212 -0.05644,0.0176 -0.102306,0.0423 -0.04233,0.0212 -0.07761,0.0423 -0.03175,0.0176 -0.05644,0.0176 -0.05997,0 -0.08819,-0.0423 -0.02822,-0.0423 -0.02822,-0.0952 0,-0.0494 0.05292,-0.0917 0.05644,-0.0459 0.155222,-0.0459 z"
           style="font-style:normal;font-variant:normal;font-weight:normal;font-stretch:normal;font-family:'Bradley Gratis';-inkscape-font-specification:'Bradley Gratis';text-align:start;text-anchor:start;fill:#00a3f2;fill-opacity:1;stroke-width:0.26458332"
           id="path20374"
           inkscape:connector-curvature="0" />
        <path
           d="m 58.150372,146.63208 q -0.08114,-0.0811 -0.186973,-0.15875 -0.102305,-0.0776 -0.201083,-0.13759 -0.09525,-0.06 -0.169333,-0.1023 -0.07056,-0.0423 -0.08114,-0.0529 0.03528,-0.0423 0.08819,-0.11641 0.05292,-0.0776 0.102306,-0.1517 0.05292,-0.0741 0.09172,-0.13053 0.04233,-0.06 0.05292,-0.0705 0.04939,0.0317 0.134055,0.0882 0.08819,0.0529 0.172861,0.11289 0.08819,0.06 0.15875,0.10936 0.07056,0.0494 0.09172,0.0706 0.04939,-0.0282 0.08114,-0.0741 0.03528,-0.0459 0.03528,-0.14816 0,-0.0882 -0.07408,-0.18697 -0.07056,-0.0988 -0.176389,-0.20814 -0.105833,-0.10936 -0.232833,-0.22931 -0.127,-0.11994 -0.232834,-0.24694 -0.105833,-0.127 -0.179916,-0.25753 -0.07056,-0.13053 -0.07056,-0.26811 0,-0.0988 0.04939,-0.18345 0.05292,-0.0882 0.130528,-0.16227 0.07761,-0.0776 0.169333,-0.13759 0.09525,-0.0635 0.179917,-0.11641 0.08819,-0.0564 0.155222,-0.0988 0.06703,-0.0459 0.09525,-0.0811 0.02117,0.0176 0.09172,0.0882 0.07408,0.067 0.15875,0.14464 0.08467,0.0776 0.15875,0.13759 0.07761,0.06 0.102306,0.06 -0.03528,0.0282 -0.08819,0.0847 -0.04939,0.0529 -0.102305,0.11289 -0.04939,0.06 -0.09172,0.11642 -0.03881,0.0529 -0.05644,0.0811 -0.08114,-0.0353 -0.162278,-0.10583 -0.08114,-0.0706 -0.148166,-0.13759 -0.06703,-0.067 -0.112889,-0.11641 -0.04586,-0.0529 -0.05997,-0.0529 -0.02822,0 -0.04939,0.0317 -0.01764,0.0282 -0.01764,0.067 0,0.0847 0.07408,0.17991 0.07761,0.0952 0.186972,0.20461 0.112889,0.10584 0.243417,0.22578 0.134056,0.11642 0.243417,0.24342 0.112889,0.127 0.186972,0.26458 0.07761,0.13406 0.07761,0.27517 0,0.127 -0.09525,0.26811 -0.09525,0.14111 -0.229306,0.28222 -0.130527,0.13759 -0.268111,0.26459 -0.137583,0.12347 -0.225777,0.21872 z"
           style="font-style:normal;font-variant:normal;font-weight:normal;font-stretch:normal;font-family:'Bradley Gratis';-inkscape-font-specification:'Bradley Gratis';text-align:start;text-anchor:start;fill:#00a3f2;fill-opacity:1;stroke-width:0.26458332"
           id="path20376"
           inkscape:connector-curvature="0" />
        <path
           d="m 60.635359,146.03236 q 0,0.13758 -0.05644,0.23988 -0.05644,0.0988 -0.148167,0.16228 -0.08819,0.0635 -0.197555,0.0953 -0.109361,0.0317 -0.215195,0.0317 -0.165805,0 -0.324555,-0.0811 -0.15875,-0.0811 -0.28575,-0.21872 -0.127,-0.14111 -0.204611,-0.32808 -0.07761,-0.1905 -0.07761,-0.40922 0,-0.39159 0.179916,-0.72673 0.179917,-0.33866 0.500945,-0.61383 -0.02822,-0.004 -0.05292,-0.004 -0.02117,-0.004 -0.04586,-0.004 -0.08467,0 -0.179917,0.0282 -0.09525,0.0282 -0.179916,0.0741 -0.08467,0.0423 -0.155223,0.0952 -0.06703,0.0529 -0.102305,0.0988 0.02822,-0.13759 0.105833,-0.27164 0.07761,-0.13406 0.194028,-0.23636 0.116417,-0.10231 0.268111,-0.16581 0.151694,-0.0635 0.331611,-0.0635 0.09172,0 0.194028,0.0282 0.102305,0.0282 0.194028,0.0741 0.09525,0.0423 0.169333,0.0953 0.07408,0.0529 0.112889,0.1023 l -0.289278,0.44098 q -0.176389,-0.17287 -0.381,-0.24695 -0.04586,0.0741 -0.09525,0.17639 -0.04939,0.0988 -0.09172,0.22578 -0.03881,0.127 -0.06703,0.28222 -0.02469,0.15169 -0.02469,0.33161 0,0.16933 0.02469,0.29986 0.02822,0.13053 0.07056,0.22578 0.04233,0.0952 0.09525,0.15875 0.05644,0.0635 0.112889,0.10583 0.134055,0.0953 0.306916,0.10584 0.07056,0 0.162278,-0.0282 0.09525,-0.0318 0.151694,-0.0811 z"
           style="font-style:normal;font-variant:normal;font-weight:normal;font-stretch:normal;font-family:'Bradley Gratis';-inkscape-font-specification:'Bradley Gratis';text-align:start;text-anchor:start;fill:#00a3f2;fill-opacity:1;stroke-width:0.26458332"
           id="path20378"
           inkscape:connector-curvature="0" />
        <path
           d="m 62.403604,143.78163 v 0.381 q -0.03881,-0.0353 -0.102306,-0.0776 -0.05997,-0.0423 -0.130528,-0.0741 -0.06703,-0.0353 -0.134055,-0.0565 -0.06703,-0.0247 -0.112889,-0.0247 -0.08467,0 -0.172861,0.067 -0.08819,0.067 -0.144639,0.17991 -0.05644,0.10937 -0.07408,0.28928 -0.01411,0.17639 -0.01411,0.45509 h 0.903111 l -0.179917,0.40216 q -0.03528,-0.0529 -0.08467,-0.0705 -0.04586,-0.0212 -0.08467,-0.0212 h -0.553861 q 0,0.20108 0.0071,0.39511 0.0071,0.1905 0.04586,0.3422 0.04233,0.15169 0.127,0.24694 0.08467,0.0917 0.243417,0.0917 0.08467,0 0.165805,-0.0318 0.08467,-0.0317 0.155223,-0.0776 0.07055,-0.0494 0.123472,-0.1023 0.05644,-0.0529 0.08819,-0.0952 v 0.508 h -0.47625 q -0.342194,0 -0.553861,-0.11995 -0.211666,-0.12347 -0.331611,-0.32808 -0.116417,-0.20814 -0.15875,-0.47978 -0.03881,-0.27164 -0.03881,-0.56797 0,-0.0741 0.01058,-0.19403 0.01058,-0.12347 0.04586,-0.25753 0.03528,-0.13758 0.102306,-0.27516 0.06703,-0.14112 0.179916,-0.25048 0.116417,-0.11289 0.28575,-0.18344 0.169334,-0.0706 0.409222,-0.0706 z"
           style="font-style:normal;font-variant:normal;font-weight:normal;font-stretch:normal;font-family:'Bradley Gratis';-inkscape-font-specification:'Bradley Gratis';text-align:start;text-anchor:start;fill:#00a3f2;fill-opacity:1;stroke-width:0.26458332"
           id="path20380"
           inkscape:connector-curvature="0" />
        <path
           d="m 63.682533,144.47661 q -0.08819,-0.21167 -0.151694,-0.35278 -0.0635,-0.14111 -0.09878,-0.14111 -0.03881,0 -0.05292,0.0353 -0.01058,0.0318 -0.01058,0.0565 v 1.91205 q 0,0.0776 -0.04233,0.16228 -0.04233,0.0847 -0.112888,0.14817 0.130527,0 0.232833,-0.0635 0.102305,-0.067 0.211667,-0.14464 0.112888,-0.0811 0.250472,-0.14464 0.137583,-0.067 0.342194,-0.067 v 0.63148 H 62.65595 q 0.04586,-0.067 0.07761,-0.127 0.03528,-0.06 0.05644,-0.11995 0.02117,-0.06 0.03175,-0.127 0.01058,-0.067 0.01058,-0.14817 v -1.66863 q 0,-0.11289 -0.04233,-0.18345 -0.04233,-0.0741 -0.05997,-0.1023 0.01411,-0.004 0.07056,-0.0247 0.05997,-0.0247 0.144639,-0.0564 0.08467,-0.0318 0.186972,-0.067 0.102305,-0.0353 0.201083,-0.0635 0.09878,-0.0317 0.186972,-0.0494 0.08819,-0.0212 0.144639,-0.0212 0.0882,0 0.165806,0.0494 0.07761,0.0494 0.141111,0.12347 0.0635,0.0741 0.109361,0.16581 0.04586,0.0882 0.07408,0.16581 z"
           style="font-style:normal;font-variant:normal;font-weight:normal;font-stretch:normal;font-family:'Bradley Gratis';-inkscape-font-specification:'Bradley Gratis';text-align:start;text-anchor:start;fill:#00a3f2;fill-opacity:1;stroke-width:0.26458332"
           id="path20382"
           inkscape:connector-curvature="0" />
        <path
           d="m 65.8627,144.81174 v -0.87841 h -0.416278 q -0.0035,0.23636 -0.01411,0.46919 -0.0071,0.22931 -0.01764,0.40922 z m 0.719667,-1.03011 q -0.03881,0.0282 -0.07408,0.0706 -0.03175,0.0423 -0.05644,0.0917 -0.02117,0.0459 -0.03528,0.0917 -0.01411,0.0423 -0.01411,0.0741 v 2.39889 H 65.8627 v -1.32998 h -0.472722 q -0.0035,0.127 -0.03528,0.2787 -0.03175,0.14816 -0.08819,0.29986 -0.05292,0.14817 -0.127,0.28928 -0.07056,0.13758 -0.162278,0.24341 -0.08819,0.10584 -0.1905,0.16934 -0.09878,0.0635 -0.208139,0.0635 -0.07056,0 -0.123472,-0.0423 -0.04939,-0.0423 -0.04939,-0.11994 0,-0.0494 0.03175,-0.0706 0.03175,-0.0247 0.06703,-0.0247 0.03175,0 0.04939,0.0106 0.01764,0.007 0.03175,0.0212 0.01764,0.0106 0.0388,0.0212 0.02117,0.007 0.05997,0.007 0.0635,0 0.102306,-0.0635 0.0388,-0.067 0.0635,-0.17639 0.02469,-0.11289 0.03528,-0.25753 0.01411,-0.14816 0.02117,-0.31044 0.0071,-0.16228 0.01764,-0.32808 0.01058,-0.16934 0.02822,-0.32456 0.02117,-0.18344 0.0635,-0.33514 0.04586,-0.15169 0.09525,-0.26811 0.04939,-0.11642 0.09878,-0.19755 0.04939,-0.0811 0.08467,-0.13053 h -0.07761 q -0.06703,0 -0.123472,0.0212 -0.05644,0.0176 -0.102306,0.0423 -0.04233,0.0212 -0.07761,0.0423 -0.03175,0.0176 -0.05645,0.0176 -0.05997,0 -0.08819,-0.0423 -0.02822,-0.0423 -0.02822,-0.0952 0,-0.0494 0.05292,-0.0917 0.05644,-0.0459 0.155223,-0.0459 z"
           style="font-style:normal;font-variant:normal;font-weight:normal;font-stretch:normal;font-family:'Bradley Gratis';-inkscape-font-specification:'Bradley Gratis';text-align:start;text-anchor:start;fill:#00a3f2;fill-opacity:1;stroke-width:0.26458332"
           id="path20384"
           inkscape:connector-curvature="0" />
        <path
           d="m 66.882779,146.50861 v -2.4377 q 0,-0.0988 -0.04233,-0.1658 -0.04233,-0.0706 -0.08467,-0.12348 h 0.684389 v 0.35984 l 0.391583,-0.45509 q 0.179917,0.16228 0.296333,0.32456 0.116417,0.15875 0.183445,0.32103 0.06703,0.15875 0.09172,0.32455 0.02469,0.16228 0.02469,0.33514 0,0.16933 -0.02822,0.32456 -0.02469,0.15169 -0.07408,0.29986 -0.04939,0.14816 -0.119945,0.29986 -0.06703,0.15169 -0.148166,0.3175 h 0.127 q 0.04586,0 0.09525,-0.0317 0.04939,-0.0318 0.09878,-0.0318 v 0.33867 H 67.69417 q 0.09525,-0.19403 0.151694,-0.34925 0.05997,-0.15523 0.09172,-0.29634 0.03175,-0.14111 0.04233,-0.27516 0.01058,-0.13406 0.01058,-0.28575 0,-0.1517 -0.05292,-0.31398 -0.04939,-0.1658 -0.123472,-0.30339 -0.07408,-0.13758 -0.15875,-0.22577 -0.08114,-0.0882 -0.148167,-0.0882 -0.04233,0 -0.06703,0.0212 v 2.11667 z"
           style="font-style:normal;font-variant:normal;font-weight:normal;font-stretch:normal;font-family:'Bradley Gratis';-inkscape-font-specification:'Bradley Gratis';text-align:start;text-anchor:start;fill:#00a3f2;fill-opacity:1;stroke-width:0.26458332"
           id="path20386"
           inkscape:connector-curvature="0" />
        <path
           d="m 68.771683,144.02858 q -0.09172,-0.0388 -0.127,-0.0952 -0.03528,-0.0565 -0.03528,-0.10584 0,-0.0423 0.02822,-0.0529 0.02822,0.0176 0.07761,0.0247 0.04939,0.007 0.112888,0.007 0.03175,0 0.08819,-0.0106 0.05997,-0.0106 0.130528,-0.0212 0.07055,-0.0106 0.144639,-0.0212 0.07761,-0.0106 0.144638,-0.0106 0.162278,0 0.331612,0.0847 0.169333,0.0811 0.303388,0.254 0.134056,0.16934 0.218723,0.43392 0.08819,0.26106 0.08819,0.62442 0,0.30691 -0.05292,0.52916 -0.05292,0.22225 -0.134055,0.37748 -0.08114,0.15522 -0.179917,0.25047 -0.09878,0.0917 -0.194028,0.14464 -0.09172,0.0494 -0.169333,0.067 -0.07408,0.0176 -0.109361,0.0176 -0.05292,0 -0.112889,-0.0141 -0.05997,-0.0141 -0.119944,-0.0318 -0.05645,-0.0176 -0.109361,-0.0317 -0.04939,-0.0141 -0.08467,-0.0141 -0.03881,0 -0.07056,0.0141 -0.03175,0.0106 -0.06703,0.0247 -0.03175,0.0106 -0.07056,0.0247 -0.03881,0.0106 -0.08819,0.0106 -0.01764,0 -0.03881,-0.004 -0.01764,-0.004 -0.03528,-0.0106 -0.01764,-0.007 -0.03528,-0.0176 0.02822,-0.0176 0.05644,-0.06 0.02822,-0.0459 0.05292,-0.0952 0.02822,-0.0529 0.05644,-0.11641 z m 0.518583,2.10255 q 0,0.0741 0.02469,0.11642 0.02822,0.0388 0.05997,0.0564 0.03881,0.0212 0.08467,0.0247 0.08114,0 0.141111,-0.10936 0.0635,-0.10936 0.0635,-0.2787 v -1.54869 q 0,-0.16581 -0.03175,-0.25753 -0.03175,-0.0917 -0.07408,-0.13405 -0.04233,-0.0423 -0.08467,-0.0494 -0.04233,-0.0106 -0.06703,-0.0106 -0.04233,0 -0.08114,0.0564 -0.03528,0.0564 -0.03528,0.14816 z"
           style="font-style:normal;font-variant:normal;font-weight:normal;font-stretch:normal;font-family:'Bradley Gratis';-inkscape-font-specification:'Bradley Gratis';text-align:start;text-anchor:start;fill:#00a3f2;fill-opacity:1;stroke-width:0.26458332"
           id="path20388"
           inkscape:connector-curvature="0" />
      </g>
    </g>
    <g
       aria-label="NOISE TYPE"
       style="font-style:normal;font-variant:normal;font-weight:bold;font-stretch:normal;font-size:3.52777767px;line-height:1.25;font-family:Consolas;-inkscape-font-specification:'Consolas Bold';text-align:center;letter-spacing:0px;word-spacing:0px;text-anchor:middle;fill:#ffffff;fill-opacity:1;stroke:none;stroke-width:0.26458332"
       id="text7715-3-0-8-3-1">
      <path
         d="m 37.50571,120.48877 h -0.2667 l -0.391583,-1.3462 v 1.3462 H 36.66116 v -1.48167 h 0.31115 l 0.345017,1.28059 v -1.28059 h 0.188383 z"
         style="font-style:normal;font-variant:normal;font-weight:bold;font-stretch:normal;font-size:2.11666679px;font-family:Homenaje;-inkscape-font-specification:'Homenaje Bold';fill:#ffffff;fill-opacity:1;stroke-width:0.26458332"
         id="path8240" />
      <path
         d="m 38.545622,120.12259 q 0,0.17991 -0.103717,0.28151 -0.103717,0.0995 -0.302683,0.0995 -0.19685,0 -0.300567,-0.0995 -0.103717,-0.1016 -0.103717,-0.28151 v -0.7493 q 0,-0.17992 0.103717,-0.2794 0.103717,-0.1016 0.300567,-0.1016 0.198966,0 0.302683,0.1016 0.103717,0.0995 0.103717,0.2794 z m -0.624417,0.036 q 0,0.0974 0.06138,0.1524 0.0635,0.0529 0.156634,0.0529 0.09313,0 0.156633,-0.0529 0.0635,-0.055 0.0635,-0.1524 v -0.82127 q 0,-0.0974 -0.0635,-0.15028 -0.0635,-0.055 -0.156633,-0.055 -0.09313,0 -0.156634,0.055 -0.06138,0.0529 -0.06138,0.15028 z"
         style="font-style:normal;font-variant:normal;font-weight:bold;font-stretch:normal;font-size:2.11666679px;font-family:Homenaje;-inkscape-font-specification:'Homenaje Bold';fill:#ffffff;fill-opacity:1;stroke-width:0.26458332"
         id="path8242" />
      <path
         d="m 38.790626,120.48877 v -1.48167 h 0.186267 v 1.48167 z"
         style="font-style:normal;font-variant:normal;font-weight:bold;font-stretch:normal;font-size:2.11666679px;font-family:Homenaje;-inkscape-font-specification:'Homenaje Bold';fill:#ffffff;fill-opacity:1;stroke-width:0.26458332"
         id="path8244" />
      <path
         d="m 39.492036,120.34907 q 0.12065,0 0.173567,-0.072 0.05503,-0.072 0.05503,-0.16721 0,-0.0952 -0.03598,-0.16087 -0.03387,-0.0677 -0.08678,-0.10583 -0.05292,-0.0402 -0.1143,-0.0868 -0.06138,-0.0466 -0.1143,-0.0889 -0.05292,-0.0444 -0.0889,-0.11853 -0.03387,-0.0741 -0.03387,-0.16933 0,-0.16934 0.1016,-0.27094 0.1016,-0.1016 0.281517,-0.1016 h 0.17145 v 0.1397 h -0.162984 q -0.1016,0 -0.154516,0.0656 -0.05292,0.0656 -0.05292,0.14182 0,0.0762 0.03387,0.13123 0.03598,0.055 0.0889,0.091 0.05292,0.036 0.1143,0.0847 0.0635,0.0487 0.116416,0.0995 0.05292,0.0487 0.08678,0.13335 0.03598,0.0847 0.03598,0.19261 0,0.19897 -0.1143,0.30057 -0.112183,0.1016 -0.309033,0.1016 h -0.22225 v -0.1397 z"
         style="font-style:normal;font-variant:normal;font-weight:bold;font-stretch:normal;font-size:2.11666679px;font-family:Homenaje;-inkscape-font-specification:'Homenaje Bold';fill:#ffffff;fill-opacity:1;stroke-width:0.26458332"
         id="path8246" />
      <path
         d="m 40.113543,120.48877 v -1.48167 h 0.645583 v 0.14394 h -0.459317 v 0.47413 h 0.372534 v 0.14393 h -0.372534 v 0.57574 h 0.480484 v 0.14393 z"
         style="font-style:normal;font-variant:normal;font-weight:bold;font-stretch:normal;font-size:2.11666679px;font-family:Homenaje;-inkscape-font-specification:'Homenaje Bold';fill:#ffffff;fill-opacity:1;stroke-width:0.26458332"
         id="path8248" />
      <path
         d="m 41.521391,120.48877 v -1.34197 h -0.296334 v -0.1397 h 0.778934 v 0.1397 h -0.296334 v 1.34197 z"
         style="font-style:normal;font-variant:normal;font-weight:bold;font-stretch:normal;font-size:2.11666679px;font-family:Homenaje;-inkscape-font-specification:'Homenaje Bold';fill:#ffffff;fill-opacity:1;stroke-width:0.26458332"
         id="path8250" />
      <path
         d="m 42.516654,120.48877 h -0.186266 v -0.58843 l -0.29845,-0.89324 h 0.186266 l 0.211667,0.70062 0.2159,-0.70062 h 0.186267 l -0.315384,0.89324 z"
         style="font-style:normal;font-variant:normal;font-weight:bold;font-stretch:normal;font-size:2.11666679px;font-family:Homenaje;-inkscape-font-specification:'Homenaje Bold';fill:#ffffff;fill-opacity:1;stroke-width:0.26458332"
         id="path8252" />
      <path
         d="m 43.139946,119.1468 v 0.55034 h 0.135467 q 0.12065,0 0.186266,-0.0825 0.06773,-0.0826 0.06773,-0.21379 0,-0.254 -0.254,-0.254 z m 0.575733,0.254 q 0,0.20532 -0.112183,0.32174 -0.110067,0.1143 -0.315383,0.1143 h -0.148167 v 0.65193 h -0.186267 v -1.48167 h 0.37465 q 0.38735,0 0.38735,0.3937 z"
         style="font-style:normal;font-variant:normal;font-weight:bold;font-stretch:normal;font-size:2.11666679px;font-family:Homenaje;-inkscape-font-specification:'Homenaje Bold';fill:#ffffff;fill-opacity:1;stroke-width:0.26458332"
         id="path8254" />
      <path
         d="m 43.912794,120.48877 v -1.48167 h 0.645584 v 0.14394 h -0.459317 v 0.47413 h 0.372533 v 0.14393 h -0.372533 v 0.57574 h 0.480483 v 0.14393 z"
         style="font-style:normal;font-variant:normal;font-weight:bold;font-stretch:normal;font-size:2.11666679px;font-family:Homenaje;-inkscape-font-specification:'Homenaje Bold';fill:#ffffff;fill-opacity:1;stroke-width:0.26458332"
         id="path8256" />
    </g>
    <g
       aria-label="WINDOW"
       style="font-style:normal;font-variant:normal;font-weight:bold;font-stretch:normal;font-size:3.52777767px;line-height:1.25;font-family:Consolas;-inkscape-font-specification:'Consolas Bold';text-align:center;letter-spacing:0px;word-spacing:0px;text-anchor:middle;fill:#ffffff;fill-opacity:1;stroke:none;stroke-width:0.26458332"
       id="text7715-3-0-8-3-1-3">
      <path
         d="m 52.255519,119.26916 h 0.198967 l 0.198966,0.91652 0.249767,-1.30175 h 0.18415 l -0.306917,1.48166 h -0.249766 l -0.173567,-0.88688 -0.17145,0.88688 h -0.249767 l -0.313266,-1.48166 h 0.18415 l 0.251883,1.30175 z"
         style="font-style:normal;font-variant:normal;font-weight:bold;font-stretch:normal;font-size:2.11666679px;font-family:Homenaje;-inkscape-font-specification:'Homenaje Bold';fill:#ffffff;fill-opacity:1;stroke-width:0.26458332"
         id="path8259" />
      <path
         d="m 53.327479,120.36559 v -1.48166 h 0.186266 v 1.48166 z"
         style="font-style:normal;font-variant:normal;font-weight:bold;font-stretch:normal;font-size:2.11666679px;font-family:Homenaje;-inkscape-font-specification:'Homenaje Bold';fill:#ffffff;fill-opacity:1;stroke-width:0.26458332"
         id="path8261" />
      <path
         d="m 54.651189,120.36559 h -0.2667 l -0.391583,-1.3462 v 1.3462 h -0.186267 v -1.48166 h 0.31115 l 0.345017,1.28058 v -1.28058 h 0.188383 z"
         style="font-style:normal;font-variant:normal;font-weight:bold;font-stretch:normal;font-size:2.11666679px;font-family:Homenaje;-inkscape-font-specification:'Homenaje Bold';fill:#ffffff;fill-opacity:1;stroke-width:0.26458332"
         id="path8263" />
      <path
         d="m 55.130184,120.22166 h 0.179917 q 0.09737,0 0.156633,-0.055 0.06138,-0.0571 0.06138,-0.15029 v -0.78316 q 0,-0.0931 -0.06138,-0.14817 -0.05927,-0.0571 -0.156633,-0.0571 h -0.179917 z m -0.188383,0.14393 v -1.48166 h 0.3683 q 0.192616,0 0.29845,0.0974 0.105833,0.0974 0.105833,0.28575 v 0.71544 q 0,0.18838 -0.105833,0.28575 -0.105834,0.0952 -0.29845,0.0974 z"
         style="font-style:normal;font-variant:normal;font-weight:bold;font-stretch:normal;font-size:2.11666679px;font-family:Homenaje;-inkscape-font-specification:'Homenaje Bold';fill:#ffffff;fill-opacity:1;stroke-width:0.26458332"
         id="path8265" />
      <path
         d="m 56.708093,119.99941 q 0,0.17992 -0.103717,0.28152 -0.103716,0.0995 -0.302683,0.0995 -0.19685,0 -0.300567,-0.0995 -0.103716,-0.1016 -0.103716,-0.28152 v -0.7493 q 0,-0.17992 0.103716,-0.2794 0.103717,-0.1016 0.300567,-0.1016 0.198967,0 0.302683,0.1016 0.103717,0.0995 0.103717,0.2794 z m -0.624417,0.036 q 0,0.0974 0.06138,0.1524 0.0635,0.0529 0.156633,0.0529 0.09313,0 0.156633,-0.0529 0.0635,-0.055 0.0635,-0.1524 v -0.82126 q 0,-0.0974 -0.0635,-0.15029 -0.0635,-0.055 -0.156633,-0.055 -0.09313,0 -0.156633,0.055 -0.06138,0.0529 -0.06138,0.15029 z"
         style="font-style:normal;font-variant:normal;font-weight:bold;font-stretch:normal;font-size:2.11666679px;font-family:Homenaje;-inkscape-font-specification:'Homenaje Bold';fill:#ffffff;fill-opacity:1;stroke-width:0.26458332"
         id="path8267" />
      <path
         d="m 57.518247,119.26916 h 0.198967 l 0.198967,0.91652 0.249766,-1.30175 h 0.18415 l -0.306916,1.48166 h -0.249767 l -0.173567,-0.88688 -0.17145,0.88688 h -0.249766 l -0.313267,-1.48166 h 0.18415 l 0.251883,1.30175 z"
         style="font-style:normal;font-variant:normal;font-weight:bold;font-stretch:normal;font-size:2.11666679px;font-family:Homenaje;-inkscape-font-specification:'Homenaje Bold';fill:#ffffff;fill-opacity:1;stroke-width:0.26458332"
         id="path8269" />
    </g>
    <g
       aria-label="GRAINS"
       style="font-style:normal;font-variant:normal;font-weight:bold;font-stretch:normal;font-size:3.52777767px;line-height:1.25;font-family:Consolas;-inkscape-font-specification:'Consolas Bold';text-align:center;letter-spacing:0px;word-spacing:0px;text-anchor:middle;fill:#ffffff;fill-opacity:1;stroke:none;stroke-width:0.26458332"
       id="text7715-3-0-8-3-1-2">
      <path
         d="m 38.068889,93.78067 h -0.37465 q -0.192616,0 -0.29845,-0.09737 -0.105833,-0.09737 -0.105833,-0.28575 v -0.71755 q 0,-0.186266 0.1143,-0.283633 0.1143,-0.09737 0.31115,-0.09737 h 0.31115 v 0.141817 h -0.332317 q -0.09737,0 -0.15875,0.05715 -0.05927,0.05503 -0.05927,0.148167 v 0.789516 q 0,0.09525 0.05715,0.150284 0.05715,0.05503 0.1524,0.05503 h 0.19685 v -0.582083 h -0.1905 v -0.1397 h 0.376766 z"
         style="font-style:normal;font-variant:normal;font-weight:bold;font-stretch:normal;font-size:2.11666679px;font-family:Homenaje;-inkscape-font-specification:'Homenaje Bold';fill:#ffffff;fill-opacity:1;stroke-width:0.26458332"
         id="path8272" />
      <path
         d="m 38.515374,92.438703 v 0.55245 h 0.150283 q 0.12065,0 0.186267,-0.08255 0.06773,-0.08467 0.06773,-0.2159 0,-0.254 -0.254,-0.254 z m -0.0042,0.69215 v 0.649817 h -0.182033 v -1.481667 h 0.391583 q 0.381,0 0.381,0.3937 0,0.148167 -0.05715,0.258234 -0.05715,0.110066 -0.162983,0.1524 l 0.294217,0.677333 H 38.99374 l -0.287866,-0.649817 z"
         style="font-style:normal;font-variant:normal;font-weight:bold;font-stretch:normal;font-size:2.11666679px;font-family:Homenaje;-inkscape-font-specification:'Homenaje Bold';fill:#ffffff;fill-opacity:1;stroke-width:0.26458332"
         id="path8274" />
      <path
         d="m 39.593154,92.299003 h 0.281517 l 0.321733,1.481667 h -0.173567 l -0.103716,-0.436033 h -0.385234 l -0.09525,0.436033 h -0.179916 z m 0.294217,0.9017 -0.1524,-0.762 h -0.01482 l -0.154517,0.762 z"
         style="font-style:normal;font-variant:normal;font-weight:bold;font-stretch:normal;font-size:2.11666679px;font-family:Homenaje;-inkscape-font-specification:'Homenaje Bold';fill:#ffffff;fill-opacity:1;stroke-width:0.26458332"
         id="path8276" />
      <path
         d="m 40.39203,93.78067 v -1.481667 h 0.186267 v 1.481667 z"
         style="font-style:normal;font-variant:normal;font-weight:bold;font-stretch:normal;font-size:2.11666679px;font-family:Homenaje;-inkscape-font-specification:'Homenaje Bold';fill:#ffffff;fill-opacity:1;stroke-width:0.26458332"
         id="path8278" />
      <path
         d="m 41.715741,93.78067 h -0.2667 l -0.391583,-1.3462 v 1.3462 h -0.186267 v -1.481667 h 0.31115 l 0.345017,1.280584 v -1.280584 h 0.188383 z"
         style="font-style:normal;font-variant:normal;font-weight:bold;font-stretch:normal;font-size:2.11666679px;font-family:Homenaje;-inkscape-font-specification:'Homenaje Bold';fill:#ffffff;fill-opacity:1;stroke-width:0.26458332"
         id="path8280" />
      <path
         d="m 42.213786,93.64097 q 0.12065,0 0.173566,-0.07197 0.05503,-0.07197 0.05503,-0.167216 0,-0.09525 -0.03598,-0.160867 -0.03387,-0.06773 -0.08678,-0.105833 -0.05292,-0.04022 -0.1143,-0.08678 -0.06138,-0.04657 -0.1143,-0.0889 -0.05292,-0.04445 -0.0889,-0.118533 -0.03387,-0.07408 -0.03387,-0.169333 0,-0.169334 0.1016,-0.270934 0.1016,-0.1016 0.281517,-0.1016 h 0.17145 v 0.1397 h -0.162983 q -0.1016,0 -0.154517,0.06562 -0.05292,0.06562 -0.05292,0.141817 0,0.0762 0.03387,0.131233 0.03598,0.05503 0.0889,0.09102 0.05292,0.03598 0.1143,0.08467 0.0635,0.04868 0.116417,0.09948 0.05292,0.04868 0.08678,0.13335 0.03598,0.08467 0.03598,0.192616 0,0.198967 -0.1143,0.300567 -0.112183,0.1016 -0.309033,0.1016 h -0.22225 v -0.1397 z"
         style="font-style:normal;font-variant:normal;font-weight:bold;font-stretch:normal;font-size:2.11666679px;font-family:Homenaje;-inkscape-font-specification:'Homenaje Bold';fill:#ffffff;fill-opacity:1;stroke-width:0.26458332"
         id="path8282" />
    </g>
    <g
       aria-label="OFFSET"
       style="font-style:normal;font-variant:normal;font-weight:bold;font-stretch:normal;font-size:3.52777767px;line-height:1.25;font-family:Consolas;-inkscape-font-specification:'Consolas Bold';text-align:center;letter-spacing:0px;word-spacing:0px;text-anchor:middle;fill:#ffffff;fill-opacity:1;stroke:none;stroke-width:0.26458332"
       id="text7715-3-0-8-3-1-2-1">
      <path
         d="m 46.444592,93.399671 q 0,0.179916 -0.103717,0.281516 -0.103717,0.09948 -0.302683,0.09948 -0.19685,0 -0.300567,-0.09948 -0.103717,-0.1016 -0.103717,-0.281516 V 92.65037 q 0,-0.179916 0.103717,-0.2794 0.103717,-0.1016 0.300567,-0.1016 0.198966,0 0.302683,0.1016 0.103717,0.09948 0.103717,0.2794 z m -0.624417,0.03598 q 0,0.09737 0.06138,0.1524 0.0635,0.05292 0.156634,0.05292 0.09313,0 0.156633,-0.05292 0.0635,-0.05503 0.0635,-0.1524 v -0.821267 q 0,-0.09737 -0.0635,-0.150283 -0.0635,-0.05503 -0.156633,-0.05503 -0.09313,0 -0.156634,0.05503 -0.06138,0.05292 -0.06138,0.150283 z"
         style="font-style:normal;font-variant:normal;font-weight:bold;font-stretch:normal;font-size:2.11666679px;font-family:Homenaje;-inkscape-font-specification:'Homenaje Bold';fill:#ffffff;fill-opacity:1;stroke-width:0.26458332"
         id="path8285" />
      <path
         d="m 46.689596,93.765854 v -1.481667 h 0.624416 v 0.143933 h -0.43815 v 0.508 h 0.3302 v 0.143934 h -0.3302 v 0.6858 z"
         style="font-style:normal;font-variant:normal;font-weight:bold;font-stretch:normal;font-size:2.11666679px;font-family:Homenaje;-inkscape-font-specification:'Homenaje Bold';fill:#ffffff;fill-opacity:1;stroke-width:0.26458332"
         id="path8287" />
      <path
         d="m 47.512285,93.765854 v -1.481667 h 0.624416 v 0.143933 h -0.43815 v 0.508 h 0.3302 v 0.143934 h -0.3302 v 0.6858 z"
         style="font-style:normal;font-variant:normal;font-weight:bold;font-stretch:normal;font-size:2.11666679px;font-family:Homenaje;-inkscape-font-specification:'Homenaje Bold';fill:#ffffff;fill-opacity:1;stroke-width:0.26458332"
         id="path8289" />
      <path
         d="m 48.54029,93.626154 q 0.12065,0 0.173567,-0.07197 0.05503,-0.07197 0.05503,-0.167216 0,-0.09525 -0.03598,-0.160867 -0.03387,-0.06773 -0.08678,-0.105833 -0.05292,-0.04022 -0.1143,-0.08678 -0.06138,-0.04657 -0.1143,-0.0889 -0.05292,-0.04445 -0.0889,-0.118533 -0.03387,-0.07408 -0.03387,-0.169334 0,-0.169333 0.1016,-0.270933 0.1016,-0.1016 0.281517,-0.1016 h 0.17145 v 0.1397 H 48.68634 q -0.1016,0 -0.154516,0.06562 -0.05292,0.06562 -0.05292,0.141816 0,0.0762 0.03387,0.131234 0.03598,0.05503 0.0889,0.09102 0.05292,0.03598 0.1143,0.08467 0.0635,0.04868 0.116416,0.09948 0.05292,0.04868 0.08678,0.13335 0.03598,0.08467 0.03598,0.192616 0,0.198967 -0.1143,0.300567 -0.112183,0.1016 -0.309033,0.1016 h -0.22225 v -0.1397 z"
         style="font-style:normal;font-variant:normal;font-weight:bold;font-stretch:normal;font-size:2.11666679px;font-family:Homenaje;-inkscape-font-specification:'Homenaje Bold';fill:#ffffff;fill-opacity:1;stroke-width:0.26458332"
         id="path8291" />
      <path
         d="m 49.161797,93.765854 v -1.481667 h 0.645583 v 0.143933 h -0.459317 v 0.474134 h 0.372534 v 0.143933 h -0.372534 v 0.575734 h 0.480484 v 0.143933 z"
         style="font-style:normal;font-variant:normal;font-weight:bold;font-stretch:normal;font-size:2.11666679px;font-family:Homenaje;-inkscape-font-specification:'Homenaje Bold';fill:#ffffff;fill-opacity:1;stroke-width:0.26458332"
         id="path8293" />
      <path
         d="m 50.251318,93.765854 v -1.341967 h -0.296334 v -0.1397 h 0.778934 v 0.1397 h -0.296334 v 1.341967 z"
         style="font-style:normal;font-variant:normal;font-weight:bold;font-stretch:normal;font-size:2.11666679px;font-family:Homenaje;-inkscape-font-specification:'Homenaje Bold';fill:#ffffff;fill-opacity:1;stroke-width:0.26458332"
         id="path8295" />
    </g>
    <g
       aria-label="SPREAD"
       style="font-style:normal;font-variant:normal;font-weight:bold;font-stretch:normal;font-size:3.52777767px;line-height:1.25;font-family:Consolas;-inkscape-font-specification:'Consolas Bold';text-align:center;letter-spacing:0px;word-spacing:0px;text-anchor:middle;fill:#ffffff;fill-opacity:1;stroke:none;stroke-width:0.26458332"
       id="text7715-3-0-8-3-1-2-1-6">
      <path
         d="m 55.261098,93.64097 q 0.12065,0 0.173567,-0.07197 0.05503,-0.07197 0.05503,-0.167216 0,-0.09525 -0.03598,-0.160867 -0.03387,-0.06773 -0.08678,-0.105833 -0.05292,-0.04022 -0.1143,-0.08678 -0.06138,-0.04657 -0.1143,-0.0889 -0.05292,-0.04445 -0.0889,-0.118533 -0.03387,-0.07408 -0.03387,-0.169333 0,-0.169334 0.1016,-0.270934 0.1016,-0.1016 0.281516,-0.1016 h 0.17145 v 0.1397 h -0.162983 q -0.1016,0 -0.154517,0.06562 -0.05292,0.06562 -0.05292,0.141817 0,0.0762 0.03387,0.131233 0.03598,0.05503 0.0889,0.09102 0.05292,0.03598 0.1143,0.08467 0.0635,0.04868 0.116417,0.09948 0.05292,0.04868 0.08678,0.13335 0.03598,0.08467 0.03598,0.192616 0,0.198967 -0.1143,0.300567 -0.112184,0.1016 -0.309034,0.1016 h -0.22225 v -0.1397 z"
         style="font-style:normal;font-variant:normal;font-weight:bold;font-stretch:normal;font-size:2.11666679px;font-family:Homenaje;-inkscape-font-specification:'Homenaje Bold';fill:#ffffff;fill-opacity:1;stroke-width:0.26458332"
         id="path8298" />
      <path
         d="m 56.068871,92.438703 v 0.550334 h 0.135467 q 0.12065,0 0.186266,-0.08255 0.06773,-0.08255 0.06773,-0.213784 0,-0.254 -0.254,-0.254 z m 0.575733,0.254 q 0,0.205317 -0.112183,0.321734 -0.110067,0.1143 -0.315383,0.1143 h -0.148167 v 0.651933 h -0.186267 v -1.481667 h 0.37465 q 0.38735,0 0.38735,0.3937 z"
         style="font-style:normal;font-variant:normal;font-weight:bold;font-stretch:normal;font-size:2.11666679px;font-family:Homenaje;-inkscape-font-specification:'Homenaje Bold';fill:#ffffff;fill-opacity:1;stroke-width:0.26458332"
         id="path8300" />
      <path
         d="m 57.027986,92.438703 v 0.55245 h 0.150283 q 0.12065,0 0.186267,-0.08255 0.06773,-0.08467 0.06773,-0.2159 0,-0.254 -0.254,-0.254 z m -0.0042,0.69215 v 0.649817 h -0.182033 v -1.481667 h 0.391583 q 0.381,0 0.381,0.3937 0,0.148167 -0.05715,0.258234 -0.05715,0.110066 -0.162983,0.1524 l 0.294217,0.677333 h -0.182034 l -0.287866,-0.649817 z"
         style="font-style:normal;font-variant:normal;font-weight:bold;font-stretch:normal;font-size:2.11666679px;font-family:Homenaje;-inkscape-font-specification:'Homenaje Bold';fill:#ffffff;fill-opacity:1;stroke-width:0.26458332"
         id="path8302" />
      <path
         d="m 57.883516,93.78067 v -1.481667 h 0.645583 v 0.143934 h -0.459317 v 0.474133 h 0.372534 v 0.143933 h -0.372534 v 0.575734 h 0.480484 v 0.143933 z"
         style="font-style:normal;font-variant:normal;font-weight:bold;font-stretch:normal;font-size:2.11666679px;font-family:Homenaje;-inkscape-font-specification:'Homenaje Bold';fill:#ffffff;fill-opacity:1;stroke-width:0.26458332"
         id="path8304" />
      <path
         d="m 59.011137,92.299003 h 0.281517 l 0.321733,1.481667 H 59.44082 L 59.337104,93.344637 H 58.95187 l -0.09525,0.436033 h -0.179916 z m 0.294217,0.9017 -0.1524,-0.762 h -0.01482 l -0.154517,0.762 z"
         style="font-style:normal;font-variant:normal;font-weight:bold;font-stretch:normal;font-size:2.11666679px;font-family:Homenaje;-inkscape-font-specification:'Homenaje Bold';fill:#ffffff;fill-opacity:1;stroke-width:0.26458332"
         id="path8306" />
      <path
         d="m 59.99628,93.636737 h 0.179916 q 0.09737,0 0.156634,-0.05503 0.06138,-0.05715 0.06138,-0.150283 v -0.783167 q 0,-0.09313 -0.06138,-0.148166 -0.05927,-0.05715 -0.156634,-0.05715 H 59.99628 Z m -0.188384,0.143933 v -1.481667 h 0.3683 q 0.192617,0 0.298451,0.09737 0.105833,0.09737 0.105833,0.28575 v 0.715433 q 0,0.188384 -0.105833,0.28575 -0.105834,0.09525 -0.298451,0.09737 z"
         style="font-style:normal;font-variant:normal;font-weight:bold;font-stretch:normal;font-size:2.11666679px;font-family:Homenaje;-inkscape-font-specification:'Homenaje Bold';fill:#ffffff;fill-opacity:1;stroke-width:0.26458332"
         id="path8308" />
    </g>
  </g>
</svg>
