<?xml version="1.0" encoding="UTF-8" standalone="no"?>
<svg
   xmlns:dc="http://purl.org/dc/elements/1.1/"
   xmlns:cc="http://creativecommons.org/ns#"
   xmlns:rdf="http://www.w3.org/1999/02/22-rdf-syntax-ns#"
   xmlns:svg="http://www.w3.org/2000/svg"
   xmlns="http://www.w3.org/2000/svg"
   xmlns:xlink="http://www.w3.org/1999/xlink"
   xmlns:sodipodi="http://sodipodi.sourceforge.net/DTD/sodipodi-0.dtd"
   xmlns:inkscape="http://www.inkscape.org/namespaces/inkscape"
   sodipodi:docname="TheOneRingModulator.svg"
   inkscape:version="1.0 (4035a4fb49, 2020-05-01)"
   id="svg11003"
   version="1.1"
   viewBox="0 0 39.687501 100.54167"
   height="380"
   width="150">
  <defs
     id="defs10997">
    <rect
       id="rect12411"
       height="45.275459"
       width="48.081789"
       y="95.477375"
       x="31.21745" />
    <linearGradient
       id="linearGradient4682"
       inkscape:collect="always">
      <stop
         id="stop3387"
         offset="0"
         style="stop-color:#0c1622;stop-opacity:1" />
      <stop
         id="stop3388"
         offset=".3"
         style="stop-color:#161625;stop-opacity:1" />
      <stop
         id="stop3389"
         offset="1"
         style="stop-color:#081f35;stop-opacity:1" />
    </linearGradient>
    <linearGradient
       gradientTransform="matrix(0.7685196,0,0,1,8.1526538,0)"
       gradientUnits="userSpaceOnUse"
       y2="50.163956"
       x2="35.23983"
       y1="150.85843"
       x1="35.219627"
       id="linearGradient4684"
       xlink:href="#linearGradient4682"
       inkscape:collect="always" />
  </defs>
  <sodipodi:namedview
     inkscape:document-rotation="0"
     units="px"
     inkscape:window-maximized="1"
     inkscape:window-y="-6"
     inkscape:window-x="-6"
     inkscape:window-height="1058"
     inkscape:window-width="1920"
     fit-margin-bottom="0"
     fit-margin-right="0"
     fit-margin-left="0"
     fit-margin-top="0"
     showgrid="false"
     inkscape:current-layer="layer1"
     inkscape:document-units="px"
     inkscape:cy="261.7568"
     inkscape:cx="44.82307"
     inkscape:zoom="1.4142136"
     inkscape:pageshadow="2"
     inkscape:pageopacity="0.0"
     borderopacity="1.0"
     bordercolor="#666666"
     pagecolor="#ffffff"
     id="base" />
  <metadata
     id="metadata11000">
    <rdf:RDF>
      <cc:Work
         rdf:about="">
        <dc:format>image/svg+xml</dc:format>
        <dc:type
           rdf:resource="http://purl.org/dc/dcmitype/StillImage" />
        <dc:title></dc:title>
      </cc:Work>
    </rdf:RDF>
  </metadata>
  <g
     transform="translate(-35.146312,-50.389004)"
     id="layer1"
     inkscape:groupmode="layer"
     inkscape:label="Layer 1">
    <path
       inkscape:export-ydpi="150.22649"
       inkscape:export-xdpi="150.22649"
       inkscape:export-filename="/home/vortico/pics/tmp/LFOs.png"
       style="fill:url(#linearGradient4684);fill-opacity:1;fill-rule:nonzero;stroke:none;stroke-width:0.27576962"
       d="M 35.219628,50.462323 H 74.748617 V 150.85843 H 35.219628 Z m 0,0"
       id="path33493"
       inkscape:connector-curvature="0" />
    <g
       style="font-style:normal;font-weight:normal;font-size:3.52778px;line-height:1.25;font-family:sans-serif;letter-spacing:0px;word-spacing:0px;fill:#ffffff;fill-opacity:1;stroke:none;stroke-width:0.264583"
       id="text5097" />
    <g
       style="font-style:normal;font-variant:normal;font-weight:normal;font-stretch:normal;font-size:3.52778px;line-height:1.25;font-family:Quarca;-inkscape-font-specification:Quarca;text-align:center;letter-spacing:0px;word-spacing:0px;text-anchor:middle;fill:#dddddd;fill-opacity:1;stroke:none;stroke-width:0.264583"
       id="text136"
       aria-label="THE ONE RING">
      <path
         id="path2874"
         style="font-style:normal;font-variant:normal;font-weight:normal;font-stretch:normal;font-size:3.88056px;font-family:Quarca;-inkscape-font-specification:Quarca;fill:#dddddd;fill-opacity:1;stroke-width:0.264583"
         d="m 45.490561,51.738098 v -0.209551 h -1.633715 v 0.209551 h 0.706262 v 2.545647 h 0.225072 v -2.545647 z" />
      <path
         id="path2876"
         style="font-style:normal;font-variant:normal;font-weight:normal;font-stretch:normal;font-size:3.88056px;font-family:Quarca;-inkscape-font-specification:Quarca;fill:#dddddd;fill-opacity:1;stroke-width:0.264583"
         d="m 46.015832,54.283745 v -1.043871 h 1.276704 v 1.043871 h 0.221192 v -2.755198 h -0.221192 v 1.501777 H 46.015832 V 51.528547 H 45.79464 v 2.755198 z" />
      <path
         id="path2878"
         style="font-style:normal;font-variant:normal;font-weight:normal;font-stretch:normal;font-size:3.88056px;font-family:Quarca;-inkscape-font-specification:Quarca;fill:#dddddd;fill-opacity:1;stroke-width:0.264583"
         d="m 48.251701,51.738098 h 1.24566 l 0.03104,-0.209551 h -1.497896 v 2.755198 h 1.474613 l 0.03104,-0.20955 h -1.284465 v -0.842082 h 1.043871 l 0.03104,-0.20567 h -1.074915 z" />
      <path
         id="path2880"
         style="font-style:normal;font-variant:normal;font-weight:normal;font-stretch:normal;font-size:3.88056px;font-family:Quarca;-inkscape-font-specification:Quarca;fill:#dddddd;fill-opacity:1;stroke-width:0.264583"
         d="m 50.667713,53.748228 c 0,0.357011 0.13582,0.535517 0.531637,0.535517 h 0.737306 c 0.395817,0 0.531637,-0.178506 0.531637,-0.535517 v -1.684163 c 0,-0.357012 -0.13582,-0.535518 -0.531637,-0.535518 H 51.19935 c -0.395817,0 -0.531637,0.178506 -0.531637,0.535518 z m 0.55492,-2.01013 h 0.69074 c 0.248356,0 0.333728,0.116416 0.333728,0.360892 v 1.614313 c 0,0.244475 -0.08537,0.360892 -0.333728,0.360892 h -0.69074 c -0.244475,0 -0.333728,-0.116417 -0.333728,-0.360892 V 52.09899 c 0,-0.244476 0.08925,-0.360892 0.333728,-0.360892 z" />
      <path
         id="path2882"
         style="font-style:normal;font-variant:normal;font-weight:normal;font-stretch:normal;font-size:3.88056px;font-family:Quarca;-inkscape-font-specification:Quarca;fill:#dddddd;fill-opacity:1;stroke-width:0.264583"
         d="m 53.193352,54.283745 v -2.371022 c 0.05821,0.128058 0.108655,0.256117 0.201789,0.41522 l 1.133123,1.955802 h 0.225073 v -2.755198 h -0.225073 v 2.367142 c -0.04269,-0.100895 -0.08149,-0.197909 -0.155222,-0.325967 l -1.17969,-2.041175 H 52.97216 v 2.755198 z" />
      <path
         id="path2884"
         style="font-style:normal;font-variant:normal;font-weight:normal;font-stretch:normal;font-size:3.88056px;font-family:Quarca;-inkscape-font-specification:Quarca;fill:#dddddd;fill-opacity:1;stroke-width:0.264583"
         d="m 55.497433,51.738098 h 1.24566 l 0.03104,-0.209551 h -1.497896 v 2.755198 h 1.474612 l 0.03105,-0.20955 h -1.284466 v -0.842082 h 1.043871 l 0.03105,-0.20567 h -1.074916 z" />
      <path
         id="path2886"
         style="font-style:normal;font-variant:normal;font-weight:normal;font-stretch:normal;font-size:3.88056px;font-family:Quarca;-inkscape-font-specification:Quarca;fill:#dddddd;fill-opacity:1;stroke-width:0.264583"
         d="m 57.928969,54.283745 h 0.221192 v -1.10596 h 0.508353 l 0.772231,1.10596 h 0.259998 l -0.776112,-1.10596 h 0.05433 c 0.368653,0 0.547159,-0.174625 0.547159,-0.523875 v -0.601487 c 0,-0.349251 -0.178506,-0.523876 -0.547159,-0.523876 h -1.03999 z m 0.221192,-2.545647 h 0.779992 c 0.248356,0 0.360892,0.116416 0.360892,0.380294 v 0.469548 c 0,0.267759 -0.112536,0.384176 -0.360892,0.384176 h -0.779992 z" />
      <path
         id="path2888"
         style="font-style:normal;font-variant:normal;font-weight:normal;font-stretch:normal;font-size:3.88056px;font-family:Quarca;-inkscape-font-specification:Quarca;fill:#dddddd;fill-opacity:1;stroke-width:0.264583"
         d="m 60.211708,54.283745 v -2.755198 h -0.221192 v 2.755198 z" />
      <path
         id="path2890"
         style="font-style:normal;font-variant:normal;font-weight:normal;font-stretch:normal;font-size:3.88056px;font-family:Quarca;-inkscape-font-specification:Quarca;fill:#dddddd;fill-opacity:1;stroke-width:0.264583"
         d="m 60.954471,54.283745 v -2.371022 c 0.05821,0.128058 0.108656,0.256117 0.20179,0.41522 l 1.133123,1.955802 h 0.225073 v -2.755198 h -0.225073 v 2.367142 c -0.04269,-0.100895 -0.08149,-0.197909 -0.155222,-0.325967 L 60.954471,51.528547 H 60.73328 v 2.755198 z" />
      <path
         id="path2892"
         style="font-style:normal;font-variant:normal;font-weight:normal;font-stretch:normal;font-size:3.88056px;font-family:Quarca;-inkscape-font-specification:Quarca;fill:#dddddd;fill-opacity:1;stroke-width:0.264583"
         d="m 63.871683,53.162263 h 0.663576 v 0.578203 c 0,0.225073 -0.09313,0.333729 -0.34149,0.333729 h -0.613128 c -0.228953,0 -0.337609,-0.104776 -0.337609,-0.353131 v -1.602672 c 0,-0.263878 0.08925,-0.380294 0.318206,-0.380294 h 0.663576 c 0.228953,0 0.329847,0.104775 0.329847,0.35313 v 0.248356 h 0.221192 v -0.314325 c 0,-0.34537 -0.170744,-0.496712 -0.500592,-0.496712 h -0.787754 c -0.310444,0 -0.465667,0.174625 -0.465667,0.523876 v 1.738491 c 0,0.34925 0.194028,0.492831 0.504473,0.492831 h 0.721784 c 0.384176,0 0.512234,-0.190148 0.512234,-0.523876 v -0.807156 h -0.857604 z" />
    </g>
    <g
       style="font-style:normal;font-variant:normal;font-weight:normal;font-stretch:normal;font-size:3.52778px;line-height:1.25;font-family:Quarca;-inkscape-font-specification:Quarca;text-align:center;letter-spacing:0px;word-spacing:0px;text-anchor:middle;fill:#dddddd;fill-opacity:1;stroke:none;stroke-width:0.264583"
       id="text299"
       aria-label="BIAS">
      <path
         id="path2865"
         style="font-style:normal;font-variant:normal;font-weight:normal;font-stretch:normal;font-size:2.82222px;font-family:Quarca;-inkscape-font-specification:Quarca;fill:#dddddd;fill-opacity:1;stroke-width:0.264583"
         d="m 39.092618,99.601486 h 0.784577 c 0.301977,0 0.437444,-0.129822 0.437444,-0.389466 v -0.273756 c 0,-0.273755 -0.146756,-0.372533 -0.327378,-0.386644 0.1524,-0.03104 0.222956,-0.132644 0.222956,-0.318911 v -0.245533 c 0,-0.259644 -0.149578,-0.389466 -0.465667,-0.389466 h -0.651932 z m 0.160866,-0.970844 h 0.536222 c 0.251178,0 0.364066,0.09596 0.364066,0.316089 v 0.234244 c 0,0.180622 -0.09313,0.268111 -0.301977,0.268111 h -0.598311 z m 0,-0.880532 h 0.454378 c 0.234244,0 0.341488,0.07902 0.341488,0.273755 v 0.197556 c 0,0.160866 -0.08749,0.259644 -0.285044,0.259644 h -0.510822 z" />
      <path
         id="path2867"
         style="font-style:normal;font-variant:normal;font-weight:normal;font-stretch:normal;font-size:2.82222px;font-family:Quarca;-inkscape-font-specification:Quarca;fill:#dddddd;fill-opacity:1;stroke-width:0.264583"
         d="M 40.791374,99.601486 V 97.59771 h -0.160867 v 2.003776 z" />
      <path
         id="path2869"
         style="font-style:normal;font-variant:normal;font-weight:normal;font-stretch:normal;font-size:2.82222px;font-family:Quarca;-inkscape-font-specification:Quarca;fill:#dddddd;fill-opacity:1;stroke-width:0.264583"
         d="m 41.650475,97.59771 -0.618066,2.003776 h 0.172155 l 0.129822,-0.434622 h 0.807155 l 0.129823,0.434622 h 0.172155 L 41.828275,97.59771 Z m 0.09031,0.214489 0.3556,1.202265 h -0.716844 z" />
      <path
         id="path2871"
         style="font-style:normal;font-variant:normal;font-weight:normal;font-stretch:normal;font-size:2.82222px;font-family:Quarca;-inkscape-font-specification:Quarca;fill:#dddddd;fill-opacity:1;stroke-width:0.264583"
         d="m 43.468955,98.768931 c 0.141111,0.05927 0.1778,0.107245 0.1778,0.245533 v 0.194734 c 0,0.169333 -0.07056,0.239888 -0.231422,0.239888 h -0.426155 c -0.160867,0 -0.234245,-0.07055 -0.234245,-0.239888 v -0.211667 h -0.160866 v 0.251178 c 0,0.234244 0.110066,0.352777 0.369711,0.352777 h 0.49671 c 0.234245,0 0.349956,-0.118533 0.349956,-0.352777 v -0.276578 c 0,-0.200377 -0.0762,-0.270933 -0.282222,-0.361244 l -0.578556,-0.245533 c -0.132644,-0.05644 -0.166511,-0.110067 -0.166511,-0.234244 v -0.124178 c 0,-0.191911 0.06209,-0.256822 0.242711,-0.256822 h 0.352778 c 0.160866,0 0.239889,0.07338 0.239889,0.248355 v 0.189089 h 0.163688 v -0.2286 c 0,-0.254 -0.121355,-0.361244 -0.380999,-0.361244 h -0.417689 c -0.248355,0 -0.361244,0.110067 -0.361244,0.361244 v 0.197556 c 0,0.203199 0.06773,0.276577 0.2794,0.36971 z" />
    </g>
    <g
       style="font-style:normal;font-variant:normal;font-weight:normal;font-stretch:normal;font-size:3.52778px;line-height:1.25;font-family:Quarca;-inkscape-font-specification:Quarca;text-align:center;letter-spacing:0px;word-spacing:0px;text-anchor:middle;fill:#dddddd;fill-opacity:1;stroke:none;stroke-width:0.264583"
       id="text303"
       aria-label="LINEAR">
      <path
         id="path2852"
         style="font-style:normal;font-variant:normal;font-weight:normal;font-stretch:normal;font-size:2.82222px;font-family:Quarca;-inkscape-font-specification:Quarca;fill:#dddddd;fill-opacity:1;stroke-width:0.264583"
         d="m 51.88734,97.59755 h -0.160867 v 2.003776 h 1.027288 l 0.02258,-0.1524 H 51.88734 Z" />
      <path
         id="path2854"
         style="font-style:normal;font-variant:normal;font-weight:normal;font-stretch:normal;font-size:2.82222px;font-family:Quarca;-inkscape-font-specification:Quarca;fill:#dddddd;fill-opacity:1;stroke-width:0.264583"
         d="M 53.155134,99.601326 V 97.59755 h -0.160867 v 2.003776 z" />
      <path
         id="path2856"
         style="font-style:normal;font-variant:normal;font-weight:normal;font-stretch:normal;font-size:2.82222px;font-family:Quarca;-inkscape-font-specification:Quarca;fill:#dddddd;fill-opacity:1;stroke-width:0.264583"
         d="M 53.695324,99.601326 V 97.87695 c 0.04233,0.09313 0.07902,0.186266 0.146756,0.301977 l 0.824088,1.422399 h 0.163689 V 97.59755 h -0.163689 v 1.721554 c -0.03104,-0.07338 -0.05927,-0.143933 -0.112889,-0.237067 L 53.695324,97.59755 h -0.160866 v 2.003776 z" />
      <path
         id="path2858"
         style="font-style:normal;font-variant:normal;font-weight:normal;font-stretch:normal;font-size:2.82222px;font-family:Quarca;-inkscape-font-specification:Quarca;fill:#dddddd;fill-opacity:1;stroke-width:0.264583"
         d="m 55.371018,97.74995 h 0.905932 l 0.02258,-0.1524 h -1.089377 v 2.003776 h 1.072444 l 0.02258,-0.1524 h -0.934154 v -0.612422 h 0.759177 l 0.02258,-0.149577 h -0.781755 z" />
      <path
         id="path2860"
         style="font-style:normal;font-variant:normal;font-weight:normal;font-stretch:normal;font-size:2.82222px;font-family:Quarca;-inkscape-font-specification:Quarca;fill:#dddddd;fill-opacity:1;stroke-width:0.264583"
         d="m 57.045917,97.59755 -0.618066,2.003776 h 0.172155 l 0.129822,-0.434622 h 0.807155 l 0.129822,0.434622 h 0.172156 L 57.223717,97.59755 Z m 0.09031,0.214488 0.3556,1.202266 h -0.716844 z" />
      <path
         id="path2862"
         style="font-style:normal;font-variant:normal;font-weight:normal;font-stretch:normal;font-size:2.82222px;font-family:Quarca;-inkscape-font-specification:Quarca;fill:#dddddd;fill-opacity:1;stroke-width:0.264583"
         d="m 58.081981,99.601326 h 0.160866 v -0.804333 h 0.369711 l 0.561622,0.804333 h 0.189089 l -0.564445,-0.804333 h 0.03951 c 0.26811,0 0.397933,-0.127 0.397933,-0.380999 v -0.437445 c 0,-0.253999 -0.129823,-0.380999 -0.397933,-0.380999 h -0.756355 z m 0.160866,-1.851376 h 0.567266 c 0.180622,0 0.262467,0.08467 0.262467,0.276577 v 0.341489 c 0,0.194733 -0.08185,0.2794 -0.262467,0.2794 h -0.567266 z" />
    </g>
    <g
       style="font-style:normal;font-variant:normal;font-weight:normal;font-stretch:normal;font-size:3.52778px;line-height:1.25;font-family:Quarca;-inkscape-font-specification:Quarca;text-align:center;letter-spacing:0px;word-spacing:0px;text-anchor:middle;fill:#dddddd;fill-opacity:1;stroke:none;stroke-width:0.264583"
       id="text307"
       aria-label="SLOPE">
      <path
         id="path2841"
         style="font-style:normal;font-variant:normal;font-weight:normal;font-stretch:normal;font-size:2.82222px;font-family:Quarca;-inkscape-font-specification:Quarca;fill:#dddddd;fill-opacity:1;stroke-width:0.264583"
         d="m 65.000681,98.768771 c 0.141111,0.05927 0.1778,0.107244 0.1778,0.245533 v 0.194733 c 0,0.169334 -0.07056,0.239889 -0.231423,0.239889 h -0.426155 c -0.160866,0 -0.234244,-0.07055 -0.234244,-0.239889 v -0.211666 h -0.160867 v 0.251177 c 0,0.234245 0.110067,0.352778 0.369711,0.352778 h 0.496711 c 0.234244,0 0.349955,-0.118533 0.349955,-0.352778 v -0.276577 c 0,-0.200378 -0.0762,-0.270933 -0.282222,-0.361244 l -0.578555,-0.245533 c -0.132644,-0.05644 -0.166511,-0.110067 -0.166511,-0.234245 v -0.124177 c 0,-0.191911 0.06209,-0.256822 0.242711,-0.256822 h 0.352778 c 0.160866,0 0.239888,0.07338 0.239888,0.248355 v 0.189089 h 0.163689 v -0.2286 c 0,-0.254 -0.121355,-0.361244 -0.381,-0.361244 h -0.417688 c -0.248356,0 -0.361244,0.110066 -0.361244,0.361244 v 0.197555 c 0,0.2032 0.06773,0.276578 0.279399,0.369711 z" />
      <path
         id="path2843"
         style="font-style:normal;font-variant:normal;font-weight:normal;font-stretch:normal;font-size:2.82222px;font-family:Quarca;-inkscape-font-specification:Quarca;fill:#dddddd;fill-opacity:1;stroke-width:0.264583"
         d="m 65.823314,97.59755 h -0.160867 v 2.003776 h 1.027288 l 0.02258,-0.1524 h -0.888999 z" />
      <path
         id="path2845"
         style="font-style:normal;font-variant:normal;font-weight:normal;font-stretch:normal;font-size:2.82222px;font-family:Quarca;-inkscape-font-specification:Quarca;fill:#dddddd;fill-opacity:1;stroke-width:0.264583"
         d="m 66.918952,99.21186 c 0,0.259644 0.09878,0.389466 0.386644,0.389466 h 0.536222 c 0.287867,0 0.386644,-0.129822 0.386644,-0.389466 v -1.224844 c 0,-0.259644 -0.09878,-0.389466 -0.386644,-0.389466 h -0.536222 c -0.287866,0 -0.386644,0.129822 -0.386644,0.389466 z m 0.403578,-1.46191 h 0.502355 c 0.180622,0 0.242711,0.08467 0.242711,0.262466 v 1.174044 c 0,0.1778 -0.06209,0.262466 -0.242711,0.262466 H 67.32253 c -0.1778,0 -0.242711,-0.08467 -0.242711,-0.262466 v -1.174044 c 0,-0.1778 0.06491,-0.262466 0.242711,-0.262466 z" />
      <path
         id="path2847"
         style="font-style:normal;font-variant:normal;font-weight:normal;font-stretch:normal;font-size:2.82222px;font-family:Quarca;-inkscape-font-specification:Quarca;fill:#dddddd;fill-opacity:1;stroke-width:0.264583"
         d="m 68.755777,98.777238 h 0.632177 c 0.251178,0 0.381,-0.127 0.381,-0.378178 v -0.423333 c 0,-0.251177 -0.129822,-0.378177 -0.381,-0.378177 H 68.59491 v 2.003776 h 0.160867 z m 0,-1.027288 h 0.609599 c 0.163689,0 0.239889,0.0762 0.239889,0.256822 v 0.361244 c 0,0.180622 -0.0762,0.256822 -0.239889,0.256822 h -0.609599 z" />
      <path
         id="path2849"
         style="font-style:normal;font-variant:normal;font-weight:normal;font-stretch:normal;font-size:2.82222px;font-family:Quarca;-inkscape-font-specification:Quarca;fill:#dddddd;fill-opacity:1;stroke-width:0.264583"
         d="m 70.22752,97.74995 h 0.905933 l 0.02258,-0.1524 h -1.089377 v 2.003776 h 1.072443 l 0.02258,-0.1524 H 70.22752 v -0.612422 h 0.759178 l 0.02258,-0.149577 H 70.22752 Z" />
    </g>
    <g
       style="font-style:normal;font-variant:normal;font-weight:bold;font-stretch:normal;font-size:3.52778px;line-height:1.25;font-family:Consolas;-inkscape-font-specification:'Consolas Bold';text-align:center;letter-spacing:0px;word-spacing:0px;text-anchor:middle;fill:#ffffff;fill-opacity:1;stroke:none;stroke-width:0.264583"
       id="text373" />
    <g
       style="font-style:normal;font-variant:normal;font-weight:bold;font-stretch:normal;font-size:13.3333px;line-height:1.25;font-family:Consolas;-inkscape-font-specification:'Consolas Bold';text-align:center;letter-spacing:0px;word-spacing:0px;text-anchor:middle;fill:#ffffff;fill-opacity:1;stroke:none"
       id="flowRoot250" />
    <path
       style="fill:#1e282b;fill-opacity:1;fill-rule:nonzero;stroke:none;stroke-width:0.21851985"
       d="M 73.219127,93.782704 H 35.967434 L 36.232018,61.65327 h 37.251693 z m 0,0"
       id="path38411"
       inkscape:connector-curvature="0" />
    <path
       style="clip-rule:nonzero;fill:none;stroke:#ffffff;stroke-width:0.2161129;stroke-linecap:butt;stroke-linejoin:miter;stroke-miterlimit:10;stroke-dasharray:none;stroke-opacity:0.25098039"
       d="M 37.621225,63.118735 H 72.094846"
       id="path5509"
       inkscape:connector-curvature="0" />
    <path
       style="clip-rule:nonzero;fill:none;stroke:#ffffff;stroke-width:0.21610826;stroke-linecap:butt;stroke-linejoin:miter;stroke-miterlimit:10;stroke-dasharray:none;stroke-opacity:0.25098039"
       d="M 37.621225,70.377857 H 72.017058"
       id="path5503"
       inkscape:connector-curvature="0" />
    <path
       style="clip-rule:nonzero;fill:none;stroke:#ffffff;stroke-width:0.21610826;stroke-linecap:butt;stroke-linejoin:miter;stroke-miterlimit:10;stroke-dasharray:none;stroke-opacity:0.25098039"
       d="M 37.621225,84.975823 H 72.017058"
       id="path5497"
       inkscape:connector-curvature="0" />
    <path
       style="clip-rule:nonzero;fill:none;stroke:#ffffff;stroke-width:0.21610826;stroke-linecap:butt;stroke-linejoin:miter;stroke-miterlimit:10;stroke-dasharray:none;stroke-opacity:0.25098039"
       d="M 37.621225,92.275344 H 72.017058"
       id="path5491"
       inkscape:connector-curvature="0" />
    <path
       style="clip-rule:nonzero;fill:none;stroke:#ffffff;stroke-width:0.21610826;stroke-linecap:butt;stroke-linejoin:miter;stroke-miterlimit:10;stroke-dasharray:none;stroke-opacity:0.25098039"
       d="M 37.621225,77.677377 H 72.017058"
       id="path5305"
       inkscape:connector-curvature="0" />
    <path
       style="clip-rule:nonzero;fill:none;stroke:#ffffff;stroke-width:0.26458332;stroke-linecap:butt;stroke-linejoin:miter;stroke-miterlimit:10;stroke-dasharray:none;stroke-opacity:0.25098039"
       d="M 63.457496,63.118735 V 92.253254"
       id="path4803"
       inkscape:connector-curvature="0" />
    <path
       style="clip-rule:nonzero;fill:none;stroke:#ffffff;stroke-width:0.26458332;stroke-linecap:butt;stroke-linejoin:miter;stroke-miterlimit:10;stroke-dasharray:none;stroke-opacity:0.25098039"
       d="M 72.069207,63.118735 V 92.253254"
       id="path4797"
       inkscape:connector-curvature="0" />
    <path
       style="clip-rule:nonzero;fill:none;stroke:#ffffff;stroke-width:0.26458332;stroke-linecap:butt;stroke-linejoin:miter;stroke-miterlimit:10;stroke-dasharray:none;stroke-opacity:0.25098039"
       d="M 54.845732,63.118735 V 92.253254"
       id="path4791"
       inkscape:connector-curvature="0" />
    <path
       style="clip-rule:nonzero;fill:none;stroke:#ffffff;stroke-width:0.26458332;stroke-linecap:butt;stroke-linejoin:miter;stroke-miterlimit:10;stroke-dasharray:none;stroke-opacity:0.25098039"
       d="M 46.234021,63.118735 V 92.253254"
       id="path4785"
       inkscape:connector-curvature="0" />
    <g
       style="font-style:normal;font-variant:normal;font-weight:bold;font-stretch:normal;font-size:3.52778px;line-height:1.25;font-family:Consolas;-inkscape-font-specification:'Consolas Bold';text-align:start;letter-spacing:0px;word-spacing:0px;text-anchor:start;fill:#00a3f2;fill-opacity:1;stroke:none;stroke-width:0.264583"
       id="text3885-7"
       aria-label="FROZEN WASTELAND">
      <path
         id="path2808"
         style="font-style:normal;font-variant:normal;font-weight:normal;font-stretch:normal;font-family:'Bradley Gratis';-inkscape-font-specification:'Bradley Gratis';text-align:start;text-anchor:start;stroke-width:0.264583"
         d="m 40.48877,150.2604 q 0.119945,-0.11995 0.1905,-0.21167 0.07408,-0.0917 0.112889,-0.16934 0.04233,-0.0776 0.05292,-0.14463 0.01411,-0.0706 0.01411,-0.14817 0,-0.0952 -0.04586,-0.22931 -0.04586,-0.13405 -0.102306,-0.28575 -0.05644,-0.15169 -0.102305,-0.31044 -0.04586,-0.15875 -0.04586,-0.30339 0,-0.0776 0.02469,-0.15169 0.02822,-0.0741 0.06703,-0.14112 0.04233,-0.0706 0.09172,-0.13052 0.04939,-0.0635 0.09878,-0.11289 -0.07056,-0.0141 -0.123472,-0.0212 -0.05292,-0.0106 -0.07761,-0.0106 -0.130528,0 -0.222251,0.0706 -0.08819,0.067 -0.1905,0.16934 0,-0.11995 0.03528,-0.24695 0.03881,-0.13053 0.116417,-0.23636 0.07761,-0.10583 0.194028,-0.17286 0.119944,-0.067 0.282222,-0.067 0.112889,0 0.208139,0.0176 0.09878,0.0141 0.179917,0.0353 0.08114,0.0212 0.148167,0.0388 0.06703,0.0141 0.119944,0.0141 0.08114,0 0.141111,-0.0212 0.0635,-0.0247 0.123473,-0.0847 0,0.0776 -0.03175,0.17639 -0.02822,0.0988 -0.08819,0.1905 -0.05644,0.0882 -0.148166,0.15169 -0.09172,0.06 -0.211667,0.06 -0.05997,0 -0.137584,-0.007 -0.07408,-0.0106 -0.155222,-0.0247 -0.0071,0.0247 -0.01058,0.0459 -0.0035,0.0212 -0.0071,0.0388 -0.0035,0.0212 -0.0035,0.0388 0,0.0776 0.01058,0.15169 0.01411,0.0706 0.0388,0.14464 h 0.712612 l -0.08114,0.23989 q -0.01058,0.0459 -0.01411,0.067 -0.0035,0.0212 -0.01058,0.067 l -0.130527,-0.0917 h -0.363362 q 0.07761,0.17638 0.144639,0.35983 0.06703,0.17992 0.06703,0.38453 0,0.18344 -0.07408,0.34219 -0.07408,0.15522 -0.197556,0.27164 -0.119945,0.11642 -0.278695,0.17992 -0.155222,0.067 -0.321028,0.067 z" />
      <path
         id="path2810"
         style="font-style:normal;font-variant:normal;font-weight:normal;font-stretch:normal;font-family:'Bradley Gratis';-inkscape-font-specification:'Bradley Gratis';text-align:start;text-anchor:start;stroke-width:0.264583"
         d="m 42.558861,148.53178 q 0.07055,-0.0423 0.137583,-0.0988 0.07056,-0.0564 0.123472,-0.127 0.05645,-0.0706 0.08819,-0.16228 0.03528,-0.0952 0.03528,-0.21167 0,-0.0988 -0.03881,-0.16581 -0.03528,-0.0706 -0.08467,-0.11288 -0.04939,-0.0423 -0.09878,-0.06 -0.04586,-0.0176 -0.07056,-0.0176 -0.02822,0 -0.05292,0.0106 -0.02117,0.0106 -0.0388,0.0247 z m -0.518584,-0.94191 q -0.112889,-0.0635 -0.112889,-0.23637 0.03175,0.0318 0.112889,0.0565 0.08114,0.0212 0.172861,0.0212 0.04586,0 0.130528,-0.0106 0.08467,-0.0141 0.172861,-0.0282 0.09172,-0.0141 0.172861,-0.0247 0.08467,-0.0141 0.130528,-0.0141 0.116417,0 0.232834,0.0353 0.116417,0.0353 0.215194,0.11995 0.09878,0.0847 0.165806,0.2293 0.07056,0.14111 0.09172,0.35984 l -0.627945,0.4445 q 0.07056,0.0282 0.158751,0.0952 0.08819,0.067 0.165805,0.18697 0.08114,0.11994 0.134056,0.30692 0.05292,0.18344 0.05292,0.45155 0,0.23283 0.02117,0.37747 0.02117,0.14464 0.05292,0.23284 0.03175,0.0882 0.06703,0.13053 0.0388,0.0459 0.07055,0.0776 -0.155222,0 -0.275166,-0.0917 -0.119945,-0.0882 -0.211667,-0.23283 -0.09172,-0.14464 -0.162278,-0.32808 -0.06703,-0.18345 -0.123472,-0.37042 -0.05645,-0.18697 -0.105834,-0.35983 -0.04586,-0.17286 -0.09525,-0.29986 -0.02469,0.0176 -0.04939,0.0353 -0.02117,0.0141 -0.0388,0.0317 v 1.31939 h -0.518584 z" />
      <path
         id="path2812"
         style="font-style:normal;font-variant:normal;font-weight:normal;font-stretch:normal;font-family:'Bradley Gratis';-inkscape-font-specification:'Bradley Gratis';text-align:start;text-anchor:start;stroke-width:0.264583"
         d="m 44.446609,149.63951 q 0,0.11994 0.01411,0.18697 0.01764,0.067 0.04233,0.1023 0.02822,0.0318 0.0635,0.0388 0.03528,0.007 0.07056,0.007 0.07055,0 0.116417,-0.0952 0.04586,-0.0988 0.04586,-0.29986 v -1.53105 q 0,-0.15875 -0.01764,-0.25753 -0.01411,-0.10231 -0.04233,-0.15522 -0.0247,-0.0564 -0.05997,-0.0776 -0.03175,-0.0212 -0.0635,-0.0212 -0.06703,0 -0.119944,0.0847 -0.04939,0.0811 -0.04939,0.26105 z m 1.005417,-0.88548 q 0,0.25753 -0.06703,0.508 -0.0635,0.25048 -0.176389,0.44803 -0.109361,0.19756 -0.261055,0.32103 -0.151695,0.11994 -0.321028,0.11994 -0.158751,0 -0.310445,-0.10936 -0.148167,-0.10936 -0.264584,-0.29986 -0.112889,-0.1905 -0.183444,-0.4445 -0.07056,-0.254 -0.07056,-0.54328 0,-0.23636 0.0635,-0.4833 0.06703,-0.25048 0.179917,-0.45156 0.112889,-0.20108 0.264584,-0.32808 0.151694,-0.13053 0.321028,-0.13053 0.148166,0 0.292805,0.10936 0.148167,0.10936 0.264584,0.29986 0.119944,0.18697 0.194028,0.44097 0.07408,0.25401 0.07408,0.54328 z" />
      <path
         id="path2814"
         style="font-style:normal;font-variant:normal;font-weight:normal;font-stretch:normal;font-family:'Bradley Gratis';-inkscape-font-specification:'Bradley Gratis';text-align:start;text-anchor:start;stroke-width:0.264583"
         d="m 45.606091,150.11223 q 0.04586,-0.27164 0.130527,-0.51153 0.08819,-0.23989 0.194028,-0.45861 0.105834,-0.21872 0.218723,-0.41628 0.116416,-0.20108 0.218722,-0.38805 0.102306,-0.18698 0.179917,-0.36337 0.07761,-0.17991 0.112889,-0.35983 -0.02822,-0.0176 -0.06703,-0.0318 -0.03528,-0.0141 -0.137583,-0.0141 -0.05292,0 -0.09525,0.0282 -0.03881,0.0247 -0.06703,0.0635 -0.02822,0.0353 -0.04586,0.0776 -0.01411,0.0388 -0.01411,0.0635 0,0.0282 0.01058,0.067 0.01411,0.0353 0.02822,0.0706 0.01764,0.0353 0.03528,0.067 0.01764,0.0282 0.03175,0.0423 l -0.430389,0.26811 q -0.08467,-0.0811 -0.144639,-0.19756 -0.05644,-0.11994 -0.05644,-0.23989 0,-0.06 0.03175,-0.14816 0.03175,-0.0882 0.102306,-0.16934 0.07055,-0.0847 0.183444,-0.14111 0.116417,-0.06 0.282223,-0.06 0.130528,0 0.218722,0.0176 0.0882,0.0176 0.155223,0.0423 0.06703,0.0212 0.123472,0.0388 0.05997,0.0176 0.134055,0.0176 0.04586,0 0.09878,-0.007 0.05292,-0.007 0.09878,-0.0212 0.04586,-0.0141 0.08114,-0.0282 0.03881,-0.0176 0.05997,-0.0388 -0.04233,0.22225 -0.134055,0.46214 -0.09172,0.23988 -0.204612,0.47977 -0.109361,0.23989 -0.232833,0.4692 -0.119945,0.2293 -0.22225,0.43039 -0.09878,0.19755 -0.169334,0.35983 -0.06703,0.15875 -0.07408,0.26106 0.141111,0.06 0.239889,0.06 0.0635,0 0.130528,-0.0141 0.06703,-0.0176 0.119944,-0.0529 0.05645,-0.0353 0.09172,-0.0882 0.03528,-0.0565 0.03528,-0.13406 0,-0.0776 -0.01764,-0.127 -0.01411,-0.0529 -0.03881,-0.0847 -0.02469,-0.0353 -0.05644,-0.06 -0.03175,-0.0282 -0.05997,-0.0564 l 0.405695,-0.29986 q 0.141111,0.10583 0.201083,0.22577 0.05997,0.11995 0.05997,0.26106 0,0.067 -0.02117,0.13053 -0.01764,0.06 -0.04586,0.11289 -0.0247,0.0494 -0.05997,0.0917 -0.03175,0.0423 -0.05644,0.067 l 0.05997,0.06 q 0.01764,0.0176 0.03881,0.0529 0.02117,0.0317 0.02117,0.0564 0,0.0282 -0.0247,0.0811 -0.02117,0.0564 -0.08819,0.0988 -0.0247,-0.0318 -0.05644,-0.0565 -0.02822,-0.0212 -0.05997,-0.0388 -0.03175,-0.0176 -0.06703,-0.0176 z" />
      <path
         id="path2816"
         style="font-style:normal;font-variant:normal;font-weight:normal;font-stretch:normal;font-family:'Bradley Gratis';-inkscape-font-specification:'Bradley Gratis';text-align:start;text-anchor:start;stroke-width:0.264583"
         d="m 49.112429,147.38525 v 0.381 q -0.03881,-0.0353 -0.102306,-0.0776 -0.05997,-0.0423 -0.130528,-0.0741 -0.06703,-0.0353 -0.134056,-0.0564 -0.06703,-0.0247 -0.112889,-0.0247 -0.08467,0 -0.172861,0.067 -0.08819,0.067 -0.144639,0.17992 -0.05644,0.10936 -0.07408,0.28927 -0.01411,0.17639 -0.01411,0.45509 h 0.903111 l -0.179916,0.40216 q -0.03528,-0.0529 -0.08467,-0.0705 -0.04586,-0.0212 -0.08467,-0.0212 h -0.553861 q 0,0.20109 0.0071,0.39511 0.0071,0.1905 0.04586,0.3422 0.04233,0.15169 0.127001,0.24694 0.08467,0.0917 0.243416,0.0917 0.08467,0 0.165806,-0.0317 0.08467,-0.0317 0.155222,-0.0776 0.07056,-0.0494 0.123473,-0.1023 0.05644,-0.0529 0.08819,-0.0952 v 0.508 h -0.47625 q -0.342195,0 -0.553862,-0.11995 -0.211666,-0.12347 -0.331611,-0.32808 -0.116417,-0.20814 -0.15875,-0.47978 -0.03881,-0.27164 -0.03881,-0.56797 0,-0.0741 0.01058,-0.19403 0.01058,-0.12347 0.04586,-0.25753 0.03528,-0.13758 0.102305,-0.27516 0.06703,-0.14111 0.179917,-0.25048 0.116417,-0.11288 0.28575,-0.18344 0.169334,-0.0706 0.409223,-0.0706 z" />
      <path
         id="path2818"
         style="font-style:normal;font-variant:normal;font-weight:normal;font-stretch:normal;font-family:'Bradley Gratis';-inkscape-font-specification:'Bradley Gratis';text-align:start;text-anchor:start;stroke-width:0.264583"
         d="m 49.498831,150.11223 v -2.4377 q 0,-0.0988 -0.04233,-0.1658 -0.04233,-0.0706 -0.08467,-0.12348 h 0.68439 v 0.35984 L 50.447803,147.29 q 0.179917,0.16228 0.296334,0.32456 0.116417,0.15875 0.183444,0.32103 0.06703,0.15875 0.09172,0.32455 0.02469,0.16228 0.02469,0.33514 0,0.16934 -0.02822,0.32456 -0.02469,0.15169 -0.07408,0.29986 -0.04939,0.14817 -0.119945,0.29986 -0.06703,0.1517 -0.148167,0.3175 h 0.127 q 0.04586,0 0.09525,-0.0318 0.04939,-0.0317 0.09878,-0.0317 v 0.33867 H 50.31022 q 0.09525,-0.19403 0.151694,-0.34925 0.05997,-0.15522 0.09172,-0.29634 0.03175,-0.14111 0.04233,-0.27516 0.01058,-0.13406 0.01058,-0.28575 0,-0.1517 -0.05292,-0.31397 -0.04939,-0.16581 -0.123473,-0.30339 -0.07408,-0.13759 -0.15875,-0.22578 -0.08114,-0.0882 -0.148166,-0.0882 -0.04233,0 -0.06703,0.0212 v 2.11667 z" />
      <path
         id="path2820"
         style="font-style:normal;font-variant:normal;font-weight:normal;font-stretch:normal;font-family:'Bradley Gratis';-inkscape-font-specification:'Bradley Gratis';text-align:start;text-anchor:start;stroke-width:0.264583"
         d="m 52.737002,150.22865 q -0.1905,-0.13759 -0.324556,-0.29281 -0.134055,-0.15875 -0.215194,-0.32808 -0.08114,-0.16934 -0.119945,-0.3422 -0.03528,-0.17639 -0.03528,-0.34572 0,-0.16581 0.03528,-0.32808 0.03528,-0.16581 0.09172,-0.32456 0.05997,-0.16228 0.137584,-0.31397 0.07761,-0.15523 0.15875,-0.30339 h -0.02117 q -0.01058,0 -0.02469,0 -0.01058,-0.004 -0.02822,-0.004 -0.05645,0 -0.137584,0.0141 -0.07761,0.0141 -0.151694,0.0706 v -0.34573 h 0.740833 q -0.09172,0.15875 -0.15875,0.32103 -0.0635,0.15875 -0.105833,0.31045 -0.03881,0.14816 -0.05997,0.28222 -0.01764,0.13053 -0.01764,0.23636 0,0.10583 0.02117,0.254 0.02117,0.14817 0.07761,0.30692 0.05997,0.15522 0.15875,0.29633 0.102305,0.14111 0.264583,0.22931 l 0.105834,-0.0776 q -0.0635,-0.11995 -0.09878,-0.22931 -0.03528,-0.11289 -0.05292,-0.21167 -0.01411,-0.0988 -0.01764,-0.17991 -0.0035,-0.0847 -0.0035,-0.1517 0,-0.10936 0.02822,-0.24694 0.02822,-0.13759 0.08114,-0.28575 0.05292,-0.14817 0.127,-0.29986 0.07761,-0.1517 0.172861,-0.29634 -0.134056,0 -0.22225,0.0212 -0.08467,0.0212 -0.144639,0.06 v -0.33867 h 0.762 q -0.0635,0.0882 -0.127,0.20109 -0.05997,0.10936 -0.105833,0.23989 -0.04586,0.127 -0.07408,0.27164 -0.02822,0.14463 -0.02822,0.29633 0,0.25753 0.04586,0.45861 0.04586,0.19756 0.127,0.34925 0.08114,0.1517 0.1905,0.26106 0.109362,0.10936 0.232834,0.18697 v -2.26484 h 0.529167 v 2.1202 q 0,0.0247 -0.03528,0.0706 -0.03528,0.0423 -0.09172,0.0988 -0.05292,0.0565 -0.127,0.12348 -0.07056,0.0635 -0.144639,0.127 -0.176389,0.14816 -0.398639,0.32455 -0.172862,-0.13405 -0.296334,-0.26458 -0.123472,-0.13053 -0.211667,-0.254 z" />
      <path
         id="path2822"
         style="font-style:normal;font-variant:normal;font-weight:normal;font-stretch:normal;font-family:'Bradley Gratis';-inkscape-font-specification:'Bradley Gratis';text-align:start;text-anchor:start;stroke-width:0.264583"
         d="m 55.990275,148.41537 v -0.87842 h -0.416278 q -0.0035,0.23636 -0.01411,0.46919 -0.0071,0.22931 -0.01764,0.40923 z m 0.719667,-1.03012 q -0.0388,0.0282 -0.07408,0.0706 -0.03175,0.0423 -0.05645,0.0917 -0.02117,0.0459 -0.03528,0.0917 -0.01411,0.0423 -0.01411,0.0741 v 2.39889 h -0.53975 v -1.32997 h -0.472722 q -0.0035,0.127 -0.03528,0.27869 -0.03175,0.14817 -0.08819,0.29986 -0.05292,0.14817 -0.127,0.28928 -0.07055,0.13758 -0.162278,0.24342 -0.08819,0.10583 -0.1905,0.16933 -0.09878,0.0635 -0.208139,0.0635 -0.07055,0 -0.123472,-0.0423 -0.04939,-0.0423 -0.04939,-0.11995 0,-0.0494 0.03175,-0.0705 0.03175,-0.0247 0.06703,-0.0247 0.03175,0 0.04939,0.0106 0.01764,0.007 0.03175,0.0212 0.01764,0.0106 0.0388,0.0212 0.02117,0.007 0.05997,0.007 0.0635,0 0.102305,-0.0635 0.03881,-0.067 0.0635,-0.17639 0.0247,-0.11288 0.03528,-0.25752 0.01411,-0.14817 0.02117,-0.31045 0.0071,-0.16228 0.01764,-0.32808 0.01058,-0.16933 0.02822,-0.32456 0.02117,-0.18344 0.0635,-0.33514 0.04586,-0.15169 0.09525,-0.26811 0.04939,-0.11641 0.09878,-0.19755 0.04939,-0.0811 0.08467,-0.13053 h -0.07761 q -0.06703,0 -0.123472,0.0212 -0.05644,0.0176 -0.102306,0.0423 -0.04233,0.0212 -0.07761,0.0423 -0.03175,0.0176 -0.05644,0.0176 -0.05997,0 -0.0882,-0.0423 -0.02822,-0.0423 -0.02822,-0.0952 0,-0.0494 0.05292,-0.0917 0.05644,-0.0459 0.155222,-0.0459 z" />
      <path
         id="path2824"
         style="font-style:normal;font-variant:normal;font-weight:normal;font-stretch:normal;font-family:'Bradley Gratis';-inkscape-font-specification:'Bradley Gratis';text-align:start;text-anchor:start;stroke-width:0.264583"
         d="m 57.488923,150.2357 q -0.08114,-0.0811 -0.186973,-0.15875 -0.102305,-0.0776 -0.201083,-0.13758 -0.09525,-0.06 -0.169334,-0.10231 -0.07055,-0.0423 -0.08114,-0.0529 0.03528,-0.0423 0.08819,-0.11641 0.05292,-0.0776 0.102306,-0.1517 0.05292,-0.0741 0.09172,-0.13052 0.04233,-0.06 0.05292,-0.0706 0.04939,0.0317 0.134055,0.0882 0.08819,0.0529 0.172861,0.11289 0.08819,0.06 0.15875,0.10936 0.07056,0.0494 0.09172,0.0706 0.04939,-0.0282 0.08114,-0.0741 0.03528,-0.0459 0.03528,-0.14817 0,-0.0882 -0.07408,-0.18697 -0.07055,-0.0988 -0.176389,-0.20814 -0.105833,-0.10936 -0.232833,-0.22931 -0.127,-0.11994 -0.232834,-0.24694 -0.105833,-0.127 -0.179917,-0.25753 -0.07055,-0.13053 -0.07055,-0.26811 0,-0.0988 0.04939,-0.18345 0.05292,-0.0882 0.130528,-0.16227 0.07761,-0.0776 0.169333,-0.13759 0.09525,-0.0635 0.179917,-0.11641 0.08819,-0.0564 0.155222,-0.0988 0.06703,-0.0459 0.09525,-0.0811 0.02117,0.0176 0.09172,0.0882 0.07408,0.067 0.158751,0.14464 0.08467,0.0776 0.15875,0.13759 0.07761,0.06 0.102305,0.06 -0.03528,0.0282 -0.08819,0.0847 -0.04939,0.0529 -0.102306,0.11288 -0.04939,0.06 -0.09172,0.11642 -0.03881,0.0529 -0.05645,0.0811 -0.08114,-0.0353 -0.162277,-0.10583 -0.08114,-0.0706 -0.148167,-0.13759 -0.06703,-0.067 -0.112889,-0.11641 -0.04586,-0.0529 -0.05997,-0.0529 -0.02822,0 -0.04939,0.0317 -0.01764,0.0282 -0.01764,0.067 0,0.0847 0.07408,0.17991 0.07761,0.0953 0.186972,0.20462 0.112889,0.10583 0.243417,0.22577 0.134056,0.11642 0.243417,0.24342 0.112889,0.127 0.186972,0.26458 0.07761,0.13406 0.07761,0.27517 0,0.127 -0.09525,0.26811 -0.09525,0.14111 -0.229306,0.28222 -0.130528,0.13759 -0.268111,0.26459 -0.137584,0.12347 -0.225778,0.21872 z" />
      <path
         id="path2826"
         style="font-style:normal;font-variant:normal;font-weight:normal;font-stretch:normal;font-family:'Bradley Gratis';-inkscape-font-specification:'Bradley Gratis';text-align:start;text-anchor:start;stroke-width:0.264583"
         d="m 59.973913,149.63598 q 0,0.13758 -0.05644,0.23989 -0.05644,0.0988 -0.148167,0.16228 -0.0882,0.0635 -0.197556,0.0952 -0.109361,0.0318 -0.215195,0.0318 -0.165805,0 -0.324555,-0.0811 -0.15875,-0.0811 -0.28575,-0.21873 -0.127001,-0.14111 -0.204612,-0.32808 -0.07761,-0.1905 -0.07761,-0.40922 0,-0.39159 0.179917,-0.72672 0.179917,-0.33867 0.500945,-0.61384 -0.02822,-0.004 -0.05292,-0.004 -0.02117,-0.004 -0.04586,-0.004 -0.08467,0 -0.179917,0.0282 -0.09525,0.0282 -0.179917,0.0741 -0.08467,0.0423 -0.155222,0.0953 -0.06703,0.0529 -0.102306,0.0988 0.02822,-0.13758 0.105834,-0.27164 0.07761,-0.13406 0.194028,-0.23636 0.116416,-0.10231 0.268111,-0.16581 0.151694,-0.0635 0.331611,-0.0635 0.09172,0 0.194028,0.0282 0.102306,0.0282 0.194028,0.0741 0.09525,0.0423 0.169333,0.0952 0.07408,0.0529 0.112889,0.1023 l -0.289278,0.44098 q -0.176389,-0.17286 -0.381,-0.24695 -0.04586,0.0741 -0.09525,0.17639 -0.04939,0.0988 -0.09172,0.22578 -0.03881,0.127 -0.06703,0.28222 -0.02469,0.1517 -0.02469,0.33161 0,0.16934 0.02469,0.29986 0.02822,0.13053 0.07056,0.22578 0.04233,0.0952 0.09525,0.15875 0.05644,0.0635 0.112889,0.10584 0.134055,0.0952 0.306917,0.10583 0.07055,0 0.162277,-0.0282 0.09525,-0.0317 0.151695,-0.0811 z" />
      <path
         id="path2828"
         style="font-style:normal;font-variant:normal;font-weight:normal;font-stretch:normal;font-family:'Bradley Gratis';-inkscape-font-specification:'Bradley Gratis';text-align:start;text-anchor:start;stroke-width:0.264583"
         d="m 61.742157,147.38525 v 0.381 q -0.0388,-0.0353 -0.102305,-0.0776 -0.05997,-0.0423 -0.130528,-0.0741 -0.06703,-0.0353 -0.134056,-0.0564 -0.06703,-0.0247 -0.112889,-0.0247 -0.08467,0 -0.172861,0.067 -0.08819,0.067 -0.144639,0.17992 -0.05644,0.10936 -0.07408,0.28927 -0.01411,0.17639 -0.01411,0.45509 h 0.903111 l -0.179917,0.40216 q -0.03528,-0.0529 -0.08467,-0.0705 -0.04586,-0.0212 -0.08467,-0.0212 h -0.553861 q 0,0.20109 0.0071,0.39511 0.0071,0.1905 0.04586,0.3422 0.04233,0.15169 0.127,0.24694 0.08467,0.0917 0.243417,0.0917 0.08467,0 0.165806,-0.0317 0.08467,-0.0317 0.155222,-0.0776 0.07056,-0.0494 0.123472,-0.1023 0.05644,-0.0529 0.08819,-0.0952 v 0.508 h -0.47625 q -0.342195,0 -0.553862,-0.11995 -0.211667,-0.12347 -0.331611,-0.32808 -0.116417,-0.20814 -0.15875,-0.47978 -0.03881,-0.27164 -0.03881,-0.56797 0,-0.0741 0.01058,-0.19403 0.01058,-0.12347 0.04586,-0.25753 0.03528,-0.13758 0.102305,-0.27516 0.06703,-0.14111 0.179917,-0.25048 0.116417,-0.11288 0.28575,-0.18344 0.169334,-0.0706 0.409223,-0.0706 z" />
      <path
         id="path2830"
         style="font-style:normal;font-variant:normal;font-weight:normal;font-stretch:normal;font-family:'Bradley Gratis';-inkscape-font-specification:'Bradley Gratis';text-align:start;text-anchor:start;stroke-width:0.264583"
         d="m 63.021086,148.08023 q -0.08819,-0.21167 -0.151694,-0.35278 -0.0635,-0.14111 -0.09878,-0.14111 -0.03881,0 -0.05292,0.0353 -0.01058,0.0317 -0.01058,0.0564 v 1.91206 q 0,0.0776 -0.04233,0.16227 -0.04233,0.0847 -0.112888,0.14817 0.130527,0 0.232833,-0.0635 0.102306,-0.067 0.211667,-0.14464 0.112889,-0.0811 0.250472,-0.14464 0.137584,-0.067 0.342195,-0.067 v 0.63147 h -1.594557 q 0.04586,-0.067 0.07761,-0.127 0.03528,-0.06 0.05644,-0.11995 0.02117,-0.06 0.03175,-0.127 0.01058,-0.067 0.01058,-0.14816 v -1.66864 q 0,-0.11289 -0.04233,-0.18345 -0.04233,-0.0741 -0.05997,-0.1023 0.01411,-0.004 0.07055,-0.0247 0.05997,-0.0247 0.144639,-0.0564 0.08467,-0.0317 0.186973,-0.067 0.102305,-0.0353 0.201083,-0.0635 0.09878,-0.0317 0.186972,-0.0494 0.08819,-0.0212 0.144639,-0.0212 0.08819,0 0.165806,0.0494 0.07761,0.0494 0.141111,0.12348 0.0635,0.0741 0.109361,0.1658 0.04586,0.0882 0.07408,0.16581 z" />
      <path
         id="path2832"
         style="font-style:normal;font-variant:normal;font-weight:normal;font-stretch:normal;font-family:'Bradley Gratis';-inkscape-font-specification:'Bradley Gratis';text-align:start;text-anchor:start;stroke-width:0.264583"
         d="m 65.201256,148.41537 v -0.87842 h -0.416279 q -0.0035,0.23636 -0.01411,0.46919 -0.0071,0.22931 -0.01764,0.40923 z m 0.719667,-1.03012 q -0.03881,0.0282 -0.07408,0.0706 -0.03175,0.0423 -0.05644,0.0917 -0.02117,0.0459 -0.03528,0.0917 -0.01411,0.0423 -0.01411,0.0741 v 2.39889 h -0.53975 v -1.32997 h -0.472723 q -0.0035,0.127 -0.03528,0.27869 -0.03175,0.14817 -0.08819,0.29986 -0.05292,0.14817 -0.127,0.28928 -0.07056,0.13758 -0.162278,0.24342 -0.08819,0.10583 -0.1905,0.16933 -0.09878,0.0635 -0.208139,0.0635 -0.07056,0 -0.123473,-0.0423 -0.04939,-0.0423 -0.04939,-0.11995 0,-0.0494 0.03175,-0.0705 0.03175,-0.0247 0.06703,-0.0247 0.03175,0 0.04939,0.0106 0.01764,0.007 0.03175,0.0212 0.01764,0.0106 0.03881,0.0212 0.02117,0.007 0.05997,0.007 0.0635,0 0.102306,-0.0635 0.03881,-0.067 0.0635,-0.17639 0.02469,-0.11288 0.03528,-0.25752 0.01411,-0.14817 0.02117,-0.31045 0.0071,-0.16228 0.01764,-0.32808 0.01058,-0.16933 0.02822,-0.32456 0.02117,-0.18344 0.0635,-0.33514 0.04586,-0.15169 0.09525,-0.26811 0.04939,-0.11641 0.09878,-0.19755 0.04939,-0.0811 0.08467,-0.13053 h -0.07761 q -0.06703,0 -0.123473,0.0212 -0.05644,0.0176 -0.102305,0.0423 -0.04233,0.0212 -0.07761,0.0423 -0.03175,0.0176 -0.05645,0.0176 -0.05997,0 -0.08819,-0.0423 -0.02822,-0.0423 -0.02822,-0.0952 0,-0.0494 0.05292,-0.0917 0.05644,-0.0459 0.155222,-0.0459 z" />
      <path
         id="path2834"
         style="font-style:normal;font-variant:normal;font-weight:normal;font-stretch:normal;font-family:'Bradley Gratis';-inkscape-font-specification:'Bradley Gratis';text-align:start;text-anchor:start;stroke-width:0.264583"
         d="m 66.221335,150.11223 v -2.4377 q 0,-0.0988 -0.04233,-0.1658 -0.04233,-0.0706 -0.08467,-0.12348 h 0.684389 v 0.35984 L 67.170308,147.29 q 0.179917,0.16228 0.296334,0.32456 0.116416,0.15875 0.183444,0.32103 0.06703,0.15875 0.09172,0.32455 0.02469,0.16228 0.02469,0.33514 0,0.16934 -0.02822,0.32456 -0.02469,0.15169 -0.07408,0.29986 -0.04939,0.14817 -0.119944,0.29986 -0.06703,0.1517 -0.148167,0.3175 h 0.127 q 0.04586,0 0.09525,-0.0318 0.04939,-0.0317 0.09878,-0.0317 v 0.33867 h -0.684389 q 0.09525,-0.19403 0.151694,-0.34925 0.05997,-0.15522 0.09172,-0.29634 0.03175,-0.14111 0.04233,-0.27516 0.01058,-0.13406 0.01058,-0.28575 0,-0.1517 -0.05292,-0.31397 -0.04939,-0.16581 -0.123472,-0.30339 -0.07408,-0.13759 -0.15875,-0.22578 -0.08114,-0.0882 -0.148167,-0.0882 -0.04233,0 -0.06703,0.0212 v 2.11667 z" />
      <path
         id="path2836"
         style="font-style:normal;font-variant:normal;font-weight:normal;font-stretch:normal;font-family:'Bradley Gratis';-inkscape-font-specification:'Bradley Gratis';text-align:start;text-anchor:start;stroke-width:0.264583"
         d="m 68.110241,147.6322 q -0.09172,-0.0388 -0.127,-0.0953 -0.03528,-0.0564 -0.03528,-0.10583 0,-0.0423 0.02822,-0.0529 0.02822,0.0176 0.07761,0.0247 0.04939,0.007 0.112889,0.007 0.03175,0 0.08819,-0.0106 0.05997,-0.0106 0.130528,-0.0212 0.07056,-0.0106 0.144639,-0.0212 0.07761,-0.0106 0.144639,-0.0106 0.162278,0 0.331612,0.0847 0.169333,0.0811 0.303389,0.254 0.134055,0.16933 0.218722,0.43391 0.08819,0.26106 0.08819,0.62442 0,0.30692 -0.05292,0.52917 -0.05292,0.22225 -0.134056,0.37747 -0.08114,0.15522 -0.179917,0.25047 -0.09878,0.0917 -0.194028,0.14464 -0.09172,0.0494 -0.169333,0.067 -0.07408,0.0176 -0.109361,0.0176 -0.05292,0 -0.112889,-0.0141 -0.05997,-0.0141 -0.119945,-0.0317 -0.05644,-0.0176 -0.109361,-0.0318 -0.04939,-0.0141 -0.08467,-0.0141 -0.0388,0 -0.07055,0.0141 -0.03175,0.0106 -0.06703,0.0247 -0.03175,0.0106 -0.07056,0.0247 -0.03881,0.0106 -0.08819,0.0106 -0.01764,0 -0.03881,-0.004 -0.01764,-0.004 -0.03528,-0.0106 -0.01764,-0.007 -0.03528,-0.0176 0.02822,-0.0176 0.05644,-0.06 0.02822,-0.0459 0.05292,-0.0952 0.02822,-0.0529 0.05644,-0.11642 z m 0.518584,2.10256 q 0,0.0741 0.02469,0.11641 0.02822,0.0388 0.05997,0.0565 0.0388,0.0212 0.08467,0.0247 0.08114,0 0.141111,-0.10936 0.0635,-0.10936 0.0635,-0.27869 v -1.5487 q 0,-0.16581 -0.03175,-0.25753 -0.03175,-0.0917 -0.07408,-0.13405 -0.04233,-0.0423 -0.08467,-0.0494 -0.04233,-0.0106 -0.06703,-0.0106 -0.04233,0 -0.08114,0.0564 -0.03528,0.0564 -0.03528,0.14817 z" />
    </g>
    <g
       style="font-style:normal;font-variant:normal;font-weight:normal;font-stretch:normal;font-size:3.52778px;line-height:1.25;font-family:Quarca;-inkscape-font-specification:Quarca;text-align:center;letter-spacing:0px;word-spacing:0px;text-anchor:middle;fill:#dddddd;fill-opacity:1;stroke:none;stroke-width:0.264583"
       id="text136-6"
       aria-label="MODULATOR">
      <path
         id="path2789"
         style="font-style:normal;font-variant:normal;font-weight:normal;font-stretch:normal;font-size:2.82222px;font-family:Quarca;-inkscape-font-specification:Quarca;fill:#dddddd;fill-opacity:1;stroke-width:0.264583"
         d="m 48.032185,56.98101 v -1.744132 l 0.499533,0.976489 h 0.158045 l 0.502355,-0.976489 v 1.744132 h 0.155222 v -2.003776 h -0.191911 l -0.544689,1.063977 -0.541866,-1.063977 h -0.191911 v 2.003776 z" />
      <path
         id="path2791"
         style="font-style:normal;font-variant:normal;font-weight:normal;font-stretch:normal;font-size:2.82222px;font-family:Quarca;-inkscape-font-specification:Quarca;fill:#dddddd;fill-opacity:1;stroke-width:0.264583"
         d="m 49.712244,56.591544 c 0,0.259644 0.09878,0.389466 0.386644,0.389466 h 0.536222 c 0.287867,0 0.386644,-0.129822 0.386644,-0.389466 v -1.224843 c 0,-0.259645 -0.09878,-0.389467 -0.386644,-0.389467 h -0.536222 c -0.287866,0 -0.386644,0.129822 -0.386644,0.389467 z m 0.403578,-1.46191 h 0.502355 c 0.180622,0 0.242711,0.08467 0.242711,0.262467 v 1.174043 c 0,0.1778 -0.06209,0.262467 -0.242711,0.262467 h -0.502355 c -0.1778,0 -0.242711,-0.08467 -0.242711,-0.262467 v -1.174043 c 0,-0.1778 0.06491,-0.262467 0.242711,-0.262467 z" />
      <path
         id="path2793"
         style="font-style:normal;font-variant:normal;font-weight:normal;font-stretch:normal;font-size:2.82222px;font-family:Quarca;-inkscape-font-specification:Quarca;fill:#dddddd;fill-opacity:1;stroke-width:0.264583"
         d="m 51.388202,56.98101 h 0.784577 c 0.352777,0 0.496711,-0.155222 0.496711,-0.474133 v -1.05551 c 0,-0.318911 -0.143934,-0.474133 -0.496711,-0.474133 h -0.784577 z m 0.77611,-0.152399 h -0.615244 v -1.698977 h 0.615244 c 0.245533,0 0.344311,0.110067 0.344311,0.3556 v 0.987777 c 0,0.245533 -0.09878,0.3556 -0.344311,0.3556 z" />
      <path
         id="path2795"
         style="font-style:normal;font-variant:normal;font-weight:normal;font-stretch:normal;font-size:2.82222px;font-family:Quarca;-inkscape-font-specification:Quarca;fill:#dddddd;fill-opacity:1;stroke-width:0.264583"
         d="m 53.832201,56.828611 h -0.361245 c -0.194733,0 -0.279399,-0.09031 -0.279399,-0.296334 V 54.977234 H 53.03069 v 1.600199 c 0,0.268111 0.124178,0.403577 0.4064,0.403577 h 0.428977 c 0.282222,0 0.4064,-0.135466 0.4064,-0.403577 v -1.600199 h -0.163689 v 1.555043 c 0,0.206023 -0.08184,0.296334 -0.276577,0.296334 z" />
      <path
         id="path2797"
         style="font-style:normal;font-variant:normal;font-weight:normal;font-stretch:normal;font-size:2.82222px;font-family:Quarca;-inkscape-font-specification:Quarca;fill:#dddddd;fill-opacity:1;stroke-width:0.264583"
         d="m 54.806748,54.977234 h -0.160866 v 2.003776 h 1.027288 l 0.02258,-0.152399 h -0.889 z" />
      <path
         id="path2799"
         style="font-style:normal;font-variant:normal;font-weight:normal;font-stretch:normal;font-size:2.82222px;font-family:Quarca;-inkscape-font-specification:Quarca;fill:#dddddd;fill-opacity:1;stroke-width:0.264583"
         d="m 56.393453,54.977234 -0.618066,2.003776 h 0.172156 l 0.129822,-0.434621 h 0.807155 l 0.129822,0.434621 h 0.172155 l -0.615244,-2.003776 z m 0.09031,0.214489 0.3556,1.202266 H 56.12252 Z" />
      <path
         id="path2801"
         style="font-style:normal;font-variant:normal;font-weight:normal;font-stretch:normal;font-size:2.82222px;font-family:Quarca;-inkscape-font-specification:Quarca;fill:#dddddd;fill-opacity:1;stroke-width:0.264583"
         d="m 58.283238,55.129634 v -0.1524 h -1.188155 v 0.1524 h 0.513644 v 1.851376 h 0.163689 v -1.851376 z" />
      <path
         id="path2803"
         style="font-style:normal;font-variant:normal;font-weight:normal;font-stretch:normal;font-size:2.82222px;font-family:Quarca;-inkscape-font-specification:Quarca;fill:#dddddd;fill-opacity:1;stroke-width:0.264583"
         d="m 58.493097,56.591544 c 0,0.259644 0.09878,0.389466 0.386644,0.389466 h 0.536222 c 0.287866,0 0.386644,-0.129822 0.386644,-0.389466 v -1.224843 c 0,-0.259645 -0.09878,-0.389467 -0.386644,-0.389467 h -0.536222 c -0.287867,0 -0.386644,0.129822 -0.386644,0.389467 z m 0.403577,-1.46191 h 0.502355 c 0.180622,0 0.242711,0.08467 0.242711,0.262467 v 1.174043 c 0,0.1778 -0.06209,0.262467 -0.242711,0.262467 h -0.502355 c -0.1778,0 -0.242711,-0.08467 -0.242711,-0.262467 v -1.174043 c 0,-0.1778 0.06491,-0.262467 0.242711,-0.262467 z" />
      <path
         id="path2805"
         style="font-style:normal;font-variant:normal;font-weight:normal;font-stretch:normal;font-size:2.82222px;font-family:Quarca;-inkscape-font-specification:Quarca;fill:#dddddd;fill-opacity:1;stroke-width:0.264583"
         d="m 60.169055,56.98101 h 0.160866 v -0.804332 h 0.369711 l 0.561622,0.804332 h 0.189089 l -0.564445,-0.804332 h 0.03951 c 0.26811,0 0.397933,-0.127 0.397933,-0.381 v -0.437444 c 0,-0.254 -0.129823,-0.381 -0.397933,-0.381 h -0.756355 z m 0.160866,-1.851376 h 0.567266 c 0.180622,0 0.262467,0.08467 0.262467,0.276578 V 55.7477 c 0,0.194733 -0.08185,0.2794 -0.262467,0.2794 h -0.567266 z" />
    </g>
    <path
       style="clip-rule:nonzero;fill:none;stroke:#ffffff;stroke-width:0.26458332;stroke-linecap:butt;stroke-linejoin:miter;stroke-miterlimit:10;stroke-dasharray:none;stroke-opacity:0.25098039"
       d="m 37.792257,63.139975 v 29.13452"
       id="path4785-2"
       inkscape:connector-curvature="0" />
    <path
       d="m 63.721313,137.17233 h 6.614583 v 8.09416 h -6.614583 z"
       style="opacity:0.981;fill:#0e365d;fill-opacity:1;stroke:#000000;stroke-width:0;stroke-miterlimit:4;stroke-dasharray:none;stroke-opacity:1"
       id="rect22843" />
    <g
       style="font-style:normal;font-variant:normal;font-weight:normal;font-stretch:normal;font-size:3.52778px;line-height:1.25;font-family:Quarca;-inkscape-font-specification:Quarca;text-align:center;letter-spacing:0px;word-spacing:0px;text-anchor:middle;fill:#dddddd;fill-opacity:1;stroke:none;stroke-width:0.264583"
       id="text299-8"
       aria-label="OUT">
      <path
         id="path2781"
         style="font-style:normal;font-variant:normal;font-weight:normal;font-stretch:normal;font-size:2.82222px;font-family:Quarca;-inkscape-font-specification:Quarca;fill:#dddddd;fill-opacity:1;stroke-width:0.264583"
         d="m 64.962869,139.30736 c 0,0.25964 0.09878,0.38946 0.386644,0.38946 h 0.536222 c 0.287866,0 0.386644,-0.12982 0.386644,-0.38946 v -1.22485 c 0,-0.25964 -0.09878,-0.38946 -0.386644,-0.38946 h -0.536222 c -0.287867,0 -0.386644,0.12982 -0.386644,0.38946 z m 0.403577,-1.46191 h 0.502355 c 0.180622,0 0.242711,0.0847 0.242711,0.26246 v 1.17405 c 0,0.1778 -0.06209,0.26246 -0.242711,0.26246 h -0.502355 c -0.1778,0 -0.242711,-0.0847 -0.242711,-0.26246 v -1.17405 c 0,-0.1778 0.06491,-0.26246 0.242711,-0.26246 z" />
      <path
         id="path2783"
         style="font-style:normal;font-variant:normal;font-weight:normal;font-stretch:normal;font-size:2.82222px;font-family:Quarca;-inkscape-font-specification:Quarca;fill:#dddddd;fill-opacity:1;stroke-width:0.264583"
         d="m 67.434693,139.54442 h -0.361245 c -0.194733,0 -0.279399,-0.0903 -0.279399,-0.29633 v -1.55504 h -0.160867 v 1.6002 c 0,0.26811 0.124178,0.40357 0.4064,0.40357 h 0.428977 c 0.282222,0 0.4064,-0.13546 0.4064,-0.40357 v -1.6002 H 67.71127 v 1.55504 c 0,0.20602 -0.08184,0.29633 -0.276577,0.29633 z" />
      <path
         id="path2785"
         style="font-style:normal;font-variant:normal;font-weight:normal;font-stretch:normal;font-size:2.82222px;font-family:Quarca;-inkscape-font-specification:Quarca;fill:#dddddd;fill-opacity:1;stroke-width:0.264583"
         d="m 69.278484,137.84545 v -0.1524 h -1.188155 v 0.1524 h 0.513644 v 1.85137 h 0.163689 v -1.85137 z" />
    </g>
    <g
       style="font-style:normal;font-variant:normal;font-weight:normal;font-stretch:normal;font-size:3.52778px;line-height:1.25;font-family:Quarca;-inkscape-font-specification:Quarca;text-align:center;letter-spacing:0px;word-spacing:0px;text-anchor:middle;fill:#dddddd;fill-opacity:1;stroke:none;stroke-width:0.264583"
       id="text299-8-7"
       aria-label="INPUTS">
      <path
         id="path2768"
         style="font-style:normal;font-variant:normal;font-weight:normal;font-stretch:normal;font-size:2.82222px;font-family:Quarca;-inkscape-font-specification:Quarca;fill:#dddddd;fill-opacity:1;stroke-width:0.264583"
         d="m 40.038964,139.67706 v -2.00377 h -0.160867 v 2.00377 z" />
      <path
         id="path2770"
         style="font-style:normal;font-variant:normal;font-weight:normal;font-stretch:normal;font-size:2.82222px;font-family:Quarca;-inkscape-font-specification:Quarca;fill:#dddddd;fill-opacity:1;stroke-width:0.264583"
         d="m 40.579154,139.67706 v -1.72437 c 0.04233,0.0931 0.07902,0.18626 0.146756,0.30197 l 0.824088,1.4224 h 0.163689 v -2.00377 h -0.163689 v 1.72155 c -0.03104,-0.0734 -0.05927,-0.14393 -0.112889,-0.23707 l -0.857955,-1.48448 h -0.160866 v 2.00377 z" />
      <path
         id="path2772"
         style="font-style:normal;font-variant:normal;font-weight:normal;font-stretch:normal;font-size:2.82222px;font-family:Quarca;-inkscape-font-specification:Quarca;fill:#dddddd;fill-opacity:1;stroke-width:0.264583"
         d="m 42.254848,138.85297 h 0.632177 c 0.251177,0 0.381,-0.127 0.381,-0.37817 v -0.42334 c 0,-0.25117 -0.129823,-0.37817 -0.381,-0.37817 h -0.793044 v 2.00377 h 0.160867 z m 0,-1.02728 h 0.609599 c 0.163689,0 0.239889,0.0762 0.239889,0.25682 v 0.36124 c 0,0.18062 -0.0762,0.25682 -0.239889,0.25682 h -0.609599 z" />
      <path
         id="path2774"
         style="font-style:normal;font-variant:normal;font-weight:normal;font-stretch:normal;font-size:2.82222px;font-family:Quarca;-inkscape-font-specification:Quarca;fill:#dddddd;fill-opacity:1;stroke-width:0.264583"
         d="m 44.361591,139.52466 h -0.361244 c -0.194734,0 -0.2794,-0.0903 -0.2794,-0.29633 v -1.55504 H 43.56008 v 1.6002 c 0,0.26811 0.124178,0.40357 0.4064,0.40357 h 0.428977 c 0.282222,0 0.4064,-0.13546 0.4064,-0.40357 v -1.6002 h -0.163689 v 1.55504 c 0,0.20602 -0.08184,0.29633 -0.276577,0.29633 z" />
      <path
         id="path2776"
         style="font-style:normal;font-variant:normal;font-weight:normal;font-stretch:normal;font-size:2.82222px;font-family:Quarca;-inkscape-font-specification:Quarca;fill:#dddddd;fill-opacity:1;stroke-width:0.264583"
         d="m 46.205383,137.82569 v -0.1524 h -1.188155 v 0.1524 h 0.513644 v 1.85137 h 0.163689 v -1.85137 z" />
      <path
         id="path2778"
         style="font-style:normal;font-variant:normal;font-weight:normal;font-stretch:normal;font-size:2.82222px;font-family:Quarca;-inkscape-font-specification:Quarca;fill:#dddddd;fill-opacity:1;stroke-width:0.264583"
         d="m 47.236507,138.84451 c 0.141111,0.0593 0.1778,0.10724 0.1778,0.24553 v 0.19473 c 0,0.16934 -0.07056,0.23989 -0.231422,0.23989 h -0.426156 c -0.160866,0 -0.234244,-0.0706 -0.234244,-0.23989 v -0.21166 h -0.160866 v 0.25118 c 0,0.23424 0.110066,0.35277 0.36971,0.35277 h 0.496711 c 0.234244,0 0.349955,-0.11853 0.349955,-0.35277 v -0.27658 c 0,-0.20038 -0.0762,-0.27094 -0.282222,-0.36125 l -0.578555,-0.24553 c -0.132644,-0.0564 -0.166511,-0.11007 -0.166511,-0.23424 v -0.12418 c 0,-0.19191 0.06209,-0.25682 0.242711,-0.25682 h 0.352778 c 0.160866,0 0.239888,0.0734 0.239888,0.24835 v 0.18909 h 0.163689 v -0.2286 c 0,-0.254 -0.121355,-0.36124 -0.380999,-0.36124 h -0.417689 c -0.248355,0 -0.361244,0.11006 -0.361244,0.36124 v 0.19756 c 0,0.2032 0.06773,0.27657 0.2794,0.36971 z" />
    </g>
    <g
       transform="translate(1.3229168)"
       style="font-style:normal;font-variant:normal;font-weight:normal;font-stretch:normal;font-size:3.52777px;line-height:1.25;font-family:Quarca;-inkscape-font-specification:Quarca;text-align:center;letter-spacing:0px;word-spacing:0px;text-anchor:middle;fill:#dddddd;fill-opacity:1;stroke:none;stroke-width:0.264583"
       id="text299-8-8"
       aria-label="MIX">
      <path
         id="path2761"
         style="font-style:normal;font-variant:normal;font-weight:normal;font-stretch:normal;font-size:2.82223px;font-family:Quarca;-inkscape-font-specification:Quarca;fill:#dddddd;fill-opacity:1;stroke-width:0.264583"
         d="m 61.759868,119.59695 v -1.74414 l 0.499535,0.97649 h 0.158045 l 0.502357,-0.97649 v 1.74414 h 0.155223 v -2.00379 h -0.191912 l -0.54469,1.06398 -0.541869,-1.06398 h -0.191911 v 2.00379 z" />
      <path
         id="path2763"
         style="font-style:normal;font-variant:normal;font-weight:normal;font-stretch:normal;font-size:2.82223px;font-family:Quarca;-inkscape-font-specification:Quarca;fill:#dddddd;fill-opacity:1;stroke-width:0.264583"
         d="m 63.612089,119.59695 v -2.00379 h -0.160867 v 2.00379 z" />
      <path
         id="path2765"
         style="font-style:normal;font-variant:normal;font-weight:normal;font-stretch:normal;font-size:2.82223px;font-family:Quarca;-inkscape-font-specification:Quarca;fill:#dddddd;fill-opacity:1;stroke-width:0.264583"
         d="m 64.45426,118.52732 -0.460023,-0.93416 h -0.166512 l 0.49389,1.00472 -0.485423,0.99907 h 0.169334 l 0.448734,-0.91158 0.44309,0.91158 h 0.169334 l -0.479779,-0.99907 0.488246,-1.00472 h -0.166512 z" />
    </g>
    <g
       style="font-style:normal;font-variant:normal;font-weight:normal;font-stretch:normal;font-size:2.82222px;line-height:1.25;font-family:Quarca;-inkscape-font-specification:Quarca;text-align:center;letter-spacing:0px;word-spacing:0px;text-anchor:middle;fill:#dddddd;fill-opacity:1;stroke:none;stroke-width:0.264583"
       id="text299-8-8-5"
       aria-label="GAIN MAKEUP">
      <path
         id="path2740"
         style="font-style:normal;font-variant:normal;font-weight:normal;font-stretch:normal;font-size:2.11667px;font-family:Quarca;-inkscape-font-specification:Quarca;fill:#dddddd;fill-opacity:1;stroke-width:0.264583"
         d="m 50.76701,139.00347 h 0.361951 v 0.31538 c 0,0.12277 -0.0508,0.18204 -0.186267,0.18204 H 50.60826 c -0.124884,0 -0.184151,-0.0572 -0.184151,-0.19262 v -0.87418 c 0,-0.14394 0.04868,-0.20744 0.173567,-0.20744 h 0.361951 c 0.124884,0 0.179917,0.0572 0.179917,0.19262 v 0.13547 h 0.12065 v -0.17145 c 0,-0.18839 -0.09313,-0.27094 -0.27305,-0.27094 H 50.55746 c -0.169334,0 -0.254001,0.0953 -0.254001,0.28575 v 0.94827 c 0,0.1905 0.105834,0.26882 0.275167,0.26882 h 0.393701 c 0.20955,0 0.2794,-0.10372 0.2794,-0.28575 v -0.44027 h -0.467784 z" />
      <path
         id="path2742"
         style="font-style:normal;font-variant:normal;font-weight:normal;font-stretch:normal;font-size:2.11667px;font-family:Quarca;-inkscape-font-specification:Quarca;fill:#dddddd;fill-opacity:1;stroke-width:0.264583"
         d="m 51.841716,138.11235 -0.463551,1.50284 h 0.129117 l 0.09737,-0.32597 h 0.605368 l 0.09737,0.32597 H 52.4365 l -0.461434,-1.50284 z m 0.06773,0.16087 0.2667,0.9017 h -0.537634 z" />
      <path
         id="path2744"
         style="font-style:normal;font-variant:normal;font-weight:normal;font-stretch:normal;font-size:2.11667px;font-family:Quarca;-inkscape-font-specification:Quarca;fill:#dddddd;fill-opacity:1;stroke-width:0.264583"
         d="m 52.739416,139.61519 v -1.50284 h -0.120651 v 1.50284 z" />
      <path
         id="path2746"
         style="font-style:normal;font-variant:normal;font-weight:normal;font-stretch:normal;font-size:2.11667px;font-family:Quarca;-inkscape-font-specification:Quarca;fill:#dddddd;fill-opacity:1;stroke-width:0.264583"
         d="m 53.144559,139.61519 v -1.29329 c 0.03175,0.0699 0.05927,0.1397 0.110067,0.22649 l 0.618068,1.0668 h 0.122767 v -1.50284 h -0.122767 v 1.29117 c -0.02328,-0.055 -0.04445,-0.10795 -0.08467,-0.1778 l -0.643468,-1.11337 h -0.12065 v 1.50284 z" />
      <path
         id="path2748"
         style="font-style:normal;font-variant:normal;font-weight:normal;font-stretch:normal;font-size:2.11667px;font-family:Quarca;-inkscape-font-specification:Quarca;fill:#dddddd;fill-opacity:1;stroke-width:0.264583"
         d="m 54.827047,139.61519 v -1.3081 l 0.374651,0.73236 h 0.118533 l 0.376768,-0.73236 v 1.3081 h 0.116417 v -1.50284 h -0.143934 l -0.408517,0.79799 -0.406401,-0.79799 h -0.143933 v 1.50284 z" />
      <path
         id="path2750"
         style="font-style:normal;font-variant:normal;font-weight:normal;font-stretch:normal;font-size:2.11667px;font-family:Quarca;-inkscape-font-specification:Quarca;fill:#dddddd;fill-opacity:1;stroke-width:0.264583"
         d="m 56.455395,138.11235 -0.463551,1.50284 h 0.129117 l 0.09737,-0.32597 h 0.605368 l 0.09737,0.32597 h 0.129117 l -0.461434,-1.50284 z m 0.06773,0.16087 0.266701,0.9017 h -0.537634 z" />
      <path
         id="path2752"
         style="font-style:normal;font-variant:normal;font-weight:normal;font-stretch:normal;font-size:2.11667px;font-family:Quarca;-inkscape-font-specification:Quarca;fill:#dddddd;fill-opacity:1;stroke-width:0.264583"
         d="m 57.353095,139.61519 v -0.71967 l 0.622301,0.71967 h 0.141816 l -0.649817,-0.75142 0.637117,-0.75142 h -0.13335 l -0.618067,0.71967 v -0.71967 h -0.120651 v 1.50284 z" />
      <path
         id="path2754"
         style="font-style:normal;font-variant:normal;font-weight:normal;font-stretch:normal;font-size:2.11667px;font-family:Quarca;-inkscape-font-specification:Quarca;fill:#dddddd;fill-opacity:1;stroke-width:0.264583"
         d="m 58.370089,138.22665 h 0.679451 l 0.01693,-0.1143 h -0.817035 v 1.50284 h 0.804335 l 0.01693,-0.1143 h -0.700617 v -0.45932 h 0.569384 l 0.01693,-0.11218 h -0.586317 z" />
      <path
         id="path2756"
         style="font-style:normal;font-variant:normal;font-weight:normal;font-stretch:normal;font-size:2.11667px;font-family:Quarca;-inkscape-font-specification:Quarca;fill:#dddddd;fill-opacity:1;stroke-width:0.264583"
         d="m 59.863333,139.50089 h -0.270934 c -0.14605,0 -0.20955,-0.0677 -0.20955,-0.22225 v -1.16629 h -0.12065 v 1.20015 c 0,0.20109 0.09313,0.30269 0.3048,0.30269 h 0.321734 c 0.211667,0 0.3048,-0.1016 0.3048,-0.30269 v -1.20015 h -0.122767 v 1.16629 c 0,0.15451 -0.06138,0.22225 -0.207433,0.22225 z" />
      <path
         id="path2758"
         style="font-style:normal;font-variant:normal;font-weight:normal;font-stretch:normal;font-size:2.11667px;font-family:Quarca;-inkscape-font-specification:Quarca;fill:#dddddd;fill-opacity:1;stroke-width:0.264583"
         d="m 60.594245,138.99712 h 0.474134 c 0.188384,0 0.28575,-0.0952 0.28575,-0.28363 v -0.3175 c 0,-0.18839 -0.09737,-0.28364 -0.28575,-0.28364 h -0.594784 v 1.50284 h 0.12065 z m 0,-0.77047 h 0.457201 c 0.122767,0 0.179917,0.0572 0.179917,0.19262 v 0.27093 c 0,0.13547 -0.05715,0.19262 -0.179917,0.19262 h -0.457201 z" />
    </g>
    <g
       style="font-style:normal;font-variant:normal;font-weight:bold;font-stretch:normal;font-size:3.52778px;line-height:1.25;font-family:Arial;-inkscape-font-specification:'Arial Bold';text-align:center;letter-spacing:0px;word-spacing:0px;white-space:pre;shape-inside:url(#rect12411);fill:#000000;fill-opacity:1;stroke:none"
       id="text12409" />
    <g
       style="font-style:normal;font-variant:normal;font-weight:normal;font-stretch:normal;font-size:3.52777px;line-height:1.25;font-family:Quarca;-inkscape-font-specification:Quarca;text-align:center;letter-spacing:0px;word-spacing:0px;text-anchor:middle;fill:#dddddd;fill-opacity:1;stroke:none;stroke-width:0.264583"
       id="text299-8-8-0"
       aria-label="FEEDBACK">
      <path
         id="path2722"
         style="font-style:normal;font-variant:normal;font-weight:normal;font-stretch:normal;font-size:2.82223px;font-family:Quarca;-inkscape-font-specification:Quarca;fill:#dddddd;fill-opacity:1;stroke-width:0.264583"
         d="m 43.24467,117.74556 h 0.897469 l 0.02258,-0.1524 h -1.080914 v 2.00379 h 0.160867 v -0.76483 h 0.711202 l 0.02258,-0.14958 H 43.24467 Z" />
      <path
         id="path2724"
         style="font-style:normal;font-variant:normal;font-weight:normal;font-stretch:normal;font-size:2.82223px;font-family:Quarca;-inkscape-font-specification:Quarca;fill:#dddddd;fill-opacity:1;stroke-width:0.264583"
         d="m 44.56759,117.74556 h 0.905936 l 0.02258,-0.1524 h -1.089381 v 2.00379 h 1.072447 l 0.02258,-0.1524 H 44.56759 v -0.61243 h 0.75918 l 0.02258,-0.14958 H 44.56759 Z" />
      <path
         id="path2726"
         style="font-style:normal;font-variant:normal;font-weight:normal;font-stretch:normal;font-size:2.82223px;font-family:Quarca;-inkscape-font-specification:Quarca;fill:#dddddd;fill-opacity:1;stroke-width:0.264583"
         d="m 45.923583,117.74556 h 0.905936 l 0.02258,-0.1524 h -1.089381 v 2.00379 h 1.072448 l 0.02258,-0.1524 h -0.934158 v -0.61243 h 0.75918 l 0.02258,-0.14958 h -0.781758 z" />
      <path
         id="path2728"
         style="font-style:normal;font-variant:normal;font-weight:normal;font-stretch:normal;font-size:2.82223px;font-family:Quarca;-inkscape-font-specification:Quarca;fill:#dddddd;fill-opacity:1;stroke-width:0.264583"
         d="m 47.11871,119.59695 h 0.78458 c 0.352779,0 0.496712,-0.15523 0.496712,-0.47414 v -1.05551 c 0,-0.31891 -0.143933,-0.47414 -0.496712,-0.47414 h -0.78458 z m 0.776113,-0.1524 h -0.615246 v -1.69899 h 0.615246 c 0.245534,0 0.344312,0.11007 0.344312,0.3556 v 0.98779 c 0,0.24553 -0.09878,0.3556 -0.344312,0.3556 z" />
      <path
         id="path2730"
         style="font-style:normal;font-variant:normal;font-weight:normal;font-stretch:normal;font-size:2.82223px;font-family:Quarca;-inkscape-font-specification:Quarca;fill:#dddddd;fill-opacity:1;stroke-width:0.264583"
         d="m 48.766848,119.59695 h 0.78458 c 0.301979,0 0.437446,-0.12983 0.437446,-0.38947 v -0.27376 c 0,-0.27375 -0.146756,-0.37253 -0.327379,-0.38664 0.1524,-0.031 0.222956,-0.13265 0.222956,-0.31891 v -0.24554 c 0,-0.25964 -0.149578,-0.38947 -0.465668,-0.38947 h -0.651935 z m 0.160867,-0.97085 h 0.536224 c 0.251178,0 0.364067,0.096 0.364067,0.31609 v 0.23424 c 0,0.18063 -0.09313,0.26812 -0.301978,0.26812 h -0.598313 z m 0,-0.88054 h 0.454379 c 0.234245,0 0.34149,0.079 0.34149,0.27376 v 0.19756 c 0,0.16086 -0.08749,0.25964 -0.285045,0.25964 h -0.510824 z" />
      <path
         id="path2732"
         style="font-style:normal;font-variant:normal;font-weight:normal;font-stretch:normal;font-size:2.82223px;font-family:Quarca;-inkscape-font-specification:Quarca;fill:#dddddd;fill-opacity:1;stroke-width:0.264583"
         d="m 50.751449,117.59316 -0.618069,2.00379 h 0.172156 l 0.129823,-0.43463 h 0.807158 l 0.129822,0.43463 h 0.172156 l -0.615246,-2.00379 z m 0.09031,0.21449 0.355601,1.20227 h -0.716846 z" />
      <path
         id="path2734"
         style="font-style:normal;font-variant:normal;font-weight:normal;font-stretch:normal;font-size:2.82223px;font-family:Quarca;-inkscape-font-specification:Quarca;fill:#dddddd;fill-opacity:1;stroke-width:0.264583"
         d="m 52.179806,119.44455 c -0.177801,0 -0.242712,-0.0847 -0.242712,-0.26247 v -1.17405 c 0,-0.1778 0.06491,-0.26247 0.242712,-0.26247 h 0.457201 c 0.177801,0 0.242712,0.0847 0.242712,0.26247 v 0.18345 h 0.160867 v -0.20885 c 0,-0.25964 -0.09878,-0.38947 -0.386645,-0.38947 h -0.491068 c -0.287868,0 -0.386646,0.12983 -0.386646,0.38947 v 1.22485 c 0,0.25964 0.09878,0.38947 0.386646,0.38947 h 0.491068 c 0.287867,0 0.386645,-0.12983 0.386645,-0.38947 v -0.21449 h -0.160867 v 0.18909 c 0,0.1778 -0.06491,0.26247 -0.242712,0.26247 z" />
      <path
         id="path2736"
         style="font-style:normal;font-variant:normal;font-weight:normal;font-stretch:normal;font-size:2.82223px;font-family:Quarca;-inkscape-font-specification:Quarca;fill:#dddddd;fill-opacity:1;stroke-width:0.264583"
         d="m 53.513839,119.59695 v -0.95956 l 0.829735,0.95956 h 0.18909 l -0.866425,-1.00189 0.849491,-1.0019 h -0.1778 l -0.824091,0.95956 v -0.95956 h -0.160868 v 2.00379 z" />
    </g>
  </g>
</svg>
