<?xml version="1.0" encoding="UTF-8" standalone="no"?>
<svg
   xmlns:dc="http://purl.org/dc/elements/1.1/"
   xmlns:cc="http://creativecommons.org/ns#"
   xmlns:rdf="http://www.w3.org/1999/02/22-rdf-syntax-ns#"
   xmlns:svg="http://www.w3.org/2000/svg"
   xmlns="http://www.w3.org/2000/svg"
   xmlns:xlink="http://www.w3.org/1999/xlink"
   xmlns:sodipodi="http://sodipodi.sourceforge.net/DTD/sodipodi-0.dtd"
   xmlns:inkscape="http://www.inkscape.org/namespaces/inkscape"
   width="150"
   height="380"
   viewBox="0 0 39.687501 100.54167"
   version="1.1"
   id="svg11003"
   inkscape:version="1.0 (4035a4fb49, 2020-05-01)"
   sodipodi:docname="TheOneRingModulator.svg">
  <defs
     id="defs10997">
    <linearGradient
       inkscape:collect="always"
       id="linearGradient4682">
      <stop
         style="stop-color:#202022;stop-opacity:1;"
         offset="0"
         id="stop3387" />
      <stop
         style="stop-color:#202025;stop-opacity:1;"
         offset=".3"
         id="stop3388" />
      <stop
         style="stop-color:#08003e;stop-opacity:1;"
         offset="1"
         id="stop3389" />
    </linearGradient>
    <linearGradient
       inkscape:collect="always"
       xlink:href="#linearGradient4682"
       id="linearGradient4684"
       x1="35.219627"
       y1="150.85843"
       x2="35.23983"
       y2="50.163956"
       gradientUnits="userSpaceOnUse"
       gradientTransform="matrix(0.7685196,0,0,1,8.1526538,0)" />
  </defs>
  <sodipodi:namedview
     id="base"
     pagecolor="#ffffff"
     bordercolor="#666666"
     borderopacity="1.0"
     inkscape:pageopacity="0.0"
     inkscape:pageshadow="2"
     inkscape:zoom="4"
     inkscape:cx="44.82307"
     inkscape:cy="261.7568"
     inkscape:document-units="px"
     inkscape:current-layer="layer1"
     showgrid="false"
     fit-margin-top="0"
     fit-margin-left="0"
     fit-margin-right="0"
     fit-margin-bottom="0"
     inkscape:window-width="1920"
     inkscape:window-height="1058"
     inkscape:window-x="-6"
     inkscape:window-y="-6"
     inkscape:window-maximized="1"
     units="px"
     inkscape:document-rotation="0" />
  <metadata
     id="metadata11000">
    <rdf:RDF>
      <cc:Work
         rdf:about="">
        <dc:format>image/svg+xml</dc:format>
        <dc:type
           rdf:resource="http://purl.org/dc/dcmitype/StillImage" />
        <dc:title></dc:title>
      </cc:Work>
    </rdf:RDF>
  </metadata>
  <g
     inkscape:label="Layer 1"
     inkscape:groupmode="layer"
     id="layer1"
     transform="translate(-35.146312,-50.389004)">
    <path
       inkscape:connector-curvature="0"
       id="path33493"
       d="M 35.219628,50.462323 H 74.748617 V 150.85843 H 35.219628 Z m 0,0"
       style="fill:url(#linearGradient4684);fill-opacity:1;fill-rule:nonzero;stroke:none;stroke-width:0.27576962"
       inkscape:export-filename="/home/vortico/pics/tmp/LFOs.png"
       inkscape:export-xdpi="150.22649"
       inkscape:export-ydpi="150.22649" />
    <g
       style="font-style:normal;font-weight:normal;font-size:3.52778px;line-height:1.25;font-family:sans-serif;letter-spacing:0px;word-spacing:0px;fill:#ffffff;fill-opacity:1;stroke:none;stroke-width:0.264583"
       id="text5097" />
    <g
       style="font-style:normal;font-variant:normal;font-weight:bold;font-stretch:normal;font-size:3.52778px;line-height:1.25;font-family:Homenaje;-inkscape-font-specification:'Homenaje Bold';text-align:center;letter-spacing:0px;word-spacing:0px;text-anchor:middle;fill:#ffffff;fill-opacity:1;stroke:none;stroke-width:0.264583"
       id="text136"
       aria-label="THE ONE RING">
      <path
         id="path15555"
         style="font-style:normal;font-variant:normal;font-weight:bold;font-stretch:normal;font-size:3.88056px;font-family:Homenaje;-inkscape-font-specification:'Homenaje Bold';stroke-width:0.264583"
         d="M 45.700779,54.283745 V 51.82347 H 45.1575 v -0.256117 h 1.428046 v 0.256117 h -0.543278 v 2.460275 z" />
      <path
         id="path15557"
         style="font-style:normal;font-variant:normal;font-weight:bold;font-stretch:normal;font-size:3.88056px;font-family:Homenaje;-inkscape-font-specification:'Homenaje Bold';stroke-width:0.264583"
         d="m 48.060947,52.972116 h -0.772231 v 1.311629 h -0.341489 v -2.716392 h 0.341489 v 1.148646 h 0.772231 v -1.148646 h 0.34149 v 2.716392 h -0.34149 z" />
      <path
         id="path15559"
         style="font-style:normal;font-variant:normal;font-weight:bold;font-stretch:normal;font-size:3.88056px;font-family:Homenaje;-inkscape-font-specification:'Homenaje Bold';stroke-width:0.264583"
         d="m 48.970878,54.283745 v -2.716392 h 1.183571 v 0.263878 h -0.842082 v 0.869245 h 0.682979 v 0.263878 h -0.682979 v 1.055513 h 0.880887 v 0.263878 z" />
      <path
         id="path15561"
         style="font-style:normal;font-variant:normal;font-weight:bold;font-stretch:normal;font-size:3.88056px;font-family:Homenaje;-inkscape-font-specification:'Homenaje Bold';stroke-width:0.264583"
         d="m 52.584164,53.612408 q 0,0.329848 -0.190147,0.516114 -0.190148,0.182387 -0.55492,0.182387 -0.360892,0 -0.55104,-0.182387 Q 51.09791,53.942256 51.09791,53.612408 V 52.23869 q 0,-0.329848 0.190147,-0.512234 0.190148,-0.186267 0.55104,-0.186267 0.364772,0 0.55492,0.186267 0.190147,0.182386 0.190147,0.512234 z m -1.144765,0.06597 q 0,0.178506 0.112536,0.279401 0.116417,0.09701 0.287162,0.09701 0.170744,0 0.287161,-0.09701 0.116417,-0.100895 0.116417,-0.279401 V 52.17272 q 0,-0.178506 -0.116417,-0.27552 -0.116417,-0.100894 -0.287161,-0.100894 -0.170745,0 -0.287162,0.100894 -0.112536,0.09701 -0.112536,0.27552 z" />
      <path
         id="path15563"
         style="font-style:normal;font-variant:normal;font-weight:bold;font-stretch:normal;font-size:3.88056px;font-family:Homenaje;-inkscape-font-specification:'Homenaje Bold';stroke-width:0.264583"
         d="m 54.550638,54.283745 h -0.48895 l -0.717904,-2.468036 v 2.468036 h -0.341489 v -2.716392 h 0.570442 l 0.632531,2.347739 v -2.347739 h 0.34537 z" />
      <path
         id="path15565"
         style="font-style:normal;font-variant:normal;font-weight:bold;font-stretch:normal;font-size:3.88056px;font-family:Homenaje;-inkscape-font-specification:'Homenaje Bold';stroke-width:0.264583"
         d="m 55.087307,54.283745 v -2.716392 h 1.183571 v 0.263878 h -0.842082 v 0.869245 h 0.682979 v 0.263878 h -0.682979 v 1.055513 h 0.880888 v 0.263878 z" />
      <path
         id="path15567"
         style="font-style:normal;font-variant:normal;font-weight:bold;font-stretch:normal;font-size:3.88056px;font-family:Homenaje;-inkscape-font-specification:'Homenaje Bold';stroke-width:0.264583"
         d="m 57.672246,51.82347 v 1.012826 h 0.275519 q 0.221192,0 0.34149,-0.151342 0.124178,-0.155222 0.124178,-0.395817 0,-0.465667 -0.465668,-0.465667 z m -0.0078,1.268943 v 1.191332 h -0.333729 v -2.716392 h 0.717904 q 0.698501,0 0.698501,0.721784 0,0.271639 -0.104775,0.473428 -0.104775,0.201789 -0.298803,0.279401 l 0.539397,1.241779 h -0.333728 l -0.527756,-1.191332 z" />
      <path
         id="path15569"
         style="font-style:normal;font-variant:normal;font-weight:bold;font-stretch:normal;font-size:3.88056px;font-family:Homenaje;-inkscape-font-specification:'Homenaje Bold';stroke-width:0.264583"
         d="m 59.240719,54.283745 v -2.716392 h 0.341489 v 2.716392 z" />
      <path
         id="path15571"
         style="font-style:normal;font-variant:normal;font-weight:bold;font-stretch:normal;font-size:3.88056px;font-family:Homenaje;-inkscape-font-specification:'Homenaje Bold';stroke-width:0.264583"
         d="m 61.667525,54.283745 h -0.488951 l -0.717903,-2.468036 v 2.468036 h -0.34149 v -2.716392 h 0.570443 l 0.632531,2.347739 v -2.347739 h 0.34537 z" />
      <path
         id="path15573"
         style="font-style:normal;font-variant:normal;font-weight:bold;font-stretch:normal;font-size:3.88056px;font-family:Homenaje;-inkscape-font-specification:'Homenaje Bold';stroke-width:0.264583"
         d="m 63.515824,54.283745 h -0.68686 q -0.35313,0 -0.547158,-0.178506 -0.194028,-0.178506 -0.194028,-0.523876 v -1.315509 q 0,-0.34149 0.20955,-0.519995 0.20955,-0.178506 0.570442,-0.178506 h 0.570442 v 0.259997 h -0.609248 q -0.178505,0 -0.291042,0.104775 -0.108655,0.100895 -0.108655,0.27164 v 1.447449 q 0,0.174625 0.104775,0.275519 0.104775,0.100895 0.2794,0.100895 h 0.360892 v -1.067154 h -0.34925 v -0.256117 h 0.69074 z" />
    </g>
    <g
       style="font-style:normal;font-variant:normal;font-weight:bold;font-stretch:normal;font-size:3.52778px;line-height:1.25;font-family:Homenaje;-inkscape-font-specification:'Homenaje Bold';text-align:center;letter-spacing:0px;word-spacing:0px;text-anchor:middle;fill:#ffffff;fill-opacity:1;stroke:none;stroke-width:0.264583"
       id="text299"
       aria-label="BIAS">
      <path
         id="path15546"
         style="font-style:normal;font-variant:normal;font-weight:bold;font-stretch:normal;font-size:2.82222px;font-family:Homenaje;-inkscape-font-specification:'Homenaje Bold';stroke-width:0.264583"
         d="m 39.628002,97.812199 v 0.640644 h 0.177799 q 0.169334,0 0.262467,-0.08467 0.09313,-0.08749 0.09313,-0.251178 0,-0.304799 -0.3556,-0.304799 z m 0.570088,0.739421 q 0.110067,0.05927 0.180622,0.1778 0.07338,0.118533 0.07338,0.239889 0,0.121355 -0.01129,0.194733 -0.01129,0.07338 -0.0508,0.160867 -0.03669,0.08467 -0.104422,0.141111 -0.1524,0.135466 -0.468489,0.135466 h -0.437444 v -1.975554 h 0.479778 q 0.262466,0 0.392288,0.121356 0.129822,0.118533 0.129822,0.375355 0,0.141111 -0.05362,0.259644 -0.0508,0.115711 -0.129822,0.169333 z m -0.395111,0.8636 q 0.412044,0 0.412044,-0.395111 0,-0.200378 -0.121355,-0.287867 -0.121356,-0.08749 -0.287867,-0.08749 h -0.177799 v 0.770466 z" />
      <path
         id="path15548"
         style="font-style:normal;font-variant:normal;font-weight:bold;font-stretch:normal;font-size:2.82222px;font-family:Homenaje;-inkscape-font-specification:'Homenaje Bold';stroke-width:0.264583"
         d="m 40.752171,99.601486 v -1.975554 h 0.248355 v 1.975554 z" />
      <path
         id="path15550"
         style="font-style:normal;font-variant:normal;font-weight:bold;font-stretch:normal;font-size:2.82222px;font-family:Homenaje;-inkscape-font-specification:'Homenaje Bold';stroke-width:0.264583"
         d="m 41.709962,97.625932 h 0.375355 l 0.428978,1.975554 H 42.282873 L 42.144584,99.020109 H 41.63094 l -0.127,0.581377 h -0.239889 z m 0.392289,1.202266 -0.2032,-1.015999 h -0.01976 l -0.206022,1.015999 z" />
      <path
         id="path15552"
         style="font-style:normal;font-variant:normal;font-weight:bold;font-stretch:normal;font-size:2.82222px;font-family:Homenaje;-inkscape-font-specification:'Homenaje Bold';stroke-width:0.264583"
         d="m 43.048885,99.41522 q 0.160867,0 0.231422,-0.09596 0.07338,-0.09596 0.07338,-0.222955 0,-0.127 -0.04798,-0.214489 -0.04516,-0.09031 -0.115711,-0.141111 -0.07056,-0.05362 -0.1524,-0.115711 -0.08184,-0.06209 -0.1524,-0.118533 -0.07055,-0.05927 -0.118533,-0.158045 -0.04516,-0.09878 -0.04516,-0.225777 0,-0.225778 0.135467,-0.361244 0.135467,-0.135467 0.375355,-0.135467 h 0.2286 v 0.186267 h -0.217311 q -0.135466,0 -0.206022,0.08749 -0.07055,0.08749 -0.07055,0.189089 0,0.1016 0.04516,0.174978 0.04798,0.07338 0.118533,0.121355 0.07056,0.04798 0.1524,0.112889 0.08467,0.06491 0.155222,0.132644 0.07056,0.06491 0.115711,0.1778 0.04798,0.112889 0.04798,0.256822 0,0.265289 -0.1524,0.400756 -0.149577,0.135466 -0.412044,0.135466 H 42.741263 V 99.41522 Z" />
    </g>
    <g
       transform="translate(-0.52916885)"
       style="font-style:normal;font-variant:normal;font-weight:bold;font-stretch:normal;font-size:3.52778px;line-height:1.25;font-family:Homenaje;-inkscape-font-specification:'Homenaje Bold';text-align:center;letter-spacing:0px;word-spacing:0px;text-anchor:middle;fill:#ffffff;fill-opacity:1;stroke:none;stroke-width:0.264583"
       id="text303"
       aria-label="LINEAR">
      <path
         id="path15533"
         style="font-style:normal;font-variant:normal;font-weight:bold;font-stretch:normal;font-size:2.82222px;font-family:Homenaje;-inkscape-font-specification:'Homenaje Bold';stroke-width:0.264583"
         d="m 52.079648,99.601326 v -1.975554 h 0.248355 v 1.789287 h 0.578555 v 0.186267 z" />
      <path
         id="path15535"
         style="font-style:normal;font-variant:normal;font-weight:bold;font-stretch:normal;font-size:2.82222px;font-family:Homenaje;-inkscape-font-specification:'Homenaje Bold';stroke-width:0.264583"
         d="m 53.149004,99.601326 v -1.975554 h 0.248356 v 1.975554 z" />
      <path
         id="path15537"
         style="font-style:normal;font-variant:normal;font-weight:bold;font-stretch:normal;font-size:2.82222px;font-family:Homenaje;-inkscape-font-specification:'Homenaje Bold';stroke-width:0.264583"
         d="M 54.91395,99.601326 H 54.558351 L 54.03624,97.806394 v 1.794932 h -0.248355 v -1.975554 h 0.414866 l 0.460022,1.707443 v -1.707443 h 0.251177 z" />
      <path
         id="path15539"
         style="font-style:normal;font-variant:normal;font-weight:bold;font-stretch:normal;font-size:2.82222px;font-family:Homenaje;-inkscape-font-specification:'Homenaje Bold';stroke-width:0.264583"
         d="m 55.304255,99.601326 v -1.975554 h 0.860777 v 0.191911 H 55.55261 v 0.632177 h 0.496711 v 0.191911 H 55.55261 v 0.767644 h 0.640644 v 0.191911 z" />
      <path
         id="path15541"
         style="font-style:normal;font-variant:normal;font-weight:bold;font-stretch:normal;font-size:2.82222px;font-family:Homenaje;-inkscape-font-specification:'Homenaje Bold';stroke-width:0.264583"
         d="m 56.807748,97.625772 h 0.375355 l 0.428978,1.975554 H 57.380659 L 57.24237,99.019949 h -0.513644 l -0.127,0.581377 h -0.239889 z m 0.392289,1.202266 -0.2032,-1.016 h -0.01976 l -0.206022,1.016 z" />
      <path
         id="path15543"
         style="font-style:normal;font-variant:normal;font-weight:bold;font-stretch:normal;font-size:2.82222px;font-family:Homenaje;-inkscape-font-specification:'Homenaje Bold';stroke-width:0.264583"
         d="m 58.121271,97.812038 v 0.7366 h 0.200378 q 0.160866,0 0.248355,-0.110067 0.09031,-0.112888 0.09031,-0.287866 0,-0.338667 -0.338666,-0.338667 z m -0.0056,0.922866 v 0.866422 H 57.87296 v -1.975554 h 0.522111 q 0.507999,0 0.507999,0.524933 0,0.197555 -0.0762,0.344311 -0.0762,0.146755 -0.217311,0.2032 l 0.392289,0.90311 h -0.242711 l -0.383822,-0.866422 z" />
    </g>
    <g
       transform="translate(-0.13228447)"
       style="font-style:normal;font-variant:normal;font-weight:bold;font-stretch:normal;font-size:3.52778px;line-height:1.25;font-family:Homenaje;-inkscape-font-specification:'Homenaje Bold';text-align:center;letter-spacing:0px;word-spacing:0px;text-anchor:middle;fill:#ffffff;fill-opacity:1;stroke:none;stroke-width:0.264583"
       id="text307"
       aria-label="SLOPE">
      <path
         id="path15522"
         style="font-style:normal;font-variant:normal;font-weight:bold;font-stretch:normal;font-size:2.82222px;font-family:Homenaje;-inkscape-font-specification:'Homenaje Bold';stroke-width:0.264583"
         d="m 65.107021,99.415059 q 0.160867,0 0.231422,-0.09596 0.07338,-0.09596 0.07338,-0.222955 0,-0.127 -0.04798,-0.214489 -0.04516,-0.09031 -0.115711,-0.141111 -0.07055,-0.05362 -0.1524,-0.115711 -0.08184,-0.06209 -0.1524,-0.118533 -0.07055,-0.05927 -0.118533,-0.158045 -0.04516,-0.09878 -0.04516,-0.225777 0,-0.225778 0.135467,-0.361245 0.135467,-0.135466 0.375355,-0.135466 h 0.2286 v 0.186266 H 65.30175 q -0.135466,0 -0.206022,0.08749 -0.07055,0.08749 -0.07055,0.189089 0,0.1016 0.04515,0.174978 0.04798,0.07338 0.118533,0.121355 0.07056,0.04798 0.1524,0.112889 0.08467,0.06491 0.155222,0.132644 0.07056,0.06491 0.115711,0.1778 0.04798,0.112889 0.04798,0.256822 0,0.265289 -0.1524,0.400755 -0.149577,0.135467 -0.412044,0.135467 h -0.296333 v -0.186267 z" />
      <path
         id="path15524"
         style="font-style:normal;font-variant:normal;font-weight:bold;font-stretch:normal;font-size:2.82222px;font-family:Homenaje;-inkscape-font-specification:'Homenaje Bold';stroke-width:0.264583"
         d="m 65.935695,99.601326 v -1.975554 h 0.248356 v 1.789287 h 0.578555 v 0.186267 z" />
      <path
         id="path15526"
         style="font-style:normal;font-variant:normal;font-weight:bold;font-stretch:normal;font-size:2.82222px;font-family:Homenaje;-inkscape-font-specification:'Homenaje Bold';stroke-width:0.264583"
         d="m 68.001296,99.113082 q 0,0.239889 -0.138289,0.375355 -0.138289,0.132645 -0.403577,0.132645 -0.262467,0 -0.400756,-0.132645 -0.138288,-0.135466 -0.138288,-0.375355 v -0.999066 q 0,-0.239889 0.138288,-0.372533 0.138289,-0.135467 0.400756,-0.135467 0.265288,0 0.403577,0.135467 0.138289,0.132644 0.138289,0.372533 z m -0.832555,0.04798 q 0,0.129822 0.08184,0.2032 0.08467,0.07055 0.208845,0.07055 0.124177,0 0.208844,-0.07055 0.08467,-0.07338 0.08467,-0.2032 V 98.06604 q 0,-0.129822 -0.08467,-0.200377 -0.08467,-0.07338 -0.208844,-0.07338 -0.124178,0 -0.208845,0.07338 -0.08184,0.07055 -0.08184,0.200377 z" />
      <path
         id="path15528"
         style="font-style:normal;font-variant:normal;font-weight:bold;font-stretch:normal;font-size:2.82222px;font-family:Homenaje;-inkscape-font-specification:'Homenaje Bold';stroke-width:0.264583"
         d="m 68.576323,97.812038 v 0.733778 h 0.180622 q 0.160867,0 0.248356,-0.110067 0.09031,-0.110066 0.09031,-0.285044 0,-0.338667 -0.338667,-0.338667 z m 0.767644,0.338667 q 0,0.273755 -0.149577,0.428977 -0.146756,0.1524 -0.420511,0.1524 h -0.197556 v 0.869244 h -0.248355 v -1.975554 h 0.499533 q 0.516466,0 0.516466,0.524933 z" />
      <path
         id="path15530"
         style="font-style:normal;font-variant:normal;font-weight:bold;font-stretch:normal;font-size:2.82222px;font-family:Homenaje;-inkscape-font-specification:'Homenaje Bold';stroke-width:0.264583"
         d="m 69.606786,99.601326 v -1.975554 h 0.860777 v 0.191911 h -0.612421 v 0.632177 h 0.49671 v 0.191911 h -0.49671 v 0.767644 h 0.640643 v 0.191911 z" />
    </g>
    <g
       style="font-style:normal;font-variant:normal;font-weight:bold;font-stretch:normal;font-size:3.52778px;line-height:1.25;font-family:Consolas;-inkscape-font-specification:'Consolas Bold';text-align:center;letter-spacing:0px;word-spacing:0px;text-anchor:middle;fill:#ffffff;fill-opacity:1;stroke:none;stroke-width:0.264583"
       id="text373" />
    <g
       style="font-style:normal;font-variant:normal;font-weight:bold;font-stretch:normal;font-size:13.3333px;line-height:1.25;font-family:Consolas;-inkscape-font-specification:'Consolas Bold';text-align:center;letter-spacing:0px;word-spacing:0px;text-anchor:middle;fill:#ffffff;fill-opacity:1;stroke:none"
       id="flowRoot250" />
    <path
       inkscape:connector-curvature="0"
       id="path38411"
       d="M 73.219127,93.782704 H 35.967434 L 36.232018,61.65327 h 37.251693 z m 0,0"
       style="fill:#1e282b;fill-opacity:1;fill-rule:nonzero;stroke:none;stroke-width:0.21851985" />
    <path
       inkscape:connector-curvature="0"
       id="path5509"
       d="M 37.621225,63.118735 H 72.094846"
       style="clip-rule:nonzero;fill:none;stroke:#ffffff;stroke-width:0.2161129;stroke-linecap:butt;stroke-linejoin:miter;stroke-miterlimit:10;stroke-dasharray:none;stroke-opacity:0.25098039" />
    <path
       inkscape:connector-curvature="0"
       id="path5503"
       d="M 37.621225,70.377857 H 72.017058"
       style="clip-rule:nonzero;fill:none;stroke:#ffffff;stroke-width:0.21610826;stroke-linecap:butt;stroke-linejoin:miter;stroke-miterlimit:10;stroke-dasharray:none;stroke-opacity:0.25098039" />
    <path
       inkscape:connector-curvature="0"
       id="path5497"
       d="M 37.621225,84.975823 H 72.017058"
       style="clip-rule:nonzero;fill:none;stroke:#ffffff;stroke-width:0.21610826;stroke-linecap:butt;stroke-linejoin:miter;stroke-miterlimit:10;stroke-dasharray:none;stroke-opacity:0.25098039" />
    <path
       inkscape:connector-curvature="0"
       id="path5491"
       d="M 37.621225,92.275344 H 72.017058"
       style="clip-rule:nonzero;fill:none;stroke:#ffffff;stroke-width:0.21610826;stroke-linecap:butt;stroke-linejoin:miter;stroke-miterlimit:10;stroke-dasharray:none;stroke-opacity:0.25098039" />
    <path
       inkscape:connector-curvature="0"
       id="path5305"
       d="M 37.621225,77.677377 H 72.017058"
       style="clip-rule:nonzero;fill:none;stroke:#ffffff;stroke-width:0.21610826;stroke-linecap:butt;stroke-linejoin:miter;stroke-miterlimit:10;stroke-dasharray:none;stroke-opacity:0.25098039" />
    <path
       inkscape:connector-curvature="0"
       id="path4803"
       d="M 63.457496,63.118735 V 92.253254"
       style="clip-rule:nonzero;fill:none;stroke:#ffffff;stroke-width:0.26458332;stroke-linecap:butt;stroke-linejoin:miter;stroke-miterlimit:10;stroke-dasharray:none;stroke-opacity:0.25098039" />
    <path
       inkscape:connector-curvature="0"
       id="path4797"
       d="M 72.069207,63.118735 V 92.253254"
       style="clip-rule:nonzero;fill:none;stroke:#ffffff;stroke-width:0.26458332;stroke-linecap:butt;stroke-linejoin:miter;stroke-miterlimit:10;stroke-dasharray:none;stroke-opacity:0.25098039" />
    <path
       inkscape:connector-curvature="0"
       id="path4791"
       d="M 54.845732,63.118735 V 92.253254"
       style="clip-rule:nonzero;fill:none;stroke:#ffffff;stroke-width:0.26458332;stroke-linecap:butt;stroke-linejoin:miter;stroke-miterlimit:10;stroke-dasharray:none;stroke-opacity:0.25098039" />
    <path
       inkscape:connector-curvature="0"
       id="path4785"
       d="M 46.234021,63.118735 V 92.253254"
       style="clip-rule:nonzero;fill:none;stroke:#ffffff;stroke-width:0.26458332;stroke-linecap:butt;stroke-linejoin:miter;stroke-miterlimit:10;stroke-dasharray:none;stroke-opacity:0.25098039" />
    <g
       style="font-style:normal;font-variant:normal;font-weight:bold;font-stretch:normal;font-size:3.52778px;line-height:1.25;font-family:Consolas;-inkscape-font-specification:'Consolas Bold';text-align:start;letter-spacing:0px;word-spacing:0px;text-anchor:start;fill:#00a3f2;fill-opacity:1;stroke:none;stroke-width:0.264583"
       id="text3885-7"
       aria-label="FROZEN WASTELAND">
      <path
         id="path15489"
         style="font-style:normal;font-variant:normal;font-weight:normal;font-stretch:normal;font-family:'Bradley Gratis';-inkscape-font-specification:'Bradley Gratis';text-align:start;text-anchor:start;stroke-width:0.264583"
         d="m 40.48877,150.2604 q 0.119945,-0.11995 0.1905,-0.21167 0.07408,-0.0917 0.112889,-0.16934 0.04233,-0.0776 0.05292,-0.14463 0.01411,-0.0706 0.01411,-0.14817 0,-0.0952 -0.04586,-0.22931 -0.04586,-0.13405 -0.102306,-0.28575 -0.05644,-0.15169 -0.102305,-0.31044 -0.04586,-0.15875 -0.04586,-0.30339 0,-0.0776 0.02469,-0.15169 0.02822,-0.0741 0.06703,-0.14112 0.04233,-0.0706 0.09172,-0.13052 0.04939,-0.0635 0.09878,-0.11289 -0.07056,-0.0141 -0.123472,-0.0212 -0.05292,-0.0106 -0.07761,-0.0106 -0.130528,0 -0.222251,0.0706 -0.08819,0.067 -0.1905,0.16934 0,-0.11995 0.03528,-0.24695 0.03881,-0.13053 0.116417,-0.23636 0.07761,-0.10583 0.194028,-0.17286 0.119944,-0.067 0.282222,-0.067 0.112889,0 0.208139,0.0176 0.09878,0.0141 0.179917,0.0353 0.08114,0.0212 0.148167,0.0388 0.06703,0.0141 0.119944,0.0141 0.08114,0 0.141111,-0.0212 0.0635,-0.0247 0.123473,-0.0847 0,0.0776 -0.03175,0.17639 -0.02822,0.0988 -0.08819,0.1905 -0.05644,0.0882 -0.148166,0.15169 -0.09172,0.06 -0.211667,0.06 -0.05997,0 -0.137584,-0.007 -0.07408,-0.0106 -0.155222,-0.0247 -0.0071,0.0247 -0.01058,0.0459 -0.0035,0.0212 -0.0071,0.0388 -0.0035,0.0212 -0.0035,0.0388 0,0.0776 0.01058,0.15169 0.01411,0.0706 0.0388,0.14464 h 0.712612 l -0.08114,0.23989 q -0.01058,0.0459 -0.01411,0.067 -0.0035,0.0212 -0.01058,0.067 l -0.130527,-0.0917 h -0.363362 q 0.07761,0.17638 0.144639,0.35983 0.06703,0.17992 0.06703,0.38453 0,0.18344 -0.07408,0.34219 -0.07408,0.15522 -0.197556,0.27164 -0.119945,0.11642 -0.278695,0.17992 -0.155222,0.067 -0.321028,0.067 z" />
      <path
         id="path15491"
         style="font-style:normal;font-variant:normal;font-weight:normal;font-stretch:normal;font-family:'Bradley Gratis';-inkscape-font-specification:'Bradley Gratis';text-align:start;text-anchor:start;stroke-width:0.264583"
         d="m 42.558861,148.53178 q 0.07055,-0.0423 0.137583,-0.0988 0.07056,-0.0564 0.123472,-0.127 0.05645,-0.0706 0.08819,-0.16228 0.03528,-0.0952 0.03528,-0.21167 0,-0.0988 -0.03881,-0.16581 -0.03528,-0.0706 -0.08467,-0.11288 -0.04939,-0.0423 -0.09878,-0.06 -0.04586,-0.0176 -0.07056,-0.0176 -0.02822,0 -0.05292,0.0106 -0.02117,0.0106 -0.0388,0.0247 z m -0.518584,-0.94191 q -0.112889,-0.0635 -0.112889,-0.23637 0.03175,0.0318 0.112889,0.0565 0.08114,0.0212 0.172861,0.0212 0.04586,0 0.130528,-0.0106 0.08467,-0.0141 0.172861,-0.0282 0.09172,-0.0141 0.172861,-0.0247 0.08467,-0.0141 0.130528,-0.0141 0.116417,0 0.232834,0.0353 0.116417,0.0353 0.215194,0.11995 0.09878,0.0847 0.165806,0.2293 0.07056,0.14111 0.09172,0.35984 l -0.627945,0.4445 q 0.07056,0.0282 0.158751,0.0952 0.08819,0.067 0.165805,0.18697 0.08114,0.11994 0.134056,0.30692 0.05292,0.18344 0.05292,0.45155 0,0.23283 0.02117,0.37747 0.02117,0.14464 0.05292,0.23284 0.03175,0.0882 0.06703,0.13053 0.0388,0.0459 0.07055,0.0776 -0.155222,0 -0.275166,-0.0917 -0.119945,-0.0882 -0.211667,-0.23283 -0.09172,-0.14464 -0.162278,-0.32808 -0.06703,-0.18345 -0.123472,-0.37042 -0.05645,-0.18697 -0.105834,-0.35983 -0.04586,-0.17286 -0.09525,-0.29986 -0.02469,0.0176 -0.04939,0.0353 -0.02117,0.0141 -0.0388,0.0317 v 1.31939 h -0.518584 z" />
      <path
         id="path15493"
         style="font-style:normal;font-variant:normal;font-weight:normal;font-stretch:normal;font-family:'Bradley Gratis';-inkscape-font-specification:'Bradley Gratis';text-align:start;text-anchor:start;stroke-width:0.264583"
         d="m 44.446609,149.63951 q 0,0.11994 0.01411,0.18697 0.01764,0.067 0.04233,0.1023 0.02822,0.0318 0.0635,0.0388 0.03528,0.007 0.07056,0.007 0.07055,0 0.116417,-0.0952 0.04586,-0.0988 0.04586,-0.29986 v -1.53105 q 0,-0.15875 -0.01764,-0.25753 -0.01411,-0.10231 -0.04233,-0.15522 -0.0247,-0.0564 -0.05997,-0.0776 -0.03175,-0.0212 -0.0635,-0.0212 -0.06703,0 -0.119944,0.0847 -0.04939,0.0811 -0.04939,0.26105 z m 1.005417,-0.88548 q 0,0.25753 -0.06703,0.508 -0.0635,0.25048 -0.176389,0.44803 -0.109361,0.19756 -0.261055,0.32103 -0.151695,0.11994 -0.321028,0.11994 -0.158751,0 -0.310445,-0.10936 -0.148167,-0.10936 -0.264584,-0.29986 -0.112889,-0.1905 -0.183444,-0.4445 -0.07056,-0.254 -0.07056,-0.54328 0,-0.23636 0.0635,-0.4833 0.06703,-0.25048 0.179917,-0.45156 0.112889,-0.20108 0.264584,-0.32808 0.151694,-0.13053 0.321028,-0.13053 0.148166,0 0.292805,0.10936 0.148167,0.10936 0.264584,0.29986 0.119944,0.18697 0.194028,0.44097 0.07408,0.25401 0.07408,0.54328 z" />
      <path
         id="path15495"
         style="font-style:normal;font-variant:normal;font-weight:normal;font-stretch:normal;font-family:'Bradley Gratis';-inkscape-font-specification:'Bradley Gratis';text-align:start;text-anchor:start;stroke-width:0.264583"
         d="m 45.606091,150.11223 q 0.04586,-0.27164 0.130527,-0.51153 0.08819,-0.23989 0.194028,-0.45861 0.105834,-0.21872 0.218723,-0.41628 0.116416,-0.20108 0.218722,-0.38805 0.102306,-0.18698 0.179917,-0.36337 0.07761,-0.17991 0.112889,-0.35983 -0.02822,-0.0176 -0.06703,-0.0318 -0.03528,-0.0141 -0.137583,-0.0141 -0.05292,0 -0.09525,0.0282 -0.03881,0.0247 -0.06703,0.0635 -0.02822,0.0353 -0.04586,0.0776 -0.01411,0.0388 -0.01411,0.0635 0,0.0282 0.01058,0.067 0.01411,0.0353 0.02822,0.0706 0.01764,0.0353 0.03528,0.067 0.01764,0.0282 0.03175,0.0423 l -0.430389,0.26811 q -0.08467,-0.0811 -0.144639,-0.19756 -0.05644,-0.11994 -0.05644,-0.23989 0,-0.06 0.03175,-0.14816 0.03175,-0.0882 0.102306,-0.16934 0.07055,-0.0847 0.183444,-0.14111 0.116417,-0.06 0.282223,-0.06 0.130528,0 0.218722,0.0176 0.0882,0.0176 0.155223,0.0423 0.06703,0.0212 0.123472,0.0388 0.05997,0.0176 0.134055,0.0176 0.04586,0 0.09878,-0.007 0.05292,-0.007 0.09878,-0.0212 0.04586,-0.0141 0.08114,-0.0282 0.03881,-0.0176 0.05997,-0.0388 -0.04233,0.22225 -0.134055,0.46214 -0.09172,0.23988 -0.204612,0.47977 -0.109361,0.23989 -0.232833,0.4692 -0.119945,0.2293 -0.22225,0.43039 -0.09878,0.19755 -0.169334,0.35983 -0.06703,0.15875 -0.07408,0.26106 0.141111,0.06 0.239889,0.06 0.0635,0 0.130528,-0.0141 0.06703,-0.0176 0.119944,-0.0529 0.05645,-0.0353 0.09172,-0.0882 0.03528,-0.0565 0.03528,-0.13406 0,-0.0776 -0.01764,-0.127 -0.01411,-0.0529 -0.03881,-0.0847 -0.02469,-0.0353 -0.05644,-0.06 -0.03175,-0.0282 -0.05997,-0.0564 l 0.405695,-0.29986 q 0.141111,0.10583 0.201083,0.22577 0.05997,0.11995 0.05997,0.26106 0,0.067 -0.02117,0.13053 -0.01764,0.06 -0.04586,0.11289 -0.0247,0.0494 -0.05997,0.0917 -0.03175,0.0423 -0.05644,0.067 l 0.05997,0.06 q 0.01764,0.0176 0.03881,0.0529 0.02117,0.0317 0.02117,0.0564 0,0.0282 -0.0247,0.0811 -0.02117,0.0564 -0.08819,0.0988 -0.0247,-0.0318 -0.05644,-0.0565 -0.02822,-0.0212 -0.05997,-0.0388 -0.03175,-0.0176 -0.06703,-0.0176 z" />
      <path
         id="path15497"
         style="font-style:normal;font-variant:normal;font-weight:normal;font-stretch:normal;font-family:'Bradley Gratis';-inkscape-font-specification:'Bradley Gratis';text-align:start;text-anchor:start;stroke-width:0.264583"
         d="m 49.112429,147.38525 v 0.381 q -0.03881,-0.0353 -0.102306,-0.0776 -0.05997,-0.0423 -0.130528,-0.0741 -0.06703,-0.0353 -0.134056,-0.0564 -0.06703,-0.0247 -0.112889,-0.0247 -0.08467,0 -0.172861,0.067 -0.08819,0.067 -0.144639,0.17992 -0.05644,0.10936 -0.07408,0.28927 -0.01411,0.17639 -0.01411,0.45509 h 0.903111 l -0.179916,0.40216 q -0.03528,-0.0529 -0.08467,-0.0705 -0.04586,-0.0212 -0.08467,-0.0212 h -0.553861 q 0,0.20109 0.0071,0.39511 0.0071,0.1905 0.04586,0.3422 0.04233,0.15169 0.127001,0.24694 0.08467,0.0917 0.243416,0.0917 0.08467,0 0.165806,-0.0317 0.08467,-0.0317 0.155222,-0.0776 0.07056,-0.0494 0.123473,-0.1023 0.05644,-0.0529 0.08819,-0.0952 v 0.508 h -0.47625 q -0.342195,0 -0.553862,-0.11995 -0.211666,-0.12347 -0.331611,-0.32808 -0.116417,-0.20814 -0.15875,-0.47978 -0.03881,-0.27164 -0.03881,-0.56797 0,-0.0741 0.01058,-0.19403 0.01058,-0.12347 0.04586,-0.25753 0.03528,-0.13758 0.102305,-0.27516 0.06703,-0.14111 0.179917,-0.25048 0.116417,-0.11288 0.28575,-0.18344 0.169334,-0.0706 0.409223,-0.0706 z" />
      <path
         id="path15499"
         style="font-style:normal;font-variant:normal;font-weight:normal;font-stretch:normal;font-family:'Bradley Gratis';-inkscape-font-specification:'Bradley Gratis';text-align:start;text-anchor:start;stroke-width:0.264583"
         d="m 49.498831,150.11223 v -2.4377 q 0,-0.0988 -0.04233,-0.1658 -0.04233,-0.0706 -0.08467,-0.12348 h 0.68439 v 0.35984 L 50.447803,147.29 q 0.179917,0.16228 0.296334,0.32456 0.116417,0.15875 0.183444,0.32103 0.06703,0.15875 0.09172,0.32455 0.02469,0.16228 0.02469,0.33514 0,0.16934 -0.02822,0.32456 -0.02469,0.15169 -0.07408,0.29986 -0.04939,0.14817 -0.119945,0.29986 -0.06703,0.1517 -0.148167,0.3175 h 0.127 q 0.04586,0 0.09525,-0.0318 0.04939,-0.0317 0.09878,-0.0317 v 0.33867 H 50.31022 q 0.09525,-0.19403 0.151694,-0.34925 0.05997,-0.15522 0.09172,-0.29634 0.03175,-0.14111 0.04233,-0.27516 0.01058,-0.13406 0.01058,-0.28575 0,-0.1517 -0.05292,-0.31397 -0.04939,-0.16581 -0.123473,-0.30339 -0.07408,-0.13759 -0.15875,-0.22578 -0.08114,-0.0882 -0.148166,-0.0882 -0.04233,0 -0.06703,0.0212 v 2.11667 z" />
      <path
         id="path15501"
         style="font-style:normal;font-variant:normal;font-weight:normal;font-stretch:normal;font-family:'Bradley Gratis';-inkscape-font-specification:'Bradley Gratis';text-align:start;text-anchor:start;stroke-width:0.264583"
         d="m 52.737002,150.22865 q -0.1905,-0.13759 -0.324556,-0.29281 -0.134055,-0.15875 -0.215194,-0.32808 -0.08114,-0.16934 -0.119945,-0.3422 -0.03528,-0.17639 -0.03528,-0.34572 0,-0.16581 0.03528,-0.32808 0.03528,-0.16581 0.09172,-0.32456 0.05997,-0.16228 0.137584,-0.31397 0.07761,-0.15523 0.15875,-0.30339 h -0.02117 q -0.01058,0 -0.02469,0 -0.01058,-0.004 -0.02822,-0.004 -0.05645,0 -0.137584,0.0141 -0.07761,0.0141 -0.151694,0.0706 v -0.34573 h 0.740833 q -0.09172,0.15875 -0.15875,0.32103 -0.0635,0.15875 -0.105833,0.31045 -0.03881,0.14816 -0.05997,0.28222 -0.01764,0.13053 -0.01764,0.23636 0,0.10583 0.02117,0.254 0.02117,0.14817 0.07761,0.30692 0.05997,0.15522 0.15875,0.29633 0.102305,0.14111 0.264583,0.22931 l 0.105834,-0.0776 q -0.0635,-0.11995 -0.09878,-0.22931 -0.03528,-0.11289 -0.05292,-0.21167 -0.01411,-0.0988 -0.01764,-0.17991 -0.0035,-0.0847 -0.0035,-0.1517 0,-0.10936 0.02822,-0.24694 0.02822,-0.13759 0.08114,-0.28575 0.05292,-0.14817 0.127,-0.29986 0.07761,-0.1517 0.172861,-0.29634 -0.134056,0 -0.22225,0.0212 -0.08467,0.0212 -0.144639,0.06 v -0.33867 h 0.762 q -0.0635,0.0882 -0.127,0.20109 -0.05997,0.10936 -0.105833,0.23989 -0.04586,0.127 -0.07408,0.27164 -0.02822,0.14463 -0.02822,0.29633 0,0.25753 0.04586,0.45861 0.04586,0.19756 0.127,0.34925 0.08114,0.1517 0.1905,0.26106 0.109362,0.10936 0.232834,0.18697 v -2.26484 h 0.529167 v 2.1202 q 0,0.0247 -0.03528,0.0706 -0.03528,0.0423 -0.09172,0.0988 -0.05292,0.0565 -0.127,0.12348 -0.07056,0.0635 -0.144639,0.127 -0.176389,0.14816 -0.398639,0.32455 -0.172862,-0.13405 -0.296334,-0.26458 -0.123472,-0.13053 -0.211667,-0.254 z" />
      <path
         id="path15503"
         style="font-style:normal;font-variant:normal;font-weight:normal;font-stretch:normal;font-family:'Bradley Gratis';-inkscape-font-specification:'Bradley Gratis';text-align:start;text-anchor:start;stroke-width:0.264583"
         d="m 55.990275,148.41537 v -0.87842 h -0.416278 q -0.0035,0.23636 -0.01411,0.46919 -0.0071,0.22931 -0.01764,0.40923 z m 0.719667,-1.03012 q -0.0388,0.0282 -0.07408,0.0706 -0.03175,0.0423 -0.05645,0.0917 -0.02117,0.0459 -0.03528,0.0917 -0.01411,0.0423 -0.01411,0.0741 v 2.39889 h -0.53975 v -1.32997 h -0.472722 q -0.0035,0.127 -0.03528,0.27869 -0.03175,0.14817 -0.08819,0.29986 -0.05292,0.14817 -0.127,0.28928 -0.07055,0.13758 -0.162278,0.24342 -0.08819,0.10583 -0.1905,0.16933 -0.09878,0.0635 -0.208139,0.0635 -0.07055,0 -0.123472,-0.0423 -0.04939,-0.0423 -0.04939,-0.11995 0,-0.0494 0.03175,-0.0705 0.03175,-0.0247 0.06703,-0.0247 0.03175,0 0.04939,0.0106 0.01764,0.007 0.03175,0.0212 0.01764,0.0106 0.0388,0.0212 0.02117,0.007 0.05997,0.007 0.0635,0 0.102305,-0.0635 0.03881,-0.067 0.0635,-0.17639 0.0247,-0.11288 0.03528,-0.25752 0.01411,-0.14817 0.02117,-0.31045 0.0071,-0.16228 0.01764,-0.32808 0.01058,-0.16933 0.02822,-0.32456 0.02117,-0.18344 0.0635,-0.33514 0.04586,-0.15169 0.09525,-0.26811 0.04939,-0.11641 0.09878,-0.19755 0.04939,-0.0811 0.08467,-0.13053 h -0.07761 q -0.06703,0 -0.123472,0.0212 -0.05644,0.0176 -0.102306,0.0423 -0.04233,0.0212 -0.07761,0.0423 -0.03175,0.0176 -0.05644,0.0176 -0.05997,0 -0.0882,-0.0423 -0.02822,-0.0423 -0.02822,-0.0952 0,-0.0494 0.05292,-0.0917 0.05644,-0.0459 0.155222,-0.0459 z" />
      <path
         id="path15505"
         style="font-style:normal;font-variant:normal;font-weight:normal;font-stretch:normal;font-family:'Bradley Gratis';-inkscape-font-specification:'Bradley Gratis';text-align:start;text-anchor:start;stroke-width:0.264583"
         d="m 57.488923,150.2357 q -0.08114,-0.0811 -0.186973,-0.15875 -0.102305,-0.0776 -0.201083,-0.13758 -0.09525,-0.06 -0.169334,-0.10231 -0.07055,-0.0423 -0.08114,-0.0529 0.03528,-0.0423 0.08819,-0.11641 0.05292,-0.0776 0.102306,-0.1517 0.05292,-0.0741 0.09172,-0.13052 0.04233,-0.06 0.05292,-0.0706 0.04939,0.0317 0.134055,0.0882 0.08819,0.0529 0.172861,0.11289 0.08819,0.06 0.15875,0.10936 0.07056,0.0494 0.09172,0.0706 0.04939,-0.0282 0.08114,-0.0741 0.03528,-0.0459 0.03528,-0.14817 0,-0.0882 -0.07408,-0.18697 -0.07055,-0.0988 -0.176389,-0.20814 -0.105833,-0.10936 -0.232833,-0.22931 -0.127,-0.11994 -0.232834,-0.24694 -0.105833,-0.127 -0.179917,-0.25753 -0.07055,-0.13053 -0.07055,-0.26811 0,-0.0988 0.04939,-0.18345 0.05292,-0.0882 0.130528,-0.16227 0.07761,-0.0776 0.169333,-0.13759 0.09525,-0.0635 0.179917,-0.11641 0.08819,-0.0564 0.155222,-0.0988 0.06703,-0.0459 0.09525,-0.0811 0.02117,0.0176 0.09172,0.0882 0.07408,0.067 0.158751,0.14464 0.08467,0.0776 0.15875,0.13759 0.07761,0.06 0.102305,0.06 -0.03528,0.0282 -0.08819,0.0847 -0.04939,0.0529 -0.102306,0.11288 -0.04939,0.06 -0.09172,0.11642 -0.03881,0.0529 -0.05645,0.0811 -0.08114,-0.0353 -0.162277,-0.10583 -0.08114,-0.0706 -0.148167,-0.13759 -0.06703,-0.067 -0.112889,-0.11641 -0.04586,-0.0529 -0.05997,-0.0529 -0.02822,0 -0.04939,0.0317 -0.01764,0.0282 -0.01764,0.067 0,0.0847 0.07408,0.17991 0.07761,0.0953 0.186972,0.20462 0.112889,0.10583 0.243417,0.22577 0.134056,0.11642 0.243417,0.24342 0.112889,0.127 0.186972,0.26458 0.07761,0.13406 0.07761,0.27517 0,0.127 -0.09525,0.26811 -0.09525,0.14111 -0.229306,0.28222 -0.130528,0.13759 -0.268111,0.26459 -0.137584,0.12347 -0.225778,0.21872 z" />
      <path
         id="path15507"
         style="font-style:normal;font-variant:normal;font-weight:normal;font-stretch:normal;font-family:'Bradley Gratis';-inkscape-font-specification:'Bradley Gratis';text-align:start;text-anchor:start;stroke-width:0.264583"
         d="m 59.973913,149.63598 q 0,0.13758 -0.05644,0.23989 -0.05644,0.0988 -0.148167,0.16228 -0.0882,0.0635 -0.197556,0.0952 -0.109361,0.0318 -0.215195,0.0318 -0.165805,0 -0.324555,-0.0811 -0.15875,-0.0811 -0.28575,-0.21873 -0.127001,-0.14111 -0.204612,-0.32808 -0.07761,-0.1905 -0.07761,-0.40922 0,-0.39159 0.179917,-0.72672 0.179917,-0.33867 0.500945,-0.61384 -0.02822,-0.004 -0.05292,-0.004 -0.02117,-0.004 -0.04586,-0.004 -0.08467,0 -0.179917,0.0282 -0.09525,0.0282 -0.179917,0.0741 -0.08467,0.0423 -0.155222,0.0953 -0.06703,0.0529 -0.102306,0.0988 0.02822,-0.13758 0.105834,-0.27164 0.07761,-0.13406 0.194028,-0.23636 0.116416,-0.10231 0.268111,-0.16581 0.151694,-0.0635 0.331611,-0.0635 0.09172,0 0.194028,0.0282 0.102306,0.0282 0.194028,0.0741 0.09525,0.0423 0.169333,0.0952 0.07408,0.0529 0.112889,0.1023 l -0.289278,0.44098 q -0.176389,-0.17286 -0.381,-0.24695 -0.04586,0.0741 -0.09525,0.17639 -0.04939,0.0988 -0.09172,0.22578 -0.03881,0.127 -0.06703,0.28222 -0.02469,0.1517 -0.02469,0.33161 0,0.16934 0.02469,0.29986 0.02822,0.13053 0.07056,0.22578 0.04233,0.0952 0.09525,0.15875 0.05644,0.0635 0.112889,0.10584 0.134055,0.0952 0.306917,0.10583 0.07055,0 0.162277,-0.0282 0.09525,-0.0317 0.151695,-0.0811 z" />
      <path
         id="path15509"
         style="font-style:normal;font-variant:normal;font-weight:normal;font-stretch:normal;font-family:'Bradley Gratis';-inkscape-font-specification:'Bradley Gratis';text-align:start;text-anchor:start;stroke-width:0.264583"
         d="m 61.742157,147.38525 v 0.381 q -0.0388,-0.0353 -0.102305,-0.0776 -0.05997,-0.0423 -0.130528,-0.0741 -0.06703,-0.0353 -0.134056,-0.0564 -0.06703,-0.0247 -0.112889,-0.0247 -0.08467,0 -0.172861,0.067 -0.08819,0.067 -0.144639,0.17992 -0.05644,0.10936 -0.07408,0.28927 -0.01411,0.17639 -0.01411,0.45509 h 0.903111 l -0.179917,0.40216 q -0.03528,-0.0529 -0.08467,-0.0705 -0.04586,-0.0212 -0.08467,-0.0212 h -0.553861 q 0,0.20109 0.0071,0.39511 0.0071,0.1905 0.04586,0.3422 0.04233,0.15169 0.127,0.24694 0.08467,0.0917 0.243417,0.0917 0.08467,0 0.165806,-0.0317 0.08467,-0.0317 0.155222,-0.0776 0.07056,-0.0494 0.123472,-0.1023 0.05644,-0.0529 0.08819,-0.0952 v 0.508 h -0.47625 q -0.342195,0 -0.553862,-0.11995 -0.211667,-0.12347 -0.331611,-0.32808 -0.116417,-0.20814 -0.15875,-0.47978 -0.03881,-0.27164 -0.03881,-0.56797 0,-0.0741 0.01058,-0.19403 0.01058,-0.12347 0.04586,-0.25753 0.03528,-0.13758 0.102305,-0.27516 0.06703,-0.14111 0.179917,-0.25048 0.116417,-0.11288 0.28575,-0.18344 0.169334,-0.0706 0.409223,-0.0706 z" />
      <path
         id="path15511"
         style="font-style:normal;font-variant:normal;font-weight:normal;font-stretch:normal;font-family:'Bradley Gratis';-inkscape-font-specification:'Bradley Gratis';text-align:start;text-anchor:start;stroke-width:0.264583"
         d="m 63.021086,148.08023 q -0.08819,-0.21167 -0.151694,-0.35278 -0.0635,-0.14111 -0.09878,-0.14111 -0.03881,0 -0.05292,0.0353 -0.01058,0.0317 -0.01058,0.0564 v 1.91206 q 0,0.0776 -0.04233,0.16227 -0.04233,0.0847 -0.112888,0.14817 0.130527,0 0.232833,-0.0635 0.102306,-0.067 0.211667,-0.14464 0.112889,-0.0811 0.250472,-0.14464 0.137584,-0.067 0.342195,-0.067 v 0.63147 h -1.594557 q 0.04586,-0.067 0.07761,-0.127 0.03528,-0.06 0.05644,-0.11995 0.02117,-0.06 0.03175,-0.127 0.01058,-0.067 0.01058,-0.14816 v -1.66864 q 0,-0.11289 -0.04233,-0.18345 -0.04233,-0.0741 -0.05997,-0.1023 0.01411,-0.004 0.07055,-0.0247 0.05997,-0.0247 0.144639,-0.0564 0.08467,-0.0317 0.186973,-0.067 0.102305,-0.0353 0.201083,-0.0635 0.09878,-0.0317 0.186972,-0.0494 0.08819,-0.0212 0.144639,-0.0212 0.08819,0 0.165806,0.0494 0.07761,0.0494 0.141111,0.12348 0.0635,0.0741 0.109361,0.1658 0.04586,0.0882 0.07408,0.16581 z" />
      <path
         id="path15513"
         style="font-style:normal;font-variant:normal;font-weight:normal;font-stretch:normal;font-family:'Bradley Gratis';-inkscape-font-specification:'Bradley Gratis';text-align:start;text-anchor:start;stroke-width:0.264583"
         d="m 65.201256,148.41537 v -0.87842 h -0.416279 q -0.0035,0.23636 -0.01411,0.46919 -0.0071,0.22931 -0.01764,0.40923 z m 0.719667,-1.03012 q -0.03881,0.0282 -0.07408,0.0706 -0.03175,0.0423 -0.05644,0.0917 -0.02117,0.0459 -0.03528,0.0917 -0.01411,0.0423 -0.01411,0.0741 v 2.39889 h -0.53975 v -1.32997 h -0.472723 q -0.0035,0.127 -0.03528,0.27869 -0.03175,0.14817 -0.08819,0.29986 -0.05292,0.14817 -0.127,0.28928 -0.07056,0.13758 -0.162278,0.24342 -0.08819,0.10583 -0.1905,0.16933 -0.09878,0.0635 -0.208139,0.0635 -0.07056,0 -0.123473,-0.0423 -0.04939,-0.0423 -0.04939,-0.11995 0,-0.0494 0.03175,-0.0705 0.03175,-0.0247 0.06703,-0.0247 0.03175,0 0.04939,0.0106 0.01764,0.007 0.03175,0.0212 0.01764,0.0106 0.03881,0.0212 0.02117,0.007 0.05997,0.007 0.0635,0 0.102306,-0.0635 0.03881,-0.067 0.0635,-0.17639 0.02469,-0.11288 0.03528,-0.25752 0.01411,-0.14817 0.02117,-0.31045 0.0071,-0.16228 0.01764,-0.32808 0.01058,-0.16933 0.02822,-0.32456 0.02117,-0.18344 0.0635,-0.33514 0.04586,-0.15169 0.09525,-0.26811 0.04939,-0.11641 0.09878,-0.19755 0.04939,-0.0811 0.08467,-0.13053 h -0.07761 q -0.06703,0 -0.123473,0.0212 -0.05644,0.0176 -0.102305,0.0423 -0.04233,0.0212 -0.07761,0.0423 -0.03175,0.0176 -0.05645,0.0176 -0.05997,0 -0.08819,-0.0423 -0.02822,-0.0423 -0.02822,-0.0952 0,-0.0494 0.05292,-0.0917 0.05644,-0.0459 0.155222,-0.0459 z" />
      <path
         id="path15515"
         style="font-style:normal;font-variant:normal;font-weight:normal;font-stretch:normal;font-family:'Bradley Gratis';-inkscape-font-specification:'Bradley Gratis';text-align:start;text-anchor:start;stroke-width:0.264583"
         d="m 66.221335,150.11223 v -2.4377 q 0,-0.0988 -0.04233,-0.1658 -0.04233,-0.0706 -0.08467,-0.12348 h 0.684389 v 0.35984 L 67.170308,147.29 q 0.179917,0.16228 0.296334,0.32456 0.116416,0.15875 0.183444,0.32103 0.06703,0.15875 0.09172,0.32455 0.02469,0.16228 0.02469,0.33514 0,0.16934 -0.02822,0.32456 -0.02469,0.15169 -0.07408,0.29986 -0.04939,0.14817 -0.119944,0.29986 -0.06703,0.1517 -0.148167,0.3175 h 0.127 q 0.04586,0 0.09525,-0.0318 0.04939,-0.0317 0.09878,-0.0317 v 0.33867 h -0.684389 q 0.09525,-0.19403 0.151694,-0.34925 0.05997,-0.15522 0.09172,-0.29634 0.03175,-0.14111 0.04233,-0.27516 0.01058,-0.13406 0.01058,-0.28575 0,-0.1517 -0.05292,-0.31397 -0.04939,-0.16581 -0.123472,-0.30339 -0.07408,-0.13759 -0.15875,-0.22578 -0.08114,-0.0882 -0.148167,-0.0882 -0.04233,0 -0.06703,0.0212 v 2.11667 z" />
      <path
         id="path15517"
         style="font-style:normal;font-variant:normal;font-weight:normal;font-stretch:normal;font-family:'Bradley Gratis';-inkscape-font-specification:'Bradley Gratis';text-align:start;text-anchor:start;stroke-width:0.264583"
         d="m 68.110241,147.6322 q -0.09172,-0.0388 -0.127,-0.0953 -0.03528,-0.0564 -0.03528,-0.10583 0,-0.0423 0.02822,-0.0529 0.02822,0.0176 0.07761,0.0247 0.04939,0.007 0.112889,0.007 0.03175,0 0.08819,-0.0106 0.05997,-0.0106 0.130528,-0.0212 0.07056,-0.0106 0.144639,-0.0212 0.07761,-0.0106 0.144639,-0.0106 0.162278,0 0.331612,0.0847 0.169333,0.0811 0.303389,0.254 0.134055,0.16933 0.218722,0.43391 0.08819,0.26106 0.08819,0.62442 0,0.30692 -0.05292,0.52917 -0.05292,0.22225 -0.134056,0.37747 -0.08114,0.15522 -0.179917,0.25047 -0.09878,0.0917 -0.194028,0.14464 -0.09172,0.0494 -0.169333,0.067 -0.07408,0.0176 -0.109361,0.0176 -0.05292,0 -0.112889,-0.0141 -0.05997,-0.0141 -0.119945,-0.0317 -0.05644,-0.0176 -0.109361,-0.0318 -0.04939,-0.0141 -0.08467,-0.0141 -0.0388,0 -0.07055,0.0141 -0.03175,0.0106 -0.06703,0.0247 -0.03175,0.0106 -0.07056,0.0247 -0.03881,0.0106 -0.08819,0.0106 -0.01764,0 -0.03881,-0.004 -0.01764,-0.004 -0.03528,-0.0106 -0.01764,-0.007 -0.03528,-0.0176 0.02822,-0.0176 0.05644,-0.06 0.02822,-0.0459 0.05292,-0.0952 0.02822,-0.0529 0.05644,-0.11642 z m 0.518584,2.10256 q 0,0.0741 0.02469,0.11641 0.02822,0.0388 0.05997,0.0565 0.0388,0.0212 0.08467,0.0247 0.08114,0 0.141111,-0.10936 0.0635,-0.10936 0.0635,-0.27869 v -1.5487 q 0,-0.16581 -0.03175,-0.25753 -0.03175,-0.0917 -0.07408,-0.13405 -0.04233,-0.0423 -0.08467,-0.0494 -0.04233,-0.0106 -0.06703,-0.0106 -0.04233,0 -0.08114,0.0564 -0.03528,0.0564 -0.03528,0.14817 z" />
    </g>
    <g
       style="font-style:normal;font-variant:normal;font-weight:bold;font-stretch:normal;font-size:3.52778px;line-height:1.25;font-family:Homenaje;-inkscape-font-specification:'Homenaje Bold';text-align:center;letter-spacing:0px;word-spacing:0px;text-anchor:middle;fill:#ffffff;fill-opacity:1;stroke:none;stroke-width:0.264583"
       id="text136-6"
       aria-label="MODULATOR">
      <path
         id="path15470"
         style="font-style:normal;font-variant:normal;font-weight:bold;font-stretch:normal;font-size:2.82222px;font-family:Homenaje;-inkscape-font-specification:'Homenaje Bold';stroke-width:0.264583"
         d="m 49.02629,56.98101 h -0.248355 v -1.975554 h 0.375355 l 0.378178,1.168399 h 0.01976 l 0.386644,-1.168399 h 0.361245 v 1.975554 h -0.248356 v -1.679221 l -0.378177,1.154289 H 49.404468 L 49.02629,55.298967 Z" />
      <path
         id="path15472"
         style="font-style:normal;font-variant:normal;font-weight:bold;font-stretch:normal;font-size:2.82222px;font-family:Homenaje;-inkscape-font-specification:'Homenaje Bold';stroke-width:0.264583"
         d="m 51.676531,56.492766 q 0,0.239889 -0.138288,0.375356 -0.138289,0.132644 -0.403578,0.132644 -0.262466,0 -0.400755,-0.132644 -0.138289,-0.135467 -0.138289,-0.375356 V 55.4937 q 0,-0.239888 0.138289,-0.372533 0.138289,-0.135466 0.400755,-0.135466 0.265289,0 0.403578,0.135466 0.138288,0.132645 0.138288,0.372533 z m -0.832555,0.04798 q 0,0.129822 0.08185,0.2032 0.08467,0.07055 0.208844,0.07055 0.124178,0 0.208844,-0.07055 0.08467,-0.07338 0.08467,-0.2032 v -1.095021 q 0,-0.129822 -0.08467,-0.200378 -0.08467,-0.07338 -0.208844,-0.07338 -0.124178,0 -0.208844,0.07338 -0.08185,0.07056 -0.08185,0.200378 z" />
      <path
         id="path15474"
         style="font-style:normal;font-variant:normal;font-weight:bold;font-stretch:normal;font-size:2.82222px;font-family:Homenaje;-inkscape-font-specification:'Homenaje Bold';stroke-width:0.264583"
         d="m 52.251559,56.789099 h 0.239888 q 0.129823,0 0.208845,-0.07338 0.08184,-0.0762 0.08184,-0.200378 v -1.044221 q 0,-0.124178 -0.08184,-0.197556 -0.07902,-0.0762 -0.208845,-0.0762 h -0.239888 z m -0.251178,0.191911 v -1.975554 h 0.491066 q 0.256823,0 0.397934,0.129823 0.141111,0.129822 0.141111,0.380999 v 0.953911 q 0,0.251177 -0.141111,0.380999 -0.141111,0.127 -0.397934,0.129822 z" />
      <path
         id="path15476"
         style="font-style:normal;font-variant:normal;font-weight:bold;font-stretch:normal;font-size:2.82222px;font-family:Homenaje;-inkscape-font-specification:'Homenaje Bold';stroke-width:0.264583"
         d="m 53.274525,55.005456 h 0.248356 v 1.535288 q 0,0.135467 0.06491,0.206022 0.06773,0.06773 0.186266,0.06773 0.118534,0 0.186267,-0.06773 0.06773,-0.07055 0.06773,-0.206022 v -1.535288 h 0.248355 v 1.48731 q 0,0.508 -0.502355,0.508 -0.499533,0 -0.499533,-0.508 z" />
      <path
         id="path15478"
         style="font-style:normal;font-variant:normal;font-weight:bold;font-stretch:normal;font-size:2.82222px;font-family:Homenaje;-inkscape-font-specification:'Homenaje Bold';stroke-width:0.264583"
         d="m 54.604938,56.98101 v -1.975554 h 0.248355 v 1.789288 h 0.578555 v 0.186266 z" />
      <path
         id="path15480"
         style="font-style:normal;font-variant:normal;font-weight:bold;font-stretch:normal;font-size:2.82222px;font-family:Homenaje;-inkscape-font-specification:'Homenaje Bold';stroke-width:0.264583"
         d="m 55.970627,55.005456 h 0.375355 l 0.428978,1.975554 h -0.231422 l -0.138289,-0.581377 h -0.513644 l -0.127,0.581377 h -0.239889 z m 0.392289,1.202266 -0.2032,-1.015999 h -0.01976 l -0.206022,1.015999 z" />
      <path
         id="path15482"
         style="font-style:normal;font-variant:normal;font-weight:bold;font-stretch:normal;font-size:2.82222px;font-family:Homenaje;-inkscape-font-specification:'Homenaje Bold';stroke-width:0.264583"
         d="m 57.154549,56.98101 v -1.789287 h -0.395111 v -0.186267 h 1.038577 v 0.186267 h -0.395111 v 1.789287 z" />
      <path
         id="path15484"
         style="font-style:normal;font-variant:normal;font-weight:bold;font-stretch:normal;font-size:2.82222px;font-family:Homenaje;-inkscape-font-specification:'Homenaje Bold';stroke-width:0.264583"
         d="m 59.057298,56.492766 q 0,0.239889 -0.138289,0.375356 -0.138289,0.132644 -0.403577,0.132644 -0.262467,0 -0.400756,-0.132644 -0.138288,-0.135467 -0.138288,-0.375356 V 55.4937 q 0,-0.239888 0.138288,-0.372533 0.138289,-0.135466 0.400756,-0.135466 0.265288,0 0.403577,0.135466 0.138289,0.132645 0.138289,0.372533 z m -0.832555,0.04798 q 0,0.129822 0.08184,0.2032 0.08467,0.07055 0.208845,0.07055 0.124177,0 0.208844,-0.07055 0.08467,-0.07338 0.08467,-0.2032 v -1.095021 q 0,-0.129822 -0.08467,-0.200378 -0.08467,-0.07338 -0.208844,-0.07338 -0.124178,0 -0.208845,0.07338 -0.08184,0.07056 -0.08184,0.200378 z" />
      <path
         id="path15486"
         style="font-style:normal;font-variant:normal;font-weight:bold;font-stretch:normal;font-size:2.82222px;font-family:Homenaje;-inkscape-font-specification:'Homenaje Bold';stroke-width:0.264583"
         d="m 59.632326,55.191723 v 0.736599 h 0.200377 q 0.160867,0 0.248356,-0.110066 0.09031,-0.112889 0.09031,-0.287867 0,-0.338666 -0.338667,-0.338666 z m -0.0056,0.922866 V 56.98101 H 59.38397 v -1.975554 h 0.522111 q 0.508,0 0.508,0.524933 0,0.197556 -0.0762,0.344311 -0.0762,0.146756 -0.217311,0.2032 l 0.392288,0.90311 h -0.242711 l -0.383822,-0.866421 z" />
    </g>
    <path
       inkscape:connector-curvature="0"
       id="path4785-2"
       d="m 37.792257,63.139975 v 29.13452"
       style="clip-rule:nonzero;fill:none;stroke:#ffffff;stroke-width:0.26458332;stroke-linecap:butt;stroke-linejoin:miter;stroke-miterlimit:10;stroke-dasharray:none;stroke-opacity:0.25098039" />
    <path
       d="m 63.721313,137.17233 h 6.614583 v 8.09416 h -6.614583 z"
       style="opacity:0.981;fill:#141061;fill-opacity:1;stroke:#000000;stroke-width:0;stroke-miterlimit:4;stroke-dasharray:none;stroke-opacity:1"
       id="rect22843" />
    <g
       style="font-style:normal;font-variant:normal;font-weight:bold;font-stretch:normal;font-size:3.52778px;line-height:1.25;font-family:Homenaje;-inkscape-font-specification:'Homenaje Bold';text-align:center;letter-spacing:0px;word-spacing:0px;text-anchor:middle;fill:#ffffff;fill-opacity:1;stroke:none;stroke-width:0.264583"
       id="text299-8"
       aria-label="OUT">
      <path
         id="path15462"
         style="font-style:normal;font-variant:normal;font-weight:bold;font-stretch:normal;font-size:2.82222px;font-family:Homenaje;-inkscape-font-specification:'Homenaje Bold';stroke-width:0.264583"
         d="m 66.389721,139.20858 q 0,0.23989 -0.138288,0.37535 -0.138289,0.13265 -0.403578,0.13265 -0.262466,0 -0.400755,-0.13265 -0.138289,-0.13546 -0.138289,-0.37535 v -0.99907 q 0,-0.23989 0.138289,-0.37253 0.138289,-0.13547 0.400755,-0.13547 0.265289,0 0.403578,0.13547 0.138288,0.13264 0.138288,0.37253 z m -0.832555,0.048 q 0,0.12982 0.08185,0.2032 0.08467,0.0705 0.208844,0.0705 0.124178,0 0.208844,-0.0705 0.08467,-0.0734 0.08467,-0.2032 v -1.09502 q 0,-0.12983 -0.08467,-0.20038 -0.08467,-0.0734 -0.208844,-0.0734 -0.124178,0 -0.208844,0.0734 -0.08185,0.0705 -0.08185,0.20038 z" />
      <path
         id="path15464"
         style="font-style:normal;font-variant:normal;font-weight:bold;font-stretch:normal;font-size:2.82222px;font-family:Homenaje;-inkscape-font-specification:'Homenaje Bold';stroke-width:0.264583"
         d="m 66.631727,137.72127 h 0.248355 v 1.53529 q 0,0.13546 0.06491,0.20602 0.06773,0.0677 0.186267,0.0677 0.118533,0 0.186266,-0.0677 0.06773,-0.0706 0.06773,-0.20602 v -1.53529 h 0.248355 v 1.48731 q 0,0.508 -0.502355,0.508 -0.499533,0 -0.499533,-0.508 z" />
      <path
         id="path15466"
         style="font-style:normal;font-variant:normal;font-weight:bold;font-stretch:normal;font-size:2.82222px;font-family:Homenaje;-inkscape-font-specification:'Homenaje Bold';stroke-width:0.264583"
         d="m 68.207672,139.69682 v -1.78928 h -0.395111 v -0.18627 h 1.038577 v 0.18627 h -0.395111 v 1.78928 z" />
    </g>
    <g
       style="font-style:normal;font-variant:normal;font-weight:bold;font-stretch:normal;font-size:3.52778px;line-height:1.25;font-family:Homenaje;-inkscape-font-specification:'Homenaje Bold';text-align:center;letter-spacing:0px;word-spacing:0px;text-anchor:middle;fill:#ffffff;fill-opacity:1;stroke:none;stroke-width:0.264583"
       id="text299-8-7"
       aria-label="INPUTS">
      <path
         id="path15449"
         style="font-style:normal;font-variant:normal;font-weight:bold;font-stretch:normal;font-size:2.82222px;font-family:Homenaje;-inkscape-font-specification:'Homenaje Bold';stroke-width:0.264583"
         d="m 40.437977,139.67706 v -1.97555 h 0.248356 v 1.97555 z" />
      <path
         id="path15451"
         style="font-style:normal;font-variant:normal;font-weight:bold;font-stretch:normal;font-size:2.82222px;font-family:Homenaje;-inkscape-font-specification:'Homenaje Bold';stroke-width:0.264583"
         d="m 42.202923,139.67706 h -0.3556 l -0.52211,-1.79493 v 1.79493 h -0.248356 v -1.97555 h 0.414867 l 0.460022,1.70744 v -1.70744 h 0.251177 z" />
      <path
         id="path15453"
         style="font-style:normal;font-variant:normal;font-weight:bold;font-stretch:normal;font-size:2.82222px;font-family:Homenaje;-inkscape-font-specification:'Homenaje Bold';stroke-width:0.264583"
         d="m 42.841583,137.88778 v 0.73377 h 0.180622 q 0.160866,0 0.248355,-0.11006 0.09031,-0.11007 0.09031,-0.28505 0,-0.33866 -0.338666,-0.33866 z m 0.767644,0.33866 q 0,0.27376 -0.149578,0.42898 -0.146756,0.1524 -0.420511,0.1524 h -0.197555 v 0.86924 h -0.248356 v -1.97555 h 0.499533 q 0.516467,0 0.516467,0.52493 z" />
      <path
         id="path15455"
         style="font-style:normal;font-variant:normal;font-weight:bold;font-stretch:normal;font-size:2.82222px;font-family:Homenaje;-inkscape-font-specification:'Homenaje Bold';stroke-width:0.264583"
         d="m 43.787379,137.70151 h 0.248356 v 1.53529 q 0,0.13546 0.06491,0.20602 0.06773,0.0677 0.186266,0.0677 0.118534,0 0.186267,-0.0677 0.06773,-0.0706 0.06773,-0.20602 v -1.53529 h 0.248355 v 1.48731 q 0,0.508 -0.502355,0.508 -0.499533,0 -0.499533,-0.508 z" />
      <path
         id="path15457"
         style="font-style:normal;font-variant:normal;font-weight:bold;font-stretch:normal;font-size:2.82222px;font-family:Homenaje;-inkscape-font-specification:'Homenaje Bold';stroke-width:0.264583"
         d="m 45.363325,139.67706 v -1.78928 h -0.395111 v -0.18627 h 1.038577 v 0.18627 H 45.61168 v 1.78928 z" />
      <path
         id="path15459"
         style="font-style:normal;font-variant:normal;font-weight:bold;font-stretch:normal;font-size:2.82222px;font-family:Homenaje;-inkscape-font-specification:'Homenaje Bold';stroke-width:0.264583"
         d="m 46.543586,139.4908 q 0.160867,0 0.231422,-0.096 0.07338,-0.0959 0.07338,-0.22295 0,-0.127 -0.04798,-0.21449 -0.04515,-0.0903 -0.115711,-0.14111 -0.07055,-0.0536 -0.1524,-0.11572 -0.08184,-0.0621 -0.1524,-0.11853 -0.07055,-0.0593 -0.118533,-0.15804 -0.04516,-0.0988 -0.04516,-0.22578 0,-0.22578 0.135467,-0.36124 0.135467,-0.13547 0.375355,-0.13547 h 0.2286 v 0.18627 h -0.217311 q -0.135466,0 -0.206022,0.0875 -0.07055,0.0875 -0.07055,0.18909 0,0.1016 0.04516,0.17498 0.04798,0.0734 0.118533,0.12136 0.07056,0.048 0.1524,0.11288 0.08467,0.0649 0.155222,0.13265 0.07056,0.0649 0.115711,0.1778 0.04798,0.11289 0.04798,0.25682 0,0.26529 -0.1524,0.40076 -0.149577,0.13546 -0.412044,0.13546 h -0.296333 v -0.18626 z" />
    </g>
    <g
       style="font-style:normal;font-variant:normal;font-weight:bold;font-stretch:normal;font-size:3.52777px;line-height:1.25;font-family:Homenaje;-inkscape-font-specification:'Homenaje Bold';text-align:center;letter-spacing:0px;word-spacing:0px;text-anchor:middle;fill:#ffffff;fill-opacity:1;stroke:none;stroke-width:0.264583"
       id="text299-8-8"
       aria-label="MIX">
      <path
         id="path15442"
         style="font-style:normal;font-variant:normal;font-weight:bold;font-stretch:normal;font-size:2.82223px;font-family:Homenaje;-inkscape-font-specification:'Homenaje Bold';stroke-width:0.264583"
         d="m 61.853002,119.5732 h -0.248356 v -1.97556 h 0.375356 l 0.378179,1.1684 h 0.01976 l 0.386645,-1.1684 h 0.361246 v 1.97556 h -0.248357 v -1.67923 l -0.378178,1.15429 h -0.268112 l -0.378179,-1.15711 z" />
      <path
         id="path15444"
         style="font-style:normal;font-variant:normal;font-weight:bold;font-stretch:normal;font-size:2.82223px;font-family:Homenaje;-inkscape-font-specification:'Homenaje Bold';stroke-width:0.264583"
         d="m 63.507005,119.5732 v -1.97556 h 0.248356 v 1.97556 z" />
      <path
         id="path15446"
         style="font-style:normal;font-variant:normal;font-weight:bold;font-stretch:normal;font-size:2.82223px;font-family:Homenaje;-inkscape-font-specification:'Homenaje Bold';stroke-width:0.264583"
         d="m 64.634133,118.78297 -0.338667,0.79023 h -0.248357 l 0.445913,-1.03858 -0.389468,-0.93698 h 0.248356 l 0.282223,0.68015 0.287868,-0.68015 h 0.248356 l -0.409223,0.93698 0.457201,1.03858 h -0.251179 z" />
    </g>
    <g
       style="font-style:normal;font-variant:normal;font-weight:bold;font-stretch:normal;font-size:3.52777px;line-height:1.25;font-family:Homenaje;-inkscape-font-specification:'Homenaje Bold';text-align:center;letter-spacing:0px;word-spacing:0px;text-anchor:middle;fill:#ffffff;fill-opacity:1;stroke:none;stroke-width:0.264583"
       id="text299-8-8-5"
       aria-label="GAIN MAKEUP">
      <path
         id="path15421"
         style="font-style:normal;font-variant:normal;font-weight:bold;font-stretch:normal;font-size:2.82223px;font-family:Homenaje;-inkscape-font-specification:'Homenaje Bold';stroke-width:0.264583"
         d="m 39.06204,119.507 h -0.499535 q -0.256823,0 -0.397935,-0.12982 -0.141111,-0.12982 -0.141111,-0.381 v -0.95674 q 0,-0.24835 0.1524,-0.37817 0.152401,-0.12983 0.414868,-0.12983 h 0.414868 v 0.18909 h -0.44309 q -0.129823,0 -0.211667,0.0762 -0.07902,0.0734 -0.07902,0.19756 v 1.05269 q 0,0.127 0.0762,0.20038 0.0762,0.0734 0.203201,0.0734 h 0.262467 v -0.77612 h -0.254 v -0.18626 h 0.502357 z" />
      <path
         id="path15423"
         style="font-style:normal;font-variant:normal;font-weight:bold;font-stretch:normal;font-size:2.82223px;font-family:Homenaje;-inkscape-font-specification:'Homenaje Bold';stroke-width:0.264583"
         d="m 39.705332,117.53144 h 0.375356 l 0.428979,1.97556 h -0.231423 l -0.138289,-0.58138 h -0.513646 l -0.127,0.58138 h -0.23989 z m 0.39229,1.20227 -0.203201,-1.016 h -0.01976 l -0.206023,1.016 z" />
      <path
         id="path15425"
         style="font-style:normal;font-variant:normal;font-weight:bold;font-stretch:normal;font-size:2.82223px;font-family:Homenaje;-inkscape-font-specification:'Homenaje Bold';stroke-width:0.264583"
         d="m 40.770503,119.507 v -1.97556 h 0.248356 v 1.97556 z" />
      <path
         id="path15427"
         style="font-style:normal;font-variant:normal;font-weight:bold;font-stretch:normal;font-size:2.82223px;font-family:Homenaje;-inkscape-font-specification:'Homenaje Bold';stroke-width:0.264583"
         d="m 42.535455,119.507 h -0.355601 l -0.522112,-1.79493 v 1.79493 h -0.248357 v -1.97556 h 0.414868 l 0.460024,1.70745 v -1.70745 h 0.251178 z" />
      <path
         id="path15429"
         style="font-style:normal;font-variant:normal;font-weight:bold;font-stretch:normal;font-size:2.82223px;font-family:Homenaje;-inkscape-font-specification:'Homenaje Bold';stroke-width:0.264583"
         d="m 43.570332,119.507 h -0.248356 v -1.97556 h 0.375356 l 0.378179,1.16841 h 0.01976 l 0.386645,-1.16841 h 0.361246 v 1.97556 h -0.248357 v -1.67922 l -0.378178,1.15429 h -0.268112 l -0.378179,-1.15712 z" />
      <path
         id="path15431"
         style="font-style:normal;font-variant:normal;font-weight:bold;font-stretch:normal;font-size:2.82223px;font-family:Homenaje;-inkscape-font-specification:'Homenaje Bold';stroke-width:0.264583"
         d="m 45.520669,117.53144 h 0.375357 l 0.428979,1.97556 h -0.231423 l -0.13829,-0.58138 h -0.513645 l -0.127001,0.58138 h -0.239889 z m 0.39229,1.20227 -0.203201,-1.016 h -0.01976 l -0.206023,1.016 z" />
      <path
         id="path15433"
         style="font-style:normal;font-variant:normal;font-weight:bold;font-stretch:normal;font-size:2.82223px;font-family:Homenaje;-inkscape-font-specification:'Homenaje Bold';stroke-width:0.264583"
         d="m 46.82573,119.507 h -0.23989 v -1.97556 h 0.23989 v 0.86361 l 0.584202,-0.86361 h 0.245534 l -0.575735,0.88054 0.660401,1.09502 h -0.251178 l -0.553157,-0.92004 -0.110067,0.14111 z" />
      <path
         id="path15435"
         style="font-style:normal;font-variant:normal;font-weight:bold;font-stretch:normal;font-size:2.82223px;font-family:Homenaje;-inkscape-font-specification:'Homenaje Bold';stroke-width:0.264583"
         d="m 47.952858,119.507 v -1.97556 h 0.86078 v 0.19191 h -0.612424 v 0.63218 h 0.496713 v 0.19192 h -0.496713 v 0.76764 h 0.640647 v 0.19191 z" />
      <path
         id="path15437"
         style="font-style:normal;font-variant:normal;font-weight:bold;font-stretch:normal;font-size:2.82223px;font-family:Homenaje;-inkscape-font-specification:'Homenaje Bold';stroke-width:0.264583"
         d="m 49.075356,117.53144 h 0.248356 v 1.5353 q 0,0.13546 0.06491,0.20602 0.06773,0.0677 0.186267,0.0677 0.118533,0 0.186267,-0.0677 0.06773,-0.0706 0.06773,-0.20602 v -1.5353 h 0.248357 v 1.48732 q 0,0.508 -0.502357,0.508 -0.499535,0 -0.499535,-0.508 z" />
      <path
         id="path15439"
         style="font-style:normal;font-variant:normal;font-weight:bold;font-stretch:normal;font-size:2.82223px;font-family:Homenaje;-inkscape-font-specification:'Homenaje Bold';stroke-width:0.264583"
         d="m 50.65413,117.71771 v 0.73378 h 0.180622 q 0.160867,0 0.248357,-0.11007 0.09031,-0.11006 0.09031,-0.28504 0,-0.33867 -0.338668,-0.33867 z m 0.767646,0.33867 q 0,0.27375 -0.149578,0.42898 -0.146756,0.1524 -0.420512,0.1524 H 50.65413 v 0.86924 h -0.248357 v -1.97556 h 0.499535 q 0.516468,0 0.516468,0.52494 z" />
    </g>
  </g>
</svg>
