<?xml version="1.0" encoding="UTF-8" standalone="no"?>
<svg
   xmlns:dc="http://purl.org/dc/elements/1.1/"
   xmlns:cc="http://creativecommons.org/ns#"
   xmlns:rdf="http://www.w3.org/1999/02/22-rdf-syntax-ns#"
   xmlns:svg="http://www.w3.org/2000/svg"
   xmlns="http://www.w3.org/2000/svg"
   xmlns:xlink="http://www.w3.org/1999/xlink"
   xmlns:sodipodi="http://sodipodi.sourceforge.net/DTD/sodipodi-0.dtd"
   xmlns:inkscape="http://www.inkscape.org/namespaces/inkscape"
   sodipodi:docname="VoxInhumana.svg"
   inkscape:version="1.0 (4035a4fb49, 2020-05-01)"
   id="svg11003"
   version="1.1"
   viewBox="0 0 55.562501 100.54167"
   height="380"
   width="210">
  <defs
     id="defs10997">
    <linearGradient
       id="linearGradient4682"
       inkscape:collect="always">
      <stop
         id="stop3387"
         offset="0"
         style="stop-color:#0c1622;stop-opacity:1" />
      <stop
         id="stop3388"
         offset=".3"
         style="stop-color:#161625;stop-opacity:1" />
      <stop
         id="stop3389"
         offset="1"
         style="stop-color:#081f35;stop-opacity:1" />
    </linearGradient>
    <linearGradient
       gradientTransform="matrix(1.0802419,0,0,1,-2.8994053,-0.073319)"
       gradientUnits="userSpaceOnUse"
       y2="50.163956"
       x2="35.23983"
       y1="150.85843"
       x1="35.219627"
       id="linearGradient4684"
       xlink:href="#linearGradient4682"
       inkscape:collect="always" />
  </defs>
  <sodipodi:namedview
     inkscape:document-rotation="0"
     units="px"
     inkscape:window-maximized="1"
     inkscape:window-y="-6"
     inkscape:window-x="-6"
     inkscape:window-height="1058"
     inkscape:window-width="1920"
     fit-margin-bottom="0"
     fit-margin-right="0"
     fit-margin-left="0"
     fit-margin-top="0"
     showgrid="false"
     inkscape:current-layer="layer1"
     inkscape:document-units="px"
     inkscape:cy="203.41647"
     inkscape:cx="61.261957"
     inkscape:zoom="2"
     inkscape:pageshadow="2"
     inkscape:pageopacity="0.0"
     borderopacity="1.0"
     bordercolor="#666666"
     pagecolor="#ffffff"
     id="base" />
  <metadata
     id="metadata11000">
    <rdf:RDF>
      <cc:Work
         rdf:about="">
        <dc:format>image/svg+xml</dc:format>
        <dc:type
           rdf:resource="http://purl.org/dc/dcmitype/StillImage" />
        <dc:title></dc:title>
      </cc:Work>
    </rdf:RDF>
  </metadata>
  <g
     transform="translate(-35.146312,-50.389004)"
     id="layer1"
     inkscape:groupmode="layer"
     inkscape:label="Layer 1">
    <path
       inkscape:export-ydpi="150.22649"
       inkscape:export-xdpi="150.22649"
       inkscape:export-filename="/home/vortico/pics/tmp/LFOs.png"
       style="fill:url(#linearGradient4684);fill-opacity:1;fill-rule:nonzero;stroke:none;stroke-width:0.326949"
       d="m 35.146312,50.389004 h 55.5625 V 150.78511 h -55.5625 z m 0,0"
       id="path33493"
       inkscape:connector-curvature="0" />
    <g
       style="font-style:normal;font-weight:normal;font-size:3.52778px;line-height:1.25;font-family:sans-serif;letter-spacing:0px;word-spacing:0px;fill:#ffffff;fill-opacity:1;stroke:none;stroke-width:0.264583"
       id="text5097" />
    <g
       style="font-style:normal;font-variant:normal;font-weight:normal;font-stretch:normal;font-size:3.52778px;line-height:1.25;font-family:Quarca;-inkscape-font-specification:Quarca;text-align:center;letter-spacing:0px;word-spacing:0px;text-anchor:middle;fill:#dddddd;fill-opacity:1;stroke:none;stroke-width:0.264583"
       id="text136"
       aria-label="VOX INHUMANA">
      <path
         id="path15641"
         style="font-style:normal;font-variant:normal;font-weight:normal;font-stretch:normal;font-size:3.88056px;font-family:Quarca;-inkscape-font-specification:Quarca;fill:#dddddd;fill-opacity:1;stroke-width:0.264583"
         d="m 52.299817,54.283745 0.783873,-2.755198 h -0.236715 l -0.644172,2.332217 c -0.01164,0.05433 -0.02328,0.112536 -0.02716,0.162983 -0.0078,-0.05045 -0.01552,-0.108655 -0.03104,-0.162983 l -0.644173,-2.332217 h -0.236714 l 0.787754,2.755198 z" />
      <path
         id="path15643"
         style="font-style:normal;font-variant:normal;font-weight:normal;font-stretch:normal;font-size:3.88056px;font-family:Quarca;-inkscape-font-specification:Quarca;fill:#dddddd;fill-opacity:1;stroke-width:0.264583"
         d="m 53.42724,53.748228 c 0,0.357011 0.13582,0.535517 0.531637,0.535517 h 0.737306 c 0.395818,0 0.531637,-0.178506 0.531637,-0.535517 v -1.684163 c 0,-0.357012 -0.135819,-0.535518 -0.531637,-0.535518 h -0.737306 c -0.395817,0 -0.531637,0.178506 -0.531637,0.535518 z m 0.55492,-2.01013 h 0.69074 c 0.248356,0 0.333728,0.116416 0.333728,0.360892 v 1.614313 c 0,0.244475 -0.08537,0.360892 -0.333728,0.360892 h -0.69074 c -0.244475,0 -0.333728,-0.116417 -0.333728,-0.360892 V 52.09899 c 0,-0.244476 0.08925,-0.360892 0.333728,-0.360892 z" />
      <path
         id="path15645"
         style="font-style:normal;font-variant:normal;font-weight:normal;font-stretch:normal;font-size:3.88056px;font-family:Quarca;-inkscape-font-specification:Quarca;fill:#dddddd;fill-opacity:1;stroke-width:0.264583"
         d="m 56.368098,52.813013 -0.632531,-1.284466 h -0.228953 l 0.679098,1.38148 -0.667456,1.373718 h 0.232833 l 0.617009,-1.253421 0.609248,1.253421 h 0.232834 l -0.659695,-1.373718 0.671337,-1.38148 h -0.228953 z" />
      <path
         id="path15647"
         style="font-style:normal;font-variant:normal;font-weight:normal;font-stretch:normal;font-size:3.88056px;font-family:Quarca;-inkscape-font-specification:Quarca;fill:#dddddd;fill-opacity:1;stroke-width:0.264583"
         d="m 58.529813,54.283745 v -2.755198 h -0.221192 v 2.755198 z" />
      <path
         id="path15649"
         style="font-style:normal;font-variant:normal;font-weight:normal;font-stretch:normal;font-size:3.88056px;font-family:Quarca;-inkscape-font-specification:Quarca;fill:#dddddd;fill-opacity:1;stroke-width:0.264583"
         d="m 59.272576,54.283745 v -2.371022 c 0.05821,0.128058 0.108656,0.256117 0.201789,0.41522 l 1.133124,1.955802 h 0.225072 v -2.755198 h -0.225072 v 2.367142 c -0.04269,-0.100895 -0.08149,-0.197909 -0.155222,-0.325967 l -1.179691,-2.041175 h -0.221192 v 2.755198 z" />
      <path
         id="path15651"
         style="font-style:normal;font-variant:normal;font-weight:normal;font-stretch:normal;font-size:3.88056px;font-family:Quarca;-inkscape-font-specification:Quarca;fill:#dddddd;fill-opacity:1;stroke-width:0.264583"
         d="m 61.576658,54.283745 v -1.043871 h 1.276704 v 1.043871 h 0.221192 v -2.755198 h -0.221192 v 1.501777 h -1.276704 v -1.501777 h -0.221192 v 2.755198 z" />
      <path
         id="path15653"
         style="font-style:normal;font-variant:normal;font-weight:normal;font-stretch:normal;font-size:3.88056px;font-family:Quarca;-inkscape-font-specification:Quarca;fill:#dddddd;fill-opacity:1;stroke-width:0.264583"
         d="m 64.685654,54.074195 h -0.496712 c -0.267759,0 -0.384175,-0.124178 -0.384175,-0.407459 v -2.138189 h -0.221192 v 2.200278 c 0,0.368653 0.170744,0.55492 0.5588,0.55492 h 0.589845 c 0.388056,0 0.558801,-0.186267 0.558801,-0.55492 v -2.200278 h -0.225073 v 2.138189 c 0,0.283281 -0.112536,0.407459 -0.380294,0.407459 z" />
      <path
         id="path15655"
         style="font-style:normal;font-variant:normal;font-weight:normal;font-stretch:normal;font-size:3.88056px;font-family:Quarca;-inkscape-font-specification:Quarca;fill:#dddddd;fill-opacity:1;stroke-width:0.264583"
         d="m 66.017898,54.283745 v -2.398186 l 0.68686,1.342674 h 0.217311 l 0.69074,-1.342674 v 2.398186 h 0.21343 v -2.755198 h -0.263878 l -0.748948,1.462971 -0.745067,-1.462971 h -0.263878 v 2.755198 z" />
      <path
         id="path15657"
         style="font-style:normal;font-variant:normal;font-weight:normal;font-stretch:normal;font-size:3.88056px;font-family:Quarca;-inkscape-font-specification:Quarca;fill:#dddddd;fill-opacity:1;stroke-width:0.264583"
         d="m 69.003201,51.528547 -0.849843,2.755198 h 0.236714 l 0.178506,-0.597606 h 1.10984 l 0.178506,0.597606 h 0.236714 l -0.845962,-2.755198 z m 0.124177,0.294923 0.488951,1.653118 h -0.985662 z" />
      <path
         id="path15659"
         style="font-style:normal;font-variant:normal;font-weight:normal;font-stretch:normal;font-size:3.88056px;font-family:Quarca;-inkscape-font-specification:Quarca;fill:#dddddd;fill-opacity:1;stroke-width:0.264583"
         d="m 70.648983,54.283745 v -2.371022 c 0.05821,0.128058 0.108656,0.256117 0.201789,0.41522 l 1.133124,1.955802 h 0.225072 v -2.755198 h -0.225072 v 2.367142 c -0.04269,-0.100895 -0.08149,-0.197909 -0.155223,-0.325967 l -1.17969,-2.041175 h -0.221192 v 2.755198 z" />
      <path
         id="path15661"
         style="font-style:normal;font-variant:normal;font-weight:normal;font-stretch:normal;font-size:3.88056px;font-family:Quarca;-inkscape-font-specification:Quarca;fill:#dddddd;fill-opacity:1;stroke-width:0.264583"
         d="m 73.391569,51.528547 -0.849842,2.755198 h 0.236714 l 0.178505,-0.597606 h 1.109841 l 0.178505,0.597606 h 0.236714 l -0.845962,-2.755198 z m 0.124178,0.294923 0.488951,1.653118 h -0.985663 z" />
    </g>
    <g
       style="font-style:normal;font-variant:normal;font-weight:normal;font-stretch:normal;font-size:3.52778px;line-height:1.25;font-family:Quarca;-inkscape-font-specification:Quarca;text-align:center;letter-spacing:0px;word-spacing:0px;text-anchor:middle;fill:#dddddd;fill-opacity:1;stroke:none;stroke-width:0.264583"
       id="text299"
       aria-label="VOWEL 1">
      <path
         id="path15628"
         style="font-style:normal;font-variant:normal;font-weight:normal;font-stretch:normal;font-size:2.82222px;font-family:Quarca;-inkscape-font-specification:Quarca;fill:#dddddd;fill-opacity:1;stroke-width:0.264583"
         d="m 40.124948,57.49921 0.570089,-2.003776 h -0.172156 l -0.468488,1.696154 c -0.0085,0.03951 -0.01693,0.08184 -0.01976,0.118534 -0.0056,-0.03669 -0.01129,-0.07902 -0.02258,-0.118534 l -0.468489,-1.696154 h -0.172155 l 0.57291,2.003776 z" />
      <path
         id="path15630"
         style="font-style:normal;font-variant:normal;font-weight:normal;font-stretch:normal;font-size:2.82222px;font-family:Quarca;-inkscape-font-specification:Quarca;fill:#dddddd;fill-opacity:1;stroke-width:0.264583"
         d="m 40.944892,57.109744 c 0,0.259644 0.09878,0.389466 0.386644,0.389466 h 0.536222 c 0.287866,0 0.386644,-0.129822 0.386644,-0.389466 V 55.8849 c 0,-0.259644 -0.09878,-0.389466 -0.386644,-0.389466 h -0.536222 c -0.287867,0 -0.386644,0.129822 -0.386644,0.389466 z m 0.403577,-1.46191 h 0.502355 c 0.180622,0 0.242711,0.08467 0.242711,0.262466 v 1.174044 c 0,0.1778 -0.06209,0.262466 -0.242711,0.262466 h -0.502355 c -0.1778,0 -0.242711,-0.08467 -0.242711,-0.262466 V 55.9103 c 0,-0.177799 0.06491,-0.262466 0.242711,-0.262466 z" />
      <path
         id="path15632"
         style="font-style:normal;font-variant:normal;font-weight:normal;font-stretch:normal;font-size:2.82222px;font-family:Quarca;-inkscape-font-specification:Quarca;fill:#dddddd;fill-opacity:1;stroke-width:0.264583"
         d="m 43.230449,57.49921 0.361244,-1.622776 c 0.0085,-0.02822 0.01129,-0.07338 0.01129,-0.110067 0.0028,0.03669 0.0085,0.08184 0.01693,0.110067 l 0.364067,1.622776 h 0.180622 l 0.536221,-2.003776 h -0.163688 l -0.423333,1.642532 c -0.01411,0.05927 -0.02822,0.110067 -0.03387,0.166511 -0.0056,-0.05644 -0.01976,-0.110066 -0.03104,-0.169333 l -0.364067,-1.63971 H 43.52396 l -0.361244,1.63971 c -0.01129,0.05927 -0.02258,0.115711 -0.02822,0.174978 -0.01129,-0.05927 -0.0254,-0.118534 -0.03951,-0.1778 L 42.674471,55.495434 H 42.50796 l 0.539044,2.003776 z" />
      <path
         id="path15634"
         style="font-style:normal;font-variant:normal;font-weight:normal;font-stretch:normal;font-size:2.82222px;font-family:Quarca;-inkscape-font-specification:Quarca;fill:#dddddd;fill-opacity:1;stroke-width:0.264583"
         d="m 45.124379,55.647834 h 0.905933 l 0.02258,-0.1524 h -1.089377 v 2.003776 h 1.072443 l 0.02258,-0.1524 h -0.934155 v -0.612421 h 0.759177 l 0.02258,-0.149578 h -0.781755 z" />
      <path
         id="path15636"
         style="font-style:normal;font-variant:normal;font-weight:normal;font-stretch:normal;font-size:2.82222px;font-family:Quarca;-inkscape-font-specification:Quarca;fill:#dddddd;fill-opacity:1;stroke-width:0.264583"
         d="m 46.480368,55.495434 h -0.160867 v 2.003776 h 1.027288 l 0.02258,-0.1524 h -0.888999 z" />
      <path
         id="path15638"
         style="font-style:normal;font-variant:normal;font-weight:normal;font-stretch:normal;font-size:2.82222px;font-family:Quarca;-inkscape-font-specification:Quarca;fill:#dddddd;fill-opacity:1;stroke-width:0.264583"
         d="m 48.212813,57.49921 h 0.160867 v -2.003776 h -0.143933 l -0.262467,0.186267 v 0.169333 l 0.245533,-0.1778 z" />
    </g>
    <g
       style="font-style:normal;font-variant:normal;font-weight:normal;font-stretch:normal;font-size:3.52778px;line-height:1.25;font-family:Quarca;-inkscape-font-specification:Quarca;text-align:center;letter-spacing:0px;word-spacing:0px;text-anchor:middle;fill:#dddddf;fill-opacity:1;stroke:none;stroke-width:0.264583"
       id="text303"
       aria-label="FORMANTS">
      <path
         id="path15611"
         style="font-style:normal;font-variant:normal;font-weight:normal;font-stretch:normal;font-size:2.82222px;font-family:Quarca;-inkscape-font-specification:Quarca;fill:#dddddf;fill-opacity:1;stroke-width:0.264583"
         d="m 56.532305,88.201114 h 0.897466 l 0.02258,-0.1524 h -1.08091 v 2.003776 h 0.160866 v -0.764821 h 0.7112 l 0.02258,-0.149578 h -0.733777 z" />
      <path
         id="path15613"
         style="font-style:normal;font-variant:normal;font-weight:normal;font-stretch:normal;font-size:2.82222px;font-family:Quarca;-inkscape-font-specification:Quarca;fill:#dddddf;fill-opacity:1;stroke-width:0.264583"
         d="m 57.683065,89.663024 c 0,0.259644 0.09878,0.389466 0.386644,0.389466 h 0.536222 c 0.287867,0 0.386644,-0.129822 0.386644,-0.389466 V 88.43818 c 0,-0.259644 -0.09878,-0.389466 -0.386644,-0.389466 h -0.536222 c -0.287866,0 -0.386644,0.129822 -0.386644,0.389466 z m 0.403578,-1.46191 h 0.502355 c 0.180622,0 0.242711,0.08467 0.242711,0.262466 v 1.174044 c 0,0.1778 -0.06209,0.262466 -0.242711,0.262466 h -0.502355 c -0.1778,0 -0.242711,-0.08467 -0.242711,-0.262466 V 88.46358 c 0,-0.1778 0.06491,-0.262466 0.242711,-0.262466 z" />
      <path
         id="path15615"
         style="font-style:normal;font-variant:normal;font-weight:normal;font-stretch:normal;font-size:2.82222px;font-family:Quarca;-inkscape-font-specification:Quarca;fill:#dddddf;fill-opacity:1;stroke-width:0.264583"
         d="m 59.359023,90.05249 h 0.160867 v -0.804332 h 0.369711 l 0.561621,0.804332 h 0.189089 l -0.564444,-0.804332 h 0.03951 c 0.268111,0 0.397933,-0.127 0.397933,-0.381 v -0.437444 c 0,-0.254 -0.129822,-0.381 -0.397933,-0.381 h -0.756355 z m 0.160867,-1.851376 h 0.567266 c 0.180622,0 0.262466,0.08467 0.262466,0.276577 v 0.341489 c 0,0.194733 -0.08184,0.2794 -0.262466,0.2794 H 59.51989 Z" />
      <path
         id="path15617"
         style="font-style:normal;font-variant:normal;font-weight:normal;font-stretch:normal;font-size:2.82222px;font-family:Quarca;-inkscape-font-specification:Quarca;fill:#dddddf;fill-opacity:1;stroke-width:0.264583"
         d="m 61.01355,90.05249 v -1.744132 l 0.499532,0.976488 h 0.158045 l 0.502355,-0.976488 v 1.744132 h 0.155222 v -2.003776 h -0.191911 l -0.544688,1.063977 -0.541867,-1.063977 h -0.191911 v 2.003776 z" />
      <path
         id="path15619"
         style="font-style:normal;font-variant:normal;font-weight:normal;font-stretch:normal;font-size:2.82222px;font-family:Quarca;-inkscape-font-specification:Quarca;fill:#dddddf;fill-opacity:1;stroke-width:0.264583"
         d="m 63.184675,88.048714 -0.618066,2.003776 h 0.172155 l 0.129822,-0.434622 h 0.807155 l 0.129822,0.434622 h 0.172156 l -0.615244,-2.003776 z m 0.09031,0.214489 0.3556,1.202265 h -0.716844 z" />
      <path
         id="path15621"
         style="font-style:normal;font-variant:normal;font-weight:normal;font-stretch:normal;font-size:2.82222px;font-family:Quarca;-inkscape-font-specification:Quarca;fill:#dddddf;fill-opacity:1;stroke-width:0.264583"
         d="m 64.381605,90.05249 v -1.724376 c 0.04233,0.09313 0.07902,0.186266 0.146755,0.301977 l 0.824088,1.422399 h 0.163689 v -2.003776 h -0.163689 v 1.721554 c -0.03104,-0.07338 -0.05927,-0.143933 -0.112889,-0.237066 l -0.857954,-1.484488 h -0.160867 v 2.003776 z" />
      <path
         id="path15623"
         style="font-style:normal;font-variant:normal;font-weight:normal;font-stretch:normal;font-size:2.82222px;font-family:Quarca;-inkscape-font-specification:Quarca;fill:#dddddf;fill-opacity:1;stroke-width:0.264583"
         d="m 66.926542,88.201114 v -0.1524 h -1.188155 v 0.1524 h 0.513644 v 1.851376 h 0.163689 v -1.851376 z" />
      <path
         id="path15625"
         style="font-style:normal;font-variant:normal;font-weight:normal;font-stretch:normal;font-size:2.82222px;font-family:Quarca;-inkscape-font-specification:Quarca;fill:#dddddf;fill-opacity:1;stroke-width:0.264583"
         d="m 67.957667,89.219935 c 0.141111,0.05927 0.177799,0.107245 0.177799,0.245533 v 0.194734 c 0,0.169333 -0.07055,0.239888 -0.231422,0.239888 h -0.426155 c -0.160866,0 -0.234244,-0.07055 -0.234244,-0.239888 v -0.211667 h -0.160867 v 0.251178 c 0,0.234244 0.110067,0.352777 0.369711,0.352777 H 67.9492 c 0.234244,0 0.349955,-0.118533 0.349955,-0.352777 v -0.276578 c 0,-0.200377 -0.0762,-0.270933 -0.282222,-0.361244 l -0.578555,-0.245533 c -0.132644,-0.05644 -0.166511,-0.110067 -0.166511,-0.234244 v -0.124178 c 0,-0.191911 0.06209,-0.256822 0.242711,-0.256822 h 0.352777 c 0.160867,0 0.239889,0.07338 0.239889,0.248355 v 0.189089 h 0.163689 v -0.2286 c 0,-0.254 -0.121355,-0.361244 -0.381,-0.361244 h -0.417688 c -0.248356,0 -0.361244,0.110067 -0.361244,0.361244 v 0.197556 c 0,0.203199 0.06773,0.276577 0.279399,0.36971 z" />
    </g>
    <g
       style="font-style:normal;font-variant:normal;font-weight:bold;font-stretch:normal;font-size:3.52778px;line-height:1.25;font-family:Consolas;-inkscape-font-specification:'Consolas Bold';text-align:center;letter-spacing:0px;word-spacing:0px;text-anchor:middle;fill:#ffffff;fill-opacity:1;stroke:none;stroke-width:0.264583"
       id="text373" />
    <g
       style="font-style:normal;font-variant:normal;font-weight:bold;font-stretch:normal;font-size:13.3333px;line-height:1.25;font-family:Consolas;-inkscape-font-specification:'Consolas Bold';text-align:center;letter-spacing:0px;word-spacing:0px;text-anchor:middle;fill:#ffffff;fill-opacity:1;stroke:none"
       id="flowRoot250" />
    <g
       style="font-style:normal;font-variant:normal;font-weight:bold;font-stretch:normal;font-size:3.52778px;line-height:1.25;font-family:Consolas;-inkscape-font-specification:'Consolas Bold';text-align:start;letter-spacing:0px;word-spacing:0px;text-anchor:start;fill:#00a3f2;fill-opacity:1;stroke:none;stroke-width:0.264583"
       id="text3885-7"
       aria-label="FROZEN WASTELAND">
      <path
         id="path15578"
         style="font-style:normal;font-variant:normal;font-weight:normal;font-stretch:normal;font-family:'Bradley Gratis';-inkscape-font-specification:'Bradley Gratis';text-align:start;text-anchor:start;fill:#00a3f2;fill-opacity:1;stroke-width:0.264583"
         d="m 48.426278,150.10085 q 0.119944,-0.11995 0.1905,-0.21167 0.07408,-0.0917 0.112889,-0.16933 0.04233,-0.0776 0.05292,-0.14464 0.01411,-0.0706 0.01411,-0.14817 0,-0.0952 -0.04586,-0.2293 -0.04586,-0.13406 -0.102306,-0.28575 -0.05644,-0.1517 -0.102306,-0.31045 -0.04586,-0.15875 -0.04586,-0.30339 0,-0.0776 0.0247,-0.15169 0.02822,-0.0741 0.06703,-0.14111 0.04233,-0.0706 0.09172,-0.13053 0.04939,-0.0635 0.09878,-0.11289 -0.07056,-0.0141 -0.123473,-0.0212 -0.05292,-0.0106 -0.07761,-0.0106 -0.130528,0 -0.22225,0.0706 -0.08819,0.067 -0.1905,0.16933 0,-0.11994 0.03528,-0.24694 0.0388,-0.13053 0.116417,-0.23637 0.07761,-0.10583 0.194027,-0.17286 0.119945,-0.067 0.282223,-0.067 0.112889,0 0.208139,0.0176 0.09878,0.0141 0.179917,0.0353 0.08114,0.0212 0.148166,0.0388 0.06703,0.0141 0.119945,0.0141 0.08114,0 0.141111,-0.0212 0.0635,-0.0247 0.123472,-0.0847 0,0.0776 -0.03175,0.17638 -0.02822,0.0988 -0.08819,0.1905 -0.05645,0.0882 -0.148167,0.1517 -0.09172,0.06 -0.211667,0.06 -0.05997,0 -0.137583,-0.007 -0.07408,-0.0106 -0.155222,-0.0247 -0.0071,0.0247 -0.01058,0.0459 -0.0035,0.0212 -0.0071,0.0388 -0.0035,0.0212 -0.0035,0.0388 0,0.0776 0.01058,0.1517 0.01411,0.0705 0.03881,0.14464 h 0.712611 l -0.08114,0.23989 q -0.01058,0.0459 -0.01411,0.067 -0.0035,0.0212 -0.01058,0.067 l -0.130528,-0.0917 h -0.363361 q 0.07761,0.17639 0.144639,0.35983 0.06703,0.17992 0.06703,0.38453 0,0.18345 -0.07408,0.3422 -0.07408,0.15522 -0.197555,0.27163 -0.119945,0.11642 -0.278695,0.17992 -0.155222,0.067 -0.321028,0.067 z" />
      <path
         id="path15580"
         style="font-style:normal;font-variant:normal;font-weight:normal;font-stretch:normal;font-family:'Bradley Gratis';-inkscape-font-specification:'Bradley Gratis';text-align:start;text-anchor:start;fill:#00a3f2;fill-opacity:1;stroke-width:0.264583"
         d="m 50.496368,148.37224 q 0.07056,-0.0423 0.137584,-0.0988 0.07055,-0.0565 0.123472,-0.127 0.05644,-0.0706 0.08819,-0.16228 0.03528,-0.0953 0.03528,-0.21167 0,-0.0988 -0.0388,-0.1658 -0.03528,-0.0706 -0.08467,-0.11289 -0.04939,-0.0423 -0.09878,-0.06 -0.04586,-0.0176 -0.07056,-0.0176 -0.02822,0 -0.05292,0.0106 -0.02117,0.0106 -0.03881,0.0247 z m -0.518583,-0.94192 q -0.112889,-0.0635 -0.112889,-0.23636 0.03175,0.0317 0.112889,0.0564 0.08114,0.0212 0.172861,0.0212 0.04586,0 0.130528,-0.0106 0.08467,-0.0141 0.172861,-0.0282 0.09172,-0.0141 0.172861,-0.0247 0.08467,-0.0141 0.130528,-0.0141 0.116417,0 0.232833,0.0353 0.116417,0.0353 0.215195,0.11994 0.09878,0.0847 0.165806,0.22931 0.07056,0.14111 0.09172,0.35983 l -0.627945,0.4445 q 0.07056,0.0282 0.15875,0.0952 0.08819,0.067 0.165806,0.18697 0.08114,0.11995 0.134055,0.30692 0.05292,0.18344 0.05292,0.45156 0,0.23283 0.02117,0.37747 0.02117,0.14464 0.05292,0.23283 0.03175,0.0882 0.06703,0.13053 0.03881,0.0459 0.07056,0.0776 -0.155222,0 -0.275167,-0.0917 -0.119944,-0.0882 -0.211667,-0.23284 -0.09172,-0.14463 -0.162278,-0.32808 -0.06703,-0.18344 -0.123472,-0.37042 -0.05644,-0.18697 -0.105833,-0.35983 -0.04586,-0.17286 -0.09525,-0.29986 -0.0247,0.0176 -0.04939,0.0353 -0.02117,0.0141 -0.03881,0.0317 v 1.31939 h -0.518583 z" />
      <path
         id="path15582"
         style="font-style:normal;font-variant:normal;font-weight:normal;font-stretch:normal;font-family:'Bradley Gratis';-inkscape-font-specification:'Bradley Gratis';text-align:start;text-anchor:start;fill:#00a3f2;fill-opacity:1;stroke-width:0.264583"
         d="m 52.384116,149.47996 q 0,0.11994 0.01411,0.18697 0.01764,0.067 0.04233,0.10231 0.02822,0.0318 0.0635,0.0388 0.03528,0.007 0.07056,0.007 0.07055,0 0.116416,-0.0952 0.04586,-0.0988 0.04586,-0.29986 v -1.53106 q 0,-0.15875 -0.01764,-0.25753 -0.01411,-0.1023 -0.04233,-0.15522 -0.02469,-0.0564 -0.05997,-0.0776 -0.03175,-0.0212 -0.0635,-0.0212 -0.06703,0 -0.119945,0.0847 -0.04939,0.0811 -0.04939,0.26106 z m 1.005418,-0.88547 q 0,0.25753 -0.06703,0.508 -0.0635,0.25047 -0.176389,0.44803 -0.109361,0.19755 -0.261056,0.32102 -0.151694,0.11995 -0.321028,0.11995 -0.15875,0 -0.310444,-0.10936 -0.148167,-0.10936 -0.264584,-0.29986 -0.112889,-0.1905 -0.183445,-0.4445 -0.07055,-0.254 -0.07055,-0.54328 0,-0.23636 0.0635,-0.48331 0.06703,-0.25047 0.179917,-0.45155 0.112889,-0.20109 0.264583,-0.32809 0.151695,-0.13053 0.321028,-0.13053 0.148167,0 0.292806,0.10937 0.148167,0.10936 0.264583,0.29986 0.119945,0.18697 0.194028,0.44097 0.07408,0.254 0.07408,0.54328 z" />
      <path
         id="path15584"
         style="font-style:normal;font-variant:normal;font-weight:normal;font-stretch:normal;font-family:'Bradley Gratis';-inkscape-font-specification:'Bradley Gratis';text-align:start;text-anchor:start;fill:#00a3f2;fill-opacity:1;stroke-width:0.264583"
         d="m 53.543598,149.95268 q 0.04586,-0.27164 0.130528,-0.51153 0.08819,-0.23988 0.194028,-0.45861 0.105833,-0.21872 0.218722,-0.41628 0.116417,-0.20108 0.218723,-0.38805 0.102305,-0.18697 0.179917,-0.36336 0.07761,-0.17992 0.112888,-0.35984 -0.02822,-0.0176 -0.06703,-0.0317 -0.03528,-0.0141 -0.137584,-0.0141 -0.05292,0 -0.09525,0.0282 -0.03881,0.0247 -0.06703,0.0635 -0.02822,0.0353 -0.04586,0.0776 -0.01411,0.0388 -0.01411,0.0635 0,0.0282 0.01058,0.067 0.01411,0.0353 0.02822,0.0706 0.01764,0.0353 0.03528,0.067 0.01764,0.0282 0.03175,0.0423 l -0.430389,0.26811 q -0.08467,-0.0811 -0.144639,-0.19755 -0.05644,-0.11995 -0.05644,-0.23989 0,-0.06 0.03175,-0.14817 0.03175,-0.0882 0.102305,-0.16933 0.07056,-0.0847 0.183445,-0.14111 0.116417,-0.06 0.282222,-0.06 0.130528,0 0.218723,0.0176 0.08819,0.0176 0.155222,0.0423 0.06703,0.0212 0.123472,0.0388 0.05997,0.0176 0.134056,0.0176 0.04586,0 0.09878,-0.007 0.05292,-0.007 0.09878,-0.0212 0.04586,-0.0141 0.08114,-0.0282 0.0388,-0.0176 0.05997,-0.0388 -0.04233,0.22225 -0.134056,0.46214 -0.09172,0.23989 -0.204611,0.47978 -0.109361,0.23989 -0.232833,0.46919 -0.119945,0.22931 -0.222251,0.43039 -0.09878,0.19756 -0.169333,0.35984 -0.06703,0.15875 -0.07408,0.26105 0.141111,0.06 0.239889,0.06 0.0635,0 0.130528,-0.0141 0.06703,-0.0176 0.119944,-0.0529 0.05645,-0.0353 0.09172,-0.0882 0.03528,-0.0564 0.03528,-0.13405 0,-0.0776 -0.01764,-0.127 -0.01411,-0.0529 -0.0388,-0.0847 -0.0247,-0.0353 -0.05645,-0.06 -0.03175,-0.0282 -0.05997,-0.0564 l 0.405695,-0.29986 q 0.141111,0.10583 0.201083,0.22578 0.05997,0.11994 0.05997,0.26105 0,0.067 -0.02117,0.13053 -0.01764,0.06 -0.04586,0.11289 -0.0247,0.0494 -0.05997,0.0917 -0.03175,0.0423 -0.05644,0.067 l 0.05997,0.06 q 0.01764,0.0176 0.03881,0.0529 0.02117,0.0318 0.02117,0.0564 0,0.0282 -0.02469,0.0811 -0.02117,0.0564 -0.08819,0.0988 -0.02469,-0.0318 -0.05644,-0.0564 -0.02822,-0.0212 -0.05997,-0.0388 -0.03175,-0.0176 -0.06703,-0.0176 z" />
      <path
         id="path15586"
         style="font-style:normal;font-variant:normal;font-weight:normal;font-stretch:normal;font-family:'Bradley Gratis';-inkscape-font-specification:'Bradley Gratis';text-align:start;text-anchor:start;fill:#00a3f2;fill-opacity:1;stroke-width:0.264583"
         d="m 57.049936,147.22571 v 0.381 q -0.03881,-0.0353 -0.102305,-0.0776 -0.05997,-0.0423 -0.130528,-0.0741 -0.06703,-0.0353 -0.134056,-0.0564 -0.06703,-0.0247 -0.112889,-0.0247 -0.08467,0 -0.172861,0.067 -0.08819,0.067 -0.144639,0.17992 -0.05644,0.10936 -0.07408,0.28928 -0.01411,0.17639 -0.01411,0.45508 h 0.903112 l -0.179917,0.40217 q -0.03528,-0.0529 -0.08467,-0.0706 -0.04586,-0.0212 -0.08467,-0.0212 h -0.553862 q 0,0.20108 0.0071,0.39511 0.0071,0.1905 0.04586,0.34219 0.04233,0.1517 0.127,0.24695 0.08467,0.0917 0.243417,0.0917 0.08467,0 0.165806,-0.0317 0.08467,-0.0318 0.155222,-0.0776 0.07056,-0.0494 0.123472,-0.10231 0.05645,-0.0529 0.08819,-0.0952 v 0.508 h -0.476251 q -0.342194,0 -0.553861,-0.11994 -0.211667,-0.12347 -0.331611,-0.32809 -0.116417,-0.20813 -0.15875,-0.47977 -0.03881,-0.27164 -0.03881,-0.56798 0,-0.0741 0.01058,-0.19402 0.01058,-0.12348 0.04586,-0.25753 0.03528,-0.13759 0.102306,-0.27517 0.06703,-0.14111 0.179917,-0.25047 0.116417,-0.11289 0.28575,-0.18345 0.169334,-0.0705 0.409223,-0.0705 z" />
      <path
         id="path15588"
         style="font-style:normal;font-variant:normal;font-weight:normal;font-stretch:normal;font-family:'Bradley Gratis';-inkscape-font-specification:'Bradley Gratis';text-align:start;text-anchor:start;fill:#00a3f2;fill-opacity:1;stroke-width:0.264583"
         d="m 57.436338,149.95268 v -2.43769 q 0,-0.0988 -0.04233,-0.16581 -0.04233,-0.0705 -0.08467,-0.12347 h 0.684389 v 0.35983 l 0.391584,-0.45508 q 0.179917,0.16228 0.296334,0.32455 0.116416,0.15875 0.183444,0.32103 0.06703,0.15875 0.09172,0.32456 0.0247,0.16228 0.0247,0.33514 0,0.16933 -0.02822,0.32455 -0.02469,0.1517 -0.07408,0.29986 -0.04939,0.14817 -0.119944,0.29987 -0.06703,0.15169 -0.148167,0.3175 h 0.127 q 0.04586,0 0.09525,-0.0317 0.04939,-0.0317 0.09878,-0.0317 v 0.33866 h -0.684389 q 0.09525,-0.19403 0.151694,-0.34925 0.05997,-0.15522 0.09172,-0.29633 0.03175,-0.14111 0.04233,-0.27517 0.01058,-0.13405 0.01058,-0.28575 0,-0.15169 -0.05292,-0.31397 -0.04939,-0.16581 -0.123472,-0.30339 -0.07408,-0.13758 -0.15875,-0.22578 -0.08114,-0.0882 -0.148167,-0.0882 -0.04233,0 -0.06703,0.0212 v 2.11667 z" />
      <path
         id="path15590"
         style="font-style:normal;font-variant:normal;font-weight:normal;font-stretch:normal;font-family:'Bradley Gratis';-inkscape-font-specification:'Bradley Gratis';text-align:start;text-anchor:start;fill:#00a3f2;fill-opacity:1;stroke-width:0.264583"
         d="m 60.67451,150.0691 q -0.190501,-0.13758 -0.324556,-0.29281 -0.134056,-0.15875 -0.215195,-0.32808 -0.08114,-0.16933 -0.119944,-0.34219 -0.03528,-0.17639 -0.03528,-0.34573 0,-0.1658 0.03528,-0.32808 0.03528,-0.16581 0.09172,-0.32456 0.05997,-0.16227 0.137583,-0.31397 0.07761,-0.15522 0.158751,-0.30339 h -0.02117 q -0.01058,0 -0.0247,0 -0.01058,-0.004 -0.02822,-0.004 -0.05644,0 -0.137583,0.0141 -0.07761,0.0141 -0.151695,0.0705 v -0.34572 h 0.740834 q -0.09172,0.15875 -0.15875,0.32103 -0.0635,0.15875 -0.105833,0.31044 -0.03881,0.14817 -0.05997,0.28222 -0.01764,0.13053 -0.01764,0.23636 0,0.10584 0.02117,0.254 0.02117,0.14817 0.07761,0.30692 0.05997,0.15522 0.15875,0.29634 0.102306,0.14111 0.264584,0.2293 l 0.105833,-0.0776 q -0.0635,-0.11994 -0.09878,-0.22931 -0.03528,-0.11288 -0.05292,-0.21166 -0.01411,-0.0988 -0.01764,-0.17992 -0.0035,-0.0847 -0.0035,-0.15169 0,-0.10937 0.02822,-0.24695 0.02822,-0.13758 0.08114,-0.28575 0.05292,-0.14817 0.127,-0.29986 0.07761,-0.15169 0.172861,-0.29633 -0.134055,0 -0.22225,0.0212 -0.08467,0.0212 -0.144639,0.06 v -0.33867 h 0.762001 q -0.0635,0.0882 -0.127,0.20108 -0.05997,0.10936 -0.105834,0.23989 -0.04586,0.127 -0.07408,0.27164 -0.02822,0.14464 -0.02822,0.29633 0,0.25753 0.04586,0.45862 0.04586,0.19755 0.127,0.34925 0.08114,0.15169 0.1905,0.26105 0.109361,0.10936 0.232834,0.18697 v -2.26483 h 0.529167 v 2.12019 q 0,0.0247 -0.03528,0.0706 -0.03528,0.0423 -0.09172,0.0988 -0.05292,0.0564 -0.127,0.12347 -0.07055,0.0635 -0.144639,0.127 -0.176389,0.14817 -0.398639,0.32456 -0.172861,-0.13406 -0.296333,-0.26459 -0.123473,-0.13053 -0.211667,-0.254 z" />
      <path
         id="path15592"
         style="font-style:normal;font-variant:normal;font-weight:normal;font-stretch:normal;font-family:'Bradley Gratis';-inkscape-font-specification:'Bradley Gratis';text-align:start;text-anchor:start;fill:#00a3f2;fill-opacity:1;stroke-width:0.264583"
         d="m 63.927783,148.25582 v -0.87842 h -0.416278 q -0.0035,0.23636 -0.01411,0.4692 -0.0071,0.2293 -0.01764,0.40922 z m 0.719667,-1.03011 q -0.03881,0.0282 -0.07408,0.0705 -0.03175,0.0423 -0.05644,0.0917 -0.02117,0.0459 -0.03528,0.0917 -0.01411,0.0423 -0.01411,0.0741 v 2.39889 h -0.53975 v -1.32997 H 63.45506 q -0.0035,0.127 -0.03528,0.27869 -0.03175,0.14817 -0.08819,0.29987 -0.05292,0.14816 -0.127,0.28927 -0.07056,0.13759 -0.162278,0.24342 -0.08819,0.10583 -0.1905,0.16933 -0.09878,0.0635 -0.208139,0.0635 -0.07056,0 -0.123473,-0.0423 -0.04939,-0.0423 -0.04939,-0.11994 0,-0.0494 0.03175,-0.0706 0.03175,-0.0247 0.06703,-0.0247 0.03175,0 0.04939,0.0106 0.01764,0.007 0.03175,0.0212 0.01764,0.0106 0.03881,0.0212 0.02117,0.007 0.05997,0.007 0.0635,0 0.102306,-0.0635 0.0388,-0.067 0.0635,-0.17639 0.02469,-0.11289 0.03528,-0.25753 0.01411,-0.14817 0.02117,-0.31044 0.0071,-0.16228 0.01764,-0.32809 0.01058,-0.16933 0.02822,-0.32455 0.02117,-0.18345 0.0635,-0.33514 0.04586,-0.1517 0.09525,-0.26811 0.04939,-0.11642 0.09878,-0.19756 0.04939,-0.0811 0.08467,-0.13053 h -0.07761 q -0.06703,0 -0.123472,0.0212 -0.05644,0.0176 -0.102306,0.0423 -0.04233,0.0212 -0.07761,0.0423 -0.03175,0.0176 -0.05645,0.0176 -0.05997,0 -0.08819,-0.0423 -0.02822,-0.0423 -0.02822,-0.0952 0,-0.0494 0.05292,-0.0917 0.05644,-0.0459 0.155223,-0.0459 z" />
      <path
         id="path15594"
         style="font-style:normal;font-variant:normal;font-weight:normal;font-stretch:normal;font-family:'Bradley Gratis';-inkscape-font-specification:'Bradley Gratis';text-align:start;text-anchor:start;fill:#00a3f2;fill-opacity:1;stroke-width:0.264583"
         d="m 65.42643,150.07615 q -0.08114,-0.0811 -0.186972,-0.15875 -0.102306,-0.0776 -0.201084,-0.13758 -0.09525,-0.06 -0.169333,-0.1023 -0.07056,-0.0423 -0.08114,-0.0529 0.03528,-0.0423 0.08819,-0.11642 0.05292,-0.0776 0.102305,-0.15169 0.05292,-0.0741 0.09172,-0.13053 0.04233,-0.06 0.05292,-0.0706 0.04939,0.0318 0.134056,0.0882 0.08819,0.0529 0.172861,0.11289 0.08819,0.06 0.15875,0.10936 0.07056,0.0494 0.09172,0.0705 0.04939,-0.0282 0.08114,-0.0741 0.03528,-0.0459 0.03528,-0.14817 0,-0.0882 -0.07408,-0.18697 -0.07056,-0.0988 -0.176389,-0.20814 -0.105834,-0.10936 -0.232834,-0.2293 -0.127,-0.11995 -0.232833,-0.24695 -0.105834,-0.127 -0.179917,-0.25753 -0.07056,-0.13052 -0.07056,-0.26811 0,-0.0988 0.04939,-0.18344 0.05292,-0.0882 0.130528,-0.16228 0.07761,-0.0776 0.169334,-0.13758 0.09525,-0.0635 0.179916,-0.11642 0.08819,-0.0564 0.155223,-0.0988 0.06703,-0.0459 0.09525,-0.0811 0.02117,0.0176 0.09172,0.0882 0.07408,0.067 0.15875,0.14464 0.08467,0.0776 0.15875,0.13758 0.07761,0.06 0.102306,0.06 -0.03528,0.0282 -0.08819,0.0847 -0.04939,0.0529 -0.102305,0.11289 -0.04939,0.06 -0.09172,0.11642 -0.03881,0.0529 -0.05644,0.0811 -0.08114,-0.0353 -0.162278,-0.10583 -0.08114,-0.0705 -0.148167,-0.13758 -0.06703,-0.067 -0.112889,-0.11642 -0.04586,-0.0529 -0.05997,-0.0529 -0.02822,0 -0.04939,0.0317 -0.01764,0.0282 -0.01764,0.067 0,0.0847 0.07408,0.17992 0.07761,0.0952 0.186972,0.20461 0.112889,0.10583 0.243417,0.22578 0.134056,0.11641 0.243417,0.24341 0.112889,0.127 0.186972,0.26459 0.07761,0.13405 0.07761,0.27517 0,0.127 -0.09525,0.26811 -0.09525,0.14111 -0.229306,0.28222 -0.130527,0.13758 -0.268111,0.26458 -0.137583,0.12347 -0.225778,0.21872 z" />
      <path
         id="path15596"
         style="font-style:normal;font-variant:normal;font-weight:normal;font-stretch:normal;font-family:'Bradley Gratis';-inkscape-font-specification:'Bradley Gratis';text-align:start;text-anchor:start;fill:#00a3f2;fill-opacity:1;stroke-width:0.264583"
         d="m 67.911421,149.47643 q 0,0.13759 -0.05645,0.23989 -0.05644,0.0988 -0.148167,0.16228 -0.08819,0.0635 -0.197555,0.0952 -0.109361,0.0317 -0.215195,0.0317 -0.165806,0 -0.324556,-0.0811 -0.15875,-0.0811 -0.28575,-0.21872 -0.127,-0.14111 -0.204611,-0.32809 -0.07761,-0.1905 -0.07761,-0.40922 0,-0.39158 0.179917,-0.72672 0.179916,-0.33867 0.500944,-0.61383 -0.02822,-0.004 -0.05292,-0.004 -0.02117,-0.004 -0.04586,-0.004 -0.08467,0 -0.179916,0.0282 -0.09525,0.0282 -0.179917,0.0741 -0.08467,0.0423 -0.155222,0.0952 -0.06703,0.0529 -0.102306,0.0988 0.02822,-0.13758 0.105833,-0.27164 0.07761,-0.13405 0.194028,-0.23636 0.116417,-0.1023 0.268112,-0.1658 0.151694,-0.0635 0.331611,-0.0635 0.09172,0 0.194028,0.0282 0.102305,0.0282 0.194028,0.0741 0.09525,0.0423 0.169333,0.0952 0.07408,0.0529 0.112889,0.10231 l -0.289278,0.44097 q -0.176389,-0.17286 -0.381,-0.24694 -0.04586,0.0741 -0.09525,0.17639 -0.04939,0.0988 -0.09172,0.22577 -0.03881,0.127 -0.06703,0.28223 -0.02469,0.15169 -0.02469,0.33161 0,0.16933 0.02469,0.29986 0.02822,0.13053 0.07055,0.22578 0.04233,0.0952 0.09525,0.15875 0.05644,0.0635 0.112889,0.10583 0.134056,0.0952 0.306917,0.10583 0.07056,0 0.162278,-0.0282 0.09525,-0.0317 0.151695,-0.0811 z" />
      <path
         id="path15598"
         style="font-style:normal;font-variant:normal;font-weight:normal;font-stretch:normal;font-family:'Bradley Gratis';-inkscape-font-specification:'Bradley Gratis';text-align:start;text-anchor:start;fill:#00a3f2;fill-opacity:1;stroke-width:0.264583"
         d="m 69.679665,147.22571 v 0.381 q -0.03881,-0.0353 -0.102306,-0.0776 -0.05997,-0.0423 -0.130528,-0.0741 -0.06703,-0.0353 -0.134055,-0.0564 -0.06703,-0.0247 -0.112889,-0.0247 -0.08467,0 -0.172861,0.067 -0.0882,0.067 -0.144639,0.17992 -0.05644,0.10936 -0.07408,0.28928 -0.01411,0.17639 -0.01411,0.45508 h 0.903112 l -0.179917,0.40217 q -0.03528,-0.0529 -0.08467,-0.0706 -0.04586,-0.0212 -0.08467,-0.0212 h -0.553862 q 0,0.20108 0.0071,0.39511 0.0071,0.1905 0.04586,0.34219 0.04233,0.1517 0.127,0.24695 0.08467,0.0917 0.243417,0.0917 0.08467,0 0.165805,-0.0317 0.08467,-0.0318 0.155223,-0.0776 0.07055,-0.0494 0.123472,-0.10231 0.05644,-0.0529 0.08819,-0.0952 v 0.508 H 69.27397 q -0.342194,0 -0.553861,-0.11994 -0.211667,-0.12347 -0.331612,-0.32809 -0.116416,-0.20813 -0.15875,-0.47977 -0.0388,-0.27164 -0.0388,-0.56798 0,-0.0741 0.01058,-0.19402 0.01058,-0.12348 0.04586,-0.25753 0.03528,-0.13759 0.102306,-0.27517 0.06703,-0.14111 0.179917,-0.25047 0.116416,-0.11289 0.28575,-0.18345 0.169333,-0.0705 0.409222,-0.0705 z" />
      <path
         id="path15600"
         style="font-style:normal;font-variant:normal;font-weight:normal;font-stretch:normal;font-family:'Bradley Gratis';-inkscape-font-specification:'Bradley Gratis';text-align:start;text-anchor:start;fill:#00a3f2;fill-opacity:1;stroke-width:0.264583"
         d="m 70.958594,147.92068 q -0.08819,-0.21167 -0.151695,-0.35278 -0.0635,-0.14111 -0.09878,-0.14111 -0.03881,0 -0.05292,0.0353 -0.01058,0.0317 -0.01058,0.0564 v 1.91206 q 0,0.0776 -0.04233,0.16228 -0.04233,0.0847 -0.112889,0.14817 0.130528,0 0.232834,-0.0635 0.102305,-0.067 0.211666,-0.14464 0.112889,-0.0811 0.250473,-0.14464 0.137583,-0.067 0.342194,-0.067 v 0.63147 H 69.93201 q 0.04586,-0.067 0.07761,-0.127 0.03528,-0.06 0.05645,-0.11994 0.02117,-0.06 0.03175,-0.127 0.01058,-0.067 0.01058,-0.14817 v -1.66864 q 0,-0.11289 -0.04233,-0.18344 -0.04233,-0.0741 -0.05997,-0.10231 0.01411,-0.004 0.07056,-0.0247 0.05997,-0.0247 0.144639,-0.0565 0.08467,-0.0317 0.186972,-0.067 0.102306,-0.0353 0.201084,-0.0635 0.09878,-0.0317 0.186972,-0.0494 0.08819,-0.0212 0.144639,-0.0212 0.08819,0 0.165806,0.0494 0.07761,0.0494 0.141111,0.12347 0.0635,0.0741 0.109361,0.16581 0.04586,0.0882 0.07408,0.1658 z" />
      <path
         id="path15602"
         style="font-style:normal;font-variant:normal;font-weight:normal;font-stretch:normal;font-family:'Bradley Gratis';-inkscape-font-specification:'Bradley Gratis';text-align:start;text-anchor:start;fill:#00a3f2;fill-opacity:1;stroke-width:0.264583"
         d="m 73.138763,148.25582 v -0.87842 h -0.416278 q -0.0035,0.23636 -0.01411,0.4692 -0.0071,0.2293 -0.01764,0.40922 z m 0.719667,-1.03011 q -0.0388,0.0282 -0.07408,0.0705 -0.03175,0.0423 -0.05644,0.0917 -0.02117,0.0459 -0.03528,0.0917 -0.01411,0.0423 -0.01411,0.0741 v 2.39889 h -0.539751 v -1.32997 h -0.472722 q -0.0035,0.127 -0.03528,0.27869 -0.03175,0.14817 -0.08819,0.29987 -0.05292,0.14816 -0.127,0.28927 -0.07055,0.13759 -0.162278,0.24342 -0.08819,0.10583 -0.1905,0.16933 -0.09878,0.0635 -0.208139,0.0635 -0.07055,0 -0.123472,-0.0423 -0.04939,-0.0423 -0.04939,-0.11994 0,-0.0494 0.03175,-0.0706 0.03175,-0.0247 0.06703,-0.0247 0.03175,0 0.04939,0.0106 0.01764,0.007 0.03175,0.0212 0.01764,0.0106 0.03881,0.0212 0.02117,0.007 0.05997,0.007 0.0635,0 0.102305,-0.0635 0.03881,-0.067 0.0635,-0.17639 0.0247,-0.11289 0.03528,-0.25753 0.01411,-0.14817 0.02117,-0.31044 0.0071,-0.16228 0.01764,-0.32809 0.01058,-0.16933 0.02822,-0.32455 0.02117,-0.18345 0.0635,-0.33514 0.04586,-0.1517 0.09525,-0.26811 0.04939,-0.11642 0.09878,-0.19756 0.04939,-0.0811 0.08467,-0.13053 h -0.07761 q -0.06703,0 -0.123472,0.0212 -0.05644,0.0176 -0.102306,0.0423 -0.04233,0.0212 -0.07761,0.0423 -0.03175,0.0176 -0.05644,0.0176 -0.05997,0 -0.08819,-0.0423 -0.02822,-0.0423 -0.02822,-0.0952 0,-0.0494 0.05292,-0.0917 0.05644,-0.0459 0.155222,-0.0459 z" />
      <path
         id="path15604"
         style="font-style:normal;font-variant:normal;font-weight:normal;font-stretch:normal;font-family:'Bradley Gratis';-inkscape-font-specification:'Bradley Gratis';text-align:start;text-anchor:start;fill:#00a3f2;fill-opacity:1;stroke-width:0.264583"
         d="m 74.158843,149.95268 v -2.43769 q 0,-0.0988 -0.04233,-0.16581 -0.04233,-0.0705 -0.08467,-0.12347 h 0.684389 v 0.35983 l 0.391584,-0.45508 q 0.179916,0.16228 0.296333,0.32455 0.116417,0.15875 0.183445,0.32103 0.06703,0.15875 0.09172,0.32456 0.02469,0.16228 0.02469,0.33514 0,0.16933 -0.02822,0.32455 -0.02469,0.1517 -0.07408,0.29986 -0.04939,0.14817 -0.119945,0.29987 -0.06703,0.15169 -0.148166,0.3175 h 0.127 q 0.04586,0 0.09525,-0.0317 0.04939,-0.0317 0.09878,-0.0317 v 0.33866 h -0.68439 q 0.09525,-0.19403 0.151695,-0.34925 0.05997,-0.15522 0.09172,-0.29633 0.03175,-0.14111 0.04233,-0.27517 0.01058,-0.13405 0.01058,-0.28575 0,-0.15169 -0.05292,-0.31397 -0.04939,-0.16581 -0.123472,-0.30339 -0.07408,-0.13758 -0.15875,-0.22578 -0.08114,-0.0882 -0.148167,-0.0882 -0.04233,0 -0.06703,0.0212 v 2.11667 z" />
      <path
         id="path15606"
         style="font-style:normal;font-variant:normal;font-weight:normal;font-stretch:normal;font-family:'Bradley Gratis';-inkscape-font-specification:'Bradley Gratis';text-align:start;text-anchor:start;fill:#00a3f2;fill-opacity:1;stroke-width:0.264583"
         d="m 76.047749,147.47265 q -0.09172,-0.0388 -0.127,-0.0952 -0.03528,-0.0564 -0.03528,-0.10583 0,-0.0423 0.02822,-0.0529 0.02822,0.0176 0.07761,0.0247 0.04939,0.007 0.112889,0.007 0.03175,0 0.08819,-0.0106 0.05997,-0.0106 0.130528,-0.0212 0.07055,-0.0106 0.144639,-0.0212 0.07761,-0.0106 0.144639,-0.0106 0.162278,0 0.331611,0.0847 0.169334,0.0811 0.303389,0.254 0.134056,0.16933 0.218723,0.43392 0.08819,0.26105 0.08819,0.62441 0,0.30692 -0.05292,0.52917 -0.05292,0.22225 -0.134055,0.37747 -0.08114,0.15523 -0.179917,0.25048 -0.09878,0.0917 -0.194028,0.14463 -0.09172,0.0494 -0.169333,0.067 -0.07408,0.0176 -0.109362,0.0176 -0.05292,0 -0.112889,-0.0141 -0.05997,-0.0141 -0.119944,-0.0317 -0.05645,-0.0176 -0.109361,-0.0318 -0.04939,-0.0141 -0.08467,-0.0141 -0.03881,0 -0.07056,0.0141 -0.03175,0.0106 -0.06703,0.0247 -0.03175,0.0106 -0.07056,0.0247 -0.03881,0.0106 -0.08819,0.0106 -0.01764,0 -0.03881,-0.004 -0.01764,-0.004 -0.03528,-0.0106 -0.01764,-0.007 -0.03528,-0.0176 0.02822,-0.0176 0.05644,-0.06 0.02822,-0.0459 0.05292,-0.0952 0.02822,-0.0529 0.05644,-0.11642 z m 0.518584,2.10256 q 0,0.0741 0.02469,0.11642 0.02822,0.0388 0.05997,0.0564 0.03881,0.0212 0.08467,0.0247 0.08114,0 0.141111,-0.10937 0.0635,-0.10936 0.0635,-0.27869 v -1.5487 q 0,-0.1658 -0.03175,-0.25752 -0.03175,-0.0917 -0.07408,-0.13406 -0.04233,-0.0423 -0.08467,-0.0494 -0.04233,-0.0106 -0.06703,-0.0106 -0.04233,0 -0.08114,0.0564 -0.03528,0.0565 -0.03528,0.14817 z" />
    </g>
    <g
       style="font-style:normal;font-variant:normal;font-weight:bold;font-stretch:normal;font-size:3.52778px;line-height:1.25;font-family:Consolas;-inkscape-font-specification:'Consolas Bold';text-align:center;letter-spacing:0px;word-spacing:0px;text-anchor:middle;fill:#ffffff;fill-opacity:1;stroke:none;stroke-width:0.264583"
       id="text6637" />
    <g
       style="font-style:normal;font-variant:normal;font-weight:bold;font-stretch:normal;font-size:13.3333px;line-height:1.25;font-family:Consolas;-inkscape-font-specification:'Consolas Bold';text-align:center;letter-spacing:0px;word-spacing:0px;text-anchor:middle;fill:#ffffff;fill-opacity:1;stroke:none"
       id="flowRoot1051" />
    <path
       d="m 79.396568,137.76634 h 8.238984 v 10.45365 h -8.238984 z"
       style="opacity:0.981;fill:#0e365d;fill-opacity:1;stroke:#000000;stroke-width:0.129682;stroke-miterlimit:4;stroke-dasharray:none;stroke-opacity:1"
       id="rect22843" />
    <g
       style="font-style:normal;font-variant:normal;font-weight:normal;font-stretch:normal;font-size:3.52778px;line-height:1.25;font-family:Quarca;-inkscape-font-specification:Quarca;text-align:center;letter-spacing:0px;word-spacing:0px;text-anchor:middle;fill:#dddddf;fill-opacity:1;stroke:none;stroke-width:0.264583"
       id="text307-7"
       aria-label="OUT">
      <path
         id="path15568"
         style="font-style:normal;font-variant:normal;font-weight:normal;font-stretch:normal;font-size:2.82222px;font-family:Quarca;-inkscape-font-specification:Quarca;fill:#dddddf;fill-opacity:1;stroke-width:0.264583"
         d="m 81.415048,140.24185 c 0,0.25965 0.09878,0.38947 0.386644,0.38947 h 0.536222 c 0.287866,0 0.386644,-0.12982 0.386644,-0.38947 v -1.22484 c 0,-0.25965 -0.09878,-0.38947 -0.386644,-0.38947 h -0.536222 c -0.287867,0 -0.386644,0.12982 -0.386644,0.38947 z m 0.403577,-1.46191 h 0.502355 c 0.180622,0 0.242711,0.0847 0.242711,0.26247 v 1.17404 c 0,0.1778 -0.06209,0.26247 -0.242711,0.26247 h -0.502355 c -0.1778,0 -0.242711,-0.0847 -0.242711,-0.26247 v -1.17404 c 0,-0.1778 0.06491,-0.26247 0.242711,-0.26247 z" />
      <path
         id="path15570"
         style="font-style:normal;font-variant:normal;font-weight:normal;font-stretch:normal;font-size:2.82222px;font-family:Quarca;-inkscape-font-specification:Quarca;fill:#dddddf;fill-opacity:1;stroke-width:0.264583"
         d="m 83.886871,140.47892 h -0.361244 c -0.194733,0 -0.279399,-0.0903 -0.279399,-0.29634 v -1.55504 h -0.160867 v 1.6002 c 0,0.26811 0.124178,0.40358 0.4064,0.40358 h 0.428977 c 0.282222,0 0.4064,-0.13547 0.4064,-0.40358 v -1.6002 h -0.163689 v 1.55504 c 0,0.20603 -0.08184,0.29634 -0.276578,0.29634 z" />
      <path
         id="path15572"
         style="font-style:normal;font-variant:normal;font-weight:normal;font-stretch:normal;font-size:2.82222px;font-family:Quarca;-inkscape-font-specification:Quarca;fill:#dddddf;fill-opacity:1;stroke-width:0.264583"
         d="m 85.730663,138.77994 v -0.1524 h -1.188155 v 0.1524 h 0.513644 v 1.85138 h 0.163689 v -1.85138 z" />
    </g>
    <g
       style="font-style:normal;font-variant:normal;font-weight:normal;font-stretch:normal;font-size:3.52778px;line-height:1.25;font-family:Quarca;-inkscape-font-specification:Quarca;text-align:center;letter-spacing:0px;word-spacing:0px;text-anchor:middle;fill:#dddddf;fill-opacity:1;stroke:none;stroke-width:0.264583"
       id="text307-7-9"
       aria-label="IN">
      <path
         id="path15563"
         style="font-style:normal;font-variant:normal;font-weight:normal;font-stretch:normal;font-size:2.82222px;font-family:Quarca;-inkscape-font-specification:Quarca;fill:#dddddf;fill-opacity:1;stroke-width:0.264583"
         d="m 41.767244,140.63132 v -2.00378 h -0.160867 v 2.00378 z" />
      <path
         id="path15565"
         style="font-style:normal;font-variant:normal;font-weight:normal;font-stretch:normal;font-size:2.82222px;font-family:Quarca;-inkscape-font-specification:Quarca;fill:#dddddf;fill-opacity:1;stroke-width:0.264583"
         d="m 42.307434,140.63132 v -1.72438 c 0.04233,0.0931 0.07902,0.18627 0.146756,0.30198 l 0.824088,1.4224 h 0.163689 v -2.00378 h -0.163689 v 1.72156 c -0.03104,-0.0734 -0.05927,-0.14394 -0.112889,-0.23707 l -0.857955,-1.48449 h -0.160866 v 2.00378 z" />
    </g>
    <g
       style="font-style:normal;font-variant:normal;font-weight:normal;font-stretch:normal;font-size:3.52778px;line-height:1.25;font-family:Quarca;-inkscape-font-specification:Quarca;text-align:start;letter-spacing:0px;word-spacing:0px;text-anchor:start;fill:#dddddd;fill-opacity:1;stroke:none;stroke-width:0.264583"
       id="text299-5"
       aria-label="VOCAL RANGE">
      <path
         id="path15542"
         style="font-style:normal;font-variant:normal;font-weight:normal;font-stretch:normal;font-size:2.82222px;font-family:Quarca;-inkscape-font-specification:Quarca;text-align:start;text-anchor:start;fill:#dddddd;fill-opacity:1;stroke-width:0.264583"
         d="m 38.085593,77.080238 0.570089,-2.003776 h -0.172156 l -0.468488,1.696154 c -0.0085,0.03951 -0.01693,0.08185 -0.01976,0.118534 -0.0056,-0.03669 -0.01129,-0.07902 -0.02258,-0.118534 l -0.468489,-1.696154 h -0.172155 l 0.57291,2.003776 z" />
      <path
         id="path15544"
         style="font-style:normal;font-variant:normal;font-weight:normal;font-stretch:normal;font-size:2.82222px;font-family:Quarca;-inkscape-font-specification:Quarca;text-align:start;text-anchor:start;fill:#dddddd;fill-opacity:1;stroke-width:0.264583"
         d="m 38.905537,76.690772 c 0,0.259644 0.09878,0.389466 0.386644,0.389466 h 0.536222 c 0.287866,0 0.386644,-0.129822 0.386644,-0.389466 v -1.224844 c 0,-0.259644 -0.09878,-0.389466 -0.386644,-0.389466 h -0.536222 c -0.287867,0 -0.386644,0.129822 -0.386644,0.389466 z m 0.403577,-1.46191 h 0.502355 c 0.180622,0 0.242711,0.08467 0.242711,0.262466 v 1.174044 c 0,0.1778 -0.06209,0.262466 -0.242711,0.262466 h -0.502355 c -0.1778,0 -0.242711,-0.08467 -0.242711,-0.262466 v -1.174044 c 0,-0.177799 0.06491,-0.262466 0.242711,-0.262466 z" />
      <path
         id="path15546"
         style="font-style:normal;font-variant:normal;font-weight:normal;font-stretch:normal;font-size:2.82222px;font-family:Quarca;-inkscape-font-specification:Quarca;text-align:start;text-anchor:start;fill:#dddddd;fill-opacity:1;stroke-width:0.264583"
         d="m 40.973783,76.927838 c -0.1778,0 -0.242711,-0.08467 -0.242711,-0.262466 v -1.174044 c 0,-0.177799 0.06491,-0.262466 0.242711,-0.262466 h 0.4572 c 0.177799,0 0.24271,0.08467 0.24271,0.262466 v 0.183445 h 0.160867 v -0.208845 c 0,-0.259644 -0.09878,-0.389466 -0.386644,-0.389466 H 40.95685 c -0.287867,0 -0.386645,0.129822 -0.386645,0.389466 v 1.224844 c 0,0.259644 0.09878,0.389466 0.386645,0.389466 h 0.491066 c 0.287866,0 0.386644,-0.129822 0.386644,-0.389466 v -0.214489 h -0.160867 v 0.189089 c 0,0.1778 -0.06491,0.262466 -0.24271,0.262466 z" />
      <path
         id="path15548"
         style="font-style:normal;font-variant:normal;font-weight:normal;font-stretch:normal;font-size:2.82222px;font-family:Quarca;-inkscape-font-specification:Quarca;text-align:start;text-anchor:start;fill:#dddddd;fill-opacity:1;stroke-width:0.264583"
         d="m 42.604673,75.076462 -0.618066,2.003776 h 0.172156 l 0.129822,-0.434622 h 0.807155 l 0.129822,0.434622 h 0.172155 l -0.615244,-2.003776 z m 0.09031,0.214489 0.3556,1.202266 H 42.33374 Z" />
      <path
         id="path15550"
         style="font-style:normal;font-variant:normal;font-weight:normal;font-stretch:normal;font-size:2.82222px;font-family:Quarca;-inkscape-font-specification:Quarca;text-align:start;text-anchor:start;fill:#dddddd;fill-opacity:1;stroke-width:0.264583"
         d="m 43.801604,75.076462 h -0.160867 v 2.003776 h 1.027288 l 0.02258,-0.1524 h -0.888999 z" />
      <path
         id="path15552"
         style="font-style:normal;font-variant:normal;font-weight:normal;font-stretch:normal;font-size:2.82222px;font-family:Quarca;-inkscape-font-specification:Quarca;text-align:start;text-anchor:start;fill:#dddddd;fill-opacity:1;stroke-width:0.264583"
         d="m 45.421161,77.080238 h 0.160867 v -0.804332 h 0.36971 l 0.561622,0.804332 h 0.189089 l -0.564444,-0.804332 h 0.03951 c 0.268111,0 0.397933,-0.127 0.397933,-0.381 v -0.437444 c 0,-0.254 -0.129822,-0.381 -0.397933,-0.381 h -0.756355 z m 0.160867,-1.851376 h 0.567266 c 0.180622,0 0.262466,0.08467 0.262466,0.276578 v 0.341488 c 0,0.194733 -0.08184,0.2794 -0.262466,0.2794 h -0.567266 z" />
      <path
         id="path15554"
         style="font-style:normal;font-variant:normal;font-weight:normal;font-stretch:normal;font-size:2.82222px;font-family:Quarca;-inkscape-font-specification:Quarca;text-align:start;text-anchor:start;fill:#dddddd;fill-opacity:1;stroke-width:0.264583"
         d="m 47.400243,75.076462 -0.618066,2.003776 h 0.172155 l 0.129822,-0.434622 h 0.807155 l 0.129822,0.434622 h 0.172156 l -0.615244,-2.003776 z m 0.09031,0.214489 0.3556,1.202266 H 47.12931 Z" />
      <path
         id="path15556"
         style="font-style:normal;font-variant:normal;font-weight:normal;font-stretch:normal;font-size:2.82222px;font-family:Quarca;-inkscape-font-specification:Quarca;text-align:start;text-anchor:start;fill:#dddddd;fill-opacity:1;stroke-width:0.264583"
         d="m 48.597172,77.080238 v -1.724376 c 0.04233,0.09313 0.07902,0.186266 0.146756,0.301977 l 0.824088,1.422399 h 0.163689 v -2.003776 h -0.163689 v 1.721554 c -0.03104,-0.07338 -0.05927,-0.143933 -0.112889,-0.237066 l -0.857955,-1.484488 h -0.160866 v 2.003776 z" />
      <path
         id="path15558"
         style="font-style:normal;font-variant:normal;font-weight:normal;font-stretch:normal;font-size:2.82222px;font-family:Quarca;-inkscape-font-specification:Quarca;text-align:start;text-anchor:start;fill:#dddddd;fill-opacity:1;stroke-width:0.264583"
         d="m 50.718777,76.264617 h 0.482599 v 0.420511 c 0,0.163688 -0.06773,0.24271 -0.248355,0.24271 H 50.50711 c -0.166511,0 -0.245533,-0.0762 -0.245533,-0.256822 V 75.50544 c 0,-0.191911 0.06491,-0.276578 0.231422,-0.276578 h 0.4826 c 0.166511,0 0.239888,0.0762 0.239888,0.256822 v 0.180622 h 0.160867 v -0.2286 c 0,-0.251177 -0.124178,-0.361244 -0.364066,-0.361244 h -0.572911 c -0.225778,0 -0.338666,0.127 -0.338666,0.381 v 1.264354 c 0,0.254 0.141111,0.358422 0.366888,0.358422 h 0.524933 c 0.2794,0 0.372533,-0.138288 0.372533,-0.380999 v -0.587022 h -0.62371 z" />
      <path
         id="path15560"
         style="font-style:normal;font-variant:normal;font-weight:normal;font-stretch:normal;font-size:2.82222px;font-family:Quarca;-inkscape-font-specification:Quarca;text-align:start;text-anchor:start;fill:#dddddd;fill-opacity:1;stroke-width:0.264583"
         d="m 51.871389,75.228862 h 0.905933 l 0.02258,-0.1524 h -1.089377 v 2.003776 h 1.072443 l 0.02258,-0.1524 h -0.934155 v -0.612421 h 0.759177 l 0.02258,-0.149578 h -0.781755 z" />
    </g>
    <g
       style="font-style:normal;font-variant:normal;font-weight:normal;font-stretch:normal;font-size:3.52778px;line-height:1.25;font-family:Quarca;-inkscape-font-specification:Quarca;text-align:center;letter-spacing:0px;word-spacing:0px;text-anchor:middle;fill:#dddddf;fill-opacity:1;stroke:none;stroke-width:0.264583"
       id="text303-0"
       aria-label="Fc">
      <path
         id="path15537"
         style="font-style:normal;font-variant:normal;font-weight:normal;font-stretch:normal;font-size:2.11667px;font-family:Quarca;-inkscape-font-specification:Quarca;fill:#dddddf;fill-opacity:1;stroke-width:0.264583"
         d="m 50.769903,91.080756 h 0.673101 l 0.01693,-0.1143 h -0.810684 v 1.502836 h 0.12065 v -0.573618 h 0.533401 l 0.01693,-0.112183 h -0.550334 z" />
      <path
         id="path15539"
         style="font-style:normal;font-variant:normal;font-weight:normal;font-stretch:normal;font-size:2.11667px;font-family:Quarca;-inkscape-font-specification:Quarca;fill:#dddddf;fill-opacity:1;stroke-width:0.264583"
         d="m 51.975942,91.49774 c 0.129117,0 0.175683,0.0635 0.175683,0.192617 v 0.06773 h 0.10795 v -0.08678 c 0,-0.186267 -0.06562,-0.2794 -0.264583,-0.2794 h -0.188384 c -0.207434,0 -0.277284,0.09525 -0.277284,0.28575 v 0.520701 c 0,0.179917 0.08043,0.270934 0.277284,0.270934 h 0.188384 c 0.186267,0 0.264583,-0.07197 0.264583,-0.256117 v -0.09525 h -0.10795 v 0.07197 c 0,0.129117 -0.0381,0.171451 -0.1778,0.171451 h -0.154517 c -0.12065,0 -0.173567,-0.04868 -0.173567,-0.190501 v -0.480484 c 0,-0.129117 0.04445,-0.192617 0.173567,-0.192617 z" />
    </g>
    <g
       style="font-style:normal;font-variant:normal;font-weight:normal;font-stretch:normal;font-size:3.52778px;line-height:1.25;font-family:Quarca;-inkscape-font-specification:Quarca;text-align:center;letter-spacing:0px;word-spacing:0px;text-anchor:middle;fill:#dddddf;fill-opacity:1;stroke:none;stroke-width:0.264583"
       id="text303-0-9"
       aria-label="AMPLITUDE">
      <path
         id="path15518"
         style="font-style:normal;font-variant:normal;font-weight:normal;font-stretch:normal;font-size:2.11667px;font-family:Quarca;-inkscape-font-specification:Quarca;fill:#dddddf;fill-opacity:1;stroke-width:0.264583"
         d="m 72.744962,90.96641 -0.46355,1.502836 h 0.129116 l 0.09737,-0.325967 h 0.605368 l 0.09737,0.325967 h 0.129117 L 72.878313,90.96641 Z m 0.06773,0.160867 0.2667,0.901702 h -0.537634 z" />
      <path
         id="path15520"
         style="font-style:normal;font-variant:normal;font-weight:normal;font-stretch:normal;font-size:2.11667px;font-family:Quarca;-inkscape-font-specification:Quarca;fill:#dddddf;fill-opacity:1;stroke-width:0.264583"
         d="m 73.638429,92.469246 v -1.308102 l 0.37465,0.732368 h 0.118534 l 0.376767,-0.732368 v 1.308102 h 0.116417 V 90.96641 h -0.143934 l -0.408517,0.797985 -0.406401,-0.797985 h -0.143933 v 1.502836 z" />
      <path
         id="path15522"
         style="font-style:normal;font-variant:normal;font-weight:normal;font-stretch:normal;font-size:2.11667px;font-family:Quarca;-inkscape-font-specification:Quarca;fill:#dddddf;fill-opacity:1;stroke-width:0.264583"
         d="m 75.027592,91.851178 h 0.474135 c 0.188383,0 0.28575,-0.09525 0.28575,-0.283633 v -0.317501 c 0,-0.188384 -0.09737,-0.283634 -0.28575,-0.283634 h -0.594785 v 1.502836 h 0.12065 z m 0,-0.770468 h 0.457201 c 0.122767,0 0.179917,0.05715 0.179917,0.192617 v 0.270934 c 0,0.135467 -0.05715,0.192617 -0.179917,0.192617 h -0.457201 z" />
      <path
         id="path15524"
         style="font-style:normal;font-variant:normal;font-weight:normal;font-stretch:normal;font-size:2.11667px;font-family:Quarca;-inkscape-font-specification:Quarca;fill:#dddddf;fill-opacity:1;stroke-width:0.264583"
         d="m 76.131403,90.96641 h -0.12065 v 1.502836 h 0.770467 l 0.01693,-0.1143 h -0.666751 z" />
      <path
         id="path15526"
         style="font-style:normal;font-variant:normal;font-weight:normal;font-stretch:normal;font-size:2.11667px;font-family:Quarca;-inkscape-font-specification:Quarca;fill:#dddddf;fill-opacity:1;stroke-width:0.264583"
         d="M 77.08225,92.469246 V 90.96641 H 76.9616 v 1.502836 z" />
      <path
         id="path15528"
         style="font-style:normal;font-variant:normal;font-weight:normal;font-stretch:normal;font-size:2.11667px;font-family:Quarca;-inkscape-font-specification:Quarca;fill:#dddddf;fill-opacity:1;stroke-width:0.264583"
         d="m 78.139328,91.08071 v -0.1143 H 77.24821 v 0.1143 h 0.385234 v 1.388536 h 0.122767 V 91.08071 Z" />
      <path
         id="path15530"
         style="font-style:normal;font-variant:normal;font-weight:normal;font-stretch:normal;font-size:2.11667px;font-family:Quarca;-inkscape-font-specification:Quarca;fill:#dddddf;fill-opacity:1;stroke-width:0.264583"
         d="m 78.90209,92.354946 h -0.270933 c -0.146051,0 -0.209551,-0.06773 -0.209551,-0.222251 V 90.96641 h -0.12065 v 1.200152 c 0,0.201084 0.09313,0.302684 0.304801,0.302684 h 0.321733 c 0.211667,0 0.304801,-0.1016 0.304801,-0.302684 V 90.96641 h -0.122767 v 1.166285 c 0,0.154517 -0.06138,0.222251 -0.207434,0.222251 z" />
      <path
         id="path15532"
         style="font-style:normal;font-variant:normal;font-weight:normal;font-stretch:normal;font-size:2.11667px;font-family:Quarca;-inkscape-font-specification:Quarca;fill:#dddddf;fill-opacity:1;stroke-width:0.264583"
         d="m 79.512353,92.469246 h 0.588434 c 0.264584,0 0.372534,-0.116417 0.372534,-0.355601 v -0.791634 c 0,-0.239184 -0.10795,-0.355601 -0.372534,-0.355601 h -0.588434 z m 0.582084,-0.1143 H 79.633003 V 91.08071 h 0.461434 c 0.18415,0 0.258234,0.08255 0.258234,0.266701 v 0.740834 c 0,0.184151 -0.07408,0.266701 -0.258234,0.266701 z" />
      <path
         id="path15534"
         style="font-style:normal;font-variant:normal;font-weight:normal;font-stretch:normal;font-size:2.11667px;font-family:Quarca;-inkscape-font-specification:Quarca;fill:#dddddf;fill-opacity:1;stroke-width:0.264583"
         d="m 80.869106,91.08071 h 0.679451 l 0.01693,-0.1143 h -0.817035 v 1.502836 h 0.804335 l 0.01693,-0.1143 h -0.700617 v -0.459318 h 0.569384 l 0.01693,-0.112183 h -0.586317 z" />
    </g>
    <g
       style="font-style:normal;font-variant:normal;font-weight:bold;font-stretch:normal;font-size:13.3333px;line-height:1.25;font-family:Consolas;-inkscape-font-specification:'Consolas Bold';text-align:center;letter-spacing:0px;word-spacing:0px;text-anchor:middle;fill:#ffffff;fill-opacity:1;stroke:none"
       id="flowRoot1227" />
    <g
       style="font-style:normal;font-variant:normal;font-weight:normal;font-stretch:normal;font-size:3.52778px;line-height:1.25;font-family:Quarca;-inkscape-font-specification:Quarca;text-align:center;letter-spacing:0px;word-spacing:0px;text-anchor:middle;fill:#dddddf;fill-opacity:1;stroke:none;stroke-width:0.264583"
       id="text303-5"
       aria-label="1">
      <path
         id="path15514"
         style="font-style:normal;font-variant:normal;font-weight:normal;font-stretch:normal;font-size:2.82222px;font-family:Quarca;-inkscape-font-specification:Quarca;fill:#dddddf;fill-opacity:1;stroke-width:0.264583"
         d="m 37.288452,97.220261 h 0.160867 v -2.003777 h -0.143933 l -0.262467,0.186267 v 0.169333 l 0.245533,-0.1778 z" />
    </g>
    <g
       style="font-style:normal;font-variant:normal;font-weight:normal;font-stretch:normal;font-size:3.52778px;line-height:1.25;font-family:Quarca;-inkscape-font-specification:Quarca;text-align:center;letter-spacing:0px;word-spacing:0px;text-anchor:middle;fill:#dddddf;fill-opacity:1;stroke:none;stroke-width:0.264583"
       id="text303-5-0"
       aria-label="2">
      <path
         id="path15511"
         style="font-style:normal;font-variant:normal;font-weight:normal;font-stretch:normal;font-size:2.82222px;font-family:Quarca;-inkscape-font-specification:Quarca;fill:#dddddf;fill-opacity:1;stroke-width:0.264583"
         d="m 37.557108,106.32827 h -0.646289 v -0.28787 c 0,-0.14111 0.06209,-0.23142 0.180622,-0.28504 l 0.592667,-0.26529 c 0.1524,-0.0677 0.253999,-0.16369 0.253999,-0.36407 v -0.25964 c 0,-0.25965 -0.09878,-0.38947 -0.389466,-0.38947 h -0.403577 c -0.287867,0 -0.389467,0.12982 -0.389467,0.38947 v 0.20037 h 0.163689 v -0.17497 c 0,-0.1778 0.06209,-0.26247 0.242711,-0.26247 h 0.372533 c 0.1778,0 0.239889,0.0847 0.239889,0.26247 v 0.20884 c 0,0.11853 -0.03104,0.19756 -0.146756,0.24836 l -0.595488,0.26529 c -0.163689,0.0734 -0.285044,0.18344 -0.285044,0.4064 v 0.46002 h 0.824088 c 0.290689,0 0.389466,-0.12983 0.389466,-0.38947 v -0.21449 h -0.163689 v 0.18909 c 0,0.1778 -0.06209,0.26247 -0.239888,0.26247 z" />
    </g>
    <g
       style="font-style:normal;font-variant:normal;font-weight:normal;font-stretch:normal;font-size:3.52778px;line-height:1.25;font-family:Quarca;-inkscape-font-specification:Quarca;text-align:center;letter-spacing:0px;word-spacing:0px;text-anchor:middle;fill:#dddddf;fill-opacity:1;stroke:none;stroke-width:0.264583"
       id="text303-5-8"
       aria-label="5">
      <path
         id="path15508"
         style="font-style:normal;font-variant:normal;font-weight:normal;font-stretch:normal;font-size:2.82222px;font-family:Quarca;-inkscape-font-specification:Quarca;fill:#dddddf;fill-opacity:1;stroke-width:0.264583"
         d="m 37.517464,134.10943 h -0.372533 c -0.1778,0 -0.242711,-0.0847 -0.242711,-0.26247 v -0.18909 h -0.160866 v 0.21449 c 0,0.25964 0.09878,0.38947 0.386644,0.38947 h 0.4064 c 0.287866,0 0.386644,-0.12983 0.386644,-0.38947 v -0.45438 c 0,-0.25682 -0.121356,-0.381 -0.381,-0.381 h -0.578555 v -0.62653 h 0.911577 l 0.02258,-0.1524 h -1.097844 v 0.93133 h 0.7112 c 0.174977,0 0.251177,0.0875 0.251177,0.2794 v 0.37818 c 0,0.1778 -0.06491,0.26247 -0.242711,0.26247 z" />
    </g>
    <g
       style="font-style:normal;font-variant:normal;font-weight:normal;font-stretch:normal;font-size:3.52778px;line-height:1.25;font-family:Quarca;-inkscape-font-specification:Quarca;text-align:center;letter-spacing:0px;word-spacing:0px;text-anchor:middle;fill:#dddddf;fill-opacity:1;stroke:none;stroke-width:0.264583"
       id="text303-5-4"
       aria-label="4">
      <path
         id="path15505"
         style="font-style:normal;font-variant:normal;font-weight:normal;font-stretch:normal;font-size:2.82222px;font-family:Quarca;-inkscape-font-specification:Quarca;fill:#dddddf;fill-opacity:1;stroke-width:0.264583"
         d="m 36.668902,124.62331 h 0.917222 v 0.37818 h 0.160866 v -0.37818 h 0.287867 l 0.02258,-0.1524 H 37.74699 v -0.57009 h -0.03669 l -0.124177,0.0311 v 0.53904 h -0.756355 v -0.31327 c 0,-0.0847 0.0254,-0.16933 0.09596,-0.25117 l 0.7874,-0.90876 h -0.197556 l -0.733777,0.84102 c -0.06773,0.0762 -0.112889,0.18063 -0.112889,0.30198 z" />
    </g>
    <g
       style="font-style:normal;font-variant:normal;font-weight:normal;font-stretch:normal;font-size:3.52778px;line-height:1.25;font-family:Quarca;-inkscape-font-specification:Quarca;text-align:center;letter-spacing:0px;word-spacing:0px;text-anchor:middle;fill:#dddddf;fill-opacity:1;stroke:none;stroke-width:0.264583"
       id="text303-5-9"
       aria-label="3">
      <path
         id="path15502"
         style="font-style:normal;font-variant:normal;font-weight:normal;font-stretch:normal;font-size:2.82222px;font-family:Quarca;-inkscape-font-specification:Quarca;fill:#dddddf;fill-opacity:1;stroke-width:0.264583"
         d="m 37.524299,115.58867 h -0.440266 c -0.1778,0 -0.239889,-0.0847 -0.239889,-0.26246 v -0.18062 h -0.163688 v 0.20602 c 0,0.25964 0.1016,0.38946 0.389466,0.38946 h 0.471311 c 0.285044,0 0.386644,-0.12982 0.386644,-0.38946 v -0.36407 c 0,-0.20038 -0.129822,-0.26247 -0.254,-0.27375 0.09031,-0.0169 0.169333,-0.0875 0.169333,-0.23425 v -0.36124 c 0,-0.254 -0.09878,-0.381 -0.380999,-0.381 h -0.335845 c -0.287866,0 -0.389466,0.12982 -0.389466,0.38946 v 0.20038 h 0.163689 v -0.17498 c 0,-0.1778 0.06209,-0.26246 0.239889,-0.26246 h 0.299155 c 0.174977,0 0.239889,0.0847 0.239889,0.26246 v 0.28787 c 0,0.12418 -0.06209,0.2032 -0.2032,0.2032 h -0.414867 v 0.1524 h 0.460022 c 0.124178,0 0.242711,0.0621 0.242711,0.22013 v 0.31045 c 0,0.1778 -0.06209,0.26246 -0.239889,0.26246 z" />
    </g>
    <g
       style="font-style:normal;font-variant:normal;font-weight:normal;font-stretch:normal;font-size:3.52778px;line-height:1.25;font-family:Quarca;-inkscape-font-specification:Quarca;text-align:center;letter-spacing:0px;word-spacing:0px;text-anchor:middle;fill:#dddddd;fill-opacity:1;stroke:none;stroke-width:0.264583"
       id="text299-7"
       aria-label="VOWEL 2">
      <path
         id="path15489"
         style="font-style:normal;font-variant:normal;font-weight:normal;font-stretch:normal;font-size:2.82222px;font-family:Quarca;-inkscape-font-specification:Quarca;fill:#dddddd;fill-opacity:1;stroke-width:0.264583"
         d="m 74.63419,57.617905 0.570088,-2.003777 h -0.172155 l -0.468489,1.696155 c -0.0085,0.03951 -0.01693,0.08184 -0.01975,0.118533 -0.0056,-0.03669 -0.01129,-0.07902 -0.02258,-0.118533 l -0.468489,-1.696155 h -0.172155 l 0.572911,2.003777 z" />
      <path
         id="path15491"
         style="font-style:normal;font-variant:normal;font-weight:normal;font-stretch:normal;font-size:2.82222px;font-family:Quarca;-inkscape-font-specification:Quarca;fill:#dddddd;fill-opacity:1;stroke-width:0.264583"
         d="m 75.454133,57.228438 c 0,0.259645 0.09878,0.389467 0.386644,0.389467 h 0.536222 c 0.287866,0 0.386644,-0.129822 0.386644,-0.389467 v -1.224843 c 0,-0.259644 -0.09878,-0.389467 -0.386644,-0.389467 h -0.536222 c -0.287866,0 -0.386644,0.129823 -0.386644,0.389467 z m 0.403577,-1.46191 h 0.502356 c 0.180622,0 0.242711,0.08467 0.242711,0.262467 v 1.174043 c 0,0.1778 -0.06209,0.262467 -0.242711,0.262467 H 75.85771 c -0.177799,0 -0.24271,-0.08467 -0.24271,-0.262467 v -1.174043 c 0,-0.1778 0.06491,-0.262467 0.24271,-0.262467 z" />
      <path
         id="path15493"
         style="font-style:normal;font-variant:normal;font-weight:normal;font-stretch:normal;font-size:2.82222px;font-family:Quarca;-inkscape-font-specification:Quarca;fill:#dddddd;fill-opacity:1;stroke-width:0.264583"
         d="m 77.73969,57.617905 0.361244,-1.622777 c 0.0085,-0.02822 0.01129,-0.07338 0.01129,-0.110066 0.0028,0.03669 0.0085,0.08184 0.01693,0.110066 l 0.364066,1.622777 h 0.180622 l 0.536222,-2.003777 h -0.163689 l -0.423333,1.642532 c -0.01411,0.05927 -0.02822,0.110067 -0.03387,0.166511 -0.0056,-0.05644 -0.01976,-0.110066 -0.03104,-0.169333 l -0.364066,-1.63971 h -0.160867 l -0.361244,1.63971 c -0.01129,0.05927 -0.02258,0.115711 -0.02822,0.174978 -0.01129,-0.05927 -0.0254,-0.118533 -0.03951,-0.1778 l -0.420511,-1.636888 h -0.166511 l 0.539044,2.003777 z" />
      <path
         id="path15495"
         style="font-style:normal;font-variant:normal;font-weight:normal;font-stretch:normal;font-size:2.82222px;font-family:Quarca;-inkscape-font-specification:Quarca;fill:#dddddd;fill-opacity:1;stroke-width:0.264583"
         d="m 79.633621,55.766528 h 0.905932 l 0.02258,-0.1524 h -1.089377 v 2.003777 h 1.072444 l 0.02258,-0.1524 h -0.934154 v -0.612422 h 0.759177 l 0.02258,-0.149578 h -0.781754 z" />
      <path
         id="path15497"
         style="font-style:normal;font-variant:normal;font-weight:normal;font-stretch:normal;font-size:2.82222px;font-family:Quarca;-inkscape-font-specification:Quarca;fill:#dddddd;fill-opacity:1;stroke-width:0.264583"
         d="m 80.989609,55.614128 h -0.160867 v 2.003777 h 1.027289 l 0.02258,-0.1524 h -0.888999 z" />
      <path
         id="path15499"
         style="font-style:normal;font-variant:normal;font-weight:normal;font-stretch:normal;font-size:2.82222px;font-family:Quarca;-inkscape-font-specification:Quarca;fill:#dddddd;fill-opacity:1;stroke-width:0.264583"
         d="m 83.365521,57.465505 h -0.646288 v -0.287867 c 0,-0.141111 0.06209,-0.231422 0.180622,-0.285044 l 0.592666,-0.265289 c 0.1524,-0.06773 0.254,-0.163688 0.254,-0.364066 v -0.259644 c 0,-0.259644 -0.09878,-0.389467 -0.389467,-0.389467 h -0.403577 c -0.287866,0 -0.389466,0.129823 -0.389466,0.389467 v 0.200377 h 0.163688 v -0.174977 c 0,-0.1778 0.06209,-0.262467 0.242711,-0.262467 h 0.372533 c 0.1778,0 0.239889,0.08467 0.239889,0.262467 v 0.208844 c 0,0.118533 -0.03104,0.197555 -0.146755,0.248355 l -0.595489,0.265289 c -0.163689,0.07338 -0.285044,0.183444 -0.285044,0.4064 v 0.460022 h 0.824088 c 0.290689,0 0.389467,-0.129822 0.389467,-0.389467 V 57.01395 H 83.60541 v 0.189088 c 0,0.1778 -0.06209,0.262467 -0.239889,0.262467 z" />
    </g>
    <g
       style="font-style:normal;font-variant:normal;font-weight:bold;font-stretch:normal;font-size:13.3333px;line-height:1.25;font-family:Consolas;-inkscape-font-specification:'Consolas Bold';text-align:center;letter-spacing:0px;word-spacing:0px;text-anchor:middle;fill:#000000;fill-opacity:1;stroke:none"
       id="flowRoot5298" />
    <g
       style="font-style:normal;font-variant:normal;font-weight:normal;font-stretch:normal;font-size:3.52778px;line-height:1.25;font-family:Quarca;-inkscape-font-specification:Quarca;text-align:center;letter-spacing:0px;word-spacing:0px;text-anchor:middle;fill:#dddddd;fill-opacity:1;stroke:none;stroke-width:0.264583"
       id="text299-9"
       aria-label="BALANCE">
      <path
         id="path15473"
         style="font-style:normal;font-variant:normal;font-weight:normal;font-stretch:normal;font-size:2.82222px;font-family:Quarca;-inkscape-font-specification:Quarca;fill:#dddddd;fill-opacity:1;stroke-width:0.264583"
         d="m 57.282078,57.342484 h 0.784577 c 0.301977,0 0.437444,-0.129823 0.437444,-0.389467 v -0.273755 c 0,-0.273756 -0.146755,-0.372533 -0.327378,-0.386644 0.1524,-0.03104 0.222956,-0.132645 0.222956,-0.318911 v -0.245533 c 0,-0.259645 -0.149578,-0.389467 -0.465666,-0.389467 h -0.651933 z m 0.160866,-0.970844 h 0.536222 c 0.251178,0 0.364066,0.09596 0.364066,0.316088 v 0.234245 c 0,0.180622 -0.09313,0.268111 -0.301977,0.268111 h -0.598311 z m 0,-0.880533 h 0.454378 c 0.234244,0 0.341488,0.07902 0.341488,0.273755 v 0.197556 c 0,0.160866 -0.08749,0.259644 -0.285044,0.259644 h -0.510822 z" />
      <path
         id="path15475"
         style="font-style:normal;font-variant:normal;font-weight:normal;font-stretch:normal;font-size:2.82222px;font-family:Quarca;-inkscape-font-specification:Quarca;fill:#dddddd;fill-opacity:1;stroke-width:0.264583"
         d="m 59.266672,55.338707 -0.618067,2.003777 h 0.172156 l 0.129822,-0.434622 h 0.807155 l 0.129822,0.434622 h 0.172155 l -0.615243,-2.003777 z m 0.09031,0.214489 0.355599,1.202266 h -0.716843 z" />
      <path
         id="path15477"
         style="font-style:normal;font-variant:normal;font-weight:normal;font-stretch:normal;font-size:2.82222px;font-family:Quarca;-inkscape-font-specification:Quarca;fill:#dddddd;fill-opacity:1;stroke-width:0.264583"
         d="m 60.463602,55.338707 h -0.160867 v 2.003777 h 1.027288 l 0.02258,-0.1524 h -0.888999 z" />
      <path
         id="path15479"
         style="font-style:normal;font-variant:normal;font-weight:normal;font-stretch:normal;font-size:2.82222px;font-family:Quarca;-inkscape-font-specification:Quarca;fill:#dddddd;fill-opacity:1;stroke-width:0.264583"
         d="m 62.050307,55.338707 -0.618066,2.003777 h 0.172155 l 0.129822,-0.434622 h 0.807155 l 0.129822,0.434622 h 0.172156 l -0.615244,-2.003777 z m 0.09031,0.214489 0.3556,1.202266 h -0.716844 z" />
      <path
         id="path15481"
         style="font-style:normal;font-variant:normal;font-weight:normal;font-stretch:normal;font-size:2.82222px;font-family:Quarca;-inkscape-font-specification:Quarca;fill:#dddddd;fill-opacity:1;stroke-width:0.264583"
         d="m 63.247237,57.342484 v -1.724377 c 0.04233,0.09313 0.07902,0.186267 0.146755,0.301978 l 0.824089,1.422399 h 0.163688 v -2.003777 h -0.163688 v 1.721555 c -0.03104,-0.07338 -0.05927,-0.143934 -0.112889,-0.237067 L 63.247237,55.338707 H 63.08637 v 2.003777 z" />
      <path
         id="path15483"
         style="font-style:normal;font-variant:normal;font-weight:normal;font-stretch:normal;font-size:2.82222px;font-family:Quarca;-inkscape-font-specification:Quarca;fill:#dddddd;fill-opacity:1;stroke-width:0.264583"
         d="m 65.154352,57.190084 c -0.1778,0 -0.242711,-0.08467 -0.242711,-0.262467 v -1.174043 c 0,-0.1778 0.06491,-0.262467 0.242711,-0.262467 h 0.4572 c 0.1778,0 0.242711,0.08467 0.242711,0.262467 v 0.183444 h 0.160866 v -0.208844 c 0,-0.259645 -0.09878,-0.389467 -0.386644,-0.389467 h -0.491066 c -0.287867,0 -0.386644,0.129822 -0.386644,0.389467 v 1.224843 c 0,0.259644 0.09878,0.389467 0.386644,0.389467 h 0.491066 c 0.287866,0 0.386644,-0.129823 0.386644,-0.389467 v -0.214489 h -0.160866 v 0.189089 c 0,0.1778 -0.06491,0.262467 -0.242711,0.262467 z" />
      <path
         id="path15485"
         style="font-style:normal;font-variant:normal;font-weight:normal;font-stretch:normal;font-size:2.82222px;font-family:Quarca;-inkscape-font-specification:Quarca;fill:#dddddd;fill-opacity:1;stroke-width:0.264583"
         d="m 66.48838,55.491107 h 0.905933 l 0.02258,-0.1524 h -1.089377 v 2.003777 h 1.072443 l 0.02258,-0.1524 H 66.48838 v -0.612422 h 0.759177 l 0.02258,-0.149578 H 66.48838 Z" />
    </g>
    <g
       style="font-style:normal;font-variant:normal;font-weight:normal;font-stretch:normal;font-size:3.52778px;line-height:1.25;font-family:Quarca;-inkscape-font-specification:Quarca;text-align:center;letter-spacing:0px;word-spacing:0px;text-anchor:middle;fill:#dddddd;fill-opacity:1;stroke:none;stroke-width:0.264583"
       id="text299-5-7"
       aria-label="Fc">
      <path
         id="path15468"
         style="font-style:normal;font-variant:normal;font-weight:normal;font-stretch:normal;font-size:2.82222px;font-family:Quarca;-inkscape-font-specification:Quarca;fill:#dddddd;fill-opacity:1;stroke-width:0.264583"
         d="m 75.105058,75.228847 h 0.897466 l 0.02258,-0.1524 h -1.08091 v 2.003776 h 0.160866 v -0.764822 h 0.7112 l 0.02258,-0.149577 h -0.733777 z" />
      <path
         id="path15470"
         style="font-style:normal;font-variant:normal;font-weight:normal;font-stretch:normal;font-size:2.82222px;font-family:Quarca;-inkscape-font-specification:Quarca;fill:#dddddd;fill-opacity:1;stroke-width:0.264583"
         d="m 76.713106,75.784824 c 0.172156,0 0.234245,0.08467 0.234245,0.256822 v 0.09031 h 0.143933 v -0.115711 c 0,-0.248355 -0.08749,-0.372533 -0.352778,-0.372533 h -0.251177 c -0.276578,0 -0.369711,0.127 -0.369711,0.381 v 0.694266 c 0,0.239889 0.107244,0.361244 0.369711,0.361244 h 0.251177 c 0.248356,0 0.352778,-0.09596 0.352778,-0.341489 v -0.126999 h -0.143933 v 0.09596 c 0,0.172155 -0.0508,0.2286 -0.237067,0.2286 h -0.206022 c -0.160867,0 -0.231422,-0.06491 -0.231422,-0.254 v -0.640644 c 0,-0.172155 0.05927,-0.256822 0.231422,-0.256822 z" />
    </g>
    <path
       d="m 46.126522,58.591087 h 6.217708 v 6.879167 h -6.217708 z"
       style="opacity:0.981;fill:#b1b1b1;fill-opacity:1;stroke:none;stroke-width:0.574432;stroke-miterlimit:4;stroke-dasharray:none;stroke-opacity:1"
       id="rect1673-8" />
    <path
       d="m 46.377079,58.850945 h 5.706204 v 6.361014 h -5.706204 z"
       style="opacity:0.981;fill:#000000;fill-opacity:1;stroke:none;stroke-width:0.529167;stroke-miterlimit:4;stroke-dasharray:none;stroke-opacity:1"
       id="rect1673" />
    <path
       d="m 81.051521,58.591087 h 6.217708 v 6.879167 h -6.217708 z"
       style="opacity:0.981;fill:#b1b1b1;fill-opacity:1;stroke:none;stroke-width:0.574432;stroke-miterlimit:4;stroke-dasharray:none;stroke-opacity:1"
       id="rect1673-8-3" />
    <path
       d="m 81.261208,58.871113 h 5.706204 v 6.361015 h -5.706204 z"
       style="opacity:0.981;fill:#000000;fill-opacity:1;stroke:none;stroke-width:0.529167;stroke-miterlimit:4;stroke-dasharray:none;stroke-opacity:1"
       id="rect1673-2" />
    <path
       d="m 45.332771,78.170258 h 20.637501 v 6.879166 H 45.332771 Z"
       style="opacity:0.981;fill:#b1b1b1;fill-opacity:1;stroke:none;stroke-width:1.04653;stroke-miterlimit:4;stroke-dasharray:none;stroke-opacity:1"
       id="rect1673-8-7" />
    <path
       d="m 45.585686,78.430206 h 20.108333 v 6.361 H 45.585686 Z"
       style="opacity:0.981;fill:#000000;fill-opacity:1;stroke:none;stroke-width:0.571385;stroke-miterlimit:4;stroke-dasharray:none;stroke-opacity:1"
       id="rect1673-6" />
  </g>
</svg>
