<?xml version="1.0" encoding="UTF-8" standalone="no"?>
<!-- Created with Inkscape (http://www.inkscape.org/) -->

<svg
   xmlns:dc="http://purl.org/dc/elements/1.1/"
   xmlns:cc="http://creativecommons.org/ns#"
   xmlns:rdf="http://www.w3.org/1999/02/22-rdf-syntax-ns#"
   xmlns:svg="http://www.w3.org/2000/svg"
   xmlns="http://www.w3.org/2000/svg"
   xmlns:sodipodi="http://sodipodi.sourceforge.net/DTD/sodipodi-0.dtd"
   xmlns:inkscape="http://www.inkscape.org/namespaces/inkscape"
   width="20"
   height="20"
   viewBox="0 0 5.2916664 5.2916666"
   version="1.1"
   id="svg111794"
   inkscape:version="0.92.2 (5c3e80d, 2017-08-06)"
   sodipodi:docname="RoundReallySmallFWKnob.svg">
  <defs
     id="defs111788" />
  <sodipodi:namedview
     id="base"
     pagecolor="#ffffff"
     bordercolor="#666666"
     borderopacity="1.0"
     inkscape:pageopacity="0.0"
     inkscape:pageshadow="2"
     inkscape:zoom="15.839192"
     inkscape:cx="-11.252095"
     inkscape:cy="15.425599"
     inkscape:document-units="px"
     inkscape:current-layer="layer1"
     showgrid="false"
     fit-margin-top="0"
     fit-margin-left="0"
     fit-margin-right="0"
     fit-margin-bottom="0"
     inkscape:window-width="2560"
     inkscape:window-height="1422"
     inkscape:window-x="0"
     inkscape:window-y="18"
     inkscape:window-maximized="0"
     units="px" />
  <metadata
     id="metadata111791">
    <rdf:RDF>
      <cc:Work
         rdf:about="">
        <dc:format>image/svg+xml</dc:format>
        <dc:type
           rdf:resource="http://purl.org/dc/dcmitype/StillImage" />
        <dc:title></dc:title>
      </cc:Work>
    </rdf:RDF>
  </metadata>
  <g
     inkscape:label="Layer 1"
     inkscape:groupmode="layer"
     id="layer1"
     transform="translate(-168.09312,-70.104446)">
    <path
       inkscape:connector-curvature="0"
       style="fill:#505050;fill-opacity:1;fill-rule:nonzero;stroke:none;stroke-width:0.23336205"
       d="m 173.38479,72.750734 c 0,1.461248 -1.18413,2.645378 -2.64537,2.645378 -1.46126,0 -2.6463,-1.18413 -2.6463,-2.645378 0,-1.462158 1.18504,-2.646288 2.6463,-2.646288 1.46124,0 2.64537,1.18413 2.64537,2.646288"
       id="path110598" />
    <path
       inkscape:connector-curvature="0"
       style="fill:#000000;fill-opacity:1;fill-rule:nonzero;stroke:none;stroke-width:0.21002565"
       d="m 173.1202,72.750689 c 0,1.315123 -1.06572,2.38084 -2.38083,2.38084 -1.31514,0 -2.38167,-1.065717 -2.38167,-2.38084 0,-1.315942 1.06653,-2.38166 2.38167,-2.38166 1.31511,0 2.38083,1.065718 2.38083,2.38166"
       id="path110598-9" />
    <path
       inkscape:connector-curvature="0"
       style="fill:#ffffff;fill-opacity:1;fill-rule:evenodd;stroke:none;stroke-width:0.28439662"
       d="m 170.87124,70.096967 c -0.0425,-0.0063 -0.0864,-0.0099 -0.1316,-0.0099 -0.0453,0 -0.0891,0.0036 -0.13298,0.0099 v 2.635923 h 0.26458 z m 0,0"
       id="path110600" />
  </g>
</svg>
