<?xml version="1.0" encoding="UTF-8" standalone="no"?>
<!-- Created with Inkscape (http://www.inkscape.org/) -->

<svg
   xmlns:dc="http://purl.org/dc/elements/1.1/"
   xmlns:cc="http://creativecommons.org/ns#"
   xmlns:rdf="http://www.w3.org/1999/02/22-rdf-syntax-ns#"
   xmlns:svg="http://www.w3.org/2000/svg"
   xmlns="http://www.w3.org/2000/svg"
   xmlns:sodipodi="http://sodipodi.sourceforge.net/DTD/sodipodi-0.dtd"
   xmlns:inkscape="http://www.inkscape.org/namespaces/inkscape"
   width="7.9995098mm"
   height="7.9995222mm"
   viewBox="0 0 7.9995093 7.9995222"
   version="1.1"
   id="svg111794"
   inkscape:version="0.92.2 (5c3e80d, 2017-08-06)"
   sodipodi:docname="RoundSmallFWKnob.svg">
  <defs
     id="defs111788" />
  <sodipodi:namedview
     id="base"
     pagecolor="#ffffff"
     bordercolor="#666666"
     borderopacity="1.0"
     inkscape:pageopacity="0.0"
     inkscape:pageshadow="2"
     inkscape:zoom="15.839192"
     inkscape:cx="4.4684038"
     inkscape:cy="15.425599"
     inkscape:document-units="mm"
     inkscape:current-layer="layer1"
     showgrid="false"
     fit-margin-top="0"
     fit-margin-left="0"
     fit-margin-right="0"
     fit-margin-bottom="0"
     inkscape:window-width="2560"
     inkscape:window-height="1422"
     inkscape:window-x="0"
     inkscape:window-y="18"
     inkscape:window-maximized="0" />
  <metadata
     id="metadata111791">
    <rdf:RDF>
      <cc:Work
         rdf:about="">
        <dc:format>image/svg+xml</dc:format>
        <dc:type
           rdf:resource="http://purl.org/dc/dcmitype/StillImage" />
        <dc:title />
      </cc:Work>
    </rdf:RDF>
  </metadata>
  <g
     inkscape:label="Layer 1"
     inkscape:groupmode="layer"
     id="layer1"
     transform="translate(-168.09312,-67.39659)">
    <path
       inkscape:connector-curvature="0"
       style="fill:#505050;fill-opacity:1;fill-rule:nonzero;stroke:none;stroke-width:0.35277775"
       d="m 176.09263,71.397045 c 0,2.208995 -1.79006,3.999067 -3.99905,3.999067 -2.20902,0 -4.00046,-1.790072 -4.00046,-3.999067 0,-2.210372 1.79144,-4.000444 4.00046,-4.000444 2.20899,0 3.99905,1.790072 3.99905,4.000444"
       id="path110598" />
    <path
       inkscape:connector-curvature="0"
       style="fill:#000000;fill-opacity:1;fill-rule:nonzero;stroke:none;stroke-width:0.31741807"
       d="m 175.69173,71.396976 c 0,1.987583 -1.61064,3.598232 -3.59822,3.598232 -1.98761,0 -3.59949,-1.610649 -3.59949,-3.598232 0,-1.988822 1.61188,-3.599471 3.59949,-3.599471 1.98758,0 3.59822,1.610649 3.59822,3.599471"
       id="path110598-9" />
    <path
       inkscape:connector-curvature="0"
       style="fill:#ffffff;fill-opacity:1;fill-rule:evenodd;stroke:none;stroke-width:0.35277775"
       d="m 172.22587,67.41176 c -0.0427,-0.0097 -0.0868,-0.01517 -0.13229,-0.01517 -0.0455,0 -0.0896,0.0055 -0.13367,0.01517 v 4.034896 h 0.26596 z m 0,0"
       id="path110600" />
  </g>
</svg>
